  0
SECTION
  2
HEADER
  9
$ACADVER
  1
AC1009
  9
$INSBASE
 10
0.0000
 20
0.0000
 30
0.0000
  9
$EXTMIN
 10
-1800.0000
 20
-6650.0000
 30
0.0000
  9
$EXTMAX
 10
6780.0000
 20
1800.0000
 30
0.0000
  9
$DWGCODEPAGE
  3
ansi_1255
  9
$INSUNITS
 70
4
  9
$LTSCALE
 40
10.0000
  9
$LIMMIN
 10
0.0000
 20
0.0000
  9
$LIMMAX
 10
2000.0000
 20
200.0000
  0
ENDSEC
  0
SECTION
  2
TABLES
  0
TABLE
  2
VPORT
 70
1
  0
VPORT
  2
*ACTIVE
 70
0
 10
0.0000
 20
0.0000
 11
1.0000
 21
1.0000
 12
2490.0000
 22
-2425.0000
 13
0.0000
 23
0.0000
 14
10.0000
 24
10.0000
 15
10.0000
 25
10.0000
 16
0.0000
 26
0.0000
 36
1.0000
 17
0.0000
 27
0.0000
 37
0.0000
 40
9717.5000
 41
1.6000
 42
50.0000
 43
0.0000
 44
0.0000
 50
0.0000
 51
0.0000
 71
0
 72
100
 73
1
 74
1
 75
0
 76
0
 77
0
 78
0
  0
ENDTAB
  0
TABLE
  2
LTYPE
 70
2
  0
LTYPE
  2
CONTINUOUS
 70
0
  3
Solid line
 72
65
 73
0
 40
0.0000
  0
LTYPE
  2
HIDDEN
 70
0
  3
Hidden . . . . . .
 72
65
 73
2
 40
9.5250
 49
6.3500
 49
-3.1750
  0
ENDTAB
  0
TABLE
  2
LAYER
 70
29
  0
LAYER
  2
0
 70
0
 62
7
  6
CONTINUOUS
  0
LAYER
  2
Walls
 70
0
 62
253
  6
CONTINUOUS
  0
LAYER
  2
Ext_Wall
 70
0
 62
5
  6
CONTINUOUS
  0
LAYER
  2
Walls_Fill
 70
0
 62
253
  6
CONTINUOUS
  0
LAYER
  2
Const_Doors
 70
0
 62
5
  6
CONTINUOUS
  0
LAYER
  2
Const_Windows
 70
0
 62
152
  6
CONTINUOUS
  0
LAYER
  2
Electrical
 70
0
 62
6
  6
CONTINUOUS
  0
LAYER
  2
Dim_Power
 70
0
 62
6
  6
CONTINUOUS
  0
LAYER
  2
Plumbing
 70
0
 62
150
  6
CONTINUOUS
  0
LAYER
  2
Dim_Plumbing
 70
0
 62
150
  6
CONTINUOUS
  0
LAYER
  2
Gas
 70
0
 62
2
  6
CONTINUOUS
  0
LAYER
  2
Dim_Gas
 70
0
 62
2
  6
CONTINUOUS
  0
LAYER
  2
HVAC
 70
0
 62
4
  6
CONTINUOUS
  0
LAYER
  2
Dim_HVAC
 70
0
 62
4
  6
CONTINUOUS
  0
LAYER
  2
Lighting
 70
0
 62
30
  6
CONTINUOUS
  0
LAYER
  2
Dim_Lighting
 70
0
 62
30
  6
CONTINUOUS
  0
LAYER
  2
Structural
 70
0
 62
8
  6
CONTINUOUS
  0
LAYER
  2
Dim_Struct
 70
0
 62
8
  6
CONTINUOUS
  0
LAYER
  2
Misc
 70
0
 62
7
  6
CONTINUOUS
  0
LAYER
  2
Dim_Misc
 70
0
 62
7
  6
CONTINUOUS
  0
LAYER
  2
Cabinets
 70
0
 62
36
  6
CONTINUOUS
  0
LAYER
  2
Cabinets_Text
 70
0
 62
36
  6
CONTINUOUS
  0
LAYER
  2
DIM
 70
0
 62
9
  6
CONTINUOUS
  0
LAYER
  2
Dim_overall
 70
0
 62
9
  6
CONTINUOUS
  0
LAYER
  2
Text
 70
0
 62
74
  6
CONTINUOUS
  0
LAYER
  2
Text_Legend
 70
0
 62
74
  6
CONTINUOUS
  0
LAYER
  2
Text_Title
 70
0
 62
74
  6
CONTINUOUS
  0
LAYER
  2
PicNumber
 70
0
 62
74
  6
CONTINUOUS
  0
LAYER
  2
Frame
 70
0
 62
7
  6
CONTINUOUS
  0
ENDTAB
  0
TABLE
  2
STYLE
 70
1
  0
STYLE
  2
STANDARD
 70
0
 40
0.0000
 41
1.0000
 50
0.0000
 71
0
 42
2.5000
  3
ARIAL.TTF
  4

  0
ENDTAB
  0
ENDSEC
  0
SECTION
  2
BLOCKS
  0
BLOCK
  8
0
  2
COLUMN
 70
0
 10
0.0000
 20
0.0000
 30
0.0000
  0
LINE
  5
162
  8
0
 10
-100.0000
 20
-100.0000
 30
0.0000
 11
100.0000
 21
-100.0000
 31
0.0000
  0
LINE
  5
163
  8
0
 10
100.0000
 20
-100.0000
 30
0.0000
 11
100.0000
 21
100.0000
 31
0.0000
  0
LINE
  5
164
  8
0
 10
100.0000
 20
100.0000
 30
0.0000
 11
-100.0000
 21
100.0000
 31
0.0000
  0
LINE
  5
165
  8
0
 10
-100.0000
 20
100.0000
 30
0.0000
 11
-100.0000
 21
-100.0000
 31
0.0000
  0
LINE
  5
166
  8
0
 10
-100.0000
 20
-100.0000
 30
0.0000
 11
100.0000
 21
100.0000
 31
0.0000
  0
LINE
  5
167
  8
0
 10
-100.0000
 20
100.0000
 30
0.0000
 11
100.0000
 21
-100.0000
 31
0.0000
  0
ENDBLK
  5
168
  8
0
  0
BLOCK
  8
0
  2
SOCKET
 70
0
 10
0.0000
 20
0.0000
 30
0.0000
  0
LINE
  5
169
  8
0
 10
0.0000
 20
0.0000
 30
0.0000
 11
0.0000
 21
40.0000
 31
0.0000
  0
ARC
  5
16A
  8
0
 10
0.0000
 20
130.0000
 30
0.0000
 40
90.0000
 50
0.0000
 51
360.0000
  0
LINE
  5
16B
  8
0
 10
-90.0000
 20
130.0000
 30
0.0000
 11
90.0000
 21
130.0000
 31
0.0000
  0
LINE
  5
16C
  8
0
 10
-30.0000
 20
104.0000
 30
0.0000
 11
-30.0000
 21
156.0000
 31
0.0000
  0
LINE
  5
16D
  8
0
 10
30.0000
 20
104.0000
 30
0.0000
 11
30.0000
 21
156.0000
 31
0.0000
  0
ENDBLK
  5
16E
  8
0
  0
BLOCK
  8
0
  2
PANEL
 70
0
 10
0.0000
 20
0.0000
 30
0.0000
  0
LINE
  5
16F
  8
0
 10
-120.0000
 20
20.0000
 30
0.0000
 11
120.0000
 21
20.0000
 31
0.0000
  0
LINE
  5
170
  8
0
 10
120.0000
 20
20.0000
 30
0.0000
 11
120.0000
 21
200.0000
 31
0.0000
  0
LINE
  5
171
  8
0
 10
120.0000
 20
200.0000
 30
0.0000
 11
-120.0000
 21
200.0000
 31
0.0000
  0
LINE
  5
172
  8
0
 10
-120.0000
 20
200.0000
 30
0.0000
 11
-120.0000
 21
20.0000
 31
0.0000
  0
LINE
  5
173
  8
0
 10
-120.0000
 20
20.0000
 30
0.0000
 11
120.0000
 21
200.0000
 31
0.0000
  0
ENDBLK
  5
174
  8
0
  0
ENDSEC
  0
SECTION
  2
ENTITIES
  0
SOLID
  5
100
  8
Walls_Fill
 10
-50.0000
 20
50.0000
 30
0.0000
 11
3050.0000
 21
50.0000
 31
0.0000
 12
-50.0000
 22
-50.0000
 32
0.0000
 13
3050.0000
 23
-50.0000
 33
0.0000
  0
LINE
  5
101
  8
Ext_Wall
 10
-50.0000
 20
50.0000
 30
0.0000
 11
3050.0000
 21
50.0000
 31
0.0000
  0
LINE
  5
102
  8
Walls
 10
-50.0000
 20
-50.0000
 30
0.0000
 11
3050.0000
 21
-50.0000
 31
0.0000
  0
LINE
  5
103
  8
Walls
 10
-50.0000
 20
50.0000
 30
0.0000
 11
-50.0000
 21
-50.0000
 31
0.0000
  0
LINE
  5
104
  8
Walls
 10
3050.0000
 20
50.0000
 30
0.0000
 11
3050.0000
 21
-50.0000
 31
0.0000
  0
SOLID
  5
105
  8
Walls_Fill
 10
3050.0000
 20
50.0000
 30
0.0000
 11
3050.0000
 21
-5050.0000
 31
0.0000
 12
2950.0000
 22
50.0000
 32
0.0000
 13
2950.0000
 23
-5050.0000
 33
0.0000
  0
LINE
  5
106
  8
Ext_Wall
 10
3050.0000
 20
50.0000
 30
0.0000
 11
3050.0000
 21
-5050.0000
 31
0.0000
  0
LINE
  5
107
  8
Walls
 10
2950.0000
 20
50.0000
 30
0.0000
 11
2950.0000
 21
-5050.0000
 31
0.0000
  0
LINE
  5
108
  8
Walls
 10
3050.0000
 20
50.0000
 30
0.0000
 11
2950.0000
 21
50.0000
 31
0.0000
  0
LINE
  5
109
  8
Walls
 10
3050.0000
 20
-5050.0000
 30
0.0000
 11
2950.0000
 21
-5050.0000
 31
0.0000
  0
LINE
  5
10A
  8
DIM
 10
0.0000
 20
0.0000
 30
0.0000
 11
0.0000
 21
370.0000
 31
0.0000
  0
LINE
  5
10B
  8
DIM
 10
3000.0000
 20
0.0000
 30
0.0000
 11
3000.0000
 21
370.0000
 31
0.0000
  0
LINE
  5
10C
  8
DIM
 10
0.0000
 20
310.0000
 30
0.0000
 11
3000.0000
 21
310.0000
 31
0.0000
  0
SOLID
  5
10D
  8
DIM
 10
0.0000
 20
310.0000
 30
0.0000
 11
-90.0000
 21
338.0000
 31
0.0000
 12
-90.0000
 22
282.0000
 32
0.0000
 13
-90.0000
 23
282.0000
 33
0.0000
  0
SOLID
  5
10E
  8
DIM
 10
3000.0000
 20
310.0000
 30
0.0000
 11
3090.0000
 21
338.0000
 31
0.0000
 12
3090.0000
 22
282.0000
 32
0.0000
 13
3090.0000
 23
282.0000
 33
0.0000
  0
TEXT
  5
10F
  8
DIM
 10
1500.0000
 20
354.5000
 30
0.0000
 40
89.0000
  1
300
 50
0.0000
  7
STANDARD
 72
1
 73
2
 11
1500.0000
 21
354.5000
 31
0.0000
  0
LINE
  5
110
  8
DIM
 10
3000.0000
 20
0.0000
 30
0.0000
 11
3370.0000
 21
0.0000
 31
0.0000
  0
LINE
  5
111
  8
DIM
 10
3000.0000
 20
-5000.0000
 30
0.0000
 11
3370.0000
 21
-5000.0000
 31
0.0000
  0
LINE
  5
112
  8
DIM
 10
3310.0000
 20
0.0000
 30
0.0000
 11
3310.0000
 21
-5000.0000
 31
0.0000
  0
SOLID
  5
113
  8
DIM
 10
3310.0000
 20
0.0000
 30
0.0000
 11
3338.0000
 21
90.0000
 31
0.0000
 12
3282.0000
 22
90.0000
 32
0.0000
 13
3282.0000
 23
90.0000
 33
0.0000
  0
SOLID
  5
114
  8
DIM
 10
3310.0000
 20
-5000.0000
 30
0.0000
 11
3338.0000
 21
-5090.0000
 31
0.0000
 12
3282.0000
 22
-5090.0000
 32
0.0000
 13
3282.0000
 23
-5090.0000
 33
0.0000
  0
TEXT
  5
115
  8
DIM
 10
3354.5000
 20
-2500.0000
 30
0.0000
 40
89.0000
  1
500
 50
90.0000
  7
STANDARD
 72
1
 73
2
 11
3354.5000
 21
-2500.0000
 31
0.0000
  0
INSERT
  5
116
  8
Structural
  2
COLUMN
 10
0.0000
 20
0.0000
 30
0.0000
 41
1.0000
 42
1.0000
 43
1.0000
 50
0.0000
  0
TEXT
  5
117
  8
Text
 10
0.0000
 20
230.0000
 30
0.0000
 40
72.9800
  1
\U+05E2\U+05DE\U+05D5\U+05D3
 50
0.0000
  7
STANDARD
 72
1
 73
2
 11
0.0000
 21
230.0000
 31
0.0000
  0
TEXT
  5
118
  8
Structural
 10
70.0000
 20
60.0000
 30
0.0000
 40
72.9800
  1
H 30
 50
0.0000
  7
STANDARD
  0
INSERT
  5
119
  8
Electrical
  2
SOCKET
 10
1474.0000
 20
0.0000
 30
0.0000
 41
1.0000
 42
1.0000
 43
1.0000
 50
0.0000
  0
TEXT
  5
11A
  8
Text
 10
1474.0000
 20
230.0000
 30
0.0000
 40
72.9800
  1
\U+05E9\U+05E7\U+05E2
 50
0.0000
  7
STANDARD
 72
1
 73
2
 11
1474.0000
 21
230.0000
 31
0.0000
  0
TEXT
  5
11B
  8
Electrical
 10
1544.0000
 20
60.0000
 30
0.0000
 40
72.9800
  1
H 30
 50
0.0000
  7
STANDARD
  0
LINE
  5
11C
  8
Dim_Power
 10
0.0000
 20
0.0000
 30
0.0000
 11
0.0000
 21
-210.0000
 31
0.0000
  0
LINE
  5
11D
  8
Dim_Power
 10
1474.0000
 20
0.0000
 30
0.0000
 11
1474.0000
 21
-210.0000
 31
0.0000
  0
LINE
  5
11E
  8
Dim_Power
 10
0.0000
 20
-150.0000
 30
0.0000
 11
1474.0000
 21
-150.0000
 31
0.0000
  0
SOLID
  5
11F
  8
Dim_Power
 10
0.0000
 20
-150.0000
 30
0.0000
 11
-90.0000
 21
-178.0000
 31
0.0000
 12
-90.0000
 22
-122.0000
 32
0.0000
 13
-90.0000
 23
-122.0000
 33
0.0000
  0
SOLID
  5
120
  8
Dim_Power
 10
1474.0000
 20
-150.0000
 30
0.0000
 11
1564.0000
 21
-178.0000
 31
0.0000
 12
1564.0000
 22
-122.0000
 32
0.0000
 13
1564.0000
 23
-122.0000
 33
0.0000
  0
TEXT
  5
121
  8
Dim_Power
 10
737.0000
 20
-187.8250
 30
0.0000
 40
75.6500
  1
147.4
 50
0.0000
  7
STANDARD
 72
1
 73
2
 11
737.0000
 21
-187.8250
 31
0.0000
  0
INSERT
  5
122
  8
Electrical
  2
PANEL
 10
3000.0000
 20
-842.0000
 30
0.0000
 41
1.0000
 42
1.0000
 43
1.0000
 50
270.0000
  0
TEXT
  5
123
  8
Text
 10
3230.0000
 20
-842.0000
 30
0.0000
 40
72.9800
  1
\U+05EA\U+05E9\U+05EA\U+05D9\U+05EA \U+05D7\U+05E9\U+05DE\U+05DC
 50
0.0000
  7
STANDARD
 72
1
 73
2
 11
3230.0000
 21
-842.0000
 31
0.0000
  0
TEXT
  5
124
  8
Electrical
 10
3130.0000
 20
-842.0000
 30
0.0000
 40
72.9800
  1
H 30
 50
0.0000
  7
STANDARD
  0
LINE
  5
125
  8
Dim_Power
 10
3000.0000
 20
0.0000
 30
0.0000
 11
2790.0000
 21
0.0000
 31
0.0000
  0
LINE
  5
126
  8
Dim_Power
 10
3000.0000
 20
-842.0000
 30
0.0000
 11
2790.0000
 21
-842.0000
 31
0.0000
  0
LINE
  5
127
  8
Dim_Power
 10
2850.0000
 20
0.0000
 30
0.0000
 11
2850.0000
 21
-842.0000
 31
0.0000
  0
SOLID
  5
128
  8
Dim_Power
 10
2850.0000
 20
0.0000
 30
0.0000
 11
2822.0000
 21
90.0000
 31
0.0000
 12
2878.0000
 22
90.0000
 32
0.0000
 13
2878.0000
 23
90.0000
 33
0.0000
  0
SOLID
  5
129
  8
Dim_Power
 10
2850.0000
 20
-842.0000
 30
0.0000
 11
2822.0000
 21
-932.0000
 31
0.0000
 12
2878.0000
 22
-932.0000
 32
0.0000
 13
2878.0000
 23
-932.0000
 33
0.0000
  0
TEXT
  5
12A
  8
Dim_Power
 10
2812.1750
 20
-421.0000
 30
0.0000
 40
75.6500
  1
84.2
 50
90.0000
  7
STANDARD
 72
1
 73
2
 11
2812.1750
 21
-421.0000
 31
0.0000
  0
LINE
  5
12B
  8
Dim_overall
 10
-200.0000
 20
-5050.0000
 30
0.0000
 11
-200.0000
 21
-6010.0000
 31
0.0000
  0
LINE
  5
12C
  8
Dim_overall
 10
3200.0000
 20
-5050.0000
 30
0.0000
 11
3200.0000
 21
-6010.0000
 31
0.0000
  0
LINE
  5
12D
  8
Dim_overall
 10
-200.0000
 20
-5950.0000
 30
0.0000
 11
3200.0000
 21
-5950.0000
 31
0.0000
  0
SOLID
  5
12E
  8
Dim_overall
 10
-200.0000
 20
-5950.0000
 30
0.0000
 11
-290.0000
 21
-5978.0000
 31
0.0000
 12
-290.0000
 22
-5922.0000
 32
0.0000
 13
-290.0000
 23
-5922.0000
 33
0.0000
  0
SOLID
  5
12F
  8
Dim_overall
 10
3200.0000
 20
-5950.0000
 30
0.0000
 11
3290.0000
 21
-5978.0000
 31
0.0000
 12
3290.0000
 22
-5922.0000
 32
0.0000
 13
3290.0000
 23
-5922.0000
 33
0.0000
  0
TEXT
  5
130
  8
Dim_overall
 10
1500.0000
 20
-5994.5000
 30
0.0000
 40
89.0000
  1
340
 50
0.0000
  7
STANDARD
 72
1
 73
2
 11
1500.0000
 21
-5994.5000
 31
0.0000
  0
LINE
  5
131
  8
Dim_overall
 10
-200.0000
 20
-5050.0000
 30
0.0000
 11
-1160.0000
 21
-5050.0000
 31
0.0000
  0
LINE
  5
132
  8
Dim_overall
 10
-200.0000
 20
200.0000
 30
0.0000
 11
-1160.0000
 21
200.0000
 31
0.0000
  0
LINE
  5
133
  8
Dim_overall
 10
-1100.0000
 20
-5050.0000
 30
0.0000
 11
-1100.0000
 21
200.0000
 31
0.0000
  0
SOLID
  5
134
  8
Dim_overall
 10
-1100.0000
 20
-5050.0000
 30
0.0000
 11
-1128.0000
 21
-5140.0000
 31
0.0000
 12
-1072.0000
 22
-5140.0000
 32
0.0000
 13
-1072.0000
 23
-5140.0000
 33
0.0000
  0
SOLID
  5
135
  8
Dim_overall
 10
-1100.0000
 20
200.0000
 30
0.0000
 11
-1128.0000
 21
290.0000
 31
0.0000
 12
-1072.0000
 22
290.0000
 32
0.0000
 13
-1072.0000
 23
290.0000
 33
0.0000
  0
TEXT
  5
136
  8
Dim_overall
 10
-1144.5000
 20
-2425.0000
 30
0.0000
 40
89.0000
  1
525
 50
90.0000
  7
STANDARD
 72
1
 73
2
 11
-1144.5000
 21
-2425.0000
 31
0.0000
  0
TEXT
  5
137
  8
Text
 10
2250.0000
 20
-1125.4000
 30
0.0000
 40
97.9000
  1
\U+05DE\U+05D8\U+05D1\U+05D7
 50
0.0000
  7
STANDARD
 72
1
 73
2
 11
2250.0000
 21
-1125.4000
 31
0.0000
  0
TEXT
  5
138
  8
PicNumber
 10
2250.0000
 20
-1303.4000
 30
0.0000
 40
115.7000
  1
P.1
 50
0.0000
  7
STANDARD
 72
1
 73
2
 11
2250.0000
 21
-1303.4000
 31
0.0000
  0
LINE
  5
139
  8
Frame
 10
4600.0000
 20
200.0000
 30
0.0000
 11
6380.0000
 21
200.0000
 31
0.0000
  0
LINE
  5
13A
  8
Frame
 10
6380.0000
 20
200.0000
 30
0.0000
 11
6380.0000
 21
-1117.2000
 31
0.0000
  0
LINE
  5
13B
  8
Frame
 10
6380.0000
 20
-1117.2000
 30
0.0000
 11
4600.0000
 21
-1117.2000
 31
0.0000
  0
LINE
  5
13C
  8
Frame
 10
4600.0000
 20
-1117.2000
 30
0.0000
 11
4600.0000
 21
200.0000
 31
0.0000
  0
LINE
  5
13D
  8
Frame
 10
4600.0000
 20
-31.4000
 30
0.0000
 11
6380.0000
 21
-31.4000
 31
0.0000
  0
TEXT
  5
13E
  8
Text_Title
 10
6326.6000
 20
39.8000
 30
0.0000
 40
111.2500
  1
\U+05E1\U+05D5\U+05DC\U+05D9\U+05DF \U+2014 \U+05EA\U+05DB\U+05E0\U+05D9\U+05EA \U+05DE\U+05D3\U+05D9\U+05D3\U+05D4
 50
0.0000
  7
STANDARD
 72
2
 73
2
 11
6326.6000
 21
39.8000
 31
0.0000
  0
TEXT
  5
13F
  8
Text_Title
 10
6326.6000
 20
-138.2000
 30
0.0000
 40
89.0000
  1
\U+05E4\U+05E8\U+05D5\U+05D9\U+05E7\U+05D8: \U+05D1\U+05D3\U+05D9\U+05E7\U+05D4
 50
0.0000
  7
STANDARD
 72
2
 73
2
 11
6326.6000
 21
-138.2000
 31
0.0000
  0
TEXT
  5
140
  8
Text_Title
 10
6326.6000
 20
-316.2000
 30
0.0000
 40
89.0000
  1
\U+05DC\U+05E7\U+05D5\U+05D7: \U+2014
 50
0.0000
  7
STANDARD
 72
2
 73
2
 11
6326.6000
 21
-316.2000
 31
0.0000
  0
TEXT
  5
141
  8
Text_Title
 10
6326.6000
 20
-494.2000
 30
0.0000
 40
89.0000
  1
\U+05DB\U+05EA\U+05D5\U+05D1\U+05EA: \U+2014
 50
0.0000
  7
STANDARD
 72
2
 73
2
 11
6326.6000
 21
-494.2000
 31
0.0000
  0
TEXT
  5
142
  8
Text_Title
 10
6326.6000
 20
-672.2000
 30
0.0000
 40
89.0000
  1
\U+05DE\U+05D5\U+05D3\U+05D3: \U+2014
 50
0.0000
  7
STANDARD
 72
2
 73
2
 11
6326.6000
 21
-672.2000
 31
0.0000
  0
TEXT
  5
143
  8
Text_Title
 10
6326.6000
 20
-850.2000
 30
0.0000
 40
89.0000
  1
\U+05EA\U+05D0\U+05E8\U+05D9\U+05DA: 2026-08-20
 50
0.0000
  7
STANDARD
 72
2
 73
2
 11
6326.6000
 21
-850.2000
 31
0.0000
  0
TEXT
  5
144
  8
Text_Title
 10
6326.6000
 20
-1028.2000
 30
0.0000
 40
89.0000
  1
\U+05E7\U+05E0"\U+05DE: 1:50   \U+05D9\U+05D7\U+05D9\U+05D3\U+05D5\U+05EA: \U+05DE"\U+05DE
 50
0.0000
  7
STANDARD
 72
2
 73
2
 11
6326.6000
 21
-1028.2000
 31
0.0000
  0
LINE
  5
145
  8
Frame
 10
4600.0000
 20
-1339.7000
 30
0.0000
 11
6024.0000
 21
-1339.7000
 31
0.0000
  0
LINE
  5
146
  8
Frame
 10
6024.0000
 20
-1339.7000
 30
0.0000
 11
6024.0000
 21
-2194.1000
 31
0.0000
  0
LINE
  5
147
  8
Frame
 10
6024.0000
 20
-2194.1000
 30
0.0000
 11
4600.0000
 21
-2194.1000
 31
0.0000
  0
LINE
  5
148
  8
Frame
 10
4600.0000
 20
-2194.1000
 30
0.0000
 11
4600.0000
 21
-1339.7000
 31
0.0000
  0
TEXT
  5
149
  8
Text_Legend
 10
5935.0000
 20
-1539.0600
 30
0.0000
 40
102.3500
  1
\U+05DE\U+05E7\U+05E8\U+05D0
 50
0.0000
  7
STANDARD
 72
2
 73
2
 11
5935.0000
 21
-1539.0600
 31
0.0000
  0
LINE
  5
14A
  8
Structural
 10
4718.0000
 20
-1858.4000
 30
0.0000
 11
4838.0000
 21
-1858.4000
 31
0.0000
  0
LINE
  5
14B
  8
Structural
 10
4838.0000
 20
-1858.4000
 30
0.0000
 11
4838.0000
 21
-1738.4000
 31
0.0000
  0
LINE
  5
14C
  8
Structural
 10
4838.0000
 20
-1738.4000
 30
0.0000
 11
4718.0000
 21
-1738.4000
 31
0.0000
  0
LINE
  5
14D
  8
Structural
 10
4718.0000
 20
-1738.4000
 30
0.0000
 11
4718.0000
 21
-1858.4000
 31
0.0000
  0
LINE
  5
14E
  8
Structural
 10
4718.0000
 20
-1858.4000
 30
0.0000
 11
4838.0000
 21
-1738.4000
 31
0.0000
  0
LINE
  5
14F
  8
Structural
 10
4718.0000
 20
-1738.4000
 30
0.0000
 11
4838.0000
 21
-1858.4000
 31
0.0000
  0
TEXT
  5
150
  8
Text_Legend
 10
5935.0000
 20
-1766.9000
 30
0.0000
 40
89.0000
  1
\U+05E7\U+05D5\U+05E0\U+05E1\U+05D8\U+05E8\U+05D5\U+05E7\U+05E6\U+05D9\U+05D4
 50
0.0000
  7
STANDARD
 72
2
 73
2
 11
5935.0000
 21
-1766.9000
 31
0.0000
  0
LINE
  5
151
  8
Electrical
 10
4778.0000
 20
-2083.2000
 30
0.0000
 11
4778.0000
 21
-2059.2000
 31
0.0000
  0
ARC
  5
152
  8
Electrical
 10
4778.0000
 20
-2005.2000
 30
0.0000
 40
54.0000
 50
0.0000
 51
360.0000
  0
LINE
  5
153
  8
Electrical
 10
4724.0000
 20
-2005.2000
 30
0.0000
 11
4832.0000
 21
-2005.2000
 31
0.0000
  0
LINE
  5
154
  8
Electrical
 10
4760.0000
 20
-2020.8000
 30
0.0000
 11
4760.0000
 21
-1989.6000
 31
0.0000
  0
LINE
  5
155
  8
Electrical
 10
4796.0000
 20
-2020.8000
 30
0.0000
 11
4796.0000
 21
-1989.6000
 31
0.0000
  0
TEXT
  5
156
  8
Text_Legend
 10
5935.0000
 20
-2051.7000
 30
0.0000
 40
89.0000
  1
\U+05D7\U+05E9\U+05DE\U+05DC
 50
0.0000
  7
STANDARD
 72
2
 73
2
 11
5935.0000
 21
-2051.7000
 31
0.0000
  0
LINE
  5
157
  8
Frame
 10
5490.0000
 20
-2461.1000
 30
0.0000
 11
5490.0000
 21
-2016.1000
 31
0.0000
  0
SOLID
  5
158
  8
Frame
 10
5490.0000
 20
-2016.1000
 30
0.0000
 11
5445.5000
 21
-2105.1000
 31
0.0000
 12
5534.5000
 22
-2105.1000
 32
0.0000
 13
5534.5000
 23
-2105.1000
 33
0.0000
  0
TEXT
  5
159
  8
Frame
 10
5490.0000
 20
-1989.4000
 30
0.0000
 40
97.9000
  1
\U+05E6
 50
0.0000
  7
STANDARD
 72
1
 73
3
 11
5490.0000
 21
-1989.4000
 31
0.0000
  0
LINE
  5
15A
  8
Frame
 10
5223.0000
 20
-2594.6000
 30
0.0000
 11
6023.0000
 21
-2594.6000
 31
0.0000
  0
LINE
  5
15B
  8
Frame
 10
5223.0000
 20
-2594.6000
 30
0.0000
 11
5223.0000
 21
-2639.1000
 31
0.0000
  0
LINE
  5
15C
  8
Frame
 10
5423.0000
 20
-2594.6000
 30
0.0000
 11
5423.0000
 21
-2639.1000
 31
0.0000
  0
LINE
  5
15D
  8
Frame
 10
5623.0000
 20
-2594.6000
 30
0.0000
 11
5623.0000
 21
-2639.1000
 31
0.0000
  0
LINE
  5
15E
  8
Frame
 10
5823.0000
 20
-2594.6000
 30
0.0000
 11
5823.0000
 21
-2639.1000
 31
0.0000
  0
LINE
  5
15F
  8
Frame
 10
6023.0000
 20
-2594.6000
 30
0.0000
 11
6023.0000
 21
-2639.1000
 31
0.0000
  0
TEXT
  5
160
  8
Frame
 10
5223.0000
 20
-2737.0000
 30
0.0000
 40
62.3000
  1
0
 50
0.0000
  7
STANDARD
 72
1
 11
5223.0000
 21
-2737.0000
 31
0.0000
  0
TEXT
  5
161
  8
Frame
 10
6023.0000
 20
-2737.0000
 30
0.0000
 40
62.3000
  1
0.8 \U+05DE\U+05F3
 50
0.0000
  7
STANDARD
 72
2
 11
6023.0000
 21
-2737.0000
 31
0.0000
  0
ENDSEC
  0
EOF
