0
SECTION
2
HEADER
9
$ACADVER
1
AC1009
9
$INSUNITS
70
1
0
ENDSEC
0
SECTION
2
TABLES
0
TABLE
2
LAYER
70
2
0
LAYER
2
0
70
0
62
7
6
CONTINUOUS
0
LAYER
2
ROOM
70
0
62
5
6
CONTINUOUS
0
ENDTAB
0
ENDSEC
0
SECTION
2
ENTITIES
0
3DFACE
8
ROOM
62
5
10
74.528465
20
-87.780769
30
0.000000
11
74.404663
21
136.926300
31
0.000000
12
74.404663
22
136.926300
32
99.476379
13
74.528465
23
-87.780769
33
99.476379
0
3DFACE
8
ROOM
62
5
10
78.341667
20
136.928467
30
0.000000
11
78.465469
21
-87.778595
31
0.000000
12
78.465469
22
-87.778595
32
99.476379
13
78.341667
23
136.928467
33
99.476379
0
3DFACE
8
ROOM
62
5
10
74.528465
20
-87.780769
30
99.476379
11
74.404663
21
136.926300
31
99.476379
12
78.341667
22
136.928467
32
99.476379
13
78.465469
23
-87.778595
33
99.476379
0
3DFACE
8
ROOM
62
5
10
74.404663
20
136.926300
30
0.000000
11
74.528465
21
-87.780769
31
0.000000
12
78.465469
22
-87.778595
32
0.000000
13
78.341667
23
136.928467
33
0.000000
0
3DFACE
8
ROOM
62
5
10
78.465469
20
-87.778595
30
0.000000
11
74.528465
21
-87.780769
31
0.000000
12
74.528465
22
-87.780769
32
99.476379
13
78.465469
23
-87.778595
33
99.476379
0
3DFACE
8
ROOM
62
5
10
74.404663
20
136.926300
30
0.000000
11
78.341667
21
136.928467
31
0.000000
12
78.341667
22
136.928467
32
99.476379
13
74.404663
23
136.926300
33
99.476379
0
3DFACE
8
ROOM
62
5
10
76.368874
20
134.958878
30
0.000000
11
22.113321
21
135.077225
31
0.000000
12
22.113321
22
135.077225
32
99.476379
13
76.368874
23
134.958878
33
99.476379
0
3DFACE
8
ROOM
62
5
10
22.121908
20
139.014236
30
0.000000
11
76.377457
21
138.895889
31
0.000000
12
76.377457
22
138.895889
32
99.476379
13
22.121908
23
139.014236
33
99.476379
0
3DFACE
8
ROOM
62
5
10
76.368874
20
134.958878
30
99.476379
11
22.113321
21
135.077225
31
99.476379
12
22.121908
22
139.014236
32
99.476379
13
76.377457
23
138.895889
33
99.476379
0
3DFACE
8
ROOM
62
5
10
22.113321
20
135.077225
30
0.000000
11
76.368874
21
134.958878
31
0.000000
12
76.377457
22
138.895889
32
0.000000
13
22.121908
23
139.014236
33
0.000000
0
3DFACE
8
ROOM
62
5
10
76.377457
20
138.895889
30
0.000000
11
76.368874
21
134.958878
31
0.000000
12
76.368874
22
134.958878
32
99.476379
13
76.377457
23
138.895889
33
99.476379
0
3DFACE
8
ROOM
62
5
10
22.113321
20
135.077225
30
0.000000
11
22.121908
21
139.014236
31
0.000000
12
22.121908
22
139.014236
32
99.476379
13
22.113321
23
135.077225
33
99.476379
0
3DFACE
8
ROOM
62
5
10
-35.111179
20
48.973396
30
0.000000
11
-87.600174
21
47.561035
31
0.000000
12
-87.600174
22
47.561035
32
99.476379
13
-35.111179
23
48.973396
33
99.476379
0
3DFACE
8
ROOM
62
5
10
-87.706078
20
51.496620
30
0.000000
11
-35.217079
21
52.908985
31
0.000000
12
-35.217079
22
52.908985
32
99.476379
13
-87.706078
23
51.496620
33
99.476379
0
3DFACE
8
ROOM
62
5
10
-35.111179
20
48.973396
30
99.476379
11
-87.600174
21
47.561035
31
99.476379
12
-87.706078
22
51.496620
32
99.476379
13
-35.217079
23
52.908985
33
99.476379
0
3DFACE
8
ROOM
62
5
10
-87.600174
20
47.561035
30
0.000000
11
-35.111179
21
48.973396
31
0.000000
12
-35.217079
22
52.908985
32
0.000000
13
-87.706078
23
51.496620
33
0.000000
0
3DFACE
8
ROOM
62
5
10
-35.217079
20
52.908985
30
0.000000
11
-35.111179
21
48.973396
31
0.000000
12
-35.111179
22
48.973396
32
99.476379
13
-35.217079
23
52.908985
33
99.476379
0
3DFACE
8
ROOM
62
5
10
-87.600174
20
47.561035
30
0.000000
11
-87.706078
21
51.496620
31
0.000000
12
-87.706078
22
51.496620
32
99.476379
13
-87.600174
23
47.561035
33
99.476379
0
3DFACE
8
ROOM
62
5
10
-85.697510
20
49.573734
30
0.000000
11
-84.999359
21
-87.769676
31
0.000000
12
-84.999359
22
-87.769676
32
99.476379
13
-85.697510
23
49.573734
33
99.476379
0
3DFACE
8
ROOM
62
5
10
-88.936302
20
-87.789688
30
0.000000
11
-89.634460
21
49.553722
31
0.000000
12
-89.634460
22
49.553722
32
99.476379
13
-88.936302
23
-87.789688
33
99.476379
0
3DFACE
8
ROOM
62
5
10
-85.697510
20
49.573734
30
99.476379
11
-84.999359
21
-87.769676
31
99.476379
12
-88.936302
22
-87.789688
32
99.476379
13
-89.634460
23
49.553722
33
99.476379
0
3DFACE
8
ROOM
62
5
10
-84.999359
20
-87.769676
30
0.000000
11
-85.697510
21
49.573734
31
0.000000
12
-89.634460
22
49.553722
32
0.000000
13
-88.936302
23
-87.789688
33
0.000000
0
3DFACE
8
ROOM
62
5
10
-89.634460
20
49.553722
30
0.000000
11
-85.697510
21
49.573734
31
0.000000
12
-85.697510
22
49.573734
32
99.476379
13
-89.634460
23
49.553722
33
99.476379
0
3DFACE
8
ROOM
62
5
10
-84.999359
20
-87.769676
30
0.000000
11
-88.936302
21
-87.789688
31
0.000000
12
-88.936302
22
-87.789688
32
99.476379
13
-84.999359
23
-87.769676
33
99.476379
0
3DFACE
8
ROOM
62
5
10
-86.967834
20
-85.811180
30
0.000000
11
76.496964
21
-85.811180
31
0.000000
12
76.496964
22
-85.811180
32
99.476379
13
-86.967834
23
-85.811180
33
99.476379
0
3DFACE
8
ROOM
62
5
10
76.496964
20
-89.748192
30
0.000000
11
-86.967834
21
-89.748192
31
0.000000
12
-86.967834
22
-89.748192
32
99.476379
13
76.496964
23
-89.748192
33
99.476379
0
3DFACE
8
ROOM
62
5
10
-86.967834
20
-85.811180
30
99.476379
11
76.496964
21
-85.811180
31
99.476379
12
76.496964
22
-89.748192
32
99.476379
13
-86.967834
23
-89.748192
33
99.476379
0
3DFACE
8
ROOM
62
5
10
76.496964
20
-85.811180
30
0.000000
11
-86.967834
21
-85.811180
31
0.000000
12
-86.967834
22
-89.748192
32
0.000000
13
76.496964
23
-89.748192
33
0.000000
0
3DFACE
8
ROOM
62
5
10
-86.967834
20
-89.748192
30
0.000000
11
-86.967834
21
-85.811180
31
0.000000
12
-86.967834
22
-85.811180
32
99.476379
13
-86.967834
23
-89.748192
33
99.476379
0
3DFACE
8
ROOM
62
5
10
76.496964
20
-85.811180
30
0.000000
11
76.496964
21
-89.748192
31
0.000000
12
76.496964
22
-89.748192
32
99.476379
13
76.496964
23
-85.811180
33
99.476379
0
ENDSEC
0
EOF
