  0
SECTION
  2
HEADER
  9
$ACADVER
  1
AC1009
  9
$INSBASE
 10
0.0000
 20
0.0000
 30
0.0000
  9
$EXTMIN
 10
-3000.0000
 20
-16128.1250
 30
0.0000
  9
$EXTMAX
 10
21300.0000
 20
1400.0000
 30
0.0000
  9
$DWGCODEPAGE
  3
ansi_1255
  9
$CLAYER
  8
0
  9
$LTSCALE
 40
10.0000
  9
$LIMMIN
 10
0.0000
 20
0.0000
  9
$LIMMAX
 10
2000.0000
 20
200.0000
  0
ENDSEC
  0
SECTION
  2
TABLES
  0
TABLE
  2
VPORT
 70
1
  0
VPORT
  2
*ACTIVE
 70
0
 10
0.0000
 20
0.0000
 11
1.0000
 21
1.0000
 12
9150.0000
 22
-7364.0625
 13
0.0000
 23
0.0000
 14
10.0000
 24
10.0000
 15
10.0000
 25
10.0000
 16
0.0000
 26
0.0000
 36
1.0000
 17
0.0000
 27
0.0000
 37
0.0000
 40
20157.3438
 41
1.6000
 42
50.0000
 43
0.0000
 44
0.0000
 50
0.0000
 51
0.0000
 71
0
 72
100
 73
1
 74
1
 75
0
 76
0
 77
0
 78
0
  0
ENDTAB
  0
TABLE
  2
LTYPE
 70
3
  0
LTYPE
  2
CONTINUOUS
 70
0
  3
Solid line
 72
65
 73
0
 40
0.0000
  0
LTYPE
  2
HIDDEN
 70
0
  3
Hidden __ __ __ __ __ __
 72
65
 73
2
 40
9.5250
 49
6.3500
 49
-3.1750
  0
LTYPE
  2
CENTER
 70
0
  3
Center ____ _ ____ _ ____
 72
65
 73
4
 40
50.8000
 49
31.7500
 49
-6.3500
 49
6.3500
 49
-6.3500
  0
ENDTAB
  0
TABLE
  2
LAYER
 70
71
  0
LAYER
  2
0
 70
0
 62
7
  6
CONTINUOUS
  0
LAYER
  2
קירות
 70
0
 62
7
  6
CONTINUOUS
  0
LAYER
  2
קירות-מילוי
 70
0
 62
8
  6
CONTINUOUS
  0
LAYER
  2
קירות-מידות
 70
0
 62
7
  6
CONTINUOUS
  0
LAYER
  2
קירות-טקסט
 70
0
 62
7
  6
CONTINUOUS
  0
LAYER
  2
קירות-נסתר
 70
0
 62
7
  6
HIDDEN
  0
LAYER
  2
קירות-ציר
 70
0
 62
7
  6
CENTER
  0
LAYER
  2
מבנה
 70
0
 62
9
  6
CONTINUOUS
  0
LAYER
  2
מבנה-מילוי
 70
0
 62
9
  6
CONTINUOUS
  0
LAYER
  2
מבנה-מידות
 70
0
 62
9
  6
CONTINUOUS
  0
LAYER
  2
מבנה-טקסט
 70
0
 62
9
  6
CONTINUOUS
  0
LAYER
  2
מבנה-נסתר
 70
0
 62
9
  6
HIDDEN
  0
LAYER
  2
מבנה-ציר
 70
0
 62
9
  6
CENTER
  0
LAYER
  2
חשמל
 70
0
 62
6
  6
CONTINUOUS
  0
LAYER
  2
חשמל-מידות
 70
0
 62
6
  6
CONTINUOUS
  0
LAYER
  2
חשמל-טקסט
 70
0
 62
6
  6
CONTINUOUS
  0
LAYER
  2
חשמל-נסתר
 70
0
 62
6
  6
HIDDEN
  0
LAYER
  2
תאורה
 70
0
 62
30
  6
CONTINUOUS
  0
LAYER
  2
תאורה-מידות
 70
0
 62
30
  6
CONTINUOUS
  0
LAYER
  2
תאורה-טקסט
 70
0
 62
30
  6
CONTINUOUS
  0
LAYER
  2
תאורה-נסתר
 70
0
 62
30
  6
HIDDEN
  0
LAYER
  2
מים
 70
0
 62
4
  6
CONTINUOUS
  0
LAYER
  2
מים-מידות
 70
0
 62
4
  6
CONTINUOUS
  0
LAYER
  2
מים-טקסט
 70
0
 62
4
  6
CONTINUOUS
  0
LAYER
  2
מים-נסתר
 70
0
 62
4
  6
HIDDEN
  0
LAYER
  2
מים-ציר
 70
0
 62
4
  6
CENTER
  0
LAYER
  2
ניקוז
 70
0
 62
140
  6
CONTINUOUS
  0
LAYER
  2
ניקוז-מידות
 70
0
 62
140
  6
CONTINUOUS
  0
LAYER
  2
ניקוז-טקסט
 70
0
 62
140
  6
CONTINUOUS
  0
LAYER
  2
ניקוז-נסתר
 70
0
 62
140
  6
HIDDEN
  0
LAYER
  2
ניקוז-ציר
 70
0
 62
140
  6
CENTER
  0
LAYER
  2
גז
 70
0
 62
2
  6
CONTINUOUS
  0
LAYER
  2
גז-מידות
 70
0
 62
2
  6
CONTINUOUS
  0
LAYER
  2
גז-טקסט
 70
0
 62
2
  6
CONTINUOUS
  0
LAYER
  2
גז-נסתר
 70
0
 62
2
  6
HIDDEN
  0
LAYER
  2
גז-ציר
 70
0
 62
2
  6
CENTER
  0
LAYER
  2
מיזוג
 70
0
 62
141
  6
CONTINUOUS
  0
LAYER
  2
מיזוג-מידות
 70
0
 62
141
  6
CONTINUOUS
  0
LAYER
  2
מיזוג-טקסט
 70
0
 62
141
  6
CONTINUOUS
  0
LAYER
  2
מיזוג-נסתר
 70
0
 62
141
  6
HIDDEN
  0
LAYER
  2
אוורור
 70
0
 62
131
  6
CONTINUOUS
  0
LAYER
  2
אוורור-מידות
 70
0
 62
131
  6
CONTINUOUS
  0
LAYER
  2
אוורור-טקסט
 70
0
 62
131
  6
CONTINUOUS
  0
LAYER
  2
אוורור-נסתר
 70
0
 62
131
  6
HIDDEN
  0
LAYER
  2
דלתות
 70
0
 62
5
  6
CONTINUOUS
  0
LAYER
  2
דלתות-מידות
 70
0
 62
5
  6
CONTINUOUS
  0
LAYER
  2
דלתות-טקסט
 70
0
 62
5
  6
CONTINUOUS
  0
LAYER
  2
דלתות-נסתר
 70
0
 62
5
  6
HIDDEN
  0
LAYER
  2
דלתות-מילוי
 70
0
 62
5
  6
CONTINUOUS
  0
LAYER
  2
חלונות
 70
0
 62
151
  6
CONTINUOUS
  0
LAYER
  2
חלונות-מידות
 70
0
 62
151
  6
CONTINUOUS
  0
LAYER
  2
חלונות-טקסט
 70
0
 62
151
  6
CONTINUOUS
  0
LAYER
  2
חלונות-נסתר
 70
0
 62
151
  6
HIDDEN
  0
LAYER
  2
ריהוט
 70
0
 62
42
  6
CONTINUOUS
  0
LAYER
  2
ריהוט-מידות
 70
0
 62
42
  6
CONTINUOUS
  0
LAYER
  2
ריהוט-טקסט
 70
0
 62
42
  6
CONTINUOUS
  0
LAYER
  2
ריהוט-נסתר
 70
0
 62
42
  6
HIDDEN
  0
LAYER
  2
מטבח
 70
0
 62
52
  6
CONTINUOUS
  0
LAYER
  2
מטבח-מידות
 70
0
 62
52
  6
CONTINUOUS
  0
LAYER
  2
מטבח-טקסט
 70
0
 62
52
  6
CONTINUOUS
  0
LAYER
  2
מטבח-נסתר
 70
0
 62
52
  6
HIDDEN
  0
LAYER
  2
ריצוף
 70
0
 62
251
  6
CONTINUOUS
  0
LAYER
  2
ריצוף-מילוי
 70
0
 62
8
  6
CONTINUOUS
  0
LAYER
  2
מידות-פנים
 70
0
 62
3
  6
CONTINUOUS
  0
LAYER
  2
מידות-חוץ
 70
0
 62
1
  6
CONTINUOUS
  0
LAYER
  2
מסגרת
 70
0
 62
250
  6
CONTINUOUS
  0
LAYER
  2
גבול-גיליון
 70
0
 62
255
  6
CONTINUOUS
  0
LAYER
  2
מקרא
 70
0
 62
150
  6
CONTINUOUS
  0
LAYER
  2
רשת-צירים
 70
0
 62
8
  6
CENTER
  0
LAYER
  2
הערות
 70
0
 62
150
  6
CONTINUOUS
  0
LAYER
  2
מהדורות
 70
0
 62
1
  6
CONTINUOUS
  0
ENDTAB
  0
TABLE
  2
STYLE
 70
2
  0
STYLE
  2
SOLINE
 70
0
 40
0.0000
 41
1.0000
 50
0.0000
 71
0
 42
2.5000
  3
arial.ttf
  4

  0
STYLE
  2
Standard
 70
0
 40
0.0000
 41
1.0000
 50
0.0000
 71
0
 42
2.5000
  3
txt
  4

  0
ENDTAB
  0
ENDSEC
  0
SECTION
  2
BLOCKS
  0
BLOCK
  8
0
  2
SS_socket_single_90x90
 70
0
 10
0.0000
 20
0.0000
 30
0.0000
  3
SS_socket_single_90x90
  1

  0
LINE
  5
4AD
  8
0
 10
0.0000
 20
0.0000
 30
0.0000
 11
0.0000
 21
41.4000
 31
0.0000
  0
LINE
  5
4AE
  8
0
 10
-28.8000
 20
41.4000
 30
0.0000
 11
-28.6189
 21
44.6246
 31
0.0000
  0
LINE
  5
4AF
  8
0
 10
-28.6189
 20
44.6246
 30
0.0000
 11
-28.0779
 21
47.8086
 31
0.0000
  0
LINE
  5
4B0
  8
0
 10
-28.0779
 20
47.8086
 30
0.0000
 11
-27.1838
 21
50.9120
 31
0.0000
  0
LINE
  5
4B1
  8
0
 10
-27.1838
 20
50.9120
 30
0.0000
 11
-25.9479
 21
53.8959
 31
0.0000
  0
LINE
  5
4B2
  8
0
 10
-25.9479
 20
53.8959
 30
0.0000
 11
-24.3857
 21
56.7225
 31
0.0000
  0
LINE
  5
4B3
  8
0
 10
-24.3857
 20
56.7225
 30
0.0000
 11
-22.5167
 21
59.3565
 31
0.0000
  0
LINE
  5
4B4
  8
0
 10
-22.5167
 20
59.3565
 30
0.0000
 11
-20.3647
 21
61.7647
 31
0.0000
  0
LINE
  5
4B5
  8
0
 10
-20.3647
 20
61.7647
 30
0.0000
 11
-17.9565
 21
63.9167
 31
0.0000
  0
LINE
  5
4B6
  8
0
 10
-17.9565
 20
63.9167
 30
0.0000
 11
-15.3225
 21
65.7857
 31
0.0000
  0
LINE
  5
4B7
  8
0
 10
-15.3225
 20
65.7857
 30
0.0000
 11
-12.4959
 21
67.3479
 31
0.0000
  0
LINE
  5
4B8
  8
0
 10
-12.4959
 20
67.3479
 30
0.0000
 11
-9.5120
 21
68.5838
 31
0.0000
  0
LINE
  5
4B9
  8
0
 10
-9.5120
 20
68.5838
 30
0.0000
 11
-6.4086
 21
69.4779
 31
0.0000
  0
LINE
  5
4BA
  8
0
 10
-6.4086
 20
69.4779
 30
0.0000
 11
-3.2246
 21
70.0189
 31
0.0000
  0
LINE
  5
4BB
  8
0
 10
-3.2246
 20
70.0189
 30
0.0000
 11
0.0000
 21
70.2000
 31
0.0000
  0
LINE
  5
4BC
  8
0
 10
0.0000
 20
70.2000
 30
0.0000
 11
3.2246
 21
70.0189
 31
0.0000
  0
LINE
  5
4BD
  8
0
 10
3.2246
 20
70.0189
 30
0.0000
 11
6.4086
 21
69.4779
 31
0.0000
  0
LINE
  5
4BE
  8
0
 10
6.4086
 20
69.4779
 30
0.0000
 11
9.5120
 21
68.5838
 31
0.0000
  0
LINE
  5
4BF
  8
0
 10
9.5120
 20
68.5838
 30
0.0000
 11
12.4959
 21
67.3479
 31
0.0000
  0
LINE
  5
4C0
  8
0
 10
12.4959
 20
67.3479
 30
0.0000
 11
15.3225
 21
65.7857
 31
0.0000
  0
LINE
  5
4C1
  8
0
 10
15.3225
 20
65.7857
 30
0.0000
 11
17.9565
 21
63.9167
 31
0.0000
  0
LINE
  5
4C2
  8
0
 10
17.9565
 20
63.9167
 30
0.0000
 11
20.3647
 21
61.7647
 31
0.0000
  0
LINE
  5
4C3
  8
0
 10
20.3647
 20
61.7647
 30
0.0000
 11
22.5167
 21
59.3565
 31
0.0000
  0
LINE
  5
4C4
  8
0
 10
22.5167
 20
59.3565
 30
0.0000
 11
24.3857
 21
56.7225
 31
0.0000
  0
LINE
  5
4C5
  8
0
 10
24.3857
 20
56.7225
 30
0.0000
 11
25.9479
 21
53.8959
 31
0.0000
  0
LINE
  5
4C6
  8
0
 10
25.9479
 20
53.8959
 30
0.0000
 11
27.1838
 21
50.9120
 31
0.0000
  0
LINE
  5
4C7
  8
0
 10
27.1838
 20
50.9120
 30
0.0000
 11
28.0779
 21
47.8086
 31
0.0000
  0
LINE
  5
4C8
  8
0
 10
28.0779
 20
47.8086
 30
0.0000
 11
28.6189
 21
44.6246
 31
0.0000
  0
LINE
  5
4C9
  8
0
 10
28.6189
 20
44.6246
 30
0.0000
 11
28.8000
 21
41.4000
 31
0.0000
  0
LINE
  5
4CA
  8
0
 10
-28.8000
 20
41.4000
 30
0.0000
 11
28.8000
 21
41.4000
 31
0.0000
  0
ENDBLK
  8
0
  0
BLOCK
  8
0
  2
SS_socket_duplex_160x90
 70
0
 10
0.0000
 20
0.0000
 30
0.0000
  3
SS_socket_duplex_160x90
  1

  0
LINE
  5
4CB
  8
0
 10
0.0000
 20
0.0000
 30
0.0000
 11
0.0000
 21
41.4000
 31
0.0000
  0
LINE
  5
4CC
  8
0
 10
-79.1040
 20
41.4000
 30
0.0000
 11
-78.8625
 21
43.8184
 31
0.0000
  0
LINE
  5
4CD
  8
0
 10
-78.8625
 20
43.8184
 30
0.0000
 11
-78.1412
 21
46.2065
 31
0.0000
  0
LINE
  5
4CE
  8
0
 10
-78.1412
 20
46.2065
 30
0.0000
 11
-76.9491
 21
48.5340
 31
0.0000
  0
LINE
  5
4CF
  8
0
 10
-76.9491
 20
48.5340
 30
0.0000
 11
-75.3012
 21
50.7719
 31
0.0000
  0
LINE
  5
4D0
  8
0
 10
-75.3012
 20
50.7719
 30
0.0000
 11
-73.2182
 21
52.8919
 31
0.0000
  0
LINE
  5
4D1
  8
0
 10
-73.2182
 20
52.8919
 30
0.0000
 11
-70.7263
 21
54.8674
 31
0.0000
  0
LINE
  5
4D2
  8
0
 10
-70.7263
 20
54.8674
 30
0.0000
 11
-67.8569
 21
56.6735
 31
0.0000
  0
LINE
  5
4D3
  8
0
 10
-67.8569
 20
56.6735
 30
0.0000
 11
-64.6460
 21
58.2876
 31
0.0000
  0
LINE
  5
4D4
  8
0
 10
-64.6460
 20
58.2876
 30
0.0000
 11
-61.1340
 21
59.6892
 31
0.0000
  0
LINE
  5
4D5
  8
0
 10
-61.1340
 20
59.6892
 30
0.0000
 11
-57.3651
 21
60.8609
 31
0.0000
  0
LINE
  5
4D6
  8
0
 10
-57.3651
 20
60.8609
 30
0.0000
 11
-53.3867
 21
61.7879
 31
0.0000
  0
LINE
  5
4D7
  8
0
 10
-53.3867
 20
61.7879
 30
0.0000
 11
-49.2488
 21
62.4584
 31
0.0000
  0
LINE
  5
4D8
  8
0
 10
-49.2488
 20
62.4584
 30
0.0000
 11
-45.0034
 21
62.8642
 31
0.0000
  0
LINE
  5
4D9
  8
0
 10
-45.0034
 20
62.8642
 30
0.0000
 11
-40.7040
 21
63.0000
 31
0.0000
  0
LINE
  5
4DA
  8
0
 10
-40.7040
 20
63.0000
 30
0.0000
 11
-36.4046
 21
62.8642
 31
0.0000
  0
LINE
  5
4DB
  8
0
 10
-36.4046
 20
62.8642
 30
0.0000
 11
-32.1592
 21
62.4584
 31
0.0000
  0
LINE
  5
4DC
  8
0
 10
-32.1592
 20
62.4584
 30
0.0000
 11
-28.0213
 21
61.7879
 31
0.0000
  0
LINE
  5
4DD
  8
0
 10
-28.0213
 20
61.7879
 30
0.0000
 11
-24.0429
 21
60.8609
 31
0.0000
  0
LINE
  5
4DE
  8
0
 10
-24.0429
 20
60.8609
 30
0.0000
 11
-20.2740
 21
59.6892
 31
0.0000
  0
LINE
  5
4DF
  8
0
 10
-20.2740
 20
59.6892
 30
0.0000
 11
-16.7620
 21
58.2876
 31
0.0000
  0
LINE
  5
4E0
  8
0
 10
-16.7620
 20
58.2876
 30
0.0000
 11
-13.5511
 21
56.6735
 31
0.0000
  0
LINE
  5
4E1
  8
0
 10
-13.5511
 20
56.6735
 30
0.0000
 11
-10.6817
 21
54.8674
 31
0.0000
  0
LINE
  5
4E2
  8
0
 10
-10.6817
 20
54.8674
 30
0.0000
 11
-8.1898
 21
52.8919
 31
0.0000
  0
LINE
  5
4E3
  8
0
 10
-8.1898
 20
52.8919
 30
0.0000
 11
-6.1068
 21
50.7719
 31
0.0000
  0
LINE
  5
4E4
  8
0
 10
-6.1068
 20
50.7719
 30
0.0000
 11
-4.4589
 21
48.5340
 31
0.0000
  0
LINE
  5
4E5
  8
0
 10
-4.4589
 20
48.5340
 30
0.0000
 11
-3.2668
 21
46.2065
 31
0.0000
  0
LINE
  5
4E6
  8
0
 10
-3.2668
 20
46.2065
 30
0.0000
 11
-2.5455
 21
43.8184
 31
0.0000
  0
LINE
  5
4E7
  8
0
 10
-2.5455
 20
43.8184
 30
0.0000
 11
-2.3040
 21
41.4000
 31
0.0000
  0
LINE
  5
4E8
  8
0
 10
-79.1040
 20
41.4000
 30
0.0000
 11
-2.3040
 21
41.4000
 31
0.0000
  0
LINE
  5
4E9
  8
0
 10
2.3040
 20
41.4000
 30
0.0000
 11
2.5455
 21
43.8184
 31
0.0000
  0
LINE
  5
4EA
  8
0
 10
2.5455
 20
43.8184
 30
0.0000
 11
3.2668
 21
46.2065
 31
0.0000
  0
LINE
  5
4EB
  8
0
 10
3.2668
 20
46.2065
 30
0.0000
 11
4.4589
 21
48.5340
 31
0.0000
  0
LINE
  5
4EC
  8
0
 10
4.4589
 20
48.5340
 30
0.0000
 11
6.1068
 21
50.7719
 31
0.0000
  0
LINE
  5
4ED
  8
0
 10
6.1068
 20
50.7719
 30
0.0000
 11
8.1898
 21
52.8919
 31
0.0000
  0
LINE
  5
4EE
  8
0
 10
8.1898
 20
52.8919
 30
0.0000
 11
10.6817
 21
54.8674
 31
0.0000
  0
LINE
  5
4EF
  8
0
 10
10.6817
 20
54.8674
 30
0.0000
 11
13.5511
 21
56.6735
 31
0.0000
  0
LINE
  5
4F0
  8
0
 10
13.5511
 20
56.6735
 30
0.0000
 11
16.7620
 21
58.2876
 31
0.0000
  0
LINE
  5
4F1
  8
0
 10
16.7620
 20
58.2876
 30
0.0000
 11
20.2740
 21
59.6892
 31
0.0000
  0
LINE
  5
4F2
  8
0
 10
20.2740
 20
59.6892
 30
0.0000
 11
24.0429
 21
60.8609
 31
0.0000
  0
LINE
  5
4F3
  8
0
 10
24.0429
 20
60.8609
 30
0.0000
 11
28.0213
 21
61.7879
 31
0.0000
  0
LINE
  5
4F4
  8
0
 10
28.0213
 20
61.7879
 30
0.0000
 11
32.1592
 21
62.4584
 31
0.0000
  0
LINE
  5
4F5
  8
0
 10
32.1592
 20
62.4584
 30
0.0000
 11
36.4046
 21
62.8642
 31
0.0000
  0
LINE
  5
4F6
  8
0
 10
36.4046
 20
62.8642
 30
0.0000
 11
40.7040
 21
63.0000
 31
0.0000
  0
LINE
  5
4F7
  8
0
 10
40.7040
 20
63.0000
 30
0.0000
 11
45.0034
 21
62.8642
 31
0.0000
  0
LINE
  5
4F8
  8
0
 10
45.0034
 20
62.8642
 30
0.0000
 11
49.2488
 21
62.4584
 31
0.0000
  0
LINE
  5
4F9
  8
0
 10
49.2488
 20
62.4584
 30
0.0000
 11
53.3867
 21
61.7879
 31
0.0000
  0
LINE
  5
4FA
  8
0
 10
53.3867
 20
61.7879
 30
0.0000
 11
57.3651
 21
60.8609
 31
0.0000
  0
LINE
  5
4FB
  8
0
 10
57.3651
 20
60.8609
 30
0.0000
 11
61.1340
 21
59.6892
 31
0.0000
  0
LINE
  5
4FC
  8
0
 10
61.1340
 20
59.6892
 30
0.0000
 11
64.6460
 21
58.2876
 31
0.0000
  0
LINE
  5
4FD
  8
0
 10
64.6460
 20
58.2876
 30
0.0000
 11
67.8569
 21
56.6735
 31
0.0000
  0
LINE
  5
4FE
  8
0
 10
67.8569
 20
56.6735
 30
0.0000
 11
70.7263
 21
54.8674
 31
0.0000
  0
LINE
  5
4FF
  8
0
 10
70.7263
 20
54.8674
 30
0.0000
 11
73.2182
 21
52.8919
 31
0.0000
  0
LINE
  5
500
  8
0
 10
73.2182
 20
52.8919
 30
0.0000
 11
75.3012
 21
50.7719
 31
0.0000
  0
LINE
  5
501
  8
0
 10
75.3012
 20
50.7719
 30
0.0000
 11
76.9491
 21
48.5340
 31
0.0000
  0
LINE
  5
502
  8
0
 10
76.9491
 20
48.5340
 30
0.0000
 11
78.1412
 21
46.2065
 31
0.0000
  0
LINE
  5
503
  8
0
 10
78.1412
 20
46.2065
 30
0.0000
 11
78.8625
 21
43.8184
 31
0.0000
  0
LINE
  5
504
  8
0
 10
78.8625
 20
43.8184
 30
0.0000
 11
79.1040
 21
41.4000
 31
0.0000
  0
LINE
  5
505
  8
0
 10
2.3040
 20
41.4000
 30
0.0000
 11
79.1040
 21
41.4000
 31
0.0000
  0
ENDBLK
  8
0
  0
BLOCK
  8
0
  2
SS_switch_single_90x90
 70
0
 10
0.0000
 20
0.0000
 30
0.0000
  3
SS_switch_single_90x90
  1

  0
LINE
  5
506
  8
0
 10
0.0000
 20
0.0000
 30
0.0000
 11
0.0000
 21
27.0000
 31
0.0000
  0
ARC
  5
507
  8
0
 10
0.0000
 20
27.0000
 30
0.0000
 40
4.5000
 50
0.0000
 51
360.0000
  0
LINE
  5
508
  8
0
 10
0.0000
 20
27.0000
 30
0.0000
 11
23.7461
 21
60.9129
 31
0.0000
  0
ENDBLK
  8
0
  0
BLOCK
  8
0
  2
SS_junction_cable_60x60
 70
0
 10
0.0000
 20
0.0000
 30
0.0000
  3
SS_junction_cable_60x60
  1

  0
LINE
  5
509
  8
0
 10
0.0000
 20
0.0000
 30
0.0000
 11
0.0000
 21
46.8000
 31
0.0000
  0
ARC
  5
50A
  8
0
 10
0.0000
 20
28.8000
 30
0.0000
 40
19.2000
 50
0.0000
 51
360.0000
  0
LINE
  5
50B
  8
0
 10
0.0000
 20
28.8000
 30
0.0000
 11
-13.2000
 21
42.0000
 31
0.0000
  0
LINE
  5
50C
  8
0
 10
0.0000
 20
28.8000
 30
0.0000
 11
13.2000
 21
42.0000
 31
0.0000
  0
LINE
  5
50D
  8
0
 10
0.0000
 20
28.8000
 30
0.0000
 11
-13.2000
 21
15.6000
 31
0.0000
  0
LINE
  5
50E
  8
0
 10
0.0000
 20
28.8000
 30
0.0000
 11
13.2000
 21
15.6000
 31
0.0000
  0
ENDBLK
  8
0
  0
BLOCK
  8
0
  2
SS_junction_cable_120x120
 70
0
 10
0.0000
 20
0.0000
 30
0.0000
  3
SS_junction_cable_120x120
  1

  0
LINE
  5
50F
  8
0
 10
0.0000
 20
0.0000
 30
0.0000
 11
0.0000
 21
93.6000
 31
0.0000
  0
ARC
  5
510
  8
0
 10
0.0000
 20
57.6000
 30
0.0000
 40
38.4000
 50
0.0000
 51
360.0000
  0
LINE
  5
511
  8
0
 10
0.0000
 20
57.6000
 30
0.0000
 11
-26.4000
 21
84.0000
 31
0.0000
  0
LINE
  5
512
  8
0
 10
0.0000
 20
57.6000
 30
0.0000
 11
26.4000
 21
84.0000
 31
0.0000
  0
LINE
  5
513
  8
0
 10
0.0000
 20
57.6000
 30
0.0000
 11
-26.4000
 21
31.2000
 31
0.0000
  0
LINE
  5
514
  8
0
 10
0.0000
 20
57.6000
 30
0.0000
 11
26.4000
 21
31.2000
 31
0.0000
  0
ENDBLK
  8
0
  0
BLOCK
  8
0
  2
SS_light_downlight_150x150
 70
0
 10
0.0000
 20
0.0000
 30
0.0000
  3
SS_light_downlight_150x150
  1

  0
ARC
  5
515
  8
0
 10
0.0000
 20
75.0000
 30
0.0000
 40
45.0000
 50
0.0000
 51
360.0000
  0
LINE
  5
516
  8
0
 10
-31.5000
 20
106.5000
 30
0.0000
 11
31.5000
 21
43.5000
 31
0.0000
  0
LINE
  5
517
  8
0
 10
31.5000
 20
106.5000
 30
0.0000
 11
-31.5000
 21
43.5000
 31
0.0000
  0
ENDBLK
  8
0
  0
BLOCK
  8
0
  2
SS_water_point_60x60
 70
0
 10
0.0000
 20
0.0000
 30
0.0000
  3
SS_water_point_60x60
  1

  0
LINE
  5
518
  8
0
 10
0.0000
 20
0.0000
 30
0.0000
 11
0.0000
 21
13.8000
 31
0.0000
  0
ARC
  5
519
  8
0
 10
0.0000
 20
30.0000
 30
0.0000
 40
16.8000
 50
0.0000
 51
360.0000
  0
LINE
  5
51A
  8
0
 10
-14.4000
 20
30.0000
 30
0.0000
 11
14.4000
 21
30.0000
 31
0.0000
  0
LINE
  5
51B
  8
0
 10
0.0000
 20
44.4000
 30
0.0000
 11
0.0000
 21
15.6000
 31
0.0000
  0
ENDBLK
  8
0
  0
BLOCK
  8
0
  2
SS_gas_point_60x60
 70
0
 10
0.0000
 20
0.0000
 30
0.0000
  3
SS_gas_point_60x60
  1

  0
LINE
  5
51C
  8
0
 10
0.0000
 20
0.0000
 30
0.0000
 11
0.0000
 21
12.0000
 31
0.0000
  0
LINE
  5
51D
  8
0
 10
0.0000
 20
48.0000
 30
0.0000
 11
15.6000
 21
39.0000
 31
0.0000
  0
LINE
  5
51E
  8
0
 10
15.6000
 20
39.0000
 30
0.0000
 11
15.6000
 21
21.0000
 31
0.0000
  0
LINE
  5
51F
  8
0
 10
15.6000
 20
21.0000
 30
0.0000
 11
0.0000
 21
12.0000
 31
0.0000
  0
LINE
  5
520
  8
0
 10
0.0000
 20
12.0000
 30
0.0000
 11
-15.6000
 21
21.0000
 31
0.0000
  0
LINE
  5
521
  8
0
 10
-15.6000
 20
21.0000
 30
0.0000
 11
-15.6000
 21
39.0000
 31
0.0000
  0
LINE
  5
522
  8
0
 10
-15.6000
 20
39.0000
 30
0.0000
 11
0.0000
 21
48.0000
 31
0.0000
  0
TEXT
  5
523
  8
0
 10
0.0000
 20
30.0000
 30
0.0000
 40
24.0000
  1
G
 50
0.0000
  7
SOLINE
 72
1
 73
2
 11
0.0000
 21
30.0000
 31
0.0000
  0
ENDBLK
  8
0
  0
BLOCK
  8
0
  2
SS_water_point_50x50
 70
0
 10
0.0000
 20
0.0000
 30
0.0000
  3
SS_water_point_50x50
  1

  0
LINE
  5
524
  8
0
 10
0.0000
 20
0.0000
 30
0.0000
 11
0.0000
 21
11.5000
 31
0.0000
  0
ARC
  5
525
  8
0
 10
0.0000
 20
25.0000
 30
0.0000
 40
14.0000
 50
0.0000
 51
360.0000
  0
LINE
  5
526
  8
0
 10
-12.0000
 20
25.0000
 30
0.0000
 11
12.0000
 21
25.0000
 31
0.0000
  0
LINE
  5
527
  8
0
 10
0.0000
 20
37.0000
 30
0.0000
 11
0.0000
 21
13.0000
 31
0.0000
  0
ENDBLK
  8
0
  0
BLOCK
  8
0
  2
SS_sewage_point_100x100
 70
0
 10
0.0000
 20
0.0000
 30
0.0000
  3
SS_sewage_point_100x100
  1

  0
LINE
  5
528
  8
0
 10
0.0000
 20
0.0000
 30
0.0000
 11
0.0000
 21
78.0000
 31
0.0000
  0
ARC
  5
529
  8
0
 10
0.0000
 20
50.0000
 30
0.0000
 40
30.0000
 50
0.0000
 51
360.0000
  0
LINE
  5
52A
  8
0
 10
-18.0000
 20
44.0000
 30
0.0000
 11
-8.0000
 21
56.0000
 31
0.0000
  0
LINE
  5
52B
  8
0
 10
-8.0000
 20
56.0000
 30
0.0000
 11
0.0000
 21
44.0000
 31
0.0000
  0
LINE
  5
52C
  8
0
 10
0.0000
 20
44.0000
 30
0.0000
 11
8.0000
 21
56.0000
 31
0.0000
  0
LINE
  5
52D
  8
0
 10
8.0000
 20
56.0000
 30
0.0000
 11
18.0000
 21
44.0000
 31
0.0000
  0
ENDBLK
  8
0
  0
BLOCK
  8
0
  2
SS_beam_200x2600
 70
0
 10
0.0000
 20
0.0000
 30
0.0000
  3
SS_beam_200x2600
  1

  0
LINE
  5
52E
  8
0
 10
-100.0000
 20
1612.0000
 30
0.0000
 11
100.0000
 21
1612.0000
 31
0.0000
  0
LINE
  5
52F
  8
0
 10
100.0000
 20
1612.0000
 30
0.0000
 11
100.0000
 21
988.0000
 31
0.0000
  0
LINE
  5
530
  8
0
 10
100.0000
 20
988.0000
 30
0.0000
 11
-100.0000
 21
988.0000
 31
0.0000
  0
LINE
  5
531
  8
0
 10
-100.0000
 20
988.0000
 30
0.0000
 11
-100.0000
 21
1612.0000
 31
0.0000
  0
ENDBLK
  8
0
  0
BLOCK
  8
0
  2
SS_beam_1000x600
 70
0
 10
0.0000
 20
0.0000
 30
0.0000
  3
SS_beam_1000x600
  1

  0
LINE
  5
532
  8
0
 10
-500.0000
 20
372.0000
 30
0.0000
 11
500.0000
 21
372.0000
 31
0.0000
  0
LINE
  5
533
  8
0
 10
500.0000
 20
372.0000
 30
0.0000
 11
500.0000
 21
228.0000
 31
0.0000
  0
LINE
  5
534
  8
0
 10
500.0000
 20
228.0000
 30
0.0000
 11
-500.0000
 21
228.0000
 31
0.0000
  0
LINE
  5
535
  8
0
 10
-500.0000
 20
228.0000
 30
0.0000
 11
-500.0000
 21
372.0000
 31
0.0000
  0
ENDBLK
  8
0
  0
BLOCK
  8
0
  2
SS_concealment_panel_600x50
 70
0
 10
0.0000
 20
0.0000
 30
0.0000
  3
SS_concealment_panel_600x50
  1

  0
LINE
  5
536
  8
0
 10
-216.0000
 20
43.0000
 30
0.0000
 11
216.0000
 21
43.0000
 31
0.0000
  0
LINE
  5
537
  8
0
 10
216.0000
 20
43.0000
 30
0.0000
 11
216.0000
 21
7.0000
 31
0.0000
  0
LINE
  5
538
  8
0
 10
216.0000
 20
7.0000
 30
0.0000
 11
-216.0000
 21
7.0000
 31
0.0000
  0
LINE
  5
539
  8
0
 10
-216.0000
 20
7.0000
 30
0.0000
 11
-216.0000
 21
43.0000
 31
0.0000
  0
LINE
  5
53A
  8
0
 10
180.0000
 20
28.0000
 30
0.0000
 11
216.0000
 21
25.0000
 31
0.0000
  0
LINE
  5
53B
  8
0
 10
216.0000
 20
25.0000
 30
0.0000
 11
180.0000
 21
22.0000
 31
0.0000
  0
ENDBLK
  8
0
  0
ENDSEC
  0
SECTION
  2
ENTITIES
  0
SOLID
  5
100
  8
קירות-מילוי
 10
-100.0000
 20
100.0000
 30
0.0000
 11
4100.0000
 21
100.0000
 31
0.0000
 12
0.0000
 22
0.0000
 32
0.0000
 13
4000.0000
 23
0.0000
 33
0.0000
  0
LINE
  5
101
  8
קירות
 10
-100.0000
 20
100.0000
 30
0.0000
 11
4100.0000
 21
100.0000
 31
0.0000
  0
LINE
  5
102
  8
קירות
 10
0.0000
 20
0.0000
 30
0.0000
 11
4000.0000
 21
0.0000
 31
0.0000
  0
SOLID
  5
103
  8
קירות-מילוי
 10
4100.0000
 20
100.0000
 30
0.0000
 11
4100.0000
 21
-3100.0000
 31
0.0000
 12
4000.0000
 22
0.0000
 32
0.0000
 13
4000.0000
 23
-3000.0000
 33
0.0000
  0
LINE
  5
104
  8
קירות
 10
4100.0000
 20
100.0000
 30
0.0000
 11
4100.0000
 21
-3100.0000
 31
0.0000
  0
LINE
  5
105
  8
קירות
 10
4000.0000
 20
0.0000
 30
0.0000
 11
4000.0000
 21
-3000.0000
 31
0.0000
  0
SOLID
  5
106
  8
קירות-מילוי
 10
4100.0000
 20
-3100.0000
 30
0.0000
 11
3500.0000
 21
-3100.0000
 31
0.0000
 12
4000.0000
 22
-3000.0000
 32
0.0000
 13
3500.0000
 23
-3000.0000
 33
0.0000
  0
LINE
  5
107
  8
קירות
 10
4100.0000
 20
-3100.0000
 30
0.0000
 11
3500.0000
 21
-3100.0000
 31
0.0000
  0
LINE
  5
108
  8
קירות
 10
4000.0000
 20
-3000.0000
 30
0.0000
 11
3500.0000
 21
-3000.0000
 31
0.0000
  0
SOLID
  5
109
  8
קירות-מילוי
 10
1150.0000
 20
-3100.0000
 30
0.0000
 11
-100.0000
 21
-3100.0000
 31
0.0000
 12
1150.0000
 22
-3000.0000
 32
0.0000
 13
0.0000
 23
-3000.0000
 33
0.0000
  0
LINE
  5
10A
  8
קירות
 10
1150.0000
 20
-3100.0000
 30
0.0000
 11
-100.0000
 21
-3100.0000
 31
0.0000
  0
LINE
  5
10B
  8
קירות
 10
1150.0000
 20
-3000.0000
 30
0.0000
 11
0.0000
 21
-3000.0000
 31
0.0000
  0
LINE
  5
10C
  8
קירות
 10
3500.0000
 20
-3000.0000
 30
0.0000
 11
3500.0000
 21
-3100.0000
 31
0.0000
  0
LINE
  5
10D
  8
קירות
 10
1150.0000
 20
-3000.0000
 30
0.0000
 11
1150.0000
 21
-3100.0000
 31
0.0000
  0
SOLID
  5
10E
  8
קירות-מילוי
 10
-100.0000
 20
-3100.0000
 30
0.0000
 11
-100.0000
 21
100.0000
 31
0.0000
 12
0.0000
 22
-3000.0000
 32
0.0000
 13
0.0000
 23
0.0000
 33
0.0000
  0
LINE
  5
10F
  8
קירות
 10
-100.0000
 20
-3100.0000
 30
0.0000
 11
-100.0000
 21
100.0000
 31
0.0000
  0
LINE
  5
110
  8
קירות
 10
0.0000
 20
-3000.0000
 30
0.0000
 11
0.0000
 21
0.0000
 31
0.0000
  0
LINE
  5
111
  8
חלונות
 10
3500.0000
 20
-2950.0000
 30
0.0000
 11
2500.0000
 21
-2950.0000
 31
0.0000
  0
LINE
  5
112
  8
חלונות
 10
2500.0000
 20
-2950.0000
 30
0.0000
 11
2500.0000
 21
-3050.0000
 31
0.0000
  0
LINE
  5
113
  8
חלונות
 10
2500.0000
 20
-3050.0000
 30
0.0000
 11
3500.0000
 21
-3050.0000
 31
0.0000
  0
LINE
  5
114
  8
חלונות
 10
3500.0000
 20
-3050.0000
 30
0.0000
 11
3500.0000
 21
-2950.0000
 31
0.0000
  0
LINE
  5
115
  8
חלונות
 10
3450.0000
 20
-2950.0000
 30
0.0000
 11
3450.0000
 21
-3050.0000
 31
0.0000
  0
LINE
  5
116
  8
חלונות
 10
2550.0000
 20
-2950.0000
 30
0.0000
 11
2550.0000
 21
-3050.0000
 31
0.0000
  0
LINE
  5
117
  8
חלונות
 10
3450.0000
 20
-3000.0000
 30
0.0000
 11
2550.0000
 21
-3000.0000
 31
0.0000
  0
LINE
  5
118
  8
חלונות
 10
3450.0000
 20
-3000.0000
 30
0.0000
 11
2550.0000
 21
-3000.0000
 31
0.0000
  0
LINE
  5
119
  8
חלונות
 10
3450.0000
 20
-3000.0000
 30
0.0000
 11
2550.0000
 21
-3000.0000
 31
0.0000
  0
TEXT
  5
11A
  8
חלונות-טקסט
 10
3000.0000
 20
-3225.0000
 30
0.0000
 40
125.0000
  1
W1
 50
0.0000
  7
SOLINE
 72
1
 73
2
 11
3000.0000
 21
-3225.0000
 31
0.0000
  0
LINE
  5
11B
  8
דלתות
 10
2750.0000
 20
-2950.0000
 30
0.0000
 11
1850.0000
 21
-2950.0000
 31
0.0000
  0
LINE
  5
11C
  8
דלתות
 10
1850.0000
 20
-2950.0000
 30
0.0000
 11
1850.0000
 21
-3050.0000
 31
0.0000
  0
LINE
  5
11D
  8
דלתות
 10
1850.0000
 20
-3050.0000
 30
0.0000
 11
2750.0000
 21
-3050.0000
 31
0.0000
  0
LINE
  5
11E
  8
דלתות
 10
2750.0000
 20
-3050.0000
 30
0.0000
 11
2750.0000
 21
-2950.0000
 31
0.0000
  0
LINE
  5
11F
  8
דלתות
 10
2710.0000
 20
-2950.0000
 30
0.0000
 11
2710.0000
 21
-3050.0000
 31
0.0000
  0
LINE
  5
120
  8
דלתות
 10
1890.0000
 20
-2950.0000
 30
0.0000
 11
1890.0000
 21
-3050.0000
 31
0.0000
  0
LINE
  5
121
  8
דלתות
 10
2710.0000
 20
-3000.0000
 30
0.0000
 11
1890.0000
 21
-3000.0000
 31
0.0000
  0
LINE
  5
122
  8
דלתות
 10
2710.0000
 20
-3000.0000
 30
0.0000
 11
2710.0000
 21
-2180.0000
 31
0.0000
  0
ARC
  5
123
  8
דלתות
 10
2710.0000
 20
-3000.0000
 30
0.0000
 40
820.0000
 50
90.0000
 51
180.0000
  0
TEXT
  5
124
  8
דלתות-טקסט
 10
2300.0000
 20
-3225.0000
 30
0.0000
 40
125.0000
  1
D1
 50
0.0000
  7
SOLINE
 72
1
 73
2
 11
2300.0000
 21
-3225.0000
 31
0.0000
  0
LINE
  5
125
  8
דלתות
 10
2050.0000
 20
-2950.0000
 30
0.0000
 11
1150.0000
 21
-2950.0000
 31
0.0000
  0
LINE
  5
126
  8
דלתות
 10
1150.0000
 20
-2950.0000
 30
0.0000
 11
1150.0000
 21
-3050.0000
 31
0.0000
  0
LINE
  5
127
  8
דלתות
 10
1150.0000
 20
-3050.0000
 30
0.0000
 11
2050.0000
 21
-3050.0000
 31
0.0000
  0
LINE
  5
128
  8
דלתות
 10
2050.0000
 20
-3050.0000
 30
0.0000
 11
2050.0000
 21
-2950.0000
 31
0.0000
  0
LINE
  5
129
  8
דלתות
 10
2010.0000
 20
-2950.0000
 30
0.0000
 11
2010.0000
 21
-3050.0000
 31
0.0000
  0
LINE
  5
12A
  8
דלתות
 10
1190.0000
 20
-2950.0000
 30
0.0000
 11
1190.0000
 21
-3050.0000
 31
0.0000
  0
LINE
  5
12B
  8
דלתות
 10
2010.0000
 20
-3000.0000
 30
0.0000
 11
1190.0000
 21
-3000.0000
 31
0.0000
  0
TEXT
  5
12C
  8
דלתות-טקסט
 10
1600.0000
 20
-3225.0000
 30
0.0000
 40
125.0000
  1
D2
 50
0.0000
  7
SOLINE
 72
1
 73
2
 11
1600.0000
 21
-3225.0000
 31
0.0000
  0
INSERT
  5
12D
  8
חשמל
  2
SS_socket_single_90x90
 10
345.0000
 20
0.0000
 30
0.0000
 41
1.0000
 42
1.0000
 43
1.0000
 50
0.0000
  0
INSERT
  5
12E
  8
חשמל
  2
SS_socket_duplex_160x90
 10
1080.0000
 20
0.0000
 30
0.0000
 41
1.0000
 42
1.0000
 43
1.0000
 50
0.0000
  0
INSERT
  5
12F
  8
חשמל
  2
SS_switch_single_90x90
 10
1745.0000
 20
0.0000
 30
0.0000
 41
1.0000
 42
1.0000
 43
1.0000
 50
0.0000
  0
INSERT
  5
130
  8
חשמל
  2
SS_junction_cable_60x60
 10
2430.0000
 20
0.0000
 30
0.0000
 41
1.0000
 42
1.0000
 43
1.0000
 50
0.0000
  0
INSERT
  5
131
  8
חשמל
  2
SS_junction_cable_60x60
 10
3130.0000
 20
0.0000
 30
0.0000
 41
1.0000
 42
1.0000
 43
1.0000
 50
0.0000
  0
INSERT
  5
132
  8
חשמל
  2
SS_junction_cable_120x120
 10
4000.0000
 20
-360.0000
 30
0.0000
 41
1.0000
 42
1.0000
 43
1.0000
 50
270.0000
  0
INSERT
  5
133
  8
תאורה
  2
SS_light_downlight_150x150
 10
4000.0000
 20
-1075.0000
 30
0.0000
 41
1.0000
 42
1.0000
 43
1.0000
 50
270.0000
  0
INSERT
  5
134
  8
מים
  2
SS_water_point_60x60
 10
4000.0000
 20
-1730.0000
 30
0.0000
 41
1.0000
 42
1.0000
 43
1.0000
 50
270.0000
  0
INSERT
  5
135
  8
גז
  2
SS_gas_point_60x60
 10
4000.0000
 20
-2430.0000
 30
0.0000
 41
1.0000
 42
1.0000
 43
1.0000
 50
270.0000
  0
INSERT
  5
136
  8
מים
  2
SS_water_point_50x50
 10
4000.0000
 20
-3125.0000
 30
0.0000
 41
1.0000
 42
1.0000
 43
1.0000
 50
270.0000
  0
INSERT
  5
137
  8
ניקוז
  2
SS_sewage_point_100x100
 10
3650.0000
 20
-3000.0000
 30
0.0000
 41
1.0000
 42
1.0000
 43
1.0000
 50
180.0000
  0
INSERT
  5
138
  8
מבנה
  2
SS_beam_200x2600
 10
900.0000
 20
-3000.0000
 30
0.0000
 41
1.0000
 42
1.0000
 43
1.0000
 50
180.0000
  0
INSERT
  5
139
  8
מבנה
  2
SS_beam_1000x600
 10
0.0000
 20
-2700.0000
 30
0.0000
 41
1.0000
 42
1.0000
 43
1.0000
 50
90.0000
  0
INSERT
  5
13A
  8
מבנה
  2
SS_concealment_panel_600x50
 10
0.0000
 20
-1700.0000
 30
0.0000
 41
1.0000
 42
1.0000
 43
1.0000
 50
90.0000
  0
LINE
  5
13B
  8
מידות-פנים
 10
4000.0000
 20
-3040.0000
 30
0.0000
 11
4000.0000
 21
-3341.5000
 31
0.0000
  0
LINE
  5
13C
  8
מידות-פנים
 10
3500.0000
 20
-3040.0000
 30
0.0000
 11
3500.0000
 21
-3341.5000
 31
0.0000
  0
LINE
  5
13D
  8
מידות-פנים
 10
4000.0000
 20
-3287.5000
 30
0.0000
 11
3500.0000
 21
-3287.5000
 31
0.0000
  0
SOLID
  5
13E
  8
מידות-פנים
 10
4000.0000
 20
-3287.5000
 30
0.0000
 11
4103.5000
 21
-3316.3000
 31
0.0000
 12
4103.5000
 22
-3258.7000
 32
0.0000
 13
4103.5000
 23
-3258.7000
 33
0.0000
  0
SOLID
  5
13F
  8
מידות-פנים
 10
3500.0000
 20
-3287.5000
 30
0.0000
 11
3396.5000
 21
-3316.3000
 31
0.0000
 12
3396.5000
 22
-3258.7000
 32
0.0000
 13
3396.5000
 23
-3258.7000
 33
0.0000
  0
TEXT
  5
140
  8
מידות-פנים
 10
3750.0000
 20
-3373.0000
 30
0.0000
 40
90.0000
  1
50
 50
360.0000
  7
SOLINE
 72
1
 73
2
 11
3750.0000
 21
-3373.0000
 31
0.0000
  0
LINE
  5
141
  8
מידות-פנים
 10
3500.0000
 20
-3040.0000
 30
0.0000
 11
3500.0000
 21
-3341.5000
 31
0.0000
  0
LINE
  5
142
  8
מידות-פנים
 10
2750.0000
 20
-3040.0000
 30
0.0000
 11
2750.0000
 21
-3341.5000
 31
0.0000
  0
LINE
  5
143
  8
מידות-פנים
 10
3500.0000
 20
-3287.5000
 30
0.0000
 11
2750.0000
 21
-3287.5000
 31
0.0000
  0
SOLID
  5
144
  8
מידות-פנים
 10
3500.0000
 20
-3287.5000
 30
0.0000
 11
3603.5000
 21
-3316.3000
 31
0.0000
 12
3603.5000
 22
-3258.7000
 32
0.0000
 13
3603.5000
 23
-3258.7000
 33
0.0000
  0
SOLID
  5
145
  8
מידות-פנים
 10
2750.0000
 20
-3287.5000
 30
0.0000
 11
2646.5000
 21
-3316.3000
 31
0.0000
 12
2646.5000
 22
-3258.7000
 32
0.0000
 13
2646.5000
 23
-3258.7000
 33
0.0000
  0
TEXT
  5
146
  8
מידות-פנים
 10
3125.0000
 20
-3373.0000
 30
0.0000
 40
90.0000
  1
75
 50
360.0000
  7
SOLINE
 72
1
 73
2
 11
3125.0000
 21
-3373.0000
 31
0.0000
  0
LINE
  5
147
  8
מידות-פנים
 10
2750.0000
 20
-3040.0000
 30
0.0000
 11
2750.0000
 21
-3341.5000
 31
0.0000
  0
LINE
  5
148
  8
מידות-פנים
 10
2500.0000
 20
-3040.0000
 30
0.0000
 11
2500.0000
 21
-3341.5000
 31
0.0000
  0
LINE
  5
149
  8
מידות-פנים
 10
2750.0000
 20
-3287.5000
 30
0.0000
 11
2500.0000
 21
-3287.5000
 31
0.0000
  0
SOLID
  5
14A
  8
מידות-פנים
 10
2750.0000
 20
-3287.5000
 30
0.0000
 11
2853.5000
 21
-3316.3000
 31
0.0000
 12
2853.5000
 22
-3258.7000
 32
0.0000
 13
2853.5000
 23
-3258.7000
 33
0.0000
  0
SOLID
  5
14B
  8
מידות-פנים
 10
2500.0000
 20
-3287.5000
 30
0.0000
 11
2396.5000
 21
-3316.3000
 31
0.0000
 12
2396.5000
 22
-3258.7000
 32
0.0000
 13
2396.5000
 23
-3258.7000
 33
0.0000
  0
TEXT
  5
14C
  8
מידות-פנים
 10
2625.0000
 20
-3373.0000
 30
0.0000
 40
90.0000
  1
25
 50
360.0000
  7
SOLINE
 72
1
 73
2
 11
2625.0000
 21
-3373.0000
 31
0.0000
  0
LINE
  5
14D
  8
מידות-פנים
 10
2500.0000
 20
-3040.0000
 30
0.0000
 11
2500.0000
 21
-3341.5000
 31
0.0000
  0
LINE
  5
14E
  8
מידות-פנים
 10
2050.0000
 20
-3040.0000
 30
0.0000
 11
2050.0000
 21
-3341.5000
 31
0.0000
  0
LINE
  5
14F
  8
מידות-פנים
 10
2500.0000
 20
-3287.5000
 30
0.0000
 11
2050.0000
 21
-3287.5000
 31
0.0000
  0
SOLID
  5
150
  8
מידות-פנים
 10
2500.0000
 20
-3287.5000
 30
0.0000
 11
2603.5000
 21
-3316.3000
 31
0.0000
 12
2603.5000
 22
-3258.7000
 32
0.0000
 13
2603.5000
 23
-3258.7000
 33
0.0000
  0
SOLID
  5
151
  8
מידות-פנים
 10
2050.0000
 20
-3287.5000
 30
0.0000
 11
1946.5000
 21
-3316.3000
 31
0.0000
 12
1946.5000
 22
-3258.7000
 32
0.0000
 13
1946.5000
 23
-3258.7000
 33
0.0000
  0
TEXT
  5
152
  8
מידות-פנים
 10
2275.0000
 20
-3373.0000
 30
0.0000
 40
90.0000
  1
45
 50
360.0000
  7
SOLINE
 72
1
 73
2
 11
2275.0000
 21
-3373.0000
 31
0.0000
  0
LINE
  5
153
  8
מידות-פנים
 10
2050.0000
 20
-3040.0000
 30
0.0000
 11
2050.0000
 21
-3341.5000
 31
0.0000
  0
LINE
  5
154
  8
מידות-פנים
 10
1850.0000
 20
-3040.0000
 30
0.0000
 11
1850.0000
 21
-3341.5000
 31
0.0000
  0
LINE
  5
155
  8
מידות-פנים
 10
2050.0000
 20
-3287.5000
 30
0.0000
 11
1850.0000
 21
-3287.5000
 31
0.0000
  0
SOLID
  5
156
  8
מידות-פנים
 10
2050.0000
 20
-3287.5000
 30
0.0000
 11
2153.5000
 21
-3316.3000
 31
0.0000
 12
2153.5000
 22
-3258.7000
 32
0.0000
 13
2153.5000
 23
-3258.7000
 33
0.0000
  0
SOLID
  5
157
  8
מידות-פנים
 10
1850.0000
 20
-3287.5000
 30
0.0000
 11
1746.5000
 21
-3316.3000
 31
0.0000
 12
1746.5000
 22
-3258.7000
 32
0.0000
 13
1746.5000
 23
-3258.7000
 33
0.0000
  0
TEXT
  5
158
  8
מידות-פנים
 10
1950.0000
 20
-3373.0000
 30
0.0000
 40
90.0000
  1
20
 50
360.0000
  7
SOLINE
 72
1
 73
2
 11
1950.0000
 21
-3373.0000
 31
0.0000
  0
LINE
  5
159
  8
מידות-פנים
 10
1850.0000
 20
-3040.0000
 30
0.0000
 11
1850.0000
 21
-3341.5000
 31
0.0000
  0
LINE
  5
15A
  8
מידות-פנים
 10
1150.0000
 20
-3040.0000
 30
0.0000
 11
1150.0000
 21
-3341.5000
 31
0.0000
  0
LINE
  5
15B
  8
מידות-פנים
 10
1850.0000
 20
-3287.5000
 30
0.0000
 11
1150.0000
 21
-3287.5000
 31
0.0000
  0
SOLID
  5
15C
  8
מידות-פנים
 10
1850.0000
 20
-3287.5000
 30
0.0000
 11
1953.5000
 21
-3316.3000
 31
0.0000
 12
1953.5000
 22
-3258.7000
 32
0.0000
 13
1953.5000
 23
-3258.7000
 33
0.0000
  0
SOLID
  5
15D
  8
מידות-פנים
 10
1150.0000
 20
-3287.5000
 30
0.0000
 11
1046.5000
 21
-3316.3000
 31
0.0000
 12
1046.5000
 22
-3258.7000
 32
0.0000
 13
1046.5000
 23
-3258.7000
 33
0.0000
  0
TEXT
  5
15E
  8
מידות-פנים
 10
1500.0000
 20
-3373.0000
 30
0.0000
 40
90.0000
  1
70
 50
360.0000
  7
SOLINE
 72
1
 73
2
 11
1500.0000
 21
-3373.0000
 31
0.0000
  0
LINE
  5
15F
  8
מידות-פנים
 10
1150.0000
 20
-3040.0000
 30
0.0000
 11
1150.0000
 21
-3341.5000
 31
0.0000
  0
LINE
  5
160
  8
מידות-פנים
 10
0.0000
 20
-3040.0000
 30
0.0000
 11
0.0000
 21
-3341.5000
 31
0.0000
  0
LINE
  5
161
  8
מידות-פנים
 10
1150.0000
 20
-3287.5000
 30
0.0000
 11
0.0000
 21
-3287.5000
 31
0.0000
  0
SOLID
  5
162
  8
מידות-פנים
 10
1150.0000
 20
-3287.5000
 30
0.0000
 11
1253.5000
 21
-3316.3000
 31
0.0000
 12
1253.5000
 22
-3258.7000
 32
0.0000
 13
1253.5000
 23
-3258.7000
 33
0.0000
  0
SOLID
  5
163
  8
מידות-פנים
 10
0.0000
 20
-3287.5000
 30
0.0000
 11
-103.5000
 21
-3316.3000
 31
0.0000
 12
-103.5000
 22
-3258.7000
 32
0.0000
 13
-103.5000
 23
-3258.7000
 33
0.0000
  0
TEXT
  5
164
  8
מידות-פנים
 10
575.0000
 20
-3373.0000
 30
0.0000
 40
90.0000
  1
115
 50
360.0000
  7
SOLINE
 72
1
 73
2
 11
575.0000
 21
-3373.0000
 31
0.0000
  0
LINE
  5
165
  8
מידות-פנים
 10
0.0000
 20
-3050.0000
 30
0.0000
 11
0.0000
 21
-3925.0000
 31
0.0000
  0
LINE
  5
166
  8
מידות-פנים
 10
4000.0000
 20
-3050.0000
 30
0.0000
 11
4000.0000
 21
-3925.0000
 31
0.0000
  0
LINE
  5
167
  8
מידות-פנים
 10
0.0000
 20
-3850.0000
 30
0.0000
 11
4000.0000
 21
-3850.0000
 31
0.0000
  0
SOLID
  5
168
  8
מידות-פנים
 10
0.0000
 20
-3850.0000
 30
0.0000
 11
-143.7500
 21
-3890.0000
 31
0.0000
 12
-143.7500
 22
-3810.0000
 32
0.0000
 13
-143.7500
 23
-3810.0000
 33
0.0000
  0
SOLID
  5
169
  8
מידות-פנים
 10
4000.0000
 20
-3850.0000
 30
0.0000
 11
4143.7500
 21
-3890.0000
 31
0.0000
 12
4143.7500
 22
-3810.0000
 32
0.0000
 13
4143.7500
 23
-3810.0000
 33
0.0000
  0
TEXT
  5
16A
  8
מידות-פנים
 10
2000.0000
 20
-3968.7500
 30
0.0000
 40
125.0000
  1
400
 50
0.0000
  7
SOLINE
 72
1
 73
2
 11
2000.0000
 21
-3968.7500
 31
0.0000
  0
LINE
  5
16B
  8
מידות-פנים
 10
-50.0000
 20
-3000.0000
 30
0.0000
 11
-925.0000
 21
-3000.0000
 31
0.0000
  0
LINE
  5
16C
  8
מידות-פנים
 10
-50.0000
 20
0.0000
 30
0.0000
 11
-925.0000
 21
0.0000
 31
0.0000
  0
LINE
  5
16D
  8
מידות-פנים
 10
-850.0000
 20
-3000.0000
 30
0.0000
 11
-850.0000
 21
0.0000
 31
0.0000
  0
SOLID
  5
16E
  8
מידות-פנים
 10
-850.0000
 20
-3000.0000
 30
0.0000
 11
-890.0000
 21
-3143.7500
 31
0.0000
 12
-810.0000
 22
-3143.7500
 32
0.0000
 13
-810.0000
 23
-3143.7500
 33
0.0000
  0
SOLID
  5
16F
  8
מידות-פנים
 10
-850.0000
 20
0.0000
 30
0.0000
 11
-890.0000
 21
143.7500
 31
0.0000
 12
-810.0000
 22
143.7500
 32
0.0000
 13
-810.0000
 23
143.7500
 33
0.0000
  0
TEXT
  5
170
  8
מידות-פנים
 10
-968.7500
 20
-1500.0000
 30
0.0000
 40
125.0000
  1
300
 50
90.0000
  7
SOLINE
 72
1
 73
2
 11
-968.7500
 21
-1500.0000
 31
0.0000
  0
LINE
  5
171
  8
מידות-חוץ
 10
-100.0000
 20
-3150.0000
 30
0.0000
 11
-100.0000
 21
-4775.0000
 31
0.0000
  0
LINE
  5
172
  8
מידות-חוץ
 10
4100.0000
 20
-3150.0000
 30
0.0000
 11
4100.0000
 21
-4775.0000
 31
0.0000
  0
LINE
  5
173
  8
מידות-חוץ
 10
-100.0000
 20
-4700.0000
 30
0.0000
 11
4100.0000
 21
-4700.0000
 31
0.0000
  0
SOLID
  5
174
  8
מידות-חוץ
 10
-100.0000
 20
-4700.0000
 30
0.0000
 11
-243.7500
 21
-4740.0000
 31
0.0000
 12
-243.7500
 22
-4660.0000
 32
0.0000
 13
-243.7500
 23
-4660.0000
 33
0.0000
  0
SOLID
  5
175
  8
מידות-חוץ
 10
4100.0000
 20
-4700.0000
 30
0.0000
 11
4243.7500
 21
-4740.0000
 31
0.0000
 12
4243.7500
 22
-4660.0000
 32
0.0000
 13
4243.7500
 23
-4660.0000
 33
0.0000
  0
TEXT
  5
176
  8
מידות-חוץ
 10
2000.0000
 20
-4818.7500
 30
0.0000
 40
125.0000
  1
420
 50
0.0000
  7
SOLINE
 72
1
 73
2
 11
2000.0000
 21
-4818.7500
 31
0.0000
  0
LINE
  5
177
  8
מידות-חוץ
 10
-150.0000
 20
-3100.0000
 30
0.0000
 11
-1775.0000
 21
-3100.0000
 31
0.0000
  0
LINE
  5
178
  8
מידות-חוץ
 10
-150.0000
 20
100.0000
 30
0.0000
 11
-1775.0000
 21
100.0000
 31
0.0000
  0
LINE
  5
179
  8
מידות-חוץ
 10
-1700.0000
 20
-3100.0000
 30
0.0000
 11
-1700.0000
 21
100.0000
 31
0.0000
  0
SOLID
  5
17A
  8
מידות-חוץ
 10
-1700.0000
 20
-3100.0000
 30
0.0000
 11
-1740.0000
 21
-3243.7500
 31
0.0000
 12
-1660.0000
 22
-3243.7500
 32
0.0000
 13
-1660.0000
 23
-3243.7500
 33
0.0000
  0
SOLID
  5
17B
  8
מידות-חוץ
 10
-1700.0000
 20
100.0000
 30
0.0000
 11
-1740.0000
 21
243.7500
 31
0.0000
 12
-1660.0000
 22
243.7500
 32
0.0000
 13
-1660.0000
 23
243.7500
 33
0.0000
  0
TEXT
  5
17C
  8
מידות-חוץ
 10
-1818.7500
 20
-1500.0000
 30
0.0000
 40
125.0000
  1
320
 50
90.0000
  7
SOLINE
 72
1
 73
2
 11
-1818.7500
 21
-1500.0000
 31
0.0000
  0
LINE
  5
17D
  8
מסגרת
 10
5600.0000
 20
200.0000
 30
0.0000
 11
8350.0000
 21
200.0000
 31
0.0000
  0
LINE
  5
17E
  8
מסגרת
 10
8350.0000
 20
200.0000
 30
0.0000
 11
8350.0000
 21
-3188.1250
 31
0.0000
  0
LINE
  5
17F
  8
מסגרת
 10
8350.0000
 20
-3188.1250
 30
0.0000
 11
5600.0000
 21
-3188.1250
 31
0.0000
  0
LINE
  5
180
  8
מסגרת
 10
5600.0000
 20
-3188.1250
 30
0.0000
 11
5600.0000
 21
200.0000
 31
0.0000
  0
LINE
  5
181
  8
מסגרת
 10
5600.0000
 20
-360.6250
 30
0.0000
 11
8350.0000
 21
-360.6250
 31
0.0000
  0
LINE
  5
182
  8
מסגרת
 10
5675.0000
 20
-298.1250
 30
0.0000
 11
6250.0000
 21
-298.1250
 31
0.0000
  0
LINE
  5
183
  8
מסגרת
 10
6250.0000
 20
-298.1250
 30
0.0000
 11
6250.0000
 21
137.5000
 31
0.0000
  0
LINE
  5
184
  8
מסגרת
 10
6250.0000
 20
137.5000
 30
0.0000
 11
5675.0000
 21
137.5000
 31
0.0000
  0
LINE
  5
185
  8
מסגרת
 10
5675.0000
 20
137.5000
 30
0.0000
 11
5675.0000
 21
-298.1250
 31
0.0000
  0
TEXT
  5
186
  8
מסגרת
 10
6325.0000
 20
-46.6750
 30
0.0000
 40
250.0000
  1
SOLINE
 50
0.0000
  7
SOLINE
 73
2
 11
6325.0000
 21
-46.6750
 31
0.0000
  0
TEXT
  5
187
  8
מקרא
 10
5962.5000
 20
-259.7125
 30
0.0000
 40
68.7500
  1
brand/soline-logo.png
 50
0.0000
  7
SOLINE
 72
1
 73
2
 11
5962.5000
 21
-259.7125
 31
0.0000
  0
TEXT
  5
188
  8
מסגרת
 10
5675.0000
 20
-531.2500
 30
0.0000
 40
102.5000
  1
Project:
 50
0.0000
  7
SOLINE
 73
2
 11
5675.0000
 21
-531.2500
 31
0.0000
  0
TEXT
  5
189
  8
מסגרת
 10
8275.0000
 20
-531.2500
 30
0.0000
 40
110.0000
  1
allelem
 50
0.0000
  7
SOLINE
 72
2
 73
2
 11
8275.0000
 21
-531.2500
 31
0.0000
  0
TEXT
  5
18A
  8
מסגרת
 10
5675.0000
 20
-775.0000
 30
0.0000
 40
102.5000
  1
Client:
 50
0.0000
  7
SOLINE
 73
2
 11
5675.0000
 21
-775.0000
 31
0.0000
  0
TEXT
  5
18B
  8
מסגרת
 10
8275.0000
 20
-775.0000
 30
0.0000
 40
110.0000
  1
-
 50
0.0000
  7
SOLINE
 72
2
 73
2
 11
8275.0000
 21
-775.0000
 31
0.0000
  0
TEXT
  5
18C
  8
מסגרת
 10
5675.0000
 20
-1018.7500
 30
0.0000
 40
102.5000
  1
Address:
 50
0.0000
  7
SOLINE
 73
2
 11
5675.0000
 21
-1018.7500
 31
0.0000
  0
TEXT
  5
18D
  8
מסגרת
 10
8275.0000
 20
-1018.7500
 30
0.0000
 40
110.0000
  1
-
 50
0.0000
  7
SOLINE
 72
2
 73
2
 11
8275.0000
 21
-1018.7500
 31
0.0000
  0
TEXT
  5
18E
  8
מסגרת
 10
5675.0000
 20
-1262.5000
 30
0.0000
 40
102.5000
  1
Drawing:
 50
0.0000
  7
SOLINE
 73
2
 11
5675.0000
 21
-1262.5000
 31
0.0000
  0
TEXT
  5
18F
  8
מסגרת
 10
8275.0000
 20
-1262.5000
 30
0.0000
 40
110.0000
  1
Measurement Plan
 50
0.0000
  7
SOLINE
 72
2
 73
2
 11
8275.0000
 21
-1262.5000
 31
0.0000
  0
TEXT
  5
190
  8
מסגרת
 10
5675.0000
 20
-1506.2500
 30
0.0000
 40
102.5000
  1
Scale:
 50
0.0000
  7
SOLINE
 73
2
 11
5675.0000
 21
-1506.2500
 31
0.0000
  0
TEXT
  5
191
  8
מסגרת
 10
8275.0000
 20
-1506.2500
 30
0.0000
 40
110.0000
  1
1:50  (mm)
 50
0.0000
  7
SOLINE
 72
2
 73
2
 11
8275.0000
 21
-1506.2500
 31
0.0000
  0
TEXT
  5
192
  8
מסגרת
 10
5675.0000
 20
-1750.0000
 30
0.0000
 40
102.5000
  1
Date:
 50
0.0000
  7
SOLINE
 73
2
 11
5675.0000
 21
-1750.0000
 31
0.0000
  0
TEXT
  5
193
  8
מסגרת
 10
8275.0000
 20
-1750.0000
 30
0.0000
 40
110.0000
  1
2026-08-24
 50
0.0000
  7
SOLINE
 72
2
 73
2
 11
8275.0000
 21
-1750.0000
 31
0.0000
  0
TEXT
  5
194
  8
מסגרת
 10
5675.0000
 20
-1993.7500
 30
0.0000
 40
102.5000
  1
Surveyor:
 50
0.0000
  7
SOLINE
 73
2
 11
5675.0000
 21
-1993.7500
 31
0.0000
  0
TEXT
  5
195
  8
מסגרת
 10
8275.0000
 20
-1993.7500
 30
0.0000
 40
110.0000
  1
-
 50
0.0000
  7
SOLINE
 72
2
 73
2
 11
8275.0000
 21
-1993.7500
 31
0.0000
  0
TEXT
  5
196
  8
מסגרת
 10
5675.0000
 20
-2237.5000
 30
0.0000
 40
102.5000
  1
Checked:
 50
0.0000
  7
SOLINE
 73
2
 11
5675.0000
 21
-2237.5000
 31
0.0000
  0
TEXT
  5
197
  8
מסגרת
 10
8275.0000
 20
-2237.5000
 30
0.0000
 40
110.0000
  1
-
 50
0.0000
  7
SOLINE
 72
2
 73
2
 11
8275.0000
 21
-2237.5000
 31
0.0000
  0
TEXT
  5
198
  8
מסגרת
 10
5675.0000
 20
-2481.2500
 30
0.0000
 40
102.5000
  1
Drawing No:
 50
0.0000
  7
SOLINE
 73
2
 11
5675.0000
 21
-2481.2500
 31
0.0000
  0
TEXT
  5
199
  8
מסגרת
 10
8275.0000
 20
-2481.2500
 30
0.0000
 40
110.0000
  1
M-01
 50
0.0000
  7
SOLINE
 72
2
 73
2
 11
8275.0000
 21
-2481.2500
 31
0.0000
  0
TEXT
  5
19A
  8
מסגרת
 10
5675.0000
 20
-2725.0000
 30
0.0000
 40
102.5000
  1
Sheet:
 50
0.0000
  7
SOLINE
 73
2
 11
5675.0000
 21
-2725.0000
 31
0.0000
  0
TEXT
  5
19B
  8
מסגרת
 10
8275.0000
 20
-2725.0000
 30
0.0000
 40
110.0000
  1
1/1
 50
0.0000
  7
SOLINE
 72
2
 73
2
 11
8275.0000
 21
-2725.0000
 31
0.0000
  0
TEXT
  5
19C
  8
מסגרת
 10
5675.0000
 20
-2968.7500
 30
0.0000
 40
102.5000
  1
Revision:
 50
0.0000
  7
SOLINE
 73
2
 11
5675.0000
 21
-2968.7500
 31
0.0000
  0
TEXT
  5
19D
  8
מסגרת
 10
8275.0000
 20
-2968.7500
 30
0.0000
 40
110.0000
  1
0
 50
0.0000
  7
SOLINE
 72
2
 73
2
 11
8275.0000
 21
-2968.7500
 31
0.0000
  0
LINE
  5
19E
  8
מסגרת
 10
5600.0000
 20
-3463.1250
 30
0.0000
 11
8350.0000
 21
-3463.1250
 31
0.0000
  0
LINE
  5
19F
  8
מסגרת
 10
8350.0000
 20
-3463.1250
 30
0.0000
 11
8350.0000
 21
-5143.1250
 31
0.0000
  0
LINE
  5
1A0
  8
מסגרת
 10
8350.0000
 20
-5143.1250
 30
0.0000
 11
5600.0000
 21
-5143.1250
 31
0.0000
  0
LINE
  5
1A1
  8
מסגרת
 10
5600.0000
 20
-5143.1250
 30
0.0000
 11
5600.0000
 21
-3463.1250
 31
0.0000
  0
LINE
  5
1A2
  8
מסגרת
 10
5600.0000
 20
-3823.1250
 30
0.0000
 11
8350.0000
 21
-3823.1250
 31
0.0000
  0
TEXT
  5
1A3
  8
מקרא
 10
8275.0000
 20
-3679.1250
 30
0.0000
 40
175.0000
  1
טבלת מפרט פתחים
 50
0.0000
  7
SOLINE
 72
2
 73
2
 11
8275.0000
 21
-3679.1250
 31
0.0000
  0
TEXT
  5
1A4
  8
מקרא
 10
8267.5000
 20
-4003.1250
 30
0.0000
 40
112.5000
  1
מס'
 50
0.0000
  7
SOLINE
 72
2
 73
2
 11
8267.5000
 21
-4003.1250
 31
0.0000
  0
TEXT
  5
1A5
  8
מקרא
 10
7800.0000
 20
-4003.1250
 30
0.0000
 40
112.5000
  1
סוג
 50
0.0000
  7
SOLINE
 72
2
 73
2
 11
7800.0000
 21
-4003.1250
 31
0.0000
  0
TEXT
  5
1A6
  8
מקרא
 10
7112.5000
 20
-4003.1250
 30
0.0000
 40
112.5000
  1
רוחבxגובה
 50
0.0000
  7
SOLINE
 72
2
 73
2
 11
7112.5000
 21
-4003.1250
 31
0.0000
  0
TEXT
  5
1A7
  8
מקרא
 10
6480.0000
 20
-4003.1250
 30
0.0000
 40
112.5000
  1
כיוון
 50
0.0000
  7
SOLINE
 72
2
 73
2
 11
6480.0000
 21
-4003.1250
 31
0.0000
  0
TEXT
  5
1A8
  8
מקרא
 10
5957.5000
 20
-4003.1250
 30
0.0000
 40
112.5000
  1
כמות
 50
0.0000
  7
SOLINE
 72
2
 73
2
 11
5957.5000
 21
-4003.1250
 31
0.0000
  0
LINE
  5
1A9
  8
מקרא
 10
5650.0000
 20
-4168.1250
 30
0.0000
 11
8300.0000
 21
-4168.1250
 31
0.0000
  0
TEXT
  5
1AA
  8
מסגרת
 10
8267.5000
 20
-4303.1250
 30
0.0000
 40
112.5000
  1
D1
 50
0.0000
  7
SOLINE
 72
2
 73
2
 11
8267.5000
 21
-4303.1250
 31
0.0000
  0
TEXT
  5
1AB
  8
מקרא
 10
7800.0000
 20
-4303.1250
 30
0.0000
 40
112.5000
  1
מעבר
 50
0.0000
  7
SOLINE
 72
2
 73
2
 11
7800.0000
 21
-4303.1250
 31
0.0000
  0
TEXT
  5
1AC
  8
מסגרת
 10
7112.5000
 20
-4303.1250
 30
0.0000
 40
112.5000
  1
900x2050
 50
0.0000
  7
SOLINE
 72
2
 73
2
 11
7112.5000
 21
-4303.1250
 31
0.0000
  0
TEXT
  5
1AD
  8
מקרא
 10
6480.0000
 20
-4303.1250
 30
0.0000
 40
112.5000
  1
-
 50
0.0000
  7
SOLINE
 72
2
 73
2
 11
6480.0000
 21
-4303.1250
 31
0.0000
  0
TEXT
  5
1AE
  8
מסגרת
 10
5957.5000
 20
-4303.1250
 30
0.0000
 40
112.5000
  1
x1
 50
0.0000
  7
SOLINE
 72
2
 73
2
 11
5957.5000
 21
-4303.1250
 31
0.0000
  0
TEXT
  5
1AF
  8
מסגרת
 10
8267.5000
 20
-4603.1250
 30
0.0000
 40
112.5000
  1
D2
 50
0.0000
  7
SOLINE
 72
2
 73
2
 11
8267.5000
 21
-4603.1250
 31
0.0000
  0
TEXT
  5
1B0
  8
מקרא
 10
7800.0000
 20
-4603.1250
 30
0.0000
 40
112.5000
  1
מלבן דלת
 50
0.0000
  7
SOLINE
 72
2
 73
2
 11
7800.0000
 21
-4603.1250
 31
0.0000
  0
TEXT
  5
1B1
  8
מסגרת
 10
7112.5000
 20
-4603.1250
 30
0.0000
 40
112.5000
  1
900x2100
 50
0.0000
  7
SOLINE
 72
2
 73
2
 11
7112.5000
 21
-4603.1250
 31
0.0000
  0
TEXT
  5
1B2
  8
מקרא
 10
6480.0000
 20
-4603.1250
 30
0.0000
 40
112.5000
  1
-
 50
0.0000
  7
SOLINE
 72
2
 73
2
 11
6480.0000
 21
-4603.1250
 31
0.0000
  0
TEXT
  5
1B3
  8
מסגרת
 10
5957.5000
 20
-4603.1250
 30
0.0000
 40
112.5000
  1
x1
 50
0.0000
  7
SOLINE
 72
2
 73
2
 11
5957.5000
 21
-4603.1250
 31
0.0000
  0
TEXT
  5
1B4
  8
מסגרת
 10
8267.5000
 20
-4903.1250
 30
0.0000
 40
112.5000
  1
W1
 50
0.0000
  7
SOLINE
 72
2
 73
2
 11
8267.5000
 21
-4903.1250
 31
0.0000
  0
TEXT
  5
1B5
  8
מקרא
 10
7800.0000
 20
-4903.1250
 30
0.0000
 40
112.5000
  1
חלון
 50
0.0000
  7
SOLINE
 72
2
 73
2
 11
7800.0000
 21
-4903.1250
 31
0.0000
  0
TEXT
  5
1B6
  8
מסגרת
 10
7112.5000
 20
-4903.1250
 30
0.0000
 40
112.5000
  1
1000x1200
 50
0.0000
  7
SOLINE
 72
2
 73
2
 11
7112.5000
 21
-4903.1250
 31
0.0000
  0
TEXT
  5
1B7
  8
מקרא
 10
6480.0000
 20
-4903.1250
 30
0.0000
 40
112.5000
  1
-
 50
0.0000
  7
SOLINE
 72
2
 73
2
 11
6480.0000
 21
-4903.1250
 31
0.0000
  0
TEXT
  5
1B8
  8
מסגרת
 10
5957.5000
 20
-4903.1250
 30
0.0000
 40
112.5000
  1
x1
 50
0.0000
  7
SOLINE
 72
2
 73
2
 11
5957.5000
 21
-4903.1250
 31
0.0000
  0
LINE
  5
1B9
  8
מסגרת
 10
5600.0000
 20
-5418.1250
 30
0.0000
 11
8350.0000
 21
-5418.1250
 31
0.0000
  0
LINE
  5
1BA
  8
מסגרת
 10
8350.0000
 20
-5418.1250
 30
0.0000
 11
8350.0000
 21
-13153.1250
 31
0.0000
  0
LINE
  5
1BB
  8
מסגרת
 10
8350.0000
 20
-13153.1250
 30
0.0000
 11
5600.0000
 21
-13153.1250
 31
0.0000
  0
LINE
  5
1BC
  8
מסגרת
 10
5600.0000
 20
-13153.1250
 30
0.0000
 11
5600.0000
 21
-5418.1250
 31
0.0000
  0
LINE
  5
1BD
  8
מסגרת
 10
5600.0000
 20
-5808.1250
 30
0.0000
 11
8350.0000
 21
-5808.1250
 31
0.0000
  0
TEXT
  5
1BE
  8
מקרא
 10
8275.0000
 20
-5652.1250
 30
0.0000
 40
175.0000
  1
מקרא וספירת אלמנטים
 50
0.0000
  7
SOLINE
 72
2
 73
2
 11
8275.0000
 21
-5652.1250
 31
0.0000
  0
TEXT
  5
1BF
  8
מקרא
 10
8275.0000
 20
-5986.8750
 30
0.0000
 40
131.2500
  1
דלת  (1)
 50
0.0000
  7
SOLINE
 72
2
 73
2
 11
8275.0000
 21
-5986.8750
 31
0.0000
  0
LINE
  5
1C0
  8
דלתות
 10
5775.1250
 20
-6401.1250
 30
0.0000
 11
5775.1250
 21
-6371.3750
 31
0.0000
  0
LINE
  5
1C1
  8
דלתות
 10
5974.8750
 20
-6401.1250
 30
0.0000
 11
5974.8750
 21
-6371.3750
 31
0.0000
  0
LINE
  5
1C2
  8
דלתות
 10
5775.1250
 20
-6371.3750
 30
0.0000
 11
5974.8750
 21
-6371.3750
 31
0.0000
  0
TEXT
  5
1C3
  8
מקרא
 10
6175.0000
 20
-6311.8750
 30
0.0000
 40
112.5000
  1
x1
 50
0.0000
  7
SOLINE
 73
2
 11
6175.0000
 21
-6311.8750
 31
0.0000
  0
TEXT
  5
1C4
  8
מקרא
 10
8275.0000
 20
-6311.8750
 30
0.0000
 40
125.0000
  1
מפתח עם משקוף
 50
0.0000
  7
SOLINE
 72
2
 73
2
 11
8275.0000
 21
-6311.8750
 31
0.0000
  0
TEXT
  5
1C5
  8
מקרא
 10
8275.0000
 20
-6636.8750
 30
0.0000
 40
131.2500
  1
ניקוז  (1)
 50
0.0000
  7
SOLINE
 72
2
 73
2
 11
8275.0000
 21
-6636.8750
 31
0.0000
  0
LINE
  5
1C6
  8
ניקוז
 10
5875.0000
 20
-7051.1250
 30
0.0000
 11
5875.0000
 21
-6885.3750
 31
0.0000
  0
ARC
  5
1C7
  8
ניקוז
 10
5875.0000
 20
-6944.8750
 30
0.0000
 40
63.7500
 50
0.0000
 51
360.0000
  0
LINE
  5
1C8
  8
ניקוז
 10
5836.7500
 20
-6957.6250
 30
0.0000
 11
5858.0000
 21
-6932.1250
 31
0.0000
  0
LINE
  5
1C9
  8
ניקוז
 10
5858.0000
 20
-6932.1250
 30
0.0000
 11
5875.0000
 21
-6957.6250
 31
0.0000
  0
LINE
  5
1CA
  8
ניקוז
 10
5875.0000
 20
-6957.6250
 30
0.0000
 11
5892.0000
 21
-6932.1250
 31
0.0000
  0
LINE
  5
1CB
  8
ניקוז
 10
5892.0000
 20
-6932.1250
 30
0.0000
 11
5913.2500
 21
-6957.6250
 31
0.0000
  0
TEXT
  5
1CC
  8
מקרא
 10
6175.0000
 20
-6961.8750
 30
0.0000
 40
112.5000
  1
x1
 50
0.0000
  7
SOLINE
 73
2
 11
6175.0000
 21
-6961.8750
 31
0.0000
  0
TEXT
  5
1CD
  8
מקרא
 10
8275.0000
 20
-6961.8750
 30
0.0000
 40
125.0000
  1
ניקוז רצפתי
 50
0.0000
  7
SOLINE
 72
2
 73
2
 11
8275.0000
 21
-6961.8750
 31
0.0000
  0
TEXT
  5
1CE
  8
מקרא
 10
8275.0000
 20
-7286.8750
 30
0.0000
 40
131.2500
  1
חשמל  (6)
 50
0.0000
  7
SOLINE
 72
2
 73
2
 11
8275.0000
 21
-7286.8750
 31
0.0000
  0
LINE
  5
1CF
  8
חשמל
 10
5875.0000
 20
-7701.1250
 30
0.0000
 11
5875.0000
 21
-7535.3750
 31
0.0000
  0
ARC
  5
1D0
  8
חשמל
 10
5875.0000
 20
-7599.1250
 30
0.0000
 40
68.0000
 50
0.0000
 51
360.0000
  0
LINE
  5
1D1
  8
חשמל
 10
5875.0000
 20
-7599.1250
 30
0.0000
 11
5828.2500
 21
-7552.3750
 31
0.0000
  0
LINE
  5
1D2
  8
חשמל
 10
5875.0000
 20
-7599.1250
 30
0.0000
 11
5921.7500
 21
-7552.3750
 31
0.0000
  0
LINE
  5
1D3
  8
חשמל
 10
5875.0000
 20
-7599.1250
 30
0.0000
 11
5828.2500
 21
-7645.8750
 31
0.0000
  0
LINE
  5
1D4
  8
חשמל
 10
5875.0000
 20
-7599.1250
 30
0.0000
 11
5921.7500
 21
-7645.8750
 31
0.0000
  0
TEXT
  5
1D5
  8
מקרא
 10
6175.0000
 20
-7611.8750
 30
0.0000
 40
112.5000
  1
x3
 50
0.0000
  7
SOLINE
 73
2
 11
6175.0000
 21
-7611.8750
 31
0.0000
  0
TEXT
  5
1D6
  8
מקרא
 10
8275.0000
 20
-7611.8750
 30
0.0000
 40
125.0000
  1
תשתית חשמל
 50
0.0000
  7
SOLINE
 72
2
 73
2
 11
8275.0000
 21
-7611.8750
 31
0.0000
  0
LINE
  5
1D7
  8
חשמל
 10
5875.0000
 20
-8026.1250
 30
0.0000
 11
5875.0000
 21
-7928.3750
 31
0.0000
  0
LINE
  5
1D8
  8
חשמל
 10
5807.0000
 20
-7928.3750
 30
0.0000
 11
5807.4276
 21
-7920.7614
 31
0.0000
  0
LINE
  5
1D9
  8
חשמל
 10
5807.4276
 20
-7920.7614
 30
0.0000
 11
5808.7049
 21
-7913.2436
 31
0.0000
  0
LINE
  5
1DA
  8
חשמל
 10
5808.7049
 20
-7913.2436
 30
0.0000
 11
5810.8159
 21
-7905.9160
 31
0.0000
  0
LINE
  5
1DB
  8
חשמל
 10
5810.8159
 20
-7905.9160
 30
0.0000
 11
5813.7341
 21
-7898.8709
 31
0.0000
  0
LINE
  5
1DC
  8
חשמל
 10
5813.7341
 20
-7898.8709
 30
0.0000
 11
5817.4228
 21
-7892.1968
 31
0.0000
  0
LINE
  5
1DD
  8
חשמל
 10
5817.4228
 20
-7892.1968
 30
0.0000
 11
5821.8355
 21
-7885.9777
 31
0.0000
  0
LINE
  5
1DE
  8
חשמל
 10
5821.8355
 20
-7885.9777
 30
0.0000
 11
5826.9167
 21
-7880.2917
 31
0.0000
  0
LINE
  5
1DF
  8
חשמל
 10
5826.9167
 20
-7880.2917
 30
0.0000
 11
5832.6027
 21
-7875.2105
 31
0.0000
  0
LINE
  5
1E0
  8
חשמל
 10
5832.6027
 20
-7875.2105
 30
0.0000
 11
5838.8218
 21
-7870.7978
 31
0.0000
  0
LINE
  5
1E1
  8
חשמל
 10
5838.8218
 20
-7870.7978
 30
0.0000
 11
5845.4959
 21
-7867.1091
 31
0.0000
  0
LINE
  5
1E2
  8
חשמל
 10
5845.4959
 20
-7867.1091
 30
0.0000
 11
5852.5410
 21
-7864.1909
 31
0.0000
  0
LINE
  5
1E3
  8
חשמל
 10
5852.5410
 20
-7864.1909
 30
0.0000
 11
5859.8686
 21
-7862.0799
 31
0.0000
  0
LINE
  5
1E4
  8
חשמל
 10
5859.8686
 20
-7862.0799
 30
0.0000
 11
5867.3864
 21
-7860.8026
 31
0.0000
  0
LINE
  5
1E5
  8
חשמל
 10
5867.3864
 20
-7860.8026
 30
0.0000
 11
5875.0000
 21
-7860.3750
 31
0.0000
  0
LINE
  5
1E6
  8
חשמל
 10
5875.0000
 20
-7860.3750
 30
0.0000
 11
5882.6136
 21
-7860.8026
 31
0.0000
  0
LINE
  5
1E7
  8
חשמל
 10
5882.6136
 20
-7860.8026
 30
0.0000
 11
5890.1314
 21
-7862.0799
 31
0.0000
  0
LINE
  5
1E8
  8
חשמל
 10
5890.1314
 20
-7862.0799
 30
0.0000
 11
5897.4590
 21
-7864.1909
 31
0.0000
  0
LINE
  5
1E9
  8
חשמל
 10
5897.4590
 20
-7864.1909
 30
0.0000
 11
5904.5041
 21
-7867.1091
 31
0.0000
  0
LINE
  5
1EA
  8
חשמל
 10
5904.5041
 20
-7867.1091
 30
0.0000
 11
5911.1782
 21
-7870.7978
 31
0.0000
  0
LINE
  5
1EB
  8
חשמל
 10
5911.1782
 20
-7870.7978
 30
0.0000
 11
5917.3973
 21
-7875.2105
 31
0.0000
  0
LINE
  5
1EC
  8
חשמל
 10
5917.3973
 20
-7875.2105
 30
0.0000
 11
5923.0833
 21
-7880.2917
 31
0.0000
  0
LINE
  5
1ED
  8
חשמל
 10
5923.0833
 20
-7880.2917
 30
0.0000
 11
5928.1645
 21
-7885.9777
 31
0.0000
  0
LINE
  5
1EE
  8
חשמל
 10
5928.1645
 20
-7885.9777
 30
0.0000
 11
5932.5772
 21
-7892.1968
 31
0.0000
  0
LINE
  5
1EF
  8
חשמל
 10
5932.5772
 20
-7892.1968
 30
0.0000
 11
5936.2659
 21
-7898.8709
 31
0.0000
  0
LINE
  5
1F0
  8
חשמל
 10
5936.2659
 20
-7898.8709
 30
0.0000
 11
5939.1841
 21
-7905.9160
 31
0.0000
  0
LINE
  5
1F1
  8
חשמל
 10
5939.1841
 20
-7905.9160
 30
0.0000
 11
5941.2951
 21
-7913.2436
 31
0.0000
  0
LINE
  5
1F2
  8
חשמל
 10
5941.2951
 20
-7913.2436
 30
0.0000
 11
5942.5724
 21
-7920.7614
 31
0.0000
  0
LINE
  5
1F3
  8
חשמל
 10
5942.5724
 20
-7920.7614
 30
0.0000
 11
5943.0000
 21
-7928.3750
 31
0.0000
  0
LINE
  5
1F4
  8
חשמל
 10
5807.0000
 20
-7928.3750
 30
0.0000
 11
5943.0000
 21
-7928.3750
 31
0.0000
  0
TEXT
  5
1F5
  8
מקרא
 10
6175.0000
 20
-7936.8750
 30
0.0000
 40
112.5000
  1
x1
 50
0.0000
  7
SOLINE
 73
2
 11
6175.0000
 21
-7936.8750
 31
0.0000
  0
TEXT
  5
1F6
  8
מקרא
 10
8275.0000
 20
-7936.8750
 30
0.0000
 40
125.0000
  1
שקע בודד
 50
0.0000
  7
SOLINE
 72
2
 73
2
 11
8275.0000
 21
-7936.8750
 31
0.0000
  0
LINE
  5
1F7
  8
חשמל
 10
5875.0000
 20
-8351.1250
 30
0.0000
 11
5875.0000
 21
-8253.3750
 31
0.0000
  0
LINE
  5
1F8
  8
חשמל
 10
5769.9400
 20
-8253.3750
 30
0.0000
 11
5770.2607
 21
-8247.6648
 31
0.0000
  0
LINE
  5
1F9
  8
חשמל
 10
5770.2607
 20
-8247.6648
 30
0.0000
 11
5771.2187
 21
-8242.0264
 31
0.0000
  0
LINE
  5
1FA
  8
חשמל
 10
5771.2187
 20
-8242.0264
 30
0.0000
 11
5772.8020
 21
-8236.5308
 31
0.0000
  0
LINE
  5
1FB
  8
חשמל
 10
5772.8020
 20
-8236.5308
 30
0.0000
 11
5774.9906
 21
-8231.2469
 31
0.0000
  0
LINE
  5
1FC
  8
חשמל
 10
5774.9906
 20
-8231.2469
 30
0.0000
 11
5777.7571
 21
-8226.2414
 31
0.0000
  0
LINE
  5
1FD
  8
חשמל
 10
5777.7571
 20
-8226.2414
 30
0.0000
 11
5781.0666
 21
-8221.5770
 31
0.0000
  0
LINE
  5
1FE
  8
חשמל
 10
5781.0666
 20
-8221.5770
 30
0.0000
 11
5784.8776
 21
-8217.3126
 31
0.0000
  0
LINE
  5
1FF
  8
חשמל
 10
5784.8776
 20
-8217.3126
 30
0.0000
 11
5789.1420
 21
-8213.5016
 31
0.0000
  0
LINE
  5
200
  8
חשמל
 10
5789.1420
 20
-8213.5016
 30
0.0000
 11
5793.8064
 21
-8210.1921
 31
0.0000
  0
LINE
  5
201
  8
חשמל
 10
5793.8064
 20
-8210.1921
 30
0.0000
 11
5798.8119
 21
-8207.4256
 31
0.0000
  0
LINE
  5
202
  8
חשמל
 10
5798.8119
 20
-8207.4256
 30
0.0000
 11
5804.0958
 21
-8205.2370
 31
0.0000
  0
LINE
  5
203
  8
חשמל
 10
5804.0958
 20
-8205.2370
 30
0.0000
 11
5809.5914
 21
-8203.6537
 31
0.0000
  0
LINE
  5
204
  8
חשמל
 10
5809.5914
 20
-8203.6537
 30
0.0000
 11
5815.2298
 21
-8202.6957
 31
0.0000
  0
LINE
  5
205
  8
חשמל
 10
5815.2298
 20
-8202.6957
 30
0.0000
 11
5820.9400
 21
-8202.3750
 31
0.0000
  0
LINE
  5
206
  8
חשמל
 10
5820.9400
 20
-8202.3750
 30
0.0000
 11
5826.6502
 21
-8202.6957
 31
0.0000
  0
LINE
  5
207
  8
חשמל
 10
5826.6502
 20
-8202.6957
 30
0.0000
 11
5832.2886
 21
-8203.6537
 31
0.0000
  0
LINE
  5
208
  8
חשמל
 10
5832.2886
 20
-8203.6537
 30
0.0000
 11
5837.7842
 21
-8205.2370
 31
0.0000
  0
LINE
  5
209
  8
חשמל
 10
5837.7842
 20
-8205.2370
 30
0.0000
 11
5843.0681
 21
-8207.4256
 31
0.0000
  0
LINE
  5
20A
  8
חשמל
 10
5843.0681
 20
-8207.4256
 30
0.0000
 11
5848.0736
 21
-8210.1921
 31
0.0000
  0
LINE
  5
20B
  8
חשמל
 10
5848.0736
 20
-8210.1921
 30
0.0000
 11
5852.7380
 21
-8213.5016
 31
0.0000
  0
LINE
  5
20C
  8
חשמל
 10
5852.7380
 20
-8213.5016
 30
0.0000
 11
5857.0024
 21
-8217.3126
 31
0.0000
  0
LINE
  5
20D
  8
חשמל
 10
5857.0024
 20
-8217.3126
 30
0.0000
 11
5860.8134
 21
-8221.5770
 31
0.0000
  0
LINE
  5
20E
  8
חשמל
 10
5860.8134
 20
-8221.5770
 30
0.0000
 11
5864.1229
 21
-8226.2414
 31
0.0000
  0
LINE
  5
20F
  8
חשמל
 10
5864.1229
 20
-8226.2414
 30
0.0000
 11
5866.8894
 21
-8231.2469
 31
0.0000
  0
LINE
  5
210
  8
חשמל
 10
5866.8894
 20
-8231.2469
 30
0.0000
 11
5869.0780
 21
-8236.5308
 31
0.0000
  0
LINE
  5
211
  8
חשמל
 10
5869.0780
 20
-8236.5308
 30
0.0000
 11
5870.6613
 21
-8242.0264
 31
0.0000
  0
LINE
  5
212
  8
חשמל
 10
5870.6613
 20
-8242.0264
 30
0.0000
 11
5871.6193
 21
-8247.6648
 31
0.0000
  0
LINE
  5
213
  8
חשמל
 10
5871.6193
 20
-8247.6648
 30
0.0000
 11
5871.9400
 21
-8253.3750
 31
0.0000
  0
LINE
  5
214
  8
חשמל
 10
5769.9400
 20
-8253.3750
 30
0.0000
 11
5871.9400
 21
-8253.3750
 31
0.0000
  0
LINE
  5
215
  8
חשמל
 10
5878.0600
 20
-8253.3750
 30
0.0000
 11
5878.3807
 21
-8247.6648
 31
0.0000
  0
LINE
  5
216
  8
חשמל
 10
5878.3807
 20
-8247.6648
 30
0.0000
 11
5879.3387
 21
-8242.0264
 31
0.0000
  0
LINE
  5
217
  8
חשמל
 10
5879.3387
 20
-8242.0264
 30
0.0000
 11
5880.9220
 21
-8236.5308
 31
0.0000
  0
LINE
  5
218
  8
חשמל
 10
5880.9220
 20
-8236.5308
 30
0.0000
 11
5883.1106
 21
-8231.2469
 31
0.0000
  0
LINE
  5
219
  8
חשמל
 10
5883.1106
 20
-8231.2469
 30
0.0000
 11
5885.8771
 21
-8226.2414
 31
0.0000
  0
LINE
  5
21A
  8
חשמל
 10
5885.8771
 20
-8226.2414
 30
0.0000
 11
5889.1866
 21
-8221.5770
 31
0.0000
  0
LINE
  5
21B
  8
חשמל
 10
5889.1866
 20
-8221.5770
 30
0.0000
 11
5892.9976
 21
-8217.3126
 31
0.0000
  0
LINE
  5
21C
  8
חשמל
 10
5892.9976
 20
-8217.3126
 30
0.0000
 11
5897.2620
 21
-8213.5016
 31
0.0000
  0
LINE
  5
21D
  8
חשמל
 10
5897.2620
 20
-8213.5016
 30
0.0000
 11
5901.9264
 21
-8210.1921
 31
0.0000
  0
LINE
  5
21E
  8
חשמל
 10
5901.9264
 20
-8210.1921
 30
0.0000
 11
5906.9319
 21
-8207.4256
 31
0.0000
  0
LINE
  5
21F
  8
חשמל
 10
5906.9319
 20
-8207.4256
 30
0.0000
 11
5912.2158
 21
-8205.2370
 31
0.0000
  0
LINE
  5
220
  8
חשמל
 10
5912.2158
 20
-8205.2370
 30
0.0000
 11
5917.7114
 21
-8203.6537
 31
0.0000
  0
LINE
  5
221
  8
חשמל
 10
5917.7114
 20
-8203.6537
 30
0.0000
 11
5923.3498
 21
-8202.6957
 31
0.0000
  0
LINE
  5
222
  8
חשמל
 10
5923.3498
 20
-8202.6957
 30
0.0000
 11
5929.0600
 21
-8202.3750
 31
0.0000
  0
LINE
  5
223
  8
חשמל
 10
5929.0600
 20
-8202.3750
 30
0.0000
 11
5934.7702
 21
-8202.6957
 31
0.0000
  0
LINE
  5
224
  8
חשמל
 10
5934.7702
 20
-8202.6957
 30
0.0000
 11
5940.4086
 21
-8203.6537
 31
0.0000
  0
LINE
  5
225
  8
חשמל
 10
5940.4086
 20
-8203.6537
 30
0.0000
 11
5945.9042
 21
-8205.2370
 31
0.0000
  0
LINE
  5
226
  8
חשמל
 10
5945.9042
 20
-8205.2370
 30
0.0000
 11
5951.1881
 21
-8207.4256
 31
0.0000
  0
LINE
  5
227
  8
חשמל
 10
5951.1881
 20
-8207.4256
 30
0.0000
 11
5956.1936
 21
-8210.1921
 31
0.0000
  0
LINE
  5
228
  8
חשמל
 10
5956.1936
 20
-8210.1921
 30
0.0000
 11
5960.8580
 21
-8213.5016
 31
0.0000
  0
LINE
  5
229
  8
חשמל
 10
5960.8580
 20
-8213.5016
 30
0.0000
 11
5965.1224
 21
-8217.3126
 31
0.0000
  0
LINE
  5
22A
  8
חשמל
 10
5965.1224
 20
-8217.3126
 30
0.0000
 11
5968.9334
 21
-8221.5770
 31
0.0000
  0
LINE
  5
22B
  8
חשמל
 10
5968.9334
 20
-8221.5770
 30
0.0000
 11
5972.2429
 21
-8226.2414
 31
0.0000
  0
LINE
  5
22C
  8
חשמל
 10
5972.2429
 20
-8226.2414
 30
0.0000
 11
5975.0094
 21
-8231.2469
 31
0.0000
  0
LINE
  5
22D
  8
חשמל
 10
5975.0094
 20
-8231.2469
 30
0.0000
 11
5977.1980
 21
-8236.5308
 31
0.0000
  0
LINE
  5
22E
  8
חשמל
 10
5977.1980
 20
-8236.5308
 30
0.0000
 11
5978.7813
 21
-8242.0264
 31
0.0000
  0
LINE
  5
22F
  8
חשמל
 10
5978.7813
 20
-8242.0264
 30
0.0000
 11
5979.7393
 21
-8247.6648
 31
0.0000
  0
LINE
  5
230
  8
חשמל
 10
5979.7393
 20
-8247.6648
 30
0.0000
 11
5980.0600
 21
-8253.3750
 31
0.0000
  0
LINE
  5
231
  8
חשמל
 10
5878.0600
 20
-8253.3750
 30
0.0000
 11
5980.0600
 21
-8253.3750
 31
0.0000
  0
TEXT
  5
232
  8
מקרא
 10
6175.0000
 20
-8261.8750
 30
0.0000
 40
112.5000
  1
x1
 50
0.0000
  7
SOLINE
 73
2
 11
6175.0000
 21
-8261.8750
 31
0.0000
  0
TEXT
  5
233
  8
מקרא
 10
8275.0000
 20
-8261.8750
 30
0.0000
 40
125.0000
  1
שקע מרובע
 50
0.0000
  7
SOLINE
 72
2
 73
2
 11
8275.0000
 21
-8261.8750
 31
0.0000
  0
LINE
  5
234
  8
חשמל
 10
5875.0000
 20
-8676.1250
 30
0.0000
 11
5875.0000
 21
-8612.3750
 31
0.0000
  0
ARC
  5
235
  8
חשמל
 10
5875.0000
 20
-8612.3750
 30
0.0000
 40
10.6250
 50
0.0000
 51
360.0000
  0
LINE
  5
236
  8
חשמל
 10
5875.0000
 20
-8612.3750
 30
0.0000
 11
5931.0671
 21
-8532.3029
 31
0.0000
  0
TEXT
  5
237
  8
מקרא
 10
6175.0000
 20
-8586.8750
 30
0.0000
 40
112.5000
  1
x1
 50
0.0000
  7
SOLINE
 73
2
 11
6175.0000
 21
-8586.8750
 31
0.0000
  0
TEXT
  5
238
  8
מקרא
 10
8275.0000
 20
-8586.8750
 30
0.0000
 40
125.0000
  1
מתג
 50
0.0000
  7
SOLINE
 72
2
 73
2
 11
8275.0000
 21
-8586.8750
 31
0.0000
  0
TEXT
  5
239
  8
מקרא
 10
8275.0000
 20
-8911.8750
 30
0.0000
 40
131.2500
  1
גז  (1)
 50
0.0000
  7
SOLINE
 72
2
 73
2
 11
8275.0000
 21
-8911.8750
 31
0.0000
  0
LINE
  5
23A
  8
גז
 10
5875.0000
 20
-9326.1250
 30
0.0000
 11
5875.0000
 21
-9283.6250
 31
0.0000
  0
LINE
  5
23B
  8
גז
 10
5875.0000
 20
-9156.1250
 30
0.0000
 11
5930.2500
 21
-9188.0000
 31
0.0000
  0
LINE
  5
23C
  8
גז
 10
5930.2500
 20
-9188.0000
 30
0.0000
 11
5930.2500
 21
-9251.7500
 31
0.0000
  0
LINE
  5
23D
  8
גז
 10
5930.2500
 20
-9251.7500
 30
0.0000
 11
5875.0000
 21
-9283.6250
 31
0.0000
  0
LINE
  5
23E
  8
גז
 10
5875.0000
 20
-9283.6250
 30
0.0000
 11
5819.7500
 21
-9251.7500
 31
0.0000
  0
LINE
  5
23F
  8
גז
 10
5819.7500
 20
-9251.7500
 30
0.0000
 11
5819.7500
 21
-9188.0000
 31
0.0000
  0
LINE
  5
240
  8
גז
 10
5819.7500
 20
-9188.0000
 30
0.0000
 11
5875.0000
 21
-9156.1250
 31
0.0000
  0
TEXT
  5
241
  8
גז
 10
5875.0000
 20
-9219.8750
 30
0.0000
 40
59.5000
  1
G
 50
0.0000
  7
SOLINE
 72
1
 73
2
 11
5875.0000
 21
-9219.8750
 31
0.0000
  0
TEXT
  5
242
  8
מקרא
 10
6175.0000
 20
-9236.8750
 30
0.0000
 40
112.5000
  1
x1
 50
0.0000
  7
SOLINE
 73
2
 11
6175.0000
 21
-9236.8750
 31
0.0000
  0
TEXT
  5
243
  8
מקרא
 10
8275.0000
 20
-9236.8750
 30
0.0000
 40
125.0000
  1
גז
 50
0.0000
  7
SOLINE
 72
2
 73
2
 11
8275.0000
 21
-9236.8750
 31
0.0000
  0
TEXT
  5
244
  8
מקרא
 10
8275.0000
 20
-9561.8750
 30
0.0000
 40
131.2500
  1
תאורה  (1)
 50
0.0000
  7
SOLINE
 72
2
 73
2
 11
8275.0000
 21
-9561.8750
 31
0.0000
  0
ARC
  5
245
  8
תאורה
 10
5875.0000
 20
-9869.8750
 30
0.0000
 40
63.7500
 50
0.0000
 51
360.0000
  0
LINE
  5
246
  8
תאורה
 10
5830.3750
 20
-9825.2500
 30
0.0000
 11
5919.6250
 21
-9914.5000
 31
0.0000
  0
LINE
  5
247
  8
תאורה
 10
5919.6250
 20
-9825.2500
 30
0.0000
 11
5830.3750
 21
-9914.5000
 31
0.0000
  0
TEXT
  5
248
  8
מקרא
 10
6175.0000
 20
-9886.8750
 30
0.0000
 40
112.5000
  1
x1
 50
0.0000
  7
SOLINE
 73
2
 11
6175.0000
 21
-9886.8750
 31
0.0000
  0
TEXT
  5
249
  8
מקרא
 10
8275.0000
 20
-9886.8750
 30
0.0000
 40
125.0000
  1
מנורת תקרה
 50
0.0000
  7
SOLINE
 72
2
 73
2
 11
8275.0000
 21
-9886.8750
 31
0.0000
  0
TEXT
  5
24A
  8
מקרא
 10
8275.0000
 20
-10211.8750
 30
0.0000
 40
131.2500
  1
פתח  (1)
 50
0.0000
  7
SOLINE
 72
2
 73
2
 11
8275.0000
 21
-10211.8750
 31
0.0000
  0
LINE
  5
24B
  8
דלתות
 10
5777.2500
 20
-10626.1250
 30
0.0000
 11
5777.2500
 21
-10562.3750
 31
0.0000
  0
LINE
  5
24C
  8
דלתות
 10
5972.7500
 20
-10626.1250
 30
0.0000
 11
5972.7500
 21
-10562.3750
 31
0.0000
  0
TEXT
  5
24D
  8
מקרא
 10
6175.0000
 20
-10536.8750
 30
0.0000
 40
112.5000
  1
x1
 50
0.0000
  7
SOLINE
 73
2
 11
6175.0000
 21
-10536.8750
 31
0.0000
  0
TEXT
  5
24E
  8
מקרא
 10
8275.0000
 20
-10536.8750
 30
0.0000
 40
125.0000
  1
דלת
 50
0.0000
  7
SOLINE
 72
2
 73
2
 11
8275.0000
 21
-10536.8750
 31
0.0000
  0
TEXT
  5
24F
  8
מקרא
 10
8275.0000
 20
-10861.8750
 30
0.0000
 40
131.2500
  1
מים  (2)
 50
0.0000
  7
SOLINE
 72
2
 73
2
 11
8275.0000
 21
-10861.8750
 31
0.0000
  0
LINE
  5
250
  8
מים
 10
5875.0000
 20
-11276.1250
 30
0.0000
 11
5875.0000
 21
-11227.2500
 31
0.0000
  0
ARC
  5
251
  8
מים
 10
5875.0000
 20
-11169.8750
 30
0.0000
 40
59.5000
 50
0.0000
 51
360.0000
  0
LINE
  5
252
  8
מים
 10
5824.0000
 20
-11169.8750
 30
0.0000
 11
5926.0000
 21
-11169.8750
 31
0.0000
  0
LINE
  5
253
  8
מים
 10
5875.0000
 20
-11118.8750
 30
0.0000
 11
5875.0000
 21
-11220.8750
 31
0.0000
  0
TEXT
  5
254
  8
מקרא
 10
6175.0000
 20
-11186.8750
 30
0.0000
 40
112.5000
  1
x2
 50
0.0000
  7
SOLINE
 73
2
 11
6175.0000
 21
-11186.8750
 31
0.0000
  0
TEXT
  5
255
  8
מקרא
 10
8275.0000
 20
-11186.8750
 30
0.0000
 40
125.0000
  1
מים
 50
0.0000
  7
SOLINE
 72
2
 73
2
 11
8275.0000
 21
-11186.8750
 31
0.0000
  0
TEXT
  5
256
  8
מקרא
 10
8275.0000
 20
-11511.8750
 30
0.0000
 40
131.2500
  1
מבנה  (3)
 50
0.0000
  7
SOLINE
 72
2
 73
2
 11
8275.0000
 21
-11511.8750
 31
0.0000
  0
LINE
  5
257
  8
מבנה
 10
5768.7500
 20
-11794.3750
 30
0.0000
 11
5981.2500
 21
-11794.3750
 31
0.0000
  0
LINE
  5
258
  8
מבנה
 10
5981.2500
 20
-11794.3750
 30
0.0000
 11
5981.2500
 21
-11845.3750
 31
0.0000
  0
LINE
  5
259
  8
מבנה
 10
5981.2500
 20
-11845.3750
 30
0.0000
 11
5768.7500
 21
-11845.3750
 31
0.0000
  0
LINE
  5
25A
  8
מבנה
 10
5768.7500
 20
-11845.3750
 30
0.0000
 11
5768.7500
 21
-11794.3750
 31
0.0000
  0
TEXT
  5
25B
  8
מקרא
 10
6175.0000
 20
-11836.8750
 30
0.0000
 40
112.5000
  1
x2
 50
0.0000
  7
SOLINE
 73
2
 11
6175.0000
 21
-11836.8750
 31
0.0000
  0
TEXT
  5
25C
  8
מקרא
 10
8275.0000
 20
-11836.8750
 30
0.0000
 40
125.0000
  1
עמוד
 50
0.0000
  7
SOLINE
 72
2
 73
2
 11
8275.0000
 21
-11836.8750
 31
0.0000
  0
LINE
  5
25D
  8
מבנה
 10
5798.5000
 20
-12068.3750
 30
0.0000
 11
5951.5000
 21
-12068.3750
 31
0.0000
  0
LINE
  5
25E
  8
מבנה
 10
5951.5000
 20
-12068.3750
 30
0.0000
 11
5951.5000
 21
-12221.3750
 31
0.0000
  0
LINE
  5
25F
  8
מבנה
 10
5951.5000
 20
-12221.3750
 30
0.0000
 11
5798.5000
 21
-12221.3750
 31
0.0000
  0
LINE
  5
260
  8
מבנה
 10
5798.5000
 20
-12221.3750
 30
0.0000
 11
5798.5000
 21
-12068.3750
 31
0.0000
  0
LINE
  5
261
  8
מבנה
 10
5938.7500
 20
-12132.1250
 30
0.0000
 11
5951.5000
 21
-12144.8750
 31
0.0000
  0
LINE
  5
262
  8
מבנה
 10
5951.5000
 20
-12144.8750
 30
0.0000
 11
5938.7500
 21
-12157.6250
 31
0.0000
  0
TEXT
  5
263
  8
מקרא
 10
6175.0000
 20
-12161.8750
 30
0.0000
 40
112.5000
  1
x1
 50
0.0000
  7
SOLINE
 73
2
 11
6175.0000
 21
-12161.8750
 31
0.0000
  0
TEXT
  5
264
  8
מקרא
 10
8275.0000
 20
-12161.8750
 30
0.0000
 40
125.0000
  1
פאנל
 50
0.0000
  7
SOLINE
 72
2
 73
2
 11
8275.0000
 21
-12161.8750
 31
0.0000
  0
TEXT
  5
265
  8
מקרא
 10
8275.0000
 20
-12486.8750
 30
0.0000
 40
131.2500
  1
חלון  (1)
 50
0.0000
  7
SOLINE
 72
2
 73
2
 11
8275.0000
 21
-12486.8750
 31
0.0000
  0
LINE
  5
266
  8
חלונות
 10
5768.7500
 20
-12765.1250
 30
0.0000
 11
5981.2500
 21
-12765.1250
 31
0.0000
  0
LINE
  5
267
  8
חלונות
 10
5981.2500
 20
-12765.1250
 30
0.0000
 11
5981.2500
 21
-12824.6250
 31
0.0000
  0
LINE
  5
268
  8
חלונות
 10
5981.2500
 20
-12824.6250
 30
0.0000
 11
5768.7500
 21
-12824.6250
 31
0.0000
  0
LINE
  5
269
  8
חלונות
 10
5768.7500
 20
-12824.6250
 30
0.0000
 11
5768.7500
 21
-12765.1250
 31
0.0000
  0
LINE
  5
26A
  8
חלונות
 10
5768.7500
 20
-12785.3550
 30
0.0000
 11
5981.2500
 21
-12785.3550
 31
0.0000
  0
LINE
  5
26B
  8
חלונות
 10
5768.7500
 20
-12804.3950
 30
0.0000
 11
5981.2500
 21
-12804.3950
 31
0.0000
  0
TEXT
  5
26C
  8
מקרא
 10
6175.0000
 20
-12811.8750
 30
0.0000
 40
112.5000
  1
x1
 50
0.0000
  7
SOLINE
 73
2
 11
6175.0000
 21
-12811.8750
 31
0.0000
  0
TEXT
  5
26D
  8
מקרא
 10
8275.0000
 20
-12811.8750
 30
0.0000
 40
125.0000
  1
חלון
 50
0.0000
  7
SOLINE
 72
2
 73
2
 11
8275.0000
 21
-12811.8750
 31
0.0000
  0
LINE
  5
26E
  8
מסגרת
 10
6975.0000
 20
-13678.1250
 30
0.0000
 11
6975.0000
 21
-13053.1250
 31
0.0000
  0
SOLID
  5
26F
  8
מסגרת
 10
6975.0000
 20
-13053.1250
 30
0.0000
 11
6912.5000
 21
-13178.1250
 31
0.0000
 12
7037.5000
 22
-13178.1250
 32
0.0000
 13
7037.5000
 23
-13178.1250
 33
0.0000
  0
TEXT
  5
270
  8
מסגרת
 10
6975.0000
 20
-13015.6250
 30
0.0000
 40
137.5000
  1
N
 50
0.0000
  7
SOLINE
 72
1
 73
3
 11
6975.0000
 21
-13015.6250
 31
0.0000
  0
LINE
  5
271
  8
מסגרת
 10
6600.0000
 20
-13865.6250
 30
0.0000
 11
7400.0000
 21
-13865.6250
 31
0.0000
  0
LINE
  5
272
  8
מסגרת
 10
6600.0000
 20
-13865.6250
 30
0.0000
 11
6600.0000
 21
-13928.1250
 31
0.0000
  0
LINE
  5
273
  8
מסגרת
 10
6800.0000
 20
-13865.6250
 30
0.0000
 11
6800.0000
 21
-13928.1250
 31
0.0000
  0
LINE
  5
274
  8
מסגרת
 10
7000.0000
 20
-13865.6250
 30
0.0000
 11
7000.0000
 21
-13928.1250
 31
0.0000
  0
LINE
  5
275
  8
מסגרת
 10
7200.0000
 20
-13865.6250
 30
0.0000
 11
7200.0000
 21
-13928.1250
 31
0.0000
  0
LINE
  5
276
  8
מסגרת
 10
7400.0000
 20
-13865.6250
 30
0.0000
 11
7400.0000
 21
-13928.1250
 31
0.0000
  0
TEXT
  5
277
  8
מסגרת
 10
6600.0000
 20
-14065.6250
 30
0.0000
 40
87.5000
  1
0
 50
0.0000
  7
SOLINE
 72
1
 11
6600.0000
 21
-14065.6250
 31
0.0000
  0
TEXT
  5
278
  8
מסגרת
 10
7400.0000
 20
-14065.6250
 30
0.0000
 40
87.5000
  1
0.8 m
 50
0.0000
  7
SOLINE
 72
2
 11
7400.0000
 21
-14065.6250
 31
0.0000
  0
LINE
  5
279
  8
קירות
 10
-1000.0000
 20
-9600.0000
 30
0.0000
 11
3000.0000
 21
-9600.0000
 31
0.0000
  0
LINE
  5
27A
  8
קירות
 10
3000.0000
 20
-9600.0000
 30
0.0000
 11
3000.0000
 21
-7000.0000
 31
0.0000
  0
LINE
  5
27B
  8
קירות
 10
3000.0000
 20
-7000.0000
 30
0.0000
 11
-1000.0000
 21
-7000.0000
 31
0.0000
  0
LINE
  5
27C
  8
קירות
 10
-1000.0000
 20
-7000.0000
 30
0.0000
 11
-1000.0000
 21
-9600.0000
 31
0.0000
  0
LINE
  5
27D
  8
מידות-חוץ
 10
-1000.0000
 20
-9650.0000
 30
0.0000
 11
-1000.0000
 21
-10050.0000
 31
0.0000
  0
LINE
  5
27E
  8
מידות-חוץ
 10
3000.0000
 20
-9650.0000
 30
0.0000
 11
3000.0000
 21
-10050.0000
 31
0.0000
  0
LINE
  5
27F
  8
מידות-חוץ
 10
-1000.0000
 20
-9975.0000
 30
0.0000
 11
3000.0000
 21
-9975.0000
 31
0.0000
  0
SOLID
  5
280
  8
מידות-חוץ
 10
-1000.0000
 20
-9975.0000
 30
0.0000
 11
-1143.7500
 21
-10015.0000
 31
0.0000
 12
-1143.7500
 22
-9935.0000
 32
0.0000
 13
-1143.7500
 23
-9935.0000
 33
0.0000
  0
SOLID
  5
281
  8
מידות-חוץ
 10
3000.0000
 20
-9975.0000
 30
0.0000
 11
3143.7500
 21
-10015.0000
 31
0.0000
 12
3143.7500
 22
-9935.0000
 32
0.0000
 13
3143.7500
 23
-9935.0000
 33
0.0000
  0
TEXT
  5
282
  8
מידות-חוץ
 10
1000.0000
 20
-10093.7500
 30
0.0000
 40
125.0000
  1
400
 50
0.0000
  7
SOLINE
 72
1
 73
2
 11
1000.0000
 21
-10093.7500
 31
0.0000
  0
LINE
  5
283
  8
מידות-חוץ
 10
-1050.0000
 20
-9600.0000
 30
0.0000
 11
-1450.0000
 21
-9600.0000
 31
0.0000
  0
LINE
  5
284
  8
מידות-חוץ
 10
-1050.0000
 20
-7000.0000
 30
0.0000
 11
-1450.0000
 21
-7000.0000
 31
0.0000
  0
LINE
  5
285
  8
מידות-חוץ
 10
-1375.0000
 20
-9600.0000
 30
0.0000
 11
-1375.0000
 21
-7000.0000
 31
0.0000
  0
SOLID
  5
286
  8
מידות-חוץ
 10
-1375.0000
 20
-9600.0000
 30
0.0000
 11
-1415.0000
 21
-9743.7500
 31
0.0000
 12
-1335.0000
 22
-9743.7500
 32
0.0000
 13
-1335.0000
 23
-9743.7500
 33
0.0000
  0
SOLID
  5
287
  8
מידות-חוץ
 10
-1375.0000
 20
-7000.0000
 30
0.0000
 11
-1415.0000
 21
-6856.2500
 31
0.0000
 12
-1335.0000
 22
-6856.2500
 32
0.0000
 13
-1335.0000
 23
-6856.2500
 33
0.0000
  0
TEXT
  5
288
  8
מידות-חוץ
 10
-1493.7500
 20
-8300.0000
 30
0.0000
 40
125.0000
  1
260
 50
90.0000
  7
SOLINE
 72
1
 73
2
 11
-1493.7500
 21
-8300.0000
 31
0.0000
  0
LINE
  5
289
  8
חשמל
 10
-700.0000
 20
-9535.0000
 30
0.0000
 11
-610.0000
 21
-9535.0000
 31
0.0000
  0
LINE
  5
28A
  8
חשמל
 10
-610.0000
 20
-9535.0000
 30
0.0000
 11
-610.0000
 21
-9445.0000
 31
0.0000
  0
LINE
  5
28B
  8
חשמל
 10
-610.0000
 20
-9445.0000
 30
0.0000
 11
-700.0000
 21
-9445.0000
 31
0.0000
  0
LINE
  5
28C
  8
חשמל
 10
-700.0000
 20
-9445.0000
 30
0.0000
 11
-700.0000
 21
-9535.0000
 31
0.0000
  0
LINE
  5
28D
  8
חשמל
 10
-655.0000
 20
-9535.0000
 30
0.0000
 11
-655.0000
 21
-9493.6000
 31
0.0000
  0
LINE
  5
28E
  8
חשמל
 10
-683.8000
 20
-9493.6000
 30
0.0000
 11
-683.6189
 21
-9490.3754
 31
0.0000
  0
LINE
  5
28F
  8
חשמל
 10
-683.6189
 20
-9490.3754
 30
0.0000
 11
-683.0779
 21
-9487.1914
 31
0.0000
  0
LINE
  5
290
  8
חשמל
 10
-683.0779
 20
-9487.1914
 30
0.0000
 11
-682.1838
 21
-9484.0880
 31
0.0000
  0
LINE
  5
291
  8
חשמל
 10
-682.1838
 20
-9484.0880
 30
0.0000
 11
-680.9479
 21
-9481.1041
 31
0.0000
  0
LINE
  5
292
  8
חשמל
 10
-680.9479
 20
-9481.1041
 30
0.0000
 11
-679.3857
 21
-9478.2775
 31
0.0000
  0
LINE
  5
293
  8
חשמל
 10
-679.3857
 20
-9478.2775
 30
0.0000
 11
-677.5167
 21
-9475.6435
 31
0.0000
  0
LINE
  5
294
  8
חשמל
 10
-677.5167
 20
-9475.6435
 30
0.0000
 11
-675.3647
 21
-9473.2353
 31
0.0000
  0
LINE
  5
295
  8
חשמל
 10
-675.3647
 20
-9473.2353
 30
0.0000
 11
-672.9565
 21
-9471.0833
 31
0.0000
  0
LINE
  5
296
  8
חשמל
 10
-672.9565
 20
-9471.0833
 30
0.0000
 11
-670.3225
 21
-9469.2143
 31
0.0000
  0
LINE
  5
297
  8
חשמל
 10
-670.3225
 20
-9469.2143
 30
0.0000
 11
-667.4959
 21
-9467.6521
 31
0.0000
  0
LINE
  5
298
  8
חשמל
 10
-667.4959
 20
-9467.6521
 30
0.0000
 11
-664.5120
 21
-9466.4162
 31
0.0000
  0
LINE
  5
299
  8
חשמל
 10
-664.5120
 20
-9466.4162
 30
0.0000
 11
-661.4086
 21
-9465.5221
 31
0.0000
  0
LINE
  5
29A
  8
חשמל
 10
-661.4086
 20
-9465.5221
 30
0.0000
 11
-658.2246
 21
-9464.9811
 31
0.0000
  0
LINE
  5
29B
  8
חשמל
 10
-658.2246
 20
-9464.9811
 30
0.0000
 11
-655.0000
 21
-9464.8000
 31
0.0000
  0
LINE
  5
29C
  8
חשמל
 10
-655.0000
 20
-9464.8000
 30
0.0000
 11
-651.7754
 21
-9464.9811
 31
0.0000
  0
LINE
  5
29D
  8
חשמל
 10
-651.7754
 20
-9464.9811
 30
0.0000
 11
-648.5914
 21
-9465.5221
 31
0.0000
  0
LINE
  5
29E
  8
חשמל
 10
-648.5914
 20
-9465.5221
 30
0.0000
 11
-645.4880
 21
-9466.4162
 31
0.0000
  0
LINE
  5
29F
  8
חשמל
 10
-645.4880
 20
-9466.4162
 30
0.0000
 11
-642.5041
 21
-9467.6521
 31
0.0000
  0
LINE
  5
2A0
  8
חשמל
 10
-642.5041
 20
-9467.6521
 30
0.0000
 11
-639.6775
 21
-9469.2143
 31
0.0000
  0
LINE
  5
2A1
  8
חשמל
 10
-639.6775
 20
-9469.2143
 30
0.0000
 11
-637.0435
 21
-9471.0833
 31
0.0000
  0
LINE
  5
2A2
  8
חשמל
 10
-637.0435
 20
-9471.0833
 30
0.0000
 11
-634.6353
 21
-9473.2353
 31
0.0000
  0
LINE
  5
2A3
  8
חשמל
 10
-634.6353
 20
-9473.2353
 30
0.0000
 11
-632.4833
 21
-9475.6435
 31
0.0000
  0
LINE
  5
2A4
  8
חשמל
 10
-632.4833
 20
-9475.6435
 30
0.0000
 11
-630.6143
 21
-9478.2775
 31
0.0000
  0
LINE
  5
2A5
  8
חשמל
 10
-630.6143
 20
-9478.2775
 30
0.0000
 11
-629.0521
 21
-9481.1041
 31
0.0000
  0
LINE
  5
2A6
  8
חשמל
 10
-629.0521
 20
-9481.1041
 30
0.0000
 11
-627.8162
 21
-9484.0880
 31
0.0000
  0
LINE
  5
2A7
  8
חשמל
 10
-627.8162
 20
-9484.0880
 30
0.0000
 11
-626.9221
 21
-9487.1914
 31
0.0000
  0
LINE
  5
2A8
  8
חשמל
 10
-626.9221
 20
-9487.1914
 30
0.0000
 11
-626.3811
 21
-9490.3754
 31
0.0000
  0
LINE
  5
2A9
  8
חשמל
 10
-626.3811
 20
-9490.3754
 30
0.0000
 11
-626.2000
 21
-9493.6000
 31
0.0000
  0
LINE
  5
2AA
  8
חשמל
 10
-683.8000
 20
-9493.6000
 30
0.0000
 11
-626.2000
 21
-9493.6000
 31
0.0000
  0
LINE
  5
2AB
  8
חשמל-מידות
 10
-1000.0000
 20
-9640.0000
 30
0.0000
 11
-1000.0000
 21
-10472.5000
 31
0.0000
  0
LINE
  5
2AC
  8
חשמל-מידות
 10
-655.0000
 20
-9640.0000
 30
0.0000
 11
-655.0000
 21
-10472.5000
 31
0.0000
  0
LINE
  5
2AD
  8
חשמל-מידות
 10
-1000.0000
 20
-10412.5000
 30
0.0000
 11
-655.0000
 21
-10412.5000
 31
0.0000
  0
SOLID
  5
2AE
  8
חשמל-מידות
 10
-1000.0000
 20
-10412.5000
 30
0.0000
 11
-1115.0000
 21
-10444.5000
 31
0.0000
 12
-1115.0000
 22
-10380.5000
 32
0.0000
 13
-1115.0000
 23
-10380.5000
 33
0.0000
  0
SOLID
  5
2AF
  8
חשמל-מידות
 10
-655.0000
 20
-10412.5000
 30
0.0000
 11
-540.0000
 21
-10444.5000
 31
0.0000
 12
-540.0000
 22
-10380.5000
 32
0.0000
 13
-540.0000
 23
-10380.5000
 33
0.0000
  0
TEXT
  5
2B0
  8
חשמל-מידות
 10
-827.5000
 20
-10507.5000
 30
0.0000
 40
100.0000
  1
34.5
 50
0.0000
  7
SOLINE
 72
1
 73
2
 11
-827.5000
 21
-10507.5000
 31
0.0000
  0
LINE
  5
2B1
  8
חשמל-מידות
 10
-695.0000
 20
-9600.0000
 30
0.0000
 11
-947.5000
 21
-9600.0000
 31
0.0000
  0
LINE
  5
2B2
  8
חשמל-מידות
 10
-695.0000
 20
-9490.0000
 30
0.0000
 11
-947.5000
 21
-9490.0000
 31
0.0000
  0
LINE
  5
2B3
  8
חשמל-מידות
 10
-887.5000
 20
-9600.0000
 30
0.0000
 11
-887.5000
 21
-9490.0000
 31
0.0000
  0
SOLID
  5
2B4
  8
חשמל-מידות
 10
-887.5000
 20
-9600.0000
 30
0.0000
 11
-919.5000
 21
-9715.0000
 31
0.0000
 12
-855.5000
 22
-9715.0000
 32
0.0000
 13
-855.5000
 23
-9715.0000
 33
0.0000
  0
SOLID
  5
2B5
  8
חשמל-מידות
 10
-887.5000
 20
-9490.0000
 30
0.0000
 11
-919.5000
 21
-9375.0000
 31
0.0000
 12
-855.5000
 22
-9375.0000
 32
0.0000
 13
-855.5000
 23
-9375.0000
 33
0.0000
  0
TEXT
  5
2B6
  8
חשמל-מידות
 10
-982.5000
 20
-9545.0000
 30
0.0000
 40
100.0000
  1
11
 50
90.0000
  7
SOLINE
 72
1
 73
2
 11
-982.5000
 21
-9545.0000
 31
0.0000
  0
LINE
  5
2B7
  8
חשמל
 10
0.0000
 20
-9535.0000
 30
0.0000
 11
160.0000
 21
-9535.0000
 31
0.0000
  0
LINE
  5
2B8
  8
חשמל
 10
160.0000
 20
-9535.0000
 30
0.0000
 11
160.0000
 21
-9445.0000
 31
0.0000
  0
LINE
  5
2B9
  8
חשמל
 10
160.0000
 20
-9445.0000
 30
0.0000
 11
0.0000
 21
-9445.0000
 31
0.0000
  0
LINE
  5
2BA
  8
חשמל
 10
0.0000
 20
-9445.0000
 30
0.0000
 11
0.0000
 21
-9535.0000
 31
0.0000
  0
LINE
  5
2BB
  8
חשמל
 10
80.0000
 20
-9535.0000
 30
0.0000
 11
80.0000
 21
-9493.6000
 31
0.0000
  0
LINE
  5
2BC
  8
חשמל
 10
0.8960
 20
-9493.6000
 30
0.0000
 11
1.1375
 21
-9491.1816
 31
0.0000
  0
LINE
  5
2BD
  8
חשמל
 10
1.1375
 20
-9491.1816
 30
0.0000
 11
1.8588
 21
-9488.7935
 31
0.0000
  0
LINE
  5
2BE
  8
חשמל
 10
1.8588
 20
-9488.7935
 30
0.0000
 11
3.0509
 21
-9486.4660
 31
0.0000
  0
LINE
  5
2BF
  8
חשמל
 10
3.0509
 20
-9486.4660
 30
0.0000
 11
4.6988
 21
-9484.2281
 31
0.0000
  0
LINE
  5
2C0
  8
חשמל
 10
4.6988
 20
-9484.2281
 30
0.0000
 11
6.7818
 21
-9482.1081
 31
0.0000
  0
LINE
  5
2C1
  8
חשמל
 10
6.7818
 20
-9482.1081
 30
0.0000
 11
9.2737
 21
-9480.1326
 31
0.0000
  0
LINE
  5
2C2
  8
חשמל
 10
9.2737
 20
-9480.1326
 30
0.0000
 11
12.1431
 21
-9478.3265
 31
0.0000
  0
LINE
  5
2C3
  8
חשמל
 10
12.1431
 20
-9478.3265
 30
0.0000
 11
15.3540
 21
-9476.7124
 31
0.0000
  0
LINE
  5
2C4
  8
חשמל
 10
15.3540
 20
-9476.7124
 30
0.0000
 11
18.8660
 21
-9475.3108
 31
0.0000
  0
LINE
  5
2C5
  8
חשמל
 10
18.8660
 20
-9475.3108
 30
0.0000
 11
22.6349
 21
-9474.1391
 31
0.0000
  0
LINE
  5
2C6
  8
חשמל
 10
22.6349
 20
-9474.1391
 30
0.0000
 11
26.6133
 21
-9473.2121
 31
0.0000
  0
LINE
  5
2C7
  8
חשמל
 10
26.6133
 20
-9473.2121
 30
0.0000
 11
30.7512
 21
-9472.5416
 31
0.0000
  0
LINE
  5
2C8
  8
חשמל
 10
30.7512
 20
-9472.5416
 30
0.0000
 11
34.9966
 21
-9472.1358
 31
0.0000
  0
LINE
  5
2C9
  8
חשמל
 10
34.9966
 20
-9472.1358
 30
0.0000
 11
39.2960
 21
-9472.0000
 31
0.0000
  0
LINE
  5
2CA
  8
חשמל
 10
39.2960
 20
-9472.0000
 30
0.0000
 11
43.5954
 21
-9472.1358
 31
0.0000
  0
LINE
  5
2CB
  8
חשמל
 10
43.5954
 20
-9472.1358
 30
0.0000
 11
47.8408
 21
-9472.5416
 31
0.0000
  0
LINE
  5
2CC
  8
חשמל
 10
47.8408
 20
-9472.5416
 30
0.0000
 11
51.9787
 21
-9473.2121
 31
0.0000
  0
LINE
  5
2CD
  8
חשמל
 10
51.9787
 20
-9473.2121
 30
0.0000
 11
55.9571
 21
-9474.1391
 31
0.0000
  0
LINE
  5
2CE
  8
חשמל
 10
55.9571
 20
-9474.1391
 30
0.0000
 11
59.7260
 21
-9475.3108
 31
0.0000
  0
LINE
  5
2CF
  8
חשמל
 10
59.7260
 20
-9475.3108
 30
0.0000
 11
63.2380
 21
-9476.7124
 31
0.0000
  0
LINE
  5
2D0
  8
חשמל
 10
63.2380
 20
-9476.7124
 30
0.0000
 11
66.4489
 21
-9478.3265
 31
0.0000
  0
LINE
  5
2D1
  8
חשמל
 10
66.4489
 20
-9478.3265
 30
0.0000
 11
69.3183
 21
-9480.1326
 31
0.0000
  0
LINE
  5
2D2
  8
חשמל
 10
69.3183
 20
-9480.1326
 30
0.0000
 11
71.8102
 21
-9482.1081
 31
0.0000
  0
LINE
  5
2D3
  8
חשמל
 10
71.8102
 20
-9482.1081
 30
0.0000
 11
73.8932
 21
-9484.2281
 31
0.0000
  0
LINE
  5
2D4
  8
חשמל
 10
73.8932
 20
-9484.2281
 30
0.0000
 11
75.5411
 21
-9486.4660
 31
0.0000
  0
LINE
  5
2D5
  8
חשמל
 10
75.5411
 20
-9486.4660
 30
0.0000
 11
76.7332
 21
-9488.7935
 31
0.0000
  0
LINE
  5
2D6
  8
חשמל
 10
76.7332
 20
-9488.7935
 30
0.0000
 11
77.4545
 21
-9491.1816
 31
0.0000
  0
LINE
  5
2D7
  8
חשמל
 10
77.4545
 20
-9491.1816
 30
0.0000
 11
77.6960
 21
-9493.6000
 31
0.0000
  0
LINE
  5
2D8
  8
חשמל
 10
0.8960
 20
-9493.6000
 30
0.0000
 11
77.6960
 21
-9493.6000
 31
0.0000
  0
LINE
  5
2D9
  8
חשמל
 10
82.3040
 20
-9493.6000
 30
0.0000
 11
82.5455
 21
-9491.1816
 31
0.0000
  0
LINE
  5
2DA
  8
חשמל
 10
82.5455
 20
-9491.1816
 30
0.0000
 11
83.2668
 21
-9488.7935
 31
0.0000
  0
LINE
  5
2DB
  8
חשמל
 10
83.2668
 20
-9488.7935
 30
0.0000
 11
84.4589
 21
-9486.4660
 31
0.0000
  0
LINE
  5
2DC
  8
חשמל
 10
84.4589
 20
-9486.4660
 30
0.0000
 11
86.1068
 21
-9484.2281
 31
0.0000
  0
LINE
  5
2DD
  8
חשמל
 10
86.1068
 20
-9484.2281
 30
0.0000
 11
88.1898
 21
-9482.1081
 31
0.0000
  0
LINE
  5
2DE
  8
חשמל
 10
88.1898
 20
-9482.1081
 30
0.0000
 11
90.6817
 21
-9480.1326
 31
0.0000
  0
LINE
  5
2DF
  8
חשמל
 10
90.6817
 20
-9480.1326
 30
0.0000
 11
93.5511
 21
-9478.3265
 31
0.0000
  0
LINE
  5
2E0
  8
חשמל
 10
93.5511
 20
-9478.3265
 30
0.0000
 11
96.7620
 21
-9476.7124
 31
0.0000
  0
LINE
  5
2E1
  8
חשמל
 10
96.7620
 20
-9476.7124
 30
0.0000
 11
100.2740
 21
-9475.3108
 31
0.0000
  0
LINE
  5
2E2
  8
חשמל
 10
100.2740
 20
-9475.3108
 30
0.0000
 11
104.0429
 21
-9474.1391
 31
0.0000
  0
LINE
  5
2E3
  8
חשמל
 10
104.0429
 20
-9474.1391
 30
0.0000
 11
108.0213
 21
-9473.2121
 31
0.0000
  0
LINE
  5
2E4
  8
חשמל
 10
108.0213
 20
-9473.2121
 30
0.0000
 11
112.1592
 21
-9472.5416
 31
0.0000
  0
LINE
  5
2E5
  8
חשמל
 10
112.1592
 20
-9472.5416
 30
0.0000
 11
116.4046
 21
-9472.1358
 31
0.0000
  0
LINE
  5
2E6
  8
חשמל
 10
116.4046
 20
-9472.1358
 30
0.0000
 11
120.7040
 21
-9472.0000
 31
0.0000
  0
LINE
  5
2E7
  8
חשמל
 10
120.7040
 20
-9472.0000
 30
0.0000
 11
125.0034
 21
-9472.1358
 31
0.0000
  0
LINE
  5
2E8
  8
חשמל
 10
125.0034
 20
-9472.1358
 30
0.0000
 11
129.2488
 21
-9472.5416
 31
0.0000
  0
LINE
  5
2E9
  8
חשמל
 10
129.2488
 20
-9472.5416
 30
0.0000
 11
133.3867
 21
-9473.2121
 31
0.0000
  0
LINE
  5
2EA
  8
חשמל
 10
133.3867
 20
-9473.2121
 30
0.0000
 11
137.3651
 21
-9474.1391
 31
0.0000
  0
LINE
  5
2EB
  8
חשמל
 10
137.3651
 20
-9474.1391
 30
0.0000
 11
141.1340
 21
-9475.3108
 31
0.0000
  0
LINE
  5
2EC
  8
חשמל
 10
141.1340
 20
-9475.3108
 30
0.0000
 11
144.6460
 21
-9476.7124
 31
0.0000
  0
LINE
  5
2ED
  8
חשמל
 10
144.6460
 20
-9476.7124
 30
0.0000
 11
147.8569
 21
-9478.3265
 31
0.0000
  0
LINE
  5
2EE
  8
חשמל
 10
147.8569
 20
-9478.3265
 30
0.0000
 11
150.7263
 21
-9480.1326
 31
0.0000
  0
LINE
  5
2EF
  8
חשמל
 10
150.7263
 20
-9480.1326
 30
0.0000
 11
153.2182
 21
-9482.1081
 31
0.0000
  0
LINE
  5
2F0
  8
חשמל
 10
153.2182
 20
-9482.1081
 30
0.0000
 11
155.3012
 21
-9484.2281
 31
0.0000
  0
LINE
  5
2F1
  8
חשמל
 10
155.3012
 20
-9484.2281
 30
0.0000
 11
156.9491
 21
-9486.4660
 31
0.0000
  0
LINE
  5
2F2
  8
חשמל
 10
156.9491
 20
-9486.4660
 30
0.0000
 11
158.1412
 21
-9488.7935
 31
0.0000
  0
LINE
  5
2F3
  8
חשמל
 10
158.1412
 20
-9488.7935
 30
0.0000
 11
158.8625
 21
-9491.1816
 31
0.0000
  0
LINE
  5
2F4
  8
חשמל
 10
158.8625
 20
-9491.1816
 30
0.0000
 11
159.1040
 21
-9493.6000
 31
0.0000
  0
LINE
  5
2F5
  8
חשמל
 10
82.3040
 20
-9493.6000
 30
0.0000
 11
159.1040
 21
-9493.6000
 31
0.0000
  0
LINE
  5
2F6
  8
חשמל-מידות
 10
-1000.0000
 20
-9640.0000
 30
0.0000
 11
-1000.0000
 21
-10822.5000
 31
0.0000
  0
LINE
  5
2F7
  8
חשמל-מידות
 10
80.0000
 20
-9640.0000
 30
0.0000
 11
80.0000
 21
-10822.5000
 31
0.0000
  0
LINE
  5
2F8
  8
חשמל-מידות
 10
-1000.0000
 20
-10762.5000
 30
0.0000
 11
80.0000
 21
-10762.5000
 31
0.0000
  0
SOLID
  5
2F9
  8
חשמל-מידות
 10
-1000.0000
 20
-10762.5000
 30
0.0000
 11
-1115.0000
 21
-10794.5000
 31
0.0000
 12
-1115.0000
 22
-10730.5000
 32
0.0000
 13
-1115.0000
 23
-10730.5000
 33
0.0000
  0
SOLID
  5
2FA
  8
חשמל-מידות
 10
80.0000
 20
-10762.5000
 30
0.0000
 11
195.0000
 21
-10794.5000
 31
0.0000
 12
195.0000
 22
-10730.5000
 32
0.0000
 13
195.0000
 23
-10730.5000
 33
0.0000
  0
TEXT
  5
2FB
  8
חשמל-מידות
 10
-460.0000
 20
-10857.5000
 30
0.0000
 40
100.0000
  1
108
 50
0.0000
  7
SOLINE
 72
1
 73
2
 11
-460.0000
 21
-10857.5000
 31
0.0000
  0
LINE
  5
2FC
  8
חשמל-מידות
 10
120.0000
 20
-9600.0000
 30
0.0000
 11
407.5000
 21
-9600.0000
 31
0.0000
  0
LINE
  5
2FD
  8
חשמל-מידות
 10
120.0000
 20
-9490.0000
 30
0.0000
 11
407.5000
 21
-9490.0000
 31
0.0000
  0
LINE
  5
2FE
  8
חשמל-מידות
 10
347.5000
 20
-9600.0000
 30
0.0000
 11
347.5000
 21
-9490.0000
 31
0.0000
  0
SOLID
  5
2FF
  8
חשמל-מידות
 10
347.5000
 20
-9600.0000
 30
0.0000
 11
379.5000
 21
-9715.0000
 31
0.0000
 12
315.5000
 22
-9715.0000
 32
0.0000
 13
315.5000
 23
-9715.0000
 33
0.0000
  0
SOLID
  5
300
  8
חשמל-מידות
 10
347.5000
 20
-9490.0000
 30
0.0000
 11
379.5000
 21
-9375.0000
 31
0.0000
 12
315.5000
 22
-9375.0000
 32
0.0000
 13
315.5000
 23
-9375.0000
 33
0.0000
  0
TEXT
  5
301
  8
חשמל-מידות
 10
442.5000
 20
-9545.0000
 30
0.0000
 40
100.0000
  1
11
 50
90.0000
  7
SOLINE
 72
1
 73
2
 11
442.5000
 21
-9545.0000
 31
0.0000
  0
LINE
  5
302
  8
חשמל
 10
700.0000
 20
-9515.0000
 30
0.0000
 11
790.0000
 21
-9515.0000
 31
0.0000
  0
LINE
  5
303
  8
חשמל
 10
790.0000
 20
-9515.0000
 30
0.0000
 11
790.0000
 21
-9425.0000
 31
0.0000
  0
LINE
  5
304
  8
חשמל
 10
790.0000
 20
-9425.0000
 30
0.0000
 11
700.0000
 21
-9425.0000
 31
0.0000
  0
LINE
  5
305
  8
חשמל
 10
700.0000
 20
-9425.0000
 30
0.0000
 11
700.0000
 21
-9515.0000
 31
0.0000
  0
LINE
  5
306
  8
חשמל
 10
745.0000
 20
-9515.0000
 30
0.0000
 11
745.0000
 21
-9488.0000
 31
0.0000
  0
ARC
  5
307
  8
חשמל
 10
745.0000
 20
-9488.0000
 30
0.0000
 40
4.5000
 50
0.0000
 51
360.0000
  0
LINE
  5
308
  8
חשמל
 10
745.0000
 20
-9488.0000
 30
0.0000
 11
768.7461
 21
-9454.0871
 31
0.0000
  0
LINE
  5
309
  8
חשמל-מידות
 10
-1000.0000
 20
-9640.0000
 30
0.0000
 11
-1000.0000
 21
-11172.5000
 31
0.0000
  0
LINE
  5
30A
  8
חשמל-מידות
 10
745.0000
 20
-9640.0000
 30
0.0000
 11
745.0000
 21
-11172.5000
 31
0.0000
  0
LINE
  5
30B
  8
חשמל-מידות
 10
-1000.0000
 20
-11112.5000
 30
0.0000
 11
745.0000
 21
-11112.5000
 31
0.0000
  0
SOLID
  5
30C
  8
חשמל-מידות
 10
-1000.0000
 20
-11112.5000
 30
0.0000
 11
-1115.0000
 21
-11144.5000
 31
0.0000
 12
-1115.0000
 22
-11080.5000
 32
0.0000
 13
-1115.0000
 23
-11080.5000
 33
0.0000
  0
SOLID
  5
30D
  8
חשמל-מידות
 10
745.0000
 20
-11112.5000
 30
0.0000
 11
860.0000
 21
-11144.5000
 31
0.0000
 12
860.0000
 22
-11080.5000
 32
0.0000
 13
860.0000
 23
-11080.5000
 33
0.0000
  0
TEXT
  5
30E
  8
חשמל-מידות
 10
-127.5000
 20
-11207.5000
 30
0.0000
 40
100.0000
  1
174.5
 50
0.0000
  7
SOLINE
 72
1
 73
2
 11
-127.5000
 21
-11207.5000
 31
0.0000
  0
LINE
  5
30F
  8
חשמל-מידות
 10
705.0000
 20
-9600.0000
 30
0.0000
 11
452.5000
 21
-9600.0000
 31
0.0000
  0
LINE
  5
310
  8
חשמל-מידות
 10
705.0000
 20
-9470.0000
 30
0.0000
 11
452.5000
 21
-9470.0000
 31
0.0000
  0
LINE
  5
311
  8
חשמל-מידות
 10
512.5000
 20
-9600.0000
 30
0.0000
 11
512.5000
 21
-9470.0000
 31
0.0000
  0
SOLID
  5
312
  8
חשמל-מידות
 10
512.5000
 20
-9600.0000
 30
0.0000
 11
480.5000
 21
-9715.0000
 31
0.0000
 12
544.5000
 22
-9715.0000
 32
0.0000
 13
544.5000
 23
-9715.0000
 33
0.0000
  0
SOLID
  5
313
  8
חשמל-מידות
 10
512.5000
 20
-9470.0000
 30
0.0000
 11
480.5000
 21
-9355.0000
 31
0.0000
 12
544.5000
 22
-9355.0000
 32
0.0000
 13
544.5000
 23
-9355.0000
 33
0.0000
  0
TEXT
  5
314
  8
חשמל-מידות
 10
417.5000
 20
-9535.0000
 30
0.0000
 40
100.0000
  1
13
 50
90.0000
  7
SOLINE
 72
1
 73
2
 11
417.5000
 21
-9535.0000
 31
0.0000
  0
LINE
  5
315
  8
חשמל
 10
1400.0000
 20
-9480.0000
 30
0.0000
 11
1460.0000
 21
-9480.0000
 31
0.0000
  0
LINE
  5
316
  8
חשמל
 10
1460.0000
 20
-9480.0000
 30
0.0000
 11
1460.0000
 21
-9420.0000
 31
0.0000
  0
LINE
  5
317
  8
חשמל
 10
1460.0000
 20
-9420.0000
 30
0.0000
 11
1400.0000
 21
-9420.0000
 31
0.0000
  0
LINE
  5
318
  8
חשמל
 10
1400.0000
 20
-9420.0000
 30
0.0000
 11
1400.0000
 21
-9480.0000
 31
0.0000
  0
LINE
  5
319
  8
חשמל
 10
1430.0000
 20
-9480.0000
 30
0.0000
 11
1430.0000
 21
-9433.2000
 31
0.0000
  0
ARC
  5
31A
  8
חשמל
 10
1430.0000
 20
-9451.2000
 30
0.0000
 40
19.2000
 50
0.0000
 51
360.0000
  0
LINE
  5
31B
  8
חשמל
 10
1430.0000
 20
-9451.2000
 30
0.0000
 11
1416.8000
 21
-9438.0000
 31
0.0000
  0
LINE
  5
31C
  8
חשמל
 10
1430.0000
 20
-9451.2000
 30
0.0000
 11
1443.2000
 21
-9438.0000
 31
0.0000
  0
LINE
  5
31D
  8
חשמל
 10
1430.0000
 20
-9451.2000
 30
0.0000
 11
1416.8000
 21
-9464.4000
 31
0.0000
  0
LINE
  5
31E
  8
חשמל
 10
1430.0000
 20
-9451.2000
 30
0.0000
 11
1443.2000
 21
-9464.4000
 31
0.0000
  0
LINE
  5
31F
  8
חשמל-מידות
 10
3000.0000
 20
-9560.0000
 30
0.0000
 11
3000.0000
 21
-7677.5000
 31
0.0000
  0
LINE
  5
320
  8
חשמל-מידות
 10
1430.0000
 20
-9560.0000
 30
0.0000
 11
1430.0000
 21
-7677.5000
 31
0.0000
  0
LINE
  5
321
  8
חשמל-מידות
 10
3000.0000
 20
-7737.5000
 30
0.0000
 11
1430.0000
 21
-7737.5000
 31
0.0000
  0
SOLID
  5
322
  8
חשמל-מידות
 10
3000.0000
 20
-7737.5000
 30
0.0000
 11
3115.0000
 21
-7705.5000
 31
0.0000
 12
3115.0000
 22
-7769.5000
 32
0.0000
 13
3115.0000
 23
-7769.5000
 33
0.0000
  0
SOLID
  5
323
  8
חשמל-מידות
 10
1430.0000
 20
-7737.5000
 30
0.0000
 11
1315.0000
 21
-7705.5000
 31
0.0000
 12
1315.0000
 22
-7769.5000
 32
0.0000
 13
1315.0000
 23
-7769.5000
 33
0.0000
  0
TEXT
  5
324
  8
חשמל-מידות
 10
2215.0000
 20
-7642.5000
 30
0.0000
 40
100.0000
  1
157
 50
360.0000
  7
SOLINE
 72
1
 73
2
 11
2215.0000
 21
-7642.5000
 31
0.0000
  0
LINE
  5
325
  8
חשמל-מידות
 10
1470.0000
 20
-9600.0000
 30
0.0000
 11
1707.5000
 21
-9600.0000
 31
0.0000
  0
LINE
  5
326
  8
חשמל-מידות
 10
1470.0000
 20
-9450.0000
 30
0.0000
 11
1707.5000
 21
-9450.0000
 31
0.0000
  0
LINE
  5
327
  8
חשמל-מידות
 10
1647.5000
 20
-9600.0000
 30
0.0000
 11
1647.5000
 21
-9450.0000
 31
0.0000
  0
SOLID
  5
328
  8
חשמל-מידות
 10
1647.5000
 20
-9600.0000
 30
0.0000
 11
1679.5000
 21
-9715.0000
 31
0.0000
 12
1615.5000
 22
-9715.0000
 32
0.0000
 13
1615.5000
 23
-9715.0000
 33
0.0000
  0
SOLID
  5
329
  8
חשמל-מידות
 10
1647.5000
 20
-9450.0000
 30
0.0000
 11
1679.5000
 21
-9335.0000
 31
0.0000
 12
1615.5000
 22
-9335.0000
 32
0.0000
 13
1615.5000
 23
-9335.0000
 33
0.0000
  0
TEXT
  5
32A
  8
חשמל-מידות
 10
1742.5000
 20
-9525.0000
 30
0.0000
 40
100.0000
  1
15
 50
90.0000
  7
SOLINE
 72
1
 73
2
 11
1742.5000
 21
-9525.0000
 31
0.0000
  0
LINE
  5
32B
  8
חשמל
 10
2100.0000
 20
-9540.0000
 30
0.0000
 11
2160.0000
 21
-9540.0000
 31
0.0000
  0
LINE
  5
32C
  8
חשמל
 10
2160.0000
 20
-9540.0000
 30
0.0000
 11
2160.0000
 21
-9480.0000
 31
0.0000
  0
LINE
  5
32D
  8
חשמל
 10
2160.0000
 20
-9480.0000
 30
0.0000
 11
2100.0000
 21
-9480.0000
 31
0.0000
  0
LINE
  5
32E
  8
חשמל
 10
2100.0000
 20
-9480.0000
 30
0.0000
 11
2100.0000
 21
-9540.0000
 31
0.0000
  0
LINE
  5
32F
  8
חשמל
 10
2130.0000
 20
-9540.0000
 30
0.0000
 11
2130.0000
 21
-9493.2000
 31
0.0000
  0
ARC
  5
330
  8
חשמל
 10
2130.0000
 20
-9511.2000
 30
0.0000
 40
19.2000
 50
0.0000
 51
360.0000
  0
LINE
  5
331
  8
חשמל
 10
2130.0000
 20
-9511.2000
 30
0.0000
 11
2116.8000
 21
-9498.0000
 31
0.0000
  0
LINE
  5
332
  8
חשמל
 10
2130.0000
 20
-9511.2000
 30
0.0000
 11
2143.2000
 21
-9498.0000
 31
0.0000
  0
LINE
  5
333
  8
חשמל
 10
2130.0000
 20
-9511.2000
 30
0.0000
 11
2116.8000
 21
-9524.4000
 31
0.0000
  0
LINE
  5
334
  8
חשמל
 10
2130.0000
 20
-9511.2000
 30
0.0000
 11
2143.2000
 21
-9524.4000
 31
0.0000
  0
LINE
  5
335
  8
חשמל-מידות
 10
3000.0000
 20
-9560.0000
 30
0.0000
 11
3000.0000
 21
-7327.5000
 31
0.0000
  0
LINE
  5
336
  8
חשמל-מידות
 10
2130.0000
 20
-9560.0000
 30
0.0000
 11
2130.0000
 21
-7327.5000
 31
0.0000
  0
LINE
  5
337
  8
חשמל-מידות
 10
3000.0000
 20
-7387.5000
 30
0.0000
 11
2130.0000
 21
-7387.5000
 31
0.0000
  0
SOLID
  5
338
  8
חשמל-מידות
 10
3000.0000
 20
-7387.5000
 30
0.0000
 11
3115.0000
 21
-7355.5000
 31
0.0000
 12
3115.0000
 22
-7419.5000
 32
0.0000
 13
3115.0000
 23
-7419.5000
 33
0.0000
  0
SOLID
  5
339
  8
חשמל-מידות
 10
2130.0000
 20
-7387.5000
 30
0.0000
 11
2015.0000
 21
-7355.5000
 31
0.0000
 12
2015.0000
 22
-7419.5000
 32
0.0000
 13
2015.0000
 23
-7419.5000
 33
0.0000
  0
TEXT
  5
33A
  8
חשמל-מידות
 10
2565.0000
 20
-7292.5000
 30
0.0000
 40
100.0000
  1
87
 50
360.0000
  7
SOLINE
 72
1
 73
2
 11
2565.0000
 21
-7292.5000
 31
0.0000
  0
LINE
  5
33B
  8
חשמל-מידות
 10
2090.0000
 20
-9600.0000
 30
0.0000
 11
1852.5000
 21
-9600.0000
 31
0.0000
  0
LINE
  5
33C
  8
חשמל-מידות
 10
2090.0000
 20
-9510.0000
 30
0.0000
 11
1852.5000
 21
-9510.0000
 31
0.0000
  0
LINE
  5
33D
  8
חשמל-מידות
 10
1912.5000
 20
-9600.0000
 30
0.0000
 11
1912.5000
 21
-9510.0000
 31
0.0000
  0
SOLID
  5
33E
  8
חשמל-מידות
 10
1912.5000
 20
-9600.0000
 30
0.0000
 11
1880.5000
 21
-9715.0000
 31
0.0000
 12
1944.5000
 22
-9715.0000
 32
0.0000
 13
1944.5000
 23
-9715.0000
 33
0.0000
  0
SOLID
  5
33F
  8
חשמל-מידות
 10
1912.5000
 20
-9510.0000
 30
0.0000
 11
1880.5000
 21
-9395.0000
 31
0.0000
 12
1944.5000
 22
-9395.0000
 32
0.0000
 13
1944.5000
 23
-9395.0000
 33
0.0000
  0
TEXT
  5
340
  8
חשמל-מידות
 10
1817.5000
 20
-9555.0000
 30
0.0000
 40
100.0000
  1
9
 50
90.0000
  7
SOLINE
 72
1
 73
2
 11
1817.5000
 21
-9555.0000
 31
0.0000
  0
TEXT
  5
341
  8
קירות-טקסט
 10
1000.0000
 20
-10537.5000
 30
0.0000
 40
162.5000
  1
W1
 50
0.0000
  7
SOLINE
 72
1
 73
2
 11
1000.0000
 21
-10537.5000
 31
0.0000
  0
LINE
  5
342
  8
קירות
 10
5500.0000
 20
-9600.0000
 30
0.0000
 11
8500.0000
 21
-9600.0000
 31
0.0000
  0
LINE
  5
343
  8
קירות
 10
8500.0000
 20
-9600.0000
 30
0.0000
 11
8500.0000
 21
-7000.0000
 31
0.0000
  0
LINE
  5
344
  8
קירות
 10
8500.0000
 20
-7000.0000
 30
0.0000
 11
5500.0000
 21
-7000.0000
 31
0.0000
  0
LINE
  5
345
  8
קירות
 10
5500.0000
 20
-7000.0000
 30
0.0000
 11
5500.0000
 21
-9600.0000
 31
0.0000
  0
LINE
  5
346
  8
מידות-חוץ
 10
5500.0000
 20
-9650.0000
 30
0.0000
 11
5500.0000
 21
-10050.0000
 31
0.0000
  0
LINE
  5
347
  8
מידות-חוץ
 10
8500.0000
 20
-9650.0000
 30
0.0000
 11
8500.0000
 21
-10050.0000
 31
0.0000
  0
LINE
  5
348
  8
מידות-חוץ
 10
5500.0000
 20
-9975.0000
 30
0.0000
 11
8500.0000
 21
-9975.0000
 31
0.0000
  0
SOLID
  5
349
  8
מידות-חוץ
 10
5500.0000
 20
-9975.0000
 30
0.0000
 11
5356.2500
 21
-10015.0000
 31
0.0000
 12
5356.2500
 22
-9935.0000
 32
0.0000
 13
5356.2500
 23
-9935.0000
 33
0.0000
  0
SOLID
  5
34A
  8
מידות-חוץ
 10
8500.0000
 20
-9975.0000
 30
0.0000
 11
8643.7500
 21
-10015.0000
 31
0.0000
 12
8643.7500
 22
-9935.0000
 32
0.0000
 13
8643.7500
 23
-9935.0000
 33
0.0000
  0
TEXT
  5
34B
  8
מידות-חוץ
 10
7000.0000
 20
-10093.7500
 30
0.0000
 40
125.0000
  1
300
 50
0.0000
  7
SOLINE
 72
1
 73
2
 11
7000.0000
 21
-10093.7500
 31
0.0000
  0
LINE
  5
34C
  8
מידות-חוץ
 10
5450.0000
 20
-9600.0000
 30
0.0000
 11
5050.0000
 21
-9600.0000
 31
0.0000
  0
LINE
  5
34D
  8
מידות-חוץ
 10
5450.0000
 20
-7000.0000
 30
0.0000
 11
5050.0000
 21
-7000.0000
 31
0.0000
  0
LINE
  5
34E
  8
מידות-חוץ
 10
5125.0000
 20
-9600.0000
 30
0.0000
 11
5125.0000
 21
-7000.0000
 31
0.0000
  0
SOLID
  5
34F
  8
מידות-חוץ
 10
5125.0000
 20
-9600.0000
 30
0.0000
 11
5085.0000
 21
-9743.7500
 31
0.0000
 12
5165.0000
 22
-9743.7500
 32
0.0000
 13
5165.0000
 23
-9743.7500
 33
0.0000
  0
SOLID
  5
350
  8
מידות-חוץ
 10
5125.0000
 20
-7000.0000
 30
0.0000
 11
5085.0000
 21
-6856.2500
 31
0.0000
 12
5165.0000
 22
-6856.2500
 32
0.0000
 13
5165.0000
 23
-6856.2500
 33
0.0000
  0
TEXT
  5
351
  8
מידות-חוץ
 10
5006.2500
 20
-8300.0000
 30
0.0000
 40
125.0000
  1
260
 50
90.0000
  7
SOLINE
 72
1
 73
2
 11
5006.2500
 21
-8300.0000
 31
0.0000
  0
LINE
  5
352
  8
חשמל
 10
5800.0000
 20
-9480.0000
 30
0.0000
 11
5920.0000
 21
-9480.0000
 31
0.0000
  0
LINE
  5
353
  8
חשמל
 10
5920.0000
 20
-9480.0000
 30
0.0000
 11
5920.0000
 21
-9360.0000
 31
0.0000
  0
LINE
  5
354
  8
חשמל
 10
5920.0000
 20
-9360.0000
 30
0.0000
 11
5800.0000
 21
-9360.0000
 31
0.0000
  0
LINE
  5
355
  8
חשמל
 10
5800.0000
 20
-9360.0000
 30
0.0000
 11
5800.0000
 21
-9480.0000
 31
0.0000
  0
LINE
  5
356
  8
חשמל
 10
5860.0000
 20
-9480.0000
 30
0.0000
 11
5860.0000
 21
-9386.4000
 31
0.0000
  0
ARC
  5
357
  8
חשמל
 10
5860.0000
 20
-9422.4000
 30
0.0000
 40
38.4000
 50
0.0000
 51
360.0000
  0
LINE
  5
358
  8
חשמל
 10
5860.0000
 20
-9422.4000
 30
0.0000
 11
5833.6000
 21
-9396.0000
 31
0.0000
  0
LINE
  5
359
  8
חשמל
 10
5860.0000
 20
-9422.4000
 30
0.0000
 11
5886.4000
 21
-9396.0000
 31
0.0000
  0
LINE
  5
35A
  8
חשמל
 10
5860.0000
 20
-9422.4000
 30
0.0000
 11
5833.6000
 21
-9448.8000
 31
0.0000
  0
LINE
  5
35B
  8
חשמל
 10
5860.0000
 20
-9422.4000
 30
0.0000
 11
5886.4000
 21
-9448.8000
 31
0.0000
  0
LINE
  5
35C
  8
חשמל-מידות
 10
5500.0000
 20
-9640.0000
 30
0.0000
 11
5500.0000
 21
-10472.5000
 31
0.0000
  0
LINE
  5
35D
  8
חשמל-מידות
 10
5860.0000
 20
-9640.0000
 30
0.0000
 11
5860.0000
 21
-10472.5000
 31
0.0000
  0
LINE
  5
35E
  8
חשמל-מידות
 10
5500.0000
 20
-10412.5000
 30
0.0000
 11
5860.0000
 21
-10412.5000
 31
0.0000
  0
SOLID
  5
35F
  8
חשמל-מידות
 10
5500.0000
 20
-10412.5000
 30
0.0000
 11
5385.0000
 21
-10444.5000
 31
0.0000
 12
5385.0000
 22
-10380.5000
 32
0.0000
 13
5385.0000
 23
-10380.5000
 33
0.0000
  0
SOLID
  5
360
  8
חשמל-מידות
 10
5860.0000
 20
-10412.5000
 30
0.0000
 11
5975.0000
 21
-10444.5000
 31
0.0000
 12
5975.0000
 22
-10380.5000
 32
0.0000
 13
5975.0000
 23
-10380.5000
 33
0.0000
  0
TEXT
  5
361
  8
חשמל-מידות
 10
5680.0000
 20
-10507.5000
 30
0.0000
 40
100.0000
  1
36
 50
0.0000
  7
SOLINE
 72
1
 73
2
 11
5680.0000
 21
-10507.5000
 31
0.0000
  0
LINE
  5
362
  8
חשמל-מידות
 10
5900.0000
 20
-9600.0000
 30
0.0000
 11
6167.5000
 21
-9600.0000
 31
0.0000
  0
LINE
  5
363
  8
חשמל-מידות
 10
5900.0000
 20
-9420.0000
 30
0.0000
 11
6167.5000
 21
-9420.0000
 31
0.0000
  0
LINE
  5
364
  8
חשמל-מידות
 10
6107.5000
 20
-9600.0000
 30
0.0000
 11
6107.5000
 21
-9420.0000
 31
0.0000
  0
SOLID
  5
365
  8
חשמל-מידות
 10
6107.5000
 20
-9600.0000
 30
0.0000
 11
6139.5000
 21
-9715.0000
 31
0.0000
 12
6075.5000
 22
-9715.0000
 32
0.0000
 13
6075.5000
 23
-9715.0000
 33
0.0000
  0
SOLID
  5
366
  8
חשמל-מידות
 10
6107.5000
 20
-9420.0000
 30
0.0000
 11
6139.5000
 21
-9305.0000
 31
0.0000
 12
6075.5000
 22
-9305.0000
 32
0.0000
 13
6075.5000
 23
-9305.0000
 33
0.0000
  0
TEXT
  5
367
  8
חשמל-מידות
 10
6202.5000
 20
-9510.0000
 30
0.0000
 40
100.0000
  1
18
 50
90.0000
  7
SOLINE
 72
1
 73
2
 11
6202.5000
 21
-9510.0000
 31
0.0000
  0
LINE
  5
368
  8
תאורה
 10
6500.0000
 20
-7075.0000
 30
0.0000
 11
6650.0000
 21
-7075.0000
 31
0.0000
  0
LINE
  5
369
  8
תאורה
 10
6650.0000
 20
-7075.0000
 30
0.0000
 11
6650.0000
 21
-6925.0000
 31
0.0000
  0
LINE
  5
36A
  8
תאורה
 10
6650.0000
 20
-6925.0000
 30
0.0000
 11
6500.0000
 21
-6925.0000
 31
0.0000
  0
LINE
  5
36B
  8
תאורה
 10
6500.0000
 20
-6925.0000
 30
0.0000
 11
6500.0000
 21
-7075.0000
 31
0.0000
  0
ARC
  5
36C
  8
תאורה
 10
6575.0000
 20
-7000.0000
 30
0.0000
 40
45.0000
 50
0.0000
 51
360.0000
  0
LINE
  5
36D
  8
תאורה
 10
6543.5000
 20
-6968.5000
 30
0.0000
 11
6606.5000
 21
-7031.5000
 31
0.0000
  0
LINE
  5
36E
  8
תאורה
 10
6606.5000
 20
-6968.5000
 30
0.0000
 11
6543.5000
 21
-7031.5000
 31
0.0000
  0
LINE
  5
36F
  8
תאורה-מידות
 10
5500.0000
 20
-9640.0000
 30
0.0000
 11
5500.0000
 21
-10822.5000
 31
0.0000
  0
LINE
  5
370
  8
תאורה-מידות
 10
6575.0000
 20
-9640.0000
 30
0.0000
 11
6575.0000
 21
-10822.5000
 31
0.0000
  0
LINE
  5
371
  8
תאורה-מידות
 10
5500.0000
 20
-10762.5000
 30
0.0000
 11
6575.0000
 21
-10762.5000
 31
0.0000
  0
SOLID
  5
372
  8
תאורה-מידות
 10
5500.0000
 20
-10762.5000
 30
0.0000
 11
5385.0000
 21
-10794.5000
 31
0.0000
 12
5385.0000
 22
-10730.5000
 32
0.0000
 13
5385.0000
 23
-10730.5000
 33
0.0000
  0
SOLID
  5
373
  8
תאורה-מידות
 10
6575.0000
 20
-10762.5000
 30
0.0000
 11
6690.0000
 21
-10794.5000
 31
0.0000
 12
6690.0000
 22
-10730.5000
 32
0.0000
 13
6690.0000
 23
-10730.5000
 33
0.0000
  0
TEXT
  5
374
  8
תאורה-מידות
 10
6037.5000
 20
-10857.5000
 30
0.0000
 40
100.0000
  1
107.5
 50
0.0000
  7
SOLINE
 72
1
 73
2
 11
6037.5000
 21
-10857.5000
 31
0.0000
  0
LINE
  5
375
  8
תאורה-מידות
 10
6535.0000
 20
-9600.0000
 30
0.0000
 11
6252.5000
 21
-9600.0000
 31
0.0000
  0
LINE
  5
376
  8
תאורה-מידות
 10
6535.0000
 20
-7000.0000
 30
0.0000
 11
6252.5000
 21
-7000.0000
 31
0.0000
  0
LINE
  5
377
  8
תאורה-מידות
 10
6312.5000
 20
-9600.0000
 30
0.0000
 11
6312.5000
 21
-7000.0000
 31
0.0000
  0
SOLID
  5
378
  8
תאורה-מידות
 10
6312.5000
 20
-9600.0000
 30
0.0000
 11
6280.5000
 21
-9715.0000
 31
0.0000
 12
6344.5000
 22
-9715.0000
 32
0.0000
 13
6344.5000
 23
-9715.0000
 33
0.0000
  0
SOLID
  5
379
  8
תאורה-מידות
 10
6312.5000
 20
-7000.0000
 30
0.0000
 11
6280.5000
 21
-6885.0000
 31
0.0000
 12
6344.5000
 22
-6885.0000
 32
0.0000
 13
6344.5000
 23
-6885.0000
 33
0.0000
  0
TEXT
  5
37A
  8
תאורה-מידות
 10
6217.5000
 20
-8300.0000
 30
0.0000
 40
100.0000
  1
260
 50
90.0000
  7
SOLINE
 72
1
 73
2
 11
6217.5000
 21
-8300.0000
 31
0.0000
  0
LINE
  5
37B
  8
מים
 10
7200.0000
 20
-9580.0000
 30
0.0000
 11
7260.0000
 21
-9580.0000
 31
0.0000
  0
LINE
  5
37C
  8
מים
 10
7260.0000
 20
-9580.0000
 30
0.0000
 11
7260.0000
 21
-9520.0000
 31
0.0000
  0
LINE
  5
37D
  8
מים
 10
7260.0000
 20
-9520.0000
 30
0.0000
 11
7200.0000
 21
-9520.0000
 31
0.0000
  0
LINE
  5
37E
  8
מים
 10
7200.0000
 20
-9520.0000
 30
0.0000
 11
7200.0000
 21
-9580.0000
 31
0.0000
  0
LINE
  5
37F
  8
מים
 10
7230.0000
 20
-9580.0000
 30
0.0000
 11
7230.0000
 21
-9566.2000
 31
0.0000
  0
ARC
  5
380
  8
מים
 10
7230.0000
 20
-9550.0000
 30
0.0000
 40
16.8000
 50
0.0000
 51
360.0000
  0
LINE
  5
381
  8
מים
 10
7215.6000
 20
-9550.0000
 30
0.0000
 11
7244.4000
 21
-9550.0000
 31
0.0000
  0
LINE
  5
382
  8
מים
 10
7230.0000
 20
-9535.6000
 30
0.0000
 11
7230.0000
 21
-9564.4000
 31
0.0000
  0
LINE
  5
383
  8
מים-מידות
 10
8500.0000
 20
-9560.0000
 30
0.0000
 11
8500.0000
 21
-8027.5000
 31
0.0000
  0
LINE
  5
384
  8
מים-מידות
 10
7230.0000
 20
-9560.0000
 30
0.0000
 11
7230.0000
 21
-8027.5000
 31
0.0000
  0
LINE
  5
385
  8
מים-מידות
 10
8500.0000
 20
-8087.5000
 30
0.0000
 11
7230.0000
 21
-8087.5000
 31
0.0000
  0
SOLID
  5
386
  8
מים-מידות
 10
8500.0000
 20
-8087.5000
 30
0.0000
 11
8615.0000
 21
-8055.5000
 31
0.0000
 12
8615.0000
 22
-8119.5000
 32
0.0000
 13
8615.0000
 23
-8119.5000
 33
0.0000
  0
SOLID
  5
387
  8
מים-מידות
 10
7230.0000
 20
-8087.5000
 30
0.0000
 11
7115.0000
 21
-8055.5000
 31
0.0000
 12
7115.0000
 22
-8119.5000
 32
0.0000
 13
7115.0000
 23
-8119.5000
 33
0.0000
  0
TEXT
  5
388
  8
מים-מידות
 10
7865.0000
 20
-7992.5000
 30
0.0000
 40
100.0000
  1
127
 50
360.0000
  7
SOLINE
 72
1
 73
2
 11
7865.0000
 21
-7992.5000
 31
0.0000
  0
LINE
  5
389
  8
מים-מידות
 10
7270.0000
 20
-9600.0000
 30
0.0000
 11
7507.5000
 21
-9600.0000
 31
0.0000
  0
LINE
  5
38A
  8
מים-מידות
 10
7270.0000
 20
-9550.0000
 30
0.0000
 11
7507.5000
 21
-9550.0000
 31
0.0000
  0
LINE
  5
38B
  8
מים-מידות
 10
7447.5000
 20
-9600.0000
 30
0.0000
 11
7447.5000
 21
-9550.0000
 31
0.0000
  0
SOLID
  5
38C
  8
מים-מידות
 10
7447.5000
 20
-9600.0000
 30
0.0000
 11
7479.5000
 21
-9715.0000
 31
0.0000
 12
7415.5000
 22
-9715.0000
 32
0.0000
 13
7415.5000
 23
-9715.0000
 33
0.0000
  0
SOLID
  5
38D
  8
מים-מידות
 10
7447.5000
 20
-9550.0000
 30
0.0000
 11
7479.5000
 21
-9435.0000
 31
0.0000
 12
7415.5000
 22
-9435.0000
 32
0.0000
 13
7415.5000
 23
-9435.0000
 33
0.0000
  0
TEXT
  5
38E
  8
מים-מידות
 10
7542.5000
 20
-9575.0000
 30
0.0000
 40
100.0000
  1
5
 50
90.0000
  7
SOLINE
 72
1
 73
2
 11
7542.5000
 21
-9575.0000
 31
0.0000
  0
LINE
  5
38F
  8
גז
 10
7900.0000
 20
-9570.0000
 30
0.0000
 11
7960.0000
 21
-9570.0000
 31
0.0000
  0
LINE
  5
390
  8
גז
 10
7960.0000
 20
-9570.0000
 30
0.0000
 11
7960.0000
 21
-9510.0000
 31
0.0000
  0
LINE
  5
391
  8
גז
 10
7960.0000
 20
-9510.0000
 30
0.0000
 11
7900.0000
 21
-9510.0000
 31
0.0000
  0
LINE
  5
392
  8
גז
 10
7900.0000
 20
-9510.0000
 30
0.0000
 11
7900.0000
 21
-9570.0000
 31
0.0000
  0
LINE
  5
393
  8
גז
 10
7930.0000
 20
-9570.0000
 30
0.0000
 11
7930.0000
 21
-9558.0000
 31
0.0000
  0
LINE
  5
394
  8
גז
 10
7930.0000
 20
-9522.0000
 30
0.0000
 11
7945.6000
 21
-9531.0000
 31
0.0000
  0
LINE
  5
395
  8
גז
 10
7945.6000
 20
-9531.0000
 30
0.0000
 11
7945.6000
 21
-9549.0000
 31
0.0000
  0
LINE
  5
396
  8
גז
 10
7945.6000
 20
-9549.0000
 30
0.0000
 11
7930.0000
 21
-9558.0000
 31
0.0000
  0
LINE
  5
397
  8
גז
 10
7930.0000
 20
-9558.0000
 30
0.0000
 11
7914.4000
 21
-9549.0000
 31
0.0000
  0
LINE
  5
398
  8
גז
 10
7914.4000
 20
-9549.0000
 30
0.0000
 11
7914.4000
 21
-9531.0000
 31
0.0000
  0
LINE
  5
399
  8
גז
 10
7914.4000
 20
-9531.0000
 30
0.0000
 11
7930.0000
 21
-9522.0000
 31
0.0000
  0
TEXT
  5
39A
  8
גז
 10
7930.0000
 20
-9540.0000
 30
0.0000
 40
24.0000
  1
G
 50
0.0000
  7
SOLINE
 72
1
 73
2
 11
7930.0000
 21
-9540.0000
 31
0.0000
  0
LINE
  5
39B
  8
גז-מידות
 10
8500.0000
 20
-9560.0000
 30
0.0000
 11
8500.0000
 21
-7677.5000
 31
0.0000
  0
LINE
  5
39C
  8
גז-מידות
 10
7930.0000
 20
-9560.0000
 30
0.0000
 11
7930.0000
 21
-7677.5000
 31
0.0000
  0
LINE
  5
39D
  8
גז-מידות
 10
8500.0000
 20
-7737.5000
 30
0.0000
 11
7930.0000
 21
-7737.5000
 31
0.0000
  0
SOLID
  5
39E
  8
גז-מידות
 10
8500.0000
 20
-7737.5000
 30
0.0000
 11
8615.0000
 21
-7705.5000
 31
0.0000
 12
8615.0000
 22
-7769.5000
 32
0.0000
 13
8615.0000
 23
-7769.5000
 33
0.0000
  0
SOLID
  5
39F
  8
גז-מידות
 10
7930.0000
 20
-7737.5000
 30
0.0000
 11
7815.0000
 21
-7705.5000
 31
0.0000
 12
7815.0000
 22
-7769.5000
 32
0.0000
 13
7815.0000
 23
-7769.5000
 33
0.0000
  0
TEXT
  5
3A0
  8
גז-מידות
 10
8215.0000
 20
-7642.5000
 30
0.0000
 40
100.0000
  1
57
 50
360.0000
  7
SOLINE
 72
1
 73
2
 11
8215.0000
 21
-7642.5000
 31
0.0000
  0
LINE
  5
3A1
  8
גז-מידות
 10
7890.0000
 20
-9600.0000
 30
0.0000
 11
7652.5000
 21
-9600.0000
 31
0.0000
  0
LINE
  5
3A2
  8
גז-מידות
 10
7890.0000
 20
-9540.0000
 30
0.0000
 11
7652.5000
 21
-9540.0000
 31
0.0000
  0
LINE
  5
3A3
  8
גז-מידות
 10
7712.5000
 20
-9600.0000
 30
0.0000
 11
7712.5000
 21
-9540.0000
 31
0.0000
  0
SOLID
  5
3A4
  8
גז-מידות
 10
7712.5000
 20
-9600.0000
 30
0.0000
 11
7680.5000
 21
-9715.0000
 31
0.0000
 12
7744.5000
 22
-9715.0000
 32
0.0000
 13
7744.5000
 23
-9715.0000
 33
0.0000
  0
SOLID
  5
3A5
  8
גז-מידות
 10
7712.5000
 20
-9540.0000
 30
0.0000
 11
7680.5000
 21
-9425.0000
 31
0.0000
 12
7744.5000
 22
-9425.0000
 32
0.0000
 13
7744.5000
 23
-9425.0000
 33
0.0000
  0
TEXT
  5
3A6
  8
גז-מידות
 10
7617.5000
 20
-9570.0000
 30
0.0000
 40
100.0000
  1
6
 50
90.0000
  7
SOLINE
 72
1
 73
2
 11
7617.5000
 21
-9570.0000
 31
0.0000
  0
LINE
  5
3A7
  8
מים
 10
8475.0000
 20
-9585.0000
 30
0.0000
 11
8525.0000
 21
-9585.0000
 31
0.0000
  0
LINE
  5
3A8
  8
מים
 10
8525.0000
 20
-9585.0000
 30
0.0000
 11
8525.0000
 21
-9535.0000
 31
0.0000
  0
LINE
  5
3A9
  8
מים
 10
8525.0000
 20
-9535.0000
 30
0.0000
 11
8475.0000
 21
-9535.0000
 31
0.0000
  0
LINE
  5
3AA
  8
מים
 10
8475.0000
 20
-9535.0000
 30
0.0000
 11
8475.0000
 21
-9585.0000
 31
0.0000
  0
LINE
  5
3AB
  8
מים
 10
8500.0000
 20
-9585.0000
 30
0.0000
 11
8500.0000
 21
-9573.5000
 31
0.0000
  0
ARC
  5
3AC
  8
מים
 10
8500.0000
 20
-9560.0000
 30
0.0000
 40
14.0000
 50
0.0000
 51
360.0000
  0
LINE
  5
3AD
  8
מים
 10
8488.0000
 20
-9560.0000
 30
0.0000
 11
8512.0000
 21
-9560.0000
 31
0.0000
  0
LINE
  5
3AE
  8
מים
 10
8500.0000
 20
-9548.0000
 30
0.0000
 11
8500.0000
 21
-9572.0000
 31
0.0000
  0
LINE
  5
3AF
  8
מים-מידות
 10
8500.0000
 20
-9600.0000
 30
0.0000
 11
8500.0000
 21
-9600.0000
 31
0.0000
  0
LINE
  5
3B0
  8
מים-מידות
 10
8500.0000
 20
-9600.0000
 30
0.0000
 11
8500.0000
 21
-9600.0000
 31
0.0000
  0
LINE
  5
3B1
  8
מים-מידות
 10
8500.0000
 20
-9600.0000
 30
0.0000
 11
8500.0000
 21
-9600.0000
 31
0.0000
  0
SOLID
  5
3B2
  8
מים-מידות
 10
8500.0000
 20
-9600.0000
 30
0.0000
 11
8500.0000
 21
-9600.0000
 31
0.0000
 12
8500.0000
 22
-9600.0000
 32
0.0000
 13
8500.0000
 23
-9600.0000
 33
0.0000
  0
SOLID
  5
3B3
  8
מים-מידות
 10
8500.0000
 20
-9600.0000
 30
0.0000
 11
8500.0000
 21
-9600.0000
 31
0.0000
 12
8500.0000
 22
-9600.0000
 32
0.0000
 13
8500.0000
 23
-9600.0000
 33
0.0000
  0
TEXT
  5
3B4
  8
מים-מידות
 10
8500.0000
 20
-9600.0000
 30
0.0000
 40
100.0000
  1
0.1
 50
0.0000
  7
SOLINE
 72
1
 73
2
 11
8500.0000
 21
-9600.0000
 31
0.0000
  0
LINE
  5
3B5
  8
מים-מידות
 10
8540.0000
 20
-9600.0000
 30
0.0000
 11
8772.5000
 21
-9600.0000
 31
0.0000
  0
LINE
  5
3B6
  8
מים-מידות
 10
8540.0000
 20
-9560.0000
 30
0.0000
 11
8772.5000
 21
-9560.0000
 31
0.0000
  0
LINE
  5
3B7
  8
מים-מידות
 10
8712.5000
 20
-9600.0000
 30
0.0000
 11
8712.5000
 21
-9560.0000
 31
0.0000
  0
SOLID
  5
3B8
  8
מים-מידות
 10
8712.5000
 20
-9600.0000
 30
0.0000
 11
8744.5000
 21
-9715.0000
 31
0.0000
 12
8680.5000
 22
-9715.0000
 32
0.0000
 13
8680.5000
 23
-9715.0000
 33
0.0000
  0
SOLID
  5
3B9
  8
מים-מידות
 10
8712.5000
 20
-9560.0000
 30
0.0000
 11
8744.5000
 21
-9445.0000
 31
0.0000
 12
8680.5000
 22
-9445.0000
 32
0.0000
 13
8680.5000
 23
-9445.0000
 33
0.0000
  0
TEXT
  5
3BA
  8
מים-מידות
 10
8807.5000
 20
-9580.0000
 30
0.0000
 40
100.0000
  1
4
 50
90.0000
  7
SOLINE
 72
1
 73
2
 11
8807.5000
 21
-9580.0000
 31
0.0000
  0
TEXT
  5
3BB
  8
קירות-טקסט
 10
7000.0000
 20
-10537.5000
 30
0.0000
 40
162.5000
  1
W2
 50
0.0000
  7
SOLINE
 72
1
 73
2
 11
7000.0000
 21
-10537.5000
 31
0.0000
  0
LINE
  5
3BC
  8
קירות
 10
11000.0000
 20
-9600.0000
 30
0.0000
 11
15000.0000
 21
-9600.0000
 31
0.0000
  0
LINE
  5
3BD
  8
קירות
 10
15000.0000
 20
-9600.0000
 30
0.0000
 11
15000.0000
 21
-7000.0000
 31
0.0000
  0
LINE
  5
3BE
  8
קירות
 10
15000.0000
 20
-7000.0000
 30
0.0000
 11
11000.0000
 21
-7000.0000
 31
0.0000
  0
LINE
  5
3BF
  8
קירות
 10
11000.0000
 20
-7000.0000
 30
0.0000
 11
11000.0000
 21
-9600.0000
 31
0.0000
  0
LINE
  5
3C0
  8
מידות-חוץ
 10
11000.0000
 20
-9650.0000
 30
0.0000
 11
11000.0000
 21
-10050.0000
 31
0.0000
  0
LINE
  5
3C1
  8
מידות-חוץ
 10
15000.0000
 20
-9650.0000
 30
0.0000
 11
15000.0000
 21
-10050.0000
 31
0.0000
  0
LINE
  5
3C2
  8
מידות-חוץ
 10
11000.0000
 20
-9975.0000
 30
0.0000
 11
15000.0000
 21
-9975.0000
 31
0.0000
  0
SOLID
  5
3C3
  8
מידות-חוץ
 10
11000.0000
 20
-9975.0000
 30
0.0000
 11
10856.2500
 21
-10015.0000
 31
0.0000
 12
10856.2500
 22
-9935.0000
 32
0.0000
 13
10856.2500
 23
-9935.0000
 33
0.0000
  0
SOLID
  5
3C4
  8
מידות-חוץ
 10
15000.0000
 20
-9975.0000
 30
0.0000
 11
15143.7500
 21
-10015.0000
 31
0.0000
 12
15143.7500
 22
-9935.0000
 32
0.0000
 13
15143.7500
 23
-9935.0000
 33
0.0000
  0
TEXT
  5
3C5
  8
מידות-חוץ
 10
13000.0000
 20
-10093.7500
 30
0.0000
 40
125.0000
  1
400
 50
0.0000
  7
SOLINE
 72
1
 73
2
 11
13000.0000
 21
-10093.7500
 31
0.0000
  0
LINE
  5
3C6
  8
מידות-חוץ
 10
10950.0000
 20
-9600.0000
 30
0.0000
 11
10550.0000
 21
-9600.0000
 31
0.0000
  0
LINE
  5
3C7
  8
מידות-חוץ
 10
10950.0000
 20
-7000.0000
 30
0.0000
 11
10550.0000
 21
-7000.0000
 31
0.0000
  0
LINE
  5
3C8
  8
מידות-חוץ
 10
10625.0000
 20
-9600.0000
 30
0.0000
 11
10625.0000
 21
-7000.0000
 31
0.0000
  0
SOLID
  5
3C9
  8
מידות-חוץ
 10
10625.0000
 20
-9600.0000
 30
0.0000
 11
10585.0000
 21
-9743.7500
 31
0.0000
 12
10665.0000
 22
-9743.7500
 32
0.0000
 13
10665.0000
 23
-9743.7500
 33
0.0000
  0
SOLID
  5
3CA
  8
מידות-חוץ
 10
10625.0000
 20
-7000.0000
 30
0.0000
 11
10585.0000
 21
-6856.2500
 31
0.0000
 12
10665.0000
 22
-6856.2500
 32
0.0000
 13
10665.0000
 23
-6856.2500
 33
0.0000
  0
TEXT
  5
3CB
  8
מידות-חוץ
 10
10506.2500
 20
-8300.0000
 30
0.0000
 40
125.0000
  1
260
 50
90.0000
  7
SOLINE
 72
1
 73
2
 11
10506.2500
 21
-8300.0000
 31
0.0000
  0
LINE
  5
3CC
  8
ניקוז
 10
11300.0000
 20
-9600.0000
 30
0.0000
 11
11400.0000
 21
-9600.0000
 31
0.0000
  0
LINE
  5
3CD
  8
ניקוז
 10
11400.0000
 20
-9600.0000
 30
0.0000
 11
11400.0000
 21
-9500.0000
 31
0.0000
  0
LINE
  5
3CE
  8
ניקוז
 10
11400.0000
 20
-9500.0000
 30
0.0000
 11
11300.0000
 21
-9500.0000
 31
0.0000
  0
LINE
  5
3CF
  8
ניקוז
 10
11300.0000
 20
-9500.0000
 30
0.0000
 11
11300.0000
 21
-9600.0000
 31
0.0000
  0
LINE
  5
3D0
  8
ניקוז
 10
11350.0000
 20
-9600.0000
 30
0.0000
 11
11350.0000
 21
-9522.0000
 31
0.0000
  0
ARC
  5
3D1
  8
ניקוז
 10
11350.0000
 20
-9550.0000
 30
0.0000
 40
30.0000
 50
0.0000
 51
360.0000
  0
LINE
  5
3D2
  8
ניקוז
 10
11332.0000
 20
-9556.0000
 30
0.0000
 11
11342.0000
 21
-9544.0000
 31
0.0000
  0
LINE
  5
3D3
  8
ניקוז
 10
11342.0000
 20
-9544.0000
 30
0.0000
 11
11350.0000
 21
-9556.0000
 31
0.0000
  0
LINE
  5
3D4
  8
ניקוז
 10
11350.0000
 20
-9556.0000
 30
0.0000
 11
11358.0000
 21
-9544.0000
 31
0.0000
  0
LINE
  5
3D5
  8
ניקוז
 10
11358.0000
 20
-9544.0000
 30
0.0000
 11
11368.0000
 21
-9556.0000
 31
0.0000
  0
LINE
  5
3D6
  8
ניקוז-מידות
 10
11000.0000
 20
-9640.0000
 30
0.0000
 11
11000.0000
 21
-10472.5000
 31
0.0000
  0
LINE
  5
3D7
  8
ניקוז-מידות
 10
11350.0000
 20
-9640.0000
 30
0.0000
 11
11350.0000
 21
-10472.5000
 31
0.0000
  0
LINE
  5
3D8
  8
ניקוז-מידות
 10
11000.0000
 20
-10412.5000
 30
0.0000
 11
11350.0000
 21
-10412.5000
 31
0.0000
  0
SOLID
  5
3D9
  8
ניקוז-מידות
 10
11000.0000
 20
-10412.5000
 30
0.0000
 11
10885.0000
 21
-10444.5000
 31
0.0000
 12
10885.0000
 22
-10380.5000
 32
0.0000
 13
10885.0000
 23
-10380.5000
 33
0.0000
  0
SOLID
  5
3DA
  8
ניקוז-מידות
 10
11350.0000
 20
-10412.5000
 30
0.0000
 11
11465.0000
 21
-10444.5000
 31
0.0000
 12
11465.0000
 22
-10380.5000
 32
0.0000
 13
11465.0000
 23
-10380.5000
 33
0.0000
  0
TEXT
  5
3DB
  8
ניקוז-מידות
 10
11175.0000
 20
-10507.5000
 30
0.0000
 40
100.0000
  1
35
 50
0.0000
  7
SOLINE
 72
1
 73
2
 11
11175.0000
 21
-10507.5000
 31
0.0000
  0
LINE
  5
3DC
  8
ניקוז-מידות
 10
11350.0000
 20
-9600.0000
 30
0.0000
 11
11350.0000
 21
-9600.0000
 31
0.0000
  0
LINE
  5
3DD
  8
ניקוז-מידות
 10
11350.0000
 20
-9600.0000
 30
0.0000
 11
11350.0000
 21
-9600.0000
 31
0.0000
  0
LINE
  5
3DE
  8
ניקוז-מידות
 10
11350.0000
 20
-9600.0000
 30
0.0000
 11
11350.0000
 21
-9600.0000
 31
0.0000
  0
SOLID
  5
3DF
  8
ניקוז-מידות
 10
11350.0000
 20
-9600.0000
 30
0.0000
 11
11350.0000
 21
-9600.0000
 31
0.0000
 12
11350.0000
 22
-9600.0000
 32
0.0000
 13
11350.0000
 23
-9600.0000
 33
0.0000
  0
SOLID
  5
3E0
  8
ניקוז-מידות
 10
11350.0000
 20
-9600.0000
 30
0.0000
 11
11350.0000
 21
-9600.0000
 31
0.0000
 12
11350.0000
 22
-9600.0000
 32
0.0000
 13
11350.0000
 23
-9600.0000
 33
0.0000
  0
TEXT
  5
3E1
  8
ניקוז-מידות
 10
11350.0000
 20
-9600.0000
 30
0.0000
 40
100.0000
  1
0.1
 50
0.0000
  7
SOLINE
 72
1
 73
2
 11
11350.0000
 21
-9600.0000
 31
0.0000
  0
LINE
  5
3E2
  8
מבנה
 10
14000.0000
 20
-9600.0000
 30
0.0000
 11
14200.0000
 21
-9600.0000
 31
0.0000
  0
LINE
  5
3E3
  8
מבנה
 10
14200.0000
 20
-9600.0000
 30
0.0000
 11
14200.0000
 21
-7000.0000
 31
0.0000
  0
LINE
  5
3E4
  8
מבנה
 10
14200.0000
 20
-7000.0000
 30
0.0000
 11
14000.0000
 21
-7000.0000
 31
0.0000
  0
LINE
  5
3E5
  8
מבנה
 10
14000.0000
 20
-7000.0000
 30
0.0000
 11
14000.0000
 21
-9600.0000
 31
0.0000
  0
LINE
  5
3E6
  8
מבנה
 10
14000.0000
 20
-7988.0000
 30
0.0000
 11
14200.0000
 21
-7988.0000
 31
0.0000
  0
LINE
  5
3E7
  8
מבנה
 10
14200.0000
 20
-7988.0000
 30
0.0000
 11
14200.0000
 21
-8612.0000
 31
0.0000
  0
LINE
  5
3E8
  8
מבנה
 10
14200.0000
 20
-8612.0000
 30
0.0000
 11
14000.0000
 21
-8612.0000
 31
0.0000
  0
LINE
  5
3E9
  8
מבנה
 10
14000.0000
 20
-8612.0000
 30
0.0000
 11
14000.0000
 21
-7988.0000
 31
0.0000
  0
LINE
  5
3EA
  8
מבנה-מידות
 10
15000.0000
 20
-9560.0000
 30
0.0000
 11
15000.0000
 21
-8377.5000
 31
0.0000
  0
LINE
  5
3EB
  8
מבנה-מידות
 10
14200.0000
 20
-9560.0000
 30
0.0000
 11
14200.0000
 21
-8377.5000
 31
0.0000
  0
LINE
  5
3EC
  8
מבנה-מידות
 10
15000.0000
 20
-8437.5000
 30
0.0000
 11
14200.0000
 21
-8437.5000
 31
0.0000
  0
SOLID
  5
3ED
  8
מבנה-מידות
 10
15000.0000
 20
-8437.5000
 30
0.0000
 11
15115.0000
 21
-8405.5000
 31
0.0000
 12
15115.0000
 22
-8469.5000
 32
0.0000
 13
15115.0000
 23
-8469.5000
 33
0.0000
  0
SOLID
  5
3EE
  8
מבנה-מידות
 10
14200.0000
 20
-8437.5000
 30
0.0000
 11
14085.0000
 21
-8405.5000
 31
0.0000
 12
14085.0000
 22
-8469.5000
 32
0.0000
 13
14085.0000
 23
-8469.5000
 33
0.0000
  0
TEXT
  5
3EF
  8
מבנה-מידות
 10
14600.0000
 20
-8342.5000
 30
0.0000
 40
100.0000
  1
80
 50
360.0000
  7
SOLINE
 72
1
 73
2
 11
14600.0000
 21
-8342.5000
 31
0.0000
  0
LINE
  5
3F0
  8
מבנה-מידות
 10
14000.0000
 20
-6960.0000
 30
0.0000
 11
14000.0000
 21
-6716.5000
 31
0.0000
  0
LINE
  5
3F1
  8
מבנה-מידות
 10
14200.0000
 20
-6960.0000
 30
0.0000
 11
14200.0000
 21
-6716.5000
 31
0.0000
  0
LINE
  5
3F2
  8
מבנה-מידות
 10
14000.0000
 20
-6775.0000
 30
0.0000
 11
14200.0000
 21
-6775.0000
 31
0.0000
  0
SOLID
  5
3F3
  8
מבנה-מידות
 10
14000.0000
 20
-6775.0000
 30
0.0000
 11
13887.8750
 21
-6743.8000
 31
0.0000
 12
13887.8750
 22
-6806.2000
 32
0.0000
 13
13887.8750
 23
-6806.2000
 33
0.0000
  0
SOLID
  5
3F4
  8
מבנה-מידות
 10
14200.0000
 20
-6775.0000
 30
0.0000
 11
14312.1250
 21
-6743.8000
 31
0.0000
 12
14312.1250
 22
-6806.2000
 32
0.0000
 13
14312.1250
 23
-6806.2000
 33
0.0000
  0
TEXT
  5
3F5
  8
מבנה-מידות
 10
14100.0000
 20
-6682.3750
 30
0.0000
 40
97.5000
  1
20
 50
0.0000
  7
SOLINE
 72
1
 73
2
 11
14100.0000
 21
-6682.3750
 31
0.0000
  0
LINE
  5
3F6
  8
מבנה-מידות
 10
13960.0000
 20
-9600.0000
 30
0.0000
 11
13416.5000
 21
-9600.0000
 31
0.0000
  0
LINE
  5
3F7
  8
מבנה-מידות
 10
13960.0000
 20
-7000.0000
 30
0.0000
 11
13416.5000
 21
-7000.0000
 31
0.0000
  0
LINE
  5
3F8
  8
מבנה-מידות
 10
13475.0000
 20
-9600.0000
 30
0.0000
 11
13475.0000
 21
-7000.0000
 31
0.0000
  0
SOLID
  5
3F9
  8
מבנה-מידות
 10
13475.0000
 20
-9600.0000
 30
0.0000
 11
13443.8000
 21
-9712.1250
 31
0.0000
 12
13506.2000
 22
-9712.1250
 32
0.0000
 13
13506.2000
 23
-9712.1250
 33
0.0000
  0
SOLID
  5
3FA
  8
מבנה-מידות
 10
13475.0000
 20
-7000.0000
 30
0.0000
 11
13443.8000
 21
-6887.8750
 31
0.0000
 12
13506.2000
 22
-6887.8750
 32
0.0000
 13
13506.2000
 23
-6887.8750
 33
0.0000
  0
TEXT
  5
3FB
  8
מבנה-מידות
 10
13382.3750
 20
-8300.0000
 30
0.0000
 40
97.5000
  1
260
 50
90.0000
  7
SOLINE
 72
1
 73
2
 11
13382.3750
 21
-8300.0000
 31
0.0000
  0
LINE
  5
3FC
  8
חלונות
 10
11500.0000
 20
-8700.0000
 30
0.0000
 11
12500.0000
 21
-8700.0000
 31
0.0000
  0
LINE
  5
3FD
  8
חלונות
 10
12500.0000
 20
-8700.0000
 30
0.0000
 11
12500.0000
 21
-7500.0000
 31
0.0000
  0
LINE
  5
3FE
  8
חלונות
 10
12500.0000
 20
-7500.0000
 30
0.0000
 11
11500.0000
 21
-7500.0000
 31
0.0000
  0
LINE
  5
3FF
  8
חלונות
 10
11500.0000
 20
-7500.0000
 30
0.0000
 11
11500.0000
 21
-8700.0000
 31
0.0000
  0
LINE
  5
400
  8
חלונות
 10
11500.0000
 20
-7932.0000
 30
0.0000
 11
12500.0000
 21
-7932.0000
 31
0.0000
  0
LINE
  5
401
  8
חלונות
 10
12500.0000
 20
-7932.0000
 30
0.0000
 11
12500.0000
 21
-8268.0000
 31
0.0000
  0
LINE
  5
402
  8
חלונות
 10
12500.0000
 20
-8268.0000
 30
0.0000
 11
11500.0000
 21
-8268.0000
 31
0.0000
  0
LINE
  5
403
  8
חלונות
 10
11500.0000
 20
-8268.0000
 30
0.0000
 11
11500.0000
 21
-7932.0000
 31
0.0000
  0
LINE
  5
404
  8
חלונות
 10
11500.0000
 20
-8046.2400
 30
0.0000
 11
12500.0000
 21
-8046.2400
 31
0.0000
  0
LINE
  5
405
  8
חלונות
 10
11500.0000
 20
-8153.7600
 30
0.0000
 11
12500.0000
 21
-8153.7600
 31
0.0000
  0
LINE
  5
406
  8
חלונות-מידות
 10
11000.0000
 20
-9640.0000
 30
0.0000
 11
11000.0000
 21
-11172.5000
 31
0.0000
  0
LINE
  5
407
  8
חלונות-מידות
 10
11500.0000
 20
-9640.0000
 30
0.0000
 11
11500.0000
 21
-11172.5000
 31
0.0000
  0
LINE
  5
408
  8
חלונות-מידות
 10
11000.0000
 20
-11112.5000
 30
0.0000
 11
11500.0000
 21
-11112.5000
 31
0.0000
  0
SOLID
  5
409
  8
חלונות-מידות
 10
11000.0000
 20
-11112.5000
 30
0.0000
 11
10885.0000
 21
-11144.5000
 31
0.0000
 12
10885.0000
 22
-11080.5000
 32
0.0000
 13
10885.0000
 23
-11080.5000
 33
0.0000
  0
SOLID
  5
40A
  8
חלונות-מידות
 10
11500.0000
 20
-11112.5000
 30
0.0000
 11
11615.0000
 21
-11144.5000
 31
0.0000
 12
11615.0000
 22
-11080.5000
 32
0.0000
 13
11615.0000
 23
-11080.5000
 33
0.0000
  0
TEXT
  5
40B
  8
חלונות-מידות
 10
11250.0000
 20
-11207.5000
 30
0.0000
 40
100.0000
  1
50
 50
0.0000
  7
SOLINE
 72
1
 73
2
 11
11250.0000
 21
-11207.5000
 31
0.0000
  0
LINE
  5
40C
  8
חלונות-מידות
 10
11500.0000
 20
-7460.0000
 30
0.0000
 11
11500.0000
 21
-7216.5000
 31
0.0000
  0
LINE
  5
40D
  8
חלונות-מידות
 10
12500.0000
 20
-7460.0000
 30
0.0000
 11
12500.0000
 21
-7216.5000
 31
0.0000
  0
LINE
  5
40E
  8
חלונות-מידות
 10
11500.0000
 20
-7275.0000
 30
0.0000
 11
12500.0000
 21
-7275.0000
 31
0.0000
  0
SOLID
  5
40F
  8
חלונות-מידות
 10
11500.0000
 20
-7275.0000
 30
0.0000
 11
11387.8750
 21
-7243.8000
 31
0.0000
 12
11387.8750
 22
-7306.2000
 32
0.0000
 13
11387.8750
 23
-7306.2000
 33
0.0000
  0
SOLID
  5
410
  8
חלונות-מידות
 10
12500.0000
 20
-7275.0000
 30
0.0000
 11
12612.1250
 21
-7243.8000
 31
0.0000
 12
12612.1250
 22
-7306.2000
 32
0.0000
 13
12612.1250
 23
-7306.2000
 33
0.0000
  0
TEXT
  5
411
  8
חלונות-מידות
 10
12000.0000
 20
-7182.3750
 30
0.0000
 40
97.5000
  1
100
 50
0.0000
  7
SOLINE
 72
1
 73
2
 11
12000.0000
 21
-7182.3750
 31
0.0000
  0
LINE
  5
412
  8
חלונות-מידות
 10
11460.0000
 20
-9600.0000
 30
0.0000
 11
11254.0000
 21
-9600.0000
 31
0.0000
  0
LINE
  5
413
  8
חלונות-מידות
 10
11460.0000
 20
-8700.0000
 30
0.0000
 11
11254.0000
 21
-8700.0000
 31
0.0000
  0
LINE
  5
414
  8
חלונות-מידות
 10
11312.5000
 20
-9600.0000
 30
0.0000
 11
11312.5000
 21
-8700.0000
 31
0.0000
  0
SOLID
  5
415
  8
חלונות-מידות
 10
11312.5000
 20
-9600.0000
 30
0.0000
 11
11281.3000
 21
-9712.1250
 31
0.0000
 12
11343.7000
 22
-9712.1250
 32
0.0000
 13
11343.7000
 23
-9712.1250
 33
0.0000
  0
SOLID
  5
416
  8
חלונות-מידות
 10
11312.5000
 20
-8700.0000
 30
0.0000
 11
11281.3000
 21
-8587.8750
 31
0.0000
 12
11343.7000
 22
-8587.8750
 32
0.0000
 13
11343.7000
 23
-8587.8750
 33
0.0000
  0
TEXT
  5
417
  8
חלונות-מידות
 10
11219.8750
 20
-9150.0000
 30
0.0000
 40
97.5000
  1
90
 50
90.0000
  7
SOLINE
 72
1
 73
2
 11
11219.8750
 21
-9150.0000
 31
0.0000
  0
LINE
  5
418
  8
חלונות-מידות
 10
11460.0000
 20
-8700.0000
 30
0.0000
 11
10916.5000
 21
-8700.0000
 31
0.0000
  0
LINE
  5
419
  8
חלונות-מידות
 10
11460.0000
 20
-7500.0000
 30
0.0000
 11
10916.5000
 21
-7500.0000
 31
0.0000
  0
LINE
  5
41A
  8
חלונות-מידות
 10
10975.0000
 20
-8700.0000
 30
0.0000
 11
10975.0000
 21
-7500.0000
 31
0.0000
  0
SOLID
  5
41B
  8
חלונות-מידות
 10
10975.0000
 20
-8700.0000
 30
0.0000
 11
10943.8000
 21
-8812.1250
 31
0.0000
 12
11006.2000
 22
-8812.1250
 32
0.0000
 13
11006.2000
 23
-8812.1250
 33
0.0000
  0
SOLID
  5
41C
  8
חלונות-מידות
 10
10975.0000
 20
-7500.0000
 30
0.0000
 11
10943.8000
 21
-7387.8750
 31
0.0000
 12
11006.2000
 22
-7387.8750
 32
0.0000
 13
11006.2000
 23
-7387.8750
 33
0.0000
  0
TEXT
  5
41D
  8
חלונות-מידות
 10
10882.3750
 20
-8100.0000
 30
0.0000
 40
97.5000
  1
120
 50
90.0000
  7
SOLINE
 72
1
 73
2
 11
10882.3750
 21
-8100.0000
 31
0.0000
  0
LINE
  5
41E
  8
חלונות-מידות
 10
12540.0000
 20
-9600.0000
 30
0.0000
 11
12746.0000
 21
-9600.0000
 31
0.0000
  0
LINE
  5
41F
  8
חלונות-מידות
 10
12540.0000
 20
-7500.0000
 30
0.0000
 11
12746.0000
 21
-7500.0000
 31
0.0000
  0
LINE
  5
420
  8
חלונות-מידות
 10
12687.5000
 20
-9600.0000
 30
0.0000
 11
12687.5000
 21
-7500.0000
 31
0.0000
  0
SOLID
  5
421
  8
חלונות-מידות
 10
12687.5000
 20
-9600.0000
 30
0.0000
 11
12718.7000
 21
-9712.1250
 31
0.0000
 12
12656.3000
 22
-9712.1250
 32
0.0000
 13
12656.3000
 23
-9712.1250
 33
0.0000
  0
SOLID
  5
422
  8
חלונות-מידות
 10
12687.5000
 20
-7500.0000
 30
0.0000
 11
12718.7000
 21
-7387.8750
 31
0.0000
 12
12656.3000
 22
-7387.8750
 32
0.0000
 13
12656.3000
 23
-7387.8750
 33
0.0000
  0
TEXT
  5
423
  8
חלונות-מידות
 10
12780.1250
 20
-8550.0000
 30
0.0000
 40
97.5000
  1
210
 50
90.0000
  7
SOLINE
 72
1
 73
2
 11
12780.1250
 21
-8550.0000
 31
0.0000
  0
LINE
  5
424
  8
חלונות-מידות
 10
12540.0000
 20
-7500.0000
 30
0.0000
 11
13083.5000
 21
-7500.0000
 31
0.0000
  0
LINE
  5
425
  8
חלונות-מידות
 10
12540.0000
 20
-7000.0000
 30
0.0000
 11
13083.5000
 21
-7000.0000
 31
0.0000
  0
LINE
  5
426
  8
חלונות-מידות
 10
13025.0000
 20
-7500.0000
 30
0.0000
 11
13025.0000
 21
-7000.0000
 31
0.0000
  0
SOLID
  5
427
  8
חלונות-מידות
 10
13025.0000
 20
-7500.0000
 30
0.0000
 11
13056.2000
 21
-7612.1250
 31
0.0000
 12
12993.8000
 22
-7612.1250
 32
0.0000
 13
12993.8000
 23
-7612.1250
 33
0.0000
  0
SOLID
  5
428
  8
חלונות-מידות
 10
13025.0000
 20
-7000.0000
 30
0.0000
 11
13056.2000
 21
-6887.8750
 31
0.0000
 12
12993.8000
 22
-6887.8750
 32
0.0000
 13
12993.8000
 23
-6887.8750
 33
0.0000
  0
TEXT
  5
429
  8
חלונות-מידות
 10
13117.6250
 20
-7250.0000
 30
0.0000
 40
97.5000
  1
50
 50
90.0000
  7
SOLINE
 72
1
 73
2
 11
13117.6250
 21
-7250.0000
 31
0.0000
  0
LINE
  5
42A
  8
דלתות
 10
12250.0000
 20
-9600.0000
 30
0.0000
 11
13150.0000
 21
-9600.0000
 31
0.0000
  0
LINE
  5
42B
  8
דלתות
 10
13150.0000
 20
-9600.0000
 30
0.0000
 11
13150.0000
 21
-7550.0000
 31
0.0000
  0
LINE
  5
42C
  8
דלתות
 10
13150.0000
 20
-7550.0000
 30
0.0000
 11
12250.0000
 21
-7550.0000
 31
0.0000
  0
LINE
  5
42D
  8
דלתות
 10
12250.0000
 20
-7550.0000
 30
0.0000
 11
12250.0000
 21
-9600.0000
 31
0.0000
  0
LINE
  5
42E
  8
דלתות
 10
12286.0000
 20
-9600.0000
 30
0.0000
 11
12286.0000
 21
-8985.0000
 31
0.0000
  0
LINE
  5
42F
  8
דלתות
 10
13114.0000
 20
-9600.0000
 30
0.0000
 11
13114.0000
 21
-8985.0000
 31
0.0000
  0
LINE
  5
430
  8
דלתות-מידות
 10
11000.0000
 20
-9640.0000
 30
0.0000
 11
11000.0000
 21
-11522.5000
 31
0.0000
  0
LINE
  5
431
  8
דלתות-מידות
 10
12250.0000
 20
-9640.0000
 30
0.0000
 11
12250.0000
 21
-11522.5000
 31
0.0000
  0
LINE
  5
432
  8
דלתות-מידות
 10
11000.0000
 20
-11462.5000
 30
0.0000
 11
12250.0000
 21
-11462.5000
 31
0.0000
  0
SOLID
  5
433
  8
דלתות-מידות
 10
11000.0000
 20
-11462.5000
 30
0.0000
 11
10885.0000
 21
-11494.5000
 31
0.0000
 12
10885.0000
 22
-11430.5000
 32
0.0000
 13
10885.0000
 23
-11430.5000
 33
0.0000
  0
SOLID
  5
434
  8
דלתות-מידות
 10
12250.0000
 20
-11462.5000
 30
0.0000
 11
12365.0000
 21
-11494.5000
 31
0.0000
 12
12365.0000
 22
-11430.5000
 32
0.0000
 13
12365.0000
 23
-11430.5000
 33
0.0000
  0
TEXT
  5
435
  8
דלתות-מידות
 10
11625.0000
 20
-11557.5000
 30
0.0000
 40
100.0000
  1
125
 50
0.0000
  7
SOLINE
 72
1
 73
2
 11
11625.0000
 21
-11557.5000
 31
0.0000
  0
LINE
  5
436
  8
דלתות-מידות
 10
12250.0000
 20
-7510.0000
 30
0.0000
 11
12250.0000
 21
-7266.5000
 31
0.0000
  0
LINE
  5
437
  8
דלתות-מידות
 10
13150.0000
 20
-7510.0000
 30
0.0000
 11
13150.0000
 21
-7266.5000
 31
0.0000
  0
LINE
  5
438
  8
דלתות-מידות
 10
12250.0000
 20
-7325.0000
 30
0.0000
 11
13150.0000
 21
-7325.0000
 31
0.0000
  0
SOLID
  5
439
  8
דלתות-מידות
 10
12250.0000
 20
-7325.0000
 30
0.0000
 11
12137.8750
 21
-7293.8000
 31
0.0000
 12
12137.8750
 22
-7356.2000
 32
0.0000
 13
12137.8750
 23
-7356.2000
 33
0.0000
  0
SOLID
  5
43A
  8
דלתות-מידות
 10
13150.0000
 20
-7325.0000
 30
0.0000
 11
13262.1250
 21
-7293.8000
 31
0.0000
 12
13262.1250
 22
-7356.2000
 32
0.0000
 13
13262.1250
 23
-7356.2000
 33
0.0000
  0
TEXT
  5
43B
  8
דלתות-מידות
 10
12700.0000
 20
-7232.3750
 30
0.0000
 40
97.5000
  1
90
 50
0.0000
  7
SOLINE
 72
1
 73
2
 11
12700.0000
 21
-7232.3750
 31
0.0000
  0
LINE
  5
43C
  8
דלתות-מידות
 10
12210.0000
 20
-9600.0000
 30
0.0000
 11
11666.5000
 21
-9600.0000
 31
0.0000
  0
LINE
  5
43D
  8
דלתות-מידות
 10
12210.0000
 20
-7550.0000
 30
0.0000
 11
11666.5000
 21
-7550.0000
 31
0.0000
  0
LINE
  5
43E
  8
דלתות-מידות
 10
11725.0000
 20
-9600.0000
 30
0.0000
 11
11725.0000
 21
-7550.0000
 31
0.0000
  0
SOLID
  5
43F
  8
דלתות-מידות
 10
11725.0000
 20
-9600.0000
 30
0.0000
 11
11693.8000
 21
-9712.1250
 31
0.0000
 12
11756.2000
 22
-9712.1250
 32
0.0000
 13
11756.2000
 23
-9712.1250
 33
0.0000
  0
SOLID
  5
440
  8
דלתות-מידות
 10
11725.0000
 20
-7550.0000
 30
0.0000
 11
11693.8000
 21
-7437.8750
 31
0.0000
 12
11756.2000
 22
-7437.8750
 32
0.0000
 13
11756.2000
 23
-7437.8750
 33
0.0000
  0
TEXT
  5
441
  8
דלתות-מידות
 10
11632.3750
 20
-8575.0000
 30
0.0000
 40
97.5000
  1
205
 50
90.0000
  7
SOLINE
 72
1
 73
2
 11
11632.3750
 21
-8575.0000
 31
0.0000
  0
LINE
  5
442
  8
דלתות
 10
12950.0000
 20
-9600.0000
 30
0.0000
 11
13850.0000
 21
-9600.0000
 31
0.0000
  0
LINE
  5
443
  8
דלתות
 10
13850.0000
 20
-9600.0000
 30
0.0000
 11
13850.0000
 21
-7500.0000
 31
0.0000
  0
LINE
  5
444
  8
דלתות
 10
13850.0000
 20
-7500.0000
 30
0.0000
 11
12950.0000
 21
-7500.0000
 31
0.0000
  0
LINE
  5
445
  8
דלתות
 10
12950.0000
 20
-7500.0000
 30
0.0000
 11
12950.0000
 21
-9600.0000
 31
0.0000
  0
LINE
  5
446
  8
דלתות
 10
12977.0000
 20
-9600.0000
 30
0.0000
 11
12977.0000
 21
-9306.0000
 31
0.0000
  0
LINE
  5
447
  8
דלתות
 10
13823.0000
 20
-9600.0000
 30
0.0000
 11
13823.0000
 21
-9306.0000
 31
0.0000
  0
LINE
  5
448
  8
דלתות
 10
12977.0000
 20
-9306.0000
 30
0.0000
 11
13823.0000
 21
-9306.0000
 31
0.0000
  0
LINE
  5
449
  8
דלתות-מידות
 10
15000.0000
 20
-9560.0000
 30
0.0000
 11
15000.0000
 21
-7327.5000
 31
0.0000
  0
LINE
  5
44A
  8
דלתות-מידות
 10
13850.0000
 20
-9560.0000
 30
0.0000
 11
13850.0000
 21
-7327.5000
 31
0.0000
  0
LINE
  5
44B
  8
דלתות-מידות
 10
15000.0000
 20
-7387.5000
 30
0.0000
 11
13850.0000
 21
-7387.5000
 31
0.0000
  0
SOLID
  5
44C
  8
דלתות-מידות
 10
15000.0000
 20
-7387.5000
 30
0.0000
 11
15115.0000
 21
-7355.5000
 31
0.0000
 12
15115.0000
 22
-7419.5000
 32
0.0000
 13
15115.0000
 23
-7419.5000
 33
0.0000
  0
SOLID
  5
44D
  8
דלתות-מידות
 10
13850.0000
 20
-7387.5000
 30
0.0000
 11
13735.0000
 21
-7355.5000
 31
0.0000
 12
13735.0000
 22
-7419.5000
 32
0.0000
 13
13735.0000
 23
-7419.5000
 33
0.0000
  0
TEXT
  5
44E
  8
דלתות-מידות
 10
14425.0000
 20
-7292.5000
 30
0.0000
 40
100.0000
  1
115
 50
360.0000
  7
SOLINE
 72
1
 73
2
 11
14425.0000
 21
-7292.5000
 31
0.0000
  0
LINE
  5
44F
  8
דלתות-מידות
 10
12950.0000
 20
-7460.0000
 30
0.0000
 11
12950.0000
 21
-7216.5000
 31
0.0000
  0
LINE
  5
450
  8
דלתות-מידות
 10
13850.0000
 20
-7460.0000
 30
0.0000
 11
13850.0000
 21
-7216.5000
 31
0.0000
  0
LINE
  5
451
  8
דלתות-מידות
 10
12950.0000
 20
-7275.0000
 30
0.0000
 11
13850.0000
 21
-7275.0000
 31
0.0000
  0
SOLID
  5
452
  8
דלתות-מידות
 10
12950.0000
 20
-7275.0000
 30
0.0000
 11
12837.8750
 21
-7243.8000
 31
0.0000
 12
12837.8750
 22
-7306.2000
 32
0.0000
 13
12837.8750
 23
-7306.2000
 33
0.0000
  0
SOLID
  5
453
  8
דלתות-מידות
 10
13850.0000
 20
-7275.0000
 30
0.0000
 11
13962.1250
 21
-7243.8000
 31
0.0000
 12
13962.1250
 22
-7306.2000
 32
0.0000
 13
13962.1250
 23
-7306.2000
 33
0.0000
  0
TEXT
  5
454
  8
דלתות-מידות
 10
13400.0000
 20
-7182.3750
 30
0.0000
 40
97.5000
  1
90
 50
0.0000
  7
SOLINE
 72
1
 73
2
 11
13400.0000
 21
-7182.3750
 31
0.0000
  0
LINE
  5
455
  8
דלתות-מידות
 10
12910.0000
 20
-9600.0000
 30
0.0000
 11
12366.5000
 21
-9600.0000
 31
0.0000
  0
LINE
  5
456
  8
דלתות-מידות
 10
12910.0000
 20
-7500.0000
 30
0.0000
 11
12366.5000
 21
-7500.0000
 31
0.0000
  0
LINE
  5
457
  8
דלתות-מידות
 10
12425.0000
 20
-9600.0000
 30
0.0000
 11
12425.0000
 21
-7500.0000
 31
0.0000
  0
SOLID
  5
458
  8
דלתות-מידות
 10
12425.0000
 20
-9600.0000
 30
0.0000
 11
12393.8000
 21
-9712.1250
 31
0.0000
 12
12456.2000
 22
-9712.1250
 32
0.0000
 13
12456.2000
 23
-9712.1250
 33
0.0000
  0
SOLID
  5
459
  8
דלתות-מידות
 10
12425.0000
 20
-7500.0000
 30
0.0000
 11
12393.8000
 21
-7387.8750
 31
0.0000
 12
12456.2000
 22
-7387.8750
 32
0.0000
 13
12456.2000
 23
-7387.8750
 33
0.0000
  0
TEXT
  5
45A
  8
דלתות-מידות
 10
12332.3750
 20
-8550.0000
 30
0.0000
 40
97.5000
  1
210
 50
90.0000
  7
SOLINE
 72
1
 73
2
 11
12332.3750
 21
-8550.0000
 31
0.0000
  0
TEXT
  5
45B
  8
קירות-טקסט
 10
13000.0000
 20
-10537.5000
 30
0.0000
 40
162.5000
  1
W3
 50
0.0000
  7
SOLINE
 72
1
 73
2
 11
13000.0000
 21
-10537.5000
 31
0.0000
  0
LINE
  5
45C
  8
קירות
 10
17500.0000
 20
-9600.0000
 30
0.0000
 11
20500.0000
 21
-9600.0000
 31
0.0000
  0
LINE
  5
45D
  8
קירות
 10
20500.0000
 20
-9600.0000
 30
0.0000
 11
20500.0000
 21
-7000.0000
 31
0.0000
  0
LINE
  5
45E
  8
קירות
 10
20500.0000
 20
-7000.0000
 30
0.0000
 11
17500.0000
 21
-7000.0000
 31
0.0000
  0
LINE
  5
45F
  8
קירות
 10
17500.0000
 20
-7000.0000
 30
0.0000
 11
17500.0000
 21
-9600.0000
 31
0.0000
  0
LINE
  5
460
  8
מידות-חוץ
 10
17500.0000
 20
-9650.0000
 30
0.0000
 11
17500.0000
 21
-10050.0000
 31
0.0000
  0
LINE
  5
461
  8
מידות-חוץ
 10
20500.0000
 20
-9650.0000
 30
0.0000
 11
20500.0000
 21
-10050.0000
 31
0.0000
  0
LINE
  5
462
  8
מידות-חוץ
 10
17500.0000
 20
-9975.0000
 30
0.0000
 11
20500.0000
 21
-9975.0000
 31
0.0000
  0
SOLID
  5
463
  8
מידות-חוץ
 10
17500.0000
 20
-9975.0000
 30
0.0000
 11
17356.2500
 21
-10015.0000
 31
0.0000
 12
17356.2500
 22
-9935.0000
 32
0.0000
 13
17356.2500
 23
-9935.0000
 33
0.0000
  0
SOLID
  5
464
  8
מידות-חוץ
 10
20500.0000
 20
-9975.0000
 30
0.0000
 11
20643.7500
 21
-10015.0000
 31
0.0000
 12
20643.7500
 22
-9935.0000
 32
0.0000
 13
20643.7500
 23
-9935.0000
 33
0.0000
  0
TEXT
  5
465
  8
מידות-חוץ
 10
19000.0000
 20
-10093.7500
 30
0.0000
 40
125.0000
  1
300
 50
0.0000
  7
SOLINE
 72
1
 73
2
 11
19000.0000
 21
-10093.7500
 31
0.0000
  0
LINE
  5
466
  8
מידות-חוץ
 10
17450.0000
 20
-9600.0000
 30
0.0000
 11
17050.0000
 21
-9600.0000
 31
0.0000
  0
LINE
  5
467
  8
מידות-חוץ
 10
17450.0000
 20
-7000.0000
 30
0.0000
 11
17050.0000
 21
-7000.0000
 31
0.0000
  0
LINE
  5
468
  8
מידות-חוץ
 10
17125.0000
 20
-9600.0000
 30
0.0000
 11
17125.0000
 21
-7000.0000
 31
0.0000
  0
SOLID
  5
469
  8
מידות-חוץ
 10
17125.0000
 20
-9600.0000
 30
0.0000
 11
17085.0000
 21
-9743.7500
 31
0.0000
 12
17165.0000
 22
-9743.7500
 32
0.0000
 13
17165.0000
 23
-9743.7500
 33
0.0000
  0
SOLID
  5
46A
  8
מידות-חוץ
 10
17125.0000
 20
-7000.0000
 30
0.0000
 11
17085.0000
 21
-6856.2500
 31
0.0000
 12
17165.0000
 22
-6856.2500
 32
0.0000
 13
17165.0000
 23
-6856.2500
 33
0.0000
  0
TEXT
  5
46B
  8
מידות-חוץ
 10
17006.2500
 20
-8300.0000
 30
0.0000
 40
125.0000
  1
260
 50
90.0000
  7
SOLINE
 72
1
 73
2
 11
17006.2500
 21
-8300.0000
 31
0.0000
  0
LINE
  5
46C
  8
מבנה
 10
17300.0000
 20
-7600.0000
 30
0.0000
 11
18300.0000
 21
-7600.0000
 31
0.0000
  0
LINE
  5
46D
  8
מבנה
 10
18300.0000
 20
-7600.0000
 30
0.0000
 11
18300.0000
 21
-7000.0000
 31
0.0000
  0
LINE
  5
46E
  8
מבנה
 10
18300.0000
 20
-7000.0000
 30
0.0000
 11
17300.0000
 21
-7000.0000
 31
0.0000
  0
LINE
  5
46F
  8
מבנה
 10
17300.0000
 20
-7000.0000
 30
0.0000
 11
17300.0000
 21
-7600.0000
 31
0.0000
  0
LINE
  5
470
  8
מבנה
 10
17300.0000
 20
-7228.0000
 30
0.0000
 11
18300.0000
 21
-7228.0000
 31
0.0000
  0
LINE
  5
471
  8
מבנה
 10
18300.0000
 20
-7228.0000
 30
0.0000
 11
18300.0000
 21
-7372.0000
 31
0.0000
  0
LINE
  5
472
  8
מבנה
 10
18300.0000
 20
-7372.0000
 30
0.0000
 11
17300.0000
 21
-7372.0000
 31
0.0000
  0
LINE
  5
473
  8
מבנה
 10
17300.0000
 20
-7372.0000
 30
0.0000
 11
17300.0000
 21
-7228.0000
 31
0.0000
  0
LINE
  5
474
  8
מבנה-מידות
 10
17500.0000
 20
-9560.0000
 30
0.0000
 11
17500.0000
 21
-8727.5000
 31
0.0000
  0
LINE
  5
475
  8
מבנה-מידות
 10
17300.0000
 20
-9560.0000
 30
0.0000
 11
17300.0000
 21
-8727.5000
 31
0.0000
  0
LINE
  5
476
  8
מבנה-מידות
 10
17500.0000
 20
-8787.5000
 30
0.0000
 11
17300.0000
 21
-8787.5000
 31
0.0000
  0
SOLID
  5
477
  8
מבנה-מידות
 10
17500.0000
 20
-8787.5000
 30
0.0000
 11
17615.0000
 21
-8755.5000
 31
0.0000
 12
17615.0000
 22
-8819.5000
 32
0.0000
 13
17615.0000
 23
-8819.5000
 33
0.0000
  0
SOLID
  5
478
  8
מבנה-מידות
 10
17300.0000
 20
-8787.5000
 30
0.0000
 11
17185.0000
 21
-8755.5000
 31
0.0000
 12
17185.0000
 22
-8819.5000
 32
0.0000
 13
17185.0000
 23
-8819.5000
 33
0.0000
  0
TEXT
  5
479
  8
מבנה-מידות
 10
17400.0000
 20
-8692.5000
 30
0.0000
 40
100.0000
  1
20
 50
360.0000
  7
SOLINE
 72
1
 73
2
 11
17400.0000
 21
-8692.5000
 31
0.0000
  0
LINE
  5
47A
  8
מבנה-מידות
 10
17300.0000
 20
-6960.0000
 30
0.0000
 11
17300.0000
 21
-6716.5000
 31
0.0000
  0
LINE
  5
47B
  8
מבנה-מידות
 10
18300.0000
 20
-6960.0000
 30
0.0000
 11
18300.0000
 21
-6716.5000
 31
0.0000
  0
LINE
  5
47C
  8
מבנה-מידות
 10
17300.0000
 20
-6775.0000
 30
0.0000
 11
18300.0000
 21
-6775.0000
 31
0.0000
  0
SOLID
  5
47D
  8
מבנה-מידות
 10
17300.0000
 20
-6775.0000
 30
0.0000
 11
17187.8750
 21
-6743.8000
 31
0.0000
 12
17187.8750
 22
-6806.2000
 32
0.0000
 13
17187.8750
 23
-6806.2000
 33
0.0000
  0
SOLID
  5
47E
  8
מבנה-מידות
 10
18300.0000
 20
-6775.0000
 30
0.0000
 11
18412.1250
 21
-6743.8000
 31
0.0000
 12
18412.1250
 22
-6806.2000
 32
0.0000
 13
18412.1250
 23
-6806.2000
 33
0.0000
  0
TEXT
  5
47F
  8
מבנה-מידות
 10
17800.0000
 20
-6682.3750
 30
0.0000
 40
97.5000
  1
100
 50
0.0000
  7
SOLINE
 72
1
 73
2
 11
17800.0000
 21
-6682.3750
 31
0.0000
  0
LINE
  5
480
  8
מבנה-מידות
 10
17260.0000
 20
-9600.0000
 30
0.0000
 11
17054.0000
 21
-9600.0000
 31
0.0000
  0
LINE
  5
481
  8
מבנה-מידות
 10
17260.0000
 20
-7600.0000
 30
0.0000
 11
17054.0000
 21
-7600.0000
 31
0.0000
  0
LINE
  5
482
  8
מבנה-מידות
 10
17112.5000
 20
-9600.0000
 30
0.0000
 11
17112.5000
 21
-7600.0000
 31
0.0000
  0
SOLID
  5
483
  8
מבנה-מידות
 10
17112.5000
 20
-9600.0000
 30
0.0000
 11
17081.3000
 21
-9712.1250
 31
0.0000
 12
17143.7000
 22
-9712.1250
 32
0.0000
 13
17143.7000
 23
-9712.1250
 33
0.0000
  0
SOLID
  5
484
  8
מבנה-מידות
 10
17112.5000
 20
-7600.0000
 30
0.0000
 11
17081.3000
 21
-7487.8750
 31
0.0000
 12
17143.7000
 22
-7487.8750
 32
0.0000
 13
17143.7000
 23
-7487.8750
 33
0.0000
  0
TEXT
  5
485
  8
מבנה-מידות
 10
17019.8750
 20
-8600.0000
 30
0.0000
 40
97.5000
  1
200
 50
90.0000
  7
SOLINE
 72
1
 73
2
 11
17019.8750
 21
-8600.0000
 31
0.0000
  0
LINE
  5
486
  8
מבנה-מידות
 10
17260.0000
 20
-7600.0000
 30
0.0000
 11
16716.5000
 21
-7600.0000
 31
0.0000
  0
LINE
  5
487
  8
מבנה-מידות
 10
17260.0000
 20
-7000.0000
 30
0.0000
 11
16716.5000
 21
-7000.0000
 31
0.0000
  0
LINE
  5
488
  8
מבנה-מידות
 10
16775.0000
 20
-7600.0000
 30
0.0000
 11
16775.0000
 21
-7000.0000
 31
0.0000
  0
SOLID
  5
489
  8
מבנה-מידות
 10
16775.0000
 20
-7600.0000
 30
0.0000
 11
16743.8000
 21
-7712.1250
 31
0.0000
 12
16806.2000
 22
-7712.1250
 32
0.0000
 13
16806.2000
 23
-7712.1250
 33
0.0000
  0
SOLID
  5
48A
  8
מבנה-מידות
 10
16775.0000
 20
-7000.0000
 30
0.0000
 11
16743.8000
 21
-6887.8750
 31
0.0000
 12
16806.2000
 22
-6887.8750
 32
0.0000
 13
16806.2000
 23
-6887.8750
 33
0.0000
  0
TEXT
  5
48B
  8
מבנה-מידות
 10
16682.3750
 20
-7300.0000
 30
0.0000
 40
97.5000
  1
60
 50
90.0000
  7
SOLINE
 72
1
 73
2
 11
16682.3750
 21
-7300.0000
 31
0.0000
  0
LINE
  5
48C
  8
מבנה
 10
18500.0000
 20
-9600.0000
 30
0.0000
 11
19100.0000
 21
-9600.0000
 31
0.0000
  0
LINE
  5
48D
  8
מבנה
 10
19100.0000
 20
-9600.0000
 30
0.0000
 11
19100.0000
 21
-9550.0000
 31
0.0000
  0
LINE
  5
48E
  8
מבנה
 10
19100.0000
 20
-9550.0000
 30
0.0000
 11
18500.0000
 21
-9550.0000
 31
0.0000
  0
LINE
  5
48F
  8
מבנה
 10
18500.0000
 20
-9550.0000
 30
0.0000
 11
18500.0000
 21
-9600.0000
 31
0.0000
  0
LINE
  5
490
  8
מבנה
 10
18584.0000
 20
-9557.0000
 30
0.0000
 11
19016.0000
 21
-9557.0000
 31
0.0000
  0
LINE
  5
491
  8
מבנה
 10
19016.0000
 20
-9557.0000
 30
0.0000
 11
19016.0000
 21
-9593.0000
 31
0.0000
  0
LINE
  5
492
  8
מבנה
 10
19016.0000
 20
-9593.0000
 30
0.0000
 11
18584.0000
 21
-9593.0000
 31
0.0000
  0
LINE
  5
493
  8
מבנה
 10
18584.0000
 20
-9593.0000
 30
0.0000
 11
18584.0000
 21
-9557.0000
 31
0.0000
  0
LINE
  5
494
  8
מבנה
 10
18980.0000
 20
-9572.0000
 30
0.0000
 11
19016.0000
 21
-9575.0000
 31
0.0000
  0
LINE
  5
495
  8
מבנה
 10
19016.0000
 20
-9575.0000
 30
0.0000
 11
18980.0000
 21
-9578.0000
 31
0.0000
  0
LINE
  5
496
  8
מבנה-מידות
 10
17500.0000
 20
-9640.0000
 30
0.0000
 11
17500.0000
 21
-10822.5000
 31
0.0000
  0
LINE
  5
497
  8
מבנה-מידות
 10
18500.0000
 20
-9640.0000
 30
0.0000
 11
18500.0000
 21
-10822.5000
 31
0.0000
  0
LINE
  5
498
  8
מבנה-מידות
 10
17500.0000
 20
-10762.5000
 30
0.0000
 11
18500.0000
 21
-10762.5000
 31
0.0000
  0
SOLID
  5
499
  8
מבנה-מידות
 10
17500.0000
 20
-10762.5000
 30
0.0000
 11
17385.0000
 21
-10794.5000
 31
0.0000
 12
17385.0000
 22
-10730.5000
 32
0.0000
 13
17385.0000
 23
-10730.5000
 33
0.0000
  0
SOLID
  5
49A
  8
מבנה-מידות
 10
18500.0000
 20
-10762.5000
 30
0.0000
 11
18615.0000
 21
-10794.5000
 31
0.0000
 12
18615.0000
 22
-10730.5000
 32
0.0000
 13
18615.0000
 23
-10730.5000
 33
0.0000
  0
TEXT
  5
49B
  8
מבנה-מידות
 10
18000.0000
 20
-10857.5000
 30
0.0000
 40
100.0000
  1
100
 50
0.0000
  7
SOLINE
 72
1
 73
2
 11
18000.0000
 21
-10857.5000
 31
0.0000
  0
LINE
  5
49C
  8
מבנה-מידות
 10
18500.0000
 20
-9510.0000
 30
0.0000
 11
18500.0000
 21
-9266.5000
 31
0.0000
  0
LINE
  5
49D
  8
מבנה-מידות
 10
19100.0000
 20
-9510.0000
 30
0.0000
 11
19100.0000
 21
-9266.5000
 31
0.0000
  0
LINE
  5
49E
  8
מבנה-מידות
 10
18500.0000
 20
-9325.0000
 30
0.0000
 11
19100.0000
 21
-9325.0000
 31
0.0000
  0
SOLID
  5
49F
  8
מבנה-מידות
 10
18500.0000
 20
-9325.0000
 30
0.0000
 11
18387.8750
 21
-9293.8000
 31
0.0000
 12
18387.8750
 22
-9356.2000
 32
0.0000
 13
18387.8750
 23
-9356.2000
 33
0.0000
  0
SOLID
  5
4A0
  8
מבנה-מידות
 10
19100.0000
 20
-9325.0000
 30
0.0000
 11
19212.1250
 21
-9293.8000
 31
0.0000
 12
19212.1250
 22
-9356.2000
 32
0.0000
 13
19212.1250
 23
-9356.2000
 33
0.0000
  0
TEXT
  5
4A1
  8
מבנה-מידות
 10
18800.0000
 20
-9232.3750
 30
0.0000
 40
97.5000
  1
60
 50
0.0000
  7
SOLINE
 72
1
 73
2
 11
18800.0000
 21
-9232.3750
 31
0.0000
  0
LINE
  5
4A2
  8
מבנה-מידות
 10
18460.0000
 20
-9600.0000
 30
0.0000
 11
17916.5000
 21
-9600.0000
 31
0.0000
  0
LINE
  5
4A3
  8
מבנה-מידות
 10
18460.0000
 20
-9550.0000
 30
0.0000
 11
17916.5000
 21
-9550.0000
 31
0.0000
  0
LINE
  5
4A4
  8
מבנה-מידות
 10
17975.0000
 20
-9600.0000
 30
0.0000
 11
17975.0000
 21
-9550.0000
 31
0.0000
  0
SOLID
  5
4A5
  8
מבנה-מידות
 10
17975.0000
 20
-9600.0000
 30
0.0000
 11
17943.8000
 21
-9712.1250
 31
0.0000
 12
18006.2000
 22
-9712.1250
 32
0.0000
 13
18006.2000
 23
-9712.1250
 33
0.0000
  0
SOLID
  5
4A6
  8
מבנה-מידות
 10
17975.0000
 20
-9550.0000
 30
0.0000
 11
17943.8000
 21
-9437.8750
 31
0.0000
 12
18006.2000
 22
-9437.8750
 32
0.0000
 13
18006.2000
 23
-9437.8750
 33
0.0000
  0
TEXT
  5
4A7
  8
מבנה-מידות
 10
17882.3750
 20
-9575.0000
 30
0.0000
 40
97.5000
  1
5
 50
90.0000
  7
SOLINE
 72
1
 73
2
 11
17882.3750
 21
-9575.0000
 31
0.0000
  0
TEXT
  5
4A8
  8
קירות-טקסט
 10
19000.0000
 20
-10537.5000
 30
0.0000
 40
162.5000
  1
W4
 50
0.0000
  7
SOLINE
 72
1
 73
2
 11
19000.0000
 21
-10537.5000
 31
0.0000
  0
LINE
  5
4A9
  8
גבול-גיליון
 10
-2600.0000
 20
-15728.1250
 30
0.0000
 11
20900.0000
 21
-15728.1250
 31
0.0000
  0
LINE
  5
4AA
  8
גבול-גיליון
 10
20900.0000
 20
-15728.1250
 30
0.0000
 11
20900.0000
 21
1000.0000
 31
0.0000
  0
LINE
  5
4AB
  8
גבול-גיליון
 10
20900.0000
 20
1000.0000
 30
0.0000
 11
-2600.0000
 21
1000.0000
 31
0.0000
  0
LINE
  5
4AC
  8
גבול-גיליון
 10
-2600.0000
 20
1000.0000
 30
0.0000
 11
-2600.0000
 21
-15728.1250
 31
0.0000
  0
ENDSEC
  0
EOF
