  0
SECTION
  2
HEADER
  9
$ACADVER
  1
AC1015
  9
$HANDSEED
  5
5DB
  9
$INSBASE
 10
0.0000
 20
0.0000
 30
0.0000
  9
$EXTMIN
 10
-3000.0000
 20
-16128.1250
 30
0.0000
  9
$EXTMAX
 10
21300.0000
 20
1400.0000
 30
0.0000
  9
$DWGCODEPAGE
  3
ansi_1255
  9
$CLAYER
  8
0
  9
$INSUNITS
 70
4
  9
$MEASUREMENT
 70
1
  9
$PSTYLEMODE
290
1
  9
$LWDISPLAY
290
1
  9
$LTSCALE
 40
10.0000
  9
$LIMMIN
 10
0.0000
 20
0.0000
  9
$LIMMAX
 10
2000.0000
 20
200.0000
  0
ENDSEC
  0
SECTION
  2
TABLES
  0
TABLE
  2
VPORT
  5
4BF
330
0
100
AcDbSymbolTable
 70
1
  0
VPORT
  5
4C0
330
4BF
100
AcDbSymbolTableRecord
100
AcDbViewportTableRecord
  2
*ACTIVE
 70
0
 10
0.0000
 20
0.0000
 11
1.0000
 21
1.0000
 12
9150.0000
 22
-7364.0625
 13
0.0000
 23
0.0000
 14
10.0000
 24
10.0000
 15
10.0000
 25
10.0000
 16
0.0000
 26
0.0000
 36
1.0000
 17
0.0000
 27
0.0000
 37
0.0000
 40
20157.3438
 41
1.6000
 42
50.0000
 43
0.0000
 44
0.0000
 50
0.0000
 51
0.0000
 71
0
 72
100
 73
1
 74
1
 75
0
 76
0
 77
0
 78
0
  0
ENDTAB
  0
TABLE
  2
LTYPE
  5
4C1
330
0
100
AcDbSymbolTable
 70
5
  0
LTYPE
  5
4C2
330
4C1
100
AcDbSymbolTableRecord
100
AcDbLinetypeTableRecord
  2
ByBlock
 70
0
  3

 72
65
 73
0
 40
0.0000
  0
LTYPE
  5
4C3
330
4C1
100
AcDbSymbolTableRecord
100
AcDbLinetypeTableRecord
  2
ByLayer
 70
0
  3

 72
65
 73
0
 40
0.0000
  0
LTYPE
  5
4C4
330
4C1
100
AcDbSymbolTableRecord
100
AcDbLinetypeTableRecord
  2
CONTINUOUS
 70
0
  3
Solid line
 72
65
 73
0
 40
0.0000
  0
LTYPE
  5
4C5
330
4C1
100
AcDbSymbolTableRecord
100
AcDbLinetypeTableRecord
  2
HIDDEN
 70
0
  3
Hidden . . . . . .
 72
65
 73
2
 40
9.5250
 49
6.3500
 74
0
 49
-3.1750
 74
0
  0
LTYPE
  5
4C6
330
4C1
100
AcDbSymbolTableRecord
100
AcDbLinetypeTableRecord
  2
CENTER
 70
0
  3
Center ____ _ ____ _ ____
 72
65
 73
4
 40
50.8000
 49
31.7500
 74
0
 49
-6.3500
 74
0
 49
6.3500
 74
0
 49
-6.3500
 74
0
  0
ENDTAB
  0
TABLE
  2
LAYER
  5
4C7
330
0
100
AcDbSymbolTable
 70
71
  0
LAYER
  5
4C8
330
4C7
100
AcDbSymbolTableRecord
100
AcDbLayerTableRecord
  2
0
 70
0
 62
7
  6
CONTINUOUS
290
1
370
25
390
4BE
  0
LAYER
  5
4C9
330
4C7
100
AcDbSymbolTableRecord
100
AcDbLayerTableRecord
  2
SOL-KIROT-SYM
 70
0
 62
7
  6
CONTINUOUS
290
1
370
50
390
4BE
  0
LAYER
  5
4CA
330
4C7
100
AcDbSymbolTableRecord
100
AcDbLayerTableRecord
  2
SOL-KIROT-HAT
 70
0
 62
8
  6
CONTINUOUS
290
1
370
13
390
4BE
  0
LAYER
  5
4CB
330
4C7
100
AcDbSymbolTableRecord
100
AcDbLayerTableRecord
  2
SOL-KIROT-DIM
 70
0
 62
7
  6
CONTINUOUS
290
1
370
13
390
4BE
  0
LAYER
  5
4CC
330
4C7
100
AcDbSymbolTableRecord
100
AcDbLayerTableRecord
  2
SOL-KIROT-TXT
 70
0
 62
7
  6
CONTINUOUS
290
1
370
18
390
4BE
  0
LAYER
  5
4CD
330
4C7
100
AcDbSymbolTableRecord
100
AcDbLayerTableRecord
  2
SOL-KIROT-HID
 70
0
 62
7
  6
HIDDEN
290
1
370
18
390
4BE
  0
LAYER
  5
4CE
330
4C7
100
AcDbSymbolTableRecord
100
AcDbLayerTableRecord
  2
SOL-KIROT-CEN
 70
0
 62
7
  6
CENTER
290
1
370
13
390
4BE
  0
LAYER
  5
4CF
330
4C7
100
AcDbSymbolTableRecord
100
AcDbLayerTableRecord
  2
SOL-MIVNE-SYM
 70
0
 62
9
  6
CONTINUOUS
290
1
370
35
390
4BE
  0
LAYER
  5
4D0
330
4C7
100
AcDbSymbolTableRecord
100
AcDbLayerTableRecord
  2
SOL-MIVNE-HAT
 70
0
 62
9
  6
CONTINUOUS
290
1
370
13
390
4BE
  0
LAYER
  5
4D1
330
4C7
100
AcDbSymbolTableRecord
100
AcDbLayerTableRecord
  2
SOL-MIVNE-DIM
 70
0
 62
9
  6
CONTINUOUS
290
1
370
13
390
4BE
  0
LAYER
  5
4D2
330
4C7
100
AcDbSymbolTableRecord
100
AcDbLayerTableRecord
  2
SOL-MIVNE-TXT
 70
0
 62
9
  6
CONTINUOUS
290
1
370
18
390
4BE
  0
LAYER
  5
4D3
330
4C7
100
AcDbSymbolTableRecord
100
AcDbLayerTableRecord
  2
SOL-MIVNE-HID
 70
0
 62
9
  6
HIDDEN
290
1
370
18
390
4BE
  0
LAYER
  5
4D4
330
4C7
100
AcDbSymbolTableRecord
100
AcDbLayerTableRecord
  2
SOL-MIVNE-CEN
 70
0
 62
9
  6
CENTER
290
1
370
13
390
4BE
  0
LAYER
  5
4D5
330
4C7
100
AcDbSymbolTableRecord
100
AcDbLayerTableRecord
  2
SOL-CHASHMAL-SYM
 70
0
 62
6
  6
CONTINUOUS
290
1
370
25
390
4BE
  0
LAYER
  5
4D6
330
4C7
100
AcDbSymbolTableRecord
100
AcDbLayerTableRecord
  2
SOL-CHASHMAL-DIM
 70
0
 62
6
  6
CONTINUOUS
290
1
370
13
390
4BE
  0
LAYER
  5
4D7
330
4C7
100
AcDbSymbolTableRecord
100
AcDbLayerTableRecord
  2
SOL-CHASHMAL-TXT
 70
0
 62
6
  6
CONTINUOUS
290
1
370
18
390
4BE
  0
LAYER
  5
4D8
330
4C7
100
AcDbSymbolTableRecord
100
AcDbLayerTableRecord
  2
SOL-CHASHMAL-HID
 70
0
 62
6
  6
HIDDEN
290
1
370
18
390
4BE
  0
LAYER
  5
4D9
330
4C7
100
AcDbSymbolTableRecord
100
AcDbLayerTableRecord
  2
SOL-TEURA-SYM
 70
0
 62
30
  6
CONTINUOUS
290
1
370
25
390
4BE
  0
LAYER
  5
4DA
330
4C7
100
AcDbSymbolTableRecord
100
AcDbLayerTableRecord
  2
SOL-TEURA-DIM
 70
0
 62
30
  6
CONTINUOUS
290
1
370
13
390
4BE
  0
LAYER
  5
4DB
330
4C7
100
AcDbSymbolTableRecord
100
AcDbLayerTableRecord
  2
SOL-TEURA-TXT
 70
0
 62
30
  6
CONTINUOUS
290
1
370
18
390
4BE
  0
LAYER
  5
4DC
330
4C7
100
AcDbSymbolTableRecord
100
AcDbLayerTableRecord
  2
SOL-TEURA-HID
 70
0
 62
30
  6
HIDDEN
290
1
370
18
390
4BE
  0
LAYER
  5
4DD
330
4C7
100
AcDbSymbolTableRecord
100
AcDbLayerTableRecord
  2
SOL-MAYIM-SYM
 70
0
 62
4
  6
CONTINUOUS
290
1
370
25
390
4BE
  0
LAYER
  5
4DE
330
4C7
100
AcDbSymbolTableRecord
100
AcDbLayerTableRecord
  2
SOL-MAYIM-DIM
 70
0
 62
4
  6
CONTINUOUS
290
1
370
13
390
4BE
  0
LAYER
  5
4DF
330
4C7
100
AcDbSymbolTableRecord
100
AcDbLayerTableRecord
  2
SOL-MAYIM-TXT
 70
0
 62
4
  6
CONTINUOUS
290
1
370
18
390
4BE
  0
LAYER
  5
4E0
330
4C7
100
AcDbSymbolTableRecord
100
AcDbLayerTableRecord
  2
SOL-MAYIM-HID
 70
0
 62
4
  6
HIDDEN
290
1
370
18
390
4BE
  0
LAYER
  5
4E1
330
4C7
100
AcDbSymbolTableRecord
100
AcDbLayerTableRecord
  2
SOL-MAYIM-CEN
 70
0
 62
4
  6
CENTER
290
1
370
13
390
4BE
  0
LAYER
  5
4E2
330
4C7
100
AcDbSymbolTableRecord
100
AcDbLayerTableRecord
  2
SOL-NIKUZ-SYM
 70
0
 62
140
  6
CONTINUOUS
290
1
370
25
390
4BE
  0
LAYER
  5
4E3
330
4C7
100
AcDbSymbolTableRecord
100
AcDbLayerTableRecord
  2
SOL-NIKUZ-DIM
 70
0
 62
140
  6
CONTINUOUS
290
1
370
13
390
4BE
  0
LAYER
  5
4E4
330
4C7
100
AcDbSymbolTableRecord
100
AcDbLayerTableRecord
  2
SOL-NIKUZ-TXT
 70
0
 62
140
  6
CONTINUOUS
290
1
370
18
390
4BE
  0
LAYER
  5
4E5
330
4C7
100
AcDbSymbolTableRecord
100
AcDbLayerTableRecord
  2
SOL-NIKUZ-HID
 70
0
 62
140
  6
HIDDEN
290
1
370
18
390
4BE
  0
LAYER
  5
4E6
330
4C7
100
AcDbSymbolTableRecord
100
AcDbLayerTableRecord
  2
SOL-NIKUZ-CEN
 70
0
 62
140
  6
CENTER
290
1
370
13
390
4BE
  0
LAYER
  5
4E7
330
4C7
100
AcDbSymbolTableRecord
100
AcDbLayerTableRecord
  2
SOL-GAZ-SYM
 70
0
 62
2
  6
CONTINUOUS
290
1
370
25
390
4BE
  0
LAYER
  5
4E8
330
4C7
100
AcDbSymbolTableRecord
100
AcDbLayerTableRecord
  2
SOL-GAZ-DIM
 70
0
 62
2
  6
CONTINUOUS
290
1
370
13
390
4BE
  0
LAYER
  5
4E9
330
4C7
100
AcDbSymbolTableRecord
100
AcDbLayerTableRecord
  2
SOL-GAZ-TXT
 70
0
 62
2
  6
CONTINUOUS
290
1
370
18
390
4BE
  0
LAYER
  5
4EA
330
4C7
100
AcDbSymbolTableRecord
100
AcDbLayerTableRecord
  2
SOL-GAZ-HID
 70
0
 62
2
  6
HIDDEN
290
1
370
18
390
4BE
  0
LAYER
  5
4EB
330
4C7
100
AcDbSymbolTableRecord
100
AcDbLayerTableRecord
  2
SOL-GAZ-CEN
 70
0
 62
2
  6
CENTER
290
1
370
13
390
4BE
  0
LAYER
  5
4EC
330
4C7
100
AcDbSymbolTableRecord
100
AcDbLayerTableRecord
  2
SOL-MIZUG-SYM
 70
0
 62
141
  6
CONTINUOUS
290
1
370
25
390
4BE
  0
LAYER
  5
4ED
330
4C7
100
AcDbSymbolTableRecord
100
AcDbLayerTableRecord
  2
SOL-MIZUG-DIM
 70
0
 62
141
  6
CONTINUOUS
290
1
370
13
390
4BE
  0
LAYER
  5
4EE
330
4C7
100
AcDbSymbolTableRecord
100
AcDbLayerTableRecord
  2
SOL-MIZUG-TXT
 70
0
 62
141
  6
CONTINUOUS
290
1
370
18
390
4BE
  0
LAYER
  5
4EF
330
4C7
100
AcDbSymbolTableRecord
100
AcDbLayerTableRecord
  2
SOL-MIZUG-HID
 70
0
 62
141
  6
HIDDEN
290
1
370
18
390
4BE
  0
LAYER
  5
4F0
330
4C7
100
AcDbSymbolTableRecord
100
AcDbLayerTableRecord
  2
SOL-IVRUR-SYM
 70
0
 62
131
  6
CONTINUOUS
290
1
370
25
390
4BE
  0
LAYER
  5
4F1
330
4C7
100
AcDbSymbolTableRecord
100
AcDbLayerTableRecord
  2
SOL-IVRUR-DIM
 70
0
 62
131
  6
CONTINUOUS
290
1
370
13
390
4BE
  0
LAYER
  5
4F2
330
4C7
100
AcDbSymbolTableRecord
100
AcDbLayerTableRecord
  2
SOL-IVRUR-TXT
 70
0
 62
131
  6
CONTINUOUS
290
1
370
18
390
4BE
  0
LAYER
  5
4F3
330
4C7
100
AcDbSymbolTableRecord
100
AcDbLayerTableRecord
  2
SOL-IVRUR-HID
 70
0
 62
131
  6
HIDDEN
290
1
370
18
390
4BE
  0
LAYER
  5
4F4
330
4C7
100
AcDbSymbolTableRecord
100
AcDbLayerTableRecord
  2
SOL-DELET-SYM
 70
0
 62
5
  6
CONTINUOUS
290
1
370
25
390
4BE
  0
LAYER
  5
4F5
330
4C7
100
AcDbSymbolTableRecord
100
AcDbLayerTableRecord
  2
SOL-DELET-DIM
 70
0
 62
5
  6
CONTINUOUS
290
1
370
13
390
4BE
  0
LAYER
  5
4F6
330
4C7
100
AcDbSymbolTableRecord
100
AcDbLayerTableRecord
  2
SOL-DELET-TXT
 70
0
 62
5
  6
CONTINUOUS
290
1
370
18
390
4BE
  0
LAYER
  5
4F7
330
4C7
100
AcDbSymbolTableRecord
100
AcDbLayerTableRecord
  2
SOL-DELET-HID
 70
0
 62
5
  6
HIDDEN
290
1
370
18
390
4BE
  0
LAYER
  5
4F8
330
4C7
100
AcDbSymbolTableRecord
100
AcDbLayerTableRecord
  2
SOL-DELET-HAT
 70
0
 62
5
  6
CONTINUOUS
290
1
370
13
390
4BE
  0
LAYER
  5
4F9
330
4C7
100
AcDbSymbolTableRecord
100
AcDbLayerTableRecord
  2
SOL-CHALON-SYM
 70
0
 62
151
  6
CONTINUOUS
290
1
370
25
390
4BE
  0
LAYER
  5
4FA
330
4C7
100
AcDbSymbolTableRecord
100
AcDbLayerTableRecord
  2
SOL-CHALON-DIM
 70
0
 62
151
  6
CONTINUOUS
290
1
370
13
390
4BE
  0
LAYER
  5
4FB
330
4C7
100
AcDbSymbolTableRecord
100
AcDbLayerTableRecord
  2
SOL-CHALON-TXT
 70
0
 62
151
  6
CONTINUOUS
290
1
370
18
390
4BE
  0
LAYER
  5
4FC
330
4C7
100
AcDbSymbolTableRecord
100
AcDbLayerTableRecord
  2
SOL-CHALON-HID
 70
0
 62
151
  6
HIDDEN
290
1
370
18
390
4BE
  0
LAYER
  5
4FD
330
4C7
100
AcDbSymbolTableRecord
100
AcDbLayerTableRecord
  2
SOL-RIHUT-SYM
 70
0
 62
42
  6
CONTINUOUS
290
1
370
25
390
4BE
  0
LAYER
  5
4FE
330
4C7
100
AcDbSymbolTableRecord
100
AcDbLayerTableRecord
  2
SOL-RIHUT-DIM
 70
0
 62
42
  6
CONTINUOUS
290
1
370
13
390
4BE
  0
LAYER
  5
4FF
330
4C7
100
AcDbSymbolTableRecord
100
AcDbLayerTableRecord
  2
SOL-RIHUT-TXT
 70
0
 62
42
  6
CONTINUOUS
290
1
370
18
390
4BE
  0
LAYER
  5
500
330
4C7
100
AcDbSymbolTableRecord
100
AcDbLayerTableRecord
  2
SOL-RIHUT-HID
 70
0
 62
42
  6
HIDDEN
290
1
370
18
390
4BE
  0
LAYER
  5
501
330
4C7
100
AcDbSymbolTableRecord
100
AcDbLayerTableRecord
  2
SOL-MITBACH-SYM
 70
0
 62
52
  6
CONTINUOUS
290
1
370
25
390
4BE
  0
LAYER
  5
502
330
4C7
100
AcDbSymbolTableRecord
100
AcDbLayerTableRecord
  2
SOL-MITBACH-DIM
 70
0
 62
52
  6
CONTINUOUS
290
1
370
13
390
4BE
  0
LAYER
  5
503
330
4C7
100
AcDbSymbolTableRecord
100
AcDbLayerTableRecord
  2
SOL-MITBACH-TXT
 70
0
 62
52
  6
CONTINUOUS
290
1
370
18
390
4BE
  0
LAYER
  5
504
330
4C7
100
AcDbSymbolTableRecord
100
AcDbLayerTableRecord
  2
SOL-MITBACH-HID
 70
0
 62
52
  6
HIDDEN
290
1
370
18
390
4BE
  0
LAYER
  5
505
330
4C7
100
AcDbSymbolTableRecord
100
AcDbLayerTableRecord
  2
SOL-RITZPA-SYM
 70
0
 62
251
  6
CONTINUOUS
290
1
370
13
390
4BE
  0
LAYER
  5
506
330
4C7
100
AcDbSymbolTableRecord
100
AcDbLayerTableRecord
  2
SOL-RITZPA-HAT
 70
0
 62
8
  6
CONTINUOUS
290
1
370
13
390
4BE
  0
LAYER
  5
507
330
4C7
100
AcDbSymbolTableRecord
100
AcDbLayerTableRecord
  2
SOL-MIDOT-PNIM
 70
0
 62
3
  6
CONTINUOUS
290
1
370
13
390
4BE
  0
LAYER
  5
508
330
4C7
100
AcDbSymbolTableRecord
100
AcDbLayerTableRecord
  2
SOL-MIDOT-CHUTS
 70
0
 62
1
  6
CONTINUOUS
290
1
370
13
390
4BE
  0
LAYER
  5
509
330
4C7
100
AcDbSymbolTableRecord
100
AcDbLayerTableRecord
  2
SOL-SHEET-FRAME
 70
0
 62
250
  6
CONTINUOUS
290
1
370
18
390
4BE
  0
LAYER
  5
50A
330
4C7
100
AcDbSymbolTableRecord
100
AcDbLayerTableRecord
  2
SOL-SHEET-BORDER
 70
0
 62
255
  6
CONTINUOUS
290
1
370
50
390
4BE
  0
LAYER
  5
50B
330
4C7
100
AcDbSymbolTableRecord
100
AcDbLayerTableRecord
  2
SOL-SHEET-LEGEND
 70
0
 62
150
  6
CONTINUOUS
290
1
370
18
390
4BE
  0
LAYER
  5
50C
330
4C7
100
AcDbSymbolTableRecord
100
AcDbLayerTableRecord
  2
SOL-SHEET-GRID
 70
0
 62
8
  6
CENTER
290
1
370
13
390
4BE
  0
LAYER
  5
50D
330
4C7
100
AcDbSymbolTableRecord
100
AcDbLayerTableRecord
  2
SOL-SHEET-NOTES
 70
0
 62
150
  6
CONTINUOUS
290
1
370
18
390
4BE
  0
LAYER
  5
50E
330
4C7
100
AcDbSymbolTableRecord
100
AcDbLayerTableRecord
  2
SOL-SHEET-REV
 70
0
 62
1
  6
CONTINUOUS
290
1
370
18
390
4BE
  0
ENDTAB
  0
TABLE
  2
STYLE
  5
50F
330
0
100
AcDbSymbolTable
 70
2
  0
STYLE
  5
510
330
50F
100
AcDbSymbolTableRecord
100
AcDbTextStyleTableRecord
  2
SOLINE
 70
0
 40
0.0000
 41
1.0000
 50
0.0000
 71
0
 42
2.5000
  3
arial.ttf
  4

  0
STYLE
  5
511
330
50F
100
AcDbSymbolTableRecord
100
AcDbTextStyleTableRecord
  2
Standard
 70
0
 40
0.0000
 41
1.0000
 50
0.0000
 71
0
 42
2.5000
  3
txt
  4

  0
ENDTAB
  0
TABLE
  2
VIEW
  5
512
330
0
100
AcDbSymbolTable
 70
0
  0
ENDTAB
  0
TABLE
  2
UCS
  5
513
330
0
100
AcDbSymbolTable
 70
0
  0
ENDTAB
  0
TABLE
  2
APPID
  5
514
330
0
100
AcDbSymbolTable
 70
1
  0
APPID
  5
515
330
514
100
AcDbSymbolTableRecord
100
AcDbRegAppTableRecord
  2
ACAD
 70
0
  0
ENDTAB
  0
TABLE
  2
DIMSTYLE
  5
516
330
0
100
AcDbSymbolTable
 70
1
100
AcDbDimStyleTable
  0
DIMSTYLE
105
517
330
516
100
AcDbSymbolTableRecord
100
AcDbDimStyleTableRecord
  2
Standard
 70
0
  3

  4

 40
1.0
 41
2.5
 42
0.625
 43
3.75
 44
1.25
 45
0.0
 46
0.0
 47
0.0
 48
0.0
140
2.5
141
2.5
142
0.0
143
0.03937007874
144
1.0
145
0.0
146
1.0
147
0.625
148
0.0
 71
0
 72
0
 73
0
 74
0
 75
0
 76
0
 77
1
 78
8
 79
3
170
0
171
3
172
1
173
0
174
0
175
0
176
0
177
0
178
0
179
2
271
2
272
2
273
2
274
3
275
0
276
0
277
2
278
44
279
0
280
0
281
0
282
0
283
0
284
8
285
0
286
0
288
0
289
3
371
-2
372
-2
  0
ENDTAB
  0
TABLE
  2
BLOCK_RECORD
  5
518
330
0
100
AcDbSymbolTable
 70
15
  0
BLOCK_RECORD
  5
519
330
518
100
AcDbSymbolTableRecord
100
AcDbBlockTableRecord
  2
*Model_Space
 70
0
  0
BLOCK_RECORD
  5
51A
330
518
100
AcDbSymbolTableRecord
100
AcDbBlockTableRecord
  2
*Paper_Space
 70
0
  0
BLOCK_RECORD
  5
51B
330
518
100
AcDbSymbolTableRecord
100
AcDbBlockTableRecord
  2
SS_socket_single_90x90
 70
0
  0
BLOCK_RECORD
  5
51C
330
518
100
AcDbSymbolTableRecord
100
AcDbBlockTableRecord
  2
SS_socket_duplex_160x90
 70
0
  0
BLOCK_RECORD
  5
51D
330
518
100
AcDbSymbolTableRecord
100
AcDbBlockTableRecord
  2
SS_switch_single_90x90
 70
0
  0
BLOCK_RECORD
  5
51E
330
518
100
AcDbSymbolTableRecord
100
AcDbBlockTableRecord
  2
SS_junction_cable_60x60
 70
0
  0
BLOCK_RECORD
  5
51F
330
518
100
AcDbSymbolTableRecord
100
AcDbBlockTableRecord
  2
SS_junction_cable_120x120
 70
0
  0
BLOCK_RECORD
  5
520
330
518
100
AcDbSymbolTableRecord
100
AcDbBlockTableRecord
  2
SS_light_downlight_150x150
 70
0
  0
BLOCK_RECORD
  5
521
330
518
100
AcDbSymbolTableRecord
100
AcDbBlockTableRecord
  2
SS_water_point_60x60
 70
0
  0
BLOCK_RECORD
  5
522
330
518
100
AcDbSymbolTableRecord
100
AcDbBlockTableRecord
  2
SS_gas_point_60x60
 70
0
  0
BLOCK_RECORD
  5
523
330
518
100
AcDbSymbolTableRecord
100
AcDbBlockTableRecord
  2
SS_water_point_50x50
 70
0
  0
BLOCK_RECORD
  5
524
330
518
100
AcDbSymbolTableRecord
100
AcDbBlockTableRecord
  2
SS_sewage_point_100x100
 70
0
  0
BLOCK_RECORD
  5
525
330
518
100
AcDbSymbolTableRecord
100
AcDbBlockTableRecord
  2
SS_beam_200x2600
 70
0
  0
BLOCK_RECORD
  5
526
330
518
100
AcDbSymbolTableRecord
100
AcDbBlockTableRecord
  2
SS_beam_1000x600
 70
0
  0
BLOCK_RECORD
  5
527
330
518
100
AcDbSymbolTableRecord
100
AcDbBlockTableRecord
  2
SS_concealment_panel_600x50
 70
0
  0
ENDTAB
  0
ENDSEC
  0
SECTION
  2
BLOCKS
  0
BLOCK
  5
528
330
519
100
AcDbEntity
  8
0
100
AcDbBlockBegin
  2
*Model_Space
 70
0
 10
0.0000
 20
0.0000
 30
0.0000
  3
*Model_Space
  1

  0
ENDBLK
  5
529
330
519
100
AcDbEntity
  8
0
100
AcDbBlockEnd
  0
BLOCK
  5
52A
330
51A
100
AcDbEntity
  8
0
100
AcDbBlockBegin
  2
*Paper_Space
 70
0
 10
0.0000
 20
0.0000
 30
0.0000
  3
*Paper_Space
  1

  0
ENDBLK
  5
52B
330
51A
100
AcDbEntity
  8
0
100
AcDbBlockEnd
  0
BLOCK
  5
52C
330
51B
100
AcDbEntity
  8
0
100
AcDbBlockBegin
  2
SS_socket_single_90x90
 70
0
 10
0.0000
 20
0.0000
 30
0.0000
  3
SS_socket_single_90x90
  1

  0
LINE
  5
52D
  8
0
 10
0.0000
 20
0.0000
 30
0.0000
 11
0.0000
 21
25.2000
 31
0.0000
  0
LINE
  5
52E
  8
0
 10
-27.0000
 20
52.2000
 30
0.0000
 11
-26.8302
 21
55.2230
 31
0.0000
  0
LINE
  5
52F
  8
0
 10
-26.8302
 20
55.2230
 30
0.0000
 11
-26.3231
 21
58.2081
 31
0.0000
  0
LINE
  5
530
  8
0
 10
-26.3231
 20
58.2081
 30
0.0000
 11
-25.4848
 21
61.1175
 31
0.0000
  0
LINE
  5
531
  8
0
 10
-25.4848
 20
61.1175
 30
0.0000
 11
-24.3262
 21
63.9149
 31
0.0000
  0
LINE
  5
532
  8
0
 10
-24.3262
 20
63.9149
 30
0.0000
 11
-22.8616
 21
66.5649
 31
0.0000
  0
LINE
  5
533
  8
0
 10
-22.8616
 20
66.5649
 30
0.0000
 11
-21.1095
 21
69.0342
 31
0.0000
  0
LINE
  5
534
  8
0
 10
-21.1095
 20
69.0342
 30
0.0000
 11
-19.0919
 21
71.2919
 31
0.0000
  0
LINE
  5
535
  8
0
 10
-19.0919
 20
71.2919
 30
0.0000
 11
-16.8342
 21
73.3095
 31
0.0000
  0
LINE
  5
536
  8
0
 10
-16.8342
 20
73.3095
 30
0.0000
 11
-14.3649
 21
75.0616
 31
0.0000
  0
LINE
  5
537
  8
0
 10
-14.3649
 20
75.0616
 30
0.0000
 11
-11.7149
 21
76.5262
 31
0.0000
  0
LINE
  5
538
  8
0
 10
-11.7149
 20
76.5262
 30
0.0000
 11
-8.9175
 21
77.6848
 31
0.0000
  0
LINE
  5
539
  8
0
 10
-8.9175
 20
77.6848
 30
0.0000
 11
-6.0081
 21
78.5231
 31
0.0000
  0
LINE
  5
53A
  8
0
 10
-6.0081
 20
78.5231
 30
0.0000
 11
-3.0230
 21
79.0302
 31
0.0000
  0
LINE
  5
53B
  8
0
 10
-3.0230
 20
79.0302
 30
0.0000
 11
0.0000
 21
79.2000
 31
0.0000
  0
LINE
  5
53C
  8
0
 10
0.0000
 20
79.2000
 30
0.0000
 11
3.0230
 21
79.0302
 31
0.0000
  0
LINE
  5
53D
  8
0
 10
3.0230
 20
79.0302
 30
0.0000
 11
6.0081
 21
78.5231
 31
0.0000
  0
LINE
  5
53E
  8
0
 10
6.0081
 20
78.5231
 30
0.0000
 11
8.9175
 21
77.6848
 31
0.0000
  0
LINE
  5
53F
  8
0
 10
8.9175
 20
77.6848
 30
0.0000
 11
11.7149
 21
76.5262
 31
0.0000
  0
LINE
  5
540
  8
0
 10
11.7149
 20
76.5262
 30
0.0000
 11
14.3649
 21
75.0616
 31
0.0000
  0
LINE
  5
541
  8
0
 10
14.3649
 20
75.0616
 30
0.0000
 11
16.8342
 21
73.3095
 31
0.0000
  0
LINE
  5
542
  8
0
 10
16.8342
 20
73.3095
 30
0.0000
 11
19.0919
 21
71.2919
 31
0.0000
  0
LINE
  5
543
  8
0
 10
19.0919
 20
71.2919
 30
0.0000
 11
21.1095
 21
69.0342
 31
0.0000
  0
LINE
  5
544
  8
0
 10
21.1095
 20
69.0342
 30
0.0000
 11
22.8616
 21
66.5649
 31
0.0000
  0
LINE
  5
545
  8
0
 10
22.8616
 20
66.5649
 30
0.0000
 11
24.3262
 21
63.9149
 31
0.0000
  0
LINE
  5
546
  8
0
 10
24.3262
 20
63.9149
 30
0.0000
 11
25.4848
 21
61.1175
 31
0.0000
  0
LINE
  5
547
  8
0
 10
25.4848
 20
61.1175
 30
0.0000
 11
26.3231
 21
58.2081
 31
0.0000
  0
LINE
  5
548
  8
0
 10
26.3231
 20
58.2081
 30
0.0000
 11
26.8302
 21
55.2230
 31
0.0000
  0
LINE
  5
549
  8
0
 10
26.8302
 20
55.2230
 30
0.0000
 11
27.0000
 21
52.2000
 31
0.0000
  0
LINE
  5
54A
  8
0
 10
-27.0000
 20
52.2000
 30
0.0000
 11
27.0000
 21
52.2000
 31
0.0000
  0
LINE
  5
54B
  8
0
 10
0.0000
 20
52.2000
 30
0.0000
 11
0.0000
 21
33.3000
 31
0.0000
  0
ENDBLK
  5
54C
330
51B
100
AcDbEntity
  8
0
100
AcDbBlockEnd
  0
BLOCK
  5
54D
330
51C
100
AcDbEntity
  8
0
100
AcDbBlockBegin
  2
SS_socket_duplex_160x90
 70
0
 10
0.0000
 20
0.0000
 30
0.0000
  3
SS_socket_duplex_160x90
  1

  0
LINE
  5
54E
  8
0
 10
0.0000
 20
0.0000
 30
0.0000
 11
0.0000
 21
32.4000
 31
0.0000
  0
LINE
  5
54F
  8
0
 10
-72.1600
 20
52.2000
 30
0.0000
 11
-71.9387
 21
54.4169
 31
0.0000
  0
LINE
  5
550
  8
0
 10
-71.9387
 20
54.4169
 30
0.0000
 11
-71.2775
 21
56.6059
 31
0.0000
  0
LINE
  5
551
  8
0
 10
-71.2775
 20
56.6059
 30
0.0000
 11
-70.1847
 21
58.7395
 31
0.0000
  0
LINE
  5
552
  8
0
 10
-70.1847
 20
58.7395
 30
0.0000
 11
-68.6741
 21
60.7909
 31
0.0000
  0
LINE
  5
553
  8
0
 10
-68.6741
 20
60.7909
 30
0.0000
 11
-66.7647
 21
62.7342
 31
0.0000
  0
LINE
  5
554
  8
0
 10
-66.7647
 20
62.7342
 30
0.0000
 11
-64.4805
 21
64.5451
 31
0.0000
  0
LINE
  5
555
  8
0
 10
-64.4805
 20
64.5451
 30
0.0000
 11
-61.8502
 21
66.2007
 31
0.0000
  0
LINE
  5
556
  8
0
 10
-61.8502
 20
66.2007
 30
0.0000
 11
-58.9068
 21
67.6803
 31
0.0000
  0
LINE
  5
557
  8
0
 10
-58.9068
 20
67.6803
 30
0.0000
 11
-55.6875
 21
68.9651
 31
0.0000
  0
LINE
  5
558
  8
0
 10
-55.6875
 20
68.9651
 30
0.0000
 11
-52.2327
 21
70.0392
 31
0.0000
  0
LINE
  5
559
  8
0
 10
-52.2327
 20
70.0392
 30
0.0000
 11
-48.5858
 21
70.8889
 31
0.0000
  0
LINE
  5
55A
  8
0
 10
-48.5858
 20
70.8889
 30
0.0000
 11
-44.7927
 21
71.5036
 31
0.0000
  0
LINE
  5
55B
  8
0
 10
-44.7927
 20
71.5036
 30
0.0000
 11
-40.9011
 21
71.8755
 31
0.0000
  0
LINE
  5
55C
  8
0
 10
-40.9011
 20
71.8755
 30
0.0000
 11
-36.9600
 21
72.0000
 31
0.0000
  0
LINE
  5
55D
  8
0
 10
-36.9600
 20
72.0000
 30
0.0000
 11
-33.0189
 21
71.8755
 31
0.0000
  0
LINE
  5
55E
  8
0
 10
-33.0189
 20
71.8755
 30
0.0000
 11
-29.1273
 21
71.5036
 31
0.0000
  0
LINE
  5
55F
  8
0
 10
-29.1273
 20
71.5036
 30
0.0000
 11
-25.3342
 21
70.8889
 31
0.0000
  0
LINE
  5
560
  8
0
 10
-25.3342
 20
70.8889
 30
0.0000
 11
-21.6873
 21
70.0392
 31
0.0000
  0
LINE
  5
561
  8
0
 10
-21.6873
 20
70.0392
 30
0.0000
 11
-18.2325
 21
68.9651
 31
0.0000
  0
LINE
  5
562
  8
0
 10
-18.2325
 20
68.9651
 30
0.0000
 11
-15.0132
 21
67.6803
 31
0.0000
  0
LINE
  5
563
  8
0
 10
-15.0132
 20
67.6803
 30
0.0000
 11
-12.0698
 21
66.2007
 31
0.0000
  0
LINE
  5
564
  8
0
 10
-12.0698
 20
66.2007
 30
0.0000
 11
-9.4395
 21
64.5451
 31
0.0000
  0
LINE
  5
565
  8
0
 10
-9.4395
 20
64.5451
 30
0.0000
 11
-7.1553
 21
62.7342
 31
0.0000
  0
LINE
  5
566
  8
0
 10
-7.1553
 20
62.7342
 30
0.0000
 11
-5.2459
 21
60.7909
 31
0.0000
  0
LINE
  5
567
  8
0
 10
-5.2459
 20
60.7909
 30
0.0000
 11
-3.7353
 21
58.7395
 31
0.0000
  0
LINE
  5
568
  8
0
 10
-3.7353
 20
58.7395
 30
0.0000
 11
-2.6425
 21
56.6059
 31
0.0000
  0
LINE
  5
569
  8
0
 10
-2.6425
 20
56.6059
 30
0.0000
 11
-1.9813
 21
54.4169
 31
0.0000
  0
LINE
  5
56A
  8
0
 10
-1.9813
 20
54.4169
 30
0.0000
 11
-1.7600
 21
52.2000
 31
0.0000
  0
LINE
  5
56B
  8
0
 10
-72.1600
 20
52.2000
 30
0.0000
 11
-1.7600
 21
52.2000
 31
0.0000
  0
LINE
  5
56C
  8
0
 10
-36.9600
 20
52.2000
 30
0.0000
 11
-36.9600
 21
38.3400
 31
0.0000
  0
LINE
  5
56D
  8
0
 10
1.7600
 20
52.2000
 30
0.0000
 11
1.9813
 21
54.4169
 31
0.0000
  0
LINE
  5
56E
  8
0
 10
1.9813
 20
54.4169
 30
0.0000
 11
2.6425
 21
56.6059
 31
0.0000
  0
LINE
  5
56F
  8
0
 10
2.6425
 20
56.6059
 30
0.0000
 11
3.7353
 21
58.7395
 31
0.0000
  0
LINE
  5
570
  8
0
 10
3.7353
 20
58.7395
 30
0.0000
 11
5.2459
 21
60.7909
 31
0.0000
  0
LINE
  5
571
  8
0
 10
5.2459
 20
60.7909
 30
0.0000
 11
7.1553
 21
62.7342
 31
0.0000
  0
LINE
  5
572
  8
0
 10
7.1553
 20
62.7342
 30
0.0000
 11
9.4395
 21
64.5451
 31
0.0000
  0
LINE
  5
573
  8
0
 10
9.4395
 20
64.5451
 30
0.0000
 11
12.0698
 21
66.2007
 31
0.0000
  0
LINE
  5
574
  8
0
 10
12.0698
 20
66.2007
 30
0.0000
 11
15.0132
 21
67.6803
 31
0.0000
  0
LINE
  5
575
  8
0
 10
15.0132
 20
67.6803
 30
0.0000
 11
18.2325
 21
68.9651
 31
0.0000
  0
LINE
  5
576
  8
0
 10
18.2325
 20
68.9651
 30
0.0000
 11
21.6873
 21
70.0392
 31
0.0000
  0
LINE
  5
577
  8
0
 10
21.6873
 20
70.0392
 30
0.0000
 11
25.3342
 21
70.8889
 31
0.0000
  0
LINE
  5
578
  8
0
 10
25.3342
 20
70.8889
 30
0.0000
 11
29.1273
 21
71.5036
 31
0.0000
  0
LINE
  5
579
  8
0
 10
29.1273
 20
71.5036
 30
0.0000
 11
33.0189
 21
71.8755
 31
0.0000
  0
LINE
  5
57A
  8
0
 10
33.0189
 20
71.8755
 30
0.0000
 11
36.9600
 21
72.0000
 31
0.0000
  0
LINE
  5
57B
  8
0
 10
36.9600
 20
72.0000
 30
0.0000
 11
40.9011
 21
71.8755
 31
0.0000
  0
LINE
  5
57C
  8
0
 10
40.9011
 20
71.8755
 30
0.0000
 11
44.7927
 21
71.5036
 31
0.0000
  0
LINE
  5
57D
  8
0
 10
44.7927
 20
71.5036
 30
0.0000
 11
48.5858
 21
70.8889
 31
0.0000
  0
LINE
  5
57E
  8
0
 10
48.5858
 20
70.8889
 30
0.0000
 11
52.2327
 21
70.0392
 31
0.0000
  0
LINE
  5
57F
  8
0
 10
52.2327
 20
70.0392
 30
0.0000
 11
55.6875
 21
68.9651
 31
0.0000
  0
LINE
  5
580
  8
0
 10
55.6875
 20
68.9651
 30
0.0000
 11
58.9068
 21
67.6803
 31
0.0000
  0
LINE
  5
581
  8
0
 10
58.9068
 20
67.6803
 30
0.0000
 11
61.8502
 21
66.2007
 31
0.0000
  0
LINE
  5
582
  8
0
 10
61.8502
 20
66.2007
 30
0.0000
 11
64.4805
 21
64.5451
 31
0.0000
  0
LINE
  5
583
  8
0
 10
64.4805
 20
64.5451
 30
0.0000
 11
66.7647
 21
62.7342
 31
0.0000
  0
LINE
  5
584
  8
0
 10
66.7647
 20
62.7342
 30
0.0000
 11
68.6741
 21
60.7909
 31
0.0000
  0
LINE
  5
585
  8
0
 10
68.6741
 20
60.7909
 30
0.0000
 11
70.1847
 21
58.7395
 31
0.0000
  0
LINE
  5
586
  8
0
 10
70.1847
 20
58.7395
 30
0.0000
 11
71.2775
 21
56.6059
 31
0.0000
  0
LINE
  5
587
  8
0
 10
71.2775
 20
56.6059
 30
0.0000
 11
71.9387
 21
54.4169
 31
0.0000
  0
LINE
  5
588
  8
0
 10
71.9387
 20
54.4169
 30
0.0000
 11
72.1600
 21
52.2000
 31
0.0000
  0
LINE
  5
589
  8
0
 10
1.7600
 20
52.2000
 30
0.0000
 11
72.1600
 21
52.2000
 31
0.0000
  0
LINE
  5
58A
  8
0
 10
36.9600
 20
52.2000
 30
0.0000
 11
36.9600
 21
38.3400
 31
0.0000
  0
ENDBLK
  5
58B
330
51C
100
AcDbEntity
  8
0
100
AcDbBlockEnd
  0
BLOCK
  5
58C
330
51D
100
AcDbEntity
  8
0
100
AcDbBlockBegin
  2
SS_switch_single_90x90
 70
0
 10
0.0000
 20
0.0000
 30
0.0000
  3
SS_switch_single_90x90
  1

  0
LINE
  5
58D
  8
0
 10
0.0000
 20
0.0000
 30
0.0000
 11
0.0000
 21
34.2000
 31
0.0000
  0
ARC
  5
58E
  8
0
 10
0.0000
 20
45.0000
 30
0.0000
 40
10.8000
 50
0.0000
 51
360.0000
  0
LINE
  5
58F
  8
0
 10
8.1000
 20
49.3200
 30
0.0000
 11
32.4000
 21
75.6000
 31
0.0000
  0
ENDBLK
  5
590
330
51D
100
AcDbEntity
  8
0
100
AcDbBlockEnd
  0
BLOCK
  5
591
330
51E
100
AcDbEntity
  8
0
100
AcDbBlockBegin
  2
SS_junction_cable_60x60
 70
0
 10
0.0000
 20
0.0000
 30
0.0000
  3
SS_junction_cable_60x60
  1

  0
LINE
  5
592
  8
0
 10
0.0000
 20
0.0000
 30
0.0000
 11
0.0000
 21
46.8000
 31
0.0000
  0
ARC
  5
593
  8
0
 10
0.0000
 20
28.8000
 30
0.0000
 40
19.2000
 50
0.0000
 51
360.0000
  0
LINE
  5
594
  8
0
 10
0.0000
 20
28.8000
 30
0.0000
 11
-13.2000
 21
42.0000
 31
0.0000
  0
LINE
  5
595
  8
0
 10
0.0000
 20
28.8000
 30
0.0000
 11
13.2000
 21
42.0000
 31
0.0000
  0
LINE
  5
596
  8
0
 10
0.0000
 20
28.8000
 30
0.0000
 11
-13.2000
 21
15.6000
 31
0.0000
  0
LINE
  5
597
  8
0
 10
0.0000
 20
28.8000
 30
0.0000
 11
13.2000
 21
15.6000
 31
0.0000
  0
ENDBLK
  5
598
330
51E
100
AcDbEntity
  8
0
100
AcDbBlockEnd
  0
BLOCK
  5
599
330
51F
100
AcDbEntity
  8
0
100
AcDbBlockBegin
  2
SS_junction_cable_120x120
 70
0
 10
0.0000
 20
0.0000
 30
0.0000
  3
SS_junction_cable_120x120
  1

  0
LINE
  5
59A
  8
0
 10
0.0000
 20
0.0000
 30
0.0000
 11
0.0000
 21
93.6000
 31
0.0000
  0
ARC
  5
59B
  8
0
 10
0.0000
 20
57.6000
 30
0.0000
 40
38.4000
 50
0.0000
 51
360.0000
  0
LINE
  5
59C
  8
0
 10
0.0000
 20
57.6000
 30
0.0000
 11
-26.4000
 21
84.0000
 31
0.0000
  0
LINE
  5
59D
  8
0
 10
0.0000
 20
57.6000
 30
0.0000
 11
26.4000
 21
84.0000
 31
0.0000
  0
LINE
  5
59E
  8
0
 10
0.0000
 20
57.6000
 30
0.0000
 11
-26.4000
 21
31.2000
 31
0.0000
  0
LINE
  5
59F
  8
0
 10
0.0000
 20
57.6000
 30
0.0000
 11
26.4000
 21
31.2000
 31
0.0000
  0
ENDBLK
  5
5A0
330
51F
100
AcDbEntity
  8
0
100
AcDbBlockEnd
  0
BLOCK
  5
5A1
330
520
100
AcDbEntity
  8
0
100
AcDbBlockBegin
  2
SS_light_downlight_150x150
 70
0
 10
0.0000
 20
0.0000
 30
0.0000
  3
SS_light_downlight_150x150
  1

  0
ARC
  5
5A2
  8
0
 10
0.0000
 20
75.0000
 30
0.0000
 40
45.0000
 50
0.0000
 51
360.0000
  0
LINE
  5
5A3
  8
0
 10
-31.5000
 20
106.5000
 30
0.0000
 11
31.5000
 21
43.5000
 31
0.0000
  0
LINE
  5
5A4
  8
0
 10
31.5000
 20
106.5000
 30
0.0000
 11
-31.5000
 21
43.5000
 31
0.0000
  0
ENDBLK
  5
5A5
330
520
100
AcDbEntity
  8
0
100
AcDbBlockEnd
  0
BLOCK
  5
5A6
330
521
100
AcDbEntity
  8
0
100
AcDbBlockBegin
  2
SS_water_point_60x60
 70
0
 10
0.0000
 20
0.0000
 30
0.0000
  3
SS_water_point_60x60
  1

  0
LINE
  5
5A7
  8
0
 10
0.0000
 20
0.0000
 30
0.0000
 11
0.0000
 21
13.2000
 31
0.0000
  0
ARC
  5
5A8
  8
0
 10
0.0000
 20
30.0000
 30
0.0000
 40
16.8000
 50
0.0000
 51
360.0000
  0
LINE
  5
5A9
  8
0
 10
-13.2000
 20
30.0000
 30
0.0000
 11
13.2000
 21
30.0000
 31
0.0000
  0
LINE
  5
5AA
  8
0
 10
0.0000
 20
43.2000
 30
0.0000
 11
0.0000
 21
16.8000
 31
0.0000
  0
ENDBLK
  5
5AB
330
521
100
AcDbEntity
  8
0
100
AcDbBlockEnd
  0
BLOCK
  5
5AC
330
522
100
AcDbEntity
  8
0
100
AcDbBlockBegin
  2
SS_gas_point_60x60
 70
0
 10
0.0000
 20
0.0000
 30
0.0000
  3
SS_gas_point_60x60
  1

  0
LINE
  5
5AD
  8
0
 10
0.0000
 20
0.0000
 30
0.0000
 11
0.0000
 21
12.0000
 31
0.0000
  0
LINE
  5
5AE
  8
0
 10
0.0000
 20
48.0000
 30
0.0000
 11
15.6000
 21
39.0000
 31
0.0000
  0
LINE
  5
5AF
  8
0
 10
15.6000
 20
39.0000
 30
0.0000
 11
15.6000
 21
21.0000
 31
0.0000
  0
LINE
  5
5B0
  8
0
 10
15.6000
 20
21.0000
 30
0.0000
 11
0.0000
 21
12.0000
 31
0.0000
  0
LINE
  5
5B1
  8
0
 10
0.0000
 20
12.0000
 30
0.0000
 11
-15.6000
 21
21.0000
 31
0.0000
  0
LINE
  5
5B2
  8
0
 10
-15.6000
 20
21.0000
 30
0.0000
 11
-15.6000
 21
39.0000
 31
0.0000
  0
LINE
  5
5B3
  8
0
 10
-15.6000
 20
39.0000
 30
0.0000
 11
0.0000
 21
48.0000
 31
0.0000
  0
TEXT
  5
5B4
  8
0
 10
0.0000
 20
30.0000
 30
0.0000
 40
24.0000
  1
G
 50
0.0000
  7
SOLINE
 72
1
 73
2
 11
0.0000
 21
30.0000
 31
0.0000
  0
ENDBLK
  5
5B5
330
522
100
AcDbEntity
  8
0
100
AcDbBlockEnd
  0
BLOCK
  5
5B6
330
523
100
AcDbEntity
  8
0
100
AcDbBlockBegin
  2
SS_water_point_50x50
 70
0
 10
0.0000
 20
0.0000
 30
0.0000
  3
SS_water_point_50x50
  1

  0
LINE
  5
5B7
  8
0
 10
0.0000
 20
0.0000
 30
0.0000
 11
0.0000
 21
11.0000
 31
0.0000
  0
ARC
  5
5B8
  8
0
 10
0.0000
 20
25.0000
 30
0.0000
 40
14.0000
 50
0.0000
 51
360.0000
  0
LINE
  5
5B9
  8
0
 10
-11.0000
 20
25.0000
 30
0.0000
 11
11.0000
 21
25.0000
 31
0.0000
  0
LINE
  5
5BA
  8
0
 10
0.0000
 20
36.0000
 30
0.0000
 11
0.0000
 21
14.0000
 31
0.0000
  0
ENDBLK
  5
5BB
330
523
100
AcDbEntity
  8
0
100
AcDbBlockEnd
  0
BLOCK
  5
5BC
330
524
100
AcDbEntity
  8
0
100
AcDbBlockBegin
  2
SS_sewage_point_100x100
 70
0
 10
0.0000
 20
0.0000
 30
0.0000
  3
SS_sewage_point_100x100
  1

  0
LINE
  5
5BD
  8
0
 10
0.0000
 20
0.0000
 30
0.0000
 11
0.0000
 21
72.0000
 31
0.0000
  0
ARC
  5
5BE
  8
0
 10
0.0000
 20
50.0000
 30
0.0000
 40
30.0000
 50
0.0000
 51
360.0000
  0
LINE
  5
5BF
  8
0
 10
-20.0000
 20
50.0000
 30
0.0000
 11
-10.0000
 21
58.0000
 31
0.0000
  0
LINE
  5
5C0
  8
0
 10
-10.0000
 20
58.0000
 30
0.0000
 11
0.0000
 21
50.0000
 31
0.0000
  0
LINE
  5
5C1
  8
0
 10
0.0000
 20
50.0000
 30
0.0000
 11
10.0000
 21
42.0000
 31
0.0000
  0
LINE
  5
5C2
  8
0
 10
10.0000
 20
42.0000
 30
0.0000
 11
20.0000
 21
50.0000
 31
0.0000
  0
ENDBLK
  5
5C3
330
524
100
AcDbEntity
  8
0
100
AcDbBlockEnd
  0
BLOCK
  5
5C4
330
525
100
AcDbEntity
  8
0
100
AcDbBlockBegin
  2
SS_beam_200x2600
 70
0
 10
0.0000
 20
0.0000
 30
0.0000
  3
SS_beam_200x2600
  1

  0
LINE
  5
5C5
  8
0
 10
-100.0000
 20
1612.0000
 30
0.0000
 11
100.0000
 21
1612.0000
 31
0.0000
  0
LINE
  5
5C6
  8
0
 10
100.0000
 20
1612.0000
 30
0.0000
 11
100.0000
 21
988.0000
 31
0.0000
  0
LINE
  5
5C7
  8
0
 10
100.0000
 20
988.0000
 30
0.0000
 11
-100.0000
 21
988.0000
 31
0.0000
  0
LINE
  5
5C8
  8
0
 10
-100.0000
 20
988.0000
 30
0.0000
 11
-100.0000
 21
1612.0000
 31
0.0000
  0
ENDBLK
  5
5C9
330
525
100
AcDbEntity
  8
0
100
AcDbBlockEnd
  0
BLOCK
  5
5CA
330
526
100
AcDbEntity
  8
0
100
AcDbBlockBegin
  2
SS_beam_1000x600
 70
0
 10
0.0000
 20
0.0000
 30
0.0000
  3
SS_beam_1000x600
  1

  0
LINE
  5
5CB
  8
0
 10
-500.0000
 20
372.0000
 30
0.0000
 11
500.0000
 21
372.0000
 31
0.0000
  0
LINE
  5
5CC
  8
0
 10
500.0000
 20
372.0000
 30
0.0000
 11
500.0000
 21
228.0000
 31
0.0000
  0
LINE
  5
5CD
  8
0
 10
500.0000
 20
228.0000
 30
0.0000
 11
-500.0000
 21
228.0000
 31
0.0000
  0
LINE
  5
5CE
  8
0
 10
-500.0000
 20
228.0000
 30
0.0000
 11
-500.0000
 21
372.0000
 31
0.0000
  0
ENDBLK
  5
5CF
330
526
100
AcDbEntity
  8
0
100
AcDbBlockEnd
  0
BLOCK
  5
5D0
330
527
100
AcDbEntity
  8
0
100
AcDbBlockBegin
  2
SS_concealment_panel_600x50
 70
0
 10
0.0000
 20
0.0000
 30
0.0000
  3
SS_concealment_panel_600x50
  1

  0
LINE
  5
5D1
  8
0
 10
-216.0000
 20
43.0000
 30
0.0000
 11
216.0000
 21
43.0000
 31
0.0000
  0
LINE
  5
5D2
  8
0
 10
216.0000
 20
43.0000
 30
0.0000
 11
216.0000
 21
7.0000
 31
0.0000
  0
LINE
  5
5D3
  8
0
 10
216.0000
 20
7.0000
 30
0.0000
 11
-216.0000
 21
7.0000
 31
0.0000
  0
LINE
  5
5D4
  8
0
 10
-216.0000
 20
7.0000
 30
0.0000
 11
-216.0000
 21
43.0000
 31
0.0000
  0
LINE
  5
5D5
  8
0
 10
180.0000
 20
28.0000
 30
0.0000
 11
216.0000
 21
25.0000
 31
0.0000
  0
LINE
  5
5D6
  8
0
 10
216.0000
 20
25.0000
 30
0.0000
 11
180.0000
 21
22.0000
 31
0.0000
  0
ENDBLK
  5
5D7
330
527
100
AcDbEntity
  8
0
100
AcDbBlockEnd
  0
ENDSEC
  0
SECTION
  2
ENTITIES
  0
SOLID
  5
100
  8
SOL-KIROT-HAT
 10
-100.0000
 20
100.0000
 30
0.0000
 11
4100.0000
 21
100.0000
 31
0.0000
 12
0.0000
 22
0.0000
 32
0.0000
 13
4000.0000
 23
0.0000
 33
0.0000
  0
LINE
  5
101
  8
SOL-KIROT-SYM
 10
-100.0000
 20
100.0000
 30
0.0000
 11
4100.0000
 21
100.0000
 31
0.0000
  0
LINE
  5
102
  8
SOL-KIROT-SYM
 10
0.0000
 20
0.0000
 30
0.0000
 11
4000.0000
 21
0.0000
 31
0.0000
  0
SOLID
  5
103
  8
SOL-KIROT-HAT
 10
4100.0000
 20
100.0000
 30
0.0000
 11
4100.0000
 21
-3100.0000
 31
0.0000
 12
4000.0000
 22
0.0000
 32
0.0000
 13
4000.0000
 23
-3000.0000
 33
0.0000
  0
LINE
  5
104
  8
SOL-KIROT-SYM
 10
4100.0000
 20
100.0000
 30
0.0000
 11
4100.0000
 21
-3100.0000
 31
0.0000
  0
LINE
  5
105
  8
SOL-KIROT-SYM
 10
4000.0000
 20
0.0000
 30
0.0000
 11
4000.0000
 21
-3000.0000
 31
0.0000
  0
SOLID
  5
106
  8
SOL-KIROT-HAT
 10
4100.0000
 20
-3100.0000
 30
0.0000
 11
-100.0000
 21
-3100.0000
 31
0.0000
 12
4000.0000
 22
-3000.0000
 32
0.0000
 13
0.0000
 23
-3000.0000
 33
0.0000
  0
LINE
  5
107
  8
SOL-KIROT-SYM
 10
4100.0000
 20
-3100.0000
 30
0.0000
 11
-100.0000
 21
-3100.0000
 31
0.0000
  0
LINE
  5
108
  8
SOL-KIROT-SYM
 10
4000.0000
 20
-3000.0000
 30
0.0000
 11
0.0000
 21
-3000.0000
 31
0.0000
  0
SOLID
  5
109
  8
SOL-KIROT-HAT
 10
-100.0000
 20
-3100.0000
 30
0.0000
 11
-100.0000
 21
100.0000
 31
0.0000
 12
0.0000
 22
-3000.0000
 32
0.0000
 13
0.0000
 23
0.0000
 33
0.0000
  0
LINE
  5
10A
  8
SOL-KIROT-SYM
 10
-100.0000
 20
-3100.0000
 30
0.0000
 11
-100.0000
 21
100.0000
 31
0.0000
  0
LINE
  5
10B
  8
SOL-KIROT-SYM
 10
0.0000
 20
-3000.0000
 30
0.0000
 11
0.0000
 21
0.0000
 31
0.0000
  0
LINE
  5
10C
  8
SOL-CHALON-SYM
 10
3500.0000
 20
-2950.0000
 30
0.0000
 11
2500.0000
 21
-2950.0000
 31
0.0000
  0
LINE
  5
10D
  8
SOL-CHALON-SYM
 10
2500.0000
 20
-2950.0000
 30
0.0000
 11
2500.0000
 21
-3050.0000
 31
0.0000
  0
LINE
  5
10E
  8
SOL-CHALON-SYM
 10
2500.0000
 20
-3050.0000
 30
0.0000
 11
3500.0000
 21
-3050.0000
 31
0.0000
  0
LINE
  5
10F
  8
SOL-CHALON-SYM
 10
3500.0000
 20
-3050.0000
 30
0.0000
 11
3500.0000
 21
-2950.0000
 31
0.0000
  0
LINE
  5
110
  8
SOL-CHALON-SYM
 10
3450.0000
 20
-2950.0000
 30
0.0000
 11
3450.0000
 21
-3050.0000
 31
0.0000
  0
LINE
  5
111
  8
SOL-CHALON-SYM
 10
2550.0000
 20
-2950.0000
 30
0.0000
 11
2550.0000
 21
-3050.0000
 31
0.0000
  0
LINE
  5
112
  8
SOL-CHALON-SYM
 10
3450.0000
 20
-3000.0000
 30
0.0000
 11
2550.0000
 21
-3000.0000
 31
0.0000
  0
LINE
  5
113
  8
SOL-CHALON-SYM
 10
3450.0000
 20
-3000.0000
 30
0.0000
 11
2550.0000
 21
-3000.0000
 31
0.0000
  0
LINE
  5
114
  8
SOL-CHALON-SYM
 10
3450.0000
 20
-3000.0000
 30
0.0000
 11
2550.0000
 21
-3000.0000
 31
0.0000
  0
LINE
  5
115
  8
SOL-CHALON-DIM
 10
3500.0000
 20
-3095.0000
 30
0.0000
 11
3500.0000
 21
-3297.5000
 31
0.0000
  0
LINE
  5
116
  8
SOL-CHALON-DIM
 10
2500.0000
 20
-3095.0000
 30
0.0000
 11
2500.0000
 21
-3297.5000
 31
0.0000
  0
LINE
  5
117
  8
SOL-CHALON-DIM
 10
3500.0000
 20
-3230.0000
 30
0.0000
 11
2500.0000
 21
-3230.0000
 31
0.0000
  0
SOLID
  5
118
  8
SOL-CHALON-DIM
 10
3500.0000
 20
-3230.0000
 30
0.0000
 11
3629.3750
 21
-3266.0000
 31
0.0000
 12
3629.3750
 22
-3194.0000
 32
0.0000
 13
3629.3750
 23
-3194.0000
 33
0.0000
  0
SOLID
  5
119
  8
SOL-CHALON-DIM
 10
2500.0000
 20
-3230.0000
 30
0.0000
 11
2370.6250
 21
-3266.0000
 31
0.0000
 12
2370.6250
 22
-3194.0000
 32
0.0000
 13
2370.6250
 23
-3194.0000
 33
0.0000
  0
TEXT
  5
11A
  8
SOL-CHALON-DIM
 10
3000.0000
 20
-3336.8750
 30
0.0000
 40
112.5000
  1
100
 50
360.0000
  7
SOLINE
 72
1
 73
2
 11
3000.0000
 21
-3336.8750
 31
0.0000
  0
LINE
  5
11B
  8
SOL-CHALON-DIM
 10
4000.0000
 20
-3041.0000
 30
0.0000
 11
4000.0000
 21
-3401.5000
 31
0.0000
  0
LINE
  5
11C
  8
SOL-CHALON-DIM
 10
3500.0000
 20
-3041.0000
 30
0.0000
 11
3500.0000
 21
-3401.5000
 31
0.0000
  0
LINE
  5
11D
  8
SOL-CHALON-DIM
 10
4000.0000
 20
-3340.0000
 30
0.0000
 11
3500.0000
 21
-3340.0000
 31
0.0000
  0
SOLID
  5
11E
  8
SOL-CHALON-DIM
 10
4000.0000
 20
-3340.0000
 30
0.0000
 11
4117.8750
 21
-3372.8000
 31
0.0000
 12
4117.8750
 22
-3307.2000
 32
0.0000
 13
4117.8750
 23
-3307.2000
 33
0.0000
  0
SOLID
  5
11F
  8
SOL-CHALON-DIM
 10
3500.0000
 20
-3340.0000
 30
0.0000
 11
3382.1250
 21
-3372.8000
 31
0.0000
 12
3382.1250
 22
-3307.2000
 32
0.0000
 13
3382.1250
 23
-3307.2000
 33
0.0000
  0
TEXT
  5
120
  8
SOL-CHALON-DIM
 10
3750.0000
 20
-3437.3750
 30
0.0000
 40
102.5000
  1
50
 50
360.0000
  7
SOLINE
 72
1
 73
2
 11
3750.0000
 21
-3437.3750
 31
0.0000
  0
TEXT
  5
121
  8
SOL-CHALON-TXT
 10
3000.0000
 20
-3225.0000
 30
0.0000
 40
125.0000
  1
W1
 50
0.0000
  7
SOLINE
 72
1
 73
2
 11
3000.0000
 21
-3225.0000
 31
0.0000
  0
LINE
  5
122
  8
SOL-DELET-SYM
 10
2750.0000
 20
-2950.0000
 30
0.0000
 11
1850.0000
 21
-2950.0000
 31
0.0000
  0
LINE
  5
123
  8
SOL-DELET-SYM
 10
1850.0000
 20
-2950.0000
 30
0.0000
 11
1850.0000
 21
-3050.0000
 31
0.0000
  0
LINE
  5
124
  8
SOL-DELET-SYM
 10
1850.0000
 20
-3050.0000
 30
0.0000
 11
2750.0000
 21
-3050.0000
 31
0.0000
  0
LINE
  5
125
  8
SOL-DELET-SYM
 10
2750.0000
 20
-3050.0000
 30
0.0000
 11
2750.0000
 21
-2950.0000
 31
0.0000
  0
LINE
  5
126
  8
SOL-DELET-SYM
 10
2710.0000
 20
-2950.0000
 30
0.0000
 11
2710.0000
 21
-3050.0000
 31
0.0000
  0
LINE
  5
127
  8
SOL-DELET-SYM
 10
1890.0000
 20
-2950.0000
 30
0.0000
 11
1890.0000
 21
-3050.0000
 31
0.0000
  0
LINE
  5
128
  8
SOL-DELET-SYM
 10
2710.0000
 20
-3000.0000
 30
0.0000
 11
1890.0000
 21
-3000.0000
 31
0.0000
  0
LINE
  5
129
  8
SOL-DELET-DIM
 10
2750.0000
 20
-3095.0000
 30
0.0000
 11
2750.0000
 21
-3297.5000
 31
0.0000
  0
LINE
  5
12A
  8
SOL-DELET-DIM
 10
1850.0000
 20
-3095.0000
 30
0.0000
 11
1850.0000
 21
-3297.5000
 31
0.0000
  0
LINE
  5
12B
  8
SOL-DELET-DIM
 10
2750.0000
 20
-3230.0000
 30
0.0000
 11
1850.0000
 21
-3230.0000
 31
0.0000
  0
SOLID
  5
12C
  8
SOL-DELET-DIM
 10
2750.0000
 20
-3230.0000
 30
0.0000
 11
2879.3750
 21
-3266.0000
 31
0.0000
 12
2879.3750
 22
-3194.0000
 32
0.0000
 13
2879.3750
 23
-3194.0000
 33
0.0000
  0
SOLID
  5
12D
  8
SOL-DELET-DIM
 10
1850.0000
 20
-3230.0000
 30
0.0000
 11
1720.6250
 21
-3266.0000
 31
0.0000
 12
1720.6250
 22
-3194.0000
 32
0.0000
 13
1720.6250
 23
-3194.0000
 33
0.0000
  0
TEXT
  5
12E
  8
SOL-DELET-DIM
 10
2300.0000
 20
-3336.8750
 30
0.0000
 40
112.5000
  1
90
 50
360.0000
  7
SOLINE
 72
1
 73
2
 11
2300.0000
 21
-3336.8750
 31
0.0000
  0
LINE
  5
12F
  8
SOL-DELET-DIM
 10
4000.0000
 20
-3041.0000
 30
0.0000
 11
4000.0000
 21
-3401.5000
 31
0.0000
  0
LINE
  5
130
  8
SOL-DELET-DIM
 10
2750.0000
 20
-3041.0000
 30
0.0000
 11
2750.0000
 21
-3401.5000
 31
0.0000
  0
LINE
  5
131
  8
SOL-DELET-DIM
 10
4000.0000
 20
-3340.0000
 30
0.0000
 11
2750.0000
 21
-3340.0000
 31
0.0000
  0
SOLID
  5
132
  8
SOL-DELET-DIM
 10
4000.0000
 20
-3340.0000
 30
0.0000
 11
4117.8750
 21
-3372.8000
 31
0.0000
 12
4117.8750
 22
-3307.2000
 32
0.0000
 13
4117.8750
 23
-3307.2000
 33
0.0000
  0
SOLID
  5
133
  8
SOL-DELET-DIM
 10
2750.0000
 20
-3340.0000
 30
0.0000
 11
2632.1250
 21
-3372.8000
 31
0.0000
 12
2632.1250
 22
-3307.2000
 32
0.0000
 13
2632.1250
 23
-3307.2000
 33
0.0000
  0
TEXT
  5
134
  8
SOL-DELET-DIM
 10
3375.0000
 20
-3437.3750
 30
0.0000
 40
102.5000
  1
125
 50
360.0000
  7
SOLINE
 72
1
 73
2
 11
3375.0000
 21
-3437.3750
 31
0.0000
  0
TEXT
  5
135
  8
SOL-DELET-TXT
 10
2300.0000
 20
-3225.0000
 30
0.0000
 40
125.0000
  1
D1
 50
0.0000
  7
SOLINE
 72
1
 73
2
 11
2300.0000
 21
-3225.0000
 31
0.0000
  0
LINE
  5
136
  8
SOL-DELET-SYM
 10
2050.0000
 20
-2950.0000
 30
0.0000
 11
1150.0000
 21
-2950.0000
 31
0.0000
  0
LINE
  5
137
  8
SOL-DELET-SYM
 10
1150.0000
 20
-2950.0000
 30
0.0000
 11
1150.0000
 21
-3050.0000
 31
0.0000
  0
LINE
  5
138
  8
SOL-DELET-SYM
 10
1150.0000
 20
-3050.0000
 30
0.0000
 11
2050.0000
 21
-3050.0000
 31
0.0000
  0
LINE
  5
139
  8
SOL-DELET-SYM
 10
2050.0000
 20
-3050.0000
 30
0.0000
 11
2050.0000
 21
-2950.0000
 31
0.0000
  0
LINE
  5
13A
  8
SOL-DELET-SYM
 10
2010.0000
 20
-2950.0000
 30
0.0000
 11
2010.0000
 21
-3050.0000
 31
0.0000
  0
LINE
  5
13B
  8
SOL-DELET-SYM
 10
1190.0000
 20
-2950.0000
 30
0.0000
 11
1190.0000
 21
-3050.0000
 31
0.0000
  0
LINE
  5
13C
  8
SOL-DELET-SYM
 10
2010.0000
 20
-3000.0000
 30
0.0000
 11
1190.0000
 21
-3000.0000
 31
0.0000
  0
LINE
  5
13D
  8
SOL-DELET-DIM
 10
2050.0000
 20
-3095.0000
 30
0.0000
 11
2050.0000
 21
-3297.5000
 31
0.0000
  0
LINE
  5
13E
  8
SOL-DELET-DIM
 10
1150.0000
 20
-3095.0000
 30
0.0000
 11
1150.0000
 21
-3297.5000
 31
0.0000
  0
LINE
  5
13F
  8
SOL-DELET-DIM
 10
2050.0000
 20
-3230.0000
 30
0.0000
 11
1150.0000
 21
-3230.0000
 31
0.0000
  0
SOLID
  5
140
  8
SOL-DELET-DIM
 10
2050.0000
 20
-3230.0000
 30
0.0000
 11
2179.3750
 21
-3266.0000
 31
0.0000
 12
2179.3750
 22
-3194.0000
 32
0.0000
 13
2179.3750
 23
-3194.0000
 33
0.0000
  0
SOLID
  5
141
  8
SOL-DELET-DIM
 10
1150.0000
 20
-3230.0000
 30
0.0000
 11
1020.6250
 21
-3266.0000
 31
0.0000
 12
1020.6250
 22
-3194.0000
 32
0.0000
 13
1020.6250
 23
-3194.0000
 33
0.0000
  0
TEXT
  5
142
  8
SOL-DELET-DIM
 10
1600.0000
 20
-3336.8750
 30
0.0000
 40
112.5000
  1
90
 50
360.0000
  7
SOLINE
 72
1
 73
2
 11
1600.0000
 21
-3336.8750
 31
0.0000
  0
LINE
  5
143
  8
SOL-DELET-DIM
 10
4000.0000
 20
-3041.0000
 30
0.0000
 11
4000.0000
 21
-3401.5000
 31
0.0000
  0
LINE
  5
144
  8
SOL-DELET-DIM
 10
2050.0000
 20
-3041.0000
 30
0.0000
 11
2050.0000
 21
-3401.5000
 31
0.0000
  0
LINE
  5
145
  8
SOL-DELET-DIM
 10
4000.0000
 20
-3340.0000
 30
0.0000
 11
2050.0000
 21
-3340.0000
 31
0.0000
  0
SOLID
  5
146
  8
SOL-DELET-DIM
 10
4000.0000
 20
-3340.0000
 30
0.0000
 11
4117.8750
 21
-3372.8000
 31
0.0000
 12
4117.8750
 22
-3307.2000
 32
0.0000
 13
4117.8750
 23
-3307.2000
 33
0.0000
  0
SOLID
  5
147
  8
SOL-DELET-DIM
 10
2050.0000
 20
-3340.0000
 30
0.0000
 11
1932.1250
 21
-3372.8000
 31
0.0000
 12
1932.1250
 22
-3307.2000
 32
0.0000
 13
1932.1250
 23
-3307.2000
 33
0.0000
  0
TEXT
  5
148
  8
SOL-DELET-DIM
 10
3025.0000
 20
-3437.3750
 30
0.0000
 40
102.5000
  1
195
 50
360.0000
  7
SOLINE
 72
1
 73
2
 11
3025.0000
 21
-3437.3750
 31
0.0000
  0
TEXT
  5
149
  8
SOL-DELET-TXT
 10
1600.0000
 20
-3225.0000
 30
0.0000
 40
125.0000
  1
D2
 50
0.0000
  7
SOLINE
 72
1
 73
2
 11
1600.0000
 21
-3225.0000
 31
0.0000
  0
INSERT
  5
14A
  8
SOL-CHASHMAL-SYM
  2
SS_socket_single_90x90
 10
345.0000
 20
0.0000
 30
0.0000
 41
1.0000
 42
1.0000
 43
1.0000
 50
0.0000
  0
INSERT
  5
14B
  8
SOL-CHASHMAL-SYM
  2
SS_socket_duplex_160x90
 10
1080.0000
 20
0.0000
 30
0.0000
 41
1.0000
 42
1.0000
 43
1.0000
 50
0.0000
  0
INSERT
  5
14C
  8
SOL-CHASHMAL-SYM
  2
SS_switch_single_90x90
 10
1745.0000
 20
0.0000
 30
0.0000
 41
1.0000
 42
1.0000
 43
1.0000
 50
0.0000
  0
INSERT
  5
14D
  8
SOL-CHASHMAL-SYM
  2
SS_junction_cable_60x60
 10
2430.0000
 20
0.0000
 30
0.0000
 41
1.0000
 42
1.0000
 43
1.0000
 50
0.0000
  0
INSERT
  5
14E
  8
SOL-CHASHMAL-SYM
  2
SS_junction_cable_60x60
 10
3130.0000
 20
0.0000
 30
0.0000
 41
1.0000
 42
1.0000
 43
1.0000
 50
0.0000
  0
INSERT
  5
14F
  8
SOL-CHASHMAL-SYM
  2
SS_junction_cable_120x120
 10
4000.0000
 20
-360.0000
 30
0.0000
 41
1.0000
 42
1.0000
 43
1.0000
 50
270.0000
  0
INSERT
  5
150
  8
SOL-TEURA-SYM
  2
SS_light_downlight_150x150
 10
4000.0000
 20
-1075.0000
 30
0.0000
 41
1.0000
 42
1.0000
 43
1.0000
 50
270.0000
  0
INSERT
  5
151
  8
SOL-MAYIM-SYM
  2
SS_water_point_60x60
 10
4000.0000
 20
-1730.0000
 30
0.0000
 41
1.0000
 42
1.0000
 43
1.0000
 50
270.0000
  0
INSERT
  5
152
  8
SOL-GAZ-SYM
  2
SS_gas_point_60x60
 10
4000.0000
 20
-2430.0000
 30
0.0000
 41
1.0000
 42
1.0000
 43
1.0000
 50
270.0000
  0
INSERT
  5
153
  8
SOL-MAYIM-SYM
  2
SS_water_point_50x50
 10
4000.0000
 20
-3125.0000
 30
0.0000
 41
1.0000
 42
1.0000
 43
1.0000
 50
270.0000
  0
INSERT
  5
154
  8
SOL-NIKUZ-SYM
  2
SS_sewage_point_100x100
 10
3650.0000
 20
-3000.0000
 30
0.0000
 41
1.0000
 42
1.0000
 43
1.0000
 50
180.0000
  0
INSERT
  5
155
  8
SOL-MIVNE-SYM
  2
SS_beam_200x2600
 10
900.0000
 20
-3000.0000
 30
0.0000
 41
1.0000
 42
1.0000
 43
1.0000
 50
180.0000
  0
INSERT
  5
156
  8
SOL-MIVNE-SYM
  2
SS_beam_1000x600
 10
0.0000
 20
-2700.0000
 30
0.0000
 41
1.0000
 42
1.0000
 43
1.0000
 50
90.0000
  0
INSERT
  5
157
  8
SOL-MIVNE-SYM
  2
SS_concealment_panel_600x50
 10
0.0000
 20
-1700.0000
 30
0.0000
 41
1.0000
 42
1.0000
 43
1.0000
 50
90.0000
  0
LINE
  5
158
  8
SOL-MIDOT-PNIM
 10
0.0000
 20
50.0000
 30
0.0000
 11
0.0000
 21
500.0000
 31
0.0000
  0
LINE
  5
159
  8
SOL-MIDOT-PNIM
 10
4000.0000
 20
50.0000
 30
0.0000
 11
4000.0000
 21
500.0000
 31
0.0000
  0
LINE
  5
15A
  8
SOL-MIDOT-PNIM
 10
0.0000
 20
425.0000
 30
0.0000
 11
4000.0000
 21
425.0000
 31
0.0000
  0
SOLID
  5
15B
  8
SOL-MIDOT-PNIM
 10
0.0000
 20
425.0000
 30
0.0000
 11
-143.7500
 21
465.0000
 31
0.0000
 12
-143.7500
 22
385.0000
 32
0.0000
 13
-143.7500
 23
385.0000
 33
0.0000
  0
SOLID
  5
15C
  8
SOL-MIDOT-PNIM
 10
4000.0000
 20
425.0000
 30
0.0000
 11
4143.7500
 21
465.0000
 31
0.0000
 12
4143.7500
 22
385.0000
 32
0.0000
 13
4143.7500
 23
385.0000
 33
0.0000
  0
TEXT
  5
15D
  8
SOL-MIDOT-PNIM
 10
2000.0000
 20
543.7500
 30
0.0000
 40
125.0000
  1
400
 50
0.0000
  7
SOLINE
 72
1
 73
2
 11
2000.0000
 21
543.7500
 31
0.0000
  0
LINE
  5
15E
  8
SOL-MIDOT-PNIM
 10
4050.0000
 20
0.0000
 30
0.0000
 11
4500.0000
 21
0.0000
 31
0.0000
  0
LINE
  5
15F
  8
SOL-MIDOT-PNIM
 10
4050.0000
 20
-3000.0000
 30
0.0000
 11
4500.0000
 21
-3000.0000
 31
0.0000
  0
LINE
  5
160
  8
SOL-MIDOT-PNIM
 10
4425.0000
 20
0.0000
 30
0.0000
 11
4425.0000
 21
-3000.0000
 31
0.0000
  0
SOLID
  5
161
  8
SOL-MIDOT-PNIM
 10
4425.0000
 20
0.0000
 30
0.0000
 11
4465.0000
 21
143.7500
 31
0.0000
 12
4385.0000
 22
143.7500
 32
0.0000
 13
4385.0000
 23
143.7500
 33
0.0000
  0
SOLID
  5
162
  8
SOL-MIDOT-PNIM
 10
4425.0000
 20
-3000.0000
 30
0.0000
 11
4465.0000
 21
-3143.7500
 31
0.0000
 12
4385.0000
 22
-3143.7500
 32
0.0000
 13
4385.0000
 23
-3143.7500
 33
0.0000
  0
TEXT
  5
163
  8
SOL-MIDOT-PNIM
 10
4543.7500
 20
-1500.0000
 30
0.0000
 40
125.0000
  1
300
 50
90.0000
  7
SOLINE
 72
1
 73
2
 11
4543.7500
 21
-1500.0000
 31
0.0000
  0
LINE
  5
164
  8
SOL-MIDOT-PNIM
 10
4000.0000
 20
-3050.0000
 30
0.0000
 11
4000.0000
 21
-3500.0000
 31
0.0000
  0
LINE
  5
165
  8
SOL-MIDOT-PNIM
 10
0.0000
 20
-3050.0000
 30
0.0000
 11
0.0000
 21
-3500.0000
 31
0.0000
  0
LINE
  5
166
  8
SOL-MIDOT-PNIM
 10
4000.0000
 20
-3425.0000
 30
0.0000
 11
0.0000
 21
-3425.0000
 31
0.0000
  0
SOLID
  5
167
  8
SOL-MIDOT-PNIM
 10
4000.0000
 20
-3425.0000
 30
0.0000
 11
4143.7500
 21
-3465.0000
 31
0.0000
 12
4143.7500
 22
-3385.0000
 32
0.0000
 13
4143.7500
 23
-3385.0000
 33
0.0000
  0
SOLID
  5
168
  8
SOL-MIDOT-PNIM
 10
0.0000
 20
-3425.0000
 30
0.0000
 11
-143.7500
 21
-3465.0000
 31
0.0000
 12
-143.7500
 22
-3385.0000
 32
0.0000
 13
-143.7500
 23
-3385.0000
 33
0.0000
  0
TEXT
  5
169
  8
SOL-MIDOT-PNIM
 10
2000.0000
 20
-3543.7500
 30
0.0000
 40
125.0000
  1
400
 50
360.0000
  7
SOLINE
 72
1
 73
2
 11
2000.0000
 21
-3543.7500
 31
0.0000
  0
LINE
  5
16A
  8
SOL-MIDOT-PNIM
 10
-50.0000
 20
-3000.0000
 30
0.0000
 11
-500.0000
 21
-3000.0000
 31
0.0000
  0
LINE
  5
16B
  8
SOL-MIDOT-PNIM
 10
-50.0000
 20
0.0000
 30
0.0000
 11
-500.0000
 21
0.0000
 31
0.0000
  0
LINE
  5
16C
  8
SOL-MIDOT-PNIM
 10
-425.0000
 20
-3000.0000
 30
0.0000
 11
-425.0000
 21
0.0000
 31
0.0000
  0
SOLID
  5
16D
  8
SOL-MIDOT-PNIM
 10
-425.0000
 20
-3000.0000
 30
0.0000
 11
-465.0000
 21
-3143.7500
 31
0.0000
 12
-385.0000
 22
-3143.7500
 32
0.0000
 13
-385.0000
 23
-3143.7500
 33
0.0000
  0
SOLID
  5
16E
  8
SOL-MIDOT-PNIM
 10
-425.0000
 20
0.0000
 30
0.0000
 11
-465.0000
 21
143.7500
 31
0.0000
 12
-385.0000
 22
143.7500
 32
0.0000
 13
-385.0000
 23
143.7500
 33
0.0000
  0
TEXT
  5
16F
  8
SOL-MIDOT-PNIM
 10
-543.7500
 20
-1500.0000
 30
0.0000
 40
125.0000
  1
300
 50
90.0000
  7
SOLINE
 72
1
 73
2
 11
-543.7500
 21
-1500.0000
 31
0.0000
  0
LINE
  5
170
  8
SOL-MIDOT-PNIM
 10
0.0000
 20
-3050.0000
 30
0.0000
 11
0.0000
 21
-3925.0000
 31
0.0000
  0
LINE
  5
171
  8
SOL-MIDOT-PNIM
 10
4000.0000
 20
-3050.0000
 30
0.0000
 11
4000.0000
 21
-3925.0000
 31
0.0000
  0
LINE
  5
172
  8
SOL-MIDOT-PNIM
 10
0.0000
 20
-3850.0000
 30
0.0000
 11
4000.0000
 21
-3850.0000
 31
0.0000
  0
SOLID
  5
173
  8
SOL-MIDOT-PNIM
 10
0.0000
 20
-3850.0000
 30
0.0000
 11
-143.7500
 21
-3890.0000
 31
0.0000
 12
-143.7500
 22
-3810.0000
 32
0.0000
 13
-143.7500
 23
-3810.0000
 33
0.0000
  0
SOLID
  5
174
  8
SOL-MIDOT-PNIM
 10
4000.0000
 20
-3850.0000
 30
0.0000
 11
4143.7500
 21
-3890.0000
 31
0.0000
 12
4143.7500
 22
-3810.0000
 32
0.0000
 13
4143.7500
 23
-3810.0000
 33
0.0000
  0
TEXT
  5
175
  8
SOL-MIDOT-PNIM
 10
2000.0000
 20
-3968.7500
 30
0.0000
 40
125.0000
  1
400
 50
0.0000
  7
SOLINE
 72
1
 73
2
 11
2000.0000
 21
-3968.7500
 31
0.0000
  0
LINE
  5
176
  8
SOL-MIDOT-PNIM
 10
-50.0000
 20
-3000.0000
 30
0.0000
 11
-925.0000
 21
-3000.0000
 31
0.0000
  0
LINE
  5
177
  8
SOL-MIDOT-PNIM
 10
-50.0000
 20
0.0000
 30
0.0000
 11
-925.0000
 21
0.0000
 31
0.0000
  0
LINE
  5
178
  8
SOL-MIDOT-PNIM
 10
-850.0000
 20
-3000.0000
 30
0.0000
 11
-850.0000
 21
0.0000
 31
0.0000
  0
SOLID
  5
179
  8
SOL-MIDOT-PNIM
 10
-850.0000
 20
-3000.0000
 30
0.0000
 11
-890.0000
 21
-3143.7500
 31
0.0000
 12
-810.0000
 22
-3143.7500
 32
0.0000
 13
-810.0000
 23
-3143.7500
 33
0.0000
  0
SOLID
  5
17A
  8
SOL-MIDOT-PNIM
 10
-850.0000
 20
0.0000
 30
0.0000
 11
-890.0000
 21
143.7500
 31
0.0000
 12
-810.0000
 22
143.7500
 32
0.0000
 13
-810.0000
 23
143.7500
 33
0.0000
  0
TEXT
  5
17B
  8
SOL-MIDOT-PNIM
 10
-968.7500
 20
-1500.0000
 30
0.0000
 40
125.0000
  1
300
 50
90.0000
  7
SOLINE
 72
1
 73
2
 11
-968.7500
 21
-1500.0000
 31
0.0000
  0
LINE
  5
17C
  8
SOL-MIDOT-CHUTS
 10
-100.0000
 20
-3150.0000
 30
0.0000
 11
-100.0000
 21
-4775.0000
 31
0.0000
  0
LINE
  5
17D
  8
SOL-MIDOT-CHUTS
 10
4100.0000
 20
-3150.0000
 30
0.0000
 11
4100.0000
 21
-4775.0000
 31
0.0000
  0
LINE
  5
17E
  8
SOL-MIDOT-CHUTS
 10
-100.0000
 20
-4700.0000
 30
0.0000
 11
4100.0000
 21
-4700.0000
 31
0.0000
  0
SOLID
  5
17F
  8
SOL-MIDOT-CHUTS
 10
-100.0000
 20
-4700.0000
 30
0.0000
 11
-243.7500
 21
-4740.0000
 31
0.0000
 12
-243.7500
 22
-4660.0000
 32
0.0000
 13
-243.7500
 23
-4660.0000
 33
0.0000
  0
SOLID
  5
180
  8
SOL-MIDOT-CHUTS
 10
4100.0000
 20
-4700.0000
 30
0.0000
 11
4243.7500
 21
-4740.0000
 31
0.0000
 12
4243.7500
 22
-4660.0000
 32
0.0000
 13
4243.7500
 23
-4660.0000
 33
0.0000
  0
TEXT
  5
181
  8
SOL-MIDOT-CHUTS
 10
2000.0000
 20
-4818.7500
 30
0.0000
 40
125.0000
  1
420
 50
0.0000
  7
SOLINE
 72
1
 73
2
 11
2000.0000
 21
-4818.7500
 31
0.0000
  0
LINE
  5
182
  8
SOL-MIDOT-CHUTS
 10
-150.0000
 20
-3100.0000
 30
0.0000
 11
-1775.0000
 21
-3100.0000
 31
0.0000
  0
LINE
  5
183
  8
SOL-MIDOT-CHUTS
 10
-150.0000
 20
100.0000
 30
0.0000
 11
-1775.0000
 21
100.0000
 31
0.0000
  0
LINE
  5
184
  8
SOL-MIDOT-CHUTS
 10
-1700.0000
 20
-3100.0000
 30
0.0000
 11
-1700.0000
 21
100.0000
 31
0.0000
  0
SOLID
  5
185
  8
SOL-MIDOT-CHUTS
 10
-1700.0000
 20
-3100.0000
 30
0.0000
 11
-1740.0000
 21
-3243.7500
 31
0.0000
 12
-1660.0000
 22
-3243.7500
 32
0.0000
 13
-1660.0000
 23
-3243.7500
 33
0.0000
  0
SOLID
  5
186
  8
SOL-MIDOT-CHUTS
 10
-1700.0000
 20
100.0000
 30
0.0000
 11
-1740.0000
 21
243.7500
 31
0.0000
 12
-1660.0000
 22
243.7500
 32
0.0000
 13
-1660.0000
 23
243.7500
 33
0.0000
  0
TEXT
  5
187
  8
SOL-MIDOT-CHUTS
 10
-1818.7500
 20
-1500.0000
 30
0.0000
 40
125.0000
  1
320
 50
90.0000
  7
SOLINE
 72
1
 73
2
 11
-1818.7500
 21
-1500.0000
 31
0.0000
  0
LINE
  5
188
  8
SOL-SHEET-FRAME
370
50
 10
5600.0000
 20
200.0000
 30
0.0000
 11
8350.0000
 21
200.0000
 31
0.0000
  0
LINE
  5
189
  8
SOL-SHEET-FRAME
370
50
 10
8350.0000
 20
200.0000
 30
0.0000
 11
8350.0000
 21
-3188.1250
 31
0.0000
  0
LINE
  5
18A
  8
SOL-SHEET-FRAME
370
50
 10
8350.0000
 20
-3188.1250
 30
0.0000
 11
5600.0000
 21
-3188.1250
 31
0.0000
  0
LINE
  5
18B
  8
SOL-SHEET-FRAME
370
50
 10
5600.0000
 20
-3188.1250
 30
0.0000
 11
5600.0000
 21
200.0000
 31
0.0000
  0
LINE
  5
18C
  8
SOL-SHEET-FRAME
 10
5600.0000
 20
-360.6250
 30
0.0000
 11
8350.0000
 21
-360.6250
 31
0.0000
  0
LINE
  5
18D
  8
SOL-SHEET-FRAME
 10
5675.0000
 20
-298.1250
 30
0.0000
 11
6250.0000
 21
-298.1250
 31
0.0000
  0
LINE
  5
18E
  8
SOL-SHEET-FRAME
 10
6250.0000
 20
-298.1250
 30
0.0000
 11
6250.0000
 21
137.5000
 31
0.0000
  0
LINE
  5
18F
  8
SOL-SHEET-FRAME
 10
6250.0000
 20
137.5000
 30
0.0000
 11
5675.0000
 21
137.5000
 31
0.0000
  0
LINE
  5
190
  8
SOL-SHEET-FRAME
 10
5675.0000
 20
137.5000
 30
0.0000
 11
5675.0000
 21
-298.1250
 31
0.0000
  0
TEXT
  5
191
  8
SOL-SHEET-FRAME
 10
6325.0000
 20
-46.6750
 30
0.0000
 40
250.0000
  1
SOLINE
 50
0.0000
  7
SOLINE
 73
2
 11
6325.0000
 21
-46.6750
 31
0.0000
  0
TEXT
  5
192
  8
SOL-SHEET-LEGEND
 10
5962.5000
 20
-259.7125
 30
0.0000
 40
68.7500
  1
brand/soline-logo.png
 50
0.0000
  7
SOLINE
 72
1
 73
2
 11
5962.5000
 21
-259.7125
 31
0.0000
  0
TEXT
  5
193
  8
SOL-SHEET-FRAME
 10
5675.0000
 20
-531.2500
 30
0.0000
 40
102.5000
  1
Project:
 50
0.0000
  7
SOLINE
 73
2
 11
5675.0000
 21
-531.2500
 31
0.0000
  0
TEXT
  5
194
  8
SOL-SHEET-FRAME
 10
8275.0000
 20
-531.2500
 30
0.0000
 40
110.0000
  1
allelem
 50
0.0000
  7
SOLINE
 72
2
 73
2
 11
8275.0000
 21
-531.2500
 31
0.0000
  0
TEXT
  5
195
  8
SOL-SHEET-FRAME
 10
5675.0000
 20
-775.0000
 30
0.0000
 40
102.5000
  1
Client:
 50
0.0000
  7
SOLINE
 73
2
 11
5675.0000
 21
-775.0000
 31
0.0000
  0
TEXT
  5
196
  8
SOL-SHEET-FRAME
 10
8275.0000
 20
-775.0000
 30
0.0000
 40
110.0000
  1
-
 50
0.0000
  7
SOLINE
 72
2
 73
2
 11
8275.0000
 21
-775.0000
 31
0.0000
  0
TEXT
  5
197
  8
SOL-SHEET-FRAME
 10
5675.0000
 20
-1018.7500
 30
0.0000
 40
102.5000
  1
Address:
 50
0.0000
  7
SOLINE
 73
2
 11
5675.0000
 21
-1018.7500
 31
0.0000
  0
TEXT
  5
198
  8
SOL-SHEET-FRAME
 10
8275.0000
 20
-1018.7500
 30
0.0000
 40
110.0000
  1
-
 50
0.0000
  7
SOLINE
 72
2
 73
2
 11
8275.0000
 21
-1018.7500
 31
0.0000
  0
TEXT
  5
199
  8
SOL-SHEET-FRAME
 10
5675.0000
 20
-1262.5000
 30
0.0000
 40
102.5000
  1
Drawing:
 50
0.0000
  7
SOLINE
 73
2
 11
5675.0000
 21
-1262.5000
 31
0.0000
  0
TEXT
  5
19A
  8
SOL-SHEET-FRAME
 10
8275.0000
 20
-1262.5000
 30
0.0000
 40
110.0000
  1
Measurement Plan
 50
0.0000
  7
SOLINE
 72
2
 73
2
 11
8275.0000
 21
-1262.5000
 31
0.0000
  0
TEXT
  5
19B
  8
SOL-SHEET-FRAME
 10
5675.0000
 20
-1506.2500
 30
0.0000
 40
102.5000
  1
Scale:
 50
0.0000
  7
SOLINE
 73
2
 11
5675.0000
 21
-1506.2500
 31
0.0000
  0
TEXT
  5
19C
  8
SOL-SHEET-FRAME
 10
8275.0000
 20
-1506.2500
 30
0.0000
 40
110.0000
  1
1:50  (mm)
 50
0.0000
  7
SOLINE
 72
2
 73
2
 11
8275.0000
 21
-1506.2500
 31
0.0000
  0
TEXT
  5
19D
  8
SOL-SHEET-FRAME
 10
5675.0000
 20
-1750.0000
 30
0.0000
 40
102.5000
  1
Date:
 50
0.0000
  7
SOLINE
 73
2
 11
5675.0000
 21
-1750.0000
 31
0.0000
  0
TEXT
  5
19E
  8
SOL-SHEET-FRAME
 10
8275.0000
 20
-1750.0000
 30
0.0000
 40
110.0000
  1
2026-08-22
 50
0.0000
  7
SOLINE
 72
2
 73
2
 11
8275.0000
 21
-1750.0000
 31
0.0000
  0
TEXT
  5
19F
  8
SOL-SHEET-FRAME
 10
5675.0000
 20
-1993.7500
 30
0.0000
 40
102.5000
  1
Surveyor:
 50
0.0000
  7
SOLINE
 73
2
 11
5675.0000
 21
-1993.7500
 31
0.0000
  0
TEXT
  5
1A0
  8
SOL-SHEET-FRAME
 10
8275.0000
 20
-1993.7500
 30
0.0000
 40
110.0000
  1
-
 50
0.0000
  7
SOLINE
 72
2
 73
2
 11
8275.0000
 21
-1993.7500
 31
0.0000
  0
TEXT
  5
1A1
  8
SOL-SHEET-FRAME
 10
5675.0000
 20
-2237.5000
 30
0.0000
 40
102.5000
  1
Checked:
 50
0.0000
  7
SOLINE
 73
2
 11
5675.0000
 21
-2237.5000
 31
0.0000
  0
TEXT
  5
1A2
  8
SOL-SHEET-FRAME
 10
8275.0000
 20
-2237.5000
 30
0.0000
 40
110.0000
  1
-
 50
0.0000
  7
SOLINE
 72
2
 73
2
 11
8275.0000
 21
-2237.5000
 31
0.0000
  0
TEXT
  5
1A3
  8
SOL-SHEET-FRAME
 10
5675.0000
 20
-2481.2500
 30
0.0000
 40
102.5000
  1
Drawing No:
 50
0.0000
  7
SOLINE
 73
2
 11
5675.0000
 21
-2481.2500
 31
0.0000
  0
TEXT
  5
1A4
  8
SOL-SHEET-FRAME
 10
8275.0000
 20
-2481.2500
 30
0.0000
 40
110.0000
  1
M-01
 50
0.0000
  7
SOLINE
 72
2
 73
2
 11
8275.0000
 21
-2481.2500
 31
0.0000
  0
TEXT
  5
1A5
  8
SOL-SHEET-FRAME
 10
5675.0000
 20
-2725.0000
 30
0.0000
 40
102.5000
  1
Sheet:
 50
0.0000
  7
SOLINE
 73
2
 11
5675.0000
 21
-2725.0000
 31
0.0000
  0
TEXT
  5
1A6
  8
SOL-SHEET-FRAME
 10
8275.0000
 20
-2725.0000
 30
0.0000
 40
110.0000
  1
1/1
 50
0.0000
  7
SOLINE
 72
2
 73
2
 11
8275.0000
 21
-2725.0000
 31
0.0000
  0
TEXT
  5
1A7
  8
SOL-SHEET-FRAME
 10
5675.0000
 20
-2968.7500
 30
0.0000
 40
102.5000
  1
Revision:
 50
0.0000
  7
SOLINE
 73
2
 11
5675.0000
 21
-2968.7500
 31
0.0000
  0
TEXT
  5
1A8
  8
SOL-SHEET-FRAME
 10
8275.0000
 20
-2968.7500
 30
0.0000
 40
110.0000
  1
0
 50
0.0000
  7
SOLINE
 72
2
 73
2
 11
8275.0000
 21
-2968.7500
 31
0.0000
  0
LINE
  5
1A9
  8
SOL-SHEET-FRAME
 10
5600.0000
 20
-3463.1250
 30
0.0000
 11
8350.0000
 21
-3463.1250
 31
0.0000
  0
LINE
  5
1AA
  8
SOL-SHEET-FRAME
 10
8350.0000
 20
-3463.1250
 30
0.0000
 11
8350.0000
 21
-5143.1250
 31
0.0000
  0
LINE
  5
1AB
  8
SOL-SHEET-FRAME
 10
8350.0000
 20
-5143.1250
 30
0.0000
 11
5600.0000
 21
-5143.1250
 31
0.0000
  0
LINE
  5
1AC
  8
SOL-SHEET-FRAME
 10
5600.0000
 20
-5143.1250
 30
0.0000
 11
5600.0000
 21
-3463.1250
 31
0.0000
  0
LINE
  5
1AD
  8
SOL-SHEET-FRAME
 10
5600.0000
 20
-3823.1250
 30
0.0000
 11
8350.0000
 21
-3823.1250
 31
0.0000
  0
TEXT
  5
1AE
  8
SOL-SHEET-LEGEND
 10
8275.0000
 20
-3679.1250
 30
0.0000
 40
175.0000
  1
\U+05D8\U+05D1\U+05DC\U+05EA \U+05DE\U+05E4\U+05E8\U+05D8 \U+05E4\U+05EA\U+05D7\U+05D9\U+05DD
 50
0.0000
  7
SOLINE
 72
2
 73
2
 11
8275.0000
 21
-3679.1250
 31
0.0000
  0
TEXT
  5
1AF
  8
SOL-SHEET-LEGEND
 10
8267.5000
 20
-4003.1250
 30
0.0000
 40
112.5000
  1
\U+05DE\U+05E1'
 50
0.0000
  7
SOLINE
 72
2
 73
2
 11
8267.5000
 21
-4003.1250
 31
0.0000
  0
TEXT
  5
1B0
  8
SOL-SHEET-LEGEND
 10
7800.0000
 20
-4003.1250
 30
0.0000
 40
112.5000
  1
\U+05E1\U+05D5\U+05D2
 50
0.0000
  7
SOLINE
 72
2
 73
2
 11
7800.0000
 21
-4003.1250
 31
0.0000
  0
TEXT
  5
1B1
  8
SOL-SHEET-LEGEND
 10
7112.5000
 20
-4003.1250
 30
0.0000
 40
112.5000
  1
\U+05E8\U+05D5\U+05D7\U+05D1x\U+05D2\U+05D5\U+05D1\U+05D4
 50
0.0000
  7
SOLINE
 72
2
 73
2
 11
7112.5000
 21
-4003.1250
 31
0.0000
  0
TEXT
  5
1B2
  8
SOL-SHEET-LEGEND
 10
6480.0000
 20
-4003.1250
 30
0.0000
 40
112.5000
  1
\U+05DB\U+05D9\U+05D5\U+05D5\U+05DF
 50
0.0000
  7
SOLINE
 72
2
 73
2
 11
6480.0000
 21
-4003.1250
 31
0.0000
  0
TEXT
  5
1B3
  8
SOL-SHEET-LEGEND
 10
5957.5000
 20
-4003.1250
 30
0.0000
 40
112.5000
  1
\U+05DB\U+05DE\U+05D5\U+05EA
 50
0.0000
  7
SOLINE
 72
2
 73
2
 11
5957.5000
 21
-4003.1250
 31
0.0000
  0
LINE
  5
1B4
  8
SOL-SHEET-LEGEND
 10
5650.0000
 20
-4168.1250
 30
0.0000
 11
8300.0000
 21
-4168.1250
 31
0.0000
  0
TEXT
  5
1B5
  8
SOL-SHEET-FRAME
 10
8267.5000
 20
-4303.1250
 30
0.0000
 40
112.5000
  1
D1
 50
0.0000
  7
SOLINE
 72
2
 73
2
 11
8267.5000
 21
-4303.1250
 31
0.0000
  0
TEXT
  5
1B6
  8
SOL-SHEET-LEGEND
 10
7800.0000
 20
-4303.1250
 30
0.0000
 40
112.5000
  1
\U+05DE\U+05E2\U+05D1\U+05E8
 50
0.0000
  7
SOLINE
 72
2
 73
2
 11
7800.0000
 21
-4303.1250
 31
0.0000
  0
TEXT
  5
1B7
  8
SOL-SHEET-FRAME
 10
7112.5000
 20
-4303.1250
 30
0.0000
 40
112.5000
  1
900x2050
 50
0.0000
  7
SOLINE
 72
2
 73
2
 11
7112.5000
 21
-4303.1250
 31
0.0000
  0
TEXT
  5
1B8
  8
SOL-SHEET-LEGEND
 10
6480.0000
 20
-4303.1250
 30
0.0000
 40
112.5000
  1
-
 50
0.0000
  7
SOLINE
 72
2
 73
2
 11
6480.0000
 21
-4303.1250
 31
0.0000
  0
TEXT
  5
1B9
  8
SOL-SHEET-FRAME
 10
5957.5000
 20
-4303.1250
 30
0.0000
 40
112.5000
  1
x1
 50
0.0000
  7
SOLINE
 72
2
 73
2
 11
5957.5000
 21
-4303.1250
 31
0.0000
  0
TEXT
  5
1BA
  8
SOL-SHEET-FRAME
 10
8267.5000
 20
-4603.1250
 30
0.0000
 40
112.5000
  1
D2
 50
0.0000
  7
SOLINE
 72
2
 73
2
 11
8267.5000
 21
-4603.1250
 31
0.0000
  0
TEXT
  5
1BB
  8
SOL-SHEET-LEGEND
 10
7800.0000
 20
-4603.1250
 30
0.0000
 40
112.5000
  1
\U+05DE\U+05DC\U+05D1\U+05DF \U+05D3\U+05DC\U+05EA
 50
0.0000
  7
SOLINE
 72
2
 73
2
 11
7800.0000
 21
-4603.1250
 31
0.0000
  0
TEXT
  5
1BC
  8
SOL-SHEET-FRAME
 10
7112.5000
 20
-4603.1250
 30
0.0000
 40
112.5000
  1
900x2100
 50
0.0000
  7
SOLINE
 72
2
 73
2
 11
7112.5000
 21
-4603.1250
 31
0.0000
  0
TEXT
  5
1BD
  8
SOL-SHEET-LEGEND
 10
6480.0000
 20
-4603.1250
 30
0.0000
 40
112.5000
  1
-
 50
0.0000
  7
SOLINE
 72
2
 73
2
 11
6480.0000
 21
-4603.1250
 31
0.0000
  0
TEXT
  5
1BE
  8
SOL-SHEET-FRAME
 10
5957.5000
 20
-4603.1250
 30
0.0000
 40
112.5000
  1
x1
 50
0.0000
  7
SOLINE
 72
2
 73
2
 11
5957.5000
 21
-4603.1250
 31
0.0000
  0
TEXT
  5
1BF
  8
SOL-SHEET-FRAME
 10
8267.5000
 20
-4903.1250
 30
0.0000
 40
112.5000
  1
W1
 50
0.0000
  7
SOLINE
 72
2
 73
2
 11
8267.5000
 21
-4903.1250
 31
0.0000
  0
TEXT
  5
1C0
  8
SOL-SHEET-LEGEND
 10
7800.0000
 20
-4903.1250
 30
0.0000
 40
112.5000
  1
\U+05D7\U+05DC\U+05D5\U+05DF
 50
0.0000
  7
SOLINE
 72
2
 73
2
 11
7800.0000
 21
-4903.1250
 31
0.0000
  0
TEXT
  5
1C1
  8
SOL-SHEET-FRAME
 10
7112.5000
 20
-4903.1250
 30
0.0000
 40
112.5000
  1
1000x1200
 50
0.0000
  7
SOLINE
 72
2
 73
2
 11
7112.5000
 21
-4903.1250
 31
0.0000
  0
TEXT
  5
1C2
  8
SOL-SHEET-LEGEND
 10
6480.0000
 20
-4903.1250
 30
0.0000
 40
112.5000
  1
-
 50
0.0000
  7
SOLINE
 72
2
 73
2
 11
6480.0000
 21
-4903.1250
 31
0.0000
  0
TEXT
  5
1C3
  8
SOL-SHEET-FRAME
 10
5957.5000
 20
-4903.1250
 30
0.0000
 40
112.5000
  1
x1
 50
0.0000
  7
SOLINE
 72
2
 73
2
 11
5957.5000
 21
-4903.1250
 31
0.0000
  0
LINE
  5
1C4
  8
SOL-SHEET-FRAME
 10
5600.0000
 20
-5418.1250
 30
0.0000
 11
8350.0000
 21
-5418.1250
 31
0.0000
  0
LINE
  5
1C5
  8
SOL-SHEET-FRAME
 10
8350.0000
 20
-5418.1250
 30
0.0000
 11
8350.0000
 21
-13153.1250
 31
0.0000
  0
LINE
  5
1C6
  8
SOL-SHEET-FRAME
 10
8350.0000
 20
-13153.1250
 30
0.0000
 11
5600.0000
 21
-13153.1250
 31
0.0000
  0
LINE
  5
1C7
  8
SOL-SHEET-FRAME
 10
5600.0000
 20
-13153.1250
 30
0.0000
 11
5600.0000
 21
-5418.1250
 31
0.0000
  0
LINE
  5
1C8
  8
SOL-SHEET-FRAME
 10
5600.0000
 20
-5808.1250
 30
0.0000
 11
8350.0000
 21
-5808.1250
 31
0.0000
  0
TEXT
  5
1C9
  8
SOL-SHEET-LEGEND
 10
8275.0000
 20
-5652.1250
 30
0.0000
 40
175.0000
  1
\U+05DE\U+05E7\U+05E8\U+05D0 \U+05D5\U+05E1\U+05E4\U+05D9\U+05E8\U+05EA \U+05D0\U+05DC\U+05DE\U+05E0\U+05D8\U+05D9\U+05DD
 50
0.0000
  7
SOLINE
 72
2
 73
2
 11
8275.0000
 21
-5652.1250
 31
0.0000
  0
TEXT
  5
1CA
  8
SOL-SHEET-LEGEND
 10
8275.0000
 20
-5986.8750
 30
0.0000
 40
131.2500
  1
\U+05D3\U+05DC\U+05EA  (1)
 50
0.0000
  7
SOLINE
 72
2
 73
2
 11
8275.0000
 21
-5986.8750
 31
0.0000
  0
LINE
  5
1CB
  8
SOL-DELET-SYM
 10
5775.1250
 20
-6401.1250
 30
0.0000
 11
5775.1250
 21
-6371.3750
 31
0.0000
  0
LINE
  5
1CC
  8
SOL-DELET-SYM
 10
5974.8750
 20
-6401.1250
 30
0.0000
 11
5974.8750
 21
-6371.3750
 31
0.0000
  0
LINE
  5
1CD
  8
SOL-DELET-SYM
 10
5775.1250
 20
-6371.3750
 30
0.0000
 11
5974.8750
 21
-6371.3750
 31
0.0000
  0
TEXT
  5
1CE
  8
SOL-SHEET-LEGEND
 10
6175.0000
 20
-6311.8750
 30
0.0000
 40
112.5000
  1
x1
 50
0.0000
  7
SOLINE
 73
2
 11
6175.0000
 21
-6311.8750
 31
0.0000
  0
TEXT
  5
1CF
  8
SOL-SHEET-LEGEND
 10
8275.0000
 20
-6311.8750
 30
0.0000
 40
125.0000
  1
\U+05DE\U+05E4\U+05EA\U+05D7 \U+05E2\U+05DD \U+05DE\U+05E9\U+05E7\U+05D5\U+05E3
 50
0.0000
  7
SOLINE
 72
2
 73
2
 11
8275.0000
 21
-6311.8750
 31
0.0000
  0
TEXT
  5
1D0
  8
SOL-SHEET-LEGEND
 10
8275.0000
 20
-6636.8750
 30
0.0000
 40
131.2500
  1
\U+05E0\U+05D9\U+05E7\U+05D5\U+05D6  (1)
 50
0.0000
  7
SOLINE
 72
2
 73
2
 11
8275.0000
 21
-6636.8750
 31
0.0000
  0
LINE
  5
1D1
  8
SOL-NIKUZ-SYM
 10
5875.0000
 20
-7051.1250
 30
0.0000
 11
5875.0000
 21
-6898.1250
 31
0.0000
  0
ARC
  5
1D2
  8
SOL-NIKUZ-SYM
 10
5875.0000
 20
-6944.8750
 30
0.0000
 40
63.7500
 50
0.0000
 51
360.0000
  0
LINE
  5
1D3
  8
SOL-NIKUZ-SYM
 10
5832.5000
 20
-6944.8750
 30
0.0000
 11
5853.7500
 21
-6927.8750
 31
0.0000
  0
LINE
  5
1D4
  8
SOL-NIKUZ-SYM
 10
5853.7500
 20
-6927.8750
 30
0.0000
 11
5875.0000
 21
-6944.8750
 31
0.0000
  0
LINE
  5
1D5
  8
SOL-NIKUZ-SYM
 10
5875.0000
 20
-6944.8750
 30
0.0000
 11
5896.2500
 21
-6961.8750
 31
0.0000
  0
LINE
  5
1D6
  8
SOL-NIKUZ-SYM
 10
5896.2500
 20
-6961.8750
 30
0.0000
 11
5917.5000
 21
-6944.8750
 31
0.0000
  0
TEXT
  5
1D7
  8
SOL-SHEET-LEGEND
 10
6175.0000
 20
-6961.8750
 30
0.0000
 40
112.5000
  1
x1
 50
0.0000
  7
SOLINE
 73
2
 11
6175.0000
 21
-6961.8750
 31
0.0000
  0
TEXT
  5
1D8
  8
SOL-SHEET-LEGEND
 10
8275.0000
 20
-6961.8750
 30
0.0000
 40
125.0000
  1
\U+05E0\U+05D9\U+05E7\U+05D5\U+05D6 \U+05E8\U+05E6\U+05E4\U+05EA\U+05D9
 50
0.0000
  7
SOLINE
 72
2
 73
2
 11
8275.0000
 21
-6961.8750
 31
0.0000
  0
TEXT
  5
1D9
  8
SOL-SHEET-LEGEND
 10
8275.0000
 20
-7286.8750
 30
0.0000
 40
131.2500
  1
\U+05D7\U+05E9\U+05DE\U+05DC  (6)
 50
0.0000
  7
SOLINE
 72
2
 73
2
 11
8275.0000
 21
-7286.8750
 31
0.0000
  0
LINE
  5
1DA
  8
SOL-CHASHMAL-SYM
 10
5875.0000
 20
-7701.1250
 30
0.0000
 11
5875.0000
 21
-7535.3750
 31
0.0000
  0
ARC
  5
1DB
  8
SOL-CHASHMAL-SYM
 10
5875.0000
 20
-7599.1250
 30
0.0000
 40
68.0000
 50
0.0000
 51
360.0000
  0
LINE
  5
1DC
  8
SOL-CHASHMAL-SYM
 10
5875.0000
 20
-7599.1250
 30
0.0000
 11
5828.2500
 21
-7552.3750
 31
0.0000
  0
LINE
  5
1DD
  8
SOL-CHASHMAL-SYM
 10
5875.0000
 20
-7599.1250
 30
0.0000
 11
5921.7500
 21
-7552.3750
 31
0.0000
  0
LINE
  5
1DE
  8
SOL-CHASHMAL-SYM
 10
5875.0000
 20
-7599.1250
 30
0.0000
 11
5828.2500
 21
-7645.8750
 31
0.0000
  0
LINE
  5
1DF
  8
SOL-CHASHMAL-SYM
 10
5875.0000
 20
-7599.1250
 30
0.0000
 11
5921.7500
 21
-7645.8750
 31
0.0000
  0
TEXT
  5
1E0
  8
SOL-SHEET-LEGEND
 10
6175.0000
 20
-7611.8750
 30
0.0000
 40
112.5000
  1
x3
 50
0.0000
  7
SOLINE
 73
2
 11
6175.0000
 21
-7611.8750
 31
0.0000
  0
TEXT
  5
1E1
  8
SOL-SHEET-LEGEND
 10
8275.0000
 20
-7611.8750
 30
0.0000
 40
125.0000
  1
\U+05EA\U+05E9\U+05EA\U+05D9\U+05EA \U+05D7\U+05E9\U+05DE\U+05DC
 50
0.0000
  7
SOLINE
 72
2
 73
2
 11
8275.0000
 21
-7611.8750
 31
0.0000
  0
LINE
  5
1E2
  8
SOL-CHASHMAL-SYM
 10
5875.0000
 20
-8026.1250
 30
0.0000
 11
5875.0000
 21
-7966.6250
 31
0.0000
  0
LINE
  5
1E3
  8
SOL-CHASHMAL-SYM
 10
5811.2500
 20
-7902.8750
 30
0.0000
 11
5811.6508
 21
-7895.7373
 31
0.0000
  0
LINE
  5
1E4
  8
SOL-CHASHMAL-SYM
 10
5811.6508
 20
-7895.7373
 30
0.0000
 11
5812.8483
 21
-7888.6893
 31
0.0000
  0
LINE
  5
1E5
  8
SOL-CHASHMAL-SYM
 10
5812.8483
 20
-7888.6893
 30
0.0000
 11
5814.8274
 21
-7881.8197
 31
0.0000
  0
LINE
  5
1E6
  8
SOL-CHASHMAL-SYM
 10
5814.8274
 20
-7881.8197
 30
0.0000
 11
5817.5632
 21
-7875.2149
 31
0.0000
  0
LINE
  5
1E7
  8
SOL-CHASHMAL-SYM
 10
5817.5632
 20
-7875.2149
 30
0.0000
 11
5821.0213
 21
-7868.9580
 31
0.0000
  0
LINE
  5
1E8
  8
SOL-CHASHMAL-SYM
 10
5821.0213
 20
-7868.9580
 30
0.0000
 11
5825.1582
 21
-7863.1275
 31
0.0000
  0
LINE
  5
1E9
  8
SOL-CHASHMAL-SYM
 10
5825.1582
 20
-7863.1275
 30
0.0000
 11
5829.9219
 21
-7857.7969
 31
0.0000
  0
LINE
  5
1EA
  8
SOL-CHASHMAL-SYM
 10
5829.9219
 20
-7857.7969
 30
0.0000
 11
5835.2525
 21
-7853.0332
 31
0.0000
  0
LINE
  5
1EB
  8
SOL-CHASHMAL-SYM
 10
5835.2525
 20
-7853.0332
 30
0.0000
 11
5841.0830
 21
-7848.8963
 31
0.0000
  0
LINE
  5
1EC
  8
SOL-CHASHMAL-SYM
 10
5841.0830
 20
-7848.8963
 30
0.0000
 11
5847.3399
 21
-7845.4382
 31
0.0000
  0
LINE
  5
1ED
  8
SOL-CHASHMAL-SYM
 10
5847.3399
 20
-7845.4382
 30
0.0000
 11
5853.9447
 21
-7842.7024
 31
0.0000
  0
LINE
  5
1EE
  8
SOL-CHASHMAL-SYM
 10
5853.9447
 20
-7842.7024
 30
0.0000
 11
5860.8143
 21
-7840.7233
 31
0.0000
  0
LINE
  5
1EF
  8
SOL-CHASHMAL-SYM
 10
5860.8143
 20
-7840.7233
 30
0.0000
 11
5867.8623
 21
-7839.5258
 31
0.0000
  0
LINE
  5
1F0
  8
SOL-CHASHMAL-SYM
 10
5867.8623
 20
-7839.5258
 30
0.0000
 11
5875.0000
 21
-7839.1250
 31
0.0000
  0
LINE
  5
1F1
  8
SOL-CHASHMAL-SYM
 10
5875.0000
 20
-7839.1250
 30
0.0000
 11
5882.1377
 21
-7839.5258
 31
0.0000
  0
LINE
  5
1F2
  8
SOL-CHASHMAL-SYM
 10
5882.1377
 20
-7839.5258
 30
0.0000
 11
5889.1857
 21
-7840.7233
 31
0.0000
  0
LINE
  5
1F3
  8
SOL-CHASHMAL-SYM
 10
5889.1857
 20
-7840.7233
 30
0.0000
 11
5896.0553
 21
-7842.7024
 31
0.0000
  0
LINE
  5
1F4
  8
SOL-CHASHMAL-SYM
 10
5896.0553
 20
-7842.7024
 30
0.0000
 11
5902.6601
 21
-7845.4382
 31
0.0000
  0
LINE
  5
1F5
  8
SOL-CHASHMAL-SYM
 10
5902.6601
 20
-7845.4382
 30
0.0000
 11
5908.9170
 21
-7848.8963
 31
0.0000
  0
LINE
  5
1F6
  8
SOL-CHASHMAL-SYM
 10
5908.9170
 20
-7848.8963
 30
0.0000
 11
5914.7475
 21
-7853.0332
 31
0.0000
  0
LINE
  5
1F7
  8
SOL-CHASHMAL-SYM
 10
5914.7475
 20
-7853.0332
 30
0.0000
 11
5920.0781
 21
-7857.7969
 31
0.0000
  0
LINE
  5
1F8
  8
SOL-CHASHMAL-SYM
 10
5920.0781
 20
-7857.7969
 30
0.0000
 11
5924.8418
 21
-7863.1275
 31
0.0000
  0
LINE
  5
1F9
  8
SOL-CHASHMAL-SYM
 10
5924.8418
 20
-7863.1275
 30
0.0000
 11
5928.9787
 21
-7868.9580
 31
0.0000
  0
LINE
  5
1FA
  8
SOL-CHASHMAL-SYM
 10
5928.9787
 20
-7868.9580
 30
0.0000
 11
5932.4368
 21
-7875.2149
 31
0.0000
  0
LINE
  5
1FB
  8
SOL-CHASHMAL-SYM
 10
5932.4368
 20
-7875.2149
 30
0.0000
 11
5935.1726
 21
-7881.8197
 31
0.0000
  0
LINE
  5
1FC
  8
SOL-CHASHMAL-SYM
 10
5935.1726
 20
-7881.8197
 30
0.0000
 11
5937.1517
 21
-7888.6893
 31
0.0000
  0
LINE
  5
1FD
  8
SOL-CHASHMAL-SYM
 10
5937.1517
 20
-7888.6893
 30
0.0000
 11
5938.3492
 21
-7895.7373
 31
0.0000
  0
LINE
  5
1FE
  8
SOL-CHASHMAL-SYM
 10
5938.3492
 20
-7895.7373
 30
0.0000
 11
5938.7500
 21
-7902.8750
 31
0.0000
  0
LINE
  5
1FF
  8
SOL-CHASHMAL-SYM
 10
5811.2500
 20
-7902.8750
 30
0.0000
 11
5938.7500
 21
-7902.8750
 31
0.0000
  0
LINE
  5
200
  8
SOL-CHASHMAL-SYM
 10
5875.0000
 20
-7902.8750
 30
0.0000
 11
5875.0000
 21
-7947.5000
 31
0.0000
  0
TEXT
  5
201
  8
SOL-SHEET-LEGEND
 10
6175.0000
 20
-7936.8750
 30
0.0000
 40
112.5000
  1
x1
 50
0.0000
  7
SOLINE
 73
2
 11
6175.0000
 21
-7936.8750
 31
0.0000
  0
TEXT
  5
202
  8
SOL-SHEET-LEGEND
 10
8275.0000
 20
-7936.8750
 30
0.0000
 40
125.0000
  1
\U+05E9\U+05E7\U+05E2 \U+05D1\U+05D5\U+05D3\U+05D3
 50
0.0000
  7
SOLINE
 72
2
 73
2
 11
8275.0000
 21
-7936.8750
 31
0.0000
  0
LINE
  5
203
  8
SOL-CHASHMAL-SYM
 10
5875.0000
 20
-8351.1250
 30
0.0000
 11
5875.0000
 21
-8274.6250
 31
0.0000
  0
LINE
  5
204
  8
SOL-CHASHMAL-SYM
 10
5779.1625
 20
-8227.8750
 30
0.0000
 11
5779.4565
 21
-8222.6407
 31
0.0000
  0
LINE
  5
205
  8
SOL-CHASHMAL-SYM
 10
5779.4565
 20
-8222.6407
 30
0.0000
 11
5780.3346
 21
-8217.4721
 31
0.0000
  0
LINE
  5
206
  8
SOL-CHASHMAL-SYM
 10
5780.3346
 20
-8217.4721
 30
0.0000
 11
5781.7860
 21
-8212.4345
 31
0.0000
  0
LINE
  5
207
  8
SOL-CHASHMAL-SYM
 10
5781.7860
 20
-8212.4345
 30
0.0000
 11
5783.7922
 21
-8207.5909
 31
0.0000
  0
LINE
  5
208
  8
SOL-CHASHMAL-SYM
 10
5783.7922
 20
-8207.5909
 30
0.0000
 11
5786.3281
 21
-8203.0025
 31
0.0000
  0
LINE
  5
209
  8
SOL-CHASHMAL-SYM
 10
5786.3281
 20
-8203.0025
 30
0.0000
 11
5789.3619
 21
-8198.7269
 31
0.0000
  0
LINE
  5
20A
  8
SOL-CHASHMAL-SYM
 10
5789.3619
 20
-8198.7269
 30
0.0000
 11
5792.8553
 21
-8194.8178
 31
0.0000
  0
LINE
  5
20B
  8
SOL-CHASHMAL-SYM
 10
5792.8553
 20
-8194.8178
 30
0.0000
 11
5796.7644
 21
-8191.3244
 31
0.0000
  0
LINE
  5
20C
  8
SOL-CHASHMAL-SYM
 10
5796.7644
 20
-8191.3244
 30
0.0000
 11
5801.0400
 21
-8188.2906
 31
0.0000
  0
LINE
  5
20D
  8
SOL-CHASHMAL-SYM
 10
5801.0400
 20
-8188.2906
 30
0.0000
 11
5805.6284
 21
-8185.7547
 31
0.0000
  0
LINE
  5
20E
  8
SOL-CHASHMAL-SYM
 10
5805.6284
 20
-8185.7547
 30
0.0000
 11
5810.4720
 21
-8183.7485
 31
0.0000
  0
LINE
  5
20F
  8
SOL-CHASHMAL-SYM
 10
5810.4720
 20
-8183.7485
 30
0.0000
 11
5815.5096
 21
-8182.2971
 31
0.0000
  0
LINE
  5
210
  8
SOL-CHASHMAL-SYM
 10
5815.5096
 20
-8182.2971
 30
0.0000
 11
5820.6782
 21
-8181.4190
 31
0.0000
  0
LINE
  5
211
  8
SOL-CHASHMAL-SYM
 10
5820.6782
 20
-8181.4190
 30
0.0000
 11
5825.9125
 21
-8181.1250
 31
0.0000
  0
LINE
  5
212
  8
SOL-CHASHMAL-SYM
 10
5825.9125
 20
-8181.1250
 30
0.0000
 11
5831.1468
 21
-8181.4190
 31
0.0000
  0
LINE
  5
213
  8
SOL-CHASHMAL-SYM
 10
5831.1468
 20
-8181.4190
 30
0.0000
 11
5836.3154
 21
-8182.2971
 31
0.0000
  0
LINE
  5
214
  8
SOL-CHASHMAL-SYM
 10
5836.3154
 20
-8182.2971
 30
0.0000
 11
5841.3530
 21
-8183.7485
 31
0.0000
  0
LINE
  5
215
  8
SOL-CHASHMAL-SYM
 10
5841.3530
 20
-8183.7485
 30
0.0000
 11
5846.1966
 21
-8185.7547
 31
0.0000
  0
LINE
  5
216
  8
SOL-CHASHMAL-SYM
 10
5846.1966
 20
-8185.7547
 30
0.0000
 11
5850.7850
 21
-8188.2906
 31
0.0000
  0
LINE
  5
217
  8
SOL-CHASHMAL-SYM
 10
5850.7850
 20
-8188.2906
 30
0.0000
 11
5855.0606
 21
-8191.3244
 31
0.0000
  0
LINE
  5
218
  8
SOL-CHASHMAL-SYM
 10
5855.0606
 20
-8191.3244
 30
0.0000
 11
5858.9697
 21
-8194.8178
 31
0.0000
  0
LINE
  5
219
  8
SOL-CHASHMAL-SYM
 10
5858.9697
 20
-8194.8178
 30
0.0000
 11
5862.4631
 21
-8198.7269
 31
0.0000
  0
LINE
  5
21A
  8
SOL-CHASHMAL-SYM
 10
5862.4631
 20
-8198.7269
 30
0.0000
 11
5865.4969
 21
-8203.0025
 31
0.0000
  0
LINE
  5
21B
  8
SOL-CHASHMAL-SYM
 10
5865.4969
 20
-8203.0025
 30
0.0000
 11
5868.0328
 21
-8207.5909
 31
0.0000
  0
LINE
  5
21C
  8
SOL-CHASHMAL-SYM
 10
5868.0328
 20
-8207.5909
 30
0.0000
 11
5870.0390
 21
-8212.4345
 31
0.0000
  0
LINE
  5
21D
  8
SOL-CHASHMAL-SYM
 10
5870.0390
 20
-8212.4345
 30
0.0000
 11
5871.4904
 21
-8217.4721
 31
0.0000
  0
LINE
  5
21E
  8
SOL-CHASHMAL-SYM
 10
5871.4904
 20
-8217.4721
 30
0.0000
 11
5872.3685
 21
-8222.6407
 31
0.0000
  0
LINE
  5
21F
  8
SOL-CHASHMAL-SYM
 10
5872.3685
 20
-8222.6407
 30
0.0000
 11
5872.6625
 21
-8227.8750
 31
0.0000
  0
LINE
  5
220
  8
SOL-CHASHMAL-SYM
 10
5779.1625
 20
-8227.8750
 30
0.0000
 11
5872.6625
 21
-8227.8750
 31
0.0000
  0
LINE
  5
221
  8
SOL-CHASHMAL-SYM
 10
5825.9125
 20
-8227.8750
 30
0.0000
 11
5825.9125
 21
-8260.6000
 31
0.0000
  0
LINE
  5
222
  8
SOL-CHASHMAL-SYM
 10
5877.3375
 20
-8227.8750
 30
0.0000
 11
5877.6315
 21
-8222.6407
 31
0.0000
  0
LINE
  5
223
  8
SOL-CHASHMAL-SYM
 10
5877.6315
 20
-8222.6407
 30
0.0000
 11
5878.5096
 21
-8217.4721
 31
0.0000
  0
LINE
  5
224
  8
SOL-CHASHMAL-SYM
 10
5878.5096
 20
-8217.4721
 30
0.0000
 11
5879.9610
 21
-8212.4345
 31
0.0000
  0
LINE
  5
225
  8
SOL-CHASHMAL-SYM
 10
5879.9610
 20
-8212.4345
 30
0.0000
 11
5881.9672
 21
-8207.5909
 31
0.0000
  0
LINE
  5
226
  8
SOL-CHASHMAL-SYM
 10
5881.9672
 20
-8207.5909
 30
0.0000
 11
5884.5031
 21
-8203.0025
 31
0.0000
  0
LINE
  5
227
  8
SOL-CHASHMAL-SYM
 10
5884.5031
 20
-8203.0025
 30
0.0000
 11
5887.5369
 21
-8198.7269
 31
0.0000
  0
LINE
  5
228
  8
SOL-CHASHMAL-SYM
 10
5887.5369
 20
-8198.7269
 30
0.0000
 11
5891.0303
 21
-8194.8178
 31
0.0000
  0
LINE
  5
229
  8
SOL-CHASHMAL-SYM
 10
5891.0303
 20
-8194.8178
 30
0.0000
 11
5894.9394
 21
-8191.3244
 31
0.0000
  0
LINE
  5
22A
  8
SOL-CHASHMAL-SYM
 10
5894.9394
 20
-8191.3244
 30
0.0000
 11
5899.2150
 21
-8188.2906
 31
0.0000
  0
LINE
  5
22B
  8
SOL-CHASHMAL-SYM
 10
5899.2150
 20
-8188.2906
 30
0.0000
 11
5903.8034
 21
-8185.7547
 31
0.0000
  0
LINE
  5
22C
  8
SOL-CHASHMAL-SYM
 10
5903.8034
 20
-8185.7547
 30
0.0000
 11
5908.6470
 21
-8183.7485
 31
0.0000
  0
LINE
  5
22D
  8
SOL-CHASHMAL-SYM
 10
5908.6470
 20
-8183.7485
 30
0.0000
 11
5913.6846
 21
-8182.2971
 31
0.0000
  0
LINE
  5
22E
  8
SOL-CHASHMAL-SYM
 10
5913.6846
 20
-8182.2971
 30
0.0000
 11
5918.8532
 21
-8181.4190
 31
0.0000
  0
LINE
  5
22F
  8
SOL-CHASHMAL-SYM
 10
5918.8532
 20
-8181.4190
 30
0.0000
 11
5924.0875
 21
-8181.1250
 31
0.0000
  0
LINE
  5
230
  8
SOL-CHASHMAL-SYM
 10
5924.0875
 20
-8181.1250
 30
0.0000
 11
5929.3218
 21
-8181.4190
 31
0.0000
  0
LINE
  5
231
  8
SOL-CHASHMAL-SYM
 10
5929.3218
 20
-8181.4190
 30
0.0000
 11
5934.4904
 21
-8182.2971
 31
0.0000
  0
LINE
  5
232
  8
SOL-CHASHMAL-SYM
 10
5934.4904
 20
-8182.2971
 30
0.0000
 11
5939.5280
 21
-8183.7485
 31
0.0000
  0
LINE
  5
233
  8
SOL-CHASHMAL-SYM
 10
5939.5280
 20
-8183.7485
 30
0.0000
 11
5944.3716
 21
-8185.7547
 31
0.0000
  0
LINE
  5
234
  8
SOL-CHASHMAL-SYM
 10
5944.3716
 20
-8185.7547
 30
0.0000
 11
5948.9600
 21
-8188.2906
 31
0.0000
  0
LINE
  5
235
  8
SOL-CHASHMAL-SYM
 10
5948.9600
 20
-8188.2906
 30
0.0000
 11
5953.2356
 21
-8191.3244
 31
0.0000
  0
LINE
  5
236
  8
SOL-CHASHMAL-SYM
 10
5953.2356
 20
-8191.3244
 30
0.0000
 11
5957.1447
 21
-8194.8178
 31
0.0000
  0
LINE
  5
237
  8
SOL-CHASHMAL-SYM
 10
5957.1447
 20
-8194.8178
 30
0.0000
 11
5960.6381
 21
-8198.7269
 31
0.0000
  0
LINE
  5
238
  8
SOL-CHASHMAL-SYM
 10
5960.6381
 20
-8198.7269
 30
0.0000
 11
5963.6719
 21
-8203.0025
 31
0.0000
  0
LINE
  5
239
  8
SOL-CHASHMAL-SYM
 10
5963.6719
 20
-8203.0025
 30
0.0000
 11
5966.2078
 21
-8207.5909
 31
0.0000
  0
LINE
  5
23A
  8
SOL-CHASHMAL-SYM
 10
5966.2078
 20
-8207.5909
 30
0.0000
 11
5968.2140
 21
-8212.4345
 31
0.0000
  0
LINE
  5
23B
  8
SOL-CHASHMAL-SYM
 10
5968.2140
 20
-8212.4345
 30
0.0000
 11
5969.6654
 21
-8217.4721
 31
0.0000
  0
LINE
  5
23C
  8
SOL-CHASHMAL-SYM
 10
5969.6654
 20
-8217.4721
 30
0.0000
 11
5970.5435
 21
-8222.6407
 31
0.0000
  0
LINE
  5
23D
  8
SOL-CHASHMAL-SYM
 10
5970.5435
 20
-8222.6407
 30
0.0000
 11
5970.8375
 21
-8227.8750
 31
0.0000
  0
LINE
  5
23E
  8
SOL-CHASHMAL-SYM
 10
5877.3375
 20
-8227.8750
 30
0.0000
 11
5970.8375
 21
-8227.8750
 31
0.0000
  0
LINE
  5
23F
  8
SOL-CHASHMAL-SYM
 10
5924.0875
 20
-8227.8750
 30
0.0000
 11
5924.0875
 21
-8260.6000
 31
0.0000
  0
TEXT
  5
240
  8
SOL-SHEET-LEGEND
 10
6175.0000
 20
-8261.8750
 30
0.0000
 40
112.5000
  1
x1
 50
0.0000
  7
SOLINE
 73
2
 11
6175.0000
 21
-8261.8750
 31
0.0000
  0
TEXT
  5
241
  8
SOL-SHEET-LEGEND
 10
8275.0000
 20
-8261.8750
 30
0.0000
 40
125.0000
  1
\U+05E9\U+05E7\U+05E2 \U+05DE\U+05E8\U+05D5\U+05D1\U+05E2
 50
0.0000
  7
SOLINE
 72
2
 73
2
 11
8275.0000
 21
-8261.8750
 31
0.0000
  0
LINE
  5
242
  8
SOL-CHASHMAL-SYM
 10
5875.0000
 20
-8676.1250
 30
0.0000
 11
5875.0000
 21
-8595.3750
 31
0.0000
  0
ARC
  5
243
  8
SOL-CHASHMAL-SYM
 10
5875.0000
 20
-8569.8750
 30
0.0000
 40
25.5000
 50
0.0000
 51
360.0000
  0
LINE
  5
244
  8
SOL-CHASHMAL-SYM
 10
5894.1250
 20
-8559.6750
 30
0.0000
 11
5951.5000
 21
-8497.6250
 31
0.0000
  0
TEXT
  5
245
  8
SOL-SHEET-LEGEND
 10
6175.0000
 20
-8586.8750
 30
0.0000
 40
112.5000
  1
x1
 50
0.0000
  7
SOLINE
 73
2
 11
6175.0000
 21
-8586.8750
 31
0.0000
  0
TEXT
  5
246
  8
SOL-SHEET-LEGEND
 10
8275.0000
 20
-8586.8750
 30
0.0000
 40
125.0000
  1
\U+05DE\U+05EA\U+05D2
 50
0.0000
  7
SOLINE
 72
2
 73
2
 11
8275.0000
 21
-8586.8750
 31
0.0000
  0
TEXT
  5
247
  8
SOL-SHEET-LEGEND
 10
8275.0000
 20
-8911.8750
 30
0.0000
 40
131.2500
  1
\U+05D2\U+05D6  (1)
 50
0.0000
  7
SOLINE
 72
2
 73
2
 11
8275.0000
 21
-8911.8750
 31
0.0000
  0
LINE
  5
248
  8
SOL-GAZ-SYM
 10
5875.0000
 20
-9326.1250
 30
0.0000
 11
5875.0000
 21
-9283.6250
 31
0.0000
  0
LINE
  5
249
  8
SOL-GAZ-SYM
 10
5875.0000
 20
-9156.1250
 30
0.0000
 11
5930.2500
 21
-9188.0000
 31
0.0000
  0
LINE
  5
24A
  8
SOL-GAZ-SYM
 10
5930.2500
 20
-9188.0000
 30
0.0000
 11
5930.2500
 21
-9251.7500
 31
0.0000
  0
LINE
  5
24B
  8
SOL-GAZ-SYM
 10
5930.2500
 20
-9251.7500
 30
0.0000
 11
5875.0000
 21
-9283.6250
 31
0.0000
  0
LINE
  5
24C
  8
SOL-GAZ-SYM
 10
5875.0000
 20
-9283.6250
 30
0.0000
 11
5819.7500
 21
-9251.7500
 31
0.0000
  0
LINE
  5
24D
  8
SOL-GAZ-SYM
 10
5819.7500
 20
-9251.7500
 30
0.0000
 11
5819.7500
 21
-9188.0000
 31
0.0000
  0
LINE
  5
24E
  8
SOL-GAZ-SYM
 10
5819.7500
 20
-9188.0000
 30
0.0000
 11
5875.0000
 21
-9156.1250
 31
0.0000
  0
TEXT
  5
24F
  8
SOL-GAZ-SYM
 10
5875.0000
 20
-9219.8750
 30
0.0000
 40
59.5000
  1
G
 50
0.0000
  7
SOLINE
 72
1
 73
2
 11
5875.0000
 21
-9219.8750
 31
0.0000
  0
TEXT
  5
250
  8
SOL-SHEET-LEGEND
 10
6175.0000
 20
-9236.8750
 30
0.0000
 40
112.5000
  1
x1
 50
0.0000
  7
SOLINE
 73
2
 11
6175.0000
 21
-9236.8750
 31
0.0000
  0
TEXT
  5
251
  8
SOL-SHEET-LEGEND
 10
8275.0000
 20
-9236.8750
 30
0.0000
 40
125.0000
  1
\U+05D2\U+05D6
 50
0.0000
  7
SOLINE
 72
2
 73
2
 11
8275.0000
 21
-9236.8750
 31
0.0000
  0
TEXT
  5
252
  8
SOL-SHEET-LEGEND
 10
8275.0000
 20
-9561.8750
 30
0.0000
 40
131.2500
  1
\U+05EA\U+05D0\U+05D5\U+05E8\U+05D4  (1)
 50
0.0000
  7
SOLINE
 72
2
 73
2
 11
8275.0000
 21
-9561.8750
 31
0.0000
  0
ARC
  5
253
  8
SOL-TEURA-SYM
 10
5875.0000
 20
-9869.8750
 30
0.0000
 40
63.7500
 50
0.0000
 51
360.0000
  0
LINE
  5
254
  8
SOL-TEURA-SYM
 10
5830.3750
 20
-9825.2500
 30
0.0000
 11
5919.6250
 21
-9914.5000
 31
0.0000
  0
LINE
  5
255
  8
SOL-TEURA-SYM
 10
5919.6250
 20
-9825.2500
 30
0.0000
 11
5830.3750
 21
-9914.5000
 31
0.0000
  0
TEXT
  5
256
  8
SOL-SHEET-LEGEND
 10
6175.0000
 20
-9886.8750
 30
0.0000
 40
112.5000
  1
x1
 50
0.0000
  7
SOLINE
 73
2
 11
6175.0000
 21
-9886.8750
 31
0.0000
  0
TEXT
  5
257
  8
SOL-SHEET-LEGEND
 10
8275.0000
 20
-9886.8750
 30
0.0000
 40
125.0000
  1
\U+05DE\U+05E0\U+05D5\U+05E8\U+05EA \U+05EA\U+05E7\U+05E8\U+05D4
 50
0.0000
  7
SOLINE
 72
2
 73
2
 11
8275.0000
 21
-9886.8750
 31
0.0000
  0
TEXT
  5
258
  8
SOL-SHEET-LEGEND
 10
8275.0000
 20
-10211.8750
 30
0.0000
 40
131.2500
  1
\U+05E4\U+05EA\U+05D7  (1)
 50
0.0000
  7
SOLINE
 72
2
 73
2
 11
8275.0000
 21
-10211.8750
 31
0.0000
  0
LINE
  5
259
  8
SOL-DELET-SYM
 10
5777.2500
 20
-10626.1250
 30
0.0000
 11
5777.2500
 21
-10562.3750
 31
0.0000
  0
LINE
  5
25A
  8
SOL-DELET-SYM
 10
5972.7500
 20
-10626.1250
 30
0.0000
 11
5972.7500
 21
-10562.3750
 31
0.0000
  0
TEXT
  5
25B
  8
SOL-SHEET-LEGEND
 10
6175.0000
 20
-10536.8750
 30
0.0000
 40
112.5000
  1
x1
 50
0.0000
  7
SOLINE
 73
2
 11
6175.0000
 21
-10536.8750
 31
0.0000
  0
TEXT
  5
25C
  8
SOL-SHEET-LEGEND
 10
8275.0000
 20
-10536.8750
 30
0.0000
 40
125.0000
  1
\U+05D3\U+05DC\U+05EA
 50
0.0000
  7
SOLINE
 72
2
 73
2
 11
8275.0000
 21
-10536.8750
 31
0.0000
  0
TEXT
  5
25D
  8
SOL-SHEET-LEGEND
 10
8275.0000
 20
-10861.8750
 30
0.0000
 40
131.2500
  1
\U+05DE\U+05D9\U+05DD  (2)
 50
0.0000
  7
SOLINE
 72
2
 73
2
 11
8275.0000
 21
-10861.8750
 31
0.0000
  0
LINE
  5
25E
  8
SOL-MAYIM-SYM
 10
5875.0000
 20
-11276.1250
 30
0.0000
 11
5875.0000
 21
-11229.3750
 31
0.0000
  0
ARC
  5
25F
  8
SOL-MAYIM-SYM
 10
5875.0000
 20
-11169.8750
 30
0.0000
 40
59.5000
 50
0.0000
 51
360.0000
  0
LINE
  5
260
  8
SOL-MAYIM-SYM
 10
5828.2500
 20
-11169.8750
 30
0.0000
 11
5921.7500
 21
-11169.8750
 31
0.0000
  0
LINE
  5
261
  8
SOL-MAYIM-SYM
 10
5875.0000
 20
-11123.1250
 30
0.0000
 11
5875.0000
 21
-11216.6250
 31
0.0000
  0
TEXT
  5
262
  8
SOL-SHEET-LEGEND
 10
6175.0000
 20
-11186.8750
 30
0.0000
 40
112.5000
  1
x2
 50
0.0000
  7
SOLINE
 73
2
 11
6175.0000
 21
-11186.8750
 31
0.0000
  0
TEXT
  5
263
  8
SOL-SHEET-LEGEND
 10
8275.0000
 20
-11186.8750
 30
0.0000
 40
125.0000
  1
\U+05DE\U+05D9\U+05DD
 50
0.0000
  7
SOLINE
 72
2
 73
2
 11
8275.0000
 21
-11186.8750
 31
0.0000
  0
TEXT
  5
264
  8
SOL-SHEET-LEGEND
 10
8275.0000
 20
-11511.8750
 30
0.0000
 40
131.2500
  1
\U+05DE\U+05D1\U+05E0\U+05D4  (3)
 50
0.0000
  7
SOLINE
 72
2
 73
2
 11
8275.0000
 21
-11511.8750
 31
0.0000
  0
LINE
  5
265
  8
SOL-MIVNE-SYM
 10
5768.7500
 20
-11794.3750
 30
0.0000
 11
5981.2500
 21
-11794.3750
 31
0.0000
  0
LINE
  5
266
  8
SOL-MIVNE-SYM
 10
5981.2500
 20
-11794.3750
 30
0.0000
 11
5981.2500
 21
-11845.3750
 31
0.0000
  0
LINE
  5
267
  8
SOL-MIVNE-SYM
 10
5981.2500
 20
-11845.3750
 30
0.0000
 11
5768.7500
 21
-11845.3750
 31
0.0000
  0
LINE
  5
268
  8
SOL-MIVNE-SYM
 10
5768.7500
 20
-11845.3750
 30
0.0000
 11
5768.7500
 21
-11794.3750
 31
0.0000
  0
TEXT
  5
269
  8
SOL-SHEET-LEGEND
 10
6175.0000
 20
-11836.8750
 30
0.0000
 40
112.5000
  1
x2
 50
0.0000
  7
SOLINE
 73
2
 11
6175.0000
 21
-11836.8750
 31
0.0000
  0
TEXT
  5
26A
  8
SOL-SHEET-LEGEND
 10
8275.0000
 20
-11836.8750
 30
0.0000
 40
125.0000
  1
\U+05E2\U+05DE\U+05D5\U+05D3
 50
0.0000
  7
SOLINE
 72
2
 73
2
 11
8275.0000
 21
-11836.8750
 31
0.0000
  0
LINE
  5
26B
  8
SOL-MIVNE-SYM
 10
5798.5000
 20
-12068.3750
 30
0.0000
 11
5951.5000
 21
-12068.3750
 31
0.0000
  0
LINE
  5
26C
  8
SOL-MIVNE-SYM
 10
5951.5000
 20
-12068.3750
 30
0.0000
 11
5951.5000
 21
-12221.3750
 31
0.0000
  0
LINE
  5
26D
  8
SOL-MIVNE-SYM
 10
5951.5000
 20
-12221.3750
 30
0.0000
 11
5798.5000
 21
-12221.3750
 31
0.0000
  0
LINE
  5
26E
  8
SOL-MIVNE-SYM
 10
5798.5000
 20
-12221.3750
 30
0.0000
 11
5798.5000
 21
-12068.3750
 31
0.0000
  0
LINE
  5
26F
  8
SOL-MIVNE-SYM
 10
5938.7500
 20
-12132.1250
 30
0.0000
 11
5951.5000
 21
-12144.8750
 31
0.0000
  0
LINE
  5
270
  8
SOL-MIVNE-SYM
 10
5951.5000
 20
-12144.8750
 30
0.0000
 11
5938.7500
 21
-12157.6250
 31
0.0000
  0
TEXT
  5
271
  8
SOL-SHEET-LEGEND
 10
6175.0000
 20
-12161.8750
 30
0.0000
 40
112.5000
  1
x1
 50
0.0000
  7
SOLINE
 73
2
 11
6175.0000
 21
-12161.8750
 31
0.0000
  0
TEXT
  5
272
  8
SOL-SHEET-LEGEND
 10
8275.0000
 20
-12161.8750
 30
0.0000
 40
125.0000
  1
\U+05E4\U+05D0\U+05E0\U+05DC
 50
0.0000
  7
SOLINE
 72
2
 73
2
 11
8275.0000
 21
-12161.8750
 31
0.0000
  0
TEXT
  5
273
  8
SOL-SHEET-LEGEND
 10
8275.0000
 20
-12486.8750
 30
0.0000
 40
131.2500
  1
\U+05D7\U+05DC\U+05D5\U+05DF  (1)
 50
0.0000
  7
SOLINE
 72
2
 73
2
 11
8275.0000
 21
-12486.8750
 31
0.0000
  0
LINE
  5
274
  8
SOL-CHALON-SYM
 10
5768.7500
 20
-12765.1250
 30
0.0000
 11
5981.2500
 21
-12765.1250
 31
0.0000
  0
LINE
  5
275
  8
SOL-CHALON-SYM
 10
5981.2500
 20
-12765.1250
 30
0.0000
 11
5981.2500
 21
-12824.6250
 31
0.0000
  0
LINE
  5
276
  8
SOL-CHALON-SYM
 10
5981.2500
 20
-12824.6250
 30
0.0000
 11
5768.7500
 21
-12824.6250
 31
0.0000
  0
LINE
  5
277
  8
SOL-CHALON-SYM
 10
5768.7500
 20
-12824.6250
 30
0.0000
 11
5768.7500
 21
-12765.1250
 31
0.0000
  0
LINE
  5
278
  8
SOL-CHALON-SYM
 10
5768.7500
 20
-12785.3550
 30
0.0000
 11
5981.2500
 21
-12785.3550
 31
0.0000
  0
LINE
  5
279
  8
SOL-CHALON-SYM
 10
5768.7500
 20
-12804.3950
 30
0.0000
 11
5981.2500
 21
-12804.3950
 31
0.0000
  0
TEXT
  5
27A
  8
SOL-SHEET-LEGEND
 10
6175.0000
 20
-12811.8750
 30
0.0000
 40
112.5000
  1
x1
 50
0.0000
  7
SOLINE
 73
2
 11
6175.0000
 21
-12811.8750
 31
0.0000
  0
TEXT
  5
27B
  8
SOL-SHEET-LEGEND
 10
8275.0000
 20
-12811.8750
 30
0.0000
 40
125.0000
  1
\U+05D7\U+05DC\U+05D5\U+05DF
 50
0.0000
  7
SOLINE
 72
2
 73
2
 11
8275.0000
 21
-12811.8750
 31
0.0000
  0
LINE
  5
27C
  8
SOL-SHEET-FRAME
 10
6975.0000
 20
-13678.1250
 30
0.0000
 11
6975.0000
 21
-13053.1250
 31
0.0000
  0
SOLID
  5
27D
  8
SOL-SHEET-FRAME
 10
6975.0000
 20
-13053.1250
 30
0.0000
 11
6912.5000
 21
-13178.1250
 31
0.0000
 12
7037.5000
 22
-13178.1250
 32
0.0000
 13
7037.5000
 23
-13178.1250
 33
0.0000
  0
TEXT
  5
27E
  8
SOL-SHEET-FRAME
 10
6975.0000
 20
-13015.6250
 30
0.0000
 40
137.5000
  1
N
 50
0.0000
  7
SOLINE
 72
1
 73
3
 11
6975.0000
 21
-13015.6250
 31
0.0000
  0
LINE
  5
27F
  8
SOL-SHEET-FRAME
 10
6600.0000
 20
-13865.6250
 30
0.0000
 11
7400.0000
 21
-13865.6250
 31
0.0000
  0
LINE
  5
280
  8
SOL-SHEET-FRAME
 10
6600.0000
 20
-13865.6250
 30
0.0000
 11
6600.0000
 21
-13928.1250
 31
0.0000
  0
LINE
  5
281
  8
SOL-SHEET-FRAME
 10
6800.0000
 20
-13865.6250
 30
0.0000
 11
6800.0000
 21
-13928.1250
 31
0.0000
  0
LINE
  5
282
  8
SOL-SHEET-FRAME
 10
7000.0000
 20
-13865.6250
 30
0.0000
 11
7000.0000
 21
-13928.1250
 31
0.0000
  0
LINE
  5
283
  8
SOL-SHEET-FRAME
 10
7200.0000
 20
-13865.6250
 30
0.0000
 11
7200.0000
 21
-13928.1250
 31
0.0000
  0
LINE
  5
284
  8
SOL-SHEET-FRAME
 10
7400.0000
 20
-13865.6250
 30
0.0000
 11
7400.0000
 21
-13928.1250
 31
0.0000
  0
TEXT
  5
285
  8
SOL-SHEET-FRAME
 10
6600.0000
 20
-14065.6250
 30
0.0000
 40
87.5000
  1
0
 50
0.0000
  7
SOLINE
 72
1
 11
6600.0000
 21
-14065.6250
 31
0.0000
  0
TEXT
  5
286
  8
SOL-SHEET-FRAME
 10
7400.0000
 20
-14065.6250
 30
0.0000
 40
87.5000
  1
0.8 m
 50
0.0000
  7
SOLINE
 72
2
 11
7400.0000
 21
-14065.6250
 31
0.0000
  0
LINE
  5
287
  8
SOL-KIROT-SYM
 10
-1000.0000
 20
-9600.0000
 30
0.0000
 11
3000.0000
 21
-9600.0000
 31
0.0000
  0
LINE
  5
288
  8
SOL-KIROT-SYM
 10
3000.0000
 20
-9600.0000
 30
0.0000
 11
3000.0000
 21
-7000.0000
 31
0.0000
  0
LINE
  5
289
  8
SOL-KIROT-SYM
 10
3000.0000
 20
-7000.0000
 30
0.0000
 11
-1000.0000
 21
-7000.0000
 31
0.0000
  0
LINE
  5
28A
  8
SOL-KIROT-SYM
 10
-1000.0000
 20
-7000.0000
 30
0.0000
 11
-1000.0000
 21
-9600.0000
 31
0.0000
  0
LINE
  5
28B
  8
SOL-MIDOT-CHUTS
 10
-1000.0000
 20
-9650.0000
 30
0.0000
 11
-1000.0000
 21
-10050.0000
 31
0.0000
  0
LINE
  5
28C
  8
SOL-MIDOT-CHUTS
 10
3000.0000
 20
-9650.0000
 30
0.0000
 11
3000.0000
 21
-10050.0000
 31
0.0000
  0
LINE
  5
28D
  8
SOL-MIDOT-CHUTS
 10
-1000.0000
 20
-9975.0000
 30
0.0000
 11
3000.0000
 21
-9975.0000
 31
0.0000
  0
SOLID
  5
28E
  8
SOL-MIDOT-CHUTS
 10
-1000.0000
 20
-9975.0000
 30
0.0000
 11
-1143.7500
 21
-10015.0000
 31
0.0000
 12
-1143.7500
 22
-9935.0000
 32
0.0000
 13
-1143.7500
 23
-9935.0000
 33
0.0000
  0
SOLID
  5
28F
  8
SOL-MIDOT-CHUTS
 10
3000.0000
 20
-9975.0000
 30
0.0000
 11
3143.7500
 21
-10015.0000
 31
0.0000
 12
3143.7500
 22
-9935.0000
 32
0.0000
 13
3143.7500
 23
-9935.0000
 33
0.0000
  0
TEXT
  5
290
  8
SOL-MIDOT-CHUTS
 10
1000.0000
 20
-10093.7500
 30
0.0000
 40
125.0000
  1
400
 50
0.0000
  7
SOLINE
 72
1
 73
2
 11
1000.0000
 21
-10093.7500
 31
0.0000
  0
LINE
  5
291
  8
SOL-MIDOT-CHUTS
 10
-1050.0000
 20
-9600.0000
 30
0.0000
 11
-1450.0000
 21
-9600.0000
 31
0.0000
  0
LINE
  5
292
  8
SOL-MIDOT-CHUTS
 10
-1050.0000
 20
-7000.0000
 30
0.0000
 11
-1450.0000
 21
-7000.0000
 31
0.0000
  0
LINE
  5
293
  8
SOL-MIDOT-CHUTS
 10
-1375.0000
 20
-9600.0000
 30
0.0000
 11
-1375.0000
 21
-7000.0000
 31
0.0000
  0
SOLID
  5
294
  8
SOL-MIDOT-CHUTS
 10
-1375.0000
 20
-9600.0000
 30
0.0000
 11
-1415.0000
 21
-9743.7500
 31
0.0000
 12
-1335.0000
 22
-9743.7500
 32
0.0000
 13
-1335.0000
 23
-9743.7500
 33
0.0000
  0
SOLID
  5
295
  8
SOL-MIDOT-CHUTS
 10
-1375.0000
 20
-7000.0000
 30
0.0000
 11
-1415.0000
 21
-6856.2500
 31
0.0000
 12
-1335.0000
 22
-6856.2500
 32
0.0000
 13
-1335.0000
 23
-6856.2500
 33
0.0000
  0
TEXT
  5
296
  8
SOL-MIDOT-CHUTS
 10
-1493.7500
 20
-8300.0000
 30
0.0000
 40
125.0000
  1
260
 50
90.0000
  7
SOLINE
 72
1
 73
2
 11
-1493.7500
 21
-8300.0000
 31
0.0000
  0
LINE
  5
297
  8
SOL-CHASHMAL-SYM
 10
-700.0000
 20
-9535.0000
 30
0.0000
 11
-610.0000
 21
-9535.0000
 31
0.0000
  0
LINE
  5
298
  8
SOL-CHASHMAL-SYM
 10
-610.0000
 20
-9535.0000
 30
0.0000
 11
-610.0000
 21
-9445.0000
 31
0.0000
  0
LINE
  5
299
  8
SOL-CHASHMAL-SYM
 10
-610.0000
 20
-9445.0000
 30
0.0000
 11
-700.0000
 21
-9445.0000
 31
0.0000
  0
LINE
  5
29A
  8
SOL-CHASHMAL-SYM
 10
-700.0000
 20
-9445.0000
 30
0.0000
 11
-700.0000
 21
-9535.0000
 31
0.0000
  0
LINE
  5
29B
  8
SOL-CHASHMAL-SYM
 10
-655.0000
 20
-9535.0000
 30
0.0000
 11
-655.0000
 21
-9509.8000
 31
0.0000
  0
LINE
  5
29C
  8
SOL-CHASHMAL-SYM
 10
-682.0000
 20
-9482.8000
 30
0.0000
 11
-681.8302
 21
-9479.7770
 31
0.0000
  0
LINE
  5
29D
  8
SOL-CHASHMAL-SYM
 10
-681.8302
 20
-9479.7770
 30
0.0000
 11
-681.3231
 21
-9476.7919
 31
0.0000
  0
LINE
  5
29E
  8
SOL-CHASHMAL-SYM
 10
-681.3231
 20
-9476.7919
 30
0.0000
 11
-680.4848
 21
-9473.8825
 31
0.0000
  0
LINE
  5
29F
  8
SOL-CHASHMAL-SYM
 10
-680.4848
 20
-9473.8825
 30
0.0000
 11
-679.3262
 21
-9471.0851
 31
0.0000
  0
LINE
  5
2A0
  8
SOL-CHASHMAL-SYM
 10
-679.3262
 20
-9471.0851
 30
0.0000
 11
-677.8616
 21
-9468.4351
 31
0.0000
  0
LINE
  5
2A1
  8
SOL-CHASHMAL-SYM
 10
-677.8616
 20
-9468.4351
 30
0.0000
 11
-676.1095
 21
-9465.9658
 31
0.0000
  0
LINE
  5
2A2
  8
SOL-CHASHMAL-SYM
 10
-676.1095
 20
-9465.9658
 30
0.0000
 11
-674.0919
 21
-9463.7081
 31
0.0000
  0
LINE
  5
2A3
  8
SOL-CHASHMAL-SYM
 10
-674.0919
 20
-9463.7081
 30
0.0000
 11
-671.8342
 21
-9461.6905
 31
0.0000
  0
LINE
  5
2A4
  8
SOL-CHASHMAL-SYM
 10
-671.8342
 20
-9461.6905
 30
0.0000
 11
-669.3649
 21
-9459.9384
 31
0.0000
  0
LINE
  5
2A5
  8
SOL-CHASHMAL-SYM
 10
-669.3649
 20
-9459.9384
 30
0.0000
 11
-666.7149
 21
-9458.4738
 31
0.0000
  0
LINE
  5
2A6
  8
SOL-CHASHMAL-SYM
 10
-666.7149
 20
-9458.4738
 30
0.0000
 11
-663.9175
 21
-9457.3152
 31
0.0000
  0
LINE
  5
2A7
  8
SOL-CHASHMAL-SYM
 10
-663.9175
 20
-9457.3152
 30
0.0000
 11
-661.0081
 21
-9456.4769
 31
0.0000
  0
LINE
  5
2A8
  8
SOL-CHASHMAL-SYM
 10
-661.0081
 20
-9456.4769
 30
0.0000
 11
-658.0230
 21
-9455.9698
 31
0.0000
  0
LINE
  5
2A9
  8
SOL-CHASHMAL-SYM
 10
-658.0230
 20
-9455.9698
 30
0.0000
 11
-655.0000
 21
-9455.8000
 31
0.0000
  0
LINE
  5
2AA
  8
SOL-CHASHMAL-SYM
 10
-655.0000
 20
-9455.8000
 30
0.0000
 11
-651.9770
 21
-9455.9698
 31
0.0000
  0
LINE
  5
2AB
  8
SOL-CHASHMAL-SYM
 10
-651.9770
 20
-9455.9698
 30
0.0000
 11
-648.9919
 21
-9456.4769
 31
0.0000
  0
LINE
  5
2AC
  8
SOL-CHASHMAL-SYM
 10
-648.9919
 20
-9456.4769
 30
0.0000
 11
-646.0825
 21
-9457.3152
 31
0.0000
  0
LINE
  5
2AD
  8
SOL-CHASHMAL-SYM
 10
-646.0825
 20
-9457.3152
 30
0.0000
 11
-643.2851
 21
-9458.4738
 31
0.0000
  0
LINE
  5
2AE
  8
SOL-CHASHMAL-SYM
 10
-643.2851
 20
-9458.4738
 30
0.0000
 11
-640.6351
 21
-9459.9384
 31
0.0000
  0
LINE
  5
2AF
  8
SOL-CHASHMAL-SYM
 10
-640.6351
 20
-9459.9384
 30
0.0000
 11
-638.1658
 21
-9461.6905
 31
0.0000
  0
LINE
  5
2B0
  8
SOL-CHASHMAL-SYM
 10
-638.1658
 20
-9461.6905
 30
0.0000
 11
-635.9081
 21
-9463.7081
 31
0.0000
  0
LINE
  5
2B1
  8
SOL-CHASHMAL-SYM
 10
-635.9081
 20
-9463.7081
 30
0.0000
 11
-633.8905
 21
-9465.9658
 31
0.0000
  0
LINE
  5
2B2
  8
SOL-CHASHMAL-SYM
 10
-633.8905
 20
-9465.9658
 30
0.0000
 11
-632.1384
 21
-9468.4351
 31
0.0000
  0
LINE
  5
2B3
  8
SOL-CHASHMAL-SYM
 10
-632.1384
 20
-9468.4351
 30
0.0000
 11
-630.6738
 21
-9471.0851
 31
0.0000
  0
LINE
  5
2B4
  8
SOL-CHASHMAL-SYM
 10
-630.6738
 20
-9471.0851
 30
0.0000
 11
-629.5152
 21
-9473.8825
 31
0.0000
  0
LINE
  5
2B5
  8
SOL-CHASHMAL-SYM
 10
-629.5152
 20
-9473.8825
 30
0.0000
 11
-628.6769
 21
-9476.7919
 31
0.0000
  0
LINE
  5
2B6
  8
SOL-CHASHMAL-SYM
 10
-628.6769
 20
-9476.7919
 30
0.0000
 11
-628.1698
 21
-9479.7770
 31
0.0000
  0
LINE
  5
2B7
  8
SOL-CHASHMAL-SYM
 10
-628.1698
 20
-9479.7770
 30
0.0000
 11
-628.0000
 21
-9482.8000
 31
0.0000
  0
LINE
  5
2B8
  8
SOL-CHASHMAL-SYM
 10
-682.0000
 20
-9482.8000
 30
0.0000
 11
-628.0000
 21
-9482.8000
 31
0.0000
  0
LINE
  5
2B9
  8
SOL-CHASHMAL-SYM
 10
-655.0000
 20
-9482.8000
 30
0.0000
 11
-655.0000
 21
-9501.7000
 31
0.0000
  0
LINE
  5
2BA
  8
SOL-CHASHMAL-DIM
 10
-1000.0000
 20
-9640.0000
 30
0.0000
 11
-1000.0000
 21
-10472.5000
 31
0.0000
  0
LINE
  5
2BB
  8
SOL-CHASHMAL-DIM
 10
-655.0000
 20
-9640.0000
 30
0.0000
 11
-655.0000
 21
-10472.5000
 31
0.0000
  0
LINE
  5
2BC
  8
SOL-CHASHMAL-DIM
 10
-1000.0000
 20
-10412.5000
 30
0.0000
 11
-655.0000
 21
-10412.5000
 31
0.0000
  0
SOLID
  5
2BD
  8
SOL-CHASHMAL-DIM
 10
-1000.0000
 20
-10412.5000
 30
0.0000
 11
-1115.0000
 21
-10444.5000
 31
0.0000
 12
-1115.0000
 22
-10380.5000
 32
0.0000
 13
-1115.0000
 23
-10380.5000
 33
0.0000
  0
SOLID
  5
2BE
  8
SOL-CHASHMAL-DIM
 10
-655.0000
 20
-10412.5000
 30
0.0000
 11
-540.0000
 21
-10444.5000
 31
0.0000
 12
-540.0000
 22
-10380.5000
 32
0.0000
 13
-540.0000
 23
-10380.5000
 33
0.0000
  0
TEXT
  5
2BF
  8
SOL-CHASHMAL-DIM
 10
-827.5000
 20
-10507.5000
 30
0.0000
 40
100.0000
  1
34.5
 50
0.0000
  7
SOLINE
 72
1
 73
2
 11
-827.5000
 21
-10507.5000
 31
0.0000
  0
LINE
  5
2C0
  8
SOL-CHASHMAL-DIM
 10
-695.0000
 20
-9600.0000
 30
0.0000
 11
-947.5000
 21
-9600.0000
 31
0.0000
  0
LINE
  5
2C1
  8
SOL-CHASHMAL-DIM
 10
-695.0000
 20
-9490.0000
 30
0.0000
 11
-947.5000
 21
-9490.0000
 31
0.0000
  0
LINE
  5
2C2
  8
SOL-CHASHMAL-DIM
 10
-887.5000
 20
-9600.0000
 30
0.0000
 11
-887.5000
 21
-9490.0000
 31
0.0000
  0
SOLID
  5
2C3
  8
SOL-CHASHMAL-DIM
 10
-887.5000
 20
-9600.0000
 30
0.0000
 11
-919.5000
 21
-9715.0000
 31
0.0000
 12
-855.5000
 22
-9715.0000
 32
0.0000
 13
-855.5000
 23
-9715.0000
 33
0.0000
  0
SOLID
  5
2C4
  8
SOL-CHASHMAL-DIM
 10
-887.5000
 20
-9490.0000
 30
0.0000
 11
-919.5000
 21
-9375.0000
 31
0.0000
 12
-855.5000
 22
-9375.0000
 32
0.0000
 13
-855.5000
 23
-9375.0000
 33
0.0000
  0
TEXT
  5
2C5
  8
SOL-CHASHMAL-DIM
 10
-982.5000
 20
-9545.0000
 30
0.0000
 40
100.0000
  1
11
 50
90.0000
  7
SOLINE
 72
1
 73
2
 11
-982.5000
 21
-9545.0000
 31
0.0000
  0
LINE
  5
2C6
  8
SOL-CHASHMAL-SYM
 10
0.0000
 20
-9535.0000
 30
0.0000
 11
160.0000
 21
-9535.0000
 31
0.0000
  0
LINE
  5
2C7
  8
SOL-CHASHMAL-SYM
 10
160.0000
 20
-9535.0000
 30
0.0000
 11
160.0000
 21
-9445.0000
 31
0.0000
  0
LINE
  5
2C8
  8
SOL-CHASHMAL-SYM
 10
160.0000
 20
-9445.0000
 30
0.0000
 11
0.0000
 21
-9445.0000
 31
0.0000
  0
LINE
  5
2C9
  8
SOL-CHASHMAL-SYM
 10
0.0000
 20
-9445.0000
 30
0.0000
 11
0.0000
 21
-9535.0000
 31
0.0000
  0
LINE
  5
2CA
  8
SOL-CHASHMAL-SYM
 10
80.0000
 20
-9535.0000
 30
0.0000
 11
80.0000
 21
-9502.6000
 31
0.0000
  0
LINE
  5
2CB
  8
SOL-CHASHMAL-SYM
 10
7.8400
 20
-9482.8000
 30
0.0000
 11
8.0613
 21
-9480.5831
 31
0.0000
  0
LINE
  5
2CC
  8
SOL-CHASHMAL-SYM
 10
8.0613
 20
-9480.5831
 30
0.0000
 11
8.7225
 21
-9478.3941
 31
0.0000
  0
LINE
  5
2CD
  8
SOL-CHASHMAL-SYM
 10
8.7225
 20
-9478.3941
 30
0.0000
 11
9.8153
 21
-9476.2605
 31
0.0000
  0
LINE
  5
2CE
  8
SOL-CHASHMAL-SYM
 10
9.8153
 20
-9476.2605
 30
0.0000
 11
11.3259
 21
-9474.2091
 31
0.0000
  0
LINE
  5
2CF
  8
SOL-CHASHMAL-SYM
 10
11.3259
 20
-9474.2091
 30
0.0000
 11
13.2353
 21
-9472.2658
 31
0.0000
  0
LINE
  5
2D0
  8
SOL-CHASHMAL-SYM
 10
13.2353
 20
-9472.2658
 30
0.0000
 11
15.5195
 21
-9470.4549
 31
0.0000
  0
LINE
  5
2D1
  8
SOL-CHASHMAL-SYM
 10
15.5195
 20
-9470.4549
 30
0.0000
 11
18.1498
 21
-9468.7993
 31
0.0000
  0
LINE
  5
2D2
  8
SOL-CHASHMAL-SYM
 10
18.1498
 20
-9468.7993
 30
0.0000
 11
21.0932
 21
-9467.3197
 31
0.0000
  0
LINE
  5
2D3
  8
SOL-CHASHMAL-SYM
 10
21.0932
 20
-9467.3197
 30
0.0000
 11
24.3125
 21
-9466.0349
 31
0.0000
  0
LINE
  5
2D4
  8
SOL-CHASHMAL-SYM
 10
24.3125
 20
-9466.0349
 30
0.0000
 11
27.7673
 21
-9464.9608
 31
0.0000
  0
LINE
  5
2D5
  8
SOL-CHASHMAL-SYM
 10
27.7673
 20
-9464.9608
 30
0.0000
 11
31.4142
 21
-9464.1111
 31
0.0000
  0
LINE
  5
2D6
  8
SOL-CHASHMAL-SYM
 10
31.4142
 20
-9464.1111
 30
0.0000
 11
35.2073
 21
-9463.4964
 31
0.0000
  0
LINE
  5
2D7
  8
SOL-CHASHMAL-SYM
 10
35.2073
 20
-9463.4964
 30
0.0000
 11
39.0989
 21
-9463.1245
 31
0.0000
  0
LINE
  5
2D8
  8
SOL-CHASHMAL-SYM
 10
39.0989
 20
-9463.1245
 30
0.0000
 11
43.0400
 21
-9463.0000
 31
0.0000
  0
LINE
  5
2D9
  8
SOL-CHASHMAL-SYM
 10
43.0400
 20
-9463.0000
 30
0.0000
 11
46.9811
 21
-9463.1245
 31
0.0000
  0
LINE
  5
2DA
  8
SOL-CHASHMAL-SYM
 10
46.9811
 20
-9463.1245
 30
0.0000
 11
50.8727
 21
-9463.4964
 31
0.0000
  0
LINE
  5
2DB
  8
SOL-CHASHMAL-SYM
 10
50.8727
 20
-9463.4964
 30
0.0000
 11
54.6658
 21
-9464.1111
 31
0.0000
  0
LINE
  5
2DC
  8
SOL-CHASHMAL-SYM
 10
54.6658
 20
-9464.1111
 30
0.0000
 11
58.3127
 21
-9464.9608
 31
0.0000
  0
LINE
  5
2DD
  8
SOL-CHASHMAL-SYM
 10
58.3127
 20
-9464.9608
 30
0.0000
 11
61.7675
 21
-9466.0349
 31
0.0000
  0
LINE
  5
2DE
  8
SOL-CHASHMAL-SYM
 10
61.7675
 20
-9466.0349
 30
0.0000
 11
64.9868
 21
-9467.3197
 31
0.0000
  0
LINE
  5
2DF
  8
SOL-CHASHMAL-SYM
 10
64.9868
 20
-9467.3197
 30
0.0000
 11
67.9302
 21
-9468.7993
 31
0.0000
  0
LINE
  5
2E0
  8
SOL-CHASHMAL-SYM
 10
67.9302
 20
-9468.7993
 30
0.0000
 11
70.5605
 21
-9470.4549
 31
0.0000
  0
LINE
  5
2E1
  8
SOL-CHASHMAL-SYM
 10
70.5605
 20
-9470.4549
 30
0.0000
 11
72.8447
 21
-9472.2658
 31
0.0000
  0
LINE
  5
2E2
  8
SOL-CHASHMAL-SYM
 10
72.8447
 20
-9472.2658
 30
0.0000
 11
74.7541
 21
-9474.2091
 31
0.0000
  0
LINE
  5
2E3
  8
SOL-CHASHMAL-SYM
 10
74.7541
 20
-9474.2091
 30
0.0000
 11
76.2647
 21
-9476.2605
 31
0.0000
  0
LINE
  5
2E4
  8
SOL-CHASHMAL-SYM
 10
76.2647
 20
-9476.2605
 30
0.0000
 11
77.3575
 21
-9478.3941
 31
0.0000
  0
LINE
  5
2E5
  8
SOL-CHASHMAL-SYM
 10
77.3575
 20
-9478.3941
 30
0.0000
 11
78.0187
 21
-9480.5831
 31
0.0000
  0
LINE
  5
2E6
  8
SOL-CHASHMAL-SYM
 10
78.0187
 20
-9480.5831
 30
0.0000
 11
78.2400
 21
-9482.8000
 31
0.0000
  0
LINE
  5
2E7
  8
SOL-CHASHMAL-SYM
 10
7.8400
 20
-9482.8000
 30
0.0000
 11
78.2400
 21
-9482.8000
 31
0.0000
  0
LINE
  5
2E8
  8
SOL-CHASHMAL-SYM
 10
43.0400
 20
-9482.8000
 30
0.0000
 11
43.0400
 21
-9496.6600
 31
0.0000
  0
LINE
  5
2E9
  8
SOL-CHASHMAL-SYM
 10
81.7600
 20
-9482.8000
 30
0.0000
 11
81.9813
 21
-9480.5831
 31
0.0000
  0
LINE
  5
2EA
  8
SOL-CHASHMAL-SYM
 10
81.9813
 20
-9480.5831
 30
0.0000
 11
82.6425
 21
-9478.3941
 31
0.0000
  0
LINE
  5
2EB
  8
SOL-CHASHMAL-SYM
 10
82.6425
 20
-9478.3941
 30
0.0000
 11
83.7353
 21
-9476.2605
 31
0.0000
  0
LINE
  5
2EC
  8
SOL-CHASHMAL-SYM
 10
83.7353
 20
-9476.2605
 30
0.0000
 11
85.2459
 21
-9474.2091
 31
0.0000
  0
LINE
  5
2ED
  8
SOL-CHASHMAL-SYM
 10
85.2459
 20
-9474.2091
 30
0.0000
 11
87.1553
 21
-9472.2658
 31
0.0000
  0
LINE
  5
2EE
  8
SOL-CHASHMAL-SYM
 10
87.1553
 20
-9472.2658
 30
0.0000
 11
89.4395
 21
-9470.4549
 31
0.0000
  0
LINE
  5
2EF
  8
SOL-CHASHMAL-SYM
 10
89.4395
 20
-9470.4549
 30
0.0000
 11
92.0698
 21
-9468.7993
 31
0.0000
  0
LINE
  5
2F0
  8
SOL-CHASHMAL-SYM
 10
92.0698
 20
-9468.7993
 30
0.0000
 11
95.0132
 21
-9467.3197
 31
0.0000
  0
LINE
  5
2F1
  8
SOL-CHASHMAL-SYM
 10
95.0132
 20
-9467.3197
 30
0.0000
 11
98.2325
 21
-9466.0349
 31
0.0000
  0
LINE
  5
2F2
  8
SOL-CHASHMAL-SYM
 10
98.2325
 20
-9466.0349
 30
0.0000
 11
101.6873
 21
-9464.9608
 31
0.0000
  0
LINE
  5
2F3
  8
SOL-CHASHMAL-SYM
 10
101.6873
 20
-9464.9608
 30
0.0000
 11
105.3342
 21
-9464.1111
 31
0.0000
  0
LINE
  5
2F4
  8
SOL-CHASHMAL-SYM
 10
105.3342
 20
-9464.1111
 30
0.0000
 11
109.1273
 21
-9463.4964
 31
0.0000
  0
LINE
  5
2F5
  8
SOL-CHASHMAL-SYM
 10
109.1273
 20
-9463.4964
 30
0.0000
 11
113.0189
 21
-9463.1245
 31
0.0000
  0
LINE
  5
2F6
  8
SOL-CHASHMAL-SYM
 10
113.0189
 20
-9463.1245
 30
0.0000
 11
116.9600
 21
-9463.0000
 31
0.0000
  0
LINE
  5
2F7
  8
SOL-CHASHMAL-SYM
 10
116.9600
 20
-9463.0000
 30
0.0000
 11
120.9011
 21
-9463.1245
 31
0.0000
  0
LINE
  5
2F8
  8
SOL-CHASHMAL-SYM
 10
120.9011
 20
-9463.1245
 30
0.0000
 11
124.7927
 21
-9463.4964
 31
0.0000
  0
LINE
  5
2F9
  8
SOL-CHASHMAL-SYM
 10
124.7927
 20
-9463.4964
 30
0.0000
 11
128.5858
 21
-9464.1111
 31
0.0000
  0
LINE
  5
2FA
  8
SOL-CHASHMAL-SYM
 10
128.5858
 20
-9464.1111
 30
0.0000
 11
132.2327
 21
-9464.9608
 31
0.0000
  0
LINE
  5
2FB
  8
SOL-CHASHMAL-SYM
 10
132.2327
 20
-9464.9608
 30
0.0000
 11
135.6875
 21
-9466.0349
 31
0.0000
  0
LINE
  5
2FC
  8
SOL-CHASHMAL-SYM
 10
135.6875
 20
-9466.0349
 30
0.0000
 11
138.9068
 21
-9467.3197
 31
0.0000
  0
LINE
  5
2FD
  8
SOL-CHASHMAL-SYM
 10
138.9068
 20
-9467.3197
 30
0.0000
 11
141.8502
 21
-9468.7993
 31
0.0000
  0
LINE
  5
2FE
  8
SOL-CHASHMAL-SYM
 10
141.8502
 20
-9468.7993
 30
0.0000
 11
144.4805
 21
-9470.4549
 31
0.0000
  0
LINE
  5
2FF
  8
SOL-CHASHMAL-SYM
 10
144.4805
 20
-9470.4549
 30
0.0000
 11
146.7647
 21
-9472.2658
 31
0.0000
  0
LINE
  5
300
  8
SOL-CHASHMAL-SYM
 10
146.7647
 20
-9472.2658
 30
0.0000
 11
148.6741
 21
-9474.2091
 31
0.0000
  0
LINE
  5
301
  8
SOL-CHASHMAL-SYM
 10
148.6741
 20
-9474.2091
 30
0.0000
 11
150.1847
 21
-9476.2605
 31
0.0000
  0
LINE
  5
302
  8
SOL-CHASHMAL-SYM
 10
150.1847
 20
-9476.2605
 30
0.0000
 11
151.2775
 21
-9478.3941
 31
0.0000
  0
LINE
  5
303
  8
SOL-CHASHMAL-SYM
 10
151.2775
 20
-9478.3941
 30
0.0000
 11
151.9387
 21
-9480.5831
 31
0.0000
  0
LINE
  5
304
  8
SOL-CHASHMAL-SYM
 10
151.9387
 20
-9480.5831
 30
0.0000
 11
152.1600
 21
-9482.8000
 31
0.0000
  0
LINE
  5
305
  8
SOL-CHASHMAL-SYM
 10
81.7600
 20
-9482.8000
 30
0.0000
 11
152.1600
 21
-9482.8000
 31
0.0000
  0
LINE
  5
306
  8
SOL-CHASHMAL-SYM
 10
116.9600
 20
-9482.8000
 30
0.0000
 11
116.9600
 21
-9496.6600
 31
0.0000
  0
LINE
  5
307
  8
SOL-CHASHMAL-DIM
 10
-1000.0000
 20
-9640.0000
 30
0.0000
 11
-1000.0000
 21
-10822.5000
 31
0.0000
  0
LINE
  5
308
  8
SOL-CHASHMAL-DIM
 10
80.0000
 20
-9640.0000
 30
0.0000
 11
80.0000
 21
-10822.5000
 31
0.0000
  0
LINE
  5
309
  8
SOL-CHASHMAL-DIM
 10
-1000.0000
 20
-10762.5000
 30
0.0000
 11
80.0000
 21
-10762.5000
 31
0.0000
  0
SOLID
  5
30A
  8
SOL-CHASHMAL-DIM
 10
-1000.0000
 20
-10762.5000
 30
0.0000
 11
-1115.0000
 21
-10794.5000
 31
0.0000
 12
-1115.0000
 22
-10730.5000
 32
0.0000
 13
-1115.0000
 23
-10730.5000
 33
0.0000
  0
SOLID
  5
30B
  8
SOL-CHASHMAL-DIM
 10
80.0000
 20
-10762.5000
 30
0.0000
 11
195.0000
 21
-10794.5000
 31
0.0000
 12
195.0000
 22
-10730.5000
 32
0.0000
 13
195.0000
 23
-10730.5000
 33
0.0000
  0
TEXT
  5
30C
  8
SOL-CHASHMAL-DIM
 10
-460.0000
 20
-10857.5000
 30
0.0000
 40
100.0000
  1
108
 50
0.0000
  7
SOLINE
 72
1
 73
2
 11
-460.0000
 21
-10857.5000
 31
0.0000
  0
LINE
  5
30D
  8
SOL-CHASHMAL-DIM
 10
120.0000
 20
-9600.0000
 30
0.0000
 11
407.5000
 21
-9600.0000
 31
0.0000
  0
LINE
  5
30E
  8
SOL-CHASHMAL-DIM
 10
120.0000
 20
-9490.0000
 30
0.0000
 11
407.5000
 21
-9490.0000
 31
0.0000
  0
LINE
  5
30F
  8
SOL-CHASHMAL-DIM
 10
347.5000
 20
-9600.0000
 30
0.0000
 11
347.5000
 21
-9490.0000
 31
0.0000
  0
SOLID
  5
310
  8
SOL-CHASHMAL-DIM
 10
347.5000
 20
-9600.0000
 30
0.0000
 11
379.5000
 21
-9715.0000
 31
0.0000
 12
315.5000
 22
-9715.0000
 32
0.0000
 13
315.5000
 23
-9715.0000
 33
0.0000
  0
SOLID
  5
311
  8
SOL-CHASHMAL-DIM
 10
347.5000
 20
-9490.0000
 30
0.0000
 11
379.5000
 21
-9375.0000
 31
0.0000
 12
315.5000
 22
-9375.0000
 32
0.0000
 13
315.5000
 23
-9375.0000
 33
0.0000
  0
TEXT
  5
312
  8
SOL-CHASHMAL-DIM
 10
442.5000
 20
-9545.0000
 30
0.0000
 40
100.0000
  1
11
 50
90.0000
  7
SOLINE
 72
1
 73
2
 11
442.5000
 21
-9545.0000
 31
0.0000
  0
LINE
  5
313
  8
SOL-CHASHMAL-SYM
 10
700.0000
 20
-9515.0000
 30
0.0000
 11
790.0000
 21
-9515.0000
 31
0.0000
  0
LINE
  5
314
  8
SOL-CHASHMAL-SYM
 10
790.0000
 20
-9515.0000
 30
0.0000
 11
790.0000
 21
-9425.0000
 31
0.0000
  0
LINE
  5
315
  8
SOL-CHASHMAL-SYM
 10
790.0000
 20
-9425.0000
 30
0.0000
 11
700.0000
 21
-9425.0000
 31
0.0000
  0
LINE
  5
316
  8
SOL-CHASHMAL-SYM
 10
700.0000
 20
-9425.0000
 30
0.0000
 11
700.0000
 21
-9515.0000
 31
0.0000
  0
LINE
  5
317
  8
SOL-CHASHMAL-SYM
 10
745.0000
 20
-9515.0000
 30
0.0000
 11
745.0000
 21
-9480.8000
 31
0.0000
  0
ARC
  5
318
  8
SOL-CHASHMAL-SYM
 10
745.0000
 20
-9470.0000
 30
0.0000
 40
10.8000
 50
0.0000
 51
360.0000
  0
LINE
  5
319
  8
SOL-CHASHMAL-SYM
 10
753.1000
 20
-9465.6800
 30
0.0000
 11
777.4000
 21
-9439.4000
 31
0.0000
  0
LINE
  5
31A
  8
SOL-CHASHMAL-DIM
 10
-1000.0000
 20
-9640.0000
 30
0.0000
 11
-1000.0000
 21
-11172.5000
 31
0.0000
  0
LINE
  5
31B
  8
SOL-CHASHMAL-DIM
 10
745.0000
 20
-9640.0000
 30
0.0000
 11
745.0000
 21
-11172.5000
 31
0.0000
  0
LINE
  5
31C
  8
SOL-CHASHMAL-DIM
 10
-1000.0000
 20
-11112.5000
 30
0.0000
 11
745.0000
 21
-11112.5000
 31
0.0000
  0
SOLID
  5
31D
  8
SOL-CHASHMAL-DIM
 10
-1000.0000
 20
-11112.5000
 30
0.0000
 11
-1115.0000
 21
-11144.5000
 31
0.0000
 12
-1115.0000
 22
-11080.5000
 32
0.0000
 13
-1115.0000
 23
-11080.5000
 33
0.0000
  0
SOLID
  5
31E
  8
SOL-CHASHMAL-DIM
 10
745.0000
 20
-11112.5000
 30
0.0000
 11
860.0000
 21
-11144.5000
 31
0.0000
 12
860.0000
 22
-11080.5000
 32
0.0000
 13
860.0000
 23
-11080.5000
 33
0.0000
  0
TEXT
  5
31F
  8
SOL-CHASHMAL-DIM
 10
-127.5000
 20
-11207.5000
 30
0.0000
 40
100.0000
  1
174.5
 50
0.0000
  7
SOLINE
 72
1
 73
2
 11
-127.5000
 21
-11207.5000
 31
0.0000
  0
LINE
  5
320
  8
SOL-CHASHMAL-DIM
 10
705.0000
 20
-9600.0000
 30
0.0000
 11
452.5000
 21
-9600.0000
 31
0.0000
  0
LINE
  5
321
  8
SOL-CHASHMAL-DIM
 10
705.0000
 20
-9470.0000
 30
0.0000
 11
452.5000
 21
-9470.0000
 31
0.0000
  0
LINE
  5
322
  8
SOL-CHASHMAL-DIM
 10
512.5000
 20
-9600.0000
 30
0.0000
 11
512.5000
 21
-9470.0000
 31
0.0000
  0
SOLID
  5
323
  8
SOL-CHASHMAL-DIM
 10
512.5000
 20
-9600.0000
 30
0.0000
 11
480.5000
 21
-9715.0000
 31
0.0000
 12
544.5000
 22
-9715.0000
 32
0.0000
 13
544.5000
 23
-9715.0000
 33
0.0000
  0
SOLID
  5
324
  8
SOL-CHASHMAL-DIM
 10
512.5000
 20
-9470.0000
 30
0.0000
 11
480.5000
 21
-9355.0000
 31
0.0000
 12
544.5000
 22
-9355.0000
 32
0.0000
 13
544.5000
 23
-9355.0000
 33
0.0000
  0
TEXT
  5
325
  8
SOL-CHASHMAL-DIM
 10
417.5000
 20
-9535.0000
 30
0.0000
 40
100.0000
  1
13
 50
90.0000
  7
SOLINE
 72
1
 73
2
 11
417.5000
 21
-9535.0000
 31
0.0000
  0
LINE
  5
326
  8
SOL-CHASHMAL-SYM
 10
1400.0000
 20
-9480.0000
 30
0.0000
 11
1460.0000
 21
-9480.0000
 31
0.0000
  0
LINE
  5
327
  8
SOL-CHASHMAL-SYM
 10
1460.0000
 20
-9480.0000
 30
0.0000
 11
1460.0000
 21
-9420.0000
 31
0.0000
  0
LINE
  5
328
  8
SOL-CHASHMAL-SYM
 10
1460.0000
 20
-9420.0000
 30
0.0000
 11
1400.0000
 21
-9420.0000
 31
0.0000
  0
LINE
  5
329
  8
SOL-CHASHMAL-SYM
 10
1400.0000
 20
-9420.0000
 30
0.0000
 11
1400.0000
 21
-9480.0000
 31
0.0000
  0
LINE
  5
32A
  8
SOL-CHASHMAL-SYM
 10
1430.0000
 20
-9480.0000
 30
0.0000
 11
1430.0000
 21
-9433.2000
 31
0.0000
  0
ARC
  5
32B
  8
SOL-CHASHMAL-SYM
 10
1430.0000
 20
-9451.2000
 30
0.0000
 40
19.2000
 50
0.0000
 51
360.0000
  0
LINE
  5
32C
  8
SOL-CHASHMAL-SYM
 10
1430.0000
 20
-9451.2000
 30
0.0000
 11
1416.8000
 21
-9438.0000
 31
0.0000
  0
LINE
  5
32D
  8
SOL-CHASHMAL-SYM
 10
1430.0000
 20
-9451.2000
 30
0.0000
 11
1443.2000
 21
-9438.0000
 31
0.0000
  0
LINE
  5
32E
  8
SOL-CHASHMAL-SYM
 10
1430.0000
 20
-9451.2000
 30
0.0000
 11
1416.8000
 21
-9464.4000
 31
0.0000
  0
LINE
  5
32F
  8
SOL-CHASHMAL-SYM
 10
1430.0000
 20
-9451.2000
 30
0.0000
 11
1443.2000
 21
-9464.4000
 31
0.0000
  0
LINE
  5
330
  8
SOL-CHASHMAL-DIM
 10
3000.0000
 20
-9560.0000
 30
0.0000
 11
3000.0000
 21
-7677.5000
 31
0.0000
  0
LINE
  5
331
  8
SOL-CHASHMAL-DIM
 10
1430.0000
 20
-9560.0000
 30
0.0000
 11
1430.0000
 21
-7677.5000
 31
0.0000
  0
LINE
  5
332
  8
SOL-CHASHMAL-DIM
 10
3000.0000
 20
-7737.5000
 30
0.0000
 11
1430.0000
 21
-7737.5000
 31
0.0000
  0
SOLID
  5
333
  8
SOL-CHASHMAL-DIM
 10
3000.0000
 20
-7737.5000
 30
0.0000
 11
3115.0000
 21
-7705.5000
 31
0.0000
 12
3115.0000
 22
-7769.5000
 32
0.0000
 13
3115.0000
 23
-7769.5000
 33
0.0000
  0
SOLID
  5
334
  8
SOL-CHASHMAL-DIM
 10
1430.0000
 20
-7737.5000
 30
0.0000
 11
1315.0000
 21
-7705.5000
 31
0.0000
 12
1315.0000
 22
-7769.5000
 32
0.0000
 13
1315.0000
 23
-7769.5000
 33
0.0000
  0
TEXT
  5
335
  8
SOL-CHASHMAL-DIM
 10
2215.0000
 20
-7642.5000
 30
0.0000
 40
100.0000
  1
157
 50
360.0000
  7
SOLINE
 72
1
 73
2
 11
2215.0000
 21
-7642.5000
 31
0.0000
  0
LINE
  5
336
  8
SOL-CHASHMAL-DIM
 10
1470.0000
 20
-9600.0000
 30
0.0000
 11
1707.5000
 21
-9600.0000
 31
0.0000
  0
LINE
  5
337
  8
SOL-CHASHMAL-DIM
 10
1470.0000
 20
-9450.0000
 30
0.0000
 11
1707.5000
 21
-9450.0000
 31
0.0000
  0
LINE
  5
338
  8
SOL-CHASHMAL-DIM
 10
1647.5000
 20
-9600.0000
 30
0.0000
 11
1647.5000
 21
-9450.0000
 31
0.0000
  0
SOLID
  5
339
  8
SOL-CHASHMAL-DIM
 10
1647.5000
 20
-9600.0000
 30
0.0000
 11
1679.5000
 21
-9715.0000
 31
0.0000
 12
1615.5000
 22
-9715.0000
 32
0.0000
 13
1615.5000
 23
-9715.0000
 33
0.0000
  0
SOLID
  5
33A
  8
SOL-CHASHMAL-DIM
 10
1647.5000
 20
-9450.0000
 30
0.0000
 11
1679.5000
 21
-9335.0000
 31
0.0000
 12
1615.5000
 22
-9335.0000
 32
0.0000
 13
1615.5000
 23
-9335.0000
 33
0.0000
  0
TEXT
  5
33B
  8
SOL-CHASHMAL-DIM
 10
1742.5000
 20
-9525.0000
 30
0.0000
 40
100.0000
  1
15
 50
90.0000
  7
SOLINE
 72
1
 73
2
 11
1742.5000
 21
-9525.0000
 31
0.0000
  0
LINE
  5
33C
  8
SOL-CHASHMAL-SYM
 10
2100.0000
 20
-9540.0000
 30
0.0000
 11
2160.0000
 21
-9540.0000
 31
0.0000
  0
LINE
  5
33D
  8
SOL-CHASHMAL-SYM
 10
2160.0000
 20
-9540.0000
 30
0.0000
 11
2160.0000
 21
-9480.0000
 31
0.0000
  0
LINE
  5
33E
  8
SOL-CHASHMAL-SYM
 10
2160.0000
 20
-9480.0000
 30
0.0000
 11
2100.0000
 21
-9480.0000
 31
0.0000
  0
LINE
  5
33F
  8
SOL-CHASHMAL-SYM
 10
2100.0000
 20
-9480.0000
 30
0.0000
 11
2100.0000
 21
-9540.0000
 31
0.0000
  0
LINE
  5
340
  8
SOL-CHASHMAL-SYM
 10
2130.0000
 20
-9540.0000
 30
0.0000
 11
2130.0000
 21
-9493.2000
 31
0.0000
  0
ARC
  5
341
  8
SOL-CHASHMAL-SYM
 10
2130.0000
 20
-9511.2000
 30
0.0000
 40
19.2000
 50
0.0000
 51
360.0000
  0
LINE
  5
342
  8
SOL-CHASHMAL-SYM
 10
2130.0000
 20
-9511.2000
 30
0.0000
 11
2116.8000
 21
-9498.0000
 31
0.0000
  0
LINE
  5
343
  8
SOL-CHASHMAL-SYM
 10
2130.0000
 20
-9511.2000
 30
0.0000
 11
2143.2000
 21
-9498.0000
 31
0.0000
  0
LINE
  5
344
  8
SOL-CHASHMAL-SYM
 10
2130.0000
 20
-9511.2000
 30
0.0000
 11
2116.8000
 21
-9524.4000
 31
0.0000
  0
LINE
  5
345
  8
SOL-CHASHMAL-SYM
 10
2130.0000
 20
-9511.2000
 30
0.0000
 11
2143.2000
 21
-9524.4000
 31
0.0000
  0
LINE
  5
346
  8
SOL-CHASHMAL-DIM
 10
3000.0000
 20
-9560.0000
 30
0.0000
 11
3000.0000
 21
-7327.5000
 31
0.0000
  0
LINE
  5
347
  8
SOL-CHASHMAL-DIM
 10
2130.0000
 20
-9560.0000
 30
0.0000
 11
2130.0000
 21
-7327.5000
 31
0.0000
  0
LINE
  5
348
  8
SOL-CHASHMAL-DIM
 10
3000.0000
 20
-7387.5000
 30
0.0000
 11
2130.0000
 21
-7387.5000
 31
0.0000
  0
SOLID
  5
349
  8
SOL-CHASHMAL-DIM
 10
3000.0000
 20
-7387.5000
 30
0.0000
 11
3115.0000
 21
-7355.5000
 31
0.0000
 12
3115.0000
 22
-7419.5000
 32
0.0000
 13
3115.0000
 23
-7419.5000
 33
0.0000
  0
SOLID
  5
34A
  8
SOL-CHASHMAL-DIM
 10
2130.0000
 20
-7387.5000
 30
0.0000
 11
2015.0000
 21
-7355.5000
 31
0.0000
 12
2015.0000
 22
-7419.5000
 32
0.0000
 13
2015.0000
 23
-7419.5000
 33
0.0000
  0
TEXT
  5
34B
  8
SOL-CHASHMAL-DIM
 10
2565.0000
 20
-7292.5000
 30
0.0000
 40
100.0000
  1
87
 50
360.0000
  7
SOLINE
 72
1
 73
2
 11
2565.0000
 21
-7292.5000
 31
0.0000
  0
LINE
  5
34C
  8
SOL-CHASHMAL-DIM
 10
2090.0000
 20
-9600.0000
 30
0.0000
 11
1852.5000
 21
-9600.0000
 31
0.0000
  0
LINE
  5
34D
  8
SOL-CHASHMAL-DIM
 10
2090.0000
 20
-9510.0000
 30
0.0000
 11
1852.5000
 21
-9510.0000
 31
0.0000
  0
LINE
  5
34E
  8
SOL-CHASHMAL-DIM
 10
1912.5000
 20
-9600.0000
 30
0.0000
 11
1912.5000
 21
-9510.0000
 31
0.0000
  0
SOLID
  5
34F
  8
SOL-CHASHMAL-DIM
 10
1912.5000
 20
-9600.0000
 30
0.0000
 11
1880.5000
 21
-9715.0000
 31
0.0000
 12
1944.5000
 22
-9715.0000
 32
0.0000
 13
1944.5000
 23
-9715.0000
 33
0.0000
  0
SOLID
  5
350
  8
SOL-CHASHMAL-DIM
 10
1912.5000
 20
-9510.0000
 30
0.0000
 11
1880.5000
 21
-9395.0000
 31
0.0000
 12
1944.5000
 22
-9395.0000
 32
0.0000
 13
1944.5000
 23
-9395.0000
 33
0.0000
  0
TEXT
  5
351
  8
SOL-CHASHMAL-DIM
 10
1817.5000
 20
-9555.0000
 30
0.0000
 40
100.0000
  1
9
 50
90.0000
  7
SOLINE
 72
1
 73
2
 11
1817.5000
 21
-9555.0000
 31
0.0000
  0
TEXT
  5
352
  8
SOL-KIROT-TXT
 10
1000.0000
 20
-10537.5000
 30
0.0000
 40
162.5000
  1
W1
 50
0.0000
  7
SOLINE
 72
1
 73
2
 11
1000.0000
 21
-10537.5000
 31
0.0000
  0
LINE
  5
353
  8
SOL-KIROT-SYM
 10
5500.0000
 20
-9600.0000
 30
0.0000
 11
8500.0000
 21
-9600.0000
 31
0.0000
  0
LINE
  5
354
  8
SOL-KIROT-SYM
 10
8500.0000
 20
-9600.0000
 30
0.0000
 11
8500.0000
 21
-7000.0000
 31
0.0000
  0
LINE
  5
355
  8
SOL-KIROT-SYM
 10
8500.0000
 20
-7000.0000
 30
0.0000
 11
5500.0000
 21
-7000.0000
 31
0.0000
  0
LINE
  5
356
  8
SOL-KIROT-SYM
 10
5500.0000
 20
-7000.0000
 30
0.0000
 11
5500.0000
 21
-9600.0000
 31
0.0000
  0
LINE
  5
357
  8
SOL-MIDOT-CHUTS
 10
5500.0000
 20
-9650.0000
 30
0.0000
 11
5500.0000
 21
-10050.0000
 31
0.0000
  0
LINE
  5
358
  8
SOL-MIDOT-CHUTS
 10
8500.0000
 20
-9650.0000
 30
0.0000
 11
8500.0000
 21
-10050.0000
 31
0.0000
  0
LINE
  5
359
  8
SOL-MIDOT-CHUTS
 10
5500.0000
 20
-9975.0000
 30
0.0000
 11
8500.0000
 21
-9975.0000
 31
0.0000
  0
SOLID
  5
35A
  8
SOL-MIDOT-CHUTS
 10
5500.0000
 20
-9975.0000
 30
0.0000
 11
5356.2500
 21
-10015.0000
 31
0.0000
 12
5356.2500
 22
-9935.0000
 32
0.0000
 13
5356.2500
 23
-9935.0000
 33
0.0000
  0
SOLID
  5
35B
  8
SOL-MIDOT-CHUTS
 10
8500.0000
 20
-9975.0000
 30
0.0000
 11
8643.7500
 21
-10015.0000
 31
0.0000
 12
8643.7500
 22
-9935.0000
 32
0.0000
 13
8643.7500
 23
-9935.0000
 33
0.0000
  0
TEXT
  5
35C
  8
SOL-MIDOT-CHUTS
 10
7000.0000
 20
-10093.7500
 30
0.0000
 40
125.0000
  1
300
 50
0.0000
  7
SOLINE
 72
1
 73
2
 11
7000.0000
 21
-10093.7500
 31
0.0000
  0
LINE
  5
35D
  8
SOL-MIDOT-CHUTS
 10
5450.0000
 20
-9600.0000
 30
0.0000
 11
5050.0000
 21
-9600.0000
 31
0.0000
  0
LINE
  5
35E
  8
SOL-MIDOT-CHUTS
 10
5450.0000
 20
-7000.0000
 30
0.0000
 11
5050.0000
 21
-7000.0000
 31
0.0000
  0
LINE
  5
35F
  8
SOL-MIDOT-CHUTS
 10
5125.0000
 20
-9600.0000
 30
0.0000
 11
5125.0000
 21
-7000.0000
 31
0.0000
  0
SOLID
  5
360
  8
SOL-MIDOT-CHUTS
 10
5125.0000
 20
-9600.0000
 30
0.0000
 11
5085.0000
 21
-9743.7500
 31
0.0000
 12
5165.0000
 22
-9743.7500
 32
0.0000
 13
5165.0000
 23
-9743.7500
 33
0.0000
  0
SOLID
  5
361
  8
SOL-MIDOT-CHUTS
 10
5125.0000
 20
-7000.0000
 30
0.0000
 11
5085.0000
 21
-6856.2500
 31
0.0000
 12
5165.0000
 22
-6856.2500
 32
0.0000
 13
5165.0000
 23
-6856.2500
 33
0.0000
  0
TEXT
  5
362
  8
SOL-MIDOT-CHUTS
 10
5006.2500
 20
-8300.0000
 30
0.0000
 40
125.0000
  1
260
 50
90.0000
  7
SOLINE
 72
1
 73
2
 11
5006.2500
 21
-8300.0000
 31
0.0000
  0
LINE
  5
363
  8
SOL-CHASHMAL-SYM
 10
5800.0000
 20
-9480.0000
 30
0.0000
 11
5920.0000
 21
-9480.0000
 31
0.0000
  0
LINE
  5
364
  8
SOL-CHASHMAL-SYM
 10
5920.0000
 20
-9480.0000
 30
0.0000
 11
5920.0000
 21
-9360.0000
 31
0.0000
  0
LINE
  5
365
  8
SOL-CHASHMAL-SYM
 10
5920.0000
 20
-9360.0000
 30
0.0000
 11
5800.0000
 21
-9360.0000
 31
0.0000
  0
LINE
  5
366
  8
SOL-CHASHMAL-SYM
 10
5800.0000
 20
-9360.0000
 30
0.0000
 11
5800.0000
 21
-9480.0000
 31
0.0000
  0
LINE
  5
367
  8
SOL-CHASHMAL-SYM
 10
5860.0000
 20
-9480.0000
 30
0.0000
 11
5860.0000
 21
-9386.4000
 31
0.0000
  0
ARC
  5
368
  8
SOL-CHASHMAL-SYM
 10
5860.0000
 20
-9422.4000
 30
0.0000
 40
38.4000
 50
0.0000
 51
360.0000
  0
LINE
  5
369
  8
SOL-CHASHMAL-SYM
 10
5860.0000
 20
-9422.4000
 30
0.0000
 11
5833.6000
 21
-9396.0000
 31
0.0000
  0
LINE
  5
36A
  8
SOL-CHASHMAL-SYM
 10
5860.0000
 20
-9422.4000
 30
0.0000
 11
5886.4000
 21
-9396.0000
 31
0.0000
  0
LINE
  5
36B
  8
SOL-CHASHMAL-SYM
 10
5860.0000
 20
-9422.4000
 30
0.0000
 11
5833.6000
 21
-9448.8000
 31
0.0000
  0
LINE
  5
36C
  8
SOL-CHASHMAL-SYM
 10
5860.0000
 20
-9422.4000
 30
0.0000
 11
5886.4000
 21
-9448.8000
 31
0.0000
  0
LINE
  5
36D
  8
SOL-CHASHMAL-DIM
 10
5500.0000
 20
-9640.0000
 30
0.0000
 11
5500.0000
 21
-10472.5000
 31
0.0000
  0
LINE
  5
36E
  8
SOL-CHASHMAL-DIM
 10
5860.0000
 20
-9640.0000
 30
0.0000
 11
5860.0000
 21
-10472.5000
 31
0.0000
  0
LINE
  5
36F
  8
SOL-CHASHMAL-DIM
 10
5500.0000
 20
-10412.5000
 30
0.0000
 11
5860.0000
 21
-10412.5000
 31
0.0000
  0
SOLID
  5
370
  8
SOL-CHASHMAL-DIM
 10
5500.0000
 20
-10412.5000
 30
0.0000
 11
5385.0000
 21
-10444.5000
 31
0.0000
 12
5385.0000
 22
-10380.5000
 32
0.0000
 13
5385.0000
 23
-10380.5000
 33
0.0000
  0
SOLID
  5
371
  8
SOL-CHASHMAL-DIM
 10
5860.0000
 20
-10412.5000
 30
0.0000
 11
5975.0000
 21
-10444.5000
 31
0.0000
 12
5975.0000
 22
-10380.5000
 32
0.0000
 13
5975.0000
 23
-10380.5000
 33
0.0000
  0
TEXT
  5
372
  8
SOL-CHASHMAL-DIM
 10
5680.0000
 20
-10507.5000
 30
0.0000
 40
100.0000
  1
36
 50
0.0000
  7
SOLINE
 72
1
 73
2
 11
5680.0000
 21
-10507.5000
 31
0.0000
  0
LINE
  5
373
  8
SOL-CHASHMAL-DIM
 10
5900.0000
 20
-9600.0000
 30
0.0000
 11
6167.5000
 21
-9600.0000
 31
0.0000
  0
LINE
  5
374
  8
SOL-CHASHMAL-DIM
 10
5900.0000
 20
-9420.0000
 30
0.0000
 11
6167.5000
 21
-9420.0000
 31
0.0000
  0
LINE
  5
375
  8
SOL-CHASHMAL-DIM
 10
6107.5000
 20
-9600.0000
 30
0.0000
 11
6107.5000
 21
-9420.0000
 31
0.0000
  0
SOLID
  5
376
  8
SOL-CHASHMAL-DIM
 10
6107.5000
 20
-9600.0000
 30
0.0000
 11
6139.5000
 21
-9715.0000
 31
0.0000
 12
6075.5000
 22
-9715.0000
 32
0.0000
 13
6075.5000
 23
-9715.0000
 33
0.0000
  0
SOLID
  5
377
  8
SOL-CHASHMAL-DIM
 10
6107.5000
 20
-9420.0000
 30
0.0000
 11
6139.5000
 21
-9305.0000
 31
0.0000
 12
6075.5000
 22
-9305.0000
 32
0.0000
 13
6075.5000
 23
-9305.0000
 33
0.0000
  0
TEXT
  5
378
  8
SOL-CHASHMAL-DIM
 10
6202.5000
 20
-9510.0000
 30
0.0000
 40
100.0000
  1
18
 50
90.0000
  7
SOLINE
 72
1
 73
2
 11
6202.5000
 21
-9510.0000
 31
0.0000
  0
LINE
  5
379
  8
SOL-TEURA-SYM
 10
6500.0000
 20
-7075.0000
 30
0.0000
 11
6650.0000
 21
-7075.0000
 31
0.0000
  0
LINE
  5
37A
  8
SOL-TEURA-SYM
 10
6650.0000
 20
-7075.0000
 30
0.0000
 11
6650.0000
 21
-6925.0000
 31
0.0000
  0
LINE
  5
37B
  8
SOL-TEURA-SYM
 10
6650.0000
 20
-6925.0000
 30
0.0000
 11
6500.0000
 21
-6925.0000
 31
0.0000
  0
LINE
  5
37C
  8
SOL-TEURA-SYM
 10
6500.0000
 20
-6925.0000
 30
0.0000
 11
6500.0000
 21
-7075.0000
 31
0.0000
  0
ARC
  5
37D
  8
SOL-TEURA-SYM
 10
6575.0000
 20
-7000.0000
 30
0.0000
 40
45.0000
 50
0.0000
 51
360.0000
  0
LINE
  5
37E
  8
SOL-TEURA-SYM
 10
6543.5000
 20
-6968.5000
 30
0.0000
 11
6606.5000
 21
-7031.5000
 31
0.0000
  0
LINE
  5
37F
  8
SOL-TEURA-SYM
 10
6606.5000
 20
-6968.5000
 30
0.0000
 11
6543.5000
 21
-7031.5000
 31
0.0000
  0
LINE
  5
380
  8
SOL-TEURA-DIM
 10
5500.0000
 20
-9640.0000
 30
0.0000
 11
5500.0000
 21
-10822.5000
 31
0.0000
  0
LINE
  5
381
  8
SOL-TEURA-DIM
 10
6575.0000
 20
-9640.0000
 30
0.0000
 11
6575.0000
 21
-10822.5000
 31
0.0000
  0
LINE
  5
382
  8
SOL-TEURA-DIM
 10
5500.0000
 20
-10762.5000
 30
0.0000
 11
6575.0000
 21
-10762.5000
 31
0.0000
  0
SOLID
  5
383
  8
SOL-TEURA-DIM
 10
5500.0000
 20
-10762.5000
 30
0.0000
 11
5385.0000
 21
-10794.5000
 31
0.0000
 12
5385.0000
 22
-10730.5000
 32
0.0000
 13
5385.0000
 23
-10730.5000
 33
0.0000
  0
SOLID
  5
384
  8
SOL-TEURA-DIM
 10
6575.0000
 20
-10762.5000
 30
0.0000
 11
6690.0000
 21
-10794.5000
 31
0.0000
 12
6690.0000
 22
-10730.5000
 32
0.0000
 13
6690.0000
 23
-10730.5000
 33
0.0000
  0
TEXT
  5
385
  8
SOL-TEURA-DIM
 10
6037.5000
 20
-10857.5000
 30
0.0000
 40
100.0000
  1
107.5
 50
0.0000
  7
SOLINE
 72
1
 73
2
 11
6037.5000
 21
-10857.5000
 31
0.0000
  0
LINE
  5
386
  8
SOL-TEURA-DIM
 10
6535.0000
 20
-9600.0000
 30
0.0000
 11
6252.5000
 21
-9600.0000
 31
0.0000
  0
LINE
  5
387
  8
SOL-TEURA-DIM
 10
6535.0000
 20
-7000.0000
 30
0.0000
 11
6252.5000
 21
-7000.0000
 31
0.0000
  0
LINE
  5
388
  8
SOL-TEURA-DIM
 10
6312.5000
 20
-9600.0000
 30
0.0000
 11
6312.5000
 21
-7000.0000
 31
0.0000
  0
SOLID
  5
389
  8
SOL-TEURA-DIM
 10
6312.5000
 20
-9600.0000
 30
0.0000
 11
6280.5000
 21
-9715.0000
 31
0.0000
 12
6344.5000
 22
-9715.0000
 32
0.0000
 13
6344.5000
 23
-9715.0000
 33
0.0000
  0
SOLID
  5
38A
  8
SOL-TEURA-DIM
 10
6312.5000
 20
-7000.0000
 30
0.0000
 11
6280.5000
 21
-6885.0000
 31
0.0000
 12
6344.5000
 22
-6885.0000
 32
0.0000
 13
6344.5000
 23
-6885.0000
 33
0.0000
  0
TEXT
  5
38B
  8
SOL-TEURA-DIM
 10
6217.5000
 20
-8300.0000
 30
0.0000
 40
100.0000
  1
260
 50
90.0000
  7
SOLINE
 72
1
 73
2
 11
6217.5000
 21
-8300.0000
 31
0.0000
  0
LINE
  5
38C
  8
SOL-MAYIM-SYM
 10
7200.0000
 20
-9580.0000
 30
0.0000
 11
7260.0000
 21
-9580.0000
 31
0.0000
  0
LINE
  5
38D
  8
SOL-MAYIM-SYM
 10
7260.0000
 20
-9580.0000
 30
0.0000
 11
7260.0000
 21
-9520.0000
 31
0.0000
  0
LINE
  5
38E
  8
SOL-MAYIM-SYM
 10
7260.0000
 20
-9520.0000
 30
0.0000
 11
7200.0000
 21
-9520.0000
 31
0.0000
  0
LINE
  5
38F
  8
SOL-MAYIM-SYM
 10
7200.0000
 20
-9520.0000
 30
0.0000
 11
7200.0000
 21
-9580.0000
 31
0.0000
  0
LINE
  5
390
  8
SOL-MAYIM-SYM
 10
7230.0000
 20
-9580.0000
 30
0.0000
 11
7230.0000
 21
-9566.8000
 31
0.0000
  0
ARC
  5
391
  8
SOL-MAYIM-SYM
 10
7230.0000
 20
-9550.0000
 30
0.0000
 40
16.8000
 50
0.0000
 51
360.0000
  0
LINE
  5
392
  8
SOL-MAYIM-SYM
 10
7216.8000
 20
-9550.0000
 30
0.0000
 11
7243.2000
 21
-9550.0000
 31
0.0000
  0
LINE
  5
393
  8
SOL-MAYIM-SYM
 10
7230.0000
 20
-9536.8000
 30
0.0000
 11
7230.0000
 21
-9563.2000
 31
0.0000
  0
LINE
  5
394
  8
SOL-MAYIM-DIM
 10
8500.0000
 20
-9560.0000
 30
0.0000
 11
8500.0000
 21
-8027.5000
 31
0.0000
  0
LINE
  5
395
  8
SOL-MAYIM-DIM
 10
7230.0000
 20
-9560.0000
 30
0.0000
 11
7230.0000
 21
-8027.5000
 31
0.0000
  0
LINE
  5
396
  8
SOL-MAYIM-DIM
 10
8500.0000
 20
-8087.5000
 30
0.0000
 11
7230.0000
 21
-8087.5000
 31
0.0000
  0
SOLID
  5
397
  8
SOL-MAYIM-DIM
 10
8500.0000
 20
-8087.5000
 30
0.0000
 11
8615.0000
 21
-8055.5000
 31
0.0000
 12
8615.0000
 22
-8119.5000
 32
0.0000
 13
8615.0000
 23
-8119.5000
 33
0.0000
  0
SOLID
  5
398
  8
SOL-MAYIM-DIM
 10
7230.0000
 20
-8087.5000
 30
0.0000
 11
7115.0000
 21
-8055.5000
 31
0.0000
 12
7115.0000
 22
-8119.5000
 32
0.0000
 13
7115.0000
 23
-8119.5000
 33
0.0000
  0
TEXT
  5
399
  8
SOL-MAYIM-DIM
 10
7865.0000
 20
-7992.5000
 30
0.0000
 40
100.0000
  1
127
 50
360.0000
  7
SOLINE
 72
1
 73
2
 11
7865.0000
 21
-7992.5000
 31
0.0000
  0
LINE
  5
39A
  8
SOL-MAYIM-DIM
 10
7270.0000
 20
-9600.0000
 30
0.0000
 11
7507.5000
 21
-9600.0000
 31
0.0000
  0
LINE
  5
39B
  8
SOL-MAYIM-DIM
 10
7270.0000
 20
-9550.0000
 30
0.0000
 11
7507.5000
 21
-9550.0000
 31
0.0000
  0
LINE
  5
39C
  8
SOL-MAYIM-DIM
 10
7447.5000
 20
-9600.0000
 30
0.0000
 11
7447.5000
 21
-9550.0000
 31
0.0000
  0
SOLID
  5
39D
  8
SOL-MAYIM-DIM
 10
7447.5000
 20
-9600.0000
 30
0.0000
 11
7479.5000
 21
-9715.0000
 31
0.0000
 12
7415.5000
 22
-9715.0000
 32
0.0000
 13
7415.5000
 23
-9715.0000
 33
0.0000
  0
SOLID
  5
39E
  8
SOL-MAYIM-DIM
 10
7447.5000
 20
-9550.0000
 30
0.0000
 11
7479.5000
 21
-9435.0000
 31
0.0000
 12
7415.5000
 22
-9435.0000
 32
0.0000
 13
7415.5000
 23
-9435.0000
 33
0.0000
  0
TEXT
  5
39F
  8
SOL-MAYIM-DIM
 10
7542.5000
 20
-9575.0000
 30
0.0000
 40
100.0000
  1
5
 50
90.0000
  7
SOLINE
 72
1
 73
2
 11
7542.5000
 21
-9575.0000
 31
0.0000
  0
LINE
  5
3A0
  8
SOL-GAZ-SYM
 10
7900.0000
 20
-9570.0000
 30
0.0000
 11
7960.0000
 21
-9570.0000
 31
0.0000
  0
LINE
  5
3A1
  8
SOL-GAZ-SYM
 10
7960.0000
 20
-9570.0000
 30
0.0000
 11
7960.0000
 21
-9510.0000
 31
0.0000
  0
LINE
  5
3A2
  8
SOL-GAZ-SYM
 10
7960.0000
 20
-9510.0000
 30
0.0000
 11
7900.0000
 21
-9510.0000
 31
0.0000
  0
LINE
  5
3A3
  8
SOL-GAZ-SYM
 10
7900.0000
 20
-9510.0000
 30
0.0000
 11
7900.0000
 21
-9570.0000
 31
0.0000
  0
LINE
  5
3A4
  8
SOL-GAZ-SYM
 10
7930.0000
 20
-9570.0000
 30
0.0000
 11
7930.0000
 21
-9558.0000
 31
0.0000
  0
LINE
  5
3A5
  8
SOL-GAZ-SYM
 10
7930.0000
 20
-9522.0000
 30
0.0000
 11
7945.6000
 21
-9531.0000
 31
0.0000
  0
LINE
  5
3A6
  8
SOL-GAZ-SYM
 10
7945.6000
 20
-9531.0000
 30
0.0000
 11
7945.6000
 21
-9549.0000
 31
0.0000
  0
LINE
  5
3A7
  8
SOL-GAZ-SYM
 10
7945.6000
 20
-9549.0000
 30
0.0000
 11
7930.0000
 21
-9558.0000
 31
0.0000
  0
LINE
  5
3A8
  8
SOL-GAZ-SYM
 10
7930.0000
 20
-9558.0000
 30
0.0000
 11
7914.4000
 21
-9549.0000
 31
0.0000
  0
LINE
  5
3A9
  8
SOL-GAZ-SYM
 10
7914.4000
 20
-9549.0000
 30
0.0000
 11
7914.4000
 21
-9531.0000
 31
0.0000
  0
LINE
  5
3AA
  8
SOL-GAZ-SYM
 10
7914.4000
 20
-9531.0000
 30
0.0000
 11
7930.0000
 21
-9522.0000
 31
0.0000
  0
TEXT
  5
3AB
  8
SOL-GAZ-SYM
 10
7930.0000
 20
-9540.0000
 30
0.0000
 40
24.0000
  1
G
 50
0.0000
  7
SOLINE
 72
1
 73
2
 11
7930.0000
 21
-9540.0000
 31
0.0000
  0
LINE
  5
3AC
  8
SOL-GAZ-DIM
 10
8500.0000
 20
-9560.0000
 30
0.0000
 11
8500.0000
 21
-7677.5000
 31
0.0000
  0
LINE
  5
3AD
  8
SOL-GAZ-DIM
 10
7930.0000
 20
-9560.0000
 30
0.0000
 11
7930.0000
 21
-7677.5000
 31
0.0000
  0
LINE
  5
3AE
  8
SOL-GAZ-DIM
 10
8500.0000
 20
-7737.5000
 30
0.0000
 11
7930.0000
 21
-7737.5000
 31
0.0000
  0
SOLID
  5
3AF
  8
SOL-GAZ-DIM
 10
8500.0000
 20
-7737.5000
 30
0.0000
 11
8615.0000
 21
-7705.5000
 31
0.0000
 12
8615.0000
 22
-7769.5000
 32
0.0000
 13
8615.0000
 23
-7769.5000
 33
0.0000
  0
SOLID
  5
3B0
  8
SOL-GAZ-DIM
 10
7930.0000
 20
-7737.5000
 30
0.0000
 11
7815.0000
 21
-7705.5000
 31
0.0000
 12
7815.0000
 22
-7769.5000
 32
0.0000
 13
7815.0000
 23
-7769.5000
 33
0.0000
  0
TEXT
  5
3B1
  8
SOL-GAZ-DIM
 10
8215.0000
 20
-7642.5000
 30
0.0000
 40
100.0000
  1
57
 50
360.0000
  7
SOLINE
 72
1
 73
2
 11
8215.0000
 21
-7642.5000
 31
0.0000
  0
LINE
  5
3B2
  8
SOL-GAZ-DIM
 10
7890.0000
 20
-9600.0000
 30
0.0000
 11
7652.5000
 21
-9600.0000
 31
0.0000
  0
LINE
  5
3B3
  8
SOL-GAZ-DIM
 10
7890.0000
 20
-9540.0000
 30
0.0000
 11
7652.5000
 21
-9540.0000
 31
0.0000
  0
LINE
  5
3B4
  8
SOL-GAZ-DIM
 10
7712.5000
 20
-9600.0000
 30
0.0000
 11
7712.5000
 21
-9540.0000
 31
0.0000
  0
SOLID
  5
3B5
  8
SOL-GAZ-DIM
 10
7712.5000
 20
-9600.0000
 30
0.0000
 11
7680.5000
 21
-9715.0000
 31
0.0000
 12
7744.5000
 22
-9715.0000
 32
0.0000
 13
7744.5000
 23
-9715.0000
 33
0.0000
  0
SOLID
  5
3B6
  8
SOL-GAZ-DIM
 10
7712.5000
 20
-9540.0000
 30
0.0000
 11
7680.5000
 21
-9425.0000
 31
0.0000
 12
7744.5000
 22
-9425.0000
 32
0.0000
 13
7744.5000
 23
-9425.0000
 33
0.0000
  0
TEXT
  5
3B7
  8
SOL-GAZ-DIM
 10
7617.5000
 20
-9570.0000
 30
0.0000
 40
100.0000
  1
6
 50
90.0000
  7
SOLINE
 72
1
 73
2
 11
7617.5000
 21
-9570.0000
 31
0.0000
  0
LINE
  5
3B8
  8
SOL-MAYIM-SYM
 10
8475.0000
 20
-9585.0000
 30
0.0000
 11
8525.0000
 21
-9585.0000
 31
0.0000
  0
LINE
  5
3B9
  8
SOL-MAYIM-SYM
 10
8525.0000
 20
-9585.0000
 30
0.0000
 11
8525.0000
 21
-9535.0000
 31
0.0000
  0
LINE
  5
3BA
  8
SOL-MAYIM-SYM
 10
8525.0000
 20
-9535.0000
 30
0.0000
 11
8475.0000
 21
-9535.0000
 31
0.0000
  0
LINE
  5
3BB
  8
SOL-MAYIM-SYM
 10
8475.0000
 20
-9535.0000
 30
0.0000
 11
8475.0000
 21
-9585.0000
 31
0.0000
  0
LINE
  5
3BC
  8
SOL-MAYIM-SYM
 10
8500.0000
 20
-9585.0000
 30
0.0000
 11
8500.0000
 21
-9574.0000
 31
0.0000
  0
ARC
  5
3BD
  8
SOL-MAYIM-SYM
 10
8500.0000
 20
-9560.0000
 30
0.0000
 40
14.0000
 50
0.0000
 51
360.0000
  0
LINE
  5
3BE
  8
SOL-MAYIM-SYM
 10
8489.0000
 20
-9560.0000
 30
0.0000
 11
8511.0000
 21
-9560.0000
 31
0.0000
  0
LINE
  5
3BF
  8
SOL-MAYIM-SYM
 10
8500.0000
 20
-9549.0000
 30
0.0000
 11
8500.0000
 21
-9571.0000
 31
0.0000
  0
LINE
  5
3C0
  8
SOL-MAYIM-DIM
 10
8500.0000
 20
-9600.0000
 30
0.0000
 11
8500.0000
 21
-9600.0000
 31
0.0000
  0
LINE
  5
3C1
  8
SOL-MAYIM-DIM
 10
8500.0000
 20
-9600.0000
 30
0.0000
 11
8500.0000
 21
-9600.0000
 31
0.0000
  0
LINE
  5
3C2
  8
SOL-MAYIM-DIM
 10
8500.0000
 20
-9600.0000
 30
0.0000
 11
8500.0000
 21
-9600.0000
 31
0.0000
  0
SOLID
  5
3C3
  8
SOL-MAYIM-DIM
 10
8500.0000
 20
-9600.0000
 30
0.0000
 11
8500.0000
 21
-9600.0000
 31
0.0000
 12
8500.0000
 22
-9600.0000
 32
0.0000
 13
8500.0000
 23
-9600.0000
 33
0.0000
  0
SOLID
  5
3C4
  8
SOL-MAYIM-DIM
 10
8500.0000
 20
-9600.0000
 30
0.0000
 11
8500.0000
 21
-9600.0000
 31
0.0000
 12
8500.0000
 22
-9600.0000
 32
0.0000
 13
8500.0000
 23
-9600.0000
 33
0.0000
  0
TEXT
  5
3C5
  8
SOL-MAYIM-DIM
 10
8500.0000
 20
-9600.0000
 30
0.0000
 40
100.0000
  1
0.1
 50
0.0000
  7
SOLINE
 72
1
 73
2
 11
8500.0000
 21
-9600.0000
 31
0.0000
  0
LINE
  5
3C6
  8
SOL-MAYIM-DIM
 10
8540.0000
 20
-9600.0000
 30
0.0000
 11
8772.5000
 21
-9600.0000
 31
0.0000
  0
LINE
  5
3C7
  8
SOL-MAYIM-DIM
 10
8540.0000
 20
-9560.0000
 30
0.0000
 11
8772.5000
 21
-9560.0000
 31
0.0000
  0
LINE
  5
3C8
  8
SOL-MAYIM-DIM
 10
8712.5000
 20
-9600.0000
 30
0.0000
 11
8712.5000
 21
-9560.0000
 31
0.0000
  0
SOLID
  5
3C9
  8
SOL-MAYIM-DIM
 10
8712.5000
 20
-9600.0000
 30
0.0000
 11
8744.5000
 21
-9715.0000
 31
0.0000
 12
8680.5000
 22
-9715.0000
 32
0.0000
 13
8680.5000
 23
-9715.0000
 33
0.0000
  0
SOLID
  5
3CA
  8
SOL-MAYIM-DIM
 10
8712.5000
 20
-9560.0000
 30
0.0000
 11
8744.5000
 21
-9445.0000
 31
0.0000
 12
8680.5000
 22
-9445.0000
 32
0.0000
 13
8680.5000
 23
-9445.0000
 33
0.0000
  0
TEXT
  5
3CB
  8
SOL-MAYIM-DIM
 10
8807.5000
 20
-9580.0000
 30
0.0000
 40
100.0000
  1
4
 50
90.0000
  7
SOLINE
 72
1
 73
2
 11
8807.5000
 21
-9580.0000
 31
0.0000
  0
TEXT
  5
3CC
  8
SOL-KIROT-TXT
 10
7000.0000
 20
-10537.5000
 30
0.0000
 40
162.5000
  1
W2
 50
0.0000
  7
SOLINE
 72
1
 73
2
 11
7000.0000
 21
-10537.5000
 31
0.0000
  0
LINE
  5
3CD
  8
SOL-KIROT-SYM
 10
11000.0000
 20
-9600.0000
 30
0.0000
 11
15000.0000
 21
-9600.0000
 31
0.0000
  0
LINE
  5
3CE
  8
SOL-KIROT-SYM
 10
15000.0000
 20
-9600.0000
 30
0.0000
 11
15000.0000
 21
-7000.0000
 31
0.0000
  0
LINE
  5
3CF
  8
SOL-KIROT-SYM
 10
15000.0000
 20
-7000.0000
 30
0.0000
 11
11000.0000
 21
-7000.0000
 31
0.0000
  0
LINE
  5
3D0
  8
SOL-KIROT-SYM
 10
11000.0000
 20
-7000.0000
 30
0.0000
 11
11000.0000
 21
-9600.0000
 31
0.0000
  0
LINE
  5
3D1
  8
SOL-MIDOT-CHUTS
 10
11000.0000
 20
-9650.0000
 30
0.0000
 11
11000.0000
 21
-10050.0000
 31
0.0000
  0
LINE
  5
3D2
  8
SOL-MIDOT-CHUTS
 10
15000.0000
 20
-9650.0000
 30
0.0000
 11
15000.0000
 21
-10050.0000
 31
0.0000
  0
LINE
  5
3D3
  8
SOL-MIDOT-CHUTS
 10
11000.0000
 20
-9975.0000
 30
0.0000
 11
15000.0000
 21
-9975.0000
 31
0.0000
  0
SOLID
  5
3D4
  8
SOL-MIDOT-CHUTS
 10
11000.0000
 20
-9975.0000
 30
0.0000
 11
10856.2500
 21
-10015.0000
 31
0.0000
 12
10856.2500
 22
-9935.0000
 32
0.0000
 13
10856.2500
 23
-9935.0000
 33
0.0000
  0
SOLID
  5
3D5
  8
SOL-MIDOT-CHUTS
 10
15000.0000
 20
-9975.0000
 30
0.0000
 11
15143.7500
 21
-10015.0000
 31
0.0000
 12
15143.7500
 22
-9935.0000
 32
0.0000
 13
15143.7500
 23
-9935.0000
 33
0.0000
  0
TEXT
  5
3D6
  8
SOL-MIDOT-CHUTS
 10
13000.0000
 20
-10093.7500
 30
0.0000
 40
125.0000
  1
400
 50
0.0000
  7
SOLINE
 72
1
 73
2
 11
13000.0000
 21
-10093.7500
 31
0.0000
  0
LINE
  5
3D7
  8
SOL-MIDOT-CHUTS
 10
10950.0000
 20
-9600.0000
 30
0.0000
 11
10550.0000
 21
-9600.0000
 31
0.0000
  0
LINE
  5
3D8
  8
SOL-MIDOT-CHUTS
 10
10950.0000
 20
-7000.0000
 30
0.0000
 11
10550.0000
 21
-7000.0000
 31
0.0000
  0
LINE
  5
3D9
  8
SOL-MIDOT-CHUTS
 10
10625.0000
 20
-9600.0000
 30
0.0000
 11
10625.0000
 21
-7000.0000
 31
0.0000
  0
SOLID
  5
3DA
  8
SOL-MIDOT-CHUTS
 10
10625.0000
 20
-9600.0000
 30
0.0000
 11
10585.0000
 21
-9743.7500
 31
0.0000
 12
10665.0000
 22
-9743.7500
 32
0.0000
 13
10665.0000
 23
-9743.7500
 33
0.0000
  0
SOLID
  5
3DB
  8
SOL-MIDOT-CHUTS
 10
10625.0000
 20
-7000.0000
 30
0.0000
 11
10585.0000
 21
-6856.2500
 31
0.0000
 12
10665.0000
 22
-6856.2500
 32
0.0000
 13
10665.0000
 23
-6856.2500
 33
0.0000
  0
TEXT
  5
3DC
  8
SOL-MIDOT-CHUTS
 10
10506.2500
 20
-8300.0000
 30
0.0000
 40
125.0000
  1
260
 50
90.0000
  7
SOLINE
 72
1
 73
2
 11
10506.2500
 21
-8300.0000
 31
0.0000
  0
LINE
  5
3DD
  8
SOL-NIKUZ-SYM
 10
11300.0000
 20
-9600.0000
 30
0.0000
 11
11400.0000
 21
-9600.0000
 31
0.0000
  0
LINE
  5
3DE
  8
SOL-NIKUZ-SYM
 10
11400.0000
 20
-9600.0000
 30
0.0000
 11
11400.0000
 21
-9500.0000
 31
0.0000
  0
LINE
  5
3DF
  8
SOL-NIKUZ-SYM
 10
11400.0000
 20
-9500.0000
 30
0.0000
 11
11300.0000
 21
-9500.0000
 31
0.0000
  0
LINE
  5
3E0
  8
SOL-NIKUZ-SYM
 10
11300.0000
 20
-9500.0000
 30
0.0000
 11
11300.0000
 21
-9600.0000
 31
0.0000
  0
LINE
  5
3E1
  8
SOL-NIKUZ-SYM
 10
11350.0000
 20
-9600.0000
 30
0.0000
 11
11350.0000
 21
-9528.0000
 31
0.0000
  0
ARC
  5
3E2
  8
SOL-NIKUZ-SYM
 10
11350.0000
 20
-9550.0000
 30
0.0000
 40
30.0000
 50
0.0000
 51
360.0000
  0
LINE
  5
3E3
  8
SOL-NIKUZ-SYM
 10
11330.0000
 20
-9550.0000
 30
0.0000
 11
11340.0000
 21
-9542.0000
 31
0.0000
  0
LINE
  5
3E4
  8
SOL-NIKUZ-SYM
 10
11340.0000
 20
-9542.0000
 30
0.0000
 11
11350.0000
 21
-9550.0000
 31
0.0000
  0
LINE
  5
3E5
  8
SOL-NIKUZ-SYM
 10
11350.0000
 20
-9550.0000
 30
0.0000
 11
11360.0000
 21
-9558.0000
 31
0.0000
  0
LINE
  5
3E6
  8
SOL-NIKUZ-SYM
 10
11360.0000
 20
-9558.0000
 30
0.0000
 11
11370.0000
 21
-9550.0000
 31
0.0000
  0
LINE
  5
3E7
  8
SOL-NIKUZ-DIM
 10
11000.0000
 20
-9640.0000
 30
0.0000
 11
11000.0000
 21
-10472.5000
 31
0.0000
  0
LINE
  5
3E8
  8
SOL-NIKUZ-DIM
 10
11350.0000
 20
-9640.0000
 30
0.0000
 11
11350.0000
 21
-10472.5000
 31
0.0000
  0
LINE
  5
3E9
  8
SOL-NIKUZ-DIM
 10
11000.0000
 20
-10412.5000
 30
0.0000
 11
11350.0000
 21
-10412.5000
 31
0.0000
  0
SOLID
  5
3EA
  8
SOL-NIKUZ-DIM
 10
11000.0000
 20
-10412.5000
 30
0.0000
 11
10885.0000
 21
-10444.5000
 31
0.0000
 12
10885.0000
 22
-10380.5000
 32
0.0000
 13
10885.0000
 23
-10380.5000
 33
0.0000
  0
SOLID
  5
3EB
  8
SOL-NIKUZ-DIM
 10
11350.0000
 20
-10412.5000
 30
0.0000
 11
11465.0000
 21
-10444.5000
 31
0.0000
 12
11465.0000
 22
-10380.5000
 32
0.0000
 13
11465.0000
 23
-10380.5000
 33
0.0000
  0
TEXT
  5
3EC
  8
SOL-NIKUZ-DIM
 10
11175.0000
 20
-10507.5000
 30
0.0000
 40
100.0000
  1
35
 50
0.0000
  7
SOLINE
 72
1
 73
2
 11
11175.0000
 21
-10507.5000
 31
0.0000
  0
LINE
  5
3ED
  8
SOL-NIKUZ-DIM
 10
11350.0000
 20
-9600.0000
 30
0.0000
 11
11350.0000
 21
-9600.0000
 31
0.0000
  0
LINE
  5
3EE
  8
SOL-NIKUZ-DIM
 10
11350.0000
 20
-9600.0000
 30
0.0000
 11
11350.0000
 21
-9600.0000
 31
0.0000
  0
LINE
  5
3EF
  8
SOL-NIKUZ-DIM
 10
11350.0000
 20
-9600.0000
 30
0.0000
 11
11350.0000
 21
-9600.0000
 31
0.0000
  0
SOLID
  5
3F0
  8
SOL-NIKUZ-DIM
 10
11350.0000
 20
-9600.0000
 30
0.0000
 11
11350.0000
 21
-9600.0000
 31
0.0000
 12
11350.0000
 22
-9600.0000
 32
0.0000
 13
11350.0000
 23
-9600.0000
 33
0.0000
  0
SOLID
  5
3F1
  8
SOL-NIKUZ-DIM
 10
11350.0000
 20
-9600.0000
 30
0.0000
 11
11350.0000
 21
-9600.0000
 31
0.0000
 12
11350.0000
 22
-9600.0000
 32
0.0000
 13
11350.0000
 23
-9600.0000
 33
0.0000
  0
TEXT
  5
3F2
  8
SOL-NIKUZ-DIM
 10
11350.0000
 20
-9600.0000
 30
0.0000
 40
100.0000
  1
0.1
 50
0.0000
  7
SOLINE
 72
1
 73
2
 11
11350.0000
 21
-9600.0000
 31
0.0000
  0
LINE
  5
3F3
  8
SOL-MIVNE-SYM
 10
14000.0000
 20
-9600.0000
 30
0.0000
 11
14200.0000
 21
-9600.0000
 31
0.0000
  0
LINE
  5
3F4
  8
SOL-MIVNE-SYM
 10
14200.0000
 20
-9600.0000
 30
0.0000
 11
14200.0000
 21
-7000.0000
 31
0.0000
  0
LINE
  5
3F5
  8
SOL-MIVNE-SYM
 10
14200.0000
 20
-7000.0000
 30
0.0000
 11
14000.0000
 21
-7000.0000
 31
0.0000
  0
LINE
  5
3F6
  8
SOL-MIVNE-SYM
 10
14000.0000
 20
-7000.0000
 30
0.0000
 11
14000.0000
 21
-9600.0000
 31
0.0000
  0
LINE
  5
3F7
  8
SOL-MIVNE-SYM
 10
14000.0000
 20
-7988.0000
 30
0.0000
 11
14200.0000
 21
-7988.0000
 31
0.0000
  0
LINE
  5
3F8
  8
SOL-MIVNE-SYM
 10
14200.0000
 20
-7988.0000
 30
0.0000
 11
14200.0000
 21
-8612.0000
 31
0.0000
  0
LINE
  5
3F9
  8
SOL-MIVNE-SYM
 10
14200.0000
 20
-8612.0000
 30
0.0000
 11
14000.0000
 21
-8612.0000
 31
0.0000
  0
LINE
  5
3FA
  8
SOL-MIVNE-SYM
 10
14000.0000
 20
-8612.0000
 30
0.0000
 11
14000.0000
 21
-7988.0000
 31
0.0000
  0
LINE
  5
3FB
  8
SOL-MIVNE-DIM
 10
15000.0000
 20
-9560.0000
 30
0.0000
 11
15000.0000
 21
-8377.5000
 31
0.0000
  0
LINE
  5
3FC
  8
SOL-MIVNE-DIM
 10
14200.0000
 20
-9560.0000
 30
0.0000
 11
14200.0000
 21
-8377.5000
 31
0.0000
  0
LINE
  5
3FD
  8
SOL-MIVNE-DIM
 10
15000.0000
 20
-8437.5000
 30
0.0000
 11
14200.0000
 21
-8437.5000
 31
0.0000
  0
SOLID
  5
3FE
  8
SOL-MIVNE-DIM
 10
15000.0000
 20
-8437.5000
 30
0.0000
 11
15115.0000
 21
-8405.5000
 31
0.0000
 12
15115.0000
 22
-8469.5000
 32
0.0000
 13
15115.0000
 23
-8469.5000
 33
0.0000
  0
SOLID
  5
3FF
  8
SOL-MIVNE-DIM
 10
14200.0000
 20
-8437.5000
 30
0.0000
 11
14085.0000
 21
-8405.5000
 31
0.0000
 12
14085.0000
 22
-8469.5000
 32
0.0000
 13
14085.0000
 23
-8469.5000
 33
0.0000
  0
TEXT
  5
400
  8
SOL-MIVNE-DIM
 10
14600.0000
 20
-8342.5000
 30
0.0000
 40
100.0000
  1
80
 50
360.0000
  7
SOLINE
 72
1
 73
2
 11
14600.0000
 21
-8342.5000
 31
0.0000
  0
LINE
  5
401
  8
SOL-MIVNE-DIM
 10
14000.0000
 20
-6960.0000
 30
0.0000
 11
14000.0000
 21
-6716.5000
 31
0.0000
  0
LINE
  5
402
  8
SOL-MIVNE-DIM
 10
14200.0000
 20
-6960.0000
 30
0.0000
 11
14200.0000
 21
-6716.5000
 31
0.0000
  0
LINE
  5
403
  8
SOL-MIVNE-DIM
 10
14000.0000
 20
-6775.0000
 30
0.0000
 11
14200.0000
 21
-6775.0000
 31
0.0000
  0
SOLID
  5
404
  8
SOL-MIVNE-DIM
 10
14000.0000
 20
-6775.0000
 30
0.0000
 11
13887.8750
 21
-6743.8000
 31
0.0000
 12
13887.8750
 22
-6806.2000
 32
0.0000
 13
13887.8750
 23
-6806.2000
 33
0.0000
  0
SOLID
  5
405
  8
SOL-MIVNE-DIM
 10
14200.0000
 20
-6775.0000
 30
0.0000
 11
14312.1250
 21
-6743.8000
 31
0.0000
 12
14312.1250
 22
-6806.2000
 32
0.0000
 13
14312.1250
 23
-6806.2000
 33
0.0000
  0
TEXT
  5
406
  8
SOL-MIVNE-DIM
 10
14100.0000
 20
-6682.3750
 30
0.0000
 40
97.5000
  1
20
 50
0.0000
  7
SOLINE
 72
1
 73
2
 11
14100.0000
 21
-6682.3750
 31
0.0000
  0
LINE
  5
407
  8
SOL-MIVNE-DIM
 10
13960.0000
 20
-9600.0000
 30
0.0000
 11
13416.5000
 21
-9600.0000
 31
0.0000
  0
LINE
  5
408
  8
SOL-MIVNE-DIM
 10
13960.0000
 20
-7000.0000
 30
0.0000
 11
13416.5000
 21
-7000.0000
 31
0.0000
  0
LINE
  5
409
  8
SOL-MIVNE-DIM
 10
13475.0000
 20
-9600.0000
 30
0.0000
 11
13475.0000
 21
-7000.0000
 31
0.0000
  0
SOLID
  5
40A
  8
SOL-MIVNE-DIM
 10
13475.0000
 20
-9600.0000
 30
0.0000
 11
13443.8000
 21
-9712.1250
 31
0.0000
 12
13506.2000
 22
-9712.1250
 32
0.0000
 13
13506.2000
 23
-9712.1250
 33
0.0000
  0
SOLID
  5
40B
  8
SOL-MIVNE-DIM
 10
13475.0000
 20
-7000.0000
 30
0.0000
 11
13443.8000
 21
-6887.8750
 31
0.0000
 12
13506.2000
 22
-6887.8750
 32
0.0000
 13
13506.2000
 23
-6887.8750
 33
0.0000
  0
TEXT
  5
40C
  8
SOL-MIVNE-DIM
 10
13382.3750
 20
-8300.0000
 30
0.0000
 40
97.5000
  1
260
 50
90.0000
  7
SOLINE
 72
1
 73
2
 11
13382.3750
 21
-8300.0000
 31
0.0000
  0
LINE
  5
40D
  8
SOL-CHALON-SYM
 10
11500.0000
 20
-8700.0000
 30
0.0000
 11
12500.0000
 21
-8700.0000
 31
0.0000
  0
LINE
  5
40E
  8
SOL-CHALON-SYM
 10
12500.0000
 20
-8700.0000
 30
0.0000
 11
12500.0000
 21
-7500.0000
 31
0.0000
  0
LINE
  5
40F
  8
SOL-CHALON-SYM
 10
12500.0000
 20
-7500.0000
 30
0.0000
 11
11500.0000
 21
-7500.0000
 31
0.0000
  0
LINE
  5
410
  8
SOL-CHALON-SYM
 10
11500.0000
 20
-7500.0000
 30
0.0000
 11
11500.0000
 21
-8700.0000
 31
0.0000
  0
LINE
  5
411
  8
SOL-CHALON-SYM
 10
11500.0000
 20
-7932.0000
 30
0.0000
 11
12500.0000
 21
-7932.0000
 31
0.0000
  0
LINE
  5
412
  8
SOL-CHALON-SYM
 10
12500.0000
 20
-7932.0000
 30
0.0000
 11
12500.0000
 21
-8268.0000
 31
0.0000
  0
LINE
  5
413
  8
SOL-CHALON-SYM
 10
12500.0000
 20
-8268.0000
 30
0.0000
 11
11500.0000
 21
-8268.0000
 31
0.0000
  0
LINE
  5
414
  8
SOL-CHALON-SYM
 10
11500.0000
 20
-8268.0000
 30
0.0000
 11
11500.0000
 21
-7932.0000
 31
0.0000
  0
LINE
  5
415
  8
SOL-CHALON-SYM
 10
11500.0000
 20
-8046.2400
 30
0.0000
 11
12500.0000
 21
-8046.2400
 31
0.0000
  0
LINE
  5
416
  8
SOL-CHALON-SYM
 10
11500.0000
 20
-8153.7600
 30
0.0000
 11
12500.0000
 21
-8153.7600
 31
0.0000
  0
LINE
  5
417
  8
SOL-CHALON-DIM
 10
11000.0000
 20
-9640.0000
 30
0.0000
 11
11000.0000
 21
-11172.5000
 31
0.0000
  0
LINE
  5
418
  8
SOL-CHALON-DIM
 10
11500.0000
 20
-9640.0000
 30
0.0000
 11
11500.0000
 21
-11172.5000
 31
0.0000
  0
LINE
  5
419
  8
SOL-CHALON-DIM
 10
11000.0000
 20
-11112.5000
 30
0.0000
 11
11500.0000
 21
-11112.5000
 31
0.0000
  0
SOLID
  5
41A
  8
SOL-CHALON-DIM
 10
11000.0000
 20
-11112.5000
 30
0.0000
 11
10885.0000
 21
-11144.5000
 31
0.0000
 12
10885.0000
 22
-11080.5000
 32
0.0000
 13
10885.0000
 23
-11080.5000
 33
0.0000
  0
SOLID
  5
41B
  8
SOL-CHALON-DIM
 10
11500.0000
 20
-11112.5000
 30
0.0000
 11
11615.0000
 21
-11144.5000
 31
0.0000
 12
11615.0000
 22
-11080.5000
 32
0.0000
 13
11615.0000
 23
-11080.5000
 33
0.0000
  0
TEXT
  5
41C
  8
SOL-CHALON-DIM
 10
11250.0000
 20
-11207.5000
 30
0.0000
 40
100.0000
  1
50
 50
0.0000
  7
SOLINE
 72
1
 73
2
 11
11250.0000
 21
-11207.5000
 31
0.0000
  0
LINE
  5
41D
  8
SOL-CHALON-DIM
 10
11500.0000
 20
-7460.0000
 30
0.0000
 11
11500.0000
 21
-7216.5000
 31
0.0000
  0
LINE
  5
41E
  8
SOL-CHALON-DIM
 10
12500.0000
 20
-7460.0000
 30
0.0000
 11
12500.0000
 21
-7216.5000
 31
0.0000
  0
LINE
  5
41F
  8
SOL-CHALON-DIM
 10
11500.0000
 20
-7275.0000
 30
0.0000
 11
12500.0000
 21
-7275.0000
 31
0.0000
  0
SOLID
  5
420
  8
SOL-CHALON-DIM
 10
11500.0000
 20
-7275.0000
 30
0.0000
 11
11387.8750
 21
-7243.8000
 31
0.0000
 12
11387.8750
 22
-7306.2000
 32
0.0000
 13
11387.8750
 23
-7306.2000
 33
0.0000
  0
SOLID
  5
421
  8
SOL-CHALON-DIM
 10
12500.0000
 20
-7275.0000
 30
0.0000
 11
12612.1250
 21
-7243.8000
 31
0.0000
 12
12612.1250
 22
-7306.2000
 32
0.0000
 13
12612.1250
 23
-7306.2000
 33
0.0000
  0
TEXT
  5
422
  8
SOL-CHALON-DIM
 10
12000.0000
 20
-7182.3750
 30
0.0000
 40
97.5000
  1
100
 50
0.0000
  7
SOLINE
 72
1
 73
2
 11
12000.0000
 21
-7182.3750
 31
0.0000
  0
LINE
  5
423
  8
SOL-CHALON-DIM
 10
11460.0000
 20
-9600.0000
 30
0.0000
 11
11254.0000
 21
-9600.0000
 31
0.0000
  0
LINE
  5
424
  8
SOL-CHALON-DIM
 10
11460.0000
 20
-8700.0000
 30
0.0000
 11
11254.0000
 21
-8700.0000
 31
0.0000
  0
LINE
  5
425
  8
SOL-CHALON-DIM
 10
11312.5000
 20
-9600.0000
 30
0.0000
 11
11312.5000
 21
-8700.0000
 31
0.0000
  0
SOLID
  5
426
  8
SOL-CHALON-DIM
 10
11312.5000
 20
-9600.0000
 30
0.0000
 11
11281.3000
 21
-9712.1250
 31
0.0000
 12
11343.7000
 22
-9712.1250
 32
0.0000
 13
11343.7000
 23
-9712.1250
 33
0.0000
  0
SOLID
  5
427
  8
SOL-CHALON-DIM
 10
11312.5000
 20
-8700.0000
 30
0.0000
 11
11281.3000
 21
-8587.8750
 31
0.0000
 12
11343.7000
 22
-8587.8750
 32
0.0000
 13
11343.7000
 23
-8587.8750
 33
0.0000
  0
TEXT
  5
428
  8
SOL-CHALON-DIM
 10
11219.8750
 20
-9150.0000
 30
0.0000
 40
97.5000
  1
90
 50
90.0000
  7
SOLINE
 72
1
 73
2
 11
11219.8750
 21
-9150.0000
 31
0.0000
  0
LINE
  5
429
  8
SOL-CHALON-DIM
 10
11460.0000
 20
-8700.0000
 30
0.0000
 11
10916.5000
 21
-8700.0000
 31
0.0000
  0
LINE
  5
42A
  8
SOL-CHALON-DIM
 10
11460.0000
 20
-7500.0000
 30
0.0000
 11
10916.5000
 21
-7500.0000
 31
0.0000
  0
LINE
  5
42B
  8
SOL-CHALON-DIM
 10
10975.0000
 20
-8700.0000
 30
0.0000
 11
10975.0000
 21
-7500.0000
 31
0.0000
  0
SOLID
  5
42C
  8
SOL-CHALON-DIM
 10
10975.0000
 20
-8700.0000
 30
0.0000
 11
10943.8000
 21
-8812.1250
 31
0.0000
 12
11006.2000
 22
-8812.1250
 32
0.0000
 13
11006.2000
 23
-8812.1250
 33
0.0000
  0
SOLID
  5
42D
  8
SOL-CHALON-DIM
 10
10975.0000
 20
-7500.0000
 30
0.0000
 11
10943.8000
 21
-7387.8750
 31
0.0000
 12
11006.2000
 22
-7387.8750
 32
0.0000
 13
11006.2000
 23
-7387.8750
 33
0.0000
  0
TEXT
  5
42E
  8
SOL-CHALON-DIM
 10
10882.3750
 20
-8100.0000
 30
0.0000
 40
97.5000
  1
120
 50
90.0000
  7
SOLINE
 72
1
 73
2
 11
10882.3750
 21
-8100.0000
 31
0.0000
  0
LINE
  5
42F
  8
SOL-CHALON-DIM
 10
12540.0000
 20
-9600.0000
 30
0.0000
 11
12746.0000
 21
-9600.0000
 31
0.0000
  0
LINE
  5
430
  8
SOL-CHALON-DIM
 10
12540.0000
 20
-7500.0000
 30
0.0000
 11
12746.0000
 21
-7500.0000
 31
0.0000
  0
LINE
  5
431
  8
SOL-CHALON-DIM
 10
12687.5000
 20
-9600.0000
 30
0.0000
 11
12687.5000
 21
-7500.0000
 31
0.0000
  0
SOLID
  5
432
  8
SOL-CHALON-DIM
 10
12687.5000
 20
-9600.0000
 30
0.0000
 11
12718.7000
 21
-9712.1250
 31
0.0000
 12
12656.3000
 22
-9712.1250
 32
0.0000
 13
12656.3000
 23
-9712.1250
 33
0.0000
  0
SOLID
  5
433
  8
SOL-CHALON-DIM
 10
12687.5000
 20
-7500.0000
 30
0.0000
 11
12718.7000
 21
-7387.8750
 31
0.0000
 12
12656.3000
 22
-7387.8750
 32
0.0000
 13
12656.3000
 23
-7387.8750
 33
0.0000
  0
TEXT
  5
434
  8
SOL-CHALON-DIM
 10
12780.1250
 20
-8550.0000
 30
0.0000
 40
97.5000
  1
210
 50
90.0000
  7
SOLINE
 72
1
 73
2
 11
12780.1250
 21
-8550.0000
 31
0.0000
  0
LINE
  5
435
  8
SOL-CHALON-DIM
 10
12540.0000
 20
-7500.0000
 30
0.0000
 11
13083.5000
 21
-7500.0000
 31
0.0000
  0
LINE
  5
436
  8
SOL-CHALON-DIM
 10
12540.0000
 20
-7000.0000
 30
0.0000
 11
13083.5000
 21
-7000.0000
 31
0.0000
  0
LINE
  5
437
  8
SOL-CHALON-DIM
 10
13025.0000
 20
-7500.0000
 30
0.0000
 11
13025.0000
 21
-7000.0000
 31
0.0000
  0
SOLID
  5
438
  8
SOL-CHALON-DIM
 10
13025.0000
 20
-7500.0000
 30
0.0000
 11
13056.2000
 21
-7612.1250
 31
0.0000
 12
12993.8000
 22
-7612.1250
 32
0.0000
 13
12993.8000
 23
-7612.1250
 33
0.0000
  0
SOLID
  5
439
  8
SOL-CHALON-DIM
 10
13025.0000
 20
-7000.0000
 30
0.0000
 11
13056.2000
 21
-6887.8750
 31
0.0000
 12
12993.8000
 22
-6887.8750
 32
0.0000
 13
12993.8000
 23
-6887.8750
 33
0.0000
  0
TEXT
  5
43A
  8
SOL-CHALON-DIM
 10
13117.6250
 20
-7250.0000
 30
0.0000
 40
97.5000
  1
50
 50
90.0000
  7
SOLINE
 72
1
 73
2
 11
13117.6250
 21
-7250.0000
 31
0.0000
  0
LINE
  5
43B
  8
SOL-DELET-SYM
 10
12250.0000
 20
-9600.0000
 30
0.0000
 11
13150.0000
 21
-9600.0000
 31
0.0000
  0
LINE
  5
43C
  8
SOL-DELET-SYM
 10
13150.0000
 20
-9600.0000
 30
0.0000
 11
13150.0000
 21
-7550.0000
 31
0.0000
  0
LINE
  5
43D
  8
SOL-DELET-SYM
 10
13150.0000
 20
-7550.0000
 30
0.0000
 11
12250.0000
 21
-7550.0000
 31
0.0000
  0
LINE
  5
43E
  8
SOL-DELET-SYM
 10
12250.0000
 20
-7550.0000
 30
0.0000
 11
12250.0000
 21
-9600.0000
 31
0.0000
  0
LINE
  5
43F
  8
SOL-DELET-SYM
 10
12286.0000
 20
-9600.0000
 30
0.0000
 11
12286.0000
 21
-8985.0000
 31
0.0000
  0
LINE
  5
440
  8
SOL-DELET-SYM
 10
13114.0000
 20
-9600.0000
 30
0.0000
 11
13114.0000
 21
-8985.0000
 31
0.0000
  0
LINE
  5
441
  8
SOL-DELET-DIM
 10
11000.0000
 20
-9640.0000
 30
0.0000
 11
11000.0000
 21
-11522.5000
 31
0.0000
  0
LINE
  5
442
  8
SOL-DELET-DIM
 10
12250.0000
 20
-9640.0000
 30
0.0000
 11
12250.0000
 21
-11522.5000
 31
0.0000
  0
LINE
  5
443
  8
SOL-DELET-DIM
 10
11000.0000
 20
-11462.5000
 30
0.0000
 11
12250.0000
 21
-11462.5000
 31
0.0000
  0
SOLID
  5
444
  8
SOL-DELET-DIM
 10
11000.0000
 20
-11462.5000
 30
0.0000
 11
10885.0000
 21
-11494.5000
 31
0.0000
 12
10885.0000
 22
-11430.5000
 32
0.0000
 13
10885.0000
 23
-11430.5000
 33
0.0000
  0
SOLID
  5
445
  8
SOL-DELET-DIM
 10
12250.0000
 20
-11462.5000
 30
0.0000
 11
12365.0000
 21
-11494.5000
 31
0.0000
 12
12365.0000
 22
-11430.5000
 32
0.0000
 13
12365.0000
 23
-11430.5000
 33
0.0000
  0
TEXT
  5
446
  8
SOL-DELET-DIM
 10
11625.0000
 20
-11557.5000
 30
0.0000
 40
100.0000
  1
125
 50
0.0000
  7
SOLINE
 72
1
 73
2
 11
11625.0000
 21
-11557.5000
 31
0.0000
  0
LINE
  5
447
  8
SOL-DELET-DIM
 10
12250.0000
 20
-7510.0000
 30
0.0000
 11
12250.0000
 21
-7266.5000
 31
0.0000
  0
LINE
  5
448
  8
SOL-DELET-DIM
 10
13150.0000
 20
-7510.0000
 30
0.0000
 11
13150.0000
 21
-7266.5000
 31
0.0000
  0
LINE
  5
449
  8
SOL-DELET-DIM
 10
12250.0000
 20
-7325.0000
 30
0.0000
 11
13150.0000
 21
-7325.0000
 31
0.0000
  0
SOLID
  5
44A
  8
SOL-DELET-DIM
 10
12250.0000
 20
-7325.0000
 30
0.0000
 11
12137.8750
 21
-7293.8000
 31
0.0000
 12
12137.8750
 22
-7356.2000
 32
0.0000
 13
12137.8750
 23
-7356.2000
 33
0.0000
  0
SOLID
  5
44B
  8
SOL-DELET-DIM
 10
13150.0000
 20
-7325.0000
 30
0.0000
 11
13262.1250
 21
-7293.8000
 31
0.0000
 12
13262.1250
 22
-7356.2000
 32
0.0000
 13
13262.1250
 23
-7356.2000
 33
0.0000
  0
TEXT
  5
44C
  8
SOL-DELET-DIM
 10
12700.0000
 20
-7232.3750
 30
0.0000
 40
97.5000
  1
90
 50
0.0000
  7
SOLINE
 72
1
 73
2
 11
12700.0000
 21
-7232.3750
 31
0.0000
  0
LINE
  5
44D
  8
SOL-DELET-DIM
 10
12210.0000
 20
-9600.0000
 30
0.0000
 11
11666.5000
 21
-9600.0000
 31
0.0000
  0
LINE
  5
44E
  8
SOL-DELET-DIM
 10
12210.0000
 20
-7550.0000
 30
0.0000
 11
11666.5000
 21
-7550.0000
 31
0.0000
  0
LINE
  5
44F
  8
SOL-DELET-DIM
 10
11725.0000
 20
-9600.0000
 30
0.0000
 11
11725.0000
 21
-7550.0000
 31
0.0000
  0
SOLID
  5
450
  8
SOL-DELET-DIM
 10
11725.0000
 20
-9600.0000
 30
0.0000
 11
11693.8000
 21
-9712.1250
 31
0.0000
 12
11756.2000
 22
-9712.1250
 32
0.0000
 13
11756.2000
 23
-9712.1250
 33
0.0000
  0
SOLID
  5
451
  8
SOL-DELET-DIM
 10
11725.0000
 20
-7550.0000
 30
0.0000
 11
11693.8000
 21
-7437.8750
 31
0.0000
 12
11756.2000
 22
-7437.8750
 32
0.0000
 13
11756.2000
 23
-7437.8750
 33
0.0000
  0
TEXT
  5
452
  8
SOL-DELET-DIM
 10
11632.3750
 20
-8575.0000
 30
0.0000
 40
97.5000
  1
205
 50
90.0000
  7
SOLINE
 72
1
 73
2
 11
11632.3750
 21
-8575.0000
 31
0.0000
  0
LINE
  5
453
  8
SOL-DELET-SYM
 10
12950.0000
 20
-9600.0000
 30
0.0000
 11
13850.0000
 21
-9600.0000
 31
0.0000
  0
LINE
  5
454
  8
SOL-DELET-SYM
 10
13850.0000
 20
-9600.0000
 30
0.0000
 11
13850.0000
 21
-7500.0000
 31
0.0000
  0
LINE
  5
455
  8
SOL-DELET-SYM
 10
13850.0000
 20
-7500.0000
 30
0.0000
 11
12950.0000
 21
-7500.0000
 31
0.0000
  0
LINE
  5
456
  8
SOL-DELET-SYM
 10
12950.0000
 20
-7500.0000
 30
0.0000
 11
12950.0000
 21
-9600.0000
 31
0.0000
  0
LINE
  5
457
  8
SOL-DELET-SYM
 10
12977.0000
 20
-9600.0000
 30
0.0000
 11
12977.0000
 21
-9306.0000
 31
0.0000
  0
LINE
  5
458
  8
SOL-DELET-SYM
 10
13823.0000
 20
-9600.0000
 30
0.0000
 11
13823.0000
 21
-9306.0000
 31
0.0000
  0
LINE
  5
459
  8
SOL-DELET-SYM
 10
12977.0000
 20
-9306.0000
 30
0.0000
 11
13823.0000
 21
-9306.0000
 31
0.0000
  0
LINE
  5
45A
  8
SOL-DELET-DIM
 10
15000.0000
 20
-9560.0000
 30
0.0000
 11
15000.0000
 21
-7327.5000
 31
0.0000
  0
LINE
  5
45B
  8
SOL-DELET-DIM
 10
13850.0000
 20
-9560.0000
 30
0.0000
 11
13850.0000
 21
-7327.5000
 31
0.0000
  0
LINE
  5
45C
  8
SOL-DELET-DIM
 10
15000.0000
 20
-7387.5000
 30
0.0000
 11
13850.0000
 21
-7387.5000
 31
0.0000
  0
SOLID
  5
45D
  8
SOL-DELET-DIM
 10
15000.0000
 20
-7387.5000
 30
0.0000
 11
15115.0000
 21
-7355.5000
 31
0.0000
 12
15115.0000
 22
-7419.5000
 32
0.0000
 13
15115.0000
 23
-7419.5000
 33
0.0000
  0
SOLID
  5
45E
  8
SOL-DELET-DIM
 10
13850.0000
 20
-7387.5000
 30
0.0000
 11
13735.0000
 21
-7355.5000
 31
0.0000
 12
13735.0000
 22
-7419.5000
 32
0.0000
 13
13735.0000
 23
-7419.5000
 33
0.0000
  0
TEXT
  5
45F
  8
SOL-DELET-DIM
 10
14425.0000
 20
-7292.5000
 30
0.0000
 40
100.0000
  1
115
 50
360.0000
  7
SOLINE
 72
1
 73
2
 11
14425.0000
 21
-7292.5000
 31
0.0000
  0
LINE
  5
460
  8
SOL-DELET-DIM
 10
12950.0000
 20
-7460.0000
 30
0.0000
 11
12950.0000
 21
-7216.5000
 31
0.0000
  0
LINE
  5
461
  8
SOL-DELET-DIM
 10
13850.0000
 20
-7460.0000
 30
0.0000
 11
13850.0000
 21
-7216.5000
 31
0.0000
  0
LINE
  5
462
  8
SOL-DELET-DIM
 10
12950.0000
 20
-7275.0000
 30
0.0000
 11
13850.0000
 21
-7275.0000
 31
0.0000
  0
SOLID
  5
463
  8
SOL-DELET-DIM
 10
12950.0000
 20
-7275.0000
 30
0.0000
 11
12837.8750
 21
-7243.8000
 31
0.0000
 12
12837.8750
 22
-7306.2000
 32
0.0000
 13
12837.8750
 23
-7306.2000
 33
0.0000
  0
SOLID
  5
464
  8
SOL-DELET-DIM
 10
13850.0000
 20
-7275.0000
 30
0.0000
 11
13962.1250
 21
-7243.8000
 31
0.0000
 12
13962.1250
 22
-7306.2000
 32
0.0000
 13
13962.1250
 23
-7306.2000
 33
0.0000
  0
TEXT
  5
465
  8
SOL-DELET-DIM
 10
13400.0000
 20
-7182.3750
 30
0.0000
 40
97.5000
  1
90
 50
0.0000
  7
SOLINE
 72
1
 73
2
 11
13400.0000
 21
-7182.3750
 31
0.0000
  0
LINE
  5
466
  8
SOL-DELET-DIM
 10
12910.0000
 20
-9600.0000
 30
0.0000
 11
12366.5000
 21
-9600.0000
 31
0.0000
  0
LINE
  5
467
  8
SOL-DELET-DIM
 10
12910.0000
 20
-7500.0000
 30
0.0000
 11
12366.5000
 21
-7500.0000
 31
0.0000
  0
LINE
  5
468
  8
SOL-DELET-DIM
 10
12425.0000
 20
-9600.0000
 30
0.0000
 11
12425.0000
 21
-7500.0000
 31
0.0000
  0
SOLID
  5
469
  8
SOL-DELET-DIM
 10
12425.0000
 20
-9600.0000
 30
0.0000
 11
12393.8000
 21
-9712.1250
 31
0.0000
 12
12456.2000
 22
-9712.1250
 32
0.0000
 13
12456.2000
 23
-9712.1250
 33
0.0000
  0
SOLID
  5
46A
  8
SOL-DELET-DIM
 10
12425.0000
 20
-7500.0000
 30
0.0000
 11
12393.8000
 21
-7387.8750
 31
0.0000
 12
12456.2000
 22
-7387.8750
 32
0.0000
 13
12456.2000
 23
-7387.8750
 33
0.0000
  0
TEXT
  5
46B
  8
SOL-DELET-DIM
 10
12332.3750
 20
-8550.0000
 30
0.0000
 40
97.5000
  1
210
 50
90.0000
  7
SOLINE
 72
1
 73
2
 11
12332.3750
 21
-8550.0000
 31
0.0000
  0
TEXT
  5
46C
  8
SOL-KIROT-TXT
 10
13000.0000
 20
-10537.5000
 30
0.0000
 40
162.5000
  1
W3
 50
0.0000
  7
SOLINE
 72
1
 73
2
 11
13000.0000
 21
-10537.5000
 31
0.0000
  0
LINE
  5
46D
  8
SOL-KIROT-SYM
 10
17500.0000
 20
-9600.0000
 30
0.0000
 11
20500.0000
 21
-9600.0000
 31
0.0000
  0
LINE
  5
46E
  8
SOL-KIROT-SYM
 10
20500.0000
 20
-9600.0000
 30
0.0000
 11
20500.0000
 21
-7000.0000
 31
0.0000
  0
LINE
  5
46F
  8
SOL-KIROT-SYM
 10
20500.0000
 20
-7000.0000
 30
0.0000
 11
17500.0000
 21
-7000.0000
 31
0.0000
  0
LINE
  5
470
  8
SOL-KIROT-SYM
 10
17500.0000
 20
-7000.0000
 30
0.0000
 11
17500.0000
 21
-9600.0000
 31
0.0000
  0
LINE
  5
471
  8
SOL-MIDOT-CHUTS
 10
17500.0000
 20
-9650.0000
 30
0.0000
 11
17500.0000
 21
-10050.0000
 31
0.0000
  0
LINE
  5
472
  8
SOL-MIDOT-CHUTS
 10
20500.0000
 20
-9650.0000
 30
0.0000
 11
20500.0000
 21
-10050.0000
 31
0.0000
  0
LINE
  5
473
  8
SOL-MIDOT-CHUTS
 10
17500.0000
 20
-9975.0000
 30
0.0000
 11
20500.0000
 21
-9975.0000
 31
0.0000
  0
SOLID
  5
474
  8
SOL-MIDOT-CHUTS
 10
17500.0000
 20
-9975.0000
 30
0.0000
 11
17356.2500
 21
-10015.0000
 31
0.0000
 12
17356.2500
 22
-9935.0000
 32
0.0000
 13
17356.2500
 23
-9935.0000
 33
0.0000
  0
SOLID
  5
475
  8
SOL-MIDOT-CHUTS
 10
20500.0000
 20
-9975.0000
 30
0.0000
 11
20643.7500
 21
-10015.0000
 31
0.0000
 12
20643.7500
 22
-9935.0000
 32
0.0000
 13
20643.7500
 23
-9935.0000
 33
0.0000
  0
TEXT
  5
476
  8
SOL-MIDOT-CHUTS
 10
19000.0000
 20
-10093.7500
 30
0.0000
 40
125.0000
  1
300
 50
0.0000
  7
SOLINE
 72
1
 73
2
 11
19000.0000
 21
-10093.7500
 31
0.0000
  0
LINE
  5
477
  8
SOL-MIDOT-CHUTS
 10
17450.0000
 20
-9600.0000
 30
0.0000
 11
17050.0000
 21
-9600.0000
 31
0.0000
  0
LINE
  5
478
  8
SOL-MIDOT-CHUTS
 10
17450.0000
 20
-7000.0000
 30
0.0000
 11
17050.0000
 21
-7000.0000
 31
0.0000
  0
LINE
  5
479
  8
SOL-MIDOT-CHUTS
 10
17125.0000
 20
-9600.0000
 30
0.0000
 11
17125.0000
 21
-7000.0000
 31
0.0000
  0
SOLID
  5
47A
  8
SOL-MIDOT-CHUTS
 10
17125.0000
 20
-9600.0000
 30
0.0000
 11
17085.0000
 21
-9743.7500
 31
0.0000
 12
17165.0000
 22
-9743.7500
 32
0.0000
 13
17165.0000
 23
-9743.7500
 33
0.0000
  0
SOLID
  5
47B
  8
SOL-MIDOT-CHUTS
 10
17125.0000
 20
-7000.0000
 30
0.0000
 11
17085.0000
 21
-6856.2500
 31
0.0000
 12
17165.0000
 22
-6856.2500
 32
0.0000
 13
17165.0000
 23
-6856.2500
 33
0.0000
  0
TEXT
  5
47C
  8
SOL-MIDOT-CHUTS
 10
17006.2500
 20
-8300.0000
 30
0.0000
 40
125.0000
  1
260
 50
90.0000
  7
SOLINE
 72
1
 73
2
 11
17006.2500
 21
-8300.0000
 31
0.0000
  0
LINE
  5
47D
  8
SOL-MIVNE-SYM
 10
17300.0000
 20
-7600.0000
 30
0.0000
 11
18300.0000
 21
-7600.0000
 31
0.0000
  0
LINE
  5
47E
  8
SOL-MIVNE-SYM
 10
18300.0000
 20
-7600.0000
 30
0.0000
 11
18300.0000
 21
-7000.0000
 31
0.0000
  0
LINE
  5
47F
  8
SOL-MIVNE-SYM
 10
18300.0000
 20
-7000.0000
 30
0.0000
 11
17300.0000
 21
-7000.0000
 31
0.0000
  0
LINE
  5
480
  8
SOL-MIVNE-SYM
 10
17300.0000
 20
-7000.0000
 30
0.0000
 11
17300.0000
 21
-7600.0000
 31
0.0000
  0
LINE
  5
481
  8
SOL-MIVNE-SYM
 10
17300.0000
 20
-7228.0000
 30
0.0000
 11
18300.0000
 21
-7228.0000
 31
0.0000
  0
LINE
  5
482
  8
SOL-MIVNE-SYM
 10
18300.0000
 20
-7228.0000
 30
0.0000
 11
18300.0000
 21
-7372.0000
 31
0.0000
  0
LINE
  5
483
  8
SOL-MIVNE-SYM
 10
18300.0000
 20
-7372.0000
 30
0.0000
 11
17300.0000
 21
-7372.0000
 31
0.0000
  0
LINE
  5
484
  8
SOL-MIVNE-SYM
 10
17300.0000
 20
-7372.0000
 30
0.0000
 11
17300.0000
 21
-7228.0000
 31
0.0000
  0
LINE
  5
485
  8
SOL-MIVNE-DIM
 10
17500.0000
 20
-9560.0000
 30
0.0000
 11
17500.0000
 21
-8727.5000
 31
0.0000
  0
LINE
  5
486
  8
SOL-MIVNE-DIM
 10
17300.0000
 20
-9560.0000
 30
0.0000
 11
17300.0000
 21
-8727.5000
 31
0.0000
  0
LINE
  5
487
  8
SOL-MIVNE-DIM
 10
17500.0000
 20
-8787.5000
 30
0.0000
 11
17300.0000
 21
-8787.5000
 31
0.0000
  0
SOLID
  5
488
  8
SOL-MIVNE-DIM
 10
17500.0000
 20
-8787.5000
 30
0.0000
 11
17615.0000
 21
-8755.5000
 31
0.0000
 12
17615.0000
 22
-8819.5000
 32
0.0000
 13
17615.0000
 23
-8819.5000
 33
0.0000
  0
SOLID
  5
489
  8
SOL-MIVNE-DIM
 10
17300.0000
 20
-8787.5000
 30
0.0000
 11
17185.0000
 21
-8755.5000
 31
0.0000
 12
17185.0000
 22
-8819.5000
 32
0.0000
 13
17185.0000
 23
-8819.5000
 33
0.0000
  0
TEXT
  5
48A
  8
SOL-MIVNE-DIM
 10
17400.0000
 20
-8692.5000
 30
0.0000
 40
100.0000
  1
20
 50
360.0000
  7
SOLINE
 72
1
 73
2
 11
17400.0000
 21
-8692.5000
 31
0.0000
  0
LINE
  5
48B
  8
SOL-MIVNE-DIM
 10
17300.0000
 20
-6960.0000
 30
0.0000
 11
17300.0000
 21
-6716.5000
 31
0.0000
  0
LINE
  5
48C
  8
SOL-MIVNE-DIM
 10
18300.0000
 20
-6960.0000
 30
0.0000
 11
18300.0000
 21
-6716.5000
 31
0.0000
  0
LINE
  5
48D
  8
SOL-MIVNE-DIM
 10
17300.0000
 20
-6775.0000
 30
0.0000
 11
18300.0000
 21
-6775.0000
 31
0.0000
  0
SOLID
  5
48E
  8
SOL-MIVNE-DIM
 10
17300.0000
 20
-6775.0000
 30
0.0000
 11
17187.8750
 21
-6743.8000
 31
0.0000
 12
17187.8750
 22
-6806.2000
 32
0.0000
 13
17187.8750
 23
-6806.2000
 33
0.0000
  0
SOLID
  5
48F
  8
SOL-MIVNE-DIM
 10
18300.0000
 20
-6775.0000
 30
0.0000
 11
18412.1250
 21
-6743.8000
 31
0.0000
 12
18412.1250
 22
-6806.2000
 32
0.0000
 13
18412.1250
 23
-6806.2000
 33
0.0000
  0
TEXT
  5
490
  8
SOL-MIVNE-DIM
 10
17800.0000
 20
-6682.3750
 30
0.0000
 40
97.5000
  1
100
 50
0.0000
  7
SOLINE
 72
1
 73
2
 11
17800.0000
 21
-6682.3750
 31
0.0000
  0
LINE
  5
491
  8
SOL-MIVNE-DIM
 10
17260.0000
 20
-9600.0000
 30
0.0000
 11
17054.0000
 21
-9600.0000
 31
0.0000
  0
LINE
  5
492
  8
SOL-MIVNE-DIM
 10
17260.0000
 20
-7600.0000
 30
0.0000
 11
17054.0000
 21
-7600.0000
 31
0.0000
  0
LINE
  5
493
  8
SOL-MIVNE-DIM
 10
17112.5000
 20
-9600.0000
 30
0.0000
 11
17112.5000
 21
-7600.0000
 31
0.0000
  0
SOLID
  5
494
  8
SOL-MIVNE-DIM
 10
17112.5000
 20
-9600.0000
 30
0.0000
 11
17081.3000
 21
-9712.1250
 31
0.0000
 12
17143.7000
 22
-9712.1250
 32
0.0000
 13
17143.7000
 23
-9712.1250
 33
0.0000
  0
SOLID
  5
495
  8
SOL-MIVNE-DIM
 10
17112.5000
 20
-7600.0000
 30
0.0000
 11
17081.3000
 21
-7487.8750
 31
0.0000
 12
17143.7000
 22
-7487.8750
 32
0.0000
 13
17143.7000
 23
-7487.8750
 33
0.0000
  0
TEXT
  5
496
  8
SOL-MIVNE-DIM
 10
17019.8750
 20
-8600.0000
 30
0.0000
 40
97.5000
  1
200
 50
90.0000
  7
SOLINE
 72
1
 73
2
 11
17019.8750
 21
-8600.0000
 31
0.0000
  0
LINE
  5
497
  8
SOL-MIVNE-DIM
 10
17260.0000
 20
-7600.0000
 30
0.0000
 11
16716.5000
 21
-7600.0000
 31
0.0000
  0
LINE
  5
498
  8
SOL-MIVNE-DIM
 10
17260.0000
 20
-7000.0000
 30
0.0000
 11
16716.5000
 21
-7000.0000
 31
0.0000
  0
LINE
  5
499
  8
SOL-MIVNE-DIM
 10
16775.0000
 20
-7600.0000
 30
0.0000
 11
16775.0000
 21
-7000.0000
 31
0.0000
  0
SOLID
  5
49A
  8
SOL-MIVNE-DIM
 10
16775.0000
 20
-7600.0000
 30
0.0000
 11
16743.8000
 21
-7712.1250
 31
0.0000
 12
16806.2000
 22
-7712.1250
 32
0.0000
 13
16806.2000
 23
-7712.1250
 33
0.0000
  0
SOLID
  5
49B
  8
SOL-MIVNE-DIM
 10
16775.0000
 20
-7000.0000
 30
0.0000
 11
16743.8000
 21
-6887.8750
 31
0.0000
 12
16806.2000
 22
-6887.8750
 32
0.0000
 13
16806.2000
 23
-6887.8750
 33
0.0000
  0
TEXT
  5
49C
  8
SOL-MIVNE-DIM
 10
16682.3750
 20
-7300.0000
 30
0.0000
 40
97.5000
  1
60
 50
90.0000
  7
SOLINE
 72
1
 73
2
 11
16682.3750
 21
-7300.0000
 31
0.0000
  0
LINE
  5
49D
  8
SOL-MIVNE-SYM
 10
18500.0000
 20
-9600.0000
 30
0.0000
 11
19100.0000
 21
-9600.0000
 31
0.0000
  0
LINE
  5
49E
  8
SOL-MIVNE-SYM
 10
19100.0000
 20
-9600.0000
 30
0.0000
 11
19100.0000
 21
-9550.0000
 31
0.0000
  0
LINE
  5
49F
  8
SOL-MIVNE-SYM
 10
19100.0000
 20
-9550.0000
 30
0.0000
 11
18500.0000
 21
-9550.0000
 31
0.0000
  0
LINE
  5
4A0
  8
SOL-MIVNE-SYM
 10
18500.0000
 20
-9550.0000
 30
0.0000
 11
18500.0000
 21
-9600.0000
 31
0.0000
  0
LINE
  5
4A1
  8
SOL-MIVNE-SYM
 10
18584.0000
 20
-9557.0000
 30
0.0000
 11
19016.0000
 21
-9557.0000
 31
0.0000
  0
LINE
  5
4A2
  8
SOL-MIVNE-SYM
 10
19016.0000
 20
-9557.0000
 30
0.0000
 11
19016.0000
 21
-9593.0000
 31
0.0000
  0
LINE
  5
4A3
  8
SOL-MIVNE-SYM
 10
19016.0000
 20
-9593.0000
 30
0.0000
 11
18584.0000
 21
-9593.0000
 31
0.0000
  0
LINE
  5
4A4
  8
SOL-MIVNE-SYM
 10
18584.0000
 20
-9593.0000
 30
0.0000
 11
18584.0000
 21
-9557.0000
 31
0.0000
  0
LINE
  5
4A5
  8
SOL-MIVNE-SYM
 10
18980.0000
 20
-9572.0000
 30
0.0000
 11
19016.0000
 21
-9575.0000
 31
0.0000
  0
LINE
  5
4A6
  8
SOL-MIVNE-SYM
 10
19016.0000
 20
-9575.0000
 30
0.0000
 11
18980.0000
 21
-9578.0000
 31
0.0000
  0
LINE
  5
4A7
  8
SOL-MIVNE-DIM
 10
17500.0000
 20
-9640.0000
 30
0.0000
 11
17500.0000
 21
-10822.5000
 31
0.0000
  0
LINE
  5
4A8
  8
SOL-MIVNE-DIM
 10
18500.0000
 20
-9640.0000
 30
0.0000
 11
18500.0000
 21
-10822.5000
 31
0.0000
  0
LINE
  5
4A9
  8
SOL-MIVNE-DIM
 10
17500.0000
 20
-10762.5000
 30
0.0000
 11
18500.0000
 21
-10762.5000
 31
0.0000
  0
SOLID
  5
4AA
  8
SOL-MIVNE-DIM
 10
17500.0000
 20
-10762.5000
 30
0.0000
 11
17385.0000
 21
-10794.5000
 31
0.0000
 12
17385.0000
 22
-10730.5000
 32
0.0000
 13
17385.0000
 23
-10730.5000
 33
0.0000
  0
SOLID
  5
4AB
  8
SOL-MIVNE-DIM
 10
18500.0000
 20
-10762.5000
 30
0.0000
 11
18615.0000
 21
-10794.5000
 31
0.0000
 12
18615.0000
 22
-10730.5000
 32
0.0000
 13
18615.0000
 23
-10730.5000
 33
0.0000
  0
TEXT
  5
4AC
  8
SOL-MIVNE-DIM
 10
18000.0000
 20
-10857.5000
 30
0.0000
 40
100.0000
  1
100
 50
0.0000
  7
SOLINE
 72
1
 73
2
 11
18000.0000
 21
-10857.5000
 31
0.0000
  0
LINE
  5
4AD
  8
SOL-MIVNE-DIM
 10
18500.0000
 20
-9510.0000
 30
0.0000
 11
18500.0000
 21
-9266.5000
 31
0.0000
  0
LINE
  5
4AE
  8
SOL-MIVNE-DIM
 10
19100.0000
 20
-9510.0000
 30
0.0000
 11
19100.0000
 21
-9266.5000
 31
0.0000
  0
LINE
  5
4AF
  8
SOL-MIVNE-DIM
 10
18500.0000
 20
-9325.0000
 30
0.0000
 11
19100.0000
 21
-9325.0000
 31
0.0000
  0
SOLID
  5
4B0
  8
SOL-MIVNE-DIM
 10
18500.0000
 20
-9325.0000
 30
0.0000
 11
18387.8750
 21
-9293.8000
 31
0.0000
 12
18387.8750
 22
-9356.2000
 32
0.0000
 13
18387.8750
 23
-9356.2000
 33
0.0000
  0
SOLID
  5
4B1
  8
SOL-MIVNE-DIM
 10
19100.0000
 20
-9325.0000
 30
0.0000
 11
19212.1250
 21
-9293.8000
 31
0.0000
 12
19212.1250
 22
-9356.2000
 32
0.0000
 13
19212.1250
 23
-9356.2000
 33
0.0000
  0
TEXT
  5
4B2
  8
SOL-MIVNE-DIM
 10
18800.0000
 20
-9232.3750
 30
0.0000
 40
97.5000
  1
60
 50
0.0000
  7
SOLINE
 72
1
 73
2
 11
18800.0000
 21
-9232.3750
 31
0.0000
  0
LINE
  5
4B3
  8
SOL-MIVNE-DIM
 10
18460.0000
 20
-9600.0000
 30
0.0000
 11
17916.5000
 21
-9600.0000
 31
0.0000
  0
LINE
  5
4B4
  8
SOL-MIVNE-DIM
 10
18460.0000
 20
-9550.0000
 30
0.0000
 11
17916.5000
 21
-9550.0000
 31
0.0000
  0
LINE
  5
4B5
  8
SOL-MIVNE-DIM
 10
17975.0000
 20
-9600.0000
 30
0.0000
 11
17975.0000
 21
-9550.0000
 31
0.0000
  0
SOLID
  5
4B6
  8
SOL-MIVNE-DIM
 10
17975.0000
 20
-9600.0000
 30
0.0000
 11
17943.8000
 21
-9712.1250
 31
0.0000
 12
18006.2000
 22
-9712.1250
 32
0.0000
 13
18006.2000
 23
-9712.1250
 33
0.0000
  0
SOLID
  5
4B7
  8
SOL-MIVNE-DIM
 10
17975.0000
 20
-9550.0000
 30
0.0000
 11
17943.8000
 21
-9437.8750
 31
0.0000
 12
18006.2000
 22
-9437.8750
 32
0.0000
 13
18006.2000
 23
-9437.8750
 33
0.0000
  0
TEXT
  5
4B8
  8
SOL-MIVNE-DIM
 10
17882.3750
 20
-9575.0000
 30
0.0000
 40
97.5000
  1
5
 50
90.0000
  7
SOLINE
 72
1
 73
2
 11
17882.3750
 21
-9575.0000
 31
0.0000
  0
TEXT
  5
4B9
  8
SOL-KIROT-TXT
 10
19000.0000
 20
-10537.5000
 30
0.0000
 40
162.5000
  1
W4
 50
0.0000
  7
SOLINE
 72
1
 73
2
 11
19000.0000
 21
-10537.5000
 31
0.0000
  0
LINE
  5
4BA
  8
SOL-SHEET-BORDER
370
50
 10
-2600.0000
 20
-15728.1250
 30
0.0000
 11
20900.0000
 21
-15728.1250
 31
0.0000
  0
LINE
  5
4BB
  8
SOL-SHEET-BORDER
370
50
 10
20900.0000
 20
-15728.1250
 30
0.0000
 11
20900.0000
 21
1000.0000
 31
0.0000
  0
LINE
  5
4BC
  8
SOL-SHEET-BORDER
370
50
 10
20900.0000
 20
1000.0000
 30
0.0000
 11
-2600.0000
 21
1000.0000
 31
0.0000
  0
LINE
  5
4BD
  8
SOL-SHEET-BORDER
370
50
 10
-2600.0000
 20
1000.0000
 30
0.0000
 11
-2600.0000
 21
-15728.1250
 31
0.0000
  0
ENDSEC
  0
SECTION
  2
OBJECTS
  0
DICTIONARY
  5
5D8
330
0
100
AcDbDictionary
281
1
  3
ACAD_GROUP
350
5D9
  3
ACAD_PLOTSTYLENAME
350
5DA
  0
DICTIONARY
  5
5D9
330
5D8
100
AcDbDictionary
281
1
  0
ACDBDICTIONARYWDFLT
  5
5DA
330
5D8
100
AcDbDictionary
281
1
  3
Normal
350
4BE
100
AcDbDictionaryWithDefault
340
4BE
  0
ACDBPLACEHOLDER
  5
4BE
330
5DA
  0
ENDSEC
  0
EOF
