  0
SECTION
  2
HEADER
  9
$ACADVER
  1
AC1009
  9
$INSBASE
 10
0.0000
 20
0.0000
 30
0.0000
  9
$EXTMIN
 10
-1300.0000
 20
-21874.6250
 30
0.0000
  9
$EXTMAX
 10
27496.5000
 20
1300.0000
 30
0.0000
  9
$DWGCODEPAGE
  3
ansi_1255
  9
$CLAYER
  8
0
  9
$LTSCALE
 40
10.0000
  9
$LIMMIN
 10
0.0000
 20
0.0000
  9
$LIMMAX
 10
2000.0000
 20
200.0000
  9
$LUNITS
 70
2
  9
$DIMSCALE
 40
50.0000
  9
$DIMLFAC
 40
0.1000
  9
$DIMTXT
 40
2.5000
  9
$DIMASZ
 40
2.5000
  9
$DIMEXE
 40
1.2500
  9
$DIMEXO
 40
0.6250
  9
$DIMGAP
 40
0.6250
  9
$DIMDLI
 40
7.0000
  9
$DIMTAD
 70
1
  9
$DIMJUST
 70
0
  9
$DIMTIH
 70
0
  9
$DIMTOH
 70
0
  9
$DIMDEC
 70
0
  9
$DIMZIN
 70
8
  9
$DIMTXSTY
  7
SOLINE
  9
$DIMSTYLE
  2
SOLINE
  0
ENDSEC
  0
SECTION
  2
TABLES
  0
TABLE
  2
VPORT
 70
1
  0
VPORT
  2
*ACTIVE
 70
0
 10
0.0000
 20
0.0000
 11
1.0000
 21
1.0000
 12
13098.2500
 22
-10287.3125
 13
0.0000
 23
0.0000
 14
10.0000
 24
10.0000
 15
10.0000
 25
10.0000
 16
0.0000
 26
0.0000
 36
1.0000
 17
0.0000
 27
0.0000
 37
0.0000
 40
26650.8188
 41
1.6000
 42
50.0000
 43
0.0000
 44
0.0000
 50
0.0000
 51
0.0000
 71
0
 72
100
 73
1
 74
1
 75
0
 76
0
 77
0
 78
0
  0
ENDTAB
  0
TABLE
  2
LTYPE
 70
3
  0
LTYPE
  2
CONTINUOUS
 70
0
  3
Solid line
 72
65
 73
0
 40
0.0000
  0
LTYPE
  2
HIDDEN
 70
0
  3
Hidden __ __ __ __ __ __
 72
65
 73
2
 40
9.5250
 49
6.3500
 49
-3.1750
  0
LTYPE
  2
CENTER
 70
0
  3
Center ____ _ ____ _ ____
 72
65
 73
4
 40
50.8000
 49
31.7500
 49
-6.3500
 49
6.3500
 49
-6.3500
  0
ENDTAB
  0
TABLE
  2
LAYER
 70
71
  0
LAYER
  2
0
 70
0
 62
7
  6
CONTINUOUS
  0
LAYER
  2
קירות
 70
0
 62
7
  6
CONTINUOUS
  0
LAYER
  2
קירות-מילוי
 70
0
 62
8
  6
CONTINUOUS
  0
LAYER
  2
קירות-מידות
 70
0
 62
7
  6
CONTINUOUS
  0
LAYER
  2
קירות-טקסט
 70
0
 62
7
  6
CONTINUOUS
  0
LAYER
  2
קירות-נסתר
 70
0
 62
7
  6
HIDDEN
  0
LAYER
  2
קירות-ציר
 70
0
 62
7
  6
CENTER
  0
LAYER
  2
מבנה
 70
0
 62
9
  6
CONTINUOUS
  0
LAYER
  2
מבנה-מילוי
 70
0
 62
9
  6
CONTINUOUS
  0
LAYER
  2
מבנה-מידות
 70
0
 62
9
  6
CONTINUOUS
  0
LAYER
  2
מבנה-טקסט
 70
0
 62
9
  6
CONTINUOUS
  0
LAYER
  2
מבנה-נסתר
 70
0
 62
9
  6
HIDDEN
  0
LAYER
  2
מבנה-ציר
 70
0
 62
9
  6
CENTER
  0
LAYER
  2
חשמל
 70
0
 62
6
  6
CONTINUOUS
  0
LAYER
  2
חשמל-מידות
 70
0
 62
6
  6
CONTINUOUS
  0
LAYER
  2
חשמל-טקסט
 70
0
 62
6
  6
CONTINUOUS
  0
LAYER
  2
חשמל-נסתר
 70
0
 62
6
  6
HIDDEN
  0
LAYER
  2
תאורה
 70
0
 62
30
  6
CONTINUOUS
  0
LAYER
  2
תאורה-מידות
 70
0
 62
30
  6
CONTINUOUS
  0
LAYER
  2
תאורה-טקסט
 70
0
 62
30
  6
CONTINUOUS
  0
LAYER
  2
תאורה-נסתר
 70
0
 62
30
  6
HIDDEN
  0
LAYER
  2
מים
 70
0
 62
4
  6
CONTINUOUS
  0
LAYER
  2
מים-מידות
 70
0
 62
4
  6
CONTINUOUS
  0
LAYER
  2
מים-טקסט
 70
0
 62
4
  6
CONTINUOUS
  0
LAYER
  2
מים-נסתר
 70
0
 62
4
  6
HIDDEN
  0
LAYER
  2
מים-ציר
 70
0
 62
4
  6
CENTER
  0
LAYER
  2
ניקוז
 70
0
 62
140
  6
CONTINUOUS
  0
LAYER
  2
ניקוז-מידות
 70
0
 62
140
  6
CONTINUOUS
  0
LAYER
  2
ניקוז-טקסט
 70
0
 62
140
  6
CONTINUOUS
  0
LAYER
  2
ניקוז-נסתר
 70
0
 62
140
  6
HIDDEN
  0
LAYER
  2
ניקוז-ציר
 70
0
 62
140
  6
CENTER
  0
LAYER
  2
גז
 70
0
 62
2
  6
CONTINUOUS
  0
LAYER
  2
גז-מידות
 70
0
 62
2
  6
CONTINUOUS
  0
LAYER
  2
גז-טקסט
 70
0
 62
2
  6
CONTINUOUS
  0
LAYER
  2
גז-נסתר
 70
0
 62
2
  6
HIDDEN
  0
LAYER
  2
גז-ציר
 70
0
 62
2
  6
CENTER
  0
LAYER
  2
מיזוג
 70
0
 62
141
  6
CONTINUOUS
  0
LAYER
  2
מיזוג-מידות
 70
0
 62
141
  6
CONTINUOUS
  0
LAYER
  2
מיזוג-טקסט
 70
0
 62
141
  6
CONTINUOUS
  0
LAYER
  2
מיזוג-נסתר
 70
0
 62
141
  6
HIDDEN
  0
LAYER
  2
אוורור
 70
0
 62
131
  6
CONTINUOUS
  0
LAYER
  2
אוורור-מידות
 70
0
 62
131
  6
CONTINUOUS
  0
LAYER
  2
אוורור-טקסט
 70
0
 62
131
  6
CONTINUOUS
  0
LAYER
  2
אוורור-נסתר
 70
0
 62
131
  6
HIDDEN
  0
LAYER
  2
דלתות
 70
0
 62
5
  6
CONTINUOUS
  0
LAYER
  2
דלתות-מידות
 70
0
 62
5
  6
CONTINUOUS
  0
LAYER
  2
דלתות-טקסט
 70
0
 62
5
  6
CONTINUOUS
  0
LAYER
  2
דלתות-נסתר
 70
0
 62
5
  6
HIDDEN
  0
LAYER
  2
דלתות-מילוי
 70
0
 62
5
  6
CONTINUOUS
  0
LAYER
  2
חלונות
 70
0
 62
151
  6
CONTINUOUS
  0
LAYER
  2
חלונות-מידות
 70
0
 62
151
  6
CONTINUOUS
  0
LAYER
  2
חלונות-טקסט
 70
0
 62
151
  6
CONTINUOUS
  0
LAYER
  2
חלונות-נסתר
 70
0
 62
151
  6
HIDDEN
  0
LAYER
  2
ריהוט
 70
0
 62
42
  6
CONTINUOUS
  0
LAYER
  2
ריהוט-מידות
 70
0
 62
42
  6
CONTINUOUS
  0
LAYER
  2
ריהוט-טקסט
 70
0
 62
42
  6
CONTINUOUS
  0
LAYER
  2
ריהוט-נסתר
 70
0
 62
42
  6
HIDDEN
  0
LAYER
  2
מטבח
 70
0
 62
52
  6
CONTINUOUS
  0
LAYER
  2
מטבח-מידות
 70
0
 62
52
  6
CONTINUOUS
  0
LAYER
  2
מטבח-טקסט
 70
0
 62
52
  6
CONTINUOUS
  0
LAYER
  2
מטבח-נסתר
 70
0
 62
52
  6
HIDDEN
  0
LAYER
  2
ריצוף
 70
0
 62
251
  6
CONTINUOUS
  0
LAYER
  2
ריצוף-מילוי
 70
0
 62
8
  6
CONTINUOUS
  0
LAYER
  2
מידות-פנים
 70
0
 62
3
  6
CONTINUOUS
  0
LAYER
  2
מידות-חוץ
 70
0
 62
1
  6
CONTINUOUS
  0
LAYER
  2
מסגרת
 70
0
 62
250
  6
CONTINUOUS
  0
LAYER
  2
גבול-גיליון
 70
0
 62
255
  6
CONTINUOUS
  0
LAYER
  2
מקרא
 70
0
 62
150
  6
CONTINUOUS
  0
LAYER
  2
רשת-צירים
 70
0
 62
8
  6
CENTER
  0
LAYER
  2
הערות
 70
0
 62
150
  6
CONTINUOUS
  0
LAYER
  2
מהדורות
 70
0
 62
1
  6
CONTINUOUS
  0
ENDTAB
  0
TABLE
  2
STYLE
 70
2
  0
STYLE
  2
SOLINE
 70
0
 40
0.0000
 41
1.0000
 50
0.0000
 71
0
 42
2.5000
  3
arial.ttf
  4

  0
STYLE
  2
Standard
 70
0
 40
0.0000
 41
1.0000
 50
0.0000
 71
0
 42
2.5000
  3
txt
  4

  0
ENDTAB
  0
TABLE
  2
DIMSTYLE
 70
1
  0
DIMSTYLE
  2
SOLINE
 70
0
 40
50.0000
 41
2.5000
 42
0.6250
 43
7.0000
 44
1.2500
140
2.5000
144
0.1000
147
0.6250
 77
1
 73
0
 74
0
 78
8
176
0
177
0
178
0
  0
ENDTAB
  0
ENDSEC
  0
SECTION
  2
BLOCKS
  0
BLOCK
  8
0
  2
SS_socket_single_90x90
 70
0
 10
0.0000
 20
0.0000
 30
0.0000
  3
SS_socket_single_90x90
  1

  0
LINE
  5
337
  8
0
 10
0.0000
 20
0.0000
 30
0.0000
 11
0.0000
 21
41.4000
 31
0.0000
  0
LINE
  5
338
  8
0
 10
-28.8000
 20
41.4000
 30
0.0000
 11
-28.6189
 21
44.6246
 31
0.0000
  0
LINE
  5
339
  8
0
 10
-28.6189
 20
44.6246
 30
0.0000
 11
-28.0779
 21
47.8086
 31
0.0000
  0
LINE
  5
33A
  8
0
 10
-28.0779
 20
47.8086
 30
0.0000
 11
-27.1838
 21
50.9120
 31
0.0000
  0
LINE
  5
33B
  8
0
 10
-27.1838
 20
50.9120
 30
0.0000
 11
-25.9479
 21
53.8959
 31
0.0000
  0
LINE
  5
33C
  8
0
 10
-25.9479
 20
53.8959
 30
0.0000
 11
-24.3857
 21
56.7225
 31
0.0000
  0
LINE
  5
33D
  8
0
 10
-24.3857
 20
56.7225
 30
0.0000
 11
-22.5167
 21
59.3565
 31
0.0000
  0
LINE
  5
33E
  8
0
 10
-22.5167
 20
59.3565
 30
0.0000
 11
-20.3647
 21
61.7647
 31
0.0000
  0
LINE
  5
33F
  8
0
 10
-20.3647
 20
61.7647
 30
0.0000
 11
-17.9565
 21
63.9167
 31
0.0000
  0
LINE
  5
340
  8
0
 10
-17.9565
 20
63.9167
 30
0.0000
 11
-15.3225
 21
65.7857
 31
0.0000
  0
LINE
  5
341
  8
0
 10
-15.3225
 20
65.7857
 30
0.0000
 11
-12.4959
 21
67.3479
 31
0.0000
  0
LINE
  5
342
  8
0
 10
-12.4959
 20
67.3479
 30
0.0000
 11
-9.5120
 21
68.5838
 31
0.0000
  0
LINE
  5
343
  8
0
 10
-9.5120
 20
68.5838
 30
0.0000
 11
-6.4086
 21
69.4779
 31
0.0000
  0
LINE
  5
344
  8
0
 10
-6.4086
 20
69.4779
 30
0.0000
 11
-3.2246
 21
70.0189
 31
0.0000
  0
LINE
  5
345
  8
0
 10
-3.2246
 20
70.0189
 30
0.0000
 11
0.0000
 21
70.2000
 31
0.0000
  0
LINE
  5
346
  8
0
 10
0.0000
 20
70.2000
 30
0.0000
 11
3.2246
 21
70.0189
 31
0.0000
  0
LINE
  5
347
  8
0
 10
3.2246
 20
70.0189
 30
0.0000
 11
6.4086
 21
69.4779
 31
0.0000
  0
LINE
  5
348
  8
0
 10
6.4086
 20
69.4779
 30
0.0000
 11
9.5120
 21
68.5838
 31
0.0000
  0
LINE
  5
349
  8
0
 10
9.5120
 20
68.5838
 30
0.0000
 11
12.4959
 21
67.3479
 31
0.0000
  0
LINE
  5
34A
  8
0
 10
12.4959
 20
67.3479
 30
0.0000
 11
15.3225
 21
65.7857
 31
0.0000
  0
LINE
  5
34B
  8
0
 10
15.3225
 20
65.7857
 30
0.0000
 11
17.9565
 21
63.9167
 31
0.0000
  0
LINE
  5
34C
  8
0
 10
17.9565
 20
63.9167
 30
0.0000
 11
20.3647
 21
61.7647
 31
0.0000
  0
LINE
  5
34D
  8
0
 10
20.3647
 20
61.7647
 30
0.0000
 11
22.5167
 21
59.3565
 31
0.0000
  0
LINE
  5
34E
  8
0
 10
22.5167
 20
59.3565
 30
0.0000
 11
24.3857
 21
56.7225
 31
0.0000
  0
LINE
  5
34F
  8
0
 10
24.3857
 20
56.7225
 30
0.0000
 11
25.9479
 21
53.8959
 31
0.0000
  0
LINE
  5
350
  8
0
 10
25.9479
 20
53.8959
 30
0.0000
 11
27.1838
 21
50.9120
 31
0.0000
  0
LINE
  5
351
  8
0
 10
27.1838
 20
50.9120
 30
0.0000
 11
28.0779
 21
47.8086
 31
0.0000
  0
LINE
  5
352
  8
0
 10
28.0779
 20
47.8086
 30
0.0000
 11
28.6189
 21
44.6246
 31
0.0000
  0
LINE
  5
353
  8
0
 10
28.6189
 20
44.6246
 30
0.0000
 11
28.8000
 21
41.4000
 31
0.0000
  0
LINE
  5
354
  8
0
 10
-28.8000
 20
41.4000
 30
0.0000
 11
28.8000
 21
41.4000
 31
0.0000
  0
ENDBLK
  8
0
  0
BLOCK
  8
0
  2
SS_socket_duplex_160x90
 70
0
 10
0.0000
 20
0.0000
 30
0.0000
  3
SS_socket_duplex_160x90
  1

  0
LINE
  5
355
  8
0
 10
0.0000
 20
0.0000
 30
0.0000
 11
0.0000
 21
41.4000
 31
0.0000
  0
LINE
  5
356
  8
0
 10
-79.1040
 20
41.4000
 30
0.0000
 11
-78.8625
 21
43.8184
 31
0.0000
  0
LINE
  5
357
  8
0
 10
-78.8625
 20
43.8184
 30
0.0000
 11
-78.1412
 21
46.2065
 31
0.0000
  0
LINE
  5
358
  8
0
 10
-78.1412
 20
46.2065
 30
0.0000
 11
-76.9491
 21
48.5340
 31
0.0000
  0
LINE
  5
359
  8
0
 10
-76.9491
 20
48.5340
 30
0.0000
 11
-75.3012
 21
50.7719
 31
0.0000
  0
LINE
  5
35A
  8
0
 10
-75.3012
 20
50.7719
 30
0.0000
 11
-73.2182
 21
52.8919
 31
0.0000
  0
LINE
  5
35B
  8
0
 10
-73.2182
 20
52.8919
 30
0.0000
 11
-70.7263
 21
54.8674
 31
0.0000
  0
LINE
  5
35C
  8
0
 10
-70.7263
 20
54.8674
 30
0.0000
 11
-67.8569
 21
56.6735
 31
0.0000
  0
LINE
  5
35D
  8
0
 10
-67.8569
 20
56.6735
 30
0.0000
 11
-64.6460
 21
58.2876
 31
0.0000
  0
LINE
  5
35E
  8
0
 10
-64.6460
 20
58.2876
 30
0.0000
 11
-61.1340
 21
59.6892
 31
0.0000
  0
LINE
  5
35F
  8
0
 10
-61.1340
 20
59.6892
 30
0.0000
 11
-57.3651
 21
60.8609
 31
0.0000
  0
LINE
  5
360
  8
0
 10
-57.3651
 20
60.8609
 30
0.0000
 11
-53.3867
 21
61.7879
 31
0.0000
  0
LINE
  5
361
  8
0
 10
-53.3867
 20
61.7879
 30
0.0000
 11
-49.2488
 21
62.4584
 31
0.0000
  0
LINE
  5
362
  8
0
 10
-49.2488
 20
62.4584
 30
0.0000
 11
-45.0034
 21
62.8642
 31
0.0000
  0
LINE
  5
363
  8
0
 10
-45.0034
 20
62.8642
 30
0.0000
 11
-40.7040
 21
63.0000
 31
0.0000
  0
LINE
  5
364
  8
0
 10
-40.7040
 20
63.0000
 30
0.0000
 11
-36.4046
 21
62.8642
 31
0.0000
  0
LINE
  5
365
  8
0
 10
-36.4046
 20
62.8642
 30
0.0000
 11
-32.1592
 21
62.4584
 31
0.0000
  0
LINE
  5
366
  8
0
 10
-32.1592
 20
62.4584
 30
0.0000
 11
-28.0213
 21
61.7879
 31
0.0000
  0
LINE
  5
367
  8
0
 10
-28.0213
 20
61.7879
 30
0.0000
 11
-24.0429
 21
60.8609
 31
0.0000
  0
LINE
  5
368
  8
0
 10
-24.0429
 20
60.8609
 30
0.0000
 11
-20.2740
 21
59.6892
 31
0.0000
  0
LINE
  5
369
  8
0
 10
-20.2740
 20
59.6892
 30
0.0000
 11
-16.7620
 21
58.2876
 31
0.0000
  0
LINE
  5
36A
  8
0
 10
-16.7620
 20
58.2876
 30
0.0000
 11
-13.5511
 21
56.6735
 31
0.0000
  0
LINE
  5
36B
  8
0
 10
-13.5511
 20
56.6735
 30
0.0000
 11
-10.6817
 21
54.8674
 31
0.0000
  0
LINE
  5
36C
  8
0
 10
-10.6817
 20
54.8674
 30
0.0000
 11
-8.1898
 21
52.8919
 31
0.0000
  0
LINE
  5
36D
  8
0
 10
-8.1898
 20
52.8919
 30
0.0000
 11
-6.1068
 21
50.7719
 31
0.0000
  0
LINE
  5
36E
  8
0
 10
-6.1068
 20
50.7719
 30
0.0000
 11
-4.4589
 21
48.5340
 31
0.0000
  0
LINE
  5
36F
  8
0
 10
-4.4589
 20
48.5340
 30
0.0000
 11
-3.2668
 21
46.2065
 31
0.0000
  0
LINE
  5
370
  8
0
 10
-3.2668
 20
46.2065
 30
0.0000
 11
-2.5455
 21
43.8184
 31
0.0000
  0
LINE
  5
371
  8
0
 10
-2.5455
 20
43.8184
 30
0.0000
 11
-2.3040
 21
41.4000
 31
0.0000
  0
LINE
  5
372
  8
0
 10
-79.1040
 20
41.4000
 30
0.0000
 11
-2.3040
 21
41.4000
 31
0.0000
  0
LINE
  5
373
  8
0
 10
2.3040
 20
41.4000
 30
0.0000
 11
2.5455
 21
43.8184
 31
0.0000
  0
LINE
  5
374
  8
0
 10
2.5455
 20
43.8184
 30
0.0000
 11
3.2668
 21
46.2065
 31
0.0000
  0
LINE
  5
375
  8
0
 10
3.2668
 20
46.2065
 30
0.0000
 11
4.4589
 21
48.5340
 31
0.0000
  0
LINE
  5
376
  8
0
 10
4.4589
 20
48.5340
 30
0.0000
 11
6.1068
 21
50.7719
 31
0.0000
  0
LINE
  5
377
  8
0
 10
6.1068
 20
50.7719
 30
0.0000
 11
8.1898
 21
52.8919
 31
0.0000
  0
LINE
  5
378
  8
0
 10
8.1898
 20
52.8919
 30
0.0000
 11
10.6817
 21
54.8674
 31
0.0000
  0
LINE
  5
379
  8
0
 10
10.6817
 20
54.8674
 30
0.0000
 11
13.5511
 21
56.6735
 31
0.0000
  0
LINE
  5
37A
  8
0
 10
13.5511
 20
56.6735
 30
0.0000
 11
16.7620
 21
58.2876
 31
0.0000
  0
LINE
  5
37B
  8
0
 10
16.7620
 20
58.2876
 30
0.0000
 11
20.2740
 21
59.6892
 31
0.0000
  0
LINE
  5
37C
  8
0
 10
20.2740
 20
59.6892
 30
0.0000
 11
24.0429
 21
60.8609
 31
0.0000
  0
LINE
  5
37D
  8
0
 10
24.0429
 20
60.8609
 30
0.0000
 11
28.0213
 21
61.7879
 31
0.0000
  0
LINE
  5
37E
  8
0
 10
28.0213
 20
61.7879
 30
0.0000
 11
32.1592
 21
62.4584
 31
0.0000
  0
LINE
  5
37F
  8
0
 10
32.1592
 20
62.4584
 30
0.0000
 11
36.4046
 21
62.8642
 31
0.0000
  0
LINE
  5
380
  8
0
 10
36.4046
 20
62.8642
 30
0.0000
 11
40.7040
 21
63.0000
 31
0.0000
  0
LINE
  5
381
  8
0
 10
40.7040
 20
63.0000
 30
0.0000
 11
45.0034
 21
62.8642
 31
0.0000
  0
LINE
  5
382
  8
0
 10
45.0034
 20
62.8642
 30
0.0000
 11
49.2488
 21
62.4584
 31
0.0000
  0
LINE
  5
383
  8
0
 10
49.2488
 20
62.4584
 30
0.0000
 11
53.3867
 21
61.7879
 31
0.0000
  0
LINE
  5
384
  8
0
 10
53.3867
 20
61.7879
 30
0.0000
 11
57.3651
 21
60.8609
 31
0.0000
  0
LINE
  5
385
  8
0
 10
57.3651
 20
60.8609
 30
0.0000
 11
61.1340
 21
59.6892
 31
0.0000
  0
LINE
  5
386
  8
0
 10
61.1340
 20
59.6892
 30
0.0000
 11
64.6460
 21
58.2876
 31
0.0000
  0
LINE
  5
387
  8
0
 10
64.6460
 20
58.2876
 30
0.0000
 11
67.8569
 21
56.6735
 31
0.0000
  0
LINE
  5
388
  8
0
 10
67.8569
 20
56.6735
 30
0.0000
 11
70.7263
 21
54.8674
 31
0.0000
  0
LINE
  5
389
  8
0
 10
70.7263
 20
54.8674
 30
0.0000
 11
73.2182
 21
52.8919
 31
0.0000
  0
LINE
  5
38A
  8
0
 10
73.2182
 20
52.8919
 30
0.0000
 11
75.3012
 21
50.7719
 31
0.0000
  0
LINE
  5
38B
  8
0
 10
75.3012
 20
50.7719
 30
0.0000
 11
76.9491
 21
48.5340
 31
0.0000
  0
LINE
  5
38C
  8
0
 10
76.9491
 20
48.5340
 30
0.0000
 11
78.1412
 21
46.2065
 31
0.0000
  0
LINE
  5
38D
  8
0
 10
78.1412
 20
46.2065
 30
0.0000
 11
78.8625
 21
43.8184
 31
0.0000
  0
LINE
  5
38E
  8
0
 10
78.8625
 20
43.8184
 30
0.0000
 11
79.1040
 21
41.4000
 31
0.0000
  0
LINE
  5
38F
  8
0
 10
2.3040
 20
41.4000
 30
0.0000
 11
79.1040
 21
41.4000
 31
0.0000
  0
ENDBLK
  8
0
  0
BLOCK
  8
0
  2
SS_switch_single_90x90
 70
0
 10
0.0000
 20
0.0000
 30
0.0000
  3
SS_switch_single_90x90
  1

  0
LINE
  5
390
  8
0
 10
0.0000
 20
0.0000
 30
0.0000
 11
0.0000
 21
27.0000
 31
0.0000
  0
ARC
  5
391
  8
0
 10
0.0000
 20
27.0000
 30
0.0000
 40
4.5000
 50
0.0000
 51
360.0000
  0
LINE
  5
392
  8
0
 10
0.0000
 20
27.0000
 30
0.0000
 11
23.7461
 21
60.9129
 31
0.0000
  0
ENDBLK
  8
0
  0
BLOCK
  8
0
  2
SS_junction_cable_60x60
 70
0
 10
0.0000
 20
0.0000
 30
0.0000
  3
SS_junction_cable_60x60
  1

  0
LINE
  5
393
  8
0
 10
0.0000
 20
0.0000
 30
0.0000
 11
0.0000
 21
46.8000
 31
0.0000
  0
ARC
  5
394
  8
0
 10
0.0000
 20
28.8000
 30
0.0000
 40
19.2000
 50
0.0000
 51
360.0000
  0
LINE
  5
395
  8
0
 10
0.0000
 20
28.8000
 30
0.0000
 11
-13.2000
 21
42.0000
 31
0.0000
  0
LINE
  5
396
  8
0
 10
0.0000
 20
28.8000
 30
0.0000
 11
13.2000
 21
42.0000
 31
0.0000
  0
LINE
  5
397
  8
0
 10
0.0000
 20
28.8000
 30
0.0000
 11
-13.2000
 21
15.6000
 31
0.0000
  0
LINE
  5
398
  8
0
 10
0.0000
 20
28.8000
 30
0.0000
 11
13.2000
 21
15.6000
 31
0.0000
  0
ENDBLK
  8
0
  0
BLOCK
  8
0
  2
SS_junction_cable_120x120
 70
0
 10
0.0000
 20
0.0000
 30
0.0000
  3
SS_junction_cable_120x120
  1

  0
LINE
  5
399
  8
0
 10
0.0000
 20
0.0000
 30
0.0000
 11
0.0000
 21
93.6000
 31
0.0000
  0
ARC
  5
39A
  8
0
 10
0.0000
 20
57.6000
 30
0.0000
 40
38.4000
 50
0.0000
 51
360.0000
  0
LINE
  5
39B
  8
0
 10
0.0000
 20
57.6000
 30
0.0000
 11
-26.4000
 21
84.0000
 31
0.0000
  0
LINE
  5
39C
  8
0
 10
0.0000
 20
57.6000
 30
0.0000
 11
26.4000
 21
84.0000
 31
0.0000
  0
LINE
  5
39D
  8
0
 10
0.0000
 20
57.6000
 30
0.0000
 11
-26.4000
 21
31.2000
 31
0.0000
  0
LINE
  5
39E
  8
0
 10
0.0000
 20
57.6000
 30
0.0000
 11
26.4000
 21
31.2000
 31
0.0000
  0
ENDBLK
  8
0
  0
BLOCK
  8
0
  2
SS_light_downlight_150x150
 70
0
 10
0.0000
 20
0.0000
 30
0.0000
  3
SS_light_downlight_150x150
  1

  0
ARC
  5
39F
  8
0
 10
0.0000
 20
75.0000
 30
0.0000
 40
45.0000
 50
0.0000
 51
360.0000
  0
LINE
  5
3A0
  8
0
 10
-31.5000
 20
106.5000
 30
0.0000
 11
31.5000
 21
43.5000
 31
0.0000
  0
LINE
  5
3A1
  8
0
 10
31.5000
 20
106.5000
 30
0.0000
 11
-31.5000
 21
43.5000
 31
0.0000
  0
ENDBLK
  8
0
  0
BLOCK
  8
0
  2
SS_water_point_60x60
 70
0
 10
0.0000
 20
0.0000
 30
0.0000
  3
SS_water_point_60x60
  1

  0
LINE
  5
3A2
  8
0
 10
0.0000
 20
0.0000
 30
0.0000
 11
0.0000
 21
13.8000
 31
0.0000
  0
ARC
  5
3A3
  8
0
 10
0.0000
 20
30.0000
 30
0.0000
 40
16.8000
 50
0.0000
 51
360.0000
  0
LINE
  5
3A4
  8
0
 10
-14.4000
 20
30.0000
 30
0.0000
 11
14.4000
 21
30.0000
 31
0.0000
  0
LINE
  5
3A5
  8
0
 10
0.0000
 20
44.4000
 30
0.0000
 11
0.0000
 21
15.6000
 31
0.0000
  0
ENDBLK
  8
0
  0
BLOCK
  8
0
  2
SS_gas_point_60x60
 70
0
 10
0.0000
 20
0.0000
 30
0.0000
  3
SS_gas_point_60x60
  1

  0
LINE
  5
3A6
  8
0
 10
0.0000
 20
0.0000
 30
0.0000
 11
0.0000
 21
12.0000
 31
0.0000
  0
LINE
  5
3A7
  8
0
 10
0.0000
 20
48.0000
 30
0.0000
 11
15.6000
 21
39.0000
 31
0.0000
  0
LINE
  5
3A8
  8
0
 10
15.6000
 20
39.0000
 30
0.0000
 11
15.6000
 21
21.0000
 31
0.0000
  0
LINE
  5
3A9
  8
0
 10
15.6000
 20
21.0000
 30
0.0000
 11
0.0000
 21
12.0000
 31
0.0000
  0
LINE
  5
3AA
  8
0
 10
0.0000
 20
12.0000
 30
0.0000
 11
-15.6000
 21
21.0000
 31
0.0000
  0
LINE
  5
3AB
  8
0
 10
-15.6000
 20
21.0000
 30
0.0000
 11
-15.6000
 21
39.0000
 31
0.0000
  0
LINE
  5
3AC
  8
0
 10
-15.6000
 20
39.0000
 30
0.0000
 11
0.0000
 21
48.0000
 31
0.0000
  0
TEXT
  5
3AD
  8
0
 10
0.0000
 20
30.0000
 30
0.0000
 40
24.0000
  1
G
 50
0.0000
  7
SOLINE
 72
1
 73
2
 11
0.0000
 21
30.0000
 31
0.0000
  0
ENDBLK
  8
0
  0
BLOCK
  8
0
  2
SS_water_point_50x50
 70
0
 10
0.0000
 20
0.0000
 30
0.0000
  3
SS_water_point_50x50
  1

  0
LINE
  5
3AE
  8
0
 10
0.0000
 20
0.0000
 30
0.0000
 11
0.0000
 21
11.5000
 31
0.0000
  0
ARC
  5
3AF
  8
0
 10
0.0000
 20
25.0000
 30
0.0000
 40
14.0000
 50
0.0000
 51
360.0000
  0
LINE
  5
3B0
  8
0
 10
-12.0000
 20
25.0000
 30
0.0000
 11
12.0000
 21
25.0000
 31
0.0000
  0
LINE
  5
3B1
  8
0
 10
0.0000
 20
37.0000
 30
0.0000
 11
0.0000
 21
13.0000
 31
0.0000
  0
ENDBLK
  8
0
  0
BLOCK
  8
0
  2
SS_sewage_point_100x100
 70
0
 10
0.0000
 20
0.0000
 30
0.0000
  3
SS_sewage_point_100x100
  1

  0
LINE
  5
3B2
  8
0
 10
0.0000
 20
0.0000
 30
0.0000
 11
0.0000
 21
78.0000
 31
0.0000
  0
ARC
  5
3B3
  8
0
 10
0.0000
 20
50.0000
 30
0.0000
 40
30.0000
 50
0.0000
 51
360.0000
  0
LINE
  5
3B4
  8
0
 10
-18.0000
 20
44.0000
 30
0.0000
 11
-8.0000
 21
56.0000
 31
0.0000
  0
LINE
  5
3B5
  8
0
 10
-8.0000
 20
56.0000
 30
0.0000
 11
0.0000
 21
44.0000
 31
0.0000
  0
LINE
  5
3B6
  8
0
 10
0.0000
 20
44.0000
 30
0.0000
 11
8.0000
 21
56.0000
 31
0.0000
  0
LINE
  5
3B7
  8
0
 10
8.0000
 20
56.0000
 30
0.0000
 11
18.0000
 21
44.0000
 31
0.0000
  0
ENDBLK
  8
0
  0
BLOCK
  8
0
  2
SS_beam_200x2600
 70
0
 10
0.0000
 20
0.0000
 30
0.0000
  3
SS_beam_200x2600
  1

  0
LINE
  5
3B8
  8
0
 10
-100.0000
 20
1612.0000
 30
0.0000
 11
100.0000
 21
1612.0000
 31
0.0000
  0
LINE
  5
3B9
  8
0
 10
100.0000
 20
1612.0000
 30
0.0000
 11
100.0000
 21
988.0000
 31
0.0000
  0
LINE
  5
3BA
  8
0
 10
100.0000
 20
988.0000
 30
0.0000
 11
-100.0000
 21
988.0000
 31
0.0000
  0
LINE
  5
3BB
  8
0
 10
-100.0000
 20
988.0000
 30
0.0000
 11
-100.0000
 21
1612.0000
 31
0.0000
  0
ENDBLK
  8
0
  0
BLOCK
  8
0
  2
SS_beam_1000x600
 70
0
 10
0.0000
 20
0.0000
 30
0.0000
  3
SS_beam_1000x600
  1

  0
LINE
  5
3BC
  8
0
 10
-500.0000
 20
372.0000
 30
0.0000
 11
500.0000
 21
372.0000
 31
0.0000
  0
LINE
  5
3BD
  8
0
 10
500.0000
 20
372.0000
 30
0.0000
 11
500.0000
 21
228.0000
 31
0.0000
  0
LINE
  5
3BE
  8
0
 10
500.0000
 20
228.0000
 30
0.0000
 11
-500.0000
 21
228.0000
 31
0.0000
  0
LINE
  5
3BF
  8
0
 10
-500.0000
 20
228.0000
 30
0.0000
 11
-500.0000
 21
372.0000
 31
0.0000
  0
ENDBLK
  8
0
  0
BLOCK
  8
0
  2
SS_concealment_panel_600x50
 70
0
 10
0.0000
 20
0.0000
 30
0.0000
  3
SS_concealment_panel_600x50
  1

  0
LINE
  5
3C0
  8
0
 10
-216.0000
 20
43.0000
 30
0.0000
 11
216.0000
 21
43.0000
 31
0.0000
  0
LINE
  5
3C1
  8
0
 10
216.0000
 20
43.0000
 30
0.0000
 11
216.0000
 21
7.0000
 31
0.0000
  0
LINE
  5
3C2
  8
0
 10
216.0000
 20
7.0000
 30
0.0000
 11
-216.0000
 21
7.0000
 31
0.0000
  0
LINE
  5
3C3
  8
0
 10
-216.0000
 20
7.0000
 30
0.0000
 11
-216.0000
 21
43.0000
 31
0.0000
  0
LINE
  5
3C4
  8
0
 10
180.0000
 20
28.0000
 30
0.0000
 11
216.0000
 21
25.0000
 31
0.0000
  0
LINE
  5
3C5
  8
0
 10
216.0000
 20
25.0000
 30
0.0000
 11
180.0000
 21
22.0000
 31
0.0000
  0
ENDBLK
  8
0
  0
BLOCK
  8
0
  2
SS_door_frame_213x213
 70
0
 10
0.0000
 20
0.0000
 30
0.0000
  3
SS_door_frame_213x213
  1

  0
LINE
  5
3C6
  8
0
 10
-99.8750
 20
0.0000
 30
0.0000
 11
-99.8750
 21
29.7500
 31
0.0000
  0
LINE
  5
3C7
  8
0
 10
99.8750
 20
0.0000
 30
0.0000
 11
99.8750
 21
29.7500
 31
0.0000
  0
LINE
  5
3C8
  8
0
 10
-99.8750
 20
29.7500
 30
0.0000
 11
99.8750
 21
29.7500
 31
0.0000
  0
ENDBLK
  8
0
  0
BLOCK
  8
0
  2
SS_sewage_point_213x213
 70
0
 10
0.0000
 20
0.0000
 30
0.0000
  3
SS_sewage_point_213x213
  1

  0
LINE
  5
3C9
  8
0
 10
0.0000
 20
0.0000
 30
0.0000
 11
0.0000
 21
165.7500
 31
0.0000
  0
ARC
  5
3CA
  8
0
 10
0.0000
 20
106.2500
 30
0.0000
 40
63.7500
 50
0.0000
 51
360.0000
  0
LINE
  5
3CB
  8
0
 10
-38.2500
 20
93.5000
 30
0.0000
 11
-17.0000
 21
119.0000
 31
0.0000
  0
LINE
  5
3CC
  8
0
 10
-17.0000
 20
119.0000
 30
0.0000
 11
0.0000
 21
93.5000
 31
0.0000
  0
LINE
  5
3CD
  8
0
 10
0.0000
 20
93.5000
 30
0.0000
 11
17.0000
 21
119.0000
 31
0.0000
  0
LINE
  5
3CE
  8
0
 10
17.0000
 20
119.0000
 30
0.0000
 11
38.2500
 21
93.5000
 31
0.0000
  0
ENDBLK
  8
0
  0
BLOCK
  8
0
  2
SS_junction_cable_213x213
 70
0
 10
0.0000
 20
0.0000
 30
0.0000
  3
SS_junction_cable_213x213
  1

  0
LINE
  5
3CF
  8
0
 10
0.0000
 20
0.0000
 30
0.0000
 11
0.0000
 21
165.7500
 31
0.0000
  0
ARC
  5
3D0
  8
0
 10
0.0000
 20
102.0000
 30
0.0000
 40
68.0000
 50
0.0000
 51
360.0000
  0
LINE
  5
3D1
  8
0
 10
0.0000
 20
102.0000
 30
0.0000
 11
-46.7500
 21
148.7500
 31
0.0000
  0
LINE
  5
3D2
  8
0
 10
0.0000
 20
102.0000
 30
0.0000
 11
46.7500
 21
148.7500
 31
0.0000
  0
LINE
  5
3D3
  8
0
 10
0.0000
 20
102.0000
 30
0.0000
 11
-46.7500
 21
55.2500
 31
0.0000
  0
LINE
  5
3D4
  8
0
 10
0.0000
 20
102.0000
 30
0.0000
 11
46.7500
 21
55.2500
 31
0.0000
  0
ENDBLK
  8
0
  0
BLOCK
  8
0
  2
SS_socket_single_213x213
 70
0
 10
0.0000
 20
0.0000
 30
0.0000
  3
SS_socket_single_213x213
  1

  0
LINE
  5
3D5
  8
0
 10
0.0000
 20
0.0000
 30
0.0000
 11
0.0000
 21
97.7500
 31
0.0000
  0
LINE
  5
3D6
  8
0
 10
-68.0000
 20
97.7500
 30
0.0000
 11
-67.5724
 21
105.3636
 31
0.0000
  0
LINE
  5
3D7
  8
0
 10
-67.5724
 20
105.3636
 30
0.0000
 11
-66.2951
 21
112.8814
 31
0.0000
  0
LINE
  5
3D8
  8
0
 10
-66.2951
 20
112.8814
 30
0.0000
 11
-64.1841
 21
120.2090
 31
0.0000
  0
LINE
  5
3D9
  8
0
 10
-64.1841
 20
120.2090
 30
0.0000
 11
-61.2659
 21
127.2541
 31
0.0000
  0
LINE
  5
3DA
  8
0
 10
-61.2659
 20
127.2541
 30
0.0000
 11
-57.5772
 21
133.9282
 31
0.0000
  0
LINE
  5
3DB
  8
0
 10
-57.5772
 20
133.9282
 30
0.0000
 11
-53.1645
 21
140.1473
 31
0.0000
  0
LINE
  5
3DC
  8
0
 10
-53.1645
 20
140.1473
 30
0.0000
 11
-48.0833
 21
145.8333
 31
0.0000
  0
LINE
  5
3DD
  8
0
 10
-48.0833
 20
145.8333
 30
0.0000
 11
-42.3973
 21
150.9145
 31
0.0000
  0
LINE
  5
3DE
  8
0
 10
-42.3973
 20
150.9145
 30
0.0000
 11
-36.1782
 21
155.3272
 31
0.0000
  0
LINE
  5
3DF
  8
0
 10
-36.1782
 20
155.3272
 30
0.0000
 11
-29.5041
 21
159.0159
 31
0.0000
  0
LINE
  5
3E0
  8
0
 10
-29.5041
 20
159.0159
 30
0.0000
 11
-22.4590
 21
161.9341
 31
0.0000
  0
LINE
  5
3E1
  8
0
 10
-22.4590
 20
161.9341
 30
0.0000
 11
-15.1314
 21
164.0451
 31
0.0000
  0
LINE
  5
3E2
  8
0
 10
-15.1314
 20
164.0451
 30
0.0000
 11
-7.6136
 21
165.3224
 31
0.0000
  0
LINE
  5
3E3
  8
0
 10
-7.6136
 20
165.3224
 30
0.0000
 11
0.0000
 21
165.7500
 31
0.0000
  0
LINE
  5
3E4
  8
0
 10
0.0000
 20
165.7500
 30
0.0000
 11
7.6136
 21
165.3224
 31
0.0000
  0
LINE
  5
3E5
  8
0
 10
7.6136
 20
165.3224
 30
0.0000
 11
15.1314
 21
164.0451
 31
0.0000
  0
LINE
  5
3E6
  8
0
 10
15.1314
 20
164.0451
 30
0.0000
 11
22.4590
 21
161.9341
 31
0.0000
  0
LINE
  5
3E7
  8
0
 10
22.4590
 20
161.9341
 30
0.0000
 11
29.5041
 21
159.0159
 31
0.0000
  0
LINE
  5
3E8
  8
0
 10
29.5041
 20
159.0159
 30
0.0000
 11
36.1782
 21
155.3272
 31
0.0000
  0
LINE
  5
3E9
  8
0
 10
36.1782
 20
155.3272
 30
0.0000
 11
42.3973
 21
150.9145
 31
0.0000
  0
LINE
  5
3EA
  8
0
 10
42.3973
 20
150.9145
 30
0.0000
 11
48.0833
 21
145.8333
 31
0.0000
  0
LINE
  5
3EB
  8
0
 10
48.0833
 20
145.8333
 30
0.0000
 11
53.1645
 21
140.1473
 31
0.0000
  0
LINE
  5
3EC
  8
0
 10
53.1645
 20
140.1473
 30
0.0000
 11
57.5772
 21
133.9282
 31
0.0000
  0
LINE
  5
3ED
  8
0
 10
57.5772
 20
133.9282
 30
0.0000
 11
61.2659
 21
127.2541
 31
0.0000
  0
LINE
  5
3EE
  8
0
 10
61.2659
 20
127.2541
 30
0.0000
 11
64.1841
 21
120.2090
 31
0.0000
  0
LINE
  5
3EF
  8
0
 10
64.1841
 20
120.2090
 30
0.0000
 11
66.2951
 21
112.8814
 31
0.0000
  0
LINE
  5
3F0
  8
0
 10
66.2951
 20
112.8814
 30
0.0000
 11
67.5724
 21
105.3636
 31
0.0000
  0
LINE
  5
3F1
  8
0
 10
67.5724
 20
105.3636
 30
0.0000
 11
68.0000
 21
97.7500
 31
0.0000
  0
LINE
  5
3F2
  8
0
 10
-68.0000
 20
97.7500
 30
0.0000
 11
68.0000
 21
97.7500
 31
0.0000
  0
ENDBLK
  8
0
  0
BLOCK
  8
0
  2
SS_socket_duplex_213x213
 70
0
 10
0.0000
 20
0.0000
 30
0.0000
  3
SS_socket_duplex_213x213
  1

  0
LINE
  5
3F3
  8
0
 10
0.0000
 20
0.0000
 30
0.0000
 11
0.0000
 21
97.7500
 31
0.0000
  0
LINE
  5
3F4
  8
0
 10
-105.0600
 20
97.7500
 30
0.0000
 11
-104.7393
 21
103.4602
 31
0.0000
  0
LINE
  5
3F5
  8
0
 10
-104.7393
 20
103.4602
 30
0.0000
 11
-103.7813
 21
109.0986
 31
0.0000
  0
LINE
  5
3F6
  8
0
 10
-103.7813
 20
109.0986
 30
0.0000
 11
-102.1980
 21
114.5942
 31
0.0000
  0
LINE
  5
3F7
  8
0
 10
-102.1980
 20
114.5942
 30
0.0000
 11
-100.0094
 21
119.8781
 31
0.0000
  0
LINE
  5
3F8
  8
0
 10
-100.0094
 20
119.8781
 30
0.0000
 11
-97.2429
 21
124.8836
 31
0.0000
  0
LINE
  5
3F9
  8
0
 10
-97.2429
 20
124.8836
 30
0.0000
 11
-93.9334
 21
129.5480
 31
0.0000
  0
LINE
  5
3FA
  8
0
 10
-93.9334
 20
129.5480
 30
0.0000
 11
-90.1224
 21
133.8124
 31
0.0000
  0
LINE
  5
3FB
  8
0
 10
-90.1224
 20
133.8124
 30
0.0000
 11
-85.8580
 21
137.6234
 31
0.0000
  0
LINE
  5
3FC
  8
0
 10
-85.8580
 20
137.6234
 30
0.0000
 11
-81.1936
 21
140.9329
 31
0.0000
  0
LINE
  5
3FD
  8
0
 10
-81.1936
 20
140.9329
 30
0.0000
 11
-76.1881
 21
143.6994
 31
0.0000
  0
LINE
  5
3FE
  8
0
 10
-76.1881
 20
143.6994
 30
0.0000
 11
-70.9042
 21
145.8880
 31
0.0000
  0
LINE
  5
3FF
  8
0
 10
-70.9042
 20
145.8880
 30
0.0000
 11
-65.4086
 21
147.4713
 31
0.0000
  0
LINE
  5
400
  8
0
 10
-65.4086
 20
147.4713
 30
0.0000
 11
-59.7702
 21
148.4293
 31
0.0000
  0
LINE
  5
401
  8
0
 10
-59.7702
 20
148.4293
 30
0.0000
 11
-54.0600
 21
148.7500
 31
0.0000
  0
LINE
  5
402
  8
0
 10
-54.0600
 20
148.7500
 30
0.0000
 11
-48.3498
 21
148.4293
 31
0.0000
  0
LINE
  5
403
  8
0
 10
-48.3498
 20
148.4293
 30
0.0000
 11
-42.7114
 21
147.4713
 31
0.0000
  0
LINE
  5
404
  8
0
 10
-42.7114
 20
147.4713
 30
0.0000
 11
-37.2158
 21
145.8880
 31
0.0000
  0
LINE
  5
405
  8
0
 10
-37.2158
 20
145.8880
 30
0.0000
 11
-31.9319
 21
143.6994
 31
0.0000
  0
LINE
  5
406
  8
0
 10
-31.9319
 20
143.6994
 30
0.0000
 11
-26.9264
 21
140.9329
 31
0.0000
  0
LINE
  5
407
  8
0
 10
-26.9264
 20
140.9329
 30
0.0000
 11
-22.2620
 21
137.6234
 31
0.0000
  0
LINE
  5
408
  8
0
 10
-22.2620
 20
137.6234
 30
0.0000
 11
-17.9976
 21
133.8124
 31
0.0000
  0
LINE
  5
409
  8
0
 10
-17.9976
 20
133.8124
 30
0.0000
 11
-14.1866
 21
129.5480
 31
0.0000
  0
LINE
  5
40A
  8
0
 10
-14.1866
 20
129.5480
 30
0.0000
 11
-10.8771
 21
124.8836
 31
0.0000
  0
LINE
  5
40B
  8
0
 10
-10.8771
 20
124.8836
 30
0.0000
 11
-8.1106
 21
119.8781
 31
0.0000
  0
LINE
  5
40C
  8
0
 10
-8.1106
 20
119.8781
 30
0.0000
 11
-5.9220
 21
114.5942
 31
0.0000
  0
LINE
  5
40D
  8
0
 10
-5.9220
 20
114.5942
 30
0.0000
 11
-4.3387
 21
109.0986
 31
0.0000
  0
LINE
  5
40E
  8
0
 10
-4.3387
 20
109.0986
 30
0.0000
 11
-3.3807
 21
103.4602
 31
0.0000
  0
LINE
  5
40F
  8
0
 10
-3.3807
 20
103.4602
 30
0.0000
 11
-3.0600
 21
97.7500
 31
0.0000
  0
LINE
  5
410
  8
0
 10
-105.0600
 20
97.7500
 30
0.0000
 11
-3.0600
 21
97.7500
 31
0.0000
  0
LINE
  5
411
  8
0
 10
3.0600
 20
97.7500
 30
0.0000
 11
3.3807
 21
103.4602
 31
0.0000
  0
LINE
  5
412
  8
0
 10
3.3807
 20
103.4602
 30
0.0000
 11
4.3387
 21
109.0986
 31
0.0000
  0
LINE
  5
413
  8
0
 10
4.3387
 20
109.0986
 30
0.0000
 11
5.9220
 21
114.5942
 31
0.0000
  0
LINE
  5
414
  8
0
 10
5.9220
 20
114.5942
 30
0.0000
 11
8.1106
 21
119.8781
 31
0.0000
  0
LINE
  5
415
  8
0
 10
8.1106
 20
119.8781
 30
0.0000
 11
10.8771
 21
124.8836
 31
0.0000
  0
LINE
  5
416
  8
0
 10
10.8771
 20
124.8836
 30
0.0000
 11
14.1866
 21
129.5480
 31
0.0000
  0
LINE
  5
417
  8
0
 10
14.1866
 20
129.5480
 30
0.0000
 11
17.9976
 21
133.8124
 31
0.0000
  0
LINE
  5
418
  8
0
 10
17.9976
 20
133.8124
 30
0.0000
 11
22.2620
 21
137.6234
 31
0.0000
  0
LINE
  5
419
  8
0
 10
22.2620
 20
137.6234
 30
0.0000
 11
26.9264
 21
140.9329
 31
0.0000
  0
LINE
  5
41A
  8
0
 10
26.9264
 20
140.9329
 30
0.0000
 11
31.9319
 21
143.6994
 31
0.0000
  0
LINE
  5
41B
  8
0
 10
31.9319
 20
143.6994
 30
0.0000
 11
37.2158
 21
145.8880
 31
0.0000
  0
LINE
  5
41C
  8
0
 10
37.2158
 20
145.8880
 30
0.0000
 11
42.7114
 21
147.4713
 31
0.0000
  0
LINE
  5
41D
  8
0
 10
42.7114
 20
147.4713
 30
0.0000
 11
48.3498
 21
148.4293
 31
0.0000
  0
LINE
  5
41E
  8
0
 10
48.3498
 20
148.4293
 30
0.0000
 11
54.0600
 21
148.7500
 31
0.0000
  0
LINE
  5
41F
  8
0
 10
54.0600
 20
148.7500
 30
0.0000
 11
59.7702
 21
148.4293
 31
0.0000
  0
LINE
  5
420
  8
0
 10
59.7702
 20
148.4293
 30
0.0000
 11
65.4086
 21
147.4713
 31
0.0000
  0
LINE
  5
421
  8
0
 10
65.4086
 20
147.4713
 30
0.0000
 11
70.9042
 21
145.8880
 31
0.0000
  0
LINE
  5
422
  8
0
 10
70.9042
 20
145.8880
 30
0.0000
 11
76.1881
 21
143.6994
 31
0.0000
  0
LINE
  5
423
  8
0
 10
76.1881
 20
143.6994
 30
0.0000
 11
81.1936
 21
140.9329
 31
0.0000
  0
LINE
  5
424
  8
0
 10
81.1936
 20
140.9329
 30
0.0000
 11
85.8580
 21
137.6234
 31
0.0000
  0
LINE
  5
425
  8
0
 10
85.8580
 20
137.6234
 30
0.0000
 11
90.1224
 21
133.8124
 31
0.0000
  0
LINE
  5
426
  8
0
 10
90.1224
 20
133.8124
 30
0.0000
 11
93.9334
 21
129.5480
 31
0.0000
  0
LINE
  5
427
  8
0
 10
93.9334
 20
129.5480
 30
0.0000
 11
97.2429
 21
124.8836
 31
0.0000
  0
LINE
  5
428
  8
0
 10
97.2429
 20
124.8836
 30
0.0000
 11
100.0094
 21
119.8781
 31
0.0000
  0
LINE
  5
429
  8
0
 10
100.0094
 20
119.8781
 30
0.0000
 11
102.1980
 21
114.5942
 31
0.0000
  0
LINE
  5
42A
  8
0
 10
102.1980
 20
114.5942
 30
0.0000
 11
103.7813
 21
109.0986
 31
0.0000
  0
LINE
  5
42B
  8
0
 10
103.7813
 20
109.0986
 30
0.0000
 11
104.7393
 21
103.4602
 31
0.0000
  0
LINE
  5
42C
  8
0
 10
104.7393
 20
103.4602
 30
0.0000
 11
105.0600
 21
97.7500
 31
0.0000
  0
LINE
  5
42D
  8
0
 10
3.0600
 20
97.7500
 30
0.0000
 11
105.0600
 21
97.7500
 31
0.0000
  0
ENDBLK
  8
0
  0
BLOCK
  8
0
  2
SS_switch_single_213x213
 70
0
 10
0.0000
 20
0.0000
 30
0.0000
  3
SS_switch_single_213x213
  1

  0
LINE
  5
42E
  8
0
 10
0.0000
 20
0.0000
 30
0.0000
 11
0.0000
 21
63.7500
 31
0.0000
  0
ARC
  5
42F
  8
0
 10
0.0000
 20
63.7500
 30
0.0000
 40
10.6250
 50
0.0000
 51
360.0000
  0
LINE
  5
430
  8
0
 10
0.0000
 20
63.7500
 30
0.0000
 11
56.0671
 21
143.8221
 31
0.0000
  0
ENDBLK
  8
0
  0
BLOCK
  8
0
  2
SS_gas_point_213x213
 70
0
 10
0.0000
 20
0.0000
 30
0.0000
  3
SS_gas_point_213x213
  1

  0
LINE
  5
431
  8
0
 10
0.0000
 20
0.0000
 30
0.0000
 11
0.0000
 21
42.5000
 31
0.0000
  0
LINE
  5
432
  8
0
 10
0.0000
 20
170.0000
 30
0.0000
 11
55.2500
 21
138.1250
 31
0.0000
  0
LINE
  5
433
  8
0
 10
55.2500
 20
138.1250
 30
0.0000
 11
55.2500
 21
74.3750
 31
0.0000
  0
LINE
  5
434
  8
0
 10
55.2500
 20
74.3750
 30
0.0000
 11
0.0000
 21
42.5000
 31
0.0000
  0
LINE
  5
435
  8
0
 10
0.0000
 20
42.5000
 30
0.0000
 11
-55.2500
 21
74.3750
 31
0.0000
  0
LINE
  5
436
  8
0
 10
-55.2500
 20
74.3750
 30
0.0000
 11
-55.2500
 21
138.1250
 31
0.0000
  0
LINE
  5
437
  8
0
 10
-55.2500
 20
138.1250
 30
0.0000
 11
0.0000
 21
170.0000
 31
0.0000
  0
TEXT
  5
438
  8
0
 10
0.0000
 20
106.2500
 30
0.0000
 40
59.5000
  1
G
 50
0.0000
  7
SOLINE
 72
1
 73
2
 11
0.0000
 21
106.2500
 31
0.0000
  0
ENDBLK
  8
0
  0
BLOCK
  8
0
  2
SS_light_downlight_213x213
 70
0
 10
0.0000
 20
0.0000
 30
0.0000
  3
SS_light_downlight_213x213
  1

  0
ARC
  5
439
  8
0
 10
0.0000
 20
106.2500
 30
0.0000
 40
63.7500
 50
0.0000
 51
360.0000
  0
LINE
  5
43A
  8
0
 10
-44.6250
 20
150.8750
 30
0.0000
 11
44.6250
 21
61.6250
 31
0.0000
  0
LINE
  5
43B
  8
0
 10
44.6250
 20
150.8750
 30
0.0000
 11
-44.6250
 21
61.6250
 31
0.0000
  0
ENDBLK
  8
0
  0
BLOCK
  8
0
  2
SS_passage_213x213
 70
0
 10
0.0000
 20
0.0000
 30
0.0000
  3
SS_passage_213x213
  1

  0
LINE
  5
43C
  8
0
 10
-97.7500
 20
0.0000
 30
0.0000
 11
-97.7500
 21
63.7500
 31
0.0000
  0
LINE
  5
43D
  8
0
 10
97.7500
 20
0.0000
 30
0.0000
 11
97.7500
 21
63.7500
 31
0.0000
  0
ENDBLK
  8
0
  0
BLOCK
  8
0
  2
SS_water_point_213x213
 70
0
 10
0.0000
 20
0.0000
 30
0.0000
  3
SS_water_point_213x213
  1

  0
LINE
  5
43E
  8
0
 10
0.0000
 20
0.0000
 30
0.0000
 11
0.0000
 21
48.8750
 31
0.0000
  0
ARC
  5
43F
  8
0
 10
0.0000
 20
106.2500
 30
0.0000
 40
59.5000
 50
0.0000
 51
360.0000
  0
LINE
  5
440
  8
0
 10
-51.0000
 20
106.2500
 30
0.0000
 11
51.0000
 21
106.2500
 31
0.0000
  0
LINE
  5
441
  8
0
 10
0.0000
 20
157.2500
 30
0.0000
 11
0.0000
 21
55.2500
 31
0.0000
  0
ENDBLK
  8
0
  0
BLOCK
  8
0
  2
SS_beam_213x213
 70
0
 10
0.0000
 20
0.0000
 30
0.0000
  3
SS_beam_213x213
  1

  0
LINE
  5
442
  8
0
 10
-106.2500
 20
131.7500
 30
0.0000
 11
106.2500
 21
131.7500
 31
0.0000
  0
LINE
  5
443
  8
0
 10
106.2500
 20
131.7500
 30
0.0000
 11
106.2500
 21
80.7500
 31
0.0000
  0
LINE
  5
444
  8
0
 10
106.2500
 20
80.7500
 30
0.0000
 11
-106.2500
 21
80.7500
 31
0.0000
  0
LINE
  5
445
  8
0
 10
-106.2500
 20
80.7500
 30
0.0000
 11
-106.2500
 21
131.7500
 31
0.0000
  0
ENDBLK
  8
0
  0
BLOCK
  8
0
  2
SS_concealment_panel_213x213
 70
0
 10
0.0000
 20
0.0000
 30
0.0000
  3
SS_concealment_panel_213x213
  1

  0
LINE
  5
446
  8
0
 10
-76.5000
 20
182.7500
 30
0.0000
 11
76.5000
 21
182.7500
 31
0.0000
  0
LINE
  5
447
  8
0
 10
76.5000
 20
182.7500
 30
0.0000
 11
76.5000
 21
29.7500
 31
0.0000
  0
LINE
  5
448
  8
0
 10
76.5000
 20
29.7500
 30
0.0000
 11
-76.5000
 21
29.7500
 31
0.0000
  0
LINE
  5
449
  8
0
 10
-76.5000
 20
29.7500
 30
0.0000
 11
-76.5000
 21
182.7500
 31
0.0000
  0
LINE
  5
44A
  8
0
 10
63.7500
 20
119.0000
 30
0.0000
 11
76.5000
 21
106.2500
 31
0.0000
  0
LINE
  5
44B
  8
0
 10
76.5000
 20
106.2500
 30
0.0000
 11
63.7500
 21
93.5000
 31
0.0000
  0
ENDBLK
  8
0
  0
BLOCK
  8
0
  2
SS_window_213x213
 70
0
 10
0.0000
 20
0.0000
 30
0.0000
  3
SS_window_213x213
  1

  0
LINE
  5
44C
  8
0
 10
-106.2500
 20
136.0000
 30
0.0000
 11
106.2500
 21
136.0000
 31
0.0000
  0
LINE
  5
44D
  8
0
 10
106.2500
 20
136.0000
 30
0.0000
 11
106.2500
 21
76.5000
 31
0.0000
  0
LINE
  5
44E
  8
0
 10
106.2500
 20
76.5000
 30
0.0000
 11
-106.2500
 21
76.5000
 31
0.0000
  0
LINE
  5
44F
  8
0
 10
-106.2500
 20
76.5000
 30
0.0000
 11
-106.2500
 21
136.0000
 31
0.0000
  0
LINE
  5
450
  8
0
 10
-106.2500
 20
115.7700
 30
0.0000
 11
106.2500
 21
115.7700
 31
0.0000
  0
LINE
  5
451
  8
0
 10
-106.2500
 20
96.7300
 30
0.0000
 11
106.2500
 21
96.7300
 31
0.0000
  0
ENDBLK
  8
0
  0
BLOCK
  8
0
  2
SS_socket_single_90x90_ELV
 70
0
 10
0.0000
 20
0.0000
 30
0.0000
  3
SS_socket_single_90x90_ELV
  1

  0
LINE
  5
452
  8
0
 10
-45.0000
 20
0.0000
 30
0.0000
 11
45.0000
 21
0.0000
 31
0.0000
  0
LINE
  5
453
  8
0
 10
45.0000
 20
0.0000
 30
0.0000
 11
45.0000
 21
90.0000
 31
0.0000
  0
LINE
  5
454
  8
0
 10
45.0000
 20
90.0000
 30
0.0000
 11
-45.0000
 21
90.0000
 31
0.0000
  0
LINE
  5
455
  8
0
 10
-45.0000
 20
90.0000
 30
0.0000
 11
-45.0000
 21
0.0000
 31
0.0000
  0
LINE
  5
456
  8
0
 10
0.0000
 20
0.0000
 30
0.0000
 11
0.0000
 21
41.4000
 31
0.0000
  0
LINE
  5
457
  8
0
 10
-28.8000
 20
41.4000
 30
0.0000
 11
-28.6189
 21
44.6246
 31
0.0000
  0
LINE
  5
458
  8
0
 10
-28.6189
 20
44.6246
 30
0.0000
 11
-28.0779
 21
47.8086
 31
0.0000
  0
LINE
  5
459
  8
0
 10
-28.0779
 20
47.8086
 30
0.0000
 11
-27.1838
 21
50.9120
 31
0.0000
  0
LINE
  5
45A
  8
0
 10
-27.1838
 20
50.9120
 30
0.0000
 11
-25.9479
 21
53.8959
 31
0.0000
  0
LINE
  5
45B
  8
0
 10
-25.9479
 20
53.8959
 30
0.0000
 11
-24.3857
 21
56.7225
 31
0.0000
  0
LINE
  5
45C
  8
0
 10
-24.3857
 20
56.7225
 30
0.0000
 11
-22.5167
 21
59.3565
 31
0.0000
  0
LINE
  5
45D
  8
0
 10
-22.5167
 20
59.3565
 30
0.0000
 11
-20.3647
 21
61.7647
 31
0.0000
  0
LINE
  5
45E
  8
0
 10
-20.3647
 20
61.7647
 30
0.0000
 11
-17.9565
 21
63.9167
 31
0.0000
  0
LINE
  5
45F
  8
0
 10
-17.9565
 20
63.9167
 30
0.0000
 11
-15.3225
 21
65.7857
 31
0.0000
  0
LINE
  5
460
  8
0
 10
-15.3225
 20
65.7857
 30
0.0000
 11
-12.4959
 21
67.3479
 31
0.0000
  0
LINE
  5
461
  8
0
 10
-12.4959
 20
67.3479
 30
0.0000
 11
-9.5120
 21
68.5838
 31
0.0000
  0
LINE
  5
462
  8
0
 10
-9.5120
 20
68.5838
 30
0.0000
 11
-6.4086
 21
69.4779
 31
0.0000
  0
LINE
  5
463
  8
0
 10
-6.4086
 20
69.4779
 30
0.0000
 11
-3.2246
 21
70.0189
 31
0.0000
  0
LINE
  5
464
  8
0
 10
-3.2246
 20
70.0189
 30
0.0000
 11
0.0000
 21
70.2000
 31
0.0000
  0
LINE
  5
465
  8
0
 10
0.0000
 20
70.2000
 30
0.0000
 11
3.2246
 21
70.0189
 31
0.0000
  0
LINE
  5
466
  8
0
 10
3.2246
 20
70.0189
 30
0.0000
 11
6.4086
 21
69.4779
 31
0.0000
  0
LINE
  5
467
  8
0
 10
6.4086
 20
69.4779
 30
0.0000
 11
9.5120
 21
68.5838
 31
0.0000
  0
LINE
  5
468
  8
0
 10
9.5120
 20
68.5838
 30
0.0000
 11
12.4959
 21
67.3479
 31
0.0000
  0
LINE
  5
469
  8
0
 10
12.4959
 20
67.3479
 30
0.0000
 11
15.3225
 21
65.7857
 31
0.0000
  0
LINE
  5
46A
  8
0
 10
15.3225
 20
65.7857
 30
0.0000
 11
17.9565
 21
63.9167
 31
0.0000
  0
LINE
  5
46B
  8
0
 10
17.9565
 20
63.9167
 30
0.0000
 11
20.3647
 21
61.7647
 31
0.0000
  0
LINE
  5
46C
  8
0
 10
20.3647
 20
61.7647
 30
0.0000
 11
22.5167
 21
59.3565
 31
0.0000
  0
LINE
  5
46D
  8
0
 10
22.5167
 20
59.3565
 30
0.0000
 11
24.3857
 21
56.7225
 31
0.0000
  0
LINE
  5
46E
  8
0
 10
24.3857
 20
56.7225
 30
0.0000
 11
25.9479
 21
53.8959
 31
0.0000
  0
LINE
  5
46F
  8
0
 10
25.9479
 20
53.8959
 30
0.0000
 11
27.1838
 21
50.9120
 31
0.0000
  0
LINE
  5
470
  8
0
 10
27.1838
 20
50.9120
 30
0.0000
 11
28.0779
 21
47.8086
 31
0.0000
  0
LINE
  5
471
  8
0
 10
28.0779
 20
47.8086
 30
0.0000
 11
28.6189
 21
44.6246
 31
0.0000
  0
LINE
  5
472
  8
0
 10
28.6189
 20
44.6246
 30
0.0000
 11
28.8000
 21
41.4000
 31
0.0000
  0
LINE
  5
473
  8
0
 10
-28.8000
 20
41.4000
 30
0.0000
 11
28.8000
 21
41.4000
 31
0.0000
  0
ENDBLK
  8
0
  0
BLOCK
  8
0
  2
SS_socket_duplex_160x90_ELV
 70
0
 10
0.0000
 20
0.0000
 30
0.0000
  3
SS_socket_duplex_160x90_ELV
  1

  0
LINE
  5
474
  8
0
 10
-80.0000
 20
0.0000
 30
0.0000
 11
80.0000
 21
0.0000
 31
0.0000
  0
LINE
  5
475
  8
0
 10
80.0000
 20
0.0000
 30
0.0000
 11
80.0000
 21
90.0000
 31
0.0000
  0
LINE
  5
476
  8
0
 10
80.0000
 20
90.0000
 30
0.0000
 11
-80.0000
 21
90.0000
 31
0.0000
  0
LINE
  5
477
  8
0
 10
-80.0000
 20
90.0000
 30
0.0000
 11
-80.0000
 21
0.0000
 31
0.0000
  0
LINE
  5
478
  8
0
 10
0.0000
 20
0.0000
 30
0.0000
 11
0.0000
 21
41.4000
 31
0.0000
  0
LINE
  5
479
  8
0
 10
-79.1040
 20
41.4000
 30
0.0000
 11
-78.8625
 21
43.8184
 31
0.0000
  0
LINE
  5
47A
  8
0
 10
-78.8625
 20
43.8184
 30
0.0000
 11
-78.1412
 21
46.2065
 31
0.0000
  0
LINE
  5
47B
  8
0
 10
-78.1412
 20
46.2065
 30
0.0000
 11
-76.9491
 21
48.5340
 31
0.0000
  0
LINE
  5
47C
  8
0
 10
-76.9491
 20
48.5340
 30
0.0000
 11
-75.3012
 21
50.7719
 31
0.0000
  0
LINE
  5
47D
  8
0
 10
-75.3012
 20
50.7719
 30
0.0000
 11
-73.2182
 21
52.8919
 31
0.0000
  0
LINE
  5
47E
  8
0
 10
-73.2182
 20
52.8919
 30
0.0000
 11
-70.7263
 21
54.8674
 31
0.0000
  0
LINE
  5
47F
  8
0
 10
-70.7263
 20
54.8674
 30
0.0000
 11
-67.8569
 21
56.6735
 31
0.0000
  0
LINE
  5
480
  8
0
 10
-67.8569
 20
56.6735
 30
0.0000
 11
-64.6460
 21
58.2876
 31
0.0000
  0
LINE
  5
481
  8
0
 10
-64.6460
 20
58.2876
 30
0.0000
 11
-61.1340
 21
59.6892
 31
0.0000
  0
LINE
  5
482
  8
0
 10
-61.1340
 20
59.6892
 30
0.0000
 11
-57.3651
 21
60.8609
 31
0.0000
  0
LINE
  5
483
  8
0
 10
-57.3651
 20
60.8609
 30
0.0000
 11
-53.3867
 21
61.7879
 31
0.0000
  0
LINE
  5
484
  8
0
 10
-53.3867
 20
61.7879
 30
0.0000
 11
-49.2488
 21
62.4584
 31
0.0000
  0
LINE
  5
485
  8
0
 10
-49.2488
 20
62.4584
 30
0.0000
 11
-45.0034
 21
62.8642
 31
0.0000
  0
LINE
  5
486
  8
0
 10
-45.0034
 20
62.8642
 30
0.0000
 11
-40.7040
 21
63.0000
 31
0.0000
  0
LINE
  5
487
  8
0
 10
-40.7040
 20
63.0000
 30
0.0000
 11
-36.4046
 21
62.8642
 31
0.0000
  0
LINE
  5
488
  8
0
 10
-36.4046
 20
62.8642
 30
0.0000
 11
-32.1592
 21
62.4584
 31
0.0000
  0
LINE
  5
489
  8
0
 10
-32.1592
 20
62.4584
 30
0.0000
 11
-28.0213
 21
61.7879
 31
0.0000
  0
LINE
  5
48A
  8
0
 10
-28.0213
 20
61.7879
 30
0.0000
 11
-24.0429
 21
60.8609
 31
0.0000
  0
LINE
  5
48B
  8
0
 10
-24.0429
 20
60.8609
 30
0.0000
 11
-20.2740
 21
59.6892
 31
0.0000
  0
LINE
  5
48C
  8
0
 10
-20.2740
 20
59.6892
 30
0.0000
 11
-16.7620
 21
58.2876
 31
0.0000
  0
LINE
  5
48D
  8
0
 10
-16.7620
 20
58.2876
 30
0.0000
 11
-13.5511
 21
56.6735
 31
0.0000
  0
LINE
  5
48E
  8
0
 10
-13.5511
 20
56.6735
 30
0.0000
 11
-10.6817
 21
54.8674
 31
0.0000
  0
LINE
  5
48F
  8
0
 10
-10.6817
 20
54.8674
 30
0.0000
 11
-8.1898
 21
52.8919
 31
0.0000
  0
LINE
  5
490
  8
0
 10
-8.1898
 20
52.8919
 30
0.0000
 11
-6.1068
 21
50.7719
 31
0.0000
  0
LINE
  5
491
  8
0
 10
-6.1068
 20
50.7719
 30
0.0000
 11
-4.4589
 21
48.5340
 31
0.0000
  0
LINE
  5
492
  8
0
 10
-4.4589
 20
48.5340
 30
0.0000
 11
-3.2668
 21
46.2065
 31
0.0000
  0
LINE
  5
493
  8
0
 10
-3.2668
 20
46.2065
 30
0.0000
 11
-2.5455
 21
43.8184
 31
0.0000
  0
LINE
  5
494
  8
0
 10
-2.5455
 20
43.8184
 30
0.0000
 11
-2.3040
 21
41.4000
 31
0.0000
  0
LINE
  5
495
  8
0
 10
-79.1040
 20
41.4000
 30
0.0000
 11
-2.3040
 21
41.4000
 31
0.0000
  0
LINE
  5
496
  8
0
 10
2.3040
 20
41.4000
 30
0.0000
 11
2.5455
 21
43.8184
 31
0.0000
  0
LINE
  5
497
  8
0
 10
2.5455
 20
43.8184
 30
0.0000
 11
3.2668
 21
46.2065
 31
0.0000
  0
LINE
  5
498
  8
0
 10
3.2668
 20
46.2065
 30
0.0000
 11
4.4589
 21
48.5340
 31
0.0000
  0
LINE
  5
499
  8
0
 10
4.4589
 20
48.5340
 30
0.0000
 11
6.1068
 21
50.7719
 31
0.0000
  0
LINE
  5
49A
  8
0
 10
6.1068
 20
50.7719
 30
0.0000
 11
8.1898
 21
52.8919
 31
0.0000
  0
LINE
  5
49B
  8
0
 10
8.1898
 20
52.8919
 30
0.0000
 11
10.6817
 21
54.8674
 31
0.0000
  0
LINE
  5
49C
  8
0
 10
10.6817
 20
54.8674
 30
0.0000
 11
13.5511
 21
56.6735
 31
0.0000
  0
LINE
  5
49D
  8
0
 10
13.5511
 20
56.6735
 30
0.0000
 11
16.7620
 21
58.2876
 31
0.0000
  0
LINE
  5
49E
  8
0
 10
16.7620
 20
58.2876
 30
0.0000
 11
20.2740
 21
59.6892
 31
0.0000
  0
LINE
  5
49F
  8
0
 10
20.2740
 20
59.6892
 30
0.0000
 11
24.0429
 21
60.8609
 31
0.0000
  0
LINE
  5
4A0
  8
0
 10
24.0429
 20
60.8609
 30
0.0000
 11
28.0213
 21
61.7879
 31
0.0000
  0
LINE
  5
4A1
  8
0
 10
28.0213
 20
61.7879
 30
0.0000
 11
32.1592
 21
62.4584
 31
0.0000
  0
LINE
  5
4A2
  8
0
 10
32.1592
 20
62.4584
 30
0.0000
 11
36.4046
 21
62.8642
 31
0.0000
  0
LINE
  5
4A3
  8
0
 10
36.4046
 20
62.8642
 30
0.0000
 11
40.7040
 21
63.0000
 31
0.0000
  0
LINE
  5
4A4
  8
0
 10
40.7040
 20
63.0000
 30
0.0000
 11
45.0034
 21
62.8642
 31
0.0000
  0
LINE
  5
4A5
  8
0
 10
45.0034
 20
62.8642
 30
0.0000
 11
49.2488
 21
62.4584
 31
0.0000
  0
LINE
  5
4A6
  8
0
 10
49.2488
 20
62.4584
 30
0.0000
 11
53.3867
 21
61.7879
 31
0.0000
  0
LINE
  5
4A7
  8
0
 10
53.3867
 20
61.7879
 30
0.0000
 11
57.3651
 21
60.8609
 31
0.0000
  0
LINE
  5
4A8
  8
0
 10
57.3651
 20
60.8609
 30
0.0000
 11
61.1340
 21
59.6892
 31
0.0000
  0
LINE
  5
4A9
  8
0
 10
61.1340
 20
59.6892
 30
0.0000
 11
64.6460
 21
58.2876
 31
0.0000
  0
LINE
  5
4AA
  8
0
 10
64.6460
 20
58.2876
 30
0.0000
 11
67.8569
 21
56.6735
 31
0.0000
  0
LINE
  5
4AB
  8
0
 10
67.8569
 20
56.6735
 30
0.0000
 11
70.7263
 21
54.8674
 31
0.0000
  0
LINE
  5
4AC
  8
0
 10
70.7263
 20
54.8674
 30
0.0000
 11
73.2182
 21
52.8919
 31
0.0000
  0
LINE
  5
4AD
  8
0
 10
73.2182
 20
52.8919
 30
0.0000
 11
75.3012
 21
50.7719
 31
0.0000
  0
LINE
  5
4AE
  8
0
 10
75.3012
 20
50.7719
 30
0.0000
 11
76.9491
 21
48.5340
 31
0.0000
  0
LINE
  5
4AF
  8
0
 10
76.9491
 20
48.5340
 30
0.0000
 11
78.1412
 21
46.2065
 31
0.0000
  0
LINE
  5
4B0
  8
0
 10
78.1412
 20
46.2065
 30
0.0000
 11
78.8625
 21
43.8184
 31
0.0000
  0
LINE
  5
4B1
  8
0
 10
78.8625
 20
43.8184
 30
0.0000
 11
79.1040
 21
41.4000
 31
0.0000
  0
LINE
  5
4B2
  8
0
 10
2.3040
 20
41.4000
 30
0.0000
 11
79.1040
 21
41.4000
 31
0.0000
  0
ENDBLK
  8
0
  0
BLOCK
  8
0
  2
SS_switch_single_90x90_ELV
 70
0
 10
0.0000
 20
0.0000
 30
0.0000
  3
SS_switch_single_90x90_ELV
  1

  0
LINE
  5
4B3
  8
0
 10
-45.0000
 20
0.0000
 30
0.0000
 11
45.0000
 21
0.0000
 31
0.0000
  0
LINE
  5
4B4
  8
0
 10
45.0000
 20
0.0000
 30
0.0000
 11
45.0000
 21
90.0000
 31
0.0000
  0
LINE
  5
4B5
  8
0
 10
45.0000
 20
90.0000
 30
0.0000
 11
-45.0000
 21
90.0000
 31
0.0000
  0
LINE
  5
4B6
  8
0
 10
-45.0000
 20
90.0000
 30
0.0000
 11
-45.0000
 21
0.0000
 31
0.0000
  0
LINE
  5
4B7
  8
0
 10
0.0000
 20
0.0000
 30
0.0000
 11
0.0000
 21
27.0000
 31
0.0000
  0
ARC
  5
4B8
  8
0
 10
0.0000
 20
27.0000
 30
0.0000
 40
4.5000
 50
0.0000
 51
360.0000
  0
LINE
  5
4B9
  8
0
 10
0.0000
 20
27.0000
 30
0.0000
 11
23.7461
 21
60.9129
 31
0.0000
  0
ENDBLK
  8
0
  0
BLOCK
  8
0
  2
SS_junction_cable_60x60_ELV
 70
0
 10
0.0000
 20
0.0000
 30
0.0000
  3
SS_junction_cable_60x60_ELV
  1

  0
LINE
  5
4BA
  8
0
 10
-30.0000
 20
0.0000
 30
0.0000
 11
30.0000
 21
0.0000
 31
0.0000
  0
LINE
  5
4BB
  8
0
 10
30.0000
 20
0.0000
 30
0.0000
 11
30.0000
 21
60.0000
 31
0.0000
  0
LINE
  5
4BC
  8
0
 10
30.0000
 20
60.0000
 30
0.0000
 11
-30.0000
 21
60.0000
 31
0.0000
  0
LINE
  5
4BD
  8
0
 10
-30.0000
 20
60.0000
 30
0.0000
 11
-30.0000
 21
0.0000
 31
0.0000
  0
LINE
  5
4BE
  8
0
 10
0.0000
 20
0.0000
 30
0.0000
 11
0.0000
 21
46.8000
 31
0.0000
  0
ARC
  5
4BF
  8
0
 10
0.0000
 20
28.8000
 30
0.0000
 40
19.2000
 50
0.0000
 51
360.0000
  0
LINE
  5
4C0
  8
0
 10
0.0000
 20
28.8000
 30
0.0000
 11
-13.2000
 21
42.0000
 31
0.0000
  0
LINE
  5
4C1
  8
0
 10
0.0000
 20
28.8000
 30
0.0000
 11
13.2000
 21
42.0000
 31
0.0000
  0
LINE
  5
4C2
  8
0
 10
0.0000
 20
28.8000
 30
0.0000
 11
-13.2000
 21
15.6000
 31
0.0000
  0
LINE
  5
4C3
  8
0
 10
0.0000
 20
28.8000
 30
0.0000
 11
13.2000
 21
15.6000
 31
0.0000
  0
ENDBLK
  8
0
  0
BLOCK
  8
0
  2
SS_junction_cable_120x120_ELV
 70
0
 10
0.0000
 20
0.0000
 30
0.0000
  3
SS_junction_cable_120x120_ELV
  1

  0
LINE
  5
4C4
  8
0
 10
-60.0000
 20
0.0000
 30
0.0000
 11
60.0000
 21
0.0000
 31
0.0000
  0
LINE
  5
4C5
  8
0
 10
60.0000
 20
0.0000
 30
0.0000
 11
60.0000
 21
120.0000
 31
0.0000
  0
LINE
  5
4C6
  8
0
 10
60.0000
 20
120.0000
 30
0.0000
 11
-60.0000
 21
120.0000
 31
0.0000
  0
LINE
  5
4C7
  8
0
 10
-60.0000
 20
120.0000
 30
0.0000
 11
-60.0000
 21
0.0000
 31
0.0000
  0
LINE
  5
4C8
  8
0
 10
0.0000
 20
0.0000
 30
0.0000
 11
0.0000
 21
93.6000
 31
0.0000
  0
ARC
  5
4C9
  8
0
 10
0.0000
 20
57.6000
 30
0.0000
 40
38.4000
 50
0.0000
 51
360.0000
  0
LINE
  5
4CA
  8
0
 10
0.0000
 20
57.6000
 30
0.0000
 11
-26.4000
 21
84.0000
 31
0.0000
  0
LINE
  5
4CB
  8
0
 10
0.0000
 20
57.6000
 30
0.0000
 11
26.4000
 21
84.0000
 31
0.0000
  0
LINE
  5
4CC
  8
0
 10
0.0000
 20
57.6000
 30
0.0000
 11
-26.4000
 21
31.2000
 31
0.0000
  0
LINE
  5
4CD
  8
0
 10
0.0000
 20
57.6000
 30
0.0000
 11
26.4000
 21
31.2000
 31
0.0000
  0
ENDBLK
  8
0
  0
BLOCK
  8
0
  2
SS_light_downlight_150x150_ELV
 70
0
 10
0.0000
 20
0.0000
 30
0.0000
  3
SS_light_downlight_150x150_ELV
  1

  0
LINE
  5
4CE
  8
0
 10
-75.0000
 20
0.0000
 30
0.0000
 11
75.0000
 21
0.0000
 31
0.0000
  0
LINE
  5
4CF
  8
0
 10
75.0000
 20
0.0000
 30
0.0000
 11
75.0000
 21
150.0000
 31
0.0000
  0
LINE
  5
4D0
  8
0
 10
75.0000
 20
150.0000
 30
0.0000
 11
-75.0000
 21
150.0000
 31
0.0000
  0
LINE
  5
4D1
  8
0
 10
-75.0000
 20
150.0000
 30
0.0000
 11
-75.0000
 21
0.0000
 31
0.0000
  0
ARC
  5
4D2
  8
0
 10
0.0000
 20
75.0000
 30
0.0000
 40
45.0000
 50
0.0000
 51
360.0000
  0
LINE
  5
4D3
  8
0
 10
-31.5000
 20
106.5000
 30
0.0000
 11
31.5000
 21
43.5000
 31
0.0000
  0
LINE
  5
4D4
  8
0
 10
31.5000
 20
106.5000
 30
0.0000
 11
-31.5000
 21
43.5000
 31
0.0000
  0
ENDBLK
  8
0
  0
BLOCK
  8
0
  2
SS_water_point_60x60_ELV
 70
0
 10
0.0000
 20
0.0000
 30
0.0000
  3
SS_water_point_60x60_ELV
  1

  0
LINE
  5
4D5
  8
0
 10
-30.0000
 20
0.0000
 30
0.0000
 11
30.0000
 21
0.0000
 31
0.0000
  0
LINE
  5
4D6
  8
0
 10
30.0000
 20
0.0000
 30
0.0000
 11
30.0000
 21
60.0000
 31
0.0000
  0
LINE
  5
4D7
  8
0
 10
30.0000
 20
60.0000
 30
0.0000
 11
-30.0000
 21
60.0000
 31
0.0000
  0
LINE
  5
4D8
  8
0
 10
-30.0000
 20
60.0000
 30
0.0000
 11
-30.0000
 21
0.0000
 31
0.0000
  0
LINE
  5
4D9
  8
0
 10
0.0000
 20
0.0000
 30
0.0000
 11
0.0000
 21
13.8000
 31
0.0000
  0
ARC
  5
4DA
  8
0
 10
0.0000
 20
30.0000
 30
0.0000
 40
16.8000
 50
0.0000
 51
360.0000
  0
LINE
  5
4DB
  8
0
 10
-14.4000
 20
30.0000
 30
0.0000
 11
14.4000
 21
30.0000
 31
0.0000
  0
LINE
  5
4DC
  8
0
 10
0.0000
 20
44.4000
 30
0.0000
 11
0.0000
 21
15.6000
 31
0.0000
  0
ENDBLK
  8
0
  0
BLOCK
  8
0
  2
SS_gas_point_60x60_ELV
 70
0
 10
0.0000
 20
0.0000
 30
0.0000
  3
SS_gas_point_60x60_ELV
  1

  0
LINE
  5
4DD
  8
0
 10
-30.0000
 20
0.0000
 30
0.0000
 11
30.0000
 21
0.0000
 31
0.0000
  0
LINE
  5
4DE
  8
0
 10
30.0000
 20
0.0000
 30
0.0000
 11
30.0000
 21
60.0000
 31
0.0000
  0
LINE
  5
4DF
  8
0
 10
30.0000
 20
60.0000
 30
0.0000
 11
-30.0000
 21
60.0000
 31
0.0000
  0
LINE
  5
4E0
  8
0
 10
-30.0000
 20
60.0000
 30
0.0000
 11
-30.0000
 21
0.0000
 31
0.0000
  0
LINE
  5
4E1
  8
0
 10
0.0000
 20
0.0000
 30
0.0000
 11
0.0000
 21
12.0000
 31
0.0000
  0
LINE
  5
4E2
  8
0
 10
0.0000
 20
48.0000
 30
0.0000
 11
15.6000
 21
39.0000
 31
0.0000
  0
LINE
  5
4E3
  8
0
 10
15.6000
 20
39.0000
 30
0.0000
 11
15.6000
 21
21.0000
 31
0.0000
  0
LINE
  5
4E4
  8
0
 10
15.6000
 20
21.0000
 30
0.0000
 11
0.0000
 21
12.0000
 31
0.0000
  0
LINE
  5
4E5
  8
0
 10
0.0000
 20
12.0000
 30
0.0000
 11
-15.6000
 21
21.0000
 31
0.0000
  0
LINE
  5
4E6
  8
0
 10
-15.6000
 20
21.0000
 30
0.0000
 11
-15.6000
 21
39.0000
 31
0.0000
  0
LINE
  5
4E7
  8
0
 10
-15.6000
 20
39.0000
 30
0.0000
 11
0.0000
 21
48.0000
 31
0.0000
  0
TEXT
  5
4E8
  8
0
 10
0.0000
 20
30.0000
 30
0.0000
 40
24.0000
  1
G
 50
0.0000
  7
SOLINE
 72
1
 73
2
 11
0.0000
 21
30.0000
 31
0.0000
  0
ENDBLK
  8
0
  0
BLOCK
  8
0
  2
SS_water_point_50x50_ELV
 70
0
 10
0.0000
 20
0.0000
 30
0.0000
  3
SS_water_point_50x50_ELV
  1

  0
LINE
  5
4E9
  8
0
 10
-25.0000
 20
0.0000
 30
0.0000
 11
25.0000
 21
0.0000
 31
0.0000
  0
LINE
  5
4EA
  8
0
 10
25.0000
 20
0.0000
 30
0.0000
 11
25.0000
 21
50.0000
 31
0.0000
  0
LINE
  5
4EB
  8
0
 10
25.0000
 20
50.0000
 30
0.0000
 11
-25.0000
 21
50.0000
 31
0.0000
  0
LINE
  5
4EC
  8
0
 10
-25.0000
 20
50.0000
 30
0.0000
 11
-25.0000
 21
0.0000
 31
0.0000
  0
LINE
  5
4ED
  8
0
 10
0.0000
 20
0.0000
 30
0.0000
 11
0.0000
 21
11.5000
 31
0.0000
  0
ARC
  5
4EE
  8
0
 10
0.0000
 20
25.0000
 30
0.0000
 40
14.0000
 50
0.0000
 51
360.0000
  0
LINE
  5
4EF
  8
0
 10
-12.0000
 20
25.0000
 30
0.0000
 11
12.0000
 21
25.0000
 31
0.0000
  0
LINE
  5
4F0
  8
0
 10
0.0000
 20
37.0000
 30
0.0000
 11
0.0000
 21
13.0000
 31
0.0000
  0
ENDBLK
  8
0
  0
BLOCK
  8
0
  2
SS_sewage_point_100x100_ELV
 70
0
 10
0.0000
 20
0.0000
 30
0.0000
  3
SS_sewage_point_100x100_ELV
  1

  0
LINE
  5
4F1
  8
0
 10
-50.0000
 20
0.0000
 30
0.0000
 11
50.0000
 21
0.0000
 31
0.0000
  0
LINE
  5
4F2
  8
0
 10
50.0000
 20
0.0000
 30
0.0000
 11
50.0000
 21
100.0000
 31
0.0000
  0
LINE
  5
4F3
  8
0
 10
50.0000
 20
100.0000
 30
0.0000
 11
-50.0000
 21
100.0000
 31
0.0000
  0
LINE
  5
4F4
  8
0
 10
-50.0000
 20
100.0000
 30
0.0000
 11
-50.0000
 21
0.0000
 31
0.0000
  0
LINE
  5
4F5
  8
0
 10
0.0000
 20
0.0000
 30
0.0000
 11
0.0000
 21
78.0000
 31
0.0000
  0
ARC
  5
4F6
  8
0
 10
0.0000
 20
50.0000
 30
0.0000
 40
30.0000
 50
0.0000
 51
360.0000
  0
LINE
  5
4F7
  8
0
 10
-18.0000
 20
44.0000
 30
0.0000
 11
-8.0000
 21
56.0000
 31
0.0000
  0
LINE
  5
4F8
  8
0
 10
-8.0000
 20
56.0000
 30
0.0000
 11
0.0000
 21
44.0000
 31
0.0000
  0
LINE
  5
4F9
  8
0
 10
0.0000
 20
44.0000
 30
0.0000
 11
8.0000
 21
56.0000
 31
0.0000
  0
LINE
  5
4FA
  8
0
 10
8.0000
 20
56.0000
 30
0.0000
 11
18.0000
 21
44.0000
 31
0.0000
  0
ENDBLK
  8
0
  0
BLOCK
  8
0
  2
SS_beam_200x2600_ELV
 70
0
 10
0.0000
 20
0.0000
 30
0.0000
  3
SS_beam_200x2600_ELV
  1

  0
LINE
  5
4FB
  8
0
 10
-100.0000
 20
0.0000
 30
0.0000
 11
100.0000
 21
0.0000
 31
0.0000
  0
LINE
  5
4FC
  8
0
 10
100.0000
 20
0.0000
 30
0.0000
 11
100.0000
 21
2600.0000
 31
0.0000
  0
LINE
  5
4FD
  8
0
 10
100.0000
 20
2600.0000
 30
0.0000
 11
-100.0000
 21
2600.0000
 31
0.0000
  0
LINE
  5
4FE
  8
0
 10
-100.0000
 20
2600.0000
 30
0.0000
 11
-100.0000
 21
0.0000
 31
0.0000
  0
LINE
  5
4FF
  8
0
 10
-100.0000
 20
1612.0000
 30
0.0000
 11
100.0000
 21
1612.0000
 31
0.0000
  0
LINE
  5
500
  8
0
 10
100.0000
 20
1612.0000
 30
0.0000
 11
100.0000
 21
988.0000
 31
0.0000
  0
LINE
  5
501
  8
0
 10
100.0000
 20
988.0000
 30
0.0000
 11
-100.0000
 21
988.0000
 31
0.0000
  0
LINE
  5
502
  8
0
 10
-100.0000
 20
988.0000
 30
0.0000
 11
-100.0000
 21
1612.0000
 31
0.0000
  0
ENDBLK
  8
0
  0
BLOCK
  8
0
  2
SS_window_1000x1200_ELV
 70
0
 10
0.0000
 20
0.0000
 30
0.0000
  3
SS_window_1000x1200_ELV
  1

  0
LINE
  5
503
  8
0
 10
-500.0000
 20
0.0000
 30
0.0000
 11
500.0000
 21
0.0000
 31
0.0000
  0
LINE
  5
504
  8
0
 10
500.0000
 20
0.0000
 30
0.0000
 11
500.0000
 21
1200.0000
 31
0.0000
  0
LINE
  5
505
  8
0
 10
500.0000
 20
1200.0000
 30
0.0000
 11
-500.0000
 21
1200.0000
 31
0.0000
  0
LINE
  5
506
  8
0
 10
-500.0000
 20
1200.0000
 30
0.0000
 11
-500.0000
 21
0.0000
 31
0.0000
  0
LINE
  5
507
  8
0
 10
-500.0000
 20
768.0000
 30
0.0000
 11
500.0000
 21
768.0000
 31
0.0000
  0
LINE
  5
508
  8
0
 10
500.0000
 20
768.0000
 30
0.0000
 11
500.0000
 21
432.0000
 31
0.0000
  0
LINE
  5
509
  8
0
 10
500.0000
 20
432.0000
 30
0.0000
 11
-500.0000
 21
432.0000
 31
0.0000
  0
LINE
  5
50A
  8
0
 10
-500.0000
 20
432.0000
 30
0.0000
 11
-500.0000
 21
768.0000
 31
0.0000
  0
LINE
  5
50B
  8
0
 10
-500.0000
 20
653.7600
 30
0.0000
 11
500.0000
 21
653.7600
 31
0.0000
  0
LINE
  5
50C
  8
0
 10
-500.0000
 20
546.2400
 30
0.0000
 11
500.0000
 21
546.2400
 31
0.0000
  0
ENDBLK
  8
0
  0
BLOCK
  8
0
  2
SS_passage_900x2050_ELV
 70
0
 10
0.0000
 20
0.0000
 30
0.0000
  3
SS_passage_900x2050_ELV
  1

  0
LINE
  5
50D
  8
0
 10
-450.0000
 20
0.0000
 30
0.0000
 11
450.0000
 21
0.0000
 31
0.0000
  0
LINE
  5
50E
  8
0
 10
450.0000
 20
0.0000
 30
0.0000
 11
450.0000
 21
2050.0000
 31
0.0000
  0
LINE
  5
50F
  8
0
 10
450.0000
 20
2050.0000
 30
0.0000
 11
-450.0000
 21
2050.0000
 31
0.0000
  0
LINE
  5
510
  8
0
 10
-450.0000
 20
2050.0000
 30
0.0000
 11
-450.0000
 21
0.0000
 31
0.0000
  0
LINE
  5
511
  8
0
 10
-414.0000
 20
0.0000
 30
0.0000
 11
-414.0000
 21
615.0000
 31
0.0000
  0
LINE
  5
512
  8
0
 10
414.0000
 20
0.0000
 30
0.0000
 11
414.0000
 21
615.0000
 31
0.0000
  0
ENDBLK
  8
0
  0
BLOCK
  8
0
  2
SS_door_frame_900x2100_ELV
 70
0
 10
0.0000
 20
0.0000
 30
0.0000
  3
SS_door_frame_900x2100_ELV
  1

  0
LINE
  5
513
  8
0
 10
-450.0000
 20
0.0000
 30
0.0000
 11
450.0000
 21
0.0000
 31
0.0000
  0
LINE
  5
514
  8
0
 10
450.0000
 20
0.0000
 30
0.0000
 11
450.0000
 21
2100.0000
 31
0.0000
  0
LINE
  5
515
  8
0
 10
450.0000
 20
2100.0000
 30
0.0000
 11
-450.0000
 21
2100.0000
 31
0.0000
  0
LINE
  5
516
  8
0
 10
-450.0000
 20
2100.0000
 30
0.0000
 11
-450.0000
 21
0.0000
 31
0.0000
  0
LINE
  5
517
  8
0
 10
-423.0000
 20
0.0000
 30
0.0000
 11
-423.0000
 21
294.0000
 31
0.0000
  0
LINE
  5
518
  8
0
 10
423.0000
 20
0.0000
 30
0.0000
 11
423.0000
 21
294.0000
 31
0.0000
  0
LINE
  5
519
  8
0
 10
-423.0000
 20
294.0000
 30
0.0000
 11
423.0000
 21
294.0000
 31
0.0000
  0
ENDBLK
  8
0
  0
BLOCK
  8
0
  2
SS_beam_1000x600_ELV
 70
0
 10
0.0000
 20
0.0000
 30
0.0000
  3
SS_beam_1000x600_ELV
  1

  0
LINE
  5
51A
  8
0
 10
-500.0000
 20
0.0000
 30
0.0000
 11
500.0000
 21
0.0000
 31
0.0000
  0
LINE
  5
51B
  8
0
 10
500.0000
 20
0.0000
 30
0.0000
 11
500.0000
 21
600.0000
 31
0.0000
  0
LINE
  5
51C
  8
0
 10
500.0000
 20
600.0000
 30
0.0000
 11
-500.0000
 21
600.0000
 31
0.0000
  0
LINE
  5
51D
  8
0
 10
-500.0000
 20
600.0000
 30
0.0000
 11
-500.0000
 21
0.0000
 31
0.0000
  0
LINE
  5
51E
  8
0
 10
-500.0000
 20
372.0000
 30
0.0000
 11
500.0000
 21
372.0000
 31
0.0000
  0
LINE
  5
51F
  8
0
 10
500.0000
 20
372.0000
 30
0.0000
 11
500.0000
 21
228.0000
 31
0.0000
  0
LINE
  5
520
  8
0
 10
500.0000
 20
228.0000
 30
0.0000
 11
-500.0000
 21
228.0000
 31
0.0000
  0
LINE
  5
521
  8
0
 10
-500.0000
 20
228.0000
 30
0.0000
 11
-500.0000
 21
372.0000
 31
0.0000
  0
ENDBLK
  8
0
  0
BLOCK
  8
0
  2
SS_concealment_panel_600x50_ELV
 70
0
 10
0.0000
 20
0.0000
 30
0.0000
  3
SS_concealment_panel_600x50_ELV
  1

  0
LINE
  5
522
  8
0
 10
-300.0000
 20
0.0000
 30
0.0000
 11
300.0000
 21
0.0000
 31
0.0000
  0
LINE
  5
523
  8
0
 10
300.0000
 20
0.0000
 30
0.0000
 11
300.0000
 21
50.0000
 31
0.0000
  0
LINE
  5
524
  8
0
 10
300.0000
 20
50.0000
 30
0.0000
 11
-300.0000
 21
50.0000
 31
0.0000
  0
LINE
  5
525
  8
0
 10
-300.0000
 20
50.0000
 30
0.0000
 11
-300.0000
 21
0.0000
 31
0.0000
  0
LINE
  5
526
  8
0
 10
-216.0000
 20
43.0000
 30
0.0000
 11
216.0000
 21
43.0000
 31
0.0000
  0
LINE
  5
527
  8
0
 10
216.0000
 20
43.0000
 30
0.0000
 11
216.0000
 21
7.0000
 31
0.0000
  0
LINE
  5
528
  8
0
 10
216.0000
 20
7.0000
 30
0.0000
 11
-216.0000
 21
7.0000
 31
0.0000
  0
LINE
  5
529
  8
0
 10
-216.0000
 20
7.0000
 30
0.0000
 11
-216.0000
 21
43.0000
 31
0.0000
  0
LINE
  5
52A
  8
0
 10
180.0000
 20
28.0000
 30
0.0000
 11
216.0000
 21
25.0000
 31
0.0000
  0
LINE
  5
52B
  8
0
 10
216.0000
 20
25.0000
 30
0.0000
 11
180.0000
 21
22.0000
 31
0.0000
  0
ENDBLK
  8
0
  0
ENDSEC
  0
SECTION
  2
ENTITIES
  0
SOLID
  5
100
  8
קירות-מילוי
 10
1318.7500
 20
-43.7500
 30
0.0000
 11
5518.7500
 21
-43.7500
 31
0.0000
 12
1418.7500
 22
-143.7500
 32
0.0000
 13
5418.7500
 23
-143.7500
 33
0.0000
  0
LINE
  5
101
  8
קירות
 10
1318.7500
 20
-43.7500
 30
0.0000
 11
5518.7500
 21
-43.7500
 31
0.0000
  0
LINE
  5
102
  8
קירות
 10
1418.7500
 20
-143.7500
 30
0.0000
 11
5418.7500
 21
-143.7500
 31
0.0000
  0
SOLID
  5
103
  8
קירות-מילוי
 10
5518.7500
 20
-43.7500
 30
0.0000
 11
5518.7500
 21
-3243.7500
 31
0.0000
 12
5418.7500
 22
-143.7500
 32
0.0000
 13
5418.7500
 23
-3143.7500
 33
0.0000
  0
LINE
  5
104
  8
קירות
 10
5518.7500
 20
-43.7500
 30
0.0000
 11
5518.7500
 21
-3243.7500
 31
0.0000
  0
LINE
  5
105
  8
קירות
 10
5418.7500
 20
-143.7500
 30
0.0000
 11
5418.7500
 21
-3143.7500
 31
0.0000
  0
SOLID
  5
106
  8
קירות-מילוי
 10
5518.7500
 20
-3243.7500
 30
0.0000
 11
4918.7500
 21
-3243.7500
 31
0.0000
 12
5418.7500
 22
-3143.7500
 32
0.0000
 13
4918.7500
 23
-3143.7500
 33
0.0000
  0
LINE
  5
107
  8
קירות
 10
5518.7500
 20
-3243.7500
 30
0.0000
 11
4918.7500
 21
-3243.7500
 31
0.0000
  0
LINE
  5
108
  8
קירות
 10
5418.7500
 20
-3143.7500
 30
0.0000
 11
4918.7500
 21
-3143.7500
 31
0.0000
  0
SOLID
  5
109
  8
קירות-מילוי
 10
2568.7500
 20
-3243.7500
 30
0.0000
 11
1318.7500
 21
-3243.7500
 31
0.0000
 12
2568.7500
 22
-3143.7500
 32
0.0000
 13
1418.7500
 23
-3143.7500
 33
0.0000
  0
LINE
  5
10A
  8
קירות
 10
2568.7500
 20
-3243.7500
 30
0.0000
 11
1318.7500
 21
-3243.7500
 31
0.0000
  0
LINE
  5
10B
  8
קירות
 10
2568.7500
 20
-3143.7500
 30
0.0000
 11
1418.7500
 21
-3143.7500
 31
0.0000
  0
LINE
  5
10C
  8
קירות
 10
4918.7500
 20
-3143.7500
 30
0.0000
 11
4918.7500
 21
-3243.7500
 31
0.0000
  0
LINE
  5
10D
  8
קירות
 10
2568.7500
 20
-3143.7500
 30
0.0000
 11
2568.7500
 21
-3243.7500
 31
0.0000
  0
SOLID
  5
10E
  8
קירות-מילוי
 10
1318.7500
 20
-3243.7500
 30
0.0000
 11
1318.7500
 21
-43.7500
 31
0.0000
 12
1418.7500
 22
-3143.7500
 32
0.0000
 13
1418.7500
 23
-143.7500
 33
0.0000
  0
LINE
  5
10F
  8
קירות
 10
1318.7500
 20
-3243.7500
 30
0.0000
 11
1318.7500
 21
-43.7500
 31
0.0000
  0
LINE
  5
110
  8
קירות
 10
1418.7500
 20
-3143.7500
 30
0.0000
 11
1418.7500
 21
-143.7500
 31
0.0000
  0
LINE
  5
111
  8
חלונות
 10
4918.7500
 20
-3093.7500
 30
0.0000
 11
3918.7500
 21
-3093.7500
 31
0.0000
  0
LINE
  5
112
  8
חלונות
 10
3918.7500
 20
-3093.7500
 30
0.0000
 11
3918.7500
 21
-3193.7500
 31
0.0000
  0
LINE
  5
113
  8
חלונות
 10
3918.7500
 20
-3193.7500
 30
0.0000
 11
4918.7500
 21
-3193.7500
 31
0.0000
  0
LINE
  5
114
  8
חלונות
 10
4918.7500
 20
-3193.7500
 30
0.0000
 11
4918.7500
 21
-3093.7500
 31
0.0000
  0
LINE
  5
115
  8
חלונות
 10
4868.7500
 20
-3093.7500
 30
0.0000
 11
4868.7500
 21
-3193.7500
 31
0.0000
  0
LINE
  5
116
  8
חלונות
 10
3968.7500
 20
-3093.7500
 30
0.0000
 11
3968.7500
 21
-3193.7500
 31
0.0000
  0
LINE
  5
117
  8
חלונות
 10
4868.7500
 20
-3143.7500
 30
0.0000
 11
3968.7500
 21
-3143.7500
 31
0.0000
  0
LINE
  5
118
  8
חלונות
 10
4868.7500
 20
-3143.7500
 30
0.0000
 11
3968.7500
 21
-3143.7500
 31
0.0000
  0
LINE
  5
119
  8
חלונות
 10
4868.7500
 20
-3143.7500
 30
0.0000
 11
3968.7500
 21
-3143.7500
 31
0.0000
  0
TEXT
  5
11A
  8
חלונות-טקסט
 10
4418.7500
 20
-3368.7500
 30
0.0000
 40
125.0000
  1
W1
 50
0.0000
  7
SOLINE
 72
1
 73
2
 11
4418.7500
 21
-3368.7500
 31
0.0000
  0
LINE
  5
11B
  8
דלתות
 10
4168.7500
 20
-3093.7500
 30
0.0000
 11
3268.7500
 21
-3093.7500
 31
0.0000
  0
LINE
  5
11C
  8
דלתות
 10
3268.7500
 20
-3093.7500
 30
0.0000
 11
3268.7500
 21
-3193.7500
 31
0.0000
  0
LINE
  5
11D
  8
דלתות
 10
3268.7500
 20
-3193.7500
 30
0.0000
 11
4168.7500
 21
-3193.7500
 31
0.0000
  0
LINE
  5
11E
  8
דלתות
 10
4168.7500
 20
-3193.7500
 30
0.0000
 11
4168.7500
 21
-3093.7500
 31
0.0000
  0
LINE
  5
11F
  8
דלתות
 10
4128.7500
 20
-3093.7500
 30
0.0000
 11
4128.7500
 21
-3193.7500
 31
0.0000
  0
LINE
  5
120
  8
דלתות
 10
3308.7500
 20
-3093.7500
 30
0.0000
 11
3308.7500
 21
-3193.7500
 31
0.0000
  0
LINE
  5
121
  8
דלתות
 10
4128.7500
 20
-3143.7500
 30
0.0000
 11
3308.7500
 21
-3143.7500
 31
0.0000
  0
LINE
  5
122
  8
דלתות
 10
4128.7500
 20
-3143.7500
 30
0.0000
 11
4128.7500
 21
-2323.7500
 31
0.0000
  0
ARC
  5
123
  8
דלתות
 10
4128.7500
 20
-3143.7500
 30
0.0000
 40
820.0000
 50
90.0000
 51
180.0000
  0
TEXT
  5
124
  8
דלתות-טקסט
 10
3718.7500
 20
-3368.7500
 30
0.0000
 40
125.0000
  1
D1
 50
0.0000
  7
SOLINE
 72
1
 73
2
 11
3718.7500
 21
-3368.7500
 31
0.0000
  0
LINE
  5
125
  8
דלתות
 10
3468.7500
 20
-3093.7500
 30
0.0000
 11
2568.7500
 21
-3093.7500
 31
0.0000
  0
LINE
  5
126
  8
דלתות
 10
2568.7500
 20
-3093.7500
 30
0.0000
 11
2568.7500
 21
-3193.7500
 31
0.0000
  0
LINE
  5
127
  8
דלתות
 10
2568.7500
 20
-3193.7500
 30
0.0000
 11
3468.7500
 21
-3193.7500
 31
0.0000
  0
LINE
  5
128
  8
דלתות
 10
3468.7500
 20
-3193.7500
 30
0.0000
 11
3468.7500
 21
-3093.7500
 31
0.0000
  0
LINE
  5
129
  8
דלתות
 10
3428.7500
 20
-3093.7500
 30
0.0000
 11
3428.7500
 21
-3193.7500
 31
0.0000
  0
LINE
  5
12A
  8
דלתות
 10
2608.7500
 20
-3093.7500
 30
0.0000
 11
2608.7500
 21
-3193.7500
 31
0.0000
  0
LINE
  5
12B
  8
דלתות
 10
3428.7500
 20
-3143.7500
 30
0.0000
 11
2608.7500
 21
-3143.7500
 31
0.0000
  0
TEXT
  5
12C
  8
דלתות-טקסט
 10
3018.7500
 20
-3368.7500
 30
0.0000
 40
125.0000
  1
D2
 50
0.0000
  7
SOLINE
 72
1
 73
2
 11
3018.7500
 21
-3368.7500
 31
0.0000
  0
INSERT
  5
12D
  8
חשמל
  2
SS_socket_single_90x90
 10
1763.7500
 20
-143.7500
 30
0.0000
 41
1.0000
 42
1.0000
 43
1.0000
 50
0.0000
  0
INSERT
  5
12E
  8
חשמל
  2
SS_socket_duplex_160x90
 10
2498.7500
 20
-143.7500
 30
0.0000
 41
1.0000
 42
1.0000
 43
1.0000
 50
0.0000
  0
INSERT
  5
12F
  8
חשמל
  2
SS_switch_single_90x90
 10
3163.7500
 20
-143.7500
 30
0.0000
 41
1.0000
 42
1.0000
 43
1.0000
 50
0.0000
  0
INSERT
  5
130
  8
חשמל
  2
SS_junction_cable_60x60
 10
3848.7500
 20
-143.7500
 30
0.0000
 41
1.0000
 42
1.0000
 43
1.0000
 50
0.0000
  0
INSERT
  5
131
  8
חשמל
  2
SS_junction_cable_60x60
 10
4548.7500
 20
-143.7500
 30
0.0000
 41
1.0000
 42
1.0000
 43
1.0000
 50
0.0000
  0
INSERT
  5
132
  8
חשמל
  2
SS_junction_cable_120x120
 10
5418.7500
 20
-503.7500
 30
0.0000
 41
1.0000
 42
1.0000
 43
1.0000
 50
270.0000
  0
INSERT
  5
133
  8
תאורה
  2
SS_light_downlight_150x150
 10
5418.7500
 20
-1218.7500
 30
0.0000
 41
1.0000
 42
1.0000
 43
1.0000
 50
270.0000
  0
INSERT
  5
134
  8
מים
  2
SS_water_point_60x60
 10
5418.7500
 20
-1873.7500
 30
0.0000
 41
1.0000
 42
1.0000
 43
1.0000
 50
270.0000
  0
INSERT
  5
135
  8
גז
  2
SS_gas_point_60x60
 10
5418.7500
 20
-2573.7500
 30
0.0000
 41
1.0000
 42
1.0000
 43
1.0000
 50
270.0000
  0
INSERT
  5
136
  8
מים
  2
SS_water_point_50x50
 10
5418.7500
 20
-3268.7500
 30
0.0000
 41
1.0000
 42
1.0000
 43
1.0000
 50
270.0000
  0
INSERT
  5
137
  8
ניקוז
  2
SS_sewage_point_100x100
 10
5068.7500
 20
-3143.7500
 30
0.0000
 41
1.0000
 42
1.0000
 43
1.0000
 50
180.0000
  0
INSERT
  5
138
  8
מבנה
  2
SS_beam_200x2600
 10
2318.7500
 20
-3143.7500
 30
0.0000
 41
1.0000
 42
1.0000
 43
1.0000
 50
180.0000
  0
INSERT
  5
139
  8
מבנה
  2
SS_beam_1000x600
 10
1418.7500
 20
-2843.7500
 30
0.0000
 41
1.0000
 42
1.0000
 43
1.0000
 50
90.0000
  0
INSERT
  5
13A
  8
מבנה
  2
SS_concealment_panel_600x50
 10
1418.7500
 20
-1843.7500
 30
0.0000
 41
1.0000
 42
1.0000
 43
1.0000
 50
90.0000
  0
LINE
  5
13B
  8
מידות-פנים
 10
5418.7500
 20
-3183.7500
 30
0.0000
 11
5418.7500
 21
-3697.7500
 31
0.0000
  0
LINE
  5
13C
  8
מידות-פנים
 10
4918.7500
 20
-3183.7500
 30
0.0000
 11
4918.7500
 21
-3697.7500
 31
0.0000
  0
LINE
  5
13D
  8
מידות-פנים
 10
5418.7500
 20
-3643.7500
 30
0.0000
 11
4918.7500
 21
-3643.7500
 31
0.0000
  0
SOLID
  5
13E
  8
מידות-פנים
 10
5418.7500
 20
-3643.7500
 30
0.0000
 11
5522.2500
 21
-3672.5500
 31
0.0000
 12
5522.2500
 22
-3614.9500
 32
0.0000
 13
5522.2500
 23
-3614.9500
 33
0.0000
  0
SOLID
  5
13F
  8
מידות-פנים
 10
4918.7500
 20
-3643.7500
 30
0.0000
 11
4815.2500
 21
-3672.5500
 31
0.0000
 12
4815.2500
 22
-3614.9500
 32
0.0000
 13
4815.2500
 23
-3614.9500
 33
0.0000
  0
TEXT
  5
140
  8
מידות-פנים
 10
5168.7500
 20
-3729.2500
 30
0.0000
 40
90.0000
  1
50
 50
360.0000
  7
SOLINE
 72
1
 73
2
 11
5168.7500
 21
-3729.2500
 31
0.0000
  0
LINE
  5
141
  8
מידות-פנים
 10
4918.7500
 20
-3183.7500
 30
0.0000
 11
4918.7500
 21
-3697.7500
 31
0.0000
  0
LINE
  5
142
  8
מידות-פנים
 10
4168.7500
 20
-3183.7500
 30
0.0000
 11
4168.7500
 21
-3697.7500
 31
0.0000
  0
LINE
  5
143
  8
מידות-פנים
 10
4918.7500
 20
-3643.7500
 30
0.0000
 11
4168.7500
 21
-3643.7500
 31
0.0000
  0
SOLID
  5
144
  8
מידות-פנים
 10
4918.7500
 20
-3643.7500
 30
0.0000
 11
5022.2500
 21
-3672.5500
 31
0.0000
 12
5022.2500
 22
-3614.9500
 32
0.0000
 13
5022.2500
 23
-3614.9500
 33
0.0000
  0
SOLID
  5
145
  8
מידות-פנים
 10
4168.7500
 20
-3643.7500
 30
0.0000
 11
4065.2500
 21
-3672.5500
 31
0.0000
 12
4065.2500
 22
-3614.9500
 32
0.0000
 13
4065.2500
 23
-3614.9500
 33
0.0000
  0
TEXT
  5
146
  8
מידות-פנים
 10
4543.7500
 20
-3729.2500
 30
0.0000
 40
90.0000
  1
75
 50
360.0000
  7
SOLINE
 72
1
 73
2
 11
4543.7500
 21
-3729.2500
 31
0.0000
  0
LINE
  5
147
  8
מידות-פנים
 10
4168.7500
 20
-3183.7500
 30
0.0000
 11
4168.7500
 21
-3697.7500
 31
0.0000
  0
LINE
  5
148
  8
מידות-פנים
 10
3918.7500
 20
-3183.7500
 30
0.0000
 11
3918.7500
 21
-3697.7500
 31
0.0000
  0
LINE
  5
149
  8
מידות-פנים
 10
4168.7500
 20
-3643.7500
 30
0.0000
 11
3918.7500
 21
-3643.7500
 31
0.0000
  0
SOLID
  5
14A
  8
מידות-פנים
 10
4168.7500
 20
-3643.7500
 30
0.0000
 11
4272.2500
 21
-3672.5500
 31
0.0000
 12
4272.2500
 22
-3614.9500
 32
0.0000
 13
4272.2500
 23
-3614.9500
 33
0.0000
  0
SOLID
  5
14B
  8
מידות-פנים
 10
3918.7500
 20
-3643.7500
 30
0.0000
 11
3815.2500
 21
-3672.5500
 31
0.0000
 12
3815.2500
 22
-3614.9500
 32
0.0000
 13
3815.2500
 23
-3614.9500
 33
0.0000
  0
TEXT
  5
14C
  8
מידות-פנים
 10
4043.7500
 20
-3729.2500
 30
0.0000
 40
90.0000
  1
25
 50
360.0000
  7
SOLINE
 72
1
 73
2
 11
4043.7500
 21
-3729.2500
 31
0.0000
  0
LINE
  5
14D
  8
מידות-פנים
 10
3918.7500
 20
-3183.7500
 30
0.0000
 11
3918.7500
 21
-3697.7500
 31
0.0000
  0
LINE
  5
14E
  8
מידות-פנים
 10
3468.7500
 20
-3183.7500
 30
0.0000
 11
3468.7500
 21
-3697.7500
 31
0.0000
  0
LINE
  5
14F
  8
מידות-פנים
 10
3918.7500
 20
-3643.7500
 30
0.0000
 11
3468.7500
 21
-3643.7500
 31
0.0000
  0
SOLID
  5
150
  8
מידות-פנים
 10
3918.7500
 20
-3643.7500
 30
0.0000
 11
4022.2500
 21
-3672.5500
 31
0.0000
 12
4022.2500
 22
-3614.9500
 32
0.0000
 13
4022.2500
 23
-3614.9500
 33
0.0000
  0
SOLID
  5
151
  8
מידות-פנים
 10
3468.7500
 20
-3643.7500
 30
0.0000
 11
3365.2500
 21
-3672.5500
 31
0.0000
 12
3365.2500
 22
-3614.9500
 32
0.0000
 13
3365.2500
 23
-3614.9500
 33
0.0000
  0
TEXT
  5
152
  8
מידות-פנים
 10
3693.7500
 20
-3729.2500
 30
0.0000
 40
90.0000
  1
45
 50
360.0000
  7
SOLINE
 72
1
 73
2
 11
3693.7500
 21
-3729.2500
 31
0.0000
  0
LINE
  5
153
  8
מידות-פנים
 10
3468.7500
 20
-3183.7500
 30
0.0000
 11
3468.7500
 21
-3697.7500
 31
0.0000
  0
LINE
  5
154
  8
מידות-פנים
 10
3268.7500
 20
-3183.7500
 30
0.0000
 11
3268.7500
 21
-3697.7500
 31
0.0000
  0
LINE
  5
155
  8
מידות-פנים
 10
3468.7500
 20
-3643.7500
 30
0.0000
 11
3268.7500
 21
-3643.7500
 31
0.0000
  0
SOLID
  5
156
  8
מידות-פנים
 10
3468.7500
 20
-3643.7500
 30
0.0000
 11
3572.2500
 21
-3672.5500
 31
0.0000
 12
3572.2500
 22
-3614.9500
 32
0.0000
 13
3572.2500
 23
-3614.9500
 33
0.0000
  0
SOLID
  5
157
  8
מידות-פנים
 10
3268.7500
 20
-3643.7500
 30
0.0000
 11
3165.2500
 21
-3672.5500
 31
0.0000
 12
3165.2500
 22
-3614.9500
 32
0.0000
 13
3165.2500
 23
-3614.9500
 33
0.0000
  0
TEXT
  5
158
  8
מידות-פנים
 10
3368.7500
 20
-3729.2500
 30
0.0000
 40
90.0000
  1
20
 50
360.0000
  7
SOLINE
 72
1
 73
2
 11
3368.7500
 21
-3729.2500
 31
0.0000
  0
LINE
  5
159
  8
מידות-פנים
 10
3268.7500
 20
-3183.7500
 30
0.0000
 11
3268.7500
 21
-3697.7500
 31
0.0000
  0
LINE
  5
15A
  8
מידות-פנים
 10
2568.7500
 20
-3183.7500
 30
0.0000
 11
2568.7500
 21
-3697.7500
 31
0.0000
  0
LINE
  5
15B
  8
מידות-פנים
 10
3268.7500
 20
-3643.7500
 30
0.0000
 11
2568.7500
 21
-3643.7500
 31
0.0000
  0
SOLID
  5
15C
  8
מידות-פנים
 10
3268.7500
 20
-3643.7500
 30
0.0000
 11
3372.2500
 21
-3672.5500
 31
0.0000
 12
3372.2500
 22
-3614.9500
 32
0.0000
 13
3372.2500
 23
-3614.9500
 33
0.0000
  0
SOLID
  5
15D
  8
מידות-פנים
 10
2568.7500
 20
-3643.7500
 30
0.0000
 11
2465.2500
 21
-3672.5500
 31
0.0000
 12
2465.2500
 22
-3614.9500
 32
0.0000
 13
2465.2500
 23
-3614.9500
 33
0.0000
  0
TEXT
  5
15E
  8
מידות-פנים
 10
2918.7500
 20
-3729.2500
 30
0.0000
 40
90.0000
  1
70
 50
360.0000
  7
SOLINE
 72
1
 73
2
 11
2918.7500
 21
-3729.2500
 31
0.0000
  0
LINE
  5
15F
  8
מידות-פנים
 10
2568.7500
 20
-3183.7500
 30
0.0000
 11
2568.7500
 21
-3697.7500
 31
0.0000
  0
LINE
  5
160
  8
מידות-פנים
 10
1418.7500
 20
-3183.7500
 30
0.0000
 11
1418.7500
 21
-3697.7500
 31
0.0000
  0
LINE
  5
161
  8
מידות-פנים
 10
2568.7500
 20
-3643.7500
 30
0.0000
 11
1418.7500
 21
-3643.7500
 31
0.0000
  0
SOLID
  5
162
  8
מידות-פנים
 10
2568.7500
 20
-3643.7500
 30
0.0000
 11
2672.2500
 21
-3672.5500
 31
0.0000
 12
2672.2500
 22
-3614.9500
 32
0.0000
 13
2672.2500
 23
-3614.9500
 33
0.0000
  0
SOLID
  5
163
  8
מידות-פנים
 10
1418.7500
 20
-3643.7500
 30
0.0000
 11
1315.2500
 21
-3672.5500
 31
0.0000
 12
1315.2500
 22
-3614.9500
 32
0.0000
 13
1315.2500
 23
-3614.9500
 33
0.0000
  0
TEXT
  5
164
  8
מידות-פנים
 10
1993.7500
 20
-3729.2500
 30
0.0000
 40
90.0000
  1
115
 50
360.0000
  7
SOLINE
 72
1
 73
2
 11
1993.7500
 21
-3729.2500
 31
0.0000
  0
LINE
  5
165
  8
מידות-פנים
 10
1418.7500
 20
-3193.7500
 30
0.0000
 11
1418.7500
 21
-4518.7500
 31
0.0000
  0
LINE
  5
166
  8
מידות-פנים
 10
5418.7500
 20
-3193.7500
 30
0.0000
 11
5418.7500
 21
-4518.7500
 31
0.0000
  0
LINE
  5
167
  8
מידות-פנים
 10
1418.7500
 20
-4443.7500
 30
0.0000
 11
5418.7500
 21
-4443.7500
 31
0.0000
  0
SOLID
  5
168
  8
מידות-פנים
 10
1418.7500
 20
-4443.7500
 30
0.0000
 11
1275.0000
 21
-4483.7500
 31
0.0000
 12
1275.0000
 22
-4403.7500
 32
0.0000
 13
1275.0000
 23
-4403.7500
 33
0.0000
  0
SOLID
  5
169
  8
מידות-פנים
 10
5418.7500
 20
-4443.7500
 30
0.0000
 11
5562.5000
 21
-4483.7500
 31
0.0000
 12
5562.5000
 22
-4403.7500
 32
0.0000
 13
5562.5000
 23
-4403.7500
 33
0.0000
  0
TEXT
  5
16A
  8
מידות-פנים
 10
3418.7500
 20
-4562.5000
 30
0.0000
 40
125.0000
  1
400
 50
0.0000
  7
SOLINE
 72
1
 73
2
 11
3418.7500
 21
-4562.5000
 31
0.0000
  0
LINE
  5
16B
  8
מידות-פנים
 10
1368.7500
 20
-3143.7500
 30
0.0000
 11
43.7500
 21
-3143.7500
 31
0.0000
  0
LINE
  5
16C
  8
מידות-פנים
 10
1368.7500
 20
-143.7500
 30
0.0000
 11
43.7500
 21
-143.7500
 31
0.0000
  0
LINE
  5
16D
  8
מידות-פנים
 10
118.7500
 20
-3143.7500
 30
0.0000
 11
118.7500
 21
-143.7500
 31
0.0000
  0
SOLID
  5
16E
  8
מידות-פנים
 10
118.7500
 20
-3143.7500
 30
0.0000
 11
78.7500
 21
-3287.5000
 31
0.0000
 12
158.7500
 22
-3287.5000
 32
0.0000
 13
158.7500
 23
-3287.5000
 33
0.0000
  0
SOLID
  5
16F
  8
מידות-פנים
 10
118.7500
 20
-143.7500
 30
0.0000
 11
78.7500
 21
0.0000
 31
0.0000
 12
158.7500
 22
0.0000
 32
0.0000
 13
158.7500
 23
0.0000
 33
0.0000
  0
TEXT
  5
170
  8
מידות-פנים
 10
0.0000
 20
-1643.7500
 30
0.0000
 40
125.0000
  1
300
 50
90.0000
  7
SOLINE
 72
1
 73
2
 11
0.0000
 21
-1643.7500
 31
0.0000
  0
LINE
  5
171
  8
מסגרת
 10
23446.5000
 20
0.0000
 30
0.0000
 11
26196.5000
 21
0.0000
 31
0.0000
  0
LINE
  5
172
  8
מסגרת
 10
26196.5000
 20
0.0000
 30
0.0000
 11
26196.5000
 21
-3388.1250
 31
0.0000
  0
LINE
  5
173
  8
מסגרת
 10
26196.5000
 20
-3388.1250
 30
0.0000
 11
23446.5000
 21
-3388.1250
 31
0.0000
  0
LINE
  5
174
  8
מסגרת
 10
23446.5000
 20
-3388.1250
 30
0.0000
 11
23446.5000
 21
0.0000
 31
0.0000
  0
LINE
  5
175
  8
מסגרת
 10
23446.5000
 20
-560.6250
 30
0.0000
 11
26196.5000
 21
-560.6250
 31
0.0000
  0
LINE
  5
176
  8
מסגרת
 10
23521.5000
 20
-498.1250
 30
0.0000
 11
24096.5000
 21
-498.1250
 31
0.0000
  0
LINE
  5
177
  8
מסגרת
 10
24096.5000
 20
-498.1250
 30
0.0000
 11
24096.5000
 21
-62.5000
 31
0.0000
  0
LINE
  5
178
  8
מסגרת
 10
24096.5000
 20
-62.5000
 30
0.0000
 11
23521.5000
 21
-62.5000
 31
0.0000
  0
LINE
  5
179
  8
מסגרת
 10
23521.5000
 20
-62.5000
 30
0.0000
 11
23521.5000
 21
-498.1250
 31
0.0000
  0
TEXT
  5
17A
  8
מסגרת
 10
24171.5000
 20
-246.6750
 30
0.0000
 40
250.0000
  1
SOLINE
 50
0.0000
  7
SOLINE
 73
2
 11
24171.5000
 21
-246.6750
 31
0.0000
  0
TEXT
  5
17B
  8
מקרא
 10
23809.0000
 20
-459.7125
 30
0.0000
 40
68.7500
  1
brand/soline-logo.png
 50
0.0000
  7
SOLINE
 72
1
 73
2
 11
23809.0000
 21
-459.7125
 31
0.0000
  0
TEXT
  5
17C
  8
מסגרת
 10
23521.5000
 20
-731.2500
 30
0.0000
 40
102.5000
  1
Project:
 50
0.0000
  7
SOLINE
 73
2
 11
23521.5000
 21
-731.2500
 31
0.0000
  0
TEXT
  5
17D
  8
מסגרת
 10
26121.5000
 20
-731.2500
 30
0.0000
 40
110.0000
  1
ALL ELEMENTS
 50
0.0000
  7
SOLINE
 72
2
 73
2
 11
26121.5000
 21
-731.2500
 31
0.0000
  0
TEXT
  5
17E
  8
מסגרת
 10
23521.5000
 20
-975.0000
 30
0.0000
 40
102.5000
  1
Client:
 50
0.0000
  7
SOLINE
 73
2
 11
23521.5000
 21
-975.0000
 31
0.0000
  0
TEXT
  5
17F
  8
מסגרת
 10
26121.5000
 20
-975.0000
 30
0.0000
 40
110.0000
  1
-
 50
0.0000
  7
SOLINE
 72
2
 73
2
 11
26121.5000
 21
-975.0000
 31
0.0000
  0
TEXT
  5
180
  8
מסגרת
 10
23521.5000
 20
-1218.7500
 30
0.0000
 40
102.5000
  1
Address:
 50
0.0000
  7
SOLINE
 73
2
 11
23521.5000
 21
-1218.7500
 31
0.0000
  0
TEXT
  5
181
  8
מסגרת
 10
26121.5000
 20
-1218.7500
 30
0.0000
 40
110.0000
  1
-
 50
0.0000
  7
SOLINE
 72
2
 73
2
 11
26121.5000
 21
-1218.7500
 31
0.0000
  0
TEXT
  5
182
  8
מסגרת
 10
23521.5000
 20
-1462.5000
 30
0.0000
 40
102.5000
  1
Drawing:
 50
0.0000
  7
SOLINE
 73
2
 11
23521.5000
 21
-1462.5000
 31
0.0000
  0
TEXT
  5
183
  8
מסגרת
 10
26121.5000
 20
-1462.5000
 30
0.0000
 40
110.0000
  1
Measurement Plan
 50
0.0000
  7
SOLINE
 72
2
 73
2
 11
26121.5000
 21
-1462.5000
 31
0.0000
  0
TEXT
  5
184
  8
מסגרת
 10
23521.5000
 20
-1706.2500
 30
0.0000
 40
102.5000
  1
Scale:
 50
0.0000
  7
SOLINE
 73
2
 11
23521.5000
 21
-1706.2500
 31
0.0000
  0
TEXT
  5
185
  8
מסגרת
 10
26121.5000
 20
-1706.2500
 30
0.0000
 40
110.0000
  1
1:50  (mm)
 50
0.0000
  7
SOLINE
 72
2
 73
2
 11
26121.5000
 21
-1706.2500
 31
0.0000
  0
TEXT
  5
186
  8
מסגרת
 10
23521.5000
 20
-1950.0000
 30
0.0000
 40
102.5000
  1
Date:
 50
0.0000
  7
SOLINE
 73
2
 11
23521.5000
 21
-1950.0000
 31
0.0000
  0
TEXT
  5
187
  8
מסגרת
 10
26121.5000
 20
-1950.0000
 30
0.0000
 40
110.0000
  1
2026-08-25
 50
0.0000
  7
SOLINE
 72
2
 73
2
 11
26121.5000
 21
-1950.0000
 31
0.0000
  0
TEXT
  5
188
  8
מסגרת
 10
23521.5000
 20
-2193.7500
 30
0.0000
 40
102.5000
  1
Surveyor:
 50
0.0000
  7
SOLINE
 73
2
 11
23521.5000
 21
-2193.7500
 31
0.0000
  0
TEXT
  5
189
  8
מסגרת
 10
26121.5000
 20
-2193.7500
 30
0.0000
 40
110.0000
  1
-
 50
0.0000
  7
SOLINE
 72
2
 73
2
 11
26121.5000
 21
-2193.7500
 31
0.0000
  0
TEXT
  5
18A
  8
מסגרת
 10
23521.5000
 20
-2437.5000
 30
0.0000
 40
102.5000
  1
Checked:
 50
0.0000
  7
SOLINE
 73
2
 11
23521.5000
 21
-2437.5000
 31
0.0000
  0
TEXT
  5
18B
  8
מסגרת
 10
26121.5000
 20
-2437.5000
 30
0.0000
 40
110.0000
  1
-
 50
0.0000
  7
SOLINE
 72
2
 73
2
 11
26121.5000
 21
-2437.5000
 31
0.0000
  0
TEXT
  5
18C
  8
מסגרת
 10
23521.5000
 20
-2681.2500
 30
0.0000
 40
102.5000
  1
Drawing No:
 50
0.0000
  7
SOLINE
 73
2
 11
23521.5000
 21
-2681.2500
 31
0.0000
  0
TEXT
  5
18D
  8
מסגרת
 10
26121.5000
 20
-2681.2500
 30
0.0000
 40
110.0000
  1
M-01
 50
0.0000
  7
SOLINE
 72
2
 73
2
 11
26121.5000
 21
-2681.2500
 31
0.0000
  0
TEXT
  5
18E
  8
מסגרת
 10
23521.5000
 20
-2925.0000
 30
0.0000
 40
102.5000
  1
Sheet:
 50
0.0000
  7
SOLINE
 73
2
 11
23521.5000
 21
-2925.0000
 31
0.0000
  0
TEXT
  5
18F
  8
מסגרת
 10
26121.5000
 20
-2925.0000
 30
0.0000
 40
110.0000
  1
1/1
 50
0.0000
  7
SOLINE
 72
2
 73
2
 11
26121.5000
 21
-2925.0000
 31
0.0000
  0
TEXT
  5
190
  8
מסגרת
 10
23521.5000
 20
-3168.7500
 30
0.0000
 40
102.5000
  1
Revision:
 50
0.0000
  7
SOLINE
 73
2
 11
23521.5000
 21
-3168.7500
 31
0.0000
  0
TEXT
  5
191
  8
מסגרת
 10
26121.5000
 20
-3168.7500
 30
0.0000
 40
110.0000
  1
0
 50
0.0000
  7
SOLINE
 72
2
 73
2
 11
26121.5000
 21
-3168.7500
 31
0.0000
  0
LINE
  5
192
  8
מסגרת
 10
23446.5000
 20
-3763.1250
 30
0.0000
 11
26196.5000
 21
-3763.1250
 31
0.0000
  0
LINE
  5
193
  8
מסגרת
 10
26196.5000
 20
-3763.1250
 30
0.0000
 11
26196.5000
 21
-5443.1250
 31
0.0000
  0
LINE
  5
194
  8
מסגרת
 10
26196.5000
 20
-5443.1250
 30
0.0000
 11
23446.5000
 21
-5443.1250
 31
0.0000
  0
LINE
  5
195
  8
מסגרת
 10
23446.5000
 20
-5443.1250
 30
0.0000
 11
23446.5000
 21
-3763.1250
 31
0.0000
  0
LINE
  5
196
  8
מסגרת
 10
23446.5000
 20
-4123.1250
 30
0.0000
 11
26196.5000
 21
-4123.1250
 31
0.0000
  0
TEXT
  5
197
  8
מקרא
 10
26121.5000
 20
-3979.1250
 30
0.0000
 40
175.0000
  1
טבלת מפרט פתחים
 50
0.0000
  7
SOLINE
 72
2
 73
2
 11
26121.5000
 21
-3979.1250
 31
0.0000
  0
TEXT
  5
198
  8
מקרא
 10
26114.0000
 20
-4303.1250
 30
0.0000
 40
112.5000
  1
מס'
 50
0.0000
  7
SOLINE
 72
2
 73
2
 11
26114.0000
 21
-4303.1250
 31
0.0000
  0
TEXT
  5
199
  8
מקרא
 10
25646.5000
 20
-4303.1250
 30
0.0000
 40
112.5000
  1
סוג
 50
0.0000
  7
SOLINE
 72
2
 73
2
 11
25646.5000
 21
-4303.1250
 31
0.0000
  0
TEXT
  5
19A
  8
מקרא
 10
24959.0000
 20
-4303.1250
 30
0.0000
 40
112.5000
  1
רוחבxגובה
 50
0.0000
  7
SOLINE
 72
2
 73
2
 11
24959.0000
 21
-4303.1250
 31
0.0000
  0
TEXT
  5
19B
  8
מקרא
 10
24326.5000
 20
-4303.1250
 30
0.0000
 40
112.5000
  1
כיוון
 50
0.0000
  7
SOLINE
 72
2
 73
2
 11
24326.5000
 21
-4303.1250
 31
0.0000
  0
TEXT
  5
19C
  8
מקרא
 10
23804.0000
 20
-4303.1250
 30
0.0000
 40
112.5000
  1
כמות
 50
0.0000
  7
SOLINE
 72
2
 73
2
 11
23804.0000
 21
-4303.1250
 31
0.0000
  0
LINE
  5
19D
  8
מקרא
 10
23496.5000
 20
-4468.1250
 30
0.0000
 11
26146.5000
 21
-4468.1250
 31
0.0000
  0
TEXT
  5
19E
  8
מסגרת
 10
26114.0000
 20
-4603.1250
 30
0.0000
 40
112.5000
  1
D1
 50
0.0000
  7
SOLINE
 72
2
 73
2
 11
26114.0000
 21
-4603.1250
 31
0.0000
  0
TEXT
  5
19F
  8
מקרא
 10
25646.5000
 20
-4603.1250
 30
0.0000
 40
112.5000
  1
מעבר
 50
0.0000
  7
SOLINE
 72
2
 73
2
 11
25646.5000
 21
-4603.1250
 31
0.0000
  0
TEXT
  5
1A0
  8
מסגרת
 10
24959.0000
 20
-4603.1250
 30
0.0000
 40
112.5000
  1
900x2050
 50
0.0000
  7
SOLINE
 72
2
 73
2
 11
24959.0000
 21
-4603.1250
 31
0.0000
  0
TEXT
  5
1A1
  8
מקרא
 10
24326.5000
 20
-4603.1250
 30
0.0000
 40
112.5000
  1
-
 50
0.0000
  7
SOLINE
 72
2
 73
2
 11
24326.5000
 21
-4603.1250
 31
0.0000
  0
TEXT
  5
1A2
  8
מסגרת
 10
23804.0000
 20
-4603.1250
 30
0.0000
 40
112.5000
  1
x1
 50
0.0000
  7
SOLINE
 72
2
 73
2
 11
23804.0000
 21
-4603.1250
 31
0.0000
  0
TEXT
  5
1A3
  8
מסגרת
 10
26114.0000
 20
-4903.1250
 30
0.0000
 40
112.5000
  1
D2
 50
0.0000
  7
SOLINE
 72
2
 73
2
 11
26114.0000
 21
-4903.1250
 31
0.0000
  0
TEXT
  5
1A4
  8
מקרא
 10
25646.5000
 20
-4903.1250
 30
0.0000
 40
112.5000
  1
מלבן דלת
 50
0.0000
  7
SOLINE
 72
2
 73
2
 11
25646.5000
 21
-4903.1250
 31
0.0000
  0
TEXT
  5
1A5
  8
מסגרת
 10
24959.0000
 20
-4903.1250
 30
0.0000
 40
112.5000
  1
900x2100
 50
0.0000
  7
SOLINE
 72
2
 73
2
 11
24959.0000
 21
-4903.1250
 31
0.0000
  0
TEXT
  5
1A6
  8
מקרא
 10
24326.5000
 20
-4903.1250
 30
0.0000
 40
112.5000
  1
-
 50
0.0000
  7
SOLINE
 72
2
 73
2
 11
24326.5000
 21
-4903.1250
 31
0.0000
  0
TEXT
  5
1A7
  8
מסגרת
 10
23804.0000
 20
-4903.1250
 30
0.0000
 40
112.5000
  1
x1
 50
0.0000
  7
SOLINE
 72
2
 73
2
 11
23804.0000
 21
-4903.1250
 31
0.0000
  0
TEXT
  5
1A8
  8
מסגרת
 10
26114.0000
 20
-5203.1250
 30
0.0000
 40
112.5000
  1
W1
 50
0.0000
  7
SOLINE
 72
2
 73
2
 11
26114.0000
 21
-5203.1250
 31
0.0000
  0
TEXT
  5
1A9
  8
מקרא
 10
25646.5000
 20
-5203.1250
 30
0.0000
 40
112.5000
  1
חלון
 50
0.0000
  7
SOLINE
 72
2
 73
2
 11
25646.5000
 21
-5203.1250
 31
0.0000
  0
TEXT
  5
1AA
  8
מסגרת
 10
24959.0000
 20
-5203.1250
 30
0.0000
 40
112.5000
  1
1000x1200
 50
0.0000
  7
SOLINE
 72
2
 73
2
 11
24959.0000
 21
-5203.1250
 31
0.0000
  0
TEXT
  5
1AB
  8
מקרא
 10
24326.5000
 20
-5203.1250
 30
0.0000
 40
112.5000
  1
-
 50
0.0000
  7
SOLINE
 72
2
 73
2
 11
24326.5000
 21
-5203.1250
 31
0.0000
  0
TEXT
  5
1AC
  8
מסגרת
 10
23804.0000
 20
-5203.1250
 30
0.0000
 40
112.5000
  1
x1
 50
0.0000
  7
SOLINE
 72
2
 73
2
 11
23804.0000
 21
-5203.1250
 31
0.0000
  0
LINE
  5
1AD
  8
מסגרת
 10
23446.5000
 20
-5818.1250
 30
0.0000
 11
26196.5000
 21
-5818.1250
 31
0.0000
  0
LINE
  5
1AE
  8
מסגרת
 10
26196.5000
 20
-5818.1250
 30
0.0000
 11
26196.5000
 21
-13553.1250
 31
0.0000
  0
LINE
  5
1AF
  8
מסגרת
 10
26196.5000
 20
-13553.1250
 30
0.0000
 11
23446.5000
 21
-13553.1250
 31
0.0000
  0
LINE
  5
1B0
  8
מסגרת
 10
23446.5000
 20
-13553.1250
 30
0.0000
 11
23446.5000
 21
-5818.1250
 31
0.0000
  0
LINE
  5
1B1
  8
מסגרת
 10
23446.5000
 20
-6208.1250
 30
0.0000
 11
26196.5000
 21
-6208.1250
 31
0.0000
  0
TEXT
  5
1B2
  8
מקרא
 10
26121.5000
 20
-6052.1250
 30
0.0000
 40
175.0000
  1
מקרא וספירת אלמנטים
 50
0.0000
  7
SOLINE
 72
2
 73
2
 11
26121.5000
 21
-6052.1250
 31
0.0000
  0
TEXT
  5
1B3
  8
מקרא
 10
26121.5000
 20
-6386.8750
 30
0.0000
 40
131.2500
  1
דלת  (1)
 50
0.0000
  7
SOLINE
 72
2
 73
2
 11
26121.5000
 21
-6386.8750
 31
0.0000
  0
INSERT
  5
1B4
  8
דלתות
  2
SS_door_frame_213x213
 10
23721.5000
 20
-6801.1250
 30
0.0000
 41
1.0000
 42
1.0000
 43
1.0000
 50
0.0000
  0
TEXT
  5
1B5
  8
מקרא
 10
24021.5000
 20
-6711.8750
 30
0.0000
 40
112.5000
  1
x1
 50
0.0000
  7
SOLINE
 73
2
 11
24021.5000
 21
-6711.8750
 31
0.0000
  0
TEXT
  5
1B6
  8
מקרא
 10
26121.5000
 20
-6711.8750
 30
0.0000
 40
125.0000
  1
מפתח עם משקוף
 50
0.0000
  7
SOLINE
 72
2
 73
2
 11
26121.5000
 21
-6711.8750
 31
0.0000
  0
TEXT
  5
1B7
  8
מקרא
 10
26121.5000
 20
-7036.8750
 30
0.0000
 40
131.2500
  1
ניקוז  (1)
 50
0.0000
  7
SOLINE
 72
2
 73
2
 11
26121.5000
 21
-7036.8750
 31
0.0000
  0
INSERT
  5
1B8
  8
ניקוז
  2
SS_sewage_point_213x213
 10
23721.5000
 20
-7451.1250
 30
0.0000
 41
1.0000
 42
1.0000
 43
1.0000
 50
0.0000
  0
TEXT
  5
1B9
  8
מקרא
 10
24021.5000
 20
-7361.8750
 30
0.0000
 40
112.5000
  1
x1
 50
0.0000
  7
SOLINE
 73
2
 11
24021.5000
 21
-7361.8750
 31
0.0000
  0
TEXT
  5
1BA
  8
מקרא
 10
26121.5000
 20
-7361.8750
 30
0.0000
 40
125.0000
  1
ניקוז רצפתי
 50
0.0000
  7
SOLINE
 72
2
 73
2
 11
26121.5000
 21
-7361.8750
 31
0.0000
  0
TEXT
  5
1BB
  8
מקרא
 10
26121.5000
 20
-7686.8750
 30
0.0000
 40
131.2500
  1
חשמל  (6)
 50
0.0000
  7
SOLINE
 72
2
 73
2
 11
26121.5000
 21
-7686.8750
 31
0.0000
  0
INSERT
  5
1BC
  8
חשמל
  2
SS_junction_cable_213x213
 10
23721.5000
 20
-8101.1250
 30
0.0000
 41
1.0000
 42
1.0000
 43
1.0000
 50
0.0000
  0
TEXT
  5
1BD
  8
מקרא
 10
24021.5000
 20
-8011.8750
 30
0.0000
 40
112.5000
  1
x3
 50
0.0000
  7
SOLINE
 73
2
 11
24021.5000
 21
-8011.8750
 31
0.0000
  0
TEXT
  5
1BE
  8
מקרא
 10
26121.5000
 20
-8011.8750
 30
0.0000
 40
125.0000
  1
תשתית חשמל
 50
0.0000
  7
SOLINE
 72
2
 73
2
 11
26121.5000
 21
-8011.8750
 31
0.0000
  0
INSERT
  5
1BF
  8
חשמל
  2
SS_socket_single_213x213
 10
23721.5000
 20
-8426.1250
 30
0.0000
 41
1.0000
 42
1.0000
 43
1.0000
 50
0.0000
  0
TEXT
  5
1C0
  8
מקרא
 10
24021.5000
 20
-8336.8750
 30
0.0000
 40
112.5000
  1
x1
 50
0.0000
  7
SOLINE
 73
2
 11
24021.5000
 21
-8336.8750
 31
0.0000
  0
TEXT
  5
1C1
  8
מקרא
 10
26121.5000
 20
-8336.8750
 30
0.0000
 40
125.0000
  1
שקע בודד
 50
0.0000
  7
SOLINE
 72
2
 73
2
 11
26121.5000
 21
-8336.8750
 31
0.0000
  0
INSERT
  5
1C2
  8
חשמל
  2
SS_socket_duplex_213x213
 10
23721.5000
 20
-8751.1250
 30
0.0000
 41
1.0000
 42
1.0000
 43
1.0000
 50
0.0000
  0
TEXT
  5
1C3
  8
מקרא
 10
24021.5000
 20
-8661.8750
 30
0.0000
 40
112.5000
  1
x1
 50
0.0000
  7
SOLINE
 73
2
 11
24021.5000
 21
-8661.8750
 31
0.0000
  0
TEXT
  5
1C4
  8
מקרא
 10
26121.5000
 20
-8661.8750
 30
0.0000
 40
125.0000
  1
שקע מרובע
 50
0.0000
  7
SOLINE
 72
2
 73
2
 11
26121.5000
 21
-8661.8750
 31
0.0000
  0
INSERT
  5
1C5
  8
חשמל
  2
SS_switch_single_213x213
 10
23721.5000
 20
-9076.1250
 30
0.0000
 41
1.0000
 42
1.0000
 43
1.0000
 50
0.0000
  0
TEXT
  5
1C6
  8
מקרא
 10
24021.5000
 20
-8986.8750
 30
0.0000
 40
112.5000
  1
x1
 50
0.0000
  7
SOLINE
 73
2
 11
24021.5000
 21
-8986.8750
 31
0.0000
  0
TEXT
  5
1C7
  8
מקרא
 10
26121.5000
 20
-8986.8750
 30
0.0000
 40
125.0000
  1
מתג
 50
0.0000
  7
SOLINE
 72
2
 73
2
 11
26121.5000
 21
-8986.8750
 31
0.0000
  0
TEXT
  5
1C8
  8
מקרא
 10
26121.5000
 20
-9311.8750
 30
0.0000
 40
131.2500
  1
גז  (1)
 50
0.0000
  7
SOLINE
 72
2
 73
2
 11
26121.5000
 21
-9311.8750
 31
0.0000
  0
INSERT
  5
1C9
  8
גז
  2
SS_gas_point_213x213
 10
23721.5000
 20
-9726.1250
 30
0.0000
 41
1.0000
 42
1.0000
 43
1.0000
 50
0.0000
  0
TEXT
  5
1CA
  8
מקרא
 10
24021.5000
 20
-9636.8750
 30
0.0000
 40
112.5000
  1
x1
 50
0.0000
  7
SOLINE
 73
2
 11
24021.5000
 21
-9636.8750
 31
0.0000
  0
TEXT
  5
1CB
  8
מקרא
 10
26121.5000
 20
-9636.8750
 30
0.0000
 40
125.0000
  1
גז
 50
0.0000
  7
SOLINE
 72
2
 73
2
 11
26121.5000
 21
-9636.8750
 31
0.0000
  0
TEXT
  5
1CC
  8
מקרא
 10
26121.5000
 20
-9961.8750
 30
0.0000
 40
131.2500
  1
תאורה  (1)
 50
0.0000
  7
SOLINE
 72
2
 73
2
 11
26121.5000
 21
-9961.8750
 31
0.0000
  0
INSERT
  5
1CD
  8
תאורה
  2
SS_light_downlight_213x213
 10
23721.5000
 20
-10376.1250
 30
0.0000
 41
1.0000
 42
1.0000
 43
1.0000
 50
0.0000
  0
TEXT
  5
1CE
  8
מקרא
 10
24021.5000
 20
-10286.8750
 30
0.0000
 40
112.5000
  1
x1
 50
0.0000
  7
SOLINE
 73
2
 11
24021.5000
 21
-10286.8750
 31
0.0000
  0
TEXT
  5
1CF
  8
מקרא
 10
26121.5000
 20
-10286.8750
 30
0.0000
 40
125.0000
  1
מנורת תקרה
 50
0.0000
  7
SOLINE
 72
2
 73
2
 11
26121.5000
 21
-10286.8750
 31
0.0000
  0
TEXT
  5
1D0
  8
מקרא
 10
26121.5000
 20
-10611.8750
 30
0.0000
 40
131.2500
  1
פתח  (1)
 50
0.0000
  7
SOLINE
 72
2
 73
2
 11
26121.5000
 21
-10611.8750
 31
0.0000
  0
INSERT
  5
1D1
  8
דלתות
  2
SS_passage_213x213
 10
23721.5000
 20
-11026.1250
 30
0.0000
 41
1.0000
 42
1.0000
 43
1.0000
 50
0.0000
  0
TEXT
  5
1D2
  8
מקרא
 10
24021.5000
 20
-10936.8750
 30
0.0000
 40
112.5000
  1
x1
 50
0.0000
  7
SOLINE
 73
2
 11
24021.5000
 21
-10936.8750
 31
0.0000
  0
TEXT
  5
1D3
  8
מקרא
 10
26121.5000
 20
-10936.8750
 30
0.0000
 40
125.0000
  1
דלת
 50
0.0000
  7
SOLINE
 72
2
 73
2
 11
26121.5000
 21
-10936.8750
 31
0.0000
  0
TEXT
  5
1D4
  8
מקרא
 10
26121.5000
 20
-11261.8750
 30
0.0000
 40
131.2500
  1
מים  (2)
 50
0.0000
  7
SOLINE
 72
2
 73
2
 11
26121.5000
 21
-11261.8750
 31
0.0000
  0
INSERT
  5
1D5
  8
מים
  2
SS_water_point_213x213
 10
23721.5000
 20
-11676.1250
 30
0.0000
 41
1.0000
 42
1.0000
 43
1.0000
 50
0.0000
  0
TEXT
  5
1D6
  8
מקרא
 10
24021.5000
 20
-11586.8750
 30
0.0000
 40
112.5000
  1
x2
 50
0.0000
  7
SOLINE
 73
2
 11
24021.5000
 21
-11586.8750
 31
0.0000
  0
TEXT
  5
1D7
  8
מקרא
 10
26121.5000
 20
-11586.8750
 30
0.0000
 40
125.0000
  1
מים
 50
0.0000
  7
SOLINE
 72
2
 73
2
 11
26121.5000
 21
-11586.8750
 31
0.0000
  0
TEXT
  5
1D8
  8
מקרא
 10
26121.5000
 20
-11911.8750
 30
0.0000
 40
131.2500
  1
מבנה  (3)
 50
0.0000
  7
SOLINE
 72
2
 73
2
 11
26121.5000
 21
-11911.8750
 31
0.0000
  0
INSERT
  5
1D9
  8
מבנה
  2
SS_beam_213x213
 10
23721.5000
 20
-12326.1250
 30
0.0000
 41
1.0000
 42
1.0000
 43
1.0000
 50
0.0000
  0
TEXT
  5
1DA
  8
מקרא
 10
24021.5000
 20
-12236.8750
 30
0.0000
 40
112.5000
  1
x2
 50
0.0000
  7
SOLINE
 73
2
 11
24021.5000
 21
-12236.8750
 31
0.0000
  0
TEXT
  5
1DB
  8
מקרא
 10
26121.5000
 20
-12236.8750
 30
0.0000
 40
125.0000
  1
עמוד
 50
0.0000
  7
SOLINE
 72
2
 73
2
 11
26121.5000
 21
-12236.8750
 31
0.0000
  0
INSERT
  5
1DC
  8
מבנה
  2
SS_concealment_panel_213x213
 10
23721.5000
 20
-12651.1250
 30
0.0000
 41
1.0000
 42
1.0000
 43
1.0000
 50
0.0000
  0
TEXT
  5
1DD
  8
מקרא
 10
24021.5000
 20
-12561.8750
 30
0.0000
 40
112.5000
  1
x1
 50
0.0000
  7
SOLINE
 73
2
 11
24021.5000
 21
-12561.8750
 31
0.0000
  0
TEXT
  5
1DE
  8
מקרא
 10
26121.5000
 20
-12561.8750
 30
0.0000
 40
125.0000
  1
פאנל
 50
0.0000
  7
SOLINE
 72
2
 73
2
 11
26121.5000
 21
-12561.8750
 31
0.0000
  0
TEXT
  5
1DF
  8
מקרא
 10
26121.5000
 20
-12886.8750
 30
0.0000
 40
131.2500
  1
חלון  (1)
 50
0.0000
  7
SOLINE
 72
2
 73
2
 11
26121.5000
 21
-12886.8750
 31
0.0000
  0
INSERT
  5
1E0
  8
חלונות
  2
SS_window_213x213
 10
23721.5000
 20
-13301.1250
 30
0.0000
 41
1.0000
 42
1.0000
 43
1.0000
 50
0.0000
  0
TEXT
  5
1E1
  8
מקרא
 10
24021.5000
 20
-13211.8750
 30
0.0000
 40
112.5000
  1
x1
 50
0.0000
  7
SOLINE
 73
2
 11
24021.5000
 21
-13211.8750
 31
0.0000
  0
TEXT
  5
1E2
  8
מקרא
 10
26121.5000
 20
-13211.8750
 30
0.0000
 40
125.0000
  1
חלון
 50
0.0000
  7
SOLINE
 72
2
 73
2
 11
26121.5000
 21
-13211.8750
 31
0.0000
  0
LINE
  5
1E3
  8
מסגרת
 10
24821.5000
 20
-14178.1250
 30
0.0000
 11
24821.5000
 21
-13553.1250
 31
0.0000
  0
SOLID
  5
1E4
  8
מסגרת
 10
24821.5000
 20
-13553.1250
 30
0.0000
 11
24759.0000
 21
-13678.1250
 31
0.0000
 12
24884.0000
 22
-13678.1250
 32
0.0000
 13
24884.0000
 23
-13678.1250
 33
0.0000
  0
TEXT
  5
1E5
  8
מסגרת
 10
24821.5000
 20
-13515.6250
 30
0.0000
 40
137.5000
  1
N
 50
0.0000
  7
SOLINE
 72
1
 73
3
 11
24821.5000
 21
-13515.6250
 31
0.0000
  0
LINE
  5
1E6
  8
מסגרת
 10
24446.5000
 20
-14365.6250
 30
0.0000
 11
25246.5000
 21
-14365.6250
 31
0.0000
  0
LINE
  5
1E7
  8
מסגרת
 10
24446.5000
 20
-14365.6250
 30
0.0000
 11
24446.5000
 21
-14428.1250
 31
0.0000
  0
LINE
  5
1E8
  8
מסגרת
 10
24646.5000
 20
-14365.6250
 30
0.0000
 11
24646.5000
 21
-14428.1250
 31
0.0000
  0
LINE
  5
1E9
  8
מסגרת
 10
24846.5000
 20
-14365.6250
 30
0.0000
 11
24846.5000
 21
-14428.1250
 31
0.0000
  0
LINE
  5
1EA
  8
מסגרת
 10
25046.5000
 20
-14365.6250
 30
0.0000
 11
25046.5000
 21
-14428.1250
 31
0.0000
  0
LINE
  5
1EB
  8
מסגרת
 10
25246.5000
 20
-14365.6250
 30
0.0000
 11
25246.5000
 21
-14428.1250
 31
0.0000
  0
TEXT
  5
1EC
  8
מסגרת
 10
24446.5000
 20
-14565.6250
 30
0.0000
 40
87.5000
  1
0
 50
0.0000
  7
SOLINE
 72
1
 11
24446.5000
 21
-14565.6250
 31
0.0000
  0
TEXT
  5
1ED
  8
מסגרת
 10
25246.5000
 20
-14565.6250
 30
0.0000
 40
87.5000
  1
0.8 m
 50
0.0000
  7
SOLINE
 72
2
 11
25246.5000
 21
-14565.6250
 31
0.0000
  0
LINE
  5
1EE
  8
קירות
 10
518.7500
 20
-19465.6250
 30
0.0000
 11
4518.7500
 21
-19465.6250
 31
0.0000
  0
LINE
  5
1EF
  8
קירות
 10
4518.7500
 20
-19465.6250
 30
0.0000
 11
4518.7500
 21
-16865.6250
 31
0.0000
  0
LINE
  5
1F0
  8
קירות
 10
4518.7500
 20
-16865.6250
 30
0.0000
 11
518.7500
 21
-16865.6250
 31
0.0000
  0
LINE
  5
1F1
  8
קירות
 10
518.7500
 20
-16865.6250
 30
0.0000
 11
518.7500
 21
-19465.6250
 31
0.0000
  0
TEXT
  5
1F2
  8
קירות-טקסט
 10
2518.7500
 20
-16565.6250
 30
0.0000
 40
175.0000
  1
W1
 50
0.0000
  7
SOLINE
 72
1
 73
1
 11
2518.7500
 21
-16565.6250
 31
0.0000
  0
INSERT
  5
1F3
  8
חשמל
  2
SS_socket_single_90x90_ELV
 10
863.7500
 20
-19400.6250
 30
0.0000
 41
1.0000
 42
1.0000
 43
1.0000
 50
0.0000
  0
INSERT
  5
1F4
  8
חשמל
  2
SS_socket_duplex_160x90_ELV
 10
1598.7500
 20
-19400.6250
 30
0.0000
 41
1.0000
 42
1.0000
 43
1.0000
 50
0.0000
  0
INSERT
  5
1F5
  8
חשמל
  2
SS_switch_single_90x90_ELV
 10
2263.7500
 20
-19380.6250
 30
0.0000
 41
1.0000
 42
1.0000
 43
1.0000
 50
0.0000
  0
INSERT
  5
1F6
  8
חשמל
  2
SS_junction_cable_60x60_ELV
 10
2948.7500
 20
-19345.6250
 30
0.0000
 41
1.0000
 42
1.0000
 43
1.0000
 50
0.0000
  0
INSERT
  5
1F7
  8
חשמל
  2
SS_junction_cable_60x60_ELV
 10
3648.7500
 20
-19405.6250
 30
0.0000
 41
1.0000
 42
1.0000
 43
1.0000
 50
0.0000
  0
LINE
  5
1F8
  8
מידות-פנים
 10
518.7500
 20
-19505.6250
 30
0.0000
 11
518.7500
 21
-19924.1250
 31
0.0000
  0
LINE
  5
1F9
  8
מידות-פנים
 10
863.7500
 20
-19505.6250
 30
0.0000
 11
863.7500
 21
-19924.1250
 31
0.0000
  0
LINE
  5
1FA
  8
מידות-פנים
 10
518.7500
 20
-19865.6250
 30
0.0000
 11
863.7500
 21
-19865.6250
 31
0.0000
  0
SOLID
  5
1FB
  8
מידות-פנים
 10
518.7500
 20
-19865.6250
 30
0.0000
 11
406.6250
 21
-19896.8250
 31
0.0000
 12
406.6250
 22
-19834.4250
 32
0.0000
 13
406.6250
 23
-19834.4250
 33
0.0000
  0
SOLID
  5
1FC
  8
מידות-פנים
 10
863.7500
 20
-19865.6250
 30
0.0000
 11
975.8750
 21
-19896.8250
 31
0.0000
 12
975.8750
 22
-19834.4250
 32
0.0000
 13
975.8750
 23
-19834.4250
 33
0.0000
  0
TEXT
  5
1FD
  8
מידות-פנים
 10
691.2500
 20
-19958.2500
 30
0.0000
 40
97.5000
  1
34.5
 50
0.0000
  7
SOLINE
 72
1
 73
2
 11
691.2500
 21
-19958.2500
 31
0.0000
  0
LINE
  5
1FE
  8
מידות-פנים
 10
863.7500
 20
-19505.6250
 30
0.0000
 11
863.7500
 21
-19924.1250
 31
0.0000
  0
LINE
  5
1FF
  8
מידות-פנים
 10
1598.7500
 20
-19505.6250
 30
0.0000
 11
1598.7500
 21
-19924.1250
 31
0.0000
  0
LINE
  5
200
  8
מידות-פנים
 10
863.7500
 20
-19865.6250
 30
0.0000
 11
1598.7500
 21
-19865.6250
 31
0.0000
  0
SOLID
  5
201
  8
מידות-פנים
 10
863.7500
 20
-19865.6250
 30
0.0000
 11
751.6250
 21
-19896.8250
 31
0.0000
 12
751.6250
 22
-19834.4250
 32
0.0000
 13
751.6250
 23
-19834.4250
 33
0.0000
  0
SOLID
  5
202
  8
מידות-פנים
 10
1598.7500
 20
-19865.6250
 30
0.0000
 11
1710.8750
 21
-19896.8250
 31
0.0000
 12
1710.8750
 22
-19834.4250
 32
0.0000
 13
1710.8750
 23
-19834.4250
 33
0.0000
  0
TEXT
  5
203
  8
מידות-פנים
 10
1231.2500
 20
-19958.2500
 30
0.0000
 40
97.5000
  1
73.5
 50
0.0000
  7
SOLINE
 72
1
 73
2
 11
1231.2500
 21
-19958.2500
 31
0.0000
  0
LINE
  5
204
  8
מידות-פנים
 10
1598.7500
 20
-19505.6250
 30
0.0000
 11
1598.7500
 21
-19924.1250
 31
0.0000
  0
LINE
  5
205
  8
מידות-פנים
 10
2263.7500
 20
-19505.6250
 30
0.0000
 11
2263.7500
 21
-19924.1250
 31
0.0000
  0
LINE
  5
206
  8
מידות-פנים
 10
1598.7500
 20
-19865.6250
 30
0.0000
 11
2263.7500
 21
-19865.6250
 31
0.0000
  0
SOLID
  5
207
  8
מידות-פנים
 10
1598.7500
 20
-19865.6250
 30
0.0000
 11
1486.6250
 21
-19896.8250
 31
0.0000
 12
1486.6250
 22
-19834.4250
 32
0.0000
 13
1486.6250
 23
-19834.4250
 33
0.0000
  0
SOLID
  5
208
  8
מידות-פנים
 10
2263.7500
 20
-19865.6250
 30
0.0000
 11
2375.8750
 21
-19896.8250
 31
0.0000
 12
2375.8750
 22
-19834.4250
 32
0.0000
 13
2375.8750
 23
-19834.4250
 33
0.0000
  0
TEXT
  5
209
  8
מידות-פנים
 10
1931.2500
 20
-19958.2500
 30
0.0000
 40
97.5000
  1
66.5
 50
0.0000
  7
SOLINE
 72
1
 73
2
 11
1931.2500
 21
-19958.2500
 31
0.0000
  0
LINE
  5
20A
  8
מידות-פנים
 10
2263.7500
 20
-19505.6250
 30
0.0000
 11
2263.7500
 21
-19924.1250
 31
0.0000
  0
LINE
  5
20B
  8
מידות-פנים
 10
2948.7500
 20
-19505.6250
 30
0.0000
 11
2948.7500
 21
-19924.1250
 31
0.0000
  0
LINE
  5
20C
  8
מידות-פנים
 10
2263.7500
 20
-19865.6250
 30
0.0000
 11
2948.7500
 21
-19865.6250
 31
0.0000
  0
SOLID
  5
20D
  8
מידות-פנים
 10
2263.7500
 20
-19865.6250
 30
0.0000
 11
2151.6250
 21
-19896.8250
 31
0.0000
 12
2151.6250
 22
-19834.4250
 32
0.0000
 13
2151.6250
 23
-19834.4250
 33
0.0000
  0
SOLID
  5
20E
  8
מידות-פנים
 10
2948.7500
 20
-19865.6250
 30
0.0000
 11
3060.8750
 21
-19896.8250
 31
0.0000
 12
3060.8750
 22
-19834.4250
 32
0.0000
 13
3060.8750
 23
-19834.4250
 33
0.0000
  0
TEXT
  5
20F
  8
מידות-פנים
 10
2606.2500
 20
-19958.2500
 30
0.0000
 40
97.5000
  1
68.5
 50
0.0000
  7
SOLINE
 72
1
 73
2
 11
2606.2500
 21
-19958.2500
 31
0.0000
  0
LINE
  5
210
  8
מידות-פנים
 10
2948.7500
 20
-19505.6250
 30
0.0000
 11
2948.7500
 21
-19924.1250
 31
0.0000
  0
LINE
  5
211
  8
מידות-פנים
 10
3648.7500
 20
-19505.6250
 30
0.0000
 11
3648.7500
 21
-19924.1250
 31
0.0000
  0
LINE
  5
212
  8
מידות-פנים
 10
2948.7500
 20
-19865.6250
 30
0.0000
 11
3648.7500
 21
-19865.6250
 31
0.0000
  0
SOLID
  5
213
  8
מידות-פנים
 10
2948.7500
 20
-19865.6250
 30
0.0000
 11
2836.6250
 21
-19896.8250
 31
0.0000
 12
2836.6250
 22
-19834.4250
 32
0.0000
 13
2836.6250
 23
-19834.4250
 33
0.0000
  0
SOLID
  5
214
  8
מידות-פנים
 10
3648.7500
 20
-19865.6250
 30
0.0000
 11
3760.8750
 21
-19896.8250
 31
0.0000
 12
3760.8750
 22
-19834.4250
 32
0.0000
 13
3760.8750
 23
-19834.4250
 33
0.0000
  0
TEXT
  5
215
  8
מידות-פנים
 10
3298.7500
 20
-19958.2500
 30
0.0000
 40
97.5000
  1
70
 50
0.0000
  7
SOLINE
 72
1
 73
2
 11
3298.7500
 21
-19958.2500
 31
0.0000
  0
LINE
  5
216
  8
מידות-פנים
 10
3648.7500
 20
-19505.6250
 30
0.0000
 11
3648.7500
 21
-19924.1250
 31
0.0000
  0
LINE
  5
217
  8
מידות-פנים
 10
4518.7500
 20
-19505.6250
 30
0.0000
 11
4518.7500
 21
-19924.1250
 31
0.0000
  0
LINE
  5
218
  8
מידות-פנים
 10
3648.7500
 20
-19865.6250
 30
0.0000
 11
4518.7500
 21
-19865.6250
 31
0.0000
  0
SOLID
  5
219
  8
מידות-פנים
 10
3648.7500
 20
-19865.6250
 30
0.0000
 11
3536.6250
 21
-19896.8250
 31
0.0000
 12
3536.6250
 22
-19834.4250
 32
0.0000
 13
3536.6250
 23
-19834.4250
 33
0.0000
  0
SOLID
  5
21A
  8
מידות-פנים
 10
4518.7500
 20
-19865.6250
 30
0.0000
 11
4630.8750
 21
-19896.8250
 31
0.0000
 12
4630.8750
 22
-19834.4250
 32
0.0000
 13
4630.8750
 23
-19834.4250
 33
0.0000
  0
TEXT
  5
21B
  8
מידות-פנים
 10
4083.7500
 20
-19958.2500
 30
0.0000
 40
97.5000
  1
87
 50
0.0000
  7
SOLINE
 72
1
 73
2
 11
4083.7500
 21
-19958.2500
 31
0.0000
  0
LINE
  5
21C
  8
מידות-פנים
 10
518.7500
 20
-19515.6250
 30
0.0000
 11
518.7500
 21
-20340.6250
 31
0.0000
  0
LINE
  5
21D
  8
מידות-פנים
 10
4518.7500
 20
-19515.6250
 30
0.0000
 11
4518.7500
 21
-20340.6250
 31
0.0000
  0
LINE
  5
21E
  8
מידות-פנים
 10
518.7500
 20
-20265.6250
 30
0.0000
 11
4518.7500
 21
-20265.6250
 31
0.0000
  0
SOLID
  5
21F
  8
מידות-פנים
 10
518.7500
 20
-20265.6250
 30
0.0000
 11
375.0000
 21
-20305.6250
 31
0.0000
 12
375.0000
 22
-20225.6250
 32
0.0000
 13
375.0000
 23
-20225.6250
 33
0.0000
  0
SOLID
  5
220
  8
מידות-פנים
 10
4518.7500
 20
-20265.6250
 30
0.0000
 11
4662.5000
 21
-20305.6250
 31
0.0000
 12
4662.5000
 22
-20225.6250
 32
0.0000
 13
4662.5000
 23
-20225.6250
 33
0.0000
  0
TEXT
  5
221
  8
מידות-פנים
 10
2518.7500
 20
-20384.3750
 30
0.0000
 40
125.0000
  1
400
 50
0.0000
  7
SOLINE
 72
1
 73
2
 11
2518.7500
 21
-20384.3750
 31
0.0000
  0
LINE
  5
222
  8
מידות-פנים
 10
68.7500
 20
-19465.6250
 30
0.0000
 11
43.7500
 21
-19465.6250
 31
0.0000
  0
LINE
  5
223
  8
מידות-פנים
 10
68.7500
 20
-16865.6250
 30
0.0000
 11
43.7500
 21
-16865.6250
 31
0.0000
  0
LINE
  5
224
  8
מידות-פנים
 10
118.7500
 20
-19465.6250
 30
0.0000
 11
118.7500
 21
-16865.6250
 31
0.0000
  0
SOLID
  5
225
  8
מידות-פנים
 10
118.7500
 20
-19465.6250
 30
0.0000
 11
78.7500
 21
-19609.3750
 31
0.0000
 12
158.7500
 22
-19609.3750
 32
0.0000
 13
158.7500
 23
-19609.3750
 33
0.0000
  0
SOLID
  5
226
  8
מידות-פנים
 10
118.7500
 20
-16865.6250
 30
0.0000
 11
78.7500
 21
-16721.8750
 31
0.0000
 12
158.7500
 22
-16721.8750
 32
0.0000
 13
158.7500
 23
-16721.8750
 33
0.0000
  0
TEXT
  5
227
  8
מידות-פנים
 10
0.0000
 20
-18165.6250
 30
0.0000
 40
125.0000
  1
260
 50
90.0000
  7
SOLINE
 72
1
 73
2
 11
0.0000
 21
-18165.6250
 31
0.0000
  0
LINE
  5
228
  8
קירות
 10
8631.2500
 20
-19465.6250
 30
0.0000
 11
11631.2500
 21
-19465.6250
 31
0.0000
  0
LINE
  5
229
  8
קירות
 10
11631.2500
 20
-19465.6250
 30
0.0000
 11
11631.2500
 21
-16865.6250
 31
0.0000
  0
LINE
  5
22A
  8
קירות
 10
11631.2500
 20
-16865.6250
 30
0.0000
 11
8631.2500
 21
-16865.6250
 31
0.0000
  0
LINE
  5
22B
  8
קירות
 10
8631.2500
 20
-16865.6250
 30
0.0000
 11
8631.2500
 21
-19465.6250
 31
0.0000
  0
TEXT
  5
22C
  8
קירות-טקסט
 10
10131.2500
 20
-16565.6250
 30
0.0000
 40
175.0000
  1
W2
 50
0.0000
  7
SOLINE
 72
1
 73
1
 11
10131.2500
 21
-16565.6250
 31
0.0000
  0
INSERT
  5
22D
  8
חשמל
  2
SS_junction_cable_120x120_ELV
 10
8991.2500
 20
-19345.6250
 30
0.0000
 41
1.0000
 42
1.0000
 43
1.0000
 50
0.0000
  0
INSERT
  5
22E
  8
תאורה
  2
SS_light_downlight_150x150_ELV
 10
9706.2500
 20
-16940.6250
 30
0.0000
 41
1.0000
 42
1.0000
 43
1.0000
 50
0.0000
  0
INSERT
  5
22F
  8
מים
  2
SS_water_point_60x60_ELV
 10
10361.2500
 20
-19445.6250
 30
0.0000
 41
1.0000
 42
1.0000
 43
1.0000
 50
0.0000
  0
INSERT
  5
230
  8
גז
  2
SS_gas_point_60x60_ELV
 10
11061.2500
 20
-19435.6250
 30
0.0000
 41
1.0000
 42
1.0000
 43
1.0000
 50
0.0000
  0
INSERT
  5
231
  8
מים
  2
SS_water_point_50x50_ELV
 10
11631.2500
 20
-19450.6250
 30
0.0000
 41
1.0000
 42
1.0000
 43
1.0000
 50
0.0000
  0
LINE
  5
232
  8
מידות-פנים
 10
8631.2500
 20
-19505.6250
 30
0.0000
 11
8631.2500
 21
-19924.1250
 31
0.0000
  0
LINE
  5
233
  8
מידות-פנים
 10
8991.2500
 20
-19505.6250
 30
0.0000
 11
8991.2500
 21
-19924.1250
 31
0.0000
  0
LINE
  5
234
  8
מידות-פנים
 10
8631.2500
 20
-19865.6250
 30
0.0000
 11
8991.2500
 21
-19865.6250
 31
0.0000
  0
SOLID
  5
235
  8
מידות-פנים
 10
8631.2500
 20
-19865.6250
 30
0.0000
 11
8519.1250
 21
-19896.8250
 31
0.0000
 12
8519.1250
 22
-19834.4250
 32
0.0000
 13
8519.1250
 23
-19834.4250
 33
0.0000
  0
SOLID
  5
236
  8
מידות-פנים
 10
8991.2500
 20
-19865.6250
 30
0.0000
 11
9103.3750
 21
-19896.8250
 31
0.0000
 12
9103.3750
 22
-19834.4250
 32
0.0000
 13
9103.3750
 23
-19834.4250
 33
0.0000
  0
TEXT
  5
237
  8
מידות-פנים
 10
8811.2500
 20
-19958.2500
 30
0.0000
 40
97.5000
  1
36
 50
0.0000
  7
SOLINE
 72
1
 73
2
 11
8811.2500
 21
-19958.2500
 31
0.0000
  0
LINE
  5
238
  8
מידות-פנים
 10
8991.2500
 20
-19505.6250
 30
0.0000
 11
8991.2500
 21
-19924.1250
 31
0.0000
  0
LINE
  5
239
  8
מידות-פנים
 10
9706.2500
 20
-19505.6250
 30
0.0000
 11
9706.2500
 21
-19924.1250
 31
0.0000
  0
LINE
  5
23A
  8
מידות-פנים
 10
8991.2500
 20
-19865.6250
 30
0.0000
 11
9706.2500
 21
-19865.6250
 31
0.0000
  0
SOLID
  5
23B
  8
מידות-פנים
 10
8991.2500
 20
-19865.6250
 30
0.0000
 11
8879.1250
 21
-19896.8250
 31
0.0000
 12
8879.1250
 22
-19834.4250
 32
0.0000
 13
8879.1250
 23
-19834.4250
 33
0.0000
  0
SOLID
  5
23C
  8
מידות-פנים
 10
9706.2500
 20
-19865.6250
 30
0.0000
 11
9818.3750
 21
-19896.8250
 31
0.0000
 12
9818.3750
 22
-19834.4250
 32
0.0000
 13
9818.3750
 23
-19834.4250
 33
0.0000
  0
TEXT
  5
23D
  8
מידות-פנים
 10
9348.7500
 20
-19958.2500
 30
0.0000
 40
97.5000
  1
71.5
 50
0.0000
  7
SOLINE
 72
1
 73
2
 11
9348.7500
 21
-19958.2500
 31
0.0000
  0
LINE
  5
23E
  8
מידות-פנים
 10
9706.2500
 20
-19505.6250
 30
0.0000
 11
9706.2500
 21
-19924.1250
 31
0.0000
  0
LINE
  5
23F
  8
מידות-פנים
 10
10361.2500
 20
-19505.6250
 30
0.0000
 11
10361.2500
 21
-19924.1250
 31
0.0000
  0
LINE
  5
240
  8
מידות-פנים
 10
9706.2500
 20
-19865.6250
 30
0.0000
 11
10361.2500
 21
-19865.6250
 31
0.0000
  0
SOLID
  5
241
  8
מידות-פנים
 10
9706.2500
 20
-19865.6250
 30
0.0000
 11
9594.1250
 21
-19896.8250
 31
0.0000
 12
9594.1250
 22
-19834.4250
 32
0.0000
 13
9594.1250
 23
-19834.4250
 33
0.0000
  0
SOLID
  5
242
  8
מידות-פנים
 10
10361.2500
 20
-19865.6250
 30
0.0000
 11
10473.3750
 21
-19896.8250
 31
0.0000
 12
10473.3750
 22
-19834.4250
 32
0.0000
 13
10473.3750
 23
-19834.4250
 33
0.0000
  0
TEXT
  5
243
  8
מידות-פנים
 10
10033.7500
 20
-19958.2500
 30
0.0000
 40
97.5000
  1
65.5
 50
0.0000
  7
SOLINE
 72
1
 73
2
 11
10033.7500
 21
-19958.2500
 31
0.0000
  0
LINE
  5
244
  8
מידות-פנים
 10
10361.2500
 20
-19505.6250
 30
0.0000
 11
10361.2500
 21
-19924.1250
 31
0.0000
  0
LINE
  5
245
  8
מידות-פנים
 10
11061.2500
 20
-19505.6250
 30
0.0000
 11
11061.2500
 21
-19924.1250
 31
0.0000
  0
LINE
  5
246
  8
מידות-פנים
 10
10361.2500
 20
-19865.6250
 30
0.0000
 11
11061.2500
 21
-19865.6250
 31
0.0000
  0
SOLID
  5
247
  8
מידות-פנים
 10
10361.2500
 20
-19865.6250
 30
0.0000
 11
10249.1250
 21
-19896.8250
 31
0.0000
 12
10249.1250
 22
-19834.4250
 32
0.0000
 13
10249.1250
 23
-19834.4250
 33
0.0000
  0
SOLID
  5
248
  8
מידות-פנים
 10
11061.2500
 20
-19865.6250
 30
0.0000
 11
11173.3750
 21
-19896.8250
 31
0.0000
 12
11173.3750
 22
-19834.4250
 32
0.0000
 13
11173.3750
 23
-19834.4250
 33
0.0000
  0
TEXT
  5
249
  8
מידות-פנים
 10
10711.2500
 20
-19958.2500
 30
0.0000
 40
97.5000
  1
70
 50
0.0000
  7
SOLINE
 72
1
 73
2
 11
10711.2500
 21
-19958.2500
 31
0.0000
  0
LINE
  5
24A
  8
מידות-פנים
 10
11061.2500
 20
-19505.6250
 30
0.0000
 11
11061.2500
 21
-19924.1250
 31
0.0000
  0
LINE
  5
24B
  8
מידות-פנים
 10
11631.2500
 20
-19505.6250
 30
0.0000
 11
11631.2500
 21
-19924.1250
 31
0.0000
  0
LINE
  5
24C
  8
מידות-פנים
 10
11061.2500
 20
-19865.6250
 30
0.0000
 11
11631.2500
 21
-19865.6250
 31
0.0000
  0
SOLID
  5
24D
  8
מידות-פנים
 10
11061.2500
 20
-19865.6250
 30
0.0000
 11
10949.1250
 21
-19896.8250
 31
0.0000
 12
10949.1250
 22
-19834.4250
 32
0.0000
 13
10949.1250
 23
-19834.4250
 33
0.0000
  0
SOLID
  5
24E
  8
מידות-פנים
 10
11631.2500
 20
-19865.6250
 30
0.0000
 11
11743.3750
 21
-19896.8250
 31
0.0000
 12
11743.3750
 22
-19834.4250
 32
0.0000
 13
11743.3750
 23
-19834.4250
 33
0.0000
  0
TEXT
  5
24F
  8
מידות-פנים
 10
11346.2500
 20
-19958.2500
 30
0.0000
 40
97.5000
  1
57
 50
0.0000
  7
SOLINE
 72
1
 73
2
 11
11346.2500
 21
-19958.2500
 31
0.0000
  0
LINE
  5
250
  8
מידות-פנים
 10
8631.2500
 20
-19515.6250
 30
0.0000
 11
8631.2500
 21
-20340.6250
 31
0.0000
  0
LINE
  5
251
  8
מידות-פנים
 10
11631.2500
 20
-19515.6250
 30
0.0000
 11
11631.2500
 21
-20340.6250
 31
0.0000
  0
LINE
  5
252
  8
מידות-פנים
 10
8631.2500
 20
-20265.6250
 30
0.0000
 11
11631.2500
 21
-20265.6250
 31
0.0000
  0
SOLID
  5
253
  8
מידות-פנים
 10
8631.2500
 20
-20265.6250
 30
0.0000
 11
8487.5000
 21
-20305.6250
 31
0.0000
 12
8487.5000
 22
-20225.6250
 32
0.0000
 13
8487.5000
 23
-20225.6250
 33
0.0000
  0
SOLID
  5
254
  8
מידות-פנים
 10
11631.2500
 20
-20265.6250
 30
0.0000
 11
11775.0000
 21
-20305.6250
 31
0.0000
 12
11775.0000
 22
-20225.6250
 32
0.0000
 13
11775.0000
 23
-20225.6250
 33
0.0000
  0
TEXT
  5
255
  8
מידות-פנים
 10
10131.2500
 20
-20384.3750
 30
0.0000
 40
125.0000
  1
300
 50
0.0000
  7
SOLINE
 72
1
 73
2
 11
10131.2500
 21
-20384.3750
 31
0.0000
  0
LINE
  5
256
  8
חשמל-מידות
 10
8191.2500
 20
-19465.6250
 30
0.0000
 11
8175.7500
 21
-19465.6250
 31
0.0000
  0
LINE
  5
257
  8
חשמל-מידות
 10
8191.2500
 20
-19285.6250
 30
0.0000
 11
8175.7500
 21
-19285.6250
 31
0.0000
  0
LINE
  5
258
  8
חשמל-מידות
 10
8231.2500
 20
-19465.6250
 30
0.0000
 11
8231.2500
 21
-19285.6250
 31
0.0000
  0
SOLID
  5
259
  8
חשמל-מידות
 10
8231.2500
 20
-19465.6250
 30
0.0000
 11
8201.6500
 21
-19572.0000
 31
0.0000
 12
8260.8500
 22
-19572.0000
 32
0.0000
 13
8260.8500
 23
-19572.0000
 33
0.0000
  0
SOLID
  5
25A
  8
חשמל-מידות
 10
8231.2500
 20
-19285.6250
 30
0.0000
 11
8201.6500
 21
-19179.2500
 31
0.0000
 12
8260.8500
 22
-19179.2500
 32
0.0000
 13
8260.8500
 23
-19179.2500
 33
0.0000
  0
TEXT
  5
25B
  8
חשמל-מידות
 10
8143.3750
 20
-19375.6250
 30
0.0000
 40
92.5000
  1
18
 50
90.0000
  7
SOLINE
 72
1
 73
2
 11
8143.3750
 21
-19375.6250
 31
0.0000
  0
LINE
  5
25C
  8
תאורה-מידות
 10
7841.2500
 20
-19465.6250
 30
0.0000
 11
7825.7500
 21
-19465.6250
 31
0.0000
  0
LINE
  5
25D
  8
תאורה-מידות
 10
7841.2500
 20
-16865.6250
 30
0.0000
 11
7825.7500
 21
-16865.6250
 31
0.0000
  0
LINE
  5
25E
  8
תאורה-מידות
 10
7881.2500
 20
-19465.6250
 30
0.0000
 11
7881.2500
 21
-16865.6250
 31
0.0000
  0
SOLID
  5
25F
  8
תאורה-מידות
 10
7881.2500
 20
-19465.6250
 30
0.0000
 11
7851.6500
 21
-19572.0000
 31
0.0000
 12
7910.8500
 22
-19572.0000
 32
0.0000
 13
7910.8500
 23
-19572.0000
 33
0.0000
  0
SOLID
  5
260
  8
תאורה-מידות
 10
7881.2500
 20
-16865.6250
 30
0.0000
 11
7851.6500
 21
-16759.2500
 31
0.0000
 12
7910.8500
 22
-16759.2500
 32
0.0000
 13
7910.8500
 23
-16759.2500
 33
0.0000
  0
TEXT
  5
261
  8
תאורה-מידות
 10
7793.3750
 20
-18165.6250
 30
0.0000
 40
92.5000
  1
260
 50
90.0000
  7
SOLINE
 72
1
 73
2
 11
7793.3750
 21
-18165.6250
 31
0.0000
  0
LINE
  5
262
  8
מידות-פנים
 10
7481.2500
 20
-19465.6250
 30
0.0000
 11
7456.2500
 21
-19465.6250
 31
0.0000
  0
LINE
  5
263
  8
מידות-פנים
 10
7481.2500
 20
-16865.6250
 30
0.0000
 11
7456.2500
 21
-16865.6250
 31
0.0000
  0
LINE
  5
264
  8
מידות-פנים
 10
7531.2500
 20
-19465.6250
 30
0.0000
 11
7531.2500
 21
-16865.6250
 31
0.0000
  0
SOLID
  5
265
  8
מידות-פנים
 10
7531.2500
 20
-19465.6250
 30
0.0000
 11
7491.2500
 21
-19609.3750
 31
0.0000
 12
7571.2500
 22
-19609.3750
 32
0.0000
 13
7571.2500
 23
-19609.3750
 33
0.0000
  0
SOLID
  5
266
  8
מידות-פנים
 10
7531.2500
 20
-16865.6250
 30
0.0000
 11
7491.2500
 21
-16721.8750
 31
0.0000
 12
7571.2500
 22
-16721.8750
 32
0.0000
 13
7571.2500
 23
-16721.8750
 33
0.0000
  0
TEXT
  5
267
  8
מידות-פנים
 10
7412.5000
 20
-18165.6250
 30
0.0000
 40
125.0000
  1
260
 50
90.0000
  7
SOLINE
 72
1
 73
2
 11
7412.5000
 21
-18165.6250
 31
0.0000
  0
LINE
  5
268
  8
קירות
 10
15043.7500
 20
-19655.8750
 30
0.0000
 11
19043.7500
 21
-19655.8750
 31
0.0000
  0
LINE
  5
269
  8
קירות
 10
19043.7500
 20
-19655.8750
 30
0.0000
 11
19043.7500
 21
-17055.8750
 31
0.0000
  0
LINE
  5
26A
  8
קירות
 10
19043.7500
 20
-17055.8750
 30
0.0000
 11
15043.7500
 21
-17055.8750
 31
0.0000
  0
LINE
  5
26B
  8
קירות
 10
15043.7500
 20
-17055.8750
 30
0.0000
 11
15043.7500
 21
-19655.8750
 31
0.0000
  0
TEXT
  5
26C
  8
קירות-טקסט
 10
17043.7500
 20
-16755.8750
 30
0.0000
 40
175.0000
  1
W3
 50
0.0000
  7
SOLINE
 72
1
 73
1
 11
17043.7500
 21
-16755.8750
 31
0.0000
  0
INSERT
  5
26D
  8
ניקוז
  2
SS_sewage_point_100x100_ELV
 10
15393.7500
 20
-19655.8750
 30
0.0000
 41
1.0000
 42
1.0000
 43
1.0000
 50
0.0000
  0
INSERT
  5
26E
  8
מבנה
  2
SS_beam_200x2600_ELV
 10
18143.7500
 20
-19655.8750
 30
0.0000
 41
1.0000
 42
1.0000
 43
1.0000
 50
0.0000
  0
INSERT
  5
26F
  8
חלונות
  2
SS_window_1000x1200_ELV
 10
16043.7500
 20
-18755.8750
 30
0.0000
 41
1.0000
 42
1.0000
 43
1.0000
 50
0.0000
  0
INSERT
  5
270
  8
דלתות
  2
SS_passage_900x2050_ELV
 10
16743.7500
 20
-19655.8750
 30
0.0000
 41
1.0000
 42
1.0000
 43
1.0000
 50
0.0000
  0
INSERT
  5
271
  8
דלתות
  2
SS_door_frame_900x2100_ELV
 10
17443.7500
 20
-19655.8750
 30
0.0000
 41
1.0000
 42
1.0000
 43
1.0000
 50
0.0000
  0
LINE
  5
272
  8
מידות-פנים
 10
15043.7500
 20
-19695.8750
 30
0.0000
 11
15043.7500
 21
-20114.3750
 31
0.0000
  0
LINE
  5
273
  8
מידות-פנים
 10
15393.7500
 20
-19695.8750
 30
0.0000
 11
15393.7500
 21
-20114.3750
 31
0.0000
  0
LINE
  5
274
  8
מידות-פנים
 10
15043.7500
 20
-20055.8750
 30
0.0000
 11
15393.7500
 21
-20055.8750
 31
0.0000
  0
SOLID
  5
275
  8
מידות-פנים
 10
15043.7500
 20
-20055.8750
 30
0.0000
 11
14931.6250
 21
-20087.0750
 31
0.0000
 12
14931.6250
 22
-20024.6750
 32
0.0000
 13
14931.6250
 23
-20024.6750
 33
0.0000
  0
SOLID
  5
276
  8
מידות-פנים
 10
15393.7500
 20
-20055.8750
 30
0.0000
 11
15505.8750
 21
-20087.0750
 31
0.0000
 12
15505.8750
 22
-20024.6750
 32
0.0000
 13
15505.8750
 23
-20024.6750
 33
0.0000
  0
TEXT
  5
277
  8
מידות-פנים
 10
15218.7500
 20
-20148.5000
 30
0.0000
 40
97.5000
  1
35
 50
0.0000
  7
SOLINE
 72
1
 73
2
 11
15218.7500
 21
-20148.5000
 31
0.0000
  0
LINE
  5
278
  8
מידות-פנים
 10
15543.7500
 20
-19695.8750
 30
0.0000
 11
15543.7500
 21
-20114.3750
 31
0.0000
  0
LINE
  5
279
  8
מידות-פנים
 10
16293.7500
 20
-19695.8750
 30
0.0000
 11
16293.7500
 21
-20114.3750
 31
0.0000
  0
LINE
  5
27A
  8
מידות-פנים
 10
15543.7500
 20
-20055.8750
 30
0.0000
 11
16293.7500
 21
-20055.8750
 31
0.0000
  0
SOLID
  5
27B
  8
מידות-פנים
 10
15543.7500
 20
-20055.8750
 30
0.0000
 11
15431.6250
 21
-20087.0750
 31
0.0000
 12
15431.6250
 22
-20024.6750
 32
0.0000
 13
15431.6250
 23
-20024.6750
 33
0.0000
  0
SOLID
  5
27C
  8
מידות-פנים
 10
16293.7500
 20
-20055.8750
 30
0.0000
 11
16405.8750
 21
-20087.0750
 31
0.0000
 12
16405.8750
 22
-20024.6750
 32
0.0000
 13
16405.8750
 23
-20024.6750
 33
0.0000
  0
TEXT
  5
27D
  8
מידות-פנים
 10
15918.7500
 20
-20148.5000
 30
0.0000
 40
97.5000
  1
75
 50
0.0000
  7
SOLINE
 72
1
 73
2
 11
15918.7500
 21
-20148.5000
 31
0.0000
  0
LINE
  5
27E
  8
מידות-פנים
 10
16293.7500
 20
-19695.8750
 30
0.0000
 11
16293.7500
 21
-20114.3750
 31
0.0000
  0
LINE
  5
27F
  8
מידות-פנים
 10
16543.7500
 20
-19695.8750
 30
0.0000
 11
16543.7500
 21
-20114.3750
 31
0.0000
  0
LINE
  5
280
  8
מידות-פנים
 10
16293.7500
 20
-20055.8750
 30
0.0000
 11
16543.7500
 21
-20055.8750
 31
0.0000
  0
SOLID
  5
281
  8
מידות-פנים
 10
16293.7500
 20
-20055.8750
 30
0.0000
 11
16181.6250
 21
-20087.0750
 31
0.0000
 12
16181.6250
 22
-20024.6750
 32
0.0000
 13
16181.6250
 23
-20024.6750
 33
0.0000
  0
SOLID
  5
282
  8
מידות-פנים
 10
16543.7500
 20
-20055.8750
 30
0.0000
 11
16655.8750
 21
-20087.0750
 31
0.0000
 12
16655.8750
 22
-20024.6750
 32
0.0000
 13
16655.8750
 23
-20024.6750
 33
0.0000
  0
TEXT
  5
283
  8
מידות-פנים
 10
16418.7500
 20
-20148.5000
 30
0.0000
 40
97.5000
  1
25
 50
0.0000
  7
SOLINE
 72
1
 73
2
 11
16418.7500
 21
-20148.5000
 31
0.0000
  0
LINE
  5
284
  8
מידות-פנים
 10
16543.7500
 20
-19695.8750
 30
0.0000
 11
16543.7500
 21
-20114.3750
 31
0.0000
  0
LINE
  5
285
  8
מידות-פנים
 10
16993.7500
 20
-19695.8750
 30
0.0000
 11
16993.7500
 21
-20114.3750
 31
0.0000
  0
LINE
  5
286
  8
מידות-פנים
 10
16543.7500
 20
-20055.8750
 30
0.0000
 11
16993.7500
 21
-20055.8750
 31
0.0000
  0
SOLID
  5
287
  8
מידות-פנים
 10
16543.7500
 20
-20055.8750
 30
0.0000
 11
16431.6250
 21
-20087.0750
 31
0.0000
 12
16431.6250
 22
-20024.6750
 32
0.0000
 13
16431.6250
 23
-20024.6750
 33
0.0000
  0
SOLID
  5
288
  8
מידות-פנים
 10
16993.7500
 20
-20055.8750
 30
0.0000
 11
17105.8750
 21
-20087.0750
 31
0.0000
 12
17105.8750
 22
-20024.6750
 32
0.0000
 13
17105.8750
 23
-20024.6750
 33
0.0000
  0
TEXT
  5
289
  8
מידות-פנים
 10
16768.7500
 20
-20148.5000
 30
0.0000
 40
97.5000
  1
45
 50
0.0000
  7
SOLINE
 72
1
 73
2
 11
16768.7500
 21
-20148.5000
 31
0.0000
  0
LINE
  5
28A
  8
מידות-פנים
 10
16993.7500
 20
-19695.8750
 30
0.0000
 11
16993.7500
 21
-20114.3750
 31
0.0000
  0
LINE
  5
28B
  8
מידות-פנים
 10
17193.7500
 20
-19695.8750
 30
0.0000
 11
17193.7500
 21
-20114.3750
 31
0.0000
  0
LINE
  5
28C
  8
מידות-פנים
 10
16993.7500
 20
-20055.8750
 30
0.0000
 11
17193.7500
 21
-20055.8750
 31
0.0000
  0
SOLID
  5
28D
  8
מידות-פנים
 10
16993.7500
 20
-20055.8750
 30
0.0000
 11
16881.6250
 21
-20087.0750
 31
0.0000
 12
16881.6250
 22
-20024.6750
 32
0.0000
 13
16881.6250
 23
-20024.6750
 33
0.0000
  0
SOLID
  5
28E
  8
מידות-פנים
 10
17193.7500
 20
-20055.8750
 30
0.0000
 11
17305.8750
 21
-20087.0750
 31
0.0000
 12
17305.8750
 22
-20024.6750
 32
0.0000
 13
17305.8750
 23
-20024.6750
 33
0.0000
  0
TEXT
  5
28F
  8
מידות-פנים
 10
17093.7500
 20
-20148.5000
 30
0.0000
 40
97.5000
  1
20
 50
0.0000
  7
SOLINE
 72
1
 73
2
 11
17093.7500
 21
-20148.5000
 31
0.0000
  0
LINE
  5
290
  8
מידות-פנים
 10
17193.7500
 20
-19695.8750
 30
0.0000
 11
17193.7500
 21
-20114.3750
 31
0.0000
  0
LINE
  5
291
  8
מידות-פנים
 10
17893.7500
 20
-19695.8750
 30
0.0000
 11
17893.7500
 21
-20114.3750
 31
0.0000
  0
LINE
  5
292
  8
מידות-פנים
 10
17193.7500
 20
-20055.8750
 30
0.0000
 11
17893.7500
 21
-20055.8750
 31
0.0000
  0
SOLID
  5
293
  8
מידות-פנים
 10
17193.7500
 20
-20055.8750
 30
0.0000
 11
17081.6250
 21
-20087.0750
 31
0.0000
 12
17081.6250
 22
-20024.6750
 32
0.0000
 13
17081.6250
 23
-20024.6750
 33
0.0000
  0
SOLID
  5
294
  8
מידות-פנים
 10
17893.7500
 20
-20055.8750
 30
0.0000
 11
18005.8750
 21
-20087.0750
 31
0.0000
 12
18005.8750
 22
-20024.6750
 32
0.0000
 13
18005.8750
 23
-20024.6750
 33
0.0000
  0
TEXT
  5
295
  8
מידות-פנים
 10
17543.7500
 20
-20148.5000
 30
0.0000
 40
97.5000
  1
70
 50
0.0000
  7
SOLINE
 72
1
 73
2
 11
17543.7500
 21
-20148.5000
 31
0.0000
  0
LINE
  5
296
  8
מידות-פנים
 10
18043.7500
 20
-19695.8750
 30
0.0000
 11
18043.7500
 21
-20114.3750
 31
0.0000
  0
LINE
  5
297
  8
מידות-פנים
 10
18243.7500
 20
-19695.8750
 30
0.0000
 11
18243.7500
 21
-20114.3750
 31
0.0000
  0
LINE
  5
298
  8
מידות-פנים
 10
18043.7500
 20
-20055.8750
 30
0.0000
 11
18243.7500
 21
-20055.8750
 31
0.0000
  0
SOLID
  5
299
  8
מידות-פנים
 10
18043.7500
 20
-20055.8750
 30
0.0000
 11
17931.6250
 21
-20087.0750
 31
0.0000
 12
17931.6250
 22
-20024.6750
 32
0.0000
 13
17931.6250
 23
-20024.6750
 33
0.0000
  0
SOLID
  5
29A
  8
מידות-פנים
 10
18243.7500
 20
-20055.8750
 30
0.0000
 11
18355.8750
 21
-20087.0750
 31
0.0000
 12
18355.8750
 22
-20024.6750
 32
0.0000
 13
18355.8750
 23
-20024.6750
 33
0.0000
  0
TEXT
  5
29B
  8
מידות-פנים
 10
18143.7500
 20
-20148.5000
 30
0.0000
 40
97.5000
  1
20
 50
0.0000
  7
SOLINE
 72
1
 73
2
 11
18143.7500
 21
-20148.5000
 31
0.0000
  0
LINE
  5
29C
  8
מידות-פנים
 10
18243.7500
 20
-19695.8750
 30
0.0000
 11
18243.7500
 21
-20114.3750
 31
0.0000
  0
LINE
  5
29D
  8
מידות-פנים
 10
19043.7500
 20
-19695.8750
 30
0.0000
 11
19043.7500
 21
-20114.3750
 31
0.0000
  0
LINE
  5
29E
  8
מידות-פנים
 10
18243.7500
 20
-20055.8750
 30
0.0000
 11
19043.7500
 21
-20055.8750
 31
0.0000
  0
SOLID
  5
29F
  8
מידות-פנים
 10
18243.7500
 20
-20055.8750
 30
0.0000
 11
18131.6250
 21
-20087.0750
 31
0.0000
 12
18131.6250
 22
-20024.6750
 32
0.0000
 13
18131.6250
 23
-20024.6750
 33
0.0000
  0
SOLID
  5
2A0
  8
מידות-פנים
 10
19043.7500
 20
-20055.8750
 30
0.0000
 11
19155.8750
 21
-20087.0750
 31
0.0000
 12
19155.8750
 22
-20024.6750
 32
0.0000
 13
19155.8750
 23
-20024.6750
 33
0.0000
  0
TEXT
  5
2A1
  8
מידות-פנים
 10
18643.7500
 20
-20148.5000
 30
0.0000
 40
97.5000
  1
80
 50
0.0000
  7
SOLINE
 72
1
 73
2
 11
18643.7500
 21
-20148.5000
 31
0.0000
  0
LINE
  5
2A2
  8
מידות-פנים
 10
15043.7500
 20
-19705.8750
 30
0.0000
 11
15043.7500
 21
-20530.8750
 31
0.0000
  0
LINE
  5
2A3
  8
מידות-פנים
 10
19043.7500
 20
-19705.8750
 30
0.0000
 11
19043.7500
 21
-20530.8750
 31
0.0000
  0
LINE
  5
2A4
  8
מידות-פנים
 10
15043.7500
 20
-20455.8750
 30
0.0000
 11
19043.7500
 21
-20455.8750
 31
0.0000
  0
SOLID
  5
2A5
  8
מידות-פנים
 10
15043.7500
 20
-20455.8750
 30
0.0000
 11
14900.0000
 21
-20495.8750
 31
0.0000
 12
14900.0000
 22
-20415.8750
 32
0.0000
 13
14900.0000
 23
-20415.8750
 33
0.0000
  0
SOLID
  5
2A6
  8
מידות-פנים
 10
19043.7500
 20
-20455.8750
 30
0.0000
 11
19187.5000
 21
-20495.8750
 31
0.0000
 12
19187.5000
 22
-20415.8750
 32
0.0000
 13
19187.5000
 23
-20415.8750
 33
0.0000
  0
TEXT
  5
2A7
  8
מידות-פנים
 10
17043.7500
 20
-20574.6250
 30
0.0000
 40
125.0000
  1
400
 50
0.0000
  7
SOLINE
 72
1
 73
2
 11
17043.7500
 21
-20574.6250
 31
0.0000
  0
LINE
  5
2A8
  8
מידות-פנים
 10
14593.7500
 20
-19655.8750
 30
0.0000
 11
14568.7500
 21
-19655.8750
 31
0.0000
  0
LINE
  5
2A9
  8
מידות-פנים
 10
14593.7500
 20
-17055.8750
 30
0.0000
 11
14568.7500
 21
-17055.8750
 31
0.0000
  0
LINE
  5
2AA
  8
מידות-פנים
 10
14643.7500
 20
-19655.8750
 30
0.0000
 11
14643.7500
 21
-17055.8750
 31
0.0000
  0
SOLID
  5
2AB
  8
מידות-פנים
 10
14643.7500
 20
-19655.8750
 30
0.0000
 11
14603.7500
 21
-19799.6250
 31
0.0000
 12
14683.7500
 22
-19799.6250
 32
0.0000
 13
14683.7500
 23
-19799.6250
 33
0.0000
  0
SOLID
  5
2AC
  8
מידות-פנים
 10
14643.7500
 20
-17055.8750
 30
0.0000
 11
14603.7500
 21
-16912.1250
 31
0.0000
 12
14683.7500
 22
-16912.1250
 32
0.0000
 13
14683.7500
 23
-16912.1250
 33
0.0000
  0
TEXT
  5
2AD
  8
מידות-פנים
 10
14525.0000
 20
-18355.8750
 30
0.0000
 40
125.0000
  1
260
 50
90.0000
  7
SOLINE
 72
1
 73
2
 11
14525.0000
 21
-18355.8750
 31
0.0000
  0
LINE
  5
2AE
  8
מבנה-מידות
 10
18043.7500
 20
-17015.8750
 30
0.0000
 11
18043.7500
 21
-16598.8750
 31
0.0000
  0
LINE
  5
2AF
  8
מבנה-מידות
 10
18243.7500
 20
-17015.8750
 30
0.0000
 11
18243.7500
 21
-16598.8750
 31
0.0000
  0
LINE
  5
2B0
  8
מבנה-מידות
 10
18043.7500
 20
-16655.8750
 30
0.0000
 11
18243.7500
 21
-16655.8750
 31
0.0000
  0
SOLID
  5
2B1
  8
מבנה-מידות
 10
18043.7500
 20
-16655.8750
 30
0.0000
 11
17934.5000
 21
-16625.4750
 31
0.0000
 12
17934.5000
 22
-16686.2750
 32
0.0000
 13
17934.5000
 23
-16686.2750
 33
0.0000
  0
SOLID
  5
2B2
  8
מבנה-מידות
 10
18243.7500
 20
-16655.8750
 30
0.0000
 11
18353.0000
 21
-16625.4750
 31
0.0000
 12
18353.0000
 22
-16686.2750
 32
0.0000
 13
18353.0000
 23
-16686.2750
 33
0.0000
  0
TEXT
  5
2B3
  8
מבנה-מידות
 10
18143.7500
 20
-16565.6250
 30
0.0000
 40
95.0000
  1
20
 50
0.0000
  7
SOLINE
 72
1
 73
2
 11
18143.7500
 21
-16565.6250
 31
0.0000
  0
LINE
  5
2B4
  8
מבנה-מידות
 10
18283.7500
 20
-19655.8750
 30
0.0000
 11
18700.7500
 21
-19655.8750
 31
0.0000
  0
LINE
  5
2B5
  8
מבנה-מידות
 10
18283.7500
 20
-17055.8750
 30
0.0000
 11
18700.7500
 21
-17055.8750
 31
0.0000
  0
LINE
  5
2B6
  8
מבנה-מידות
 10
18643.7500
 20
-19655.8750
 30
0.0000
 11
18643.7500
 21
-17055.8750
 31
0.0000
  0
SOLID
  5
2B7
  8
מבנה-מידות
 10
18643.7500
 20
-19655.8750
 30
0.0000
 11
18674.1500
 21
-19765.1250
 31
0.0000
 12
18613.3500
 22
-19765.1250
 32
0.0000
 13
18613.3500
 23
-19765.1250
 33
0.0000
  0
SOLID
  5
2B8
  8
מבנה-מידות
 10
18643.7500
 20
-17055.8750
 30
0.0000
 11
18674.1500
 21
-16946.6250
 31
0.0000
 12
18613.3500
 22
-16946.6250
 32
0.0000
 13
18613.3500
 23
-16946.6250
 33
0.0000
  0
TEXT
  5
2B9
  8
מבנה-מידות
 10
18734.0000
 20
-18355.8750
 30
0.0000
 40
95.0000
  1
260
 50
90.0000
  7
SOLINE
 72
1
 73
2
 11
18734.0000
 21
-18355.8750
 31
0.0000
  0
LINE
  5
2BA
  8
חלונות-מידות
 10
15543.7500
 20
-17515.8750
 30
0.0000
 11
15543.7500
 21
-17098.8750
 31
0.0000
  0
LINE
  5
2BB
  8
חלונות-מידות
 10
16543.7500
 20
-17515.8750
 30
0.0000
 11
16543.7500
 21
-17098.8750
 31
0.0000
  0
LINE
  5
2BC
  8
חלונות-מידות
 10
15543.7500
 20
-17155.8750
 30
0.0000
 11
16543.7500
 21
-17155.8750
 31
0.0000
  0
SOLID
  5
2BD
  8
חלונות-מידות
 10
15543.7500
 20
-17155.8750
 30
0.0000
 11
15434.5000
 21
-17125.4750
 31
0.0000
 12
15434.5000
 22
-17186.2750
 32
0.0000
 13
15434.5000
 23
-17186.2750
 33
0.0000
  0
SOLID
  5
2BE
  8
חלונות-מידות
 10
16543.7500
 20
-17155.8750
 30
0.0000
 11
16653.0000
 21
-17125.4750
 31
0.0000
 12
16653.0000
 22
-17186.2750
 32
0.0000
 13
16653.0000
 23
-17186.2750
 33
0.0000
  0
TEXT
  5
2BF
  8
חלונות-מידות
 10
16043.7500
 20
-17065.6250
 30
0.0000
 40
95.0000
  1
100
 50
0.0000
  7
SOLINE
 72
1
 73
2
 11
16043.7500
 21
-17065.6250
 31
0.0000
  0
LINE
  5
2C0
  8
חלונות-מידות
 10
16583.7500
 20
-18755.8750
 30
0.0000
 11
17350.7500
 21
-18755.8750
 31
0.0000
  0
LINE
  5
2C1
  8
חלונות-מידות
 10
16583.7500
 20
-17555.8750
 30
0.0000
 11
17350.7500
 21
-17555.8750
 31
0.0000
  0
LINE
  5
2C2
  8
חלונות-מידות
 10
17293.7500
 20
-18755.8750
 30
0.0000
 11
17293.7500
 21
-17555.8750
 31
0.0000
  0
SOLID
  5
2C3
  8
חלונות-מידות
 10
17293.7500
 20
-18755.8750
 30
0.0000
 11
17324.1500
 21
-18865.1250
 31
0.0000
 12
17263.3500
 22
-18865.1250
 32
0.0000
 13
17263.3500
 23
-18865.1250
 33
0.0000
  0
SOLID
  5
2C4
  8
חלונות-מידות
 10
17293.7500
 20
-17555.8750
 30
0.0000
 11
17324.1500
 21
-17446.6250
 31
0.0000
 12
17263.3500
 22
-17446.6250
 32
0.0000
 13
17263.3500
 23
-17446.6250
 33
0.0000
  0
TEXT
  5
2C5
  8
חלונות-מידות
 10
17384.0000
 20
-18155.8750
 30
0.0000
 40
95.0000
  1
120
 50
90.0000
  7
SOLINE
 72
1
 73
2
 11
17384.0000
 21
-18155.8750
 31
0.0000
  0
LINE
  5
2C6
  8
חלונות-מידות
 10
16583.7500
 20
-19655.8750
 30
0.0000
 11
17700.7500
 21
-19655.8750
 31
0.0000
  0
LINE
  5
2C7
  8
חלונות-מידות
 10
16583.7500
 20
-18755.8750
 30
0.0000
 11
17700.7500
 21
-18755.8750
 31
0.0000
  0
LINE
  5
2C8
  8
חלונות-מידות
 10
17643.7500
 20
-19655.8750
 30
0.0000
 11
17643.7500
 21
-18755.8750
 31
0.0000
  0
SOLID
  5
2C9
  8
חלונות-מידות
 10
17643.7500
 20
-19655.8750
 30
0.0000
 11
17674.1500
 21
-19765.1250
 31
0.0000
 12
17613.3500
 22
-19765.1250
 32
0.0000
 13
17613.3500
 23
-19765.1250
 33
0.0000
  0
SOLID
  5
2CA
  8
חלונות-מידות
 10
17643.7500
 20
-18755.8750
 30
0.0000
 11
17674.1500
 21
-18646.6250
 31
0.0000
 12
17613.3500
 22
-18646.6250
 32
0.0000
 13
17613.3500
 23
-18646.6250
 33
0.0000
  0
TEXT
  5
2CB
  8
חלונות-מידות
 10
17734.0000
 20
-19205.8750
 30
0.0000
 40
95.0000
  1
90
 50
90.0000
  7
SOLINE
 72
1
 73
2
 11
17734.0000
 21
-19205.8750
 31
0.0000
  0
LINE
  5
2CC
  8
דלתות-מידות
 10
16293.7500
 20
-17565.8750
 30
0.0000
 11
16293.7500
 21
-17148.8750
 31
0.0000
  0
LINE
  5
2CD
  8
דלתות-מידות
 10
17193.7500
 20
-17565.8750
 30
0.0000
 11
17193.7500
 21
-17148.8750
 31
0.0000
  0
LINE
  5
2CE
  8
דלתות-מידות
 10
16293.7500
 20
-17205.8750
 30
0.0000
 11
17193.7500
 21
-17205.8750
 31
0.0000
  0
SOLID
  5
2CF
  8
דלתות-מידות
 10
16293.7500
 20
-17205.8750
 30
0.0000
 11
16184.5000
 21
-17175.4750
 31
0.0000
 12
16184.5000
 22
-17236.2750
 32
0.0000
 13
16184.5000
 23
-17236.2750
 33
0.0000
  0
SOLID
  5
2D0
  8
דלתות-מידות
 10
17193.7500
 20
-17205.8750
 30
0.0000
 11
17303.0000
 21
-17175.4750
 31
0.0000
 12
17303.0000
 22
-17236.2750
 32
0.0000
 13
17303.0000
 23
-17236.2750
 33
0.0000
  0
TEXT
  5
2D1
  8
דלתות-מידות
 10
16743.7500
 20
-17115.6250
 30
0.0000
 40
95.0000
  1
90
 50
0.0000
  7
SOLINE
 72
1
 73
2
 11
16743.7500
 21
-17115.6250
 31
0.0000
  0
LINE
  5
2D2
  8
דלתות-מידות
 10
17233.7500
 20
-19655.8750
 30
0.0000
 11
18700.7500
 21
-19655.8750
 31
0.0000
  0
LINE
  5
2D3
  8
דלתות-מידות
 10
17233.7500
 20
-17605.8750
 30
0.0000
 11
18700.7500
 21
-17605.8750
 31
0.0000
  0
LINE
  5
2D4
  8
דלתות-מידות
 10
18643.7500
 20
-19655.8750
 30
0.0000
 11
18643.7500
 21
-17605.8750
 31
0.0000
  0
SOLID
  5
2D5
  8
דלתות-מידות
 10
18643.7500
 20
-19655.8750
 30
0.0000
 11
18674.1500
 21
-19765.1250
 31
0.0000
 12
18613.3500
 22
-19765.1250
 32
0.0000
 13
18613.3500
 23
-19765.1250
 33
0.0000
  0
SOLID
  5
2D6
  8
דלתות-מידות
 10
18643.7500
 20
-17605.8750
 30
0.0000
 11
18674.1500
 21
-17496.6250
 31
0.0000
 12
18613.3500
 22
-17496.6250
 32
0.0000
 13
18613.3500
 23
-17496.6250
 33
0.0000
  0
TEXT
  5
2D7
  8
דלתות-מידות
 10
18734.0000
 20
-18630.8750
 30
0.0000
 40
95.0000
  1
205
 50
90.0000
  7
SOLINE
 72
1
 73
2
 11
18734.0000
 21
-18630.8750
 31
0.0000
  0
LINE
  5
2D8
  8
דלתות-מידות
 10
16993.7500
 20
-17515.8750
 30
0.0000
 11
16993.7500
 21
-17098.8750
 31
0.0000
  0
LINE
  5
2D9
  8
דלתות-מידות
 10
17893.7500
 20
-17515.8750
 30
0.0000
 11
17893.7500
 21
-17098.8750
 31
0.0000
  0
LINE
  5
2DA
  8
דלתות-מידות
 10
16993.7500
 20
-17155.8750
 30
0.0000
 11
17893.7500
 21
-17155.8750
 31
0.0000
  0
SOLID
  5
2DB
  8
דלתות-מידות
 10
16993.7500
 20
-17155.8750
 30
0.0000
 11
16884.5000
 21
-17125.4750
 31
0.0000
 12
16884.5000
 22
-17186.2750
 32
0.0000
 13
16884.5000
 23
-17186.2750
 33
0.0000
  0
SOLID
  5
2DC
  8
דלתות-מידות
 10
17893.7500
 20
-17155.8750
 30
0.0000
 11
18003.0000
 21
-17125.4750
 31
0.0000
 12
18003.0000
 22
-17186.2750
 32
0.0000
 13
18003.0000
 23
-17186.2750
 33
0.0000
  0
TEXT
  5
2DD
  8
דלתות-מידות
 10
17443.7500
 20
-17065.6250
 30
0.0000
 40
95.0000
  1
90
 50
0.0000
  7
SOLINE
 72
1
 73
2
 11
17443.7500
 21
-17065.6250
 31
0.0000
  0
LINE
  5
2DE
  8
דלתות-מידות
 10
17933.7500
 20
-19655.8750
 30
0.0000
 11
19750.7500
 21
-19655.8750
 31
0.0000
  0
LINE
  5
2DF
  8
דלתות-מידות
 10
17933.7500
 20
-17555.8750
 30
0.0000
 11
19750.7500
 21
-17555.8750
 31
0.0000
  0
LINE
  5
2E0
  8
דלתות-מידות
 10
19693.7500
 20
-19655.8750
 30
0.0000
 11
19693.7500
 21
-17555.8750
 31
0.0000
  0
SOLID
  5
2E1
  8
דלתות-מידות
 10
19693.7500
 20
-19655.8750
 30
0.0000
 11
19724.1500
 21
-19765.1250
 31
0.0000
 12
19663.3500
 22
-19765.1250
 32
0.0000
 13
19663.3500
 23
-19765.1250
 33
0.0000
  0
SOLID
  5
2E2
  8
דלתות-מידות
 10
19693.7500
 20
-17555.8750
 30
0.0000
 11
19724.1500
 21
-17446.6250
 31
0.0000
 12
19663.3500
 22
-17446.6250
 32
0.0000
 13
19663.3500
 23
-17446.6250
 33
0.0000
  0
TEXT
  5
2E3
  8
דלתות-מידות
 10
19784.0000
 20
-18605.8750
 30
0.0000
 40
95.0000
  1
210
 50
90.0000
  7
SOLINE
 72
1
 73
2
 11
19784.0000
 21
-18605.8750
 31
0.0000
  0
LINE
  5
2E4
  8
קירות
 10
23052.7500
 20
-19655.8750
 30
0.0000
 11
26052.7500
 21
-19655.8750
 31
0.0000
  0
LINE
  5
2E5
  8
קירות
 10
26052.7500
 20
-19655.8750
 30
0.0000
 11
26052.7500
 21
-17055.8750
 31
0.0000
  0
LINE
  5
2E6
  8
קירות
 10
26052.7500
 20
-17055.8750
 30
0.0000
 11
23052.7500
 21
-17055.8750
 31
0.0000
  0
LINE
  5
2E7
  8
קירות
 10
23052.7500
 20
-17055.8750
 30
0.0000
 11
23052.7500
 21
-19655.8750
 31
0.0000
  0
TEXT
  5
2E8
  8
קירות-טקסט
 10
24552.7500
 20
-16755.8750
 30
0.0000
 40
175.0000
  1
W4
 50
0.0000
  7
SOLINE
 72
1
 73
1
 11
24552.7500
 21
-16755.8750
 31
0.0000
  0
INSERT
  5
2E9
  8
מבנה
  2
SS_beam_1000x600_ELV
 10
23352.7500
 20
-17655.8750
 30
0.0000
 41
1.0000
 42
1.0000
 43
1.0000
 50
0.0000
  0
INSERT
  5
2EA
  8
מבנה
  2
SS_concealment_panel_600x50_ELV
 10
24352.7500
 20
-19655.8750
 30
0.0000
 41
1.0000
 42
1.0000
 43
1.0000
 50
0.0000
  0
LINE
  5
2EB
  8
מידות-פנים
 10
22852.7500
 20
-19695.8750
 30
0.0000
 11
22852.7500
 21
-20114.3750
 31
0.0000
  0
LINE
  5
2EC
  8
מידות-פנים
 10
23052.7500
 20
-19695.8750
 30
0.0000
 11
23052.7500
 21
-20114.3750
 31
0.0000
  0
LINE
  5
2ED
  8
מידות-פנים
 10
22852.7500
 20
-20055.8750
 30
0.0000
 11
23052.7500
 21
-20055.8750
 31
0.0000
  0
SOLID
  5
2EE
  8
מידות-פנים
 10
22852.7500
 20
-20055.8750
 30
0.0000
 11
22740.6250
 21
-20087.0750
 31
0.0000
 12
22740.6250
 22
-20024.6750
 32
0.0000
 13
22740.6250
 23
-20024.6750
 33
0.0000
  0
SOLID
  5
2EF
  8
מידות-פנים
 10
23052.7500
 20
-20055.8750
 30
0.0000
 11
23164.8750
 21
-20087.0750
 31
0.0000
 12
23164.8750
 22
-20024.6750
 32
0.0000
 13
23164.8750
 23
-20024.6750
 33
0.0000
  0
TEXT
  5
2F0
  8
מידות-פנים
 10
22952.7500
 20
-20148.5000
 30
0.0000
 40
97.5000
  1
20
 50
0.0000
  7
SOLINE
 72
1
 73
2
 11
22952.7500
 21
-20148.5000
 31
0.0000
  0
LINE
  5
2F1
  8
מידות-פנים
 10
23052.7500
 20
-19695.8750
 30
0.0000
 11
23052.7500
 21
-20114.3750
 31
0.0000
  0
LINE
  5
2F2
  8
מידות-פנים
 10
23852.7500
 20
-19695.8750
 30
0.0000
 11
23852.7500
 21
-20114.3750
 31
0.0000
  0
LINE
  5
2F3
  8
מידות-פנים
 10
23052.7500
 20
-20055.8750
 30
0.0000
 11
23852.7500
 21
-20055.8750
 31
0.0000
  0
SOLID
  5
2F4
  8
מידות-פנים
 10
23052.7500
 20
-20055.8750
 30
0.0000
 11
22940.6250
 21
-20087.0750
 31
0.0000
 12
22940.6250
 22
-20024.6750
 32
0.0000
 13
22940.6250
 23
-20024.6750
 33
0.0000
  0
SOLID
  5
2F5
  8
מידות-פנים
 10
23852.7500
 20
-20055.8750
 30
0.0000
 11
23964.8750
 21
-20087.0750
 31
0.0000
 12
23964.8750
 22
-20024.6750
 32
0.0000
 13
23964.8750
 23
-20024.6750
 33
0.0000
  0
TEXT
  5
2F6
  8
מידות-פנים
 10
23452.7500
 20
-20148.5000
 30
0.0000
 40
97.5000
  1
80
 50
0.0000
  7
SOLINE
 72
1
 73
2
 11
23452.7500
 21
-20148.5000
 31
0.0000
  0
LINE
  5
2F7
  8
מידות-פנים
 10
23852.7500
 20
-19695.8750
 30
0.0000
 11
23852.7500
 21
-20114.3750
 31
0.0000
  0
LINE
  5
2F8
  8
מידות-פנים
 10
24052.7500
 20
-19695.8750
 30
0.0000
 11
24052.7500
 21
-20114.3750
 31
0.0000
  0
LINE
  5
2F9
  8
מידות-פנים
 10
23852.7500
 20
-20055.8750
 30
0.0000
 11
24052.7500
 21
-20055.8750
 31
0.0000
  0
SOLID
  5
2FA
  8
מידות-פנים
 10
23852.7500
 20
-20055.8750
 30
0.0000
 11
23740.6250
 21
-20087.0750
 31
0.0000
 12
23740.6250
 22
-20024.6750
 32
0.0000
 13
23740.6250
 23
-20024.6750
 33
0.0000
  0
SOLID
  5
2FB
  8
מידות-פנים
 10
24052.7500
 20
-20055.8750
 30
0.0000
 11
24164.8750
 21
-20087.0750
 31
0.0000
 12
24164.8750
 22
-20024.6750
 32
0.0000
 13
24164.8750
 23
-20024.6750
 33
0.0000
  0
TEXT
  5
2FC
  8
מידות-פנים
 10
23952.7500
 20
-20148.5000
 30
0.0000
 40
97.5000
  1
20
 50
0.0000
  7
SOLINE
 72
1
 73
2
 11
23952.7500
 21
-20148.5000
 31
0.0000
  0
LINE
  5
2FD
  8
מידות-פנים
 10
24052.7500
 20
-19695.8750
 30
0.0000
 11
24052.7500
 21
-20114.3750
 31
0.0000
  0
LINE
  5
2FE
  8
מידות-פנים
 10
24652.7500
 20
-19695.8750
 30
0.0000
 11
24652.7500
 21
-20114.3750
 31
0.0000
  0
LINE
  5
2FF
  8
מידות-פנים
 10
24052.7500
 20
-20055.8750
 30
0.0000
 11
24652.7500
 21
-20055.8750
 31
0.0000
  0
SOLID
  5
300
  8
מידות-פנים
 10
24052.7500
 20
-20055.8750
 30
0.0000
 11
23940.6250
 21
-20087.0750
 31
0.0000
 12
23940.6250
 22
-20024.6750
 32
0.0000
 13
23940.6250
 23
-20024.6750
 33
0.0000
  0
SOLID
  5
301
  8
מידות-פנים
 10
24652.7500
 20
-20055.8750
 30
0.0000
 11
24764.8750
 21
-20087.0750
 31
0.0000
 12
24764.8750
 22
-20024.6750
 32
0.0000
 13
24764.8750
 23
-20024.6750
 33
0.0000
  0
TEXT
  5
302
  8
מידות-פנים
 10
24352.7500
 20
-20148.5000
 30
0.0000
 40
97.5000
  1
60
 50
0.0000
  7
SOLINE
 72
1
 73
2
 11
24352.7500
 21
-20148.5000
 31
0.0000
  0
LINE
  5
303
  8
מידות-פנים
 10
24652.7500
 20
-19695.8750
 30
0.0000
 11
24652.7500
 21
-20114.3750
 31
0.0000
  0
LINE
  5
304
  8
מידות-פנים
 10
26052.7500
 20
-19695.8750
 30
0.0000
 11
26052.7500
 21
-20114.3750
 31
0.0000
  0
LINE
  5
305
  8
מידות-פנים
 10
24652.7500
 20
-20055.8750
 30
0.0000
 11
26052.7500
 21
-20055.8750
 31
0.0000
  0
SOLID
  5
306
  8
מידות-פנים
 10
24652.7500
 20
-20055.8750
 30
0.0000
 11
24540.6250
 21
-20087.0750
 31
0.0000
 12
24540.6250
 22
-20024.6750
 32
0.0000
 13
24540.6250
 23
-20024.6750
 33
0.0000
  0
SOLID
  5
307
  8
מידות-פנים
 10
26052.7500
 20
-20055.8750
 30
0.0000
 11
26164.8750
 21
-20087.0750
 31
0.0000
 12
26164.8750
 22
-20024.6750
 32
0.0000
 13
26164.8750
 23
-20024.6750
 33
0.0000
  0
TEXT
  5
308
  8
מידות-פנים
 10
25352.7500
 20
-20148.5000
 30
0.0000
 40
97.5000
  1
140
 50
0.0000
  7
SOLINE
 72
1
 73
2
 11
25352.7500
 21
-20148.5000
 31
0.0000
  0
LINE
  5
309
  8
מידות-פנים
 10
23052.7500
 20
-19705.8750
 30
0.0000
 11
23052.7500
 21
-20530.8750
 31
0.0000
  0
LINE
  5
30A
  8
מידות-פנים
 10
26052.7500
 20
-19705.8750
 30
0.0000
 11
26052.7500
 21
-20530.8750
 31
0.0000
  0
LINE
  5
30B
  8
מידות-פנים
 10
23052.7500
 20
-20455.8750
 30
0.0000
 11
26052.7500
 21
-20455.8750
 31
0.0000
  0
SOLID
  5
30C
  8
מידות-פנים
 10
23052.7500
 20
-20455.8750
 30
0.0000
 11
22909.0000
 21
-20495.8750
 31
0.0000
 12
22909.0000
 22
-20415.8750
 32
0.0000
 13
22909.0000
 23
-20415.8750
 33
0.0000
  0
SOLID
  5
30D
  8
מידות-פנים
 10
26052.7500
 20
-20455.8750
 30
0.0000
 11
26196.5000
 21
-20495.8750
 31
0.0000
 12
26196.5000
 22
-20415.8750
 32
0.0000
 13
26196.5000
 23
-20415.8750
 33
0.0000
  0
TEXT
  5
30E
  8
מידות-פנים
 10
24552.7500
 20
-20574.6250
 30
0.0000
 40
125.0000
  1
300
 50
0.0000
  7
SOLINE
 72
1
 73
2
 11
24552.7500
 21
-20574.6250
 31
0.0000
  0
LINE
  5
30F
  8
מידות-פנים
 10
22602.7500
 20
-19655.8750
 30
0.0000
 11
22577.7500
 21
-19655.8750
 31
0.0000
  0
LINE
  5
310
  8
מידות-פנים
 10
22602.7500
 20
-17055.8750
 30
0.0000
 11
22577.7500
 21
-17055.8750
 31
0.0000
  0
LINE
  5
311
  8
מידות-פנים
 10
22652.7500
 20
-19655.8750
 30
0.0000
 11
22652.7500
 21
-17055.8750
 31
0.0000
  0
SOLID
  5
312
  8
מידות-פנים
 10
22652.7500
 20
-19655.8750
 30
0.0000
 11
22612.7500
 21
-19799.6250
 31
0.0000
 12
22692.7500
 22
-19799.6250
 32
0.0000
 13
22692.7500
 23
-19799.6250
 33
0.0000
  0
SOLID
  5
313
  8
מידות-פנים
 10
22652.7500
 20
-17055.8750
 30
0.0000
 11
22612.7500
 21
-16912.1250
 31
0.0000
 12
22692.7500
 22
-16912.1250
 32
0.0000
 13
22692.7500
 23
-16912.1250
 33
0.0000
  0
TEXT
  5
314
  8
מידות-פנים
 10
22534.0000
 20
-18355.8750
 30
0.0000
 40
125.0000
  1
260
 50
90.0000
  7
SOLINE
 72
1
 73
2
 11
22534.0000
 21
-18355.8750
 31
0.0000
  0
LINE
  5
315
  8
מבנה-מידות
 10
22852.7500
 20
-17015.8750
 30
0.0000
 11
22852.7500
 21
-16598.8750
 31
0.0000
  0
LINE
  5
316
  8
מבנה-מידות
 10
23852.7500
 20
-17015.8750
 30
0.0000
 11
23852.7500
 21
-16598.8750
 31
0.0000
  0
LINE
  5
317
  8
מבנה-מידות
 10
22852.7500
 20
-16655.8750
 30
0.0000
 11
23852.7500
 21
-16655.8750
 31
0.0000
  0
SOLID
  5
318
  8
מבנה-מידות
 10
22852.7500
 20
-16655.8750
 30
0.0000
 11
22743.5000
 21
-16625.4750
 31
0.0000
 12
22743.5000
 22
-16686.2750
 32
0.0000
 13
22743.5000
 23
-16686.2750
 33
0.0000
  0
SOLID
  5
319
  8
מבנה-מידות
 10
23852.7500
 20
-16655.8750
 30
0.0000
 11
23962.0000
 21
-16625.4750
 31
0.0000
 12
23962.0000
 22
-16686.2750
 32
0.0000
 13
23962.0000
 23
-16686.2750
 33
0.0000
  0
TEXT
  5
31A
  8
מבנה-מידות
 10
23352.7500
 20
-16565.6250
 30
0.0000
 40
95.0000
  1
100
 50
0.0000
  7
SOLINE
 72
1
 73
2
 11
23352.7500
 21
-16565.6250
 31
0.0000
  0
LINE
  5
31B
  8
מבנה-מידות
 10
23892.7500
 20
-17655.8750
 30
0.0000
 11
24309.7500
 21
-17655.8750
 31
0.0000
  0
LINE
  5
31C
  8
מבנה-מידות
 10
23892.7500
 20
-17055.8750
 30
0.0000
 11
24309.7500
 21
-17055.8750
 31
0.0000
  0
LINE
  5
31D
  8
מבנה-מידות
 10
24252.7500
 20
-17655.8750
 30
0.0000
 11
24252.7500
 21
-17055.8750
 31
0.0000
  0
SOLID
  5
31E
  8
מבנה-מידות
 10
24252.7500
 20
-17655.8750
 30
0.0000
 11
24283.1500
 21
-17765.1250
 31
0.0000
 12
24222.3500
 22
-17765.1250
 32
0.0000
 13
24222.3500
 23
-17765.1250
 33
0.0000
  0
SOLID
  5
31F
  8
מבנה-מידות
 10
24252.7500
 20
-17055.8750
 30
0.0000
 11
24283.1500
 21
-16946.6250
 31
0.0000
 12
24222.3500
 22
-16946.6250
 32
0.0000
 13
24222.3500
 23
-16946.6250
 33
0.0000
  0
TEXT
  5
320
  8
מבנה-מידות
 10
24343.0000
 20
-17355.8750
 30
0.0000
 40
95.0000
  1
60
 50
90.0000
  7
SOLINE
 72
1
 73
2
 11
24343.0000
 21
-17355.8750
 31
0.0000
  0
LINE
  5
321
  8
מבנה-מידות
 10
23892.7500
 20
-19655.8750
 30
0.0000
 11
24659.7500
 21
-19655.8750
 31
0.0000
  0
LINE
  5
322
  8
מבנה-מידות
 10
23892.7500
 20
-17655.8750
 30
0.0000
 11
24659.7500
 21
-17655.8750
 31
0.0000
  0
LINE
  5
323
  8
מבנה-מידות
 10
24602.7500
 20
-19655.8750
 30
0.0000
 11
24602.7500
 21
-17655.8750
 31
0.0000
  0
SOLID
  5
324
  8
מבנה-מידות
 10
24602.7500
 20
-19655.8750
 30
0.0000
 11
24633.1500
 21
-19765.1250
 31
0.0000
 12
24572.3500
 22
-19765.1250
 32
0.0000
 13
24572.3500
 23
-19765.1250
 33
0.0000
  0
SOLID
  5
325
  8
מבנה-מידות
 10
24602.7500
 20
-17655.8750
 30
0.0000
 11
24633.1500
 21
-17546.6250
 31
0.0000
 12
24572.3500
 22
-17546.6250
 32
0.0000
 13
24572.3500
 23
-17546.6250
 33
0.0000
  0
TEXT
  5
326
  8
מבנה-מידות
 10
24693.0000
 20
-18655.8750
 30
0.0000
 40
95.0000
  1
200
 50
90.0000
  7
SOLINE
 72
1
 73
2
 11
24693.0000
 21
-18655.8750
 31
0.0000
  0
LINE
  5
327
  8
מבנה-מידות
 10
24052.7500
 20
-19565.8750
 30
0.0000
 11
24052.7500
 21
-19148.8750
 31
0.0000
  0
LINE
  5
328
  8
מבנה-מידות
 10
24652.7500
 20
-19565.8750
 30
0.0000
 11
24652.7500
 21
-19148.8750
 31
0.0000
  0
LINE
  5
329
  8
מבנה-מידות
 10
24052.7500
 20
-19205.8750
 30
0.0000
 11
24652.7500
 21
-19205.8750
 31
0.0000
  0
SOLID
  5
32A
  8
מבנה-מידות
 10
24052.7500
 20
-19205.8750
 30
0.0000
 11
23943.5000
 21
-19175.4750
 31
0.0000
 12
23943.5000
 22
-19236.2750
 32
0.0000
 13
23943.5000
 23
-19236.2750
 33
0.0000
  0
SOLID
  5
32B
  8
מבנה-מידות
 10
24652.7500
 20
-19205.8750
 30
0.0000
 11
24762.0000
 21
-19175.4750
 31
0.0000
 12
24762.0000
 22
-19236.2750
 32
0.0000
 13
24762.0000
 23
-19236.2750
 33
0.0000
  0
TEXT
  5
32C
  8
מבנה-מידות
 10
24352.7500
 20
-19115.6250
 30
0.0000
 40
95.0000
  1
60
 50
0.0000
  7
SOLINE
 72
1
 73
2
 11
24352.7500
 21
-19115.6250
 31
0.0000
  0
LINE
  5
32D
  8
מבנה-מידות
 10
24692.7500
 20
-19655.8750
 30
0.0000
 11
25809.7500
 21
-19655.8750
 31
0.0000
  0
LINE
  5
32E
  8
מבנה-מידות
 10
24692.7500
 20
-19605.8750
 30
0.0000
 11
25809.7500
 21
-19605.8750
 31
0.0000
  0
LINE
  5
32F
  8
מבנה-מידות
 10
25752.7500
 20
-19655.8750
 30
0.0000
 11
25752.7500
 21
-19605.8750
 31
0.0000
  0
SOLID
  5
330
  8
מבנה-מידות
 10
25752.7500
 20
-19655.8750
 30
0.0000
 11
25783.1500
 21
-19765.1250
 31
0.0000
 12
25722.3500
 22
-19765.1250
 32
0.0000
 13
25722.3500
 23
-19765.1250
 33
0.0000
  0
SOLID
  5
331
  8
מבנה-מידות
 10
25752.7500
 20
-19605.8750
 30
0.0000
 11
25783.1500
 21
-19496.6250
 31
0.0000
 12
25722.3500
 22
-19496.6250
 32
0.0000
 13
25722.3500
 23
-19496.6250
 33
0.0000
  0
TEXT
  5
332
  8
מבנה-מידות
 10
25843.0000
 20
-19630.8750
 30
0.0000
 40
95.0000
  1
5
 50
90.0000
  7
SOLINE
 72
1
 73
2
 11
25843.0000
 21
-19630.8750
 31
0.0000
  0
LINE
  5
333
  8
גבול-גיליון
 10
-900.0000
 20
-21474.6250
 30
0.0000
 11
27096.5000
 21
-21474.6250
 31
0.0000
  0
LINE
  5
334
  8
גבול-גיליון
 10
27096.5000
 20
-21474.6250
 30
0.0000
 11
27096.5000
 21
900.0000
 31
0.0000
  0
LINE
  5
335
  8
גבול-גיליון
 10
27096.5000
 20
900.0000
 30
0.0000
 11
-900.0000
 21
900.0000
 31
0.0000
  0
LINE
  5
336
  8
גבול-גיליון
 10
-900.0000
 20
900.0000
 30
0.0000
 11
-900.0000
 21
-21474.6250
 31
0.0000
  0
ENDSEC
  0
EOF
