  0
SECTION
  2
HEADER
  9
$ACADVER
  1
AC1015
  9
$HANDSEED
  5
627
  9
$INSBASE
 10
0.0000
 20
0.0000
 30
0.0000
  9
$EXTMIN
 10
-2900.0000
 20
-13853.1250
 30
0.0000
  9
$EXTMAX
 10
23400.0000
 20
1400.0000
 30
0.0000
  9
$DWGCODEPAGE
  3
ansi_1255
  9
$INSUNITS
 70
4
  9
$MEASUREMENT
 70
1
  9
$LWDISPLAY
290
1
  9
$LTSCALE
 40
10.0000
  9
$LIMMIN
 10
0.0000
 20
0.0000
  9
$LIMMAX
 10
2000.0000
 20
200.0000
  0
ENDSEC
  0
SECTION
  2
TABLES
  0
TABLE
  2
VPORT
  5
4EF
330
0
100
AcDbSymbolTable
 70
1
  0
VPORT
  5
4F0
330
4EF
100
AcDbSymbolTableRecord
100
AcDbViewportTableRecord
  2
*ACTIVE
 70
0
 10
0.0000
 20
0.0000
 11
1.0000
 21
1.0000
 12
10250.0000
 22
-6226.5625
 13
0.0000
 23
0.0000
 14
10.0000
 24
10.0000
 15
10.0000
 25
10.0000
 16
0.0000
 26
0.0000
 36
1.0000
 17
0.0000
 27
0.0000
 37
0.0000
 40
17541.0938
 41
1.6000
 42
50.0000
 43
0.0000
 44
0.0000
 50
0.0000
 51
0.0000
 71
0
 72
100
 73
1
 74
1
 75
0
 76
0
 77
0
 78
0
  0
ENDTAB
  0
TABLE
  2
LTYPE
  5
4F1
330
0
100
AcDbSymbolTable
 70
4
  0
LTYPE
  5
4F2
330
4F1
100
AcDbSymbolTableRecord
100
AcDbLinetypeTableRecord
  2
ByBlock
 70
0
  3

 72
65
 73
0
 40
0.0000
  0
LTYPE
  5
4F3
330
4F1
100
AcDbSymbolTableRecord
100
AcDbLinetypeTableRecord
  2
ByLayer
 70
0
  3

 72
65
 73
0
 40
0.0000
  0
LTYPE
  5
4F4
330
4F1
100
AcDbSymbolTableRecord
100
AcDbLinetypeTableRecord
  2
CONTINUOUS
 70
0
  3
Solid line
 72
65
 73
0
 40
0.0000
  0
LTYPE
  5
4F5
330
4F1
100
AcDbSymbolTableRecord
100
AcDbLinetypeTableRecord
  2
HIDDEN
 70
0
  3
Hidden . . . . . .
 72
65
 73
2
 40
9.5250
 49
6.3500
 74
0
 49
-3.1750
 74
0
  0
ENDTAB
  0
TABLE
  2
LAYER
  5
4F6
330
0
100
AcDbSymbolTable
 70
32
  0
LAYER
  5
4F7
330
4F6
100
AcDbSymbolTableRecord
100
AcDbLayerTableRecord
  2
0
 70
0
 62
7
  6
CONTINUOUS
370
25
  0
LAYER
  5
4F8
330
4F6
100
AcDbSymbolTableRecord
100
AcDbLayerTableRecord
  2
SOL-KIROT
 70
0
 62
9
  6
CONTINUOUS
370
50
  0
LAYER
  5
4F9
330
4F6
100
AcDbSymbolTableRecord
100
AcDbLayerTableRecord
  2
SOL-KIROT-MILUY
 70
0
 62
8
  6
CONTINUOUS
370
13
  0
LAYER
  5
4FA
330
4F6
100
AcDbSymbolTableRecord
100
AcDbLayerTableRecord
  2
SOL-MIDOT-PNIM
 70
0
 62
3
  6
CONTINUOUS
370
13
  0
LAYER
  5
4FB
330
4F6
100
AcDbSymbolTableRecord
100
AcDbLayerTableRecord
  2
SOL-MIDOT-CHUTS
 70
0
 62
1
  6
CONTINUOUS
370
13
  0
LAYER
  5
4FC
330
4F6
100
AcDbSymbolTableRecord
100
AcDbLayerTableRecord
  2
SOL-PTACHIM
 70
0
 62
5
  6
CONTINUOUS
370
25
  0
LAYER
  5
4FD
330
4F6
100
AcDbSymbolTableRecord
100
AcDbLayerTableRecord
  2
SOL-CHASHMAL
 70
0
 62
6
  6
CONTINUOUS
370
25
  0
LAYER
  5
4FE
330
4F6
100
AcDbSymbolTableRecord
100
AcDbLayerTableRecord
  2
SOL-INSTALATSIA
 70
0
 62
4
  6
CONTINUOUS
370
25
  0
LAYER
  5
4FF
330
4F6
100
AcDbSymbolTableRecord
100
AcDbLayerTableRecord
  2
SOL-GAZ
 70
0
 62
2
  6
CONTINUOUS
370
25
  0
LAYER
  5
500
330
4F6
100
AcDbSymbolTableRecord
100
AcDbLayerTableRecord
  2
SOL-MIZUG
 70
0
 62
141
  6
CONTINUOUS
370
25
  0
LAYER
  5
501
330
4F6
100
AcDbSymbolTableRecord
100
AcDbLayerTableRecord
  2
SOL-TEURA
 70
0
 62
30
  6
CONTINUOUS
370
25
  0
LAYER
  5
502
330
4F6
100
AcDbSymbolTableRecord
100
AcDbLayerTableRecord
  2
SOL-MIVNE
 70
0
 62
9
  6
CONTINUOUS
370
35
  0
LAYER
  5
503
330
4F6
100
AcDbSymbolTableRecord
100
AcDbLayerTableRecord
  2
SOL-RIHUT
 70
0
 62
42
  6
CONTINUOUS
370
25
  0
LAYER
  5
504
330
4F6
100
AcDbSymbolTableRecord
100
AcDbLayerTableRecord
  2
SOL-TEKST
 70
0
 62
7
  6
CONTINUOUS
370
18
  0
LAYER
  5
505
330
4F6
100
AcDbSymbolTableRecord
100
AcDbLayerTableRecord
  2
SOL-MISGERET
 70
0
 62
250
  6
CONTINUOUS
370
18
  0
LAYER
  5
506
330
4F6
100
AcDbSymbolTableRecord
100
AcDbLayerTableRecord
  2
SOL-RITZPA
 70
0
 62
8
  6
CONTINUOUS
370
13
  0
LAYER
  5
507
330
4F6
100
AcDbSymbolTableRecord
100
AcDbLayerTableRecord
  2
SOL-DIM-PTACHIM-1001
 70
0
 62
5
  6
CONTINUOUS
370
13
  0
LAYER
  5
508
330
4F6
100
AcDbSymbolTableRecord
100
AcDbLayerTableRecord
  2
SOL-DIM-PTACHIM-1002
 70
0
 62
5
  6
CONTINUOUS
370
13
  0
LAYER
  5
509
330
4F6
100
AcDbSymbolTableRecord
100
AcDbLayerTableRecord
  2
SOL-DIM-PTACHIM-1003
 70
0
 62
5
  6
CONTINUOUS
370
13
  0
LAYER
  5
50A
330
4F6
100
AcDbSymbolTableRecord
100
AcDbLayerTableRecord
  2
SOL-DIM-CHASHMAL-1
 70
0
 62
6
  6
CONTINUOUS
370
13
  0
LAYER
  5
50B
330
4F6
100
AcDbSymbolTableRecord
100
AcDbLayerTableRecord
  2
SOL-DIM-CHASHMAL-2
 70
0
 62
6
  6
CONTINUOUS
370
13
  0
LAYER
  5
50C
330
4F6
100
AcDbSymbolTableRecord
100
AcDbLayerTableRecord
  2
SOL-DIM-GAZ-3
 70
0
 62
2
  6
CONTINUOUS
370
13
  0
LAYER
  5
50D
330
4F6
100
AcDbSymbolTableRecord
100
AcDbLayerTableRecord
  2
SOL-DIM-INSTALATSIA-4
 70
0
 62
4
  6
CONTINUOUS
370
13
  0
LAYER
  5
50E
330
4F6
100
AcDbSymbolTableRecord
100
AcDbLayerTableRecord
  2
SOL-DIM-INSTALATSIA-5
 70
0
 62
4
  6
CONTINUOUS
370
13
  0
LAYER
  5
50F
330
4F6
100
AcDbSymbolTableRecord
100
AcDbLayerTableRecord
  2
SOL-DIM-INSTALATSIA-6
 70
0
 62
4
  6
CONTINUOUS
370
13
  0
LAYER
  5
510
330
4F6
100
AcDbSymbolTableRecord
100
AcDbLayerTableRecord
  2
SOL-DIM-CHASHMAL-7
 70
0
 62
6
  6
CONTINUOUS
370
13
  0
LAYER
  5
511
330
4F6
100
AcDbSymbolTableRecord
100
AcDbLayerTableRecord
  2
SOL-DIM-PTACHIM-8
 70
0
 62
5
  6
CONTINUOUS
370
13
  0
LAYER
  5
512
330
4F6
100
AcDbSymbolTableRecord
100
AcDbLayerTableRecord
  2
SOL-DIM-PTACHIM-9
 70
0
 62
5
  6
CONTINUOUS
370
13
  0
LAYER
  5
513
330
4F6
100
AcDbSymbolTableRecord
100
AcDbLayerTableRecord
  2
SOL-DIM-CHASHMAL-10
 70
0
 62
6
  6
CONTINUOUS
370
13
  0
LAYER
  5
514
330
4F6
100
AcDbSymbolTableRecord
100
AcDbLayerTableRecord
  2
SOL-DIM-PTACHIM-11
 70
0
 62
5
  6
CONTINUOUS
370
13
  0
LAYER
  5
A0000
330
4F6
100
AcDbSymbolTableRecord
100
AcDbLayerTableRecord
  2
SOL-REG
 70
0
 62
-8
  6
CONTINUOUS
370
-3
  0
LAYER
  5
A0001
330
4F6
100
AcDbSymbolTableRecord
100
AcDbLayerTableRecord
  2
SOL-IPMARK
 70
0
 62
-8
  6
CONTINUOUS
370
-3
  0
ENDTAB
  0
TABLE
  2
STYLE
  5
515
330
0
100
AcDbSymbolTable
 70
1
  0
STYLE
  5
516
330
515
100
AcDbSymbolTableRecord
100
AcDbTextStyleTableRecord
  2
SOLINE
 70
0
 40
0.0000
 41
1.0000
 50
0.0000
 71
0
 42
2.5000
  3
arial.ttf
  4

  0
ENDTAB
  0
TABLE
  2
APPID
  5
517
330
0
100
AcDbSymbolTable
 70
2
  0
APPID
  5
518
330
517
100
AcDbSymbolTableRecord
100
AcDbRegAppTableRecord
  2
ACAD
 70
0
  0
APPID
  5
AFP1
100
AcDbSymbolTableRecord
100
AcDbRegAppTableRecord
  2
SOLINE
 70
0
  0
ENDTAB
  0
TABLE
  2
BLOCK_RECORD
  5
519
330
0
100
AcDbSymbolTable
 70
9
  0
BLOCK_RECORD
  5
51A
330
519
100
AcDbSymbolTableRecord
100
AcDbBlockTableRecord
  2
*Model_Space
 70
0
  0
BLOCK_RECORD
  5
51B
330
519
100
AcDbSymbolTableRecord
100
AcDbBlockTableRecord
  2
*Paper_Space
 70
0
  0
BLOCK_RECORD
  5
51C
330
519
100
AcDbSymbolTableRecord
100
AcDbBlockTableRecord
  2
SS_socket_single_80x80
 70
0
  0
BLOCK_RECORD
  5
51D
330
519
100
AcDbSymbolTableRecord
100
AcDbBlockTableRecord
  2
SS_socket_duplex_160x80
 70
0
  0
BLOCK_RECORD
  5
51E
330
519
100
AcDbSymbolTableRecord
100
AcDbBlockTableRecord
  2
SS_gas_point_20x80
 70
0
  0
BLOCK_RECORD
  5
51F
330
519
100
AcDbSymbolTableRecord
100
AcDbBlockTableRecord
  2
SS_water_faucet_20x80
 70
0
  0
BLOCK_RECORD
  5
520
330
519
100
AcDbSymbolTableRecord
100
AcDbBlockTableRecord
  2
SS_water_point_20x80
 70
0
  0
BLOCK_RECORD
  5
521
330
519
100
AcDbSymbolTableRecord
100
AcDbBlockTableRecord
  2
SS_sewage_point_50x80
 70
0
  0
BLOCK_RECORD
  5
522
330
519
100
AcDbSymbolTableRecord
100
AcDbBlockTableRecord
  2
SS_junction_box_80x80
 70
0
  0
ENDTAB
  0
ENDSEC
  0
SECTION
  2
BLOCKS
  0
BLOCK
  5
523
330
51A
100
AcDbEntity
  8
0
100
AcDbBlockBegin
  2
*Model_Space
 70
0
 10
0.0000
 20
0.0000
 30
0.0000
  3
*Model_Space
  1

  0
ENDBLK
  5
524
330
51A
100
AcDbEntity
  8
0
100
AcDbBlockEnd
  0
BLOCK
  5
525
330
51B
100
AcDbEntity
  8
0
100
AcDbBlockBegin
  2
*Paper_Space
 70
0
 10
0.0000
 20
0.0000
 30
0.0000
  3
*Paper_Space
  1

  0
ENDBLK
  5
526
330
51B
100
AcDbEntity
  8
0
100
AcDbBlockEnd
  0
BLOCK
  5
527
330
51C
100
AcDbEntity
  8
0
100
AcDbBlockBegin
  2
SS_socket_single_80x80
 70
0
 10
0.0000
 20
0.0000
 30
0.0000
  3
SS_socket_single_80x80
  1

  0
LINE
  5
528
  8
0
 10
0.0000
 20
0.0000
 30
0.0000
 11
0.0000
 21
22.4000
 31
0.0000
  0
LINE
  5
529
  8
0
 10
-24.0000
 20
46.4000
 30
0.0000
 11
-23.8491
 21
49.0871
 31
0.0000
  0
LINE
  5
52A
  8
0
 10
-23.8491
 20
49.0871
 30
0.0000
 11
-23.3983
 21
51.7405
 31
0.0000
  0
LINE
  5
52B
  8
0
 10
-23.3983
 20
51.7405
 30
0.0000
 11
-22.6532
 21
54.3267
 31
0.0000
  0
LINE
  5
52C
  8
0
 10
-22.6532
 20
54.3267
 30
0.0000
 11
-21.6233
 21
56.8132
 31
0.0000
  0
LINE
  5
52D
  8
0
 10
-21.6233
 20
56.8132
 30
0.0000
 11
-20.3214
 21
59.1688
 31
0.0000
  0
LINE
  5
52E
  8
0
 10
-20.3214
 20
59.1688
 30
0.0000
 11
-18.7640
 21
61.3638
 31
0.0000
  0
LINE
  5
52F
  8
0
 10
-18.7640
 20
61.3638
 30
0.0000
 11
-16.9706
 21
63.3706
 31
0.0000
  0
LINE
  5
530
  8
0
 10
-16.9706
 20
63.3706
 30
0.0000
 11
-14.9638
 21
65.1640
 31
0.0000
  0
LINE
  5
531
  8
0
 10
-14.9638
 20
65.1640
 30
0.0000
 11
-12.7688
 21
66.7214
 31
0.0000
  0
LINE
  5
532
  8
0
 10
-12.7688
 20
66.7214
 30
0.0000
 11
-10.4132
 21
68.0233
 31
0.0000
  0
LINE
  5
533
  8
0
 10
-10.4132
 20
68.0233
 30
0.0000
 11
-7.9267
 21
69.0532
 31
0.0000
  0
LINE
  5
534
  8
0
 10
-7.9267
 20
69.0532
 30
0.0000
 11
-5.3405
 21
69.7983
 31
0.0000
  0
LINE
  5
535
  8
0
 10
-5.3405
 20
69.7983
 30
0.0000
 11
-2.6871
 21
70.2491
 31
0.0000
  0
LINE
  5
536
  8
0
 10
-2.6871
 20
70.2491
 30
0.0000
 11
0.0000
 21
70.4000
 31
0.0000
  0
LINE
  5
537
  8
0
 10
0.0000
 20
70.4000
 30
0.0000
 11
2.6871
 21
70.2491
 31
0.0000
  0
LINE
  5
538
  8
0
 10
2.6871
 20
70.2491
 30
0.0000
 11
5.3405
 21
69.7983
 31
0.0000
  0
LINE
  5
539
  8
0
 10
5.3405
 20
69.7983
 30
0.0000
 11
7.9267
 21
69.0532
 31
0.0000
  0
LINE
  5
53A
  8
0
 10
7.9267
 20
69.0532
 30
0.0000
 11
10.4132
 21
68.0233
 31
0.0000
  0
LINE
  5
53B
  8
0
 10
10.4132
 20
68.0233
 30
0.0000
 11
12.7688
 21
66.7214
 31
0.0000
  0
LINE
  5
53C
  8
0
 10
12.7688
 20
66.7214
 30
0.0000
 11
14.9638
 21
65.1640
 31
0.0000
  0
LINE
  5
53D
  8
0
 10
14.9638
 20
65.1640
 30
0.0000
 11
16.9706
 21
63.3706
 31
0.0000
  0
LINE
  5
53E
  8
0
 10
16.9706
 20
63.3706
 30
0.0000
 11
18.7640
 21
61.3638
 31
0.0000
  0
LINE
  5
53F
  8
0
 10
18.7640
 20
61.3638
 30
0.0000
 11
20.3214
 21
59.1688
 31
0.0000
  0
LINE
  5
540
  8
0
 10
20.3214
 20
59.1688
 30
0.0000
 11
21.6233
 21
56.8132
 31
0.0000
  0
LINE
  5
541
  8
0
 10
21.6233
 20
56.8132
 30
0.0000
 11
22.6532
 21
54.3267
 31
0.0000
  0
LINE
  5
542
  8
0
 10
22.6532
 20
54.3267
 30
0.0000
 11
23.3983
 21
51.7405
 31
0.0000
  0
LINE
  5
543
  8
0
 10
23.3983
 20
51.7405
 30
0.0000
 11
23.8491
 21
49.0871
 31
0.0000
  0
LINE
  5
544
  8
0
 10
23.8491
 20
49.0871
 30
0.0000
 11
24.0000
 21
46.4000
 31
0.0000
  0
LINE
  5
545
  8
0
 10
-24.0000
 20
46.4000
 30
0.0000
 11
24.0000
 21
46.4000
 31
0.0000
  0
LINE
  5
546
  8
0
 10
0.0000
 20
46.4000
 30
0.0000
 11
0.0000
 21
29.6000
 31
0.0000
  0
ENDBLK
  5
547
330
51C
100
AcDbEntity
  8
0
100
AcDbBlockEnd
  0
BLOCK
  5
548
330
51D
100
AcDbEntity
  8
0
100
AcDbBlockBegin
  2
SS_socket_duplex_160x80
 70
0
 10
0.0000
 20
0.0000
 30
0.0000
  3
SS_socket_duplex_160x80
  1

  0
LINE
  5
549
  8
0
 10
0.0000
 20
0.0000
 30
0.0000
 11
0.0000
 21
28.8000
 31
0.0000
  0
LINE
  5
54A
  8
0
 10
-72.1600
 20
46.4000
 30
0.0000
 11
-71.9387
 21
48.3706
 31
0.0000
  0
LINE
  5
54B
  8
0
 10
-71.9387
 20
48.3706
 30
0.0000
 11
-71.2775
 21
50.3164
 31
0.0000
  0
LINE
  5
54C
  8
0
 10
-71.2775
 20
50.3164
 30
0.0000
 11
-70.1847
 21
52.2129
 31
0.0000
  0
LINE
  5
54D
  8
0
 10
-70.1847
 20
52.2129
 30
0.0000
 11
-68.6741
 21
54.0364
 31
0.0000
  0
LINE
  5
54E
  8
0
 10
-68.6741
 20
54.0364
 30
0.0000
 11
-66.7647
 21
55.7638
 31
0.0000
  0
LINE
  5
54F
  8
0
 10
-66.7647
 20
55.7638
 30
0.0000
 11
-64.4805
 21
57.3734
 31
0.0000
  0
LINE
  5
550
  8
0
 10
-64.4805
 20
57.3734
 30
0.0000
 11
-61.8502
 21
58.8451
 31
0.0000
  0
LINE
  5
551
  8
0
 10
-61.8502
 20
58.8451
 30
0.0000
 11
-58.9068
 21
60.1602
 31
0.0000
  0
LINE
  5
552
  8
0
 10
-58.9068
 20
60.1602
 30
0.0000
 11
-55.6875
 21
61.3023
 31
0.0000
  0
LINE
  5
553
  8
0
 10
-55.6875
 20
61.3023
 30
0.0000
 11
-52.2327
 21
62.2571
 31
0.0000
  0
LINE
  5
554
  8
0
 10
-52.2327
 20
62.2571
 30
0.0000
 11
-48.5858
 21
63.0123
 31
0.0000
  0
LINE
  5
555
  8
0
 10
-48.5858
 20
63.0123
 30
0.0000
 11
-44.7927
 21
63.5587
 31
0.0000
  0
LINE
  5
556
  8
0
 10
-44.7927
 20
63.5587
 30
0.0000
 11
-40.9011
 21
63.8893
 31
0.0000
  0
LINE
  5
557
  8
0
 10
-40.9011
 20
63.8893
 30
0.0000
 11
-36.9600
 21
64.0000
 31
0.0000
  0
LINE
  5
558
  8
0
 10
-36.9600
 20
64.0000
 30
0.0000
 11
-33.0189
 21
63.8893
 31
0.0000
  0
LINE
  5
559
  8
0
 10
-33.0189
 20
63.8893
 30
0.0000
 11
-29.1273
 21
63.5587
 31
0.0000
  0
LINE
  5
55A
  8
0
 10
-29.1273
 20
63.5587
 30
0.0000
 11
-25.3342
 21
63.0123
 31
0.0000
  0
LINE
  5
55B
  8
0
 10
-25.3342
 20
63.0123
 30
0.0000
 11
-21.6873
 21
62.2571
 31
0.0000
  0
LINE
  5
55C
  8
0
 10
-21.6873
 20
62.2571
 30
0.0000
 11
-18.2325
 21
61.3023
 31
0.0000
  0
LINE
  5
55D
  8
0
 10
-18.2325
 20
61.3023
 30
0.0000
 11
-15.0132
 21
60.1602
 31
0.0000
  0
LINE
  5
55E
  8
0
 10
-15.0132
 20
60.1602
 30
0.0000
 11
-12.0698
 21
58.8451
 31
0.0000
  0
LINE
  5
55F
  8
0
 10
-12.0698
 20
58.8451
 30
0.0000
 11
-9.4395
 21
57.3734
 31
0.0000
  0
LINE
  5
560
  8
0
 10
-9.4395
 20
57.3734
 30
0.0000
 11
-7.1553
 21
55.7638
 31
0.0000
  0
LINE
  5
561
  8
0
 10
-7.1553
 20
55.7638
 30
0.0000
 11
-5.2459
 21
54.0364
 31
0.0000
  0
LINE
  5
562
  8
0
 10
-5.2459
 20
54.0364
 30
0.0000
 11
-3.7353
 21
52.2129
 31
0.0000
  0
LINE
  5
563
  8
0
 10
-3.7353
 20
52.2129
 30
0.0000
 11
-2.6425
 21
50.3164
 31
0.0000
  0
LINE
  5
564
  8
0
 10
-2.6425
 20
50.3164
 30
0.0000
 11
-1.9813
 21
48.3706
 31
0.0000
  0
LINE
  5
565
  8
0
 10
-1.9813
 20
48.3706
 30
0.0000
 11
-1.7600
 21
46.4000
 31
0.0000
  0
LINE
  5
566
  8
0
 10
-72.1600
 20
46.4000
 30
0.0000
 11
-1.7600
 21
46.4000
 31
0.0000
  0
LINE
  5
567
  8
0
 10
-36.9600
 20
46.4000
 30
0.0000
 11
-36.9600
 21
34.0800
 31
0.0000
  0
LINE
  5
568
  8
0
 10
1.7600
 20
46.4000
 30
0.0000
 11
1.9813
 21
48.3706
 31
0.0000
  0
LINE
  5
569
  8
0
 10
1.9813
 20
48.3706
 30
0.0000
 11
2.6425
 21
50.3164
 31
0.0000
  0
LINE
  5
56A
  8
0
 10
2.6425
 20
50.3164
 30
0.0000
 11
3.7353
 21
52.2129
 31
0.0000
  0
LINE
  5
56B
  8
0
 10
3.7353
 20
52.2129
 30
0.0000
 11
5.2459
 21
54.0364
 31
0.0000
  0
LINE
  5
56C
  8
0
 10
5.2459
 20
54.0364
 30
0.0000
 11
7.1553
 21
55.7638
 31
0.0000
  0
LINE
  5
56D
  8
0
 10
7.1553
 20
55.7638
 30
0.0000
 11
9.4395
 21
57.3734
 31
0.0000
  0
LINE
  5
56E
  8
0
 10
9.4395
 20
57.3734
 30
0.0000
 11
12.0698
 21
58.8451
 31
0.0000
  0
LINE
  5
56F
  8
0
 10
12.0698
 20
58.8451
 30
0.0000
 11
15.0132
 21
60.1602
 31
0.0000
  0
LINE
  5
570
  8
0
 10
15.0132
 20
60.1602
 30
0.0000
 11
18.2325
 21
61.3023
 31
0.0000
  0
LINE
  5
571
  8
0
 10
18.2325
 20
61.3023
 30
0.0000
 11
21.6873
 21
62.2571
 31
0.0000
  0
LINE
  5
572
  8
0
 10
21.6873
 20
62.2571
 30
0.0000
 11
25.3342
 21
63.0123
 31
0.0000
  0
LINE
  5
573
  8
0
 10
25.3342
 20
63.0123
 30
0.0000
 11
29.1273
 21
63.5587
 31
0.0000
  0
LINE
  5
574
  8
0
 10
29.1273
 20
63.5587
 30
0.0000
 11
33.0189
 21
63.8893
 31
0.0000
  0
LINE
  5
575
  8
0
 10
33.0189
 20
63.8893
 30
0.0000
 11
36.9600
 21
64.0000
 31
0.0000
  0
LINE
  5
576
  8
0
 10
36.9600
 20
64.0000
 30
0.0000
 11
40.9011
 21
63.8893
 31
0.0000
  0
LINE
  5
577
  8
0
 10
40.9011
 20
63.8893
 30
0.0000
 11
44.7927
 21
63.5587
 31
0.0000
  0
LINE
  5
578
  8
0
 10
44.7927
 20
63.5587
 30
0.0000
 11
48.5858
 21
63.0123
 31
0.0000
  0
LINE
  5
579
  8
0
 10
48.5858
 20
63.0123
 30
0.0000
 11
52.2327
 21
62.2571
 31
0.0000
  0
LINE
  5
57A
  8
0
 10
52.2327
 20
62.2571
 30
0.0000
 11
55.6875
 21
61.3023
 31
0.0000
  0
LINE
  5
57B
  8
0
 10
55.6875
 20
61.3023
 30
0.0000
 11
58.9068
 21
60.1602
 31
0.0000
  0
LINE
  5
57C
  8
0
 10
58.9068
 20
60.1602
 30
0.0000
 11
61.8502
 21
58.8451
 31
0.0000
  0
LINE
  5
57D
  8
0
 10
61.8502
 20
58.8451
 30
0.0000
 11
64.4805
 21
57.3734
 31
0.0000
  0
LINE
  5
57E
  8
0
 10
64.4805
 20
57.3734
 30
0.0000
 11
66.7647
 21
55.7638
 31
0.0000
  0
LINE
  5
57F
  8
0
 10
66.7647
 20
55.7638
 30
0.0000
 11
68.6741
 21
54.0364
 31
0.0000
  0
LINE
  5
580
  8
0
 10
68.6741
 20
54.0364
 30
0.0000
 11
70.1847
 21
52.2129
 31
0.0000
  0
LINE
  5
581
  8
0
 10
70.1847
 20
52.2129
 30
0.0000
 11
71.2775
 21
50.3164
 31
0.0000
  0
LINE
  5
582
  8
0
 10
71.2775
 20
50.3164
 30
0.0000
 11
71.9387
 21
48.3706
 31
0.0000
  0
LINE
  5
583
  8
0
 10
71.9387
 20
48.3706
 30
0.0000
 11
72.1600
 21
46.4000
 31
0.0000
  0
LINE
  5
584
  8
0
 10
1.7600
 20
46.4000
 30
0.0000
 11
72.1600
 21
46.4000
 31
0.0000
  0
LINE
  5
585
  8
0
 10
36.9600
 20
46.4000
 30
0.0000
 11
36.9600
 21
34.0800
 31
0.0000
  0
ENDBLK
  5
586
330
51D
100
AcDbEntity
  8
0
100
AcDbBlockEnd
  0
BLOCK
  5
587
330
51E
100
AcDbEntity
  8
0
100
AcDbBlockBegin
  2
SS_gas_point_20x80
 70
0
 10
0.0000
 20
0.0000
 30
0.0000
  3
SS_gas_point_20x80
  1

  0
LINE
  5
588
  8
0
 10
0.0000
 20
0.0000
 30
0.0000
 11
0.0000
 21
57.6000
 31
0.0000
  0
LINE
  5
589
  8
0
 10
0.0000
 20
64.0000
 30
0.0000
 11
5.2000
 21
52.0000
 31
0.0000
  0
LINE
  5
58A
  8
0
 10
5.2000
 20
52.0000
 30
0.0000
 11
5.2000
 21
28.0000
 31
0.0000
  0
LINE
  5
58B
  8
0
 10
5.2000
 20
28.0000
 30
0.0000
 11
0.0000
 21
16.0000
 31
0.0000
  0
LINE
  5
58C
  8
0
 10
0.0000
 20
16.0000
 30
0.0000
 11
-5.2000
 21
28.0000
 31
0.0000
  0
LINE
  5
58D
  8
0
 10
-5.2000
 20
28.0000
 30
0.0000
 11
-5.2000
 21
52.0000
 31
0.0000
  0
LINE
  5
58E
  8
0
 10
-5.2000
 20
52.0000
 30
0.0000
 11
0.0000
 21
64.0000
 31
0.0000
  0
TEXT
  5
58F
  8
0
 10
0.0000
 20
35.2000
 30
0.0000
 40
24.0000
  1
G
 50
0.0000
  7
SOLINE
 72
1
 73
2
 11
0.0000
 21
35.2000
 31
0.0000
  0
ENDBLK
  5
590
330
51E
100
AcDbEntity
  8
0
100
AcDbBlockEnd
  0
BLOCK
  5
591
330
51F
100
AcDbEntity
  8
0
100
AcDbBlockBegin
  2
SS_water_faucet_20x80
 70
0
 10
0.0000
 20
0.0000
 30
0.0000
  3
SS_water_faucet_20x80
  1

  0
LINE
  5
592
  8
0
 10
0.0000
 20
0.0000
 30
0.0000
 11
0.0000
 21
52.8000
 31
0.0000
  0
LINE
  5
593
  8
0
 10
4.8000
 20
40.0000
 30
0.0000
 11
4.7078
 21
36.2543
 31
0.0000
  0
LINE
  5
594
  8
0
 10
4.7078
 20
36.2543
 30
0.0000
 11
4.4346
 21
32.6525
 31
0.0000
  0
LINE
  5
595
  8
0
 10
4.4346
 20
32.6525
 30
0.0000
 11
3.9911
 21
29.3331
 31
0.0000
  0
LINE
  5
596
  8
0
 10
3.9911
 20
29.3331
 30
0.0000
 11
3.3941
 21
26.4235
 31
0.0000
  0
LINE
  5
597
  8
0
 10
3.3941
 20
26.4235
 30
0.0000
 11
2.6667
 21
24.0358
 31
0.0000
  0
LINE
  5
598
  8
0
 10
2.6667
 20
24.0358
 30
0.0000
 11
1.8369
 21
22.2615
 31
0.0000
  0
LINE
  5
599
  8
0
 10
1.8369
 20
22.2615
 30
0.0000
 11
0.9364
 21
21.1689
 31
0.0000
  0
LINE
  5
59A
  8
0
 10
0.9364
 20
21.1689
 30
0.0000
 11
0.0000
 21
20.8000
 31
0.0000
  0
LINE
  5
59B
  8
0
 10
0.0000
 20
20.8000
 30
0.0000
 11
-0.9364
 21
21.1689
 31
0.0000
  0
LINE
  5
59C
  8
0
 10
-0.9364
 20
21.1689
 30
0.0000
 11
-1.8369
 21
22.2615
 31
0.0000
  0
LINE
  5
59D
  8
0
 10
-1.8369
 20
22.2615
 30
0.0000
 11
-2.6667
 21
24.0358
 31
0.0000
  0
LINE
  5
59E
  8
0
 10
-2.6667
 20
24.0358
 30
0.0000
 11
-3.3941
 21
26.4235
 31
0.0000
  0
LINE
  5
59F
  8
0
 10
-3.3941
 20
26.4235
 30
0.0000
 11
-3.9911
 21
29.3331
 31
0.0000
  0
LINE
  5
5A0
  8
0
 10
-3.9911
 20
29.3331
 30
0.0000
 11
-4.4346
 21
32.6525
 31
0.0000
  0
LINE
  5
5A1
  8
0
 10
-4.4346
 20
32.6525
 30
0.0000
 11
-4.7078
 21
36.2543
 31
0.0000
  0
LINE
  5
5A2
  8
0
 10
-4.7078
 20
36.2543
 30
0.0000
 11
-4.8000
 21
40.0000
 31
0.0000
  0
LINE
  5
5A3
  8
0
 10
-4.8000
 20
40.0000
 30
0.0000
 11
-4.7078
 21
43.7457
 31
0.0000
  0
LINE
  5
5A4
  8
0
 10
-4.7078
 20
43.7457
 30
0.0000
 11
-4.4346
 21
47.3475
 31
0.0000
  0
LINE
  5
5A5
  8
0
 10
-4.4346
 20
47.3475
 30
0.0000
 11
-3.9911
 21
50.6669
 31
0.0000
  0
LINE
  5
5A6
  8
0
 10
-3.9911
 20
50.6669
 30
0.0000
 11
-3.3941
 21
53.5765
 31
0.0000
  0
LINE
  5
5A7
  8
0
 10
-3.3941
 20
53.5765
 30
0.0000
 11
-2.6667
 21
55.9642
 31
0.0000
  0
LINE
  5
5A8
  8
0
 10
-2.6667
 20
55.9642
 30
0.0000
 11
-1.8369
 21
57.7385
 31
0.0000
  0
LINE
  5
5A9
  8
0
 10
-1.8369
 20
57.7385
 30
0.0000
 11
-0.9364
 21
58.8311
 31
0.0000
  0
LINE
  5
5AA
  8
0
 10
-0.9364
 20
58.8311
 30
0.0000
 11
0.0000
 21
59.2000
 31
0.0000
  0
LINE
  5
5AB
  8
0
 10
0.0000
 20
59.2000
 30
0.0000
 11
0.9364
 21
58.8311
 31
0.0000
  0
LINE
  5
5AC
  8
0
 10
0.9364
 20
58.8311
 30
0.0000
 11
1.8369
 21
57.7385
 31
0.0000
  0
LINE
  5
5AD
  8
0
 10
1.8369
 20
57.7385
 30
0.0000
 11
2.6667
 21
55.9642
 31
0.0000
  0
LINE
  5
5AE
  8
0
 10
2.6667
 20
55.9642
 30
0.0000
 11
3.3941
 21
53.5765
 31
0.0000
  0
LINE
  5
5AF
  8
0
 10
3.3941
 20
53.5765
 30
0.0000
 11
3.9911
 21
50.6669
 31
0.0000
  0
LINE
  5
5B0
  8
0
 10
3.9911
 20
50.6669
 30
0.0000
 11
4.4346
 21
47.3475
 31
0.0000
  0
LINE
  5
5B1
  8
0
 10
4.4346
 20
47.3475
 30
0.0000
 11
4.7078
 21
43.7457
 31
0.0000
  0
LINE
  5
5B2
  8
0
 10
4.7078
 20
43.7457
 30
0.0000
 11
4.8000
 21
40.0000
 31
0.0000
  0
LINE
  5
5B3
  8
0
 10
1.6000
 20
40.0000
 30
0.0000
 11
1.5693
 21
38.7514
 31
0.0000
  0
LINE
  5
5B4
  8
0
 10
1.5693
 20
38.7514
 30
0.0000
 11
1.4782
 21
37.5508
 31
0.0000
  0
LINE
  5
5B5
  8
0
 10
1.4782
 20
37.5508
 30
0.0000
 11
1.3304
 21
36.4444
 31
0.0000
  0
LINE
  5
5B6
  8
0
 10
1.3304
 20
36.4444
 30
0.0000
 11
1.1314
 21
35.4745
 31
0.0000
  0
LINE
  5
5B7
  8
0
 10
1.1314
 20
35.4745
 30
0.0000
 11
0.8889
 21
34.6786
 31
0.0000
  0
LINE
  5
5B8
  8
0
 10
0.8889
 20
34.6786
 30
0.0000
 11
0.6123
 21
34.0872
 31
0.0000
  0
LINE
  5
5B9
  8
0
 10
0.6123
 20
34.0872
 30
0.0000
 11
0.3121
 21
33.7230
 31
0.0000
  0
LINE
  5
5BA
  8
0
 10
0.3121
 20
33.7230
 30
0.0000
 11
0.0000
 21
33.6000
 31
0.0000
  0
LINE
  5
5BB
  8
0
 10
0.0000
 20
33.6000
 30
0.0000
 11
-0.3121
 21
33.7230
 31
0.0000
  0
LINE
  5
5BC
  8
0
 10
-0.3121
 20
33.7230
 30
0.0000
 11
-0.6123
 21
34.0872
 31
0.0000
  0
LINE
  5
5BD
  8
0
 10
-0.6123
 20
34.0872
 30
0.0000
 11
-0.8889
 21
34.6786
 31
0.0000
  0
LINE
  5
5BE
  8
0
 10
-0.8889
 20
34.6786
 30
0.0000
 11
-1.1314
 21
35.4745
 31
0.0000
  0
LINE
  5
5BF
  8
0
 10
-1.1314
 20
35.4745
 30
0.0000
 11
-1.3304
 21
36.4444
 31
0.0000
  0
LINE
  5
5C0
  8
0
 10
-1.3304
 20
36.4444
 30
0.0000
 11
-1.4782
 21
37.5508
 31
0.0000
  0
LINE
  5
5C1
  8
0
 10
-1.4782
 20
37.5508
 30
0.0000
 11
-1.5693
 21
38.7514
 31
0.0000
  0
LINE
  5
5C2
  8
0
 10
-1.5693
 20
38.7514
 30
0.0000
 11
-1.6000
 21
40.0000
 31
0.0000
  0
LINE
  5
5C3
  8
0
 10
-1.6000
 20
40.0000
 30
0.0000
 11
-1.5693
 21
41.2486
 31
0.0000
  0
LINE
  5
5C4
  8
0
 10
-1.5693
 20
41.2486
 30
0.0000
 11
-1.4782
 21
42.4492
 31
0.0000
  0
LINE
  5
5C5
  8
0
 10
-1.4782
 20
42.4492
 30
0.0000
 11
-1.3304
 21
43.5556
 31
0.0000
  0
LINE
  5
5C6
  8
0
 10
-1.3304
 20
43.5556
 30
0.0000
 11
-1.1314
 21
44.5255
 31
0.0000
  0
LINE
  5
5C7
  8
0
 10
-1.1314
 20
44.5255
 30
0.0000
 11
-0.8889
 21
45.3214
 31
0.0000
  0
LINE
  5
5C8
  8
0
 10
-0.8889
 20
45.3214
 30
0.0000
 11
-0.6123
 21
45.9128
 31
0.0000
  0
LINE
  5
5C9
  8
0
 10
-0.6123
 20
45.9128
 30
0.0000
 11
-0.3121
 21
46.2770
 31
0.0000
  0
LINE
  5
5CA
  8
0
 10
-0.3121
 20
46.2770
 30
0.0000
 11
0.0000
 21
46.4000
 31
0.0000
  0
LINE
  5
5CB
  8
0
 10
0.0000
 20
46.4000
 30
0.0000
 11
0.3121
 21
46.2770
 31
0.0000
  0
LINE
  5
5CC
  8
0
 10
0.3121
 20
46.2770
 30
0.0000
 11
0.6123
 21
45.9128
 31
0.0000
  0
LINE
  5
5CD
  8
0
 10
0.6123
 20
45.9128
 30
0.0000
 11
0.8889
 21
45.3214
 31
0.0000
  0
LINE
  5
5CE
  8
0
 10
0.8889
 20
45.3214
 30
0.0000
 11
1.1314
 21
44.5255
 31
0.0000
  0
LINE
  5
5CF
  8
0
 10
1.1314
 20
44.5255
 30
0.0000
 11
1.3304
 21
43.5556
 31
0.0000
  0
LINE
  5
5D0
  8
0
 10
1.3304
 20
43.5556
 30
0.0000
 11
1.4782
 21
42.4492
 31
0.0000
  0
LINE
  5
5D1
  8
0
 10
1.4782
 20
42.4492
 30
0.0000
 11
1.5693
 21
41.2486
 31
0.0000
  0
LINE
  5
5D2
  8
0
 10
1.5693
 20
41.2486
 30
0.0000
 11
1.6000
 21
40.0000
 31
0.0000
  0
ENDBLK
  5
5D3
330
51F
100
AcDbEntity
  8
0
100
AcDbBlockEnd
  0
BLOCK
  5
5D4
330
520
100
AcDbEntity
  8
0
100
AcDbBlockBegin
  2
SS_water_point_20x80
 70
0
 10
0.0000
 20
0.0000
 30
0.0000
  3
SS_water_point_20x80
  1

  0
LINE
  5
5D5
  8
0
 10
0.0000
 20
0.0000
 30
0.0000
 11
0.0000
 21
56.0000
 31
0.0000
  0
LINE
  5
5D6
  8
0
 10
5.6000
 20
40.0000
 30
0.0000
 11
5.4924
 21
35.6300
 31
0.0000
  0
LINE
  5
5D7
  8
0
 10
5.4924
 20
35.6300
 30
0.0000
 11
5.1737
 21
31.4279
 31
0.0000
  0
LINE
  5
5D8
  8
0
 10
5.1737
 20
31.4279
 30
0.0000
 11
4.6562
 21
27.5552
 31
0.0000
  0
LINE
  5
5D9
  8
0
 10
4.6562
 20
27.5552
 30
0.0000
 11
3.9598
 21
24.1608
 31
0.0000
  0
LINE
  5
5DA
  8
0
 10
3.9598
 20
24.1608
 30
0.0000
 11
3.1112
 21
21.3751
 31
0.0000
  0
LINE
  5
5DB
  8
0
 10
3.1112
 20
21.3751
 30
0.0000
 11
2.1430
 21
19.3051
 31
0.0000
  0
LINE
  5
5DC
  8
0
 10
2.1430
 20
19.3051
 30
0.0000
 11
1.0925
 21
18.0304
 31
0.0000
  0
LINE
  5
5DD
  8
0
 10
1.0925
 20
18.0304
 30
0.0000
 11
0.0000
 21
17.6000
 31
0.0000
  0
LINE
  5
5DE
  8
0
 10
0.0000
 20
17.6000
 30
0.0000
 11
-1.0925
 21
18.0304
 31
0.0000
  0
LINE
  5
5DF
  8
0
 10
-1.0925
 20
18.0304
 30
0.0000
 11
-2.1430
 21
19.3051
 31
0.0000
  0
LINE
  5
5E0
  8
0
 10
-2.1430
 20
19.3051
 30
0.0000
 11
-3.1112
 21
21.3751
 31
0.0000
  0
LINE
  5
5E1
  8
0
 10
-3.1112
 20
21.3751
 30
0.0000
 11
-3.9598
 21
24.1608
 31
0.0000
  0
LINE
  5
5E2
  8
0
 10
-3.9598
 20
24.1608
 30
0.0000
 11
-4.6562
 21
27.5552
 31
0.0000
  0
LINE
  5
5E3
  8
0
 10
-4.6562
 20
27.5552
 30
0.0000
 11
-5.1737
 21
31.4279
 31
0.0000
  0
LINE
  5
5E4
  8
0
 10
-5.1737
 20
31.4279
 30
0.0000
 11
-5.4924
 21
35.6300
 31
0.0000
  0
LINE
  5
5E5
  8
0
 10
-5.4924
 20
35.6300
 30
0.0000
 11
-5.6000
 21
40.0000
 31
0.0000
  0
LINE
  5
5E6
  8
0
 10
-5.6000
 20
40.0000
 30
0.0000
 11
-5.4924
 21
44.3700
 31
0.0000
  0
LINE
  5
5E7
  8
0
 10
-5.4924
 20
44.3700
 30
0.0000
 11
-5.1737
 21
48.5721
 31
0.0000
  0
LINE
  5
5E8
  8
0
 10
-5.1737
 20
48.5721
 30
0.0000
 11
-4.6562
 21
52.4448
 31
0.0000
  0
LINE
  5
5E9
  8
0
 10
-4.6562
 20
52.4448
 30
0.0000
 11
-3.9598
 21
55.8392
 31
0.0000
  0
LINE
  5
5EA
  8
0
 10
-3.9598
 20
55.8392
 30
0.0000
 11
-3.1112
 21
58.6249
 31
0.0000
  0
LINE
  5
5EB
  8
0
 10
-3.1112
 20
58.6249
 30
0.0000
 11
-2.1430
 21
60.6949
 31
0.0000
  0
LINE
  5
5EC
  8
0
 10
-2.1430
 20
60.6949
 30
0.0000
 11
-1.0925
 21
61.9696
 31
0.0000
  0
LINE
  5
5ED
  8
0
 10
-1.0925
 20
61.9696
 30
0.0000
 11
0.0000
 21
62.4000
 31
0.0000
  0
LINE
  5
5EE
  8
0
 10
0.0000
 20
62.4000
 30
0.0000
 11
1.0925
 21
61.9696
 31
0.0000
  0
LINE
  5
5EF
  8
0
 10
1.0925
 20
61.9696
 30
0.0000
 11
2.1430
 21
60.6949
 31
0.0000
  0
LINE
  5
5F0
  8
0
 10
2.1430
 20
60.6949
 30
0.0000
 11
3.1112
 21
58.6249
 31
0.0000
  0
LINE
  5
5F1
  8
0
 10
3.1112
 20
58.6249
 30
0.0000
 11
3.9598
 21
55.8392
 31
0.0000
  0
LINE
  5
5F2
  8
0
 10
3.9598
 20
55.8392
 30
0.0000
 11
4.6562
 21
52.4448
 31
0.0000
  0
LINE
  5
5F3
  8
0
 10
4.6562
 20
52.4448
 30
0.0000
 11
5.1737
 21
48.5721
 31
0.0000
  0
LINE
  5
5F4
  8
0
 10
5.1737
 20
48.5721
 30
0.0000
 11
5.4924
 21
44.3700
 31
0.0000
  0
LINE
  5
5F5
  8
0
 10
5.4924
 20
44.3700
 30
0.0000
 11
5.6000
 21
40.0000
 31
0.0000
  0
LINE
  5
5F6
  8
0
 10
-4.4000
 20
40.0000
 30
0.0000
 11
4.4000
 21
40.0000
 31
0.0000
  0
LINE
  5
5F7
  8
0
 10
0.0000
 20
57.6000
 30
0.0000
 11
0.0000
 21
22.4000
 31
0.0000
  0
ENDBLK
  5
5F8
330
520
100
AcDbEntity
  8
0
100
AcDbBlockEnd
  0
BLOCK
  5
5F9
330
521
100
AcDbEntity
  8
0
100
AcDbBlockBegin
  2
SS_sewage_point_50x80
 70
0
 10
0.0000
 20
0.0000
 30
0.0000
  3
SS_sewage_point_50x80
  1

  0
LINE
  5
5FA
  8
0
 10
0.0000
 20
0.0000
 30
0.0000
 11
0.0000
 21
57.6000
 31
0.0000
  0
LINE
  5
5FB
  8
0
 10
15.0000
 20
40.0000
 30
0.0000
 11
14.7118
 21
35.3178
 31
0.0000
  0
LINE
  5
5FC
  8
0
 10
14.7118
 20
35.3178
 30
0.0000
 11
13.8582
 21
30.8156
 31
0.0000
  0
LINE
  5
5FD
  8
0
 10
13.8582
 20
30.8156
 30
0.0000
 11
12.4720
 21
26.6663
 31
0.0000
  0
LINE
  5
5FE
  8
0
 10
12.4720
 20
26.6663
 30
0.0000
 11
10.6066
 21
23.0294
 31
0.0000
  0
LINE
  5
5FF
  8
0
 10
10.6066
 20
23.0294
 30
0.0000
 11
8.3336
 21
20.0447
 31
0.0000
  0
LINE
  5
600
  8
0
 10
8.3336
 20
20.0447
 30
0.0000
 11
5.7403
 21
17.8269
 31
0.0000
  0
LINE
  5
601
  8
0
 10
5.7403
 20
17.8269
 30
0.0000
 11
2.9264
 21
16.4612
 31
0.0000
  0
LINE
  5
602
  8
0
 10
2.9264
 20
16.4612
 30
0.0000
 11
0.0000
 21
16.0000
 31
0.0000
  0
LINE
  5
603
  8
0
 10
0.0000
 20
16.0000
 30
0.0000
 11
-2.9264
 21
16.4612
 31
0.0000
  0
LINE
  5
604
  8
0
 10
-2.9264
 20
16.4612
 30
0.0000
 11
-5.7403
 21
17.8269
 31
0.0000
  0
LINE
  5
605
  8
0
 10
-5.7403
 20
17.8269
 30
0.0000
 11
-8.3336
 21
20.0447
 31
0.0000
  0
LINE
  5
606
  8
0
 10
-8.3336
 20
20.0447
 30
0.0000
 11
-10.6066
 21
23.0294
 31
0.0000
  0
LINE
  5
607
  8
0
 10
-10.6066
 20
23.0294
 30
0.0000
 11
-12.4720
 21
26.6663
 31
0.0000
  0
LINE
  5
608
  8
0
 10
-12.4720
 20
26.6663
 30
0.0000
 11
-13.8582
 21
30.8156
 31
0.0000
  0
LINE
  5
609
  8
0
 10
-13.8582
 20
30.8156
 30
0.0000
 11
-14.7118
 21
35.3178
 31
0.0000
  0
LINE
  5
60A
  8
0
 10
-14.7118
 20
35.3178
 30
0.0000
 11
-15.0000
 21
40.0000
 31
0.0000
  0
LINE
  5
60B
  8
0
 10
-15.0000
 20
40.0000
 30
0.0000
 11
-14.7118
 21
44.6822
 31
0.0000
  0
LINE
  5
60C
  8
0
 10
-14.7118
 20
44.6822
 30
0.0000
 11
-13.8582
 21
49.1844
 31
0.0000
  0
LINE
  5
60D
  8
0
 10
-13.8582
 20
49.1844
 30
0.0000
 11
-12.4720
 21
53.3337
 31
0.0000
  0
LINE
  5
60E
  8
0
 10
-12.4720
 20
53.3337
 30
0.0000
 11
-10.6066
 21
56.9706
 31
0.0000
  0
LINE
  5
60F
  8
0
 10
-10.6066
 20
56.9706
 30
0.0000
 11
-8.3336
 21
59.9553
 31
0.0000
  0
LINE
  5
610
  8
0
 10
-8.3336
 20
59.9553
 30
0.0000
 11
-5.7403
 21
62.1731
 31
0.0000
  0
LINE
  5
611
  8
0
 10
-5.7403
 20
62.1731
 30
0.0000
 11
-2.9264
 21
63.5388
 31
0.0000
  0
LINE
  5
612
  8
0
 10
-2.9264
 20
63.5388
 30
0.0000
 11
0.0000
 21
64.0000
 31
0.0000
  0
LINE
  5
613
  8
0
 10
0.0000
 20
64.0000
 30
0.0000
 11
2.9264
 21
63.5388
 31
0.0000
  0
LINE
  5
614
  8
0
 10
2.9264
 20
63.5388
 30
0.0000
 11
5.7403
 21
62.1731
 31
0.0000
  0
LINE
  5
615
  8
0
 10
5.7403
 20
62.1731
 30
0.0000
 11
8.3336
 21
59.9553
 31
0.0000
  0
LINE
  5
616
  8
0
 10
8.3336
 20
59.9553
 30
0.0000
 11
10.6066
 21
56.9706
 31
0.0000
  0
LINE
  5
617
  8
0
 10
10.6066
 20
56.9706
 30
0.0000
 11
12.4720
 21
53.3337
 31
0.0000
  0
LINE
  5
618
  8
0
 10
12.4720
 20
53.3337
 30
0.0000
 11
13.8582
 21
49.1844
 31
0.0000
  0
LINE
  5
619
  8
0
 10
13.8582
 20
49.1844
 30
0.0000
 11
14.7118
 21
44.6822
 31
0.0000
  0
LINE
  5
61A
  8
0
 10
14.7118
 20
44.6822
 30
0.0000
 11
15.0000
 21
40.0000
 31
0.0000
  0
LINE
  5
61B
  8
0
 10
-10.0000
 20
40.0000
 30
0.0000
 11
-5.0000
 21
46.4000
 31
0.0000
  0
LINE
  5
61C
  8
0
 10
-5.0000
 20
46.4000
 30
0.0000
 11
0.0000
 21
40.0000
 31
0.0000
  0
LINE
  5
61D
  8
0
 10
0.0000
 20
40.0000
 30
0.0000
 11
5.0000
 21
33.6000
 31
0.0000
  0
LINE
  5
61E
  8
0
 10
5.0000
 20
33.6000
 30
0.0000
 11
10.0000
 21
40.0000
 31
0.0000
  0
ENDBLK
  5
61F
330
521
100
AcDbEntity
  8
0
100
AcDbBlockEnd
  0
BLOCK
  5
620
330
522
100
AcDbEntity
  8
0
100
AcDbBlockBegin
  2
SS_junction_box_80x80
 70
0
 10
0.0000
 20
0.0000
 30
0.0000
  3
SS_junction_box_80x80
  1

  0
LINE
  5
621
  8
0
 10
0.0000
 20
0.0000
 30
0.0000
 11
0.0000
 21
56.0000
 31
0.0000
  0
ARC
  5
622
  8
0
 10
0.0000
 20
40.0000
 30
0.0000
 40
14.4000
 50
0.0000
 51
360.0000
  0
ARC
  5
623
  8
0
 10
0.0000
 20
40.0000
 30
0.0000
 40
4.0000
 50
0.0000
 51
360.0000
  0
ENDBLK
  5
624
330
522
100
AcDbEntity
  8
0
100
AcDbBlockEnd
  0
ENDSEC
  0
SECTION
  2
ENTITIES
  0
SOLID
  5
100
  8
SOL-KIROT-MILUY
 10
-100.0000
 20
100.0000
 30
0.0000
 11
4100.0000
 21
100.0000
 31
0.0000
 12
0.0000
 22
0.0000
 32
0.0000
 13
4000.0000
 23
0.0000
 33
0.0000
  0
LINE
  5
101
  8
SOL-KIROT
 10
-100.0000
 20
100.0000
 30
0.0000
 11
4100.0000
 21
100.0000
 31
0.0000
  0
LINE
  5
102
  8
SOL-KIROT
 10
0.0000
 20
0.0000
 30
0.0000
 11
4000.0000
 21
0.0000
 31
0.0000
  0
SOLID
  5
103
  8
SOL-KIROT-MILUY
 10
4100.0000
 20
100.0000
 30
0.0000
 11
4100.0000
 21
-4100.0000
 31
0.0000
 12
4000.0000
 22
0.0000
 32
0.0000
 13
4000.0000
 23
-4000.0000
 33
0.0000
  0
LINE
  5
104
  8
SOL-KIROT
 10
4100.0000
 20
100.0000
 30
0.0000
 11
4100.0000
 21
-4100.0000
 31
0.0000
  0
LINE
  5
105
  8
SOL-KIROT
 10
4000.0000
 20
0.0000
 30
0.0000
 11
4000.0000
 21
-4000.0000
 31
0.0000
  0
SOLID
  5
106
  8
SOL-KIROT-MILUY
 10
4100.0000
 20
-4100.0000
 30
0.0000
 11
-100.0000
 21
-4100.0000
 31
0.0000
 12
4000.0000
 22
-4000.0000
 32
0.0000
 13
0.0000
 23
-4000.0000
 33
0.0000
  0
LINE
  5
107
  8
SOL-KIROT
 10
4100.0000
 20
-4100.0000
 30
0.0000
 11
-100.0000
 21
-4100.0000
 31
0.0000
  0
LINE
  5
108
  8
SOL-KIROT
 10
4000.0000
 20
-4000.0000
 30
0.0000
 11
0.0000
 21
-4000.0000
 31
0.0000
  0
SOLID
  5
109
  8
SOL-KIROT-MILUY
 10
-100.0000
 20
-4100.0000
 30
0.0000
 11
-100.0000
 21
100.0000
 31
0.0000
 12
0.0000
 22
-4000.0000
 32
0.0000
 13
0.0000
 23
0.0000
 33
0.0000
  0
LINE
  5
10A
  8
SOL-KIROT
 10
-100.0000
 20
-4100.0000
 30
0.0000
 11
-100.0000
 21
100.0000
 31
0.0000
  0
LINE
  5
10B
  8
SOL-KIROT
 10
0.0000
 20
-4000.0000
 30
0.0000
 11
0.0000
 21
0.0000
 31
0.0000
  0
LINE
  5
10C
  8
SOL-PTACHIM
 10
3950.0000
 20
-1300.0000
 30
0.0000
 11
3950.0000
 21
-2700.0000
 31
0.0000
  0
LINE
  5
10D
  8
SOL-PTACHIM
 10
3950.0000
 20
-2700.0000
 30
0.0000
 11
4050.0000
 21
-2700.0000
 31
0.0000
  0
LINE
  5
10E
  8
SOL-PTACHIM
 10
4050.0000
 20
-2700.0000
 30
0.0000
 11
4050.0000
 21
-1300.0000
 31
0.0000
  0
LINE
  5
10F
  8
SOL-PTACHIM
 10
4050.0000
 20
-1300.0000
 30
0.0000
 11
3950.0000
 21
-1300.0000
 31
0.0000
  0
LINE
  5
110
  8
SOL-PTACHIM
 10
3950.0000
 20
-1350.0000
 30
0.0000
 11
4050.0000
 21
-1350.0000
 31
0.0000
  0
LINE
  5
111
  8
SOL-PTACHIM
 10
3950.0000
 20
-2650.0000
 30
0.0000
 11
4050.0000
 21
-2650.0000
 31
0.0000
  0
LINE
  5
112
  8
SOL-PTACHIM
 10
4000.0000
 20
-1350.0000
 30
0.0000
 11
4000.0000
 21
-2650.0000
 31
0.0000
  0
LINE
  5
113
  8
SOL-PTACHIM
 10
4000.0000
 20
-1350.0000
 30
0.0000
 11
4000.0000
 21
-2650.0000
 31
0.0000
  0
LINE
  5
114
  8
SOL-PTACHIM
 10
4000.0000
 20
-1350.0000
 30
0.0000
 11
4000.0000
 21
-2650.0000
 31
0.0000
  0
LINE
  5
115
  8
SOL-DIM-PTACHIM-1001
 10
4095.0000
 20
-1300.0000
 30
0.0000
 11
4297.5000
 21
-1300.0000
 31
0.0000
  0
LINE
  5
116
  8
SOL-DIM-PTACHIM-1001
 10
4095.0000
 20
-2700.0000
 30
0.0000
 11
4297.5000
 21
-2700.0000
 31
0.0000
  0
LINE
  5
117
  8
SOL-DIM-PTACHIM-1001
 10
4230.0000
 20
-1300.0000
 30
0.0000
 11
4230.0000
 21
-2700.0000
 31
0.0000
  0
SOLID
  5
118
  8
SOL-DIM-PTACHIM-1001
 10
4230.0000
 20
-1300.0000
 30
0.0000
 11
4266.0000
 21
-1170.6250
 31
0.0000
 12
4194.0000
 22
-1170.6250
 32
0.0000
 13
4194.0000
 23
-1170.6250
 33
0.0000
  0
SOLID
  5
119
  8
SOL-DIM-PTACHIM-1001
 10
4230.0000
 20
-2700.0000
 30
0.0000
 11
4266.0000
 21
-2829.3750
 31
0.0000
 12
4194.0000
 22
-2829.3750
 32
0.0000
 13
4194.0000
 23
-2829.3750
 33
0.0000
  0
TEXT
  5
11A
  8
SOL-DIM-PTACHIM-1001
 10
4336.8750
 20
-2000.0000
 30
0.0000
 40
112.5000
  1
140
 50
90.0000
  7
SOLINE
 72
1
 73
2
 11
4336.8750
 21
-2000.0000
 31
0.0000
  0
LINE
  5
11B
  8
SOL-DIM-PTACHIM-1001
 10
4041.0000
 20
0.0000
 30
0.0000
 11
4401.5000
 21
0.0000
 31
0.0000
  0
LINE
  5
11C
  8
SOL-DIM-PTACHIM-1001
 10
4041.0000
 20
-1300.0000
 30
0.0000
 11
4401.5000
 21
-1300.0000
 31
0.0000
  0
LINE
  5
11D
  8
SOL-DIM-PTACHIM-1001
 10
4340.0000
 20
0.0000
 30
0.0000
 11
4340.0000
 21
-1300.0000
 31
0.0000
  0
SOLID
  5
11E
  8
SOL-DIM-PTACHIM-1001
 10
4340.0000
 20
0.0000
 30
0.0000
 11
4372.8000
 21
117.8750
 31
0.0000
 12
4307.2000
 22
117.8750
 32
0.0000
 13
4307.2000
 23
117.8750
 33
0.0000
  0
SOLID
  5
11F
  8
SOL-DIM-PTACHIM-1001
 10
4340.0000
 20
-1300.0000
 30
0.0000
 11
4372.8000
 21
-1417.8750
 31
0.0000
 12
4307.2000
 22
-1417.8750
 32
0.0000
 13
4307.2000
 23
-1417.8750
 33
0.0000
  0
TEXT
  5
120
  8
SOL-DIM-PTACHIM-1001
 10
4437.3750
 20
-650.0000
 30
0.0000
 40
102.5000
  1
130
 50
90.0000
  7
SOLINE
 72
1
 73
2
 11
4437.3750
 21
-650.0000
 31
0.0000
  0
TEXT
  5
121
  8
SOL-PTACHIM
 10
4225.0000
 20
-2000.0000
 30
0.0000
 40
125.0000
  1
W1
 50
0.0000
  7
SOLINE
 72
1
 73
2
 11
4225.0000
 21
-2000.0000
 31
0.0000
  0
LINE
  5
122
  8
SOL-PTACHIM
 10
2900.0000
 20
-3950.0000
 30
0.0000
 11
1100.0000
 21
-3950.0000
 31
0.0000
  0
LINE
  5
123
  8
SOL-PTACHIM
 10
1100.0000
 20
-3950.0000
 30
0.0000
 11
1100.0000
 21
-4050.0000
 31
0.0000
  0
LINE
  5
124
  8
SOL-PTACHIM
 10
1100.0000
 20
-4050.0000
 30
0.0000
 11
2900.0000
 21
-4050.0000
 31
0.0000
  0
LINE
  5
125
  8
SOL-PTACHIM
 10
2900.0000
 20
-4050.0000
 30
0.0000
 11
2900.0000
 21
-3950.0000
 31
0.0000
  0
LINE
  5
126
  8
SOL-PTACHIM
 10
2850.0000
 20
-3950.0000
 30
0.0000
 11
2850.0000
 21
-4050.0000
 31
0.0000
  0
LINE
  5
127
  8
SOL-PTACHIM
 10
1150.0000
 20
-3950.0000
 30
0.0000
 11
1150.0000
 21
-4050.0000
 31
0.0000
  0
LINE
  5
128
  8
SOL-PTACHIM
 10
2850.0000
 20
-4000.0000
 30
0.0000
 11
1150.0000
 21
-4000.0000
 31
0.0000
  0
LINE
  5
129
  8
SOL-PTACHIM
 10
2850.0000
 20
-4000.0000
 30
0.0000
 11
1150.0000
 21
-4000.0000
 31
0.0000
  0
LINE
  5
12A
  8
SOL-PTACHIM
 10
2850.0000
 20
-4000.0000
 30
0.0000
 11
1150.0000
 21
-4000.0000
 31
0.0000
  0
LINE
  5
12B
  8
SOL-DIM-PTACHIM-1002
 10
2900.0000
 20
-4095.0000
 30
0.0000
 11
2900.0000
 21
-4297.5000
 31
0.0000
  0
LINE
  5
12C
  8
SOL-DIM-PTACHIM-1002
 10
1100.0000
 20
-4095.0000
 30
0.0000
 11
1100.0000
 21
-4297.5000
 31
0.0000
  0
LINE
  5
12D
  8
SOL-DIM-PTACHIM-1002
 10
2900.0000
 20
-4230.0000
 30
0.0000
 11
1100.0000
 21
-4230.0000
 31
0.0000
  0
SOLID
  5
12E
  8
SOL-DIM-PTACHIM-1002
 10
2900.0000
 20
-4230.0000
 30
0.0000
 11
3029.3750
 21
-4266.0000
 31
0.0000
 12
3029.3750
 22
-4194.0000
 32
0.0000
 13
3029.3750
 23
-4194.0000
 33
0.0000
  0
SOLID
  5
12F
  8
SOL-DIM-PTACHIM-1002
 10
1100.0000
 20
-4230.0000
 30
0.0000
 11
970.6250
 21
-4266.0000
 31
0.0000
 12
970.6250
 22
-4194.0000
 32
0.0000
 13
970.6250
 23
-4194.0000
 33
0.0000
  0
TEXT
  5
130
  8
SOL-DIM-PTACHIM-1002
 10
2000.0000
 20
-4336.8750
 30
0.0000
 40
112.5000
  1
180
 50
360.0000
  7
SOLINE
 72
1
 73
2
 11
2000.0000
 21
-4336.8750
 31
0.0000
  0
LINE
  5
131
  8
SOL-DIM-PTACHIM-1002
 10
4000.0000
 20
-4041.0000
 30
0.0000
 11
4000.0000
 21
-4401.5000
 31
0.0000
  0
LINE
  5
132
  8
SOL-DIM-PTACHIM-1002
 10
2900.0000
 20
-4041.0000
 30
0.0000
 11
2900.0000
 21
-4401.5000
 31
0.0000
  0
LINE
  5
133
  8
SOL-DIM-PTACHIM-1002
 10
4000.0000
 20
-4340.0000
 30
0.0000
 11
2900.0000
 21
-4340.0000
 31
0.0000
  0
SOLID
  5
134
  8
SOL-DIM-PTACHIM-1002
 10
4000.0000
 20
-4340.0000
 30
0.0000
 11
4117.8750
 21
-4372.8000
 31
0.0000
 12
4117.8750
 22
-4307.2000
 32
0.0000
 13
4117.8750
 23
-4307.2000
 33
0.0000
  0
SOLID
  5
135
  8
SOL-DIM-PTACHIM-1002
 10
2900.0000
 20
-4340.0000
 30
0.0000
 11
2782.1250
 21
-4372.8000
 31
0.0000
 12
2782.1250
 22
-4307.2000
 32
0.0000
 13
2782.1250
 23
-4307.2000
 33
0.0000
  0
TEXT
  5
136
  8
SOL-DIM-PTACHIM-1002
 10
3450.0000
 20
-4437.3750
 30
0.0000
 40
102.5000
  1
110
 50
360.0000
  7
SOLINE
 72
1
 73
2
 11
3450.0000
 21
-4437.3750
 31
0.0000
  0
TEXT
  5
137
  8
SOL-PTACHIM
 10
2000.0000
 20
-4225.0000
 30
0.0000
 40
125.0000
  1
W2
 50
0.0000
  7
SOLINE
 72
1
 73
2
 11
2000.0000
 21
-4225.0000
 31
0.0000
  0
LINE
  5
138
  8
SOL-PTACHIM
 10
50.0000
 20
-1550.0000
 30
0.0000
 11
50.0000
 21
-650.0000
 31
0.0000
  0
LINE
  5
139
  8
SOL-PTACHIM
 10
50.0000
 20
-650.0000
 30
0.0000
 11
-50.0000
 21
-650.0000
 31
0.0000
  0
LINE
  5
13A
  8
SOL-PTACHIM
 10
-50.0000
 20
-650.0000
 30
0.0000
 11
-50.0000
 21
-1550.0000
 31
0.0000
  0
LINE
  5
13B
  8
SOL-PTACHIM
 10
-50.0000
 20
-1550.0000
 30
0.0000
 11
50.0000
 21
-1550.0000
 31
0.0000
  0
LINE
  5
13C
  8
SOL-PTACHIM
 10
50.0000
 20
-1510.0000
 30
0.0000
 11
-50.0000
 21
-1510.0000
 31
0.0000
  0
LINE
  5
13D
  8
SOL-PTACHIM
 10
50.0000
 20
-690.0000
 30
0.0000
 11
-50.0000
 21
-690.0000
 31
0.0000
  0
LINE
  5
13E
  8
SOL-PTACHIM
 10
0.0000
 20
-1510.0000
 30
0.0000
 11
0.0000
 21
-690.0000
 31
0.0000
  0
LINE
  5
13F
  8
SOL-PTACHIM
 10
0.0000
 20
-1510.0000
 30
0.0000
 11
-820.0000
 21
-1510.0000
 31
0.0000
  0
ARC
  5
140
  8
SOL-PTACHIM
 10
0.0000
 20
-1510.0000
 30
0.0000
 40
820.0000
 50
90.0000
 51
180.0000
  0
LINE
  5
141
  8
SOL-DIM-PTACHIM-1003
 10
-95.0000
 20
-1550.0000
 30
0.0000
 11
-297.5000
 21
-1550.0000
 31
0.0000
  0
LINE
  5
142
  8
SOL-DIM-PTACHIM-1003
 10
-95.0000
 20
-650.0000
 30
0.0000
 11
-297.5000
 21
-650.0000
 31
0.0000
  0
LINE
  5
143
  8
SOL-DIM-PTACHIM-1003
 10
-230.0000
 20
-1550.0000
 30
0.0000
 11
-230.0000
 21
-650.0000
 31
0.0000
  0
SOLID
  5
144
  8
SOL-DIM-PTACHIM-1003
 10
-230.0000
 20
-1550.0000
 30
0.0000
 11
-266.0000
 21
-1679.3750
 31
0.0000
 12
-194.0000
 22
-1679.3750
 32
0.0000
 13
-194.0000
 23
-1679.3750
 33
0.0000
  0
SOLID
  5
145
  8
SOL-DIM-PTACHIM-1003
 10
-230.0000
 20
-650.0000
 30
0.0000
 11
-266.0000
 21
-520.6250
 31
0.0000
 12
-194.0000
 22
-520.6250
 32
0.0000
 13
-194.0000
 23
-520.6250
 33
0.0000
  0
TEXT
  5
146
  8
SOL-DIM-PTACHIM-1003
 10
-336.8750
 20
-1100.0000
 30
0.0000
 40
112.5000
  1
90
 50
90.0000
  7
SOLINE
 72
1
 73
2
 11
-336.8750
 21
-1100.0000
 31
0.0000
  0
LINE
  5
147
  8
SOL-DIM-PTACHIM-1003
 10
-41.0000
 20
-4000.0000
 30
0.0000
 11
-401.5000
 21
-4000.0000
 31
0.0000
  0
LINE
  5
148
  8
SOL-DIM-PTACHIM-1003
 10
-41.0000
 20
-1550.0000
 30
0.0000
 11
-401.5000
 21
-1550.0000
 31
0.0000
  0
LINE
  5
149
  8
SOL-DIM-PTACHIM-1003
 10
-340.0000
 20
-4000.0000
 30
0.0000
 11
-340.0000
 21
-1550.0000
 31
0.0000
  0
SOLID
  5
14A
  8
SOL-DIM-PTACHIM-1003
 10
-340.0000
 20
-4000.0000
 30
0.0000
 11
-372.8000
 21
-4117.8750
 31
0.0000
 12
-307.2000
 22
-4117.8750
 32
0.0000
 13
-307.2000
 23
-4117.8750
 33
0.0000
  0
SOLID
  5
14B
  8
SOL-DIM-PTACHIM-1003
 10
-340.0000
 20
-1550.0000
 30
0.0000
 11
-372.8000
 21
-1432.1250
 31
0.0000
 12
-307.2000
 22
-1432.1250
 32
0.0000
 13
-307.2000
 23
-1432.1250
 33
0.0000
  0
TEXT
  5
14C
  8
SOL-DIM-PTACHIM-1003
 10
-437.3750
 20
-2775.0000
 30
0.0000
 40
102.5000
  1
245
 50
90.0000
  7
SOLINE
 72
1
 73
2
 11
-437.3750
 21
-2775.0000
 31
0.0000
  0
TEXT
  5
14D
  8
SOL-PTACHIM
 10
-225.0000
 20
-1100.0000
 30
0.0000
 40
125.0000
  1
D1
 50
0.0000
  7
SOLINE
 72
1
 73
2
 11
-225.0000
 21
-1100.0000
 31
0.0000
  0
INSERT
  5
14E
  8
SOL-CHASHMAL
  2
SS_socket_single_80x80
 10
540.0000
 20
0.0000
 30
0.0000
 41
1.0000
 42
1.0000
 43
1.0000
 50
0.0000
  0
INSERT
  5
14F
  8
SOL-CHASHMAL
  2
SS_socket_duplex_160x80
 10
1480.0000
 20
0.0000
 30
0.0000
 41
1.0000
 42
1.0000
 43
1.0000
 50
0.0000
  0
INSERT
  5
150
  8
SOL-GAZ
  2
SS_gas_point_20x80
 10
2210.0000
 20
0.0000
 30
0.0000
 41
1.0000
 42
1.0000
 43
1.0000
 50
0.0000
  0
INSERT
  5
151
  8
SOL-INSTALATSIA
  2
SS_water_faucet_20x80
 10
3110.0000
 20
0.0000
 30
0.0000
 41
1.0000
 42
1.0000
 43
1.0000
 50
0.0000
  0
INSERT
  5
152
  8
SOL-INSTALATSIA
  2
SS_water_point_20x80
 10
3210.0000
 20
0.0000
 30
0.0000
 41
1.0000
 42
1.0000
 43
1.0000
 50
0.0000
  0
INSERT
  5
153
  8
SOL-INSTALATSIA
  2
SS_sewage_point_50x80
 10
3125.0000
 20
0.0000
 30
0.0000
 41
1.0000
 42
1.0000
 43
1.0000
 50
0.0000
  0
INSERT
  5
154
  8
SOL-CHASHMAL
  2
SS_socket_single_80x80
 10
4000.0000
 20
-640.0000
 30
0.0000
 41
1.0000
 42
1.0000
 43
1.0000
 50
270.0000
  0
INSERT
  5
155
  8
SOL-CHASHMAL
  2
SS_junction_box_80x80
 10
0.0000
 20
-510.0000
 30
0.0000
 41
1.0000
 42
1.0000
 43
1.0000
 50
90.0000
  0
LINE
  5
156
  8
SOL-MIDOT-PNIM
 10
0.0000
 20
50.0000
 30
0.0000
 11
0.0000
 21
500.0000
 31
0.0000
  0
LINE
  5
157
  8
SOL-MIDOT-PNIM
 10
4000.0000
 20
50.0000
 30
0.0000
 11
4000.0000
 21
500.0000
 31
0.0000
  0
LINE
  5
158
  8
SOL-MIDOT-PNIM
 10
0.0000
 20
425.0000
 30
0.0000
 11
4000.0000
 21
425.0000
 31
0.0000
  0
SOLID
  5
159
  8
SOL-MIDOT-PNIM
 10
0.0000
 20
425.0000
 30
0.0000
 11
-143.7500
 21
465.0000
 31
0.0000
 12
-143.7500
 22
385.0000
 32
0.0000
 13
-143.7500
 23
385.0000
 33
0.0000
  0
SOLID
  5
15A
  8
SOL-MIDOT-PNIM
 10
4000.0000
 20
425.0000
 30
0.0000
 11
4143.7500
 21
465.0000
 31
0.0000
 12
4143.7500
 22
385.0000
 32
0.0000
 13
4143.7500
 23
385.0000
 33
0.0000
  0
TEXT
  5
15B
  8
SOL-MIDOT-PNIM
 10
2000.0000
 20
543.7500
 30
0.0000
 40
125.0000
  1
400
 50
0.0000
  7
SOLINE
 72
1
 73
2
 11
2000.0000
 21
543.7500
 31
0.0000
  0
LINE
  5
15C
  8
SOL-MIDOT-PNIM
 10
4050.0000
 20
0.0000
 30
0.0000
 11
4500.0000
 21
0.0000
 31
0.0000
  0
LINE
  5
15D
  8
SOL-MIDOT-PNIM
 10
4050.0000
 20
-4000.0000
 30
0.0000
 11
4500.0000
 21
-4000.0000
 31
0.0000
  0
LINE
  5
15E
  8
SOL-MIDOT-PNIM
 10
4425.0000
 20
0.0000
 30
0.0000
 11
4425.0000
 21
-4000.0000
 31
0.0000
  0
SOLID
  5
15F
  8
SOL-MIDOT-PNIM
 10
4425.0000
 20
0.0000
 30
0.0000
 11
4465.0000
 21
143.7500
 31
0.0000
 12
4385.0000
 22
143.7500
 32
0.0000
 13
4385.0000
 23
143.7500
 33
0.0000
  0
SOLID
  5
160
  8
SOL-MIDOT-PNIM
 10
4425.0000
 20
-4000.0000
 30
0.0000
 11
4465.0000
 21
-4143.7500
 31
0.0000
 12
4385.0000
 22
-4143.7500
 32
0.0000
 13
4385.0000
 23
-4143.7500
 33
0.0000
  0
TEXT
  5
161
  8
SOL-MIDOT-PNIM
 10
4543.7500
 20
-2000.0000
 30
0.0000
 40
125.0000
  1
400
 50
90.0000
  7
SOLINE
 72
1
 73
2
 11
4543.7500
 21
-2000.0000
 31
0.0000
  0
LINE
  5
162
  8
SOL-MIDOT-PNIM
 10
4000.0000
 20
-4050.0000
 30
0.0000
 11
4000.0000
 21
-4500.0000
 31
0.0000
  0
LINE
  5
163
  8
SOL-MIDOT-PNIM
 10
0.0000
 20
-4050.0000
 30
0.0000
 11
0.0000
 21
-4500.0000
 31
0.0000
  0
LINE
  5
164
  8
SOL-MIDOT-PNIM
 10
4000.0000
 20
-4425.0000
 30
0.0000
 11
0.0000
 21
-4425.0000
 31
0.0000
  0
SOLID
  5
165
  8
SOL-MIDOT-PNIM
 10
4000.0000
 20
-4425.0000
 30
0.0000
 11
4143.7500
 21
-4465.0000
 31
0.0000
 12
4143.7500
 22
-4385.0000
 32
0.0000
 13
4143.7500
 23
-4385.0000
 33
0.0000
  0
SOLID
  5
166
  8
SOL-MIDOT-PNIM
 10
0.0000
 20
-4425.0000
 30
0.0000
 11
-143.7500
 21
-4465.0000
 31
0.0000
 12
-143.7500
 22
-4385.0000
 32
0.0000
 13
-143.7500
 23
-4385.0000
 33
0.0000
  0
TEXT
  5
167
  8
SOL-MIDOT-PNIM
 10
2000.0000
 20
-4543.7500
 30
0.0000
 40
125.0000
  1
400
 50
360.0000
  7
SOLINE
 72
1
 73
2
 11
2000.0000
 21
-4543.7500
 31
0.0000
  0
LINE
  5
168
  8
SOL-MIDOT-PNIM
 10
-50.0000
 20
-4000.0000
 30
0.0000
 11
-500.0000
 21
-4000.0000
 31
0.0000
  0
LINE
  5
169
  8
SOL-MIDOT-PNIM
 10
-50.0000
 20
0.0000
 30
0.0000
 11
-500.0000
 21
0.0000
 31
0.0000
  0
LINE
  5
16A
  8
SOL-MIDOT-PNIM
 10
-425.0000
 20
-4000.0000
 30
0.0000
 11
-425.0000
 21
0.0000
 31
0.0000
  0
SOLID
  5
16B
  8
SOL-MIDOT-PNIM
 10
-425.0000
 20
-4000.0000
 30
0.0000
 11
-465.0000
 21
-4143.7500
 31
0.0000
 12
-385.0000
 22
-4143.7500
 32
0.0000
 13
-385.0000
 23
-4143.7500
 33
0.0000
  0
SOLID
  5
16C
  8
SOL-MIDOT-PNIM
 10
-425.0000
 20
0.0000
 30
0.0000
 11
-465.0000
 21
143.7500
 31
0.0000
 12
-385.0000
 22
143.7500
 32
0.0000
 13
-385.0000
 23
143.7500
 33
0.0000
  0
TEXT
  5
16D
  8
SOL-MIDOT-PNIM
 10
-543.7500
 20
-2000.0000
 30
0.0000
 40
125.0000
  1
400
 50
90.0000
  7
SOLINE
 72
1
 73
2
 11
-543.7500
 21
-2000.0000
 31
0.0000
  0
LINE
  5
16E
  8
SOL-MIDOT-PNIM
 10
0.0000
 20
-4050.0000
 30
0.0000
 11
0.0000
 21
-4925.0000
 31
0.0000
  0
LINE
  5
16F
  8
SOL-MIDOT-PNIM
 10
4000.0000
 20
-4050.0000
 30
0.0000
 11
4000.0000
 21
-4925.0000
 31
0.0000
  0
LINE
  5
170
  8
SOL-MIDOT-PNIM
 10
0.0000
 20
-4850.0000
 30
0.0000
 11
4000.0000
 21
-4850.0000
 31
0.0000
  0
SOLID
  5
171
  8
SOL-MIDOT-PNIM
 10
0.0000
 20
-4850.0000
 30
0.0000
 11
-143.7500
 21
-4890.0000
 31
0.0000
 12
-143.7500
 22
-4810.0000
 32
0.0000
 13
-143.7500
 23
-4810.0000
 33
0.0000
  0
SOLID
  5
172
  8
SOL-MIDOT-PNIM
 10
4000.0000
 20
-4850.0000
 30
0.0000
 11
4143.7500
 21
-4890.0000
 31
0.0000
 12
4143.7500
 22
-4810.0000
 32
0.0000
 13
4143.7500
 23
-4810.0000
 33
0.0000
  0
TEXT
  5
173
  8
SOL-MIDOT-PNIM
 10
2000.0000
 20
-4968.7500
 30
0.0000
 40
125.0000
  1
400
 50
0.0000
  7
SOLINE
 72
1
 73
2
 11
2000.0000
 21
-4968.7500
 31
0.0000
  0
LINE
  5
174
  8
SOL-MIDOT-PNIM
 10
-50.0000
 20
-4000.0000
 30
0.0000
 11
-925.0000
 21
-4000.0000
 31
0.0000
  0
LINE
  5
175
  8
SOL-MIDOT-PNIM
 10
-50.0000
 20
0.0000
 30
0.0000
 11
-925.0000
 21
0.0000
 31
0.0000
  0
LINE
  5
176
  8
SOL-MIDOT-PNIM
 10
-850.0000
 20
-4000.0000
 30
0.0000
 11
-850.0000
 21
0.0000
 31
0.0000
  0
SOLID
  5
177
  8
SOL-MIDOT-PNIM
 10
-850.0000
 20
-4000.0000
 30
0.0000
 11
-890.0000
 21
-4143.7500
 31
0.0000
 12
-810.0000
 22
-4143.7500
 32
0.0000
 13
-810.0000
 23
-4143.7500
 33
0.0000
  0
SOLID
  5
178
  8
SOL-MIDOT-PNIM
 10
-850.0000
 20
0.0000
 30
0.0000
 11
-890.0000
 21
143.7500
 31
0.0000
 12
-810.0000
 22
143.7500
 32
0.0000
 13
-810.0000
 23
143.7500
 33
0.0000
  0
TEXT
  5
179
  8
SOL-MIDOT-PNIM
 10
-968.7500
 20
-2000.0000
 30
0.0000
 40
125.0000
  1
400
 50
90.0000
  7
SOLINE
 72
1
 73
2
 11
-968.7500
 21
-2000.0000
 31
0.0000
  0
LINE
  5
17A
  8
SOL-MIDOT-CHUTS
 10
-100.0000
 20
-4150.0000
 30
0.0000
 11
-100.0000
 21
-5775.0000
 31
0.0000
  0
LINE
  5
17B
  8
SOL-MIDOT-CHUTS
 10
4100.0000
 20
-4150.0000
 30
0.0000
 11
4100.0000
 21
-5775.0000
 31
0.0000
  0
LINE
  5
17C
  8
SOL-MIDOT-CHUTS
 10
-100.0000
 20
-5700.0000
 30
0.0000
 11
4100.0000
 21
-5700.0000
 31
0.0000
  0
SOLID
  5
17D
  8
SOL-MIDOT-CHUTS
 10
-100.0000
 20
-5700.0000
 30
0.0000
 11
-243.7500
 21
-5740.0000
 31
0.0000
 12
-243.7500
 22
-5660.0000
 32
0.0000
 13
-243.7500
 23
-5660.0000
 33
0.0000
  0
SOLID
  5
17E
  8
SOL-MIDOT-CHUTS
 10
4100.0000
 20
-5700.0000
 30
0.0000
 11
4243.7500
 21
-5740.0000
 31
0.0000
 12
4243.7500
 22
-5660.0000
 32
0.0000
 13
4243.7500
 23
-5660.0000
 33
0.0000
  0
TEXT
  5
17F
  8
SOL-MIDOT-CHUTS
 10
2000.0000
 20
-5818.7500
 30
0.0000
 40
125.0000
  1
420
 50
0.0000
  7
SOLINE
 72
1
 73
2
 11
2000.0000
 21
-5818.7500
 31
0.0000
  0
LINE
  5
180
  8
SOL-MIDOT-CHUTS
 10
-150.0000
 20
-4100.0000
 30
0.0000
 11
-1775.0000
 21
-4100.0000
 31
0.0000
  0
LINE
  5
181
  8
SOL-MIDOT-CHUTS
 10
-150.0000
 20
100.0000
 30
0.0000
 11
-1775.0000
 21
100.0000
 31
0.0000
  0
LINE
  5
182
  8
SOL-MIDOT-CHUTS
 10
-1700.0000
 20
-4100.0000
 30
0.0000
 11
-1700.0000
 21
100.0000
 31
0.0000
  0
SOLID
  5
183
  8
SOL-MIDOT-CHUTS
 10
-1700.0000
 20
-4100.0000
 30
0.0000
 11
-1740.0000
 21
-4243.7500
 31
0.0000
 12
-1660.0000
 22
-4243.7500
 32
0.0000
 13
-1660.0000
 23
-4243.7500
 33
0.0000
  0
SOLID
  5
184
  8
SOL-MIDOT-CHUTS
 10
-1700.0000
 20
100.0000
 30
0.0000
 11
-1740.0000
 21
243.7500
 31
0.0000
 12
-1660.0000
 22
243.7500
 32
0.0000
 13
-1660.0000
 23
243.7500
 33
0.0000
  0
TEXT
  5
185
  8
SOL-MIDOT-CHUTS
 10
-1818.7500
 20
-2000.0000
 30
0.0000
 40
125.0000
  1
420
 50
90.0000
  7
SOLINE
 72
1
 73
2
 11
-1818.7500
 21
-2000.0000
 31
0.0000
  0
LINE
  5
186
  8
SOL-MISGERET
370
50
 10
6800.0000
 20
200.0000
 30
0.0000
 11
9550.0000
 21
200.0000
 31
0.0000
  0
LINE
  5
187
  8
SOL-MISGERET
370
50
 10
9550.0000
 20
200.0000
 30
0.0000
 11
9550.0000
 21
-3188.1250
 31
0.0000
  0
LINE
  5
188
  8
SOL-MISGERET
370
50
 10
9550.0000
 20
-3188.1250
 30
0.0000
 11
6800.0000
 21
-3188.1250
 31
0.0000
  0
LINE
  5
189
  8
SOL-MISGERET
370
50
 10
6800.0000
 20
-3188.1250
 30
0.0000
 11
6800.0000
 21
200.0000
 31
0.0000
  0
LINE
  5
18A
  8
SOL-MISGERET
 10
6800.0000
 20
-360.6250
 30
0.0000
 11
9550.0000
 21
-360.6250
 31
0.0000
  0
LINE
  5
18B
  8
SOL-MISGERET
 10
6875.0000
 20
-298.1250
 30
0.0000
 11
7450.0000
 21
-298.1250
 31
0.0000
  0
LINE
  5
18C
  8
SOL-MISGERET
 10
7450.0000
 20
-298.1250
 30
0.0000
 11
7450.0000
 21
137.5000
 31
0.0000
  0
LINE
  5
18D
  8
SOL-MISGERET
 10
7450.0000
 20
137.5000
 30
0.0000
 11
6875.0000
 21
137.5000
 31
0.0000
  0
LINE
  5
18E
  8
SOL-MISGERET
 10
6875.0000
 20
137.5000
 30
0.0000
 11
6875.0000
 21
-298.1250
 31
0.0000
  0
TEXT
  5
18F
  8
SOL-MISGERET
 10
7525.0000
 20
-46.6750
 30
0.0000
 40
250.0000
  1
SOLINE
 50
0.0000
  7
SOLINE
 73
2
 11
7525.0000
 21
-46.6750
 31
0.0000
  0
TEXT
  5
190
  8
SOL-TEKST
 10
7162.5000
 20
-259.7125
 30
0.0000
 40
68.7500
  1
brand/soline-logo.png
 50
0.0000
  7
SOLINE
 72
1
 73
2
 11
7162.5000
 21
-259.7125
 31
0.0000
  0
TEXT
  5
191
  8
SOL-MISGERET
 10
6875.0000
 20
-531.2500
 30
0.0000
 40
102.5000
  1
Project:
 50
0.0000
  7
SOLINE
 73
2
 11
6875.0000
 21
-531.2500
 31
0.0000
  0
TEXT
  5
192
  8
SOL-MISGERET
 10
9475.0000
 20
-531.2500
 30
0.0000
 40
110.0000
  1
Room 4x4
 50
0.0000
  7
SOLINE
 72
2
 73
2
 11
9475.0000
 21
-531.2500
 31
0.0000
  0
TEXT
  5
193
  8
SOL-MISGERET
 10
6875.0000
 20
-775.0000
 30
0.0000
 40
102.5000
  1
Client:
 50
0.0000
  7
SOLINE
 73
2
 11
6875.0000
 21
-775.0000
 31
0.0000
  0
TEXT
  5
194
  8
SOL-MISGERET
 10
9475.0000
 20
-775.0000
 30
0.0000
 40
110.0000
  1
-
 50
0.0000
  7
SOLINE
 72
2
 73
2
 11
9475.0000
 21
-775.0000
 31
0.0000
  0
TEXT
  5
195
  8
SOL-MISGERET
 10
6875.0000
 20
-1018.7500
 30
0.0000
 40
102.5000
  1
Address:
 50
0.0000
  7
SOLINE
 73
2
 11
6875.0000
 21
-1018.7500
 31
0.0000
  0
TEXT
  5
196
  8
SOL-MISGERET
 10
9475.0000
 20
-1018.7500
 30
0.0000
 40
110.0000
  1
-
 50
0.0000
  7
SOLINE
 72
2
 73
2
 11
9475.0000
 21
-1018.7500
 31
0.0000
  0
TEXT
  5
197
  8
SOL-MISGERET
 10
6875.0000
 20
-1262.5000
 30
0.0000
 40
102.5000
  1
Drawing:
 50
0.0000
  7
SOLINE
 73
2
 11
6875.0000
 21
-1262.5000
 31
0.0000
  0
TEXT
  5
198
  8
SOL-MISGERET
 10
9475.0000
 20
-1262.5000
 30
0.0000
 40
110.0000
  1
Measurement Plan
 50
0.0000
  7
SOLINE
 72
2
 73
2
 11
9475.0000
 21
-1262.5000
 31
0.0000
  0
TEXT
  5
199
  8
SOL-MISGERET
 10
6875.0000
 20
-1506.2500
 30
0.0000
 40
102.5000
  1
Scale:
 50
0.0000
  7
SOLINE
 73
2
 11
6875.0000
 21
-1506.2500
 31
0.0000
  0
TEXT
  5
19A
  8
SOL-MISGERET
 10
9475.0000
 20
-1506.2500
 30
0.0000
 40
110.0000
  1
1:50  (mm)
 50
0.0000
  7
SOLINE
 72
2
 73
2
 11
9475.0000
 21
-1506.2500
 31
0.0000
  0
TEXT
  5
19B
  8
SOL-MISGERET
 10
6875.0000
 20
-1750.0000
 30
0.0000
 40
102.5000
  1
Date:
 50
0.0000
  7
SOLINE
 73
2
 11
6875.0000
 21
-1750.0000
 31
0.0000
  0
TEXT
  5
19C
  8
SOL-MISGERET
 10
9475.0000
 20
-1750.0000
 30
0.0000
 40
110.0000
  1
-
 50
0.0000
  7
SOLINE
 72
2
 73
2
 11
9475.0000
 21
-1750.0000
 31
0.0000
  0
TEXT
  5
19D
  8
SOL-MISGERET
 10
6875.0000
 20
-1993.7500
 30
0.0000
 40
102.5000
  1
Surveyor:
 50
0.0000
  7
SOLINE
 73
2
 11
6875.0000
 21
-1993.7500
 31
0.0000
  0
TEXT
  5
19E
  8
SOL-MISGERET
 10
9475.0000
 20
-1993.7500
 30
0.0000
 40
110.0000
  1
-
 50
0.0000
  7
SOLINE
 72
2
 73
2
 11
9475.0000
 21
-1993.7500
 31
0.0000
  0
TEXT
  5
19F
  8
SOL-MISGERET
 10
6875.0000
 20
-2237.5000
 30
0.0000
 40
102.5000
  1
Checked:
 50
0.0000
  7
SOLINE
 73
2
 11
6875.0000
 21
-2237.5000
 31
0.0000
  0
TEXT
  5
1A0
  8
SOL-MISGERET
 10
9475.0000
 20
-2237.5000
 30
0.0000
 40
110.0000
  1
-
 50
0.0000
  7
SOLINE
 72
2
 73
2
 11
9475.0000
 21
-2237.5000
 31
0.0000
  0
TEXT
  5
1A1
  8
SOL-MISGERET
 10
6875.0000
 20
-2481.2500
 30
0.0000
 40
102.5000
  1
Drawing No:
 50
0.0000
  7
SOLINE
 73
2
 11
6875.0000
 21
-2481.2500
 31
0.0000
  0
TEXT
  5
1A2
  8
SOL-MISGERET
 10
9475.0000
 20
-2481.2500
 30
0.0000
 40
110.0000
  1
M-01
 50
0.0000
  7
SOLINE
 72
2
 73
2
 11
9475.0000
 21
-2481.2500
 31
0.0000
  0
TEXT
  5
1A3
  8
SOL-MISGERET
 10
6875.0000
 20
-2725.0000
 30
0.0000
 40
102.5000
  1
Sheet:
 50
0.0000
  7
SOLINE
 73
2
 11
6875.0000
 21
-2725.0000
 31
0.0000
  0
TEXT
  5
1A4
  8
SOL-MISGERET
 10
9475.0000
 20
-2725.0000
 30
0.0000
 40
110.0000
  1
1/1
 50
0.0000
  7
SOLINE
 72
2
 73
2
 11
9475.0000
 21
-2725.0000
 31
0.0000
  0
TEXT
  5
1A5
  8
SOL-MISGERET
 10
6875.0000
 20
-2968.7500
 30
0.0000
 40
102.5000
  1
Revision:
 50
0.0000
  7
SOLINE
 73
2
 11
6875.0000
 21
-2968.7500
 31
0.0000
  0
TEXT
  5
1A6
  8
SOL-MISGERET
 10
9475.0000
 20
-2968.7500
 30
0.0000
 40
110.0000
  1
0
 50
0.0000
  7
SOLINE
 72
2
 73
2
 11
9475.0000
 21
-2968.7500
 31
0.0000
  0
LINE
  5
1A7
  8
SOL-MISGERET
 10
6800.0000
 20
-3463.1250
 30
0.0000
 11
9550.0000
 21
-3463.1250
 31
0.0000
  0
LINE
  5
1A8
  8
SOL-MISGERET
 10
9550.0000
 20
-3463.1250
 30
0.0000
 11
9550.0000
 21
-5143.1250
 31
0.0000
  0
LINE
  5
1A9
  8
SOL-MISGERET
 10
9550.0000
 20
-5143.1250
 30
0.0000
 11
6800.0000
 21
-5143.1250
 31
0.0000
  0
LINE
  5
1AA
  8
SOL-MISGERET
 10
6800.0000
 20
-5143.1250
 30
0.0000
 11
6800.0000
 21
-3463.1250
 31
0.0000
  0
LINE
  5
1AB
  8
SOL-MISGERET
 10
6800.0000
 20
-3823.1250
 30
0.0000
 11
9550.0000
 21
-3823.1250
 31
0.0000
  0
TEXT
  5
1AC
  8
SOL-TEKST
 10
9475.0000
 20
-3679.1250
 30
0.0000
 40
175.0000
  1
\U+05D8\U+05D1\U+05DC\U+05EA \U+05DE\U+05E4\U+05E8\U+05D8 \U+05E4\U+05EA\U+05D7\U+05D9\U+05DD
 50
0.0000
  7
SOLINE
 72
2
 73
2
 11
9475.0000
 21
-3679.1250
 31
0.0000
  0
TEXT
  5
1AD
  8
SOL-TEKST
 10
9467.5000
 20
-4003.1250
 30
0.0000
 40
112.5000
  1
\U+05DE\U+05E1'
 50
0.0000
  7
SOLINE
 72
2
 73
2
 11
9467.5000
 21
-4003.1250
 31
0.0000
  0
TEXT
  5
1AE
  8
SOL-TEKST
 10
9000.0000
 20
-4003.1250
 30
0.0000
 40
112.5000
  1
\U+05E1\U+05D5\U+05D2
 50
0.0000
  7
SOLINE
 72
2
 73
2
 11
9000.0000
 21
-4003.1250
 31
0.0000
  0
TEXT
  5
1AF
  8
SOL-TEKST
 10
8312.5000
 20
-4003.1250
 30
0.0000
 40
112.5000
  1
\U+05E8\U+05D5\U+05D7\U+05D1x\U+05D2\U+05D5\U+05D1\U+05D4
 50
0.0000
  7
SOLINE
 72
2
 73
2
 11
8312.5000
 21
-4003.1250
 31
0.0000
  0
TEXT
  5
1B0
  8
SOL-TEKST
 10
7680.0000
 20
-4003.1250
 30
0.0000
 40
112.5000
  1
\U+05DB\U+05D9\U+05D5\U+05D5\U+05DF
 50
0.0000
  7
SOLINE
 72
2
 73
2
 11
7680.0000
 21
-4003.1250
 31
0.0000
  0
TEXT
  5
1B1
  8
SOL-TEKST
 10
7157.5000
 20
-4003.1250
 30
0.0000
 40
112.5000
  1
\U+05DB\U+05DE\U+05D5\U+05EA
 50
0.0000
  7
SOLINE
 72
2
 73
2
 11
7157.5000
 21
-4003.1250
 31
0.0000
  0
LINE
  5
1B2
  8
SOL-TEKST
 10
6850.0000
 20
-4168.1250
 30
0.0000
 11
9500.0000
 21
-4168.1250
 31
0.0000
  0
TEXT
  5
1B3
  8
SOL-MISGERET
 10
9467.5000
 20
-4303.1250
 30
0.0000
 40
112.5000
  1
D1
 50
0.0000
  7
SOLINE
 72
2
 73
2
 11
9467.5000
 21
-4303.1250
 31
0.0000
  0
TEXT
  5
1B4
  8
SOL-TEKST
 10
9000.0000
 20
-4303.1250
 30
0.0000
 40
112.5000
  1
\U+05E4\U+05EA\U+05D7 \U+05E2\U+05DD \U+05DE\U+05E9\U+05E7\U+05D5\U+05E3
 50
0.0000
  7
SOLINE
 72
2
 73
2
 11
9000.0000
 21
-4303.1250
 31
0.0000
  0
TEXT
  5
1B5
  8
SOL-MISGERET
 10
8312.5000
 20
-4303.1250
 30
0.0000
 40
112.5000
  1
900x2050
 50
0.0000
  7
SOLINE
 72
2
 73
2
 11
8312.5000
 21
-4303.1250
 31
0.0000
  0
TEXT
  5
1B6
  8
SOL-TEKST
 10
7680.0000
 20
-4303.1250
 30
0.0000
 40
112.5000
  1
\U+05E9\U+05DE\U+05D0\U+05DC \U+05E4\U+05E0\U+05D9\U+05DE\U+05D4
 50
0.0000
  7
SOLINE
 72
2
 73
2
 11
7680.0000
 21
-4303.1250
 31
0.0000
  0
TEXT
  5
1B7
  8
SOL-MISGERET
 10
7157.5000
 20
-4303.1250
 30
0.0000
 40
112.5000
  1
x1
 50
0.0000
  7
SOLINE
 72
2
 73
2
 11
7157.5000
 21
-4303.1250
 31
0.0000
  0
TEXT
  5
1B8
  8
SOL-MISGERET
 10
9467.5000
 20
-4603.1250
 30
0.0000
 40
112.5000
  1
W1
 50
0.0000
  7
SOLINE
 72
2
 73
2
 11
9467.5000
 21
-4603.1250
 31
0.0000
  0
TEXT
  5
1B9
  8
SOL-TEKST
 10
9000.0000
 20
-4603.1250
 30
0.0000
 40
112.5000
  1
\U+05D7\U+05DC\U+05D5\U+05DF
 50
0.0000
  7
SOLINE
 72
2
 73
2
 11
9000.0000
 21
-4603.1250
 31
0.0000
  0
TEXT
  5
1BA
  8
SOL-MISGERET
 10
8312.5000
 20
-4603.1250
 30
0.0000
 40
112.5000
  1
1400x1400
 50
0.0000
  7
SOLINE
 72
2
 73
2
 11
8312.5000
 21
-4603.1250
 31
0.0000
  0
TEXT
  5
1BB
  8
SOL-TEKST
 10
7680.0000
 20
-4603.1250
 30
0.0000
 40
112.5000
  1
-
 50
0.0000
  7
SOLINE
 72
2
 73
2
 11
7680.0000
 21
-4603.1250
 31
0.0000
  0
TEXT
  5
1BC
  8
SOL-MISGERET
 10
7157.5000
 20
-4603.1250
 30
0.0000
 40
112.5000
  1
x1
 50
0.0000
  7
SOLINE
 72
2
 73
2
 11
7157.5000
 21
-4603.1250
 31
0.0000
  0
TEXT
  5
1BD
  8
SOL-MISGERET
 10
9467.5000
 20
-4903.1250
 30
0.0000
 40
112.5000
  1
W2
 50
0.0000
  7
SOLINE
 72
2
 73
2
 11
9467.5000
 21
-4903.1250
 31
0.0000
  0
TEXT
  5
1BE
  8
SOL-TEKST
 10
9000.0000
 20
-4903.1250
 30
0.0000
 40
112.5000
  1
\U+05D7\U+05DC\U+05D5\U+05DF
 50
0.0000
  7
SOLINE
 72
2
 73
2
 11
9000.0000
 21
-4903.1250
 31
0.0000
  0
TEXT
  5
1BF
  8
SOL-MISGERET
 10
8312.5000
 20
-4903.1250
 30
0.0000
 40
112.5000
  1
1800x1400
 50
0.0000
  7
SOLINE
 72
2
 73
2
 11
8312.5000
 21
-4903.1250
 31
0.0000
  0
TEXT
  5
1C0
  8
SOL-TEKST
 10
7680.0000
 20
-4903.1250
 30
0.0000
 40
112.5000
  1
-
 50
0.0000
  7
SOLINE
 72
2
 73
2
 11
7680.0000
 21
-4903.1250
 31
0.0000
  0
TEXT
  5
1C1
  8
SOL-MISGERET
 10
7157.5000
 20
-4903.1250
 30
0.0000
 40
112.5000
  1
x1
 50
0.0000
  7
SOLINE
 72
2
 73
2
 11
7157.5000
 21
-4903.1250
 31
0.0000
  0
LINE
  5
1C2
  8
SOL-MISGERET
 10
6800.0000
 20
-5418.1250
 30
0.0000
 11
9550.0000
 21
-5418.1250
 31
0.0000
  0
LINE
  5
1C3
  8
SOL-MISGERET
 10
9550.0000
 20
-5418.1250
 30
0.0000
 11
9550.0000
 21
-10878.1250
 31
0.0000
  0
LINE
  5
1C4
  8
SOL-MISGERET
 10
9550.0000
 20
-10878.1250
 30
0.0000
 11
6800.0000
 21
-10878.1250
 31
0.0000
  0
LINE
  5
1C5
  8
SOL-MISGERET
 10
6800.0000
 20
-10878.1250
 30
0.0000
 11
6800.0000
 21
-5418.1250
 31
0.0000
  0
LINE
  5
1C6
  8
SOL-MISGERET
 10
6800.0000
 20
-5808.1250
 30
0.0000
 11
9550.0000
 21
-5808.1250
 31
0.0000
  0
TEXT
  5
1C7
  8
SOL-TEKST
 10
9475.0000
 20
-5652.1250
 30
0.0000
 40
175.0000
  1
\U+05DE\U+05E7\U+05E8\U+05D0 \U+05D5\U+05E1\U+05E4\U+05D9\U+05E8\U+05EA \U+05D0\U+05DC\U+05DE\U+05E0\U+05D8\U+05D9\U+05DD
 50
0.0000
  7
SOLINE
 72
2
 73
2
 11
9475.0000
 21
-5652.1250
 31
0.0000
  0
TEXT
  5
1C8
  8
SOL-TEKST
 10
9475.0000
 20
-5986.8750
 30
0.0000
 40
131.2500
  1
\U+05D3\U+05DC\U+05EA  (1)
 50
0.0000
  7
SOLINE
 72
2
 73
2
 11
9475.0000
 21
-5986.8750
 31
0.0000
  0
LINE
  5
1C9
  8
SOL-PTACHIM
 10
6968.7500
 20
-6401.1250
 30
0.0000
 11
6977.2500
 21
-6401.1250
 31
0.0000
  0
LINE
  5
1CA
  8
SOL-PTACHIM
 10
7172.7500
 20
-6401.1250
 30
0.0000
 11
7181.2500
 21
-6401.1250
 31
0.0000
  0
LINE
  5
1CB
  8
SOL-PTACHIM
 10
6977.2500
 20
-6401.1250
 30
0.0000
 11
6977.2500
 21
-6205.6250
 31
0.0000
  0
LINE
  5
1CC
  8
SOL-PTACHIM
 10
6977.2500
 20
-6205.6250
 30
0.0000
 11
6988.2118
 21
-6205.9326
 31
0.0000
  0
LINE
  5
1CD
  8
SOL-PTACHIM
 10
6988.2118
 20
-6205.9326
 30
0.0000
 11
6999.1391
 21
-6206.8543
 31
0.0000
  0
LINE
  5
1CE
  8
SOL-PTACHIM
 10
6999.1391
 20
-6206.8543
 30
0.0000
 11
7009.9975
 21
-6208.3872
 31
0.0000
  0
LINE
  5
1CF
  8
SOL-PTACHIM
 10
7009.9975
 20
-6208.3872
 30
0.0000
 11
7020.7528
 21
-6210.5266
 31
0.0000
  0
LINE
  5
1D0
  8
SOL-PTACHIM
 10
7020.7528
 20
-6210.5266
 30
0.0000
 11
7031.3713
 21
-6213.2657
 31
0.0000
  0
LINE
  5
1D1
  8
SOL-PTACHIM
 10
7031.3713
 20
-6213.2657
 30
0.0000
 11
7041.8196
 21
-6216.5958
 31
0.0000
  0
LINE
  5
1D2
  8
SOL-PTACHIM
 10
7041.8196
 20
-6216.5958
 30
0.0000
 11
7052.0646
 21
-6220.5066
 31
0.0000
  0
LINE
  5
1D3
  8
SOL-PTACHIM
 10
7052.0646
 20
-6220.5066
 30
0.0000
 11
7062.0743
 21
-6224.9856
 31
0.0000
  0
LINE
  5
1D4
  8
SOL-PTACHIM
 10
7062.0743
 20
-6224.9856
 30
0.0000
 11
7071.8170
 21
-6230.0188
 31
0.0000
  0
LINE
  5
1D5
  8
SOL-PTACHIM
 10
7071.8170
 20
-6230.0188
 30
0.0000
 11
7081.2623
 21
-6235.5904
 31
0.0000
  0
LINE
  5
1D6
  8
SOL-PTACHIM
 10
7081.2623
 20
-6235.5904
 30
0.0000
 11
7090.3802
 21
-6241.6829
 31
0.0000
  0
LINE
  5
1D7
  8
SOL-PTACHIM
 10
7090.3802
 20
-6241.6829
 30
0.0000
 11
7099.1423
 21
-6248.2769
 31
0.0000
  0
LINE
  5
1D8
  8
SOL-PTACHIM
 10
7099.1423
 20
-6248.2769
 30
0.0000
 11
7107.5208
 21
-6255.3520
 31
0.0000
  0
LINE
  5
1D9
  8
SOL-PTACHIM
 10
7107.5208
 20
-6255.3520
 30
0.0000
 11
7115.4894
 21
-6262.8856
 31
0.0000
  0
LINE
  5
1DA
  8
SOL-PTACHIM
 10
7115.4894
 20
-6262.8856
 30
0.0000
 11
7123.0230
 21
-6270.8542
 31
0.0000
  0
LINE
  5
1DB
  8
SOL-PTACHIM
 10
7123.0230
 20
-6270.8542
 30
0.0000
 11
7130.0981
 21
-6279.2327
 31
0.0000
  0
LINE
  5
1DC
  8
SOL-PTACHIM
 10
7130.0981
 20
-6279.2327
 30
0.0000
 11
7136.6921
 21
-6287.9948
 31
0.0000
  0
LINE
  5
1DD
  8
SOL-PTACHIM
 10
7136.6921
 20
-6287.9948
 30
0.0000
 11
7142.7846
 21
-6297.1127
 31
0.0000
  0
LINE
  5
1DE
  8
SOL-PTACHIM
 10
7142.7846
 20
-6297.1127
 30
0.0000
 11
7148.3562
 21
-6306.5580
 31
0.0000
  0
LINE
  5
1DF
  8
SOL-PTACHIM
 10
7148.3562
 20
-6306.5580
 30
0.0000
 11
7153.3894
 21
-6316.3007
 31
0.0000
  0
LINE
  5
1E0
  8
SOL-PTACHIM
 10
7153.3894
 20
-6316.3007
 30
0.0000
 11
7157.8684
 21
-6326.3104
 31
0.0000
  0
LINE
  5
1E1
  8
SOL-PTACHIM
 10
7157.8684
 20
-6326.3104
 30
0.0000
 11
7161.7792
 21
-6336.5554
 31
0.0000
  0
LINE
  5
1E2
  8
SOL-PTACHIM
 10
7161.7792
 20
-6336.5554
 30
0.0000
 11
7165.1093
 21
-6347.0037
 31
0.0000
  0
LINE
  5
1E3
  8
SOL-PTACHIM
 10
7165.1093
 20
-6347.0037
 30
0.0000
 11
7167.8484
 21
-6357.6222
 31
0.0000
  0
LINE
  5
1E4
  8
SOL-PTACHIM
 10
7167.8484
 20
-6357.6222
 30
0.0000
 11
7169.9878
 21
-6368.3775
 31
0.0000
  0
LINE
  5
1E5
  8
SOL-PTACHIM
 10
7169.9878
 20
-6368.3775
 30
0.0000
 11
7171.5207
 21
-6379.2359
 31
0.0000
  0
LINE
  5
1E6
  8
SOL-PTACHIM
 10
7171.5207
 20
-6379.2359
 30
0.0000
 11
7172.4424
 21
-6390.1632
 31
0.0000
  0
LINE
  5
1E7
  8
SOL-PTACHIM
 10
7172.4424
 20
-6390.1632
 30
0.0000
 11
7172.7500
 21
-6401.1250
 31
0.0000
  0
TEXT
  5
1E8
  8
SOL-TEKST
 10
7375.0000
 20
-6311.8750
 30
0.0000
 40
112.5000
  1
x1
 50
0.0000
  7
SOLINE
 73
2
 11
7375.0000
 21
-6311.8750
 31
0.0000
  0
TEXT
  5
1E9
  8
SOL-TEKST
 10
9475.0000
 20
-6311.8750
 30
0.0000
 40
125.0000
  1
\U+05E4\U+05EA\U+05D7 \U+05D3\U+05DC\U+05EA (\U+05DC\U+05DC\U+05D0 \U+05DE\U+05E9\U+05E7\U+05D5\U+05E3)
 50
0.0000
  7
SOLINE
 72
2
 73
2
 11
9475.0000
 21
-6311.8750
 31
0.0000
  0
TEXT
  5
1EA
  8
SOL-TEKST
 10
9475.0000
 20
-6636.8750
 30
0.0000
 40
131.2500
  1
\U+05E0\U+05D9\U+05E7\U+05D5\U+05D6  (1)
 50
0.0000
  7
SOLINE
 72
2
 73
2
 11
9475.0000
 21
-6636.8750
 31
0.0000
  0
LINE
  5
1EB
  8
SOL-INSTALATSIA
 10
7075.0000
 20
-7051.1250
 30
0.0000
 11
7075.0000
 21
-6898.1250
 31
0.0000
  0
ARC
  5
1EC
  8
SOL-INSTALATSIA
 10
7075.0000
 20
-6944.8750
 30
0.0000
 40
63.7500
 50
0.0000
 51
360.0000
  0
LINE
  5
1ED
  8
SOL-INSTALATSIA
 10
7032.5000
 20
-6944.8750
 30
0.0000
 11
7053.7500
 21
-6927.8750
 31
0.0000
  0
LINE
  5
1EE
  8
SOL-INSTALATSIA
 10
7053.7500
 20
-6927.8750
 30
0.0000
 11
7075.0000
 21
-6944.8750
 31
0.0000
  0
LINE
  5
1EF
  8
SOL-INSTALATSIA
 10
7075.0000
 20
-6944.8750
 30
0.0000
 11
7096.2500
 21
-6961.8750
 31
0.0000
  0
LINE
  5
1F0
  8
SOL-INSTALATSIA
 10
7096.2500
 20
-6961.8750
 30
0.0000
 11
7117.5000
 21
-6944.8750
 31
0.0000
  0
TEXT
  5
1F1
  8
SOL-TEKST
 10
7375.0000
 20
-6961.8750
 30
0.0000
 40
112.5000
  1
x1
 50
0.0000
  7
SOLINE
 73
2
 11
7375.0000
 21
-6961.8750
 31
0.0000
  0
TEXT
  5
1F2
  8
SOL-TEKST
 10
9475.0000
 20
-6961.8750
 30
0.0000
 40
125.0000
  1
Sewage
 50
0.0000
  7
SOLINE
 72
2
 73
2
 11
9475.0000
 21
-6961.8750
 31
0.0000
  0
TEXT
  5
1F3
  8
SOL-TEKST
 10
9475.0000
 20
-7286.8750
 30
0.0000
 40
131.2500
  1
\U+05D7\U+05E9\U+05DE\U+05DC  (4)
 50
0.0000
  7
SOLINE
 72
2
 73
2
 11
9475.0000
 21
-7286.8750
 31
0.0000
  0
LINE
  5
1F4
  8
SOL-CHASHMAL
 10
7075.0000
 20
-7701.1250
 30
0.0000
 11
7075.0000
 21
-7641.6250
 31
0.0000
  0
LINE
  5
1F5
  8
SOL-CHASHMAL
 10
7011.2500
 20
-7577.8750
 30
0.0000
 11
7011.6508
 21
-7570.7373
 31
0.0000
  0
LINE
  5
1F6
  8
SOL-CHASHMAL
 10
7011.6508
 20
-7570.7373
 30
0.0000
 11
7012.8483
 21
-7563.6893
 31
0.0000
  0
LINE
  5
1F7
  8
SOL-CHASHMAL
 10
7012.8483
 20
-7563.6893
 30
0.0000
 11
7014.8274
 21
-7556.8197
 31
0.0000
  0
LINE
  5
1F8
  8
SOL-CHASHMAL
 10
7014.8274
 20
-7556.8197
 30
0.0000
 11
7017.5632
 21
-7550.2149
 31
0.0000
  0
LINE
  5
1F9
  8
SOL-CHASHMAL
 10
7017.5632
 20
-7550.2149
 30
0.0000
 11
7021.0213
 21
-7543.9580
 31
0.0000
  0
LINE
  5
1FA
  8
SOL-CHASHMAL
 10
7021.0213
 20
-7543.9580
 30
0.0000
 11
7025.1582
 21
-7538.1275
 31
0.0000
  0
LINE
  5
1FB
  8
SOL-CHASHMAL
 10
7025.1582
 20
-7538.1275
 30
0.0000
 11
7029.9219
 21
-7532.7969
 31
0.0000
  0
LINE
  5
1FC
  8
SOL-CHASHMAL
 10
7029.9219
 20
-7532.7969
 30
0.0000
 11
7035.2525
 21
-7528.0332
 31
0.0000
  0
LINE
  5
1FD
  8
SOL-CHASHMAL
 10
7035.2525
 20
-7528.0332
 30
0.0000
 11
7041.0830
 21
-7523.8963
 31
0.0000
  0
LINE
  5
1FE
  8
SOL-CHASHMAL
 10
7041.0830
 20
-7523.8963
 30
0.0000
 11
7047.3399
 21
-7520.4382
 31
0.0000
  0
LINE
  5
1FF
  8
SOL-CHASHMAL
 10
7047.3399
 20
-7520.4382
 30
0.0000
 11
7053.9447
 21
-7517.7024
 31
0.0000
  0
LINE
  5
200
  8
SOL-CHASHMAL
 10
7053.9447
 20
-7517.7024
 30
0.0000
 11
7060.8143
 21
-7515.7233
 31
0.0000
  0
LINE
  5
201
  8
SOL-CHASHMAL
 10
7060.8143
 20
-7515.7233
 30
0.0000
 11
7067.8623
 21
-7514.5258
 31
0.0000
  0
LINE
  5
202
  8
SOL-CHASHMAL
 10
7067.8623
 20
-7514.5258
 30
0.0000
 11
7075.0000
 21
-7514.1250
 31
0.0000
  0
LINE
  5
203
  8
SOL-CHASHMAL
 10
7075.0000
 20
-7514.1250
 30
0.0000
 11
7082.1377
 21
-7514.5258
 31
0.0000
  0
LINE
  5
204
  8
SOL-CHASHMAL
 10
7082.1377
 20
-7514.5258
 30
0.0000
 11
7089.1857
 21
-7515.7233
 31
0.0000
  0
LINE
  5
205
  8
SOL-CHASHMAL
 10
7089.1857
 20
-7515.7233
 30
0.0000
 11
7096.0553
 21
-7517.7024
 31
0.0000
  0
LINE
  5
206
  8
SOL-CHASHMAL
 10
7096.0553
 20
-7517.7024
 30
0.0000
 11
7102.6601
 21
-7520.4382
 31
0.0000
  0
LINE
  5
207
  8
SOL-CHASHMAL
 10
7102.6601
 20
-7520.4382
 30
0.0000
 11
7108.9170
 21
-7523.8963
 31
0.0000
  0
LINE
  5
208
  8
SOL-CHASHMAL
 10
7108.9170
 20
-7523.8963
 30
0.0000
 11
7114.7475
 21
-7528.0332
 31
0.0000
  0
LINE
  5
209
  8
SOL-CHASHMAL
 10
7114.7475
 20
-7528.0332
 30
0.0000
 11
7120.0781
 21
-7532.7969
 31
0.0000
  0
LINE
  5
20A
  8
SOL-CHASHMAL
 10
7120.0781
 20
-7532.7969
 30
0.0000
 11
7124.8418
 21
-7538.1275
 31
0.0000
  0
LINE
  5
20B
  8
SOL-CHASHMAL
 10
7124.8418
 20
-7538.1275
 30
0.0000
 11
7128.9787
 21
-7543.9580
 31
0.0000
  0
LINE
  5
20C
  8
SOL-CHASHMAL
 10
7128.9787
 20
-7543.9580
 30
0.0000
 11
7132.4368
 21
-7550.2149
 31
0.0000
  0
LINE
  5
20D
  8
SOL-CHASHMAL
 10
7132.4368
 20
-7550.2149
 30
0.0000
 11
7135.1726
 21
-7556.8197
 31
0.0000
  0
LINE
  5
20E
  8
SOL-CHASHMAL
 10
7135.1726
 20
-7556.8197
 30
0.0000
 11
7137.1517
 21
-7563.6893
 31
0.0000
  0
LINE
  5
20F
  8
SOL-CHASHMAL
 10
7137.1517
 20
-7563.6893
 30
0.0000
 11
7138.3492
 21
-7570.7373
 31
0.0000
  0
LINE
  5
210
  8
SOL-CHASHMAL
 10
7138.3492
 20
-7570.7373
 30
0.0000
 11
7138.7500
 21
-7577.8750
 31
0.0000
  0
LINE
  5
211
  8
SOL-CHASHMAL
 10
7011.2500
 20
-7577.8750
 30
0.0000
 11
7138.7500
 21
-7577.8750
 31
0.0000
  0
LINE
  5
212
  8
SOL-CHASHMAL
 10
7075.0000
 20
-7577.8750
 30
0.0000
 11
7075.0000
 21
-7622.5000
 31
0.0000
  0
TEXT
  5
213
  8
SOL-TEKST
 10
7375.0000
 20
-7611.8750
 30
0.0000
 40
112.5000
  1
x2
 50
0.0000
  7
SOLINE
 73
2
 11
7375.0000
 21
-7611.8750
 31
0.0000
  0
TEXT
  5
214
  8
SOL-TEKST
 10
9475.0000
 20
-7611.8750
 30
0.0000
 40
125.0000
  1
Socket
 50
0.0000
  7
SOLINE
 72
2
 73
2
 11
9475.0000
 21
-7611.8750
 31
0.0000
  0
LINE
  5
215
  8
SOL-CHASHMAL
 10
7075.0000
 20
-8026.1250
 30
0.0000
 11
7075.0000
 21
-7949.6250
 31
0.0000
  0
LINE
  5
216
  8
SOL-CHASHMAL
 10
6979.1625
 20
-7902.8750
 30
0.0000
 11
6979.4565
 21
-7897.6407
 31
0.0000
  0
LINE
  5
217
  8
SOL-CHASHMAL
 10
6979.4565
 20
-7897.6407
 30
0.0000
 11
6980.3346
 21
-7892.4721
 31
0.0000
  0
LINE
  5
218
  8
SOL-CHASHMAL
 10
6980.3346
 20
-7892.4721
 30
0.0000
 11
6981.7860
 21
-7887.4345
 31
0.0000
  0
LINE
  5
219
  8
SOL-CHASHMAL
 10
6981.7860
 20
-7887.4345
 30
0.0000
 11
6983.7922
 21
-7882.5909
 31
0.0000
  0
LINE
  5
21A
  8
SOL-CHASHMAL
 10
6983.7922
 20
-7882.5909
 30
0.0000
 11
6986.3281
 21
-7878.0025
 31
0.0000
  0
LINE
  5
21B
  8
SOL-CHASHMAL
 10
6986.3281
 20
-7878.0025
 30
0.0000
 11
6989.3619
 21
-7873.7269
 31
0.0000
  0
LINE
  5
21C
  8
SOL-CHASHMAL
 10
6989.3619
 20
-7873.7269
 30
0.0000
 11
6992.8553
 21
-7869.8178
 31
0.0000
  0
LINE
  5
21D
  8
SOL-CHASHMAL
 10
6992.8553
 20
-7869.8178
 30
0.0000
 11
6996.7644
 21
-7866.3244
 31
0.0000
  0
LINE
  5
21E
  8
SOL-CHASHMAL
 10
6996.7644
 20
-7866.3244
 30
0.0000
 11
7001.0400
 21
-7863.2906
 31
0.0000
  0
LINE
  5
21F
  8
SOL-CHASHMAL
 10
7001.0400
 20
-7863.2906
 30
0.0000
 11
7005.6284
 21
-7860.7547
 31
0.0000
  0
LINE
  5
220
  8
SOL-CHASHMAL
 10
7005.6284
 20
-7860.7547
 30
0.0000
 11
7010.4720
 21
-7858.7485
 31
0.0000
  0
LINE
  5
221
  8
SOL-CHASHMAL
 10
7010.4720
 20
-7858.7485
 30
0.0000
 11
7015.5096
 21
-7857.2971
 31
0.0000
  0
LINE
  5
222
  8
SOL-CHASHMAL
 10
7015.5096
 20
-7857.2971
 30
0.0000
 11
7020.6782
 21
-7856.4190
 31
0.0000
  0
LINE
  5
223
  8
SOL-CHASHMAL
 10
7020.6782
 20
-7856.4190
 30
0.0000
 11
7025.9125
 21
-7856.1250
 31
0.0000
  0
LINE
  5
224
  8
SOL-CHASHMAL
 10
7025.9125
 20
-7856.1250
 30
0.0000
 11
7031.1468
 21
-7856.4190
 31
0.0000
  0
LINE
  5
225
  8
SOL-CHASHMAL
 10
7031.1468
 20
-7856.4190
 30
0.0000
 11
7036.3154
 21
-7857.2971
 31
0.0000
  0
LINE
  5
226
  8
SOL-CHASHMAL
 10
7036.3154
 20
-7857.2971
 30
0.0000
 11
7041.3530
 21
-7858.7485
 31
0.0000
  0
LINE
  5
227
  8
SOL-CHASHMAL
 10
7041.3530
 20
-7858.7485
 30
0.0000
 11
7046.1966
 21
-7860.7547
 31
0.0000
  0
LINE
  5
228
  8
SOL-CHASHMAL
 10
7046.1966
 20
-7860.7547
 30
0.0000
 11
7050.7850
 21
-7863.2906
 31
0.0000
  0
LINE
  5
229
  8
SOL-CHASHMAL
 10
7050.7850
 20
-7863.2906
 30
0.0000
 11
7055.0606
 21
-7866.3244
 31
0.0000
  0
LINE
  5
22A
  8
SOL-CHASHMAL
 10
7055.0606
 20
-7866.3244
 30
0.0000
 11
7058.9697
 21
-7869.8178
 31
0.0000
  0
LINE
  5
22B
  8
SOL-CHASHMAL
 10
7058.9697
 20
-7869.8178
 30
0.0000
 11
7062.4631
 21
-7873.7269
 31
0.0000
  0
LINE
  5
22C
  8
SOL-CHASHMAL
 10
7062.4631
 20
-7873.7269
 30
0.0000
 11
7065.4969
 21
-7878.0025
 31
0.0000
  0
LINE
  5
22D
  8
SOL-CHASHMAL
 10
7065.4969
 20
-7878.0025
 30
0.0000
 11
7068.0328
 21
-7882.5909
 31
0.0000
  0
LINE
  5
22E
  8
SOL-CHASHMAL
 10
7068.0328
 20
-7882.5909
 30
0.0000
 11
7070.0390
 21
-7887.4345
 31
0.0000
  0
LINE
  5
22F
  8
SOL-CHASHMAL
 10
7070.0390
 20
-7887.4345
 30
0.0000
 11
7071.4904
 21
-7892.4721
 31
0.0000
  0
LINE
  5
230
  8
SOL-CHASHMAL
 10
7071.4904
 20
-7892.4721
 30
0.0000
 11
7072.3685
 21
-7897.6407
 31
0.0000
  0
LINE
  5
231
  8
SOL-CHASHMAL
 10
7072.3685
 20
-7897.6407
 30
0.0000
 11
7072.6625
 21
-7902.8750
 31
0.0000
  0
LINE
  5
232
  8
SOL-CHASHMAL
 10
6979.1625
 20
-7902.8750
 30
0.0000
 11
7072.6625
 21
-7902.8750
 31
0.0000
  0
LINE
  5
233
  8
SOL-CHASHMAL
 10
7025.9125
 20
-7902.8750
 30
0.0000
 11
7025.9125
 21
-7935.6000
 31
0.0000
  0
LINE
  5
234
  8
SOL-CHASHMAL
 10
7077.3375
 20
-7902.8750
 30
0.0000
 11
7077.6315
 21
-7897.6407
 31
0.0000
  0
LINE
  5
235
  8
SOL-CHASHMAL
 10
7077.6315
 20
-7897.6407
 30
0.0000
 11
7078.5096
 21
-7892.4721
 31
0.0000
  0
LINE
  5
236
  8
SOL-CHASHMAL
 10
7078.5096
 20
-7892.4721
 30
0.0000
 11
7079.9610
 21
-7887.4345
 31
0.0000
  0
LINE
  5
237
  8
SOL-CHASHMAL
 10
7079.9610
 20
-7887.4345
 30
0.0000
 11
7081.9672
 21
-7882.5909
 31
0.0000
  0
LINE
  5
238
  8
SOL-CHASHMAL
 10
7081.9672
 20
-7882.5909
 30
0.0000
 11
7084.5031
 21
-7878.0025
 31
0.0000
  0
LINE
  5
239
  8
SOL-CHASHMAL
 10
7084.5031
 20
-7878.0025
 30
0.0000
 11
7087.5369
 21
-7873.7269
 31
0.0000
  0
LINE
  5
23A
  8
SOL-CHASHMAL
 10
7087.5369
 20
-7873.7269
 30
0.0000
 11
7091.0303
 21
-7869.8178
 31
0.0000
  0
LINE
  5
23B
  8
SOL-CHASHMAL
 10
7091.0303
 20
-7869.8178
 30
0.0000
 11
7094.9394
 21
-7866.3244
 31
0.0000
  0
LINE
  5
23C
  8
SOL-CHASHMAL
 10
7094.9394
 20
-7866.3244
 30
0.0000
 11
7099.2150
 21
-7863.2906
 31
0.0000
  0
LINE
  5
23D
  8
SOL-CHASHMAL
 10
7099.2150
 20
-7863.2906
 30
0.0000
 11
7103.8034
 21
-7860.7547
 31
0.0000
  0
LINE
  5
23E
  8
SOL-CHASHMAL
 10
7103.8034
 20
-7860.7547
 30
0.0000
 11
7108.6470
 21
-7858.7485
 31
0.0000
  0
LINE
  5
23F
  8
SOL-CHASHMAL
 10
7108.6470
 20
-7858.7485
 30
0.0000
 11
7113.6846
 21
-7857.2971
 31
0.0000
  0
LINE
  5
240
  8
SOL-CHASHMAL
 10
7113.6846
 20
-7857.2971
 30
0.0000
 11
7118.8532
 21
-7856.4190
 31
0.0000
  0
LINE
  5
241
  8
SOL-CHASHMAL
 10
7118.8532
 20
-7856.4190
 30
0.0000
 11
7124.0875
 21
-7856.1250
 31
0.0000
  0
LINE
  5
242
  8
SOL-CHASHMAL
 10
7124.0875
 20
-7856.1250
 30
0.0000
 11
7129.3218
 21
-7856.4190
 31
0.0000
  0
LINE
  5
243
  8
SOL-CHASHMAL
 10
7129.3218
 20
-7856.4190
 30
0.0000
 11
7134.4904
 21
-7857.2971
 31
0.0000
  0
LINE
  5
244
  8
SOL-CHASHMAL
 10
7134.4904
 20
-7857.2971
 30
0.0000
 11
7139.5280
 21
-7858.7485
 31
0.0000
  0
LINE
  5
245
  8
SOL-CHASHMAL
 10
7139.5280
 20
-7858.7485
 30
0.0000
 11
7144.3716
 21
-7860.7547
 31
0.0000
  0
LINE
  5
246
  8
SOL-CHASHMAL
 10
7144.3716
 20
-7860.7547
 30
0.0000
 11
7148.9600
 21
-7863.2906
 31
0.0000
  0
LINE
  5
247
  8
SOL-CHASHMAL
 10
7148.9600
 20
-7863.2906
 30
0.0000
 11
7153.2356
 21
-7866.3244
 31
0.0000
  0
LINE
  5
248
  8
SOL-CHASHMAL
 10
7153.2356
 20
-7866.3244
 30
0.0000
 11
7157.1447
 21
-7869.8178
 31
0.0000
  0
LINE
  5
249
  8
SOL-CHASHMAL
 10
7157.1447
 20
-7869.8178
 30
0.0000
 11
7160.6381
 21
-7873.7269
 31
0.0000
  0
LINE
  5
24A
  8
SOL-CHASHMAL
 10
7160.6381
 20
-7873.7269
 30
0.0000
 11
7163.6719
 21
-7878.0025
 31
0.0000
  0
LINE
  5
24B
  8
SOL-CHASHMAL
 10
7163.6719
 20
-7878.0025
 30
0.0000
 11
7166.2078
 21
-7882.5909
 31
0.0000
  0
LINE
  5
24C
  8
SOL-CHASHMAL
 10
7166.2078
 20
-7882.5909
 30
0.0000
 11
7168.2140
 21
-7887.4345
 31
0.0000
  0
LINE
  5
24D
  8
SOL-CHASHMAL
 10
7168.2140
 20
-7887.4345
 30
0.0000
 11
7169.6654
 21
-7892.4721
 31
0.0000
  0
LINE
  5
24E
  8
SOL-CHASHMAL
 10
7169.6654
 20
-7892.4721
 30
0.0000
 11
7170.5435
 21
-7897.6407
 31
0.0000
  0
LINE
  5
24F
  8
SOL-CHASHMAL
 10
7170.5435
 20
-7897.6407
 30
0.0000
 11
7170.8375
 21
-7902.8750
 31
0.0000
  0
LINE
  5
250
  8
SOL-CHASHMAL
 10
7077.3375
 20
-7902.8750
 30
0.0000
 11
7170.8375
 21
-7902.8750
 31
0.0000
  0
LINE
  5
251
  8
SOL-CHASHMAL
 10
7124.0875
 20
-7902.8750
 30
0.0000
 11
7124.0875
 21
-7935.6000
 31
0.0000
  0
TEXT
  5
252
  8
SOL-TEKST
 10
7375.0000
 20
-7936.8750
 30
0.0000
 40
112.5000
  1
x1
 50
0.0000
  7
SOLINE
 73
2
 11
7375.0000
 21
-7936.8750
 31
0.0000
  0
TEXT
  5
253
  8
SOL-TEKST
 10
9475.0000
 20
-7936.8750
 30
0.0000
 40
125.0000
  1
\U+05E9\U+05E7\U+05E2 \U+05DB\U+05E4\U+05D5\U+05DC
 50
0.0000
  7
SOLINE
 72
2
 73
2
 11
9475.0000
 21
-7936.8750
 31
0.0000
  0
LINE
  5
254
  8
SOL-CHASHMAL
 10
7075.0000
 20
-8351.1250
 30
0.0000
 11
7075.0000
 21
-8202.3750
 31
0.0000
  0
ARC
  5
255
  8
SOL-CHASHMAL
 10
7075.0000
 20
-8244.8750
 30
0.0000
 40
38.2500
 50
0.0000
 51
360.0000
  0
ARC
  5
256
  8
SOL-CHASHMAL
 10
7075.0000
 20
-8244.8750
 30
0.0000
 40
10.6250
 50
0.0000
 51
360.0000
  0
TEXT
  5
257
  8
SOL-TEKST
 10
7375.0000
 20
-8261.8750
 30
0.0000
 40
112.5000
  1
x1
 50
0.0000
  7
SOLINE
 73
2
 11
7375.0000
 21
-8261.8750
 31
0.0000
  0
TEXT
  5
258
  8
SOL-TEKST
 10
9475.0000
 20
-8261.8750
 30
0.0000
 40
125.0000
  1
\U+05E7\U+05D5\U+05E4\U+05E1\U+05EA \U+05D7\U+05D9\U+05D1\U+05D5\U+05E8\U+05D9\U+05DD (\U+05D2\U+05F3\U+05D0\U+05E0\U+05E7\U+05E9\U+05DF)
 50
0.0000
  7
SOLINE
 72
2
 73
2
 11
9475.0000
 21
-8261.8750
 31
0.0000
  0
TEXT
  5
259
  8
SOL-TEKST
 10
9475.0000
 20
-8586.8750
 30
0.0000
 40
131.2500
  1
\U+05D2\U+05D6  (1)
 50
0.0000
  7
SOLINE
 72
2
 73
2
 11
9475.0000
 21
-8586.8750
 31
0.0000
  0
LINE
  5
25A
  8
SOL-GAZ
 10
7075.0000
 20
-9001.1250
 30
0.0000
 11
7075.0000
 21
-8848.1250
 31
0.0000
  0
LINE
  5
25B
  8
SOL-GAZ
 10
7075.0000
 20
-8831.1250
 30
0.0000
 11
7130.2500
 21
-8863.0000
 31
0.0000
  0
LINE
  5
25C
  8
SOL-GAZ
 10
7130.2500
 20
-8863.0000
 30
0.0000
 11
7130.2500
 21
-8926.7500
 31
0.0000
  0
LINE
  5
25D
  8
SOL-GAZ
 10
7130.2500
 20
-8926.7500
 30
0.0000
 11
7075.0000
 21
-8958.6250
 31
0.0000
  0
LINE
  5
25E
  8
SOL-GAZ
 10
7075.0000
 20
-8958.6250
 30
0.0000
 11
7019.7500
 21
-8926.7500
 31
0.0000
  0
LINE
  5
25F
  8
SOL-GAZ
 10
7019.7500
 20
-8926.7500
 30
0.0000
 11
7019.7500
 21
-8863.0000
 31
0.0000
  0
LINE
  5
260
  8
SOL-GAZ
 10
7019.7500
 20
-8863.0000
 30
0.0000
 11
7075.0000
 21
-8831.1250
 31
0.0000
  0
TEXT
  5
261
  8
SOL-GAZ
 10
7075.0000
 20
-8907.6250
 30
0.0000
 40
55.2500
  1
G
 50
0.0000
  7
SOLINE
 72
1
 73
2
 11
7075.0000
 21
-8907.6250
 31
0.0000
  0
TEXT
  5
262
  8
SOL-TEKST
 10
7375.0000
 20
-8911.8750
 30
0.0000
 40
112.5000
  1
x1
 50
0.0000
  7
SOLINE
 73
2
 11
7375.0000
 21
-8911.8750
 31
0.0000
  0
TEXT
  5
263
  8
SOL-TEKST
 10
9475.0000
 20
-8911.8750
 30
0.0000
 40
125.0000
  1
Gas
 50
0.0000
  7
SOLINE
 72
2
 73
2
 11
9475.0000
 21
-8911.8750
 31
0.0000
  0
TEXT
  5
264
  8
SOL-TEKST
 10
9475.0000
 20
-9236.8750
 30
0.0000
 40
131.2500
  1
\U+05DE\U+05D9\U+05DD  (2)
 50
0.0000
  7
SOLINE
 72
2
 73
2
 11
9475.0000
 21
-9236.8750
 31
0.0000
  0
LINE
  5
265
  8
SOL-INSTALATSIA
 10
7075.0000
 20
-9651.1250
 30
0.0000
 11
7075.0000
 21
-9510.8750
 31
0.0000
  0
ARC
  5
266
  8
SOL-INSTALATSIA
 10
7075.0000
 20
-9544.8750
 30
0.0000
 40
51.0000
 50
0.0000
 51
360.0000
  0
ARC
  5
267
  8
SOL-INSTALATSIA
 10
7075.0000
 20
-9544.8750
 30
0.0000
 40
17.0000
 50
0.0000
 51
360.0000
  0
TEXT
  5
268
  8
SOL-TEKST
 10
7375.0000
 20
-9561.8750
 30
0.0000
 40
112.5000
  1
x1
 50
0.0000
  7
SOLINE
 73
2
 11
7375.0000
 21
-9561.8750
 31
0.0000
  0
TEXT
  5
269
  8
SOL-TEKST
 10
9475.0000
 20
-9561.8750
 30
0.0000
 40
125.0000
  1
Faucet
 50
0.0000
  7
SOLINE
 72
2
 73
2
 11
9475.0000
 21
-9561.8750
 31
0.0000
  0
LINE
  5
26A
  8
SOL-INSTALATSIA
 10
7075.0000
 20
-9976.1250
 30
0.0000
 11
7075.0000
 21
-9827.3750
 31
0.0000
  0
ARC
  5
26B
  8
SOL-INSTALATSIA
 10
7075.0000
 20
-9869.8750
 30
0.0000
 40
59.5000
 50
0.0000
 51
360.0000
  0
LINE
  5
26C
  8
SOL-INSTALATSIA
 10
7028.2500
 20
-9869.8750
 30
0.0000
 11
7121.7500
 21
-9869.8750
 31
0.0000
  0
LINE
  5
26D
  8
SOL-INSTALATSIA
 10
7075.0000
 20
-9823.1250
 30
0.0000
 11
7075.0000
 21
-9916.6250
 31
0.0000
  0
TEXT
  5
26E
  8
SOL-TEKST
 10
7375.0000
 20
-9886.8750
 30
0.0000
 40
112.5000
  1
x1
 50
0.0000
  7
SOLINE
 73
2
 11
7375.0000
 21
-9886.8750
 31
0.0000
  0
TEXT
  5
26F
  8
SOL-TEKST
 10
9475.0000
 20
-9886.8750
 30
0.0000
 40
125.0000
  1
Water Supply
 50
0.0000
  7
SOLINE
 72
2
 73
2
 11
9475.0000
 21
-9886.8750
 31
0.0000
  0
TEXT
  5
270
  8
SOL-TEKST
 10
9475.0000
 20
-10211.8750
 30
0.0000
 40
131.2500
  1
\U+05D7\U+05DC\U+05D5\U+05DF  (2)
 50
0.0000
  7
SOLINE
 72
2
 73
2
 11
9475.0000
 21
-10211.8750
 31
0.0000
  0
LINE
  5
271
  8
SOL-PTACHIM
 10
6968.7500
 20
-10490.1250
 30
0.0000
 11
7181.2500
 21
-10490.1250
 31
0.0000
  0
LINE
  5
272
  8
SOL-PTACHIM
 10
7181.2500
 20
-10490.1250
 30
0.0000
 11
7181.2500
 21
-10549.6250
 31
0.0000
  0
LINE
  5
273
  8
SOL-PTACHIM
 10
7181.2500
 20
-10549.6250
 30
0.0000
 11
6968.7500
 21
-10549.6250
 31
0.0000
  0
LINE
  5
274
  8
SOL-PTACHIM
 10
6968.7500
 20
-10549.6250
 30
0.0000
 11
6968.7500
 21
-10490.1250
 31
0.0000
  0
LINE
  5
275
  8
SOL-PTACHIM
 10
6968.7500
 20
-10519.8750
 30
0.0000
 11
7181.2500
 21
-10519.8750
 31
0.0000
  0
TEXT
  5
276
  8
SOL-TEKST
 10
7375.0000
 20
-10536.8750
 30
0.0000
 40
112.5000
  1
x2
 50
0.0000
  7
SOLINE
 73
2
 11
7375.0000
 21
-10536.8750
 31
0.0000
  0
TEXT
  5
277
  8
SOL-TEKST
 10
9475.0000
 20
-10536.8750
 30
0.0000
 40
125.0000
  1
\U+05D7\U+05DC\U+05D5\U+05DF
 50
0.0000
  7
SOLINE
 72
2
 73
2
 11
9475.0000
 21
-10536.8750
 31
0.0000
  0
LINE
  5
278
  8
SOL-MISGERET
 10
8175.0000
 20
-11403.1250
 30
0.0000
 11
8175.0000
 21
-10778.1250
 31
0.0000
  0
SOLID
  5
279
  8
SOL-MISGERET
 10
8175.0000
 20
-10778.1250
 30
0.0000
 11
8112.5000
 21
-10903.1250
 31
0.0000
 12
8237.5000
 22
-10903.1250
 32
0.0000
 13
8237.5000
 23
-10903.1250
 33
0.0000
  0
TEXT
  5
27A
  8
SOL-MISGERET
 10
8175.0000
 20
-10740.6250
 30
0.0000
 40
137.5000
  1
N
 50
0.0000
  7
SOLINE
 72
1
 73
3
 11
8175.0000
 21
-10740.6250
 31
0.0000
  0
LINE
  5
27B
  8
SOL-MISGERET
 10
7800.0000
 20
-11590.6250
 30
0.0000
 11
8600.0000
 21
-11590.6250
 31
0.0000
  0
LINE
  5
27C
  8
SOL-MISGERET
 10
7800.0000
 20
-11590.6250
 30
0.0000
 11
7800.0000
 21
-11653.1250
 31
0.0000
  0
LINE
  5
27D
  8
SOL-MISGERET
 10
8000.0000
 20
-11590.6250
 30
0.0000
 11
8000.0000
 21
-11653.1250
 31
0.0000
  0
LINE
  5
27E
  8
SOL-MISGERET
 10
8200.0000
 20
-11590.6250
 30
0.0000
 11
8200.0000
 21
-11653.1250
 31
0.0000
  0
LINE
  5
27F
  8
SOL-MISGERET
 10
8400.0000
 20
-11590.6250
 30
0.0000
 11
8400.0000
 21
-11653.1250
 31
0.0000
  0
LINE
  5
280
  8
SOL-MISGERET
 10
8600.0000
 20
-11590.6250
 30
0.0000
 11
8600.0000
 21
-11653.1250
 31
0.0000
  0
TEXT
  5
281
  8
SOL-MISGERET
 10
7800.0000
 20
-11790.6250
 30
0.0000
 40
87.5000
  1
0
 50
0.0000
  7
SOLINE
 72
1
 11
7800.0000
 21
-11790.6250
 31
0.0000
  0
TEXT
  5
282
  8
SOL-MISGERET
 10
8600.0000
 20
-11790.6250
 30
0.0000
 40
87.5000
  1
0.8 m
 50
0.0000
  7
SOLINE
 72
2
 11
8600.0000
 21
-11790.6250
 31
0.0000
  0
LINE
  5
283
  8
SOL-KIROT
 10
-900.0000
 20
-11400.0000
 30
0.0000
 11
3100.0000
 21
-11400.0000
 31
0.0000
  0
LINE
  5
284
  8
SOL-KIROT
 10
3100.0000
 20
-11400.0000
 30
0.0000
 11
3100.0000
 21
-8800.0000
 31
0.0000
  0
LINE
  5
285
  8
SOL-KIROT
 10
3100.0000
 20
-8800.0000
 30
0.0000
 11
-900.0000
 21
-8800.0000
 31
0.0000
  0
LINE
  5
286
  8
SOL-KIROT
 10
-900.0000
 20
-8800.0000
 30
0.0000
 11
-900.0000
 21
-11400.0000
 31
0.0000
  0
LINE
  5
287
  8
SOL-MIDOT-CHUTS
 10
-900.0000
 20
-11450.0000
 30
0.0000
 11
-900.0000
 21
-11850.0000
 31
0.0000
  0
LINE
  5
288
  8
SOL-MIDOT-CHUTS
 10
3100.0000
 20
-11450.0000
 30
0.0000
 11
3100.0000
 21
-11850.0000
 31
0.0000
  0
LINE
  5
289
  8
SOL-MIDOT-CHUTS
 10
-900.0000
 20
-11775.0000
 30
0.0000
 11
3100.0000
 21
-11775.0000
 31
0.0000
  0
SOLID
  5
28A
  8
SOL-MIDOT-CHUTS
 10
-900.0000
 20
-11775.0000
 30
0.0000
 11
-1043.7500
 21
-11815.0000
 31
0.0000
 12
-1043.7500
 22
-11735.0000
 32
0.0000
 13
-1043.7500
 23
-11735.0000
 33
0.0000
  0
SOLID
  5
28B
  8
SOL-MIDOT-CHUTS
 10
3100.0000
 20
-11775.0000
 30
0.0000
 11
3243.7500
 21
-11815.0000
 31
0.0000
 12
3243.7500
 22
-11735.0000
 32
0.0000
 13
3243.7500
 23
-11735.0000
 33
0.0000
  0
TEXT
  5
28C
  8
SOL-MIDOT-CHUTS
 10
1100.0000
 20
-11893.7500
 30
0.0000
 40
125.0000
  1
400
 50
0.0000
  7
SOLINE
 72
1
 73
2
 11
1100.0000
 21
-11893.7500
 31
0.0000
  0
LINE
  5
28D
  8
SOL-MIDOT-CHUTS
 10
-950.0000
 20
-11400.0000
 30
0.0000
 11
-1350.0000
 21
-11400.0000
 31
0.0000
  0
LINE
  5
28E
  8
SOL-MIDOT-CHUTS
 10
-950.0000
 20
-8800.0000
 30
0.0000
 11
-1350.0000
 21
-8800.0000
 31
0.0000
  0
LINE
  5
28F
  8
SOL-MIDOT-CHUTS
 10
-1275.0000
 20
-11400.0000
 30
0.0000
 11
-1275.0000
 21
-8800.0000
 31
0.0000
  0
SOLID
  5
290
  8
SOL-MIDOT-CHUTS
 10
-1275.0000
 20
-11400.0000
 30
0.0000
 11
-1315.0000
 21
-11543.7500
 31
0.0000
 12
-1235.0000
 22
-11543.7500
 32
0.0000
 13
-1235.0000
 23
-11543.7500
 33
0.0000
  0
SOLID
  5
291
  8
SOL-MIDOT-CHUTS
 10
-1275.0000
 20
-8800.0000
 30
0.0000
 11
-1315.0000
 21
-8656.2500
 31
0.0000
 12
-1235.0000
 22
-8656.2500
 32
0.0000
 13
-1235.0000
 23
-8656.2500
 33
0.0000
  0
TEXT
  5
292
  8
SOL-MIDOT-CHUTS
 10
-1393.7500
 20
-10100.0000
 30
0.0000
 40
125.0000
  1
260
 50
90.0000
  7
SOLINE
 72
1
 73
2
 11
-1393.7500
 21
-10100.0000
 31
0.0000
  0
LINE
  5
293
  8
SOL-CHASHMAL
 10
-400.0000
 20
-10340.0000
 30
0.0000
 11
-320.0000
 21
-10340.0000
 31
0.0000
  0
LINE
  5
294
  8
SOL-CHASHMAL
 10
-320.0000
 20
-10340.0000
 30
0.0000
 11
-320.0000
 21
-10260.0000
 31
0.0000
  0
LINE
  5
295
  8
SOL-CHASHMAL
 10
-320.0000
 20
-10260.0000
 30
0.0000
 11
-400.0000
 21
-10260.0000
 31
0.0000
  0
LINE
  5
296
  8
SOL-CHASHMAL
 10
-400.0000
 20
-10260.0000
 30
0.0000
 11
-400.0000
 21
-10340.0000
 31
0.0000
  0
LINE
  5
297
  8
SOL-CHASHMAL
 10
-360.0000
 20
-10340.0000
 30
0.0000
 11
-360.0000
 21
-10317.6000
 31
0.0000
  0
LINE
  5
298
  8
SOL-CHASHMAL
 10
-384.0000
 20
-10293.6000
 30
0.0000
 11
-383.8491
 21
-10290.9129
 31
0.0000
  0
LINE
  5
299
  8
SOL-CHASHMAL
 10
-383.8491
 20
-10290.9129
 30
0.0000
 11
-383.3983
 21
-10288.2595
 31
0.0000
  0
LINE
  5
29A
  8
SOL-CHASHMAL
 10
-383.3983
 20
-10288.2595
 30
0.0000
 11
-382.6532
 21
-10285.6733
 31
0.0000
  0
LINE
  5
29B
  8
SOL-CHASHMAL
 10
-382.6532
 20
-10285.6733
 30
0.0000
 11
-381.6233
 21
-10283.1868
 31
0.0000
  0
LINE
  5
29C
  8
SOL-CHASHMAL
 10
-381.6233
 20
-10283.1868
 30
0.0000
 11
-380.3214
 21
-10280.8312
 31
0.0000
  0
LINE
  5
29D
  8
SOL-CHASHMAL
 10
-380.3214
 20
-10280.8312
 30
0.0000
 11
-378.7640
 21
-10278.6362
 31
0.0000
  0
LINE
  5
29E
  8
SOL-CHASHMAL
 10
-378.7640
 20
-10278.6362
 30
0.0000
 11
-376.9706
 21
-10276.6294
 31
0.0000
  0
LINE
  5
29F
  8
SOL-CHASHMAL
 10
-376.9706
 20
-10276.6294
 30
0.0000
 11
-374.9638
 21
-10274.8360
 31
0.0000
  0
LINE
  5
2A0
  8
SOL-CHASHMAL
 10
-374.9638
 20
-10274.8360
 30
0.0000
 11
-372.7688
 21
-10273.2786
 31
0.0000
  0
LINE
  5
2A1
  8
SOL-CHASHMAL
 10
-372.7688
 20
-10273.2786
 30
0.0000
 11
-370.4132
 21
-10271.9767
 31
0.0000
  0
LINE
  5
2A2
  8
SOL-CHASHMAL
 10
-370.4132
 20
-10271.9767
 30
0.0000
 11
-367.9267
 21
-10270.9468
 31
0.0000
  0
LINE
  5
2A3
  8
SOL-CHASHMAL
 10
-367.9267
 20
-10270.9468
 30
0.0000
 11
-365.3405
 21
-10270.2017
 31
0.0000
  0
LINE
  5
2A4
  8
SOL-CHASHMAL
 10
-365.3405
 20
-10270.2017
 30
0.0000
 11
-362.6871
 21
-10269.7509
 31
0.0000
  0
LINE
  5
2A5
  8
SOL-CHASHMAL
 10
-362.6871
 20
-10269.7509
 30
0.0000
 11
-360.0000
 21
-10269.6000
 31
0.0000
  0
LINE
  5
2A6
  8
SOL-CHASHMAL
 10
-360.0000
 20
-10269.6000
 30
0.0000
 11
-357.3129
 21
-10269.7509
 31
0.0000
  0
LINE
  5
2A7
  8
SOL-CHASHMAL
 10
-357.3129
 20
-10269.7509
 30
0.0000
 11
-354.6595
 21
-10270.2017
 31
0.0000
  0
LINE
  5
2A8
  8
SOL-CHASHMAL
 10
-354.6595
 20
-10270.2017
 30
0.0000
 11
-352.0733
 21
-10270.9468
 31
0.0000
  0
LINE
  5
2A9
  8
SOL-CHASHMAL
 10
-352.0733
 20
-10270.9468
 30
0.0000
 11
-349.5868
 21
-10271.9767
 31
0.0000
  0
LINE
  5
2AA
  8
SOL-CHASHMAL
 10
-349.5868
 20
-10271.9767
 30
0.0000
 11
-347.2312
 21
-10273.2786
 31
0.0000
  0
LINE
  5
2AB
  8
SOL-CHASHMAL
 10
-347.2312
 20
-10273.2786
 30
0.0000
 11
-345.0362
 21
-10274.8360
 31
0.0000
  0
LINE
  5
2AC
  8
SOL-CHASHMAL
 10
-345.0362
 20
-10274.8360
 30
0.0000
 11
-343.0294
 21
-10276.6294
 31
0.0000
  0
LINE
  5
2AD
  8
SOL-CHASHMAL
 10
-343.0294
 20
-10276.6294
 30
0.0000
 11
-341.2360
 21
-10278.6362
 31
0.0000
  0
LINE
  5
2AE
  8
SOL-CHASHMAL
 10
-341.2360
 20
-10278.6362
 30
0.0000
 11
-339.6786
 21
-10280.8312
 31
0.0000
  0
LINE
  5
2AF
  8
SOL-CHASHMAL
 10
-339.6786
 20
-10280.8312
 30
0.0000
 11
-338.3767
 21
-10283.1868
 31
0.0000
  0
LINE
  5
2B0
  8
SOL-CHASHMAL
 10
-338.3767
 20
-10283.1868
 30
0.0000
 11
-337.3468
 21
-10285.6733
 31
0.0000
  0
LINE
  5
2B1
  8
SOL-CHASHMAL
 10
-337.3468
 20
-10285.6733
 30
0.0000
 11
-336.6017
 21
-10288.2595
 31
0.0000
  0
LINE
  5
2B2
  8
SOL-CHASHMAL
 10
-336.6017
 20
-10288.2595
 30
0.0000
 11
-336.1509
 21
-10290.9129
 31
0.0000
  0
LINE
  5
2B3
  8
SOL-CHASHMAL
 10
-336.1509
 20
-10290.9129
 30
0.0000
 11
-336.0000
 21
-10293.6000
 31
0.0000
  0
LINE
  5
2B4
  8
SOL-CHASHMAL
 10
-384.0000
 20
-10293.6000
 30
0.0000
 11
-336.0000
 21
-10293.6000
 31
0.0000
  0
LINE
  5
2B5
  8
SOL-CHASHMAL
 10
-360.0000
 20
-10293.6000
 30
0.0000
 11
-360.0000
 21
-10310.4000
 31
0.0000
  0
LINE
  5
2B6
  8
SOL-DIM-CHASHMAL-1
 10
-900.0000
 20
-11440.0000
 30
0.0000
 11
-900.0000
 21
-12272.5000
 31
0.0000
  0
LINE
  5
2B7
  8
SOL-DIM-CHASHMAL-1
 10
-360.0000
 20
-11440.0000
 30
0.0000
 11
-360.0000
 21
-12272.5000
 31
0.0000
  0
LINE
  5
2B8
  8
SOL-DIM-CHASHMAL-1
 10
-900.0000
 20
-12212.5000
 30
0.0000
 11
-360.0000
 21
-12212.5000
 31
0.0000
  0
SOLID
  5
2B9
  8
SOL-DIM-CHASHMAL-1
 10
-900.0000
 20
-12212.5000
 30
0.0000
 11
-1015.0000
 21
-12244.5000
 31
0.0000
 12
-1015.0000
 22
-12180.5000
 32
0.0000
 13
-1015.0000
 23
-12180.5000
 33
0.0000
  0
SOLID
  5
2BA
  8
SOL-DIM-CHASHMAL-1
 10
-360.0000
 20
-12212.5000
 30
0.0000
 11
-245.0000
 21
-12244.5000
 31
0.0000
 12
-245.0000
 22
-12180.5000
 32
0.0000
 13
-245.0000
 23
-12180.5000
 33
0.0000
  0
TEXT
  5
2BB
  8
SOL-DIM-CHASHMAL-1
 10
-630.0000
 20
-12307.5000
 30
0.0000
 40
100.0000
  1
54
 50
0.0000
  7
SOLINE
 72
1
 73
2
 11
-630.0000
 21
-12307.5000
 31
0.0000
  0
LINE
  5
2BC
  8
SOL-DIM-CHASHMAL-1
 10
-400.0000
 20
-11400.0000
 30
0.0000
 11
-647.5000
 21
-11400.0000
 31
0.0000
  0
LINE
  5
2BD
  8
SOL-DIM-CHASHMAL-1
 10
-400.0000
 20
-10300.0000
 30
0.0000
 11
-647.5000
 21
-10300.0000
 31
0.0000
  0
LINE
  5
2BE
  8
SOL-DIM-CHASHMAL-1
 10
-587.5000
 20
-11400.0000
 30
0.0000
 11
-587.5000
 21
-10300.0000
 31
0.0000
  0
SOLID
  5
2BF
  8
SOL-DIM-CHASHMAL-1
 10
-587.5000
 20
-11400.0000
 30
0.0000
 11
-619.5000
 21
-11515.0000
 31
0.0000
 12
-555.5000
 22
-11515.0000
 32
0.0000
 13
-555.5000
 23
-11515.0000
 33
0.0000
  0
SOLID
  5
2C0
  8
SOL-DIM-CHASHMAL-1
 10
-587.5000
 20
-10300.0000
 30
0.0000
 11
-619.5000
 21
-10185.0000
 31
0.0000
 12
-555.5000
 22
-10185.0000
 32
0.0000
 13
-555.5000
 23
-10185.0000
 33
0.0000
  0
TEXT
  5
2C1
  8
SOL-DIM-CHASHMAL-1
 10
-682.5000
 20
-10850.0000
 30
0.0000
 40
100.0000
  1
110
 50
90.0000
  7
SOLINE
 72
1
 73
2
 11
-682.5000
 21
-10850.0000
 31
0.0000
  0
LINE
  5
2C2
  8
SOL-CHASHMAL
 10
500.0000
 20
-10340.0000
 30
0.0000
 11
660.0000
 21
-10340.0000
 31
0.0000
  0
LINE
  5
2C3
  8
SOL-CHASHMAL
 10
660.0000
 20
-10340.0000
 30
0.0000
 11
660.0000
 21
-10260.0000
 31
0.0000
  0
LINE
  5
2C4
  8
SOL-CHASHMAL
 10
660.0000
 20
-10260.0000
 30
0.0000
 11
500.0000
 21
-10260.0000
 31
0.0000
  0
LINE
  5
2C5
  8
SOL-CHASHMAL
 10
500.0000
 20
-10260.0000
 30
0.0000
 11
500.0000
 21
-10340.0000
 31
0.0000
  0
LINE
  5
2C6
  8
SOL-CHASHMAL
 10
580.0000
 20
-10340.0000
 30
0.0000
 11
580.0000
 21
-10311.2000
 31
0.0000
  0
LINE
  5
2C7
  8
SOL-CHASHMAL
 10
507.8400
 20
-10293.6000
 30
0.0000
 11
508.0613
 21
-10291.6294
 31
0.0000
  0
LINE
  5
2C8
  8
SOL-CHASHMAL
 10
508.0613
 20
-10291.6294
 30
0.0000
 11
508.7225
 21
-10289.6836
 31
0.0000
  0
LINE
  5
2C9
  8
SOL-CHASHMAL
 10
508.7225
 20
-10289.6836
 30
0.0000
 11
509.8153
 21
-10287.7871
 31
0.0000
  0
LINE
  5
2CA
  8
SOL-CHASHMAL
 10
509.8153
 20
-10287.7871
 30
0.0000
 11
511.3259
 21
-10285.9636
 31
0.0000
  0
LINE
  5
2CB
  8
SOL-CHASHMAL
 10
511.3259
 20
-10285.9636
 30
0.0000
 11
513.2353
 21
-10284.2362
 31
0.0000
  0
LINE
  5
2CC
  8
SOL-CHASHMAL
 10
513.2353
 20
-10284.2362
 30
0.0000
 11
515.5195
 21
-10282.6266
 31
0.0000
  0
LINE
  5
2CD
  8
SOL-CHASHMAL
 10
515.5195
 20
-10282.6266
 30
0.0000
 11
518.1498
 21
-10281.1549
 31
0.0000
  0
LINE
  5
2CE
  8
SOL-CHASHMAL
 10
518.1498
 20
-10281.1549
 30
0.0000
 11
521.0932
 21
-10279.8398
 31
0.0000
  0
LINE
  5
2CF
  8
SOL-CHASHMAL
 10
521.0932
 20
-10279.8398
 30
0.0000
 11
524.3125
 21
-10278.6977
 31
0.0000
  0
LINE
  5
2D0
  8
SOL-CHASHMAL
 10
524.3125
 20
-10278.6977
 30
0.0000
 11
527.7673
 21
-10277.7429
 31
0.0000
  0
LINE
  5
2D1
  8
SOL-CHASHMAL
 10
527.7673
 20
-10277.7429
 30
0.0000
 11
531.4142
 21
-10276.9877
 31
0.0000
  0
LINE
  5
2D2
  8
SOL-CHASHMAL
 10
531.4142
 20
-10276.9877
 30
0.0000
 11
535.2073
 21
-10276.4413
 31
0.0000
  0
LINE
  5
2D3
  8
SOL-CHASHMAL
 10
535.2073
 20
-10276.4413
 30
0.0000
 11
539.0989
 21
-10276.1107
 31
0.0000
  0
LINE
  5
2D4
  8
SOL-CHASHMAL
 10
539.0989
 20
-10276.1107
 30
0.0000
 11
543.0400
 21
-10276.0000
 31
0.0000
  0
LINE
  5
2D5
  8
SOL-CHASHMAL
 10
543.0400
 20
-10276.0000
 30
0.0000
 11
546.9811
 21
-10276.1107
 31
0.0000
  0
LINE
  5
2D6
  8
SOL-CHASHMAL
 10
546.9811
 20
-10276.1107
 30
0.0000
 11
550.8727
 21
-10276.4413
 31
0.0000
  0
LINE
  5
2D7
  8
SOL-CHASHMAL
 10
550.8727
 20
-10276.4413
 30
0.0000
 11
554.6658
 21
-10276.9877
 31
0.0000
  0
LINE
  5
2D8
  8
SOL-CHASHMAL
 10
554.6658
 20
-10276.9877
 30
0.0000
 11
558.3127
 21
-10277.7429
 31
0.0000
  0
LINE
  5
2D9
  8
SOL-CHASHMAL
 10
558.3127
 20
-10277.7429
 30
0.0000
 11
561.7675
 21
-10278.6977
 31
0.0000
  0
LINE
  5
2DA
  8
SOL-CHASHMAL
 10
561.7675
 20
-10278.6977
 30
0.0000
 11
564.9868
 21
-10279.8398
 31
0.0000
  0
LINE
  5
2DB
  8
SOL-CHASHMAL
 10
564.9868
 20
-10279.8398
 30
0.0000
 11
567.9302
 21
-10281.1549
 31
0.0000
  0
LINE
  5
2DC
  8
SOL-CHASHMAL
 10
567.9302
 20
-10281.1549
 30
0.0000
 11
570.5605
 21
-10282.6266
 31
0.0000
  0
LINE
  5
2DD
  8
SOL-CHASHMAL
 10
570.5605
 20
-10282.6266
 30
0.0000
 11
572.8447
 21
-10284.2362
 31
0.0000
  0
LINE
  5
2DE
  8
SOL-CHASHMAL
 10
572.8447
 20
-10284.2362
 30
0.0000
 11
574.7541
 21
-10285.9636
 31
0.0000
  0
LINE
  5
2DF
  8
SOL-CHASHMAL
 10
574.7541
 20
-10285.9636
 30
0.0000
 11
576.2647
 21
-10287.7871
 31
0.0000
  0
LINE
  5
2E0
  8
SOL-CHASHMAL
 10
576.2647
 20
-10287.7871
 30
0.0000
 11
577.3575
 21
-10289.6836
 31
0.0000
  0
LINE
  5
2E1
  8
SOL-CHASHMAL
 10
577.3575
 20
-10289.6836
 30
0.0000
 11
578.0187
 21
-10291.6294
 31
0.0000
  0
LINE
  5
2E2
  8
SOL-CHASHMAL
 10
578.0187
 20
-10291.6294
 30
0.0000
 11
578.2400
 21
-10293.6000
 31
0.0000
  0
LINE
  5
2E3
  8
SOL-CHASHMAL
 10
507.8400
 20
-10293.6000
 30
0.0000
 11
578.2400
 21
-10293.6000
 31
0.0000
  0
LINE
  5
2E4
  8
SOL-CHASHMAL
 10
543.0400
 20
-10293.6000
 30
0.0000
 11
543.0400
 21
-10305.9200
 31
0.0000
  0
LINE
  5
2E5
  8
SOL-CHASHMAL
 10
581.7600
 20
-10293.6000
 30
0.0000
 11
581.9813
 21
-10291.6294
 31
0.0000
  0
LINE
  5
2E6
  8
SOL-CHASHMAL
 10
581.9813
 20
-10291.6294
 30
0.0000
 11
582.6425
 21
-10289.6836
 31
0.0000
  0
LINE
  5
2E7
  8
SOL-CHASHMAL
 10
582.6425
 20
-10289.6836
 30
0.0000
 11
583.7353
 21
-10287.7871
 31
0.0000
  0
LINE
  5
2E8
  8
SOL-CHASHMAL
 10
583.7353
 20
-10287.7871
 30
0.0000
 11
585.2459
 21
-10285.9636
 31
0.0000
  0
LINE
  5
2E9
  8
SOL-CHASHMAL
 10
585.2459
 20
-10285.9636
 30
0.0000
 11
587.1553
 21
-10284.2362
 31
0.0000
  0
LINE
  5
2EA
  8
SOL-CHASHMAL
 10
587.1553
 20
-10284.2362
 30
0.0000
 11
589.4395
 21
-10282.6266
 31
0.0000
  0
LINE
  5
2EB
  8
SOL-CHASHMAL
 10
589.4395
 20
-10282.6266
 30
0.0000
 11
592.0698
 21
-10281.1549
 31
0.0000
  0
LINE
  5
2EC
  8
SOL-CHASHMAL
 10
592.0698
 20
-10281.1549
 30
0.0000
 11
595.0132
 21
-10279.8398
 31
0.0000
  0
LINE
  5
2ED
  8
SOL-CHASHMAL
 10
595.0132
 20
-10279.8398
 30
0.0000
 11
598.2325
 21
-10278.6977
 31
0.0000
  0
LINE
  5
2EE
  8
SOL-CHASHMAL
 10
598.2325
 20
-10278.6977
 30
0.0000
 11
601.6873
 21
-10277.7429
 31
0.0000
  0
LINE
  5
2EF
  8
SOL-CHASHMAL
 10
601.6873
 20
-10277.7429
 30
0.0000
 11
605.3342
 21
-10276.9877
 31
0.0000
  0
LINE
  5
2F0
  8
SOL-CHASHMAL
 10
605.3342
 20
-10276.9877
 30
0.0000
 11
609.1273
 21
-10276.4413
 31
0.0000
  0
LINE
  5
2F1
  8
SOL-CHASHMAL
 10
609.1273
 20
-10276.4413
 30
0.0000
 11
613.0189
 21
-10276.1107
 31
0.0000
  0
LINE
  5
2F2
  8
SOL-CHASHMAL
 10
613.0189
 20
-10276.1107
 30
0.0000
 11
616.9600
 21
-10276.0000
 31
0.0000
  0
LINE
  5
2F3
  8
SOL-CHASHMAL
 10
616.9600
 20
-10276.0000
 30
0.0000
 11
620.9011
 21
-10276.1107
 31
0.0000
  0
LINE
  5
2F4
  8
SOL-CHASHMAL
 10
620.9011
 20
-10276.1107
 30
0.0000
 11
624.7927
 21
-10276.4413
 31
0.0000
  0
LINE
  5
2F5
  8
SOL-CHASHMAL
 10
624.7927
 20
-10276.4413
 30
0.0000
 11
628.5858
 21
-10276.9877
 31
0.0000
  0
LINE
  5
2F6
  8
SOL-CHASHMAL
 10
628.5858
 20
-10276.9877
 30
0.0000
 11
632.2327
 21
-10277.7429
 31
0.0000
  0
LINE
  5
2F7
  8
SOL-CHASHMAL
 10
632.2327
 20
-10277.7429
 30
0.0000
 11
635.6875
 21
-10278.6977
 31
0.0000
  0
LINE
  5
2F8
  8
SOL-CHASHMAL
 10
635.6875
 20
-10278.6977
 30
0.0000
 11
638.9068
 21
-10279.8398
 31
0.0000
  0
LINE
  5
2F9
  8
SOL-CHASHMAL
 10
638.9068
 20
-10279.8398
 30
0.0000
 11
641.8502
 21
-10281.1549
 31
0.0000
  0
LINE
  5
2FA
  8
SOL-CHASHMAL
 10
641.8502
 20
-10281.1549
 30
0.0000
 11
644.4805
 21
-10282.6266
 31
0.0000
  0
LINE
  5
2FB
  8
SOL-CHASHMAL
 10
644.4805
 20
-10282.6266
 30
0.0000
 11
646.7647
 21
-10284.2362
 31
0.0000
  0
LINE
  5
2FC
  8
SOL-CHASHMAL
 10
646.7647
 20
-10284.2362
 30
0.0000
 11
648.6741
 21
-10285.9636
 31
0.0000
  0
LINE
  5
2FD
  8
SOL-CHASHMAL
 10
648.6741
 20
-10285.9636
 30
0.0000
 11
650.1847
 21
-10287.7871
 31
0.0000
  0
LINE
  5
2FE
  8
SOL-CHASHMAL
 10
650.1847
 20
-10287.7871
 30
0.0000
 11
651.2775
 21
-10289.6836
 31
0.0000
  0
LINE
  5
2FF
  8
SOL-CHASHMAL
 10
651.2775
 20
-10289.6836
 30
0.0000
 11
651.9387
 21
-10291.6294
 31
0.0000
  0
LINE
  5
300
  8
SOL-CHASHMAL
 10
651.9387
 20
-10291.6294
 30
0.0000
 11
652.1600
 21
-10293.6000
 31
0.0000
  0
LINE
  5
301
  8
SOL-CHASHMAL
 10
581.7600
 20
-10293.6000
 30
0.0000
 11
652.1600
 21
-10293.6000
 31
0.0000
  0
LINE
  5
302
  8
SOL-CHASHMAL
 10
616.9600
 20
-10293.6000
 30
0.0000
 11
616.9600
 21
-10305.9200
 31
0.0000
  0
LINE
  5
303
  8
SOL-DIM-CHASHMAL-2
 10
-900.0000
 20
-11440.0000
 30
0.0000
 11
-900.0000
 21
-12622.5000
 31
0.0000
  0
LINE
  5
304
  8
SOL-DIM-CHASHMAL-2
 10
580.0000
 20
-11440.0000
 30
0.0000
 11
580.0000
 21
-12622.5000
 31
0.0000
  0
LINE
  5
305
  8
SOL-DIM-CHASHMAL-2
 10
-900.0000
 20
-12562.5000
 30
0.0000
 11
580.0000
 21
-12562.5000
 31
0.0000
  0
SOLID
  5
306
  8
SOL-DIM-CHASHMAL-2
 10
-900.0000
 20
-12562.5000
 30
0.0000
 11
-1015.0000
 21
-12594.5000
 31
0.0000
 12
-1015.0000
 22
-12530.5000
 32
0.0000
 13
-1015.0000
 23
-12530.5000
 33
0.0000
  0
SOLID
  5
307
  8
SOL-DIM-CHASHMAL-2
 10
580.0000
 20
-12562.5000
 30
0.0000
 11
695.0000
 21
-12594.5000
 31
0.0000
 12
695.0000
 22
-12530.5000
 32
0.0000
 13
695.0000
 23
-12530.5000
 33
0.0000
  0
TEXT
  5
308
  8
SOL-DIM-CHASHMAL-2
 10
-160.0000
 20
-12657.5000
 30
0.0000
 40
100.0000
  1
148
 50
0.0000
  7
SOLINE
 72
1
 73
2
 11
-160.0000
 21
-12657.5000
 31
0.0000
  0
LINE
  5
309
  8
SOL-DIM-CHASHMAL-2
 10
620.0000
 20
-11400.0000
 30
0.0000
 11
907.5000
 21
-11400.0000
 31
0.0000
  0
LINE
  5
30A
  8
SOL-DIM-CHASHMAL-2
 10
620.0000
 20
-10300.0000
 30
0.0000
 11
907.5000
 21
-10300.0000
 31
0.0000
  0
LINE
  5
30B
  8
SOL-DIM-CHASHMAL-2
 10
847.5000
 20
-11400.0000
 30
0.0000
 11
847.5000
 21
-10300.0000
 31
0.0000
  0
SOLID
  5
30C
  8
SOL-DIM-CHASHMAL-2
 10
847.5000
 20
-11400.0000
 30
0.0000
 11
879.5000
 21
-11515.0000
 31
0.0000
 12
815.5000
 22
-11515.0000
 32
0.0000
 13
815.5000
 23
-11515.0000
 33
0.0000
  0
SOLID
  5
30D
  8
SOL-DIM-CHASHMAL-2
 10
847.5000
 20
-10300.0000
 30
0.0000
 11
879.5000
 21
-10185.0000
 31
0.0000
 12
815.5000
 22
-10185.0000
 32
0.0000
 13
815.5000
 23
-10185.0000
 33
0.0000
  0
TEXT
  5
30E
  8
SOL-DIM-CHASHMAL-2
 10
942.5000
 20
-10850.0000
 30
0.0000
 40
100.0000
  1
110
 50
90.0000
  7
SOLINE
 72
1
 73
2
 11
942.5000
 21
-10850.0000
 31
0.0000
  0
LINE
  5
30F
  8
SOL-GAZ
 10
1300.0000
 20
-10740.0000
 30
0.0000
 11
1320.0000
 21
-10740.0000
 31
0.0000
  0
LINE
  5
310
  8
SOL-GAZ
 10
1320.0000
 20
-10740.0000
 30
0.0000
 11
1320.0000
 21
-10660.0000
 31
0.0000
  0
LINE
  5
311
  8
SOL-GAZ
 10
1320.0000
 20
-10660.0000
 30
0.0000
 11
1300.0000
 21
-10660.0000
 31
0.0000
  0
LINE
  5
312
  8
SOL-GAZ
 10
1300.0000
 20
-10660.0000
 30
0.0000
 11
1300.0000
 21
-10740.0000
 31
0.0000
  0
LINE
  5
313
  8
SOL-GAZ
 10
1310.0000
 20
-10740.0000
 30
0.0000
 11
1310.0000
 21
-10682.4000
 31
0.0000
  0
LINE
  5
314
  8
SOL-GAZ
 10
1310.0000
 20
-10676.0000
 30
0.0000
 11
1315.2000
 21
-10688.0000
 31
0.0000
  0
LINE
  5
315
  8
SOL-GAZ
 10
1315.2000
 20
-10688.0000
 30
0.0000
 11
1315.2000
 21
-10712.0000
 31
0.0000
  0
LINE
  5
316
  8
SOL-GAZ
 10
1315.2000
 20
-10712.0000
 30
0.0000
 11
1310.0000
 21
-10724.0000
 31
0.0000
  0
LINE
  5
317
  8
SOL-GAZ
 10
1310.0000
 20
-10724.0000
 30
0.0000
 11
1304.8000
 21
-10712.0000
 31
0.0000
  0
LINE
  5
318
  8
SOL-GAZ
 10
1304.8000
 20
-10712.0000
 30
0.0000
 11
1304.8000
 21
-10688.0000
 31
0.0000
  0
LINE
  5
319
  8
SOL-GAZ
 10
1304.8000
 20
-10688.0000
 30
0.0000
 11
1310.0000
 21
-10676.0000
 31
0.0000
  0
TEXT
  5
31A
  8
SOL-GAZ
 10
1310.0000
 20
-10704.8000
 30
0.0000
 40
24.0000
  1
G
 50
0.0000
  7
SOLINE
 72
1
 73
2
 11
1310.0000
 21
-10704.8000
 31
0.0000
  0
LINE
  5
31B
  8
SOL-DIM-GAZ-3
 10
3100.0000
 20
-11360.0000
 30
0.0000
 11
3100.0000
 21
-9827.5000
 31
0.0000
  0
LINE
  5
31C
  8
SOL-DIM-GAZ-3
 10
1310.0000
 20
-11360.0000
 30
0.0000
 11
1310.0000
 21
-9827.5000
 31
0.0000
  0
LINE
  5
31D
  8
SOL-DIM-GAZ-3
 10
3100.0000
 20
-9887.5000
 30
0.0000
 11
1310.0000
 21
-9887.5000
 31
0.0000
  0
SOLID
  5
31E
  8
SOL-DIM-GAZ-3
 10
3100.0000
 20
-9887.5000
 30
0.0000
 11
3215.0000
 21
-9855.5000
 31
0.0000
 12
3215.0000
 22
-9919.5000
 32
0.0000
 13
3215.0000
 23
-9919.5000
 33
0.0000
  0
SOLID
  5
31F
  8
SOL-DIM-GAZ-3
 10
1310.0000
 20
-9887.5000
 30
0.0000
 11
1195.0000
 21
-9855.5000
 31
0.0000
 12
1195.0000
 22
-9919.5000
 32
0.0000
 13
1195.0000
 23
-9919.5000
 33
0.0000
  0
TEXT
  5
320
  8
SOL-DIM-GAZ-3
 10
2205.0000
 20
-9792.5000
 30
0.0000
 40
100.0000
  1
179
 50
360.0000
  7
SOLINE
 72
1
 73
2
 11
2205.0000
 21
-9792.5000
 31
0.0000
  0
LINE
  5
321
  8
SOL-DIM-GAZ-3
 10
1270.0000
 20
-11400.0000
 30
0.0000
 11
1052.5000
 21
-11400.0000
 31
0.0000
  0
LINE
  5
322
  8
SOL-DIM-GAZ-3
 10
1270.0000
 20
-10700.0000
 30
0.0000
 11
1052.5000
 21
-10700.0000
 31
0.0000
  0
LINE
  5
323
  8
SOL-DIM-GAZ-3
 10
1112.5000
 20
-11400.0000
 30
0.0000
 11
1112.5000
 21
-10700.0000
 31
0.0000
  0
SOLID
  5
324
  8
SOL-DIM-GAZ-3
 10
1112.5000
 20
-11400.0000
 30
0.0000
 11
1080.5000
 21
-11515.0000
 31
0.0000
 12
1144.5000
 22
-11515.0000
 32
0.0000
 13
1144.5000
 23
-11515.0000
 33
0.0000
  0
SOLID
  5
325
  8
SOL-DIM-GAZ-3
 10
1112.5000
 20
-10700.0000
 30
0.0000
 11
1080.5000
 21
-10585.0000
 31
0.0000
 12
1144.5000
 22
-10585.0000
 32
0.0000
 13
1144.5000
 23
-10585.0000
 33
0.0000
  0
TEXT
  5
326
  8
SOL-DIM-GAZ-3
 10
1017.5000
 20
-11050.0000
 30
0.0000
 40
100.0000
  1
70
 50
90.0000
  7
SOLINE
 72
1
 73
2
 11
1017.5000
 21
-11050.0000
 31
0.0000
  0
LINE
  5
327
  8
SOL-INSTALATSIA
 10
2200.0000
 20
-10390.0000
 30
0.0000
 11
2220.0000
 21
-10390.0000
 31
0.0000
  0
LINE
  5
328
  8
SOL-INSTALATSIA
 10
2220.0000
 20
-10390.0000
 30
0.0000
 11
2220.0000
 21
-10310.0000
 31
0.0000
  0
LINE
  5
329
  8
SOL-INSTALATSIA
 10
2220.0000
 20
-10310.0000
 30
0.0000
 11
2200.0000
 21
-10310.0000
 31
0.0000
  0
LINE
  5
32A
  8
SOL-INSTALATSIA
 10
2200.0000
 20
-10310.0000
 30
0.0000
 11
2200.0000
 21
-10390.0000
 31
0.0000
  0
LINE
  5
32B
  8
SOL-INSTALATSIA
 10
2210.0000
 20
-10390.0000
 30
0.0000
 11
2210.0000
 21
-10337.2000
 31
0.0000
  0
LINE
  5
32C
  8
SOL-INSTALATSIA
 10
2214.8000
 20
-10350.0000
 30
0.0000
 11
2214.7078
 21
-10353.7457
 31
0.0000
  0
LINE
  5
32D
  8
SOL-INSTALATSIA
 10
2214.7078
 20
-10353.7457
 30
0.0000
 11
2214.4346
 21
-10357.3475
 31
0.0000
  0
LINE
  5
32E
  8
SOL-INSTALATSIA
 10
2214.4346
 20
-10357.3475
 30
0.0000
 11
2213.9911
 21
-10360.6669
 31
0.0000
  0
LINE
  5
32F
  8
SOL-INSTALATSIA
 10
2213.9911
 20
-10360.6669
 30
0.0000
 11
2213.3941
 21
-10363.5765
 31
0.0000
  0
LINE
  5
330
  8
SOL-INSTALATSIA
 10
2213.3941
 20
-10363.5765
 30
0.0000
 11
2212.6667
 21
-10365.9642
 31
0.0000
  0
LINE
  5
331
  8
SOL-INSTALATSIA
 10
2212.6667
 20
-10365.9642
 30
0.0000
 11
2211.8369
 21
-10367.7385
 31
0.0000
  0
LINE
  5
332
  8
SOL-INSTALATSIA
 10
2211.8369
 20
-10367.7385
 30
0.0000
 11
2210.9364
 21
-10368.8311
 31
0.0000
  0
LINE
  5
333
  8
SOL-INSTALATSIA
 10
2210.9364
 20
-10368.8311
 30
0.0000
 11
2210.0000
 21
-10369.2000
 31
0.0000
  0
LINE
  5
334
  8
SOL-INSTALATSIA
 10
2210.0000
 20
-10369.2000
 30
0.0000
 11
2209.0636
 21
-10368.8311
 31
0.0000
  0
LINE
  5
335
  8
SOL-INSTALATSIA
 10
2209.0636
 20
-10368.8311
 30
0.0000
 11
2208.1631
 21
-10367.7385
 31
0.0000
  0
LINE
  5
336
  8
SOL-INSTALATSIA
 10
2208.1631
 20
-10367.7385
 30
0.0000
 11
2207.3333
 21
-10365.9642
 31
0.0000
  0
LINE
  5
337
  8
SOL-INSTALATSIA
 10
2207.3333
 20
-10365.9642
 30
0.0000
 11
2206.6059
 21
-10363.5765
 31
0.0000
  0
LINE
  5
338
  8
SOL-INSTALATSIA
 10
2206.6059
 20
-10363.5765
 30
0.0000
 11
2206.0089
 21
-10360.6669
 31
0.0000
  0
LINE
  5
339
  8
SOL-INSTALATSIA
 10
2206.0089
 20
-10360.6669
 30
0.0000
 11
2205.5654
 21
-10357.3475
 31
0.0000
  0
LINE
  5
33A
  8
SOL-INSTALATSIA
 10
2205.5654
 20
-10357.3475
 30
0.0000
 11
2205.2922
 21
-10353.7457
 31
0.0000
  0
LINE
  5
33B
  8
SOL-INSTALATSIA
 10
2205.2922
 20
-10353.7457
 30
0.0000
 11
2205.2000
 21
-10350.0000
 31
0.0000
  0
LINE
  5
33C
  8
SOL-INSTALATSIA
 10
2205.2000
 20
-10350.0000
 30
0.0000
 11
2205.2922
 21
-10346.2543
 31
0.0000
  0
LINE
  5
33D
  8
SOL-INSTALATSIA
 10
2205.2922
 20
-10346.2543
 30
0.0000
 11
2205.5654
 21
-10342.6525
 31
0.0000
  0
LINE
  5
33E
  8
SOL-INSTALATSIA
 10
2205.5654
 20
-10342.6525
 30
0.0000
 11
2206.0089
 21
-10339.3331
 31
0.0000
  0
LINE
  5
33F
  8
SOL-INSTALATSIA
 10
2206.0089
 20
-10339.3331
 30
0.0000
 11
2206.6059
 21
-10336.4235
 31
0.0000
  0
LINE
  5
340
  8
SOL-INSTALATSIA
 10
2206.6059
 20
-10336.4235
 30
0.0000
 11
2207.3333
 21
-10334.0358
 31
0.0000
  0
LINE
  5
341
  8
SOL-INSTALATSIA
 10
2207.3333
 20
-10334.0358
 30
0.0000
 11
2208.1631
 21
-10332.2615
 31
0.0000
  0
LINE
  5
342
  8
SOL-INSTALATSIA
 10
2208.1631
 20
-10332.2615
 30
0.0000
 11
2209.0636
 21
-10331.1689
 31
0.0000
  0
LINE
  5
343
  8
SOL-INSTALATSIA
 10
2209.0636
 20
-10331.1689
 30
0.0000
 11
2210.0000
 21
-10330.8000
 31
0.0000
  0
LINE
  5
344
  8
SOL-INSTALATSIA
 10
2210.0000
 20
-10330.8000
 30
0.0000
 11
2210.9364
 21
-10331.1689
 31
0.0000
  0
LINE
  5
345
  8
SOL-INSTALATSIA
 10
2210.9364
 20
-10331.1689
 30
0.0000
 11
2211.8369
 21
-10332.2615
 31
0.0000
  0
LINE
  5
346
  8
SOL-INSTALATSIA
 10
2211.8369
 20
-10332.2615
 30
0.0000
 11
2212.6667
 21
-10334.0358
 31
0.0000
  0
LINE
  5
347
  8
SOL-INSTALATSIA
 10
2212.6667
 20
-10334.0358
 30
0.0000
 11
2213.3941
 21
-10336.4235
 31
0.0000
  0
LINE
  5
348
  8
SOL-INSTALATSIA
 10
2213.3941
 20
-10336.4235
 30
0.0000
 11
2213.9911
 21
-10339.3331
 31
0.0000
  0
LINE
  5
349
  8
SOL-INSTALATSIA
 10
2213.9911
 20
-10339.3331
 30
0.0000
 11
2214.4346
 21
-10342.6525
 31
0.0000
  0
LINE
  5
34A
  8
SOL-INSTALATSIA
 10
2214.4346
 20
-10342.6525
 30
0.0000
 11
2214.7078
 21
-10346.2543
 31
0.0000
  0
LINE
  5
34B
  8
SOL-INSTALATSIA
 10
2214.7078
 20
-10346.2543
 30
0.0000
 11
2214.8000
 21
-10350.0000
 31
0.0000
  0
LINE
  5
34C
  8
SOL-INSTALATSIA
 10
2211.6000
 20
-10350.0000
 30
0.0000
 11
2211.5693
 21
-10351.2486
 31
0.0000
  0
LINE
  5
34D
  8
SOL-INSTALATSIA
 10
2211.5693
 20
-10351.2486
 30
0.0000
 11
2211.4782
 21
-10352.4492
 31
0.0000
  0
LINE
  5
34E
  8
SOL-INSTALATSIA
 10
2211.4782
 20
-10352.4492
 30
0.0000
 11
2211.3304
 21
-10353.5556
 31
0.0000
  0
LINE
  5
34F
  8
SOL-INSTALATSIA
 10
2211.3304
 20
-10353.5556
 30
0.0000
 11
2211.1314
 21
-10354.5255
 31
0.0000
  0
LINE
  5
350
  8
SOL-INSTALATSIA
 10
2211.1314
 20
-10354.5255
 30
0.0000
 11
2210.8889
 21
-10355.3214
 31
0.0000
  0
LINE
  5
351
  8
SOL-INSTALATSIA
 10
2210.8889
 20
-10355.3214
 30
0.0000
 11
2210.6123
 21
-10355.9128
 31
0.0000
  0
LINE
  5
352
  8
SOL-INSTALATSIA
 10
2210.6123
 20
-10355.9128
 30
0.0000
 11
2210.3121
 21
-10356.2770
 31
0.0000
  0
LINE
  5
353
  8
SOL-INSTALATSIA
 10
2210.3121
 20
-10356.2770
 30
0.0000
 11
2210.0000
 21
-10356.4000
 31
0.0000
  0
LINE
  5
354
  8
SOL-INSTALATSIA
 10
2210.0000
 20
-10356.4000
 30
0.0000
 11
2209.6879
 21
-10356.2770
 31
0.0000
  0
LINE
  5
355
  8
SOL-INSTALATSIA
 10
2209.6879
 20
-10356.2770
 30
0.0000
 11
2209.3877
 21
-10355.9128
 31
0.0000
  0
LINE
  5
356
  8
SOL-INSTALATSIA
 10
2209.3877
 20
-10355.9128
 30
0.0000
 11
2209.1111
 21
-10355.3214
 31
0.0000
  0
LINE
  5
357
  8
SOL-INSTALATSIA
 10
2209.1111
 20
-10355.3214
 30
0.0000
 11
2208.8686
 21
-10354.5255
 31
0.0000
  0
LINE
  5
358
  8
SOL-INSTALATSIA
 10
2208.8686
 20
-10354.5255
 30
0.0000
 11
2208.6696
 21
-10353.5556
 31
0.0000
  0
LINE
  5
359
  8
SOL-INSTALATSIA
 10
2208.6696
 20
-10353.5556
 30
0.0000
 11
2208.5218
 21
-10352.4492
 31
0.0000
  0
LINE
  5
35A
  8
SOL-INSTALATSIA
 10
2208.5218
 20
-10352.4492
 30
0.0000
 11
2208.4307
 21
-10351.2486
 31
0.0000
  0
LINE
  5
35B
  8
SOL-INSTALATSIA
 10
2208.4307
 20
-10351.2486
 30
0.0000
 11
2208.4000
 21
-10350.0000
 31
0.0000
  0
LINE
  5
35C
  8
SOL-INSTALATSIA
 10
2208.4000
 20
-10350.0000
 30
0.0000
 11
2208.4307
 21
-10348.7514
 31
0.0000
  0
LINE
  5
35D
  8
SOL-INSTALATSIA
 10
2208.4307
 20
-10348.7514
 30
0.0000
 11
2208.5218
 21
-10347.5508
 31
0.0000
  0
LINE
  5
35E
  8
SOL-INSTALATSIA
 10
2208.5218
 20
-10347.5508
 30
0.0000
 11
2208.6696
 21
-10346.4444
 31
0.0000
  0
LINE
  5
35F
  8
SOL-INSTALATSIA
 10
2208.6696
 20
-10346.4444
 30
0.0000
 11
2208.8686
 21
-10345.4745
 31
0.0000
  0
LINE
  5
360
  8
SOL-INSTALATSIA
 10
2208.8686
 20
-10345.4745
 30
0.0000
 11
2209.1111
 21
-10344.6786
 31
0.0000
  0
LINE
  5
361
  8
SOL-INSTALATSIA
 10
2209.1111
 20
-10344.6786
 30
0.0000
 11
2209.3877
 21
-10344.0872
 31
0.0000
  0
LINE
  5
362
  8
SOL-INSTALATSIA
 10
2209.3877
 20
-10344.0872
 30
0.0000
 11
2209.6879
 21
-10343.7230
 31
0.0000
  0
LINE
  5
363
  8
SOL-INSTALATSIA
 10
2209.6879
 20
-10343.7230
 30
0.0000
 11
2210.0000
 21
-10343.6000
 31
0.0000
  0
LINE
  5
364
  8
SOL-INSTALATSIA
 10
2210.0000
 20
-10343.6000
 30
0.0000
 11
2210.3121
 21
-10343.7230
 31
0.0000
  0
LINE
  5
365
  8
SOL-INSTALATSIA
 10
2210.3121
 20
-10343.7230
 30
0.0000
 11
2210.6123
 21
-10344.0872
 31
0.0000
  0
LINE
  5
366
  8
SOL-INSTALATSIA
 10
2210.6123
 20
-10344.0872
 30
0.0000
 11
2210.8889
 21
-10344.6786
 31
0.0000
  0
LINE
  5
367
  8
SOL-INSTALATSIA
 10
2210.8889
 20
-10344.6786
 30
0.0000
 11
2211.1314
 21
-10345.4745
 31
0.0000
  0
LINE
  5
368
  8
SOL-INSTALATSIA
 10
2211.1314
 20
-10345.4745
 30
0.0000
 11
2211.3304
 21
-10346.4444
 31
0.0000
  0
LINE
  5
369
  8
SOL-INSTALATSIA
 10
2211.3304
 20
-10346.4444
 30
0.0000
 11
2211.4782
 21
-10347.5508
 31
0.0000
  0
LINE
  5
36A
  8
SOL-INSTALATSIA
 10
2211.4782
 20
-10347.5508
 30
0.0000
 11
2211.5693
 21
-10348.7514
 31
0.0000
  0
LINE
  5
36B
  8
SOL-INSTALATSIA
 10
2211.5693
 20
-10348.7514
 30
0.0000
 11
2211.6000
 21
-10350.0000
 31
0.0000
  0
LINE
  5
36C
  8
SOL-DIM-INSTALATSIA-4
 10
3100.0000
 20
-11360.0000
 30
0.0000
 11
3100.0000
 21
-9477.5000
 31
0.0000
  0
LINE
  5
36D
  8
SOL-DIM-INSTALATSIA-4
 10
2210.0000
 20
-11360.0000
 30
0.0000
 11
2210.0000
 21
-9477.5000
 31
0.0000
  0
LINE
  5
36E
  8
SOL-DIM-INSTALATSIA-4
 10
3100.0000
 20
-9537.5000
 30
0.0000
 11
2210.0000
 21
-9537.5000
 31
0.0000
  0
SOLID
  5
36F
  8
SOL-DIM-INSTALATSIA-4
 10
3100.0000
 20
-9537.5000
 30
0.0000
 11
3215.0000
 21
-9505.5000
 31
0.0000
 12
3215.0000
 22
-9569.5000
 32
0.0000
 13
3215.0000
 23
-9569.5000
 33
0.0000
  0
SOLID
  5
370
  8
SOL-DIM-INSTALATSIA-4
 10
2210.0000
 20
-9537.5000
 30
0.0000
 11
2095.0000
 21
-9505.5000
 31
0.0000
 12
2095.0000
 22
-9569.5000
 32
0.0000
 13
2095.0000
 23
-9569.5000
 33
0.0000
  0
TEXT
  5
371
  8
SOL-DIM-INSTALATSIA-4
 10
2655.0000
 20
-9442.5000
 30
0.0000
 40
100.0000
  1
89
 50
360.0000
  7
SOLINE
 72
1
 73
2
 11
2655.0000
 21
-9442.5000
 31
0.0000
  0
LINE
  5
372
  8
SOL-DIM-INSTALATSIA-4
 10
2250.0000
 20
-11400.0000
 30
0.0000
 11
2467.5000
 21
-11400.0000
 31
0.0000
  0
LINE
  5
373
  8
SOL-DIM-INSTALATSIA-4
 10
2250.0000
 20
-10350.0000
 30
0.0000
 11
2467.5000
 21
-10350.0000
 31
0.0000
  0
LINE
  5
374
  8
SOL-DIM-INSTALATSIA-4
 10
2407.5000
 20
-11400.0000
 30
0.0000
 11
2407.5000
 21
-10350.0000
 31
0.0000
  0
SOLID
  5
375
  8
SOL-DIM-INSTALATSIA-4
 10
2407.5000
 20
-11400.0000
 30
0.0000
 11
2439.5000
 21
-11515.0000
 31
0.0000
 12
2375.5000
 22
-11515.0000
 32
0.0000
 13
2375.5000
 23
-11515.0000
 33
0.0000
  0
SOLID
  5
376
  8
SOL-DIM-INSTALATSIA-4
 10
2407.5000
 20
-10350.0000
 30
0.0000
 11
2439.5000
 21
-10235.0000
 31
0.0000
 12
2375.5000
 22
-10235.0000
 32
0.0000
 13
2375.5000
 23
-10235.0000
 33
0.0000
  0
TEXT
  5
377
  8
SOL-DIM-INSTALATSIA-4
 10
2502.5000
 20
-10875.0000
 30
0.0000
 40
100.0000
  1
105
 50
90.0000
  7
SOLINE
 72
1
 73
2
 11
2502.5000
 21
-10875.0000
 31
0.0000
  0
LINE
  5
378
  8
SOL-INSTALATSIA
 10
2300.0000
 20
-10940.0000
 30
0.0000
 11
2320.0000
 21
-10940.0000
 31
0.0000
  0
LINE
  5
379
  8
SOL-INSTALATSIA
 10
2320.0000
 20
-10940.0000
 30
0.0000
 11
2320.0000
 21
-10860.0000
 31
0.0000
  0
LINE
  5
37A
  8
SOL-INSTALATSIA
 10
2320.0000
 20
-10860.0000
 30
0.0000
 11
2300.0000
 21
-10860.0000
 31
0.0000
  0
LINE
  5
37B
  8
SOL-INSTALATSIA
 10
2300.0000
 20
-10860.0000
 30
0.0000
 11
2300.0000
 21
-10940.0000
 31
0.0000
  0
LINE
  5
37C
  8
SOL-INSTALATSIA
 10
2310.0000
 20
-10940.0000
 30
0.0000
 11
2310.0000
 21
-10884.0000
 31
0.0000
  0
LINE
  5
37D
  8
SOL-INSTALATSIA
 10
2315.6000
 20
-10900.0000
 30
0.0000
 11
2315.4924
 21
-10904.3700
 31
0.0000
  0
LINE
  5
37E
  8
SOL-INSTALATSIA
 10
2315.4924
 20
-10904.3700
 30
0.0000
 11
2315.1737
 21
-10908.5721
 31
0.0000
  0
LINE
  5
37F
  8
SOL-INSTALATSIA
 10
2315.1737
 20
-10908.5721
 30
0.0000
 11
2314.6562
 21
-10912.4448
 31
0.0000
  0
LINE
  5
380
  8
SOL-INSTALATSIA
 10
2314.6562
 20
-10912.4448
 30
0.0000
 11
2313.9598
 21
-10915.8392
 31
0.0000
  0
LINE
  5
381
  8
SOL-INSTALATSIA
 10
2313.9598
 20
-10915.8392
 30
0.0000
 11
2313.1112
 21
-10918.6249
 31
0.0000
  0
LINE
  5
382
  8
SOL-INSTALATSIA
 10
2313.1112
 20
-10918.6249
 30
0.0000
 11
2312.1430
 21
-10920.6949
 31
0.0000
  0
LINE
  5
383
  8
SOL-INSTALATSIA
 10
2312.1430
 20
-10920.6949
 30
0.0000
 11
2311.0925
 21
-10921.9696
 31
0.0000
  0
LINE
  5
384
  8
SOL-INSTALATSIA
 10
2311.0925
 20
-10921.9696
 30
0.0000
 11
2310.0000
 21
-10922.4000
 31
0.0000
  0
LINE
  5
385
  8
SOL-INSTALATSIA
 10
2310.0000
 20
-10922.4000
 30
0.0000
 11
2308.9075
 21
-10921.9696
 31
0.0000
  0
LINE
  5
386
  8
SOL-INSTALATSIA
 10
2308.9075
 20
-10921.9696
 30
0.0000
 11
2307.8570
 21
-10920.6949
 31
0.0000
  0
LINE
  5
387
  8
SOL-INSTALATSIA
 10
2307.8570
 20
-10920.6949
 30
0.0000
 11
2306.8888
 21
-10918.6249
 31
0.0000
  0
LINE
  5
388
  8
SOL-INSTALATSIA
 10
2306.8888
 20
-10918.6249
 30
0.0000
 11
2306.0402
 21
-10915.8392
 31
0.0000
  0
LINE
  5
389
  8
SOL-INSTALATSIA
 10
2306.0402
 20
-10915.8392
 30
0.0000
 11
2305.3438
 21
-10912.4448
 31
0.0000
  0
LINE
  5
38A
  8
SOL-INSTALATSIA
 10
2305.3438
 20
-10912.4448
 30
0.0000
 11
2304.8263
 21
-10908.5721
 31
0.0000
  0
LINE
  5
38B
  8
SOL-INSTALATSIA
 10
2304.8263
 20
-10908.5721
 30
0.0000
 11
2304.5076
 21
-10904.3700
 31
0.0000
  0
LINE
  5
38C
  8
SOL-INSTALATSIA
 10
2304.5076
 20
-10904.3700
 30
0.0000
 11
2304.4000
 21
-10900.0000
 31
0.0000
  0
LINE
  5
38D
  8
SOL-INSTALATSIA
 10
2304.4000
 20
-10900.0000
 30
0.0000
 11
2304.5076
 21
-10895.6300
 31
0.0000
  0
LINE
  5
38E
  8
SOL-INSTALATSIA
 10
2304.5076
 20
-10895.6300
 30
0.0000
 11
2304.8263
 21
-10891.4279
 31
0.0000
  0
LINE
  5
38F
  8
SOL-INSTALATSIA
 10
2304.8263
 20
-10891.4279
 30
0.0000
 11
2305.3438
 21
-10887.5552
 31
0.0000
  0
LINE
  5
390
  8
SOL-INSTALATSIA
 10
2305.3438
 20
-10887.5552
 30
0.0000
 11
2306.0402
 21
-10884.1608
 31
0.0000
  0
LINE
  5
391
  8
SOL-INSTALATSIA
 10
2306.0402
 20
-10884.1608
 30
0.0000
 11
2306.8888
 21
-10881.3751
 31
0.0000
  0
LINE
  5
392
  8
SOL-INSTALATSIA
 10
2306.8888
 20
-10881.3751
 30
0.0000
 11
2307.8570
 21
-10879.3051
 31
0.0000
  0
LINE
  5
393
  8
SOL-INSTALATSIA
 10
2307.8570
 20
-10879.3051
 30
0.0000
 11
2308.9075
 21
-10878.0304
 31
0.0000
  0
LINE
  5
394
  8
SOL-INSTALATSIA
 10
2308.9075
 20
-10878.0304
 30
0.0000
 11
2310.0000
 21
-10877.6000
 31
0.0000
  0
LINE
  5
395
  8
SOL-INSTALATSIA
 10
2310.0000
 20
-10877.6000
 30
0.0000
 11
2311.0925
 21
-10878.0304
 31
0.0000
  0
LINE
  5
396
  8
SOL-INSTALATSIA
 10
2311.0925
 20
-10878.0304
 30
0.0000
 11
2312.1430
 21
-10879.3051
 31
0.0000
  0
LINE
  5
397
  8
SOL-INSTALATSIA
 10
2312.1430
 20
-10879.3051
 30
0.0000
 11
2313.1112
 21
-10881.3751
 31
0.0000
  0
LINE
  5
398
  8
SOL-INSTALATSIA
 10
2313.1112
 20
-10881.3751
 30
0.0000
 11
2313.9598
 21
-10884.1608
 31
0.0000
  0
LINE
  5
399
  8
SOL-INSTALATSIA
 10
2313.9598
 20
-10884.1608
 30
0.0000
 11
2314.6562
 21
-10887.5552
 31
0.0000
  0
LINE
  5
39A
  8
SOL-INSTALATSIA
 10
2314.6562
 20
-10887.5552
 30
0.0000
 11
2315.1737
 21
-10891.4279
 31
0.0000
  0
LINE
  5
39B
  8
SOL-INSTALATSIA
 10
2315.1737
 20
-10891.4279
 30
0.0000
 11
2315.4924
 21
-10895.6300
 31
0.0000
  0
LINE
  5
39C
  8
SOL-INSTALATSIA
 10
2315.4924
 20
-10895.6300
 30
0.0000
 11
2315.6000
 21
-10900.0000
 31
0.0000
  0
LINE
  5
39D
  8
SOL-INSTALATSIA
 10
2305.6000
 20
-10900.0000
 30
0.0000
 11
2314.4000
 21
-10900.0000
 31
0.0000
  0
LINE
  5
39E
  8
SOL-INSTALATSIA
 10
2310.0000
 20
-10882.4000
 30
0.0000
 11
2310.0000
 21
-10917.6000
 31
0.0000
  0
LINE
  5
39F
  8
SOL-DIM-INSTALATSIA-5
 10
3100.0000
 20
-11360.0000
 30
0.0000
 11
3100.0000
 21
-9127.5000
 31
0.0000
  0
LINE
  5
3A0
  8
SOL-DIM-INSTALATSIA-5
 10
2310.0000
 20
-11360.0000
 30
0.0000
 11
2310.0000
 21
-9127.5000
 31
0.0000
  0
LINE
  5
3A1
  8
SOL-DIM-INSTALATSIA-5
 10
3100.0000
 20
-9187.5000
 30
0.0000
 11
2310.0000
 21
-9187.5000
 31
0.0000
  0
SOLID
  5
3A2
  8
SOL-DIM-INSTALATSIA-5
 10
3100.0000
 20
-9187.5000
 30
0.0000
 11
3215.0000
 21
-9155.5000
 31
0.0000
 12
3215.0000
 22
-9219.5000
 32
0.0000
 13
3215.0000
 23
-9219.5000
 33
0.0000
  0
SOLID
  5
3A3
  8
SOL-DIM-INSTALATSIA-5
 10
2310.0000
 20
-9187.5000
 30
0.0000
 11
2195.0000
 21
-9155.5000
 31
0.0000
 12
2195.0000
 22
-9219.5000
 32
0.0000
 13
2195.0000
 23
-9219.5000
 33
0.0000
  0
TEXT
  5
3A4
  8
SOL-DIM-INSTALATSIA-5
 10
2705.0000
 20
-9092.5000
 30
0.0000
 40
100.0000
  1
79
 50
360.0000
  7
SOLINE
 72
1
 73
2
 11
2705.0000
 21
-9092.5000
 31
0.0000
  0
LINE
  5
3A5
  8
SOL-DIM-INSTALATSIA-5
 10
2270.0000
 20
-11400.0000
 30
0.0000
 11
2052.5000
 21
-11400.0000
 31
0.0000
  0
LINE
  5
3A6
  8
SOL-DIM-INSTALATSIA-5
 10
2270.0000
 20
-10900.0000
 30
0.0000
 11
2052.5000
 21
-10900.0000
 31
0.0000
  0
LINE
  5
3A7
  8
SOL-DIM-INSTALATSIA-5
 10
2112.5000
 20
-11400.0000
 30
0.0000
 11
2112.5000
 21
-10900.0000
 31
0.0000
  0
SOLID
  5
3A8
  8
SOL-DIM-INSTALATSIA-5
 10
2112.5000
 20
-11400.0000
 30
0.0000
 11
2080.5000
 21
-11515.0000
 31
0.0000
 12
2144.5000
 22
-11515.0000
 32
0.0000
 13
2144.5000
 23
-11515.0000
 33
0.0000
  0
SOLID
  5
3A9
  8
SOL-DIM-INSTALATSIA-5
 10
2112.5000
 20
-10900.0000
 30
0.0000
 11
2080.5000
 21
-10785.0000
 31
0.0000
 12
2144.5000
 22
-10785.0000
 32
0.0000
 13
2144.5000
 23
-10785.0000
 33
0.0000
  0
TEXT
  5
3AA
  8
SOL-DIM-INSTALATSIA-5
 10
2017.5000
 20
-11150.0000
 30
0.0000
 40
100.0000
  1
50
 50
90.0000
  7
SOLINE
 72
1
 73
2
 11
2017.5000
 21
-11150.0000
 31
0.0000
  0
LINE
  5
3AB
  8
SOL-INSTALATSIA
 10
2200.0000
 20
-11240.0000
 30
0.0000
 11
2250.0000
 21
-11240.0000
 31
0.0000
  0
LINE
  5
3AC
  8
SOL-INSTALATSIA
 10
2250.0000
 20
-11240.0000
 30
0.0000
 11
2250.0000
 21
-11160.0000
 31
0.0000
  0
LINE
  5
3AD
  8
SOL-INSTALATSIA
 10
2250.0000
 20
-11160.0000
 30
0.0000
 11
2200.0000
 21
-11160.0000
 31
0.0000
  0
LINE
  5
3AE
  8
SOL-INSTALATSIA
 10
2200.0000
 20
-11160.0000
 30
0.0000
 11
2200.0000
 21
-11240.0000
 31
0.0000
  0
LINE
  5
3AF
  8
SOL-INSTALATSIA
 10
2225.0000
 20
-11240.0000
 30
0.0000
 11
2225.0000
 21
-11182.4000
 31
0.0000
  0
LINE
  5
3B0
  8
SOL-INSTALATSIA
 10
2240.0000
 20
-11200.0000
 30
0.0000
 11
2239.7118
 21
-11204.6822
 31
0.0000
  0
LINE
  5
3B1
  8
SOL-INSTALATSIA
 10
2239.7118
 20
-11204.6822
 30
0.0000
 11
2238.8582
 21
-11209.1844
 31
0.0000
  0
LINE
  5
3B2
  8
SOL-INSTALATSIA
 10
2238.8582
 20
-11209.1844
 30
0.0000
 11
2237.4720
 21
-11213.3337
 31
0.0000
  0
LINE
  5
3B3
  8
SOL-INSTALATSIA
 10
2237.4720
 20
-11213.3337
 30
0.0000
 11
2235.6066
 21
-11216.9706
 31
0.0000
  0
LINE
  5
3B4
  8
SOL-INSTALATSIA
 10
2235.6066
 20
-11216.9706
 30
0.0000
 11
2233.3336
 21
-11219.9553
 31
0.0000
  0
LINE
  5
3B5
  8
SOL-INSTALATSIA
 10
2233.3336
 20
-11219.9553
 30
0.0000
 11
2230.7403
 21
-11222.1731
 31
0.0000
  0
LINE
  5
3B6
  8
SOL-INSTALATSIA
 10
2230.7403
 20
-11222.1731
 30
0.0000
 11
2227.9264
 21
-11223.5388
 31
0.0000
  0
LINE
  5
3B7
  8
SOL-INSTALATSIA
 10
2227.9264
 20
-11223.5388
 30
0.0000
 11
2225.0000
 21
-11224.0000
 31
0.0000
  0
LINE
  5
3B8
  8
SOL-INSTALATSIA
 10
2225.0000
 20
-11224.0000
 30
0.0000
 11
2222.0736
 21
-11223.5388
 31
0.0000
  0
LINE
  5
3B9
  8
SOL-INSTALATSIA
 10
2222.0736
 20
-11223.5388
 30
0.0000
 11
2219.2597
 21
-11222.1731
 31
0.0000
  0
LINE
  5
3BA
  8
SOL-INSTALATSIA
 10
2219.2597
 20
-11222.1731
 30
0.0000
 11
2216.6664
 21
-11219.9553
 31
0.0000
  0
LINE
  5
3BB
  8
SOL-INSTALATSIA
 10
2216.6664
 20
-11219.9553
 30
0.0000
 11
2214.3934
 21
-11216.9706
 31
0.0000
  0
LINE
  5
3BC
  8
SOL-INSTALATSIA
 10
2214.3934
 20
-11216.9706
 30
0.0000
 11
2212.5280
 21
-11213.3337
 31
0.0000
  0
LINE
  5
3BD
  8
SOL-INSTALATSIA
 10
2212.5280
 20
-11213.3337
 30
0.0000
 11
2211.1418
 21
-11209.1844
 31
0.0000
  0
LINE
  5
3BE
  8
SOL-INSTALATSIA
 10
2211.1418
 20
-11209.1844
 30
0.0000
 11
2210.2882
 21
-11204.6822
 31
0.0000
  0
LINE
  5
3BF
  8
SOL-INSTALATSIA
 10
2210.2882
 20
-11204.6822
 30
0.0000
 11
2210.0000
 21
-11200.0000
 31
0.0000
  0
LINE
  5
3C0
  8
SOL-INSTALATSIA
 10
2210.0000
 20
-11200.0000
 30
0.0000
 11
2210.2882
 21
-11195.3178
 31
0.0000
  0
LINE
  5
3C1
  8
SOL-INSTALATSIA
 10
2210.2882
 20
-11195.3178
 30
0.0000
 11
2211.1418
 21
-11190.8156
 31
0.0000
  0
LINE
  5
3C2
  8
SOL-INSTALATSIA
 10
2211.1418
 20
-11190.8156
 30
0.0000
 11
2212.5280
 21
-11186.6663
 31
0.0000
  0
LINE
  5
3C3
  8
SOL-INSTALATSIA
 10
2212.5280
 20
-11186.6663
 30
0.0000
 11
2214.3934
 21
-11183.0294
 31
0.0000
  0
LINE
  5
3C4
  8
SOL-INSTALATSIA
 10
2214.3934
 20
-11183.0294
 30
0.0000
 11
2216.6664
 21
-11180.0447
 31
0.0000
  0
LINE
  5
3C5
  8
SOL-INSTALATSIA
 10
2216.6664
 20
-11180.0447
 30
0.0000
 11
2219.2597
 21
-11177.8269
 31
0.0000
  0
LINE
  5
3C6
  8
SOL-INSTALATSIA
 10
2219.2597
 20
-11177.8269
 30
0.0000
 11
2222.0736
 21
-11176.4612
 31
0.0000
  0
LINE
  5
3C7
  8
SOL-INSTALATSIA
 10
2222.0736
 20
-11176.4612
 30
0.0000
 11
2225.0000
 21
-11176.0000
 31
0.0000
  0
LINE
  5
3C8
  8
SOL-INSTALATSIA
 10
2225.0000
 20
-11176.0000
 30
0.0000
 11
2227.9264
 21
-11176.4612
 31
0.0000
  0
LINE
  5
3C9
  8
SOL-INSTALATSIA
 10
2227.9264
 20
-11176.4612
 30
0.0000
 11
2230.7403
 21
-11177.8269
 31
0.0000
  0
LINE
  5
3CA
  8
SOL-INSTALATSIA
 10
2230.7403
 20
-11177.8269
 30
0.0000
 11
2233.3336
 21
-11180.0447
 31
0.0000
  0
LINE
  5
3CB
  8
SOL-INSTALATSIA
 10
2233.3336
 20
-11180.0447
 30
0.0000
 11
2235.6066
 21
-11183.0294
 31
0.0000
  0
LINE
  5
3CC
  8
SOL-INSTALATSIA
 10
2235.6066
 20
-11183.0294
 30
0.0000
 11
2237.4720
 21
-11186.6663
 31
0.0000
  0
LINE
  5
3CD
  8
SOL-INSTALATSIA
 10
2237.4720
 20
-11186.6663
 30
0.0000
 11
2238.8582
 21
-11190.8156
 31
0.0000
  0
LINE
  5
3CE
  8
SOL-INSTALATSIA
 10
2238.8582
 20
-11190.8156
 30
0.0000
 11
2239.7118
 21
-11195.3178
 31
0.0000
  0
LINE
  5
3CF
  8
SOL-INSTALATSIA
 10
2239.7118
 20
-11195.3178
 30
0.0000
 11
2240.0000
 21
-11200.0000
 31
0.0000
  0
LINE
  5
3D0
  8
SOL-INSTALATSIA
 10
2215.0000
 20
-11200.0000
 30
0.0000
 11
2220.0000
 21
-11193.6000
 31
0.0000
  0
LINE
  5
3D1
  8
SOL-INSTALATSIA
 10
2220.0000
 20
-11193.6000
 30
0.0000
 11
2225.0000
 21
-11200.0000
 31
0.0000
  0
LINE
  5
3D2
  8
SOL-INSTALATSIA
 10
2225.0000
 20
-11200.0000
 30
0.0000
 11
2230.0000
 21
-11206.4000
 31
0.0000
  0
LINE
  5
3D3
  8
SOL-INSTALATSIA
 10
2230.0000
 20
-11206.4000
 30
0.0000
 11
2235.0000
 21
-11200.0000
 31
0.0000
  0
LINE
  5
3D4
  8
SOL-DIM-INSTALATSIA-6
 10
3100.0000
 20
-11360.0000
 30
0.0000
 11
3100.0000
 21
-8777.5000
 31
0.0000
  0
LINE
  5
3D5
  8
SOL-DIM-INSTALATSIA-6
 10
2225.0000
 20
-11360.0000
 30
0.0000
 11
2225.0000
 21
-8777.5000
 31
0.0000
  0
LINE
  5
3D6
  8
SOL-DIM-INSTALATSIA-6
 10
3100.0000
 20
-8837.5000
 30
0.0000
 11
2225.0000
 21
-8837.5000
 31
0.0000
  0
SOLID
  5
3D7
  8
SOL-DIM-INSTALATSIA-6
 10
3100.0000
 20
-8837.5000
 30
0.0000
 11
3215.0000
 21
-8805.5000
 31
0.0000
 12
3215.0000
 22
-8869.5000
 32
0.0000
 13
3215.0000
 23
-8869.5000
 33
0.0000
  0
SOLID
  5
3D8
  8
SOL-DIM-INSTALATSIA-6
 10
2225.0000
 20
-8837.5000
 30
0.0000
 11
2110.0000
 21
-8805.5000
 31
0.0000
 12
2110.0000
 22
-8869.5000
 32
0.0000
 13
2110.0000
 23
-8869.5000
 33
0.0000
  0
TEXT
  5
3D9
  8
SOL-DIM-INSTALATSIA-6
 10
2662.5000
 20
-8742.5000
 30
0.0000
 40
100.0000
  1
87.5
 50
360.0000
  7
SOLINE
 72
1
 73
2
 11
2662.5000
 21
-8742.5000
 31
0.0000
  0
LINE
  5
3DA
  8
SOL-DIM-INSTALATSIA-6
 10
2265.0000
 20
-11400.0000
 30
0.0000
 11
2497.5000
 21
-11400.0000
 31
0.0000
  0
LINE
  5
3DB
  8
SOL-DIM-INSTALATSIA-6
 10
2265.0000
 20
-11200.0000
 30
0.0000
 11
2497.5000
 21
-11200.0000
 31
0.0000
  0
LINE
  5
3DC
  8
SOL-DIM-INSTALATSIA-6
 10
2437.5000
 20
-11400.0000
 30
0.0000
 11
2437.5000
 21
-11200.0000
 31
0.0000
  0
SOLID
  5
3DD
  8
SOL-DIM-INSTALATSIA-6
 10
2437.5000
 20
-11400.0000
 30
0.0000
 11
2469.5000
 21
-11515.0000
 31
0.0000
 12
2405.5000
 22
-11515.0000
 32
0.0000
 13
2405.5000
 23
-11515.0000
 33
0.0000
  0
SOLID
  5
3DE
  8
SOL-DIM-INSTALATSIA-6
 10
2437.5000
 20
-11200.0000
 30
0.0000
 11
2469.5000
 21
-11085.0000
 31
0.0000
 12
2405.5000
 22
-11085.0000
 32
0.0000
 13
2405.5000
 23
-11085.0000
 33
0.0000
  0
TEXT
  5
3DF
  8
SOL-DIM-INSTALATSIA-6
 10
2532.5000
 20
-11300.0000
 30
0.0000
 40
100.0000
  1
20
 50
90.0000
  7
SOLINE
 72
1
 73
2
 11
2532.5000
 21
-11300.0000
 31
0.0000
  0
TEXT
  5
3E0
  8
SOL-MISGERET
 10
1100.0000
 20
-12337.5000
 30
0.0000
 40
162.5000
  1
W1
 50
0.0000
  7
SOLINE
 72
1
 73
2
 11
1100.0000
 21
-12337.5000
 31
0.0000
  0
LINE
  5
3E1
  8
SOL-KIROT
 10
5600.0000
 20
-11400.0000
 30
0.0000
 11
9600.0000
 21
-11400.0000
 31
0.0000
  0
LINE
  5
3E2
  8
SOL-KIROT
 10
9600.0000
 20
-11400.0000
 30
0.0000
 11
9600.0000
 21
-8800.0000
 31
0.0000
  0
LINE
  5
3E3
  8
SOL-KIROT
 10
9600.0000
 20
-8800.0000
 30
0.0000
 11
5600.0000
 21
-8800.0000
 31
0.0000
  0
LINE
  5
3E4
  8
SOL-KIROT
 10
5600.0000
 20
-8800.0000
 30
0.0000
 11
5600.0000
 21
-11400.0000
 31
0.0000
  0
LINE
  5
3E5
  8
SOL-MIDOT-CHUTS
 10
5600.0000
 20
-11450.0000
 30
0.0000
 11
5600.0000
 21
-11850.0000
 31
0.0000
  0
LINE
  5
3E6
  8
SOL-MIDOT-CHUTS
 10
9600.0000
 20
-11450.0000
 30
0.0000
 11
9600.0000
 21
-11850.0000
 31
0.0000
  0
LINE
  5
3E7
  8
SOL-MIDOT-CHUTS
 10
5600.0000
 20
-11775.0000
 30
0.0000
 11
9600.0000
 21
-11775.0000
 31
0.0000
  0
SOLID
  5
3E8
  8
SOL-MIDOT-CHUTS
 10
5600.0000
 20
-11775.0000
 30
0.0000
 11
5456.2500
 21
-11815.0000
 31
0.0000
 12
5456.2500
 22
-11735.0000
 32
0.0000
 13
5456.2500
 23
-11735.0000
 33
0.0000
  0
SOLID
  5
3E9
  8
SOL-MIDOT-CHUTS
 10
9600.0000
 20
-11775.0000
 30
0.0000
 11
9743.7500
 21
-11815.0000
 31
0.0000
 12
9743.7500
 22
-11735.0000
 32
0.0000
 13
9743.7500
 23
-11735.0000
 33
0.0000
  0
TEXT
  5
3EA
  8
SOL-MIDOT-CHUTS
 10
7600.0000
 20
-11893.7500
 30
0.0000
 40
125.0000
  1
400
 50
0.0000
  7
SOLINE
 72
1
 73
2
 11
7600.0000
 21
-11893.7500
 31
0.0000
  0
LINE
  5
3EB
  8
SOL-MIDOT-CHUTS
 10
5550.0000
 20
-11400.0000
 30
0.0000
 11
5150.0000
 21
-11400.0000
 31
0.0000
  0
LINE
  5
3EC
  8
SOL-MIDOT-CHUTS
 10
5550.0000
 20
-8800.0000
 30
0.0000
 11
5150.0000
 21
-8800.0000
 31
0.0000
  0
LINE
  5
3ED
  8
SOL-MIDOT-CHUTS
 10
5225.0000
 20
-11400.0000
 30
0.0000
 11
5225.0000
 21
-8800.0000
 31
0.0000
  0
SOLID
  5
3EE
  8
SOL-MIDOT-CHUTS
 10
5225.0000
 20
-11400.0000
 30
0.0000
 11
5185.0000
 21
-11543.7500
 31
0.0000
 12
5265.0000
 22
-11543.7500
 32
0.0000
 13
5265.0000
 23
-11543.7500
 33
0.0000
  0
SOLID
  5
3EF
  8
SOL-MIDOT-CHUTS
 10
5225.0000
 20
-8800.0000
 30
0.0000
 11
5185.0000
 21
-8656.2500
 31
0.0000
 12
5265.0000
 22
-8656.2500
 32
0.0000
 13
5265.0000
 23
-8656.2500
 33
0.0000
  0
TEXT
  5
3F0
  8
SOL-MIDOT-CHUTS
 10
5106.2500
 20
-10100.0000
 30
0.0000
 40
125.0000
  1
260
 50
90.0000
  7
SOLINE
 72
1
 73
2
 11
5106.2500
 21
-10100.0000
 31
0.0000
  0
LINE
  5
3F1
  8
SOL-CHASHMAL
 10
6200.0000
 20
-11090.0000
 30
0.0000
 11
6280.0000
 21
-11090.0000
 31
0.0000
  0
LINE
  5
3F2
  8
SOL-CHASHMAL
 10
6280.0000
 20
-11090.0000
 30
0.0000
 11
6280.0000
 21
-11010.0000
 31
0.0000
  0
LINE
  5
3F3
  8
SOL-CHASHMAL
 10
6280.0000
 20
-11010.0000
 30
0.0000
 11
6200.0000
 21
-11010.0000
 31
0.0000
  0
LINE
  5
3F4
  8
SOL-CHASHMAL
 10
6200.0000
 20
-11010.0000
 30
0.0000
 11
6200.0000
 21
-11090.0000
 31
0.0000
  0
LINE
  5
3F5
  8
SOL-CHASHMAL
 10
6240.0000
 20
-11090.0000
 30
0.0000
 11
6240.0000
 21
-11067.6000
 31
0.0000
  0
LINE
  5
3F6
  8
SOL-CHASHMAL
 10
6216.0000
 20
-11043.6000
 30
0.0000
 11
6216.1509
 21
-11040.9129
 31
0.0000
  0
LINE
  5
3F7
  8
SOL-CHASHMAL
 10
6216.1509
 20
-11040.9129
 30
0.0000
 11
6216.6017
 21
-11038.2595
 31
0.0000
  0
LINE
  5
3F8
  8
SOL-CHASHMAL
 10
6216.6017
 20
-11038.2595
 30
0.0000
 11
6217.3468
 21
-11035.6733
 31
0.0000
  0
LINE
  5
3F9
  8
SOL-CHASHMAL
 10
6217.3468
 20
-11035.6733
 30
0.0000
 11
6218.3767
 21
-11033.1868
 31
0.0000
  0
LINE
  5
3FA
  8
SOL-CHASHMAL
 10
6218.3767
 20
-11033.1868
 30
0.0000
 11
6219.6786
 21
-11030.8312
 31
0.0000
  0
LINE
  5
3FB
  8
SOL-CHASHMAL
 10
6219.6786
 20
-11030.8312
 30
0.0000
 11
6221.2360
 21
-11028.6362
 31
0.0000
  0
LINE
  5
3FC
  8
SOL-CHASHMAL
 10
6221.2360
 20
-11028.6362
 30
0.0000
 11
6223.0294
 21
-11026.6294
 31
0.0000
  0
LINE
  5
3FD
  8
SOL-CHASHMAL
 10
6223.0294
 20
-11026.6294
 30
0.0000
 11
6225.0362
 21
-11024.8360
 31
0.0000
  0
LINE
  5
3FE
  8
SOL-CHASHMAL
 10
6225.0362
 20
-11024.8360
 30
0.0000
 11
6227.2312
 21
-11023.2786
 31
0.0000
  0
LINE
  5
3FF
  8
SOL-CHASHMAL
 10
6227.2312
 20
-11023.2786
 30
0.0000
 11
6229.5868
 21
-11021.9767
 31
0.0000
  0
LINE
  5
400
  8
SOL-CHASHMAL
 10
6229.5868
 20
-11021.9767
 30
0.0000
 11
6232.0733
 21
-11020.9468
 31
0.0000
  0
LINE
  5
401
  8
SOL-CHASHMAL
 10
6232.0733
 20
-11020.9468
 30
0.0000
 11
6234.6595
 21
-11020.2017
 31
0.0000
  0
LINE
  5
402
  8
SOL-CHASHMAL
 10
6234.6595
 20
-11020.2017
 30
0.0000
 11
6237.3129
 21
-11019.7509
 31
0.0000
  0
LINE
  5
403
  8
SOL-CHASHMAL
 10
6237.3129
 20
-11019.7509
 30
0.0000
 11
6240.0000
 21
-11019.6000
 31
0.0000
  0
LINE
  5
404
  8
SOL-CHASHMAL
 10
6240.0000
 20
-11019.6000
 30
0.0000
 11
6242.6871
 21
-11019.7509
 31
0.0000
  0
LINE
  5
405
  8
SOL-CHASHMAL
 10
6242.6871
 20
-11019.7509
 30
0.0000
 11
6245.3405
 21
-11020.2017
 31
0.0000
  0
LINE
  5
406
  8
SOL-CHASHMAL
 10
6245.3405
 20
-11020.2017
 30
0.0000
 11
6247.9267
 21
-11020.9468
 31
0.0000
  0
LINE
  5
407
  8
SOL-CHASHMAL
 10
6247.9267
 20
-11020.9468
 30
0.0000
 11
6250.4132
 21
-11021.9767
 31
0.0000
  0
LINE
  5
408
  8
SOL-CHASHMAL
 10
6250.4132
 20
-11021.9767
 30
0.0000
 11
6252.7688
 21
-11023.2786
 31
0.0000
  0
LINE
  5
409
  8
SOL-CHASHMAL
 10
6252.7688
 20
-11023.2786
 30
0.0000
 11
6254.9638
 21
-11024.8360
 31
0.0000
  0
LINE
  5
40A
  8
SOL-CHASHMAL
 10
6254.9638
 20
-11024.8360
 30
0.0000
 11
6256.9706
 21
-11026.6294
 31
0.0000
  0
LINE
  5
40B
  8
SOL-CHASHMAL
 10
6256.9706
 20
-11026.6294
 30
0.0000
 11
6258.7640
 21
-11028.6362
 31
0.0000
  0
LINE
  5
40C
  8
SOL-CHASHMAL
 10
6258.7640
 20
-11028.6362
 30
0.0000
 11
6260.3214
 21
-11030.8312
 31
0.0000
  0
LINE
  5
40D
  8
SOL-CHASHMAL
 10
6260.3214
 20
-11030.8312
 30
0.0000
 11
6261.6233
 21
-11033.1868
 31
0.0000
  0
LINE
  5
40E
  8
SOL-CHASHMAL
 10
6261.6233
 20
-11033.1868
 30
0.0000
 11
6262.6532
 21
-11035.6733
 31
0.0000
  0
LINE
  5
40F
  8
SOL-CHASHMAL
 10
6262.6532
 20
-11035.6733
 30
0.0000
 11
6263.3983
 21
-11038.2595
 31
0.0000
  0
LINE
  5
410
  8
SOL-CHASHMAL
 10
6263.3983
 20
-11038.2595
 30
0.0000
 11
6263.8491
 21
-11040.9129
 31
0.0000
  0
LINE
  5
411
  8
SOL-CHASHMAL
 10
6263.8491
 20
-11040.9129
 30
0.0000
 11
6264.0000
 21
-11043.6000
 31
0.0000
  0
LINE
  5
412
  8
SOL-CHASHMAL
 10
6216.0000
 20
-11043.6000
 30
0.0000
 11
6264.0000
 21
-11043.6000
 31
0.0000
  0
LINE
  5
413
  8
SOL-CHASHMAL
 10
6240.0000
 20
-11043.6000
 30
0.0000
 11
6240.0000
 21
-11060.4000
 31
0.0000
  0
LINE
  5
414
  8
SOL-DIM-CHASHMAL-7
 10
5600.0000
 20
-11440.0000
 30
0.0000
 11
5600.0000
 21
-12272.5000
 31
0.0000
  0
LINE
  5
415
  8
SOL-DIM-CHASHMAL-7
 10
6240.0000
 20
-11440.0000
 30
0.0000
 11
6240.0000
 21
-12272.5000
 31
0.0000
  0
LINE
  5
416
  8
SOL-DIM-CHASHMAL-7
 10
5600.0000
 20
-12212.5000
 30
0.0000
 11
6240.0000
 21
-12212.5000
 31
0.0000
  0
SOLID
  5
417
  8
SOL-DIM-CHASHMAL-7
 10
5600.0000
 20
-12212.5000
 30
0.0000
 11
5485.0000
 21
-12244.5000
 31
0.0000
 12
5485.0000
 22
-12180.5000
 32
0.0000
 13
5485.0000
 23
-12180.5000
 33
0.0000
  0
SOLID
  5
418
  8
SOL-DIM-CHASHMAL-7
 10
6240.0000
 20
-12212.5000
 30
0.0000
 11
6355.0000
 21
-12244.5000
 31
0.0000
 12
6355.0000
 22
-12180.5000
 32
0.0000
 13
6355.0000
 23
-12180.5000
 33
0.0000
  0
TEXT
  5
419
  8
SOL-DIM-CHASHMAL-7
 10
5920.0000
 20
-12307.5000
 30
0.0000
 40
100.0000
  1
64
 50
0.0000
  7
SOLINE
 72
1
 73
2
 11
5920.0000
 21
-12307.5000
 31
0.0000
  0
LINE
  5
41A
  8
SOL-DIM-CHASHMAL-7
 10
6200.0000
 20
-11400.0000
 30
0.0000
 11
5952.5000
 21
-11400.0000
 31
0.0000
  0
LINE
  5
41B
  8
SOL-DIM-CHASHMAL-7
 10
6200.0000
 20
-11050.0000
 30
0.0000
 11
5952.5000
 21
-11050.0000
 31
0.0000
  0
LINE
  5
41C
  8
SOL-DIM-CHASHMAL-7
 10
6012.5000
 20
-11400.0000
 30
0.0000
 11
6012.5000
 21
-11050.0000
 31
0.0000
  0
SOLID
  5
41D
  8
SOL-DIM-CHASHMAL-7
 10
6012.5000
 20
-11400.0000
 30
0.0000
 11
5980.5000
 21
-11515.0000
 31
0.0000
 12
6044.5000
 22
-11515.0000
 32
0.0000
 13
6044.5000
 23
-11515.0000
 33
0.0000
  0
SOLID
  5
41E
  8
SOL-DIM-CHASHMAL-7
 10
6012.5000
 20
-11050.0000
 30
0.0000
 11
5980.5000
 21
-10935.0000
 31
0.0000
 12
6044.5000
 22
-10935.0000
 32
0.0000
 13
6044.5000
 23
-10935.0000
 33
0.0000
  0
TEXT
  5
41F
  8
SOL-DIM-CHASHMAL-7
 10
5917.5000
 20
-11225.0000
 30
0.0000
 40
100.0000
  1
35
 50
90.0000
  7
SOLINE
 72
1
 73
2
 11
5917.5000
 21
-11225.0000
 31
0.0000
  0
LINE
  5
420
  8
SOL-PTACHIM
 10
6900.0000
 20
-10500.0000
 30
0.0000
 11
8300.0000
 21
-10500.0000
 31
0.0000
  0
LINE
  5
421
  8
SOL-PTACHIM
 10
8300.0000
 20
-10500.0000
 30
0.0000
 11
8300.0000
 21
-9100.0000
 31
0.0000
  0
LINE
  5
422
  8
SOL-PTACHIM
 10
8300.0000
 20
-9100.0000
 30
0.0000
 11
6900.0000
 21
-9100.0000
 31
0.0000
  0
LINE
  5
423
  8
SOL-PTACHIM
 10
6900.0000
 20
-9100.0000
 30
0.0000
 11
6900.0000
 21
-10500.0000
 31
0.0000
  0
LINE
  5
424
  8
SOL-PTACHIM
 10
6900.0000
 20
-9604.0000
 30
0.0000
 11
8300.0000
 21
-9604.0000
 31
0.0000
  0
LINE
  5
425
  8
SOL-PTACHIM
 10
8300.0000
 20
-9604.0000
 30
0.0000
 11
8300.0000
 21
-9996.0000
 31
0.0000
  0
LINE
  5
426
  8
SOL-PTACHIM
 10
8300.0000
 20
-9996.0000
 30
0.0000
 11
6900.0000
 21
-9996.0000
 31
0.0000
  0
LINE
  5
427
  8
SOL-PTACHIM
 10
6900.0000
 20
-9996.0000
 30
0.0000
 11
6900.0000
 21
-9604.0000
 31
0.0000
  0
LINE
  5
428
  8
SOL-PTACHIM
 10
6900.0000
 20
-9800.0000
 30
0.0000
 11
8300.0000
 21
-9800.0000
 31
0.0000
  0
LINE
  5
429
  8
SOL-DIM-PTACHIM-8
 10
5600.0000
 20
-11440.0000
 30
0.0000
 11
5600.0000
 21
-12622.5000
 31
0.0000
  0
LINE
  5
42A
  8
SOL-DIM-PTACHIM-8
 10
6900.0000
 20
-11440.0000
 30
0.0000
 11
6900.0000
 21
-12622.5000
 31
0.0000
  0
LINE
  5
42B
  8
SOL-DIM-PTACHIM-8
 10
5600.0000
 20
-12562.5000
 30
0.0000
 11
6900.0000
 21
-12562.5000
 31
0.0000
  0
SOLID
  5
42C
  8
SOL-DIM-PTACHIM-8
 10
5600.0000
 20
-12562.5000
 30
0.0000
 11
5485.0000
 21
-12594.5000
 31
0.0000
 12
5485.0000
 22
-12530.5000
 32
0.0000
 13
5485.0000
 23
-12530.5000
 33
0.0000
  0
SOLID
  5
42D
  8
SOL-DIM-PTACHIM-8
 10
6900.0000
 20
-12562.5000
 30
0.0000
 11
7015.0000
 21
-12594.5000
 31
0.0000
 12
7015.0000
 22
-12530.5000
 32
0.0000
 13
7015.0000
 23
-12530.5000
 33
0.0000
  0
TEXT
  5
42E
  8
SOL-DIM-PTACHIM-8
 10
6250.0000
 20
-12657.5000
 30
0.0000
 40
100.0000
  1
130
 50
0.0000
  7
SOLINE
 72
1
 73
2
 11
6250.0000
 21
-12657.5000
 31
0.0000
  0
LINE
  5
42F
  8
SOL-DIM-PTACHIM-8
 10
6900.0000
 20
-9060.0000
 30
0.0000
 11
6900.0000
 21
-8816.5000
 31
0.0000
  0
LINE
  5
430
  8
SOL-DIM-PTACHIM-8
 10
8300.0000
 20
-9060.0000
 30
0.0000
 11
8300.0000
 21
-8816.5000
 31
0.0000
  0
LINE
  5
431
  8
SOL-DIM-PTACHIM-8
 10
6900.0000
 20
-8875.0000
 30
0.0000
 11
8300.0000
 21
-8875.0000
 31
0.0000
  0
SOLID
  5
432
  8
SOL-DIM-PTACHIM-8
 10
6900.0000
 20
-8875.0000
 30
0.0000
 11
6787.8750
 21
-8843.8000
 31
0.0000
 12
6787.8750
 22
-8906.2000
 32
0.0000
 13
6787.8750
 23
-8906.2000
 33
0.0000
  0
SOLID
  5
433
  8
SOL-DIM-PTACHIM-8
 10
8300.0000
 20
-8875.0000
 30
0.0000
 11
8412.1250
 21
-8843.8000
 31
0.0000
 12
8412.1250
 22
-8906.2000
 32
0.0000
 13
8412.1250
 23
-8906.2000
 33
0.0000
  0
TEXT
  5
434
  8
SOL-DIM-PTACHIM-8
 10
7600.0000
 20
-8782.3750
 30
0.0000
 40
97.5000
  1
140
 50
0.0000
  7
SOLINE
 72
1
 73
2
 11
7600.0000
 21
-8782.3750
 31
0.0000
  0
LINE
  5
435
  8
SOL-DIM-PTACHIM-8
 10
6860.0000
 20
-11400.0000
 30
0.0000
 11
6654.0000
 21
-11400.0000
 31
0.0000
  0
LINE
  5
436
  8
SOL-DIM-PTACHIM-8
 10
6860.0000
 20
-10500.0000
 30
0.0000
 11
6654.0000
 21
-10500.0000
 31
0.0000
  0
LINE
  5
437
  8
SOL-DIM-PTACHIM-8
 10
6712.5000
 20
-11400.0000
 30
0.0000
 11
6712.5000
 21
-10500.0000
 31
0.0000
  0
SOLID
  5
438
  8
SOL-DIM-PTACHIM-8
 10
6712.5000
 20
-11400.0000
 30
0.0000
 11
6681.3000
 21
-11512.1250
 31
0.0000
 12
6743.7000
 22
-11512.1250
 32
0.0000
 13
6743.7000
 23
-11512.1250
 33
0.0000
  0
SOLID
  5
439
  8
SOL-DIM-PTACHIM-8
 10
6712.5000
 20
-10500.0000
 30
0.0000
 11
6681.3000
 21
-10387.8750
 31
0.0000
 12
6743.7000
 22
-10387.8750
 32
0.0000
 13
6743.7000
 23
-10387.8750
 33
0.0000
  0
TEXT
  5
43A
  8
SOL-DIM-PTACHIM-8
 10
6619.8750
 20
-10950.0000
 30
0.0000
 40
97.5000
  1
90
 50
90.0000
  7
SOLINE
 72
1
 73
2
 11
6619.8750
 21
-10950.0000
 31
0.0000
  0
LINE
  5
43B
  8
SOL-DIM-PTACHIM-8
 10
6860.0000
 20
-10500.0000
 30
0.0000
 11
6316.5000
 21
-10500.0000
 31
0.0000
  0
LINE
  5
43C
  8
SOL-DIM-PTACHIM-8
 10
6860.0000
 20
-9100.0000
 30
0.0000
 11
6316.5000
 21
-9100.0000
 31
0.0000
  0
LINE
  5
43D
  8
SOL-DIM-PTACHIM-8
 10
6375.0000
 20
-10500.0000
 30
0.0000
 11
6375.0000
 21
-9100.0000
 31
0.0000
  0
SOLID
  5
43E
  8
SOL-DIM-PTACHIM-8
 10
6375.0000
 20
-10500.0000
 30
0.0000
 11
6343.8000
 21
-10612.1250
 31
0.0000
 12
6406.2000
 22
-10612.1250
 32
0.0000
 13
6406.2000
 23
-10612.1250
 33
0.0000
  0
SOLID
  5
43F
  8
SOL-DIM-PTACHIM-8
 10
6375.0000
 20
-9100.0000
 30
0.0000
 11
6343.8000
 21
-8987.8750
 31
0.0000
 12
6406.2000
 22
-8987.8750
 32
0.0000
 13
6406.2000
 23
-8987.8750
 33
0.0000
  0
TEXT
  5
440
  8
SOL-DIM-PTACHIM-8
 10
6282.3750
 20
-9800.0000
 30
0.0000
 40
97.5000
  1
140
 50
90.0000
  7
SOLINE
 72
1
 73
2
 11
6282.3750
 21
-9800.0000
 31
0.0000
  0
LINE
  5
441
  8
SOL-DIM-PTACHIM-8
 10
8340.0000
 20
-11400.0000
 30
0.0000
 11
8546.0000
 21
-11400.0000
 31
0.0000
  0
LINE
  5
442
  8
SOL-DIM-PTACHIM-8
 10
8340.0000
 20
-9100.0000
 30
0.0000
 11
8546.0000
 21
-9100.0000
 31
0.0000
  0
LINE
  5
443
  8
SOL-DIM-PTACHIM-8
 10
8487.5000
 20
-11400.0000
 30
0.0000
 11
8487.5000
 21
-9100.0000
 31
0.0000
  0
SOLID
  5
444
  8
SOL-DIM-PTACHIM-8
 10
8487.5000
 20
-11400.0000
 30
0.0000
 11
8518.7000
 21
-11512.1250
 31
0.0000
 12
8456.3000
 22
-11512.1250
 32
0.0000
 13
8456.3000
 23
-11512.1250
 33
0.0000
  0
SOLID
  5
445
  8
SOL-DIM-PTACHIM-8
 10
8487.5000
 20
-9100.0000
 30
0.0000
 11
8518.7000
 21
-8987.8750
 31
0.0000
 12
8456.3000
 22
-8987.8750
 32
0.0000
 13
8456.3000
 23
-8987.8750
 33
0.0000
  0
TEXT
  5
446
  8
SOL-DIM-PTACHIM-8
 10
8580.1250
 20
-10250.0000
 30
0.0000
 40
97.5000
  1
230
 50
90.0000
  7
SOLINE
 72
1
 73
2
 11
8580.1250
 21
-10250.0000
 31
0.0000
  0
LINE
  5
447
  8
SOL-DIM-PTACHIM-8
 10
8340.0000
 20
-9100.0000
 30
0.0000
 11
8883.5000
 21
-9100.0000
 31
0.0000
  0
LINE
  5
448
  8
SOL-DIM-PTACHIM-8
 10
8340.0000
 20
-8800.0000
 30
0.0000
 11
8883.5000
 21
-8800.0000
 31
0.0000
  0
LINE
  5
449
  8
SOL-DIM-PTACHIM-8
 10
8825.0000
 20
-9100.0000
 30
0.0000
 11
8825.0000
 21
-8800.0000
 31
0.0000
  0
SOLID
  5
44A
  8
SOL-DIM-PTACHIM-8
 10
8825.0000
 20
-9100.0000
 30
0.0000
 11
8856.2000
 21
-9212.1250
 31
0.0000
 12
8793.8000
 22
-9212.1250
 32
0.0000
 13
8793.8000
 23
-9212.1250
 33
0.0000
  0
SOLID
  5
44B
  8
SOL-DIM-PTACHIM-8
 10
8825.0000
 20
-8800.0000
 30
0.0000
 11
8856.2000
 21
-8687.8750
 31
0.0000
 12
8793.8000
 22
-8687.8750
 32
0.0000
 13
8793.8000
 23
-8687.8750
 33
0.0000
  0
TEXT
  5
44C
  8
SOL-DIM-PTACHIM-8
 10
8917.6250
 20
-8950.0000
 30
0.0000
 40
97.5000
  1
30
 50
90.0000
  7
SOLINE
 72
1
 73
2
 11
8917.6250
 21
-8950.0000
 31
0.0000
  0
TEXT
  5
44D
  8
SOL-MISGERET
 10
7600.0000
 20
-12337.5000
 30
0.0000
 40
162.5000
  1
W2
 50
0.0000
  7
SOLINE
 72
1
 73
2
 11
7600.0000
 21
-12337.5000
 31
0.0000
  0
LINE
  5
44E
  8
SOL-KIROT
 10
12100.0000
 20
-11400.0000
 30
0.0000
 11
16100.0000
 21
-11400.0000
 31
0.0000
  0
LINE
  5
44F
  8
SOL-KIROT
 10
16100.0000
 20
-11400.0000
 30
0.0000
 11
16100.0000
 21
-8800.0000
 31
0.0000
  0
LINE
  5
450
  8
SOL-KIROT
 10
16100.0000
 20
-8800.0000
 30
0.0000
 11
12100.0000
 21
-8800.0000
 31
0.0000
  0
LINE
  5
451
  8
SOL-KIROT
 10
12100.0000
 20
-8800.0000
 30
0.0000
 11
12100.0000
 21
-11400.0000
 31
0.0000
  0
LINE
  5
452
  8
SOL-MIDOT-CHUTS
 10
12100.0000
 20
-11450.0000
 30
0.0000
 11
12100.0000
 21
-11850.0000
 31
0.0000
  0
LINE
  5
453
  8
SOL-MIDOT-CHUTS
 10
16100.0000
 20
-11450.0000
 30
0.0000
 11
16100.0000
 21
-11850.0000
 31
0.0000
  0
LINE
  5
454
  8
SOL-MIDOT-CHUTS
 10
12100.0000
 20
-11775.0000
 30
0.0000
 11
16100.0000
 21
-11775.0000
 31
0.0000
  0
SOLID
  5
455
  8
SOL-MIDOT-CHUTS
 10
12100.0000
 20
-11775.0000
 30
0.0000
 11
11956.2500
 21
-11815.0000
 31
0.0000
 12
11956.2500
 22
-11735.0000
 32
0.0000
 13
11956.2500
 23
-11735.0000
 33
0.0000
  0
SOLID
  5
456
  8
SOL-MIDOT-CHUTS
 10
16100.0000
 20
-11775.0000
 30
0.0000
 11
16243.7500
 21
-11815.0000
 31
0.0000
 12
16243.7500
 22
-11735.0000
 32
0.0000
 13
16243.7500
 23
-11735.0000
 33
0.0000
  0
TEXT
  5
457
  8
SOL-MIDOT-CHUTS
 10
14100.0000
 20
-11893.7500
 30
0.0000
 40
125.0000
  1
400
 50
0.0000
  7
SOLINE
 72
1
 73
2
 11
14100.0000
 21
-11893.7500
 31
0.0000
  0
LINE
  5
458
  8
SOL-MIDOT-CHUTS
 10
12050.0000
 20
-11400.0000
 30
0.0000
 11
11650.0000
 21
-11400.0000
 31
0.0000
  0
LINE
  5
459
  8
SOL-MIDOT-CHUTS
 10
12050.0000
 20
-8800.0000
 30
0.0000
 11
11650.0000
 21
-8800.0000
 31
0.0000
  0
LINE
  5
45A
  8
SOL-MIDOT-CHUTS
 10
11725.0000
 20
-11400.0000
 30
0.0000
 11
11725.0000
 21
-8800.0000
 31
0.0000
  0
SOLID
  5
45B
  8
SOL-MIDOT-CHUTS
 10
11725.0000
 20
-11400.0000
 30
0.0000
 11
11685.0000
 21
-11543.7500
 31
0.0000
 12
11765.0000
 22
-11543.7500
 32
0.0000
 13
11765.0000
 23
-11543.7500
 33
0.0000
  0
SOLID
  5
45C
  8
SOL-MIDOT-CHUTS
 10
11725.0000
 20
-8800.0000
 30
0.0000
 11
11685.0000
 21
-8656.2500
 31
0.0000
 12
11765.0000
 22
-8656.2500
 32
0.0000
 13
11765.0000
 23
-8656.2500
 33
0.0000
  0
TEXT
  5
45D
  8
SOL-MIDOT-CHUTS
 10
11606.2500
 20
-10100.0000
 30
0.0000
 40
125.0000
  1
260
 50
90.0000
  7
SOLINE
 72
1
 73
2
 11
11606.2500
 21
-10100.0000
 31
0.0000
  0
LINE
  5
45E
  8
SOL-PTACHIM
 10
13200.0000
 20
-10500.0000
 30
0.0000
 11
15000.0000
 21
-10500.0000
 31
0.0000
  0
LINE
  5
45F
  8
SOL-PTACHIM
 10
15000.0000
 20
-10500.0000
 30
0.0000
 11
15000.0000
 21
-9100.0000
 31
0.0000
  0
LINE
  5
460
  8
SOL-PTACHIM
 10
15000.0000
 20
-9100.0000
 30
0.0000
 11
13200.0000
 21
-9100.0000
 31
0.0000
  0
LINE
  5
461
  8
SOL-PTACHIM
 10
13200.0000
 20
-9100.0000
 30
0.0000
 11
13200.0000
 21
-10500.0000
 31
0.0000
  0
LINE
  5
462
  8
SOL-PTACHIM
 10
13200.0000
 20
-9604.0000
 30
0.0000
 11
15000.0000
 21
-9604.0000
 31
0.0000
  0
LINE
  5
463
  8
SOL-PTACHIM
 10
15000.0000
 20
-9604.0000
 30
0.0000
 11
15000.0000
 21
-9996.0000
 31
0.0000
  0
LINE
  5
464
  8
SOL-PTACHIM
 10
15000.0000
 20
-9996.0000
 30
0.0000
 11
13200.0000
 21
-9996.0000
 31
0.0000
  0
LINE
  5
465
  8
SOL-PTACHIM
 10
13200.0000
 20
-9996.0000
 30
0.0000
 11
13200.0000
 21
-9604.0000
 31
0.0000
  0
LINE
  5
466
  8
SOL-PTACHIM
 10
13200.0000
 20
-9800.0000
 30
0.0000
 11
15000.0000
 21
-9800.0000
 31
0.0000
  0
LINE
  5
467
  8
SOL-DIM-PTACHIM-9
 10
12100.0000
 20
-11440.0000
 30
0.0000
 11
12100.0000
 21
-12272.5000
 31
0.0000
  0
LINE
  5
468
  8
SOL-DIM-PTACHIM-9
 10
13200.0000
 20
-11440.0000
 30
0.0000
 11
13200.0000
 21
-12272.5000
 31
0.0000
  0
LINE
  5
469
  8
SOL-DIM-PTACHIM-9
 10
12100.0000
 20
-12212.5000
 30
0.0000
 11
13200.0000
 21
-12212.5000
 31
0.0000
  0
SOLID
  5
46A
  8
SOL-DIM-PTACHIM-9
 10
12100.0000
 20
-12212.5000
 30
0.0000
 11
11985.0000
 21
-12244.5000
 31
0.0000
 12
11985.0000
 22
-12180.5000
 32
0.0000
 13
11985.0000
 23
-12180.5000
 33
0.0000
  0
SOLID
  5
46B
  8
SOL-DIM-PTACHIM-9
 10
13200.0000
 20
-12212.5000
 30
0.0000
 11
13315.0000
 21
-12244.5000
 31
0.0000
 12
13315.0000
 22
-12180.5000
 32
0.0000
 13
13315.0000
 23
-12180.5000
 33
0.0000
  0
TEXT
  5
46C
  8
SOL-DIM-PTACHIM-9
 10
12650.0000
 20
-12307.5000
 30
0.0000
 40
100.0000
  1
110
 50
0.0000
  7
SOLINE
 72
1
 73
2
 11
12650.0000
 21
-12307.5000
 31
0.0000
  0
LINE
  5
46D
  8
SOL-DIM-PTACHIM-9
 10
13200.0000
 20
-9060.0000
 30
0.0000
 11
13200.0000
 21
-8816.5000
 31
0.0000
  0
LINE
  5
46E
  8
SOL-DIM-PTACHIM-9
 10
15000.0000
 20
-9060.0000
 30
0.0000
 11
15000.0000
 21
-8816.5000
 31
0.0000
  0
LINE
  5
46F
  8
SOL-DIM-PTACHIM-9
 10
13200.0000
 20
-8875.0000
 30
0.0000
 11
15000.0000
 21
-8875.0000
 31
0.0000
  0
SOLID
  5
470
  8
SOL-DIM-PTACHIM-9
 10
13200.0000
 20
-8875.0000
 30
0.0000
 11
13087.8750
 21
-8843.8000
 31
0.0000
 12
13087.8750
 22
-8906.2000
 32
0.0000
 13
13087.8750
 23
-8906.2000
 33
0.0000
  0
SOLID
  5
471
  8
SOL-DIM-PTACHIM-9
 10
15000.0000
 20
-8875.0000
 30
0.0000
 11
15112.1250
 21
-8843.8000
 31
0.0000
 12
15112.1250
 22
-8906.2000
 32
0.0000
 13
15112.1250
 23
-8906.2000
 33
0.0000
  0
TEXT
  5
472
  8
SOL-DIM-PTACHIM-9
 10
14100.0000
 20
-8782.3750
 30
0.0000
 40
97.5000
  1
180
 50
0.0000
  7
SOLINE
 72
1
 73
2
 11
14100.0000
 21
-8782.3750
 31
0.0000
  0
LINE
  5
473
  8
SOL-DIM-PTACHIM-9
 10
13160.0000
 20
-11400.0000
 30
0.0000
 11
12954.0000
 21
-11400.0000
 31
0.0000
  0
LINE
  5
474
  8
SOL-DIM-PTACHIM-9
 10
13160.0000
 20
-10500.0000
 30
0.0000
 11
12954.0000
 21
-10500.0000
 31
0.0000
  0
LINE
  5
475
  8
SOL-DIM-PTACHIM-9
 10
13012.5000
 20
-11400.0000
 30
0.0000
 11
13012.5000
 21
-10500.0000
 31
0.0000
  0
SOLID
  5
476
  8
SOL-DIM-PTACHIM-9
 10
13012.5000
 20
-11400.0000
 30
0.0000
 11
12981.3000
 21
-11512.1250
 31
0.0000
 12
13043.7000
 22
-11512.1250
 32
0.0000
 13
13043.7000
 23
-11512.1250
 33
0.0000
  0
SOLID
  5
477
  8
SOL-DIM-PTACHIM-9
 10
13012.5000
 20
-10500.0000
 30
0.0000
 11
12981.3000
 21
-10387.8750
 31
0.0000
 12
13043.7000
 22
-10387.8750
 32
0.0000
 13
13043.7000
 23
-10387.8750
 33
0.0000
  0
TEXT
  5
478
  8
SOL-DIM-PTACHIM-9
 10
12919.8750
 20
-10950.0000
 30
0.0000
 40
97.5000
  1
90
 50
90.0000
  7
SOLINE
 72
1
 73
2
 11
12919.8750
 21
-10950.0000
 31
0.0000
  0
LINE
  5
479
  8
SOL-DIM-PTACHIM-9
 10
13160.0000
 20
-10500.0000
 30
0.0000
 11
12616.5000
 21
-10500.0000
 31
0.0000
  0
LINE
  5
47A
  8
SOL-DIM-PTACHIM-9
 10
13160.0000
 20
-9100.0000
 30
0.0000
 11
12616.5000
 21
-9100.0000
 31
0.0000
  0
LINE
  5
47B
  8
SOL-DIM-PTACHIM-9
 10
12675.0000
 20
-10500.0000
 30
0.0000
 11
12675.0000
 21
-9100.0000
 31
0.0000
  0
SOLID
  5
47C
  8
SOL-DIM-PTACHIM-9
 10
12675.0000
 20
-10500.0000
 30
0.0000
 11
12643.8000
 21
-10612.1250
 31
0.0000
 12
12706.2000
 22
-10612.1250
 32
0.0000
 13
12706.2000
 23
-10612.1250
 33
0.0000
  0
SOLID
  5
47D
  8
SOL-DIM-PTACHIM-9
 10
12675.0000
 20
-9100.0000
 30
0.0000
 11
12643.8000
 21
-8987.8750
 31
0.0000
 12
12706.2000
 22
-8987.8750
 32
0.0000
 13
12706.2000
 23
-8987.8750
 33
0.0000
  0
TEXT
  5
47E
  8
SOL-DIM-PTACHIM-9
 10
12582.3750
 20
-9800.0000
 30
0.0000
 40
97.5000
  1
140
 50
90.0000
  7
SOLINE
 72
1
 73
2
 11
12582.3750
 21
-9800.0000
 31
0.0000
  0
LINE
  5
47F
  8
SOL-DIM-PTACHIM-9
 10
15040.0000
 20
-11400.0000
 30
0.0000
 11
15246.0000
 21
-11400.0000
 31
0.0000
  0
LINE
  5
480
  8
SOL-DIM-PTACHIM-9
 10
15040.0000
 20
-9100.0000
 30
0.0000
 11
15246.0000
 21
-9100.0000
 31
0.0000
  0
LINE
  5
481
  8
SOL-DIM-PTACHIM-9
 10
15187.5000
 20
-11400.0000
 30
0.0000
 11
15187.5000
 21
-9100.0000
 31
0.0000
  0
SOLID
  5
482
  8
SOL-DIM-PTACHIM-9
 10
15187.5000
 20
-11400.0000
 30
0.0000
 11
15218.7000
 21
-11512.1250
 31
0.0000
 12
15156.3000
 22
-11512.1250
 32
0.0000
 13
15156.3000
 23
-11512.1250
 33
0.0000
  0
SOLID
  5
483
  8
SOL-DIM-PTACHIM-9
 10
15187.5000
 20
-9100.0000
 30
0.0000
 11
15218.7000
 21
-8987.8750
 31
0.0000
 12
15156.3000
 22
-8987.8750
 32
0.0000
 13
15156.3000
 23
-8987.8750
 33
0.0000
  0
TEXT
  5
484
  8
SOL-DIM-PTACHIM-9
 10
15280.1250
 20
-10250.0000
 30
0.0000
 40
97.5000
  1
230
 50
90.0000
  7
SOLINE
 72
1
 73
2
 11
15280.1250
 21
-10250.0000
 31
0.0000
  0
LINE
  5
485
  8
SOL-DIM-PTACHIM-9
 10
15040.0000
 20
-9100.0000
 30
0.0000
 11
15583.5000
 21
-9100.0000
 31
0.0000
  0
LINE
  5
486
  8
SOL-DIM-PTACHIM-9
 10
15040.0000
 20
-8800.0000
 30
0.0000
 11
15583.5000
 21
-8800.0000
 31
0.0000
  0
LINE
  5
487
  8
SOL-DIM-PTACHIM-9
 10
15525.0000
 20
-9100.0000
 30
0.0000
 11
15525.0000
 21
-8800.0000
 31
0.0000
  0
SOLID
  5
488
  8
SOL-DIM-PTACHIM-9
 10
15525.0000
 20
-9100.0000
 30
0.0000
 11
15556.2000
 21
-9212.1250
 31
0.0000
 12
15493.8000
 22
-9212.1250
 32
0.0000
 13
15493.8000
 23
-9212.1250
 33
0.0000
  0
SOLID
  5
489
  8
SOL-DIM-PTACHIM-9
 10
15525.0000
 20
-8800.0000
 30
0.0000
 11
15556.2000
 21
-8687.8750
 31
0.0000
 12
15493.8000
 22
-8687.8750
 32
0.0000
 13
15493.8000
 23
-8687.8750
 33
0.0000
  0
TEXT
  5
48A
  8
SOL-DIM-PTACHIM-9
 10
15617.6250
 20
-8950.0000
 30
0.0000
 40
97.5000
  1
30
 50
90.0000
  7
SOLINE
 72
1
 73
2
 11
15617.6250
 21
-8950.0000
 31
0.0000
  0
TEXT
  5
48B
  8
SOL-MISGERET
 10
14100.0000
 20
-12337.5000
 30
0.0000
 40
162.5000
  1
W3
 50
0.0000
  7
SOLINE
 72
1
 73
2
 11
14100.0000
 21
-12337.5000
 31
0.0000
  0
LINE
  5
48C
  8
SOL-KIROT
 10
18600.0000
 20
-11400.0000
 30
0.0000
 11
22600.0000
 21
-11400.0000
 31
0.0000
  0
LINE
  5
48D
  8
SOL-KIROT
 10
22600.0000
 20
-11400.0000
 30
0.0000
 11
22600.0000
 21
-8800.0000
 31
0.0000
  0
LINE
  5
48E
  8
SOL-KIROT
 10
22600.0000
 20
-8800.0000
 30
0.0000
 11
18600.0000
 21
-8800.0000
 31
0.0000
  0
LINE
  5
48F
  8
SOL-KIROT
 10
18600.0000
 20
-8800.0000
 30
0.0000
 11
18600.0000
 21
-11400.0000
 31
0.0000
  0
LINE
  5
490
  8
SOL-MIDOT-CHUTS
 10
18600.0000
 20
-11450.0000
 30
0.0000
 11
18600.0000
 21
-11850.0000
 31
0.0000
  0
LINE
  5
491
  8
SOL-MIDOT-CHUTS
 10
22600.0000
 20
-11450.0000
 30
0.0000
 11
22600.0000
 21
-11850.0000
 31
0.0000
  0
LINE
  5
492
  8
SOL-MIDOT-CHUTS
 10
18600.0000
 20
-11775.0000
 30
0.0000
 11
22600.0000
 21
-11775.0000
 31
0.0000
  0
SOLID
  5
493
  8
SOL-MIDOT-CHUTS
 10
18600.0000
 20
-11775.0000
 30
0.0000
 11
18456.2500
 21
-11815.0000
 31
0.0000
 12
18456.2500
 22
-11735.0000
 32
0.0000
 13
18456.2500
 23
-11735.0000
 33
0.0000
  0
SOLID
  5
494
  8
SOL-MIDOT-CHUTS
 10
22600.0000
 20
-11775.0000
 30
0.0000
 11
22743.7500
 21
-11815.0000
 31
0.0000
 12
22743.7500
 22
-11735.0000
 32
0.0000
 13
22743.7500
 23
-11735.0000
 33
0.0000
  0
TEXT
  5
495
  8
SOL-MIDOT-CHUTS
 10
20600.0000
 20
-11893.7500
 30
0.0000
 40
125.0000
  1
400
 50
0.0000
  7
SOLINE
 72
1
 73
2
 11
20600.0000
 21
-11893.7500
 31
0.0000
  0
LINE
  5
496
  8
SOL-MIDOT-CHUTS
 10
18550.0000
 20
-11400.0000
 30
0.0000
 11
18150.0000
 21
-11400.0000
 31
0.0000
  0
LINE
  5
497
  8
SOL-MIDOT-CHUTS
 10
18550.0000
 20
-8800.0000
 30
0.0000
 11
18150.0000
 21
-8800.0000
 31
0.0000
  0
LINE
  5
498
  8
SOL-MIDOT-CHUTS
 10
18225.0000
 20
-11400.0000
 30
0.0000
 11
18225.0000
 21
-8800.0000
 31
0.0000
  0
SOLID
  5
499
  8
SOL-MIDOT-CHUTS
 10
18225.0000
 20
-11400.0000
 30
0.0000
 11
18185.0000
 21
-11543.7500
 31
0.0000
 12
18265.0000
 22
-11543.7500
 32
0.0000
 13
18265.0000
 23
-11543.7500
 33
0.0000
  0
SOLID
  5
49A
  8
SOL-MIDOT-CHUTS
 10
18225.0000
 20
-8800.0000
 30
0.0000
 11
18185.0000
 21
-8656.2500
 31
0.0000
 12
18265.0000
 22
-8656.2500
 32
0.0000
 13
18265.0000
 23
-8656.2500
 33
0.0000
  0
TEXT
  5
49B
  8
SOL-MIDOT-CHUTS
 10
18106.2500
 20
-10100.0000
 30
0.0000
 40
125.0000
  1
260
 50
90.0000
  7
SOLINE
 72
1
 73
2
 11
18106.2500
 21
-10100.0000
 31
0.0000
  0
LINE
  5
49C
  8
SOL-CHASHMAL
 10
22050.0000
 20
-10090.0000
 30
0.0000
 11
22130.0000
 21
-10090.0000
 31
0.0000
  0
LINE
  5
49D
  8
SOL-CHASHMAL
 10
22130.0000
 20
-10090.0000
 30
0.0000
 11
22130.0000
 21
-10010.0000
 31
0.0000
  0
LINE
  5
49E
  8
SOL-CHASHMAL
 10
22130.0000
 20
-10010.0000
 30
0.0000
 11
22050.0000
 21
-10010.0000
 31
0.0000
  0
LINE
  5
49F
  8
SOL-CHASHMAL
 10
22050.0000
 20
-10010.0000
 30
0.0000
 11
22050.0000
 21
-10090.0000
 31
0.0000
  0
LINE
  5
4A0
  8
SOL-CHASHMAL
 10
22090.0000
 20
-10090.0000
 30
0.0000
 11
22090.0000
 21
-10034.0000
 31
0.0000
  0
ARC
  5
4A1
  8
SOL-CHASHMAL
 10
22090.0000
 20
-10050.0000
 30
0.0000
 40
14.4000
 50
0.0000
 51
360.0000
  0
ARC
  5
4A2
  8
SOL-CHASHMAL
 10
22090.0000
 20
-10050.0000
 30
0.0000
 40
4.0000
 50
0.0000
 51
360.0000
  0
LINE
  5
4A3
  8
SOL-DIM-CHASHMAL-10
 10
22600.0000
 20
-11360.0000
 30
0.0000
 11
22600.0000
 21
-10527.5000
 31
0.0000
  0
LINE
  5
4A4
  8
SOL-DIM-CHASHMAL-10
 10
22090.0000
 20
-11360.0000
 30
0.0000
 11
22090.0000
 21
-10527.5000
 31
0.0000
  0
LINE
  5
4A5
  8
SOL-DIM-CHASHMAL-10
 10
22600.0000
 20
-10587.5000
 30
0.0000
 11
22090.0000
 21
-10587.5000
 31
0.0000
  0
SOLID
  5
4A6
  8
SOL-DIM-CHASHMAL-10
 10
22600.0000
 20
-10587.5000
 30
0.0000
 11
22715.0000
 21
-10555.5000
 31
0.0000
 12
22715.0000
 22
-10619.5000
 32
0.0000
 13
22715.0000
 23
-10619.5000
 33
0.0000
  0
SOLID
  5
4A7
  8
SOL-DIM-CHASHMAL-10
 10
22090.0000
 20
-10587.5000
 30
0.0000
 11
21975.0000
 21
-10555.5000
 31
0.0000
 12
21975.0000
 22
-10619.5000
 32
0.0000
 13
21975.0000
 23
-10619.5000
 33
0.0000
  0
TEXT
  5
4A8
  8
SOL-DIM-CHASHMAL-10
 10
22345.0000
 20
-10492.5000
 30
0.0000
 40
100.0000
  1
51
 50
360.0000
  7
SOLINE
 72
1
 73
2
 11
22345.0000
 21
-10492.5000
 31
0.0000
  0
LINE
  5
4A9
  8
SOL-DIM-CHASHMAL-10
 10
22130.0000
 20
-11400.0000
 30
0.0000
 11
22377.5000
 21
-11400.0000
 31
0.0000
  0
LINE
  5
4AA
  8
SOL-DIM-CHASHMAL-10
 10
22130.0000
 20
-10050.0000
 30
0.0000
 11
22377.5000
 21
-10050.0000
 31
0.0000
  0
LINE
  5
4AB
  8
SOL-DIM-CHASHMAL-10
 10
22317.5000
 20
-11400.0000
 30
0.0000
 11
22317.5000
 21
-10050.0000
 31
0.0000
  0
SOLID
  5
4AC
  8
SOL-DIM-CHASHMAL-10
 10
22317.5000
 20
-11400.0000
 30
0.0000
 11
22349.5000
 21
-11515.0000
 31
0.0000
 12
22285.5000
 22
-11515.0000
 32
0.0000
 13
22285.5000
 23
-11515.0000
 33
0.0000
  0
SOLID
  5
4AD
  8
SOL-DIM-CHASHMAL-10
 10
22317.5000
 20
-10050.0000
 30
0.0000
 11
22349.5000
 21
-9935.0000
 31
0.0000
 12
22285.5000
 22
-9935.0000
 32
0.0000
 13
22285.5000
 23
-9935.0000
 33
0.0000
  0
TEXT
  5
4AE
  8
SOL-DIM-CHASHMAL-10
 10
22412.5000
 20
-10725.0000
 30
0.0000
 40
100.0000
  1
135
 50
90.0000
  7
SOLINE
 72
1
 73
2
 11
22412.5000
 21
-10725.0000
 31
0.0000
  0
LINE
  5
4AF
  8
SOL-PTACHIM
 10
21050.0000
 20
-10375.0000
 30
0.0000
 11
21950.0000
 21
-10375.0000
 31
0.0000
  0
LINE
  5
4B0
  8
SOL-PTACHIM
 10
21950.0000
 20
-10375.0000
 30
0.0000
 11
21950.0000
 21
-8325.0000
 31
0.0000
  0
LINE
  5
4B1
  8
SOL-PTACHIM
 10
21950.0000
 20
-8325.0000
 30
0.0000
 11
21050.0000
 21
-8325.0000
 31
0.0000
  0
LINE
  5
4B2
  8
SOL-PTACHIM
 10
21050.0000
 20
-8325.0000
 30
0.0000
 11
21050.0000
 21
-10375.0000
 31
0.0000
  0
LINE
  5
4B3
  8
SOL-PTACHIM
 10
21050.0000
 20
-10375.0000
 30
0.0000
 11
21086.0000
 21
-10375.0000
 31
0.0000
  0
LINE
  5
4B4
  8
SOL-PTACHIM
 10
21914.0000
 20
-10375.0000
 30
0.0000
 11
21950.0000
 21
-10375.0000
 31
0.0000
  0
LINE
  5
4B5
  8
SOL-PTACHIM
 10
21086.0000
 20
-10375.0000
 30
0.0000
 11
21086.0000
 21
-8489.0000
 31
0.0000
  0
LINE
  5
4B6
  8
SOL-PTACHIM
 10
21086.0000
 20
-8489.0000
 30
0.0000
 11
21132.4263
 21
-8491.9670
 31
0.0000
  0
LINE
  5
4B7
  8
SOL-PTACHIM
 10
21132.4263
 20
-8491.9670
 30
0.0000
 11
21178.7066
 21
-8500.8588
 31
0.0000
  0
LINE
  5
4B8
  8
SOL-PTACHIM
 10
21178.7066
 20
-8500.8588
 30
0.0000
 11
21224.6952
 21
-8515.6473
 31
0.0000
  0
LINE
  5
4B9
  8
SOL-PTACHIM
 10
21224.6952
 20
-8515.6473
 30
0.0000
 11
21270.2473
 21
-8536.2860
 31
0.0000
  0
LINE
  5
4BA
  8
SOL-PTACHIM
 10
21270.2473
 20
-8536.2860
 30
0.0000
 11
21315.2198
 21
-8562.7099
 31
0.0000
  0
LINE
  5
4BB
  8
SOL-PTACHIM
 10
21315.2198
 20
-8562.7099
 30
0.0000
 11
21359.4711
 21
-8594.8360
 31
0.0000
  0
LINE
  5
4BC
  8
SOL-PTACHIM
 10
21359.4711
 20
-8594.8360
 30
0.0000
 11
21402.8619
 21
-8632.5632
 31
0.0000
  0
LINE
  5
4BD
  8
SOL-PTACHIM
 10
21402.8619
 20
-8632.5632
 30
0.0000
 11
21445.2557
 21
-8675.7727
 31
0.0000
  0
LINE
  5
4BE
  8
SOL-PTACHIM
 10
21445.2557
 20
-8675.7727
 30
0.0000
 11
21486.5192
 21
-8724.3286
 31
0.0000
  0
LINE
  5
4BF
  8
SOL-PTACHIM
 10
21486.5192
 20
-8724.3286
 30
0.0000
 11
21526.5226
 21
-8778.0782
 31
0.0000
  0
LINE
  5
4C0
  8
SOL-PTACHIM
 10
21526.5226
 20
-8778.0782
 30
0.0000
 11
21565.1398
 21
-8836.8522
 31
0.0000
  0
LINE
  5
4C1
  8
SOL-PTACHIM
 10
21565.1398
 20
-8836.8522
 30
0.0000
 11
21602.2496
 21
-8900.4658
 31
0.0000
  0
LINE
  5
4C2
  8
SOL-PTACHIM
 10
21602.2496
 20
-8900.4658
 30
0.0000
 11
21637.7350
 21
-8968.7189
 31
0.0000
  0
LINE
  5
4C3
  8
SOL-PTACHIM
 10
21637.7350
 20
-8968.7189
 30
0.0000
 11
21671.4844
 21
-9041.3966
 31
0.0000
  0
LINE
  5
4C4
  8
SOL-PTACHIM
 10
21671.4844
 20
-9041.3966
 30
0.0000
 11
21703.3917
 21
-9118.2704
 31
0.0000
  0
LINE
  5
4C5
  8
SOL-PTACHIM
 10
21703.3917
 20
-9118.2704
 30
0.0000
 11
21733.3565
 21
-9199.0982
 31
0.0000
  0
LINE
  5
4C6
  8
SOL-PTACHIM
 10
21733.3565
 20
-9199.0982
 30
0.0000
 11
21761.2844
 21
-9283.6259
 31
0.0000
  0
LINE
  5
4C7
  8
SOL-PTACHIM
 10
21761.2844
 20
-9283.6259
 30
0.0000
 11
21787.0876
 21
-9371.5875
 31
0.0000
  0
LINE
  5
4C8
  8
SOL-PTACHIM
 10
21787.0876
 20
-9371.5875
 30
0.0000
 11
21810.6850
 21
-9462.7062
 31
0.0000
  0
LINE
  5
4C9
  8
SOL-PTACHIM
 10
21810.6850
 20
-9462.7062
 30
0.0000
 11
21832.0022
 21
-9556.6953
 31
0.0000
  0
LINE
  5
4CA
  8
SOL-PTACHIM
 10
21832.0022
 20
-9556.6953
 30
0.0000
 11
21850.9723
 21
-9653.2590
 31
0.0000
  0
LINE
  5
4CB
  8
SOL-PTACHIM
 10
21850.9723
 20
-9653.2590
 30
0.0000
 11
21867.5354
 21
-9752.0937
 31
0.0000
  0
LINE
  5
4CC
  8
SOL-PTACHIM
 10
21867.5354
 20
-9752.0937
 30
0.0000
 11
21881.6395
 21
-9852.8882
 31
0.0000
  0
LINE
  5
4CD
  8
SOL-PTACHIM
 10
21881.6395
 20
-9852.8882
 30
0.0000
 11
21893.2403
 21
-9955.3255
 31
0.0000
  0
LINE
  5
4CE
  8
SOL-PTACHIM
 10
21893.2403
 20
-9955.3255
 30
0.0000
 11
21902.3012
 21
-10059.0833
 31
0.0000
  0
LINE
  5
4CF
  8
SOL-PTACHIM
 10
21902.3012
 20
-10059.0833
 30
0.0000
 11
21908.7937
 21
-10163.8350
 31
0.0000
  0
LINE
  5
4D0
  8
SOL-PTACHIM
 10
21908.7937
 20
-10163.8350
 30
0.0000
 11
21912.6974
 21
-10269.2511
 31
0.0000
  0
LINE
  5
4D1
  8
SOL-PTACHIM
 10
21912.6974
 20
-10269.2511
 30
0.0000
 11
21914.0000
 21
-10375.0000
 31
0.0000
  0
LINE
  5
4D2
  8
SOL-DIM-PTACHIM-11
 10
22600.0000
 20
-11360.0000
 30
0.0000
 11
22600.0000
 21
-10177.5000
 31
0.0000
  0
LINE
  5
4D3
  8
SOL-DIM-PTACHIM-11
 10
21950.0000
 20
-11360.0000
 30
0.0000
 11
21950.0000
 21
-10177.5000
 31
0.0000
  0
LINE
  5
4D4
  8
SOL-DIM-PTACHIM-11
 10
22600.0000
 20
-10237.5000
 30
0.0000
 11
21950.0000
 21
-10237.5000
 31
0.0000
  0
SOLID
  5
4D5
  8
SOL-DIM-PTACHIM-11
 10
22600.0000
 20
-10237.5000
 30
0.0000
 11
22715.0000
 21
-10205.5000
 31
0.0000
 12
22715.0000
 22
-10269.5000
 32
0.0000
 13
22715.0000
 23
-10269.5000
 33
0.0000
  0
SOLID
  5
4D6
  8
SOL-DIM-PTACHIM-11
 10
21950.0000
 20
-10237.5000
 30
0.0000
 11
21835.0000
 21
-10205.5000
 31
0.0000
 12
21835.0000
 22
-10269.5000
 32
0.0000
 13
21835.0000
 23
-10269.5000
 33
0.0000
  0
TEXT
  5
4D7
  8
SOL-DIM-PTACHIM-11
 10
22275.0000
 20
-10142.5000
 30
0.0000
 40
100.0000
  1
65
 50
360.0000
  7
SOLINE
 72
1
 73
2
 11
22275.0000
 21
-10142.5000
 31
0.0000
  0
LINE
  5
4D8
  8
SOL-DIM-PTACHIM-11
 10
21050.0000
 20
-8285.0000
 30
0.0000
 11
21050.0000
 21
-8041.5000
 31
0.0000
  0
LINE
  5
4D9
  8
SOL-DIM-PTACHIM-11
 10
21950.0000
 20
-8285.0000
 30
0.0000
 11
21950.0000
 21
-8041.5000
 31
0.0000
  0
LINE
  5
4DA
  8
SOL-DIM-PTACHIM-11
 10
21050.0000
 20
-8100.0000
 30
0.0000
 11
21950.0000
 21
-8100.0000
 31
0.0000
  0
SOLID
  5
4DB
  8
SOL-DIM-PTACHIM-11
 10
21050.0000
 20
-8100.0000
 30
0.0000
 11
20937.8750
 21
-8068.8000
 31
0.0000
 12
20937.8750
 22
-8131.2000
 32
0.0000
 13
20937.8750
 23
-8131.2000
 33
0.0000
  0
SOLID
  5
4DC
  8
SOL-DIM-PTACHIM-11
 10
21950.0000
 20
-8100.0000
 30
0.0000
 11
22062.1250
 21
-8068.8000
 31
0.0000
 12
22062.1250
 22
-8131.2000
 32
0.0000
 13
22062.1250
 23
-8131.2000
 33
0.0000
  0
TEXT
  5
4DD
  8
SOL-DIM-PTACHIM-11
 10
21500.0000
 20
-8007.3750
 30
0.0000
 40
97.5000
  1
90
 50
0.0000
  7
SOLINE
 72
1
 73
2
 11
21500.0000
 21
-8007.3750
 31
0.0000
  0
LINE
  5
4DE
  8
SOL-DIM-PTACHIM-11
 10
21010.0000
 20
-11400.0000
 30
0.0000
 11
20804.0000
 21
-11400.0000
 31
0.0000
  0
LINE
  5
4DF
  8
SOL-DIM-PTACHIM-11
 10
21010.0000
 20
-10375.0000
 30
0.0000
 11
20804.0000
 21
-10375.0000
 31
0.0000
  0
LINE
  5
4E0
  8
SOL-DIM-PTACHIM-11
 10
20862.5000
 20
-11400.0000
 30
0.0000
 11
20862.5000
 21
-10375.0000
 31
0.0000
  0
SOLID
  5
4E1
  8
SOL-DIM-PTACHIM-11
 10
20862.5000
 20
-11400.0000
 30
0.0000
 11
20831.3000
 21
-11512.1250
 31
0.0000
 12
20893.7000
 22
-11512.1250
 32
0.0000
 13
20893.7000
 23
-11512.1250
 33
0.0000
  0
SOLID
  5
4E2
  8
SOL-DIM-PTACHIM-11
 10
20862.5000
 20
-10375.0000
 30
0.0000
 11
20831.3000
 21
-10262.8750
 31
0.0000
 12
20893.7000
 22
-10262.8750
 32
0.0000
 13
20893.7000
 23
-10262.8750
 33
0.0000
  0
TEXT
  5
4E3
  8
SOL-DIM-PTACHIM-11
 10
20769.8750
 20
-10887.5000
 30
0.0000
 40
97.5000
  1
102.5
 50
90.0000
  7
SOLINE
 72
1
 73
2
 11
20769.8750
 21
-10887.5000
 31
0.0000
  0
LINE
  5
4E4
  8
SOL-DIM-PTACHIM-11
 10
21010.0000
 20
-10375.0000
 30
0.0000
 11
20466.5000
 21
-10375.0000
 31
0.0000
  0
LINE
  5
4E5
  8
SOL-DIM-PTACHIM-11
 10
21010.0000
 20
-8325.0000
 30
0.0000
 11
20466.5000
 21
-8325.0000
 31
0.0000
  0
LINE
  5
4E6
  8
SOL-DIM-PTACHIM-11
 10
20525.0000
 20
-10375.0000
 30
0.0000
 11
20525.0000
 21
-8325.0000
 31
0.0000
  0
SOLID
  5
4E7
  8
SOL-DIM-PTACHIM-11
 10
20525.0000
 20
-10375.0000
 30
0.0000
 11
20493.8000
 21
-10487.1250
 31
0.0000
 12
20556.2000
 22
-10487.1250
 32
0.0000
 13
20556.2000
 23
-10487.1250
 33
0.0000
  0
SOLID
  5
4E8
  8
SOL-DIM-PTACHIM-11
 10
20525.0000
 20
-8325.0000
 30
0.0000
 11
20493.8000
 21
-8212.8750
 31
0.0000
 12
20556.2000
 22
-8212.8750
 32
0.0000
 13
20556.2000
 23
-8212.8750
 33
0.0000
  0
TEXT
  5
4E9
  8
SOL-DIM-PTACHIM-11
 10
20432.3750
 20
-9350.0000
 30
0.0000
 40
97.5000
  1
205
 50
90.0000
  7
SOLINE
 72
1
 73
2
 11
20432.3750
 21
-9350.0000
 31
0.0000
  0
TEXT
  5
4EA
  8
SOL-MISGERET
 10
20600.0000
 20
-12337.5000
 30
0.0000
 40
162.5000
  1
W4
 50
0.0000
  7
SOLINE
 72
1
 73
2
 11
20600.0000
 21
-12337.5000
 31
0.0000
  0
LINE
  5
4EB
  8
SOL-MISGERET
370
50
 10
-2500.0000
 20
-13453.1250
 30
0.0000
 11
23000.0000
 21
-13453.1250
 31
0.0000
  0
LINE
  5
4EC
  8
SOL-MISGERET
370
50
 10
23000.0000
 20
-13453.1250
 30
0.0000
 11
23000.0000
 21
1000.0000
 31
0.0000
  0
LINE
  5
4ED
  8
SOL-MISGERET
370
50
 10
23000.0000
 20
1000.0000
 30
0.0000
 11
-2500.0000
 21
1000.0000
 31
0.0000
  0
LINE
  5
4EE
  8
SOL-MISGERET
370
50
 10
-2500.0000
 20
1000.0000
 30
0.0000
 11
-2500.0000
 21
-13453.1250
 31
0.0000
  0
POINT
  8
SOL-REG
 10
0.0000
 20
0.0000
 30
165.0000
  0
POINT
  8
SOL-REG
 10
0.0000
 20
0.0000
 30
90.0000
  0
POINT
  8
SOL-REG
 10
0.0000
 20
0.0000
 30
53.0000
  0
POINT
  8
SOL-REG
 10
0.0000
 20
0.0000
 30
0.0000
  0
POINT
  8
SOL-REG
 10
0.0000
 20
0.0000
 30
83.0000
  0
POINT
  8
SOL-REG
 10
0.0000
 20
0.0000
 30
76.0000
  0
POINT
  8
SOL-REG
 10
0.0000
 20
0.0000
 30
1.0000
  0
POINT
  8
SOL-REG
 10
0.0000
 20
0.0000
 30
13.0000
  0
POINT
  8
SOL-REG
 10
0.0000
 20
0.0000
 30
10.0000
  0
POINT
  8
SOL-REG
 10
0.0000
 20
0.0000
 30
8.0000
  0
POINT
  8
SOL-REG
 10
0.0000
 20
0.0000
 30
80.0000
  0
POINT
  8
SOL-REG
 10
0.0000
 20
0.0000
 30
82.0000
  0
POINT
  8
SOL-REG
 10
0.0000
 20
0.0000
 30
74.0000
  0
POINT
  8
SOL-REG
 10
0.0000
 20
0.0000
 30
45.0000
  0
POINT
  8
SOL-REG
 10
0.0000
 20
0.0000
 30
50.0000
  0
POINT
  8
SOL-REG
 10
0.0000
 20
0.0000
 30
48.0000
  0
POINT
  8
SOL-REG
 10
0.0000
 20
0.0000
 30
50.0000
  0
POINT
  8
SOL-REG
 10
0.0000
 20
0.0000
 30
54.0000
  0
POINT
  8
SOL-REG
 10
0.0000
 20
0.0000
 30
45.0000
  0
POINT
  8
SOL-REG
 10
0.0000
 20
0.0000
 30
48.0000
  0
POINT
  8
SOL-REG
 10
0.0000
 20
0.0000
 30
52.0000
  0
POINT
  8
SOL-REG
 10
0.0000
 20
0.0000
 30
49.0000
  0
POINT
  8
SOL-REG
 10
0.0000
 20
0.0000
 30
50.0000
  0
POINT
  8
SOL-REG
 10
0.0000
 20
0.0000
 30
67.0000
  0
POINT
  8
SOL-REG
 10
0.0000
 20
0.0000
 30
85.0000
  0
POINT
  8
SOL-REG
 10
0.0000
 20
0.0000
 30
83.0000
  0
POINT
  8
SOL-REG
 10
0.0000
 20
0.0000
 30
84.0000
  0
POINT
  8
SOL-REG
 10
0.0000
 20
0.0000
 30
45.0000
  0
POINT
  8
SOL-REG
 10
0.0000
 20
0.0000
 30
48.0000
  0
POINT
  8
SOL-REG
 10
0.0000
 20
0.0000
 30
48.0000
  0
POINT
  8
SOL-REG
 10
0.0000
 20
0.0000
 30
56.0000
  0
POINT
  8
SOL-REG
 10
0.0000
 20
0.0000
 30
49.0000
  0
POINT
  8
SOL-REG
 10
0.0000
 20
0.0000
 30
55.0000
  0
POINT
  8
SOL-REG
 10
0.0000
 20
0.0000
 30
162.0000
  0
POINT
  8
SOL-REG
 10
0.0000
 20
0.0000
 30
97.0000
  0
POINT
  8
SOL-REG
 10
0.0000
 20
0.0000
 30
84.0000
  0
POINT
  8
SOL-REG
 10
0.0000
 20
0.0000
 30
110.0000
  0
POINT
  8
SOL-REG
 10
0.0000
 20
0.0000
 30
13.0000
  0
POINT
  8
SOL-REG
 10
0.0000
 20
0.0000
 30
245.0000
  0
POINT
  8
SOL-REG
 10
0.0000
 20
0.0000
 30
114.0000
  0
POINT
  8
SOL-REG
 10
0.0000
 20
0.0000
 30
107.0000
  0
POINT
  8
SOL-REG
 10
0.0000
 20
0.0000
 30
209.0000
  0
POINT
  8
SOL-REG
 10
0.0000
 20
0.0000
 30
236.0000
  0
POINT
  8
SOL-REG
 10
0.0000
 20
0.0000
 30
51.0000
  0
POINT
  8
SOL-REG
 10
0.0000
 20
0.0000
 30
229.0000
  0
POINT
  8
SOL-REG
 10
0.0000
 20
0.0000
 30
87.0000
  0
POINT
  8
SOL-REG
 10
0.0000
 20
0.0000
 30
108.0000
  0
POINT
  8
SOL-REG
 10
0.0000
 20
0.0000
 30
135.0000
  0
POINT
  8
SOL-REG
 10
0.0000
 20
0.0000
 30
7.0000
  0
POINT
  8
SOL-REG
 10
0.0000
 20
0.0000
 30
233.0000
  0
POINT
  8
SOL-REG
 10
0.0000
 20
0.0000
 30
54.0000
  0
POINT
  8
SOL-REG
 10
0.0000
 20
0.0000
 30
128.0000
  0
POINT
  8
SOL-REG
 10
0.0000
 20
0.0000
 30
229.0000
  0
POINT
  8
SOL-REG
 10
0.0000
 20
0.0000
 30
245.0000
  0
POINT
  8
SOL-REG
 10
0.0000
 20
0.0000
 30
4.0000
  0
POINT
  8
SOL-REG
 10
0.0000
 20
0.0000
 30
218.0000
  0
POINT
  8
SOL-REG
 10
0.0000
 20
0.0000
 30
140.0000
  0
ENDSEC
  0
SECTION
  2
OBJECTS
  0
DICTIONARY
  5
625
330
0
100
AcDbDictionary
281
1
  3
ACAD_GROUP
350
626
  0
DICTIONARY
  5
626
330
625
100
AcDbDictionary
281
1
  0
ENDSEC
  0
EOF
