  0
SECTION
  2
HEADER
  9
$ACADVER
  1
AC1009
  9
$INSBASE
 10
0.0000
 20
0.0000
 30
0.0000
  9
$EXTMIN
 10
2373.5000
 20
-17945.5000
 30
0.0000
  9
$EXTMAX
 10
9852.0000
 20
-9462.0000
 30
0.0000
  9
$DWGCODEPAGE
  3
ansi_1255
  9
$CLAYER
  8
0
  9
$LTSCALE
 40
10.0000
  9
$LIMMIN
 10
0.0000
 20
0.0000
  9
$LIMMAX
 10
2000.0000
 20
200.0000
  0
ENDSEC
  0
SECTION
  2
TABLES
  0
TABLE
  2
VPORT
 70
1
  0
VPORT
  2
*ACTIVE
 70
0
 10
0.0000
 20
0.0000
 11
1.0000
 21
1.0000
 12
6112.7500
 22
-13703.7500
 13
0.0000
 23
0.0000
 14
10.0000
 24
10.0000
 15
10.0000
 25
10.0000
 16
0.0000
 26
0.0000
 36
1.0000
 17
0.0000
 27
0.0000
 37
0.0000
 40
9756.0250
 41
1.6000
 42
50.0000
 43
0.0000
 44
0.0000
 50
0.0000
 51
0.0000
 71
0
 72
100
 73
1
 74
1
 75
0
 76
0
 77
0
 78
0
  0
ENDTAB
  0
TABLE
  2
LTYPE
 70
3
  0
LTYPE
  2
CONTINUOUS
 70
0
  3
Solid line
 72
65
 73
0
 40
0.0000
  0
LTYPE
  2
HIDDEN
 70
0
  3
Hidden __ __ __ __ __ __
 72
65
 73
2
 40
9.5250
 49
6.3500
 49
-3.1750
  0
LTYPE
  2
CENTER
 70
0
  3
Center ____ _ ____ _ ____
 72
65
 73
4
 40
50.8000
 49
31.7500
 49
-6.3500
 49
6.3500
 49
-6.3500
  0
ENDTAB
  0
TABLE
  2
LAYER
 70
71
  0
LAYER
  2
0
 70
0
 62
7
  6
CONTINUOUS
  0
LAYER
  2
קירות
 70
0
 62
7
  6
CONTINUOUS
  0
LAYER
  2
קירות - מילוי
 70
0
 62
8
  6
CONTINUOUS
  0
LAYER
  2
קירות - מידות
 70
0
 62
7
  6
CONTINUOUS
  0
LAYER
  2
קירות - טקסט
 70
0
 62
7
  6
CONTINUOUS
  0
LAYER
  2
קירות - נסתר
 70
0
 62
7
  6
HIDDEN
  0
LAYER
  2
קירות - ציר
 70
0
 62
7
  6
CENTER
  0
LAYER
  2
מבנה
 70
0
 62
9
  6
CONTINUOUS
  0
LAYER
  2
מבנה - מילוי
 70
0
 62
9
  6
CONTINUOUS
  0
LAYER
  2
מבנה - מידות
 70
0
 62
9
  6
CONTINUOUS
  0
LAYER
  2
מבנה - טקסט
 70
0
 62
9
  6
CONTINUOUS
  0
LAYER
  2
מבנה - נסתר
 70
0
 62
9
  6
HIDDEN
  0
LAYER
  2
מבנה - ציר
 70
0
 62
9
  6
CENTER
  0
LAYER
  2
חשמל
 70
0
 62
6
  6
CONTINUOUS
  0
LAYER
  2
חשמל - מידות
 70
0
 62
6
  6
CONTINUOUS
  0
LAYER
  2
חשמל - טקסט
 70
0
 62
6
  6
CONTINUOUS
  0
LAYER
  2
חשמל - נסתר
 70
0
 62
6
  6
HIDDEN
  0
LAYER
  2
תאורה
 70
0
 62
30
  6
CONTINUOUS
  0
LAYER
  2
תאורה - מידות
 70
0
 62
30
  6
CONTINUOUS
  0
LAYER
  2
תאורה - טקסט
 70
0
 62
30
  6
CONTINUOUS
  0
LAYER
  2
תאורה - נסתר
 70
0
 62
30
  6
HIDDEN
  0
LAYER
  2
מים
 70
0
 62
4
  6
CONTINUOUS
  0
LAYER
  2
מים - מידות
 70
0
 62
4
  6
CONTINUOUS
  0
LAYER
  2
מים - טקסט
 70
0
 62
4
  6
CONTINUOUS
  0
LAYER
  2
מים - נסתר
 70
0
 62
4
  6
HIDDEN
  0
LAYER
  2
מים - ציר
 70
0
 62
4
  6
CENTER
  0
LAYER
  2
ניקוז
 70
0
 62
140
  6
CONTINUOUS
  0
LAYER
  2
ניקוז - מידות
 70
0
 62
140
  6
CONTINUOUS
  0
LAYER
  2
ניקוז - טקסט
 70
0
 62
140
  6
CONTINUOUS
  0
LAYER
  2
ניקוז - נסתר
 70
0
 62
140
  6
HIDDEN
  0
LAYER
  2
ניקוז - ציר
 70
0
 62
140
  6
CENTER
  0
LAYER
  2
גז
 70
0
 62
2
  6
CONTINUOUS
  0
LAYER
  2
גז - מידות
 70
0
 62
2
  6
CONTINUOUS
  0
LAYER
  2
גז - טקסט
 70
0
 62
2
  6
CONTINUOUS
  0
LAYER
  2
גז - נסתר
 70
0
 62
2
  6
HIDDEN
  0
LAYER
  2
גז - ציר
 70
0
 62
2
  6
CENTER
  0
LAYER
  2
מיזוג
 70
0
 62
141
  6
CONTINUOUS
  0
LAYER
  2
מיזוג - מידות
 70
0
 62
141
  6
CONTINUOUS
  0
LAYER
  2
מיזוג - טקסט
 70
0
 62
141
  6
CONTINUOUS
  0
LAYER
  2
מיזוג - נסתר
 70
0
 62
141
  6
HIDDEN
  0
LAYER
  2
אוורור
 70
0
 62
131
  6
CONTINUOUS
  0
LAYER
  2
אוורור - מידות
 70
0
 62
131
  6
CONTINUOUS
  0
LAYER
  2
אוורור - טקסט
 70
0
 62
131
  6
CONTINUOUS
  0
LAYER
  2
אוורור - נסתר
 70
0
 62
131
  6
HIDDEN
  0
LAYER
  2
דלתות
 70
0
 62
5
  6
CONTINUOUS
  0
LAYER
  2
דלתות - מידות
 70
0
 62
5
  6
CONTINUOUS
  0
LAYER
  2
דלתות - טקסט
 70
0
 62
5
  6
CONTINUOUS
  0
LAYER
  2
דלתות - נסתר
 70
0
 62
5
  6
HIDDEN
  0
LAYER
  2
דלתות - מילוי
 70
0
 62
5
  6
CONTINUOUS
  0
LAYER
  2
חלונות
 70
0
 62
151
  6
CONTINUOUS
  0
LAYER
  2
חלונות - מידות
 70
0
 62
151
  6
CONTINUOUS
  0
LAYER
  2
חלונות - טקסט
 70
0
 62
151
  6
CONTINUOUS
  0
LAYER
  2
חלונות - נסתר
 70
0
 62
151
  6
HIDDEN
  0
LAYER
  2
ריהוט
 70
0
 62
42
  6
CONTINUOUS
  0
LAYER
  2
ריהוט - מידות
 70
0
 62
42
  6
CONTINUOUS
  0
LAYER
  2
ריהוט - טקסט
 70
0
 62
42
  6
CONTINUOUS
  0
LAYER
  2
ריהוט - נסתר
 70
0
 62
42
  6
HIDDEN
  0
LAYER
  2
מטבח
 70
0
 62
52
  6
CONTINUOUS
  0
LAYER
  2
מטבח - מידות
 70
0
 62
52
  6
CONTINUOUS
  0
LAYER
  2
מטבח - טקסט
 70
0
 62
52
  6
CONTINUOUS
  0
LAYER
  2
מטבח - נסתר
 70
0
 62
52
  6
HIDDEN
  0
LAYER
  2
ריצוף
 70
0
 62
251
  6
CONTINUOUS
  0
LAYER
  2
ריצוף - מילוי
 70
0
 62
8
  6
CONTINUOUS
  0
LAYER
  2
מידות - פנים
 70
0
 62
3
  6
CONTINUOUS
  0
LAYER
  2
מידות - חוץ
 70
0
 62
1
  6
CONTINUOUS
  0
LAYER
  2
מסגרת
 70
0
 62
250
  6
CONTINUOUS
  0
LAYER
  2
גבול גיליון
 70
0
 62
255
  6
CONTINUOUS
  0
LAYER
  2
מקרא
 70
0
 62
150
  6
CONTINUOUS
  0
LAYER
  2
רשת צירים
 70
0
 62
8
  6
CENTER
  0
LAYER
  2
הערות
 70
0
 62
150
  6
CONTINUOUS
  0
LAYER
  2
מהדורות
 70
0
 62
1
  6
CONTINUOUS
  0
ENDTAB
  0
TABLE
  2
STYLE
 70
2
  0
STYLE
  2
SOLINE
 70
0
 40
0.0000
 41
1.0000
 50
0.0000
 71
0
 42
2.5000
  3
arial.ttf
  4

  0
STYLE
  2
Standard
 70
0
 40
0.0000
 41
1.0000
 50
0.0000
 71
0
 42
2.5000
  3
txt
  4

  0
ENDTAB
  0
ENDSEC
  0
SECTION
  2
BLOCKS
  0
BLOCK
  8
0
  2
SOCKET
 70
0
 10
0.0000
 20
0.0000
 30
0.0000
  3
SOCKET
  1

  0
3DFACE
  5
117A
  8
0
 10
-35.0000
 20
-40.0000
 30
0.0000
 11
35.0000
 21
-40.0000
 31
0.0000
 12
35.0000
 22
0.0000
 32
0.0000
 13
-35.0000
 23
0.0000
 33
0.0000
  0
3DFACE
  5
117B
  8
0
 10
-35.0000
 20
-40.0000
 30
70.0000
 11
35.0000
 21
-40.0000
 31
70.0000
 12
35.0000
 22
0.0000
 32
70.0000
 13
-35.0000
 23
0.0000
 33
70.0000
  0
3DFACE
  5
117C
  8
0
 10
-35.0000
 20
-40.0000
 30
0.0000
 11
35.0000
 21
-40.0000
 31
0.0000
 12
35.0000
 22
-40.0000
 32
70.0000
 13
-35.0000
 23
-40.0000
 33
70.0000
  0
3DFACE
  5
117D
  8
0
 10
-35.0000
 20
0.0000
 30
0.0000
 11
35.0000
 21
0.0000
 31
0.0000
 12
35.0000
 22
0.0000
 32
70.0000
 13
-35.0000
 23
0.0000
 33
70.0000
  0
3DFACE
  5
117E
  8
0
 10
-35.0000
 20
-40.0000
 30
0.0000
 11
-35.0000
 21
0.0000
 31
0.0000
 12
-35.0000
 22
0.0000
 32
70.0000
 13
-35.0000
 23
-40.0000
 33
70.0000
  0
3DFACE
  5
117F
  8
0
 10
35.0000
 20
-40.0000
 30
0.0000
 11
35.0000
 21
0.0000
 31
0.0000
 12
35.0000
 22
0.0000
 32
70.0000
 13
35.0000
 23
-40.0000
 33
70.0000
  0
3DFACE
  5
1180
  8
0
 10
-45.0000
 20
0.0000
 30
-8.0000
 11
45.0000
 21
0.0000
 31
-8.0000
 12
45.0000
 22
8.0000
 32
-8.0000
 13
-45.0000
 23
8.0000
 33
-8.0000
  0
3DFACE
  5
1181
  8
0
 10
-45.0000
 20
0.0000
 30
78.0000
 11
45.0000
 21
0.0000
 31
78.0000
 12
45.0000
 22
8.0000
 32
78.0000
 13
-45.0000
 23
8.0000
 33
78.0000
  0
3DFACE
  5
1182
  8
0
 10
-45.0000
 20
0.0000
 30
-8.0000
 11
45.0000
 21
0.0000
 31
-8.0000
 12
45.0000
 22
0.0000
 32
78.0000
 13
-45.0000
 23
0.0000
 33
78.0000
  0
3DFACE
  5
1183
  8
0
 10
-45.0000
 20
8.0000
 30
-8.0000
 11
45.0000
 21
8.0000
 31
-8.0000
 12
45.0000
 22
8.0000
 32
78.0000
 13
-45.0000
 23
8.0000
 33
78.0000
  0
3DFACE
  5
1184
  8
0
 10
-45.0000
 20
0.0000
 30
-8.0000
 11
-45.0000
 21
8.0000
 31
-8.0000
 12
-45.0000
 22
8.0000
 32
78.0000
 13
-45.0000
 23
0.0000
 33
78.0000
  0
3DFACE
  5
1185
  8
0
 10
45.0000
 20
0.0000
 30
-8.0000
 11
45.0000
 21
8.0000
 31
-8.0000
 12
45.0000
 22
8.0000
 32
78.0000
 13
45.0000
 23
0.0000
 33
78.0000
  0
3DFACE
  5
1186
  8
0
 10
-16.0000
 20
8.0000
 30
20.0000
 11
16.0000
 21
8.0000
 31
20.0000
 12
16.0000
 22
14.0000
 32
20.0000
 13
-16.0000
 23
14.0000
 33
20.0000
  0
3DFACE
  5
1187
  8
0
 10
-16.0000
 20
8.0000
 30
50.0000
 11
16.0000
 21
8.0000
 31
50.0000
 12
16.0000
 22
14.0000
 32
50.0000
 13
-16.0000
 23
14.0000
 33
50.0000
  0
3DFACE
  5
1188
  8
0
 10
-16.0000
 20
8.0000
 30
20.0000
 11
16.0000
 21
8.0000
 31
20.0000
 12
16.0000
 22
8.0000
 32
50.0000
 13
-16.0000
 23
8.0000
 33
50.0000
  0
3DFACE
  5
1189
  8
0
 10
-16.0000
 20
14.0000
 30
20.0000
 11
16.0000
 21
14.0000
 31
20.0000
 12
16.0000
 22
14.0000
 32
50.0000
 13
-16.0000
 23
14.0000
 33
50.0000
  0
3DFACE
  5
118A
  8
0
 10
-16.0000
 20
8.0000
 30
20.0000
 11
-16.0000
 21
14.0000
 31
20.0000
 12
-16.0000
 22
14.0000
 32
50.0000
 13
-16.0000
 23
8.0000
 33
50.0000
  0
3DFACE
  5
118B
  8
0
 10
16.0000
 20
8.0000
 30
20.0000
 11
16.0000
 21
14.0000
 31
20.0000
 12
16.0000
 22
14.0000
 32
50.0000
 13
16.0000
 23
8.0000
 33
50.0000
  0
3DFACE
  5
118C
  8
0
 10
-12.0000
 20
14.0000
 30
30.0000
 11
-4.0000
 21
14.0000
 31
30.0000
 12
-4.0000
 22
18.0000
 32
30.0000
 13
-12.0000
 23
18.0000
 33
30.0000
  0
3DFACE
  5
118D
  8
0
 10
-12.0000
 20
14.0000
 30
44.0000
 11
-4.0000
 21
14.0000
 31
44.0000
 12
-4.0000
 22
18.0000
 32
44.0000
 13
-12.0000
 23
18.0000
 33
44.0000
  0
3DFACE
  5
118E
  8
0
 10
-12.0000
 20
14.0000
 30
30.0000
 11
-4.0000
 21
14.0000
 31
30.0000
 12
-4.0000
 22
14.0000
 32
44.0000
 13
-12.0000
 23
14.0000
 33
44.0000
  0
3DFACE
  5
118F
  8
0
 10
-12.0000
 20
18.0000
 30
30.0000
 11
-4.0000
 21
18.0000
 31
30.0000
 12
-4.0000
 22
18.0000
 32
44.0000
 13
-12.0000
 23
18.0000
 33
44.0000
  0
3DFACE
  5
1190
  8
0
 10
-12.0000
 20
14.0000
 30
30.0000
 11
-12.0000
 21
18.0000
 31
30.0000
 12
-12.0000
 22
18.0000
 32
44.0000
 13
-12.0000
 23
14.0000
 33
44.0000
  0
3DFACE
  5
1191
  8
0
 10
-4.0000
 20
14.0000
 30
30.0000
 11
-4.0000
 21
18.0000
 31
30.0000
 12
-4.0000
 22
18.0000
 32
44.0000
 13
-4.0000
 23
14.0000
 33
44.0000
  0
3DFACE
  5
1192
  8
0
 10
4.0000
 20
14.0000
 30
30.0000
 11
12.0000
 21
14.0000
 31
30.0000
 12
12.0000
 22
18.0000
 32
30.0000
 13
4.0000
 23
18.0000
 33
30.0000
  0
3DFACE
  5
1193
  8
0
 10
4.0000
 20
14.0000
 30
44.0000
 11
12.0000
 21
14.0000
 31
44.0000
 12
12.0000
 22
18.0000
 32
44.0000
 13
4.0000
 23
18.0000
 33
44.0000
  0
3DFACE
  5
1194
  8
0
 10
4.0000
 20
14.0000
 30
30.0000
 11
12.0000
 21
14.0000
 31
30.0000
 12
12.0000
 22
14.0000
 32
44.0000
 13
4.0000
 23
14.0000
 33
44.0000
  0
3DFACE
  5
1195
  8
0
 10
4.0000
 20
18.0000
 30
30.0000
 11
12.0000
 21
18.0000
 31
30.0000
 12
12.0000
 22
18.0000
 32
44.0000
 13
4.0000
 23
18.0000
 33
44.0000
  0
3DFACE
  5
1196
  8
0
 10
4.0000
 20
14.0000
 30
30.0000
 11
4.0000
 21
18.0000
 31
30.0000
 12
4.0000
 22
18.0000
 32
44.0000
 13
4.0000
 23
14.0000
 33
44.0000
  0
3DFACE
  5
1197
  8
0
 10
12.0000
 20
14.0000
 30
30.0000
 11
12.0000
 21
18.0000
 31
30.0000
 12
12.0000
 22
18.0000
 32
44.0000
 13
12.0000
 23
14.0000
 33
44.0000
  0
ENDBLK
  8
0
  0
BLOCK
  8
0
  2
GAS
 70
0
 10
0.0000
 20
0.0000
 30
0.0000
  3
GAS
  1

  0
3DFACE
  5
1198
  8
0
 10
-30.0000
 20
0.0000
 30
0.0000
 11
30.0000
 21
0.0000
 31
0.0000
 12
30.0000
 22
30.0000
 32
0.0000
 13
-30.0000
 23
30.0000
 33
0.0000
  0
3DFACE
  5
1199
  8
0
 10
-30.0000
 20
0.0000
 30
60.0000
 11
30.0000
 21
0.0000
 31
60.0000
 12
30.0000
 22
30.0000
 32
60.0000
 13
-30.0000
 23
30.0000
 33
60.0000
  0
3DFACE
  5
119A
  8
0
 10
-30.0000
 20
0.0000
 30
0.0000
 11
30.0000
 21
0.0000
 31
0.0000
 12
30.0000
 22
0.0000
 32
60.0000
 13
-30.0000
 23
0.0000
 33
60.0000
  0
3DFACE
  5
119B
  8
0
 10
-30.0000
 20
30.0000
 30
0.0000
 11
30.0000
 21
30.0000
 31
0.0000
 12
30.0000
 22
30.0000
 32
60.0000
 13
-30.0000
 23
30.0000
 33
60.0000
  0
3DFACE
  5
119C
  8
0
 10
-30.0000
 20
0.0000
 30
0.0000
 11
-30.0000
 21
30.0000
 31
0.0000
 12
-30.0000
 22
30.0000
 32
60.0000
 13
-30.0000
 23
0.0000
 33
60.0000
  0
3DFACE
  5
119D
  8
0
 10
30.0000
 20
0.0000
 30
0.0000
 11
30.0000
 21
30.0000
 31
0.0000
 12
30.0000
 22
30.0000
 32
60.0000
 13
30.0000
 23
0.0000
 33
60.0000
  0
3DFACE
  5
119E
  8
0
 10
-6.0000
 20
30.0000
 30
22.0000
 11
6.0000
 21
30.0000
 31
22.0000
 12
6.0000
 22
60.0000
 32
22.0000
 13
-6.0000
 23
60.0000
 33
22.0000
  0
3DFACE
  5
119F
  8
0
 10
-6.0000
 20
30.0000
 30
38.0000
 11
6.0000
 21
30.0000
 31
38.0000
 12
6.0000
 22
60.0000
 32
38.0000
 13
-6.0000
 23
60.0000
 33
38.0000
  0
3DFACE
  5
11A0
  8
0
 10
-6.0000
 20
30.0000
 30
22.0000
 11
6.0000
 21
30.0000
 31
22.0000
 12
6.0000
 22
30.0000
 32
38.0000
 13
-6.0000
 23
30.0000
 33
38.0000
  0
3DFACE
  5
11A1
  8
0
 10
-6.0000
 20
60.0000
 30
22.0000
 11
6.0000
 21
60.0000
 31
22.0000
 12
6.0000
 22
60.0000
 32
38.0000
 13
-6.0000
 23
60.0000
 33
38.0000
  0
3DFACE
  5
11A2
  8
0
 10
-6.0000
 20
30.0000
 30
22.0000
 11
-6.0000
 21
60.0000
 31
22.0000
 12
-6.0000
 22
60.0000
 32
38.0000
 13
-6.0000
 23
30.0000
 33
38.0000
  0
3DFACE
  5
11A3
  8
0
 10
6.0000
 20
30.0000
 30
22.0000
 11
6.0000
 21
60.0000
 31
22.0000
 12
6.0000
 22
60.0000
 32
38.0000
 13
6.0000
 23
30.0000
 33
38.0000
  0
3DFACE
  5
11A4
  8
0
 10
-6.0000
 20
-25.0000
 30
22.0000
 11
6.0000
 21
-25.0000
 31
22.0000
 12
6.0000
 22
0.0000
 32
22.0000
 13
-6.0000
 23
0.0000
 33
22.0000
  0
3DFACE
  5
11A5
  8
0
 10
-6.0000
 20
-25.0000
 30
38.0000
 11
6.0000
 21
-25.0000
 31
38.0000
 12
6.0000
 22
0.0000
 32
38.0000
 13
-6.0000
 23
0.0000
 33
38.0000
  0
3DFACE
  5
11A6
  8
0
 10
-6.0000
 20
-25.0000
 30
22.0000
 11
6.0000
 21
-25.0000
 31
22.0000
 12
6.0000
 22
-25.0000
 32
38.0000
 13
-6.0000
 23
-25.0000
 33
38.0000
  0
3DFACE
  5
11A7
  8
0
 10
-6.0000
 20
0.0000
 30
22.0000
 11
6.0000
 21
0.0000
 31
22.0000
 12
6.0000
 22
0.0000
 32
38.0000
 13
-6.0000
 23
0.0000
 33
38.0000
  0
3DFACE
  5
11A8
  8
0
 10
-6.0000
 20
-25.0000
 30
22.0000
 11
-6.0000
 21
0.0000
 31
22.0000
 12
-6.0000
 22
0.0000
 32
38.0000
 13
-6.0000
 23
-25.0000
 33
38.0000
  0
3DFACE
  5
11A9
  8
0
 10
6.0000
 20
-25.0000
 30
22.0000
 11
6.0000
 21
0.0000
 31
22.0000
 12
6.0000
 22
0.0000
 32
38.0000
 13
6.0000
 23
-25.0000
 33
38.0000
  0
3DFACE
  5
11AA
  8
0
 10
-3.0000
 20
55.0000
 30
15.0000
 11
3.0000
 21
55.0000
 31
15.0000
 12
3.0000
 22
65.0000
 32
15.0000
 13
-3.0000
 23
65.0000
 33
15.0000
  0
3DFACE
  5
11AB
  8
0
 10
-3.0000
 20
55.0000
 30
45.0000
 11
3.0000
 21
55.0000
 31
45.0000
 12
3.0000
 22
65.0000
 32
45.0000
 13
-3.0000
 23
65.0000
 33
45.0000
  0
3DFACE
  5
11AC
  8
0
 10
-3.0000
 20
55.0000
 30
15.0000
 11
3.0000
 21
55.0000
 31
15.0000
 12
3.0000
 22
55.0000
 32
45.0000
 13
-3.0000
 23
55.0000
 33
45.0000
  0
3DFACE
  5
11AD
  8
0
 10
-3.0000
 20
65.0000
 30
15.0000
 11
3.0000
 21
65.0000
 31
15.0000
 12
3.0000
 22
65.0000
 32
45.0000
 13
-3.0000
 23
65.0000
 33
45.0000
  0
3DFACE
  5
11AE
  8
0
 10
-3.0000
 20
55.0000
 30
15.0000
 11
-3.0000
 21
65.0000
 31
15.0000
 12
-3.0000
 22
65.0000
 32
45.0000
 13
-3.0000
 23
55.0000
 33
45.0000
  0
3DFACE
  5
11AF
  8
0
 10
3.0000
 20
55.0000
 30
15.0000
 11
3.0000
 21
65.0000
 31
15.0000
 12
3.0000
 22
65.0000
 32
45.0000
 13
3.0000
 23
55.0000
 33
45.0000
  0
3DFACE
  5
11B0
  8
0
 10
-14.0000
 20
60.0000
 30
22.0000
 11
14.0000
 21
60.0000
 31
22.0000
 12
14.0000
 22
72.0000
 32
22.0000
 13
-14.0000
 23
72.0000
 33
22.0000
  0
3DFACE
  5
11B1
  8
0
 10
-14.0000
 20
60.0000
 30
38.0000
 11
14.0000
 21
60.0000
 31
38.0000
 12
14.0000
 22
72.0000
 32
38.0000
 13
-14.0000
 23
72.0000
 33
38.0000
  0
3DFACE
  5
11B2
  8
0
 10
-14.0000
 20
60.0000
 30
22.0000
 11
14.0000
 21
60.0000
 31
22.0000
 12
14.0000
 22
60.0000
 32
38.0000
 13
-14.0000
 23
60.0000
 33
38.0000
  0
3DFACE
  5
11B3
  8
0
 10
-14.0000
 20
72.0000
 30
22.0000
 11
14.0000
 21
72.0000
 31
22.0000
 12
14.0000
 22
72.0000
 32
38.0000
 13
-14.0000
 23
72.0000
 33
38.0000
  0
3DFACE
  5
11B4
  8
0
 10
-14.0000
 20
60.0000
 30
22.0000
 11
-14.0000
 21
72.0000
 31
22.0000
 12
-14.0000
 22
72.0000
 32
38.0000
 13
-14.0000
 23
60.0000
 33
38.0000
  0
3DFACE
  5
11B5
  8
0
 10
14.0000
 20
60.0000
 30
22.0000
 11
14.0000
 21
72.0000
 31
22.0000
 12
14.0000
 22
72.0000
 32
38.0000
 13
14.0000
 23
60.0000
 33
38.0000
  0
ENDBLK
  8
0
  0
BLOCK
  8
0
  2
CONTROLBOX
 70
0
 10
0.0000
 20
0.0000
 30
0.0000
  3
CONTROLBOX
  1

  0
3DFACE
  5
11B6
  8
0
 10
-100.0000
 20
-40.0000
 30
-150.0000
 11
100.0000
 21
-40.0000
 31
-150.0000
 12
100.0000
 22
0.0000
 32
-150.0000
 13
-100.0000
 23
0.0000
 33
-150.0000
  0
3DFACE
  5
11B7
  8
0
 10
-100.0000
 20
-40.0000
 30
150.0000
 11
100.0000
 21
-40.0000
 31
150.0000
 12
100.0000
 22
0.0000
 32
150.0000
 13
-100.0000
 23
0.0000
 33
150.0000
  0
3DFACE
  5
11B8
  8
0
 10
-100.0000
 20
-40.0000
 30
-150.0000
 11
100.0000
 21
-40.0000
 31
-150.0000
 12
100.0000
 22
-40.0000
 32
150.0000
 13
-100.0000
 23
-40.0000
 33
150.0000
  0
3DFACE
  5
11B9
  8
0
 10
-100.0000
 20
0.0000
 30
-150.0000
 11
100.0000
 21
0.0000
 31
-150.0000
 12
100.0000
 22
0.0000
 32
150.0000
 13
-100.0000
 23
0.0000
 33
150.0000
  0
3DFACE
  5
11BA
  8
0
 10
-100.0000
 20
-40.0000
 30
-150.0000
 11
-100.0000
 21
0.0000
 31
-150.0000
 12
-100.0000
 22
0.0000
 32
150.0000
 13
-100.0000
 23
-40.0000
 33
150.0000
  0
3DFACE
  5
11BB
  8
0
 10
100.0000
 20
-40.0000
 30
-150.0000
 11
100.0000
 21
0.0000
 31
-150.0000
 12
100.0000
 22
0.0000
 32
150.0000
 13
100.0000
 23
-40.0000
 33
150.0000
  0
3DFACE
  5
11BC
  8
0
 10
-96.0000
 20
0.0000
 30
-146.0000
 11
96.0000
 21
0.0000
 31
-146.0000
 12
96.0000
 22
10.0000
 32
-146.0000
 13
-96.0000
 23
10.0000
 33
-146.0000
  0
3DFACE
  5
11BD
  8
0
 10
-96.0000
 20
0.0000
 30
146.0000
 11
96.0000
 21
0.0000
 31
146.0000
 12
96.0000
 22
10.0000
 32
146.0000
 13
-96.0000
 23
10.0000
 33
146.0000
  0
3DFACE
  5
11BE
  8
0
 10
-96.0000
 20
0.0000
 30
-146.0000
 11
96.0000
 21
0.0000
 31
-146.0000
 12
96.0000
 22
0.0000
 32
146.0000
 13
-96.0000
 23
0.0000
 33
146.0000
  0
3DFACE
  5
11BF
  8
0
 10
-96.0000
 20
10.0000
 30
-146.0000
 11
96.0000
 21
10.0000
 31
-146.0000
 12
96.0000
 22
10.0000
 32
146.0000
 13
-96.0000
 23
10.0000
 33
146.0000
  0
3DFACE
  5
11C0
  8
0
 10
-96.0000
 20
0.0000
 30
-146.0000
 11
-96.0000
 21
10.0000
 31
-146.0000
 12
-96.0000
 22
10.0000
 32
146.0000
 13
-96.0000
 23
0.0000
 33
146.0000
  0
3DFACE
  5
11C1
  8
0
 10
96.0000
 20
0.0000
 30
-146.0000
 11
96.0000
 21
10.0000
 31
-146.0000
 12
96.0000
 22
10.0000
 32
146.0000
 13
96.0000
 23
0.0000
 33
146.0000
  0
ENDBLK
  8
0
  0
BLOCK
  8
0
  2
FAUCET
 70
0
 10
0.0000
 20
0.0000
 30
0.0000
  3
FAUCET
  1

  0
3DFACE
  5
11C2
  8
0
 10
-25.0000
 20
0.0000
 30
0.0000
 11
25.0000
 21
0.0000
 31
0.0000
 12
25.0000
 22
25.0000
 32
0.0000
 13
-25.0000
 23
25.0000
 33
0.0000
  0
3DFACE
  5
11C3
  8
0
 10
-25.0000
 20
0.0000
 30
30.0000
 11
25.0000
 21
0.0000
 31
30.0000
 12
25.0000
 22
25.0000
 32
30.0000
 13
-25.0000
 23
25.0000
 33
30.0000
  0
3DFACE
  5
11C4
  8
0
 10
-25.0000
 20
0.0000
 30
0.0000
 11
25.0000
 21
0.0000
 31
0.0000
 12
25.0000
 22
0.0000
 32
30.0000
 13
-25.0000
 23
0.0000
 33
30.0000
  0
3DFACE
  5
11C5
  8
0
 10
-25.0000
 20
25.0000
 30
0.0000
 11
25.0000
 21
25.0000
 31
0.0000
 12
25.0000
 22
25.0000
 32
30.0000
 13
-25.0000
 23
25.0000
 33
30.0000
  0
3DFACE
  5
11C6
  8
0
 10
-25.0000
 20
0.0000
 30
0.0000
 11
-25.0000
 21
25.0000
 31
0.0000
 12
-25.0000
 22
25.0000
 32
30.0000
 13
-25.0000
 23
0.0000
 33
30.0000
  0
3DFACE
  5
11C7
  8
0
 10
25.0000
 20
0.0000
 30
0.0000
 11
25.0000
 21
25.0000
 31
0.0000
 12
25.0000
 22
25.0000
 32
30.0000
 13
25.0000
 23
0.0000
 33
30.0000
  0
3DFACE
  5
11C8
  8
0
 10
-9.0000
 20
0.0000
 30
30.0000
 11
9.0000
 21
0.0000
 31
30.0000
 12
9.0000
 22
18.0000
 32
30.0000
 13
-9.0000
 23
18.0000
 33
30.0000
  0
3DFACE
  5
11C9
  8
0
 10
-9.0000
 20
0.0000
 30
150.0000
 11
9.0000
 21
0.0000
 31
150.0000
 12
9.0000
 22
18.0000
 32
150.0000
 13
-9.0000
 23
18.0000
 33
150.0000
  0
3DFACE
  5
11CA
  8
0
 10
-9.0000
 20
0.0000
 30
30.0000
 11
9.0000
 21
0.0000
 31
30.0000
 12
9.0000
 22
0.0000
 32
150.0000
 13
-9.0000
 23
0.0000
 33
150.0000
  0
3DFACE
  5
11CB
  8
0
 10
-9.0000
 20
18.0000
 30
30.0000
 11
9.0000
 21
18.0000
 31
30.0000
 12
9.0000
 22
18.0000
 32
150.0000
 13
-9.0000
 23
18.0000
 33
150.0000
  0
3DFACE
  5
11CC
  8
0
 10
-9.0000
 20
0.0000
 30
30.0000
 11
-9.0000
 21
18.0000
 31
30.0000
 12
-9.0000
 22
18.0000
 32
150.0000
 13
-9.0000
 23
0.0000
 33
150.0000
  0
3DFACE
  5
11CD
  8
0
 10
9.0000
 20
0.0000
 30
30.0000
 11
9.0000
 21
18.0000
 31
30.0000
 12
9.0000
 22
18.0000
 32
150.0000
 13
9.0000
 23
0.0000
 33
150.0000
  0
3DFACE
  5
11CE
  8
0
 10
-9.0000
 20
0.0000
 30
132.0000
 11
60.0000
 21
0.0000
 31
132.0000
 12
60.0000
 22
18.0000
 32
132.0000
 13
-9.0000
 23
18.0000
 33
132.0000
  0
3DFACE
  5
11CF
  8
0
 10
-9.0000
 20
0.0000
 30
150.0000
 11
60.0000
 21
0.0000
 31
150.0000
 12
60.0000
 22
18.0000
 32
150.0000
 13
-9.0000
 23
18.0000
 33
150.0000
  0
3DFACE
  5
11D0
  8
0
 10
-9.0000
 20
0.0000
 30
132.0000
 11
60.0000
 21
0.0000
 31
132.0000
 12
60.0000
 22
0.0000
 32
150.0000
 13
-9.0000
 23
0.0000
 33
150.0000
  0
3DFACE
  5
11D1
  8
0
 10
-9.0000
 20
18.0000
 30
132.0000
 11
60.0000
 21
18.0000
 31
132.0000
 12
60.0000
 22
18.0000
 32
150.0000
 13
-9.0000
 23
18.0000
 33
150.0000
  0
3DFACE
  5
11D2
  8
0
 10
-9.0000
 20
0.0000
 30
132.0000
 11
-9.0000
 21
18.0000
 31
132.0000
 12
-9.0000
 22
18.0000
 32
150.0000
 13
-9.0000
 23
0.0000
 33
150.0000
  0
3DFACE
  5
11D3
  8
0
 10
60.0000
 20
0.0000
 30
132.0000
 11
60.0000
 21
18.0000
 31
132.0000
 12
60.0000
 22
18.0000
 32
150.0000
 13
60.0000
 23
0.0000
 33
150.0000
  0
3DFACE
  5
11D4
  8
0
 10
52.0000
 20
0.0000
 30
120.0000
 11
68.0000
 21
0.0000
 31
120.0000
 12
68.0000
 22
18.0000
 32
120.0000
 13
52.0000
 23
18.0000
 33
120.0000
  0
3DFACE
  5
11D5
  8
0
 10
52.0000
 20
0.0000
 30
150.0000
 11
68.0000
 21
0.0000
 31
150.0000
 12
68.0000
 22
18.0000
 32
150.0000
 13
52.0000
 23
18.0000
 33
150.0000
  0
3DFACE
  5
11D6
  8
0
 10
52.0000
 20
0.0000
 30
120.0000
 11
68.0000
 21
0.0000
 31
120.0000
 12
68.0000
 22
0.0000
 32
150.0000
 13
52.0000
 23
0.0000
 33
150.0000
  0
3DFACE
  5
11D7
  8
0
 10
52.0000
 20
18.0000
 30
120.0000
 11
68.0000
 21
18.0000
 31
120.0000
 12
68.0000
 22
18.0000
 32
150.0000
 13
52.0000
 23
18.0000
 33
150.0000
  0
3DFACE
  5
11D8
  8
0
 10
52.0000
 20
0.0000
 30
120.0000
 11
52.0000
 21
18.0000
 31
120.0000
 12
52.0000
 22
18.0000
 32
150.0000
 13
52.0000
 23
0.0000
 33
150.0000
  0
3DFACE
  5
11D9
  8
0
 10
68.0000
 20
0.0000
 30
120.0000
 11
68.0000
 21
18.0000
 31
120.0000
 12
68.0000
 22
18.0000
 32
150.0000
 13
68.0000
 23
0.0000
 33
150.0000
  0
3DFACE
  5
11DA
  8
0
 10
52.0000
 20
0.0000
 30
110.0000
 11
68.0000
 21
0.0000
 31
110.0000
 12
68.0000
 22
18.0000
 32
110.0000
 13
52.0000
 23
18.0000
 33
110.0000
  0
3DFACE
  5
11DB
  8
0
 10
52.0000
 20
0.0000
 30
122.0000
 11
68.0000
 21
0.0000
 31
122.0000
 12
68.0000
 22
18.0000
 32
122.0000
 13
52.0000
 23
18.0000
 33
122.0000
  0
3DFACE
  5
11DC
  8
0
 10
52.0000
 20
0.0000
 30
110.0000
 11
68.0000
 21
0.0000
 31
110.0000
 12
68.0000
 22
0.0000
 32
122.0000
 13
52.0000
 23
0.0000
 33
122.0000
  0
3DFACE
  5
11DD
  8
0
 10
52.0000
 20
18.0000
 30
110.0000
 11
68.0000
 21
18.0000
 31
110.0000
 12
68.0000
 22
18.0000
 32
122.0000
 13
52.0000
 23
18.0000
 33
122.0000
  0
3DFACE
  5
11DE
  8
0
 10
52.0000
 20
0.0000
 30
110.0000
 11
52.0000
 21
18.0000
 31
110.0000
 12
52.0000
 22
18.0000
 32
122.0000
 13
52.0000
 23
0.0000
 33
122.0000
  0
3DFACE
  5
11DF
  8
0
 10
68.0000
 20
0.0000
 30
110.0000
 11
68.0000
 21
18.0000
 31
110.0000
 12
68.0000
 22
18.0000
 32
122.0000
 13
68.0000
 23
0.0000
 33
122.0000
  0
3DFACE
  5
11E0
  8
0
 10
-22.0000
 20
0.0000
 30
90.0000
 11
-14.0000
 21
0.0000
 31
90.0000
 12
-14.0000
 22
18.0000
 32
90.0000
 13
-22.0000
 23
18.0000
 33
90.0000
  0
3DFACE
  5
11E1
  8
0
 10
-22.0000
 20
0.0000
 30
120.0000
 11
-14.0000
 21
0.0000
 31
120.0000
 12
-14.0000
 22
18.0000
 32
120.0000
 13
-22.0000
 23
18.0000
 33
120.0000
  0
3DFACE
  5
11E2
  8
0
 10
-22.0000
 20
0.0000
 30
90.0000
 11
-14.0000
 21
0.0000
 31
90.0000
 12
-14.0000
 22
0.0000
 32
120.0000
 13
-22.0000
 23
0.0000
 33
120.0000
  0
3DFACE
  5
11E3
  8
0
 10
-22.0000
 20
18.0000
 30
90.0000
 11
-14.0000
 21
18.0000
 31
90.0000
 12
-14.0000
 22
18.0000
 32
120.0000
 13
-22.0000
 23
18.0000
 33
120.0000
  0
3DFACE
  5
11E4
  8
0
 10
-22.0000
 20
0.0000
 30
90.0000
 11
-22.0000
 21
18.0000
 31
90.0000
 12
-22.0000
 22
18.0000
 32
120.0000
 13
-22.0000
 23
0.0000
 33
120.0000
  0
3DFACE
  5
11E5
  8
0
 10
-14.0000
 20
0.0000
 30
90.0000
 11
-14.0000
 21
18.0000
 31
90.0000
 12
-14.0000
 22
18.0000
 32
120.0000
 13
-14.0000
 23
0.0000
 33
120.0000
  0
3DFACE
  5
11E6
  8
0
 10
14.0000
 20
0.0000
 30
90.0000
 11
22.0000
 21
0.0000
 31
90.0000
 12
22.0000
 22
18.0000
 32
90.0000
 13
14.0000
 23
18.0000
 33
90.0000
  0
3DFACE
  5
11E7
  8
0
 10
14.0000
 20
0.0000
 30
120.0000
 11
22.0000
 21
0.0000
 31
120.0000
 12
22.0000
 22
18.0000
 32
120.0000
 13
14.0000
 23
18.0000
 33
120.0000
  0
3DFACE
  5
11E8
  8
0
 10
14.0000
 20
0.0000
 30
90.0000
 11
22.0000
 21
0.0000
 31
90.0000
 12
22.0000
 22
0.0000
 32
120.0000
 13
14.0000
 23
0.0000
 33
120.0000
  0
3DFACE
  5
11E9
  8
0
 10
14.0000
 20
18.0000
 30
90.0000
 11
22.0000
 21
18.0000
 31
90.0000
 12
22.0000
 22
18.0000
 32
120.0000
 13
14.0000
 23
18.0000
 33
120.0000
  0
3DFACE
  5
11EA
  8
0
 10
14.0000
 20
0.0000
 30
90.0000
 11
14.0000
 21
18.0000
 31
90.0000
 12
14.0000
 22
18.0000
 32
120.0000
 13
14.0000
 23
0.0000
 33
120.0000
  0
3DFACE
  5
11EB
  8
0
 10
22.0000
 20
0.0000
 30
90.0000
 11
22.0000
 21
18.0000
 31
90.0000
 12
22.0000
 22
18.0000
 32
120.0000
 13
22.0000
 23
0.0000
 33
120.0000
  0
ENDBLK
  8
0
  0
BLOCK
  8
0
  2
DUPLEXSWITCH
 70
0
 10
0.0000
 20
0.0000
 30
0.0000
  3
DUPLEXSWITCH
  1

  0
3DFACE
  5
11EC
  8
0
 10
-72.0000
 20
-40.0000
 30
0.0000
 11
-2.0000
 21
-40.0000
 31
0.0000
 12
-2.0000
 22
0.0000
 32
0.0000
 13
-72.0000
 23
0.0000
 33
0.0000
  0
3DFACE
  5
11ED
  8
0
 10
-72.0000
 20
-40.0000
 30
70.0000
 11
-2.0000
 21
-40.0000
 31
70.0000
 12
-2.0000
 22
0.0000
 32
70.0000
 13
-72.0000
 23
0.0000
 33
70.0000
  0
3DFACE
  5
11EE
  8
0
 10
-72.0000
 20
-40.0000
 30
0.0000
 11
-2.0000
 21
-40.0000
 31
0.0000
 12
-2.0000
 22
-40.0000
 32
70.0000
 13
-72.0000
 23
-40.0000
 33
70.0000
  0
3DFACE
  5
11EF
  8
0
 10
-72.0000
 20
0.0000
 30
0.0000
 11
-2.0000
 21
0.0000
 31
0.0000
 12
-2.0000
 22
0.0000
 32
70.0000
 13
-72.0000
 23
0.0000
 33
70.0000
  0
3DFACE
  5
11F0
  8
0
 10
-72.0000
 20
-40.0000
 30
0.0000
 11
-72.0000
 21
0.0000
 31
0.0000
 12
-72.0000
 22
0.0000
 32
70.0000
 13
-72.0000
 23
-40.0000
 33
70.0000
  0
3DFACE
  5
11F1
  8
0
 10
-2.0000
 20
-40.0000
 30
0.0000
 11
-2.0000
 21
0.0000
 31
0.0000
 12
-2.0000
 22
0.0000
 32
70.0000
 13
-2.0000
 23
-40.0000
 33
70.0000
  0
3DFACE
  5
11F2
  8
0
 10
-82.0000
 20
0.0000
 30
-8.0000
 11
8.0000
 21
0.0000
 31
-8.0000
 12
8.0000
 22
8.0000
 32
-8.0000
 13
-82.0000
 23
8.0000
 33
-8.0000
  0
3DFACE
  5
11F3
  8
0
 10
-82.0000
 20
0.0000
 30
78.0000
 11
8.0000
 21
0.0000
 31
78.0000
 12
8.0000
 22
8.0000
 32
78.0000
 13
-82.0000
 23
8.0000
 33
78.0000
  0
3DFACE
  5
11F4
  8
0
 10
-82.0000
 20
0.0000
 30
-8.0000
 11
8.0000
 21
0.0000
 31
-8.0000
 12
8.0000
 22
0.0000
 32
78.0000
 13
-82.0000
 23
0.0000
 33
78.0000
  0
3DFACE
  5
11F5
  8
0
 10
-82.0000
 20
8.0000
 30
-8.0000
 11
8.0000
 21
8.0000
 31
-8.0000
 12
8.0000
 22
8.0000
 32
78.0000
 13
-82.0000
 23
8.0000
 33
78.0000
  0
3DFACE
  5
11F6
  8
0
 10
-82.0000
 20
0.0000
 30
-8.0000
 11
-82.0000
 21
8.0000
 31
-8.0000
 12
-82.0000
 22
8.0000
 32
78.0000
 13
-82.0000
 23
0.0000
 33
78.0000
  0
3DFACE
  5
11F7
  8
0
 10
8.0000
 20
0.0000
 30
-8.0000
 11
8.0000
 21
8.0000
 31
-8.0000
 12
8.0000
 22
8.0000
 32
78.0000
 13
8.0000
 23
0.0000
 33
78.0000
  0
3DFACE
  5
11F8
  8
0
 10
-53.0000
 20
8.0000
 30
20.0000
 11
-21.0000
 21
8.0000
 31
20.0000
 12
-21.0000
 22
14.0000
 32
20.0000
 13
-53.0000
 23
14.0000
 33
20.0000
  0
3DFACE
  5
11F9
  8
0
 10
-53.0000
 20
8.0000
 30
50.0000
 11
-21.0000
 21
8.0000
 31
50.0000
 12
-21.0000
 22
14.0000
 32
50.0000
 13
-53.0000
 23
14.0000
 33
50.0000
  0
3DFACE
  5
11FA
  8
0
 10
-53.0000
 20
8.0000
 30
20.0000
 11
-21.0000
 21
8.0000
 31
20.0000
 12
-21.0000
 22
8.0000
 32
50.0000
 13
-53.0000
 23
8.0000
 33
50.0000
  0
3DFACE
  5
11FB
  8
0
 10
-53.0000
 20
14.0000
 30
20.0000
 11
-21.0000
 21
14.0000
 31
20.0000
 12
-21.0000
 22
14.0000
 32
50.0000
 13
-53.0000
 23
14.0000
 33
50.0000
  0
3DFACE
  5
11FC
  8
0
 10
-53.0000
 20
8.0000
 30
20.0000
 11
-53.0000
 21
14.0000
 31
20.0000
 12
-53.0000
 22
14.0000
 32
50.0000
 13
-53.0000
 23
8.0000
 33
50.0000
  0
3DFACE
  5
11FD
  8
0
 10
-21.0000
 20
8.0000
 30
20.0000
 11
-21.0000
 21
14.0000
 31
20.0000
 12
-21.0000
 22
14.0000
 32
50.0000
 13
-21.0000
 23
8.0000
 33
50.0000
  0
3DFACE
  5
11FE
  8
0
 10
-49.0000
 20
14.0000
 30
30.0000
 11
-41.0000
 21
14.0000
 31
30.0000
 12
-41.0000
 22
18.0000
 32
30.0000
 13
-49.0000
 23
18.0000
 33
30.0000
  0
3DFACE
  5
11FF
  8
0
 10
-49.0000
 20
14.0000
 30
44.0000
 11
-41.0000
 21
14.0000
 31
44.0000
 12
-41.0000
 22
18.0000
 32
44.0000
 13
-49.0000
 23
18.0000
 33
44.0000
  0
3DFACE
  5
1200
  8
0
 10
-49.0000
 20
14.0000
 30
30.0000
 11
-41.0000
 21
14.0000
 31
30.0000
 12
-41.0000
 22
14.0000
 32
44.0000
 13
-49.0000
 23
14.0000
 33
44.0000
  0
3DFACE
  5
1201
  8
0
 10
-49.0000
 20
18.0000
 30
30.0000
 11
-41.0000
 21
18.0000
 31
30.0000
 12
-41.0000
 22
18.0000
 32
44.0000
 13
-49.0000
 23
18.0000
 33
44.0000
  0
3DFACE
  5
1202
  8
0
 10
-49.0000
 20
14.0000
 30
30.0000
 11
-49.0000
 21
18.0000
 31
30.0000
 12
-49.0000
 22
18.0000
 32
44.0000
 13
-49.0000
 23
14.0000
 33
44.0000
  0
3DFACE
  5
1203
  8
0
 10
-41.0000
 20
14.0000
 30
30.0000
 11
-41.0000
 21
18.0000
 31
30.0000
 12
-41.0000
 22
18.0000
 32
44.0000
 13
-41.0000
 23
14.0000
 33
44.0000
  0
3DFACE
  5
1204
  8
0
 10
-33.0000
 20
14.0000
 30
30.0000
 11
-25.0000
 21
14.0000
 31
30.0000
 12
-25.0000
 22
18.0000
 32
30.0000
 13
-33.0000
 23
18.0000
 33
30.0000
  0
3DFACE
  5
1205
  8
0
 10
-33.0000
 20
14.0000
 30
44.0000
 11
-25.0000
 21
14.0000
 31
44.0000
 12
-25.0000
 22
18.0000
 32
44.0000
 13
-33.0000
 23
18.0000
 33
44.0000
  0
3DFACE
  5
1206
  8
0
 10
-33.0000
 20
14.0000
 30
30.0000
 11
-25.0000
 21
14.0000
 31
30.0000
 12
-25.0000
 22
14.0000
 32
44.0000
 13
-33.0000
 23
14.0000
 33
44.0000
  0
3DFACE
  5
1207
  8
0
 10
-33.0000
 20
18.0000
 30
30.0000
 11
-25.0000
 21
18.0000
 31
30.0000
 12
-25.0000
 22
18.0000
 32
44.0000
 13
-33.0000
 23
18.0000
 33
44.0000
  0
3DFACE
  5
1208
  8
0
 10
-33.0000
 20
14.0000
 30
30.0000
 11
-33.0000
 21
18.0000
 31
30.0000
 12
-33.0000
 22
18.0000
 32
44.0000
 13
-33.0000
 23
14.0000
 33
44.0000
  0
3DFACE
  5
1209
  8
0
 10
-25.0000
 20
14.0000
 30
30.0000
 11
-25.0000
 21
18.0000
 31
30.0000
 12
-25.0000
 22
18.0000
 32
44.0000
 13
-25.0000
 23
14.0000
 33
44.0000
  0
3DFACE
  5
120A
  8
0
 10
2.0000
 20
-40.0000
 30
0.0000
 11
72.0000
 21
-40.0000
 31
0.0000
 12
72.0000
 22
0.0000
 32
0.0000
 13
2.0000
 23
0.0000
 33
0.0000
  0
3DFACE
  5
120B
  8
0
 10
2.0000
 20
-40.0000
 30
70.0000
 11
72.0000
 21
-40.0000
 31
70.0000
 12
72.0000
 22
0.0000
 32
70.0000
 13
2.0000
 23
0.0000
 33
70.0000
  0
3DFACE
  5
120C
  8
0
 10
2.0000
 20
-40.0000
 30
0.0000
 11
72.0000
 21
-40.0000
 31
0.0000
 12
72.0000
 22
-40.0000
 32
70.0000
 13
2.0000
 23
-40.0000
 33
70.0000
  0
3DFACE
  5
120D
  8
0
 10
2.0000
 20
0.0000
 30
0.0000
 11
72.0000
 21
0.0000
 31
0.0000
 12
72.0000
 22
0.0000
 32
70.0000
 13
2.0000
 23
0.0000
 33
70.0000
  0
3DFACE
  5
120E
  8
0
 10
2.0000
 20
-40.0000
 30
0.0000
 11
2.0000
 21
0.0000
 31
0.0000
 12
2.0000
 22
0.0000
 32
70.0000
 13
2.0000
 23
-40.0000
 33
70.0000
  0
3DFACE
  5
120F
  8
0
 10
72.0000
 20
-40.0000
 30
0.0000
 11
72.0000
 21
0.0000
 31
0.0000
 12
72.0000
 22
0.0000
 32
70.0000
 13
72.0000
 23
-40.0000
 33
70.0000
  0
3DFACE
  5
1210
  8
0
 10
-8.0000
 20
0.0000
 30
-8.0000
 11
82.0000
 21
0.0000
 31
-8.0000
 12
82.0000
 22
8.0000
 32
-8.0000
 13
-8.0000
 23
8.0000
 33
-8.0000
  0
3DFACE
  5
1211
  8
0
 10
-8.0000
 20
0.0000
 30
78.0000
 11
82.0000
 21
0.0000
 31
78.0000
 12
82.0000
 22
8.0000
 32
78.0000
 13
-8.0000
 23
8.0000
 33
78.0000
  0
3DFACE
  5
1212
  8
0
 10
-8.0000
 20
0.0000
 30
-8.0000
 11
82.0000
 21
0.0000
 31
-8.0000
 12
82.0000
 22
0.0000
 32
78.0000
 13
-8.0000
 23
0.0000
 33
78.0000
  0
3DFACE
  5
1213
  8
0
 10
-8.0000
 20
8.0000
 30
-8.0000
 11
82.0000
 21
8.0000
 31
-8.0000
 12
82.0000
 22
8.0000
 32
78.0000
 13
-8.0000
 23
8.0000
 33
78.0000
  0
3DFACE
  5
1214
  8
0
 10
-8.0000
 20
0.0000
 30
-8.0000
 11
-8.0000
 21
8.0000
 31
-8.0000
 12
-8.0000
 22
8.0000
 32
78.0000
 13
-8.0000
 23
0.0000
 33
78.0000
  0
3DFACE
  5
1215
  8
0
 10
82.0000
 20
0.0000
 30
-8.0000
 11
82.0000
 21
8.0000
 31
-8.0000
 12
82.0000
 22
8.0000
 32
78.0000
 13
82.0000
 23
0.0000
 33
78.0000
  0
3DFACE
  5
1216
  8
0
 10
21.0000
 20
8.0000
 30
20.0000
 11
53.0000
 21
8.0000
 31
20.0000
 12
53.0000
 22
14.0000
 32
20.0000
 13
21.0000
 23
14.0000
 33
20.0000
  0
3DFACE
  5
1217
  8
0
 10
21.0000
 20
8.0000
 30
50.0000
 11
53.0000
 21
8.0000
 31
50.0000
 12
53.0000
 22
14.0000
 32
50.0000
 13
21.0000
 23
14.0000
 33
50.0000
  0
3DFACE
  5
1218
  8
0
 10
21.0000
 20
8.0000
 30
20.0000
 11
53.0000
 21
8.0000
 31
20.0000
 12
53.0000
 22
8.0000
 32
50.0000
 13
21.0000
 23
8.0000
 33
50.0000
  0
3DFACE
  5
1219
  8
0
 10
21.0000
 20
14.0000
 30
20.0000
 11
53.0000
 21
14.0000
 31
20.0000
 12
53.0000
 22
14.0000
 32
50.0000
 13
21.0000
 23
14.0000
 33
50.0000
  0
3DFACE
  5
121A
  8
0
 10
21.0000
 20
8.0000
 30
20.0000
 11
21.0000
 21
14.0000
 31
20.0000
 12
21.0000
 22
14.0000
 32
50.0000
 13
21.0000
 23
8.0000
 33
50.0000
  0
3DFACE
  5
121B
  8
0
 10
53.0000
 20
8.0000
 30
20.0000
 11
53.0000
 21
14.0000
 31
20.0000
 12
53.0000
 22
14.0000
 32
50.0000
 13
53.0000
 23
8.0000
 33
50.0000
  0
3DFACE
  5
121C
  8
0
 10
25.0000
 20
14.0000
 30
30.0000
 11
33.0000
 21
14.0000
 31
30.0000
 12
33.0000
 22
18.0000
 32
30.0000
 13
25.0000
 23
18.0000
 33
30.0000
  0
3DFACE
  5
121D
  8
0
 10
25.0000
 20
14.0000
 30
44.0000
 11
33.0000
 21
14.0000
 31
44.0000
 12
33.0000
 22
18.0000
 32
44.0000
 13
25.0000
 23
18.0000
 33
44.0000
  0
3DFACE
  5
121E
  8
0
 10
25.0000
 20
14.0000
 30
30.0000
 11
33.0000
 21
14.0000
 31
30.0000
 12
33.0000
 22
14.0000
 32
44.0000
 13
25.0000
 23
14.0000
 33
44.0000
  0
3DFACE
  5
121F
  8
0
 10
25.0000
 20
18.0000
 30
30.0000
 11
33.0000
 21
18.0000
 31
30.0000
 12
33.0000
 22
18.0000
 32
44.0000
 13
25.0000
 23
18.0000
 33
44.0000
  0
3DFACE
  5
1220
  8
0
 10
25.0000
 20
14.0000
 30
30.0000
 11
25.0000
 21
18.0000
 31
30.0000
 12
25.0000
 22
18.0000
 32
44.0000
 13
25.0000
 23
14.0000
 33
44.0000
  0
3DFACE
  5
1221
  8
0
 10
33.0000
 20
14.0000
 30
30.0000
 11
33.0000
 21
18.0000
 31
30.0000
 12
33.0000
 22
18.0000
 32
44.0000
 13
33.0000
 23
14.0000
 33
44.0000
  0
3DFACE
  5
1222
  8
0
 10
41.0000
 20
14.0000
 30
30.0000
 11
49.0000
 21
14.0000
 31
30.0000
 12
49.0000
 22
18.0000
 32
30.0000
 13
41.0000
 23
18.0000
 33
30.0000
  0
3DFACE
  5
1223
  8
0
 10
41.0000
 20
14.0000
 30
44.0000
 11
49.0000
 21
14.0000
 31
44.0000
 12
49.0000
 22
18.0000
 32
44.0000
 13
41.0000
 23
18.0000
 33
44.0000
  0
3DFACE
  5
1224
  8
0
 10
41.0000
 20
14.0000
 30
30.0000
 11
49.0000
 21
14.0000
 31
30.0000
 12
49.0000
 22
14.0000
 32
44.0000
 13
41.0000
 23
14.0000
 33
44.0000
  0
3DFACE
  5
1225
  8
0
 10
41.0000
 20
18.0000
 30
30.0000
 11
49.0000
 21
18.0000
 31
30.0000
 12
49.0000
 22
18.0000
 32
44.0000
 13
41.0000
 23
18.0000
 33
44.0000
  0
3DFACE
  5
1226
  8
0
 10
41.0000
 20
14.0000
 30
30.0000
 11
41.0000
 21
18.0000
 31
30.0000
 12
41.0000
 22
18.0000
 32
44.0000
 13
41.0000
 23
14.0000
 33
44.0000
  0
3DFACE
  5
1227
  8
0
 10
49.0000
 20
14.0000
 30
30.0000
 11
49.0000
 21
18.0000
 31
30.0000
 12
49.0000
 22
18.0000
 32
44.0000
 13
49.0000
 23
14.0000
 33
44.0000
  0
ENDBLK
  8
0
  0
BLOCK
  8
0
  2
SEWAGE
 70
0
 10
0.0000
 20
0.0000
 30
0.0000
  3
SEWAGE
  1

  0
3DFACE
  5
1228
  8
0
 10
-50.0000
 20
0.0000
 30
-50.0000
 11
50.0000
 21
0.0000
 31
-50.0000
 12
50.0000
 22
12.0000
 32
-50.0000
 13
-50.0000
 23
12.0000
 33
-50.0000
  0
3DFACE
  5
1229
  8
0
 10
-50.0000
 20
0.0000
 30
50.0000
 11
50.0000
 21
0.0000
 31
50.0000
 12
50.0000
 22
12.0000
 32
50.0000
 13
-50.0000
 23
12.0000
 33
50.0000
  0
3DFACE
  5
122A
  8
0
 10
-50.0000
 20
0.0000
 30
-50.0000
 11
50.0000
 21
0.0000
 31
-50.0000
 12
50.0000
 22
0.0000
 32
50.0000
 13
-50.0000
 23
0.0000
 33
50.0000
  0
3DFACE
  5
122B
  8
0
 10
-50.0000
 20
12.0000
 30
-50.0000
 11
50.0000
 21
12.0000
 31
-50.0000
 12
50.0000
 22
12.0000
 32
50.0000
 13
-50.0000
 23
12.0000
 33
50.0000
  0
3DFACE
  5
122C
  8
0
 10
-50.0000
 20
0.0000
 30
-50.0000
 11
-50.0000
 21
12.0000
 31
-50.0000
 12
-50.0000
 22
12.0000
 32
50.0000
 13
-50.0000
 23
0.0000
 33
50.0000
  0
3DFACE
  5
122D
  8
0
 10
50.0000
 20
0.0000
 30
-50.0000
 11
50.0000
 21
12.0000
 31
-50.0000
 12
50.0000
 22
12.0000
 32
50.0000
 13
50.0000
 23
0.0000
 33
50.0000
  0
3DFACE
  5
122E
  8
0
 10
-30.0000
 20
12.0000
 30
-30.0000
 11
30.0000
 21
12.0000
 31
-30.0000
 12
30.0000
 22
40.0000
 32
-30.0000
 13
-30.0000
 23
40.0000
 33
-30.0000
  0
3DFACE
  5
122F
  8
0
 10
-30.0000
 20
12.0000
 30
30.0000
 11
30.0000
 21
12.0000
 31
30.0000
 12
30.0000
 22
40.0000
 32
30.0000
 13
-30.0000
 23
40.0000
 33
30.0000
  0
3DFACE
  5
1230
  8
0
 10
-30.0000
 20
12.0000
 30
-30.0000
 11
30.0000
 21
12.0000
 31
-30.0000
 12
30.0000
 22
12.0000
 32
30.0000
 13
-30.0000
 23
12.0000
 33
30.0000
  0
3DFACE
  5
1231
  8
0
 10
-30.0000
 20
40.0000
 30
-30.0000
 11
30.0000
 21
40.0000
 31
-30.0000
 12
30.0000
 22
40.0000
 32
30.0000
 13
-30.0000
 23
40.0000
 33
30.0000
  0
3DFACE
  5
1232
  8
0
 10
-30.0000
 20
12.0000
 30
-30.0000
 11
-30.0000
 21
40.0000
 31
-30.0000
 12
-30.0000
 22
40.0000
 32
30.0000
 13
-30.0000
 23
12.0000
 33
30.0000
  0
3DFACE
  5
1233
  8
0
 10
30.0000
 20
12.0000
 30
-30.0000
 11
30.0000
 21
40.0000
 31
-30.0000
 12
30.0000
 22
40.0000
 32
30.0000
 13
30.0000
 23
12.0000
 33
30.0000
  0
3DFACE
  5
1234
  8
0
 10
-22.0000
 20
40.0000
 30
-22.0000
 11
22.0000
 21
40.0000
 31
-22.0000
 12
22.0000
 22
60.0000
 32
-22.0000
 13
-22.0000
 23
60.0000
 33
-22.0000
  0
3DFACE
  5
1235
  8
0
 10
-22.0000
 20
40.0000
 30
22.0000
 11
22.0000
 21
40.0000
 31
22.0000
 12
22.0000
 22
60.0000
 32
22.0000
 13
-22.0000
 23
60.0000
 33
22.0000
  0
3DFACE
  5
1236
  8
0
 10
-22.0000
 20
40.0000
 30
-22.0000
 11
22.0000
 21
40.0000
 31
-22.0000
 12
22.0000
 22
40.0000
 32
22.0000
 13
-22.0000
 23
40.0000
 33
22.0000
  0
3DFACE
  5
1237
  8
0
 10
-22.0000
 20
60.0000
 30
-22.0000
 11
22.0000
 21
60.0000
 31
-22.0000
 12
22.0000
 22
60.0000
 32
22.0000
 13
-22.0000
 23
60.0000
 33
22.0000
  0
3DFACE
  5
1238
  8
0
 10
-22.0000
 20
40.0000
 30
-22.0000
 11
-22.0000
 21
60.0000
 31
-22.0000
 12
-22.0000
 22
60.0000
 32
22.0000
 13
-22.0000
 23
40.0000
 33
22.0000
  0
3DFACE
  5
1239
  8
0
 10
22.0000
 20
40.0000
 30
-22.0000
 11
22.0000
 21
60.0000
 31
-22.0000
 12
22.0000
 22
60.0000
 32
22.0000
 13
22.0000
 23
40.0000
 33
22.0000
  0
3DFACE
  5
123A
  8
0
 10
-45.0000
 20
0.0000
 30
-45.0000
 11
-39.0000
 21
0.0000
 31
-45.0000
 12
-39.0000
 22
6.0000
 32
-45.0000
 13
-45.0000
 23
6.0000
 33
-45.0000
  0
3DFACE
  5
123B
  8
0
 10
-45.0000
 20
0.0000
 30
-39.0000
 11
-39.0000
 21
0.0000
 31
-39.0000
 12
-39.0000
 22
6.0000
 32
-39.0000
 13
-45.0000
 23
6.0000
 33
-39.0000
  0
3DFACE
  5
123C
  8
0
 10
-45.0000
 20
0.0000
 30
-45.0000
 11
-39.0000
 21
0.0000
 31
-45.0000
 12
-39.0000
 22
0.0000
 32
-39.0000
 13
-45.0000
 23
0.0000
 33
-39.0000
  0
3DFACE
  5
123D
  8
0
 10
-45.0000
 20
6.0000
 30
-45.0000
 11
-39.0000
 21
6.0000
 31
-45.0000
 12
-39.0000
 22
6.0000
 32
-39.0000
 13
-45.0000
 23
6.0000
 33
-39.0000
  0
3DFACE
  5
123E
  8
0
 10
-45.0000
 20
0.0000
 30
-45.0000
 11
-45.0000
 21
6.0000
 31
-45.0000
 12
-45.0000
 22
6.0000
 32
-39.0000
 13
-45.0000
 23
0.0000
 33
-39.0000
  0
3DFACE
  5
123F
  8
0
 10
-39.0000
 20
0.0000
 30
-45.0000
 11
-39.0000
 21
6.0000
 31
-45.0000
 12
-39.0000
 22
6.0000
 32
-39.0000
 13
-39.0000
 23
0.0000
 33
-39.0000
  0
3DFACE
  5
1240
  8
0
 10
39.0000
 20
0.0000
 30
-45.0000
 11
45.0000
 21
0.0000
 31
-45.0000
 12
45.0000
 22
6.0000
 32
-45.0000
 13
39.0000
 23
6.0000
 33
-45.0000
  0
3DFACE
  5
1241
  8
0
 10
39.0000
 20
0.0000
 30
-39.0000
 11
45.0000
 21
0.0000
 31
-39.0000
 12
45.0000
 22
6.0000
 32
-39.0000
 13
39.0000
 23
6.0000
 33
-39.0000
  0
3DFACE
  5
1242
  8
0
 10
39.0000
 20
0.0000
 30
-45.0000
 11
45.0000
 21
0.0000
 31
-45.0000
 12
45.0000
 22
0.0000
 32
-39.0000
 13
39.0000
 23
0.0000
 33
-39.0000
  0
3DFACE
  5
1243
  8
0
 10
39.0000
 20
6.0000
 30
-45.0000
 11
45.0000
 21
6.0000
 31
-45.0000
 12
45.0000
 22
6.0000
 32
-39.0000
 13
39.0000
 23
6.0000
 33
-39.0000
  0
3DFACE
  5
1244
  8
0
 10
39.0000
 20
0.0000
 30
-45.0000
 11
39.0000
 21
6.0000
 31
-45.0000
 12
39.0000
 22
6.0000
 32
-39.0000
 13
39.0000
 23
0.0000
 33
-39.0000
  0
3DFACE
  5
1245
  8
0
 10
45.0000
 20
0.0000
 30
-45.0000
 11
45.0000
 21
6.0000
 31
-45.0000
 12
45.0000
 22
6.0000
 32
-39.0000
 13
45.0000
 23
0.0000
 33
-39.0000
  0
3DFACE
  5
1246
  8
0
 10
-45.0000
 20
0.0000
 30
39.0000
 11
-39.0000
 21
0.0000
 31
39.0000
 12
-39.0000
 22
6.0000
 32
39.0000
 13
-45.0000
 23
6.0000
 33
39.0000
  0
3DFACE
  5
1247
  8
0
 10
-45.0000
 20
0.0000
 30
45.0000
 11
-39.0000
 21
0.0000
 31
45.0000
 12
-39.0000
 22
6.0000
 32
45.0000
 13
-45.0000
 23
6.0000
 33
45.0000
  0
3DFACE
  5
1248
  8
0
 10
-45.0000
 20
0.0000
 30
39.0000
 11
-39.0000
 21
0.0000
 31
39.0000
 12
-39.0000
 22
0.0000
 32
45.0000
 13
-45.0000
 23
0.0000
 33
45.0000
  0
3DFACE
  5
1249
  8
0
 10
-45.0000
 20
6.0000
 30
39.0000
 11
-39.0000
 21
6.0000
 31
39.0000
 12
-39.0000
 22
6.0000
 32
45.0000
 13
-45.0000
 23
6.0000
 33
45.0000
  0
3DFACE
  5
124A
  8
0
 10
-45.0000
 20
0.0000
 30
39.0000
 11
-45.0000
 21
6.0000
 31
39.0000
 12
-45.0000
 22
6.0000
 32
45.0000
 13
-45.0000
 23
0.0000
 33
45.0000
  0
3DFACE
  5
124B
  8
0
 10
-39.0000
 20
0.0000
 30
39.0000
 11
-39.0000
 21
6.0000
 31
39.0000
 12
-39.0000
 22
6.0000
 32
45.0000
 13
-39.0000
 23
0.0000
 33
45.0000
  0
3DFACE
  5
124C
  8
0
 10
39.0000
 20
0.0000
 30
39.0000
 11
45.0000
 21
0.0000
 31
39.0000
 12
45.0000
 22
6.0000
 32
39.0000
 13
39.0000
 23
6.0000
 33
39.0000
  0
3DFACE
  5
124D
  8
0
 10
39.0000
 20
0.0000
 30
45.0000
 11
45.0000
 21
0.0000
 31
45.0000
 12
45.0000
 22
6.0000
 32
45.0000
 13
39.0000
 23
6.0000
 33
45.0000
  0
3DFACE
  5
124E
  8
0
 10
39.0000
 20
0.0000
 30
39.0000
 11
45.0000
 21
0.0000
 31
39.0000
 12
45.0000
 22
0.0000
 32
45.0000
 13
39.0000
 23
0.0000
 33
45.0000
  0
3DFACE
  5
124F
  8
0
 10
39.0000
 20
6.0000
 30
39.0000
 11
45.0000
 21
6.0000
 31
39.0000
 12
45.0000
 22
6.0000
 32
45.0000
 13
39.0000
 23
6.0000
 33
45.0000
  0
3DFACE
  5
1250
  8
0
 10
39.0000
 20
0.0000
 30
39.0000
 11
39.0000
 21
6.0000
 31
39.0000
 12
39.0000
 22
6.0000
 32
45.0000
 13
39.0000
 23
0.0000
 33
45.0000
  0
3DFACE
  5
1251
  8
0
 10
45.0000
 20
0.0000
 30
39.0000
 11
45.0000
 21
6.0000
 31
39.0000
 12
45.0000
 22
6.0000
 32
45.0000
 13
45.0000
 23
0.0000
 33
45.0000
  0
ENDBLK
  8
0
  0
BLOCK
  8
0
  2
LIGHTING
 70
0
 10
0.0000
 20
0.0000
 30
0.0000
  3
LIGHTING
  1

  0
3DFACE
  5
1252
  8
0
 10
-60.0000
 20
-30.0000
 30
-60.0000
 11
60.0000
 21
-30.0000
 31
-60.0000
 12
60.0000
 22
0.0000
 32
-60.0000
 13
-60.0000
 23
0.0000
 33
-60.0000
  0
3DFACE
  5
1253
  8
0
 10
-60.0000
 20
-30.0000
 30
60.0000
 11
60.0000
 21
-30.0000
 31
60.0000
 12
60.0000
 22
0.0000
 32
60.0000
 13
-60.0000
 23
0.0000
 33
60.0000
  0
3DFACE
  5
1254
  8
0
 10
-60.0000
 20
-30.0000
 30
-60.0000
 11
60.0000
 21
-30.0000
 31
-60.0000
 12
60.0000
 22
-30.0000
 32
60.0000
 13
-60.0000
 23
-30.0000
 33
60.0000
  0
3DFACE
  5
1255
  8
0
 10
-60.0000
 20
0.0000
 30
-60.0000
 11
60.0000
 21
0.0000
 31
-60.0000
 12
60.0000
 22
0.0000
 32
60.0000
 13
-60.0000
 23
0.0000
 33
60.0000
  0
3DFACE
  5
1256
  8
0
 10
-60.0000
 20
-30.0000
 30
-60.0000
 11
-60.0000
 21
0.0000
 31
-60.0000
 12
-60.0000
 22
0.0000
 32
60.0000
 13
-60.0000
 23
-30.0000
 33
60.0000
  0
3DFACE
  5
1257
  8
0
 10
60.0000
 20
-30.0000
 30
-60.0000
 11
60.0000
 21
0.0000
 31
-60.0000
 12
60.0000
 22
0.0000
 32
60.0000
 13
60.0000
 23
-30.0000
 33
60.0000
  0
3DFACE
  5
1258
  8
0
 10
-50.0000
 20
0.0000
 30
-50.0000
 11
50.0000
 21
0.0000
 31
-50.0000
 12
50.0000
 22
6.0000
 32
-50.0000
 13
-50.0000
 23
6.0000
 33
-50.0000
  0
3DFACE
  5
1259
  8
0
 10
-50.0000
 20
0.0000
 30
50.0000
 11
50.0000
 21
0.0000
 31
50.0000
 12
50.0000
 22
6.0000
 32
50.0000
 13
-50.0000
 23
6.0000
 33
50.0000
  0
3DFACE
  5
125A
  8
0
 10
-50.0000
 20
0.0000
 30
-50.0000
 11
50.0000
 21
0.0000
 31
-50.0000
 12
50.0000
 22
0.0000
 32
50.0000
 13
-50.0000
 23
0.0000
 33
50.0000
  0
3DFACE
  5
125B
  8
0
 10
-50.0000
 20
6.0000
 30
-50.0000
 11
50.0000
 21
6.0000
 31
-50.0000
 12
50.0000
 22
6.0000
 32
50.0000
 13
-50.0000
 23
6.0000
 33
50.0000
  0
3DFACE
  5
125C
  8
0
 10
-50.0000
 20
0.0000
 30
-50.0000
 11
-50.0000
 21
6.0000
 31
-50.0000
 12
-50.0000
 22
6.0000
 32
50.0000
 13
-50.0000
 23
0.0000
 33
50.0000
  0
3DFACE
  5
125D
  8
0
 10
50.0000
 20
0.0000
 30
-50.0000
 11
50.0000
 21
6.0000
 31
-50.0000
 12
50.0000
 22
6.0000
 32
50.0000
 13
50.0000
 23
0.0000
 33
50.0000
  0
3DFACE
  5
125E
  8
0
 10
-64.0000
 20
-6.0000
 30
-64.0000
 11
64.0000
 21
-6.0000
 31
-64.0000
 12
64.0000
 22
0.0000
 32
-64.0000
 13
-64.0000
 23
0.0000
 33
-64.0000
  0
3DFACE
  5
125F
  8
0
 10
-64.0000
 20
-6.0000
 30
64.0000
 11
64.0000
 21
-6.0000
 31
64.0000
 12
64.0000
 22
0.0000
 32
64.0000
 13
-64.0000
 23
0.0000
 33
64.0000
  0
3DFACE
  5
1260
  8
0
 10
-64.0000
 20
-6.0000
 30
-64.0000
 11
64.0000
 21
-6.0000
 31
-64.0000
 12
64.0000
 22
-6.0000
 32
64.0000
 13
-64.0000
 23
-6.0000
 33
64.0000
  0
3DFACE
  5
1261
  8
0
 10
-64.0000
 20
0.0000
 30
-64.0000
 11
64.0000
 21
0.0000
 31
-64.0000
 12
64.0000
 22
0.0000
 32
64.0000
 13
-64.0000
 23
0.0000
 33
64.0000
  0
3DFACE
  5
1262
  8
0
 10
-64.0000
 20
-6.0000
 30
-64.0000
 11
-64.0000
 21
0.0000
 31
-64.0000
 12
-64.0000
 22
0.0000
 32
64.0000
 13
-64.0000
 23
-6.0000
 33
64.0000
  0
3DFACE
  5
1263
  8
0
 10
64.0000
 20
-6.0000
 30
-64.0000
 11
64.0000
 21
0.0000
 31
-64.0000
 12
64.0000
 22
0.0000
 32
64.0000
 13
64.0000
 23
-6.0000
 33
64.0000
  0
3DFACE
  5
1264
  8
0
 10
-30.0000
 20
2.0000
 30
-30.0000
 11
30.0000
 21
2.0000
 31
-30.0000
 12
30.0000
 22
8.0000
 32
-30.0000
 13
-30.0000
 23
8.0000
 33
-30.0000
  0
3DFACE
  5
1265
  8
0
 10
-30.0000
 20
2.0000
 30
30.0000
 11
30.0000
 21
2.0000
 31
30.0000
 12
30.0000
 22
8.0000
 32
30.0000
 13
-30.0000
 23
8.0000
 33
30.0000
  0
3DFACE
  5
1266
  8
0
 10
-30.0000
 20
2.0000
 30
-30.0000
 11
30.0000
 21
2.0000
 31
-30.0000
 12
30.0000
 22
2.0000
 32
30.0000
 13
-30.0000
 23
2.0000
 33
30.0000
  0
3DFACE
  5
1267
  8
0
 10
-30.0000
 20
8.0000
 30
-30.0000
 11
30.0000
 21
8.0000
 31
-30.0000
 12
30.0000
 22
8.0000
 32
30.0000
 13
-30.0000
 23
8.0000
 33
30.0000
  0
3DFACE
  5
1268
  8
0
 10
-30.0000
 20
2.0000
 30
-30.0000
 11
-30.0000
 21
8.0000
 31
-30.0000
 12
-30.0000
 22
8.0000
 32
30.0000
 13
-30.0000
 23
2.0000
 33
30.0000
  0
3DFACE
  5
1269
  8
0
 10
30.0000
 20
2.0000
 30
-30.0000
 11
30.0000
 21
8.0000
 31
-30.0000
 12
30.0000
 22
8.0000
 32
30.0000
 13
30.0000
 23
2.0000
 33
30.0000
  0
ENDBLK
  8
0
  0
ENDSEC
  0
SECTION
  2
ENTITIES
  0
3DFACE
  5
1000
  8
ריצוף
 10
3670.0000
 20
-9622.0000
 30
0.0000
 11
3670.0000
 21
-17165.0000
 31
0.0000
 12
9053.0000
 22
-17165.0000
 32
0.0000
 13
9053.0000
 23
-17165.0000
 33
0.0000
 70
15
  0
3DFACE
  5
1001
  8
ריצוף
 10
3670.0000
 20
-9622.0000
 30
-40.0000
 11
9053.0000
 21
-17165.0000
 31
-40.0000
 12
3670.0000
 22
-17165.0000
 32
-40.0000
 13
3670.0000
 23
-17165.0000
 33
-40.0000
 70
15
  0
3DFACE
  5
1002
  8
ריצוף
 10
9053.0000
 20
-17165.0000
 30
0.0000
 11
9053.0000
 21
-9622.0000
 31
0.0000
 12
3670.0000
 22
-9622.0000
 32
0.0000
 13
3670.0000
 23
-9622.0000
 33
0.0000
 70
15
  0
3DFACE
  5
1003
  8
ריצוף
 10
9053.0000
 20
-17165.0000
 30
-40.0000
 11
3670.0000
 21
-9622.0000
 31
-40.0000
 12
9053.0000
 22
-9622.0000
 32
-40.0000
 13
9053.0000
 23
-9622.0000
 33
-40.0000
 70
15
  0
3DFACE
  5
1004
  8
ריצוף
 10
3670.0000
 20
-17165.0000
 30
-40.0000
 11
9053.0000
 21
-17165.0000
 31
-40.0000
 12
9053.0000
 22
-17165.0000
 32
0.0000
 13
3670.0000
 23
-17165.0000
 33
0.0000
 70
15
  0
3DFACE
  5
1005
  8
ריצוף
 10
9053.0000
 20
-17165.0000
 30
-40.0000
 11
9053.0000
 21
-9622.0000
 31
-40.0000
 12
9053.0000
 22
-9622.0000
 32
0.0000
 13
9053.0000
 23
-17165.0000
 33
0.0000
 70
15
  0
3DFACE
  5
1006
  8
ריצוף
 10
9053.0000
 20
-9622.0000
 30
-40.0000
 11
3670.0000
 21
-9622.0000
 31
-40.0000
 12
3670.0000
 22
-9622.0000
 32
0.0000
 13
9053.0000
 23
-9622.0000
 33
0.0000
 70
15
  0
3DFACE
  5
1007
  8
ריצוף
 10
3670.0000
 20
-9622.0000
 30
-40.0000
 11
3670.0000
 21
-17165.0000
 31
-40.0000
 12
3670.0000
 22
-17165.0000
 32
0.0000
 13
3670.0000
 23
-9622.0000
 33
0.0000
 70
15
  0
3DFACE
  5
1008
  8
קירות
 10
7146.0000
 20
-12644.0000
 30
0.0000
 11
7146.0000
 21
-16297.0000
 31
0.0000
 12
7246.0000
 22
-16297.0000
 32
0.0000
 13
7246.0000
 23
-12644.0000
 33
0.0000
 70
15
  0
3DFACE
  5
1009
  8
קירות
 10
7146.0000
 20
-12644.0000
 30
2792.0000
 11
7146.0000
 21
-16297.0000
 31
2792.0000
 12
7246.0000
 22
-16297.0000
 32
2792.0000
 13
7246.0000
 23
-12644.0000
 33
2792.0000
 70
15
  0
3DFACE
  5
100A
  8
קירות
 10
7146.0000
 20
-12644.0000
 30
0.0000
 11
7146.0000
 21
-16297.0000
 31
0.0000
 12
7146.0000
 22
-16297.0000
 32
2792.0000
 13
7146.0000
 23
-12644.0000
 33
2792.0000
 70
15
  0
3DFACE
  5
100B
  8
קירות
 10
7246.0000
 20
-12644.0000
 30
0.0000
 11
7246.0000
 21
-16297.0000
 31
0.0000
 12
7246.0000
 22
-16297.0000
 32
2792.0000
 13
7246.0000
 23
-12644.0000
 33
2792.0000
 70
15
  0
3DFACE
  5
100C
  8
קירות
 10
7146.0000
 20
-12644.0000
 30
0.0000
 11
7246.0000
 21
-12644.0000
 31
0.0000
 12
7246.0000
 22
-12644.0000
 32
2792.0000
 13
7146.0000
 23
-12644.0000
 33
2792.0000
 70
15
  0
3DFACE
  5
100D
  8
קירות
 10
7146.0000
 20
-16297.0000
 30
0.0000
 11
7246.0000
 21
-16297.0000
 31
0.0000
 12
7246.0000
 22
-16297.0000
 32
2792.0000
 13
7146.0000
 23
-16297.0000
 33
2792.0000
 70
15
  0
3DFACE
  5
100E
  8
קירות
 10
7246.0000
 20
-16197.0000
 30
0.0000
 11
6552.0000
 21
-16197.0000
 31
0.0000
 12
6552.0000
 22
-16297.0000
 32
0.0000
 13
7246.0000
 23
-16297.0000
 33
0.0000
 70
15
  0
3DFACE
  5
100F
  8
קירות
 10
7246.0000
 20
-16197.0000
 30
2792.0000
 11
6552.0000
 21
-16197.0000
 31
2792.0000
 12
6552.0000
 22
-16297.0000
 32
2792.0000
 13
7246.0000
 23
-16297.0000
 33
2792.0000
 70
15
  0
3DFACE
  5
1010
  8
קירות
 10
7246.0000
 20
-16197.0000
 30
0.0000
 11
6552.0000
 21
-16197.0000
 31
0.0000
 12
6552.0000
 22
-16197.0000
 32
2792.0000
 13
7246.0000
 23
-16197.0000
 33
2792.0000
 70
15
  0
3DFACE
  5
1011
  8
קירות
 10
7246.0000
 20
-16297.0000
 30
0.0000
 11
6552.0000
 21
-16297.0000
 31
0.0000
 12
6552.0000
 22
-16297.0000
 32
2792.0000
 13
7246.0000
 23
-16297.0000
 33
2792.0000
 70
15
  0
3DFACE
  5
1012
  8
קירות
 10
7246.0000
 20
-16197.0000
 30
0.0000
 11
7246.0000
 21
-16297.0000
 31
0.0000
 12
7246.0000
 22
-16297.0000
 32
2792.0000
 13
7246.0000
 23
-16197.0000
 33
2792.0000
 70
15
  0
3DFACE
  5
1013
  8
קירות
 10
6552.0000
 20
-16197.0000
 30
0.0000
 11
6552.0000
 21
-16297.0000
 31
0.0000
 12
6552.0000
 22
-16297.0000
 32
2792.0000
 13
6552.0000
 23
-16197.0000
 33
2792.0000
 70
15
  0
3DFACE
  5
1014
  8
קירות
 10
6652.0000
 20
-16097.0000
 30
0.0000
 11
6652.0000
 21
-17265.0000
 31
0.0000
 12
6752.0000
 22
-17265.0000
 32
0.0000
 13
6752.0000
 23
-16097.0000
 33
0.0000
 70
15
  0
3DFACE
  5
1015
  8
קירות
 10
6652.0000
 20
-16097.0000
 30
2792.0000
 11
6652.0000
 21
-17265.0000
 31
2792.0000
 12
6752.0000
 22
-17265.0000
 32
2792.0000
 13
6752.0000
 23
-16097.0000
 33
2792.0000
 70
15
  0
3DFACE
  5
1016
  8
קירות
 10
6652.0000
 20
-16097.0000
 30
0.0000
 11
6652.0000
 21
-17265.0000
 31
0.0000
 12
6652.0000
 22
-17265.0000
 32
2792.0000
 13
6652.0000
 23
-16097.0000
 33
2792.0000
 70
15
  0
3DFACE
  5
1017
  8
קירות
 10
6752.0000
 20
-16097.0000
 30
0.0000
 11
6752.0000
 21
-17265.0000
 31
0.0000
 12
6752.0000
 22
-17265.0000
 32
2792.0000
 13
6752.0000
 23
-16097.0000
 33
2792.0000
 70
15
  0
3DFACE
  5
1018
  8
קירות
 10
6652.0000
 20
-16097.0000
 30
0.0000
 11
6752.0000
 21
-16097.0000
 31
0.0000
 12
6752.0000
 22
-16097.0000
 32
2792.0000
 13
6652.0000
 23
-16097.0000
 33
2792.0000
 70
15
  0
3DFACE
  5
1019
  8
קירות
 10
6652.0000
 20
-17265.0000
 30
0.0000
 11
6752.0000
 21
-17265.0000
 31
0.0000
 12
6752.0000
 22
-17265.0000
 32
2792.0000
 13
6652.0000
 23
-17265.0000
 33
2792.0000
 70
15
  0
3DFACE
  5
101A
  8
קירות
 10
6752.0000
 20
-17165.0000
 30
0.0000
 11
6173.5000
 21
-17165.0000
 31
0.0000
 12
6173.5000
 22
-17265.0000
 32
0.0000
 13
6752.0000
 23
-17265.0000
 33
0.0000
 70
15
  0
3DFACE
  5
101B
  8
קירות
 10
6752.0000
 20
-17165.0000
 30
2792.0000
 11
6173.5000
 21
-17165.0000
 31
2792.0000
 12
6173.5000
 22
-17265.0000
 32
2792.0000
 13
6752.0000
 23
-17265.0000
 33
2792.0000
 70
15
  0
3DFACE
  5
101C
  8
קירות
 10
6752.0000
 20
-17165.0000
 30
0.0000
 11
6173.5000
 21
-17165.0000
 31
0.0000
 12
6173.5000
 22
-17165.0000
 32
2792.0000
 13
6752.0000
 23
-17165.0000
 33
2792.0000
 70
15
  0
3DFACE
  5
101D
  8
קירות
 10
6752.0000
 20
-17265.0000
 30
0.0000
 11
6173.5000
 21
-17265.0000
 31
0.0000
 12
6173.5000
 22
-17265.0000
 32
2792.0000
 13
6752.0000
 23
-17265.0000
 33
2792.0000
 70
15
  0
3DFACE
  5
101E
  8
קירות
 10
6752.0000
 20
-17165.0000
 30
0.0000
 11
6752.0000
 21
-17265.0000
 31
0.0000
 12
6752.0000
 22
-17265.0000
 32
2792.0000
 13
6752.0000
 23
-17165.0000
 33
2792.0000
 70
15
  0
3DFACE
  5
101F
  8
קירות
 10
6173.5000
 20
-17165.0000
 30
0.0000
 11
6173.5000
 21
-17265.0000
 31
0.0000
 12
6173.5000
 22
-17265.0000
 32
2792.0000
 13
6173.5000
 23
-17165.0000
 33
2792.0000
 70
15
  0
3DFACE
  5
1020
  8
קירות
 10
6173.5000
 20
-17165.0000
 30
1989.0000
 11
4712.5000
 21
-17165.0000
 31
1989.0000
 12
4712.5000
 22
-17265.0000
 32
1989.0000
 13
6173.5000
 23
-17265.0000
 33
1989.0000
 70
15
  0
3DFACE
  5
1021
  8
קירות
 10
6173.5000
 20
-17165.0000
 30
2792.0000
 11
4712.5000
 21
-17165.0000
 31
2792.0000
 12
4712.5000
 22
-17265.0000
 32
2792.0000
 13
6173.5000
 23
-17265.0000
 33
2792.0000
 70
15
  0
3DFACE
  5
1022
  8
קירות
 10
6173.5000
 20
-17165.0000
 30
1989.0000
 11
4712.5000
 21
-17165.0000
 31
1989.0000
 12
4712.5000
 22
-17165.0000
 32
2792.0000
 13
6173.5000
 23
-17165.0000
 33
2792.0000
 70
15
  0
3DFACE
  5
1023
  8
קירות
 10
6173.5000
 20
-17265.0000
 30
1989.0000
 11
4712.5000
 21
-17265.0000
 31
1989.0000
 12
4712.5000
 22
-17265.0000
 32
2792.0000
 13
6173.5000
 23
-17265.0000
 33
2792.0000
 70
15
  0
3DFACE
  5
1024
  8
קירות
 10
6173.5000
 20
-17165.0000
 30
1989.0000
 11
6173.5000
 21
-17265.0000
 31
1989.0000
 12
6173.5000
 22
-17265.0000
 32
2792.0000
 13
6173.5000
 23
-17165.0000
 33
2792.0000
 70
15
  0
3DFACE
  5
1025
  8
קירות
 10
4712.5000
 20
-17165.0000
 30
1989.0000
 11
4712.5000
 21
-17265.0000
 31
1989.0000
 12
4712.5000
 22
-17265.0000
 32
2792.0000
 13
4712.5000
 23
-17165.0000
 33
2792.0000
 70
15
  0
3DFACE
  5
1026
  8
קירות
 10
4712.5000
 20
-17165.0000
 30
0.0000
 11
3570.0000
 21
-17165.0000
 31
0.0000
 12
3570.0000
 22
-17265.0000
 32
0.0000
 13
4712.5000
 23
-17265.0000
 33
0.0000
 70
15
  0
3DFACE
  5
1027
  8
קירות
 10
4712.5000
 20
-17165.0000
 30
2792.0000
 11
3570.0000
 21
-17165.0000
 31
2792.0000
 12
3570.0000
 22
-17265.0000
 32
2792.0000
 13
4712.5000
 23
-17265.0000
 33
2792.0000
 70
15
  0
3DFACE
  5
1028
  8
קירות
 10
4712.5000
 20
-17165.0000
 30
0.0000
 11
3570.0000
 21
-17165.0000
 31
0.0000
 12
3570.0000
 22
-17165.0000
 32
2792.0000
 13
4712.5000
 23
-17165.0000
 33
2792.0000
 70
15
  0
3DFACE
  5
1029
  8
קירות
 10
4712.5000
 20
-17265.0000
 30
0.0000
 11
3570.0000
 21
-17265.0000
 31
0.0000
 12
3570.0000
 22
-17265.0000
 32
2792.0000
 13
4712.5000
 23
-17265.0000
 33
2792.0000
 70
15
  0
3DFACE
  5
102A
  8
קירות
 10
4712.5000
 20
-17165.0000
 30
0.0000
 11
4712.5000
 21
-17265.0000
 31
0.0000
 12
4712.5000
 22
-17265.0000
 32
2792.0000
 13
4712.5000
 23
-17165.0000
 33
2792.0000
 70
15
  0
3DFACE
  5
102B
  8
קירות
 10
3570.0000
 20
-17165.0000
 30
0.0000
 11
3570.0000
 21
-17265.0000
 31
0.0000
 12
3570.0000
 22
-17265.0000
 32
2792.0000
 13
3570.0000
 23
-17165.0000
 33
2792.0000
 70
15
  0
3DFACE
  5
102C
  8
קירות
 10
3670.0000
 20
-17265.0000
 30
0.0000
 11
3670.0000
 21
-17163.5000
 31
0.0000
 12
3570.0000
 22
-17163.5000
 32
0.0000
 13
3570.0000
 23
-17265.0000
 33
0.0000
 70
15
  0
3DFACE
  5
102D
  8
קירות
 10
3670.0000
 20
-17265.0000
 30
2792.0000
 11
3670.0000
 21
-17163.5000
 31
2792.0000
 12
3570.0000
 22
-17163.5000
 32
2792.0000
 13
3570.0000
 23
-17265.0000
 33
2792.0000
 70
15
  0
3DFACE
  5
102E
  8
קירות
 10
3670.0000
 20
-17265.0000
 30
0.0000
 11
3670.0000
 21
-17163.5000
 31
0.0000
 12
3670.0000
 22
-17163.5000
 32
2792.0000
 13
3670.0000
 23
-17265.0000
 33
2792.0000
 70
15
  0
3DFACE
  5
102F
  8
קירות
 10
3570.0000
 20
-17265.0000
 30
0.0000
 11
3570.0000
 21
-17163.5000
 31
0.0000
 12
3570.0000
 22
-17163.5000
 32
2792.0000
 13
3570.0000
 23
-17265.0000
 33
2792.0000
 70
15
  0
3DFACE
  5
1030
  8
קירות
 10
3670.0000
 20
-17265.0000
 30
0.0000
 11
3570.0000
 21
-17265.0000
 31
0.0000
 12
3570.0000
 22
-17265.0000
 32
2792.0000
 13
3670.0000
 23
-17265.0000
 33
2792.0000
 70
15
  0
3DFACE
  5
1031
  8
קירות
 10
3670.0000
 20
-17163.5000
 30
0.0000
 11
3570.0000
 21
-17163.5000
 31
0.0000
 12
3570.0000
 22
-17163.5000
 32
2792.0000
 13
3670.0000
 23
-17163.5000
 33
2792.0000
 70
15
  0
3DFACE
  5
1032
  8
קירות
 10
3670.0000
 20
-17163.5000
 30
2410.0000
 11
3670.0000
 21
-14670.5000
 31
2410.0000
 12
3570.0000
 22
-14670.5000
 32
2410.0000
 13
3570.0000
 23
-17163.5000
 33
2410.0000
 70
15
  0
3DFACE
  5
1033
  8
קירות
 10
3670.0000
 20
-17163.5000
 30
2792.0000
 11
3670.0000
 21
-14670.5000
 31
2792.0000
 12
3570.0000
 22
-14670.5000
 32
2792.0000
 13
3570.0000
 23
-17163.5000
 33
2792.0000
 70
15
  0
3DFACE
  5
1034
  8
קירות
 10
3670.0000
 20
-17163.5000
 30
2410.0000
 11
3670.0000
 21
-14670.5000
 31
2410.0000
 12
3670.0000
 22
-14670.5000
 32
2792.0000
 13
3670.0000
 23
-17163.5000
 33
2792.0000
 70
15
  0
3DFACE
  5
1035
  8
קירות
 10
3570.0000
 20
-17163.5000
 30
2410.0000
 11
3570.0000
 21
-14670.5000
 31
2410.0000
 12
3570.0000
 22
-14670.5000
 32
2792.0000
 13
3570.0000
 23
-17163.5000
 33
2792.0000
 70
15
  0
3DFACE
  5
1036
  8
קירות
 10
3670.0000
 20
-17163.5000
 30
2410.0000
 11
3570.0000
 21
-17163.5000
 31
2410.0000
 12
3570.0000
 22
-17163.5000
 32
2792.0000
 13
3670.0000
 23
-17163.5000
 33
2792.0000
 70
15
  0
3DFACE
  5
1037
  8
קירות
 10
3670.0000
 20
-14670.5000
 30
2410.0000
 11
3570.0000
 21
-14670.5000
 31
2410.0000
 12
3570.0000
 22
-14670.5000
 32
2792.0000
 13
3670.0000
 23
-14670.5000
 33
2792.0000
 70
15
  0
3DFACE
  5
1038
  8
קירות
 10
3670.0000
 20
-14670.5000
 30
0.0000
 11
3670.0000
 21
-13163.0000
 31
0.0000
 12
3570.0000
 22
-13163.0000
 32
0.0000
 13
3570.0000
 23
-14670.5000
 33
0.0000
 70
15
  0
3DFACE
  5
1039
  8
קירות
 10
3670.0000
 20
-14670.5000
 30
2792.0000
 11
3670.0000
 21
-13163.0000
 31
2792.0000
 12
3570.0000
 22
-13163.0000
 32
2792.0000
 13
3570.0000
 23
-14670.5000
 33
2792.0000
 70
15
  0
3DFACE
  5
103A
  8
קירות
 10
3670.0000
 20
-14670.5000
 30
0.0000
 11
3670.0000
 21
-13163.0000
 31
0.0000
 12
3670.0000
 22
-13163.0000
 32
2792.0000
 13
3670.0000
 23
-14670.5000
 33
2792.0000
 70
15
  0
3DFACE
  5
103B
  8
קירות
 10
3570.0000
 20
-14670.5000
 30
0.0000
 11
3570.0000
 21
-13163.0000
 31
0.0000
 12
3570.0000
 22
-13163.0000
 32
2792.0000
 13
3570.0000
 23
-14670.5000
 33
2792.0000
 70
15
  0
3DFACE
  5
103C
  8
קירות
 10
3670.0000
 20
-14670.5000
 30
0.0000
 11
3570.0000
 21
-14670.5000
 31
0.0000
 12
3570.0000
 22
-14670.5000
 32
2792.0000
 13
3670.0000
 23
-14670.5000
 33
2792.0000
 70
15
  0
3DFACE
  5
103D
  8
קירות
 10
3670.0000
 20
-13163.0000
 30
0.0000
 11
3570.0000
 21
-13163.0000
 31
0.0000
 12
3570.0000
 22
-13163.0000
 32
2792.0000
 13
3670.0000
 23
-13163.0000
 33
2792.0000
 70
15
  0
3DFACE
  5
103E
  8
קירות
 10
3570.0000
 20
-13263.0000
 30
0.0000
 11
4983.0000
 21
-13263.0000
 31
0.0000
 12
4983.0000
 22
-13163.0000
 32
0.0000
 13
3570.0000
 23
-13163.0000
 33
0.0000
 70
15
  0
3DFACE
  5
103F
  8
קירות
 10
3570.0000
 20
-13263.0000
 30
2792.0000
 11
4983.0000
 21
-13263.0000
 31
2792.0000
 12
4983.0000
 22
-13163.0000
 32
2792.0000
 13
3570.0000
 23
-13163.0000
 33
2792.0000
 70
15
  0
3DFACE
  5
1040
  8
קירות
 10
3570.0000
 20
-13263.0000
 30
0.0000
 11
4983.0000
 21
-13263.0000
 31
0.0000
 12
4983.0000
 22
-13263.0000
 32
2792.0000
 13
3570.0000
 23
-13263.0000
 33
2792.0000
 70
15
  0
3DFACE
  5
1041
  8
קירות
 10
3570.0000
 20
-13163.0000
 30
0.0000
 11
4983.0000
 21
-13163.0000
 31
0.0000
 12
4983.0000
 22
-13163.0000
 32
2792.0000
 13
3570.0000
 23
-13163.0000
 33
2792.0000
 70
15
  0
3DFACE
  5
1042
  8
קירות
 10
3570.0000
 20
-13263.0000
 30
0.0000
 11
3570.0000
 21
-13163.0000
 31
0.0000
 12
3570.0000
 22
-13163.0000
 32
2792.0000
 13
3570.0000
 23
-13263.0000
 33
2792.0000
 70
15
  0
3DFACE
  5
1043
  8
קירות
 10
4983.0000
 20
-13263.0000
 30
0.0000
 11
4983.0000
 21
-13163.0000
 31
0.0000
 12
4983.0000
 22
-13163.0000
 32
2792.0000
 13
4983.0000
 23
-13263.0000
 33
2792.0000
 70
15
  0
3DFACE
  5
1044
  8
קירות
 10
4883.0000
 20
-13363.0000
 30
0.0000
 11
4883.0000
 21
-12774.0000
 31
0.0000
 12
4783.0000
 22
-12774.0000
 32
0.0000
 13
4783.0000
 23
-13363.0000
 33
0.0000
 70
15
  0
3DFACE
  5
1045
  8
קירות
 10
4883.0000
 20
-13363.0000
 30
2792.0000
 11
4883.0000
 21
-12774.0000
 31
2792.0000
 12
4783.0000
 22
-12774.0000
 32
2792.0000
 13
4783.0000
 23
-13363.0000
 33
2792.0000
 70
15
  0
3DFACE
  5
1046
  8
קירות
 10
4883.0000
 20
-13363.0000
 30
0.0000
 11
4883.0000
 21
-12774.0000
 31
0.0000
 12
4883.0000
 22
-12774.0000
 32
2792.0000
 13
4883.0000
 23
-13363.0000
 33
2792.0000
 70
15
  0
3DFACE
  5
1047
  8
קירות
 10
4783.0000
 20
-13363.0000
 30
0.0000
 11
4783.0000
 21
-12774.0000
 31
0.0000
 12
4783.0000
 22
-12774.0000
 32
2792.0000
 13
4783.0000
 23
-13363.0000
 33
2792.0000
 70
15
  0
3DFACE
  5
1048
  8
קירות
 10
4883.0000
 20
-13363.0000
 30
0.0000
 11
4783.0000
 21
-13363.0000
 31
0.0000
 12
4783.0000
 22
-13363.0000
 32
2792.0000
 13
4883.0000
 23
-13363.0000
 33
2792.0000
 70
15
  0
3DFACE
  5
1049
  8
קירות
 10
4883.0000
 20
-12774.0000
 30
0.0000
 11
4783.0000
 21
-12774.0000
 31
0.0000
 12
4783.0000
 22
-12774.0000
 32
2792.0000
 13
4883.0000
 23
-12774.0000
 33
2792.0000
 70
15
  0
3DFACE
  5
104A
  8
קירות
 10
4883.0000
 20
-12774.0000
 30
0.0000
 11
4883.0000
 21
-11306.0000
 31
0.0000
 12
4783.0000
 22
-11306.0000
 32
0.0000
 13
4783.0000
 23
-12774.0000
 33
0.0000
 70
15
  0
3DFACE
  5
104B
  8
קירות
 10
4883.0000
 20
-12774.0000
 30
407.5000
 11
4883.0000
 21
-11306.0000
 31
407.5000
 12
4783.0000
 22
-11306.0000
 32
407.5000
 13
4783.0000
 23
-12774.0000
 33
407.5000
 70
15
  0
3DFACE
  5
104C
  8
קירות
 10
4883.0000
 20
-12774.0000
 30
0.0000
 11
4883.0000
 21
-11306.0000
 31
0.0000
 12
4883.0000
 22
-11306.0000
 32
407.5000
 13
4883.0000
 23
-12774.0000
 33
407.5000
 70
15
  0
3DFACE
  5
104D
  8
קירות
 10
4783.0000
 20
-12774.0000
 30
0.0000
 11
4783.0000
 21
-11306.0000
 31
0.0000
 12
4783.0000
 22
-11306.0000
 32
407.5000
 13
4783.0000
 23
-12774.0000
 33
407.5000
 70
15
  0
3DFACE
  5
104E
  8
קירות
 10
4883.0000
 20
-12774.0000
 30
0.0000
 11
4783.0000
 21
-12774.0000
 31
0.0000
 12
4783.0000
 22
-12774.0000
 32
407.5000
 13
4883.0000
 23
-12774.0000
 33
407.5000
 70
15
  0
3DFACE
  5
104F
  8
קירות
 10
4883.0000
 20
-11306.0000
 30
0.0000
 11
4783.0000
 21
-11306.0000
 31
0.0000
 12
4783.0000
 22
-11306.0000
 32
407.5000
 13
4883.0000
 23
-11306.0000
 33
407.5000
 70
15
  0
3DFACE
  5
1050
  8
קירות
 10
4883.0000
 20
-12774.0000
 30
1722.5000
 11
4883.0000
 21
-11306.0000
 31
1722.5000
 12
4783.0000
 22
-11306.0000
 32
1722.5000
 13
4783.0000
 23
-12774.0000
 33
1722.5000
 70
15
  0
3DFACE
  5
1051
  8
קירות
 10
4883.0000
 20
-12774.0000
 30
2792.0000
 11
4883.0000
 21
-11306.0000
 31
2792.0000
 12
4783.0000
 22
-11306.0000
 32
2792.0000
 13
4783.0000
 23
-12774.0000
 33
2792.0000
 70
15
  0
3DFACE
  5
1052
  8
קירות
 10
4883.0000
 20
-12774.0000
 30
1722.5000
 11
4883.0000
 21
-11306.0000
 31
1722.5000
 12
4883.0000
 22
-11306.0000
 32
2792.0000
 13
4883.0000
 23
-12774.0000
 33
2792.0000
 70
15
  0
3DFACE
  5
1053
  8
קירות
 10
4783.0000
 20
-12774.0000
 30
1722.5000
 11
4783.0000
 21
-11306.0000
 31
1722.5000
 12
4783.0000
 22
-11306.0000
 32
2792.0000
 13
4783.0000
 23
-12774.0000
 33
2792.0000
 70
15
  0
3DFACE
  5
1054
  8
קירות
 10
4883.0000
 20
-12774.0000
 30
1722.5000
 11
4783.0000
 21
-12774.0000
 31
1722.5000
 12
4783.0000
 22
-12774.0000
 32
2792.0000
 13
4883.0000
 23
-12774.0000
 33
2792.0000
 70
15
  0
3DFACE
  5
1055
  8
קירות
 10
4883.0000
 20
-11306.0000
 30
1722.5000
 11
4783.0000
 21
-11306.0000
 31
1722.5000
 12
4783.0000
 22
-11306.0000
 32
2792.0000
 13
4883.0000
 23
-11306.0000
 33
2792.0000
 70
15
  0
3DFACE
  5
1056
  8
קירות
 10
4883.0000
 20
-11306.0000
 30
0.0000
 11
4883.0000
 21
-9522.0000
 31
0.0000
 12
4783.0000
 22
-9522.0000
 32
0.0000
 13
4783.0000
 23
-11306.0000
 33
0.0000
 70
15
  0
3DFACE
  5
1057
  8
קירות
 10
4883.0000
 20
-11306.0000
 30
2792.0000
 11
4883.0000
 21
-9522.0000
 31
2792.0000
 12
4783.0000
 22
-9522.0000
 32
2792.0000
 13
4783.0000
 23
-11306.0000
 33
2792.0000
 70
15
  0
3DFACE
  5
1058
  8
קירות
 10
4883.0000
 20
-11306.0000
 30
0.0000
 11
4883.0000
 21
-9522.0000
 31
0.0000
 12
4883.0000
 22
-9522.0000
 32
2792.0000
 13
4883.0000
 23
-11306.0000
 33
2792.0000
 70
15
  0
3DFACE
  5
1059
  8
קירות
 10
4783.0000
 20
-11306.0000
 30
0.0000
 11
4783.0000
 21
-9522.0000
 31
0.0000
 12
4783.0000
 22
-9522.0000
 32
2792.0000
 13
4783.0000
 23
-11306.0000
 33
2792.0000
 70
15
  0
3DFACE
  5
105A
  8
קירות
 10
4883.0000
 20
-11306.0000
 30
0.0000
 11
4783.0000
 21
-11306.0000
 31
0.0000
 12
4783.0000
 22
-11306.0000
 32
2792.0000
 13
4883.0000
 23
-11306.0000
 33
2792.0000
 70
15
  0
3DFACE
  5
105B
  8
קירות
 10
4883.0000
 20
-9522.0000
 30
0.0000
 11
4783.0000
 21
-9522.0000
 31
0.0000
 12
4783.0000
 22
-9522.0000
 32
2792.0000
 13
4883.0000
 23
-9522.0000
 33
2792.0000
 70
15
  0
3DFACE
  5
105C
  8
קירות
 10
4783.0000
 20
-9622.0000
 30
0.0000
 11
9153.0000
 21
-9622.0000
 31
0.0000
 12
9153.0000
 22
-9522.0000
 32
0.0000
 13
4783.0000
 23
-9522.0000
 33
0.0000
 70
15
  0
3DFACE
  5
105D
  8
קירות
 10
4783.0000
 20
-9622.0000
 30
2792.0000
 11
9153.0000
 21
-9622.0000
 31
2792.0000
 12
9153.0000
 22
-9522.0000
 32
2792.0000
 13
4783.0000
 23
-9522.0000
 33
2792.0000
 70
15
  0
3DFACE
  5
105E
  8
קירות
 10
4783.0000
 20
-9622.0000
 30
0.0000
 11
9153.0000
 21
-9622.0000
 31
0.0000
 12
9153.0000
 22
-9622.0000
 32
2792.0000
 13
4783.0000
 23
-9622.0000
 33
2792.0000
 70
15
  0
3DFACE
  5
105F
  8
קירות
 10
4783.0000
 20
-9522.0000
 30
0.0000
 11
9153.0000
 21
-9522.0000
 31
0.0000
 12
9153.0000
 22
-9522.0000
 32
2792.0000
 13
4783.0000
 23
-9522.0000
 33
2792.0000
 70
15
  0
3DFACE
  5
1060
  8
קירות
 10
4783.0000
 20
-9622.0000
 30
0.0000
 11
4783.0000
 21
-9522.0000
 31
0.0000
 12
4783.0000
 22
-9522.0000
 32
2792.0000
 13
4783.0000
 23
-9622.0000
 33
2792.0000
 70
15
  0
3DFACE
  5
1061
  8
קירות
 10
9153.0000
 20
-9622.0000
 30
0.0000
 11
9153.0000
 21
-9522.0000
 31
0.0000
 12
9153.0000
 22
-9522.0000
 32
2792.0000
 13
9153.0000
 23
-9622.0000
 33
2792.0000
 70
15
  0
3DFACE
  5
1062
  8
קירות
 10
9053.0000
 20
-9522.0000
 30
0.0000
 11
9053.0000
 21
-10798.0000
 31
0.0000
 12
9153.0000
 22
-10798.0000
 32
0.0000
 13
9153.0000
 23
-9522.0000
 33
0.0000
 70
15
  0
3DFACE
  5
1063
  8
קירות
 10
9053.0000
 20
-9522.0000
 30
2792.0000
 11
9053.0000
 21
-10798.0000
 31
2792.0000
 12
9153.0000
 22
-10798.0000
 32
2792.0000
 13
9153.0000
 23
-9522.0000
 33
2792.0000
 70
15
  0
3DFACE
  5
1064
  8
קירות
 10
9053.0000
 20
-9522.0000
 30
0.0000
 11
9053.0000
 21
-10798.0000
 31
0.0000
 12
9053.0000
 22
-10798.0000
 32
2792.0000
 13
9053.0000
 23
-9522.0000
 33
2792.0000
 70
15
  0
3DFACE
  5
1065
  8
קירות
 10
9153.0000
 20
-9522.0000
 30
0.0000
 11
9153.0000
 21
-10798.0000
 31
0.0000
 12
9153.0000
 22
-10798.0000
 32
2792.0000
 13
9153.0000
 23
-9522.0000
 33
2792.0000
 70
15
  0
3DFACE
  5
1066
  8
קירות
 10
9053.0000
 20
-9522.0000
 30
0.0000
 11
9153.0000
 21
-9522.0000
 31
0.0000
 12
9153.0000
 22
-9522.0000
 32
2792.0000
 13
9053.0000
 23
-9522.0000
 33
2792.0000
 70
15
  0
3DFACE
  5
1067
  8
קירות
 10
9053.0000
 20
-10798.0000
 30
0.0000
 11
9153.0000
 21
-10798.0000
 31
0.0000
 12
9153.0000
 22
-10798.0000
 32
2792.0000
 13
9053.0000
 23
-10798.0000
 33
2792.0000
 70
15
  0
3DFACE
  5
1068
  8
קירות
 10
9053.0000
 20
-12296.0000
 30
0.0000
 11
9053.0000
 21
-13145.0000
 31
0.0000
 12
9153.0000
 22
-13145.0000
 32
0.0000
 13
9153.0000
 23
-12296.0000
 33
0.0000
 70
15
  0
3DFACE
  5
1069
  8
קירות
 10
9053.0000
 20
-12296.0000
 30
2792.0000
 11
9053.0000
 21
-13145.0000
 31
2792.0000
 12
9153.0000
 22
-13145.0000
 32
2792.0000
 13
9153.0000
 23
-12296.0000
 33
2792.0000
 70
15
  0
3DFACE
  5
106A
  8
קירות
 10
9053.0000
 20
-12296.0000
 30
0.0000
 11
9053.0000
 21
-13145.0000
 31
0.0000
 12
9053.0000
 22
-13145.0000
 32
2792.0000
 13
9053.0000
 23
-12296.0000
 33
2792.0000
 70
15
  0
3DFACE
  5
106B
  8
קירות
 10
9153.0000
 20
-12296.0000
 30
0.0000
 11
9153.0000
 21
-13145.0000
 31
0.0000
 12
9153.0000
 22
-13145.0000
 32
2792.0000
 13
9153.0000
 23
-12296.0000
 33
2792.0000
 70
15
  0
3DFACE
  5
106C
  8
קירות
 10
9053.0000
 20
-12296.0000
 30
0.0000
 11
9153.0000
 21
-12296.0000
 31
0.0000
 12
9153.0000
 22
-12296.0000
 32
2792.0000
 13
9053.0000
 23
-12296.0000
 33
2792.0000
 70
15
  0
3DFACE
  5
106D
  8
קירות
 10
9053.0000
 20
-13145.0000
 30
0.0000
 11
9153.0000
 21
-13145.0000
 31
0.0000
 12
9153.0000
 22
-13145.0000
 32
2792.0000
 13
9053.0000
 23
-13145.0000
 33
2792.0000
 70
15
  0
3DFACE
  5
106E
  8
חלונות
 10
6173.5000
 20
-17115.0000
 30
0.0000
 11
6123.5000
 21
-17115.0000
 31
0.0000
 12
6123.5000
 22
-17215.0000
 32
0.0000
 13
6173.5000
 23
-17215.0000
 33
0.0000
 70
15
  0
3DFACE
  5
106F
  8
חלונות
 10
6173.5000
 20
-17115.0000
 30
1989.0000
 11
6123.5000
 21
-17115.0000
 31
1989.0000
 12
6123.5000
 22
-17215.0000
 32
1989.0000
 13
6173.5000
 23
-17215.0000
 33
1989.0000
 70
15
  0
3DFACE
  5
1070
  8
חלונות
 10
6173.5000
 20
-17115.0000
 30
0.0000
 11
6123.5000
 21
-17115.0000
 31
0.0000
 12
6123.5000
 22
-17115.0000
 32
1989.0000
 13
6173.5000
 23
-17115.0000
 33
1989.0000
 70
15
  0
3DFACE
  5
1071
  8
חלונות
 10
6123.5000
 20
-17115.0000
 30
0.0000
 11
6123.5000
 21
-17215.0000
 31
0.0000
 12
6123.5000
 22
-17215.0000
 32
1989.0000
 13
6123.5000
 23
-17115.0000
 33
1989.0000
 70
15
  0
3DFACE
  5
1072
  8
חלונות
 10
6123.5000
 20
-17215.0000
 30
0.0000
 11
6173.5000
 21
-17215.0000
 31
0.0000
 12
6173.5000
 22
-17215.0000
 32
1989.0000
 13
6123.5000
 23
-17215.0000
 33
1989.0000
 70
15
  0
3DFACE
  5
1073
  8
חלונות
 10
6173.5000
 20
-17215.0000
 30
0.0000
 11
6173.5000
 21
-17115.0000
 31
0.0000
 12
6173.5000
 22
-17115.0000
 32
1989.0000
 13
6173.5000
 23
-17215.0000
 33
1989.0000
 70
15
  0
3DFACE
  5
1074
  8
חלונות
 10
4762.5000
 20
-17115.0000
 30
0.0000
 11
4712.5000
 21
-17115.0000
 31
0.0000
 12
4712.5000
 22
-17215.0000
 32
0.0000
 13
4762.5000
 23
-17215.0000
 33
0.0000
 70
15
  0
3DFACE
  5
1075
  8
חלונות
 10
4762.5000
 20
-17115.0000
 30
1989.0000
 11
4712.5000
 21
-17115.0000
 31
1989.0000
 12
4712.5000
 22
-17215.0000
 32
1989.0000
 13
4762.5000
 23
-17215.0000
 33
1989.0000
 70
15
  0
3DFACE
  5
1076
  8
חלונות
 10
4762.5000
 20
-17115.0000
 30
0.0000
 11
4712.5000
 21
-17115.0000
 31
0.0000
 12
4712.5000
 22
-17115.0000
 32
1989.0000
 13
4762.5000
 23
-17115.0000
 33
1989.0000
 70
15
  0
3DFACE
  5
1077
  8
חלונות
 10
4712.5000
 20
-17115.0000
 30
0.0000
 11
4712.5000
 21
-17215.0000
 31
0.0000
 12
4712.5000
 22
-17215.0000
 32
1989.0000
 13
4712.5000
 23
-17115.0000
 33
1989.0000
 70
15
  0
3DFACE
  5
1078
  8
חלונות
 10
4712.5000
 20
-17215.0000
 30
0.0000
 11
4762.5000
 21
-17215.0000
 31
0.0000
 12
4762.5000
 22
-17215.0000
 32
1989.0000
 13
4712.5000
 23
-17215.0000
 33
1989.0000
 70
15
  0
3DFACE
  5
1079
  8
חלונות
 10
4762.5000
 20
-17215.0000
 30
0.0000
 11
4762.5000
 21
-17115.0000
 31
0.0000
 12
4762.5000
 22
-17115.0000
 32
1989.0000
 13
4762.5000
 23
-17215.0000
 33
1989.0000
 70
15
  0
3DFACE
  5
107A
  8
חלונות
 10
6173.5000
 20
-17115.0000
 30
1939.0000
 11
4712.5000
 21
-17115.0000
 31
1939.0000
 12
4712.5000
 22
-17215.0000
 32
1939.0000
 13
6173.5000
 23
-17215.0000
 33
1939.0000
 70
15
  0
3DFACE
  5
107B
  8
חלונות
 10
6173.5000
 20
-17115.0000
 30
1989.0000
 11
4712.5000
 21
-17115.0000
 31
1989.0000
 12
4712.5000
 22
-17215.0000
 32
1989.0000
 13
6173.5000
 23
-17215.0000
 33
1989.0000
 70
15
  0
3DFACE
  5
107C
  8
חלונות
 10
6173.5000
 20
-17115.0000
 30
1939.0000
 11
4712.5000
 21
-17115.0000
 31
1939.0000
 12
4712.5000
 22
-17115.0000
 32
1989.0000
 13
6173.5000
 23
-17115.0000
 33
1989.0000
 70
15
  0
3DFACE
  5
107D
  8
חלונות
 10
4712.5000
 20
-17115.0000
 30
1939.0000
 11
4712.5000
 21
-17215.0000
 31
1939.0000
 12
4712.5000
 22
-17215.0000
 32
1989.0000
 13
4712.5000
 23
-17115.0000
 33
1989.0000
 70
15
  0
3DFACE
  5
107E
  8
חלונות
 10
4712.5000
 20
-17215.0000
 30
1939.0000
 11
6173.5000
 21
-17215.0000
 31
1939.0000
 12
6173.5000
 22
-17215.0000
 32
1989.0000
 13
4712.5000
 23
-17215.0000
 33
1989.0000
 70
15
  0
3DFACE
  5
107F
  8
חלונות
 10
6173.5000
 20
-17215.0000
 30
1939.0000
 11
6173.5000
 21
-17115.0000
 31
1939.0000
 12
6173.5000
 22
-17115.0000
 32
1989.0000
 13
6173.5000
 23
-17215.0000
 33
1989.0000
 70
15
  0
3DFACE
  5
1080
  8
חלונות
 10
6173.5000
 20
-17115.0000
 30
0.0000
 11
4712.5000
 21
-17115.0000
 31
0.0000
 12
4712.5000
 22
-17215.0000
 32
0.0000
 13
6173.5000
 23
-17215.0000
 33
0.0000
 70
15
  0
3DFACE
  5
1081
  8
חלונות
 10
6173.5000
 20
-17115.0000
 30
50.0000
 11
4712.5000
 21
-17115.0000
 31
50.0000
 12
4712.5000
 22
-17215.0000
 32
50.0000
 13
6173.5000
 23
-17215.0000
 33
50.0000
 70
15
  0
3DFACE
  5
1082
  8
חלונות
 10
6173.5000
 20
-17115.0000
 30
0.0000
 11
4712.5000
 21
-17115.0000
 31
0.0000
 12
4712.5000
 22
-17115.0000
 32
50.0000
 13
6173.5000
 23
-17115.0000
 33
50.0000
 70
15
  0
3DFACE
  5
1083
  8
חלונות
 10
4712.5000
 20
-17115.0000
 30
0.0000
 11
4712.5000
 21
-17215.0000
 31
0.0000
 12
4712.5000
 22
-17215.0000
 32
50.0000
 13
4712.5000
 23
-17115.0000
 33
50.0000
 70
15
  0
3DFACE
  5
1084
  8
חלונות
 10
4712.5000
 20
-17215.0000
 30
0.0000
 11
6173.5000
 21
-17215.0000
 31
0.0000
 12
6173.5000
 22
-17215.0000
 32
50.0000
 13
4712.5000
 23
-17215.0000
 33
50.0000
 70
15
  0
3DFACE
  5
1085
  8
חלונות
 10
6173.5000
 20
-17215.0000
 30
0.0000
 11
6173.5000
 21
-17115.0000
 31
0.0000
 12
6173.5000
 22
-17115.0000
 32
50.0000
 13
6173.5000
 23
-17215.0000
 33
50.0000
 70
15
  0
3DFACE
  5
1086
  8
חלונות
 10
6123.5000
 20
-17151.0000
 30
50.0000
 11
4762.5000
 21
-17151.0000
 31
50.0000
 12
4762.5000
 22
-17179.0000
 32
50.0000
 13
6123.5000
 23
-17179.0000
 33
50.0000
 70
15
  0
3DFACE
  5
1087
  8
חלונות
 10
6123.5000
 20
-17151.0000
 30
1939.0000
 11
4762.5000
 21
-17151.0000
 31
1939.0000
 12
4762.5000
 22
-17179.0000
 32
1939.0000
 13
6123.5000
 23
-17179.0000
 33
1939.0000
 70
15
  0
3DFACE
  5
1088
  8
חלונות
 10
6123.5000
 20
-17151.0000
 30
50.0000
 11
4762.5000
 21
-17151.0000
 31
50.0000
 12
4762.5000
 22
-17151.0000
 32
1939.0000
 13
6123.5000
 23
-17151.0000
 33
1939.0000
 70
15
  0
3DFACE
  5
1089
  8
חלונות
 10
4762.5000
 20
-17151.0000
 30
50.0000
 11
4762.5000
 21
-17179.0000
 31
50.0000
 12
4762.5000
 22
-17179.0000
 32
1939.0000
 13
4762.5000
 23
-17151.0000
 33
1939.0000
 70
15
  0
3DFACE
  5
108A
  8
חלונות
 10
4762.5000
 20
-17179.0000
 30
50.0000
 11
6123.5000
 21
-17179.0000
 31
50.0000
 12
6123.5000
 22
-17179.0000
 32
1939.0000
 13
4762.5000
 23
-17179.0000
 33
1939.0000
 70
15
  0
3DFACE
  5
108B
  8
חלונות
 10
6123.5000
 20
-17179.0000
 30
50.0000
 11
6123.5000
 21
-17151.0000
 31
50.0000
 12
6123.5000
 22
-17151.0000
 32
1939.0000
 13
6123.5000
 23
-17179.0000
 33
1939.0000
 70
15
  0
3DFACE
  5
108C
  8
חלונות
 10
3720.0000
 20
-17163.5000
 30
900.0000
 11
3720.0000
 21
-17113.5000
 31
900.0000
 12
3620.0000
 22
-17113.5000
 32
900.0000
 13
3620.0000
 23
-17163.5000
 33
900.0000
 70
15
  0
3DFACE
  5
108D
  8
חלונות
 10
3720.0000
 20
-17163.5000
 30
3310.0000
 11
3720.0000
 21
-17113.5000
 31
3310.0000
 12
3620.0000
 22
-17113.5000
 32
3310.0000
 13
3620.0000
 23
-17163.5000
 33
3310.0000
 70
15
  0
3DFACE
  5
108E
  8
חלונות
 10
3720.0000
 20
-17163.5000
 30
900.0000
 11
3720.0000
 21
-17113.5000
 31
900.0000
 12
3720.0000
 22
-17113.5000
 32
3310.0000
 13
3720.0000
 23
-17163.5000
 33
3310.0000
 70
15
  0
3DFACE
  5
108F
  8
חלונות
 10
3720.0000
 20
-17113.5000
 30
900.0000
 11
3620.0000
 21
-17113.5000
 31
900.0000
 12
3620.0000
 22
-17113.5000
 32
3310.0000
 13
3720.0000
 23
-17113.5000
 33
3310.0000
 70
15
  0
3DFACE
  5
1090
  8
חלונות
 10
3620.0000
 20
-17113.5000
 30
900.0000
 11
3620.0000
 21
-17163.5000
 31
900.0000
 12
3620.0000
 22
-17163.5000
 32
3310.0000
 13
3620.0000
 23
-17113.5000
 33
3310.0000
 70
15
  0
3DFACE
  5
1091
  8
חלונות
 10
3620.0000
 20
-17163.5000
 30
900.0000
 11
3720.0000
 21
-17163.5000
 31
900.0000
 12
3720.0000
 22
-17163.5000
 32
3310.0000
 13
3620.0000
 23
-17163.5000
 33
3310.0000
 70
15
  0
3DFACE
  5
1092
  8
חלונות
 10
3720.0000
 20
-14720.5000
 30
900.0000
 11
3720.0000
 21
-14670.5000
 31
900.0000
 12
3620.0000
 22
-14670.5000
 32
900.0000
 13
3620.0000
 23
-14720.5000
 33
900.0000
 70
15
  0
3DFACE
  5
1093
  8
חלונות
 10
3720.0000
 20
-14720.5000
 30
3310.0000
 11
3720.0000
 21
-14670.5000
 31
3310.0000
 12
3620.0000
 22
-14670.5000
 32
3310.0000
 13
3620.0000
 23
-14720.5000
 33
3310.0000
 70
15
  0
3DFACE
  5
1094
  8
חלונות
 10
3720.0000
 20
-14720.5000
 30
900.0000
 11
3720.0000
 21
-14670.5000
 31
900.0000
 12
3720.0000
 22
-14670.5000
 32
3310.0000
 13
3720.0000
 23
-14720.5000
 33
3310.0000
 70
15
  0
3DFACE
  5
1095
  8
חלונות
 10
3720.0000
 20
-14670.5000
 30
900.0000
 11
3620.0000
 21
-14670.5000
 31
900.0000
 12
3620.0000
 22
-14670.5000
 32
3310.0000
 13
3720.0000
 23
-14670.5000
 33
3310.0000
 70
15
  0
3DFACE
  5
1096
  8
חלונות
 10
3620.0000
 20
-14670.5000
 30
900.0000
 11
3620.0000
 21
-14720.5000
 31
900.0000
 12
3620.0000
 22
-14720.5000
 32
3310.0000
 13
3620.0000
 23
-14670.5000
 33
3310.0000
 70
15
  0
3DFACE
  5
1097
  8
חלונות
 10
3620.0000
 20
-14720.5000
 30
900.0000
 11
3720.0000
 21
-14720.5000
 31
900.0000
 12
3720.0000
 22
-14720.5000
 32
3310.0000
 13
3620.0000
 23
-14720.5000
 33
3310.0000
 70
15
  0
3DFACE
  5
1098
  8
חלונות
 10
3720.0000
 20
-17163.5000
 30
3260.0000
 11
3720.0000
 21
-14670.5000
 31
3260.0000
 12
3620.0000
 22
-14670.5000
 32
3260.0000
 13
3620.0000
 23
-17163.5000
 33
3260.0000
 70
15
  0
3DFACE
  5
1099
  8
חלונות
 10
3720.0000
 20
-17163.5000
 30
3310.0000
 11
3720.0000
 21
-14670.5000
 31
3310.0000
 12
3620.0000
 22
-14670.5000
 32
3310.0000
 13
3620.0000
 23
-17163.5000
 33
3310.0000
 70
15
  0
3DFACE
  5
109A
  8
חלונות
 10
3720.0000
 20
-17163.5000
 30
3260.0000
 11
3720.0000
 21
-14670.5000
 31
3260.0000
 12
3720.0000
 22
-14670.5000
 32
3310.0000
 13
3720.0000
 23
-17163.5000
 33
3310.0000
 70
15
  0
3DFACE
  5
109B
  8
חלונות
 10
3720.0000
 20
-14670.5000
 30
3260.0000
 11
3620.0000
 21
-14670.5000
 31
3260.0000
 12
3620.0000
 22
-14670.5000
 32
3310.0000
 13
3720.0000
 23
-14670.5000
 33
3310.0000
 70
15
  0
3DFACE
  5
109C
  8
חלונות
 10
3620.0000
 20
-14670.5000
 30
3260.0000
 11
3620.0000
 21
-17163.5000
 31
3260.0000
 12
3620.0000
 22
-17163.5000
 32
3310.0000
 13
3620.0000
 23
-14670.5000
 33
3310.0000
 70
15
  0
3DFACE
  5
109D
  8
חלונות
 10
3620.0000
 20
-17163.5000
 30
3260.0000
 11
3720.0000
 21
-17163.5000
 31
3260.0000
 12
3720.0000
 22
-17163.5000
 32
3310.0000
 13
3620.0000
 23
-17163.5000
 33
3310.0000
 70
15
  0
3DFACE
  5
109E
  8
חלונות
 10
3720.0000
 20
-17163.5000
 30
900.0000
 11
3720.0000
 21
-14670.5000
 31
900.0000
 12
3620.0000
 22
-14670.5000
 32
900.0000
 13
3620.0000
 23
-17163.5000
 33
900.0000
 70
15
  0
3DFACE
  5
109F
  8
חלונות
 10
3720.0000
 20
-17163.5000
 30
950.0000
 11
3720.0000
 21
-14670.5000
 31
950.0000
 12
3620.0000
 22
-14670.5000
 32
950.0000
 13
3620.0000
 23
-17163.5000
 33
950.0000
 70
15
  0
3DFACE
  5
10A0
  8
חלונות
 10
3720.0000
 20
-17163.5000
 30
900.0000
 11
3720.0000
 21
-14670.5000
 31
900.0000
 12
3720.0000
 22
-14670.5000
 32
950.0000
 13
3720.0000
 23
-17163.5000
 33
950.0000
 70
15
  0
3DFACE
  5
10A1
  8
חלונות
 10
3720.0000
 20
-14670.5000
 30
900.0000
 11
3620.0000
 21
-14670.5000
 31
900.0000
 12
3620.0000
 22
-14670.5000
 32
950.0000
 13
3720.0000
 23
-14670.5000
 33
950.0000
 70
15
  0
3DFACE
  5
10A2
  8
חלונות
 10
3620.0000
 20
-14670.5000
 30
900.0000
 11
3620.0000
 21
-17163.5000
 31
900.0000
 12
3620.0000
 22
-17163.5000
 32
950.0000
 13
3620.0000
 23
-14670.5000
 33
950.0000
 70
15
  0
3DFACE
  5
10A3
  8
חלונות
 10
3620.0000
 20
-17163.5000
 30
900.0000
 11
3720.0000
 21
-17163.5000
 31
900.0000
 12
3720.0000
 22
-17163.5000
 32
950.0000
 13
3620.0000
 23
-17163.5000
 33
950.0000
 70
15
  0
3DFACE
  5
10A4
  8
חלונות
 10
3684.0000
 20
-17113.5000
 30
950.0000
 11
3684.0000
 21
-14720.5000
 31
950.0000
 12
3656.0000
 22
-14720.5000
 32
950.0000
 13
3656.0000
 23
-17113.5000
 33
950.0000
 70
15
  0
3DFACE
  5
10A5
  8
חלונות
 10
3684.0000
 20
-17113.5000
 30
3260.0000
 11
3684.0000
 21
-14720.5000
 31
3260.0000
 12
3656.0000
 22
-14720.5000
 32
3260.0000
 13
3656.0000
 23
-17113.5000
 33
3260.0000
 70
15
  0
3DFACE
  5
10A6
  8
חלונות
 10
3684.0000
 20
-17113.5000
 30
950.0000
 11
3684.0000
 21
-14720.5000
 31
950.0000
 12
3684.0000
 22
-14720.5000
 32
3260.0000
 13
3684.0000
 23
-17113.5000
 33
3260.0000
 70
15
  0
3DFACE
  5
10A7
  8
חלונות
 10
3684.0000
 20
-14720.5000
 30
950.0000
 11
3656.0000
 21
-14720.5000
 31
950.0000
 12
3656.0000
 22
-14720.5000
 32
3260.0000
 13
3684.0000
 23
-14720.5000
 33
3260.0000
 70
15
  0
3DFACE
  5
10A8
  8
חלונות
 10
3656.0000
 20
-14720.5000
 30
950.0000
 11
3656.0000
 21
-17113.5000
 31
950.0000
 12
3656.0000
 22
-17113.5000
 32
3260.0000
 13
3656.0000
 23
-14720.5000
 33
3260.0000
 70
15
  0
3DFACE
  5
10A9
  8
חלונות
 10
3656.0000
 20
-17113.5000
 30
950.0000
 11
3684.0000
 21
-17113.5000
 31
950.0000
 12
3684.0000
 22
-17113.5000
 32
3260.0000
 13
3656.0000
 23
-17113.5000
 33
3260.0000
 70
15
  0
3DFACE
  5
10AA
  8
חלונות
 10
4933.0000
 20
-12774.0000
 30
407.5000
 11
4933.0000
 21
-12724.0000
 31
407.5000
 12
4833.0000
 22
-12724.0000
 32
407.5000
 13
4833.0000
 23
-12774.0000
 33
407.5000
 70
15
  0
3DFACE
  5
10AB
  8
חלונות
 10
4933.0000
 20
-12774.0000
 30
1722.5000
 11
4933.0000
 21
-12724.0000
 31
1722.5000
 12
4833.0000
 22
-12724.0000
 32
1722.5000
 13
4833.0000
 23
-12774.0000
 33
1722.5000
 70
15
  0
3DFACE
  5
10AC
  8
חלונות
 10
4933.0000
 20
-12774.0000
 30
407.5000
 11
4933.0000
 21
-12724.0000
 31
407.5000
 12
4933.0000
 22
-12724.0000
 32
1722.5000
 13
4933.0000
 23
-12774.0000
 33
1722.5000
 70
15
  0
3DFACE
  5
10AD
  8
חלונות
 10
4933.0000
 20
-12724.0000
 30
407.5000
 11
4833.0000
 21
-12724.0000
 31
407.5000
 12
4833.0000
 22
-12724.0000
 32
1722.5000
 13
4933.0000
 23
-12724.0000
 33
1722.5000
 70
15
  0
3DFACE
  5
10AE
  8
חלונות
 10
4833.0000
 20
-12724.0000
 30
407.5000
 11
4833.0000
 21
-12774.0000
 31
407.5000
 12
4833.0000
 22
-12774.0000
 32
1722.5000
 13
4833.0000
 23
-12724.0000
 33
1722.5000
 70
15
  0
3DFACE
  5
10AF
  8
חלונות
 10
4833.0000
 20
-12774.0000
 30
407.5000
 11
4933.0000
 21
-12774.0000
 31
407.5000
 12
4933.0000
 22
-12774.0000
 32
1722.5000
 13
4833.0000
 23
-12774.0000
 33
1722.5000
 70
15
  0
3DFACE
  5
10B0
  8
חלונות
 10
4933.0000
 20
-11356.0000
 30
407.5000
 11
4933.0000
 21
-11306.0000
 31
407.5000
 12
4833.0000
 22
-11306.0000
 32
407.5000
 13
4833.0000
 23
-11356.0000
 33
407.5000
 70
15
  0
3DFACE
  5
10B1
  8
חלונות
 10
4933.0000
 20
-11356.0000
 30
1722.5000
 11
4933.0000
 21
-11306.0000
 31
1722.5000
 12
4833.0000
 22
-11306.0000
 32
1722.5000
 13
4833.0000
 23
-11356.0000
 33
1722.5000
 70
15
  0
3DFACE
  5
10B2
  8
חלונות
 10
4933.0000
 20
-11356.0000
 30
407.5000
 11
4933.0000
 21
-11306.0000
 31
407.5000
 12
4933.0000
 22
-11306.0000
 32
1722.5000
 13
4933.0000
 23
-11356.0000
 33
1722.5000
 70
15
  0
3DFACE
  5
10B3
  8
חלונות
 10
4933.0000
 20
-11306.0000
 30
407.5000
 11
4833.0000
 21
-11306.0000
 31
407.5000
 12
4833.0000
 22
-11306.0000
 32
1722.5000
 13
4933.0000
 23
-11306.0000
 33
1722.5000
 70
15
  0
3DFACE
  5
10B4
  8
חלונות
 10
4833.0000
 20
-11306.0000
 30
407.5000
 11
4833.0000
 21
-11356.0000
 31
407.5000
 12
4833.0000
 22
-11356.0000
 32
1722.5000
 13
4833.0000
 23
-11306.0000
 33
1722.5000
 70
15
  0
3DFACE
  5
10B5
  8
חלונות
 10
4833.0000
 20
-11356.0000
 30
407.5000
 11
4933.0000
 21
-11356.0000
 31
407.5000
 12
4933.0000
 22
-11356.0000
 32
1722.5000
 13
4833.0000
 23
-11356.0000
 33
1722.5000
 70
15
  0
3DFACE
  5
10B6
  8
חלונות
 10
4933.0000
 20
-12774.0000
 30
1672.5000
 11
4933.0000
 21
-11306.0000
 31
1672.5000
 12
4833.0000
 22
-11306.0000
 32
1672.5000
 13
4833.0000
 23
-12774.0000
 33
1672.5000
 70
15
  0
3DFACE
  5
10B7
  8
חלונות
 10
4933.0000
 20
-12774.0000
 30
1722.5000
 11
4933.0000
 21
-11306.0000
 31
1722.5000
 12
4833.0000
 22
-11306.0000
 32
1722.5000
 13
4833.0000
 23
-12774.0000
 33
1722.5000
 70
15
  0
3DFACE
  5
10B8
  8
חלונות
 10
4933.0000
 20
-12774.0000
 30
1672.5000
 11
4933.0000
 21
-11306.0000
 31
1672.5000
 12
4933.0000
 22
-11306.0000
 32
1722.5000
 13
4933.0000
 23
-12774.0000
 33
1722.5000
 70
15
  0
3DFACE
  5
10B9
  8
חלונות
 10
4933.0000
 20
-11306.0000
 30
1672.5000
 11
4833.0000
 21
-11306.0000
 31
1672.5000
 12
4833.0000
 22
-11306.0000
 32
1722.5000
 13
4933.0000
 23
-11306.0000
 33
1722.5000
 70
15
  0
3DFACE
  5
10BA
  8
חלונות
 10
4833.0000
 20
-11306.0000
 30
1672.5000
 11
4833.0000
 21
-12774.0000
 31
1672.5000
 12
4833.0000
 22
-12774.0000
 32
1722.5000
 13
4833.0000
 23
-11306.0000
 33
1722.5000
 70
15
  0
3DFACE
  5
10BB
  8
חלונות
 10
4833.0000
 20
-12774.0000
 30
1672.5000
 11
4933.0000
 21
-12774.0000
 31
1672.5000
 12
4933.0000
 22
-12774.0000
 32
1722.5000
 13
4833.0000
 23
-12774.0000
 33
1722.5000
 70
15
  0
3DFACE
  5
10BC
  8
חלונות
 10
4933.0000
 20
-12774.0000
 30
407.5000
 11
4933.0000
 21
-11306.0000
 31
407.5000
 12
4833.0000
 22
-11306.0000
 32
407.5000
 13
4833.0000
 23
-12774.0000
 33
407.5000
 70
15
  0
3DFACE
  5
10BD
  8
חלונות
 10
4933.0000
 20
-12774.0000
 30
457.5000
 11
4933.0000
 21
-11306.0000
 31
457.5000
 12
4833.0000
 22
-11306.0000
 32
457.5000
 13
4833.0000
 23
-12774.0000
 33
457.5000
 70
15
  0
3DFACE
  5
10BE
  8
חלונות
 10
4933.0000
 20
-12774.0000
 30
407.5000
 11
4933.0000
 21
-11306.0000
 31
407.5000
 12
4933.0000
 22
-11306.0000
 32
457.5000
 13
4933.0000
 23
-12774.0000
 33
457.5000
 70
15
  0
3DFACE
  5
10BF
  8
חלונות
 10
4933.0000
 20
-11306.0000
 30
407.5000
 11
4833.0000
 21
-11306.0000
 31
407.5000
 12
4833.0000
 22
-11306.0000
 32
457.5000
 13
4933.0000
 23
-11306.0000
 33
457.5000
 70
15
  0
3DFACE
  5
10C0
  8
חלונות
 10
4833.0000
 20
-11306.0000
 30
407.5000
 11
4833.0000
 21
-12774.0000
 31
407.5000
 12
4833.0000
 22
-12774.0000
 32
457.5000
 13
4833.0000
 23
-11306.0000
 33
457.5000
 70
15
  0
3DFACE
  5
10C1
  8
חלונות
 10
4833.0000
 20
-12774.0000
 30
407.5000
 11
4933.0000
 21
-12774.0000
 31
407.5000
 12
4933.0000
 22
-12774.0000
 32
457.5000
 13
4833.0000
 23
-12774.0000
 33
457.5000
 70
15
  0
3DFACE
  5
10C2
  8
חלונות
 10
4897.0000
 20
-12724.0000
 30
457.5000
 11
4897.0000
 21
-11356.0000
 31
457.5000
 12
4869.0000
 22
-11356.0000
 32
457.5000
 13
4869.0000
 23
-12724.0000
 33
457.5000
 70
15
  0
3DFACE
  5
10C3
  8
חלונות
 10
4897.0000
 20
-12724.0000
 30
1672.5000
 11
4897.0000
 21
-11356.0000
 31
1672.5000
 12
4869.0000
 22
-11356.0000
 32
1672.5000
 13
4869.0000
 23
-12724.0000
 33
1672.5000
 70
15
  0
3DFACE
  5
10C4
  8
חלונות
 10
4897.0000
 20
-12724.0000
 30
457.5000
 11
4897.0000
 21
-11356.0000
 31
457.5000
 12
4897.0000
 22
-11356.0000
 32
1672.5000
 13
4897.0000
 23
-12724.0000
 33
1672.5000
 70
15
  0
3DFACE
  5
10C5
  8
חלונות
 10
4897.0000
 20
-11356.0000
 30
457.5000
 11
4869.0000
 21
-11356.0000
 31
457.5000
 12
4869.0000
 22
-11356.0000
 32
1672.5000
 13
4897.0000
 23
-11356.0000
 33
1672.5000
 70
15
  0
3DFACE
  5
10C6
  8
חלונות
 10
4869.0000
 20
-11356.0000
 30
457.5000
 11
4869.0000
 21
-12724.0000
 31
457.5000
 12
4869.0000
 22
-12724.0000
 32
1672.5000
 13
4869.0000
 23
-11356.0000
 33
1672.5000
 70
15
  0
3DFACE
  5
10C7
  8
חלונות
 10
4869.0000
 20
-12724.0000
 30
457.5000
 11
4897.0000
 21
-12724.0000
 31
457.5000
 12
4897.0000
 22
-12724.0000
 32
1672.5000
 13
4869.0000
 23
-12724.0000
 33
1672.5000
 70
15
  0
3DFACE
  5
10C8
  8
דלתות
 10
9003.0000
 20
-10798.0000
 30
0.0000
 11
9003.0000
 21
-10838.0000
 31
0.0000
 12
9103.0000
 22
-10838.0000
 32
0.0000
 13
9103.0000
 23
-10798.0000
 33
0.0000
 70
15
  0
3DFACE
  5
10C9
  8
דלתות
 10
9003.0000
 20
-10798.0000
 30
2792.0000
 11
9003.0000
 21
-10838.0000
 31
2792.0000
 12
9103.0000
 22
-10838.0000
 32
2792.0000
 13
9103.0000
 23
-10798.0000
 33
2792.0000
 70
15
  0
3DFACE
  5
10CA
  8
דלתות
 10
9003.0000
 20
-10798.0000
 30
0.0000
 11
9003.0000
 21
-10838.0000
 31
0.0000
 12
9003.0000
 22
-10838.0000
 32
2792.0000
 13
9003.0000
 23
-10798.0000
 33
2792.0000
 70
15
  0
3DFACE
  5
10CB
  8
דלתות
 10
9003.0000
 20
-10838.0000
 30
0.0000
 11
9103.0000
 21
-10838.0000
 31
0.0000
 12
9103.0000
 22
-10838.0000
 32
2792.0000
 13
9003.0000
 23
-10838.0000
 33
2792.0000
 70
15
  0
3DFACE
  5
10CC
  8
דלתות
 10
9103.0000
 20
-10838.0000
 30
0.0000
 11
9103.0000
 21
-10798.0000
 31
0.0000
 12
9103.0000
 22
-10798.0000
 32
2792.0000
 13
9103.0000
 23
-10838.0000
 33
2792.0000
 70
15
  0
3DFACE
  5
10CD
  8
דלתות
 10
9103.0000
 20
-10798.0000
 30
0.0000
 11
9003.0000
 21
-10798.0000
 31
0.0000
 12
9003.0000
 22
-10798.0000
 32
2792.0000
 13
9103.0000
 23
-10798.0000
 33
2792.0000
 70
15
  0
3DFACE
  5
10CE
  8
דלתות
 10
9003.0000
 20
-12256.0000
 30
0.0000
 11
9003.0000
 21
-12296.0000
 31
0.0000
 12
9103.0000
 22
-12296.0000
 32
0.0000
 13
9103.0000
 23
-12256.0000
 33
0.0000
 70
15
  0
3DFACE
  5
10CF
  8
דלתות
 10
9003.0000
 20
-12256.0000
 30
2792.0000
 11
9003.0000
 21
-12296.0000
 31
2792.0000
 12
9103.0000
 22
-12296.0000
 32
2792.0000
 13
9103.0000
 23
-12256.0000
 33
2792.0000
 70
15
  0
3DFACE
  5
10D0
  8
דלתות
 10
9003.0000
 20
-12256.0000
 30
0.0000
 11
9003.0000
 21
-12296.0000
 31
0.0000
 12
9003.0000
 22
-12296.0000
 32
2792.0000
 13
9003.0000
 23
-12256.0000
 33
2792.0000
 70
15
  0
3DFACE
  5
10D1
  8
דלתות
 10
9003.0000
 20
-12296.0000
 30
0.0000
 11
9103.0000
 21
-12296.0000
 31
0.0000
 12
9103.0000
 22
-12296.0000
 32
2792.0000
 13
9003.0000
 23
-12296.0000
 33
2792.0000
 70
15
  0
3DFACE
  5
10D2
  8
דלתות
 10
9103.0000
 20
-12296.0000
 30
0.0000
 11
9103.0000
 21
-12256.0000
 31
0.0000
 12
9103.0000
 22
-12256.0000
 32
2792.0000
 13
9103.0000
 23
-12296.0000
 33
2792.0000
 70
15
  0
3DFACE
  5
10D3
  8
דלתות
 10
9103.0000
 20
-12256.0000
 30
0.0000
 11
9003.0000
 21
-12256.0000
 31
0.0000
 12
9003.0000
 22
-12256.0000
 32
2792.0000
 13
9103.0000
 23
-12256.0000
 33
2792.0000
 70
15
  0
3DFACE
  5
10D4
  8
דלתות
 10
9003.0000
 20
-10798.0000
 30
2752.0000
 11
9003.0000
 21
-12296.0000
 31
2752.0000
 12
9103.0000
 22
-12296.0000
 32
2752.0000
 13
9103.0000
 23
-10798.0000
 33
2752.0000
 70
15
  0
3DFACE
  5
10D5
  8
דלתות
 10
9003.0000
 20
-10798.0000
 30
2792.0000
 11
9003.0000
 21
-12296.0000
 31
2792.0000
 12
9103.0000
 22
-12296.0000
 32
2792.0000
 13
9103.0000
 23
-10798.0000
 33
2792.0000
 70
15
  0
3DFACE
  5
10D6
  8
דלתות
 10
9003.0000
 20
-10798.0000
 30
2752.0000
 11
9003.0000
 21
-12296.0000
 31
2752.0000
 12
9003.0000
 22
-12296.0000
 32
2792.0000
 13
9003.0000
 23
-10798.0000
 33
2792.0000
 70
15
  0
3DFACE
  5
10D7
  8
דלתות
 10
9003.0000
 20
-12296.0000
 30
2752.0000
 11
9103.0000
 21
-12296.0000
 31
2752.0000
 12
9103.0000
 22
-12296.0000
 32
2792.0000
 13
9003.0000
 23
-12296.0000
 33
2792.0000
 70
15
  0
3DFACE
  5
10D8
  8
דלתות
 10
9103.0000
 20
-12296.0000
 30
2752.0000
 11
9103.0000
 21
-10798.0000
 31
2752.0000
 12
9103.0000
 22
-10798.0000
 32
2792.0000
 13
9103.0000
 23
-12296.0000
 33
2792.0000
 70
15
  0
3DFACE
  5
10D9
  8
דלתות
 10
9103.0000
 20
-10798.0000
 30
2752.0000
 11
9003.0000
 21
-10798.0000
 31
2752.0000
 12
9003.0000
 22
-10798.0000
 32
2792.0000
 13
9103.0000
 23
-10798.0000
 33
2792.0000
 70
15
  0
3DFACE
  5
10DA
  8
דלתות
 10
9003.0000
 20
-10798.0000
 30
0.0000
 11
9003.0000
 21
-12296.0000
 31
0.0000
 12
9103.0000
 22
-12296.0000
 32
0.0000
 13
9103.0000
 23
-10798.0000
 33
0.0000
 70
15
  0
3DFACE
  5
10DB
  8
דלתות
 10
9003.0000
 20
-10798.0000
 30
30.0000
 11
9003.0000
 21
-12296.0000
 31
30.0000
 12
9103.0000
 22
-12296.0000
 32
30.0000
 13
9103.0000
 23
-10798.0000
 33
30.0000
 70
15
  0
3DFACE
  5
10DC
  8
דלתות
 10
9003.0000
 20
-10798.0000
 30
0.0000
 11
9003.0000
 21
-12296.0000
 31
0.0000
 12
9003.0000
 22
-12296.0000
 32
30.0000
 13
9003.0000
 23
-10798.0000
 33
30.0000
 70
15
  0
3DFACE
  5
10DD
  8
דלתות
 10
9003.0000
 20
-12296.0000
 30
0.0000
 11
9103.0000
 21
-12296.0000
 31
0.0000
 12
9103.0000
 22
-12296.0000
 32
30.0000
 13
9003.0000
 23
-12296.0000
 33
30.0000
 70
15
  0
3DFACE
  5
10DE
  8
דלתות
 10
9103.0000
 20
-12296.0000
 30
0.0000
 11
9103.0000
 21
-10798.0000
 31
0.0000
 12
9103.0000
 22
-10798.0000
 32
30.0000
 13
9103.0000
 23
-12296.0000
 33
30.0000
 70
15
  0
3DFACE
  5
10DF
  8
דלתות
 10
9103.0000
 20
-10798.0000
 30
0.0000
 11
9003.0000
 21
-10798.0000
 31
0.0000
 12
9003.0000
 22
-10798.0000
 32
30.0000
 13
9103.0000
 23
-10798.0000
 33
30.0000
 70
15
  0
INSERT
  5
10E0
  8
חשמל
  2
SOCKET
 10
4883.0000
 20
-11359.0000
 30
952.0000
 41
1.0000
 42
1.0000
 43
1.0000
 50
90.0000
  0
3DFACE
  5
10E1
  8
חשמל
 10
4948.0000
 20
-11399.0000
 30
952.0000
 11
4948.0000
 21
-11319.0000
 31
952.0000
 12
4933.0000
 22
-11319.0000
 32
952.0000
 13
4933.0000
 23
-11399.0000
 33
952.0000
 70
15
  0
3DFACE
  5
10E2
  8
חשמל
 10
4948.0000
 20
-11399.0000
 30
1032.0000
 11
4948.0000
 21
-11319.0000
 31
1032.0000
 12
4933.0000
 22
-11319.0000
 32
1032.0000
 13
4933.0000
 23
-11399.0000
 33
1032.0000
 70
15
  0
3DFACE
  5
10E3
  8
חשמל
 10
4948.0000
 20
-11399.0000
 30
952.0000
 11
4948.0000
 21
-11319.0000
 31
952.0000
 12
4948.0000
 22
-11319.0000
 32
1032.0000
 13
4948.0000
 23
-11399.0000
 33
1032.0000
 70
15
  0
3DFACE
  5
10E4
  8
חשמל
 10
4948.0000
 20
-11319.0000
 30
952.0000
 11
4933.0000
 21
-11319.0000
 31
952.0000
 12
4933.0000
 22
-11319.0000
 32
1032.0000
 13
4948.0000
 23
-11319.0000
 33
1032.0000
 70
15
  0
3DFACE
  5
10E5
  8
חשמל
 10
4933.0000
 20
-11319.0000
 30
952.0000
 11
4933.0000
 21
-11399.0000
 31
952.0000
 12
4933.0000
 22
-11399.0000
 32
1032.0000
 13
4933.0000
 23
-11319.0000
 33
1032.0000
 70
15
  0
3DFACE
  5
10E6
  8
חשמל
 10
4933.0000
 20
-11399.0000
 30
952.0000
 11
4948.0000
 21
-11399.0000
 31
952.0000
 12
4948.0000
 22
-11399.0000
 32
1032.0000
 13
4933.0000
 23
-11399.0000
 33
1032.0000
 70
15
  0
INSERT
  5
10E7
  8
גז
  2
GAS
 10
4883.0000
 20
-12060.0000
 30
-12.0000
 41
1.0000
 42
1.0000
 43
1.0000
 50
90.0000
  0
3DFACE
  5
10E8
  8
גז
 10
4953.0000
 20
-12070.0000
 30
-12.0000
 11
4953.0000
 21
-12050.0000
 31
-12.0000
 12
4933.0000
 22
-12050.0000
 32
-12.0000
 13
4933.0000
 23
-12070.0000
 33
-12.0000
 70
15
  0
3DFACE
  5
10E9
  8
גז
 10
4953.0000
 20
-12070.0000
 30
8.0000
 11
4953.0000
 21
-12050.0000
 31
8.0000
 12
4933.0000
 22
-12050.0000
 32
8.0000
 13
4933.0000
 23
-12070.0000
 33
8.0000
 70
15
  0
3DFACE
  5
10EA
  8
גז
 10
4953.0000
 20
-12070.0000
 30
-12.0000
 11
4953.0000
 21
-12050.0000
 31
-12.0000
 12
4953.0000
 22
-12050.0000
 32
8.0000
 13
4953.0000
 23
-12070.0000
 33
8.0000
 70
15
  0
3DFACE
  5
10EB
  8
גז
 10
4953.0000
 20
-12050.0000
 30
-12.0000
 11
4933.0000
 21
-12050.0000
 31
-12.0000
 12
4933.0000
 22
-12050.0000
 32
8.0000
 13
4953.0000
 23
-12050.0000
 33
8.0000
 70
15
  0
3DFACE
  5
10EC
  8
גז
 10
4933.0000
 20
-12050.0000
 30
-12.0000
 11
4933.0000
 21
-12070.0000
 31
-12.0000
 12
4933.0000
 22
-12070.0000
 32
8.0000
 13
4933.0000
 23
-12050.0000
 33
8.0000
 70
15
  0
3DFACE
  5
10ED
  8
גז
 10
4933.0000
 20
-12070.0000
 30
-12.0000
 11
4953.0000
 21
-12070.0000
 31
-12.0000
 12
4953.0000
 22
-12070.0000
 32
8.0000
 13
4933.0000
 23
-12070.0000
 33
8.0000
 70
15
  0
INSERT
  5
10EE
  8
חשמל
  2
CONTROLBOX
 10
4883.0000
 20
-11930.0000
 30
-12.0000
 41
1.0000
 42
1.0000
 43
1.0000
 50
90.0000
  0
3DFACE
  5
10EF
  8
חשמל
 10
5033.0000
 20
-11940.0000
 30
-12.0000
 11
5033.0000
 21
-11920.0000
 31
-12.0000
 12
4933.0000
 22
-11920.0000
 32
-12.0000
 13
4933.0000
 23
-11940.0000
 33
-12.0000
 70
15
  0
3DFACE
  5
10F0
  8
חשמל
 10
5033.0000
 20
-11940.0000
 30
8.0000
 11
5033.0000
 21
-11920.0000
 31
8.0000
 12
4933.0000
 22
-11920.0000
 32
8.0000
 13
4933.0000
 23
-11940.0000
 33
8.0000
 70
15
  0
3DFACE
  5
10F1
  8
חשמל
 10
5033.0000
 20
-11940.0000
 30
-12.0000
 11
5033.0000
 21
-11920.0000
 31
-12.0000
 12
5033.0000
 22
-11920.0000
 32
8.0000
 13
5033.0000
 23
-11940.0000
 33
8.0000
 70
15
  0
3DFACE
  5
10F2
  8
חשמל
 10
5033.0000
 20
-11920.0000
 30
-12.0000
 11
4933.0000
 21
-11920.0000
 31
-12.0000
 12
4933.0000
 22
-11920.0000
 32
8.0000
 13
5033.0000
 23
-11920.0000
 33
8.0000
 70
15
  0
3DFACE
  5
10F3
  8
חשמל
 10
4933.0000
 20
-11920.0000
 30
-12.0000
 11
4933.0000
 21
-11940.0000
 31
-12.0000
 12
4933.0000
 22
-11940.0000
 32
8.0000
 13
4933.0000
 23
-11920.0000
 33
8.0000
 70
15
  0
3DFACE
  5
10F4
  8
חשמל
 10
4933.0000
 20
-11940.0000
 30
-12.0000
 11
5033.0000
 21
-11940.0000
 31
-12.0000
 12
5033.0000
 22
-11940.0000
 32
8.0000
 13
4933.0000
 23
-11940.0000
 33
8.0000
 70
15
  0
INSERT
  5
10F5
  8
חשמל
  2
CONTROLBOX
 10
4883.0000
 20
-11803.0000
 30
-12.0000
 41
1.0000
 42
1.0000
 43
1.0000
 50
90.0000
  0
3DFACE
  5
10F6
  8
חשמל
 10
5033.0000
 20
-11813.0000
 30
-12.0000
 11
5033.0000
 21
-11793.0000
 31
-12.0000
 12
4933.0000
 22
-11793.0000
 32
-12.0000
 13
4933.0000
 23
-11813.0000
 33
-12.0000
 70
15
  0
3DFACE
  5
10F7
  8
חשמל
 10
5033.0000
 20
-11813.0000
 30
8.0000
 11
5033.0000
 21
-11793.0000
 31
8.0000
 12
4933.0000
 22
-11793.0000
 32
8.0000
 13
4933.0000
 23
-11813.0000
 33
8.0000
 70
15
  0
3DFACE
  5
10F8
  8
חשמל
 10
5033.0000
 20
-11813.0000
 30
-12.0000
 11
5033.0000
 21
-11793.0000
 31
-12.0000
 12
5033.0000
 22
-11793.0000
 32
8.0000
 13
5033.0000
 23
-11813.0000
 33
8.0000
 70
15
  0
3DFACE
  5
10F9
  8
חשמל
 10
5033.0000
 20
-11793.0000
 30
-12.0000
 11
4933.0000
 21
-11793.0000
 31
-12.0000
 12
4933.0000
 22
-11793.0000
 32
8.0000
 13
5033.0000
 23
-11793.0000
 33
8.0000
 70
15
  0
3DFACE
  5
10FA
  8
חשמל
 10
4933.0000
 20
-11793.0000
 30
-12.0000
 11
4933.0000
 21
-11813.0000
 31
-12.0000
 12
4933.0000
 22
-11813.0000
 32
8.0000
 13
4933.0000
 23
-11793.0000
 33
8.0000
 70
15
  0
3DFACE
  5
10FB
  8
חשמל
 10
4933.0000
 20
-11813.0000
 30
-12.0000
 11
5033.0000
 21
-11813.0000
 31
-12.0000
 12
5033.0000
 22
-11813.0000
 32
8.0000
 13
4933.0000
 23
-11813.0000
 33
8.0000
 70
15
  0
INSERT
  5
10FC
  8
מים
  2
FAUCET
 10
4883.0000
 20
-11842.0000
 30
-12.0000
 41
1.0000
 42
1.0000
 43
1.0000
 50
90.0000
  0
3DFACE
  5
10FD
  8
מים
 10
4953.0000
 20
-11852.0000
 30
-12.0000
 11
4953.0000
 21
-11832.0000
 31
-12.0000
 12
4933.0000
 22
-11832.0000
 32
-12.0000
 13
4933.0000
 23
-11852.0000
 33
-12.0000
 70
15
  0
3DFACE
  5
10FE
  8
מים
 10
4953.0000
 20
-11852.0000
 30
8.0000
 11
4953.0000
 21
-11832.0000
 31
8.0000
 12
4933.0000
 22
-11832.0000
 32
8.0000
 13
4933.0000
 23
-11852.0000
 33
8.0000
 70
15
  0
3DFACE
  5
10FF
  8
מים
 10
4953.0000
 20
-11852.0000
 30
-12.0000
 11
4953.0000
 21
-11832.0000
 31
-12.0000
 12
4953.0000
 22
-11832.0000
 32
8.0000
 13
4953.0000
 23
-11852.0000
 33
8.0000
 70
15
  0
3DFACE
  5
1100
  8
מים
 10
4953.0000
 20
-11832.0000
 30
-12.0000
 11
4933.0000
 21
-11832.0000
 31
-12.0000
 12
4933.0000
 22
-11832.0000
 32
8.0000
 13
4953.0000
 23
-11832.0000
 33
8.0000
 70
15
  0
3DFACE
  5
1101
  8
מים
 10
4933.0000
 20
-11832.0000
 30
-12.0000
 11
4933.0000
 21
-11852.0000
 31
-12.0000
 12
4933.0000
 22
-11852.0000
 32
8.0000
 13
4933.0000
 23
-11832.0000
 33
8.0000
 70
15
  0
3DFACE
  5
1102
  8
מים
 10
4933.0000
 20
-11852.0000
 30
-12.0000
 11
4953.0000
 21
-11852.0000
 31
-12.0000
 12
4953.0000
 22
-11852.0000
 32
8.0000
 13
4933.0000
 23
-11852.0000
 33
8.0000
 70
15
  0
INSERT
  5
1103
  8
חשמל
  2
CONTROLBOX
 10
4883.0000
 20
-12372.0000
 30
2097.0000
 41
1.0000
 42
1.0000
 43
1.0000
 50
90.0000
  0
3DFACE
  5
1104
  8
חשמל
 10
4948.0000
 20
-12412.0000
 30
2097.0000
 11
4948.0000
 21
-12332.0000
 31
2097.0000
 12
4933.0000
 22
-12332.0000
 32
2097.0000
 13
4933.0000
 23
-12412.0000
 33
2097.0000
 70
15
  0
3DFACE
  5
1105
  8
חשמל
 10
4948.0000
 20
-12412.0000
 30
2177.0000
 11
4948.0000
 21
-12332.0000
 31
2177.0000
 12
4933.0000
 22
-12332.0000
 32
2177.0000
 13
4933.0000
 23
-12412.0000
 33
2177.0000
 70
15
  0
3DFACE
  5
1106
  8
חשמל
 10
4948.0000
 20
-12412.0000
 30
2097.0000
 11
4948.0000
 21
-12332.0000
 31
2097.0000
 12
4948.0000
 22
-12332.0000
 32
2177.0000
 13
4948.0000
 23
-12412.0000
 33
2177.0000
 70
15
  0
3DFACE
  5
1107
  8
חשמל
 10
4948.0000
 20
-12332.0000
 30
2097.0000
 11
4933.0000
 21
-12332.0000
 31
2097.0000
 12
4933.0000
 22
-12332.0000
 32
2177.0000
 13
4948.0000
 23
-12332.0000
 33
2177.0000
 70
15
  0
3DFACE
  5
1108
  8
חשמל
 10
4933.0000
 20
-12332.0000
 30
2097.0000
 11
4933.0000
 21
-12412.0000
 31
2097.0000
 12
4933.0000
 22
-12412.0000
 32
2177.0000
 13
4933.0000
 23
-12332.0000
 33
2177.0000
 70
15
  0
3DFACE
  5
1109
  8
חשמל
 10
4933.0000
 20
-12412.0000
 30
2097.0000
 11
4948.0000
 21
-12412.0000
 31
2097.0000
 12
4948.0000
 22
-12412.0000
 32
2177.0000
 13
4933.0000
 23
-12412.0000
 33
2177.0000
 70
15
  0
INSERT
  5
110A
  8
חשמל
  2
SOCKET
 10
4883.0000
 20
-12210.0000
 30
1220.0000
 41
1.0000
 42
1.0000
 43
1.0000
 50
90.0000
  0
3DFACE
  5
110B
  8
חשמל
 10
4948.0000
 20
-12250.0000
 30
1220.0000
 11
4948.0000
 21
-12170.0000
 31
1220.0000
 12
4933.0000
 22
-12170.0000
 32
1220.0000
 13
4933.0000
 23
-12250.0000
 33
1220.0000
 70
15
  0
3DFACE
  5
110C
  8
חשמל
 10
4948.0000
 20
-12250.0000
 30
1300.0000
 11
4948.0000
 21
-12170.0000
 31
1300.0000
 12
4933.0000
 22
-12170.0000
 32
1300.0000
 13
4933.0000
 23
-12250.0000
 33
1300.0000
 70
15
  0
3DFACE
  5
110D
  8
חשמל
 10
4948.0000
 20
-12250.0000
 30
1220.0000
 11
4948.0000
 21
-12170.0000
 31
1220.0000
 12
4948.0000
 22
-12170.0000
 32
1300.0000
 13
4948.0000
 23
-12250.0000
 33
1300.0000
 70
15
  0
3DFACE
  5
110E
  8
חשמל
 10
4948.0000
 20
-12170.0000
 30
1220.0000
 11
4933.0000
 21
-12170.0000
 31
1220.0000
 12
4933.0000
 22
-12170.0000
 32
1300.0000
 13
4948.0000
 23
-12170.0000
 33
1300.0000
 70
15
  0
3DFACE
  5
110F
  8
חשמל
 10
4933.0000
 20
-12170.0000
 30
1220.0000
 11
4933.0000
 21
-12250.0000
 31
1220.0000
 12
4933.0000
 22
-12250.0000
 32
1300.0000
 13
4933.0000
 23
-12170.0000
 33
1300.0000
 70
15
  0
3DFACE
  5
1110
  8
חשמל
 10
4933.0000
 20
-12250.0000
 30
1220.0000
 11
4948.0000
 21
-12250.0000
 31
1220.0000
 12
4948.0000
 22
-12250.0000
 32
1300.0000
 13
4933.0000
 23
-12250.0000
 33
1300.0000
 70
15
  0
INSERT
  5
1111
  8
חשמל
  2
SOCKET
 10
4883.0000
 20
-13052.0000
 30
1202.0000
 41
1.0000
 42
1.0000
 43
1.0000
 50
90.0000
  0
3DFACE
  5
1112
  8
חשמל
 10
4948.0000
 20
-13092.0000
 30
1202.0000
 11
4948.0000
 21
-13012.0000
 31
1202.0000
 12
4933.0000
 22
-13012.0000
 32
1202.0000
 13
4933.0000
 23
-13092.0000
 33
1202.0000
 70
15
  0
3DFACE
  5
1113
  8
חשמל
 10
4948.0000
 20
-13092.0000
 30
1282.0000
 11
4948.0000
 21
-13012.0000
 31
1282.0000
 12
4933.0000
 22
-13012.0000
 32
1282.0000
 13
4933.0000
 23
-13092.0000
 33
1282.0000
 70
15
  0
3DFACE
  5
1114
  8
חשמל
 10
4948.0000
 20
-13092.0000
 30
1202.0000
 11
4948.0000
 21
-13012.0000
 31
1202.0000
 12
4948.0000
 22
-13012.0000
 32
1282.0000
 13
4948.0000
 23
-13092.0000
 33
1282.0000
 70
15
  0
3DFACE
  5
1115
  8
חשמל
 10
4948.0000
 20
-13012.0000
 30
1202.0000
 11
4933.0000
 21
-13012.0000
 31
1202.0000
 12
4933.0000
 22
-13012.0000
 32
1282.0000
 13
4948.0000
 23
-13012.0000
 33
1282.0000
 70
15
  0
3DFACE
  5
1116
  8
חשמל
 10
4933.0000
 20
-13012.0000
 30
1202.0000
 11
4933.0000
 21
-13092.0000
 31
1202.0000
 12
4933.0000
 22
-13092.0000
 32
1282.0000
 13
4933.0000
 23
-13012.0000
 33
1282.0000
 70
15
  0
3DFACE
  5
1117
  8
חשמל
 10
4933.0000
 20
-13092.0000
 30
1202.0000
 11
4948.0000
 21
-13092.0000
 31
1202.0000
 12
4948.0000
 22
-13092.0000
 32
1282.0000
 13
4933.0000
 23
-13092.0000
 33
1282.0000
 70
15
  0
INSERT
  5
1118
  8
חשמל
  2
DUPLEXSWITCH
 10
8189.0000
 20
-9622.0000
 30
1117.0000
 41
1.0000
 42
1.0000
 43
1.0000
 50
0.0000
  0
3DFACE
  5
1119
  8
חשמל
 10
8109.0000
 20
-9687.0000
 30
1117.0000
 11
8269.0000
 21
-9687.0000
 31
1117.0000
 12
8269.0000
 22
-9672.0000
 32
1117.0000
 13
8109.0000
 23
-9672.0000
 33
1117.0000
 70
15
  0
3DFACE
  5
111A
  8
חשמל
 10
8109.0000
 20
-9687.0000
 30
1197.0000
 11
8269.0000
 21
-9687.0000
 31
1197.0000
 12
8269.0000
 22
-9672.0000
 32
1197.0000
 13
8109.0000
 23
-9672.0000
 33
1197.0000
 70
15
  0
3DFACE
  5
111B
  8
חשמל
 10
8109.0000
 20
-9687.0000
 30
1117.0000
 11
8269.0000
 21
-9687.0000
 31
1117.0000
 12
8269.0000
 22
-9687.0000
 32
1197.0000
 13
8109.0000
 23
-9687.0000
 33
1197.0000
 70
15
  0
3DFACE
  5
111C
  8
חשמל
 10
8269.0000
 20
-9687.0000
 30
1117.0000
 11
8269.0000
 21
-9672.0000
 31
1117.0000
 12
8269.0000
 22
-9672.0000
 32
1197.0000
 13
8269.0000
 23
-9687.0000
 33
1197.0000
 70
15
  0
3DFACE
  5
111D
  8
חשמל
 10
8269.0000
 20
-9672.0000
 30
1117.0000
 11
8109.0000
 21
-9672.0000
 31
1117.0000
 12
8109.0000
 22
-9672.0000
 32
1197.0000
 13
8269.0000
 23
-9672.0000
 33
1197.0000
 70
15
  0
3DFACE
  5
111E
  8
חשמל
 10
8109.0000
 20
-9672.0000
 30
1117.0000
 11
8109.0000
 21
-9687.0000
 31
1117.0000
 12
8109.0000
 22
-9687.0000
 32
1197.0000
 13
8109.0000
 23
-9672.0000
 33
1197.0000
 70
15
  0
INSERT
  5
111F
  8
חשמל
  2
CONTROLBOX
 10
8289.0000
 20
-9622.0000
 30
1778.0000
 41
1.0000
 42
1.0000
 43
1.0000
 50
0.0000
  0
3DFACE
  5
1120
  8
חשמל
 10
8279.0000
 20
-9772.0000
 30
1778.0000
 11
8299.0000
 21
-9772.0000
 31
1778.0000
 12
8299.0000
 22
-9672.0000
 32
1778.0000
 13
8279.0000
 23
-9672.0000
 33
1778.0000
 70
15
  0
3DFACE
  5
1121
  8
חשמל
 10
8279.0000
 20
-9772.0000
 30
1798.0000
 11
8299.0000
 21
-9772.0000
 31
1798.0000
 12
8299.0000
 22
-9672.0000
 32
1798.0000
 13
8279.0000
 23
-9672.0000
 33
1798.0000
 70
15
  0
3DFACE
  5
1122
  8
חשמל
 10
8279.0000
 20
-9772.0000
 30
1778.0000
 11
8299.0000
 21
-9772.0000
 31
1778.0000
 12
8299.0000
 22
-9772.0000
 32
1798.0000
 13
8279.0000
 23
-9772.0000
 33
1798.0000
 70
15
  0
3DFACE
  5
1123
  8
חשמל
 10
8299.0000
 20
-9772.0000
 30
1778.0000
 11
8299.0000
 21
-9672.0000
 31
1778.0000
 12
8299.0000
 22
-9672.0000
 32
1798.0000
 13
8299.0000
 23
-9772.0000
 33
1798.0000
 70
15
  0
3DFACE
  5
1124
  8
חשמל
 10
8299.0000
 20
-9672.0000
 30
1778.0000
 11
8279.0000
 21
-9672.0000
 31
1778.0000
 12
8279.0000
 22
-9672.0000
 32
1798.0000
 13
8299.0000
 23
-9672.0000
 33
1798.0000
 70
15
  0
3DFACE
  5
1125
  8
חשמל
 10
8279.0000
 20
-9672.0000
 30
1778.0000
 11
8279.0000
 21
-9772.0000
 31
1778.0000
 12
8279.0000
 22
-9772.0000
 32
1798.0000
 13
8279.0000
 23
-9672.0000
 33
1798.0000
 70
15
  0
INSERT
  5
1126
  8
מים
  2
FAUCET
 10
7536.0000
 20
-9622.0000
 30
559.0000
 41
1.0000
 42
1.0000
 43
1.0000
 50
0.0000
  0
3DFACE
  5
1127
  8
מים
 10
7526.0000
 20
-9692.0000
 30
559.0000
 11
7546.0000
 21
-9692.0000
 31
559.0000
 12
7546.0000
 22
-9672.0000
 32
559.0000
 13
7526.0000
 23
-9672.0000
 33
559.0000
 70
15
  0
3DFACE
  5
1128
  8
מים
 10
7526.0000
 20
-9692.0000
 30
579.0000
 11
7546.0000
 21
-9692.0000
 31
579.0000
 12
7546.0000
 22
-9672.0000
 32
579.0000
 13
7526.0000
 23
-9672.0000
 33
579.0000
 70
15
  0
3DFACE
  5
1129
  8
מים
 10
7526.0000
 20
-9692.0000
 30
559.0000
 11
7546.0000
 21
-9692.0000
 31
559.0000
 12
7546.0000
 22
-9692.0000
 32
579.0000
 13
7526.0000
 23
-9692.0000
 33
579.0000
 70
15
  0
3DFACE
  5
112A
  8
מים
 10
7546.0000
 20
-9692.0000
 30
559.0000
 11
7546.0000
 21
-9672.0000
 31
559.0000
 12
7546.0000
 22
-9672.0000
 32
579.0000
 13
7546.0000
 23
-9692.0000
 33
579.0000
 70
15
  0
3DFACE
  5
112B
  8
מים
 10
7546.0000
 20
-9672.0000
 30
559.0000
 11
7526.0000
 21
-9672.0000
 31
559.0000
 12
7526.0000
 22
-9672.0000
 32
579.0000
 13
7546.0000
 23
-9672.0000
 33
579.0000
 70
15
  0
3DFACE
  5
112C
  8
מים
 10
7526.0000
 20
-9672.0000
 30
559.0000
 11
7526.0000
 21
-9692.0000
 31
559.0000
 12
7526.0000
 22
-9692.0000
 32
579.0000
 13
7526.0000
 23
-9672.0000
 33
579.0000
 70
15
  0
INSERT
  5
112D
  8
מים
  2
FAUCET
 10
7382.0000
 20
-9622.0000
 30
552.0000
 41
1.0000
 42
1.0000
 43
1.0000
 50
0.0000
  0
3DFACE
  5
112E
  8
מים
 10
7372.0000
 20
-9692.0000
 30
552.0000
 11
7392.0000
 21
-9692.0000
 31
552.0000
 12
7392.0000
 22
-9672.0000
 32
552.0000
 13
7372.0000
 23
-9672.0000
 33
552.0000
 70
15
  0
3DFACE
  5
112F
  8
מים
 10
7372.0000
 20
-9692.0000
 30
572.0000
 11
7392.0000
 21
-9692.0000
 31
572.0000
 12
7392.0000
 22
-9672.0000
 32
572.0000
 13
7372.0000
 23
-9672.0000
 33
572.0000
 70
15
  0
3DFACE
  5
1130
  8
מים
 10
7372.0000
 20
-9692.0000
 30
552.0000
 11
7392.0000
 21
-9692.0000
 31
552.0000
 12
7392.0000
 22
-9692.0000
 32
572.0000
 13
7372.0000
 23
-9692.0000
 33
572.0000
 70
15
  0
3DFACE
  5
1131
  8
מים
 10
7392.0000
 20
-9692.0000
 30
552.0000
 11
7392.0000
 21
-9672.0000
 31
552.0000
 12
7392.0000
 22
-9672.0000
 32
572.0000
 13
7392.0000
 23
-9692.0000
 33
572.0000
 70
15
  0
3DFACE
  5
1132
  8
מים
 10
7392.0000
 20
-9672.0000
 30
552.0000
 11
7372.0000
 21
-9672.0000
 31
552.0000
 12
7372.0000
 22
-9672.0000
 32
572.0000
 13
7392.0000
 23
-9672.0000
 33
572.0000
 70
15
  0
3DFACE
  5
1133
  8
מים
 10
7372.0000
 20
-9672.0000
 30
552.0000
 11
7372.0000
 21
-9692.0000
 31
552.0000
 12
7372.0000
 22
-9692.0000
 32
572.0000
 13
7372.0000
 23
-9672.0000
 33
572.0000
 70
15
  0
INSERT
  5
1134
  8
חשמל
  2
SOCKET
 10
7212.0000
 20
-9622.0000
 30
494.0000
 41
1.0000
 42
1.0000
 43
1.0000
 50
0.0000
  0
3DFACE
  5
1135
  8
חשמל
 10
7172.0000
 20
-9687.0000
 30
494.0000
 11
7252.0000
 21
-9687.0000
 31
494.0000
 12
7252.0000
 22
-9672.0000
 32
494.0000
 13
7172.0000
 23
-9672.0000
 33
494.0000
 70
15
  0
3DFACE
  5
1136
  8
חשמל
 10
7172.0000
 20
-9687.0000
 30
574.0000
 11
7252.0000
 21
-9687.0000
 31
574.0000
 12
7252.0000
 22
-9672.0000
 32
574.0000
 13
7172.0000
 23
-9672.0000
 33
574.0000
 70
15
  0
3DFACE
  5
1137
  8
חשמל
 10
7172.0000
 20
-9687.0000
 30
494.0000
 11
7252.0000
 21
-9687.0000
 31
494.0000
 12
7252.0000
 22
-9687.0000
 32
574.0000
 13
7172.0000
 23
-9687.0000
 33
574.0000
 70
15
  0
3DFACE
  5
1138
  8
חשמל
 10
7252.0000
 20
-9687.0000
 30
494.0000
 11
7252.0000
 21
-9672.0000
 31
494.0000
 12
7252.0000
 22
-9672.0000
 32
574.0000
 13
7252.0000
 23
-9687.0000
 33
574.0000
 70
15
  0
3DFACE
  5
1139
  8
חשמל
 10
7252.0000
 20
-9672.0000
 30
494.0000
 11
7172.0000
 21
-9672.0000
 31
494.0000
 12
7172.0000
 22
-9672.0000
 32
574.0000
 13
7252.0000
 23
-9672.0000
 33
574.0000
 70
15
  0
3DFACE
  5
113A
  8
חשמל
 10
7172.0000
 20
-9672.0000
 30
494.0000
 11
7172.0000
 21
-9687.0000
 31
494.0000
 12
7172.0000
 22
-9687.0000
 32
574.0000
 13
7172.0000
 23
-9672.0000
 33
574.0000
 70
15
  0
INSERT
  5
113B
  8
מים
  2
SEWAGE
 10
7339.0000
 20
-9622.0000
 30
-27.0000
 41
1.0000
 42
1.0000
 43
1.0000
 50
0.0000
  0
3DFACE
  5
113C
  8
ניקוז
 10
7314.0000
 20
-9722.0000
 30
-27.0000
 11
7364.0000
 21
-9722.0000
 31
-27.0000
 12
7364.0000
 22
-9672.0000
 32
-27.0000
 13
7314.0000
 23
-9672.0000
 33
-27.0000
 70
15
  0
3DFACE
  5
113D
  8
ניקוז
 10
7314.0000
 20
-9722.0000
 30
23.0000
 11
7364.0000
 21
-9722.0000
 31
23.0000
 12
7364.0000
 22
-9672.0000
 32
23.0000
 13
7314.0000
 23
-9672.0000
 33
23.0000
 70
15
  0
3DFACE
  5
113E
  8
ניקוז
 10
7314.0000
 20
-9722.0000
 30
-27.0000
 11
7364.0000
 21
-9722.0000
 31
-27.0000
 12
7364.0000
 22
-9722.0000
 32
23.0000
 13
7314.0000
 23
-9722.0000
 33
23.0000
 70
15
  0
3DFACE
  5
113F
  8
ניקוז
 10
7364.0000
 20
-9722.0000
 30
-27.0000
 11
7364.0000
 21
-9672.0000
 31
-27.0000
 12
7364.0000
 22
-9672.0000
 32
23.0000
 13
7364.0000
 23
-9722.0000
 33
23.0000
 70
15
  0
3DFACE
  5
1140
  8
ניקוז
 10
7364.0000
 20
-9672.0000
 30
-27.0000
 11
7314.0000
 21
-9672.0000
 31
-27.0000
 12
7314.0000
 22
-9672.0000
 32
23.0000
 13
7364.0000
 23
-9672.0000
 33
23.0000
 70
15
  0
3DFACE
  5
1141
  8
ניקוז
 10
7314.0000
 20
-9672.0000
 30
-27.0000
 11
7314.0000
 21
-9722.0000
 31
-27.0000
 12
7314.0000
 22
-9722.0000
 32
23.0000
 13
7314.0000
 23
-9672.0000
 33
23.0000
 70
15
  0
INSERT
  5
1142
  8
חשמל
  2
DUPLEXSWITCH
 10
6771.0000
 20
-9622.0000
 30
1115.0000
 41
1.0000
 42
1.0000
 43
1.0000
 50
0.0000
  0
3DFACE
  5
1143
  8
חשמל
 10
6691.0000
 20
-9687.0000
 30
1115.0000
 11
6851.0000
 21
-9687.0000
 31
1115.0000
 12
6851.0000
 22
-9672.0000
 32
1115.0000
 13
6691.0000
 23
-9672.0000
 33
1115.0000
 70
15
  0
3DFACE
  5
1144
  8
חשמל
 10
6691.0000
 20
-9687.0000
 30
1195.0000
 11
6851.0000
 21
-9687.0000
 31
1195.0000
 12
6851.0000
 22
-9672.0000
 32
1195.0000
 13
6691.0000
 23
-9672.0000
 33
1195.0000
 70
15
  0
3DFACE
  5
1145
  8
חשמל
 10
6691.0000
 20
-9687.0000
 30
1115.0000
 11
6851.0000
 21
-9687.0000
 31
1115.0000
 12
6851.0000
 22
-9687.0000
 32
1195.0000
 13
6691.0000
 23
-9687.0000
 33
1195.0000
 70
15
  0
3DFACE
  5
1146
  8
חשמל
 10
6851.0000
 20
-9687.0000
 30
1115.0000
 11
6851.0000
 21
-9672.0000
 31
1115.0000
 12
6851.0000
 22
-9672.0000
 32
1195.0000
 13
6851.0000
 23
-9687.0000
 33
1195.0000
 70
15
  0
3DFACE
  5
1147
  8
חשמל
 10
6851.0000
 20
-9672.0000
 30
1115.0000
 11
6691.0000
 21
-9672.0000
 31
1115.0000
 12
6691.0000
 22
-9672.0000
 32
1195.0000
 13
6851.0000
 23
-9672.0000
 33
1195.0000
 70
15
  0
3DFACE
  5
1148
  8
חשמל
 10
6691.0000
 20
-9672.0000
 30
1115.0000
 11
6691.0000
 21
-9687.0000
 31
1115.0000
 12
6691.0000
 22
-9687.0000
 32
1195.0000
 13
6691.0000
 23
-9672.0000
 33
1195.0000
 70
15
  0
INSERT
  5
1149
  8
חשמל
  2
SOCKET
 10
6363.0000
 20
-9622.0000
 30
1568.0000
 41
1.0000
 42
1.0000
 43
1.0000
 50
0.0000
  0
3DFACE
  5
114A
  8
חשמל
 10
6323.0000
 20
-9687.0000
 30
1568.0000
 11
6403.0000
 21
-9687.0000
 31
1568.0000
 12
6403.0000
 22
-9672.0000
 32
1568.0000
 13
6323.0000
 23
-9672.0000
 33
1568.0000
 70
15
  0
3DFACE
  5
114B
  8
חשמל
 10
6323.0000
 20
-9687.0000
 30
1648.0000
 11
6403.0000
 21
-9687.0000
 31
1648.0000
 12
6403.0000
 22
-9672.0000
 32
1648.0000
 13
6323.0000
 23
-9672.0000
 33
1648.0000
 70
15
  0
3DFACE
  5
114C
  8
חשמל
 10
6323.0000
 20
-9687.0000
 30
1568.0000
 11
6403.0000
 21
-9687.0000
 31
1568.0000
 12
6403.0000
 22
-9687.0000
 32
1648.0000
 13
6323.0000
 23
-9687.0000
 33
1648.0000
 70
15
  0
3DFACE
  5
114D
  8
חשמל
 10
6403.0000
 20
-9687.0000
 30
1568.0000
 11
6403.0000
 21
-9672.0000
 31
1568.0000
 12
6403.0000
 22
-9672.0000
 32
1648.0000
 13
6403.0000
 23
-9687.0000
 33
1648.0000
 70
15
  0
3DFACE
  5
114E
  8
חשמל
 10
6403.0000
 20
-9672.0000
 30
1568.0000
 11
6323.0000
 21
-9672.0000
 31
1568.0000
 12
6323.0000
 22
-9672.0000
 32
1648.0000
 13
6403.0000
 23
-9672.0000
 33
1648.0000
 70
15
  0
3DFACE
  5
114F
  8
חשמל
 10
6323.0000
 20
-9672.0000
 30
1568.0000
 11
6323.0000
 21
-9687.0000
 31
1568.0000
 12
6323.0000
 22
-9687.0000
 32
1648.0000
 13
6323.0000
 23
-9672.0000
 33
1648.0000
 70
15
  0
INSERT
  5
1150
  8
חשמל
  2
SOCKET
 10
6205.0000
 20
-9622.0000
 30
1565.0000
 41
1.0000
 42
1.0000
 43
1.0000
 50
0.0000
  0
3DFACE
  5
1151
  8
חשמל
 10
6165.0000
 20
-9687.0000
 30
1565.0000
 11
6245.0000
 21
-9687.0000
 31
1565.0000
 12
6245.0000
 22
-9672.0000
 32
1565.0000
 13
6165.0000
 23
-9672.0000
 33
1565.0000
 70
15
  0
3DFACE
  5
1152
  8
חשמל
 10
6165.0000
 20
-9687.0000
 30
1645.0000
 11
6245.0000
 21
-9687.0000
 31
1645.0000
 12
6245.0000
 22
-9672.0000
 32
1645.0000
 13
6165.0000
 23
-9672.0000
 33
1645.0000
 70
15
  0
3DFACE
  5
1153
  8
חשמל
 10
6165.0000
 20
-9687.0000
 30
1565.0000
 11
6245.0000
 21
-9687.0000
 31
1565.0000
 12
6245.0000
 22
-9687.0000
 32
1645.0000
 13
6165.0000
 23
-9687.0000
 33
1645.0000
 70
15
  0
3DFACE
  5
1154
  8
חשמל
 10
6245.0000
 20
-9687.0000
 30
1565.0000
 11
6245.0000
 21
-9672.0000
 31
1565.0000
 12
6245.0000
 22
-9672.0000
 32
1645.0000
 13
6245.0000
 23
-9687.0000
 33
1645.0000
 70
15
  0
3DFACE
  5
1155
  8
חשמל
 10
6245.0000
 20
-9672.0000
 30
1565.0000
 11
6165.0000
 21
-9672.0000
 31
1565.0000
 12
6165.0000
 22
-9672.0000
 32
1645.0000
 13
6245.0000
 23
-9672.0000
 33
1645.0000
 70
15
  0
3DFACE
  5
1156
  8
חשמל
 10
6165.0000
 20
-9672.0000
 30
1565.0000
 11
6165.0000
 21
-9687.0000
 31
1565.0000
 12
6165.0000
 22
-9687.0000
 32
1645.0000
 13
6165.0000
 23
-9672.0000
 33
1645.0000
 70
15
  0
INSERT
  5
1157
  8
חשמל
  2
SOCKET
 10
5413.0000
 20
-9622.0000
 30
1710.0000
 41
1.0000
 42
1.0000
 43
1.0000
 50
0.0000
  0
3DFACE
  5
1158
  8
חשמל
 10
5373.0000
 20
-9687.0000
 30
1710.0000
 11
5453.0000
 21
-9687.0000
 31
1710.0000
 12
5453.0000
 22
-9672.0000
 32
1710.0000
 13
5373.0000
 23
-9672.0000
 33
1710.0000
 70
15
  0
3DFACE
  5
1159
  8
חשמל
 10
5373.0000
 20
-9687.0000
 30
1790.0000
 11
5453.0000
 21
-9687.0000
 31
1790.0000
 12
5453.0000
 22
-9672.0000
 32
1790.0000
 13
5373.0000
 23
-9672.0000
 33
1790.0000
 70
15
  0
3DFACE
  5
115A
  8
חשמל
 10
5373.0000
 20
-9687.0000
 30
1710.0000
 11
5453.0000
 21
-9687.0000
 31
1710.0000
 12
5453.0000
 22
-9687.0000
 32
1790.0000
 13
5373.0000
 23
-9687.0000
 33
1790.0000
 70
15
  0
3DFACE
  5
115B
  8
חשמל
 10
5453.0000
 20
-9687.0000
 30
1710.0000
 11
5453.0000
 21
-9672.0000
 31
1710.0000
 12
5453.0000
 22
-9672.0000
 32
1790.0000
 13
5453.0000
 23
-9687.0000
 33
1790.0000
 70
15
  0
3DFACE
  5
115C
  8
חשמל
 10
5453.0000
 20
-9672.0000
 30
1710.0000
 11
5373.0000
 21
-9672.0000
 31
1710.0000
 12
5373.0000
 22
-9672.0000
 32
1790.0000
 13
5453.0000
 23
-9672.0000
 33
1790.0000
 70
15
  0
3DFACE
  5
115D
  8
חשמל
 10
5373.0000
 20
-9672.0000
 30
1710.0000
 11
5373.0000
 21
-9687.0000
 31
1710.0000
 12
5373.0000
 22
-9687.0000
 32
1790.0000
 13
5373.0000
 23
-9672.0000
 33
1790.0000
 70
15
  0
INSERT
  5
115E
  8
חשמל
  2
CONTROLBOX
 10
6691.0000
 20
-9622.0000
 30
2244.0000
 41
1.0000
 42
1.0000
 43
1.0000
 50
0.0000
  0
3DFACE
  5
115F
  8
חשמל
 10
6651.0000
 20
-9687.0000
 30
2244.0000
 11
6731.0000
 21
-9687.0000
 31
2244.0000
 12
6731.0000
 22
-9672.0000
 32
2244.0000
 13
6651.0000
 23
-9672.0000
 33
2244.0000
 70
15
  0
3DFACE
  5
1160
  8
חשמל
 10
6651.0000
 20
-9687.0000
 30
2324.0000
 11
6731.0000
 21
-9687.0000
 31
2324.0000
 12
6731.0000
 22
-9672.0000
 32
2324.0000
 13
6651.0000
 23
-9672.0000
 33
2324.0000
 70
15
  0
3DFACE
  5
1161
  8
חשמל
 10
6651.0000
 20
-9687.0000
 30
2244.0000
 11
6731.0000
 21
-9687.0000
 31
2244.0000
 12
6731.0000
 22
-9687.0000
 32
2324.0000
 13
6651.0000
 23
-9687.0000
 33
2324.0000
 70
15
  0
3DFACE
  5
1162
  8
חשמל
 10
6731.0000
 20
-9687.0000
 30
2244.0000
 11
6731.0000
 21
-9672.0000
 31
2244.0000
 12
6731.0000
 22
-9672.0000
 32
2324.0000
 13
6731.0000
 23
-9687.0000
 33
2324.0000
 70
15
  0
3DFACE
  5
1163
  8
חשמל
 10
6731.0000
 20
-9672.0000
 30
2244.0000
 11
6651.0000
 21
-9672.0000
 31
2244.0000
 12
6651.0000
 22
-9672.0000
 32
2324.0000
 13
6731.0000
 23
-9672.0000
 33
2324.0000
 70
15
  0
3DFACE
  5
1164
  8
חשמל
 10
6651.0000
 20
-9672.0000
 30
2244.0000
 11
6651.0000
 21
-9687.0000
 31
2244.0000
 12
6651.0000
 22
-9687.0000
 32
2324.0000
 13
6651.0000
 23
-9672.0000
 33
2324.0000
 70
15
  0
INSERT
  5
1165
  8
תאורה
  2
LIGHTING
 10
6024.0000
 20
-9622.0000
 30
2767.0000
 41
1.0000
 42
1.0000
 43
1.0000
 50
0.0000
  0
3DFACE
  5
1166
  8
תאורה
 10
5974.0000
 20
-9772.0000
 30
2767.0000
 11
6074.0000
 21
-9772.0000
 31
2767.0000
 12
6074.0000
 22
-9672.0000
 32
2767.0000
 13
5974.0000
 23
-9672.0000
 33
2767.0000
 70
15
  0
3DFACE
  5
1167
  8
תאורה
 10
5974.0000
 20
-9772.0000
 30
2797.0000
 11
6074.0000
 21
-9772.0000
 31
2797.0000
 12
6074.0000
 22
-9672.0000
 32
2797.0000
 13
5974.0000
 23
-9672.0000
 33
2797.0000
 70
15
  0
3DFACE
  5
1168
  8
תאורה
 10
5974.0000
 20
-9772.0000
 30
2767.0000
 11
6074.0000
 21
-9772.0000
 31
2767.0000
 12
6074.0000
 22
-9772.0000
 32
2797.0000
 13
5974.0000
 23
-9772.0000
 33
2797.0000
 70
15
  0
3DFACE
  5
1169
  8
תאורה
 10
6074.0000
 20
-9772.0000
 30
2767.0000
 11
6074.0000
 21
-9672.0000
 31
2767.0000
 12
6074.0000
 22
-9672.0000
 32
2797.0000
 13
6074.0000
 23
-9772.0000
 33
2797.0000
 70
15
  0
3DFACE
  5
116A
  8
תאורה
 10
6074.0000
 20
-9672.0000
 30
2767.0000
 11
5974.0000
 21
-9672.0000
 31
2767.0000
 12
5974.0000
 22
-9672.0000
 32
2797.0000
 13
6074.0000
 23
-9672.0000
 33
2797.0000
 70
15
  0
3DFACE
  5
116B
  8
תאורה
 10
5974.0000
 20
-9672.0000
 30
2767.0000
 11
5974.0000
 21
-9772.0000
 31
2767.0000
 12
5974.0000
 22
-9772.0000
 32
2797.0000
 13
5974.0000
 23
-9672.0000
 33
2797.0000
 70
15
  0
INSERT
  5
116C
  8
תאורה
  2
LIGHTING
 10
6167.0000
 20
-9622.0000
 30
2767.0000
 41
1.0000
 42
1.0000
 43
1.0000
 50
0.0000
  0
3DFACE
  5
116D
  8
תאורה
 10
6117.0000
 20
-9772.0000
 30
2767.0000
 11
6217.0000
 21
-9772.0000
 31
2767.0000
 12
6217.0000
 22
-9672.0000
 32
2767.0000
 13
6117.0000
 23
-9672.0000
 33
2767.0000
 70
15
  0
3DFACE
  5
116E
  8
תאורה
 10
6117.0000
 20
-9772.0000
 30
2797.0000
 11
6217.0000
 21
-9772.0000
 31
2797.0000
 12
6217.0000
 22
-9672.0000
 32
2797.0000
 13
6117.0000
 23
-9672.0000
 33
2797.0000
 70
15
  0
3DFACE
  5
116F
  8
תאורה
 10
6117.0000
 20
-9772.0000
 30
2767.0000
 11
6217.0000
 21
-9772.0000
 31
2767.0000
 12
6217.0000
 22
-9772.0000
 32
2797.0000
 13
6117.0000
 23
-9772.0000
 33
2797.0000
 70
15
  0
3DFACE
  5
1170
  8
תאורה
 10
6217.0000
 20
-9772.0000
 30
2767.0000
 11
6217.0000
 21
-9672.0000
 31
2767.0000
 12
6217.0000
 22
-9672.0000
 32
2797.0000
 13
6217.0000
 23
-9772.0000
 33
2797.0000
 70
15
  0
3DFACE
  5
1171
  8
תאורה
 10
6217.0000
 20
-9672.0000
 30
2767.0000
 11
6117.0000
 21
-9672.0000
 31
2767.0000
 12
6117.0000
 22
-9672.0000
 32
2797.0000
 13
6217.0000
 23
-9672.0000
 33
2797.0000
 70
15
  0
3DFACE
  5
1172
  8
תאורה
 10
6117.0000
 20
-9672.0000
 30
2767.0000
 11
6117.0000
 21
-9772.0000
 31
2767.0000
 12
6117.0000
 22
-9772.0000
 32
2797.0000
 13
6117.0000
 23
-9672.0000
 33
2797.0000
 70
15
  0
INSERT
  5
1173
  8
תאורה
  2
LIGHTING
 10
9053.0000
 20
-10945.0000
 30
2767.0000
 41
1.0000
 42
1.0000
 43
1.0000
 50
270.0000
  0
3DFACE
  5
1174
  8
תאורה
 10
8903.0000
 20
-10895.0000
 30
2767.0000
 11
8903.0000
 21
-10995.0000
 31
2767.0000
 12
9003.0000
 22
-10995.0000
 32
2767.0000
 13
9003.0000
 23
-10895.0000
 33
2767.0000
 70
15
  0
3DFACE
  5
1175
  8
תאורה
 10
8903.0000
 20
-10895.0000
 30
2797.0000
 11
8903.0000
 21
-10995.0000
 31
2797.0000
 12
9003.0000
 22
-10995.0000
 32
2797.0000
 13
9003.0000
 23
-10895.0000
 33
2797.0000
 70
15
  0
3DFACE
  5
1176
  8
תאורה
 10
8903.0000
 20
-10895.0000
 30
2767.0000
 11
8903.0000
 21
-10995.0000
 31
2767.0000
 12
8903.0000
 22
-10995.0000
 32
2797.0000
 13
8903.0000
 23
-10895.0000
 33
2797.0000
 70
15
  0
3DFACE
  5
1177
  8
תאורה
 10
8903.0000
 20
-10995.0000
 30
2767.0000
 11
9003.0000
 21
-10995.0000
 31
2767.0000
 12
9003.0000
 22
-10995.0000
 32
2797.0000
 13
8903.0000
 23
-10995.0000
 33
2797.0000
 70
15
  0
3DFACE
  5
1178
  8
תאורה
 10
9003.0000
 20
-10995.0000
 30
2767.0000
 11
9003.0000
 21
-10895.0000
 31
2767.0000
 12
9003.0000
 22
-10895.0000
 32
2797.0000
 13
9003.0000
 23
-10995.0000
 33
2797.0000
 70
15
  0
3DFACE
  5
1179
  8
תאורה
 10
9003.0000
 20
-10895.0000
 30
2767.0000
 11
8903.0000
 21
-10895.0000
 31
2767.0000
 12
8903.0000
 22
-10895.0000
 32
2797.0000
 13
9003.0000
 23
-10895.0000
 33
2797.0000
 70
15
  0
ENDSEC
  0
EOF
