  0
SECTION
  2
HEADER
  9
$ACADVER
  1
AC1009
  9
$INSBASE
 10
0.0000
 20
0.0000
 30
0.0000
  9
$EXTMIN
 10
2373.5000
 20
-17945.5000
 30
0.0000
  9
$EXTMAX
 10
9852.0000
 20
-9462.0000
 30
0.0000
  9
$DWGCODEPAGE
  3
ansi_1255
  9
$INSUNITS
 70
4
  9
$LTSCALE
 40
10.0000
  9
$LIMMIN
 10
0.0000
 20
0.0000
  9
$LIMMAX
 10
2000.0000
 20
200.0000
  0
ENDSEC
  0
SECTION
  2
TABLES
  0
TABLE
  2
VPORT
 70
1
  0
VPORT
  2
*ACTIVE
 70
0
 10
0.0000
 20
0.0000
 11
1.0000
 21
1.0000
 12
6112.7500
 22
-13703.7500
 13
0.0000
 23
0.0000
 14
10.0000
 24
10.0000
 15
10.0000
 25
10.0000
 16
0.0000
 26
0.0000
 36
1.0000
 17
0.0000
 27
0.0000
 37
0.0000
 40
9331.8500
 41
1.0000
 42
50.0000
 43
0.0000
 44
0.0000
 50
0.0000
 51
0.0000
 71
0
 72
100
 73
1
 74
1
 75
0
 76
0
 77
0
 78
0
  0
ENDTAB
  0
TABLE
  2
LTYPE
 70
2
  0
LTYPE
  2
CONTINUOUS
 70
0
  3
Solid line
 72
65
 73
0
 40
0.0000
  0
LTYPE
  2
HIDDEN
 70
0
  3
Hidden __ __ __ __ __ __ __ __ __ __ __ __ __ __
 72
65
 73
2
 40
0.3750
 49
0.2500
 49
-0.1250
  0
ENDTAB
  0
TABLE
  2
LAYER
 70
37
  0
LAYER
  2
0
 70
0
 62
7
  6
CONTINUOUS
  0
LAYER
  2
Electrical
 70
0
 62
6
  6
CONTINUOUS
  0
LAYER
  2
Plumbing
 70
0
 62
150
  6
CONTINUOUS
  0
LAYER
  2
Const_Walls
 70
0
 62
253
  6
CONTINUOUS
  0
LAYER
  2
Dim
 70
0
 62
9
  6
CONTINUOUS
  0
LAYER
  2
Text
 70
0
 62
74
  6
CONTINUOUS
  0
LAYER
  2
HVAC
 70
0
 62
4
  6
CONTINUOUS
  0
LAYER
  2
Misc
 70
0
 62
32
  6
HIDDEN
  0
LAYER
  2
Dim_Markers
 70
0
 62
9
  6
CONTINUOUS
  0
LAYER
  2
Dim_Wall
 70
0
 62
9
  6
CONTINUOUS
  0
LAYER
  2
Const_Doors
 70
0
 62
5
  6
CONTINUOUS
  0
LAYER
  2
Const_Windows
 70
0
 62
152
  6
CONTINUOUS
  0
LAYER
  2
Text_Legend
 70
0
 62
74
  6
CONTINUOUS
  0
LAYER
  2
Text_JobInfo
 70
0
 62
74
  6
CONTINUOUS
  0
LAYER
  2
Dim_Overall
 70
0
 62
-9
  6
CONTINUOUS
  0
LAYER
  2
Dim_Embeded
 70
0
 62
-9
  6
CONTINUOUS
  0
LAYER
  2
Dim_Angles_Auto
 70
0
 62
3
  6
CONTINUOUS
  0
LAYER
  2
Text_AreaNo
 70
0
 62
-74
  6
CONTINUOUS
  0
LAYER
  2
Dim_ArcChord
 70
0
 62
9
  6
HIDDEN
  0
LAYER
  2
Const_Walls_Ext
 70
0
 62
253
  6
CONTINUOUS
  0
LAYER
  2
Dim_Verification
 70
0
 62
-9
  6
CONTINUOUS
  0
LAYER
  2
Dim_Radius
 70
0
 62
9
  6
CONTINUOUS
  0
LAYER
  2
Dim_Angles
 70
0
 62
9
  6
CONTINUOUS
  0
LAYER
  2
Z_Other
 70
0
 62
253
  6
CONTINUOUS
  0
LAYER
  2
Const_Stairs
 70
0
 62
253
  6
CONTINUOUS
  0
LAYER
  2
Misc_Cabinets
 70
0
 62
36
  6
CONTINUOUS
  0
LAYER
  2
Z_Scale_Ruler
 70
0
 62
7
  6
CONTINUOUS
  0
LAYER
  2
Const_Fill
 70
0
 62
253
  6
CONTINUOUS
  0
LAYER
  2
Wall_Image
 70
0
 62
7
  6
CONTINUOUS
  0
LAYER
  2
Exterior_walls
 70
0
 62
5
  6
CONTINUOUS
  0
LAYER
  2
HVAC_DIM
 70
0
 62
4
  6
CONTINUOUS
  0
LAYER
  2
HVAC_H
 70
0
 62
4
  6
CONTINUOUS
  0
LAYER
  2
Electrical_DIM
 70
0
 62
6
  6
CONTINUOUS
  0
LAYER
  2
Electrical_H
 70
0
 62
6
  6
CONTINUOUS
  0
LAYER
  2
Plumbing_DIM
 70
0
 62
150
  6
CONTINUOUS
  0
LAYER
  2
Plumbing_H
 70
0
 62
150
  6
CONTINUOUS
  0
LAYER
  2
datum
 70
0
 62
1
  6
CONTINUOUS
  0
ENDTAB
  0
TABLE
  2
STYLE
 70
1
  0
STYLE
  2
STANDARD
 70
0
 40
0.0000
 41
1.0000
 50
0.0000
 71
0
 42
10.0000
  3
ARIAL.TTF
  4

  0
ENDTAB
  0
ENDSEC
  0
SECTION
  2
BLOCKS
  0
BLOCK
  8
0
  2
SOCKET
 70
0
 10
0.0000
 20
0.0000
 30
0.0000
  0
LINE
  5
1125
  8
0
 10
0.0000
 20
0.0000
 30
0.0000
 11
0.0000
 21
20.0000
 31
0.0000
  0
ARC
  5
1126
  8
0
 10
0.0000
 20
70.0000
 30
0.0000
 40
50.0000
 50
0.0000
 51
360.0000
  0
LINE
  5
1127
  8
0
 10
-50.0000
 20
70.0000
 30
0.0000
 11
50.0000
 21
70.0000
 31
0.0000
  0
LINE
  5
1128
  8
0
 10
-18.0000
 20
55.0000
 30
0.0000
 11
-18.0000
 21
85.0000
 31
0.0000
  0
LINE
  5
1129
  8
0
 10
18.0000
 20
55.0000
 30
0.0000
 11
18.0000
 21
85.0000
 31
0.0000
  0
ENDBLK
  5
112A
  8
0
  0
BLOCK
  8
0
  2
GAS
 70
0
 10
0.0000
 20
0.0000
 30
0.0000
  0
LINE
  5
112B
  8
0
 10
0.0000
 20
0.0000
 30
0.0000
 11
0.0000
 21
18.0000
 31
0.0000
  0
ARC
  5
112C
  8
0
 10
0.0000
 20
62.0000
 30
0.0000
 40
44.0000
 50
0.0000
 51
360.0000
  0
LINE
  5
112D
  8
0
 10
-16.0000
 20
52.0000
 30
0.0000
 11
0.0000
 21
78.0000
 31
0.0000
  0
LINE
  5
112E
  8
0
 10
0.0000
 20
78.0000
 30
0.0000
 11
16.0000
 21
52.0000
 31
0.0000
  0
LINE
  5
112F
  8
0
 10
0.0000
 20
45.0000
 30
0.0000
 11
0.0000
 21
70.0000
 31
0.0000
  0
ENDBLK
  5
1130
  8
0
  0
BLOCK
  8
0
  2
CONTROLBOX
 70
0
 10
0.0000
 20
0.0000
 30
0.0000
  0
LINE
  5
1131
  8
0
 10
-90.0000
 20
0.0000
 30
0.0000
 11
90.0000
 21
0.0000
 31
0.0000
  0
LINE
  5
1132
  8
0
 10
90.0000
 20
0.0000
 30
0.0000
 11
90.0000
 21
70.0000
 31
0.0000
  0
LINE
  5
1133
  8
0
 10
90.0000
 20
70.0000
 30
0.0000
 11
-90.0000
 21
70.0000
 31
0.0000
  0
LINE
  5
1134
  8
0
 10
-90.0000
 20
70.0000
 30
0.0000
 11
-90.0000
 21
0.0000
 31
0.0000
  0
LINE
  5
1135
  8
0
 10
-90.0000
 20
0.0000
 30
0.0000
 11
90.0000
 21
70.0000
 31
0.0000
  0
ENDBLK
  5
1136
  8
0
  0
BLOCK
  8
0
  2
FAUCET
 70
0
 10
0.0000
 20
0.0000
 30
0.0000
  0
LINE
  5
1137
  8
0
 10
0.0000
 20
0.0000
 30
0.0000
 11
0.0000
 21
12.0000
 31
0.0000
  0
ARC
  5
1138
  8
0
 10
0.0000
 20
57.0000
 30
0.0000
 40
45.0000
 50
0.0000
 51
360.0000
  0
LINE
  5
1139
  8
0
 10
-32.0000
 20
57.0000
 30
0.0000
 11
32.0000
 21
57.0000
 31
0.0000
  0
LINE
  5
113A
  8
0
 10
0.0000
 20
25.0000
 30
0.0000
 11
0.0000
 21
89.0000
 31
0.0000
  0
ENDBLK
  5
113B
  8
0
  0
BLOCK
  8
0
  2
DUPLEXSWITCH
 70
0
 10
0.0000
 20
0.0000
 30
0.0000
  0
LINE
  5
113C
  8
0
 10
0.0000
 20
0.0000
 30
0.0000
 11
0.0000
 21
20.0000
 31
0.0000
  0
ARC
  5
113D
  8
0
 10
-45.0000
 20
70.0000
 30
0.0000
 40
38.0000
 50
0.0000
 51
360.0000
  0
ARC
  5
113E
  8
0
 10
45.0000
 20
70.0000
 30
0.0000
 40
38.0000
 50
0.0000
 51
360.0000
  0
LINE
  5
113F
  8
0
 10
-45.0000
 20
55.0000
 30
0.0000
 11
-45.0000
 21
85.0000
 31
0.0000
  0
LINE
  5
1140
  8
0
 10
45.0000
 20
55.0000
 30
0.0000
 11
45.0000
 21
85.0000
 31
0.0000
  0
ENDBLK
  5
1141
  8
0
  0
BLOCK
  8
0
  2
SEWAGE
 70
0
 10
0.0000
 20
0.0000
 30
0.0000
  0
LINE
  5
1142
  8
0
 10
0.0000
 20
0.0000
 30
0.0000
 11
0.0000
 21
10.0000
 31
0.0000
  0
ARC
  5
1143
  8
0
 10
0.0000
 20
50.0000
 30
0.0000
 40
45.0000
 50
0.0000
 51
360.0000
  0
LINE
  5
1144
  8
0
 10
-30.0000
 20
20.0000
 30
0.0000
 11
30.0000
 21
80.0000
 31
0.0000
  0
LINE
  5
1145
  8
0
 10
-30.0000
 20
80.0000
 30
0.0000
 11
30.0000
 21
20.0000
 31
0.0000
  0
ENDBLK
  5
1146
  8
0
  0
BLOCK
  8
0
  2
LIGHTING
 70
0
 10
0.0000
 20
0.0000
 30
0.0000
  0
ARC
  5
1147
  8
0
 10
0.0000
 20
0.0000
 30
0.0000
 40
55.0000
 50
0.0000
 51
360.0000
  0
LINE
  5
1148
  8
0
 10
-38.0000
 20
-38.0000
 30
0.0000
 11
38.0000
 21
38.0000
 31
0.0000
  0
LINE
  5
1149
  8
0
 10
-38.0000
 20
38.0000
 30
0.0000
 11
38.0000
 21
-38.0000
 31
0.0000
  0
ENDBLK
  5
114A
  8
0
  0
BLOCK
  8
0
  2
WINDOW1
 70
0
 10
0.0000
 20
0.0000
 30
0.0000
  0
LINE
  5
114B
  8
0
 10
-0.5000
 20
-0.5000
 30
0.0000
 11
0.5000
 21
-0.5000
 31
0.0000
  0
LINE
  5
114C
  8
0
 10
0.5000
 20
-0.5000
 30
0.0000
 11
0.5000
 21
0.5000
 31
0.0000
  0
LINE
  5
114D
  8
0
 10
0.5000
 20
0.5000
 30
0.0000
 11
-0.5000
 21
0.5000
 31
0.0000
  0
LINE
  5
114E
  8
0
 10
-0.5000
 20
0.5000
 30
0.0000
 11
-0.5000
 21
-0.5000
 31
0.0000
  0
LINE
  5
114F
  8
0
 10
-0.5000
 20
0.0000
 30
0.0000
 11
0.5000
 21
0.0000
 31
0.0000
  0
ENDBLK
  5
1150
  8
0
  0
BLOCK
  8
0
  2
DOOR1
 70
0
 10
0.0000
 20
0.0000
 30
0.0000
  0
LINE
  5
1151
  8
0
 10
-0.5000
 20
-0.5000
 30
0.0000
 11
-0.5000
 21
0.5000
 31
0.0000
  0
LINE
  5
1152
  8
0
 10
-0.5000
 20
0.5000
 30
0.0000
 11
0.5000
 21
0.5000
 31
0.0000
  0
ARC
  5
1153
  8
0
 10
-0.5000
 20
-0.5000
 30
0.0000
 40
1.0000
 50
0.0000
 51
90.0000
  0
ENDBLK
  5
1154
  8
0
  0
ENDSEC
  0
SECTION
  2
ENTITIES
  0
LINE
  5
1000
  8
Const_Walls_Ext
 10
7196.0000
 20
-12744.0000
 30
0.0000
 11
7196.0000
 21
-16197.0000
 31
0.0000
  0
LINE
  5
1001
  8
Const_Walls
 10
7096.0000
 20
-12744.0000
 30
0.0000
 11
7096.0000
 21
-16197.0000
 31
0.0000
  0
LINE
  5
1002
  8
Const_Walls
 10
7196.0000
 20
-12744.0000
 30
0.0000
 11
7096.0000
 21
-12744.0000
 31
0.0000
  0
LINE
  5
1003
  8
Const_Walls
 10
7196.0000
 20
-16197.0000
 30
0.0000
 11
7096.0000
 21
-16197.0000
 31
0.0000
  0
SOLID
  5
1004
  8
Const_Fill
 10
7196.0000
 20
-12744.0000
 30
0.0000
 11
7196.0000
 21
-16197.0000
 31
0.0000
 12
7096.0000
 22
-12744.0000
 32
0.0000
 13
7096.0000
 23
-16197.0000
 33
0.0000
  0
LINE
  5
1005
  8
Dim_Wall
 10
7146.0000
 20
-12744.0000
 30
0.0000
 11
7606.0000
 21
-12744.0000
 31
0.0000
  0
LINE
  5
1006
  8
Dim_Wall
 10
7146.0000
 20
-16197.0000
 30
0.0000
 11
7606.0000
 21
-16197.0000
 31
0.0000
  0
LINE
  5
1007
  8
Dim_Wall
 10
7546.0000
 20
-12744.0000
 30
0.0000
 11
7546.0000
 21
-16197.0000
 31
0.0000
  0
SOLID
  5
1008
  8
Dim_Wall
 10
7546.0000
 20
-12744.0000
 30
0.0000
 11
7576.0000
 21
-12654.0000
 31
0.0000
 12
7516.0000
 22
-12654.0000
 32
0.0000
 13
7516.0000
 23
-12654.0000
 33
0.0000
  0
SOLID
  5
1009
  8
Dim_Wall
 10
7546.0000
 20
-16197.0000
 30
0.0000
 11
7576.0000
 21
-16287.0000
 31
0.0000
 12
7516.0000
 22
-16287.0000
 32
0.0000
 13
7516.0000
 23
-16287.0000
 33
0.0000
  0
TEXT
  5
100A
  8
Dim_Wall
 10
7594.0000
 20
-14470.5000
 30
0.0000
 40
120.0000
 50
90.0000
  1
345.3
  7
STANDARD
  0
LINE
  5
100B
  8
Const_Walls_Ext
 10
7146.0000
 20
-16247.0000
 30
0.0000
 11
6652.0000
 21
-16247.0000
 31
0.0000
  0
LINE
  5
100C
  8
Const_Walls
 10
7146.0000
 20
-16147.0000
 30
0.0000
 11
6652.0000
 21
-16147.0000
 31
0.0000
  0
LINE
  5
100D
  8
Const_Walls
 10
7146.0000
 20
-16247.0000
 30
0.0000
 11
7146.0000
 21
-16147.0000
 31
0.0000
  0
LINE
  5
100E
  8
Const_Walls
 10
6652.0000
 20
-16247.0000
 30
0.0000
 11
6652.0000
 21
-16147.0000
 31
0.0000
  0
SOLID
  5
100F
  8
Const_Fill
 10
7146.0000
 20
-16247.0000
 30
0.0000
 11
6652.0000
 21
-16247.0000
 31
0.0000
 12
7146.0000
 22
-16147.0000
 32
0.0000
 13
6652.0000
 23
-16147.0000
 33
0.0000
  0
LINE
  5
1010
  8
Dim_Wall
 10
7146.0000
 20
-16197.0000
 30
0.0000
 11
7146.0000
 21
-16657.0000
 31
0.0000
  0
LINE
  5
1011
  8
Dim_Wall
 10
6652.0000
 20
-16197.0000
 30
0.0000
 11
6652.0000
 21
-16657.0000
 31
0.0000
  0
LINE
  5
1012
  8
Dim_Wall
 10
7146.0000
 20
-16597.0000
 30
0.0000
 11
6652.0000
 21
-16597.0000
 31
0.0000
  0
SOLID
  5
1013
  8
Dim_Wall
 10
7146.0000
 20
-16597.0000
 30
0.0000
 11
7236.0000
 21
-16627.0000
 31
0.0000
 12
7236.0000
 22
-16567.0000
 32
0.0000
 13
7236.0000
 23
-16567.0000
 33
0.0000
  0
SOLID
  5
1014
  8
Dim_Wall
 10
6652.0000
 20
-16597.0000
 30
0.0000
 11
6562.0000
 21
-16627.0000
 31
0.0000
 12
6562.0000
 22
-16567.0000
 32
0.0000
 13
6562.0000
 23
-16567.0000
 33
0.0000
  0
TEXT
  5
1015
  8
Dim_Wall
 10
6899.0000
 20
-16645.0000
 30
0.0000
 40
120.0000
 50
360.0000
  1
49.4
  7
STANDARD
  0
LINE
  5
1016
  8
Const_Walls_Ext
 10
6702.0000
 20
-16197.0000
 30
0.0000
 11
6702.0000
 21
-17165.0000
 31
0.0000
  0
LINE
  5
1017
  8
Const_Walls
 10
6602.0000
 20
-16197.0000
 30
0.0000
 11
6602.0000
 21
-17165.0000
 31
0.0000
  0
LINE
  5
1018
  8
Const_Walls
 10
6702.0000
 20
-16197.0000
 30
0.0000
 11
6602.0000
 21
-16197.0000
 31
0.0000
  0
LINE
  5
1019
  8
Const_Walls
 10
6702.0000
 20
-17165.0000
 30
0.0000
 11
6602.0000
 21
-17165.0000
 31
0.0000
  0
SOLID
  5
101A
  8
Const_Fill
 10
6702.0000
 20
-16197.0000
 30
0.0000
 11
6702.0000
 21
-17165.0000
 31
0.0000
 12
6602.0000
 22
-16197.0000
 32
0.0000
 13
6602.0000
 23
-17165.0000
 33
0.0000
  0
LINE
  5
101B
  8
Dim_Wall
 10
6652.0000
 20
-16197.0000
 30
0.0000
 11
7112.0000
 21
-16197.0000
 31
0.0000
  0
LINE
  5
101C
  8
Dim_Wall
 10
6652.0000
 20
-17165.0000
 30
0.0000
 11
7112.0000
 21
-17165.0000
 31
0.0000
  0
LINE
  5
101D
  8
Dim_Wall
 10
7052.0000
 20
-16197.0000
 30
0.0000
 11
7052.0000
 21
-17165.0000
 31
0.0000
  0
SOLID
  5
101E
  8
Dim_Wall
 10
7052.0000
 20
-16197.0000
 30
0.0000
 11
7082.0000
 21
-16107.0000
 31
0.0000
 12
7022.0000
 22
-16107.0000
 32
0.0000
 13
7022.0000
 23
-16107.0000
 33
0.0000
  0
SOLID
  5
101F
  8
Dim_Wall
 10
7052.0000
 20
-17165.0000
 30
0.0000
 11
7082.0000
 21
-17255.0000
 31
0.0000
 12
7022.0000
 22
-17255.0000
 32
0.0000
 13
7022.0000
 23
-17255.0000
 33
0.0000
  0
TEXT
  5
1020
  8
Dim_Wall
 10
7100.0000
 20
-16681.0000
 30
0.0000
 40
120.0000
 50
90.0000
  1
96.8
  7
STANDARD
  0
LINE
  5
1021
  8
Const_Walls_Ext
 10
6652.0000
 20
-17215.0000
 30
0.0000
 11
3670.0000
 21
-17215.0000
 31
0.0000
  0
LINE
  5
1022
  8
Const_Walls
 10
6652.0000
 20
-17115.0000
 30
0.0000
 11
3670.0000
 21
-17115.0000
 31
0.0000
  0
LINE
  5
1023
  8
Const_Walls
 10
6652.0000
 20
-17215.0000
 30
0.0000
 11
6652.0000
 21
-17115.0000
 31
0.0000
  0
LINE
  5
1024
  8
Const_Walls
 10
3670.0000
 20
-17215.0000
 30
0.0000
 11
3670.0000
 21
-17115.0000
 31
0.0000
  0
SOLID
  5
1025
  8
Const_Fill
 10
6652.0000
 20
-17215.0000
 30
0.0000
 11
3670.0000
 21
-17215.0000
 31
0.0000
 12
6652.0000
 22
-17115.0000
 32
0.0000
 13
3670.0000
 23
-17115.0000
 33
0.0000
  0
LINE
  5
1026
  8
Dim_Wall
 10
6652.0000
 20
-17165.0000
 30
0.0000
 11
6652.0000
 21
-17625.0000
 31
0.0000
  0
LINE
  5
1027
  8
Dim_Wall
 10
3670.0000
 20
-17165.0000
 30
0.0000
 11
3670.0000
 21
-17625.0000
 31
0.0000
  0
LINE
  5
1028
  8
Dim_Wall
 10
6652.0000
 20
-17565.0000
 30
0.0000
 11
3670.0000
 21
-17565.0000
 31
0.0000
  0
SOLID
  5
1029
  8
Dim_Wall
 10
6652.0000
 20
-17565.0000
 30
0.0000
 11
6742.0000
 21
-17595.0000
 31
0.0000
 12
6742.0000
 22
-17535.0000
 32
0.0000
 13
6742.0000
 23
-17535.0000
 33
0.0000
  0
SOLID
  5
102A
  8
Dim_Wall
 10
3670.0000
 20
-17565.0000
 30
0.0000
 11
3580.0000
 21
-17595.0000
 31
0.0000
 12
3580.0000
 22
-17535.0000
 32
0.0000
 13
3580.0000
 23
-17535.0000
 33
0.0000
  0
TEXT
  5
102B
  8
Dim_Wall
 10
5161.0000
 20
-17613.0000
 30
0.0000
 40
120.0000
 50
360.0000
  1
298.2
  7
STANDARD
  0
LINE
  5
102C
  8
Const_Walls_Ext
 10
3620.0000
 20
-17165.0000
 30
0.0000
 11
3620.0000
 21
-13263.0000
 31
0.0000
  0
LINE
  5
102D
  8
Const_Walls
 10
3720.0000
 20
-17165.0000
 30
0.0000
 11
3720.0000
 21
-13263.0000
 31
0.0000
  0
LINE
  5
102E
  8
Const_Walls
 10
3620.0000
 20
-17165.0000
 30
0.0000
 11
3720.0000
 21
-17165.0000
 31
0.0000
  0
LINE
  5
102F
  8
Const_Walls
 10
3620.0000
 20
-13263.0000
 30
0.0000
 11
3720.0000
 21
-13263.0000
 31
0.0000
  0
SOLID
  5
1030
  8
Const_Fill
 10
3620.0000
 20
-17165.0000
 30
0.0000
 11
3620.0000
 21
-13263.0000
 31
0.0000
 12
3720.0000
 22
-17165.0000
 32
0.0000
 13
3720.0000
 23
-13263.0000
 33
0.0000
  0
LINE
  5
1031
  8
Dim_Wall
 10
3670.0000
 20
-17165.0000
 30
0.0000
 11
3210.0000
 21
-17165.0000
 31
0.0000
  0
LINE
  5
1032
  8
Dim_Wall
 10
3670.0000
 20
-13263.0000
 30
0.0000
 11
3210.0000
 21
-13263.0000
 31
0.0000
  0
LINE
  5
1033
  8
Dim_Wall
 10
3270.0000
 20
-17165.0000
 30
0.0000
 11
3270.0000
 21
-13263.0000
 31
0.0000
  0
SOLID
  5
1034
  8
Dim_Wall
 10
3270.0000
 20
-17165.0000
 30
0.0000
 11
3240.0000
 21
-17255.0000
 31
0.0000
 12
3300.0000
 22
-17255.0000
 32
0.0000
 13
3300.0000
 23
-17255.0000
 33
0.0000
  0
SOLID
  5
1035
  8
Dim_Wall
 10
3270.0000
 20
-13263.0000
 30
0.0000
 11
3240.0000
 21
-13173.0000
 31
0.0000
 12
3300.0000
 22
-13173.0000
 32
0.0000
 13
3300.0000
 23
-13173.0000
 33
0.0000
  0
TEXT
  5
1036
  8
Dim_Wall
 10
3222.0000
 20
-15214.0000
 30
0.0000
 40
120.0000
 50
90.0000
  1
390.2
  7
STANDARD
  0
LINE
  5
1037
  8
Const_Walls_Ext
 10
3670.0000
 20
-13213.0000
 30
0.0000
 11
4883.0000
 21
-13213.0000
 31
0.0000
  0
LINE
  5
1038
  8
Const_Walls
 10
3670.0000
 20
-13313.0000
 30
0.0000
 11
4883.0000
 21
-13313.0000
 31
0.0000
  0
LINE
  5
1039
  8
Const_Walls
 10
3670.0000
 20
-13213.0000
 30
0.0000
 11
3670.0000
 21
-13313.0000
 31
0.0000
  0
LINE
  5
103A
  8
Const_Walls
 10
4883.0000
 20
-13213.0000
 30
0.0000
 11
4883.0000
 21
-13313.0000
 31
0.0000
  0
SOLID
  5
103B
  8
Const_Fill
 10
3670.0000
 20
-13213.0000
 30
0.0000
 11
4883.0000
 21
-13213.0000
 31
0.0000
 12
3670.0000
 22
-13313.0000
 32
0.0000
 13
4883.0000
 23
-13313.0000
 33
0.0000
  0
LINE
  5
103C
  8
Dim_Wall
 10
3670.0000
 20
-13263.0000
 30
0.0000
 11
3670.0000
 21
-12803.0000
 31
0.0000
  0
LINE
  5
103D
  8
Dim_Wall
 10
4883.0000
 20
-13263.0000
 30
0.0000
 11
4883.0000
 21
-12803.0000
 31
0.0000
  0
LINE
  5
103E
  8
Dim_Wall
 10
3670.0000
 20
-12863.0000
 30
0.0000
 11
4883.0000
 21
-12863.0000
 31
0.0000
  0
SOLID
  5
103F
  8
Dim_Wall
 10
3670.0000
 20
-12863.0000
 30
0.0000
 11
3580.0000
 21
-12833.0000
 31
0.0000
 12
3580.0000
 22
-12893.0000
 32
0.0000
 13
3580.0000
 23
-12893.0000
 33
0.0000
  0
SOLID
  5
1040
  8
Dim_Wall
 10
4883.0000
 20
-12863.0000
 30
0.0000
 11
4973.0000
 21
-12833.0000
 31
0.0000
 12
4973.0000
 22
-12893.0000
 32
0.0000
 13
4973.0000
 23
-12893.0000
 33
0.0000
  0
TEXT
  5
1041
  8
Dim_Wall
 10
4276.5000
 20
-12815.0000
 30
0.0000
 40
120.0000
 50
0.0000
  1
121.3
  7
STANDARD
  0
LINE
  5
1042
  8
Const_Walls_Ext
 10
4833.0000
 20
-13263.0000
 30
0.0000
 11
4833.0000
 21
-9622.0000
 31
0.0000
  0
LINE
  5
1043
  8
Const_Walls
 10
4933.0000
 20
-13263.0000
 30
0.0000
 11
4933.0000
 21
-9622.0000
 31
0.0000
  0
LINE
  5
1044
  8
Const_Walls
 10
4833.0000
 20
-13263.0000
 30
0.0000
 11
4933.0000
 21
-13263.0000
 31
0.0000
  0
LINE
  5
1045
  8
Const_Walls
 10
4833.0000
 20
-9622.0000
 30
0.0000
 11
4933.0000
 21
-9622.0000
 31
0.0000
  0
SOLID
  5
1046
  8
Const_Fill
 10
4833.0000
 20
-13263.0000
 30
0.0000
 11
4833.0000
 21
-9622.0000
 31
0.0000
 12
4933.0000
 22
-13263.0000
 32
0.0000
 13
4933.0000
 23
-9622.0000
 33
0.0000
  0
LINE
  5
1047
  8
Dim_Wall
 10
4883.0000
 20
-13263.0000
 30
0.0000
 11
4423.0000
 21
-13263.0000
 31
0.0000
  0
LINE
  5
1048
  8
Dim_Wall
 10
4883.0000
 20
-9622.0000
 30
0.0000
 11
4423.0000
 21
-9622.0000
 31
0.0000
  0
LINE
  5
1049
  8
Dim_Wall
 10
4483.0000
 20
-13263.0000
 30
0.0000
 11
4483.0000
 21
-9622.0000
 31
0.0000
  0
SOLID
  5
104A
  8
Dim_Wall
 10
4483.0000
 20
-13263.0000
 30
0.0000
 11
4453.0000
 21
-13353.0000
 31
0.0000
 12
4513.0000
 22
-13353.0000
 32
0.0000
 13
4513.0000
 23
-13353.0000
 33
0.0000
  0
SOLID
  5
104B
  8
Dim_Wall
 10
4483.0000
 20
-9622.0000
 30
0.0000
 11
4453.0000
 21
-9532.0000
 31
0.0000
 12
4513.0000
 22
-9532.0000
 32
0.0000
 13
4513.0000
 23
-9532.0000
 33
0.0000
  0
TEXT
  5
104C
  8
Dim_Wall
 10
4435.0000
 20
-11442.5000
 30
0.0000
 40
120.0000
 50
90.0000
  1
364.1
  7
STANDARD
  0
LINE
  5
104D
  8
Const_Walls_Ext
 10
4883.0000
 20
-9572.0000
 30
0.0000
 11
9053.0000
 21
-9572.0000
 31
0.0000
  0
LINE
  5
104E
  8
Const_Walls
 10
4883.0000
 20
-9672.0000
 30
0.0000
 11
9053.0000
 21
-9672.0000
 31
0.0000
  0
LINE
  5
104F
  8
Const_Walls
 10
4883.0000
 20
-9572.0000
 30
0.0000
 11
4883.0000
 21
-9672.0000
 31
0.0000
  0
LINE
  5
1050
  8
Const_Walls
 10
9053.0000
 20
-9572.0000
 30
0.0000
 11
9053.0000
 21
-9672.0000
 31
0.0000
  0
SOLID
  5
1051
  8
Const_Fill
 10
4883.0000
 20
-9572.0000
 30
0.0000
 11
9053.0000
 21
-9572.0000
 31
0.0000
 12
4883.0000
 22
-9672.0000
 32
0.0000
 13
9053.0000
 23
-9672.0000
 33
0.0000
  0
LINE
  5
1052
  8
Dim_Wall
 10
4883.0000
 20
-9622.0000
 30
0.0000
 11
4883.0000
 21
-9162.0000
 31
0.0000
  0
LINE
  5
1053
  8
Dim_Wall
 10
9053.0000
 20
-9622.0000
 30
0.0000
 11
9053.0000
 21
-9162.0000
 31
0.0000
  0
LINE
  5
1054
  8
Dim_Wall
 10
4883.0000
 20
-9222.0000
 30
0.0000
 11
9053.0000
 21
-9222.0000
 31
0.0000
  0
SOLID
  5
1055
  8
Dim_Wall
 10
4883.0000
 20
-9222.0000
 30
0.0000
 11
4793.0000
 21
-9192.0000
 31
0.0000
 12
4793.0000
 22
-9252.0000
 32
0.0000
 13
4793.0000
 23
-9252.0000
 33
0.0000
  0
SOLID
  5
1056
  8
Dim_Wall
 10
9053.0000
 20
-9222.0000
 30
0.0000
 11
9143.0000
 21
-9192.0000
 31
0.0000
 12
9143.0000
 22
-9252.0000
 32
0.0000
 13
9143.0000
 23
-9252.0000
 33
0.0000
  0
TEXT
  5
1057
  8
Dim_Wall
 10
6968.0000
 20
-9174.0000
 30
0.0000
 40
120.0000
 50
0.0000
  1
417
  7
STANDARD
  0
LINE
  5
1058
  8
Const_Walls_Ext
 10
9103.0000
 20
-9622.0000
 30
0.0000
 11
9103.0000
 21
-13045.0000
 31
0.0000
  0
LINE
  5
1059
  8
Const_Walls
 10
9003.0000
 20
-9622.0000
 30
0.0000
 11
9003.0000
 21
-13045.0000
 31
0.0000
  0
LINE
  5
105A
  8
Const_Walls
 10
9103.0000
 20
-9622.0000
 30
0.0000
 11
9003.0000
 21
-9622.0000
 31
0.0000
  0
LINE
  5
105B
  8
Const_Walls
 10
9103.0000
 20
-13045.0000
 30
0.0000
 11
9003.0000
 21
-13045.0000
 31
0.0000
  0
SOLID
  5
105C
  8
Const_Fill
 10
9103.0000
 20
-9622.0000
 30
0.0000
 11
9103.0000
 21
-13045.0000
 31
0.0000
 12
9003.0000
 22
-9622.0000
 32
0.0000
 13
9003.0000
 23
-13045.0000
 33
0.0000
  0
LINE
  5
105D
  8
Dim_Wall
 10
9053.0000
 20
-9622.0000
 30
0.0000
 11
9513.0000
 21
-9622.0000
 31
0.0000
  0
LINE
  5
105E
  8
Dim_Wall
 10
9053.0000
 20
-13045.0000
 30
0.0000
 11
9513.0000
 21
-13045.0000
 31
0.0000
  0
LINE
  5
105F
  8
Dim_Wall
 10
9453.0000
 20
-9622.0000
 30
0.0000
 11
9453.0000
 21
-13045.0000
 31
0.0000
  0
SOLID
  5
1060
  8
Dim_Wall
 10
9453.0000
 20
-9622.0000
 30
0.0000
 11
9483.0000
 21
-9532.0000
 31
0.0000
 12
9423.0000
 22
-9532.0000
 32
0.0000
 13
9423.0000
 23
-9532.0000
 33
0.0000
  0
SOLID
  5
1061
  8
Dim_Wall
 10
9453.0000
 20
-13045.0000
 30
0.0000
 11
9483.0000
 21
-13135.0000
 31
0.0000
 12
9423.0000
 22
-13135.0000
 32
0.0000
 13
9423.0000
 23
-13135.0000
 33
0.0000
  0
TEXT
  5
1062
  8
Dim_Wall
 10
9501.0000
 20
-11333.5000
 30
0.0000
 40
120.0000
 50
90.0000
  1
342.3
  7
STANDARD
  0
INSERT
  5
1063
  8
Const_Windows
  2
WINDOW1
 10
5443.0000
 20
-17165.0000
 30
0.0000
 41
1461.0000
 42
100.0000
 43
1.0000
 50
180.0000
  0
INSERT
  5
1064
  8
Const_Windows
  2
WINDOW1
 10
3670.0000
 20
-15917.0000
 30
0.0000
 41
2493.0000
 42
100.0000
 43
1.0000
 50
90.0000
  0
INSERT
  5
1065
  8
Const_Windows
  2
WINDOW1
 10
4883.0000
 20
-12040.0000
 30
0.0000
 41
1468.0000
 42
100.0000
 43
1.0000
 50
90.0000
  0
INSERT
  5
1066
  8
Const_Doors
  2
DOOR1
 10
9053.0000
 20
-11547.0000
 30
0.0000
 41
1498.0000
 42
100.0000
 43
1.0000
 50
270.0000
  0
INSERT
  5
1067
  8
Electrical
  2
Socket
 10
4883.0000
 20
-11359.0000
 30
0.0000
 41
1.0000
 42
1.0000
 43
1.0000
 50
90.0000
  0
TEXT
  5
1068
  8
Electrical_H
 10
4953.0000
 20
-11319.0000
 30
0.0000
 40
90.0000
 50
0.0000
  1
H 95.2
  7
STANDARD
  0
LINE
  5
1069
  8
Electrical_DIM
 10
4883.0000
 20
-13263.0000
 30
0.0000
 11
5143.0000
 21
-13263.0000
 31
0.0000
  0
LINE
  5
106A
  8
Electrical_DIM
 10
4883.0000
 20
-11359.0000
 30
0.0000
 11
5143.0000
 21
-11359.0000
 31
0.0000
  0
LINE
  5
106B
  8
Electrical_DIM
 10
5083.0000
 20
-13263.0000
 30
0.0000
 11
5083.0000
 21
-11359.0000
 31
0.0000
  0
SOLID
  5
106C
  8
Electrical_DIM
 10
5083.0000
 20
-13263.0000
 30
0.0000
 11
5113.0000
 21
-13353.0000
 31
0.0000
 12
5053.0000
 22
-13353.0000
 32
0.0000
 13
5053.0000
 23
-13353.0000
 33
0.0000
  0
SOLID
  5
106D
  8
Electrical_DIM
 10
5083.0000
 20
-11359.0000
 30
0.0000
 11
5113.0000
 21
-11269.0000
 31
0.0000
 12
5053.0000
 22
-11269.0000
 32
0.0000
 13
5053.0000
 23
-11269.0000
 33
0.0000
  0
TEXT
  5
106E
  8
Electrical_DIM
 10
5119.0000
 20
-12311.0000
 30
0.0000
 40
90.0000
 50
90.0000
  1
190.4
  7
STANDARD
  0
INSERT
  5
106F
  8
Plumbing
  2
Gas
 10
4883.0000
 20
-12060.0000
 30
0.0000
 41
1.0000
 42
1.0000
 43
1.0000
 50
90.0000
  0
TEXT
  5
1070
  8
Plumbing_H
 10
4953.0000
 20
-12020.0000
 30
0.0000
 40
90.0000
 50
0.0000
  1
H -1.2
  7
STANDARD
  0
LINE
  5
1071
  8
Plumbing_DIM
 10
4883.0000
 20
-13263.0000
 30
0.0000
 11
5143.0000
 21
-13263.0000
 31
0.0000
  0
LINE
  5
1072
  8
Plumbing_DIM
 10
4883.0000
 20
-12060.0000
 30
0.0000
 11
5143.0000
 21
-12060.0000
 31
0.0000
  0
LINE
  5
1073
  8
Plumbing_DIM
 10
5083.0000
 20
-13263.0000
 30
0.0000
 11
5083.0000
 21
-12060.0000
 31
0.0000
  0
SOLID
  5
1074
  8
Plumbing_DIM
 10
5083.0000
 20
-13263.0000
 30
0.0000
 11
5113.0000
 21
-13353.0000
 31
0.0000
 12
5053.0000
 22
-13353.0000
 32
0.0000
 13
5053.0000
 23
-13353.0000
 33
0.0000
  0
SOLID
  5
1075
  8
Plumbing_DIM
 10
5083.0000
 20
-12060.0000
 30
0.0000
 11
5113.0000
 21
-11970.0000
 31
0.0000
 12
5053.0000
 22
-11970.0000
 32
0.0000
 13
5053.0000
 23
-11970.0000
 33
0.0000
  0
TEXT
  5
1076
  8
Plumbing_DIM
 10
5119.0000
 20
-12661.5000
 30
0.0000
 40
90.0000
 50
90.0000
  1
120.3
  7
STANDARD
  0
INSERT
  5
1077
  8
Electrical
  2
ControlBox
 10
4883.0000
 20
-11930.0000
 30
0.0000
 41
1.0000
 42
1.0000
 43
1.0000
 50
90.0000
  0
TEXT
  5
1078
  8
Electrical_H
 10
4953.0000
 20
-11890.0000
 30
0.0000
 40
90.0000
 50
0.0000
  1
H -1.2
  7
STANDARD
  0
LINE
  5
1079
  8
Electrical_DIM
 10
4883.0000
 20
-13263.0000
 30
0.0000
 11
5143.0000
 21
-13263.0000
 31
0.0000
  0
LINE
  5
107A
  8
Electrical_DIM
 10
4883.0000
 20
-11930.0000
 30
0.0000
 11
5143.0000
 21
-11930.0000
 31
0.0000
  0
LINE
  5
107B
  8
Electrical_DIM
 10
5083.0000
 20
-13263.0000
 30
0.0000
 11
5083.0000
 21
-11930.0000
 31
0.0000
  0
SOLID
  5
107C
  8
Electrical_DIM
 10
5083.0000
 20
-13263.0000
 30
0.0000
 11
5113.0000
 21
-13353.0000
 31
0.0000
 12
5053.0000
 22
-13353.0000
 32
0.0000
 13
5053.0000
 23
-13353.0000
 33
0.0000
  0
SOLID
  5
107D
  8
Electrical_DIM
 10
5083.0000
 20
-11930.0000
 30
0.0000
 11
5113.0000
 21
-11840.0000
 31
0.0000
 12
5053.0000
 22
-11840.0000
 32
0.0000
 13
5053.0000
 23
-11840.0000
 33
0.0000
  0
TEXT
  5
107E
  8
Electrical_DIM
 10
5119.0000
 20
-12596.5000
 30
0.0000
 40
90.0000
 50
90.0000
  1
133.3
  7
STANDARD
  0
INSERT
  5
107F
  8
Electrical
  2
ControlBox
 10
4883.0000
 20
-11803.0000
 30
0.0000
 41
1.0000
 42
1.0000
 43
1.0000
 50
90.0000
  0
TEXT
  5
1080
  8
Electrical_H
 10
4953.0000
 20
-11763.0000
 30
0.0000
 40
90.0000
 50
0.0000
  1
H -1.2
  7
STANDARD
  0
LINE
  5
1081
  8
Electrical_DIM
 10
4883.0000
 20
-13263.0000
 30
0.0000
 11
5143.0000
 21
-13263.0000
 31
0.0000
  0
LINE
  5
1082
  8
Electrical_DIM
 10
4883.0000
 20
-11803.0000
 30
0.0000
 11
5143.0000
 21
-11803.0000
 31
0.0000
  0
LINE
  5
1083
  8
Electrical_DIM
 10
5083.0000
 20
-13263.0000
 30
0.0000
 11
5083.0000
 21
-11803.0000
 31
0.0000
  0
SOLID
  5
1084
  8
Electrical_DIM
 10
5083.0000
 20
-13263.0000
 30
0.0000
 11
5113.0000
 21
-13353.0000
 31
0.0000
 12
5053.0000
 22
-13353.0000
 32
0.0000
 13
5053.0000
 23
-13353.0000
 33
0.0000
  0
SOLID
  5
1085
  8
Electrical_DIM
 10
5083.0000
 20
-11803.0000
 30
0.0000
 11
5113.0000
 21
-11713.0000
 31
0.0000
 12
5053.0000
 22
-11713.0000
 32
0.0000
 13
5053.0000
 23
-11713.0000
 33
0.0000
  0
TEXT
  5
1086
  8
Electrical_DIM
 10
5119.0000
 20
-12533.0000
 30
0.0000
 40
90.0000
 50
90.0000
  1
146
  7
STANDARD
  0
INSERT
  5
1087
  8
Plumbing
  2
Faucet
 10
4883.0000
 20
-11842.0000
 30
0.0000
 41
1.0000
 42
1.0000
 43
1.0000
 50
90.0000
  0
TEXT
  5
1088
  8
Plumbing_H
 10
4953.0000
 20
-11802.0000
 30
0.0000
 40
90.0000
 50
0.0000
  1
H -1.2
  7
STANDARD
  0
LINE
  5
1089
  8
Plumbing_DIM
 10
4883.0000
 20
-13263.0000
 30
0.0000
 11
5143.0000
 21
-13263.0000
 31
0.0000
  0
LINE
  5
108A
  8
Plumbing_DIM
 10
4883.0000
 20
-11842.0000
 30
0.0000
 11
5143.0000
 21
-11842.0000
 31
0.0000
  0
LINE
  5
108B
  8
Plumbing_DIM
 10
5083.0000
 20
-13263.0000
 30
0.0000
 11
5083.0000
 21
-11842.0000
 31
0.0000
  0
SOLID
  5
108C
  8
Plumbing_DIM
 10
5083.0000
 20
-13263.0000
 30
0.0000
 11
5113.0000
 21
-13353.0000
 31
0.0000
 12
5053.0000
 22
-13353.0000
 32
0.0000
 13
5053.0000
 23
-13353.0000
 33
0.0000
  0
SOLID
  5
108D
  8
Plumbing_DIM
 10
5083.0000
 20
-11842.0000
 30
0.0000
 11
5113.0000
 21
-11752.0000
 31
0.0000
 12
5053.0000
 22
-11752.0000
 32
0.0000
 13
5053.0000
 23
-11752.0000
 33
0.0000
  0
TEXT
  5
108E
  8
Plumbing_DIM
 10
5119.0000
 20
-12552.5000
 30
0.0000
 40
90.0000
 50
90.0000
  1
142.1
  7
STANDARD
  0
INSERT
  5
108F
  8
Electrical
  2
ControlBox
 10
4883.0000
 20
-12372.0000
 30
0.0000
 41
1.0000
 42
1.0000
 43
1.0000
 50
90.0000
  0
TEXT
  5
1090
  8
Electrical_H
 10
4953.0000
 20
-12332.0000
 30
0.0000
 40
90.0000
 50
0.0000
  1
H 209.7
  7
STANDARD
  0
LINE
  5
1091
  8
Electrical_DIM
 10
4883.0000
 20
-13263.0000
 30
0.0000
 11
5143.0000
 21
-13263.0000
 31
0.0000
  0
LINE
  5
1092
  8
Electrical_DIM
 10
4883.0000
 20
-12372.0000
 30
0.0000
 11
5143.0000
 21
-12372.0000
 31
0.0000
  0
LINE
  5
1093
  8
Electrical_DIM
 10
5083.0000
 20
-13263.0000
 30
0.0000
 11
5083.0000
 21
-12372.0000
 31
0.0000
  0
SOLID
  5
1094
  8
Electrical_DIM
 10
5083.0000
 20
-13263.0000
 30
0.0000
 11
5113.0000
 21
-13353.0000
 31
0.0000
 12
5053.0000
 22
-13353.0000
 32
0.0000
 13
5053.0000
 23
-13353.0000
 33
0.0000
  0
SOLID
  5
1095
  8
Electrical_DIM
 10
5083.0000
 20
-12372.0000
 30
0.0000
 11
5113.0000
 21
-12282.0000
 31
0.0000
 12
5053.0000
 22
-12282.0000
 32
0.0000
 13
5053.0000
 23
-12282.0000
 33
0.0000
  0
TEXT
  5
1096
  8
Electrical_DIM
 10
5119.0000
 20
-12817.5000
 30
0.0000
 40
90.0000
 50
90.0000
  1
89.1
  7
STANDARD
  0
INSERT
  5
1097
  8
Electrical
  2
Socket
 10
4883.0000
 20
-12210.0000
 30
0.0000
 41
1.0000
 42
1.0000
 43
1.0000
 50
90.0000
  0
TEXT
  5
1098
  8
Electrical_H
 10
4953.0000
 20
-12170.0000
 30
0.0000
 40
90.0000
 50
0.0000
  1
H 122
  7
STANDARD
  0
LINE
  5
1099
  8
Electrical_DIM
 10
4883.0000
 20
-13263.0000
 30
0.0000
 11
5143.0000
 21
-13263.0000
 31
0.0000
  0
LINE
  5
109A
  8
Electrical_DIM
 10
4883.0000
 20
-12210.0000
 30
0.0000
 11
5143.0000
 21
-12210.0000
 31
0.0000
  0
LINE
  5
109B
  8
Electrical_DIM
 10
5083.0000
 20
-13263.0000
 30
0.0000
 11
5083.0000
 21
-12210.0000
 31
0.0000
  0
SOLID
  5
109C
  8
Electrical_DIM
 10
5083.0000
 20
-13263.0000
 30
0.0000
 11
5113.0000
 21
-13353.0000
 31
0.0000
 12
5053.0000
 22
-13353.0000
 32
0.0000
 13
5053.0000
 23
-13353.0000
 33
0.0000
  0
SOLID
  5
109D
  8
Electrical_DIM
 10
5083.0000
 20
-12210.0000
 30
0.0000
 11
5113.0000
 21
-12120.0000
 31
0.0000
 12
5053.0000
 22
-12120.0000
 32
0.0000
 13
5053.0000
 23
-12120.0000
 33
0.0000
  0
TEXT
  5
109E
  8
Electrical_DIM
 10
5119.0000
 20
-12736.5000
 30
0.0000
 40
90.0000
 50
90.0000
  1
105.3
  7
STANDARD
  0
INSERT
  5
109F
  8
Electrical
  2
Socket
 10
4883.0000
 20
-13052.0000
 30
0.0000
 41
1.0000
 42
1.0000
 43
1.0000
 50
90.0000
  0
TEXT
  5
10A0
  8
Electrical_H
 10
4953.0000
 20
-13012.0000
 30
0.0000
 40
90.0000
 50
0.0000
  1
H 120.2
  7
STANDARD
  0
LINE
  5
10A1
  8
Electrical_DIM
 10
4883.0000
 20
-13263.0000
 30
0.0000
 11
5143.0000
 21
-13263.0000
 31
0.0000
  0
LINE
  5
10A2
  8
Electrical_DIM
 10
4883.0000
 20
-13052.0000
 30
0.0000
 11
5143.0000
 21
-13052.0000
 31
0.0000
  0
LINE
  5
10A3
  8
Electrical_DIM
 10
5083.0000
 20
-13263.0000
 30
0.0000
 11
5083.0000
 21
-13052.0000
 31
0.0000
  0
SOLID
  5
10A4
  8
Electrical_DIM
 10
5083.0000
 20
-13263.0000
 30
0.0000
 11
5113.0000
 21
-13353.0000
 31
0.0000
 12
5053.0000
 22
-13353.0000
 32
0.0000
 13
5053.0000
 23
-13353.0000
 33
0.0000
  0
SOLID
  5
10A5
  8
Electrical_DIM
 10
5083.0000
 20
-13052.0000
 30
0.0000
 11
5113.0000
 21
-12962.0000
 31
0.0000
 12
5053.0000
 22
-12962.0000
 32
0.0000
 13
5053.0000
 23
-12962.0000
 33
0.0000
  0
TEXT
  5
10A6
  8
Electrical_DIM
 10
5119.0000
 20
-13157.5000
 30
0.0000
 40
90.0000
 50
90.0000
  1
21.1
  7
STANDARD
  0
INSERT
  5
10A7
  8
Electrical
  2
DuplexSwitch
 10
8189.0000
 20
-9622.0000
 30
0.0000
 41
1.0000
 42
1.0000
 43
1.0000
 50
0.0000
  0
TEXT
  5
10A8
  8
Electrical_H
 10
8259.0000
 20
-9582.0000
 30
0.0000
 40
90.0000
 50
0.0000
  1
H 111.7
  7
STANDARD
  0
LINE
  5
10A9
  8
Electrical_DIM
 10
4883.0000
 20
-9622.0000
 30
0.0000
 11
4883.0000
 21
-9882.0000
 31
0.0000
  0
LINE
  5
10AA
  8
Electrical_DIM
 10
8189.0000
 20
-9622.0000
 30
0.0000
 11
8189.0000
 21
-9882.0000
 31
0.0000
  0
LINE
  5
10AB
  8
Electrical_DIM
 10
4883.0000
 20
-9822.0000
 30
0.0000
 11
8189.0000
 21
-9822.0000
 31
0.0000
  0
SOLID
  5
10AC
  8
Electrical_DIM
 10
4883.0000
 20
-9822.0000
 30
0.0000
 11
4793.0000
 21
-9852.0000
 31
0.0000
 12
4793.0000
 22
-9792.0000
 32
0.0000
 13
4793.0000
 23
-9792.0000
 33
0.0000
  0
SOLID
  5
10AD
  8
Electrical_DIM
 10
8189.0000
 20
-9822.0000
 30
0.0000
 11
8279.0000
 21
-9852.0000
 31
0.0000
 12
8279.0000
 22
-9792.0000
 32
0.0000
 13
8279.0000
 23
-9792.0000
 33
0.0000
  0
TEXT
  5
10AE
  8
Electrical_DIM
 10
6536.0000
 20
-9858.0000
 30
0.0000
 40
90.0000
 50
0.0000
  1
330.6
  7
STANDARD
  0
INSERT
  5
10AF
  8
Electrical
  2
ControlBox
 10
8289.0000
 20
-9622.0000
 30
0.0000
 41
1.0000
 42
1.0000
 43
1.0000
 50
0.0000
  0
TEXT
  5
10B0
  8
Electrical_H
 10
8359.0000
 20
-9582.0000
 30
0.0000
 40
90.0000
 50
0.0000
  1
H 177.8
  7
STANDARD
  0
LINE
  5
10B1
  8
Electrical_DIM
 10
4883.0000
 20
-9622.0000
 30
0.0000
 11
4883.0000
 21
-9882.0000
 31
0.0000
  0
LINE
  5
10B2
  8
Electrical_DIM
 10
8289.0000
 20
-9622.0000
 30
0.0000
 11
8289.0000
 21
-9882.0000
 31
0.0000
  0
LINE
  5
10B3
  8
Electrical_DIM
 10
4883.0000
 20
-9822.0000
 30
0.0000
 11
8289.0000
 21
-9822.0000
 31
0.0000
  0
SOLID
  5
10B4
  8
Electrical_DIM
 10
4883.0000
 20
-9822.0000
 30
0.0000
 11
4793.0000
 21
-9852.0000
 31
0.0000
 12
4793.0000
 22
-9792.0000
 32
0.0000
 13
4793.0000
 23
-9792.0000
 33
0.0000
  0
SOLID
  5
10B5
  8
Electrical_DIM
 10
8289.0000
 20
-9822.0000
 30
0.0000
 11
8379.0000
 21
-9852.0000
 31
0.0000
 12
8379.0000
 22
-9792.0000
 32
0.0000
 13
8379.0000
 23
-9792.0000
 33
0.0000
  0
TEXT
  5
10B6
  8
Electrical_DIM
 10
6586.0000
 20
-9858.0000
 30
0.0000
 40
90.0000
 50
0.0000
  1
340.6
  7
STANDARD
  0
INSERT
  5
10B7
  8
Plumbing
  2
Faucet
 10
7536.0000
 20
-9622.0000
 30
0.0000
 41
1.0000
 42
1.0000
 43
1.0000
 50
0.0000
  0
TEXT
  5
10B8
  8
Plumbing_H
 10
7606.0000
 20
-9582.0000
 30
0.0000
 40
90.0000
 50
0.0000
  1
H 55.9
  7
STANDARD
  0
LINE
  5
10B9
  8
Plumbing_DIM
 10
4883.0000
 20
-9622.0000
 30
0.0000
 11
4883.0000
 21
-9882.0000
 31
0.0000
  0
LINE
  5
10BA
  8
Plumbing_DIM
 10
7536.0000
 20
-9622.0000
 30
0.0000
 11
7536.0000
 21
-9882.0000
 31
0.0000
  0
LINE
  5
10BB
  8
Plumbing_DIM
 10
4883.0000
 20
-9822.0000
 30
0.0000
 11
7536.0000
 21
-9822.0000
 31
0.0000
  0
SOLID
  5
10BC
  8
Plumbing_DIM
 10
4883.0000
 20
-9822.0000
 30
0.0000
 11
4793.0000
 21
-9852.0000
 31
0.0000
 12
4793.0000
 22
-9792.0000
 32
0.0000
 13
4793.0000
 23
-9792.0000
 33
0.0000
  0
SOLID
  5
10BD
  8
Plumbing_DIM
 10
7536.0000
 20
-9822.0000
 30
0.0000
 11
7626.0000
 21
-9852.0000
 31
0.0000
 12
7626.0000
 22
-9792.0000
 32
0.0000
 13
7626.0000
 23
-9792.0000
 33
0.0000
  0
TEXT
  5
10BE
  8
Plumbing_DIM
 10
6209.5000
 20
-9858.0000
 30
0.0000
 40
90.0000
 50
0.0000
  1
265.3
  7
STANDARD
  0
INSERT
  5
10BF
  8
Plumbing
  2
Faucet
 10
7382.0000
 20
-9622.0000
 30
0.0000
 41
1.0000
 42
1.0000
 43
1.0000
 50
0.0000
  0
TEXT
  5
10C0
  8
Plumbing_H
 10
7452.0000
 20
-9582.0000
 30
0.0000
 40
90.0000
 50
0.0000
  1
H 55.2
  7
STANDARD
  0
LINE
  5
10C1
  8
Plumbing_DIM
 10
4883.0000
 20
-9622.0000
 30
0.0000
 11
4883.0000
 21
-9882.0000
 31
0.0000
  0
LINE
  5
10C2
  8
Plumbing_DIM
 10
7382.0000
 20
-9622.0000
 30
0.0000
 11
7382.0000
 21
-9882.0000
 31
0.0000
  0
LINE
  5
10C3
  8
Plumbing_DIM
 10
4883.0000
 20
-9822.0000
 30
0.0000
 11
7382.0000
 21
-9822.0000
 31
0.0000
  0
SOLID
  5
10C4
  8
Plumbing_DIM
 10
4883.0000
 20
-9822.0000
 30
0.0000
 11
4793.0000
 21
-9852.0000
 31
0.0000
 12
4793.0000
 22
-9792.0000
 32
0.0000
 13
4793.0000
 23
-9792.0000
 33
0.0000
  0
SOLID
  5
10C5
  8
Plumbing_DIM
 10
7382.0000
 20
-9822.0000
 30
0.0000
 11
7472.0000
 21
-9852.0000
 31
0.0000
 12
7472.0000
 22
-9792.0000
 32
0.0000
 13
7472.0000
 23
-9792.0000
 33
0.0000
  0
TEXT
  5
10C6
  8
Plumbing_DIM
 10
6132.5000
 20
-9858.0000
 30
0.0000
 40
90.0000
 50
0.0000
  1
249.9
  7
STANDARD
  0
INSERT
  5
10C7
  8
Electrical
  2
Socket
 10
7212.0000
 20
-9622.0000
 30
0.0000
 41
1.0000
 42
1.0000
 43
1.0000
 50
0.0000
  0
TEXT
  5
10C8
  8
Electrical_H
 10
7282.0000
 20
-9582.0000
 30
0.0000
 40
90.0000
 50
0.0000
  1
H 49.4
  7
STANDARD
  0
LINE
  5
10C9
  8
Electrical_DIM
 10
4883.0000
 20
-9622.0000
 30
0.0000
 11
4883.0000
 21
-9882.0000
 31
0.0000
  0
LINE
  5
10CA
  8
Electrical_DIM
 10
7212.0000
 20
-9622.0000
 30
0.0000
 11
7212.0000
 21
-9882.0000
 31
0.0000
  0
LINE
  5
10CB
  8
Electrical_DIM
 10
4883.0000
 20
-9822.0000
 30
0.0000
 11
7212.0000
 21
-9822.0000
 31
0.0000
  0
SOLID
  5
10CC
  8
Electrical_DIM
 10
4883.0000
 20
-9822.0000
 30
0.0000
 11
4793.0000
 21
-9852.0000
 31
0.0000
 12
4793.0000
 22
-9792.0000
 32
0.0000
 13
4793.0000
 23
-9792.0000
 33
0.0000
  0
SOLID
  5
10CD
  8
Electrical_DIM
 10
7212.0000
 20
-9822.0000
 30
0.0000
 11
7302.0000
 21
-9852.0000
 31
0.0000
 12
7302.0000
 22
-9792.0000
 32
0.0000
 13
7302.0000
 23
-9792.0000
 33
0.0000
  0
TEXT
  5
10CE
  8
Electrical_DIM
 10
6047.5000
 20
-9858.0000
 30
0.0000
 40
90.0000
 50
0.0000
  1
232.9
  7
STANDARD
  0
INSERT
  5
10CF
  8
Plumbing
  2
Sewage
 10
7339.0000
 20
-9622.0000
 30
0.0000
 41
1.0000
 42
1.0000
 43
1.0000
 50
0.0000
  0
TEXT
  5
10D0
  8
Plumbing_H
 10
7409.0000
 20
-9582.0000
 30
0.0000
 40
90.0000
 50
0.0000
  1
H -2.7
  7
STANDARD
  0
LINE
  5
10D1
  8
Plumbing_DIM
 10
4883.0000
 20
-9622.0000
 30
0.0000
 11
4883.0000
 21
-9882.0000
 31
0.0000
  0
LINE
  5
10D2
  8
Plumbing_DIM
 10
7339.0000
 20
-9622.0000
 30
0.0000
 11
7339.0000
 21
-9882.0000
 31
0.0000
  0
LINE
  5
10D3
  8
Plumbing_DIM
 10
4883.0000
 20
-9822.0000
 30
0.0000
 11
7339.0000
 21
-9822.0000
 31
0.0000
  0
SOLID
  5
10D4
  8
Plumbing_DIM
 10
4883.0000
 20
-9822.0000
 30
0.0000
 11
4793.0000
 21
-9852.0000
 31
0.0000
 12
4793.0000
 22
-9792.0000
 32
0.0000
 13
4793.0000
 23
-9792.0000
 33
0.0000
  0
SOLID
  5
10D5
  8
Plumbing_DIM
 10
7339.0000
 20
-9822.0000
 30
0.0000
 11
7429.0000
 21
-9852.0000
 31
0.0000
 12
7429.0000
 22
-9792.0000
 32
0.0000
 13
7429.0000
 23
-9792.0000
 33
0.0000
  0
TEXT
  5
10D6
  8
Plumbing_DIM
 10
6111.0000
 20
-9858.0000
 30
0.0000
 40
90.0000
 50
0.0000
  1
245.6
  7
STANDARD
  0
INSERT
  5
10D7
  8
Electrical
  2
DuplexSwitch
 10
6771.0000
 20
-9622.0000
 30
0.0000
 41
1.0000
 42
1.0000
 43
1.0000
 50
0.0000
  0
TEXT
  5
10D8
  8
Electrical_H
 10
6841.0000
 20
-9582.0000
 30
0.0000
 40
90.0000
 50
0.0000
  1
H 111.5
  7
STANDARD
  0
LINE
  5
10D9
  8
Electrical_DIM
 10
4883.0000
 20
-9622.0000
 30
0.0000
 11
4883.0000
 21
-9882.0000
 31
0.0000
  0
LINE
  5
10DA
  8
Electrical_DIM
 10
6771.0000
 20
-9622.0000
 30
0.0000
 11
6771.0000
 21
-9882.0000
 31
0.0000
  0
LINE
  5
10DB
  8
Electrical_DIM
 10
4883.0000
 20
-9822.0000
 30
0.0000
 11
6771.0000
 21
-9822.0000
 31
0.0000
  0
SOLID
  5
10DC
  8
Electrical_DIM
 10
4883.0000
 20
-9822.0000
 30
0.0000
 11
4793.0000
 21
-9852.0000
 31
0.0000
 12
4793.0000
 22
-9792.0000
 32
0.0000
 13
4793.0000
 23
-9792.0000
 33
0.0000
  0
SOLID
  5
10DD
  8
Electrical_DIM
 10
6771.0000
 20
-9822.0000
 30
0.0000
 11
6861.0000
 21
-9852.0000
 31
0.0000
 12
6861.0000
 22
-9792.0000
 32
0.0000
 13
6861.0000
 23
-9792.0000
 33
0.0000
  0
TEXT
  5
10DE
  8
Electrical_DIM
 10
5827.0000
 20
-9858.0000
 30
0.0000
 40
90.0000
 50
0.0000
  1
188.8
  7
STANDARD
  0
INSERT
  5
10DF
  8
Electrical
  2
Socket
 10
6363.0000
 20
-9622.0000
 30
0.0000
 41
1.0000
 42
1.0000
 43
1.0000
 50
0.0000
  0
TEXT
  5
10E0
  8
Electrical_H
 10
6433.0000
 20
-9582.0000
 30
0.0000
 40
90.0000
 50
0.0000
  1
H 156.8
  7
STANDARD
  0
LINE
  5
10E1
  8
Electrical_DIM
 10
4883.0000
 20
-9622.0000
 30
0.0000
 11
4883.0000
 21
-9882.0000
 31
0.0000
  0
LINE
  5
10E2
  8
Electrical_DIM
 10
6363.0000
 20
-9622.0000
 30
0.0000
 11
6363.0000
 21
-9882.0000
 31
0.0000
  0
LINE
  5
10E3
  8
Electrical_DIM
 10
4883.0000
 20
-9822.0000
 30
0.0000
 11
6363.0000
 21
-9822.0000
 31
0.0000
  0
SOLID
  5
10E4
  8
Electrical_DIM
 10
4883.0000
 20
-9822.0000
 30
0.0000
 11
4793.0000
 21
-9852.0000
 31
0.0000
 12
4793.0000
 22
-9792.0000
 32
0.0000
 13
4793.0000
 23
-9792.0000
 33
0.0000
  0
SOLID
  5
10E5
  8
Electrical_DIM
 10
6363.0000
 20
-9822.0000
 30
0.0000
 11
6453.0000
 21
-9852.0000
 31
0.0000
 12
6453.0000
 22
-9792.0000
 32
0.0000
 13
6453.0000
 23
-9792.0000
 33
0.0000
  0
TEXT
  5
10E6
  8
Electrical_DIM
 10
5623.0000
 20
-9858.0000
 30
0.0000
 40
90.0000
 50
0.0000
  1
148
  7
STANDARD
  0
INSERT
  5
10E7
  8
Electrical
  2
Socket
 10
6205.0000
 20
-9622.0000
 30
0.0000
 41
1.0000
 42
1.0000
 43
1.0000
 50
0.0000
  0
TEXT
  5
10E8
  8
Electrical_H
 10
6275.0000
 20
-9582.0000
 30
0.0000
 40
90.0000
 50
0.0000
  1
H 156.5
  7
STANDARD
  0
LINE
  5
10E9
  8
Electrical_DIM
 10
4883.0000
 20
-9622.0000
 30
0.0000
 11
4883.0000
 21
-9882.0000
 31
0.0000
  0
LINE
  5
10EA
  8
Electrical_DIM
 10
6205.0000
 20
-9622.0000
 30
0.0000
 11
6205.0000
 21
-9882.0000
 31
0.0000
  0
LINE
  5
10EB
  8
Electrical_DIM
 10
4883.0000
 20
-9822.0000
 30
0.0000
 11
6205.0000
 21
-9822.0000
 31
0.0000
  0
SOLID
  5
10EC
  8
Electrical_DIM
 10
4883.0000
 20
-9822.0000
 30
0.0000
 11
4793.0000
 21
-9852.0000
 31
0.0000
 12
4793.0000
 22
-9792.0000
 32
0.0000
 13
4793.0000
 23
-9792.0000
 33
0.0000
  0
SOLID
  5
10ED
  8
Electrical_DIM
 10
6205.0000
 20
-9822.0000
 30
0.0000
 11
6295.0000
 21
-9852.0000
 31
0.0000
 12
6295.0000
 22
-9792.0000
 32
0.0000
 13
6295.0000
 23
-9792.0000
 33
0.0000
  0
TEXT
  5
10EE
  8
Electrical_DIM
 10
5544.0000
 20
-9858.0000
 30
0.0000
 40
90.0000
 50
0.0000
  1
132.2
  7
STANDARD
  0
INSERT
  5
10EF
  8
Electrical
  2
Socket
 10
5413.0000
 20
-9622.0000
 30
0.0000
 41
1.0000
 42
1.0000
 43
1.0000
 50
0.0000
  0
TEXT
  5
10F0
  8
Electrical_H
 10
5483.0000
 20
-9582.0000
 30
0.0000
 40
90.0000
 50
0.0000
  1
H 171
  7
STANDARD
  0
LINE
  5
10F1
  8
Electrical_DIM
 10
4883.0000
 20
-9622.0000
 30
0.0000
 11
4883.0000
 21
-9882.0000
 31
0.0000
  0
LINE
  5
10F2
  8
Electrical_DIM
 10
5413.0000
 20
-9622.0000
 30
0.0000
 11
5413.0000
 21
-9882.0000
 31
0.0000
  0
LINE
  5
10F3
  8
Electrical_DIM
 10
4883.0000
 20
-9822.0000
 30
0.0000
 11
5413.0000
 21
-9822.0000
 31
0.0000
  0
SOLID
  5
10F4
  8
Electrical_DIM
 10
4883.0000
 20
-9822.0000
 30
0.0000
 11
4793.0000
 21
-9852.0000
 31
0.0000
 12
4793.0000
 22
-9792.0000
 32
0.0000
 13
4793.0000
 23
-9792.0000
 33
0.0000
  0
SOLID
  5
10F5
  8
Electrical_DIM
 10
5413.0000
 20
-9822.0000
 30
0.0000
 11
5503.0000
 21
-9852.0000
 31
0.0000
 12
5503.0000
 22
-9792.0000
 32
0.0000
 13
5503.0000
 23
-9792.0000
 33
0.0000
  0
TEXT
  5
10F6
  8
Electrical_DIM
 10
5148.0000
 20
-9858.0000
 30
0.0000
 40
90.0000
 50
0.0000
  1
53
  7
STANDARD
  0
INSERT
  5
10F7
  8
Electrical
  2
ControlBox
 10
6691.0000
 20
-9622.0000
 30
0.0000
 41
1.0000
 42
1.0000
 43
1.0000
 50
0.0000
  0
TEXT
  5
10F8
  8
Electrical_H
 10
6761.0000
 20
-9582.0000
 30
0.0000
 40
90.0000
 50
0.0000
  1
H 224.4
  7
STANDARD
  0
LINE
  5
10F9
  8
Electrical_DIM
 10
4883.0000
 20
-9622.0000
 30
0.0000
 11
4883.0000
 21
-9882.0000
 31
0.0000
  0
LINE
  5
10FA
  8
Electrical_DIM
 10
6691.0000
 20
-9622.0000
 30
0.0000
 11
6691.0000
 21
-9882.0000
 31
0.0000
  0
LINE
  5
10FB
  8
Electrical_DIM
 10
4883.0000
 20
-9822.0000
 30
0.0000
 11
6691.0000
 21
-9822.0000
 31
0.0000
  0
SOLID
  5
10FC
  8
Electrical_DIM
 10
4883.0000
 20
-9822.0000
 30
0.0000
 11
4793.0000
 21
-9852.0000
 31
0.0000
 12
4793.0000
 22
-9792.0000
 32
0.0000
 13
4793.0000
 23
-9792.0000
 33
0.0000
  0
SOLID
  5
10FD
  8
Electrical_DIM
 10
6691.0000
 20
-9822.0000
 30
0.0000
 11
6781.0000
 21
-9852.0000
 31
0.0000
 12
6781.0000
 22
-9792.0000
 32
0.0000
 13
6781.0000
 23
-9792.0000
 33
0.0000
  0
TEXT
  5
10FE
  8
Electrical_DIM
 10
5787.0000
 20
-9858.0000
 30
0.0000
 40
90.0000
 50
0.0000
  1
180.8
  7
STANDARD
  0
INSERT
  5
10FF
  8
Electrical
  2
Lighting
 10
6024.0000
 20
-9622.0000
 30
0.0000
 41
1.0000
 42
1.0000
 43
1.0000
 50
0.0000
  0
TEXT
  5
1100
  8
Electrical_H
 10
6094.0000
 20
-9582.0000
 30
0.0000
 40
90.0000
 50
0.0000
  1
H 276.7
  7
STANDARD
  0
LINE
  5
1101
  8
Electrical_DIM
 10
4883.0000
 20
-9622.0000
 30
0.0000
 11
4883.0000
 21
-9882.0000
 31
0.0000
  0
LINE
  5
1102
  8
Electrical_DIM
 10
6024.0000
 20
-9622.0000
 30
0.0000
 11
6024.0000
 21
-9882.0000
 31
0.0000
  0
LINE
  5
1103
  8
Electrical_DIM
 10
4883.0000
 20
-9822.0000
 30
0.0000
 11
6024.0000
 21
-9822.0000
 31
0.0000
  0
SOLID
  5
1104
  8
Electrical_DIM
 10
4883.0000
 20
-9822.0000
 30
0.0000
 11
4793.0000
 21
-9852.0000
 31
0.0000
 12
4793.0000
 22
-9792.0000
 32
0.0000
 13
4793.0000
 23
-9792.0000
 33
0.0000
  0
SOLID
  5
1105
  8
Electrical_DIM
 10
6024.0000
 20
-9822.0000
 30
0.0000
 11
6114.0000
 21
-9852.0000
 31
0.0000
 12
6114.0000
 22
-9792.0000
 32
0.0000
 13
6114.0000
 23
-9792.0000
 33
0.0000
  0
TEXT
  5
1106
  8
Electrical_DIM
 10
5453.5000
 20
-9858.0000
 30
0.0000
 40
90.0000
 50
0.0000
  1
114.1
  7
STANDARD
  0
INSERT
  5
1107
  8
Electrical
  2
Lighting
 10
6167.0000
 20
-9622.0000
 30
0.0000
 41
1.0000
 42
1.0000
 43
1.0000
 50
0.0000
  0
TEXT
  5
1108
  8
Electrical_H
 10
6237.0000
 20
-9582.0000
 30
0.0000
 40
90.0000
 50
0.0000
  1
H 276.7
  7
STANDARD
  0
LINE
  5
1109
  8
Electrical_DIM
 10
4883.0000
 20
-9622.0000
 30
0.0000
 11
4883.0000
 21
-9882.0000
 31
0.0000
  0
LINE
  5
110A
  8
Electrical_DIM
 10
6167.0000
 20
-9622.0000
 30
0.0000
 11
6167.0000
 21
-9882.0000
 31
0.0000
  0
LINE
  5
110B
  8
Electrical_DIM
 10
4883.0000
 20
-9822.0000
 30
0.0000
 11
6167.0000
 21
-9822.0000
 31
0.0000
  0
SOLID
  5
110C
  8
Electrical_DIM
 10
4883.0000
 20
-9822.0000
 30
0.0000
 11
4793.0000
 21
-9852.0000
 31
0.0000
 12
4793.0000
 22
-9792.0000
 32
0.0000
 13
4793.0000
 23
-9792.0000
 33
0.0000
  0
SOLID
  5
110D
  8
Electrical_DIM
 10
6167.0000
 20
-9822.0000
 30
0.0000
 11
6257.0000
 21
-9852.0000
 31
0.0000
 12
6257.0000
 22
-9792.0000
 32
0.0000
 13
6257.0000
 23
-9792.0000
 33
0.0000
  0
TEXT
  5
110E
  8
Electrical_DIM
 10
5525.0000
 20
-9858.0000
 30
0.0000
 40
90.0000
 50
0.0000
  1
128.4
  7
STANDARD
  0
INSERT
  5
110F
  8
Electrical
  2
Lighting
 10
9053.0000
 20
-10945.0000
 30
0.0000
 41
1.0000
 42
1.0000
 43
1.0000
 50
270.0000
  0
TEXT
  5
1110
  8
Electrical_H
 10
9123.0000
 20
-10905.0000
 30
0.0000
 40
90.0000
 50
0.0000
  1
H 276.7
  7
STANDARD
  0
LINE
  5
1111
  8
Electrical_DIM
 10
9053.0000
 20
-9622.0000
 30
0.0000
 11
8793.0000
 21
-9622.0000
 31
0.0000
  0
LINE
  5
1112
  8
Electrical_DIM
 10
9053.0000
 20
-10945.0000
 30
0.0000
 11
8793.0000
 21
-10945.0000
 31
0.0000
  0
LINE
  5
1113
  8
Electrical_DIM
 10
8853.0000
 20
-9622.0000
 30
0.0000
 11
8853.0000
 21
-10945.0000
 31
0.0000
  0
SOLID
  5
1114
  8
Electrical_DIM
 10
8853.0000
 20
-9622.0000
 30
0.0000
 11
8823.0000
 21
-9532.0000
 31
0.0000
 12
8883.0000
 22
-9532.0000
 32
0.0000
 13
8883.0000
 23
-9532.0000
 33
0.0000
  0
SOLID
  5
1115
  8
Electrical_DIM
 10
8853.0000
 20
-10945.0000
 30
0.0000
 11
8823.0000
 21
-11035.0000
 31
0.0000
 12
8883.0000
 22
-11035.0000
 32
0.0000
 13
8883.0000
 23
-11035.0000
 33
0.0000
  0
TEXT
  5
1116
  8
Electrical_DIM
 10
8817.0000
 20
-10283.5000
 30
0.0000
 40
90.0000
 50
90.0000
  1
132.3
  7
STANDARD
  0
INSERT
  5
1117
  8
Text_Legend
  2
Socket
 10
10452.0000
 20
-9462.0000
 30
0.0000
 41
1.0000
 42
1.0000
 43
1.0000
 50
0.0000
  0
TEXT
  5
1118
  8
Text_Legend
 10
10652.0000
 20
-9492.0000
 30
0.0000
 40
120.0000
 50
0.0000
  1
\U+05E9\U+05E7\U+05E2
  7
STANDARD
  0
INSERT
  5
1119
  8
Text_Legend
  2
Gas
 10
10452.0000
 20
-9812.0000
 30
0.0000
 41
1.0000
 42
1.0000
 43
1.0000
 50
0.0000
  0
TEXT
  5
111A
  8
Text_Legend
 10
10652.0000
 20
-9842.0000
 30
0.0000
 40
120.0000
 50
0.0000
  1
\U+05D2\U+05D6
  7
STANDARD
  0
INSERT
  5
111B
  8
Text_Legend
  2
ControlBox
 10
10452.0000
 20
-10162.0000
 30
0.0000
 41
1.0000
 42
1.0000
 43
1.0000
 50
0.0000
  0
TEXT
  5
111C
  8
Text_Legend
 10
10652.0000
 20
-10192.0000
 30
0.0000
 40
120.0000
 50
0.0000
  1
\U+05D0\U+05E8\U+05D5\U+05DF \U+05D7\U+05E9\U+05DE\U+05DC
  7
STANDARD
  0
INSERT
  5
111D
  8
Text_Legend
  2
Faucet
 10
10452.0000
 20
-10512.0000
 30
0.0000
 41
1.0000
 42
1.0000
 43
1.0000
 50
0.0000
  0
TEXT
  5
111E
  8
Text_Legend
 10
10652.0000
 20
-10542.0000
 30
0.0000
 40
120.0000
 50
0.0000
  1
\U+05D1\U+05E8\U+05D6
  7
STANDARD
  0
INSERT
  5
111F
  8
Text_Legend
  2
DuplexSwitch
 10
10452.0000
 20
-10862.0000
 30
0.0000
 41
1.0000
 42
1.0000
 43
1.0000
 50
0.0000
  0
TEXT
  5
1120
  8
Text_Legend
 10
10652.0000
 20
-10892.0000
 30
0.0000
 40
120.0000
 50
0.0000
  1
\U+05E9\U+05E7\U+05E2 \U+05DB\U+05E4\U+05D5\U+05DC
  7
STANDARD
  0
INSERT
  5
1121
  8
Text_Legend
  2
Sewage
 10
10452.0000
 20
-11212.0000
 30
0.0000
 41
1.0000
 42
1.0000
 43
1.0000
 50
0.0000
  0
TEXT
  5
1122
  8
Text_Legend
 10
10652.0000
 20
-11242.0000
 30
0.0000
 40
120.0000
 50
0.0000
  1
\U+05D1\U+05D9\U+05D5\U+05D1
  7
STANDARD
  0
INSERT
  5
1123
  8
Text_Legend
  2
Lighting
 10
10452.0000
 20
-11562.0000
 30
0.0000
 41
1.0000
 42
1.0000
 43
1.0000
 50
0.0000
  0
TEXT
  5
1124
  8
Text_Legend
 10
10652.0000
 20
-11592.0000
 30
0.0000
 40
120.0000
 50
0.0000
  1
\U+05EA\U+05D0\U+05D5\U+05E8\U+05D4
  7
STANDARD
  0
ENDSEC
  0
EOF
