  0
SECTION
  2
HEADER
  9
$ACADVER
  1
AC1009
  9
$INSBASE
 10
0.0000
 20
0.0000
 30
0.0000
  9
$EXTMIN
 10
3330.0000
 20
-6735.0000
 30
0.0000
  9
$EXTMAX
 10
12656.5000
 20
-1810.0000
 30
0.0000
  9
$DWGCODEPAGE
  3
ansi_1255
  9
$INSUNITS
 70
4
  9
$LTSCALE
 40
10.0000
  9
$LIMMIN
 10
0.0000
 20
0.0000
  9
$LIMMAX
 10
2000.0000
 20
200.0000
  0
ENDSEC
  0
SECTION
  2
TABLES
  0
TABLE
  2
VPORT
 70
1
  0
VPORT
  2
*ACTIVE
 70
0
 10
0.0000
 20
0.0000
 11
1.0000
 21
1.0000
 12
7993.2500
 22
-4272.5000
 13
0.0000
 23
0.0000
 14
10.0000
 24
10.0000
 15
10.0000
 25
10.0000
 16
0.0000
 26
0.0000
 36
1.0000
 17
0.0000
 27
0.0000
 37
0.0000
 40
5417.5000
 41
1.0000
 42
50.0000
 43
0.0000
 44
0.0000
 50
0.0000
 51
0.0000
 71
0
 72
100
 73
1
 74
1
 75
0
 76
0
 77
0
 78
0
  0
ENDTAB
  0
TABLE
  2
LTYPE
 70
2
  0
LTYPE
  2
CONTINUOUS
 70
0
  3
Solid line
 72
65
 73
0
 40
0.0000
  0
LTYPE
  2
HIDDEN
 70
0
  3
Hidden __ __ __ __ __ __ __ __ __ __ __ __ __ __
 72
65
 73
2
 40
0.3750
 49
0.2500
 49
-0.1250
  0
ENDTAB
  0
TABLE
  2
LAYER
 70
37
  0
LAYER
  2
0
 70
0
 62
7
  6
CONTINUOUS
  0
LAYER
  2
Electrical
 70
0
 62
6
  6
CONTINUOUS
  0
LAYER
  2
Plumbing
 70
0
 62
150
  6
CONTINUOUS
  0
LAYER
  2
Const_Walls
 70
0
 62
253
  6
CONTINUOUS
  0
LAYER
  2
Dim
 70
0
 62
9
  6
CONTINUOUS
  0
LAYER
  2
Text
 70
0
 62
74
  6
CONTINUOUS
  0
LAYER
  2
HVAC
 70
0
 62
4
  6
CONTINUOUS
  0
LAYER
  2
Misc
 70
0
 62
32
  6
HIDDEN
  0
LAYER
  2
Dim_Markers
 70
0
 62
9
  6
CONTINUOUS
  0
LAYER
  2
Dim_Wall
 70
0
 62
9
  6
CONTINUOUS
  0
LAYER
  2
Const_Doors
 70
0
 62
5
  6
CONTINUOUS
  0
LAYER
  2
Const_Windows
 70
0
 62
152
  6
CONTINUOUS
  0
LAYER
  2
Text_Legend
 70
0
 62
74
  6
CONTINUOUS
  0
LAYER
  2
Text_JobInfo
 70
0
 62
74
  6
CONTINUOUS
  0
LAYER
  2
Dim_Overall
 70
0
 62
-9
  6
CONTINUOUS
  0
LAYER
  2
Dim_Embeded
 70
0
 62
-9
  6
CONTINUOUS
  0
LAYER
  2
Dim_Angles_Auto
 70
0
 62
3
  6
CONTINUOUS
  0
LAYER
  2
Text_AreaNo
 70
0
 62
-74
  6
CONTINUOUS
  0
LAYER
  2
Dim_ArcChord
 70
0
 62
9
  6
HIDDEN
  0
LAYER
  2
Const_Walls_Ext
 70
0
 62
253
  6
CONTINUOUS
  0
LAYER
  2
Dim_Verification
 70
0
 62
-9
  6
CONTINUOUS
  0
LAYER
  2
Dim_Radius
 70
0
 62
9
  6
CONTINUOUS
  0
LAYER
  2
Dim_Angles
 70
0
 62
9
  6
CONTINUOUS
  0
LAYER
  2
Z_Other
 70
0
 62
253
  6
CONTINUOUS
  0
LAYER
  2
Const_Stairs
 70
0
 62
253
  6
CONTINUOUS
  0
LAYER
  2
Misc_Cabinets
 70
0
 62
36
  6
CONTINUOUS
  0
LAYER
  2
Z_Scale_Ruler
 70
0
 62
7
  6
CONTINUOUS
  0
LAYER
  2
Const_Fill
 70
0
 62
253
  6
CONTINUOUS
  0
LAYER
  2
Wall_Image
 70
0
 62
7
  6
CONTINUOUS
  0
LAYER
  2
Exterior_walls
 70
0
 62
5
  6
CONTINUOUS
  0
LAYER
  2
HVAC_DIM
 70
0
 62
4
  6
CONTINUOUS
  0
LAYER
  2
HVAC_H
 70
0
 62
4
  6
CONTINUOUS
  0
LAYER
  2
Electrical_DIM
 70
0
 62
6
  6
CONTINUOUS
  0
LAYER
  2
Electrical_H
 70
0
 62
6
  6
CONTINUOUS
  0
LAYER
  2
Plumbing_DIM
 70
0
 62
150
  6
CONTINUOUS
  0
LAYER
  2
Plumbing_H
 70
0
 62
150
  6
CONTINUOUS
  0
LAYER
  2
datum
 70
0
 62
1
  6
CONTINUOUS
  0
ENDTAB
  0
TABLE
  2
STYLE
 70
1
  0
STYLE
  2
STANDARD
 70
0
 40
0.0000
 41
1.0000
 50
0.0000
 71
0
 42
10.0000
  3
ARIAL.TTF
  4

  0
ENDTAB
  0
ENDSEC
  0
SECTION
  2
BLOCKS
  0
BLOCK
  8
0
  2
SOCKET
 70
0
 10
0.0000
 20
0.0000
 30
0.0000
  0
LINE
  5
1107
  8
0
 10
0.0000
 20
0.0000
 30
0.0000
 11
0.0000
 21
20.0000
 31
0.0000
  0
ARC
  5
1108
  8
0
 10
0.0000
 20
70.0000
 30
0.0000
 40
50.0000
 50
0.0000
 51
360.0000
  0
LINE
  5
1109
  8
0
 10
-50.0000
 20
70.0000
 30
0.0000
 11
50.0000
 21
70.0000
 31
0.0000
  0
LINE
  5
110A
  8
0
 10
-18.0000
 20
55.0000
 30
0.0000
 11
-18.0000
 21
85.0000
 31
0.0000
  0
LINE
  5
110B
  8
0
 10
18.0000
 20
55.0000
 30
0.0000
 11
18.0000
 21
85.0000
 31
0.0000
  0
ENDBLK
  5
110C
  8
0
  0
BLOCK
  8
0
  2
DUPLEXSWITCH
 70
0
 10
0.0000
 20
0.0000
 30
0.0000
  0
LINE
  5
110D
  8
0
 10
0.0000
 20
0.0000
 30
0.0000
 11
0.0000
 21
20.0000
 31
0.0000
  0
ARC
  5
110E
  8
0
 10
-45.0000
 20
70.0000
 30
0.0000
 40
38.0000
 50
0.0000
 51
360.0000
  0
ARC
  5
110F
  8
0
 10
45.0000
 20
70.0000
 30
0.0000
 40
38.0000
 50
0.0000
 51
360.0000
  0
LINE
  5
1110
  8
0
 10
-45.0000
 20
55.0000
 30
0.0000
 11
-45.0000
 21
85.0000
 31
0.0000
  0
LINE
  5
1111
  8
0
 10
45.0000
 20
55.0000
 30
0.0000
 11
45.0000
 21
85.0000
 31
0.0000
  0
ENDBLK
  5
1112
  8
0
  0
BLOCK
  8
0
  2
CONTROLBOX
 70
0
 10
0.0000
 20
0.0000
 30
0.0000
  0
LINE
  5
1113
  8
0
 10
-90.0000
 20
0.0000
 30
0.0000
 11
90.0000
 21
0.0000
 31
0.0000
  0
LINE
  5
1114
  8
0
 10
90.0000
 20
0.0000
 30
0.0000
 11
90.0000
 21
70.0000
 31
0.0000
  0
LINE
  5
1115
  8
0
 10
90.0000
 20
70.0000
 30
0.0000
 11
-90.0000
 21
70.0000
 31
0.0000
  0
LINE
  5
1116
  8
0
 10
-90.0000
 20
70.0000
 30
0.0000
 11
-90.0000
 21
0.0000
 31
0.0000
  0
LINE
  5
1117
  8
0
 10
-90.0000
 20
0.0000
 30
0.0000
 11
90.0000
 21
70.0000
 31
0.0000
  0
ENDBLK
  5
1118
  8
0
  0
BLOCK
  8
0
  2
FAUCET
 70
0
 10
0.0000
 20
0.0000
 30
0.0000
  0
LINE
  5
1119
  8
0
 10
0.0000
 20
0.0000
 30
0.0000
 11
0.0000
 21
12.0000
 31
0.0000
  0
ARC
  5
111A
  8
0
 10
0.0000
 20
57.0000
 30
0.0000
 40
45.0000
 50
0.0000
 51
360.0000
  0
LINE
  5
111B
  8
0
 10
-32.0000
 20
57.0000
 30
0.0000
 11
32.0000
 21
57.0000
 31
0.0000
  0
LINE
  5
111C
  8
0
 10
0.0000
 20
25.0000
 30
0.0000
 11
0.0000
 21
89.0000
 31
0.0000
  0
ENDBLK
  5
111D
  8
0
  0
BLOCK
  8
0
  2
SEWAGE
 70
0
 10
0.0000
 20
0.0000
 30
0.0000
  0
LINE
  5
111E
  8
0
 10
0.0000
 20
0.0000
 30
0.0000
 11
0.0000
 21
10.0000
 31
0.0000
  0
ARC
  5
111F
  8
0
 10
0.0000
 20
50.0000
 30
0.0000
 40
45.0000
 50
0.0000
 51
360.0000
  0
LINE
  5
1120
  8
0
 10
-30.0000
 20
20.0000
 30
0.0000
 11
30.0000
 21
80.0000
 31
0.0000
  0
LINE
  5
1121
  8
0
 10
-30.0000
 20
80.0000
 30
0.0000
 11
30.0000
 21
20.0000
 31
0.0000
  0
ENDBLK
  5
1122
  8
0
  0
BLOCK
  8
0
  2
LIGHTING
 70
0
 10
0.0000
 20
0.0000
 30
0.0000
  0
ARC
  5
1123
  8
0
 10
0.0000
 20
0.0000
 30
0.0000
 40
55.0000
 50
0.0000
 51
360.0000
  0
LINE
  5
1124
  8
0
 10
-38.0000
 20
-38.0000
 30
0.0000
 11
38.0000
 21
38.0000
 31
0.0000
  0
LINE
  5
1125
  8
0
 10
-38.0000
 20
38.0000
 30
0.0000
 11
38.0000
 21
-38.0000
 31
0.0000
  0
ENDBLK
  5
1126
  8
0
  0
BLOCK
  8
0
  2
WINDOW1
 70
0
 10
0.0000
 20
0.0000
 30
0.0000
  0
LINE
  5
1127
  8
0
 10
-0.5000
 20
-0.5000
 30
0.0000
 11
0.5000
 21
-0.5000
 31
0.0000
  0
LINE
  5
1128
  8
0
 10
0.5000
 20
-0.5000
 30
0.0000
 11
0.5000
 21
0.5000
 31
0.0000
  0
LINE
  5
1129
  8
0
 10
0.5000
 20
0.5000
 30
0.0000
 11
-0.5000
 21
0.5000
 31
0.0000
  0
LINE
  5
112A
  8
0
 10
-0.5000
 20
0.5000
 30
0.0000
 11
-0.5000
 21
-0.5000
 31
0.0000
  0
LINE
  5
112B
  8
0
 10
-0.5000
 20
0.0000
 30
0.0000
 11
0.5000
 21
0.0000
 31
0.0000
  0
ENDBLK
  5
112C
  8
0
  0
ENDSEC
  0
SECTION
  2
ENTITIES
  0
LINE
  5
1000
  8
Const_Walls_Ext
 10
4388.0000
 20
-6440.0000
 30
0.0000
 11
3490.0000
 21
-6440.0000
 31
0.0000
  0
LINE
  5
1001
  8
Const_Walls
 10
4388.0000
 20
-6340.0000
 30
0.0000
 11
3490.0000
 21
-6340.0000
 31
0.0000
  0
LINE
  5
1002
  8
Const_Walls
 10
4388.0000
 20
-6440.0000
 30
0.0000
 11
4388.0000
 21
-6340.0000
 31
0.0000
  0
LINE
  5
1003
  8
Const_Walls
 10
3490.0000
 20
-6440.0000
 30
0.0000
 11
3490.0000
 21
-6340.0000
 31
0.0000
  0
SOLID
  5
1004
  8
Const_Fill
 10
4388.0000
 20
-6440.0000
 30
0.0000
 11
3490.0000
 21
-6440.0000
 31
0.0000
 12
4388.0000
 22
-6340.0000
 32
0.0000
 13
3490.0000
 23
-6340.0000
 33
0.0000
  0
LINE
  5
1005
  8
Dim_Wall
 10
4388.0000
 20
-6390.0000
 30
0.0000
 11
4388.0000
 21
-6850.0000
 31
0.0000
  0
LINE
  5
1006
  8
Dim_Wall
 10
3490.0000
 20
-6390.0000
 30
0.0000
 11
3490.0000
 21
-6850.0000
 31
0.0000
  0
LINE
  5
1007
  8
Dim_Wall
 10
4388.0000
 20
-6790.0000
 30
0.0000
 11
3490.0000
 21
-6790.0000
 31
0.0000
  0
SOLID
  5
1008
  8
Dim_Wall
 10
4388.0000
 20
-6790.0000
 30
0.0000
 11
4478.0000
 21
-6820.0000
 31
0.0000
 12
4478.0000
 22
-6760.0000
 32
0.0000
 13
4478.0000
 23
-6760.0000
 33
0.0000
  0
SOLID
  5
1009
  8
Dim_Wall
 10
3490.0000
 20
-6790.0000
 30
0.0000
 11
3400.0000
 21
-6820.0000
 31
0.0000
 12
3400.0000
 22
-6760.0000
 32
0.0000
 13
3400.0000
 23
-6760.0000
 33
0.0000
  0
TEXT
  5
100A
  8
Dim_Wall
 10
3939.0000
 20
-6838.0000
 30
0.0000
 40
120.0000
 50
360.0000
  1
89.8
  7
STANDARD
  0
LINE
  5
100B
  8
Const_Walls_Ext
 10
3440.0000
 20
-6390.0000
 30
0.0000
 11
3440.0000
 21
-2544.0000
 31
0.0000
  0
LINE
  5
100C
  8
Const_Walls
 10
3540.0000
 20
-6390.0000
 30
0.0000
 11
3540.0000
 21
-2544.0000
 31
0.0000
  0
LINE
  5
100D
  8
Const_Walls
 10
3440.0000
 20
-6390.0000
 30
0.0000
 11
3540.0000
 21
-6390.0000
 31
0.0000
  0
LINE
  5
100E
  8
Const_Walls
 10
3440.0000
 20
-2544.0000
 30
0.0000
 11
3540.0000
 21
-2544.0000
 31
0.0000
  0
SOLID
  5
100F
  8
Const_Fill
 10
3440.0000
 20
-6390.0000
 30
0.0000
 11
3440.0000
 21
-2544.0000
 31
0.0000
 12
3540.0000
 22
-6390.0000
 32
0.0000
 13
3540.0000
 23
-2544.0000
 33
0.0000
  0
LINE
  5
1010
  8
Dim_Wall
 10
3490.0000
 20
-6390.0000
 30
0.0000
 11
3030.0000
 21
-6390.0000
 31
0.0000
  0
LINE
  5
1011
  8
Dim_Wall
 10
3490.0000
 20
-2544.0000
 30
0.0000
 11
3030.0000
 21
-2544.0000
 31
0.0000
  0
LINE
  5
1012
  8
Dim_Wall
 10
3090.0000
 20
-6390.0000
 30
0.0000
 11
3090.0000
 21
-2544.0000
 31
0.0000
  0
SOLID
  5
1013
  8
Dim_Wall
 10
3090.0000
 20
-6390.0000
 30
0.0000
 11
3060.0000
 21
-6480.0000
 31
0.0000
 12
3120.0000
 22
-6480.0000
 32
0.0000
 13
3120.0000
 23
-6480.0000
 33
0.0000
  0
SOLID
  5
1014
  8
Dim_Wall
 10
3090.0000
 20
-2544.0000
 30
0.0000
 11
3060.0000
 21
-2454.0000
 31
0.0000
 12
3120.0000
 22
-2454.0000
 32
0.0000
 13
3120.0000
 23
-2454.0000
 33
0.0000
  0
TEXT
  5
1015
  8
Dim_Wall
 10
3042.0000
 20
-4467.0000
 30
0.0000
 40
120.0000
 50
90.0000
  1
384.6
  7
STANDARD
  0
LINE
  5
1016
  8
Const_Walls_Ext
 10
3490.0000
 20
-2494.0000
 30
0.0000
 11
11369.0000
 21
-2494.0000
 31
0.0000
  0
LINE
  5
1017
  8
Const_Walls
 10
3490.0000
 20
-2594.0000
 30
0.0000
 11
11369.0000
 21
-2594.0000
 31
0.0000
  0
LINE
  5
1018
  8
Const_Walls
 10
3490.0000
 20
-2494.0000
 30
0.0000
 11
3490.0000
 21
-2594.0000
 31
0.0000
  0
LINE
  5
1019
  8
Const_Walls
 10
11369.0000
 20
-2494.0000
 30
0.0000
 11
11369.0000
 21
-2594.0000
 31
0.0000
  0
SOLID
  5
101A
  8
Const_Fill
 10
3490.0000
 20
-2494.0000
 30
0.0000
 11
11369.0000
 21
-2494.0000
 31
0.0000
 12
3490.0000
 22
-2594.0000
 32
0.0000
 13
11369.0000
 23
-2594.0000
 33
0.0000
  0
LINE
  5
101B
  8
Dim_Wall
 10
3490.0000
 20
-2544.0000
 30
0.0000
 11
3490.0000
 21
-2084.0000
 31
0.0000
  0
LINE
  5
101C
  8
Dim_Wall
 10
11369.0000
 20
-2544.0000
 30
0.0000
 11
11369.0000
 21
-2084.0000
 31
0.0000
  0
LINE
  5
101D
  8
Dim_Wall
 10
3490.0000
 20
-2144.0000
 30
0.0000
 11
11369.0000
 21
-2144.0000
 31
0.0000
  0
SOLID
  5
101E
  8
Dim_Wall
 10
3490.0000
 20
-2144.0000
 30
0.0000
 11
3400.0000
 21
-2114.0000
 31
0.0000
 12
3400.0000
 22
-2174.0000
 32
0.0000
 13
3400.0000
 23
-2174.0000
 33
0.0000
  0
SOLID
  5
101F
  8
Dim_Wall
 10
11369.0000
 20
-2144.0000
 30
0.0000
 11
11459.0000
 21
-2114.0000
 31
0.0000
 12
11459.0000
 22
-2174.0000
 32
0.0000
 13
11459.0000
 23
-2174.0000
 33
0.0000
  0
TEXT
  5
1020
  8
Dim_Wall
 10
7429.5000
 20
-2096.0000
 30
0.0000
 40
120.0000
 50
0.0000
  1
787.9
  7
STANDARD
  0
LINE
  5
1021
  8
Const_Walls_Ext
 10
11419.0000
 20
-2544.0000
 30
0.0000
 11
11419.0000
 21
-6685.0000
 31
0.0000
  0
LINE
  5
1022
  8
Const_Walls
 10
11319.0000
 20
-2544.0000
 30
0.0000
 11
11319.0000
 21
-6685.0000
 31
0.0000
  0
LINE
  5
1023
  8
Const_Walls
 10
11419.0000
 20
-2544.0000
 30
0.0000
 11
11319.0000
 21
-2544.0000
 31
0.0000
  0
LINE
  5
1024
  8
Const_Walls
 10
11419.0000
 20
-6685.0000
 30
0.0000
 11
11319.0000
 21
-6685.0000
 31
0.0000
  0
SOLID
  5
1025
  8
Const_Fill
 10
11419.0000
 20
-2544.0000
 30
0.0000
 11
11419.0000
 21
-6685.0000
 31
0.0000
 12
11319.0000
 22
-2544.0000
 32
0.0000
 13
11319.0000
 23
-6685.0000
 33
0.0000
  0
LINE
  5
1026
  8
Dim_Wall
 10
11369.0000
 20
-2544.0000
 30
0.0000
 11
11829.0000
 21
-2544.0000
 31
0.0000
  0
LINE
  5
1027
  8
Dim_Wall
 10
11369.0000
 20
-6685.0000
 30
0.0000
 11
11829.0000
 21
-6685.0000
 31
0.0000
  0
LINE
  5
1028
  8
Dim_Wall
 10
11769.0000
 20
-2544.0000
 30
0.0000
 11
11769.0000
 21
-6685.0000
 31
0.0000
  0
SOLID
  5
1029
  8
Dim_Wall
 10
11769.0000
 20
-2544.0000
 30
0.0000
 11
11799.0000
 21
-2454.0000
 31
0.0000
 12
11739.0000
 22
-2454.0000
 32
0.0000
 13
11739.0000
 23
-2454.0000
 33
0.0000
  0
SOLID
  5
102A
  8
Dim_Wall
 10
11769.0000
 20
-6685.0000
 30
0.0000
 11
11799.0000
 21
-6775.0000
 31
0.0000
 12
11739.0000
 22
-6775.0000
 32
0.0000
 13
11739.0000
 23
-6775.0000
 33
0.0000
  0
TEXT
  5
102B
  8
Dim_Wall
 10
11817.0000
 20
-4614.5000
 30
0.0000
 40
120.0000
 50
90.0000
  1
414.1
  7
STANDARD
  0
LINE
  5
102C
  8
Const_Walls_Ext
 10
11369.0000
 20
-6735.0000
 30
0.0000
 11
7818.0000
 21
-6735.0000
 31
0.0000
  0
LINE
  5
102D
  8
Const_Walls
 10
11369.0000
 20
-6635.0000
 30
0.0000
 11
7818.0000
 21
-6635.0000
 31
0.0000
  0
LINE
  5
102E
  8
Const_Walls
 10
11369.0000
 20
-6735.0000
 30
0.0000
 11
11369.0000
 21
-6635.0000
 31
0.0000
  0
LINE
  5
102F
  8
Const_Walls
 10
7818.0000
 20
-6735.0000
 30
0.0000
 11
7818.0000
 21
-6635.0000
 31
0.0000
  0
SOLID
  5
1030
  8
Const_Fill
 10
11369.0000
 20
-6735.0000
 30
0.0000
 11
7818.0000
 21
-6735.0000
 31
0.0000
 12
11369.0000
 22
-6635.0000
 32
0.0000
 13
7818.0000
 23
-6635.0000
 33
0.0000
  0
LINE
  5
1031
  8
Dim_Wall
 10
11369.0000
 20
-6685.0000
 30
0.0000
 11
11369.0000
 21
-7145.0000
 31
0.0000
  0
LINE
  5
1032
  8
Dim_Wall
 10
7818.0000
 20
-6685.0000
 30
0.0000
 11
7818.0000
 21
-7145.0000
 31
0.0000
  0
LINE
  5
1033
  8
Dim_Wall
 10
11369.0000
 20
-7085.0000
 30
0.0000
 11
7818.0000
 21
-7085.0000
 31
0.0000
  0
SOLID
  5
1034
  8
Dim_Wall
 10
11369.0000
 20
-7085.0000
 30
0.0000
 11
11459.0000
 21
-7115.0000
 31
0.0000
 12
11459.0000
 22
-7055.0000
 32
0.0000
 13
11459.0000
 23
-7055.0000
 33
0.0000
  0
SOLID
  5
1035
  8
Dim_Wall
 10
7818.0000
 20
-7085.0000
 30
0.0000
 11
7728.0000
 21
-7115.0000
 31
0.0000
 12
7728.0000
 22
-7055.0000
 32
0.0000
 13
7728.0000
 23
-7055.0000
 33
0.0000
  0
TEXT
  5
1036
  8
Dim_Wall
 10
9593.5000
 20
-7133.0000
 30
0.0000
 40
120.0000
 50
360.0000
  1
355.1
  7
STANDARD
  0
INSERT
  5
1037
  8
Const_Windows
  2
WINDOW1
 10
4226.0000
 20
-2544.0000
 30
0.0000
 41
1268.0000
 42
100.0000
 43
1.0000
 50
0.0000
  0
INSERT
  5
1038
  8
Const_Windows
  2
WINDOW1
 10
6684.0000
 20
-2544.0000
 30
0.0000
 41
1368.0000
 42
100.0000
 43
1.0000
 50
0.0000
  0
INSERT
  5
1039
  8
Const_Windows
  2
WINDOW1
 10
9191.0000
 20
-2544.0000
 30
0.0000
 41
971.0000
 42
100.0000
 43
1.0000
 50
0.0000
  0
INSERT
  5
103A
  8
Const_Windows
  2
WINDOW1
 10
11369.0000
 20
-3780.0000
 30
0.0000
 41
2475.0000
 42
100.0000
 43
1.0000
 50
270.0000
  0
INSERT
  5
103B
  8
Electrical
  2
Socket
 10
3490.0000
 20
-4837.0000
 30
0.0000
 41
1.0000
 42
1.0000
 43
1.0000
 50
90.0000
  0
TEXT
  5
103C
  8
Electrical_H
 10
3560.0000
 20
-4797.0000
 30
0.0000
 40
90.0000
 50
0.0000
  1
H 168.9
  7
STANDARD
  0
LINE
  5
103D
  8
Electrical_DIM
 10
3490.0000
 20
-6390.0000
 30
0.0000
 11
3750.0000
 21
-6390.0000
 31
0.0000
  0
LINE
  5
103E
  8
Electrical_DIM
 10
3490.0000
 20
-4837.0000
 30
0.0000
 11
3750.0000
 21
-4837.0000
 31
0.0000
  0
LINE
  5
103F
  8
Electrical_DIM
 10
3690.0000
 20
-6390.0000
 30
0.0000
 11
3690.0000
 21
-4837.0000
 31
0.0000
  0
SOLID
  5
1040
  8
Electrical_DIM
 10
3690.0000
 20
-6390.0000
 30
0.0000
 11
3720.0000
 21
-6480.0000
 31
0.0000
 12
3660.0000
 22
-6480.0000
 32
0.0000
 13
3660.0000
 23
-6480.0000
 33
0.0000
  0
SOLID
  5
1041
  8
Electrical_DIM
 10
3690.0000
 20
-4837.0000
 30
0.0000
 11
3720.0000
 21
-4747.0000
 31
0.0000
 12
3660.0000
 22
-4747.0000
 32
0.0000
 13
3660.0000
 23
-4747.0000
 33
0.0000
  0
TEXT
  5
1042
  8
Electrical_DIM
 10
3726.0000
 20
-5613.5000
 30
0.0000
 40
90.0000
 50
90.0000
  1
155.3
  7
STANDARD
  0
INSERT
  5
1043
  8
Electrical
  2
Socket
 10
3490.0000
 20
-4373.0000
 30
0.0000
 41
1.0000
 42
1.0000
 43
1.0000
 50
90.0000
  0
TEXT
  5
1044
  8
Electrical_H
 10
3560.0000
 20
-4333.0000
 30
0.0000
 40
90.0000
 50
0.0000
  1
H 152.8
  7
STANDARD
  0
LINE
  5
1045
  8
Electrical_DIM
 10
3490.0000
 20
-6390.0000
 30
0.0000
 11
3750.0000
 21
-6390.0000
 31
0.0000
  0
LINE
  5
1046
  8
Electrical_DIM
 10
3490.0000
 20
-4373.0000
 30
0.0000
 11
3750.0000
 21
-4373.0000
 31
0.0000
  0
LINE
  5
1047
  8
Electrical_DIM
 10
3690.0000
 20
-6390.0000
 30
0.0000
 11
3690.0000
 21
-4373.0000
 31
0.0000
  0
SOLID
  5
1048
  8
Electrical_DIM
 10
3690.0000
 20
-6390.0000
 30
0.0000
 11
3720.0000
 21
-6480.0000
 31
0.0000
 12
3660.0000
 22
-6480.0000
 32
0.0000
 13
3660.0000
 23
-6480.0000
 33
0.0000
  0
SOLID
  5
1049
  8
Electrical_DIM
 10
3690.0000
 20
-4373.0000
 30
0.0000
 11
3720.0000
 21
-4283.0000
 31
0.0000
 12
3660.0000
 22
-4283.0000
 32
0.0000
 13
3660.0000
 23
-4283.0000
 33
0.0000
  0
TEXT
  5
104A
  8
Electrical_DIM
 10
3726.0000
 20
-5381.5000
 30
0.0000
 40
90.0000
 50
90.0000
  1
201.7
  7
STANDARD
  0
INSERT
  5
104B
  8
Electrical
  2
Socket
 10
3490.0000
 20
-4228.0000
 30
0.0000
 41
1.0000
 42
1.0000
 43
1.0000
 50
90.0000
  0
TEXT
  5
104C
  8
Electrical_H
 10
3560.0000
 20
-4188.0000
 30
0.0000
 40
90.0000
 50
0.0000
  1
H 152.9
  7
STANDARD
  0
LINE
  5
104D
  8
Electrical_DIM
 10
3490.0000
 20
-6390.0000
 30
0.0000
 11
3750.0000
 21
-6390.0000
 31
0.0000
  0
LINE
  5
104E
  8
Electrical_DIM
 10
3490.0000
 20
-4228.0000
 30
0.0000
 11
3750.0000
 21
-4228.0000
 31
0.0000
  0
LINE
  5
104F
  8
Electrical_DIM
 10
3690.0000
 20
-6390.0000
 30
0.0000
 11
3690.0000
 21
-4228.0000
 31
0.0000
  0
SOLID
  5
1050
  8
Electrical_DIM
 10
3690.0000
 20
-6390.0000
 30
0.0000
 11
3720.0000
 21
-6480.0000
 31
0.0000
 12
3660.0000
 22
-6480.0000
 32
0.0000
 13
3660.0000
 23
-6480.0000
 33
0.0000
  0
SOLID
  5
1051
  8
Electrical_DIM
 10
3690.0000
 20
-4228.0000
 30
0.0000
 11
3720.0000
 21
-4138.0000
 31
0.0000
 12
3660.0000
 22
-4138.0000
 32
0.0000
 13
3660.0000
 23
-4138.0000
 33
0.0000
  0
TEXT
  5
1052
  8
Electrical_DIM
 10
3726.0000
 20
-5309.0000
 30
0.0000
 40
90.0000
 50
90.0000
  1
216.2
  7
STANDARD
  0
INSERT
  5
1053
  8
Electrical
  2
Socket
 10
3490.0000
 20
-4075.0000
 30
0.0000
 41
1.0000
 42
1.0000
 43
1.0000
 50
90.0000
  0
TEXT
  5
1054
  8
Electrical_H
 10
3560.0000
 20
-4035.0000
 30
0.0000
 40
90.0000
 50
0.0000
  1
H 152.7
  7
STANDARD
  0
LINE
  5
1055
  8
Electrical_DIM
 10
3490.0000
 20
-6390.0000
 30
0.0000
 11
3750.0000
 21
-6390.0000
 31
0.0000
  0
LINE
  5
1056
  8
Electrical_DIM
 10
3490.0000
 20
-4075.0000
 30
0.0000
 11
3750.0000
 21
-4075.0000
 31
0.0000
  0
LINE
  5
1057
  8
Electrical_DIM
 10
3690.0000
 20
-6390.0000
 30
0.0000
 11
3690.0000
 21
-4075.0000
 31
0.0000
  0
SOLID
  5
1058
  8
Electrical_DIM
 10
3690.0000
 20
-6390.0000
 30
0.0000
 11
3720.0000
 21
-6480.0000
 31
0.0000
 12
3660.0000
 22
-6480.0000
 32
0.0000
 13
3660.0000
 23
-6480.0000
 33
0.0000
  0
SOLID
  5
1059
  8
Electrical_DIM
 10
3690.0000
 20
-4075.0000
 30
0.0000
 11
3720.0000
 21
-3985.0000
 31
0.0000
 12
3660.0000
 22
-3985.0000
 32
0.0000
 13
3660.0000
 23
-3985.0000
 33
0.0000
  0
TEXT
  5
105A
  8
Electrical_DIM
 10
3726.0000
 20
-5232.5000
 30
0.0000
 40
90.0000
 50
90.0000
  1
231.5
  7
STANDARD
  0
INSERT
  5
105B
  8
Electrical
  2
DuplexSwitch
 10
3490.0000
 20
-3675.0000
 30
0.0000
 41
1.0000
 42
1.0000
 43
1.0000
 50
90.0000
  0
TEXT
  5
105C
  8
Electrical_H
 10
3560.0000
 20
-3635.0000
 30
0.0000
 40
90.0000
 50
0.0000
  1
H 110.8
  7
STANDARD
  0
LINE
  5
105D
  8
Electrical_DIM
 10
3490.0000
 20
-6390.0000
 30
0.0000
 11
3750.0000
 21
-6390.0000
 31
0.0000
  0
LINE
  5
105E
  8
Electrical_DIM
 10
3490.0000
 20
-3675.0000
 30
0.0000
 11
3750.0000
 21
-3675.0000
 31
0.0000
  0
LINE
  5
105F
  8
Electrical_DIM
 10
3690.0000
 20
-6390.0000
 30
0.0000
 11
3690.0000
 21
-3675.0000
 31
0.0000
  0
SOLID
  5
1060
  8
Electrical_DIM
 10
3690.0000
 20
-6390.0000
 30
0.0000
 11
3720.0000
 21
-6480.0000
 31
0.0000
 12
3660.0000
 22
-6480.0000
 32
0.0000
 13
3660.0000
 23
-6480.0000
 33
0.0000
  0
SOLID
  5
1061
  8
Electrical_DIM
 10
3690.0000
 20
-3675.0000
 30
0.0000
 11
3720.0000
 21
-3585.0000
 31
0.0000
 12
3660.0000
 22
-3585.0000
 32
0.0000
 13
3660.0000
 23
-3585.0000
 33
0.0000
  0
TEXT
  5
1062
  8
Electrical_DIM
 10
3726.0000
 20
-5032.5000
 30
0.0000
 40
90.0000
 50
90.0000
  1
271.5
  7
STANDARD
  0
INSERT
  5
1063
  8
Electrical
  2
Socket
 10
3490.0000
 20
-3177.0000
 30
0.0000
 41
1.0000
 42
1.0000
 43
1.0000
 50
90.0000
  0
TEXT
  5
1064
  8
Electrical_H
 10
3560.0000
 20
-3137.0000
 30
0.0000
 40
90.0000
 50
0.0000
  1
H 111.5
  7
STANDARD
  0
LINE
  5
1065
  8
Electrical_DIM
 10
3490.0000
 20
-6390.0000
 30
0.0000
 11
3750.0000
 21
-6390.0000
 31
0.0000
  0
LINE
  5
1066
  8
Electrical_DIM
 10
3490.0000
 20
-3177.0000
 30
0.0000
 11
3750.0000
 21
-3177.0000
 31
0.0000
  0
LINE
  5
1067
  8
Electrical_DIM
 10
3690.0000
 20
-6390.0000
 30
0.0000
 11
3690.0000
 21
-3177.0000
 31
0.0000
  0
SOLID
  5
1068
  8
Electrical_DIM
 10
3690.0000
 20
-6390.0000
 30
0.0000
 11
3720.0000
 21
-6480.0000
 31
0.0000
 12
3660.0000
 22
-6480.0000
 32
0.0000
 13
3660.0000
 23
-6480.0000
 33
0.0000
  0
SOLID
  5
1069
  8
Electrical_DIM
 10
3690.0000
 20
-3177.0000
 30
0.0000
 11
3720.0000
 21
-3087.0000
 31
0.0000
 12
3660.0000
 22
-3087.0000
 32
0.0000
 13
3660.0000
 23
-3087.0000
 33
0.0000
  0
TEXT
  5
106A
  8
Electrical_DIM
 10
3726.0000
 20
-4783.5000
 30
0.0000
 40
90.0000
 50
90.0000
  1
321.3
  7
STANDARD
  0
INSERT
  5
106B
  8
Electrical
  2
ControlBox
 10
3490.0000
 20
-3474.0000
 30
0.0000
 41
1.0000
 42
1.0000
 43
1.0000
 50
90.0000
  0
TEXT
  5
106C
  8
Electrical_H
 10
3560.0000
 20
-3434.0000
 30
0.0000
 40
90.0000
 50
0.0000
  1
H 241
  7
STANDARD
  0
LINE
  5
106D
  8
Electrical_DIM
 10
3490.0000
 20
-6390.0000
 30
0.0000
 11
3750.0000
 21
-6390.0000
 31
0.0000
  0
LINE
  5
106E
  8
Electrical_DIM
 10
3490.0000
 20
-3474.0000
 30
0.0000
 11
3750.0000
 21
-3474.0000
 31
0.0000
  0
LINE
  5
106F
  8
Electrical_DIM
 10
3690.0000
 20
-6390.0000
 30
0.0000
 11
3690.0000
 21
-3474.0000
 31
0.0000
  0
SOLID
  5
1070
  8
Electrical_DIM
 10
3690.0000
 20
-6390.0000
 30
0.0000
 11
3720.0000
 21
-6480.0000
 31
0.0000
 12
3660.0000
 22
-6480.0000
 32
0.0000
 13
3660.0000
 23
-6480.0000
 33
0.0000
  0
SOLID
  5
1071
  8
Electrical_DIM
 10
3690.0000
 20
-3474.0000
 30
0.0000
 11
3720.0000
 21
-3384.0000
 31
0.0000
 12
3660.0000
 22
-3384.0000
 32
0.0000
 13
3660.0000
 23
-3384.0000
 33
0.0000
  0
TEXT
  5
1072
  8
Electrical_DIM
 10
3726.0000
 20
-4932.0000
 30
0.0000
 40
90.0000
 50
90.0000
  1
291.6
  7
STANDARD
  0
INSERT
  5
1073
  8
Electrical
  2
Socket
 10
3490.0000
 20
-2767.0000
 30
0.0000
 41
1.0000
 42
1.0000
 43
1.0000
 50
90.0000
  0
TEXT
  5
1074
  8
Electrical_H
 10
3560.0000
 20
-2727.0000
 30
0.0000
 40
90.0000
 50
0.0000
  1
H 201.1
  7
STANDARD
  0
LINE
  5
1075
  8
Electrical_DIM
 10
3490.0000
 20
-6390.0000
 30
0.0000
 11
3750.0000
 21
-6390.0000
 31
0.0000
  0
LINE
  5
1076
  8
Electrical_DIM
 10
3490.0000
 20
-2767.0000
 30
0.0000
 11
3750.0000
 21
-2767.0000
 31
0.0000
  0
LINE
  5
1077
  8
Electrical_DIM
 10
3690.0000
 20
-6390.0000
 30
0.0000
 11
3690.0000
 21
-2767.0000
 31
0.0000
  0
SOLID
  5
1078
  8
Electrical_DIM
 10
3690.0000
 20
-6390.0000
 30
0.0000
 11
3720.0000
 21
-6480.0000
 31
0.0000
 12
3660.0000
 22
-6480.0000
 32
0.0000
 13
3660.0000
 23
-6480.0000
 33
0.0000
  0
SOLID
  5
1079
  8
Electrical_DIM
 10
3690.0000
 20
-2767.0000
 30
0.0000
 11
3720.0000
 21
-2677.0000
 31
0.0000
 12
3660.0000
 22
-2677.0000
 32
0.0000
 13
3660.0000
 23
-2677.0000
 33
0.0000
  0
TEXT
  5
107A
  8
Electrical_DIM
 10
3726.0000
 20
-4578.5000
 30
0.0000
 40
90.0000
 50
90.0000
  1
362.3
  7
STANDARD
  0
INSERT
  5
107B
  8
Electrical
  2
DuplexSwitch
 10
3490.0000
 20
-2650.0000
 30
0.0000
 41
1.0000
 42
1.0000
 43
1.0000
 50
90.0000
  0
TEXT
  5
107C
  8
Electrical_H
 10
3560.0000
 20
-2610.0000
 30
0.0000
 40
90.0000
 50
0.0000
  1
H 111.4
  7
STANDARD
  0
LINE
  5
107D
  8
Electrical_DIM
 10
3490.0000
 20
-6390.0000
 30
0.0000
 11
3750.0000
 21
-6390.0000
 31
0.0000
  0
LINE
  5
107E
  8
Electrical_DIM
 10
3490.0000
 20
-2650.0000
 30
0.0000
 11
3750.0000
 21
-2650.0000
 31
0.0000
  0
LINE
  5
107F
  8
Electrical_DIM
 10
3690.0000
 20
-6390.0000
 30
0.0000
 11
3690.0000
 21
-2650.0000
 31
0.0000
  0
SOLID
  5
1080
  8
Electrical_DIM
 10
3690.0000
 20
-6390.0000
 30
0.0000
 11
3720.0000
 21
-6480.0000
 31
0.0000
 12
3660.0000
 22
-6480.0000
 32
0.0000
 13
3660.0000
 23
-6480.0000
 33
0.0000
  0
SOLID
  5
1081
  8
Electrical_DIM
 10
3690.0000
 20
-2650.0000
 30
0.0000
 11
3720.0000
 21
-2560.0000
 31
0.0000
 12
3660.0000
 22
-2560.0000
 32
0.0000
 13
3660.0000
 23
-2560.0000
 33
0.0000
  0
TEXT
  5
1082
  8
Electrical_DIM
 10
3726.0000
 20
-4520.0000
 30
0.0000
 40
90.0000
 50
90.0000
  1
374
  7
STANDARD
  0
INSERT
  5
1083
  8
Electrical
  2
Socket
 10
3970.0000
 20
-2544.0000
 30
0.0000
 41
1.0000
 42
1.0000
 43
1.0000
 50
0.0000
  0
TEXT
  5
1084
  8
Electrical_H
 10
4040.0000
 20
-2504.0000
 30
0.0000
 40
90.0000
 50
0.0000
  1
H 111.4
  7
STANDARD
  0
LINE
  5
1085
  8
Electrical_DIM
 10
3490.0000
 20
-2544.0000
 30
0.0000
 11
3490.0000
 21
-2804.0000
 31
0.0000
  0
LINE
  5
1086
  8
Electrical_DIM
 10
3970.0000
 20
-2544.0000
 30
0.0000
 11
3970.0000
 21
-2804.0000
 31
0.0000
  0
LINE
  5
1087
  8
Electrical_DIM
 10
3490.0000
 20
-2744.0000
 30
0.0000
 11
3970.0000
 21
-2744.0000
 31
0.0000
  0
SOLID
  5
1088
  8
Electrical_DIM
 10
3490.0000
 20
-2744.0000
 30
0.0000
 11
3400.0000
 21
-2774.0000
 31
0.0000
 12
3400.0000
 22
-2714.0000
 32
0.0000
 13
3400.0000
 23
-2714.0000
 33
0.0000
  0
SOLID
  5
1089
  8
Electrical_DIM
 10
3970.0000
 20
-2744.0000
 30
0.0000
 11
4060.0000
 21
-2774.0000
 31
0.0000
 12
4060.0000
 22
-2714.0000
 32
0.0000
 13
4060.0000
 23
-2714.0000
 33
0.0000
  0
TEXT
  5
108A
  8
Electrical_DIM
 10
3730.0000
 20
-2780.0000
 30
0.0000
 40
90.0000
 50
0.0000
  1
48
  7
STANDARD
  0
INSERT
  5
108B
  8
Electrical
  2
ControlBox
 10
5828.0000
 20
-2544.0000
 30
0.0000
 41
1.0000
 42
1.0000
 43
1.0000
 50
0.0000
  0
TEXT
  5
108C
  8
Electrical_H
 10
5898.0000
 20
-2504.0000
 30
0.0000
 40
90.0000
 50
0.0000
  1
H 0
  7
STANDARD
  0
LINE
  5
108D
  8
Electrical_DIM
 10
3490.0000
 20
-2544.0000
 30
0.0000
 11
3490.0000
 21
-2804.0000
 31
0.0000
  0
LINE
  5
108E
  8
Electrical_DIM
 10
5828.0000
 20
-2544.0000
 30
0.0000
 11
5828.0000
 21
-2804.0000
 31
0.0000
  0
LINE
  5
108F
  8
Electrical_DIM
 10
3490.0000
 20
-2744.0000
 30
0.0000
 11
5828.0000
 21
-2744.0000
 31
0.0000
  0
SOLID
  5
1090
  8
Electrical_DIM
 10
3490.0000
 20
-2744.0000
 30
0.0000
 11
3400.0000
 21
-2774.0000
 31
0.0000
 12
3400.0000
 22
-2714.0000
 32
0.0000
 13
3400.0000
 23
-2714.0000
 33
0.0000
  0
SOLID
  5
1091
  8
Electrical_DIM
 10
5828.0000
 20
-2744.0000
 30
0.0000
 11
5918.0000
 21
-2774.0000
 31
0.0000
 12
5918.0000
 22
-2714.0000
 32
0.0000
 13
5918.0000
 23
-2714.0000
 33
0.0000
  0
TEXT
  5
1092
  8
Electrical_DIM
 10
4659.0000
 20
-2780.0000
 30
0.0000
 40
90.0000
 50
0.0000
  1
233.8
  7
STANDARD
  0
INSERT
  5
1093
  8
Electrical
  2
Socket
 10
5352.0000
 20
-2544.0000
 30
0.0000
 41
1.0000
 42
1.0000
 43
1.0000
 50
0.0000
  0
TEXT
  5
1094
  8
Electrical_H
 10
5422.0000
 20
-2504.0000
 30
0.0000
 40
90.0000
 50
0.0000
  1
H 48.3
  7
STANDARD
  0
LINE
  5
1095
  8
Electrical_DIM
 10
3490.0000
 20
-2544.0000
 30
0.0000
 11
3490.0000
 21
-2804.0000
 31
0.0000
  0
LINE
  5
1096
  8
Electrical_DIM
 10
5352.0000
 20
-2544.0000
 30
0.0000
 11
5352.0000
 21
-2804.0000
 31
0.0000
  0
LINE
  5
1097
  8
Electrical_DIM
 10
3490.0000
 20
-2744.0000
 30
0.0000
 11
5352.0000
 21
-2744.0000
 31
0.0000
  0
SOLID
  5
1098
  8
Electrical_DIM
 10
3490.0000
 20
-2744.0000
 30
0.0000
 11
3400.0000
 21
-2774.0000
 31
0.0000
 12
3400.0000
 22
-2714.0000
 32
0.0000
 13
3400.0000
 23
-2714.0000
 33
0.0000
  0
SOLID
  5
1099
  8
Electrical_DIM
 10
5352.0000
 20
-2744.0000
 30
0.0000
 11
5442.0000
 21
-2774.0000
 31
0.0000
 12
5442.0000
 22
-2714.0000
 32
0.0000
 13
5442.0000
 23
-2714.0000
 33
0.0000
  0
TEXT
  5
109A
  8
Electrical_DIM
 10
4421.0000
 20
-2780.0000
 30
0.0000
 40
90.0000
 50
0.0000
  1
186.2
  7
STANDARD
  0
INSERT
  5
109B
  8
Plumbing
  2
Faucet
 10
5485.0000
 20
-2544.0000
 30
0.0000
 41
1.0000
 42
1.0000
 43
1.0000
 50
0.0000
  0
TEXT
  5
109C
  8
Plumbing_H
 10
5555.0000
 20
-2504.0000
 30
0.0000
 40
90.0000
 50
0.0000
  1
H 53.2
  7
STANDARD
  0
LINE
  5
109D
  8
Plumbing_DIM
 10
3490.0000
 20
-2544.0000
 30
0.0000
 11
3490.0000
 21
-2804.0000
 31
0.0000
  0
LINE
  5
109E
  8
Plumbing_DIM
 10
5485.0000
 20
-2544.0000
 30
0.0000
 11
5485.0000
 21
-2804.0000
 31
0.0000
  0
LINE
  5
109F
  8
Plumbing_DIM
 10
3490.0000
 20
-2744.0000
 30
0.0000
 11
5485.0000
 21
-2744.0000
 31
0.0000
  0
SOLID
  5
10A0
  8
Plumbing_DIM
 10
3490.0000
 20
-2744.0000
 30
0.0000
 11
3400.0000
 21
-2774.0000
 31
0.0000
 12
3400.0000
 22
-2714.0000
 32
0.0000
 13
3400.0000
 23
-2714.0000
 33
0.0000
  0
SOLID
  5
10A1
  8
Plumbing_DIM
 10
5485.0000
 20
-2744.0000
 30
0.0000
 11
5575.0000
 21
-2774.0000
 31
0.0000
 12
5575.0000
 22
-2714.0000
 32
0.0000
 13
5575.0000
 23
-2714.0000
 33
0.0000
  0
TEXT
  5
10A2
  8
Plumbing_DIM
 10
4487.5000
 20
-2780.0000
 30
0.0000
 40
90.0000
 50
0.0000
  1
199.5
  7
STANDARD
  0
INSERT
  5
10A3
  8
Plumbing
  2
Faucet
 10
5638.0000
 20
-2544.0000
 30
0.0000
 41
1.0000
 42
1.0000
 43
1.0000
 50
0.0000
  0
TEXT
  5
10A4
  8
Plumbing_H
 10
5708.0000
 20
-2504.0000
 30
0.0000
 40
90.0000
 50
0.0000
  1
H 53.1
  7
STANDARD
  0
LINE
  5
10A5
  8
Plumbing_DIM
 10
3490.0000
 20
-2544.0000
 30
0.0000
 11
3490.0000
 21
-2804.0000
 31
0.0000
  0
LINE
  5
10A6
  8
Plumbing_DIM
 10
5638.0000
 20
-2544.0000
 30
0.0000
 11
5638.0000
 21
-2804.0000
 31
0.0000
  0
LINE
  5
10A7
  8
Plumbing_DIM
 10
3490.0000
 20
-2744.0000
 30
0.0000
 11
5638.0000
 21
-2744.0000
 31
0.0000
  0
SOLID
  5
10A8
  8
Plumbing_DIM
 10
3490.0000
 20
-2744.0000
 30
0.0000
 11
3400.0000
 21
-2774.0000
 31
0.0000
 12
3400.0000
 22
-2714.0000
 32
0.0000
 13
3400.0000
 23
-2714.0000
 33
0.0000
  0
SOLID
  5
10A9
  8
Plumbing_DIM
 10
5638.0000
 20
-2744.0000
 30
0.0000
 11
5728.0000
 21
-2774.0000
 31
0.0000
 12
5728.0000
 22
-2714.0000
 32
0.0000
 13
5728.0000
 23
-2714.0000
 33
0.0000
  0
TEXT
  5
10AA
  8
Plumbing_DIM
 10
4564.0000
 20
-2780.0000
 30
0.0000
 40
90.0000
 50
0.0000
  1
214.8
  7
STANDARD
  0
INSERT
  5
10AB
  8
Electrical
  2
Socket
 10
5842.0000
 20
-2544.0000
 30
0.0000
 41
1.0000
 42
1.0000
 43
1.0000
 50
0.0000
  0
TEXT
  5
10AC
  8
Electrical_H
 10
5912.0000
 20
-2504.0000
 30
0.0000
 40
90.0000
 50
0.0000
  1
H 47.3
  7
STANDARD
  0
LINE
  5
10AD
  8
Electrical_DIM
 10
3490.0000
 20
-2544.0000
 30
0.0000
 11
3490.0000
 21
-2804.0000
 31
0.0000
  0
LINE
  5
10AE
  8
Electrical_DIM
 10
5842.0000
 20
-2544.0000
 30
0.0000
 11
5842.0000
 21
-2804.0000
 31
0.0000
  0
LINE
  5
10AF
  8
Electrical_DIM
 10
3490.0000
 20
-2744.0000
 30
0.0000
 11
5842.0000
 21
-2744.0000
 31
0.0000
  0
SOLID
  5
10B0
  8
Electrical_DIM
 10
3490.0000
 20
-2744.0000
 30
0.0000
 11
3400.0000
 21
-2774.0000
 31
0.0000
 12
3400.0000
 22
-2714.0000
 32
0.0000
 13
3400.0000
 23
-2714.0000
 33
0.0000
  0
SOLID
  5
10B1
  8
Electrical_DIM
 10
5842.0000
 20
-2744.0000
 30
0.0000
 11
5932.0000
 21
-2774.0000
 31
0.0000
 12
5932.0000
 22
-2714.0000
 32
0.0000
 13
5932.0000
 23
-2714.0000
 33
0.0000
  0
TEXT
  5
10B2
  8
Electrical_DIM
 10
4666.0000
 20
-2780.0000
 30
0.0000
 40
90.0000
 50
0.0000
  1
235.2
  7
STANDARD
  0
INSERT
  5
10B3
  8
Plumbing
  2
Sewage
 10
5641.0000
 20
-2544.0000
 30
0.0000
 41
1.0000
 42
1.0000
 43
1.0000
 50
0.0000
  0
TEXT
  5
10B4
  8
Plumbing_H
 10
5711.0000
 20
-2504.0000
 30
0.0000
 40
90.0000
 50
0.0000
  1
H -2.7
  7
STANDARD
  0
LINE
  5
10B5
  8
Plumbing_DIM
 10
3490.0000
 20
-2544.0000
 30
0.0000
 11
3490.0000
 21
-2804.0000
 31
0.0000
  0
LINE
  5
10B6
  8
Plumbing_DIM
 10
5641.0000
 20
-2544.0000
 30
0.0000
 11
5641.0000
 21
-2804.0000
 31
0.0000
  0
LINE
  5
10B7
  8
Plumbing_DIM
 10
3490.0000
 20
-2744.0000
 30
0.0000
 11
5641.0000
 21
-2744.0000
 31
0.0000
  0
SOLID
  5
10B8
  8
Plumbing_DIM
 10
3490.0000
 20
-2744.0000
 30
0.0000
 11
3400.0000
 21
-2774.0000
 31
0.0000
 12
3400.0000
 22
-2714.0000
 32
0.0000
 13
3400.0000
 23
-2714.0000
 33
0.0000
  0
SOLID
  5
10B9
  8
Plumbing_DIM
 10
5641.0000
 20
-2744.0000
 30
0.0000
 11
5731.0000
 21
-2774.0000
 31
0.0000
 12
5731.0000
 22
-2714.0000
 32
0.0000
 13
5731.0000
 23
-2714.0000
 33
0.0000
  0
TEXT
  5
10BA
  8
Plumbing_DIM
 10
4565.5000
 20
-2780.0000
 30
0.0000
 40
90.0000
 50
0.0000
  1
215.1
  7
STANDARD
  0
INSERT
  5
10BB
  8
Electrical
  2
ControlBox
 10
5913.0000
 20
-2544.0000
 30
0.0000
 41
1.0000
 42
1.0000
 43
1.0000
 50
0.0000
  0
TEXT
  5
10BC
  8
Electrical_H
 10
5983.0000
 20
-2504.0000
 30
0.0000
 40
90.0000
 50
0.0000
  1
H 213.5
  7
STANDARD
  0
LINE
  5
10BD
  8
Electrical_DIM
 10
3490.0000
 20
-2544.0000
 30
0.0000
 11
3490.0000
 21
-2804.0000
 31
0.0000
  0
LINE
  5
10BE
  8
Electrical_DIM
 10
5913.0000
 20
-2544.0000
 30
0.0000
 11
5913.0000
 21
-2804.0000
 31
0.0000
  0
LINE
  5
10BF
  8
Electrical_DIM
 10
3490.0000
 20
-2744.0000
 30
0.0000
 11
5913.0000
 21
-2744.0000
 31
0.0000
  0
SOLID
  5
10C0
  8
Electrical_DIM
 10
3490.0000
 20
-2744.0000
 30
0.0000
 11
3400.0000
 21
-2774.0000
 31
0.0000
 12
3400.0000
 22
-2714.0000
 32
0.0000
 13
3400.0000
 23
-2714.0000
 33
0.0000
  0
SOLID
  5
10C1
  8
Electrical_DIM
 10
5913.0000
 20
-2744.0000
 30
0.0000
 11
6003.0000
 21
-2774.0000
 31
0.0000
 12
6003.0000
 22
-2714.0000
 32
0.0000
 13
6003.0000
 23
-2714.0000
 33
0.0000
  0
TEXT
  5
10C2
  8
Electrical_DIM
 10
4701.5000
 20
-2780.0000
 30
0.0000
 40
90.0000
 50
0.0000
  1
242.3
  7
STANDARD
  0
INSERT
  5
10C3
  8
Electrical
  2
Socket
 10
6516.0000
 20
-2544.0000
 30
0.0000
 41
1.0000
 42
1.0000
 43
1.0000
 50
0.0000
  0
TEXT
  5
10C4
  8
Electrical_H
 10
6586.0000
 20
-2504.0000
 30
0.0000
 40
90.0000
 50
0.0000
  1
H 112.5
  7
STANDARD
  0
LINE
  5
10C5
  8
Electrical_DIM
 10
3490.0000
 20
-2544.0000
 30
0.0000
 11
3490.0000
 21
-2804.0000
 31
0.0000
  0
LINE
  5
10C6
  8
Electrical_DIM
 10
6516.0000
 20
-2544.0000
 30
0.0000
 11
6516.0000
 21
-2804.0000
 31
0.0000
  0
LINE
  5
10C7
  8
Electrical_DIM
 10
3490.0000
 20
-2744.0000
 30
0.0000
 11
6516.0000
 21
-2744.0000
 31
0.0000
  0
SOLID
  5
10C8
  8
Electrical_DIM
 10
3490.0000
 20
-2744.0000
 30
0.0000
 11
3400.0000
 21
-2774.0000
 31
0.0000
 12
3400.0000
 22
-2714.0000
 32
0.0000
 13
3400.0000
 23
-2714.0000
 33
0.0000
  0
SOLID
  5
10C9
  8
Electrical_DIM
 10
6516.0000
 20
-2744.0000
 30
0.0000
 11
6606.0000
 21
-2774.0000
 31
0.0000
 12
6606.0000
 22
-2714.0000
 32
0.0000
 13
6606.0000
 23
-2714.0000
 33
0.0000
  0
TEXT
  5
10CA
  8
Electrical_DIM
 10
5003.0000
 20
-2780.0000
 30
0.0000
 40
90.0000
 50
0.0000
  1
302.6
  7
STANDARD
  0
INSERT
  5
10CB
  8
Electrical
  2
Socket
 10
8320.0000
 20
-2544.0000
 30
0.0000
 41
1.0000
 42
1.0000
 43
1.0000
 50
0.0000
  0
TEXT
  5
10CC
  8
Electrical_H
 10
8390.0000
 20
-2504.0000
 30
0.0000
 40
90.0000
 50
0.0000
  1
H 120.5
  7
STANDARD
  0
LINE
  5
10CD
  8
Electrical_DIM
 10
3490.0000
 20
-2544.0000
 30
0.0000
 11
3490.0000
 21
-2804.0000
 31
0.0000
  0
LINE
  5
10CE
  8
Electrical_DIM
 10
8320.0000
 20
-2544.0000
 30
0.0000
 11
8320.0000
 21
-2804.0000
 31
0.0000
  0
LINE
  5
10CF
  8
Electrical_DIM
 10
3490.0000
 20
-2744.0000
 30
0.0000
 11
8320.0000
 21
-2744.0000
 31
0.0000
  0
SOLID
  5
10D0
  8
Electrical_DIM
 10
3490.0000
 20
-2744.0000
 30
0.0000
 11
3400.0000
 21
-2774.0000
 31
0.0000
 12
3400.0000
 22
-2714.0000
 32
0.0000
 13
3400.0000
 23
-2714.0000
 33
0.0000
  0
SOLID
  5
10D1
  8
Electrical_DIM
 10
8320.0000
 20
-2744.0000
 30
0.0000
 11
8410.0000
 21
-2774.0000
 31
0.0000
 12
8410.0000
 22
-2714.0000
 32
0.0000
 13
8410.0000
 23
-2714.0000
 33
0.0000
  0
TEXT
  5
10D2
  8
Electrical_DIM
 10
5905.0000
 20
-2780.0000
 30
0.0000
 40
90.0000
 50
0.0000
  1
483
  7
STANDARD
  0
INSERT
  5
10D3
  8
Electrical
  2
Socket
 10
8218.0000
 20
-2544.0000
 30
0.0000
 41
1.0000
 42
1.0000
 43
1.0000
 50
0.0000
  0
TEXT
  5
10D4
  8
Electrical_H
 10
8288.0000
 20
-2504.0000
 30
0.0000
 40
90.0000
 50
0.0000
  1
H 49.4
  7
STANDARD
  0
LINE
  5
10D5
  8
Electrical_DIM
 10
3490.0000
 20
-2544.0000
 30
0.0000
 11
3490.0000
 21
-2804.0000
 31
0.0000
  0
LINE
  5
10D6
  8
Electrical_DIM
 10
8218.0000
 20
-2544.0000
 30
0.0000
 11
8218.0000
 21
-2804.0000
 31
0.0000
  0
LINE
  5
10D7
  8
Electrical_DIM
 10
3490.0000
 20
-2744.0000
 30
0.0000
 11
8218.0000
 21
-2744.0000
 31
0.0000
  0
SOLID
  5
10D8
  8
Electrical_DIM
 10
3490.0000
 20
-2744.0000
 30
0.0000
 11
3400.0000
 21
-2774.0000
 31
0.0000
 12
3400.0000
 22
-2714.0000
 32
0.0000
 13
3400.0000
 23
-2714.0000
 33
0.0000
  0
SOLID
  5
10D9
  8
Electrical_DIM
 10
8218.0000
 20
-2744.0000
 30
0.0000
 11
8308.0000
 21
-2774.0000
 31
0.0000
 12
8308.0000
 22
-2714.0000
 32
0.0000
 13
8308.0000
 23
-2714.0000
 33
0.0000
  0
TEXT
  5
10DA
  8
Electrical_DIM
 10
5854.0000
 20
-2780.0000
 30
0.0000
 40
90.0000
 50
0.0000
  1
472.8
  7
STANDARD
  0
INSERT
  5
10DB
  8
Electrical
  2
ControlBox
 10
10719.0000
 20
-2544.0000
 30
0.0000
 41
1.0000
 42
1.0000
 43
1.0000
 50
0.0000
  0
TEXT
  5
10DC
  8
Electrical_H
 10
10789.0000
 20
-2504.0000
 30
0.0000
 40
90.0000
 50
0.0000
  1
H 204.5
  7
STANDARD
  0
LINE
  5
10DD
  8
Electrical_DIM
 10
3490.0000
 20
-2544.0000
 30
0.0000
 11
3490.0000
 21
-2804.0000
 31
0.0000
  0
LINE
  5
10DE
  8
Electrical_DIM
 10
10719.0000
 20
-2544.0000
 30
0.0000
 11
10719.0000
 21
-2804.0000
 31
0.0000
  0
LINE
  5
10DF
  8
Electrical_DIM
 10
3490.0000
 20
-2744.0000
 30
0.0000
 11
10719.0000
 21
-2744.0000
 31
0.0000
  0
SOLID
  5
10E0
  8
Electrical_DIM
 10
3490.0000
 20
-2744.0000
 30
0.0000
 11
3400.0000
 21
-2774.0000
 31
0.0000
 12
3400.0000
 22
-2714.0000
 32
0.0000
 13
3400.0000
 23
-2714.0000
 33
0.0000
  0
SOLID
  5
10E1
  8
Electrical_DIM
 10
10719.0000
 20
-2744.0000
 30
0.0000
 11
10809.0000
 21
-2774.0000
 31
0.0000
 12
10809.0000
 22
-2714.0000
 32
0.0000
 13
10809.0000
 23
-2714.0000
 33
0.0000
  0
TEXT
  5
10E2
  8
Electrical_DIM
 10
7104.5000
 20
-2780.0000
 30
0.0000
 40
90.0000
 50
0.0000
  1
722.9
  7
STANDARD
  0
INSERT
  5
10E3
  8
Electrical
  2
Lighting
 10
5563.0000
 20
-2544.0000
 30
0.0000
 41
1.0000
 42
1.0000
 43
1.0000
 50
0.0000
  0
TEXT
  5
10E4
  8
Electrical_H
 10
5633.0000
 20
-2504.0000
 30
0.0000
 40
90.0000
 50
0.0000
  1
H 275.5
  7
STANDARD
  0
LINE
  5
10E5
  8
Electrical_DIM
 10
3490.0000
 20
-2544.0000
 30
0.0000
 11
3490.0000
 21
-2804.0000
 31
0.0000
  0
LINE
  5
10E6
  8
Electrical_DIM
 10
5563.0000
 20
-2544.0000
 30
0.0000
 11
5563.0000
 21
-2804.0000
 31
0.0000
  0
LINE
  5
10E7
  8
Electrical_DIM
 10
3490.0000
 20
-2744.0000
 30
0.0000
 11
5563.0000
 21
-2744.0000
 31
0.0000
  0
SOLID
  5
10E8
  8
Electrical_DIM
 10
3490.0000
 20
-2744.0000
 30
0.0000
 11
3400.0000
 21
-2774.0000
 31
0.0000
 12
3400.0000
 22
-2714.0000
 32
0.0000
 13
3400.0000
 23
-2714.0000
 33
0.0000
  0
SOLID
  5
10E9
  8
Electrical_DIM
 10
5563.0000
 20
-2744.0000
 30
0.0000
 11
5653.0000
 21
-2774.0000
 31
0.0000
 12
5653.0000
 22
-2714.0000
 32
0.0000
 13
5653.0000
 23
-2714.0000
 33
0.0000
  0
TEXT
  5
10EA
  8
Electrical_DIM
 10
4526.5000
 20
-2780.0000
 30
0.0000
 40
90.0000
 50
0.0000
  1
207.3
  7
STANDARD
  0
INSERT
  5
10EB
  8
Electrical
  2
Lighting
 10
5627.0000
 20
-2544.0000
 30
0.0000
 41
1.0000
 42
1.0000
 43
1.0000
 50
0.0000
  0
TEXT
  5
10EC
  8
Electrical_H
 10
5697.0000
 20
-2504.0000
 30
0.0000
 40
90.0000
 50
0.0000
  1
H 275.5
  7
STANDARD
  0
LINE
  5
10ED
  8
Electrical_DIM
 10
3490.0000
 20
-2544.0000
 30
0.0000
 11
3490.0000
 21
-2804.0000
 31
0.0000
  0
LINE
  5
10EE
  8
Electrical_DIM
 10
5627.0000
 20
-2544.0000
 30
0.0000
 11
5627.0000
 21
-2804.0000
 31
0.0000
  0
LINE
  5
10EF
  8
Electrical_DIM
 10
3490.0000
 20
-2744.0000
 30
0.0000
 11
5627.0000
 21
-2744.0000
 31
0.0000
  0
SOLID
  5
10F0
  8
Electrical_DIM
 10
3490.0000
 20
-2744.0000
 30
0.0000
 11
3400.0000
 21
-2774.0000
 31
0.0000
 12
3400.0000
 22
-2714.0000
 32
0.0000
 13
3400.0000
 23
-2714.0000
 33
0.0000
  0
SOLID
  5
10F1
  8
Electrical_DIM
 10
5627.0000
 20
-2744.0000
 30
0.0000
 11
5717.0000
 21
-2774.0000
 31
0.0000
 12
5717.0000
 22
-2714.0000
 32
0.0000
 13
5717.0000
 23
-2714.0000
 33
0.0000
  0
TEXT
  5
10F2
  8
Electrical_DIM
 10
4558.5000
 20
-2780.0000
 30
0.0000
 40
90.0000
 50
0.0000
  1
213.7
  7
STANDARD
  0
INSERT
  5
10F3
  8
Electrical
  2
Lighting
 10
9241.0000
 20
-2544.0000
 30
0.0000
 41
1.0000
 42
1.0000
 43
1.0000
 50
0.0000
  0
TEXT
  5
10F4
  8
Electrical_H
 10
9311.0000
 20
-2504.0000
 30
0.0000
 40
90.0000
 50
0.0000
  1
H 275.5
  7
STANDARD
  0
LINE
  5
10F5
  8
Electrical_DIM
 10
3490.0000
 20
-2544.0000
 30
0.0000
 11
3490.0000
 21
-2804.0000
 31
0.0000
  0
LINE
  5
10F6
  8
Electrical_DIM
 10
9241.0000
 20
-2544.0000
 30
0.0000
 11
9241.0000
 21
-2804.0000
 31
0.0000
  0
LINE
  5
10F7
  8
Electrical_DIM
 10
3490.0000
 20
-2744.0000
 30
0.0000
 11
9241.0000
 21
-2744.0000
 31
0.0000
  0
SOLID
  5
10F8
  8
Electrical_DIM
 10
3490.0000
 20
-2744.0000
 30
0.0000
 11
3400.0000
 21
-2774.0000
 31
0.0000
 12
3400.0000
 22
-2714.0000
 32
0.0000
 13
3400.0000
 23
-2714.0000
 33
0.0000
  0
SOLID
  5
10F9
  8
Electrical_DIM
 10
9241.0000
 20
-2744.0000
 30
0.0000
 11
9331.0000
 21
-2774.0000
 31
0.0000
 12
9331.0000
 22
-2714.0000
 32
0.0000
 13
9331.0000
 23
-2714.0000
 33
0.0000
  0
TEXT
  5
10FA
  8
Electrical_DIM
 10
6365.5000
 20
-2780.0000
 30
0.0000
 40
90.0000
 50
0.0000
  1
575.1
  7
STANDARD
  0
INSERT
  5
10FB
  8
Text_Legend
  2
Socket
 10
13256.5000
 20
-1810.0000
 30
0.0000
 41
1.0000
 42
1.0000
 43
1.0000
 50
0.0000
  0
TEXT
  5
10FC
  8
Text_Legend
 10
13456.5000
 20
-1840.0000
 30
0.0000
 40
120.0000
 50
0.0000
  1
\U+05E9\U+05E7\U+05E2
  7
STANDARD
  0
INSERT
  5
10FD
  8
Text_Legend
  2
DuplexSwitch
 10
13256.5000
 20
-2160.0000
 30
0.0000
 41
1.0000
 42
1.0000
 43
1.0000
 50
0.0000
  0
TEXT
  5
10FE
  8
Text_Legend
 10
13456.5000
 20
-2190.0000
 30
0.0000
 40
120.0000
 50
0.0000
  1
\U+05E9\U+05E7\U+05E2 \U+05DB\U+05E4\U+05D5\U+05DC
  7
STANDARD
  0
INSERT
  5
10FF
  8
Text_Legend
  2
ControlBox
 10
13256.5000
 20
-2510.0000
 30
0.0000
 41
1.0000
 42
1.0000
 43
1.0000
 50
0.0000
  0
TEXT
  5
1100
  8
Text_Legend
 10
13456.5000
 20
-2540.0000
 30
0.0000
 40
120.0000
 50
0.0000
  1
\U+05D0\U+05E8\U+05D5\U+05DF \U+05D7\U+05E9\U+05DE\U+05DC
  7
STANDARD
  0
INSERT
  5
1101
  8
Text_Legend
  2
Faucet
 10
13256.5000
 20
-2860.0000
 30
0.0000
 41
1.0000
 42
1.0000
 43
1.0000
 50
0.0000
  0
TEXT
  5
1102
  8
Text_Legend
 10
13456.5000
 20
-2890.0000
 30
0.0000
 40
120.0000
 50
0.0000
  1
\U+05D1\U+05E8\U+05D6
  7
STANDARD
  0
INSERT
  5
1103
  8
Text_Legend
  2
Sewage
 10
13256.5000
 20
-3210.0000
 30
0.0000
 41
1.0000
 42
1.0000
 43
1.0000
 50
0.0000
  0
TEXT
  5
1104
  8
Text_Legend
 10
13456.5000
 20
-3240.0000
 30
0.0000
 40
120.0000
 50
0.0000
  1
\U+05D1\U+05D9\U+05D5\U+05D1
  7
STANDARD
  0
INSERT
  5
1105
  8
Text_Legend
  2
Lighting
 10
13256.5000
 20
-3560.0000
 30
0.0000
 41
1.0000
 42
1.0000
 43
1.0000
 50
0.0000
  0
TEXT
  5
1106
  8
Text_Legend
 10
13456.5000
 20
-3590.0000
 30
0.0000
 40
120.0000
 50
0.0000
  1
\U+05EA\U+05D0\U+05D5\U+05E8\U+05D4
  7
STANDARD
  0
ENDSEC
  0
EOF
