  0
SECTION
  2
HEADER
  9
$ACADVER
  1
AC1009
  9
$INSBASE
 10
0.0000
 20
0.0000
 30
0.0000
  9
$EXTMIN
 10
3330.0000
 20
-6735.0000
 30
0.0000
  9
$EXTMAX
 10
12656.5000
 20
-1810.0000
 30
0.0000
  9
$DWGCODEPAGE
  3
ansi_1255
  9
$CLAYER
  8
0
  9
$LTSCALE
 40
10.0000
  9
$LIMMIN
 10
0.0000
 20
0.0000
  9
$LIMMAX
 10
2000.0000
 20
200.0000
  0
ENDSEC
  0
SECTION
  2
TABLES
  0
TABLE
  2
VPORT
 70
1
  0
VPORT
  2
*ACTIVE
 70
0
 10
0.0000
 20
0.0000
 11
1.0000
 21
1.0000
 12
7993.2500
 22
-4272.5000
 13
0.0000
 23
0.0000
 14
10.0000
 24
10.0000
 15
10.0000
 25
10.0000
 16
0.0000
 26
0.0000
 36
1.0000
 17
0.0000
 27
0.0000
 37
0.0000
 40
5663.7500
 41
1.6000
 42
50.0000
 43
0.0000
 44
0.0000
 50
0.0000
 51
0.0000
 71
0
 72
100
 73
1
 74
1
 75
0
 76
0
 77
0
 78
0
  0
ENDTAB
  0
TABLE
  2
LTYPE
 70
3
  0
LTYPE
  2
CONTINUOUS
 70
0
  3
Solid line
 72
65
 73
0
 40
0.0000
  0
LTYPE
  2
HIDDEN
 70
0
  3
Hidden __ __ __ __ __ __
 72
65
 73
2
 40
9.5250
 49
6.3500
 49
-3.1750
  0
LTYPE
  2
CENTER
 70
0
  3
Center ____ _ ____ _ ____
 72
65
 73
4
 40
50.8000
 49
31.7500
 49
-6.3500
 49
6.3500
 49
-6.3500
  0
ENDTAB
  0
TABLE
  2
LAYER
 70
71
  0
LAYER
  2
0
 70
0
 62
7
  6
CONTINUOUS
  0
LAYER
  2
קירות
 70
0
 62
7
  6
CONTINUOUS
  0
LAYER
  2
קירות - מילוי
 70
0
 62
8
  6
CONTINUOUS
  0
LAYER
  2
קירות - מידות
 70
0
 62
7
  6
CONTINUOUS
  0
LAYER
  2
קירות - טקסט
 70
0
 62
7
  6
CONTINUOUS
  0
LAYER
  2
קירות - נסתר
 70
0
 62
7
  6
HIDDEN
  0
LAYER
  2
קירות - ציר
 70
0
 62
7
  6
CENTER
  0
LAYER
  2
מבנה
 70
0
 62
9
  6
CONTINUOUS
  0
LAYER
  2
מבנה - מילוי
 70
0
 62
9
  6
CONTINUOUS
  0
LAYER
  2
מבנה - מידות
 70
0
 62
9
  6
CONTINUOUS
  0
LAYER
  2
מבנה - טקסט
 70
0
 62
9
  6
CONTINUOUS
  0
LAYER
  2
מבנה - נסתר
 70
0
 62
9
  6
HIDDEN
  0
LAYER
  2
מבנה - ציר
 70
0
 62
9
  6
CENTER
  0
LAYER
  2
חשמל
 70
0
 62
6
  6
CONTINUOUS
  0
LAYER
  2
חשמל - מידות
 70
0
 62
6
  6
CONTINUOUS
  0
LAYER
  2
חשמל - טקסט
 70
0
 62
6
  6
CONTINUOUS
  0
LAYER
  2
חשמל - נסתר
 70
0
 62
6
  6
HIDDEN
  0
LAYER
  2
תאורה
 70
0
 62
30
  6
CONTINUOUS
  0
LAYER
  2
תאורה - מידות
 70
0
 62
30
  6
CONTINUOUS
  0
LAYER
  2
תאורה - טקסט
 70
0
 62
30
  6
CONTINUOUS
  0
LAYER
  2
תאורה - נסתר
 70
0
 62
30
  6
HIDDEN
  0
LAYER
  2
מים
 70
0
 62
4
  6
CONTINUOUS
  0
LAYER
  2
מים - מידות
 70
0
 62
4
  6
CONTINUOUS
  0
LAYER
  2
מים - טקסט
 70
0
 62
4
  6
CONTINUOUS
  0
LAYER
  2
מים - נסתר
 70
0
 62
4
  6
HIDDEN
  0
LAYER
  2
מים - ציר
 70
0
 62
4
  6
CENTER
  0
LAYER
  2
ניקוז
 70
0
 62
140
  6
CONTINUOUS
  0
LAYER
  2
ניקוז - מידות
 70
0
 62
140
  6
CONTINUOUS
  0
LAYER
  2
ניקוז - טקסט
 70
0
 62
140
  6
CONTINUOUS
  0
LAYER
  2
ניקוז - נסתר
 70
0
 62
140
  6
HIDDEN
  0
LAYER
  2
ניקוז - ציר
 70
0
 62
140
  6
CENTER
  0
LAYER
  2
גז
 70
0
 62
2
  6
CONTINUOUS
  0
LAYER
  2
גז - מידות
 70
0
 62
2
  6
CONTINUOUS
  0
LAYER
  2
גז - טקסט
 70
0
 62
2
  6
CONTINUOUS
  0
LAYER
  2
גז - נסתר
 70
0
 62
2
  6
HIDDEN
  0
LAYER
  2
גז - ציר
 70
0
 62
2
  6
CENTER
  0
LAYER
  2
מיזוג
 70
0
 62
141
  6
CONTINUOUS
  0
LAYER
  2
מיזוג - מידות
 70
0
 62
141
  6
CONTINUOUS
  0
LAYER
  2
מיזוג - טקסט
 70
0
 62
141
  6
CONTINUOUS
  0
LAYER
  2
מיזוג - נסתר
 70
0
 62
141
  6
HIDDEN
  0
LAYER
  2
אוורור
 70
0
 62
131
  6
CONTINUOUS
  0
LAYER
  2
אוורור - מידות
 70
0
 62
131
  6
CONTINUOUS
  0
LAYER
  2
אוורור - טקסט
 70
0
 62
131
  6
CONTINUOUS
  0
LAYER
  2
אוורור - נסתר
 70
0
 62
131
  6
HIDDEN
  0
LAYER
  2
דלתות
 70
0
 62
5
  6
CONTINUOUS
  0
LAYER
  2
דלתות - מידות
 70
0
 62
5
  6
CONTINUOUS
  0
LAYER
  2
דלתות - טקסט
 70
0
 62
5
  6
CONTINUOUS
  0
LAYER
  2
דלתות - נסתר
 70
0
 62
5
  6
HIDDEN
  0
LAYER
  2
דלתות - מילוי
 70
0
 62
5
  6
CONTINUOUS
  0
LAYER
  2
חלונות
 70
0
 62
151
  6
CONTINUOUS
  0
LAYER
  2
חלונות - מידות
 70
0
 62
151
  6
CONTINUOUS
  0
LAYER
  2
חלונות - טקסט
 70
0
 62
151
  6
CONTINUOUS
  0
LAYER
  2
חלונות - נסתר
 70
0
 62
151
  6
HIDDEN
  0
LAYER
  2
ריהוט
 70
0
 62
42
  6
CONTINUOUS
  0
LAYER
  2
ריהוט - מידות
 70
0
 62
42
  6
CONTINUOUS
  0
LAYER
  2
ריהוט - טקסט
 70
0
 62
42
  6
CONTINUOUS
  0
LAYER
  2
ריהוט - נסתר
 70
0
 62
42
  6
HIDDEN
  0
LAYER
  2
מטבח
 70
0
 62
52
  6
CONTINUOUS
  0
LAYER
  2
מטבח - מידות
 70
0
 62
52
  6
CONTINUOUS
  0
LAYER
  2
מטבח - טקסט
 70
0
 62
52
  6
CONTINUOUS
  0
LAYER
  2
מטבח - נסתר
 70
0
 62
52
  6
HIDDEN
  0
LAYER
  2
ריצוף
 70
0
 62
251
  6
CONTINUOUS
  0
LAYER
  2
ריצוף - מילוי
 70
0
 62
8
  6
CONTINUOUS
  0
LAYER
  2
מידות - פנים
 70
0
 62
3
  6
CONTINUOUS
  0
LAYER
  2
מידות - חוץ
 70
0
 62
1
  6
CONTINUOUS
  0
LAYER
  2
מסגרת
 70
0
 62
250
  6
CONTINUOUS
  0
LAYER
  2
גבול גיליון
 70
0
 62
255
  6
CONTINUOUS
  0
LAYER
  2
מקרא
 70
0
 62
150
  6
CONTINUOUS
  0
LAYER
  2
רשת צירים
 70
0
 62
8
  6
CENTER
  0
LAYER
  2
הערות
 70
0
 62
150
  6
CONTINUOUS
  0
LAYER
  2
מהדורות
 70
0
 62
1
  6
CONTINUOUS
  0
ENDTAB
  0
TABLE
  2
STYLE
 70
2
  0
STYLE
  2
SOLINE
 70
0
 40
0.0000
 41
1.0000
 50
0.0000
 71
0
 42
2.5000
  3
arial.ttf
  4

  0
STYLE
  2
Standard
 70
0
 40
0.0000
 41
1.0000
 50
0.0000
 71
0
 42
2.5000
  3
txt
  4

  0
ENDTAB
  0
ENDSEC
  0
SECTION
  2
BLOCKS
  0
BLOCK
  8
0
  2
SOCKET
 70
0
 10
0.0000
 20
0.0000
 30
0.0000
  3
SOCKET
  1

  0
3DFACE
  5
117C
  8
0
 10
-35.0000
 20
-40.0000
 30
0.0000
 11
35.0000
 21
-40.0000
 31
0.0000
 12
35.0000
 22
0.0000
 32
0.0000
 13
-35.0000
 23
0.0000
 33
0.0000
  0
3DFACE
  5
117D
  8
0
 10
-35.0000
 20
-40.0000
 30
70.0000
 11
35.0000
 21
-40.0000
 31
70.0000
 12
35.0000
 22
0.0000
 32
70.0000
 13
-35.0000
 23
0.0000
 33
70.0000
  0
3DFACE
  5
117E
  8
0
 10
-35.0000
 20
-40.0000
 30
0.0000
 11
35.0000
 21
-40.0000
 31
0.0000
 12
35.0000
 22
-40.0000
 32
70.0000
 13
-35.0000
 23
-40.0000
 33
70.0000
  0
3DFACE
  5
117F
  8
0
 10
-35.0000
 20
0.0000
 30
0.0000
 11
35.0000
 21
0.0000
 31
0.0000
 12
35.0000
 22
0.0000
 32
70.0000
 13
-35.0000
 23
0.0000
 33
70.0000
  0
3DFACE
  5
1180
  8
0
 10
-35.0000
 20
-40.0000
 30
0.0000
 11
-35.0000
 21
0.0000
 31
0.0000
 12
-35.0000
 22
0.0000
 32
70.0000
 13
-35.0000
 23
-40.0000
 33
70.0000
  0
3DFACE
  5
1181
  8
0
 10
35.0000
 20
-40.0000
 30
0.0000
 11
35.0000
 21
0.0000
 31
0.0000
 12
35.0000
 22
0.0000
 32
70.0000
 13
35.0000
 23
-40.0000
 33
70.0000
  0
3DFACE
  5
1182
  8
0
 10
-45.0000
 20
0.0000
 30
-8.0000
 11
45.0000
 21
0.0000
 31
-8.0000
 12
45.0000
 22
8.0000
 32
-8.0000
 13
-45.0000
 23
8.0000
 33
-8.0000
  0
3DFACE
  5
1183
  8
0
 10
-45.0000
 20
0.0000
 30
78.0000
 11
45.0000
 21
0.0000
 31
78.0000
 12
45.0000
 22
8.0000
 32
78.0000
 13
-45.0000
 23
8.0000
 33
78.0000
  0
3DFACE
  5
1184
  8
0
 10
-45.0000
 20
0.0000
 30
-8.0000
 11
45.0000
 21
0.0000
 31
-8.0000
 12
45.0000
 22
0.0000
 32
78.0000
 13
-45.0000
 23
0.0000
 33
78.0000
  0
3DFACE
  5
1185
  8
0
 10
-45.0000
 20
8.0000
 30
-8.0000
 11
45.0000
 21
8.0000
 31
-8.0000
 12
45.0000
 22
8.0000
 32
78.0000
 13
-45.0000
 23
8.0000
 33
78.0000
  0
3DFACE
  5
1186
  8
0
 10
-45.0000
 20
0.0000
 30
-8.0000
 11
-45.0000
 21
8.0000
 31
-8.0000
 12
-45.0000
 22
8.0000
 32
78.0000
 13
-45.0000
 23
0.0000
 33
78.0000
  0
3DFACE
  5
1187
  8
0
 10
45.0000
 20
0.0000
 30
-8.0000
 11
45.0000
 21
8.0000
 31
-8.0000
 12
45.0000
 22
8.0000
 32
78.0000
 13
45.0000
 23
0.0000
 33
78.0000
  0
3DFACE
  5
1188
  8
0
 10
-16.0000
 20
8.0000
 30
20.0000
 11
16.0000
 21
8.0000
 31
20.0000
 12
16.0000
 22
14.0000
 32
20.0000
 13
-16.0000
 23
14.0000
 33
20.0000
  0
3DFACE
  5
1189
  8
0
 10
-16.0000
 20
8.0000
 30
50.0000
 11
16.0000
 21
8.0000
 31
50.0000
 12
16.0000
 22
14.0000
 32
50.0000
 13
-16.0000
 23
14.0000
 33
50.0000
  0
3DFACE
  5
118A
  8
0
 10
-16.0000
 20
8.0000
 30
20.0000
 11
16.0000
 21
8.0000
 31
20.0000
 12
16.0000
 22
8.0000
 32
50.0000
 13
-16.0000
 23
8.0000
 33
50.0000
  0
3DFACE
  5
118B
  8
0
 10
-16.0000
 20
14.0000
 30
20.0000
 11
16.0000
 21
14.0000
 31
20.0000
 12
16.0000
 22
14.0000
 32
50.0000
 13
-16.0000
 23
14.0000
 33
50.0000
  0
3DFACE
  5
118C
  8
0
 10
-16.0000
 20
8.0000
 30
20.0000
 11
-16.0000
 21
14.0000
 31
20.0000
 12
-16.0000
 22
14.0000
 32
50.0000
 13
-16.0000
 23
8.0000
 33
50.0000
  0
3DFACE
  5
118D
  8
0
 10
16.0000
 20
8.0000
 30
20.0000
 11
16.0000
 21
14.0000
 31
20.0000
 12
16.0000
 22
14.0000
 32
50.0000
 13
16.0000
 23
8.0000
 33
50.0000
  0
3DFACE
  5
118E
  8
0
 10
-12.0000
 20
14.0000
 30
30.0000
 11
-4.0000
 21
14.0000
 31
30.0000
 12
-4.0000
 22
18.0000
 32
30.0000
 13
-12.0000
 23
18.0000
 33
30.0000
  0
3DFACE
  5
118F
  8
0
 10
-12.0000
 20
14.0000
 30
44.0000
 11
-4.0000
 21
14.0000
 31
44.0000
 12
-4.0000
 22
18.0000
 32
44.0000
 13
-12.0000
 23
18.0000
 33
44.0000
  0
3DFACE
  5
1190
  8
0
 10
-12.0000
 20
14.0000
 30
30.0000
 11
-4.0000
 21
14.0000
 31
30.0000
 12
-4.0000
 22
14.0000
 32
44.0000
 13
-12.0000
 23
14.0000
 33
44.0000
  0
3DFACE
  5
1191
  8
0
 10
-12.0000
 20
18.0000
 30
30.0000
 11
-4.0000
 21
18.0000
 31
30.0000
 12
-4.0000
 22
18.0000
 32
44.0000
 13
-12.0000
 23
18.0000
 33
44.0000
  0
3DFACE
  5
1192
  8
0
 10
-12.0000
 20
14.0000
 30
30.0000
 11
-12.0000
 21
18.0000
 31
30.0000
 12
-12.0000
 22
18.0000
 32
44.0000
 13
-12.0000
 23
14.0000
 33
44.0000
  0
3DFACE
  5
1193
  8
0
 10
-4.0000
 20
14.0000
 30
30.0000
 11
-4.0000
 21
18.0000
 31
30.0000
 12
-4.0000
 22
18.0000
 32
44.0000
 13
-4.0000
 23
14.0000
 33
44.0000
  0
3DFACE
  5
1194
  8
0
 10
4.0000
 20
14.0000
 30
30.0000
 11
12.0000
 21
14.0000
 31
30.0000
 12
12.0000
 22
18.0000
 32
30.0000
 13
4.0000
 23
18.0000
 33
30.0000
  0
3DFACE
  5
1195
  8
0
 10
4.0000
 20
14.0000
 30
44.0000
 11
12.0000
 21
14.0000
 31
44.0000
 12
12.0000
 22
18.0000
 32
44.0000
 13
4.0000
 23
18.0000
 33
44.0000
  0
3DFACE
  5
1196
  8
0
 10
4.0000
 20
14.0000
 30
30.0000
 11
12.0000
 21
14.0000
 31
30.0000
 12
12.0000
 22
14.0000
 32
44.0000
 13
4.0000
 23
14.0000
 33
44.0000
  0
3DFACE
  5
1197
  8
0
 10
4.0000
 20
18.0000
 30
30.0000
 11
12.0000
 21
18.0000
 31
30.0000
 12
12.0000
 22
18.0000
 32
44.0000
 13
4.0000
 23
18.0000
 33
44.0000
  0
3DFACE
  5
1198
  8
0
 10
4.0000
 20
14.0000
 30
30.0000
 11
4.0000
 21
18.0000
 31
30.0000
 12
4.0000
 22
18.0000
 32
44.0000
 13
4.0000
 23
14.0000
 33
44.0000
  0
3DFACE
  5
1199
  8
0
 10
12.0000
 20
14.0000
 30
30.0000
 11
12.0000
 21
18.0000
 31
30.0000
 12
12.0000
 22
18.0000
 32
44.0000
 13
12.0000
 23
14.0000
 33
44.0000
  0
ENDBLK
  8
0
  0
BLOCK
  8
0
  2
DUPLEXSWITCH
 70
0
 10
0.0000
 20
0.0000
 30
0.0000
  3
DUPLEXSWITCH
  1

  0
3DFACE
  5
119A
  8
0
 10
-72.0000
 20
-40.0000
 30
0.0000
 11
-2.0000
 21
-40.0000
 31
0.0000
 12
-2.0000
 22
0.0000
 32
0.0000
 13
-72.0000
 23
0.0000
 33
0.0000
  0
3DFACE
  5
119B
  8
0
 10
-72.0000
 20
-40.0000
 30
70.0000
 11
-2.0000
 21
-40.0000
 31
70.0000
 12
-2.0000
 22
0.0000
 32
70.0000
 13
-72.0000
 23
0.0000
 33
70.0000
  0
3DFACE
  5
119C
  8
0
 10
-72.0000
 20
-40.0000
 30
0.0000
 11
-2.0000
 21
-40.0000
 31
0.0000
 12
-2.0000
 22
-40.0000
 32
70.0000
 13
-72.0000
 23
-40.0000
 33
70.0000
  0
3DFACE
  5
119D
  8
0
 10
-72.0000
 20
0.0000
 30
0.0000
 11
-2.0000
 21
0.0000
 31
0.0000
 12
-2.0000
 22
0.0000
 32
70.0000
 13
-72.0000
 23
0.0000
 33
70.0000
  0
3DFACE
  5
119E
  8
0
 10
-72.0000
 20
-40.0000
 30
0.0000
 11
-72.0000
 21
0.0000
 31
0.0000
 12
-72.0000
 22
0.0000
 32
70.0000
 13
-72.0000
 23
-40.0000
 33
70.0000
  0
3DFACE
  5
119F
  8
0
 10
-2.0000
 20
-40.0000
 30
0.0000
 11
-2.0000
 21
0.0000
 31
0.0000
 12
-2.0000
 22
0.0000
 32
70.0000
 13
-2.0000
 23
-40.0000
 33
70.0000
  0
3DFACE
  5
11A0
  8
0
 10
-82.0000
 20
0.0000
 30
-8.0000
 11
8.0000
 21
0.0000
 31
-8.0000
 12
8.0000
 22
8.0000
 32
-8.0000
 13
-82.0000
 23
8.0000
 33
-8.0000
  0
3DFACE
  5
11A1
  8
0
 10
-82.0000
 20
0.0000
 30
78.0000
 11
8.0000
 21
0.0000
 31
78.0000
 12
8.0000
 22
8.0000
 32
78.0000
 13
-82.0000
 23
8.0000
 33
78.0000
  0
3DFACE
  5
11A2
  8
0
 10
-82.0000
 20
0.0000
 30
-8.0000
 11
8.0000
 21
0.0000
 31
-8.0000
 12
8.0000
 22
0.0000
 32
78.0000
 13
-82.0000
 23
0.0000
 33
78.0000
  0
3DFACE
  5
11A3
  8
0
 10
-82.0000
 20
8.0000
 30
-8.0000
 11
8.0000
 21
8.0000
 31
-8.0000
 12
8.0000
 22
8.0000
 32
78.0000
 13
-82.0000
 23
8.0000
 33
78.0000
  0
3DFACE
  5
11A4
  8
0
 10
-82.0000
 20
0.0000
 30
-8.0000
 11
-82.0000
 21
8.0000
 31
-8.0000
 12
-82.0000
 22
8.0000
 32
78.0000
 13
-82.0000
 23
0.0000
 33
78.0000
  0
3DFACE
  5
11A5
  8
0
 10
8.0000
 20
0.0000
 30
-8.0000
 11
8.0000
 21
8.0000
 31
-8.0000
 12
8.0000
 22
8.0000
 32
78.0000
 13
8.0000
 23
0.0000
 33
78.0000
  0
3DFACE
  5
11A6
  8
0
 10
-53.0000
 20
8.0000
 30
20.0000
 11
-21.0000
 21
8.0000
 31
20.0000
 12
-21.0000
 22
14.0000
 32
20.0000
 13
-53.0000
 23
14.0000
 33
20.0000
  0
3DFACE
  5
11A7
  8
0
 10
-53.0000
 20
8.0000
 30
50.0000
 11
-21.0000
 21
8.0000
 31
50.0000
 12
-21.0000
 22
14.0000
 32
50.0000
 13
-53.0000
 23
14.0000
 33
50.0000
  0
3DFACE
  5
11A8
  8
0
 10
-53.0000
 20
8.0000
 30
20.0000
 11
-21.0000
 21
8.0000
 31
20.0000
 12
-21.0000
 22
8.0000
 32
50.0000
 13
-53.0000
 23
8.0000
 33
50.0000
  0
3DFACE
  5
11A9
  8
0
 10
-53.0000
 20
14.0000
 30
20.0000
 11
-21.0000
 21
14.0000
 31
20.0000
 12
-21.0000
 22
14.0000
 32
50.0000
 13
-53.0000
 23
14.0000
 33
50.0000
  0
3DFACE
  5
11AA
  8
0
 10
-53.0000
 20
8.0000
 30
20.0000
 11
-53.0000
 21
14.0000
 31
20.0000
 12
-53.0000
 22
14.0000
 32
50.0000
 13
-53.0000
 23
8.0000
 33
50.0000
  0
3DFACE
  5
11AB
  8
0
 10
-21.0000
 20
8.0000
 30
20.0000
 11
-21.0000
 21
14.0000
 31
20.0000
 12
-21.0000
 22
14.0000
 32
50.0000
 13
-21.0000
 23
8.0000
 33
50.0000
  0
3DFACE
  5
11AC
  8
0
 10
-49.0000
 20
14.0000
 30
30.0000
 11
-41.0000
 21
14.0000
 31
30.0000
 12
-41.0000
 22
18.0000
 32
30.0000
 13
-49.0000
 23
18.0000
 33
30.0000
  0
3DFACE
  5
11AD
  8
0
 10
-49.0000
 20
14.0000
 30
44.0000
 11
-41.0000
 21
14.0000
 31
44.0000
 12
-41.0000
 22
18.0000
 32
44.0000
 13
-49.0000
 23
18.0000
 33
44.0000
  0
3DFACE
  5
11AE
  8
0
 10
-49.0000
 20
14.0000
 30
30.0000
 11
-41.0000
 21
14.0000
 31
30.0000
 12
-41.0000
 22
14.0000
 32
44.0000
 13
-49.0000
 23
14.0000
 33
44.0000
  0
3DFACE
  5
11AF
  8
0
 10
-49.0000
 20
18.0000
 30
30.0000
 11
-41.0000
 21
18.0000
 31
30.0000
 12
-41.0000
 22
18.0000
 32
44.0000
 13
-49.0000
 23
18.0000
 33
44.0000
  0
3DFACE
  5
11B0
  8
0
 10
-49.0000
 20
14.0000
 30
30.0000
 11
-49.0000
 21
18.0000
 31
30.0000
 12
-49.0000
 22
18.0000
 32
44.0000
 13
-49.0000
 23
14.0000
 33
44.0000
  0
3DFACE
  5
11B1
  8
0
 10
-41.0000
 20
14.0000
 30
30.0000
 11
-41.0000
 21
18.0000
 31
30.0000
 12
-41.0000
 22
18.0000
 32
44.0000
 13
-41.0000
 23
14.0000
 33
44.0000
  0
3DFACE
  5
11B2
  8
0
 10
-33.0000
 20
14.0000
 30
30.0000
 11
-25.0000
 21
14.0000
 31
30.0000
 12
-25.0000
 22
18.0000
 32
30.0000
 13
-33.0000
 23
18.0000
 33
30.0000
  0
3DFACE
  5
11B3
  8
0
 10
-33.0000
 20
14.0000
 30
44.0000
 11
-25.0000
 21
14.0000
 31
44.0000
 12
-25.0000
 22
18.0000
 32
44.0000
 13
-33.0000
 23
18.0000
 33
44.0000
  0
3DFACE
  5
11B4
  8
0
 10
-33.0000
 20
14.0000
 30
30.0000
 11
-25.0000
 21
14.0000
 31
30.0000
 12
-25.0000
 22
14.0000
 32
44.0000
 13
-33.0000
 23
14.0000
 33
44.0000
  0
3DFACE
  5
11B5
  8
0
 10
-33.0000
 20
18.0000
 30
30.0000
 11
-25.0000
 21
18.0000
 31
30.0000
 12
-25.0000
 22
18.0000
 32
44.0000
 13
-33.0000
 23
18.0000
 33
44.0000
  0
3DFACE
  5
11B6
  8
0
 10
-33.0000
 20
14.0000
 30
30.0000
 11
-33.0000
 21
18.0000
 31
30.0000
 12
-33.0000
 22
18.0000
 32
44.0000
 13
-33.0000
 23
14.0000
 33
44.0000
  0
3DFACE
  5
11B7
  8
0
 10
-25.0000
 20
14.0000
 30
30.0000
 11
-25.0000
 21
18.0000
 31
30.0000
 12
-25.0000
 22
18.0000
 32
44.0000
 13
-25.0000
 23
14.0000
 33
44.0000
  0
3DFACE
  5
11B8
  8
0
 10
2.0000
 20
-40.0000
 30
0.0000
 11
72.0000
 21
-40.0000
 31
0.0000
 12
72.0000
 22
0.0000
 32
0.0000
 13
2.0000
 23
0.0000
 33
0.0000
  0
3DFACE
  5
11B9
  8
0
 10
2.0000
 20
-40.0000
 30
70.0000
 11
72.0000
 21
-40.0000
 31
70.0000
 12
72.0000
 22
0.0000
 32
70.0000
 13
2.0000
 23
0.0000
 33
70.0000
  0
3DFACE
  5
11BA
  8
0
 10
2.0000
 20
-40.0000
 30
0.0000
 11
72.0000
 21
-40.0000
 31
0.0000
 12
72.0000
 22
-40.0000
 32
70.0000
 13
2.0000
 23
-40.0000
 33
70.0000
  0
3DFACE
  5
11BB
  8
0
 10
2.0000
 20
0.0000
 30
0.0000
 11
72.0000
 21
0.0000
 31
0.0000
 12
72.0000
 22
0.0000
 32
70.0000
 13
2.0000
 23
0.0000
 33
70.0000
  0
3DFACE
  5
11BC
  8
0
 10
2.0000
 20
-40.0000
 30
0.0000
 11
2.0000
 21
0.0000
 31
0.0000
 12
2.0000
 22
0.0000
 32
70.0000
 13
2.0000
 23
-40.0000
 33
70.0000
  0
3DFACE
  5
11BD
  8
0
 10
72.0000
 20
-40.0000
 30
0.0000
 11
72.0000
 21
0.0000
 31
0.0000
 12
72.0000
 22
0.0000
 32
70.0000
 13
72.0000
 23
-40.0000
 33
70.0000
  0
3DFACE
  5
11BE
  8
0
 10
-8.0000
 20
0.0000
 30
-8.0000
 11
82.0000
 21
0.0000
 31
-8.0000
 12
82.0000
 22
8.0000
 32
-8.0000
 13
-8.0000
 23
8.0000
 33
-8.0000
  0
3DFACE
  5
11BF
  8
0
 10
-8.0000
 20
0.0000
 30
78.0000
 11
82.0000
 21
0.0000
 31
78.0000
 12
82.0000
 22
8.0000
 32
78.0000
 13
-8.0000
 23
8.0000
 33
78.0000
  0
3DFACE
  5
11C0
  8
0
 10
-8.0000
 20
0.0000
 30
-8.0000
 11
82.0000
 21
0.0000
 31
-8.0000
 12
82.0000
 22
0.0000
 32
78.0000
 13
-8.0000
 23
0.0000
 33
78.0000
  0
3DFACE
  5
11C1
  8
0
 10
-8.0000
 20
8.0000
 30
-8.0000
 11
82.0000
 21
8.0000
 31
-8.0000
 12
82.0000
 22
8.0000
 32
78.0000
 13
-8.0000
 23
8.0000
 33
78.0000
  0
3DFACE
  5
11C2
  8
0
 10
-8.0000
 20
0.0000
 30
-8.0000
 11
-8.0000
 21
8.0000
 31
-8.0000
 12
-8.0000
 22
8.0000
 32
78.0000
 13
-8.0000
 23
0.0000
 33
78.0000
  0
3DFACE
  5
11C3
  8
0
 10
82.0000
 20
0.0000
 30
-8.0000
 11
82.0000
 21
8.0000
 31
-8.0000
 12
82.0000
 22
8.0000
 32
78.0000
 13
82.0000
 23
0.0000
 33
78.0000
  0
3DFACE
  5
11C4
  8
0
 10
21.0000
 20
8.0000
 30
20.0000
 11
53.0000
 21
8.0000
 31
20.0000
 12
53.0000
 22
14.0000
 32
20.0000
 13
21.0000
 23
14.0000
 33
20.0000
  0
3DFACE
  5
11C5
  8
0
 10
21.0000
 20
8.0000
 30
50.0000
 11
53.0000
 21
8.0000
 31
50.0000
 12
53.0000
 22
14.0000
 32
50.0000
 13
21.0000
 23
14.0000
 33
50.0000
  0
3DFACE
  5
11C6
  8
0
 10
21.0000
 20
8.0000
 30
20.0000
 11
53.0000
 21
8.0000
 31
20.0000
 12
53.0000
 22
8.0000
 32
50.0000
 13
21.0000
 23
8.0000
 33
50.0000
  0
3DFACE
  5
11C7
  8
0
 10
21.0000
 20
14.0000
 30
20.0000
 11
53.0000
 21
14.0000
 31
20.0000
 12
53.0000
 22
14.0000
 32
50.0000
 13
21.0000
 23
14.0000
 33
50.0000
  0
3DFACE
  5
11C8
  8
0
 10
21.0000
 20
8.0000
 30
20.0000
 11
21.0000
 21
14.0000
 31
20.0000
 12
21.0000
 22
14.0000
 32
50.0000
 13
21.0000
 23
8.0000
 33
50.0000
  0
3DFACE
  5
11C9
  8
0
 10
53.0000
 20
8.0000
 30
20.0000
 11
53.0000
 21
14.0000
 31
20.0000
 12
53.0000
 22
14.0000
 32
50.0000
 13
53.0000
 23
8.0000
 33
50.0000
  0
3DFACE
  5
11CA
  8
0
 10
25.0000
 20
14.0000
 30
30.0000
 11
33.0000
 21
14.0000
 31
30.0000
 12
33.0000
 22
18.0000
 32
30.0000
 13
25.0000
 23
18.0000
 33
30.0000
  0
3DFACE
  5
11CB
  8
0
 10
25.0000
 20
14.0000
 30
44.0000
 11
33.0000
 21
14.0000
 31
44.0000
 12
33.0000
 22
18.0000
 32
44.0000
 13
25.0000
 23
18.0000
 33
44.0000
  0
3DFACE
  5
11CC
  8
0
 10
25.0000
 20
14.0000
 30
30.0000
 11
33.0000
 21
14.0000
 31
30.0000
 12
33.0000
 22
14.0000
 32
44.0000
 13
25.0000
 23
14.0000
 33
44.0000
  0
3DFACE
  5
11CD
  8
0
 10
25.0000
 20
18.0000
 30
30.0000
 11
33.0000
 21
18.0000
 31
30.0000
 12
33.0000
 22
18.0000
 32
44.0000
 13
25.0000
 23
18.0000
 33
44.0000
  0
3DFACE
  5
11CE
  8
0
 10
25.0000
 20
14.0000
 30
30.0000
 11
25.0000
 21
18.0000
 31
30.0000
 12
25.0000
 22
18.0000
 32
44.0000
 13
25.0000
 23
14.0000
 33
44.0000
  0
3DFACE
  5
11CF
  8
0
 10
33.0000
 20
14.0000
 30
30.0000
 11
33.0000
 21
18.0000
 31
30.0000
 12
33.0000
 22
18.0000
 32
44.0000
 13
33.0000
 23
14.0000
 33
44.0000
  0
3DFACE
  5
11D0
  8
0
 10
41.0000
 20
14.0000
 30
30.0000
 11
49.0000
 21
14.0000
 31
30.0000
 12
49.0000
 22
18.0000
 32
30.0000
 13
41.0000
 23
18.0000
 33
30.0000
  0
3DFACE
  5
11D1
  8
0
 10
41.0000
 20
14.0000
 30
44.0000
 11
49.0000
 21
14.0000
 31
44.0000
 12
49.0000
 22
18.0000
 32
44.0000
 13
41.0000
 23
18.0000
 33
44.0000
  0
3DFACE
  5
11D2
  8
0
 10
41.0000
 20
14.0000
 30
30.0000
 11
49.0000
 21
14.0000
 31
30.0000
 12
49.0000
 22
14.0000
 32
44.0000
 13
41.0000
 23
14.0000
 33
44.0000
  0
3DFACE
  5
11D3
  8
0
 10
41.0000
 20
18.0000
 30
30.0000
 11
49.0000
 21
18.0000
 31
30.0000
 12
49.0000
 22
18.0000
 32
44.0000
 13
41.0000
 23
18.0000
 33
44.0000
  0
3DFACE
  5
11D4
  8
0
 10
41.0000
 20
14.0000
 30
30.0000
 11
41.0000
 21
18.0000
 31
30.0000
 12
41.0000
 22
18.0000
 32
44.0000
 13
41.0000
 23
14.0000
 33
44.0000
  0
3DFACE
  5
11D5
  8
0
 10
49.0000
 20
14.0000
 30
30.0000
 11
49.0000
 21
18.0000
 31
30.0000
 12
49.0000
 22
18.0000
 32
44.0000
 13
49.0000
 23
14.0000
 33
44.0000
  0
ENDBLK
  8
0
  0
BLOCK
  8
0
  2
CONTROLBOX
 70
0
 10
0.0000
 20
0.0000
 30
0.0000
  3
CONTROLBOX
  1

  0
3DFACE
  5
11D6
  8
0
 10
-100.0000
 20
-40.0000
 30
-150.0000
 11
100.0000
 21
-40.0000
 31
-150.0000
 12
100.0000
 22
0.0000
 32
-150.0000
 13
-100.0000
 23
0.0000
 33
-150.0000
  0
3DFACE
  5
11D7
  8
0
 10
-100.0000
 20
-40.0000
 30
150.0000
 11
100.0000
 21
-40.0000
 31
150.0000
 12
100.0000
 22
0.0000
 32
150.0000
 13
-100.0000
 23
0.0000
 33
150.0000
  0
3DFACE
  5
11D8
  8
0
 10
-100.0000
 20
-40.0000
 30
-150.0000
 11
100.0000
 21
-40.0000
 31
-150.0000
 12
100.0000
 22
-40.0000
 32
150.0000
 13
-100.0000
 23
-40.0000
 33
150.0000
  0
3DFACE
  5
11D9
  8
0
 10
-100.0000
 20
0.0000
 30
-150.0000
 11
100.0000
 21
0.0000
 31
-150.0000
 12
100.0000
 22
0.0000
 32
150.0000
 13
-100.0000
 23
0.0000
 33
150.0000
  0
3DFACE
  5
11DA
  8
0
 10
-100.0000
 20
-40.0000
 30
-150.0000
 11
-100.0000
 21
0.0000
 31
-150.0000
 12
-100.0000
 22
0.0000
 32
150.0000
 13
-100.0000
 23
-40.0000
 33
150.0000
  0
3DFACE
  5
11DB
  8
0
 10
100.0000
 20
-40.0000
 30
-150.0000
 11
100.0000
 21
0.0000
 31
-150.0000
 12
100.0000
 22
0.0000
 32
150.0000
 13
100.0000
 23
-40.0000
 33
150.0000
  0
3DFACE
  5
11DC
  8
0
 10
-96.0000
 20
0.0000
 30
-146.0000
 11
96.0000
 21
0.0000
 31
-146.0000
 12
96.0000
 22
10.0000
 32
-146.0000
 13
-96.0000
 23
10.0000
 33
-146.0000
  0
3DFACE
  5
11DD
  8
0
 10
-96.0000
 20
0.0000
 30
146.0000
 11
96.0000
 21
0.0000
 31
146.0000
 12
96.0000
 22
10.0000
 32
146.0000
 13
-96.0000
 23
10.0000
 33
146.0000
  0
3DFACE
  5
11DE
  8
0
 10
-96.0000
 20
0.0000
 30
-146.0000
 11
96.0000
 21
0.0000
 31
-146.0000
 12
96.0000
 22
0.0000
 32
146.0000
 13
-96.0000
 23
0.0000
 33
146.0000
  0
3DFACE
  5
11DF
  8
0
 10
-96.0000
 20
10.0000
 30
-146.0000
 11
96.0000
 21
10.0000
 31
-146.0000
 12
96.0000
 22
10.0000
 32
146.0000
 13
-96.0000
 23
10.0000
 33
146.0000
  0
3DFACE
  5
11E0
  8
0
 10
-96.0000
 20
0.0000
 30
-146.0000
 11
-96.0000
 21
10.0000
 31
-146.0000
 12
-96.0000
 22
10.0000
 32
146.0000
 13
-96.0000
 23
0.0000
 33
146.0000
  0
3DFACE
  5
11E1
  8
0
 10
96.0000
 20
0.0000
 30
-146.0000
 11
96.0000
 21
10.0000
 31
-146.0000
 12
96.0000
 22
10.0000
 32
146.0000
 13
96.0000
 23
0.0000
 33
146.0000
  0
ENDBLK
  8
0
  0
BLOCK
  8
0
  2
FAUCET
 70
0
 10
0.0000
 20
0.0000
 30
0.0000
  3
FAUCET
  1

  0
3DFACE
  5
11E2
  8
0
 10
-25.0000
 20
0.0000
 30
0.0000
 11
25.0000
 21
0.0000
 31
0.0000
 12
25.0000
 22
25.0000
 32
0.0000
 13
-25.0000
 23
25.0000
 33
0.0000
  0
3DFACE
  5
11E3
  8
0
 10
-25.0000
 20
0.0000
 30
30.0000
 11
25.0000
 21
0.0000
 31
30.0000
 12
25.0000
 22
25.0000
 32
30.0000
 13
-25.0000
 23
25.0000
 33
30.0000
  0
3DFACE
  5
11E4
  8
0
 10
-25.0000
 20
0.0000
 30
0.0000
 11
25.0000
 21
0.0000
 31
0.0000
 12
25.0000
 22
0.0000
 32
30.0000
 13
-25.0000
 23
0.0000
 33
30.0000
  0
3DFACE
  5
11E5
  8
0
 10
-25.0000
 20
25.0000
 30
0.0000
 11
25.0000
 21
25.0000
 31
0.0000
 12
25.0000
 22
25.0000
 32
30.0000
 13
-25.0000
 23
25.0000
 33
30.0000
  0
3DFACE
  5
11E6
  8
0
 10
-25.0000
 20
0.0000
 30
0.0000
 11
-25.0000
 21
25.0000
 31
0.0000
 12
-25.0000
 22
25.0000
 32
30.0000
 13
-25.0000
 23
0.0000
 33
30.0000
  0
3DFACE
  5
11E7
  8
0
 10
25.0000
 20
0.0000
 30
0.0000
 11
25.0000
 21
25.0000
 31
0.0000
 12
25.0000
 22
25.0000
 32
30.0000
 13
25.0000
 23
0.0000
 33
30.0000
  0
3DFACE
  5
11E8
  8
0
 10
-9.0000
 20
0.0000
 30
30.0000
 11
9.0000
 21
0.0000
 31
30.0000
 12
9.0000
 22
18.0000
 32
30.0000
 13
-9.0000
 23
18.0000
 33
30.0000
  0
3DFACE
  5
11E9
  8
0
 10
-9.0000
 20
0.0000
 30
150.0000
 11
9.0000
 21
0.0000
 31
150.0000
 12
9.0000
 22
18.0000
 32
150.0000
 13
-9.0000
 23
18.0000
 33
150.0000
  0
3DFACE
  5
11EA
  8
0
 10
-9.0000
 20
0.0000
 30
30.0000
 11
9.0000
 21
0.0000
 31
30.0000
 12
9.0000
 22
0.0000
 32
150.0000
 13
-9.0000
 23
0.0000
 33
150.0000
  0
3DFACE
  5
11EB
  8
0
 10
-9.0000
 20
18.0000
 30
30.0000
 11
9.0000
 21
18.0000
 31
30.0000
 12
9.0000
 22
18.0000
 32
150.0000
 13
-9.0000
 23
18.0000
 33
150.0000
  0
3DFACE
  5
11EC
  8
0
 10
-9.0000
 20
0.0000
 30
30.0000
 11
-9.0000
 21
18.0000
 31
30.0000
 12
-9.0000
 22
18.0000
 32
150.0000
 13
-9.0000
 23
0.0000
 33
150.0000
  0
3DFACE
  5
11ED
  8
0
 10
9.0000
 20
0.0000
 30
30.0000
 11
9.0000
 21
18.0000
 31
30.0000
 12
9.0000
 22
18.0000
 32
150.0000
 13
9.0000
 23
0.0000
 33
150.0000
  0
3DFACE
  5
11EE
  8
0
 10
-9.0000
 20
0.0000
 30
132.0000
 11
60.0000
 21
0.0000
 31
132.0000
 12
60.0000
 22
18.0000
 32
132.0000
 13
-9.0000
 23
18.0000
 33
132.0000
  0
3DFACE
  5
11EF
  8
0
 10
-9.0000
 20
0.0000
 30
150.0000
 11
60.0000
 21
0.0000
 31
150.0000
 12
60.0000
 22
18.0000
 32
150.0000
 13
-9.0000
 23
18.0000
 33
150.0000
  0
3DFACE
  5
11F0
  8
0
 10
-9.0000
 20
0.0000
 30
132.0000
 11
60.0000
 21
0.0000
 31
132.0000
 12
60.0000
 22
0.0000
 32
150.0000
 13
-9.0000
 23
0.0000
 33
150.0000
  0
3DFACE
  5
11F1
  8
0
 10
-9.0000
 20
18.0000
 30
132.0000
 11
60.0000
 21
18.0000
 31
132.0000
 12
60.0000
 22
18.0000
 32
150.0000
 13
-9.0000
 23
18.0000
 33
150.0000
  0
3DFACE
  5
11F2
  8
0
 10
-9.0000
 20
0.0000
 30
132.0000
 11
-9.0000
 21
18.0000
 31
132.0000
 12
-9.0000
 22
18.0000
 32
150.0000
 13
-9.0000
 23
0.0000
 33
150.0000
  0
3DFACE
  5
11F3
  8
0
 10
60.0000
 20
0.0000
 30
132.0000
 11
60.0000
 21
18.0000
 31
132.0000
 12
60.0000
 22
18.0000
 32
150.0000
 13
60.0000
 23
0.0000
 33
150.0000
  0
3DFACE
  5
11F4
  8
0
 10
52.0000
 20
0.0000
 30
120.0000
 11
68.0000
 21
0.0000
 31
120.0000
 12
68.0000
 22
18.0000
 32
120.0000
 13
52.0000
 23
18.0000
 33
120.0000
  0
3DFACE
  5
11F5
  8
0
 10
52.0000
 20
0.0000
 30
150.0000
 11
68.0000
 21
0.0000
 31
150.0000
 12
68.0000
 22
18.0000
 32
150.0000
 13
52.0000
 23
18.0000
 33
150.0000
  0
3DFACE
  5
11F6
  8
0
 10
52.0000
 20
0.0000
 30
120.0000
 11
68.0000
 21
0.0000
 31
120.0000
 12
68.0000
 22
0.0000
 32
150.0000
 13
52.0000
 23
0.0000
 33
150.0000
  0
3DFACE
  5
11F7
  8
0
 10
52.0000
 20
18.0000
 30
120.0000
 11
68.0000
 21
18.0000
 31
120.0000
 12
68.0000
 22
18.0000
 32
150.0000
 13
52.0000
 23
18.0000
 33
150.0000
  0
3DFACE
  5
11F8
  8
0
 10
52.0000
 20
0.0000
 30
120.0000
 11
52.0000
 21
18.0000
 31
120.0000
 12
52.0000
 22
18.0000
 32
150.0000
 13
52.0000
 23
0.0000
 33
150.0000
  0
3DFACE
  5
11F9
  8
0
 10
68.0000
 20
0.0000
 30
120.0000
 11
68.0000
 21
18.0000
 31
120.0000
 12
68.0000
 22
18.0000
 32
150.0000
 13
68.0000
 23
0.0000
 33
150.0000
  0
3DFACE
  5
11FA
  8
0
 10
52.0000
 20
0.0000
 30
110.0000
 11
68.0000
 21
0.0000
 31
110.0000
 12
68.0000
 22
18.0000
 32
110.0000
 13
52.0000
 23
18.0000
 33
110.0000
  0
3DFACE
  5
11FB
  8
0
 10
52.0000
 20
0.0000
 30
122.0000
 11
68.0000
 21
0.0000
 31
122.0000
 12
68.0000
 22
18.0000
 32
122.0000
 13
52.0000
 23
18.0000
 33
122.0000
  0
3DFACE
  5
11FC
  8
0
 10
52.0000
 20
0.0000
 30
110.0000
 11
68.0000
 21
0.0000
 31
110.0000
 12
68.0000
 22
0.0000
 32
122.0000
 13
52.0000
 23
0.0000
 33
122.0000
  0
3DFACE
  5
11FD
  8
0
 10
52.0000
 20
18.0000
 30
110.0000
 11
68.0000
 21
18.0000
 31
110.0000
 12
68.0000
 22
18.0000
 32
122.0000
 13
52.0000
 23
18.0000
 33
122.0000
  0
3DFACE
  5
11FE
  8
0
 10
52.0000
 20
0.0000
 30
110.0000
 11
52.0000
 21
18.0000
 31
110.0000
 12
52.0000
 22
18.0000
 32
122.0000
 13
52.0000
 23
0.0000
 33
122.0000
  0
3DFACE
  5
11FF
  8
0
 10
68.0000
 20
0.0000
 30
110.0000
 11
68.0000
 21
18.0000
 31
110.0000
 12
68.0000
 22
18.0000
 32
122.0000
 13
68.0000
 23
0.0000
 33
122.0000
  0
3DFACE
  5
1200
  8
0
 10
-22.0000
 20
0.0000
 30
90.0000
 11
-14.0000
 21
0.0000
 31
90.0000
 12
-14.0000
 22
18.0000
 32
90.0000
 13
-22.0000
 23
18.0000
 33
90.0000
  0
3DFACE
  5
1201
  8
0
 10
-22.0000
 20
0.0000
 30
120.0000
 11
-14.0000
 21
0.0000
 31
120.0000
 12
-14.0000
 22
18.0000
 32
120.0000
 13
-22.0000
 23
18.0000
 33
120.0000
  0
3DFACE
  5
1202
  8
0
 10
-22.0000
 20
0.0000
 30
90.0000
 11
-14.0000
 21
0.0000
 31
90.0000
 12
-14.0000
 22
0.0000
 32
120.0000
 13
-22.0000
 23
0.0000
 33
120.0000
  0
3DFACE
  5
1203
  8
0
 10
-22.0000
 20
18.0000
 30
90.0000
 11
-14.0000
 21
18.0000
 31
90.0000
 12
-14.0000
 22
18.0000
 32
120.0000
 13
-22.0000
 23
18.0000
 33
120.0000
  0
3DFACE
  5
1204
  8
0
 10
-22.0000
 20
0.0000
 30
90.0000
 11
-22.0000
 21
18.0000
 31
90.0000
 12
-22.0000
 22
18.0000
 32
120.0000
 13
-22.0000
 23
0.0000
 33
120.0000
  0
3DFACE
  5
1205
  8
0
 10
-14.0000
 20
0.0000
 30
90.0000
 11
-14.0000
 21
18.0000
 31
90.0000
 12
-14.0000
 22
18.0000
 32
120.0000
 13
-14.0000
 23
0.0000
 33
120.0000
  0
3DFACE
  5
1206
  8
0
 10
14.0000
 20
0.0000
 30
90.0000
 11
22.0000
 21
0.0000
 31
90.0000
 12
22.0000
 22
18.0000
 32
90.0000
 13
14.0000
 23
18.0000
 33
90.0000
  0
3DFACE
  5
1207
  8
0
 10
14.0000
 20
0.0000
 30
120.0000
 11
22.0000
 21
0.0000
 31
120.0000
 12
22.0000
 22
18.0000
 32
120.0000
 13
14.0000
 23
18.0000
 33
120.0000
  0
3DFACE
  5
1208
  8
0
 10
14.0000
 20
0.0000
 30
90.0000
 11
22.0000
 21
0.0000
 31
90.0000
 12
22.0000
 22
0.0000
 32
120.0000
 13
14.0000
 23
0.0000
 33
120.0000
  0
3DFACE
  5
1209
  8
0
 10
14.0000
 20
18.0000
 30
90.0000
 11
22.0000
 21
18.0000
 31
90.0000
 12
22.0000
 22
18.0000
 32
120.0000
 13
14.0000
 23
18.0000
 33
120.0000
  0
3DFACE
  5
120A
  8
0
 10
14.0000
 20
0.0000
 30
90.0000
 11
14.0000
 21
18.0000
 31
90.0000
 12
14.0000
 22
18.0000
 32
120.0000
 13
14.0000
 23
0.0000
 33
120.0000
  0
3DFACE
  5
120B
  8
0
 10
22.0000
 20
0.0000
 30
90.0000
 11
22.0000
 21
18.0000
 31
90.0000
 12
22.0000
 22
18.0000
 32
120.0000
 13
22.0000
 23
0.0000
 33
120.0000
  0
ENDBLK
  8
0
  0
BLOCK
  8
0
  2
SEWAGE
 70
0
 10
0.0000
 20
0.0000
 30
0.0000
  3
SEWAGE
  1

  0
3DFACE
  5
120C
  8
0
 10
-50.0000
 20
0.0000
 30
-50.0000
 11
50.0000
 21
0.0000
 31
-50.0000
 12
50.0000
 22
12.0000
 32
-50.0000
 13
-50.0000
 23
12.0000
 33
-50.0000
  0
3DFACE
  5
120D
  8
0
 10
-50.0000
 20
0.0000
 30
50.0000
 11
50.0000
 21
0.0000
 31
50.0000
 12
50.0000
 22
12.0000
 32
50.0000
 13
-50.0000
 23
12.0000
 33
50.0000
  0
3DFACE
  5
120E
  8
0
 10
-50.0000
 20
0.0000
 30
-50.0000
 11
50.0000
 21
0.0000
 31
-50.0000
 12
50.0000
 22
0.0000
 32
50.0000
 13
-50.0000
 23
0.0000
 33
50.0000
  0
3DFACE
  5
120F
  8
0
 10
-50.0000
 20
12.0000
 30
-50.0000
 11
50.0000
 21
12.0000
 31
-50.0000
 12
50.0000
 22
12.0000
 32
50.0000
 13
-50.0000
 23
12.0000
 33
50.0000
  0
3DFACE
  5
1210
  8
0
 10
-50.0000
 20
0.0000
 30
-50.0000
 11
-50.0000
 21
12.0000
 31
-50.0000
 12
-50.0000
 22
12.0000
 32
50.0000
 13
-50.0000
 23
0.0000
 33
50.0000
  0
3DFACE
  5
1211
  8
0
 10
50.0000
 20
0.0000
 30
-50.0000
 11
50.0000
 21
12.0000
 31
-50.0000
 12
50.0000
 22
12.0000
 32
50.0000
 13
50.0000
 23
0.0000
 33
50.0000
  0
3DFACE
  5
1212
  8
0
 10
-30.0000
 20
12.0000
 30
-30.0000
 11
30.0000
 21
12.0000
 31
-30.0000
 12
30.0000
 22
40.0000
 32
-30.0000
 13
-30.0000
 23
40.0000
 33
-30.0000
  0
3DFACE
  5
1213
  8
0
 10
-30.0000
 20
12.0000
 30
30.0000
 11
30.0000
 21
12.0000
 31
30.0000
 12
30.0000
 22
40.0000
 32
30.0000
 13
-30.0000
 23
40.0000
 33
30.0000
  0
3DFACE
  5
1214
  8
0
 10
-30.0000
 20
12.0000
 30
-30.0000
 11
30.0000
 21
12.0000
 31
-30.0000
 12
30.0000
 22
12.0000
 32
30.0000
 13
-30.0000
 23
12.0000
 33
30.0000
  0
3DFACE
  5
1215
  8
0
 10
-30.0000
 20
40.0000
 30
-30.0000
 11
30.0000
 21
40.0000
 31
-30.0000
 12
30.0000
 22
40.0000
 32
30.0000
 13
-30.0000
 23
40.0000
 33
30.0000
  0
3DFACE
  5
1216
  8
0
 10
-30.0000
 20
12.0000
 30
-30.0000
 11
-30.0000
 21
40.0000
 31
-30.0000
 12
-30.0000
 22
40.0000
 32
30.0000
 13
-30.0000
 23
12.0000
 33
30.0000
  0
3DFACE
  5
1217
  8
0
 10
30.0000
 20
12.0000
 30
-30.0000
 11
30.0000
 21
40.0000
 31
-30.0000
 12
30.0000
 22
40.0000
 32
30.0000
 13
30.0000
 23
12.0000
 33
30.0000
  0
3DFACE
  5
1218
  8
0
 10
-22.0000
 20
40.0000
 30
-22.0000
 11
22.0000
 21
40.0000
 31
-22.0000
 12
22.0000
 22
60.0000
 32
-22.0000
 13
-22.0000
 23
60.0000
 33
-22.0000
  0
3DFACE
  5
1219
  8
0
 10
-22.0000
 20
40.0000
 30
22.0000
 11
22.0000
 21
40.0000
 31
22.0000
 12
22.0000
 22
60.0000
 32
22.0000
 13
-22.0000
 23
60.0000
 33
22.0000
  0
3DFACE
  5
121A
  8
0
 10
-22.0000
 20
40.0000
 30
-22.0000
 11
22.0000
 21
40.0000
 31
-22.0000
 12
22.0000
 22
40.0000
 32
22.0000
 13
-22.0000
 23
40.0000
 33
22.0000
  0
3DFACE
  5
121B
  8
0
 10
-22.0000
 20
60.0000
 30
-22.0000
 11
22.0000
 21
60.0000
 31
-22.0000
 12
22.0000
 22
60.0000
 32
22.0000
 13
-22.0000
 23
60.0000
 33
22.0000
  0
3DFACE
  5
121C
  8
0
 10
-22.0000
 20
40.0000
 30
-22.0000
 11
-22.0000
 21
60.0000
 31
-22.0000
 12
-22.0000
 22
60.0000
 32
22.0000
 13
-22.0000
 23
40.0000
 33
22.0000
  0
3DFACE
  5
121D
  8
0
 10
22.0000
 20
40.0000
 30
-22.0000
 11
22.0000
 21
60.0000
 31
-22.0000
 12
22.0000
 22
60.0000
 32
22.0000
 13
22.0000
 23
40.0000
 33
22.0000
  0
3DFACE
  5
121E
  8
0
 10
-45.0000
 20
0.0000
 30
-45.0000
 11
-39.0000
 21
0.0000
 31
-45.0000
 12
-39.0000
 22
6.0000
 32
-45.0000
 13
-45.0000
 23
6.0000
 33
-45.0000
  0
3DFACE
  5
121F
  8
0
 10
-45.0000
 20
0.0000
 30
-39.0000
 11
-39.0000
 21
0.0000
 31
-39.0000
 12
-39.0000
 22
6.0000
 32
-39.0000
 13
-45.0000
 23
6.0000
 33
-39.0000
  0
3DFACE
  5
1220
  8
0
 10
-45.0000
 20
0.0000
 30
-45.0000
 11
-39.0000
 21
0.0000
 31
-45.0000
 12
-39.0000
 22
0.0000
 32
-39.0000
 13
-45.0000
 23
0.0000
 33
-39.0000
  0
3DFACE
  5
1221
  8
0
 10
-45.0000
 20
6.0000
 30
-45.0000
 11
-39.0000
 21
6.0000
 31
-45.0000
 12
-39.0000
 22
6.0000
 32
-39.0000
 13
-45.0000
 23
6.0000
 33
-39.0000
  0
3DFACE
  5
1222
  8
0
 10
-45.0000
 20
0.0000
 30
-45.0000
 11
-45.0000
 21
6.0000
 31
-45.0000
 12
-45.0000
 22
6.0000
 32
-39.0000
 13
-45.0000
 23
0.0000
 33
-39.0000
  0
3DFACE
  5
1223
  8
0
 10
-39.0000
 20
0.0000
 30
-45.0000
 11
-39.0000
 21
6.0000
 31
-45.0000
 12
-39.0000
 22
6.0000
 32
-39.0000
 13
-39.0000
 23
0.0000
 33
-39.0000
  0
3DFACE
  5
1224
  8
0
 10
39.0000
 20
0.0000
 30
-45.0000
 11
45.0000
 21
0.0000
 31
-45.0000
 12
45.0000
 22
6.0000
 32
-45.0000
 13
39.0000
 23
6.0000
 33
-45.0000
  0
3DFACE
  5
1225
  8
0
 10
39.0000
 20
0.0000
 30
-39.0000
 11
45.0000
 21
0.0000
 31
-39.0000
 12
45.0000
 22
6.0000
 32
-39.0000
 13
39.0000
 23
6.0000
 33
-39.0000
  0
3DFACE
  5
1226
  8
0
 10
39.0000
 20
0.0000
 30
-45.0000
 11
45.0000
 21
0.0000
 31
-45.0000
 12
45.0000
 22
0.0000
 32
-39.0000
 13
39.0000
 23
0.0000
 33
-39.0000
  0
3DFACE
  5
1227
  8
0
 10
39.0000
 20
6.0000
 30
-45.0000
 11
45.0000
 21
6.0000
 31
-45.0000
 12
45.0000
 22
6.0000
 32
-39.0000
 13
39.0000
 23
6.0000
 33
-39.0000
  0
3DFACE
  5
1228
  8
0
 10
39.0000
 20
0.0000
 30
-45.0000
 11
39.0000
 21
6.0000
 31
-45.0000
 12
39.0000
 22
6.0000
 32
-39.0000
 13
39.0000
 23
0.0000
 33
-39.0000
  0
3DFACE
  5
1229
  8
0
 10
45.0000
 20
0.0000
 30
-45.0000
 11
45.0000
 21
6.0000
 31
-45.0000
 12
45.0000
 22
6.0000
 32
-39.0000
 13
45.0000
 23
0.0000
 33
-39.0000
  0
3DFACE
  5
122A
  8
0
 10
-45.0000
 20
0.0000
 30
39.0000
 11
-39.0000
 21
0.0000
 31
39.0000
 12
-39.0000
 22
6.0000
 32
39.0000
 13
-45.0000
 23
6.0000
 33
39.0000
  0
3DFACE
  5
122B
  8
0
 10
-45.0000
 20
0.0000
 30
45.0000
 11
-39.0000
 21
0.0000
 31
45.0000
 12
-39.0000
 22
6.0000
 32
45.0000
 13
-45.0000
 23
6.0000
 33
45.0000
  0
3DFACE
  5
122C
  8
0
 10
-45.0000
 20
0.0000
 30
39.0000
 11
-39.0000
 21
0.0000
 31
39.0000
 12
-39.0000
 22
0.0000
 32
45.0000
 13
-45.0000
 23
0.0000
 33
45.0000
  0
3DFACE
  5
122D
  8
0
 10
-45.0000
 20
6.0000
 30
39.0000
 11
-39.0000
 21
6.0000
 31
39.0000
 12
-39.0000
 22
6.0000
 32
45.0000
 13
-45.0000
 23
6.0000
 33
45.0000
  0
3DFACE
  5
122E
  8
0
 10
-45.0000
 20
0.0000
 30
39.0000
 11
-45.0000
 21
6.0000
 31
39.0000
 12
-45.0000
 22
6.0000
 32
45.0000
 13
-45.0000
 23
0.0000
 33
45.0000
  0
3DFACE
  5
122F
  8
0
 10
-39.0000
 20
0.0000
 30
39.0000
 11
-39.0000
 21
6.0000
 31
39.0000
 12
-39.0000
 22
6.0000
 32
45.0000
 13
-39.0000
 23
0.0000
 33
45.0000
  0
3DFACE
  5
1230
  8
0
 10
39.0000
 20
0.0000
 30
39.0000
 11
45.0000
 21
0.0000
 31
39.0000
 12
45.0000
 22
6.0000
 32
39.0000
 13
39.0000
 23
6.0000
 33
39.0000
  0
3DFACE
  5
1231
  8
0
 10
39.0000
 20
0.0000
 30
45.0000
 11
45.0000
 21
0.0000
 31
45.0000
 12
45.0000
 22
6.0000
 32
45.0000
 13
39.0000
 23
6.0000
 33
45.0000
  0
3DFACE
  5
1232
  8
0
 10
39.0000
 20
0.0000
 30
39.0000
 11
45.0000
 21
0.0000
 31
39.0000
 12
45.0000
 22
0.0000
 32
45.0000
 13
39.0000
 23
0.0000
 33
45.0000
  0
3DFACE
  5
1233
  8
0
 10
39.0000
 20
6.0000
 30
39.0000
 11
45.0000
 21
6.0000
 31
39.0000
 12
45.0000
 22
6.0000
 32
45.0000
 13
39.0000
 23
6.0000
 33
45.0000
  0
3DFACE
  5
1234
  8
0
 10
39.0000
 20
0.0000
 30
39.0000
 11
39.0000
 21
6.0000
 31
39.0000
 12
39.0000
 22
6.0000
 32
45.0000
 13
39.0000
 23
0.0000
 33
45.0000
  0
3DFACE
  5
1235
  8
0
 10
45.0000
 20
0.0000
 30
39.0000
 11
45.0000
 21
6.0000
 31
39.0000
 12
45.0000
 22
6.0000
 32
45.0000
 13
45.0000
 23
0.0000
 33
45.0000
  0
ENDBLK
  8
0
  0
BLOCK
  8
0
  2
LIGHTING
 70
0
 10
0.0000
 20
0.0000
 30
0.0000
  3
LIGHTING
  1

  0
3DFACE
  5
1236
  8
0
 10
-60.0000
 20
-30.0000
 30
-60.0000
 11
60.0000
 21
-30.0000
 31
-60.0000
 12
60.0000
 22
0.0000
 32
-60.0000
 13
-60.0000
 23
0.0000
 33
-60.0000
  0
3DFACE
  5
1237
  8
0
 10
-60.0000
 20
-30.0000
 30
60.0000
 11
60.0000
 21
-30.0000
 31
60.0000
 12
60.0000
 22
0.0000
 32
60.0000
 13
-60.0000
 23
0.0000
 33
60.0000
  0
3DFACE
  5
1238
  8
0
 10
-60.0000
 20
-30.0000
 30
-60.0000
 11
60.0000
 21
-30.0000
 31
-60.0000
 12
60.0000
 22
-30.0000
 32
60.0000
 13
-60.0000
 23
-30.0000
 33
60.0000
  0
3DFACE
  5
1239
  8
0
 10
-60.0000
 20
0.0000
 30
-60.0000
 11
60.0000
 21
0.0000
 31
-60.0000
 12
60.0000
 22
0.0000
 32
60.0000
 13
-60.0000
 23
0.0000
 33
60.0000
  0
3DFACE
  5
123A
  8
0
 10
-60.0000
 20
-30.0000
 30
-60.0000
 11
-60.0000
 21
0.0000
 31
-60.0000
 12
-60.0000
 22
0.0000
 32
60.0000
 13
-60.0000
 23
-30.0000
 33
60.0000
  0
3DFACE
  5
123B
  8
0
 10
60.0000
 20
-30.0000
 30
-60.0000
 11
60.0000
 21
0.0000
 31
-60.0000
 12
60.0000
 22
0.0000
 32
60.0000
 13
60.0000
 23
-30.0000
 33
60.0000
  0
3DFACE
  5
123C
  8
0
 10
-50.0000
 20
0.0000
 30
-50.0000
 11
50.0000
 21
0.0000
 31
-50.0000
 12
50.0000
 22
6.0000
 32
-50.0000
 13
-50.0000
 23
6.0000
 33
-50.0000
  0
3DFACE
  5
123D
  8
0
 10
-50.0000
 20
0.0000
 30
50.0000
 11
50.0000
 21
0.0000
 31
50.0000
 12
50.0000
 22
6.0000
 32
50.0000
 13
-50.0000
 23
6.0000
 33
50.0000
  0
3DFACE
  5
123E
  8
0
 10
-50.0000
 20
0.0000
 30
-50.0000
 11
50.0000
 21
0.0000
 31
-50.0000
 12
50.0000
 22
0.0000
 32
50.0000
 13
-50.0000
 23
0.0000
 33
50.0000
  0
3DFACE
  5
123F
  8
0
 10
-50.0000
 20
6.0000
 30
-50.0000
 11
50.0000
 21
6.0000
 31
-50.0000
 12
50.0000
 22
6.0000
 32
50.0000
 13
-50.0000
 23
6.0000
 33
50.0000
  0
3DFACE
  5
1240
  8
0
 10
-50.0000
 20
0.0000
 30
-50.0000
 11
-50.0000
 21
6.0000
 31
-50.0000
 12
-50.0000
 22
6.0000
 32
50.0000
 13
-50.0000
 23
0.0000
 33
50.0000
  0
3DFACE
  5
1241
  8
0
 10
50.0000
 20
0.0000
 30
-50.0000
 11
50.0000
 21
6.0000
 31
-50.0000
 12
50.0000
 22
6.0000
 32
50.0000
 13
50.0000
 23
0.0000
 33
50.0000
  0
3DFACE
  5
1242
  8
0
 10
-64.0000
 20
-6.0000
 30
-64.0000
 11
64.0000
 21
-6.0000
 31
-64.0000
 12
64.0000
 22
0.0000
 32
-64.0000
 13
-64.0000
 23
0.0000
 33
-64.0000
  0
3DFACE
  5
1243
  8
0
 10
-64.0000
 20
-6.0000
 30
64.0000
 11
64.0000
 21
-6.0000
 31
64.0000
 12
64.0000
 22
0.0000
 32
64.0000
 13
-64.0000
 23
0.0000
 33
64.0000
  0
3DFACE
  5
1244
  8
0
 10
-64.0000
 20
-6.0000
 30
-64.0000
 11
64.0000
 21
-6.0000
 31
-64.0000
 12
64.0000
 22
-6.0000
 32
64.0000
 13
-64.0000
 23
-6.0000
 33
64.0000
  0
3DFACE
  5
1245
  8
0
 10
-64.0000
 20
0.0000
 30
-64.0000
 11
64.0000
 21
0.0000
 31
-64.0000
 12
64.0000
 22
0.0000
 32
64.0000
 13
-64.0000
 23
0.0000
 33
64.0000
  0
3DFACE
  5
1246
  8
0
 10
-64.0000
 20
-6.0000
 30
-64.0000
 11
-64.0000
 21
0.0000
 31
-64.0000
 12
-64.0000
 22
0.0000
 32
64.0000
 13
-64.0000
 23
-6.0000
 33
64.0000
  0
3DFACE
  5
1247
  8
0
 10
64.0000
 20
-6.0000
 30
-64.0000
 11
64.0000
 21
0.0000
 31
-64.0000
 12
64.0000
 22
0.0000
 32
64.0000
 13
64.0000
 23
-6.0000
 33
64.0000
  0
3DFACE
  5
1248
  8
0
 10
-30.0000
 20
2.0000
 30
-30.0000
 11
30.0000
 21
2.0000
 31
-30.0000
 12
30.0000
 22
8.0000
 32
-30.0000
 13
-30.0000
 23
8.0000
 33
-30.0000
  0
3DFACE
  5
1249
  8
0
 10
-30.0000
 20
2.0000
 30
30.0000
 11
30.0000
 21
2.0000
 31
30.0000
 12
30.0000
 22
8.0000
 32
30.0000
 13
-30.0000
 23
8.0000
 33
30.0000
  0
3DFACE
  5
124A
  8
0
 10
-30.0000
 20
2.0000
 30
-30.0000
 11
30.0000
 21
2.0000
 31
-30.0000
 12
30.0000
 22
2.0000
 32
30.0000
 13
-30.0000
 23
2.0000
 33
30.0000
  0
3DFACE
  5
124B
  8
0
 10
-30.0000
 20
8.0000
 30
-30.0000
 11
30.0000
 21
8.0000
 31
-30.0000
 12
30.0000
 22
8.0000
 32
30.0000
 13
-30.0000
 23
8.0000
 33
30.0000
  0
3DFACE
  5
124C
  8
0
 10
-30.0000
 20
2.0000
 30
-30.0000
 11
-30.0000
 21
8.0000
 31
-30.0000
 12
-30.0000
 22
8.0000
 32
30.0000
 13
-30.0000
 23
2.0000
 33
30.0000
  0
3DFACE
  5
124D
  8
0
 10
30.0000
 20
2.0000
 30
-30.0000
 11
30.0000
 21
8.0000
 31
-30.0000
 12
30.0000
 22
8.0000
 32
30.0000
 13
30.0000
 23
2.0000
 33
30.0000
  0
ENDBLK
  8
0
  0
ENDSEC
  0
SECTION
  2
ENTITIES
  0
3DFACE
  5
1000
  8
ריצוף
 10
3490.0000
 20
-2544.0000
 30
0.0000
 11
3490.0000
 21
-6685.0000
 31
0.0000
 12
11369.0000
 22
-6685.0000
 32
0.0000
 13
11369.0000
 23
-6685.0000
 33
0.0000
 70
15
  0
3DFACE
  5
1001
  8
ריצוף
 10
3490.0000
 20
-2544.0000
 30
-40.0000
 11
11369.0000
 21
-6685.0000
 31
-40.0000
 12
3490.0000
 22
-6685.0000
 32
-40.0000
 13
3490.0000
 23
-6685.0000
 33
-40.0000
 70
15
  0
3DFACE
  5
1002
  8
ריצוף
 10
11369.0000
 20
-6685.0000
 30
0.0000
 11
11369.0000
 21
-2544.0000
 31
0.0000
 12
3490.0000
 22
-2544.0000
 32
0.0000
 13
3490.0000
 23
-2544.0000
 33
0.0000
 70
15
  0
3DFACE
  5
1003
  8
ריצוף
 10
11369.0000
 20
-6685.0000
 30
-40.0000
 11
3490.0000
 21
-2544.0000
 31
-40.0000
 12
11369.0000
 22
-2544.0000
 32
-40.0000
 13
11369.0000
 23
-2544.0000
 33
-40.0000
 70
15
  0
3DFACE
  5
1004
  8
ריצוף
 10
3490.0000
 20
-6685.0000
 30
-40.0000
 11
11369.0000
 21
-6685.0000
 31
-40.0000
 12
11369.0000
 22
-6685.0000
 32
0.0000
 13
3490.0000
 23
-6685.0000
 33
0.0000
 70
15
  0
3DFACE
  5
1005
  8
ריצוף
 10
11369.0000
 20
-6685.0000
 30
-40.0000
 11
11369.0000
 21
-2544.0000
 31
-40.0000
 12
11369.0000
 22
-2544.0000
 32
0.0000
 13
11369.0000
 23
-6685.0000
 33
0.0000
 70
15
  0
3DFACE
  5
1006
  8
ריצוף
 10
11369.0000
 20
-2544.0000
 30
-40.0000
 11
3490.0000
 21
-2544.0000
 31
-40.0000
 12
3490.0000
 22
-2544.0000
 32
0.0000
 13
11369.0000
 23
-2544.0000
 33
0.0000
 70
15
  0
3DFACE
  5
1007
  8
ריצוף
 10
3490.0000
 20
-2544.0000
 30
-40.0000
 11
3490.0000
 21
-6685.0000
 31
-40.0000
 12
3490.0000
 22
-6685.0000
 32
0.0000
 13
3490.0000
 23
-2544.0000
 33
0.0000
 70
15
  0
3DFACE
  5
1008
  8
קירות
 10
4488.0000
 20
-6390.0000
 30
0.0000
 11
3390.0000
 21
-6390.0000
 31
0.0000
 12
3390.0000
 22
-6490.0000
 32
0.0000
 13
4488.0000
 23
-6490.0000
 33
0.0000
 70
15
  0
3DFACE
  5
1009
  8
קירות
 10
4488.0000
 20
-6390.0000
 30
2780.0000
 11
3390.0000
 21
-6390.0000
 31
2780.0000
 12
3390.0000
 22
-6490.0000
 32
2780.0000
 13
4488.0000
 23
-6490.0000
 33
2780.0000
 70
15
  0
3DFACE
  5
100A
  8
קירות
 10
4488.0000
 20
-6390.0000
 30
0.0000
 11
3390.0000
 21
-6390.0000
 31
0.0000
 12
3390.0000
 22
-6390.0000
 32
2780.0000
 13
4488.0000
 23
-6390.0000
 33
2780.0000
 70
15
  0
3DFACE
  5
100B
  8
קירות
 10
4488.0000
 20
-6490.0000
 30
0.0000
 11
3390.0000
 21
-6490.0000
 31
0.0000
 12
3390.0000
 22
-6490.0000
 32
2780.0000
 13
4488.0000
 23
-6490.0000
 33
2780.0000
 70
15
  0
3DFACE
  5
100C
  8
קירות
 10
4488.0000
 20
-6390.0000
 30
0.0000
 11
4488.0000
 21
-6490.0000
 31
0.0000
 12
4488.0000
 22
-6490.0000
 32
2780.0000
 13
4488.0000
 23
-6390.0000
 33
2780.0000
 70
15
  0
3DFACE
  5
100D
  8
קירות
 10
3390.0000
 20
-6390.0000
 30
0.0000
 11
3390.0000
 21
-6490.0000
 31
0.0000
 12
3390.0000
 22
-6490.0000
 32
2780.0000
 13
3390.0000
 23
-6390.0000
 33
2780.0000
 70
15
  0
3DFACE
  5
100E
  8
קירות
 10
3490.0000
 20
-6490.0000
 30
0.0000
 11
3490.0000
 21
-2444.0000
 31
0.0000
 12
3390.0000
 22
-2444.0000
 32
0.0000
 13
3390.0000
 23
-6490.0000
 33
0.0000
 70
15
  0
3DFACE
  5
100F
  8
קירות
 10
3490.0000
 20
-6490.0000
 30
2780.0000
 11
3490.0000
 21
-2444.0000
 31
2780.0000
 12
3390.0000
 22
-2444.0000
 32
2780.0000
 13
3390.0000
 23
-6490.0000
 33
2780.0000
 70
15
  0
3DFACE
  5
1010
  8
קירות
 10
3490.0000
 20
-6490.0000
 30
0.0000
 11
3490.0000
 21
-2444.0000
 31
0.0000
 12
3490.0000
 22
-2444.0000
 32
2780.0000
 13
3490.0000
 23
-6490.0000
 33
2780.0000
 70
15
  0
3DFACE
  5
1011
  8
קירות
 10
3390.0000
 20
-6490.0000
 30
0.0000
 11
3390.0000
 21
-2444.0000
 31
0.0000
 12
3390.0000
 22
-2444.0000
 32
2780.0000
 13
3390.0000
 23
-6490.0000
 33
2780.0000
 70
15
  0
3DFACE
  5
1012
  8
קירות
 10
3490.0000
 20
-6490.0000
 30
0.0000
 11
3390.0000
 21
-6490.0000
 31
0.0000
 12
3390.0000
 22
-6490.0000
 32
2780.0000
 13
3490.0000
 23
-6490.0000
 33
2780.0000
 70
15
  0
3DFACE
  5
1013
  8
קירות
 10
3490.0000
 20
-2444.0000
 30
0.0000
 11
3390.0000
 21
-2444.0000
 31
0.0000
 12
3390.0000
 22
-2444.0000
 32
2780.0000
 13
3490.0000
 23
-2444.0000
 33
2780.0000
 70
15
  0
3DFACE
  5
1014
  8
קירות
 10
3390.0000
 20
-2544.0000
 30
0.0000
 11
3592.0000
 21
-2544.0000
 31
0.0000
 12
3592.0000
 22
-2444.0000
 32
0.0000
 13
3390.0000
 23
-2444.0000
 33
0.0000
 70
15
  0
3DFACE
  5
1015
  8
קירות
 10
3390.0000
 20
-2544.0000
 30
2780.0000
 11
3592.0000
 21
-2544.0000
 31
2780.0000
 12
3592.0000
 22
-2444.0000
 32
2780.0000
 13
3390.0000
 23
-2444.0000
 33
2780.0000
 70
15
  0
3DFACE
  5
1016
  8
קירות
 10
3390.0000
 20
-2544.0000
 30
0.0000
 11
3592.0000
 21
-2544.0000
 31
0.0000
 12
3592.0000
 22
-2544.0000
 32
2780.0000
 13
3390.0000
 23
-2544.0000
 33
2780.0000
 70
15
  0
3DFACE
  5
1017
  8
קירות
 10
3390.0000
 20
-2444.0000
 30
0.0000
 11
3592.0000
 21
-2444.0000
 31
0.0000
 12
3592.0000
 22
-2444.0000
 32
2780.0000
 13
3390.0000
 23
-2444.0000
 33
2780.0000
 70
15
  0
3DFACE
  5
1018
  8
קירות
 10
3390.0000
 20
-2544.0000
 30
0.0000
 11
3390.0000
 21
-2444.0000
 31
0.0000
 12
3390.0000
 22
-2444.0000
 32
2780.0000
 13
3390.0000
 23
-2544.0000
 33
2780.0000
 70
15
  0
3DFACE
  5
1019
  8
קירות
 10
3592.0000
 20
-2544.0000
 30
0.0000
 11
3592.0000
 21
-2444.0000
 31
0.0000
 12
3592.0000
 22
-2444.0000
 32
2780.0000
 13
3592.0000
 23
-2544.0000
 33
2780.0000
 70
15
  0
3DFACE
  5
101A
  8
קירות
 10
3592.0000
 20
-2544.0000
 30
0.0000
 11
4860.0000
 21
-2544.0000
 31
0.0000
 12
4860.0000
 22
-2444.0000
 32
0.0000
 13
3592.0000
 23
-2444.0000
 33
0.0000
 70
15
  0
3DFACE
  5
101B
  8
קירות
 10
3592.0000
 20
-2544.0000
 30
411.0000
 11
4860.0000
 21
-2544.0000
 31
411.0000
 12
4860.0000
 22
-2444.0000
 32
411.0000
 13
3592.0000
 23
-2444.0000
 33
411.0000
 70
15
  0
3DFACE
  5
101C
  8
קירות
 10
3592.0000
 20
-2544.0000
 30
0.0000
 11
4860.0000
 21
-2544.0000
 31
0.0000
 12
4860.0000
 22
-2544.0000
 32
411.0000
 13
3592.0000
 23
-2544.0000
 33
411.0000
 70
15
  0
3DFACE
  5
101D
  8
קירות
 10
3592.0000
 20
-2444.0000
 30
0.0000
 11
4860.0000
 21
-2444.0000
 31
0.0000
 12
4860.0000
 22
-2444.0000
 32
411.0000
 13
3592.0000
 23
-2444.0000
 33
411.0000
 70
15
  0
3DFACE
  5
101E
  8
קירות
 10
3592.0000
 20
-2544.0000
 30
0.0000
 11
3592.0000
 21
-2444.0000
 31
0.0000
 12
3592.0000
 22
-2444.0000
 32
411.0000
 13
3592.0000
 23
-2544.0000
 33
411.0000
 70
15
  0
3DFACE
  5
101F
  8
קירות
 10
4860.0000
 20
-2544.0000
 30
0.0000
 11
4860.0000
 21
-2444.0000
 31
0.0000
 12
4860.0000
 22
-2444.0000
 32
411.0000
 13
4860.0000
 23
-2544.0000
 33
411.0000
 70
15
  0
3DFACE
  5
1020
  8
קירות
 10
3592.0000
 20
-2544.0000
 30
1731.0000
 11
4860.0000
 21
-2544.0000
 31
1731.0000
 12
4860.0000
 22
-2444.0000
 32
1731.0000
 13
3592.0000
 23
-2444.0000
 33
1731.0000
 70
15
  0
3DFACE
  5
1021
  8
קירות
 10
3592.0000
 20
-2544.0000
 30
2780.0000
 11
4860.0000
 21
-2544.0000
 31
2780.0000
 12
4860.0000
 22
-2444.0000
 32
2780.0000
 13
3592.0000
 23
-2444.0000
 33
2780.0000
 70
15
  0
3DFACE
  5
1022
  8
קירות
 10
3592.0000
 20
-2544.0000
 30
1731.0000
 11
4860.0000
 21
-2544.0000
 31
1731.0000
 12
4860.0000
 22
-2544.0000
 32
2780.0000
 13
3592.0000
 23
-2544.0000
 33
2780.0000
 70
15
  0
3DFACE
  5
1023
  8
קירות
 10
3592.0000
 20
-2444.0000
 30
1731.0000
 11
4860.0000
 21
-2444.0000
 31
1731.0000
 12
4860.0000
 22
-2444.0000
 32
2780.0000
 13
3592.0000
 23
-2444.0000
 33
2780.0000
 70
15
  0
3DFACE
  5
1024
  8
קירות
 10
3592.0000
 20
-2544.0000
 30
1731.0000
 11
3592.0000
 21
-2444.0000
 31
1731.0000
 12
3592.0000
 22
-2444.0000
 32
2780.0000
 13
3592.0000
 23
-2544.0000
 33
2780.0000
 70
15
  0
3DFACE
  5
1025
  8
קירות
 10
4860.0000
 20
-2544.0000
 30
1731.0000
 11
4860.0000
 21
-2444.0000
 31
1731.0000
 12
4860.0000
 22
-2444.0000
 32
2780.0000
 13
4860.0000
 23
-2544.0000
 33
2780.0000
 70
15
  0
3DFACE
  5
1026
  8
קירות
 10
4860.0000
 20
-2544.0000
 30
0.0000
 11
6000.0000
 21
-2544.0000
 31
0.0000
 12
6000.0000
 22
-2444.0000
 32
0.0000
 13
4860.0000
 23
-2444.0000
 33
0.0000
 70
15
  0
3DFACE
  5
1027
  8
קירות
 10
4860.0000
 20
-2544.0000
 30
2780.0000
 11
6000.0000
 21
-2544.0000
 31
2780.0000
 12
6000.0000
 22
-2444.0000
 32
2780.0000
 13
4860.0000
 23
-2444.0000
 33
2780.0000
 70
15
  0
3DFACE
  5
1028
  8
קירות
 10
4860.0000
 20
-2544.0000
 30
0.0000
 11
6000.0000
 21
-2544.0000
 31
0.0000
 12
6000.0000
 22
-2544.0000
 32
2780.0000
 13
4860.0000
 23
-2544.0000
 33
2780.0000
 70
15
  0
3DFACE
  5
1029
  8
קירות
 10
4860.0000
 20
-2444.0000
 30
0.0000
 11
6000.0000
 21
-2444.0000
 31
0.0000
 12
6000.0000
 22
-2444.0000
 32
2780.0000
 13
4860.0000
 23
-2444.0000
 33
2780.0000
 70
15
  0
3DFACE
  5
102A
  8
קירות
 10
4860.0000
 20
-2544.0000
 30
0.0000
 11
4860.0000
 21
-2444.0000
 31
0.0000
 12
4860.0000
 22
-2444.0000
 32
2780.0000
 13
4860.0000
 23
-2544.0000
 33
2780.0000
 70
15
  0
3DFACE
  5
102B
  8
קירות
 10
6000.0000
 20
-2544.0000
 30
0.0000
 11
6000.0000
 21
-2444.0000
 31
0.0000
 12
6000.0000
 22
-2444.0000
 32
2780.0000
 13
6000.0000
 23
-2544.0000
 33
2780.0000
 70
15
  0
3DFACE
  5
102C
  8
קירות
 10
6000.0000
 20
-2544.0000
 30
1970.0000
 11
7368.0000
 21
-2544.0000
 31
1970.0000
 12
7368.0000
 22
-2444.0000
 32
1970.0000
 13
6000.0000
 23
-2444.0000
 33
1970.0000
 70
15
  0
3DFACE
  5
102D
  8
קירות
 10
6000.0000
 20
-2544.0000
 30
2780.0000
 11
7368.0000
 21
-2544.0000
 31
2780.0000
 12
7368.0000
 22
-2444.0000
 32
2780.0000
 13
6000.0000
 23
-2444.0000
 33
2780.0000
 70
15
  0
3DFACE
  5
102E
  8
קירות
 10
6000.0000
 20
-2544.0000
 30
1970.0000
 11
7368.0000
 21
-2544.0000
 31
1970.0000
 12
7368.0000
 22
-2544.0000
 32
2780.0000
 13
6000.0000
 23
-2544.0000
 33
2780.0000
 70
15
  0
3DFACE
  5
102F
  8
קירות
 10
6000.0000
 20
-2444.0000
 30
1970.0000
 11
7368.0000
 21
-2444.0000
 31
1970.0000
 12
7368.0000
 22
-2444.0000
 32
2780.0000
 13
6000.0000
 23
-2444.0000
 33
2780.0000
 70
15
  0
3DFACE
  5
1030
  8
קירות
 10
6000.0000
 20
-2544.0000
 30
1970.0000
 11
6000.0000
 21
-2444.0000
 31
1970.0000
 12
6000.0000
 22
-2444.0000
 32
2780.0000
 13
6000.0000
 23
-2544.0000
 33
2780.0000
 70
15
  0
3DFACE
  5
1031
  8
קירות
 10
7368.0000
 20
-2544.0000
 30
1970.0000
 11
7368.0000
 21
-2444.0000
 31
1970.0000
 12
7368.0000
 22
-2444.0000
 32
2780.0000
 13
7368.0000
 23
-2544.0000
 33
2780.0000
 70
15
  0
3DFACE
  5
1032
  8
קירות
 10
7368.0000
 20
-2544.0000
 30
0.0000
 11
8705.5000
 21
-2544.0000
 31
0.0000
 12
8705.5000
 22
-2444.0000
 32
0.0000
 13
7368.0000
 23
-2444.0000
 33
0.0000
 70
15
  0
3DFACE
  5
1033
  8
קירות
 10
7368.0000
 20
-2544.0000
 30
2780.0000
 11
8705.5000
 21
-2544.0000
 31
2780.0000
 12
8705.5000
 22
-2444.0000
 32
2780.0000
 13
7368.0000
 23
-2444.0000
 33
2780.0000
 70
15
  0
3DFACE
  5
1034
  8
קירות
 10
7368.0000
 20
-2544.0000
 30
0.0000
 11
8705.5000
 21
-2544.0000
 31
0.0000
 12
8705.5000
 22
-2544.0000
 32
2780.0000
 13
7368.0000
 23
-2544.0000
 33
2780.0000
 70
15
  0
3DFACE
  5
1035
  8
קירות
 10
7368.0000
 20
-2444.0000
 30
0.0000
 11
8705.5000
 21
-2444.0000
 31
0.0000
 12
8705.5000
 22
-2444.0000
 32
2780.0000
 13
7368.0000
 23
-2444.0000
 33
2780.0000
 70
15
  0
3DFACE
  5
1036
  8
קירות
 10
7368.0000
 20
-2544.0000
 30
0.0000
 11
7368.0000
 21
-2444.0000
 31
0.0000
 12
7368.0000
 22
-2444.0000
 32
2780.0000
 13
7368.0000
 23
-2544.0000
 33
2780.0000
 70
15
  0
3DFACE
  5
1037
  8
קירות
 10
8705.5000
 20
-2544.0000
 30
0.0000
 11
8705.5000
 21
-2444.0000
 31
0.0000
 12
8705.5000
 22
-2444.0000
 32
2780.0000
 13
8705.5000
 23
-2544.0000
 33
2780.0000
 70
15
  0
3DFACE
  5
1038
  8
קירות
 10
8705.5000
 20
-2544.0000
 30
1973.0000
 11
9676.5000
 21
-2544.0000
 31
1973.0000
 12
9676.5000
 22
-2444.0000
 32
1973.0000
 13
8705.5000
 23
-2444.0000
 33
1973.0000
 70
15
  0
3DFACE
  5
1039
  8
קירות
 10
8705.5000
 20
-2544.0000
 30
2780.0000
 11
9676.5000
 21
-2544.0000
 31
2780.0000
 12
9676.5000
 22
-2444.0000
 32
2780.0000
 13
8705.5000
 23
-2444.0000
 33
2780.0000
 70
15
  0
3DFACE
  5
103A
  8
קירות
 10
8705.5000
 20
-2544.0000
 30
1973.0000
 11
9676.5000
 21
-2544.0000
 31
1973.0000
 12
9676.5000
 22
-2544.0000
 32
2780.0000
 13
8705.5000
 23
-2544.0000
 33
2780.0000
 70
15
  0
3DFACE
  5
103B
  8
קירות
 10
8705.5000
 20
-2444.0000
 30
1973.0000
 11
9676.5000
 21
-2444.0000
 31
1973.0000
 12
9676.5000
 22
-2444.0000
 32
2780.0000
 13
8705.5000
 23
-2444.0000
 33
2780.0000
 70
15
  0
3DFACE
  5
103C
  8
קירות
 10
8705.5000
 20
-2544.0000
 30
1973.0000
 11
8705.5000
 21
-2444.0000
 31
1973.0000
 12
8705.5000
 22
-2444.0000
 32
2780.0000
 13
8705.5000
 23
-2544.0000
 33
2780.0000
 70
15
  0
3DFACE
  5
103D
  8
קירות
 10
9676.5000
 20
-2544.0000
 30
1973.0000
 11
9676.5000
 21
-2444.0000
 31
1973.0000
 12
9676.5000
 22
-2444.0000
 32
2780.0000
 13
9676.5000
 23
-2544.0000
 33
2780.0000
 70
15
  0
3DFACE
  5
103E
  8
קירות
 10
9676.5000
 20
-2544.0000
 30
0.0000
 11
11469.0000
 21
-2544.0000
 31
0.0000
 12
11469.0000
 22
-2444.0000
 32
0.0000
 13
9676.5000
 23
-2444.0000
 33
0.0000
 70
15
  0
3DFACE
  5
103F
  8
קירות
 10
9676.5000
 20
-2544.0000
 30
2780.0000
 11
11469.0000
 21
-2544.0000
 31
2780.0000
 12
11469.0000
 22
-2444.0000
 32
2780.0000
 13
9676.5000
 23
-2444.0000
 33
2780.0000
 70
15
  0
3DFACE
  5
1040
  8
קירות
 10
9676.5000
 20
-2544.0000
 30
0.0000
 11
11469.0000
 21
-2544.0000
 31
0.0000
 12
11469.0000
 22
-2544.0000
 32
2780.0000
 13
9676.5000
 23
-2544.0000
 33
2780.0000
 70
15
  0
3DFACE
  5
1041
  8
קירות
 10
9676.5000
 20
-2444.0000
 30
0.0000
 11
11469.0000
 21
-2444.0000
 31
0.0000
 12
11469.0000
 22
-2444.0000
 32
2780.0000
 13
9676.5000
 23
-2444.0000
 33
2780.0000
 70
15
  0
3DFACE
  5
1042
  8
קירות
 10
9676.5000
 20
-2544.0000
 30
0.0000
 11
9676.5000
 21
-2444.0000
 31
0.0000
 12
9676.5000
 22
-2444.0000
 32
2780.0000
 13
9676.5000
 23
-2544.0000
 33
2780.0000
 70
15
  0
3DFACE
  5
1043
  8
קירות
 10
11469.0000
 20
-2544.0000
 30
0.0000
 11
11469.0000
 21
-2444.0000
 31
0.0000
 12
11469.0000
 22
-2444.0000
 32
2780.0000
 13
11469.0000
 23
-2544.0000
 33
2780.0000
 70
15
  0
3DFACE
  5
1044
  8
קירות
 10
11369.0000
 20
-2444.0000
 30
0.0000
 11
11369.0000
 21
-2544.0000
 31
0.0000
 12
11469.0000
 22
-2544.0000
 32
0.0000
 13
11469.0000
 23
-2444.0000
 33
0.0000
 70
15
  0
3DFACE
  5
1045
  8
קירות
 10
11369.0000
 20
-2444.0000
 30
2780.0000
 11
11369.0000
 21
-2544.0000
 31
2780.0000
 12
11469.0000
 22
-2544.0000
 32
2780.0000
 13
11469.0000
 23
-2444.0000
 33
2780.0000
 70
15
  0
3DFACE
  5
1046
  8
קירות
 10
11369.0000
 20
-2444.0000
 30
0.0000
 11
11369.0000
 21
-2544.0000
 31
0.0000
 12
11369.0000
 22
-2544.0000
 32
2780.0000
 13
11369.0000
 23
-2444.0000
 33
2780.0000
 70
15
  0
3DFACE
  5
1047
  8
קירות
 10
11469.0000
 20
-2444.0000
 30
0.0000
 11
11469.0000
 21
-2544.0000
 31
0.0000
 12
11469.0000
 22
-2544.0000
 32
2780.0000
 13
11469.0000
 23
-2444.0000
 33
2780.0000
 70
15
  0
3DFACE
  5
1048
  8
קירות
 10
11369.0000
 20
-2444.0000
 30
0.0000
 11
11469.0000
 21
-2444.0000
 31
0.0000
 12
11469.0000
 22
-2444.0000
 32
2780.0000
 13
11369.0000
 23
-2444.0000
 33
2780.0000
 70
15
  0
3DFACE
  5
1049
  8
קירות
 10
11369.0000
 20
-2544.0000
 30
0.0000
 11
11469.0000
 21
-2544.0000
 31
0.0000
 12
11469.0000
 22
-2544.0000
 32
2780.0000
 13
11369.0000
 23
-2544.0000
 33
2780.0000
 70
15
  0
3DFACE
  5
104A
  8
קירות
 10
11369.0000
 20
-2544.0000
 30
2400.0000
 11
11369.0000
 21
-5017.5000
 31
2400.0000
 12
11469.0000
 22
-5017.5000
 32
2400.0000
 13
11469.0000
 23
-2544.0000
 33
2400.0000
 70
15
  0
3DFACE
  5
104B
  8
קירות
 10
11369.0000
 20
-2544.0000
 30
2780.0000
 11
11369.0000
 21
-5017.5000
 31
2780.0000
 12
11469.0000
 22
-5017.5000
 32
2780.0000
 13
11469.0000
 23
-2544.0000
 33
2780.0000
 70
15
  0
3DFACE
  5
104C
  8
קירות
 10
11369.0000
 20
-2544.0000
 30
2400.0000
 11
11369.0000
 21
-5017.5000
 31
2400.0000
 12
11369.0000
 22
-5017.5000
 32
2780.0000
 13
11369.0000
 23
-2544.0000
 33
2780.0000
 70
15
  0
3DFACE
  5
104D
  8
קירות
 10
11469.0000
 20
-2544.0000
 30
2400.0000
 11
11469.0000
 21
-5017.5000
 31
2400.0000
 12
11469.0000
 22
-5017.5000
 32
2780.0000
 13
11469.0000
 23
-2544.0000
 33
2780.0000
 70
15
  0
3DFACE
  5
104E
  8
קירות
 10
11369.0000
 20
-2544.0000
 30
2400.0000
 11
11469.0000
 21
-2544.0000
 31
2400.0000
 12
11469.0000
 22
-2544.0000
 32
2780.0000
 13
11369.0000
 23
-2544.0000
 33
2780.0000
 70
15
  0
3DFACE
  5
104F
  8
קירות
 10
11369.0000
 20
-5017.5000
 30
2400.0000
 11
11469.0000
 21
-5017.5000
 31
2400.0000
 12
11469.0000
 22
-5017.5000
 32
2780.0000
 13
11369.0000
 23
-5017.5000
 33
2780.0000
 70
15
  0
3DFACE
  5
1050
  8
קירות
 10
11369.0000
 20
-5017.5000
 30
0.0000
 11
11369.0000
 21
-6785.0000
 31
0.0000
 12
11469.0000
 22
-6785.0000
 32
0.0000
 13
11469.0000
 23
-5017.5000
 33
0.0000
 70
15
  0
3DFACE
  5
1051
  8
קירות
 10
11369.0000
 20
-5017.5000
 30
2780.0000
 11
11369.0000
 21
-6785.0000
 31
2780.0000
 12
11469.0000
 22
-6785.0000
 32
2780.0000
 13
11469.0000
 23
-5017.5000
 33
2780.0000
 70
15
  0
3DFACE
  5
1052
  8
קירות
 10
11369.0000
 20
-5017.5000
 30
0.0000
 11
11369.0000
 21
-6785.0000
 31
0.0000
 12
11369.0000
 22
-6785.0000
 32
2780.0000
 13
11369.0000
 23
-5017.5000
 33
2780.0000
 70
15
  0
3DFACE
  5
1053
  8
קירות
 10
11469.0000
 20
-5017.5000
 30
0.0000
 11
11469.0000
 21
-6785.0000
 31
0.0000
 12
11469.0000
 22
-6785.0000
 32
2780.0000
 13
11469.0000
 23
-5017.5000
 33
2780.0000
 70
15
  0
3DFACE
  5
1054
  8
קירות
 10
11369.0000
 20
-5017.5000
 30
0.0000
 11
11469.0000
 21
-5017.5000
 31
0.0000
 12
11469.0000
 22
-5017.5000
 32
2780.0000
 13
11369.0000
 23
-5017.5000
 33
2780.0000
 70
15
  0
3DFACE
  5
1055
  8
קירות
 10
11369.0000
 20
-6785.0000
 30
0.0000
 11
11469.0000
 21
-6785.0000
 31
0.0000
 12
11469.0000
 22
-6785.0000
 32
2780.0000
 13
11369.0000
 23
-6785.0000
 33
2780.0000
 70
15
  0
3DFACE
  5
1056
  8
קירות
 10
11469.0000
 20
-6685.0000
 30
0.0000
 11
7718.0000
 21
-6685.0000
 31
0.0000
 12
7718.0000
 22
-6785.0000
 32
0.0000
 13
11469.0000
 23
-6785.0000
 33
0.0000
 70
15
  0
3DFACE
  5
1057
  8
קירות
 10
11469.0000
 20
-6685.0000
 30
2780.0000
 11
7718.0000
 21
-6685.0000
 31
2780.0000
 12
7718.0000
 22
-6785.0000
 32
2780.0000
 13
11469.0000
 23
-6785.0000
 33
2780.0000
 70
15
  0
3DFACE
  5
1058
  8
קירות
 10
11469.0000
 20
-6685.0000
 30
0.0000
 11
7718.0000
 21
-6685.0000
 31
0.0000
 12
7718.0000
 22
-6685.0000
 32
2780.0000
 13
11469.0000
 23
-6685.0000
 33
2780.0000
 70
15
  0
3DFACE
  5
1059
  8
קירות
 10
11469.0000
 20
-6785.0000
 30
0.0000
 11
7718.0000
 21
-6785.0000
 31
0.0000
 12
7718.0000
 22
-6785.0000
 32
2780.0000
 13
11469.0000
 23
-6785.0000
 33
2780.0000
 70
15
  0
3DFACE
  5
105A
  8
קירות
 10
11469.0000
 20
-6685.0000
 30
0.0000
 11
11469.0000
 21
-6785.0000
 31
0.0000
 12
11469.0000
 22
-6785.0000
 32
2780.0000
 13
11469.0000
 23
-6685.0000
 33
2780.0000
 70
15
  0
3DFACE
  5
105B
  8
קירות
 10
7718.0000
 20
-6685.0000
 30
0.0000
 11
7718.0000
 21
-6785.0000
 31
0.0000
 12
7718.0000
 22
-6785.0000
 32
2780.0000
 13
7718.0000
 23
-6685.0000
 33
2780.0000
 70
15
  0
3DFACE
  5
105C
  8
חלונות
 10
3592.0000
 20
-2594.0000
 30
411.0000
 11
3642.0000
 21
-2594.0000
 31
411.0000
 12
3642.0000
 22
-2494.0000
 32
411.0000
 13
3592.0000
 23
-2494.0000
 33
411.0000
 70
15
  0
3DFACE
  5
105D
  8
חלונות
 10
3592.0000
 20
-2594.0000
 30
1731.0000
 11
3642.0000
 21
-2594.0000
 31
1731.0000
 12
3642.0000
 22
-2494.0000
 32
1731.0000
 13
3592.0000
 23
-2494.0000
 33
1731.0000
 70
15
  0
3DFACE
  5
105E
  8
חלונות
 10
3592.0000
 20
-2594.0000
 30
411.0000
 11
3642.0000
 21
-2594.0000
 31
411.0000
 12
3642.0000
 22
-2594.0000
 32
1731.0000
 13
3592.0000
 23
-2594.0000
 33
1731.0000
 70
15
  0
3DFACE
  5
105F
  8
חלונות
 10
3642.0000
 20
-2594.0000
 30
411.0000
 11
3642.0000
 21
-2494.0000
 31
411.0000
 12
3642.0000
 22
-2494.0000
 32
1731.0000
 13
3642.0000
 23
-2594.0000
 33
1731.0000
 70
15
  0
3DFACE
  5
1060
  8
חלונות
 10
3642.0000
 20
-2494.0000
 30
411.0000
 11
3592.0000
 21
-2494.0000
 31
411.0000
 12
3592.0000
 22
-2494.0000
 32
1731.0000
 13
3642.0000
 23
-2494.0000
 33
1731.0000
 70
15
  0
3DFACE
  5
1061
  8
חלונות
 10
3592.0000
 20
-2494.0000
 30
411.0000
 11
3592.0000
 21
-2594.0000
 31
411.0000
 12
3592.0000
 22
-2594.0000
 32
1731.0000
 13
3592.0000
 23
-2494.0000
 33
1731.0000
 70
15
  0
3DFACE
  5
1062
  8
חלונות
 10
4810.0000
 20
-2594.0000
 30
411.0000
 11
4860.0000
 21
-2594.0000
 31
411.0000
 12
4860.0000
 22
-2494.0000
 32
411.0000
 13
4810.0000
 23
-2494.0000
 33
411.0000
 70
15
  0
3DFACE
  5
1063
  8
חלונות
 10
4810.0000
 20
-2594.0000
 30
1731.0000
 11
4860.0000
 21
-2594.0000
 31
1731.0000
 12
4860.0000
 22
-2494.0000
 32
1731.0000
 13
4810.0000
 23
-2494.0000
 33
1731.0000
 70
15
  0
3DFACE
  5
1064
  8
חלונות
 10
4810.0000
 20
-2594.0000
 30
411.0000
 11
4860.0000
 21
-2594.0000
 31
411.0000
 12
4860.0000
 22
-2594.0000
 32
1731.0000
 13
4810.0000
 23
-2594.0000
 33
1731.0000
 70
15
  0
3DFACE
  5
1065
  8
חלונות
 10
4860.0000
 20
-2594.0000
 30
411.0000
 11
4860.0000
 21
-2494.0000
 31
411.0000
 12
4860.0000
 22
-2494.0000
 32
1731.0000
 13
4860.0000
 23
-2594.0000
 33
1731.0000
 70
15
  0
3DFACE
  5
1066
  8
חלונות
 10
4860.0000
 20
-2494.0000
 30
411.0000
 11
4810.0000
 21
-2494.0000
 31
411.0000
 12
4810.0000
 22
-2494.0000
 32
1731.0000
 13
4860.0000
 23
-2494.0000
 33
1731.0000
 70
15
  0
3DFACE
  5
1067
  8
חלונות
 10
4810.0000
 20
-2494.0000
 30
411.0000
 11
4810.0000
 21
-2594.0000
 31
411.0000
 12
4810.0000
 22
-2594.0000
 32
1731.0000
 13
4810.0000
 23
-2494.0000
 33
1731.0000
 70
15
  0
3DFACE
  5
1068
  8
חלונות
 10
3592.0000
 20
-2594.0000
 30
1681.0000
 11
4860.0000
 21
-2594.0000
 31
1681.0000
 12
4860.0000
 22
-2494.0000
 32
1681.0000
 13
3592.0000
 23
-2494.0000
 33
1681.0000
 70
15
  0
3DFACE
  5
1069
  8
חלונות
 10
3592.0000
 20
-2594.0000
 30
1731.0000
 11
4860.0000
 21
-2594.0000
 31
1731.0000
 12
4860.0000
 22
-2494.0000
 32
1731.0000
 13
3592.0000
 23
-2494.0000
 33
1731.0000
 70
15
  0
3DFACE
  5
106A
  8
חלונות
 10
3592.0000
 20
-2594.0000
 30
1681.0000
 11
4860.0000
 21
-2594.0000
 31
1681.0000
 12
4860.0000
 22
-2594.0000
 32
1731.0000
 13
3592.0000
 23
-2594.0000
 33
1731.0000
 70
15
  0
3DFACE
  5
106B
  8
חלונות
 10
4860.0000
 20
-2594.0000
 30
1681.0000
 11
4860.0000
 21
-2494.0000
 31
1681.0000
 12
4860.0000
 22
-2494.0000
 32
1731.0000
 13
4860.0000
 23
-2594.0000
 33
1731.0000
 70
15
  0
3DFACE
  5
106C
  8
חלונות
 10
4860.0000
 20
-2494.0000
 30
1681.0000
 11
3592.0000
 21
-2494.0000
 31
1681.0000
 12
3592.0000
 22
-2494.0000
 32
1731.0000
 13
4860.0000
 23
-2494.0000
 33
1731.0000
 70
15
  0
3DFACE
  5
106D
  8
חלונות
 10
3592.0000
 20
-2494.0000
 30
1681.0000
 11
3592.0000
 21
-2594.0000
 31
1681.0000
 12
3592.0000
 22
-2594.0000
 32
1731.0000
 13
3592.0000
 23
-2494.0000
 33
1731.0000
 70
15
  0
3DFACE
  5
106E
  8
חלונות
 10
3592.0000
 20
-2594.0000
 30
411.0000
 11
4860.0000
 21
-2594.0000
 31
411.0000
 12
4860.0000
 22
-2494.0000
 32
411.0000
 13
3592.0000
 23
-2494.0000
 33
411.0000
 70
15
  0
3DFACE
  5
106F
  8
חלונות
 10
3592.0000
 20
-2594.0000
 30
461.0000
 11
4860.0000
 21
-2594.0000
 31
461.0000
 12
4860.0000
 22
-2494.0000
 32
461.0000
 13
3592.0000
 23
-2494.0000
 33
461.0000
 70
15
  0
3DFACE
  5
1070
  8
חלונות
 10
3592.0000
 20
-2594.0000
 30
411.0000
 11
4860.0000
 21
-2594.0000
 31
411.0000
 12
4860.0000
 22
-2594.0000
 32
461.0000
 13
3592.0000
 23
-2594.0000
 33
461.0000
 70
15
  0
3DFACE
  5
1071
  8
חלונות
 10
4860.0000
 20
-2594.0000
 30
411.0000
 11
4860.0000
 21
-2494.0000
 31
411.0000
 12
4860.0000
 22
-2494.0000
 32
461.0000
 13
4860.0000
 23
-2594.0000
 33
461.0000
 70
15
  0
3DFACE
  5
1072
  8
חלונות
 10
4860.0000
 20
-2494.0000
 30
411.0000
 11
3592.0000
 21
-2494.0000
 31
411.0000
 12
3592.0000
 22
-2494.0000
 32
461.0000
 13
4860.0000
 23
-2494.0000
 33
461.0000
 70
15
  0
3DFACE
  5
1073
  8
חלונות
 10
3592.0000
 20
-2494.0000
 30
411.0000
 11
3592.0000
 21
-2594.0000
 31
411.0000
 12
3592.0000
 22
-2594.0000
 32
461.0000
 13
3592.0000
 23
-2494.0000
 33
461.0000
 70
15
  0
3DFACE
  5
1074
  8
חלונות
 10
3642.0000
 20
-2558.0000
 30
461.0000
 11
4810.0000
 21
-2558.0000
 31
461.0000
 12
4810.0000
 22
-2530.0000
 32
461.0000
 13
3642.0000
 23
-2530.0000
 33
461.0000
 70
15
  0
3DFACE
  5
1075
  8
חלונות
 10
3642.0000
 20
-2558.0000
 30
1681.0000
 11
4810.0000
 21
-2558.0000
 31
1681.0000
 12
4810.0000
 22
-2530.0000
 32
1681.0000
 13
3642.0000
 23
-2530.0000
 33
1681.0000
 70
15
  0
3DFACE
  5
1076
  8
חלונות
 10
3642.0000
 20
-2558.0000
 30
461.0000
 11
4810.0000
 21
-2558.0000
 31
461.0000
 12
4810.0000
 22
-2558.0000
 32
1681.0000
 13
3642.0000
 23
-2558.0000
 33
1681.0000
 70
15
  0
3DFACE
  5
1077
  8
חלונות
 10
4810.0000
 20
-2558.0000
 30
461.0000
 11
4810.0000
 21
-2530.0000
 31
461.0000
 12
4810.0000
 22
-2530.0000
 32
1681.0000
 13
4810.0000
 23
-2558.0000
 33
1681.0000
 70
15
  0
3DFACE
  5
1078
  8
חלונות
 10
4810.0000
 20
-2530.0000
 30
461.0000
 11
3642.0000
 21
-2530.0000
 31
461.0000
 12
3642.0000
 22
-2530.0000
 32
1681.0000
 13
4810.0000
 23
-2530.0000
 33
1681.0000
 70
15
  0
3DFACE
  5
1079
  8
חלונות
 10
3642.0000
 20
-2530.0000
 30
461.0000
 11
3642.0000
 21
-2558.0000
 31
461.0000
 12
3642.0000
 22
-2558.0000
 32
1681.0000
 13
3642.0000
 23
-2530.0000
 33
1681.0000
 70
15
  0
3DFACE
  5
107A
  8
חלונות
 10
6000.0000
 20
-2594.0000
 30
0.0000
 11
6050.0000
 21
-2594.0000
 31
0.0000
 12
6050.0000
 22
-2494.0000
 32
0.0000
 13
6000.0000
 23
-2494.0000
 33
0.0000
 70
15
  0
3DFACE
  5
107B
  8
חלונות
 10
6000.0000
 20
-2594.0000
 30
1970.0000
 11
6050.0000
 21
-2594.0000
 31
1970.0000
 12
6050.0000
 22
-2494.0000
 32
1970.0000
 13
6000.0000
 23
-2494.0000
 33
1970.0000
 70
15
  0
3DFACE
  5
107C
  8
חלונות
 10
6000.0000
 20
-2594.0000
 30
0.0000
 11
6050.0000
 21
-2594.0000
 31
0.0000
 12
6050.0000
 22
-2594.0000
 32
1970.0000
 13
6000.0000
 23
-2594.0000
 33
1970.0000
 70
15
  0
3DFACE
  5
107D
  8
חלונות
 10
6050.0000
 20
-2594.0000
 30
0.0000
 11
6050.0000
 21
-2494.0000
 31
0.0000
 12
6050.0000
 22
-2494.0000
 32
1970.0000
 13
6050.0000
 23
-2594.0000
 33
1970.0000
 70
15
  0
3DFACE
  5
107E
  8
חלונות
 10
6050.0000
 20
-2494.0000
 30
0.0000
 11
6000.0000
 21
-2494.0000
 31
0.0000
 12
6000.0000
 22
-2494.0000
 32
1970.0000
 13
6050.0000
 23
-2494.0000
 33
1970.0000
 70
15
  0
3DFACE
  5
107F
  8
חלונות
 10
6000.0000
 20
-2494.0000
 30
0.0000
 11
6000.0000
 21
-2594.0000
 31
0.0000
 12
6000.0000
 22
-2594.0000
 32
1970.0000
 13
6000.0000
 23
-2494.0000
 33
1970.0000
 70
15
  0
3DFACE
  5
1080
  8
חלונות
 10
7318.0000
 20
-2594.0000
 30
0.0000
 11
7368.0000
 21
-2594.0000
 31
0.0000
 12
7368.0000
 22
-2494.0000
 32
0.0000
 13
7318.0000
 23
-2494.0000
 33
0.0000
 70
15
  0
3DFACE
  5
1081
  8
חלונות
 10
7318.0000
 20
-2594.0000
 30
1970.0000
 11
7368.0000
 21
-2594.0000
 31
1970.0000
 12
7368.0000
 22
-2494.0000
 32
1970.0000
 13
7318.0000
 23
-2494.0000
 33
1970.0000
 70
15
  0
3DFACE
  5
1082
  8
חלונות
 10
7318.0000
 20
-2594.0000
 30
0.0000
 11
7368.0000
 21
-2594.0000
 31
0.0000
 12
7368.0000
 22
-2594.0000
 32
1970.0000
 13
7318.0000
 23
-2594.0000
 33
1970.0000
 70
15
  0
3DFACE
  5
1083
  8
חלונות
 10
7368.0000
 20
-2594.0000
 30
0.0000
 11
7368.0000
 21
-2494.0000
 31
0.0000
 12
7368.0000
 22
-2494.0000
 32
1970.0000
 13
7368.0000
 23
-2594.0000
 33
1970.0000
 70
15
  0
3DFACE
  5
1084
  8
חלונות
 10
7368.0000
 20
-2494.0000
 30
0.0000
 11
7318.0000
 21
-2494.0000
 31
0.0000
 12
7318.0000
 22
-2494.0000
 32
1970.0000
 13
7368.0000
 23
-2494.0000
 33
1970.0000
 70
15
  0
3DFACE
  5
1085
  8
חלונות
 10
7318.0000
 20
-2494.0000
 30
0.0000
 11
7318.0000
 21
-2594.0000
 31
0.0000
 12
7318.0000
 22
-2594.0000
 32
1970.0000
 13
7318.0000
 23
-2494.0000
 33
1970.0000
 70
15
  0
3DFACE
  5
1086
  8
חלונות
 10
6000.0000
 20
-2594.0000
 30
1920.0000
 11
7368.0000
 21
-2594.0000
 31
1920.0000
 12
7368.0000
 22
-2494.0000
 32
1920.0000
 13
6000.0000
 23
-2494.0000
 33
1920.0000
 70
15
  0
3DFACE
  5
1087
  8
חלונות
 10
6000.0000
 20
-2594.0000
 30
1970.0000
 11
7368.0000
 21
-2594.0000
 31
1970.0000
 12
7368.0000
 22
-2494.0000
 32
1970.0000
 13
6000.0000
 23
-2494.0000
 33
1970.0000
 70
15
  0
3DFACE
  5
1088
  8
חלונות
 10
6000.0000
 20
-2594.0000
 30
1920.0000
 11
7368.0000
 21
-2594.0000
 31
1920.0000
 12
7368.0000
 22
-2594.0000
 32
1970.0000
 13
6000.0000
 23
-2594.0000
 33
1970.0000
 70
15
  0
3DFACE
  5
1089
  8
חלונות
 10
7368.0000
 20
-2594.0000
 30
1920.0000
 11
7368.0000
 21
-2494.0000
 31
1920.0000
 12
7368.0000
 22
-2494.0000
 32
1970.0000
 13
7368.0000
 23
-2594.0000
 33
1970.0000
 70
15
  0
3DFACE
  5
108A
  8
חלונות
 10
7368.0000
 20
-2494.0000
 30
1920.0000
 11
6000.0000
 21
-2494.0000
 31
1920.0000
 12
6000.0000
 22
-2494.0000
 32
1970.0000
 13
7368.0000
 23
-2494.0000
 33
1970.0000
 70
15
  0
3DFACE
  5
108B
  8
חלונות
 10
6000.0000
 20
-2494.0000
 30
1920.0000
 11
6000.0000
 21
-2594.0000
 31
1920.0000
 12
6000.0000
 22
-2594.0000
 32
1970.0000
 13
6000.0000
 23
-2494.0000
 33
1970.0000
 70
15
  0
3DFACE
  5
108C
  8
חלונות
 10
6000.0000
 20
-2594.0000
 30
0.0000
 11
7368.0000
 21
-2594.0000
 31
0.0000
 12
7368.0000
 22
-2494.0000
 32
0.0000
 13
6000.0000
 23
-2494.0000
 33
0.0000
 70
15
  0
3DFACE
  5
108D
  8
חלונות
 10
6000.0000
 20
-2594.0000
 30
50.0000
 11
7368.0000
 21
-2594.0000
 31
50.0000
 12
7368.0000
 22
-2494.0000
 32
50.0000
 13
6000.0000
 23
-2494.0000
 33
50.0000
 70
15
  0
3DFACE
  5
108E
  8
חלונות
 10
6000.0000
 20
-2594.0000
 30
0.0000
 11
7368.0000
 21
-2594.0000
 31
0.0000
 12
7368.0000
 22
-2594.0000
 32
50.0000
 13
6000.0000
 23
-2594.0000
 33
50.0000
 70
15
  0
3DFACE
  5
108F
  8
חלונות
 10
7368.0000
 20
-2594.0000
 30
0.0000
 11
7368.0000
 21
-2494.0000
 31
0.0000
 12
7368.0000
 22
-2494.0000
 32
50.0000
 13
7368.0000
 23
-2594.0000
 33
50.0000
 70
15
  0
3DFACE
  5
1090
  8
חלונות
 10
7368.0000
 20
-2494.0000
 30
0.0000
 11
6000.0000
 21
-2494.0000
 31
0.0000
 12
6000.0000
 22
-2494.0000
 32
50.0000
 13
7368.0000
 23
-2494.0000
 33
50.0000
 70
15
  0
3DFACE
  5
1091
  8
חלונות
 10
6000.0000
 20
-2494.0000
 30
0.0000
 11
6000.0000
 21
-2594.0000
 31
0.0000
 12
6000.0000
 22
-2594.0000
 32
50.0000
 13
6000.0000
 23
-2494.0000
 33
50.0000
 70
15
  0
3DFACE
  5
1092
  8
חלונות
 10
6050.0000
 20
-2558.0000
 30
50.0000
 11
7318.0000
 21
-2558.0000
 31
50.0000
 12
7318.0000
 22
-2530.0000
 32
50.0000
 13
6050.0000
 23
-2530.0000
 33
50.0000
 70
15
  0
3DFACE
  5
1093
  8
חלונות
 10
6050.0000
 20
-2558.0000
 30
1920.0000
 11
7318.0000
 21
-2558.0000
 31
1920.0000
 12
7318.0000
 22
-2530.0000
 32
1920.0000
 13
6050.0000
 23
-2530.0000
 33
1920.0000
 70
15
  0
3DFACE
  5
1094
  8
חלונות
 10
6050.0000
 20
-2558.0000
 30
50.0000
 11
7318.0000
 21
-2558.0000
 31
50.0000
 12
7318.0000
 22
-2558.0000
 32
1920.0000
 13
6050.0000
 23
-2558.0000
 33
1920.0000
 70
15
  0
3DFACE
  5
1095
  8
חלונות
 10
7318.0000
 20
-2558.0000
 30
50.0000
 11
7318.0000
 21
-2530.0000
 31
50.0000
 12
7318.0000
 22
-2530.0000
 32
1920.0000
 13
7318.0000
 23
-2558.0000
 33
1920.0000
 70
15
  0
3DFACE
  5
1096
  8
חלונות
 10
7318.0000
 20
-2530.0000
 30
50.0000
 11
6050.0000
 21
-2530.0000
 31
50.0000
 12
6050.0000
 22
-2530.0000
 32
1920.0000
 13
7318.0000
 23
-2530.0000
 33
1920.0000
 70
15
  0
3DFACE
  5
1097
  8
חלונות
 10
6050.0000
 20
-2530.0000
 30
50.0000
 11
6050.0000
 21
-2558.0000
 31
50.0000
 12
6050.0000
 22
-2558.0000
 32
1920.0000
 13
6050.0000
 23
-2530.0000
 33
1920.0000
 70
15
  0
3DFACE
  5
1098
  8
חלונות
 10
8705.5000
 20
-2594.0000
 30
0.0000
 11
8755.5000
 21
-2594.0000
 31
0.0000
 12
8755.5000
 22
-2494.0000
 32
0.0000
 13
8705.5000
 23
-2494.0000
 33
0.0000
 70
15
  0
3DFACE
  5
1099
  8
חלונות
 10
8705.5000
 20
-2594.0000
 30
1973.0000
 11
8755.5000
 21
-2594.0000
 31
1973.0000
 12
8755.5000
 22
-2494.0000
 32
1973.0000
 13
8705.5000
 23
-2494.0000
 33
1973.0000
 70
15
  0
3DFACE
  5
109A
  8
חלונות
 10
8705.5000
 20
-2594.0000
 30
0.0000
 11
8755.5000
 21
-2594.0000
 31
0.0000
 12
8755.5000
 22
-2594.0000
 32
1973.0000
 13
8705.5000
 23
-2594.0000
 33
1973.0000
 70
15
  0
3DFACE
  5
109B
  8
חלונות
 10
8755.5000
 20
-2594.0000
 30
0.0000
 11
8755.5000
 21
-2494.0000
 31
0.0000
 12
8755.5000
 22
-2494.0000
 32
1973.0000
 13
8755.5000
 23
-2594.0000
 33
1973.0000
 70
15
  0
3DFACE
  5
109C
  8
חלונות
 10
8755.5000
 20
-2494.0000
 30
0.0000
 11
8705.5000
 21
-2494.0000
 31
0.0000
 12
8705.5000
 22
-2494.0000
 32
1973.0000
 13
8755.5000
 23
-2494.0000
 33
1973.0000
 70
15
  0
3DFACE
  5
109D
  8
חלונות
 10
8705.5000
 20
-2494.0000
 30
0.0000
 11
8705.5000
 21
-2594.0000
 31
0.0000
 12
8705.5000
 22
-2594.0000
 32
1973.0000
 13
8705.5000
 23
-2494.0000
 33
1973.0000
 70
15
  0
3DFACE
  5
109E
  8
חלונות
 10
9626.5000
 20
-2594.0000
 30
0.0000
 11
9676.5000
 21
-2594.0000
 31
0.0000
 12
9676.5000
 22
-2494.0000
 32
0.0000
 13
9626.5000
 23
-2494.0000
 33
0.0000
 70
15
  0
3DFACE
  5
109F
  8
חלונות
 10
9626.5000
 20
-2594.0000
 30
1973.0000
 11
9676.5000
 21
-2594.0000
 31
1973.0000
 12
9676.5000
 22
-2494.0000
 32
1973.0000
 13
9626.5000
 23
-2494.0000
 33
1973.0000
 70
15
  0
3DFACE
  5
10A0
  8
חלונות
 10
9626.5000
 20
-2594.0000
 30
0.0000
 11
9676.5000
 21
-2594.0000
 31
0.0000
 12
9676.5000
 22
-2594.0000
 32
1973.0000
 13
9626.5000
 23
-2594.0000
 33
1973.0000
 70
15
  0
3DFACE
  5
10A1
  8
חלונות
 10
9676.5000
 20
-2594.0000
 30
0.0000
 11
9676.5000
 21
-2494.0000
 31
0.0000
 12
9676.5000
 22
-2494.0000
 32
1973.0000
 13
9676.5000
 23
-2594.0000
 33
1973.0000
 70
15
  0
3DFACE
  5
10A2
  8
חלונות
 10
9676.5000
 20
-2494.0000
 30
0.0000
 11
9626.5000
 21
-2494.0000
 31
0.0000
 12
9626.5000
 22
-2494.0000
 32
1973.0000
 13
9676.5000
 23
-2494.0000
 33
1973.0000
 70
15
  0
3DFACE
  5
10A3
  8
חלונות
 10
9626.5000
 20
-2494.0000
 30
0.0000
 11
9626.5000
 21
-2594.0000
 31
0.0000
 12
9626.5000
 22
-2594.0000
 32
1973.0000
 13
9626.5000
 23
-2494.0000
 33
1973.0000
 70
15
  0
3DFACE
  5
10A4
  8
חלונות
 10
8705.5000
 20
-2594.0000
 30
1923.0000
 11
9676.5000
 21
-2594.0000
 31
1923.0000
 12
9676.5000
 22
-2494.0000
 32
1923.0000
 13
8705.5000
 23
-2494.0000
 33
1923.0000
 70
15
  0
3DFACE
  5
10A5
  8
חלונות
 10
8705.5000
 20
-2594.0000
 30
1973.0000
 11
9676.5000
 21
-2594.0000
 31
1973.0000
 12
9676.5000
 22
-2494.0000
 32
1973.0000
 13
8705.5000
 23
-2494.0000
 33
1973.0000
 70
15
  0
3DFACE
  5
10A6
  8
חלונות
 10
8705.5000
 20
-2594.0000
 30
1923.0000
 11
9676.5000
 21
-2594.0000
 31
1923.0000
 12
9676.5000
 22
-2594.0000
 32
1973.0000
 13
8705.5000
 23
-2594.0000
 33
1973.0000
 70
15
  0
3DFACE
  5
10A7
  8
חלונות
 10
9676.5000
 20
-2594.0000
 30
1923.0000
 11
9676.5000
 21
-2494.0000
 31
1923.0000
 12
9676.5000
 22
-2494.0000
 32
1973.0000
 13
9676.5000
 23
-2594.0000
 33
1973.0000
 70
15
  0
3DFACE
  5
10A8
  8
חלונות
 10
9676.5000
 20
-2494.0000
 30
1923.0000
 11
8705.5000
 21
-2494.0000
 31
1923.0000
 12
8705.5000
 22
-2494.0000
 32
1973.0000
 13
9676.5000
 23
-2494.0000
 33
1973.0000
 70
15
  0
3DFACE
  5
10A9
  8
חלונות
 10
8705.5000
 20
-2494.0000
 30
1923.0000
 11
8705.5000
 21
-2594.0000
 31
1923.0000
 12
8705.5000
 22
-2594.0000
 32
1973.0000
 13
8705.5000
 23
-2494.0000
 33
1973.0000
 70
15
  0
3DFACE
  5
10AA
  8
חלונות
 10
8705.5000
 20
-2594.0000
 30
0.0000
 11
9676.5000
 21
-2594.0000
 31
0.0000
 12
9676.5000
 22
-2494.0000
 32
0.0000
 13
8705.5000
 23
-2494.0000
 33
0.0000
 70
15
  0
3DFACE
  5
10AB
  8
חלונות
 10
8705.5000
 20
-2594.0000
 30
50.0000
 11
9676.5000
 21
-2594.0000
 31
50.0000
 12
9676.5000
 22
-2494.0000
 32
50.0000
 13
8705.5000
 23
-2494.0000
 33
50.0000
 70
15
  0
3DFACE
  5
10AC
  8
חלונות
 10
8705.5000
 20
-2594.0000
 30
0.0000
 11
9676.5000
 21
-2594.0000
 31
0.0000
 12
9676.5000
 22
-2594.0000
 32
50.0000
 13
8705.5000
 23
-2594.0000
 33
50.0000
 70
15
  0
3DFACE
  5
10AD
  8
חלונות
 10
9676.5000
 20
-2594.0000
 30
0.0000
 11
9676.5000
 21
-2494.0000
 31
0.0000
 12
9676.5000
 22
-2494.0000
 32
50.0000
 13
9676.5000
 23
-2594.0000
 33
50.0000
 70
15
  0
3DFACE
  5
10AE
  8
חלונות
 10
9676.5000
 20
-2494.0000
 30
0.0000
 11
8705.5000
 21
-2494.0000
 31
0.0000
 12
8705.5000
 22
-2494.0000
 32
50.0000
 13
9676.5000
 23
-2494.0000
 33
50.0000
 70
15
  0
3DFACE
  5
10AF
  8
חלונות
 10
8705.5000
 20
-2494.0000
 30
0.0000
 11
8705.5000
 21
-2594.0000
 31
0.0000
 12
8705.5000
 22
-2594.0000
 32
50.0000
 13
8705.5000
 23
-2494.0000
 33
50.0000
 70
15
  0
3DFACE
  5
10B0
  8
חלונות
 10
8755.5000
 20
-2558.0000
 30
50.0000
 11
9626.5000
 21
-2558.0000
 31
50.0000
 12
9626.5000
 22
-2530.0000
 32
50.0000
 13
8755.5000
 23
-2530.0000
 33
50.0000
 70
15
  0
3DFACE
  5
10B1
  8
חלונות
 10
8755.5000
 20
-2558.0000
 30
1923.0000
 11
9626.5000
 21
-2558.0000
 31
1923.0000
 12
9626.5000
 22
-2530.0000
 32
1923.0000
 13
8755.5000
 23
-2530.0000
 33
1923.0000
 70
15
  0
3DFACE
  5
10B2
  8
חלונות
 10
8755.5000
 20
-2558.0000
 30
50.0000
 11
9626.5000
 21
-2558.0000
 31
50.0000
 12
9626.5000
 22
-2558.0000
 32
1923.0000
 13
8755.5000
 23
-2558.0000
 33
1923.0000
 70
15
  0
3DFACE
  5
10B3
  8
חלונות
 10
9626.5000
 20
-2558.0000
 30
50.0000
 11
9626.5000
 21
-2530.0000
 31
50.0000
 12
9626.5000
 22
-2530.0000
 32
1923.0000
 13
9626.5000
 23
-2558.0000
 33
1923.0000
 70
15
  0
3DFACE
  5
10B4
  8
חלונות
 10
9626.5000
 20
-2530.0000
 30
50.0000
 11
8755.5000
 21
-2530.0000
 31
50.0000
 12
8755.5000
 22
-2530.0000
 32
1923.0000
 13
9626.5000
 23
-2530.0000
 33
1923.0000
 70
15
  0
3DFACE
  5
10B5
  8
חלונות
 10
8755.5000
 20
-2530.0000
 30
50.0000
 11
8755.5000
 21
-2558.0000
 31
50.0000
 12
8755.5000
 22
-2558.0000
 32
1923.0000
 13
8755.5000
 23
-2530.0000
 33
1923.0000
 70
15
  0
3DFACE
  5
10B6
  8
חלונות
 10
11319.0000
 20
-2542.5000
 30
900.0000
 11
11319.0000
 21
-2592.5000
 31
900.0000
 12
11419.0000
 22
-2592.5000
 32
900.0000
 13
11419.0000
 23
-2542.5000
 33
900.0000
 70
15
  0
3DFACE
  5
10B7
  8
חלונות
 10
11319.0000
 20
-2542.5000
 30
3300.0000
 11
11319.0000
 21
-2592.5000
 31
3300.0000
 12
11419.0000
 22
-2592.5000
 32
3300.0000
 13
11419.0000
 23
-2542.5000
 33
3300.0000
 70
15
  0
3DFACE
  5
10B8
  8
חלונות
 10
11319.0000
 20
-2542.5000
 30
900.0000
 11
11319.0000
 21
-2592.5000
 31
900.0000
 12
11319.0000
 22
-2592.5000
 32
3300.0000
 13
11319.0000
 23
-2542.5000
 33
3300.0000
 70
15
  0
3DFACE
  5
10B9
  8
חלונות
 10
11319.0000
 20
-2592.5000
 30
900.0000
 11
11419.0000
 21
-2592.5000
 31
900.0000
 12
11419.0000
 22
-2592.5000
 32
3300.0000
 13
11319.0000
 23
-2592.5000
 33
3300.0000
 70
15
  0
3DFACE
  5
10BA
  8
חלונות
 10
11419.0000
 20
-2592.5000
 30
900.0000
 11
11419.0000
 21
-2542.5000
 31
900.0000
 12
11419.0000
 22
-2542.5000
 32
3300.0000
 13
11419.0000
 23
-2592.5000
 33
3300.0000
 70
15
  0
3DFACE
  5
10BB
  8
חלונות
 10
11419.0000
 20
-2542.5000
 30
900.0000
 11
11319.0000
 21
-2542.5000
 31
900.0000
 12
11319.0000
 22
-2542.5000
 32
3300.0000
 13
11419.0000
 23
-2542.5000
 33
3300.0000
 70
15
  0
3DFACE
  5
10BC
  8
חלונות
 10
11319.0000
 20
-4967.5000
 30
900.0000
 11
11319.0000
 21
-5017.5000
 31
900.0000
 12
11419.0000
 22
-5017.5000
 32
900.0000
 13
11419.0000
 23
-4967.5000
 33
900.0000
 70
15
  0
3DFACE
  5
10BD
  8
חלונות
 10
11319.0000
 20
-4967.5000
 30
3300.0000
 11
11319.0000
 21
-5017.5000
 31
3300.0000
 12
11419.0000
 22
-5017.5000
 32
3300.0000
 13
11419.0000
 23
-4967.5000
 33
3300.0000
 70
15
  0
3DFACE
  5
10BE
  8
חלונות
 10
11319.0000
 20
-4967.5000
 30
900.0000
 11
11319.0000
 21
-5017.5000
 31
900.0000
 12
11319.0000
 22
-5017.5000
 32
3300.0000
 13
11319.0000
 23
-4967.5000
 33
3300.0000
 70
15
  0
3DFACE
  5
10BF
  8
חלונות
 10
11319.0000
 20
-5017.5000
 30
900.0000
 11
11419.0000
 21
-5017.5000
 31
900.0000
 12
11419.0000
 22
-5017.5000
 32
3300.0000
 13
11319.0000
 23
-5017.5000
 33
3300.0000
 70
15
  0
3DFACE
  5
10C0
  8
חלונות
 10
11419.0000
 20
-5017.5000
 30
900.0000
 11
11419.0000
 21
-4967.5000
 31
900.0000
 12
11419.0000
 22
-4967.5000
 32
3300.0000
 13
11419.0000
 23
-5017.5000
 33
3300.0000
 70
15
  0
3DFACE
  5
10C1
  8
חלונות
 10
11419.0000
 20
-4967.5000
 30
900.0000
 11
11319.0000
 21
-4967.5000
 31
900.0000
 12
11319.0000
 22
-4967.5000
 32
3300.0000
 13
11419.0000
 23
-4967.5000
 33
3300.0000
 70
15
  0
3DFACE
  5
10C2
  8
חלונות
 10
11319.0000
 20
-2542.5000
 30
3250.0000
 11
11319.0000
 21
-5017.5000
 31
3250.0000
 12
11419.0000
 22
-5017.5000
 32
3250.0000
 13
11419.0000
 23
-2542.5000
 33
3250.0000
 70
15
  0
3DFACE
  5
10C3
  8
חלונות
 10
11319.0000
 20
-2542.5000
 30
3300.0000
 11
11319.0000
 21
-5017.5000
 31
3300.0000
 12
11419.0000
 22
-5017.5000
 32
3300.0000
 13
11419.0000
 23
-2542.5000
 33
3300.0000
 70
15
  0
3DFACE
  5
10C4
  8
חלונות
 10
11319.0000
 20
-2542.5000
 30
3250.0000
 11
11319.0000
 21
-5017.5000
 31
3250.0000
 12
11319.0000
 22
-5017.5000
 32
3300.0000
 13
11319.0000
 23
-2542.5000
 33
3300.0000
 70
15
  0
3DFACE
  5
10C5
  8
חלונות
 10
11319.0000
 20
-5017.5000
 30
3250.0000
 11
11419.0000
 21
-5017.5000
 31
3250.0000
 12
11419.0000
 22
-5017.5000
 32
3300.0000
 13
11319.0000
 23
-5017.5000
 33
3300.0000
 70
15
  0
3DFACE
  5
10C6
  8
חלונות
 10
11419.0000
 20
-5017.5000
 30
3250.0000
 11
11419.0000
 21
-2542.5000
 31
3250.0000
 12
11419.0000
 22
-2542.5000
 32
3300.0000
 13
11419.0000
 23
-5017.5000
 33
3300.0000
 70
15
  0
3DFACE
  5
10C7
  8
חלונות
 10
11419.0000
 20
-2542.5000
 30
3250.0000
 11
11319.0000
 21
-2542.5000
 31
3250.0000
 12
11319.0000
 22
-2542.5000
 32
3300.0000
 13
11419.0000
 23
-2542.5000
 33
3300.0000
 70
15
  0
3DFACE
  5
10C8
  8
חלונות
 10
11319.0000
 20
-2542.5000
 30
900.0000
 11
11319.0000
 21
-5017.5000
 31
900.0000
 12
11419.0000
 22
-5017.5000
 32
900.0000
 13
11419.0000
 23
-2542.5000
 33
900.0000
 70
15
  0
3DFACE
  5
10C9
  8
חלונות
 10
11319.0000
 20
-2542.5000
 30
950.0000
 11
11319.0000
 21
-5017.5000
 31
950.0000
 12
11419.0000
 22
-5017.5000
 32
950.0000
 13
11419.0000
 23
-2542.5000
 33
950.0000
 70
15
  0
3DFACE
  5
10CA
  8
חלונות
 10
11319.0000
 20
-2542.5000
 30
900.0000
 11
11319.0000
 21
-5017.5000
 31
900.0000
 12
11319.0000
 22
-5017.5000
 32
950.0000
 13
11319.0000
 23
-2542.5000
 33
950.0000
 70
15
  0
3DFACE
  5
10CB
  8
חלונות
 10
11319.0000
 20
-5017.5000
 30
900.0000
 11
11419.0000
 21
-5017.5000
 31
900.0000
 12
11419.0000
 22
-5017.5000
 32
950.0000
 13
11319.0000
 23
-5017.5000
 33
950.0000
 70
15
  0
3DFACE
  5
10CC
  8
חלונות
 10
11419.0000
 20
-5017.5000
 30
900.0000
 11
11419.0000
 21
-2542.5000
 31
900.0000
 12
11419.0000
 22
-2542.5000
 32
950.0000
 13
11419.0000
 23
-5017.5000
 33
950.0000
 70
15
  0
3DFACE
  5
10CD
  8
חלונות
 10
11419.0000
 20
-2542.5000
 30
900.0000
 11
11319.0000
 21
-2542.5000
 31
900.0000
 12
11319.0000
 22
-2542.5000
 32
950.0000
 13
11419.0000
 23
-2542.5000
 33
950.0000
 70
15
  0
3DFACE
  5
10CE
  8
חלונות
 10
11355.0000
 20
-2592.5000
 30
950.0000
 11
11355.0000
 21
-4967.5000
 31
950.0000
 12
11383.0000
 22
-4967.5000
 32
950.0000
 13
11383.0000
 23
-2592.5000
 33
950.0000
 70
15
  0
3DFACE
  5
10CF
  8
חלונות
 10
11355.0000
 20
-2592.5000
 30
3250.0000
 11
11355.0000
 21
-4967.5000
 31
3250.0000
 12
11383.0000
 22
-4967.5000
 32
3250.0000
 13
11383.0000
 23
-2592.5000
 33
3250.0000
 70
15
  0
3DFACE
  5
10D0
  8
חלונות
 10
11355.0000
 20
-2592.5000
 30
950.0000
 11
11355.0000
 21
-4967.5000
 31
950.0000
 12
11355.0000
 22
-4967.5000
 32
3250.0000
 13
11355.0000
 23
-2592.5000
 33
3250.0000
 70
15
  0
3DFACE
  5
10D1
  8
חלונות
 10
11355.0000
 20
-4967.5000
 30
950.0000
 11
11383.0000
 21
-4967.5000
 31
950.0000
 12
11383.0000
 22
-4967.5000
 32
3250.0000
 13
11355.0000
 23
-4967.5000
 33
3250.0000
 70
15
  0
3DFACE
  5
10D2
  8
חלונות
 10
11383.0000
 20
-4967.5000
 30
950.0000
 11
11383.0000
 21
-2592.5000
 31
950.0000
 12
11383.0000
 22
-2592.5000
 32
3250.0000
 13
11383.0000
 23
-4967.5000
 33
3250.0000
 70
15
  0
3DFACE
  5
10D3
  8
חלונות
 10
11383.0000
 20
-2592.5000
 30
950.0000
 11
11355.0000
 21
-2592.5000
 31
950.0000
 12
11355.0000
 22
-2592.5000
 32
3250.0000
 13
11383.0000
 23
-2592.5000
 33
3250.0000
 70
15
  0
INSERT
  5
10D4
  8
חשמל
  2
SOCKET
 10
3490.0000
 20
-4837.0000
 30
1689.0000
 41
1.0000
 42
1.0000
 43
1.0000
 50
90.0000
  0
3DFACE
  5
10D5
  8
חשמל
 10
3555.0000
 20
-4877.0000
 30
1689.0000
 11
3555.0000
 21
-4797.0000
 31
1689.0000
 12
3540.0000
 22
-4797.0000
 32
1689.0000
 13
3540.0000
 23
-4877.0000
 33
1689.0000
 70
15
  0
3DFACE
  5
10D6
  8
חשמל
 10
3555.0000
 20
-4877.0000
 30
1769.0000
 11
3555.0000
 21
-4797.0000
 31
1769.0000
 12
3540.0000
 22
-4797.0000
 32
1769.0000
 13
3540.0000
 23
-4877.0000
 33
1769.0000
 70
15
  0
3DFACE
  5
10D7
  8
חשמל
 10
3555.0000
 20
-4877.0000
 30
1689.0000
 11
3555.0000
 21
-4797.0000
 31
1689.0000
 12
3555.0000
 22
-4797.0000
 32
1769.0000
 13
3555.0000
 23
-4877.0000
 33
1769.0000
 70
15
  0
3DFACE
  5
10D8
  8
חשמל
 10
3555.0000
 20
-4797.0000
 30
1689.0000
 11
3540.0000
 21
-4797.0000
 31
1689.0000
 12
3540.0000
 22
-4797.0000
 32
1769.0000
 13
3555.0000
 23
-4797.0000
 33
1769.0000
 70
15
  0
3DFACE
  5
10D9
  8
חשמל
 10
3540.0000
 20
-4797.0000
 30
1689.0000
 11
3540.0000
 21
-4877.0000
 31
1689.0000
 12
3540.0000
 22
-4877.0000
 32
1769.0000
 13
3540.0000
 23
-4797.0000
 33
1769.0000
 70
15
  0
3DFACE
  5
10DA
  8
חשמל
 10
3540.0000
 20
-4877.0000
 30
1689.0000
 11
3555.0000
 21
-4877.0000
 31
1689.0000
 12
3555.0000
 22
-4877.0000
 32
1769.0000
 13
3540.0000
 23
-4877.0000
 33
1769.0000
 70
15
  0
INSERT
  5
10DB
  8
חשמל
  2
SOCKET
 10
3490.0000
 20
-4373.0000
 30
1528.0000
 41
1.0000
 42
1.0000
 43
1.0000
 50
90.0000
  0
3DFACE
  5
10DC
  8
חשמל
 10
3555.0000
 20
-4413.0000
 30
1528.0000
 11
3555.0000
 21
-4333.0000
 31
1528.0000
 12
3540.0000
 22
-4333.0000
 32
1528.0000
 13
3540.0000
 23
-4413.0000
 33
1528.0000
 70
15
  0
3DFACE
  5
10DD
  8
חשמל
 10
3555.0000
 20
-4413.0000
 30
1608.0000
 11
3555.0000
 21
-4333.0000
 31
1608.0000
 12
3540.0000
 22
-4333.0000
 32
1608.0000
 13
3540.0000
 23
-4413.0000
 33
1608.0000
 70
15
  0
3DFACE
  5
10DE
  8
חשמל
 10
3555.0000
 20
-4413.0000
 30
1528.0000
 11
3555.0000
 21
-4333.0000
 31
1528.0000
 12
3555.0000
 22
-4333.0000
 32
1608.0000
 13
3555.0000
 23
-4413.0000
 33
1608.0000
 70
15
  0
3DFACE
  5
10DF
  8
חשמל
 10
3555.0000
 20
-4333.0000
 30
1528.0000
 11
3540.0000
 21
-4333.0000
 31
1528.0000
 12
3540.0000
 22
-4333.0000
 32
1608.0000
 13
3555.0000
 23
-4333.0000
 33
1608.0000
 70
15
  0
3DFACE
  5
10E0
  8
חשמל
 10
3540.0000
 20
-4333.0000
 30
1528.0000
 11
3540.0000
 21
-4413.0000
 31
1528.0000
 12
3540.0000
 22
-4413.0000
 32
1608.0000
 13
3540.0000
 23
-4333.0000
 33
1608.0000
 70
15
  0
3DFACE
  5
10E1
  8
חשמל
 10
3540.0000
 20
-4413.0000
 30
1528.0000
 11
3555.0000
 21
-4413.0000
 31
1528.0000
 12
3555.0000
 22
-4413.0000
 32
1608.0000
 13
3540.0000
 23
-4413.0000
 33
1608.0000
 70
15
  0
INSERT
  5
10E2
  8
חשמל
  2
SOCKET
 10
3490.0000
 20
-4228.0000
 30
1529.0000
 41
1.0000
 42
1.0000
 43
1.0000
 50
90.0000
  0
3DFACE
  5
10E3
  8
חשמל
 10
3555.0000
 20
-4268.0000
 30
1529.0000
 11
3555.0000
 21
-4188.0000
 31
1529.0000
 12
3540.0000
 22
-4188.0000
 32
1529.0000
 13
3540.0000
 23
-4268.0000
 33
1529.0000
 70
15
  0
3DFACE
  5
10E4
  8
חשמל
 10
3555.0000
 20
-4268.0000
 30
1609.0000
 11
3555.0000
 21
-4188.0000
 31
1609.0000
 12
3540.0000
 22
-4188.0000
 32
1609.0000
 13
3540.0000
 23
-4268.0000
 33
1609.0000
 70
15
  0
3DFACE
  5
10E5
  8
חשמל
 10
3555.0000
 20
-4268.0000
 30
1529.0000
 11
3555.0000
 21
-4188.0000
 31
1529.0000
 12
3555.0000
 22
-4188.0000
 32
1609.0000
 13
3555.0000
 23
-4268.0000
 33
1609.0000
 70
15
  0
3DFACE
  5
10E6
  8
חשמל
 10
3555.0000
 20
-4188.0000
 30
1529.0000
 11
3540.0000
 21
-4188.0000
 31
1529.0000
 12
3540.0000
 22
-4188.0000
 32
1609.0000
 13
3555.0000
 23
-4188.0000
 33
1609.0000
 70
15
  0
3DFACE
  5
10E7
  8
חשמל
 10
3540.0000
 20
-4188.0000
 30
1529.0000
 11
3540.0000
 21
-4268.0000
 31
1529.0000
 12
3540.0000
 22
-4268.0000
 32
1609.0000
 13
3540.0000
 23
-4188.0000
 33
1609.0000
 70
15
  0
3DFACE
  5
10E8
  8
חשמל
 10
3540.0000
 20
-4268.0000
 30
1529.0000
 11
3555.0000
 21
-4268.0000
 31
1529.0000
 12
3555.0000
 22
-4268.0000
 32
1609.0000
 13
3540.0000
 23
-4268.0000
 33
1609.0000
 70
15
  0
INSERT
  5
10E9
  8
חשמל
  2
SOCKET
 10
3490.0000
 20
-4075.0000
 30
1527.0000
 41
1.0000
 42
1.0000
 43
1.0000
 50
90.0000
  0
3DFACE
  5
10EA
  8
חשמל
 10
3555.0000
 20
-4115.0000
 30
1527.0000
 11
3555.0000
 21
-4035.0000
 31
1527.0000
 12
3540.0000
 22
-4035.0000
 32
1527.0000
 13
3540.0000
 23
-4115.0000
 33
1527.0000
 70
15
  0
3DFACE
  5
10EB
  8
חשמל
 10
3555.0000
 20
-4115.0000
 30
1607.0000
 11
3555.0000
 21
-4035.0000
 31
1607.0000
 12
3540.0000
 22
-4035.0000
 32
1607.0000
 13
3540.0000
 23
-4115.0000
 33
1607.0000
 70
15
  0
3DFACE
  5
10EC
  8
חשמל
 10
3555.0000
 20
-4115.0000
 30
1527.0000
 11
3555.0000
 21
-4035.0000
 31
1527.0000
 12
3555.0000
 22
-4035.0000
 32
1607.0000
 13
3555.0000
 23
-4115.0000
 33
1607.0000
 70
15
  0
3DFACE
  5
10ED
  8
חשמל
 10
3555.0000
 20
-4035.0000
 30
1527.0000
 11
3540.0000
 21
-4035.0000
 31
1527.0000
 12
3540.0000
 22
-4035.0000
 32
1607.0000
 13
3555.0000
 23
-4035.0000
 33
1607.0000
 70
15
  0
3DFACE
  5
10EE
  8
חשמל
 10
3540.0000
 20
-4035.0000
 30
1527.0000
 11
3540.0000
 21
-4115.0000
 31
1527.0000
 12
3540.0000
 22
-4115.0000
 32
1607.0000
 13
3540.0000
 23
-4035.0000
 33
1607.0000
 70
15
  0
3DFACE
  5
10EF
  8
חשמל
 10
3540.0000
 20
-4115.0000
 30
1527.0000
 11
3555.0000
 21
-4115.0000
 31
1527.0000
 12
3555.0000
 22
-4115.0000
 32
1607.0000
 13
3540.0000
 23
-4115.0000
 33
1607.0000
 70
15
  0
INSERT
  5
10F0
  8
חשמל
  2
DUPLEXSWITCH
 10
3490.0000
 20
-3675.0000
 30
1108.0000
 41
1.0000
 42
1.0000
 43
1.0000
 50
90.0000
  0
3DFACE
  5
10F1
  8
חשמל
 10
3555.0000
 20
-3755.0000
 30
1108.0000
 11
3555.0000
 21
-3595.0000
 31
1108.0000
 12
3540.0000
 22
-3595.0000
 32
1108.0000
 13
3540.0000
 23
-3755.0000
 33
1108.0000
 70
15
  0
3DFACE
  5
10F2
  8
חשמל
 10
3555.0000
 20
-3755.0000
 30
1188.0000
 11
3555.0000
 21
-3595.0000
 31
1188.0000
 12
3540.0000
 22
-3595.0000
 32
1188.0000
 13
3540.0000
 23
-3755.0000
 33
1188.0000
 70
15
  0
3DFACE
  5
10F3
  8
חשמל
 10
3555.0000
 20
-3755.0000
 30
1108.0000
 11
3555.0000
 21
-3595.0000
 31
1108.0000
 12
3555.0000
 22
-3595.0000
 32
1188.0000
 13
3555.0000
 23
-3755.0000
 33
1188.0000
 70
15
  0
3DFACE
  5
10F4
  8
חשמל
 10
3555.0000
 20
-3595.0000
 30
1108.0000
 11
3540.0000
 21
-3595.0000
 31
1108.0000
 12
3540.0000
 22
-3595.0000
 32
1188.0000
 13
3555.0000
 23
-3595.0000
 33
1188.0000
 70
15
  0
3DFACE
  5
10F5
  8
חשמל
 10
3540.0000
 20
-3595.0000
 30
1108.0000
 11
3540.0000
 21
-3755.0000
 31
1108.0000
 12
3540.0000
 22
-3755.0000
 32
1188.0000
 13
3540.0000
 23
-3595.0000
 33
1188.0000
 70
15
  0
3DFACE
  5
10F6
  8
חשמל
 10
3540.0000
 20
-3755.0000
 30
1108.0000
 11
3555.0000
 21
-3755.0000
 31
1108.0000
 12
3555.0000
 22
-3755.0000
 32
1188.0000
 13
3540.0000
 23
-3755.0000
 33
1188.0000
 70
15
  0
INSERT
  5
10F7
  8
חשמל
  2
SOCKET
 10
3490.0000
 20
-3177.0000
 30
1115.0000
 41
1.0000
 42
1.0000
 43
1.0000
 50
90.0000
  0
3DFACE
  5
10F8
  8
חשמל
 10
3555.0000
 20
-3217.0000
 30
1115.0000
 11
3555.0000
 21
-3137.0000
 31
1115.0000
 12
3540.0000
 22
-3137.0000
 32
1115.0000
 13
3540.0000
 23
-3217.0000
 33
1115.0000
 70
15
  0
3DFACE
  5
10F9
  8
חשמל
 10
3555.0000
 20
-3217.0000
 30
1195.0000
 11
3555.0000
 21
-3137.0000
 31
1195.0000
 12
3540.0000
 22
-3137.0000
 32
1195.0000
 13
3540.0000
 23
-3217.0000
 33
1195.0000
 70
15
  0
3DFACE
  5
10FA
  8
חשמל
 10
3555.0000
 20
-3217.0000
 30
1115.0000
 11
3555.0000
 21
-3137.0000
 31
1115.0000
 12
3555.0000
 22
-3137.0000
 32
1195.0000
 13
3555.0000
 23
-3217.0000
 33
1195.0000
 70
15
  0
3DFACE
  5
10FB
  8
חשמל
 10
3555.0000
 20
-3137.0000
 30
1115.0000
 11
3540.0000
 21
-3137.0000
 31
1115.0000
 12
3540.0000
 22
-3137.0000
 32
1195.0000
 13
3555.0000
 23
-3137.0000
 33
1195.0000
 70
15
  0
3DFACE
  5
10FC
  8
חשמל
 10
3540.0000
 20
-3137.0000
 30
1115.0000
 11
3540.0000
 21
-3217.0000
 31
1115.0000
 12
3540.0000
 22
-3217.0000
 32
1195.0000
 13
3540.0000
 23
-3137.0000
 33
1195.0000
 70
15
  0
3DFACE
  5
10FD
  8
חשמל
 10
3540.0000
 20
-3217.0000
 30
1115.0000
 11
3555.0000
 21
-3217.0000
 31
1115.0000
 12
3555.0000
 22
-3217.0000
 32
1195.0000
 13
3540.0000
 23
-3217.0000
 33
1195.0000
 70
15
  0
INSERT
  5
10FE
  8
חשמל
  2
CONTROLBOX
 10
3490.0000
 20
-3474.0000
 30
2410.0000
 41
1.0000
 42
1.0000
 43
1.0000
 50
90.0000
  0
3DFACE
  5
10FF
  8
חשמל
 10
3555.0000
 20
-3514.0000
 30
2410.0000
 11
3555.0000
 21
-3434.0000
 31
2410.0000
 12
3540.0000
 22
-3434.0000
 32
2410.0000
 13
3540.0000
 23
-3514.0000
 33
2410.0000
 70
15
  0
3DFACE
  5
1100
  8
חשמל
 10
3555.0000
 20
-3514.0000
 30
2490.0000
 11
3555.0000
 21
-3434.0000
 31
2490.0000
 12
3540.0000
 22
-3434.0000
 32
2490.0000
 13
3540.0000
 23
-3514.0000
 33
2490.0000
 70
15
  0
3DFACE
  5
1101
  8
חשמל
 10
3555.0000
 20
-3514.0000
 30
2410.0000
 11
3555.0000
 21
-3434.0000
 31
2410.0000
 12
3555.0000
 22
-3434.0000
 32
2490.0000
 13
3555.0000
 23
-3514.0000
 33
2490.0000
 70
15
  0
3DFACE
  5
1102
  8
חשמל
 10
3555.0000
 20
-3434.0000
 30
2410.0000
 11
3540.0000
 21
-3434.0000
 31
2410.0000
 12
3540.0000
 22
-3434.0000
 32
2490.0000
 13
3555.0000
 23
-3434.0000
 33
2490.0000
 70
15
  0
3DFACE
  5
1103
  8
חשמל
 10
3540.0000
 20
-3434.0000
 30
2410.0000
 11
3540.0000
 21
-3514.0000
 31
2410.0000
 12
3540.0000
 22
-3514.0000
 32
2490.0000
 13
3540.0000
 23
-3434.0000
 33
2490.0000
 70
15
  0
3DFACE
  5
1104
  8
חשמל
 10
3540.0000
 20
-3514.0000
 30
2410.0000
 11
3555.0000
 21
-3514.0000
 31
2410.0000
 12
3555.0000
 22
-3514.0000
 32
2490.0000
 13
3540.0000
 23
-3514.0000
 33
2490.0000
 70
15
  0
INSERT
  5
1105
  8
חשמל
  2
SOCKET
 10
3490.0000
 20
-2767.0000
 30
2011.0000
 41
1.0000
 42
1.0000
 43
1.0000
 50
90.0000
  0
3DFACE
  5
1106
  8
חשמל
 10
3555.0000
 20
-2807.0000
 30
2011.0000
 11
3555.0000
 21
-2727.0000
 31
2011.0000
 12
3540.0000
 22
-2727.0000
 32
2011.0000
 13
3540.0000
 23
-2807.0000
 33
2011.0000
 70
15
  0
3DFACE
  5
1107
  8
חשמל
 10
3555.0000
 20
-2807.0000
 30
2091.0000
 11
3555.0000
 21
-2727.0000
 31
2091.0000
 12
3540.0000
 22
-2727.0000
 32
2091.0000
 13
3540.0000
 23
-2807.0000
 33
2091.0000
 70
15
  0
3DFACE
  5
1108
  8
חשמל
 10
3555.0000
 20
-2807.0000
 30
2011.0000
 11
3555.0000
 21
-2727.0000
 31
2011.0000
 12
3555.0000
 22
-2727.0000
 32
2091.0000
 13
3555.0000
 23
-2807.0000
 33
2091.0000
 70
15
  0
3DFACE
  5
1109
  8
חשמל
 10
3555.0000
 20
-2727.0000
 30
2011.0000
 11
3540.0000
 21
-2727.0000
 31
2011.0000
 12
3540.0000
 22
-2727.0000
 32
2091.0000
 13
3555.0000
 23
-2727.0000
 33
2091.0000
 70
15
  0
3DFACE
  5
110A
  8
חשמל
 10
3540.0000
 20
-2727.0000
 30
2011.0000
 11
3540.0000
 21
-2807.0000
 31
2011.0000
 12
3540.0000
 22
-2807.0000
 32
2091.0000
 13
3540.0000
 23
-2727.0000
 33
2091.0000
 70
15
  0
3DFACE
  5
110B
  8
חשמל
 10
3540.0000
 20
-2807.0000
 30
2011.0000
 11
3555.0000
 21
-2807.0000
 31
2011.0000
 12
3555.0000
 22
-2807.0000
 32
2091.0000
 13
3540.0000
 23
-2807.0000
 33
2091.0000
 70
15
  0
INSERT
  5
110C
  8
חשמל
  2
DUPLEXSWITCH
 10
3490.0000
 20
-2650.0000
 30
1114.0000
 41
1.0000
 42
1.0000
 43
1.0000
 50
90.0000
  0
3DFACE
  5
110D
  8
חשמל
 10
3555.0000
 20
-2730.0000
 30
1114.0000
 11
3555.0000
 21
-2570.0000
 31
1114.0000
 12
3540.0000
 22
-2570.0000
 32
1114.0000
 13
3540.0000
 23
-2730.0000
 33
1114.0000
 70
15
  0
3DFACE
  5
110E
  8
חשמל
 10
3555.0000
 20
-2730.0000
 30
1194.0000
 11
3555.0000
 21
-2570.0000
 31
1194.0000
 12
3540.0000
 22
-2570.0000
 32
1194.0000
 13
3540.0000
 23
-2730.0000
 33
1194.0000
 70
15
  0
3DFACE
  5
110F
  8
חשמל
 10
3555.0000
 20
-2730.0000
 30
1114.0000
 11
3555.0000
 21
-2570.0000
 31
1114.0000
 12
3555.0000
 22
-2570.0000
 32
1194.0000
 13
3555.0000
 23
-2730.0000
 33
1194.0000
 70
15
  0
3DFACE
  5
1110
  8
חשמל
 10
3555.0000
 20
-2570.0000
 30
1114.0000
 11
3540.0000
 21
-2570.0000
 31
1114.0000
 12
3540.0000
 22
-2570.0000
 32
1194.0000
 13
3555.0000
 23
-2570.0000
 33
1194.0000
 70
15
  0
3DFACE
  5
1111
  8
חשמל
 10
3540.0000
 20
-2570.0000
 30
1114.0000
 11
3540.0000
 21
-2730.0000
 31
1114.0000
 12
3540.0000
 22
-2730.0000
 32
1194.0000
 13
3540.0000
 23
-2570.0000
 33
1194.0000
 70
15
  0
3DFACE
  5
1112
  8
חשמל
 10
3540.0000
 20
-2730.0000
 30
1114.0000
 11
3555.0000
 21
-2730.0000
 31
1114.0000
 12
3555.0000
 22
-2730.0000
 32
1194.0000
 13
3540.0000
 23
-2730.0000
 33
1194.0000
 70
15
  0
INSERT
  5
1113
  8
חשמל
  2
SOCKET
 10
3970.0000
 20
-2544.0000
 30
1114.0000
 41
1.0000
 42
1.0000
 43
1.0000
 50
0.0000
  0
3DFACE
  5
1114
  8
חשמל
 10
3930.0000
 20
-2609.0000
 30
1114.0000
 11
4010.0000
 21
-2609.0000
 31
1114.0000
 12
4010.0000
 22
-2594.0000
 32
1114.0000
 13
3930.0000
 23
-2594.0000
 33
1114.0000
 70
15
  0
3DFACE
  5
1115
  8
חשמל
 10
3930.0000
 20
-2609.0000
 30
1194.0000
 11
4010.0000
 21
-2609.0000
 31
1194.0000
 12
4010.0000
 22
-2594.0000
 32
1194.0000
 13
3930.0000
 23
-2594.0000
 33
1194.0000
 70
15
  0
3DFACE
  5
1116
  8
חשמל
 10
3930.0000
 20
-2609.0000
 30
1114.0000
 11
4010.0000
 21
-2609.0000
 31
1114.0000
 12
4010.0000
 22
-2609.0000
 32
1194.0000
 13
3930.0000
 23
-2609.0000
 33
1194.0000
 70
15
  0
3DFACE
  5
1117
  8
חשמל
 10
4010.0000
 20
-2609.0000
 30
1114.0000
 11
4010.0000
 21
-2594.0000
 31
1114.0000
 12
4010.0000
 22
-2594.0000
 32
1194.0000
 13
4010.0000
 23
-2609.0000
 33
1194.0000
 70
15
  0
3DFACE
  5
1118
  8
חשמל
 10
4010.0000
 20
-2594.0000
 30
1114.0000
 11
3930.0000
 21
-2594.0000
 31
1114.0000
 12
3930.0000
 22
-2594.0000
 32
1194.0000
 13
4010.0000
 23
-2594.0000
 33
1194.0000
 70
15
  0
3DFACE
  5
1119
  8
חשמל
 10
3930.0000
 20
-2594.0000
 30
1114.0000
 11
3930.0000
 21
-2609.0000
 31
1114.0000
 12
3930.0000
 22
-2609.0000
 32
1194.0000
 13
3930.0000
 23
-2594.0000
 33
1194.0000
 70
15
  0
INSERT
  5
111A
  8
חשמל
  2
CONTROLBOX
 10
5828.0000
 20
-2544.0000
 30
0.0000
 41
1.0000
 42
1.0000
 43
1.0000
 50
0.0000
  0
3DFACE
  5
111B
  8
מבנה
 10
5788.0000
 20
-2694.0000
 30
0.0000
 11
5868.0000
 21
-2694.0000
 31
0.0000
 12
5868.0000
 22
-2594.0000
 32
0.0000
 13
5788.0000
 23
-2594.0000
 33
0.0000
 70
15
  0
3DFACE
  5
111C
  8
מבנה
 10
5788.0000
 20
-2694.0000
 30
50.0000
 11
5868.0000
 21
-2694.0000
 31
50.0000
 12
5868.0000
 22
-2594.0000
 32
50.0000
 13
5788.0000
 23
-2594.0000
 33
50.0000
 70
15
  0
3DFACE
  5
111D
  8
מבנה
 10
5788.0000
 20
-2694.0000
 30
0.0000
 11
5868.0000
 21
-2694.0000
 31
0.0000
 12
5868.0000
 22
-2694.0000
 32
50.0000
 13
5788.0000
 23
-2694.0000
 33
50.0000
 70
15
  0
3DFACE
  5
111E
  8
מבנה
 10
5868.0000
 20
-2694.0000
 30
0.0000
 11
5868.0000
 21
-2594.0000
 31
0.0000
 12
5868.0000
 22
-2594.0000
 32
50.0000
 13
5868.0000
 23
-2694.0000
 33
50.0000
 70
15
  0
3DFACE
  5
111F
  8
מבנה
 10
5868.0000
 20
-2594.0000
 30
0.0000
 11
5788.0000
 21
-2594.0000
 31
0.0000
 12
5788.0000
 22
-2594.0000
 32
50.0000
 13
5868.0000
 23
-2594.0000
 33
50.0000
 70
15
  0
3DFACE
  5
1120
  8
מבנה
 10
5788.0000
 20
-2594.0000
 30
0.0000
 11
5788.0000
 21
-2694.0000
 31
0.0000
 12
5788.0000
 22
-2694.0000
 32
50.0000
 13
5788.0000
 23
-2594.0000
 33
50.0000
 70
15
  0
INSERT
  5
1121
  8
חשמל
  2
SOCKET
 10
5352.0000
 20
-2544.0000
 30
483.0000
 41
1.0000
 42
1.0000
 43
1.0000
 50
0.0000
  0
3DFACE
  5
1122
  8
חשמל
 10
5312.0000
 20
-2609.0000
 30
483.0000
 11
5392.0000
 21
-2609.0000
 31
483.0000
 12
5392.0000
 22
-2594.0000
 32
483.0000
 13
5312.0000
 23
-2594.0000
 33
483.0000
 70
15
  0
3DFACE
  5
1123
  8
חשמל
 10
5312.0000
 20
-2609.0000
 30
563.0000
 11
5392.0000
 21
-2609.0000
 31
563.0000
 12
5392.0000
 22
-2594.0000
 32
563.0000
 13
5312.0000
 23
-2594.0000
 33
563.0000
 70
15
  0
3DFACE
  5
1124
  8
חשמל
 10
5312.0000
 20
-2609.0000
 30
483.0000
 11
5392.0000
 21
-2609.0000
 31
483.0000
 12
5392.0000
 22
-2609.0000
 32
563.0000
 13
5312.0000
 23
-2609.0000
 33
563.0000
 70
15
  0
3DFACE
  5
1125
  8
חשמל
 10
5392.0000
 20
-2609.0000
 30
483.0000
 11
5392.0000
 21
-2594.0000
 31
483.0000
 12
5392.0000
 22
-2594.0000
 32
563.0000
 13
5392.0000
 23
-2609.0000
 33
563.0000
 70
15
  0
3DFACE
  5
1126
  8
חשמל
 10
5392.0000
 20
-2594.0000
 30
483.0000
 11
5312.0000
 21
-2594.0000
 31
483.0000
 12
5312.0000
 22
-2594.0000
 32
563.0000
 13
5392.0000
 23
-2594.0000
 33
563.0000
 70
15
  0
3DFACE
  5
1127
  8
חשמל
 10
5312.0000
 20
-2594.0000
 30
483.0000
 11
5312.0000
 21
-2609.0000
 31
483.0000
 12
5312.0000
 22
-2609.0000
 32
563.0000
 13
5312.0000
 23
-2594.0000
 33
563.0000
 70
15
  0
INSERT
  5
1128
  8
מים
  2
FAUCET
 10
5485.0000
 20
-2544.0000
 30
532.0000
 41
1.0000
 42
1.0000
 43
1.0000
 50
0.0000
  0
3DFACE
  5
1129
  8
מים
 10
5475.0000
 20
-2614.0000
 30
532.0000
 11
5495.0000
 21
-2614.0000
 31
532.0000
 12
5495.0000
 22
-2594.0000
 32
532.0000
 13
5475.0000
 23
-2594.0000
 33
532.0000
 70
15
  0
3DFACE
  5
112A
  8
מים
 10
5475.0000
 20
-2614.0000
 30
552.0000
 11
5495.0000
 21
-2614.0000
 31
552.0000
 12
5495.0000
 22
-2594.0000
 32
552.0000
 13
5475.0000
 23
-2594.0000
 33
552.0000
 70
15
  0
3DFACE
  5
112B
  8
מים
 10
5475.0000
 20
-2614.0000
 30
532.0000
 11
5495.0000
 21
-2614.0000
 31
532.0000
 12
5495.0000
 22
-2614.0000
 32
552.0000
 13
5475.0000
 23
-2614.0000
 33
552.0000
 70
15
  0
3DFACE
  5
112C
  8
מים
 10
5495.0000
 20
-2614.0000
 30
532.0000
 11
5495.0000
 21
-2594.0000
 31
532.0000
 12
5495.0000
 22
-2594.0000
 32
552.0000
 13
5495.0000
 23
-2614.0000
 33
552.0000
 70
15
  0
3DFACE
  5
112D
  8
מים
 10
5495.0000
 20
-2594.0000
 30
532.0000
 11
5475.0000
 21
-2594.0000
 31
532.0000
 12
5475.0000
 22
-2594.0000
 32
552.0000
 13
5495.0000
 23
-2594.0000
 33
552.0000
 70
15
  0
3DFACE
  5
112E
  8
מים
 10
5475.0000
 20
-2594.0000
 30
532.0000
 11
5475.0000
 21
-2614.0000
 31
532.0000
 12
5475.0000
 22
-2614.0000
 32
552.0000
 13
5475.0000
 23
-2594.0000
 33
552.0000
 70
15
  0
INSERT
  5
112F
  8
מים
  2
FAUCET
 10
5638.0000
 20
-2544.0000
 30
531.0000
 41
1.0000
 42
1.0000
 43
1.0000
 50
0.0000
  0
3DFACE
  5
1130
  8
מים
 10
5628.0000
 20
-2614.0000
 30
531.0000
 11
5648.0000
 21
-2614.0000
 31
531.0000
 12
5648.0000
 22
-2594.0000
 32
531.0000
 13
5628.0000
 23
-2594.0000
 33
531.0000
 70
15
  0
3DFACE
  5
1131
  8
מים
 10
5628.0000
 20
-2614.0000
 30
551.0000
 11
5648.0000
 21
-2614.0000
 31
551.0000
 12
5648.0000
 22
-2594.0000
 32
551.0000
 13
5628.0000
 23
-2594.0000
 33
551.0000
 70
15
  0
3DFACE
  5
1132
  8
מים
 10
5628.0000
 20
-2614.0000
 30
531.0000
 11
5648.0000
 21
-2614.0000
 31
531.0000
 12
5648.0000
 22
-2614.0000
 32
551.0000
 13
5628.0000
 23
-2614.0000
 33
551.0000
 70
15
  0
3DFACE
  5
1133
  8
מים
 10
5648.0000
 20
-2614.0000
 30
531.0000
 11
5648.0000
 21
-2594.0000
 31
531.0000
 12
5648.0000
 22
-2594.0000
 32
551.0000
 13
5648.0000
 23
-2614.0000
 33
551.0000
 70
15
  0
3DFACE
  5
1134
  8
מים
 10
5648.0000
 20
-2594.0000
 30
531.0000
 11
5628.0000
 21
-2594.0000
 31
531.0000
 12
5628.0000
 22
-2594.0000
 32
551.0000
 13
5648.0000
 23
-2594.0000
 33
551.0000
 70
15
  0
3DFACE
  5
1135
  8
מים
 10
5628.0000
 20
-2594.0000
 30
531.0000
 11
5628.0000
 21
-2614.0000
 31
531.0000
 12
5628.0000
 22
-2614.0000
 32
551.0000
 13
5628.0000
 23
-2594.0000
 33
551.0000
 70
15
  0
INSERT
  5
1136
  8
חשמל
  2
SOCKET
 10
5842.0000
 20
-2544.0000
 30
473.0000
 41
1.0000
 42
1.0000
 43
1.0000
 50
0.0000
  0
3DFACE
  5
1137
  8
חשמל
 10
5802.0000
 20
-2609.0000
 30
473.0000
 11
5882.0000
 21
-2609.0000
 31
473.0000
 12
5882.0000
 22
-2594.0000
 32
473.0000
 13
5802.0000
 23
-2594.0000
 33
473.0000
 70
15
  0
3DFACE
  5
1138
  8
חשמל
 10
5802.0000
 20
-2609.0000
 30
553.0000
 11
5882.0000
 21
-2609.0000
 31
553.0000
 12
5882.0000
 22
-2594.0000
 32
553.0000
 13
5802.0000
 23
-2594.0000
 33
553.0000
 70
15
  0
3DFACE
  5
1139
  8
חשמל
 10
5802.0000
 20
-2609.0000
 30
473.0000
 11
5882.0000
 21
-2609.0000
 31
473.0000
 12
5882.0000
 22
-2609.0000
 32
553.0000
 13
5802.0000
 23
-2609.0000
 33
553.0000
 70
15
  0
3DFACE
  5
113A
  8
חשמל
 10
5882.0000
 20
-2609.0000
 30
473.0000
 11
5882.0000
 21
-2594.0000
 31
473.0000
 12
5882.0000
 22
-2594.0000
 32
553.0000
 13
5882.0000
 23
-2609.0000
 33
553.0000
 70
15
  0
3DFACE
  5
113B
  8
חשמל
 10
5882.0000
 20
-2594.0000
 30
473.0000
 11
5802.0000
 21
-2594.0000
 31
473.0000
 12
5802.0000
 22
-2594.0000
 32
553.0000
 13
5882.0000
 23
-2594.0000
 33
553.0000
 70
15
  0
3DFACE
  5
113C
  8
חשמל
 10
5802.0000
 20
-2594.0000
 30
473.0000
 11
5802.0000
 21
-2609.0000
 31
473.0000
 12
5802.0000
 22
-2609.0000
 32
553.0000
 13
5802.0000
 23
-2594.0000
 33
553.0000
 70
15
  0
INSERT
  5
113D
  8
מים
  2
SEWAGE
 10
5641.0000
 20
-2544.0000
 30
-27.0000
 41
1.0000
 42
1.0000
 43
1.0000
 50
0.0000
  0
3DFACE
  5
113E
  8
ניקוז
 10
5616.0000
 20
-2644.0000
 30
-27.0000
 11
5666.0000
 21
-2644.0000
 31
-27.0000
 12
5666.0000
 22
-2594.0000
 32
-27.0000
 13
5616.0000
 23
-2594.0000
 33
-27.0000
 70
15
  0
3DFACE
  5
113F
  8
ניקוז
 10
5616.0000
 20
-2644.0000
 30
23.0000
 11
5666.0000
 21
-2644.0000
 31
23.0000
 12
5666.0000
 22
-2594.0000
 32
23.0000
 13
5616.0000
 23
-2594.0000
 33
23.0000
 70
15
  0
3DFACE
  5
1140
  8
ניקוז
 10
5616.0000
 20
-2644.0000
 30
-27.0000
 11
5666.0000
 21
-2644.0000
 31
-27.0000
 12
5666.0000
 22
-2644.0000
 32
23.0000
 13
5616.0000
 23
-2644.0000
 33
23.0000
 70
15
  0
3DFACE
  5
1141
  8
ניקוז
 10
5666.0000
 20
-2644.0000
 30
-27.0000
 11
5666.0000
 21
-2594.0000
 31
-27.0000
 12
5666.0000
 22
-2594.0000
 32
23.0000
 13
5666.0000
 23
-2644.0000
 33
23.0000
 70
15
  0
3DFACE
  5
1142
  8
ניקוז
 10
5666.0000
 20
-2594.0000
 30
-27.0000
 11
5616.0000
 21
-2594.0000
 31
-27.0000
 12
5616.0000
 22
-2594.0000
 32
23.0000
 13
5666.0000
 23
-2594.0000
 33
23.0000
 70
15
  0
3DFACE
  5
1143
  8
ניקוז
 10
5616.0000
 20
-2594.0000
 30
-27.0000
 11
5616.0000
 21
-2644.0000
 31
-27.0000
 12
5616.0000
 22
-2644.0000
 32
23.0000
 13
5616.0000
 23
-2594.0000
 33
23.0000
 70
15
  0
INSERT
  5
1144
  8
חשמל
  2
CONTROLBOX
 10
5913.0000
 20
-2544.0000
 30
2135.0000
 41
1.0000
 42
1.0000
 43
1.0000
 50
0.0000
  0
3DFACE
  5
1145
  8
חשמל
 10
5873.0000
 20
-2609.0000
 30
2135.0000
 11
5953.0000
 21
-2609.0000
 31
2135.0000
 12
5953.0000
 22
-2594.0000
 32
2135.0000
 13
5873.0000
 23
-2594.0000
 33
2135.0000
 70
15
  0
3DFACE
  5
1146
  8
חשמל
 10
5873.0000
 20
-2609.0000
 30
2215.0000
 11
5953.0000
 21
-2609.0000
 31
2215.0000
 12
5953.0000
 22
-2594.0000
 32
2215.0000
 13
5873.0000
 23
-2594.0000
 33
2215.0000
 70
15
  0
3DFACE
  5
1147
  8
חשמל
 10
5873.0000
 20
-2609.0000
 30
2135.0000
 11
5953.0000
 21
-2609.0000
 31
2135.0000
 12
5953.0000
 22
-2609.0000
 32
2215.0000
 13
5873.0000
 23
-2609.0000
 33
2215.0000
 70
15
  0
3DFACE
  5
1148
  8
חשמל
 10
5953.0000
 20
-2609.0000
 30
2135.0000
 11
5953.0000
 21
-2594.0000
 31
2135.0000
 12
5953.0000
 22
-2594.0000
 32
2215.0000
 13
5953.0000
 23
-2609.0000
 33
2215.0000
 70
15
  0
3DFACE
  5
1149
  8
חשמל
 10
5953.0000
 20
-2594.0000
 30
2135.0000
 11
5873.0000
 21
-2594.0000
 31
2135.0000
 12
5873.0000
 22
-2594.0000
 32
2215.0000
 13
5953.0000
 23
-2594.0000
 33
2215.0000
 70
15
  0
3DFACE
  5
114A
  8
חשמל
 10
5873.0000
 20
-2594.0000
 30
2135.0000
 11
5873.0000
 21
-2609.0000
 31
2135.0000
 12
5873.0000
 22
-2609.0000
 32
2215.0000
 13
5873.0000
 23
-2594.0000
 33
2215.0000
 70
15
  0
INSERT
  5
114B
  8
חשמל
  2
SOCKET
 10
6516.0000
 20
-2544.0000
 30
1125.0000
 41
1.0000
 42
1.0000
 43
1.0000
 50
0.0000
  0
3DFACE
  5
114C
  8
חשמל
 10
6423.0000
 20
-2664.0000
 30
1125.0000
 11
6609.0000
 21
-2664.0000
 31
1125.0000
 12
6609.0000
 22
-2594.0000
 32
1125.0000
 13
6423.0000
 23
-2594.0000
 33
1125.0000
 70
15
  0
3DFACE
  5
114D
  8
חשמל
 10
6423.0000
 20
-2664.0000
 30
1200.0000
 11
6609.0000
 21
-2664.0000
 31
1200.0000
 12
6609.0000
 22
-2594.0000
 32
1200.0000
 13
6423.0000
 23
-2594.0000
 33
1200.0000
 70
15
  0
3DFACE
  5
114E
  8
חשמל
 10
6423.0000
 20
-2664.0000
 30
1125.0000
 11
6609.0000
 21
-2664.0000
 31
1125.0000
 12
6609.0000
 22
-2664.0000
 32
1200.0000
 13
6423.0000
 23
-2664.0000
 33
1200.0000
 70
15
  0
3DFACE
  5
114F
  8
חשמל
 10
6609.0000
 20
-2664.0000
 30
1125.0000
 11
6609.0000
 21
-2594.0000
 31
1125.0000
 12
6609.0000
 22
-2594.0000
 32
1200.0000
 13
6609.0000
 23
-2664.0000
 33
1200.0000
 70
15
  0
3DFACE
  5
1150
  8
חשמל
 10
6609.0000
 20
-2594.0000
 30
1125.0000
 11
6423.0000
 21
-2594.0000
 31
1125.0000
 12
6423.0000
 22
-2594.0000
 32
1200.0000
 13
6609.0000
 23
-2594.0000
 33
1200.0000
 70
15
  0
3DFACE
  5
1151
  8
חשמל
 10
6423.0000
 20
-2594.0000
 30
1125.0000
 11
6423.0000
 21
-2664.0000
 31
1125.0000
 12
6423.0000
 22
-2664.0000
 32
1200.0000
 13
6423.0000
 23
-2594.0000
 33
1200.0000
 70
15
  0
INSERT
  5
1152
  8
חשמל
  2
SOCKET
 10
8320.0000
 20
-2544.0000
 30
1205.0000
 41
1.0000
 42
1.0000
 43
1.0000
 50
0.0000
  0
3DFACE
  5
1153
  8
חשמל
 10
8280.0000
 20
-2609.0000
 30
1205.0000
 11
8360.0000
 21
-2609.0000
 31
1205.0000
 12
8360.0000
 22
-2594.0000
 32
1205.0000
 13
8280.0000
 23
-2594.0000
 33
1205.0000
 70
15
  0
3DFACE
  5
1154
  8
חשמל
 10
8280.0000
 20
-2609.0000
 30
1285.0000
 11
8360.0000
 21
-2609.0000
 31
1285.0000
 12
8360.0000
 22
-2594.0000
 32
1285.0000
 13
8280.0000
 23
-2594.0000
 33
1285.0000
 70
15
  0
3DFACE
  5
1155
  8
חשמל
 10
8280.0000
 20
-2609.0000
 30
1205.0000
 11
8360.0000
 21
-2609.0000
 31
1205.0000
 12
8360.0000
 22
-2609.0000
 32
1285.0000
 13
8280.0000
 23
-2609.0000
 33
1285.0000
 70
15
  0
3DFACE
  5
1156
  8
חשמל
 10
8360.0000
 20
-2609.0000
 30
1205.0000
 11
8360.0000
 21
-2594.0000
 31
1205.0000
 12
8360.0000
 22
-2594.0000
 32
1285.0000
 13
8360.0000
 23
-2609.0000
 33
1285.0000
 70
15
  0
3DFACE
  5
1157
  8
חשמל
 10
8360.0000
 20
-2594.0000
 30
1205.0000
 11
8280.0000
 21
-2594.0000
 31
1205.0000
 12
8280.0000
 22
-2594.0000
 32
1285.0000
 13
8360.0000
 23
-2594.0000
 33
1285.0000
 70
15
  0
3DFACE
  5
1158
  8
חשמל
 10
8280.0000
 20
-2594.0000
 30
1205.0000
 11
8280.0000
 21
-2609.0000
 31
1205.0000
 12
8280.0000
 22
-2609.0000
 32
1285.0000
 13
8280.0000
 23
-2594.0000
 33
1285.0000
 70
15
  0
INSERT
  5
1159
  8
חשמל
  2
SOCKET
 10
8218.0000
 20
-2544.0000
 30
494.0000
 41
1.0000
 42
1.0000
 43
1.0000
 50
0.0000
  0
3DFACE
  5
115A
  8
חשמל
 10
8178.0000
 20
-2609.0000
 30
494.0000
 11
8258.0000
 21
-2609.0000
 31
494.0000
 12
8258.0000
 22
-2594.0000
 32
494.0000
 13
8178.0000
 23
-2594.0000
 33
494.0000
 70
15
  0
3DFACE
  5
115B
  8
חשמל
 10
8178.0000
 20
-2609.0000
 30
574.0000
 11
8258.0000
 21
-2609.0000
 31
574.0000
 12
8258.0000
 22
-2594.0000
 32
574.0000
 13
8178.0000
 23
-2594.0000
 33
574.0000
 70
15
  0
3DFACE
  5
115C
  8
חשמל
 10
8178.0000
 20
-2609.0000
 30
494.0000
 11
8258.0000
 21
-2609.0000
 31
494.0000
 12
8258.0000
 22
-2609.0000
 32
574.0000
 13
8178.0000
 23
-2609.0000
 33
574.0000
 70
15
  0
3DFACE
  5
115D
  8
חשמל
 10
8258.0000
 20
-2609.0000
 30
494.0000
 11
8258.0000
 21
-2594.0000
 31
494.0000
 12
8258.0000
 22
-2594.0000
 32
574.0000
 13
8258.0000
 23
-2609.0000
 33
574.0000
 70
15
  0
3DFACE
  5
115E
  8
חשמל
 10
8258.0000
 20
-2594.0000
 30
494.0000
 11
8178.0000
 21
-2594.0000
 31
494.0000
 12
8178.0000
 22
-2594.0000
 32
574.0000
 13
8258.0000
 23
-2594.0000
 33
574.0000
 70
15
  0
3DFACE
  5
115F
  8
חשמל
 10
8178.0000
 20
-2594.0000
 30
494.0000
 11
8178.0000
 21
-2609.0000
 31
494.0000
 12
8178.0000
 22
-2609.0000
 32
574.0000
 13
8178.0000
 23
-2594.0000
 33
574.0000
 70
15
  0
INSERT
  5
1160
  8
חשמל
  2
CONTROLBOX
 10
10719.0000
 20
-2544.0000
 30
2045.0000
 41
1.0000
 42
1.0000
 43
1.0000
 50
0.0000
  0
3DFACE
  5
1161
  8
חשמל
 10
10709.0000
 20
-2694.0000
 30
2045.0000
 11
10729.0000
 21
-2694.0000
 31
2045.0000
 12
10729.0000
 22
-2594.0000
 32
2045.0000
 13
10709.0000
 23
-2594.0000
 33
2045.0000
 70
15
  0
3DFACE
  5
1162
  8
חשמל
 10
10709.0000
 20
-2694.0000
 30
2065.0000
 11
10729.0000
 21
-2694.0000
 31
2065.0000
 12
10729.0000
 22
-2594.0000
 32
2065.0000
 13
10709.0000
 23
-2594.0000
 33
2065.0000
 70
15
  0
3DFACE
  5
1163
  8
חשמל
 10
10709.0000
 20
-2694.0000
 30
2045.0000
 11
10729.0000
 21
-2694.0000
 31
2045.0000
 12
10729.0000
 22
-2694.0000
 32
2065.0000
 13
10709.0000
 23
-2694.0000
 33
2065.0000
 70
15
  0
3DFACE
  5
1164
  8
חשמל
 10
10729.0000
 20
-2694.0000
 30
2045.0000
 11
10729.0000
 21
-2594.0000
 31
2045.0000
 12
10729.0000
 22
-2594.0000
 32
2065.0000
 13
10729.0000
 23
-2694.0000
 33
2065.0000
 70
15
  0
3DFACE
  5
1165
  8
חשמל
 10
10729.0000
 20
-2594.0000
 30
2045.0000
 11
10709.0000
 21
-2594.0000
 31
2045.0000
 12
10709.0000
 22
-2594.0000
 32
2065.0000
 13
10729.0000
 23
-2594.0000
 33
2065.0000
 70
15
  0
3DFACE
  5
1166
  8
חשמל
 10
10709.0000
 20
-2594.0000
 30
2045.0000
 11
10709.0000
 21
-2694.0000
 31
2045.0000
 12
10709.0000
 22
-2694.0000
 32
2065.0000
 13
10709.0000
 23
-2594.0000
 33
2065.0000
 70
15
  0
INSERT
  5
1167
  8
תאורה
  2
LIGHTING
 10
5563.0000
 20
-2544.0000
 30
2755.0000
 41
1.0000
 42
1.0000
 43
1.0000
 50
0.0000
  0
3DFACE
  5
1168
  8
תאורה
 10
5513.0000
 20
-2694.0000
 30
2755.0000
 11
5613.0000
 21
-2694.0000
 31
2755.0000
 12
5613.0000
 22
-2594.0000
 32
2755.0000
 13
5513.0000
 23
-2594.0000
 33
2755.0000
 70
15
  0
3DFACE
  5
1169
  8
תאורה
 10
5513.0000
 20
-2694.0000
 30
2785.0000
 11
5613.0000
 21
-2694.0000
 31
2785.0000
 12
5613.0000
 22
-2594.0000
 32
2785.0000
 13
5513.0000
 23
-2594.0000
 33
2785.0000
 70
15
  0
3DFACE
  5
116A
  8
תאורה
 10
5513.0000
 20
-2694.0000
 30
2755.0000
 11
5613.0000
 21
-2694.0000
 31
2755.0000
 12
5613.0000
 22
-2694.0000
 32
2785.0000
 13
5513.0000
 23
-2694.0000
 33
2785.0000
 70
15
  0
3DFACE
  5
116B
  8
תאורה
 10
5613.0000
 20
-2694.0000
 30
2755.0000
 11
5613.0000
 21
-2594.0000
 31
2755.0000
 12
5613.0000
 22
-2594.0000
 32
2785.0000
 13
5613.0000
 23
-2694.0000
 33
2785.0000
 70
15
  0
3DFACE
  5
116C
  8
תאורה
 10
5613.0000
 20
-2594.0000
 30
2755.0000
 11
5513.0000
 21
-2594.0000
 31
2755.0000
 12
5513.0000
 22
-2594.0000
 32
2785.0000
 13
5613.0000
 23
-2594.0000
 33
2785.0000
 70
15
  0
3DFACE
  5
116D
  8
תאורה
 10
5513.0000
 20
-2594.0000
 30
2755.0000
 11
5513.0000
 21
-2694.0000
 31
2755.0000
 12
5513.0000
 22
-2694.0000
 32
2785.0000
 13
5513.0000
 23
-2594.0000
 33
2785.0000
 70
15
  0
INSERT
  5
116E
  8
תאורה
  2
LIGHTING
 10
5627.0000
 20
-2544.0000
 30
2755.0000
 41
1.0000
 42
1.0000
 43
1.0000
 50
0.0000
  0
3DFACE
  5
116F
  8
תאורה
 10
5577.0000
 20
-2694.0000
 30
2755.0000
 11
5677.0000
 21
-2694.0000
 31
2755.0000
 12
5677.0000
 22
-2594.0000
 32
2755.0000
 13
5577.0000
 23
-2594.0000
 33
2755.0000
 70
15
  0
3DFACE
  5
1170
  8
תאורה
 10
5577.0000
 20
-2694.0000
 30
2785.0000
 11
5677.0000
 21
-2694.0000
 31
2785.0000
 12
5677.0000
 22
-2594.0000
 32
2785.0000
 13
5577.0000
 23
-2594.0000
 33
2785.0000
 70
15
  0
3DFACE
  5
1171
  8
תאורה
 10
5577.0000
 20
-2694.0000
 30
2755.0000
 11
5677.0000
 21
-2694.0000
 31
2755.0000
 12
5677.0000
 22
-2694.0000
 32
2785.0000
 13
5577.0000
 23
-2694.0000
 33
2785.0000
 70
15
  0
3DFACE
  5
1172
  8
תאורה
 10
5677.0000
 20
-2694.0000
 30
2755.0000
 11
5677.0000
 21
-2594.0000
 31
2755.0000
 12
5677.0000
 22
-2594.0000
 32
2785.0000
 13
5677.0000
 23
-2694.0000
 33
2785.0000
 70
15
  0
3DFACE
  5
1173
  8
תאורה
 10
5677.0000
 20
-2594.0000
 30
2755.0000
 11
5577.0000
 21
-2594.0000
 31
2755.0000
 12
5577.0000
 22
-2594.0000
 32
2785.0000
 13
5677.0000
 23
-2594.0000
 33
2785.0000
 70
15
  0
3DFACE
  5
1174
  8
תאורה
 10
5577.0000
 20
-2594.0000
 30
2755.0000
 11
5577.0000
 21
-2694.0000
 31
2755.0000
 12
5577.0000
 22
-2694.0000
 32
2785.0000
 13
5577.0000
 23
-2594.0000
 33
2785.0000
 70
15
  0
INSERT
  5
1175
  8
תאורה
  2
LIGHTING
 10
9241.0000
 20
-2544.0000
 30
2755.0000
 41
1.0000
 42
1.0000
 43
1.0000
 50
0.0000
  0
3DFACE
  5
1176
  8
תאורה
 10
9191.0000
 20
-2694.0000
 30
2755.0000
 11
9291.0000
 21
-2694.0000
 31
2755.0000
 12
9291.0000
 22
-2594.0000
 32
2755.0000
 13
9191.0000
 23
-2594.0000
 33
2755.0000
 70
15
  0
3DFACE
  5
1177
  8
תאורה
 10
9191.0000
 20
-2694.0000
 30
2785.0000
 11
9291.0000
 21
-2694.0000
 31
2785.0000
 12
9291.0000
 22
-2594.0000
 32
2785.0000
 13
9191.0000
 23
-2594.0000
 33
2785.0000
 70
15
  0
3DFACE
  5
1178
  8
תאורה
 10
9191.0000
 20
-2694.0000
 30
2755.0000
 11
9291.0000
 21
-2694.0000
 31
2755.0000
 12
9291.0000
 22
-2694.0000
 32
2785.0000
 13
9191.0000
 23
-2694.0000
 33
2785.0000
 70
15
  0
3DFACE
  5
1179
  8
תאורה
 10
9291.0000
 20
-2694.0000
 30
2755.0000
 11
9291.0000
 21
-2594.0000
 31
2755.0000
 12
9291.0000
 22
-2594.0000
 32
2785.0000
 13
9291.0000
 23
-2694.0000
 33
2785.0000
 70
15
  0
3DFACE
  5
117A
  8
תאורה
 10
9291.0000
 20
-2594.0000
 30
2755.0000
 11
9191.0000
 21
-2594.0000
 31
2755.0000
 12
9191.0000
 22
-2594.0000
 32
2785.0000
 13
9291.0000
 23
-2594.0000
 33
2785.0000
 70
15
  0
3DFACE
  5
117B
  8
תאורה
 10
9191.0000
 20
-2594.0000
 30
2755.0000
 11
9191.0000
 21
-2694.0000
 31
2755.0000
 12
9191.0000
 22
-2694.0000
 32
2785.0000
 13
9191.0000
 23
-2594.0000
 33
2785.0000
 70
15
  0
ENDSEC
  0
EOF
