  0
SECTION
  2
HEADER
  9
$ACADVER
  1
AC1009
  9
$INSBASE
 10
0.0000
 20
0.0000
 30
0.0000
  9
$EXTMIN
 10
-2187.0000
 20
-17659.5000
 30
0.0000
  9
$EXTMAX
 10
20132.0000
 20
601.0000
 30
0.0000
  9
$DWGCODEPAGE
  3
ansi_1255
  9
$CLAYER
  8
0
  9
$LTSCALE
 40
10.0000
  9
$LIMMIN
 10
0.0000
 20
0.0000
  9
$LIMMAX
 10
2000.0000
 20
200.0000
  0
ENDSEC
  0
SECTION
  2
TABLES
  0
TABLE
  2
VPORT
 70
1
  0
VPORT
  2
*ACTIVE
 70
0
 10
0.0000
 20
0.0000
 11
1.0000
 21
1.0000
 12
8972.5000
 22
-8529.2500
 13
0.0000
 23
0.0000
 14
10.0000
 24
10.0000
 15
10.0000
 25
10.0000
 16
0.0000
 26
0.0000
 36
1.0000
 17
0.0000
 27
0.0000
 37
0.0000
 40
20999.5750
 41
1.6000
 42
50.0000
 43
0.0000
 44
0.0000
 50
0.0000
 51
0.0000
 71
0
 72
100
 73
1
 74
1
 75
0
 76
0
 77
0
 78
0
  0
ENDTAB
  0
TABLE
  2
LTYPE
 70
3
  0
LTYPE
  2
CONTINUOUS
 70
0
  3
Solid line
 72
65
 73
0
 40
0.0000
  0
LTYPE
  2
HIDDEN
 70
0
  3
Hidden __ __ __ __ __ __
 72
65
 73
2
 40
9.5250
 49
6.3500
 49
-3.1750
  0
LTYPE
  2
CENTER
 70
0
  3
Center ____ _ ____ _ ____
 72
65
 73
4
 40
50.8000
 49
31.7500
 49
-6.3500
 49
6.3500
 49
-6.3500
  0
ENDTAB
  0
TABLE
  2
LAYER
 70
71
  0
LAYER
  2
0
 70
0
 62
7
  6
CONTINUOUS
  0
LAYER
  2
קירות
 70
0
 62
7
  6
CONTINUOUS
  0
LAYER
  2
קירות - מילוי
 70
0
 62
8
  6
CONTINUOUS
  0
LAYER
  2
קירות - מידות
 70
0
 62
7
  6
CONTINUOUS
  0
LAYER
  2
קירות - טקסט
 70
0
 62
7
  6
CONTINUOUS
  0
LAYER
  2
קירות - נסתר
 70
0
 62
7
  6
HIDDEN
  0
LAYER
  2
קירות - ציר
 70
0
 62
7
  6
CENTER
  0
LAYER
  2
מבנה
 70
0
 62
9
  6
CONTINUOUS
  0
LAYER
  2
מבנה - מילוי
 70
0
 62
9
  6
CONTINUOUS
  0
LAYER
  2
מבנה - מידות
 70
0
 62
9
  6
CONTINUOUS
  0
LAYER
  2
מבנה - טקסט
 70
0
 62
9
  6
CONTINUOUS
  0
LAYER
  2
מבנה - נסתר
 70
0
 62
9
  6
HIDDEN
  0
LAYER
  2
מבנה - ציר
 70
0
 62
9
  6
CENTER
  0
LAYER
  2
חשמל
 70
0
 62
6
  6
CONTINUOUS
  0
LAYER
  2
חשמל - מידות
 70
0
 62
6
  6
CONTINUOUS
  0
LAYER
  2
חשמל - טקסט
 70
0
 62
6
  6
CONTINUOUS
  0
LAYER
  2
חשמל - נסתר
 70
0
 62
6
  6
HIDDEN
  0
LAYER
  2
תאורה
 70
0
 62
30
  6
CONTINUOUS
  0
LAYER
  2
תאורה - מידות
 70
0
 62
30
  6
CONTINUOUS
  0
LAYER
  2
תאורה - טקסט
 70
0
 62
30
  6
CONTINUOUS
  0
LAYER
  2
תאורה - נסתר
 70
0
 62
30
  6
HIDDEN
  0
LAYER
  2
מים
 70
0
 62
4
  6
CONTINUOUS
  0
LAYER
  2
מים - מידות
 70
0
 62
4
  6
CONTINUOUS
  0
LAYER
  2
מים - טקסט
 70
0
 62
4
  6
CONTINUOUS
  0
LAYER
  2
מים - נסתר
 70
0
 62
4
  6
HIDDEN
  0
LAYER
  2
מים - ציר
 70
0
 62
4
  6
CENTER
  0
LAYER
  2
ניקוז
 70
0
 62
140
  6
CONTINUOUS
  0
LAYER
  2
ניקוז - מידות
 70
0
 62
140
  6
CONTINUOUS
  0
LAYER
  2
ניקוז - טקסט
 70
0
 62
140
  6
CONTINUOUS
  0
LAYER
  2
ניקוז - נסתר
 70
0
 62
140
  6
HIDDEN
  0
LAYER
  2
ניקוז - ציר
 70
0
 62
140
  6
CENTER
  0
LAYER
  2
גז
 70
0
 62
2
  6
CONTINUOUS
  0
LAYER
  2
גז - מידות
 70
0
 62
2
  6
CONTINUOUS
  0
LAYER
  2
גז - טקסט
 70
0
 62
2
  6
CONTINUOUS
  0
LAYER
  2
גז - נסתר
 70
0
 62
2
  6
HIDDEN
  0
LAYER
  2
גז - ציר
 70
0
 62
2
  6
CENTER
  0
LAYER
  2
מיזוג
 70
0
 62
141
  6
CONTINUOUS
  0
LAYER
  2
מיזוג - מידות
 70
0
 62
141
  6
CONTINUOUS
  0
LAYER
  2
מיזוג - טקסט
 70
0
 62
141
  6
CONTINUOUS
  0
LAYER
  2
מיזוג - נסתר
 70
0
 62
141
  6
HIDDEN
  0
LAYER
  2
אוורור
 70
0
 62
131
  6
CONTINUOUS
  0
LAYER
  2
אוורור - מידות
 70
0
 62
131
  6
CONTINUOUS
  0
LAYER
  2
אוורור - טקסט
 70
0
 62
131
  6
CONTINUOUS
  0
LAYER
  2
אוורור - נסתר
 70
0
 62
131
  6
HIDDEN
  0
LAYER
  2
דלתות
 70
0
 62
5
  6
CONTINUOUS
  0
LAYER
  2
דלתות - מידות
 70
0
 62
5
  6
CONTINUOUS
  0
LAYER
  2
דלתות - טקסט
 70
0
 62
5
  6
CONTINUOUS
  0
LAYER
  2
דלתות - נסתר
 70
0
 62
5
  6
HIDDEN
  0
LAYER
  2
דלתות - מילוי
 70
0
 62
5
  6
CONTINUOUS
  0
LAYER
  2
חלונות
 70
0
 62
151
  6
CONTINUOUS
  0
LAYER
  2
חלונות - מידות
 70
0
 62
151
  6
CONTINUOUS
  0
LAYER
  2
חלונות - טקסט
 70
0
 62
151
  6
CONTINUOUS
  0
LAYER
  2
חלונות - נסתר
 70
0
 62
151
  6
HIDDEN
  0
LAYER
  2
ריהוט
 70
0
 62
42
  6
CONTINUOUS
  0
LAYER
  2
ריהוט - מידות
 70
0
 62
42
  6
CONTINUOUS
  0
LAYER
  2
ריהוט - טקסט
 70
0
 62
42
  6
CONTINUOUS
  0
LAYER
  2
ריהוט - נסתר
 70
0
 62
42
  6
HIDDEN
  0
LAYER
  2
מטבח
 70
0
 62
52
  6
CONTINUOUS
  0
LAYER
  2
מטבח - מידות
 70
0
 62
52
  6
CONTINUOUS
  0
LAYER
  2
מטבח - טקסט
 70
0
 62
52
  6
CONTINUOUS
  0
LAYER
  2
מטבח - נסתר
 70
0
 62
52
  6
HIDDEN
  0
LAYER
  2
ריצוף
 70
0
 62
251
  6
CONTINUOUS
  0
LAYER
  2
ריצוף - מילוי
 70
0
 62
8
  6
CONTINUOUS
  0
LAYER
  2
מידות - פנים
 70
0
 62
3
  6
CONTINUOUS
  0
LAYER
  2
מידות - חוץ
 70
0
 62
1
  6
CONTINUOUS
  0
LAYER
  2
מסגרת
 70
0
 62
250
  6
CONTINUOUS
  0
LAYER
  2
גבול גיליון
 70
0
 62
255
  6
CONTINUOUS
  0
LAYER
  2
מקרא
 70
0
 62
150
  6
CONTINUOUS
  0
LAYER
  2
רשת צירים
 70
0
 62
8
  6
CENTER
  0
LAYER
  2
הערות
 70
0
 62
150
  6
CONTINUOUS
  0
LAYER
  2
מהדורות
 70
0
 62
1
  6
CONTINUOUS
  0
ENDTAB
  0
TABLE
  2
STYLE
 70
2
  0
STYLE
  2
SOLINE
 70
0
 40
0.0000
 41
1.0000
 50
0.0000
 71
0
 42
2.5000
  3
arial.ttf
  4

  0
STYLE
  2
Standard
 70
0
 40
0.0000
 41
1.0000
 50
0.0000
 71
0
 42
2.5000
  3
txt
  4

  0
ENDTAB
  0
ENDSEC
  0
SECTION
  2
BLOCKS
  0
BLOCK
  8
0
  2
SS_gas_point_20x20
 70
0
 10
0.0000
 20
0.0000
 30
0.0000
  3
SS_gas_point_20x20
  1

  0
LINE
  5
67C
  8
0
 10
0.0000
 20
0.0000
 30
0.0000
 11
0.0000
 21
4.0000
 31
0.0000
  0
LINE
  5
67D
  8
0
 10
0.0000
 20
16.0000
 30
0.0000
 11
5.2000
 21
13.0000
 31
0.0000
  0
LINE
  5
67E
  8
0
 10
5.2000
 20
13.0000
 30
0.0000
 11
5.2000
 21
7.0000
 31
0.0000
  0
LINE
  5
67F
  8
0
 10
5.2000
 20
7.0000
 30
0.0000
 11
0.0000
 21
4.0000
 31
0.0000
  0
LINE
  5
680
  8
0
 10
0.0000
 20
4.0000
 30
0.0000
 11
-5.2000
 21
7.0000
 31
0.0000
  0
LINE
  5
681
  8
0
 10
-5.2000
 20
7.0000
 30
0.0000
 11
-5.2000
 21
13.0000
 31
0.0000
  0
LINE
  5
682
  8
0
 10
-5.2000
 20
13.0000
 30
0.0000
 11
0.0000
 21
16.0000
 31
0.0000
  0
TEXT
  5
683
  8
0
 10
0.0000
 20
10.0000
 30
0.0000
 40
24.0000
  1
G
 50
0.0000
  7
SOLINE
 72
1
 73
2
 11
0.0000
 21
10.0000
 31
0.0000
  0
ENDBLK
  8
0
  0
BLOCK
  8
0
  2
SS_socket_single_80x80
 70
0
 10
0.0000
 20
0.0000
 30
0.0000
  3
SS_socket_single_80x80
  1

  0
LINE
  5
684
  8
0
 10
0.0000
 20
0.0000
 30
0.0000
 11
0.0000
 21
36.8000
 31
0.0000
  0
LINE
  5
685
  8
0
 10
-25.6000
 20
36.8000
 30
0.0000
 11
-25.4390
 21
39.6663
 31
0.0000
  0
LINE
  5
686
  8
0
 10
-25.4390
 20
39.6663
 30
0.0000
 11
-24.9582
 21
42.4965
 31
0.0000
  0
LINE
  5
687
  8
0
 10
-24.9582
 20
42.4965
 30
0.0000
 11
-24.1634
 21
45.2551
 31
0.0000
  0
LINE
  5
688
  8
0
 10
-24.1634
 20
45.2551
 30
0.0000
 11
-23.0648
 21
47.9074
 31
0.0000
  0
LINE
  5
689
  8
0
 10
-23.0648
 20
47.9074
 30
0.0000
 11
-21.6761
 21
50.4200
 31
0.0000
  0
LINE
  5
68A
  8
0
 10
-21.6761
 20
50.4200
 30
0.0000
 11
-20.0149
 21
52.7613
 31
0.0000
  0
LINE
  5
68B
  8
0
 10
-20.0149
 20
52.7613
 30
0.0000
 11
-18.1019
 21
54.9019
 31
0.0000
  0
LINE
  5
68C
  8
0
 10
-18.1019
 20
54.9019
 30
0.0000
 11
-15.9613
 21
56.8149
 31
0.0000
  0
LINE
  5
68D
  8
0
 10
-15.9613
 20
56.8149
 30
0.0000
 11
-13.6200
 21
58.4761
 31
0.0000
  0
LINE
  5
68E
  8
0
 10
-13.6200
 20
58.4761
 30
0.0000
 11
-11.1074
 21
59.8648
 31
0.0000
  0
LINE
  5
68F
  8
0
 10
-11.1074
 20
59.8648
 30
0.0000
 11
-8.4551
 21
60.9634
 31
0.0000
  0
LINE
  5
690
  8
0
 10
-8.4551
 20
60.9634
 30
0.0000
 11
-5.6965
 21
61.7582
 31
0.0000
  0
LINE
  5
691
  8
0
 10
-5.6965
 20
61.7582
 30
0.0000
 11
-2.8663
 21
62.2390
 31
0.0000
  0
LINE
  5
692
  8
0
 10
-2.8663
 20
62.2390
 30
0.0000
 11
0.0000
 21
62.4000
 31
0.0000
  0
LINE
  5
693
  8
0
 10
0.0000
 20
62.4000
 30
0.0000
 11
2.8663
 21
62.2390
 31
0.0000
  0
LINE
  5
694
  8
0
 10
2.8663
 20
62.2390
 30
0.0000
 11
5.6965
 21
61.7582
 31
0.0000
  0
LINE
  5
695
  8
0
 10
5.6965
 20
61.7582
 30
0.0000
 11
8.4551
 21
60.9634
 31
0.0000
  0
LINE
  5
696
  8
0
 10
8.4551
 20
60.9634
 30
0.0000
 11
11.1074
 21
59.8648
 31
0.0000
  0
LINE
  5
697
  8
0
 10
11.1074
 20
59.8648
 30
0.0000
 11
13.6200
 21
58.4761
 31
0.0000
  0
LINE
  5
698
  8
0
 10
13.6200
 20
58.4761
 30
0.0000
 11
15.9613
 21
56.8149
 31
0.0000
  0
LINE
  5
699
  8
0
 10
15.9613
 20
56.8149
 30
0.0000
 11
18.1019
 21
54.9019
 31
0.0000
  0
LINE
  5
69A
  8
0
 10
18.1019
 20
54.9019
 30
0.0000
 11
20.0149
 21
52.7613
 31
0.0000
  0
LINE
  5
69B
  8
0
 10
20.0149
 20
52.7613
 30
0.0000
 11
21.6761
 21
50.4200
 31
0.0000
  0
LINE
  5
69C
  8
0
 10
21.6761
 20
50.4200
 30
0.0000
 11
23.0648
 21
47.9074
 31
0.0000
  0
LINE
  5
69D
  8
0
 10
23.0648
 20
47.9074
 30
0.0000
 11
24.1634
 21
45.2551
 31
0.0000
  0
LINE
  5
69E
  8
0
 10
24.1634
 20
45.2551
 30
0.0000
 11
24.9582
 21
42.4965
 31
0.0000
  0
LINE
  5
69F
  8
0
 10
24.9582
 20
42.4965
 30
0.0000
 11
25.4390
 21
39.6663
 31
0.0000
  0
LINE
  5
6A0
  8
0
 10
25.4390
 20
39.6663
 30
0.0000
 11
25.6000
 21
36.8000
 31
0.0000
  0
LINE
  5
6A1
  8
0
 10
-25.6000
 20
36.8000
 30
0.0000
 11
25.6000
 21
36.8000
 31
0.0000
  0
ENDBLK
  8
0
  0
BLOCK
  8
0
  2
SS_socket_duplex_160x80
 70
0
 10
0.0000
 20
0.0000
 30
0.0000
  3
SS_socket_duplex_160x80
  1

  0
LINE
  5
6A2
  8
0
 10
0.0000
 20
0.0000
 30
0.0000
 11
0.0000
 21
36.8000
 31
0.0000
  0
LINE
  5
6A3
  8
0
 10
-79.1040
 20
36.8000
 30
0.0000
 11
-78.8625
 21
38.9497
 31
0.0000
  0
LINE
  5
6A4
  8
0
 10
-78.8625
 20
38.9497
 30
0.0000
 11
-78.1412
 21
41.0724
 31
0.0000
  0
LINE
  5
6A5
  8
0
 10
-78.1412
 20
41.0724
 30
0.0000
 11
-76.9491
 21
43.1414
 31
0.0000
  0
LINE
  5
6A6
  8
0
 10
-76.9491
 20
43.1414
 30
0.0000
 11
-75.3012
 21
45.1306
 31
0.0000
  0
LINE
  5
6A7
  8
0
 10
-75.3012
 20
45.1306
 30
0.0000
 11
-73.2182
 21
47.0150
 31
0.0000
  0
LINE
  5
6A8
  8
0
 10
-73.2182
 20
47.0150
 30
0.0000
 11
-70.7263
 21
48.7710
 31
0.0000
  0
LINE
  5
6A9
  8
0
 10
-70.7263
 20
48.7710
 30
0.0000
 11
-67.8569
 21
50.3765
 31
0.0000
  0
LINE
  5
6AA
  8
0
 10
-67.8569
 20
50.3765
 30
0.0000
 11
-64.6460
 21
51.8112
 31
0.0000
  0
LINE
  5
6AB
  8
0
 10
-64.6460
 20
51.8112
 30
0.0000
 11
-61.1340
 21
53.0571
 31
0.0000
  0
LINE
  5
6AC
  8
0
 10
-61.1340
 20
53.0571
 30
0.0000
 11
-57.3651
 21
54.0986
 31
0.0000
  0
LINE
  5
6AD
  8
0
 10
-57.3651
 20
54.0986
 30
0.0000
 11
-53.3867
 21
54.9226
 31
0.0000
  0
LINE
  5
6AE
  8
0
 10
-53.3867
 20
54.9226
 30
0.0000
 11
-49.2488
 21
55.5186
 31
0.0000
  0
LINE
  5
6AF
  8
0
 10
-49.2488
 20
55.5186
 30
0.0000
 11
-45.0034
 21
55.8793
 31
0.0000
  0
LINE
  5
6B0
  8
0
 10
-45.0034
 20
55.8793
 30
0.0000
 11
-40.7040
 21
56.0000
 31
0.0000
  0
LINE
  5
6B1
  8
0
 10
-40.7040
 20
56.0000
 30
0.0000
 11
-36.4046
 21
55.8793
 31
0.0000
  0
LINE
  5
6B2
  8
0
 10
-36.4046
 20
55.8793
 30
0.0000
 11
-32.1592
 21
55.5186
 31
0.0000
  0
LINE
  5
6B3
  8
0
 10
-32.1592
 20
55.5186
 30
0.0000
 11
-28.0213
 21
54.9226
 31
0.0000
  0
LINE
  5
6B4
  8
0
 10
-28.0213
 20
54.9226
 30
0.0000
 11
-24.0429
 21
54.0986
 31
0.0000
  0
LINE
  5
6B5
  8
0
 10
-24.0429
 20
54.0986
 30
0.0000
 11
-20.2740
 21
53.0571
 31
0.0000
  0
LINE
  5
6B6
  8
0
 10
-20.2740
 20
53.0571
 30
0.0000
 11
-16.7620
 21
51.8112
 31
0.0000
  0
LINE
  5
6B7
  8
0
 10
-16.7620
 20
51.8112
 30
0.0000
 11
-13.5511
 21
50.3765
 31
0.0000
  0
LINE
  5
6B8
  8
0
 10
-13.5511
 20
50.3765
 30
0.0000
 11
-10.6817
 21
48.7710
 31
0.0000
  0
LINE
  5
6B9
  8
0
 10
-10.6817
 20
48.7710
 30
0.0000
 11
-8.1898
 21
47.0150
 31
0.0000
  0
LINE
  5
6BA
  8
0
 10
-8.1898
 20
47.0150
 30
0.0000
 11
-6.1068
 21
45.1306
 31
0.0000
  0
LINE
  5
6BB
  8
0
 10
-6.1068
 20
45.1306
 30
0.0000
 11
-4.4589
 21
43.1414
 31
0.0000
  0
LINE
  5
6BC
  8
0
 10
-4.4589
 20
43.1414
 30
0.0000
 11
-3.2668
 21
41.0724
 31
0.0000
  0
LINE
  5
6BD
  8
0
 10
-3.2668
 20
41.0724
 30
0.0000
 11
-2.5455
 21
38.9497
 31
0.0000
  0
LINE
  5
6BE
  8
0
 10
-2.5455
 20
38.9497
 30
0.0000
 11
-2.3040
 21
36.8000
 31
0.0000
  0
LINE
  5
6BF
  8
0
 10
-79.1040
 20
36.8000
 30
0.0000
 11
-2.3040
 21
36.8000
 31
0.0000
  0
LINE
  5
6C0
  8
0
 10
2.3040
 20
36.8000
 30
0.0000
 11
2.5455
 21
38.9497
 31
0.0000
  0
LINE
  5
6C1
  8
0
 10
2.5455
 20
38.9497
 30
0.0000
 11
3.2668
 21
41.0724
 31
0.0000
  0
LINE
  5
6C2
  8
0
 10
3.2668
 20
41.0724
 30
0.0000
 11
4.4589
 21
43.1414
 31
0.0000
  0
LINE
  5
6C3
  8
0
 10
4.4589
 20
43.1414
 30
0.0000
 11
6.1068
 21
45.1306
 31
0.0000
  0
LINE
  5
6C4
  8
0
 10
6.1068
 20
45.1306
 30
0.0000
 11
8.1898
 21
47.0150
 31
0.0000
  0
LINE
  5
6C5
  8
0
 10
8.1898
 20
47.0150
 30
0.0000
 11
10.6817
 21
48.7710
 31
0.0000
  0
LINE
  5
6C6
  8
0
 10
10.6817
 20
48.7710
 30
0.0000
 11
13.5511
 21
50.3765
 31
0.0000
  0
LINE
  5
6C7
  8
0
 10
13.5511
 20
50.3765
 30
0.0000
 11
16.7620
 21
51.8112
 31
0.0000
  0
LINE
  5
6C8
  8
0
 10
16.7620
 20
51.8112
 30
0.0000
 11
20.2740
 21
53.0571
 31
0.0000
  0
LINE
  5
6C9
  8
0
 10
20.2740
 20
53.0571
 30
0.0000
 11
24.0429
 21
54.0986
 31
0.0000
  0
LINE
  5
6CA
  8
0
 10
24.0429
 20
54.0986
 30
0.0000
 11
28.0213
 21
54.9226
 31
0.0000
  0
LINE
  5
6CB
  8
0
 10
28.0213
 20
54.9226
 30
0.0000
 11
32.1592
 21
55.5186
 31
0.0000
  0
LINE
  5
6CC
  8
0
 10
32.1592
 20
55.5186
 30
0.0000
 11
36.4046
 21
55.8793
 31
0.0000
  0
LINE
  5
6CD
  8
0
 10
36.4046
 20
55.8793
 30
0.0000
 11
40.7040
 21
56.0000
 31
0.0000
  0
LINE
  5
6CE
  8
0
 10
40.7040
 20
56.0000
 30
0.0000
 11
45.0034
 21
55.8793
 31
0.0000
  0
LINE
  5
6CF
  8
0
 10
45.0034
 20
55.8793
 30
0.0000
 11
49.2488
 21
55.5186
 31
0.0000
  0
LINE
  5
6D0
  8
0
 10
49.2488
 20
55.5186
 30
0.0000
 11
53.3867
 21
54.9226
 31
0.0000
  0
LINE
  5
6D1
  8
0
 10
53.3867
 20
54.9226
 30
0.0000
 11
57.3651
 21
54.0986
 31
0.0000
  0
LINE
  5
6D2
  8
0
 10
57.3651
 20
54.0986
 30
0.0000
 11
61.1340
 21
53.0571
 31
0.0000
  0
LINE
  5
6D3
  8
0
 10
61.1340
 20
53.0571
 30
0.0000
 11
64.6460
 21
51.8112
 31
0.0000
  0
LINE
  5
6D4
  8
0
 10
64.6460
 20
51.8112
 30
0.0000
 11
67.8569
 21
50.3765
 31
0.0000
  0
LINE
  5
6D5
  8
0
 10
67.8569
 20
50.3765
 30
0.0000
 11
70.7263
 21
48.7710
 31
0.0000
  0
LINE
  5
6D6
  8
0
 10
70.7263
 20
48.7710
 30
0.0000
 11
73.2182
 21
47.0150
 31
0.0000
  0
LINE
  5
6D7
  8
0
 10
73.2182
 20
47.0150
 30
0.0000
 11
75.3012
 21
45.1306
 31
0.0000
  0
LINE
  5
6D8
  8
0
 10
75.3012
 20
45.1306
 30
0.0000
 11
76.9491
 21
43.1414
 31
0.0000
  0
LINE
  5
6D9
  8
0
 10
76.9491
 20
43.1414
 30
0.0000
 11
78.1412
 21
41.0724
 31
0.0000
  0
LINE
  5
6DA
  8
0
 10
78.1412
 20
41.0724
 30
0.0000
 11
78.8625
 21
38.9497
 31
0.0000
  0
LINE
  5
6DB
  8
0
 10
78.8625
 20
38.9497
 30
0.0000
 11
79.1040
 21
36.8000
 31
0.0000
  0
LINE
  5
6DC
  8
0
 10
2.3040
 20
36.8000
 30
0.0000
 11
79.1040
 21
36.8000
 31
0.0000
  0
ENDBLK
  8
0
  0
BLOCK
  8
0
  2
SS_junction_cable_20x20
 70
0
 10
0.0000
 20
0.0000
 30
0.0000
  3
SS_junction_cable_20x20
  1

  0
LINE
  5
6DD
  8
0
 10
0.0000
 20
0.0000
 30
0.0000
 11
0.0000
 21
15.6000
 31
0.0000
  0
ARC
  5
6DE
  8
0
 10
0.0000
 20
9.6000
 30
0.0000
 40
6.4000
 50
0.0000
 51
360.0000
  0
LINE
  5
6DF
  8
0
 10
0.0000
 20
9.6000
 30
0.0000
 11
-4.4000
 21
14.0000
 31
0.0000
  0
LINE
  5
6E0
  8
0
 10
0.0000
 20
9.6000
 30
0.0000
 11
4.4000
 21
14.0000
 31
0.0000
  0
LINE
  5
6E1
  8
0
 10
0.0000
 20
9.6000
 30
0.0000
 11
-4.4000
 21
5.2000
 31
0.0000
  0
LINE
  5
6E2
  8
0
 10
0.0000
 20
9.6000
 30
0.0000
 11
4.4000
 21
5.2000
 31
0.0000
  0
ENDBLK
  8
0
  0
BLOCK
  8
0
  2
SS_light_downlight_100x30
 70
0
 10
0.0000
 20
0.0000
 30
0.0000
  3
SS_light_downlight_100x30
  1

  0
LINE
  5
6E3
  8
0
 10
30.0000
 20
15.0000
 30
0.0000
 11
29.4236
 21
13.2442
 31
0.0000
  0
LINE
  5
6E4
  8
0
 10
29.4236
 20
13.2442
 30
0.0000
 11
27.7164
 21
11.5558
 31
0.0000
  0
LINE
  5
6E5
  8
0
 10
27.7164
 20
11.5558
 30
0.0000
 11
24.9441
 21
9.9999
 31
0.0000
  0
LINE
  5
6E6
  8
0
 10
24.9441
 20
9.9999
 30
0.0000
 11
21.2132
 21
8.6360
 31
0.0000
  0
LINE
  5
6E7
  8
0
 10
21.2132
 20
8.6360
 30
0.0000
 11
16.6671
 21
7.5168
 31
0.0000
  0
LINE
  5
6E8
  8
0
 10
16.6671
 20
7.5168
 30
0.0000
 11
11.4805
 21
6.6851
 31
0.0000
  0
LINE
  5
6E9
  8
0
 10
11.4805
 20
6.6851
 30
0.0000
 11
5.8527
 21
6.1729
 31
0.0000
  0
LINE
  5
6EA
  8
0
 10
5.8527
 20
6.1729
 30
0.0000
 11
0.0000
 21
6.0000
 31
0.0000
  0
LINE
  5
6EB
  8
0
 10
0.0000
 20
6.0000
 30
0.0000
 11
-5.8527
 21
6.1729
 31
0.0000
  0
LINE
  5
6EC
  8
0
 10
-5.8527
 20
6.1729
 30
0.0000
 11
-11.4805
 21
6.6851
 31
0.0000
  0
LINE
  5
6ED
  8
0
 10
-11.4805
 20
6.6851
 30
0.0000
 11
-16.6671
 21
7.5168
 31
0.0000
  0
LINE
  5
6EE
  8
0
 10
-16.6671
 20
7.5168
 30
0.0000
 11
-21.2132
 21
8.6360
 31
0.0000
  0
LINE
  5
6EF
  8
0
 10
-21.2132
 20
8.6360
 30
0.0000
 11
-24.9441
 21
9.9999
 31
0.0000
  0
LINE
  5
6F0
  8
0
 10
-24.9441
 20
9.9999
 30
0.0000
 11
-27.7164
 21
11.5558
 31
0.0000
  0
LINE
  5
6F1
  8
0
 10
-27.7164
 20
11.5558
 30
0.0000
 11
-29.4236
 21
13.2442
 31
0.0000
  0
LINE
  5
6F2
  8
0
 10
-29.4236
 20
13.2442
 30
0.0000
 11
-30.0000
 21
15.0000
 31
0.0000
  0
LINE
  5
6F3
  8
0
 10
-30.0000
 20
15.0000
 30
0.0000
 11
-29.4236
 21
16.7558
 31
0.0000
  0
LINE
  5
6F4
  8
0
 10
-29.4236
 20
16.7558
 30
0.0000
 11
-27.7164
 21
18.4442
 31
0.0000
  0
LINE
  5
6F5
  8
0
 10
-27.7164
 20
18.4442
 30
0.0000
 11
-24.9441
 21
20.0001
 31
0.0000
  0
LINE
  5
6F6
  8
0
 10
-24.9441
 20
20.0001
 30
0.0000
 11
-21.2132
 21
21.3640
 31
0.0000
  0
LINE
  5
6F7
  8
0
 10
-21.2132
 20
21.3640
 30
0.0000
 11
-16.6671
 21
22.4832
 31
0.0000
  0
LINE
  5
6F8
  8
0
 10
-16.6671
 20
22.4832
 30
0.0000
 11
-11.4805
 21
23.3149
 31
0.0000
  0
LINE
  5
6F9
  8
0
 10
-11.4805
 20
23.3149
 30
0.0000
 11
-5.8527
 21
23.8271
 31
0.0000
  0
LINE
  5
6FA
  8
0
 10
-5.8527
 20
23.8271
 30
0.0000
 11
0.0000
 21
24.0000
 31
0.0000
  0
LINE
  5
6FB
  8
0
 10
0.0000
 20
24.0000
 30
0.0000
 11
5.8527
 21
23.8271
 31
0.0000
  0
LINE
  5
6FC
  8
0
 10
5.8527
 20
23.8271
 30
0.0000
 11
11.4805
 21
23.3149
 31
0.0000
  0
LINE
  5
6FD
  8
0
 10
11.4805
 20
23.3149
 30
0.0000
 11
16.6671
 21
22.4832
 31
0.0000
  0
LINE
  5
6FE
  8
0
 10
16.6671
 20
22.4832
 30
0.0000
 11
21.2132
 21
21.3640
 31
0.0000
  0
LINE
  5
6FF
  8
0
 10
21.2132
 20
21.3640
 30
0.0000
 11
24.9441
 21
20.0001
 31
0.0000
  0
LINE
  5
700
  8
0
 10
24.9441
 20
20.0001
 30
0.0000
 11
27.7164
 21
18.4442
 31
0.0000
  0
LINE
  5
701
  8
0
 10
27.7164
 20
18.4442
 30
0.0000
 11
29.4236
 21
16.7558
 31
0.0000
  0
LINE
  5
702
  8
0
 10
29.4236
 20
16.7558
 30
0.0000
 11
30.0000
 21
15.0000
 31
0.0000
  0
LINE
  5
703
  8
0
 10
-21.0000
 20
21.3000
 30
0.0000
 11
21.0000
 21
8.7000
 31
0.0000
  0
LINE
  5
704
  8
0
 10
21.0000
 20
21.3000
 30
0.0000
 11
-21.0000
 21
8.7000
 31
0.0000
  0
ENDBLK
  8
0
  0
BLOCK
  8
0
  2
SS_water_faucet_20x20
 70
0
 10
0.0000
 20
0.0000
 30
0.0000
  3
SS_water_faucet_20x20
  1

  0
LINE
  5
705
  8
0
 10
0.0000
 20
0.0000
 30
0.0000
 11
0.0000
 21
5.6000
 31
0.0000
  0
LINE
  5
706
  8
0
 10
-4.4000
 20
14.4000
 30
0.0000
 11
4.4000
 21
14.4000
 31
0.0000
  0
LINE
  5
707
  8
0
 10
4.4000
 20
14.4000
 30
0.0000
 11
0.0000
 21
10.0000
 31
0.0000
  0
LINE
  5
708
  8
0
 10
0.0000
 20
10.0000
 30
0.0000
 11
-4.4000
 21
14.4000
 31
0.0000
  0
LINE
  5
709
  8
0
 10
-4.4000
 20
5.6000
 30
0.0000
 11
4.4000
 21
5.6000
 31
0.0000
  0
LINE
  5
70A
  8
0
 10
4.4000
 20
5.6000
 30
0.0000
 11
0.0000
 21
10.0000
 31
0.0000
  0
LINE
  5
70B
  8
0
 10
0.0000
 20
10.0000
 30
0.0000
 11
-4.4000
 21
5.6000
 31
0.0000
  0
ARC
  5
70C
  8
0
 10
0.0000
 20
10.0000
 30
0.0000
 40
0.9000
 50
0.0000
 51
360.0000
  0
ENDBLK
  8
0
  0
BLOCK
  8
0
  2
SS_sewage_point_50x50
 70
0
 10
0.0000
 20
0.0000
 30
0.0000
  3
SS_sewage_point_50x50
  1

  0
LINE
  5
70D
  8
0
 10
0.0000
 20
0.0000
 30
0.0000
 11
0.0000
 21
39.0000
 31
0.0000
  0
ARC
  5
70E
  8
0
 10
0.0000
 20
25.0000
 30
0.0000
 40
15.0000
 50
0.0000
 51
360.0000
  0
LINE
  5
70F
  8
0
 10
-9.0000
 20
22.0000
 30
0.0000
 11
-4.0000
 21
28.0000
 31
0.0000
  0
LINE
  5
710
  8
0
 10
-4.0000
 20
28.0000
 30
0.0000
 11
0.0000
 21
22.0000
 31
0.0000
  0
LINE
  5
711
  8
0
 10
0.0000
 20
22.0000
 30
0.0000
 11
4.0000
 21
28.0000
 31
0.0000
  0
LINE
  5
712
  8
0
 10
4.0000
 20
28.0000
 30
0.0000
 11
9.0000
 21
22.0000
 31
0.0000
  0
ENDBLK
  8
0
  0
BLOCK
  8
0
  2
SS_floor_drain_120x120
 70
0
 10
0.0000
 20
0.0000
 30
0.0000
  3
SS_floor_drain_120x120
  1

  0
LINE
  5
713
  8
0
 10
-38.4000
 20
98.4000
 30
0.0000
 11
38.4000
 21
98.4000
 31
0.0000
  0
LINE
  5
714
  8
0
 10
38.4000
 20
98.4000
 30
0.0000
 11
38.4000
 21
21.6000
 31
0.0000
  0
LINE
  5
715
  8
0
 10
38.4000
 20
21.6000
 30
0.0000
 11
-38.4000
 21
21.6000
 31
0.0000
  0
LINE
  5
716
  8
0
 10
-38.4000
 20
21.6000
 30
0.0000
 11
-38.4000
 21
98.4000
 31
0.0000
  0
LINE
  5
717
  8
0
 10
-38.4000
 20
98.4000
 30
0.0000
 11
38.4000
 21
21.6000
 31
0.0000
  0
LINE
  5
718
  8
0
 10
38.4000
 20
98.4000
 30
0.0000
 11
-38.4000
 21
21.6000
 31
0.0000
  0
ARC
  5
719
  8
0
 10
0.0000
 20
60.0000
 30
0.0000
 40
12.0000
 50
0.0000
 51
360.0000
  0
ENDBLK
  8
0
  0
ENDSEC
  0
SECTION
  2
ENTITIES
  0
SOLID
  5
100
  8
קירות - מילוי
 10
2670.0000
 20
-5198.5000
 30
0.0000
 11
2670.0000
 21
-3265.5000
 31
0.0000
 12
2770.0000
 22
-5198.5000
 32
0.0000
 13
2770.0000
 23
-3265.5000
 33
0.0000
  0
LINE
  5
101
  8
קירות
 10
2670.0000
 20
-5198.5000
 30
0.0000
 11
2670.0000
 21
-3265.5000
 31
0.0000
  0
LINE
  5
102
  8
קירות
 10
2770.0000
 20
-5198.5000
 30
0.0000
 11
2770.0000
 21
-3265.5000
 31
0.0000
  0
SOLID
  5
103
  8
קירות - מילוי
 10
2670.0000
 20
-2096.5000
 30
0.0000
 11
2670.0000
 21
-699.8253
 31
0.0000
 12
2770.0000
 22
-2096.5000
 32
0.0000
 13
2770.0000
 23
-800.0000
 33
0.0000
  0
LINE
  5
104
  8
קירות
 10
2670.0000
 20
-2096.5000
 30
0.0000
 11
2670.0000
 21
-699.8253
 31
0.0000
  0
LINE
  5
105
  8
קירות
 10
2770.0000
 20
-2096.5000
 30
0.0000
 11
2770.0000
 21
-800.0000
 31
0.0000
  0
LINE
  5
106
  8
קירות
 10
2770.0000
 20
-7043.0000
 30
0.0000
 11
2670.0000
 21
-7043.0000
 31
0.0000
  0
LINE
  5
107
  8
קירות
 10
2770.0000
 20
-5198.5000
 30
0.0000
 11
2670.0000
 21
-5198.5000
 31
0.0000
  0
LINE
  5
108
  8
קירות
 10
2770.0000
 20
-3265.5000
 30
0.0000
 11
2670.0000
 21
-3265.5000
 31
0.0000
  0
LINE
  5
109
  8
קירות
 10
2770.0000
 20
-2096.5000
 30
0.0000
 11
2670.0000
 21
-2096.5000
 31
0.0000
  0
SOLID
  5
10A
  8
קירות - מילוי
 10
2670.0000
 20
-699.8253
 30
0.0000
 11
6465.1689
 21
-706.4491
 31
0.0000
 12
2770.0000
 22
-800.0000
 32
0.0000
 13
6364.9945
 23
-806.2745
 33
0.0000
  0
LINE
  5
10B
  8
קירות
 10
2670.0000
 20
-699.8253
 30
0.0000
 11
6465.1689
 21
-706.4491
 31
0.0000
  0
LINE
  5
10C
  8
קירות
 10
2770.0000
 20
-800.0000
 30
0.0000
 11
6364.9945
 21
-806.2745
 31
0.0000
  0
SOLID
  5
10D
  8
קירות - מילוי
 10
6465.1689
 20
-706.4491
 30
0.0000
 11
6463.5510
 21
-1633.4477
 31
0.0000
 12
6364.9945
 22
-806.2745
 32
0.0000
 13
6363.3766
 23
-1733.2730
 33
0.0000
  0
LINE
  5
10E
  8
קירות
 10
6465.1689
 20
-706.4491
 30
0.0000
 11
6463.5510
 21
-1633.4477
 31
0.0000
  0
LINE
  5
10F
  8
קירות
 10
6364.9945
 20
-806.2745
 30
0.0000
 11
6363.3766
 21
-1733.2730
 31
0.0000
  0
SOLID
  5
110
  8
קירות - מילוי
 10
7050.1728
 20
-1634.4716
 30
0.0000
 11
7617.5492
 21
-1635.4618
 31
0.0000
 12
7049.9983
 22
-1734.4714
 32
0.0000
 13
7617.3747
 23
-1735.4617
 33
0.0000
  0
LINE
  5
111
  8
קירות
 10
7050.1728
 20
-1634.4716
 30
0.0000
 11
7617.5492
 21
-1635.4618
 31
0.0000
  0
LINE
  5
112
  8
קירות
 10
7049.9983
 20
-1734.4714
 30
0.0000
 11
7617.3747
 21
-1735.4617
 31
0.0000
  0
LINE
  5
113
  8
קירות
 10
6363.3766
 20
-1733.2730
 30
0.0000
 11
6363.5511
 21
-1633.2732
 31
0.0000
  0
LINE
  5
114
  8
קירות
 10
7049.9983
 20
-1734.4714
 30
0.0000
 11
7050.1728
 21
-1634.4716
 31
0.0000
  0
LINE
  5
115
  8
קירות
 10
7617.5492
 20
-1635.4618
 30
0.0000
 11
7617.3747
 21
-1735.4617
 31
0.0000
  0
LINE
  5
116
  8
חלונות
 10
2820.0000
 20
-3265.5000
 30
0.0000
 11
2820.0000
 21
-2096.5000
 31
0.0000
  0
LINE
  5
117
  8
חלונות
 10
2820.0000
 20
-2096.5000
 30
0.0000
 11
2720.0000
 21
-2096.5000
 31
0.0000
  0
LINE
  5
118
  8
חלונות
 10
2720.0000
 20
-2096.5000
 30
0.0000
 11
2720.0000
 21
-3265.5000
 31
0.0000
  0
LINE
  5
119
  8
חלונות
 10
2720.0000
 20
-3265.5000
 30
0.0000
 11
2820.0000
 21
-3265.5000
 31
0.0000
  0
LINE
  5
11A
  8
חלונות
 10
2820.0000
 20
-3215.5000
 30
0.0000
 11
2720.0000
 21
-3215.5000
 31
0.0000
  0
LINE
  5
11B
  8
חלונות
 10
2820.0000
 20
-2146.5000
 30
0.0000
 11
2720.0000
 21
-2146.5000
 31
0.0000
  0
LINE
  5
11C
  8
חלונות
 10
2770.0000
 20
-3215.5000
 30
0.0000
 11
2770.0000
 21
-2146.5000
 31
0.0000
  0
LINE
  5
11D
  8
חלונות
 10
2770.0000
 20
-3215.5000
 30
0.0000
 11
2770.0000
 21
-2146.5000
 31
0.0000
  0
LINE
  5
11E
  8
חלונות
 10
2770.0000
 20
-3215.5000
 30
0.0000
 11
2770.0000
 21
-2146.5000
 31
0.0000
  0
TEXT
  5
11F
  8
חלונות - טקסט
 10
2545.0000
 20
-2681.0000
 30
0.0000
 40
125.0000
  1
W1
 50
0.0000
  7
SOLINE
 72
1
 73
2
 11
2545.0000
 21
-2681.0000
 31
0.0000
  0
LINE
  5
120
  8
חלונות
 10
2820.0000
 20
-8155.5000
 30
0.0000
 11
2820.0000
 21
-5198.5000
 31
0.0000
  0
LINE
  5
121
  8
חלונות
 10
2820.0000
 20
-5198.5000
 30
0.0000
 11
2720.0000
 21
-5198.5000
 31
0.0000
  0
LINE
  5
122
  8
חלונות
 10
2720.0000
 20
-5198.5000
 30
0.0000
 11
2720.0000
 21
-8155.5000
 31
0.0000
  0
LINE
  5
123
  8
חלונות
 10
2720.0000
 20
-8155.5000
 30
0.0000
 11
2820.0000
 21
-8155.5000
 31
0.0000
  0
LINE
  5
124
  8
חלונות
 10
2820.0000
 20
-8105.5000
 30
0.0000
 11
2720.0000
 21
-8105.5000
 31
0.0000
  0
LINE
  5
125
  8
חלונות
 10
2820.0000
 20
-5248.5000
 30
0.0000
 11
2720.0000
 21
-5248.5000
 31
0.0000
  0
LINE
  5
126
  8
חלונות
 10
2770.0000
 20
-8105.5000
 30
0.0000
 11
2770.0000
 21
-5248.5000
 31
0.0000
  0
LINE
  5
127
  8
חלונות
 10
2770.0000
 20
-8105.5000
 30
0.0000
 11
2770.0000
 21
-5248.5000
 31
0.0000
  0
LINE
  5
128
  8
חלונות
 10
2770.0000
 20
-8105.5000
 30
0.0000
 11
2770.0000
 21
-5248.5000
 31
0.0000
  0
TEXT
  5
129
  8
חלונות - טקסט
 10
2545.0000
 20
-6677.0000
 30
0.0000
 40
125.0000
  1
W2
 50
0.0000
  7
SOLINE
 72
1
 73
2
 11
2545.0000
 21
-6677.0000
 31
0.0000
  0
LINE
  5
12A
  8
דלתות
 10
5915.9136
 20
-1782.0103
 30
0.0000
 11
7049.9119
 21
-1783.9895
 31
0.0000
  0
LINE
  5
12B
  8
דלתות
 10
7049.9119
 20
-1783.9895
 30
0.0000
 11
7050.0864
 21
-1683.9897
 31
0.0000
  0
LINE
  5
12C
  8
דלתות
 10
7050.0864
 20
-1683.9897
 30
0.0000
 11
5916.0881
 21
-1682.0105
 31
0.0000
  0
LINE
  5
12D
  8
דלתות
 10
5916.0881
 20
-1682.0105
 30
0.0000
 11
5915.9136
 21
-1782.0103
 31
0.0000
  0
LINE
  5
12E
  8
דלתות
 10
5955.9135
 20
-1782.0801
 30
0.0000
 11
5956.0881
 21
-1682.0803
 31
0.0000
  0
LINE
  5
12F
  8
דלתות
 10
7009.9119
 20
-1783.9197
 30
0.0000
 11
7010.0865
 21
-1683.9199
 31
0.0000
  0
LINE
  5
130
  8
דלתות
 10
5956.0008
 20
-1732.0802
 30
0.0000
 11
7009.9992
 21
-1733.9198
 31
0.0000
  0
LINE
  5
131
  8
דלתות
 10
5956.0008
 20
-1732.0802
 30
0.0000
 11
5954.1612
 21
-2786.0786
 31
0.0000
  0
ARC
  5
132
  8
דלתות
 10
5956.0008
 20
-1732.0802
 30
0.0000
 40
1054.0000
 50
-90.1000
 51
-0.1000
  0
TEXT
  5
133
  8
דלתות - טקסט
 10
6483.3927
 20
-1508.0003
 30
0.0000
 40
125.0000
  1
D1
 50
0.0000
  7
SOLINE
 72
1
 73
2
 11
6483.3927
 21
-1508.0003
 31
0.0000
  0
INSERT
  5
134
  8
גז
  2
SS_gas_point_20x20
 10
2770.0000
 20
-2910.0000
 30
0.0000
 41
1.0000
 42
1.0000
 43
1.0000
 50
90.0000
  0
INSERT
  5
135
  8
חשמל
  2
SS_socket_single_80x80
 10
2770.0000
 20
-2896.0000
 30
0.0000
 41
1.0000
 42
1.0000
 43
1.0000
 50
90.0000
  0
INSERT
  5
136
  8
חשמל
  2
SS_socket_duplex_160x80
 10
2770.0000
 20
-3371.0000
 30
0.0000
 41
1.0000
 42
1.0000
 43
1.0000
 50
90.0000
  0
INSERT
  5
137
  8
חשמל
  2
SS_junction_cable_20x20
 10
2770.0000
 20
-2953.0000
 30
0.0000
 41
1.0000
 42
1.0000
 43
1.0000
 50
90.0000
  0
INSERT
  5
138
  8
חשמל
  2
SS_socket_single_80x80
 10
2770.0000
 20
-6835.0000
 30
0.0000
 41
1.0000
 42
1.0000
 43
1.0000
 50
90.0000
  0
INSERT
  5
139
  8
חשמל
  2
SS_socket_single_80x80
 10
2770.0000
 20
-6835.0000
 30
0.0000
 41
1.0000
 42
1.0000
 43
1.0000
 50
90.0000
  0
INSERT
  5
13A
  8
תאורה
  2
SS_light_downlight_100x30
 10
2770.0000
 20
-2307.0000
 30
0.0000
 41
1.0000
 42
1.0000
 43
1.0000
 50
90.0000
  0
INSERT
  5
13B
  8
תאורה
  2
SS_light_downlight_100x30
 10
2770.0000
 20
-2303.0000
 30
0.0000
 41
1.0000
 42
1.0000
 43
1.0000
 50
90.0000
  0
INSERT
  5
13C
  8
חשמל
  2
SS_socket_single_80x80
 10
6114.0000
 20
-806.0000
 30
0.0000
 41
1.0000
 42
1.0000
 43
1.0000
 50
359.9000
  0
INSERT
  5
13D
  8
חשמל
  2
SS_socket_single_80x80
 10
5952.0000
 20
-806.0000
 30
0.0000
 41
1.0000
 42
1.0000
 43
1.0000
 50
359.9000
  0
INSERT
  5
13E
  8
חשמל
  2
SS_socket_duplex_160x80
 10
5512.0000
 20
-805.0000
 30
0.0000
 41
1.0000
 42
1.0000
 43
1.0000
 50
359.9000
  0
INSERT
  5
13F
  8
חשמל
  2
SS_socket_single_80x80
 10
5225.0000
 20
-804.0000
 30
0.0000
 41
1.0000
 42
1.0000
 43
1.0000
 50
359.9000
  0
INSERT
  5
140
  8
מים
  2
SS_water_faucet_20x20
 10
5067.0000
 20
-804.0000
 30
0.0000
 41
1.0000
 42
1.0000
 43
1.0000
 50
359.9000
  0
INSERT
  5
141
  8
מים
  2
SS_water_faucet_20x20
 10
4926.0000
 20
-804.0000
 30
0.0000
 41
1.0000
 42
1.0000
 43
1.0000
 50
359.9000
  0
INSERT
  5
142
  8
ניקוז
  2
SS_sewage_point_50x50
 10
4902.0000
 20
-804.0000
 30
0.0000
 41
1.0000
 42
1.0000
 43
1.0000
 50
359.9000
  0
INSERT
  5
143
  8
ניקוז
  2
SS_floor_drain_120x120
 10
4771.0000
 20
-803.0000
 30
0.0000
 41
1.0000
 42
1.0000
 43
1.0000
 50
359.9000
  0
INSERT
  5
144
  8
חשמל
  2
SS_socket_duplex_160x80
 10
4505.0000
 20
-803.0000
 30
0.0000
 41
1.0000
 42
1.0000
 43
1.0000
 50
359.9000
  0
INSERT
  5
145
  8
חשמל
  2
SS_socket_single_80x80
 10
4506.0000
 20
-803.0000
 30
0.0000
 41
1.0000
 42
1.0000
 43
1.0000
 50
359.9000
  0
INSERT
  5
146
  8
חשמל
  2
SS_socket_single_80x80
 10
3280.0000
 20
-801.0000
 30
0.0000
 41
1.0000
 42
1.0000
 43
1.0000
 50
359.9000
  0
LINE
  5
147
  8
מידות - פנים
 10
2730.0000
 20
-7043.0000
 30
0.0000
 11
2428.5000
 21
-7043.0000
 31
0.0000
  0
LINE
  5
148
  8
מידות - פנים
 10
2730.0000
 20
-5198.5000
 30
0.0000
 11
2428.5000
 21
-5198.5000
 31
0.0000
  0
LINE
  5
149
  8
מידות - פנים
 10
2482.5000
 20
-7043.0000
 30
0.0000
 11
2482.5000
 21
-5198.5000
 31
0.0000
  0
SOLID
  5
14A
  8
מידות - פנים
 10
2482.5000
 20
-7043.0000
 30
0.0000
 11
2453.7000
 21
-7146.5000
 31
0.0000
 12
2511.3000
 22
-7146.5000
 32
0.0000
 13
2511.3000
 23
-7146.5000
 33
0.0000
  0
SOLID
  5
14B
  8
מידות - פנים
 10
2482.5000
 20
-5198.5000
 30
0.0000
 11
2453.7000
 21
-5095.0000
 31
0.0000
 12
2511.3000
 22
-5095.0000
 32
0.0000
 13
2511.3000
 23
-5095.0000
 33
0.0000
  0
TEXT
  5
14C
  8
מידות - פנים
 10
2397.0000
 20
-6120.7500
 30
0.0000
 40
90.0000
  1
184.5
 50
90.0000
  7
SOLINE
 72
1
 73
2
 11
2397.0000
 21
-6120.7500
 31
0.0000
  0
LINE
  5
14D
  8
מידות - פנים
 10
2730.0000
 20
-5198.5000
 30
0.0000
 11
2428.5000
 21
-5198.5000
 31
0.0000
  0
LINE
  5
14E
  8
מידות - פנים
 10
2730.0000
 20
-3265.5000
 30
0.0000
 11
2428.5000
 21
-3265.5000
 31
0.0000
  0
LINE
  5
14F
  8
מידות - פנים
 10
2482.5000
 20
-5198.5000
 30
0.0000
 11
2482.5000
 21
-3265.5000
 31
0.0000
  0
SOLID
  5
150
  8
מידות - פנים
 10
2482.5000
 20
-5198.5000
 30
0.0000
 11
2453.7000
 21
-5302.0000
 31
0.0000
 12
2511.3000
 22
-5302.0000
 32
0.0000
 13
2511.3000
 23
-5302.0000
 33
0.0000
  0
SOLID
  5
151
  8
מידות - פנים
 10
2482.5000
 20
-3265.5000
 30
0.0000
 11
2453.7000
 21
-3162.0000
 31
0.0000
 12
2511.3000
 22
-3162.0000
 32
0.0000
 13
2511.3000
 23
-3162.0000
 33
0.0000
  0
TEXT
  5
152
  8
מידות - פנים
 10
2397.0000
 20
-4232.0000
 30
0.0000
 40
90.0000
  1
193.3
 50
90.0000
  7
SOLINE
 72
1
 73
2
 11
2397.0000
 21
-4232.0000
 31
0.0000
  0
LINE
  5
153
  8
מידות - פנים
 10
2730.0000
 20
-3265.5000
 30
0.0000
 11
2428.5000
 21
-3265.5000
 31
0.0000
  0
LINE
  5
154
  8
מידות - פנים
 10
2730.0000
 20
-2096.5000
 30
0.0000
 11
2428.5000
 21
-2096.5000
 31
0.0000
  0
LINE
  5
155
  8
מידות - פנים
 10
2482.5000
 20
-3265.5000
 30
0.0000
 11
2482.5000
 21
-2096.5000
 31
0.0000
  0
SOLID
  5
156
  8
מידות - פנים
 10
2482.5000
 20
-3265.5000
 30
0.0000
 11
2453.7000
 21
-3369.0000
 31
0.0000
 12
2511.3000
 22
-3369.0000
 32
0.0000
 13
2511.3000
 23
-3369.0000
 33
0.0000
  0
SOLID
  5
157
  8
מידות - פנים
 10
2482.5000
 20
-2096.5000
 30
0.0000
 11
2453.7000
 21
-1993.0000
 31
0.0000
 12
2511.3000
 22
-1993.0000
 32
0.0000
 13
2511.3000
 23
-1993.0000
 33
0.0000
  0
TEXT
  5
158
  8
מידות - פנים
 10
2397.0000
 20
-2681.0000
 30
0.0000
 40
90.0000
  1
116.9
 50
90.0000
  7
SOLINE
 72
1
 73
2
 11
2397.0000
 21
-2681.0000
 31
0.0000
  0
LINE
  5
159
  8
מידות - פנים
 10
2730.0000
 20
-2096.5000
 30
0.0000
 11
2428.5000
 21
-2096.5000
 31
0.0000
  0
LINE
  5
15A
  8
מידות - פנים
 10
2730.0000
 20
-800.0000
 30
0.0000
 11
2428.5000
 21
-800.0000
 31
0.0000
  0
LINE
  5
15B
  8
מידות - פנים
 10
2482.5000
 20
-2096.5000
 30
0.0000
 11
2482.5000
 21
-800.0000
 31
0.0000
  0
SOLID
  5
15C
  8
מידות - פנים
 10
2482.5000
 20
-2096.5000
 30
0.0000
 11
2453.7000
 21
-2200.0000
 31
0.0000
 12
2511.3000
 22
-2200.0000
 32
0.0000
 13
2511.3000
 23
-2200.0000
 33
0.0000
  0
SOLID
  5
15D
  8
מידות - פנים
 10
2482.5000
 20
-800.0000
 30
0.0000
 11
2453.7000
 21
-696.5000
 31
0.0000
 12
2511.3000
 22
-696.5000
 32
0.0000
 13
2511.3000
 23
-696.5000
 33
0.0000
  0
TEXT
  5
15E
  8
מידות - פנים
 10
2397.0000
 20
-1448.2500
 30
0.0000
 40
90.0000
  1
129.7
 50
90.0000
  7
SOLINE
 72
1
 73
2
 11
2397.0000
 21
-1448.2500
 31
0.0000
  0
LINE
  5
15F
  8
מידות - פנים
 10
6363.4464
 20
-1693.2731
 30
0.0000
 11
6363.9726
 21
-1391.7736
 31
0.0000
  0
LINE
  5
160
  8
מידות - פנים
 10
7050.0681
 20
-1694.4715
 30
0.0000
 11
7050.5943
 21
-1392.9719
 31
0.0000
  0
LINE
  5
161
  8
מידות - פנים
 10
6363.8784
 20
-1445.7735
 30
0.0000
 11
7050.5001
 21
-1446.9719
 31
0.0000
  0
SOLID
  5
162
  8
מידות - פנים
 10
6363.8784
 20
-1445.7735
 30
0.0000
 11
6260.4288
 21
-1416.7929
 31
0.0000
 12
6260.3283
 22
-1474.3928
 32
0.0000
 13
6260.3283
 23
-1474.3928
 33
0.0000
  0
SOLID
  5
163
  8
מידות - פנים
 10
7050.5001
 20
-1446.9719
 30
0.0000
 11
7154.0502
 21
-1418.3525
 31
0.0000
 12
7153.9497
 22
-1475.9525
 32
0.0000
 13
7153.9497
 23
-1475.9525
 33
0.0000
  0
TEXT
  5
164
  8
מידות - פנים
 10
6707.3385
 20
-1360.8728
 30
0.0000
 40
90.0000
  1
68.7
 50
-0.1000
  7
SOLINE
 72
1
 73
2
 11
6707.3385
 21
-1360.8728
 31
0.0000
  0
LINE
  5
165
  8
מידות - פנים
 10
7050.0681
 20
-1694.4715
 30
0.0000
 11
7050.5943
 21
-1392.9719
 31
0.0000
  0
LINE
  5
166
  8
מידות - פנים
 10
7617.4445
 20
-1695.4617
 30
0.0000
 11
7617.9707
 21
-1393.9622
 31
0.0000
  0
LINE
  5
167
  8
מידות - פנים
 10
7050.5001
 20
-1446.9719
 30
0.0000
 11
7617.8765
 21
-1447.9621
 31
0.0000
  0
SOLID
  5
168
  8
מידות - פנים
 10
7050.5001
 20
-1446.9719
 30
0.0000
 11
6947.0505
 21
-1417.9913
 31
0.0000
 12
6946.9500
 22
-1475.5912
 32
0.0000
 13
6946.9500
 23
-1475.5912
 33
0.0000
  0
SOLID
  5
169
  8
מידות - פנים
 10
7617.8765
 20
-1447.9621
 30
0.0000
 11
7721.4266
 21
-1419.3428
 31
0.0000
 12
7721.3261
 22
-1476.9427
 32
0.0000
 13
7721.3261
 23
-1476.9427
 33
0.0000
  0
TEXT
  5
16A
  8
מידות - פנים
 10
7334.3375
 20
-1361.9671
 30
0.0000
 40
90.0000
  1
56.7
 50
-0.1000
  7
SOLINE
 72
1
 73
2
 11
7334.3375
 21
-1361.9671
 31
0.0000
  0
LINE
  5
16B
  8
מידות - פנים
 10
2770.0873
 20
-750.0001
 30
0.0000
 11
2770.8727
 21
-300.0008
 31
0.0000
  0
LINE
  5
16C
  8
מידות - פנים
 10
6365.0818
 20
-756.2745
 30
0.0000
 11
6365.8672
 21
-306.2752
 31
0.0000
  0
LINE
  5
16D
  8
מידות - פנים
 10
2770.7418
 20
-375.0006
 30
0.0000
 11
6365.7363
 21
-381.2751
 31
0.0000
  0
SOLID
  5
16E
  8
מידות - פנים
 10
2770.7418
 20
-375.0006
 30
0.0000
 11
2627.0618
 21
-334.7498
 31
0.0000
 12
2626.9222
 22
-414.7497
 32
0.0000
 13
2626.9222
 23
-414.7497
 33
0.0000
  0
SOLID
  5
16F
  8
מידות - פנים
 10
6365.7363
 20
-381.2751
 30
0.0000
 11
6509.5559
 21
-341.5261
 31
0.0000
 12
6509.4163
 22
-421.5259
 32
0.0000
 13
6509.4163
 23
-421.5259
 33
0.0000
  0
TEXT
  5
170
  8
מידות - פנים
 10
4568.4463
 20
-259.3881
 30
0.0000
 40
125.0000
  1
359.5
 50
-0.1000
  7
SOLINE
 72
1
 73
2
 11
4568.4463
 21
-259.3881
 31
0.0000
  0
LINE
  5
171
  8
מידות - פנים
 10
6414.9944
 20
-806.3617
 30
0.0000
 11
6864.9938
 21
-807.1471
 31
0.0000
  0
LINE
  5
172
  8
מידות - פנים
 10
6413.3765
 20
-1733.3603
 30
0.0000
 11
6863.3758
 21
-1734.1457
 31
0.0000
  0
LINE
  5
173
  8
מידות - פנים
 10
6789.9939
 20
-807.0162
 30
0.0000
 11
6788.3760
 21
-1734.0148
 31
0.0000
  0
SOLID
  5
174
  8
מידות - פנים
 10
6789.9939
 20
-807.0162
 30
0.0000
 11
6830.2447
 21
-663.3363
 31
0.0000
 12
6750.2448
 22
-663.1966
 32
0.0000
 13
6750.2448
 23
-663.1966
 33
0.0000
  0
SOLID
  5
175
  8
מידות - פנים
 10
6788.3760
 20
-1734.0148
 30
0.0000
 11
6828.1250
 21
-1877.8344
 31
0.0000
 12
6748.1251
 22
-1877.6948
 32
0.0000
 13
6748.1251
 23
-1877.6948
 33
0.0000
  0
TEXT
  5
176
  8
מידות - פנים
 10
6907.9347
 20
-1270.7228
 30
0.0000
 40
125.0000
  1
92.7
 50
89.9000
  7
SOLINE
 72
1
 73
2
 11
6907.9347
 21
-1270.7228
 31
0.0000
  0
LINE
  5
177
  8
מידות - פנים
 10
6363.4639
 20
-1683.2731
 30
0.0000
 11
6364.2493
 21
-1233.2738
 31
0.0000
  0
LINE
  5
178
  8
מידות - פנים
 10
7617.4620
 20
-1685.4618
 30
0.0000
 11
7618.2474
 21
-1235.4624
 31
0.0000
  0
LINE
  5
179
  8
מידות - פנים
 10
6364.1184
 20
-1308.2737
 30
0.0000
 11
7618.1165
 21
-1310.4623
 31
0.0000
  0
SOLID
  5
17A
  8
מידות - פנים
 10
6364.1184
 20
-1308.2737
 30
0.0000
 11
6220.4384
 21
-1268.0229
 31
0.0000
 12
6220.2988
 22
-1348.0227
 32
0.0000
 13
6220.2988
 23
-1348.0227
 33
0.0000
  0
SOLID
  5
17B
  8
מידות - פנים
 10
7618.1165
 20
-1310.4623
 30
0.0000
 11
7761.9361
 21
-1270.7133
 31
0.0000
 12
7761.7964
 22
-1350.7132
 32
0.0000
 13
7761.7964
 23
-1350.7132
 33
0.0000
  0
TEXT
  5
17C
  8
מידות - פנים
 10
6991.3247
 20
-1190.6182
 30
0.0000
 40
125.0000
  1
125.4
 50
-0.1000
  7
SOLINE
 72
1
 73
2
 11
6991.3247
 21
-1190.6182
 31
0.0000
  0
LINE
  5
17D
  8
מידות - פנים
 10
2770.0000
 20
-7093.0000
 30
0.0000
 11
2770.0000
 21
-7968.0000
 31
0.0000
  0
LINE
  5
17E
  8
מידות - פנים
 10
7617.3747
 20
-7093.0000
 30
0.0000
 11
7617.3747
 21
-7968.0000
 31
0.0000
  0
LINE
  5
17F
  8
מידות - פנים
 10
2770.0000
 20
-7893.0000
 30
0.0000
 11
7617.3747
 21
-7893.0000
 31
0.0000
  0
SOLID
  5
180
  8
מידות - פנים
 10
2770.0000
 20
-7893.0000
 30
0.0000
 11
2626.2500
 21
-7933.0000
 31
0.0000
 12
2626.2500
 22
-7853.0000
 32
0.0000
 13
2626.2500
 23
-7853.0000
 33
0.0000
  0
SOLID
  5
181
  8
מידות - פנים
 10
7617.3747
 20
-7893.0000
 30
0.0000
 11
7761.1247
 21
-7933.0000
 31
0.0000
 12
7761.1247
 22
-7853.0000
 32
0.0000
 13
7761.1247
 23
-7853.0000
 33
0.0000
  0
TEXT
  5
182
  8
מידות - פנים
 10
5193.6873
 20
-8011.7500
 30
0.0000
 40
125.0000
  1
484.7
 50
0.0000
  7
SOLINE
 72
1
 73
2
 11
5193.6873
 21
-8011.7500
 31
0.0000
  0
LINE
  5
183
  8
מידות - פנים
 10
2720.0000
 20
-7043.0000
 30
0.0000
 11
1845.0000
 21
-7043.0000
 31
0.0000
  0
LINE
  5
184
  8
מידות - פנים
 10
2720.0000
 20
-800.0000
 30
0.0000
 11
1845.0000
 21
-800.0000
 31
0.0000
  0
LINE
  5
185
  8
מידות - פנים
 10
1920.0000
 20
-7043.0000
 30
0.0000
 11
1920.0000
 21
-800.0000
 31
0.0000
  0
SOLID
  5
186
  8
מידות - פנים
 10
1920.0000
 20
-7043.0000
 30
0.0000
 11
1880.0000
 21
-7186.7500
 31
0.0000
 12
1960.0000
 22
-7186.7500
 32
0.0000
 13
1960.0000
 23
-7186.7500
 33
0.0000
  0
SOLID
  5
187
  8
מידות - פנים
 10
1920.0000
 20
-800.0000
 30
0.0000
 11
1880.0000
 21
-656.2500
 31
0.0000
 12
1960.0000
 22
-656.2500
 32
0.0000
 13
1960.0000
 23
-656.2500
 33
0.0000
  0
TEXT
  5
188
  8
מידות - פנים
 10
1801.2500
 20
-3921.5000
 30
0.0000
 40
125.0000
  1
624.3
 50
90.0000
  7
SOLINE
 72
1
 73
2
 11
1801.2500
 21
-3921.5000
 31
0.0000
  0
LINE
  5
189
  8
מידות - חוץ
 10
2670.0000
 20
-7093.0000
 30
0.0000
 11
2670.0000
 21
-8718.0000
 31
0.0000
  0
LINE
  5
18A
  8
מידות - חוץ
 10
7617.5492
 20
-7093.0000
 30
0.0000
 11
7617.5492
 21
-8718.0000
 31
0.0000
  0
LINE
  5
18B
  8
מידות - חוץ
 10
2670.0000
 20
-8643.0000
 30
0.0000
 11
7617.5492
 21
-8643.0000
 31
0.0000
  0
SOLID
  5
18C
  8
מידות - חוץ
 10
2670.0000
 20
-8643.0000
 30
0.0000
 11
2526.2500
 21
-8683.0000
 31
0.0000
 12
2526.2500
 22
-8603.0000
 32
0.0000
 13
2526.2500
 23
-8603.0000
 33
0.0000
  0
SOLID
  5
18D
  8
מידות - חוץ
 10
7617.5492
 20
-8643.0000
 30
0.0000
 11
7761.2992
 21
-8683.0000
 31
0.0000
 12
7761.2992
 22
-8603.0000
 32
0.0000
 13
7761.2992
 23
-8603.0000
 33
0.0000
  0
TEXT
  5
18E
  8
מידות - חוץ
 10
5143.7746
 20
-8761.7500
 30
0.0000
 40
125.0000
  1
494.8
 50
0.0000
  7
SOLINE
 72
1
 73
2
 11
5143.7746
 21
-8761.7500
 31
0.0000
  0
LINE
  5
18F
  8
מידות - חוץ
 10
2620.0000
 20
-7043.0000
 30
0.0000
 11
995.0000
 21
-7043.0000
 31
0.0000
  0
LINE
  5
190
  8
מידות - חוץ
 10
2620.0000
 20
-699.8253
 30
0.0000
 11
995.0000
 21
-699.8253
 31
0.0000
  0
LINE
  5
191
  8
מידות - חוץ
 10
1070.0000
 20
-7043.0000
 30
0.0000
 11
1070.0000
 21
-699.8253
 31
0.0000
  0
SOLID
  5
192
  8
מידות - חוץ
 10
1070.0000
 20
-7043.0000
 30
0.0000
 11
1030.0000
 21
-7186.7500
 31
0.0000
 12
1110.0000
 22
-7186.7500
 32
0.0000
 13
1110.0000
 23
-7186.7500
 33
0.0000
  0
SOLID
  5
193
  8
מידות - חוץ
 10
1070.0000
 20
-699.8253
 30
0.0000
 11
1030.0000
 21
-556.0753
 31
0.0000
 12
1110.0000
 22
-556.0753
 32
0.0000
 13
1110.0000
 23
-556.0753
 33
0.0000
  0
TEXT
  5
194
  8
מידות - חוץ
 10
951.2500
 20
-3871.4127
 30
0.0000
 40
125.0000
  1
634.3
 50
90.0000
  7
SOLINE
 72
1
 73
2
 11
951.2500
 21
-3871.4127
 31
0.0000
  0
LINE
  5
195
  8
מסגרת
 10
9117.3747
 20
-599.0000
 30
0.0000
 11
11867.3747
 21
-599.0000
 31
0.0000
  0
LINE
  5
196
  8
מסגרת
 10
11867.3747
 20
-599.0000
 30
0.0000
 11
11867.3747
 21
-3987.1250
 31
0.0000
  0
LINE
  5
197
  8
מסגרת
 10
11867.3747
 20
-3987.1250
 30
0.0000
 11
9117.3747
 21
-3987.1250
 31
0.0000
  0
LINE
  5
198
  8
מסגרת
 10
9117.3747
 20
-3987.1250
 30
0.0000
 11
9117.3747
 21
-599.0000
 31
0.0000
  0
LINE
  5
199
  8
מסגרת
 10
9117.3747
 20
-1159.6250
 30
0.0000
 11
11867.3747
 21
-1159.6250
 31
0.0000
  0
LINE
  5
19A
  8
מסגרת
 10
9192.3747
 20
-1097.1250
 30
0.0000
 11
9767.3747
 21
-1097.1250
 31
0.0000
  0
LINE
  5
19B
  8
מסגרת
 10
9767.3747
 20
-1097.1250
 30
0.0000
 11
9767.3747
 21
-661.5000
 31
0.0000
  0
LINE
  5
19C
  8
מסגרת
 10
9767.3747
 20
-661.5000
 30
0.0000
 11
9192.3747
 21
-661.5000
 31
0.0000
  0
LINE
  5
19D
  8
מסגרת
 10
9192.3747
 20
-661.5000
 30
0.0000
 11
9192.3747
 21
-1097.1250
 31
0.0000
  0
TEXT
  5
19E
  8
מסגרת
 10
9842.3747
 20
-845.6750
 30
0.0000
 40
250.0000
  1
SOLINE
 50
0.0000
  7
SOLINE
 73
2
 11
9842.3747
 21
-845.6750
 31
0.0000
  0
TEXT
  5
19F
  8
מקרא
 10
9479.8747
 20
-1058.7125
 30
0.0000
 40
68.7500
  1
brand/soline-logo.png
 50
0.0000
  7
SOLINE
 72
1
 73
2
 11
9479.8747
 21
-1058.7125
 31
0.0000
  0
TEXT
  5
1A0
  8
מסגרת
 10
9192.3747
 20
-1330.2500
 30
0.0000
 40
102.5000
  1
Project:
 50
0.0000
  7
SOLINE
 73
2
 11
9192.3747
 21
-1330.2500
 31
0.0000
  0
TEXT
  5
1A1
  8
מסגרת
 10
11792.3747
 20
-1330.2500
 30
0.0000
 40
110.0000
  1
2854_Ktchn_TRIO_Nir_DR1
 50
0.0000
  7
SOLINE
 72
2
 73
2
 11
11792.3747
 21
-1330.2500
 31
0.0000
  0
TEXT
  5
1A2
  8
מסגרת
 10
9192.3747
 20
-1574.0000
 30
0.0000
 40
102.5000
  1
Client:
 50
0.0000
  7
SOLINE
 73
2
 11
9192.3747
 21
-1574.0000
 31
0.0000
  0
TEXT
  5
1A3
  8
מסגרת
 10
11792.3747
 20
-1574.0000
 30
0.0000
 40
110.0000
  1
-
 50
0.0000
  7
SOLINE
 72
2
 73
2
 11
11792.3747
 21
-1574.0000
 31
0.0000
  0
TEXT
  5
1A4
  8
מסגרת
 10
9192.3747
 20
-1817.7500
 30
0.0000
 40
102.5000
  1
Address:
 50
0.0000
  7
SOLINE
 73
2
 11
9192.3747
 21
-1817.7500
 31
0.0000
  0
TEXT
  5
1A5
  8
מסגרת
 10
11792.3747
 20
-1817.7500
 30
0.0000
 40
110.0000
  1
-
 50
0.0000
  7
SOLINE
 72
2
 73
2
 11
11792.3747
 21
-1817.7500
 31
0.0000
  0
TEXT
  5
1A6
  8
מסגרת
 10
9192.3747
 20
-2061.5000
 30
0.0000
 40
102.5000
  1
Drawing:
 50
0.0000
  7
SOLINE
 73
2
 11
9192.3747
 21
-2061.5000
 31
0.0000
  0
TEXT
  5
1A7
  8
מסגרת
 10
11792.3747
 20
-2061.5000
 30
0.0000
 40
110.0000
  1
Measurement Plan
 50
0.0000
  7
SOLINE
 72
2
 73
2
 11
11792.3747
 21
-2061.5000
 31
0.0000
  0
TEXT
  5
1A8
  8
מסגרת
 10
9192.3747
 20
-2305.2500
 30
0.0000
 40
102.5000
  1
Scale:
 50
0.0000
  7
SOLINE
 73
2
 11
9192.3747
 21
-2305.2500
 31
0.0000
  0
TEXT
  5
1A9
  8
מסגרת
 10
11792.3747
 20
-2305.2500
 30
0.0000
 40
110.0000
  1
1:50  (mm)
 50
0.0000
  7
SOLINE
 72
2
 73
2
 11
11792.3747
 21
-2305.2500
 31
0.0000
  0
TEXT
  5
1AA
  8
מסגרת
 10
9192.3747
 20
-2549.0000
 30
0.0000
 40
102.5000
  1
Date:
 50
0.0000
  7
SOLINE
 73
2
 11
9192.3747
 21
-2549.0000
 31
0.0000
  0
TEXT
  5
1AB
  8
מסגרת
 10
11792.3747
 20
-2549.0000
 30
0.0000
 40
110.0000
  1
2026-08-24
 50
0.0000
  7
SOLINE
 72
2
 73
2
 11
11792.3747
 21
-2549.0000
 31
0.0000
  0
TEXT
  5
1AC
  8
מסגרת
 10
9192.3747
 20
-2792.7500
 30
0.0000
 40
102.5000
  1
Surveyor:
 50
0.0000
  7
SOLINE
 73
2
 11
9192.3747
 21
-2792.7500
 31
0.0000
  0
TEXT
  5
1AD
  8
מסגרת
 10
11792.3747
 20
-2792.7500
 30
0.0000
 40
110.0000
  1
-
 50
0.0000
  7
SOLINE
 72
2
 73
2
 11
11792.3747
 21
-2792.7500
 31
0.0000
  0
TEXT
  5
1AE
  8
מסגרת
 10
9192.3747
 20
-3036.5000
 30
0.0000
 40
102.5000
  1
Checked:
 50
0.0000
  7
SOLINE
 73
2
 11
9192.3747
 21
-3036.5000
 31
0.0000
  0
TEXT
  5
1AF
  8
מסגרת
 10
11792.3747
 20
-3036.5000
 30
0.0000
 40
110.0000
  1
-
 50
0.0000
  7
SOLINE
 72
2
 73
2
 11
11792.3747
 21
-3036.5000
 31
0.0000
  0
TEXT
  5
1B0
  8
מסגרת
 10
9192.3747
 20
-3280.2500
 30
0.0000
 40
102.5000
  1
Drawing No:
 50
0.0000
  7
SOLINE
 73
2
 11
9192.3747
 21
-3280.2500
 31
0.0000
  0
TEXT
  5
1B1
  8
מסגרת
 10
11792.3747
 20
-3280.2500
 30
0.0000
 40
110.0000
  1
M-01
 50
0.0000
  7
SOLINE
 72
2
 73
2
 11
11792.3747
 21
-3280.2500
 31
0.0000
  0
TEXT
  5
1B2
  8
מסגרת
 10
9192.3747
 20
-3524.0000
 30
0.0000
 40
102.5000
  1
Sheet:
 50
0.0000
  7
SOLINE
 73
2
 11
9192.3747
 21
-3524.0000
 31
0.0000
  0
TEXT
  5
1B3
  8
מסגרת
 10
11792.3747
 20
-3524.0000
 30
0.0000
 40
110.0000
  1
1/1
 50
0.0000
  7
SOLINE
 72
2
 73
2
 11
11792.3747
 21
-3524.0000
 31
0.0000
  0
TEXT
  5
1B4
  8
מסגרת
 10
9192.3747
 20
-3767.7500
 30
0.0000
 40
102.5000
  1
Revision:
 50
0.0000
  7
SOLINE
 73
2
 11
9192.3747
 21
-3767.7500
 31
0.0000
  0
TEXT
  5
1B5
  8
מסגרת
 10
11792.3747
 20
-3767.7500
 30
0.0000
 40
110.0000
  1
0
 50
0.0000
  7
SOLINE
 72
2
 73
2
 11
11792.3747
 21
-3767.7500
 31
0.0000
  0
LINE
  5
1B6
  8
מסגרת
 10
9117.3747
 20
-4262.1250
 30
0.0000
 11
11867.3747
 21
-4262.1250
 31
0.0000
  0
LINE
  5
1B7
  8
מסגרת
 10
11867.3747
 20
-4262.1250
 30
0.0000
 11
11867.3747
 21
-5942.1250
 31
0.0000
  0
LINE
  5
1B8
  8
מסגרת
 10
11867.3747
 20
-5942.1250
 30
0.0000
 11
9117.3747
 21
-5942.1250
 31
0.0000
  0
LINE
  5
1B9
  8
מסגרת
 10
9117.3747
 20
-5942.1250
 30
0.0000
 11
9117.3747
 21
-4262.1250
 31
0.0000
  0
LINE
  5
1BA
  8
מסגרת
 10
9117.3747
 20
-4622.1250
 30
0.0000
 11
11867.3747
 21
-4622.1250
 31
0.0000
  0
TEXT
  5
1BB
  8
מקרא
 10
11792.3747
 20
-4478.1250
 30
0.0000
 40
175.0000
  1
טבלת מפרט פתחים
 50
0.0000
  7
SOLINE
 72
2
 73
2
 11
11792.3747
 21
-4478.1250
 31
0.0000
  0
TEXT
  5
1BC
  8
מקרא
 10
11784.8747
 20
-4802.1250
 30
0.0000
 40
112.5000
  1
מס'
 50
0.0000
  7
SOLINE
 72
2
 73
2
 11
11784.8747
 21
-4802.1250
 31
0.0000
  0
TEXT
  5
1BD
  8
מקרא
 10
11317.3747
 20
-4802.1250
 30
0.0000
 40
112.5000
  1
סוג
 50
0.0000
  7
SOLINE
 72
2
 73
2
 11
11317.3747
 21
-4802.1250
 31
0.0000
  0
TEXT
  5
1BE
  8
מקרא
 10
10629.8747
 20
-4802.1250
 30
0.0000
 40
112.5000
  1
רוחבxגובה
 50
0.0000
  7
SOLINE
 72
2
 73
2
 11
10629.8747
 21
-4802.1250
 31
0.0000
  0
TEXT
  5
1BF
  8
מקרא
 10
9997.3747
 20
-4802.1250
 30
0.0000
 40
112.5000
  1
כיוון
 50
0.0000
  7
SOLINE
 72
2
 73
2
 11
9997.3747
 21
-4802.1250
 31
0.0000
  0
TEXT
  5
1C0
  8
מקרא
 10
9474.8747
 20
-4802.1250
 30
0.0000
 40
112.5000
  1
כמות
 50
0.0000
  7
SOLINE
 72
2
 73
2
 11
9474.8747
 21
-4802.1250
 31
0.0000
  0
LINE
  5
1C1
  8
מקרא
 10
9167.3747
 20
-4967.1250
 30
0.0000
 11
11817.3747
 21
-4967.1250
 31
0.0000
  0
TEXT
  5
1C2
  8
מסגרת
 10
11784.8747
 20
-5102.1250
 30
0.0000
 40
112.5000
  1
D1
 50
0.0000
  7
SOLINE
 72
2
 73
2
 11
11784.8747
 21
-5102.1250
 31
0.0000
  0
TEXT
  5
1C3
  8
מקרא
 10
11317.3747
 20
-5102.1250
 30
0.0000
 40
112.5000
  1
מלבן דלת
 50
0.0000
  7
SOLINE
 72
2
 73
2
 11
11317.3747
 21
-5102.1250
 31
0.0000
  0
TEXT
  5
1C4
  8
מסגרת
 10
10629.8747
 20
-5102.1250
 30
0.0000
 40
112.5000
  1
1134x2638
 50
0.0000
  7
SOLINE
 72
2
 73
2
 11
10629.8747
 21
-5102.1250
 31
0.0000
  0
TEXT
  5
1C5
  8
מקרא
 10
9997.3747
 20
-5102.1250
 30
0.0000
 40
112.5000
  1
-
 50
0.0000
  7
SOLINE
 72
2
 73
2
 11
9997.3747
 21
-5102.1250
 31
0.0000
  0
TEXT
  5
1C6
  8
מסגרת
 10
9474.8747
 20
-5102.1250
 30
0.0000
 40
112.5000
  1
x1
 50
0.0000
  7
SOLINE
 72
2
 73
2
 11
9474.8747
 21
-5102.1250
 31
0.0000
  0
TEXT
  5
1C7
  8
מסגרת
 10
11784.8747
 20
-5402.1250
 30
0.0000
 40
112.5000
  1
W1
 50
0.0000
  7
SOLINE
 72
2
 73
2
 11
11784.8747
 21
-5402.1250
 31
0.0000
  0
TEXT
  5
1C8
  8
מקרא
 10
11317.3747
 20
-5402.1250
 30
0.0000
 40
112.5000
  1
חלון
 50
0.0000
  7
SOLINE
 72
2
 73
2
 11
11317.3747
 21
-5402.1250
 31
0.0000
  0
TEXT
  5
1C9
  8
מסגרת
 10
10629.8747
 20
-5402.1250
 30
0.0000
 40
112.5000
  1
1169x1332
 50
0.0000
  7
SOLINE
 72
2
 73
2
 11
10629.8747
 21
-5402.1250
 31
0.0000
  0
TEXT
  5
1CA
  8
מקרא
 10
9997.3747
 20
-5402.1250
 30
0.0000
 40
112.5000
  1
-
 50
0.0000
  7
SOLINE
 72
2
 73
2
 11
9997.3747
 21
-5402.1250
 31
0.0000
  0
TEXT
  5
1CB
  8
מסגרת
 10
9474.8747
 20
-5402.1250
 30
0.0000
 40
112.5000
  1
x1
 50
0.0000
  7
SOLINE
 72
2
 73
2
 11
9474.8747
 21
-5402.1250
 31
0.0000
  0
TEXT
  5
1CC
  8
מסגרת
 10
11784.8747
 20
-5702.1250
 30
0.0000
 40
112.5000
  1
W2
 50
0.0000
  7
SOLINE
 72
2
 73
2
 11
11784.8747
 21
-5702.1250
 31
0.0000
  0
TEXT
  5
1CD
  8
מקרא
 10
11317.3747
 20
-5702.1250
 30
0.0000
 40
112.5000
  1
חלון
 50
0.0000
  7
SOLINE
 72
2
 73
2
 11
11317.3747
 21
-5702.1250
 31
0.0000
  0
TEXT
  5
1CE
  8
מסגרת
 10
10629.8747
 20
-5702.1250
 30
0.0000
 40
112.5000
  1
2957x2390
 50
0.0000
  7
SOLINE
 72
2
 73
2
 11
10629.8747
 21
-5702.1250
 31
0.0000
  0
TEXT
  5
1CF
  8
מקרא
 10
9997.3747
 20
-5702.1250
 30
0.0000
 40
112.5000
  1
-
 50
0.0000
  7
SOLINE
 72
2
 73
2
 11
9997.3747
 21
-5702.1250
 31
0.0000
  0
TEXT
  5
1D0
  8
מסגרת
 10
9474.8747
 20
-5702.1250
 30
0.0000
 40
112.5000
  1
x1
 50
0.0000
  7
SOLINE
 72
2
 73
2
 11
9474.8747
 21
-5702.1250
 31
0.0000
  0
LINE
  5
1D1
  8
מסגרת
 10
9117.3747
 20
-6217.1250
 30
0.0000
 11
11867.3747
 21
-6217.1250
 31
0.0000
  0
LINE
  5
1D2
  8
מסגרת
 10
11867.3747
 20
-6217.1250
 30
0.0000
 11
11867.3747
 21
-12327.1250
 31
0.0000
  0
LINE
  5
1D3
  8
מסגרת
 10
11867.3747
 20
-12327.1250
 30
0.0000
 11
9117.3747
 21
-12327.1250
 31
0.0000
  0
LINE
  5
1D4
  8
מסגרת
 10
9117.3747
 20
-12327.1250
 30
0.0000
 11
9117.3747
 21
-6217.1250
 31
0.0000
  0
LINE
  5
1D5
  8
מסגרת
 10
9117.3747
 20
-6607.1250
 30
0.0000
 11
11867.3747
 21
-6607.1250
 31
0.0000
  0
TEXT
  5
1D6
  8
מקרא
 10
11792.3747
 20
-6451.1250
 30
0.0000
 40
175.0000
  1
מקרא וספירת אלמנטים
 50
0.0000
  7
SOLINE
 72
2
 73
2
 11
11792.3747
 21
-6451.1250
 31
0.0000
  0
TEXT
  5
1D7
  8
מקרא
 10
11792.3747
 20
-6785.8750
 30
0.0000
 40
131.2500
  1
דלת  (1)
 50
0.0000
  7
SOLINE
 72
2
 73
2
 11
11792.3747
 21
-6785.8750
 31
0.0000
  0
LINE
  5
1D8
  8
דלתות
 10
9292.4997
 20
-7200.1250
 30
0.0000
 11
9292.4997
 21
-7170.3750
 31
0.0000
  0
LINE
  5
1D9
  8
דלתות
 10
9492.2497
 20
-7200.1250
 30
0.0000
 11
9492.2497
 21
-7170.3750
 31
0.0000
  0
LINE
  5
1DA
  8
דלתות
 10
9292.4997
 20
-7170.3750
 30
0.0000
 11
9492.2497
 21
-7170.3750
 31
0.0000
  0
TEXT
  5
1DB
  8
מקרא
 10
9692.3747
 20
-7110.8750
 30
0.0000
 40
112.5000
  1
x1
 50
0.0000
  7
SOLINE
 73
2
 11
9692.3747
 21
-7110.8750
 31
0.0000
  0
TEXT
  5
1DC
  8
מקרא
 10
11792.3747
 20
-7110.8750
 30
0.0000
 40
125.0000
  1
פתח דלת (ללא משקוף)
 50
0.0000
  7
SOLINE
 72
2
 73
2
 11
11792.3747
 21
-7110.8750
 31
0.0000
  0
TEXT
  5
1DD
  8
מקרא
 10
11792.3747
 20
-7435.8750
 30
0.0000
 40
131.2500
  1
ניקוז  (2)
 50
0.0000
  7
SOLINE
 72
2
 73
2
 11
11792.3747
 21
-7435.8750
 31
0.0000
  0
LINE
  5
1DE
  8
ניקוז
 10
9392.3747
 20
-7850.1250
 30
0.0000
 11
9392.3747
 21
-7684.3750
 31
0.0000
  0
ARC
  5
1DF
  8
ניקוז
 10
9392.3747
 20
-7743.8750
 30
0.0000
 40
63.7500
 50
0.0000
 51
360.0000
  0
LINE
  5
1E0
  8
ניקוז
 10
9354.1247
 20
-7756.6250
 30
0.0000
 11
9375.3747
 21
-7731.1250
 31
0.0000
  0
LINE
  5
1E1
  8
ניקוז
 10
9375.3747
 20
-7731.1250
 30
0.0000
 11
9392.3747
 21
-7756.6250
 31
0.0000
  0
LINE
  5
1E2
  8
ניקוז
 10
9392.3747
 20
-7756.6250
 30
0.0000
 11
9409.3747
 21
-7731.1250
 31
0.0000
  0
LINE
  5
1E3
  8
ניקוז
 10
9409.3747
 20
-7731.1250
 30
0.0000
 11
9430.6247
 21
-7756.6250
 31
0.0000
  0
TEXT
  5
1E4
  8
מקרא
 10
9692.3747
 20
-7760.8750
 30
0.0000
 40
112.5000
  1
x1
 50
0.0000
  7
SOLINE
 73
2
 11
9692.3747
 21
-7760.8750
 31
0.0000
  0
TEXT
  5
1E5
  8
מקרא
 10
11792.3747
 20
-7760.8750
 30
0.0000
 40
125.0000
  1
Sewage
 50
0.0000
  7
SOLINE
 72
2
 73
2
 11
11792.3747
 21
-7760.8750
 31
0.0000
  0
LINE
  5
1E6
  8
ניקוז
 10
9324.3747
 20
-8000.8750
 30
0.0000
 11
9460.3747
 21
-8000.8750
 31
0.0000
  0
LINE
  5
1E7
  8
ניקוז
 10
9460.3747
 20
-8000.8750
 30
0.0000
 11
9460.3747
 21
-8136.8750
 31
0.0000
  0
LINE
  5
1E8
  8
ניקוז
 10
9460.3747
 20
-8136.8750
 30
0.0000
 11
9324.3747
 21
-8136.8750
 31
0.0000
  0
LINE
  5
1E9
  8
ניקוז
 10
9324.3747
 20
-8136.8750
 30
0.0000
 11
9324.3747
 21
-8000.8750
 31
0.0000
  0
LINE
  5
1EA
  8
ניקוז
 10
9324.3747
 20
-8000.8750
 30
0.0000
 11
9460.3747
 21
-8136.8750
 31
0.0000
  0
LINE
  5
1EB
  8
ניקוז
 10
9460.3747
 20
-8000.8750
 30
0.0000
 11
9324.3747
 21
-8136.8750
 31
0.0000
  0
ARC
  5
1EC
  8
ניקוז
 10
9392.3747
 20
-8068.8750
 30
0.0000
 40
21.2500
 50
0.0000
 51
360.0000
  0
TEXT
  5
1ED
  8
מקרא
 10
9692.3747
 20
-8085.8750
 30
0.0000
 40
112.5000
  1
x1
 50
0.0000
  7
SOLINE
 73
2
 11
9692.3747
 21
-8085.8750
 31
0.0000
  0
TEXT
  5
1EE
  8
מקרא
 10
11792.3747
 20
-8085.8750
 30
0.0000
 40
125.0000
  1
Sewer drainage
 50
0.0000
  7
SOLINE
 72
2
 73
2
 11
11792.3747
 21
-8085.8750
 31
0.0000
  0
TEXT
  5
1EF
  8
מקרא
 10
11792.3747
 20
-8410.8750
 30
0.0000
 40
131.2500
  1
חשמל  (12)
 50
0.0000
  7
SOLINE
 72
2
 73
2
 11
11792.3747
 21
-8410.8750
 31
0.0000
  0
LINE
  5
1F0
  8
חשמל
 10
9392.3747
 20
-8825.1250
 30
0.0000
 11
9392.3747
 21
-8727.3750
 31
0.0000
  0
LINE
  5
1F1
  8
חשמל
 10
9324.3747
 20
-8727.3750
 30
0.0000
 11
9324.8023
 21
-8719.7614
 31
0.0000
  0
LINE
  5
1F2
  8
חשמל
 10
9324.8023
 20
-8719.7614
 30
0.0000
 11
9326.0796
 21
-8712.2436
 31
0.0000
  0
LINE
  5
1F3
  8
חשמל
 10
9326.0796
 20
-8712.2436
 30
0.0000
 11
9328.1906
 21
-8704.9160
 31
0.0000
  0
LINE
  5
1F4
  8
חשמל
 10
9328.1906
 20
-8704.9160
 30
0.0000
 11
9331.1088
 21
-8697.8709
 31
0.0000
  0
LINE
  5
1F5
  8
חשמל
 10
9331.1088
 20
-8697.8709
 30
0.0000
 11
9334.7974
 21
-8691.1968
 31
0.0000
  0
LINE
  5
1F6
  8
חשמל
 10
9334.7974
 20
-8691.1968
 30
0.0000
 11
9339.2102
 21
-8684.9777
 31
0.0000
  0
LINE
  5
1F7
  8
חשמל
 10
9339.2102
 20
-8684.9777
 30
0.0000
 11
9344.2914
 21
-8679.2917
 31
0.0000
  0
LINE
  5
1F8
  8
חשמל
 10
9344.2914
 20
-8679.2917
 30
0.0000
 11
9349.9774
 21
-8674.2105
 31
0.0000
  0
LINE
  5
1F9
  8
חשמל
 10
9349.9774
 20
-8674.2105
 30
0.0000
 11
9356.1965
 21
-8669.7978
 31
0.0000
  0
LINE
  5
1FA
  8
חשמל
 10
9356.1965
 20
-8669.7978
 30
0.0000
 11
9362.8706
 21
-8666.1091
 31
0.0000
  0
LINE
  5
1FB
  8
חשמל
 10
9362.8706
 20
-8666.1091
 30
0.0000
 11
9369.9157
 21
-8663.1909
 31
0.0000
  0
LINE
  5
1FC
  8
חשמל
 10
9369.9157
 20
-8663.1909
 30
0.0000
 11
9377.2433
 21
-8661.0799
 31
0.0000
  0
LINE
  5
1FD
  8
חשמל
 10
9377.2433
 20
-8661.0799
 30
0.0000
 11
9384.7611
 21
-8659.8026
 31
0.0000
  0
LINE
  5
1FE
  8
חשמל
 10
9384.7611
 20
-8659.8026
 30
0.0000
 11
9392.3747
 21
-8659.3750
 31
0.0000
  0
LINE
  5
1FF
  8
חשמל
 10
9392.3747
 20
-8659.3750
 30
0.0000
 11
9399.9883
 21
-8659.8026
 31
0.0000
  0
LINE
  5
200
  8
חשמל
 10
9399.9883
 20
-8659.8026
 30
0.0000
 11
9407.5061
 21
-8661.0799
 31
0.0000
  0
LINE
  5
201
  8
חשמל
 10
9407.5061
 20
-8661.0799
 30
0.0000
 11
9414.8337
 21
-8663.1909
 31
0.0000
  0
LINE
  5
202
  8
חשמל
 10
9414.8337
 20
-8663.1909
 30
0.0000
 11
9421.8788
 21
-8666.1091
 31
0.0000
  0
LINE
  5
203
  8
חשמל
 10
9421.8788
 20
-8666.1091
 30
0.0000
 11
9428.5529
 21
-8669.7978
 31
0.0000
  0
LINE
  5
204
  8
חשמל
 10
9428.5529
 20
-8669.7978
 30
0.0000
 11
9434.7720
 21
-8674.2105
 31
0.0000
  0
LINE
  5
205
  8
חשמל
 10
9434.7720
 20
-8674.2105
 30
0.0000
 11
9440.4580
 21
-8679.2917
 31
0.0000
  0
LINE
  5
206
  8
חשמל
 10
9440.4580
 20
-8679.2917
 30
0.0000
 11
9445.5392
 21
-8684.9777
 31
0.0000
  0
LINE
  5
207
  8
חשמל
 10
9445.5392
 20
-8684.9777
 30
0.0000
 11
9449.9519
 21
-8691.1968
 31
0.0000
  0
LINE
  5
208
  8
חשמל
 10
9449.9519
 20
-8691.1968
 30
0.0000
 11
9453.6406
 21
-8697.8709
 31
0.0000
  0
LINE
  5
209
  8
חשמל
 10
9453.6406
 20
-8697.8709
 30
0.0000
 11
9456.5588
 21
-8704.9160
 31
0.0000
  0
LINE
  5
20A
  8
חשמל
 10
9456.5588
 20
-8704.9160
 30
0.0000
 11
9458.6698
 21
-8712.2436
 31
0.0000
  0
LINE
  5
20B
  8
חשמל
 10
9458.6698
 20
-8712.2436
 30
0.0000
 11
9459.9471
 21
-8719.7614
 31
0.0000
  0
LINE
  5
20C
  8
חשמל
 10
9459.9471
 20
-8719.7614
 30
0.0000
 11
9460.3747
 21
-8727.3750
 31
0.0000
  0
LINE
  5
20D
  8
חשמל
 10
9324.3747
 20
-8727.3750
 30
0.0000
 11
9460.3747
 21
-8727.3750
 31
0.0000
  0
TEXT
  5
20E
  8
מקרא
 10
9692.3747
 20
-8735.8750
 30
0.0000
 40
112.5000
  1
x8
 50
0.0000
  7
SOLINE
 73
2
 11
9692.3747
 21
-8735.8750
 31
0.0000
  0
TEXT
  5
20F
  8
מקרא
 10
11792.3747
 20
-8735.8750
 30
0.0000
 40
125.0000
  1
Socket
 50
0.0000
  7
SOLINE
 72
2
 73
2
 11
11792.3747
 21
-8735.8750
 31
0.0000
  0
LINE
  5
210
  8
חשמל
 10
9392.3747
 20
-9150.1250
 30
0.0000
 11
9392.3747
 21
-9052.3750
 31
0.0000
  0
LINE
  5
211
  8
חשמל
 10
9287.3147
 20
-9052.3750
 30
0.0000
 11
9287.6354
 21
-9046.6648
 31
0.0000
  0
LINE
  5
212
  8
חשמל
 10
9287.6354
 20
-9046.6648
 30
0.0000
 11
9288.5934
 21
-9041.0264
 31
0.0000
  0
LINE
  5
213
  8
חשמל
 10
9288.5934
 20
-9041.0264
 30
0.0000
 11
9290.1766
 21
-9035.5308
 31
0.0000
  0
LINE
  5
214
  8
חשמל
 10
9290.1766
 20
-9035.5308
 30
0.0000
 11
9292.3653
 21
-9030.2469
 31
0.0000
  0
LINE
  5
215
  8
חשמל
 10
9292.3653
 20
-9030.2469
 30
0.0000
 11
9295.1318
 21
-9025.2414
 31
0.0000
  0
LINE
  5
216
  8
חשמל
 10
9295.1318
 20
-9025.2414
 30
0.0000
 11
9298.4413
 21
-9020.5770
 31
0.0000
  0
LINE
  5
217
  8
חשמל
 10
9298.4413
 20
-9020.5770
 30
0.0000
 11
9302.2522
 21
-9016.3126
 31
0.0000
  0
LINE
  5
218
  8
חשמל
 10
9302.2522
 20
-9016.3126
 30
0.0000
 11
9306.5167
 21
-9012.5016
 31
0.0000
  0
LINE
  5
219
  8
חשמל
 10
9306.5167
 20
-9012.5016
 30
0.0000
 11
9311.1811
 21
-9009.1921
 31
0.0000
  0
LINE
  5
21A
  8
חשמל
 10
9311.1811
 20
-9009.1921
 30
0.0000
 11
9316.1866
 21
-9006.4256
 31
0.0000
  0
LINE
  5
21B
  8
חשמל
 10
9316.1866
 20
-9006.4256
 30
0.0000
 11
9321.4705
 21
-9004.2370
 31
0.0000
  0
LINE
  5
21C
  8
חשמל
 10
9321.4705
 20
-9004.2370
 30
0.0000
 11
9326.9661
 21
-9002.6537
 31
0.0000
  0
LINE
  5
21D
  8
חשמל
 10
9326.9661
 20
-9002.6537
 30
0.0000
 11
9332.6045
 21
-9001.6957
 31
0.0000
  0
LINE
  5
21E
  8
חשמל
 10
9332.6045
 20
-9001.6957
 30
0.0000
 11
9338.3147
 21
-9001.3750
 31
0.0000
  0
LINE
  5
21F
  8
חשמל
 10
9338.3147
 20
-9001.3750
 30
0.0000
 11
9344.0249
 21
-9001.6957
 31
0.0000
  0
LINE
  5
220
  8
חשמל
 10
9344.0249
 20
-9001.6957
 30
0.0000
 11
9349.6633
 21
-9002.6537
 31
0.0000
  0
LINE
  5
221
  8
חשמל
 10
9349.6633
 20
-9002.6537
 30
0.0000
 11
9355.1589
 21
-9004.2370
 31
0.0000
  0
LINE
  5
222
  8
חשמל
 10
9355.1589
 20
-9004.2370
 30
0.0000
 11
9360.4428
 21
-9006.4256
 31
0.0000
  0
LINE
  5
223
  8
חשמל
 10
9360.4428
 20
-9006.4256
 30
0.0000
 11
9365.4483
 21
-9009.1921
 31
0.0000
  0
LINE
  5
224
  8
חשמל
 10
9365.4483
 20
-9009.1921
 30
0.0000
 11
9370.1127
 21
-9012.5016
 31
0.0000
  0
LINE
  5
225
  8
חשמל
 10
9370.1127
 20
-9012.5016
 30
0.0000
 11
9374.3771
 21
-9016.3126
 31
0.0000
  0
LINE
  5
226
  8
חשמל
 10
9374.3771
 20
-9016.3126
 30
0.0000
 11
9378.1881
 21
-9020.5770
 31
0.0000
  0
LINE
  5
227
  8
חשמל
 10
9378.1881
 20
-9020.5770
 30
0.0000
 11
9381.4976
 21
-9025.2414
 31
0.0000
  0
LINE
  5
228
  8
חשמל
 10
9381.4976
 20
-9025.2414
 30
0.0000
 11
9384.2641
 21
-9030.2469
 31
0.0000
  0
LINE
  5
229
  8
חשמל
 10
9384.2641
 20
-9030.2469
 30
0.0000
 11
9386.4527
 21
-9035.5308
 31
0.0000
  0
LINE
  5
22A
  8
חשמל
 10
9386.4527
 20
-9035.5308
 30
0.0000
 11
9388.0360
 21
-9041.0264
 31
0.0000
  0
LINE
  5
22B
  8
חשמל
 10
9388.0360
 20
-9041.0264
 30
0.0000
 11
9388.9940
 21
-9046.6648
 31
0.0000
  0
LINE
  5
22C
  8
חשמל
 10
9388.9940
 20
-9046.6648
 30
0.0000
 11
9389.3147
 21
-9052.3750
 31
0.0000
  0
LINE
  5
22D
  8
חשמל
 10
9287.3147
 20
-9052.3750
 30
0.0000
 11
9389.3147
 21
-9052.3750
 31
0.0000
  0
LINE
  5
22E
  8
חשמל
 10
9395.4347
 20
-9052.3750
 30
0.0000
 11
9395.7554
 21
-9046.6648
 31
0.0000
  0
LINE
  5
22F
  8
חשמל
 10
9395.7554
 20
-9046.6648
 30
0.0000
 11
9396.7134
 21
-9041.0264
 31
0.0000
  0
LINE
  5
230
  8
חשמל
 10
9396.7134
 20
-9041.0264
 30
0.0000
 11
9398.2966
 21
-9035.5308
 31
0.0000
  0
LINE
  5
231
  8
חשמל
 10
9398.2966
 20
-9035.5308
 30
0.0000
 11
9400.4853
 21
-9030.2469
 31
0.0000
  0
LINE
  5
232
  8
חשמל
 10
9400.4853
 20
-9030.2469
 30
0.0000
 11
9403.2518
 21
-9025.2414
 31
0.0000
  0
LINE
  5
233
  8
חשמל
 10
9403.2518
 20
-9025.2414
 30
0.0000
 11
9406.5613
 21
-9020.5770
 31
0.0000
  0
LINE
  5
234
  8
חשמל
 10
9406.5613
 20
-9020.5770
 30
0.0000
 11
9410.3722
 21
-9016.3126
 31
0.0000
  0
LINE
  5
235
  8
חשמל
 10
9410.3722
 20
-9016.3126
 30
0.0000
 11
9414.6367
 21
-9012.5016
 31
0.0000
  0
LINE
  5
236
  8
חשמל
 10
9414.6367
 20
-9012.5016
 30
0.0000
 11
9419.3011
 21
-9009.1921
 31
0.0000
  0
LINE
  5
237
  8
חשמל
 10
9419.3011
 20
-9009.1921
 30
0.0000
 11
9424.3066
 21
-9006.4256
 31
0.0000
  0
LINE
  5
238
  8
חשמל
 10
9424.3066
 20
-9006.4256
 30
0.0000
 11
9429.5905
 21
-9004.2370
 31
0.0000
  0
LINE
  5
239
  8
חשמל
 10
9429.5905
 20
-9004.2370
 30
0.0000
 11
9435.0861
 21
-9002.6537
 31
0.0000
  0
LINE
  5
23A
  8
חשמל
 10
9435.0861
 20
-9002.6537
 30
0.0000
 11
9440.7245
 21
-9001.6957
 31
0.0000
  0
LINE
  5
23B
  8
חשמל
 10
9440.7245
 20
-9001.6957
 30
0.0000
 11
9446.4347
 21
-9001.3750
 31
0.0000
  0
LINE
  5
23C
  8
חשמל
 10
9446.4347
 20
-9001.3750
 30
0.0000
 11
9452.1449
 21
-9001.6957
 31
0.0000
  0
LINE
  5
23D
  8
חשמל
 10
9452.1449
 20
-9001.6957
 30
0.0000
 11
9457.7833
 21
-9002.6537
 31
0.0000
  0
LINE
  5
23E
  8
חשמל
 10
9457.7833
 20
-9002.6537
 30
0.0000
 11
9463.2789
 21
-9004.2370
 31
0.0000
  0
LINE
  5
23F
  8
חשמל
 10
9463.2789
 20
-9004.2370
 30
0.0000
 11
9468.5628
 21
-9006.4256
 31
0.0000
  0
LINE
  5
240
  8
חשמל
 10
9468.5628
 20
-9006.4256
 30
0.0000
 11
9473.5683
 21
-9009.1921
 31
0.0000
  0
LINE
  5
241
  8
חשמל
 10
9473.5683
 20
-9009.1921
 30
0.0000
 11
9478.2327
 21
-9012.5016
 31
0.0000
  0
LINE
  5
242
  8
חשמל
 10
9478.2327
 20
-9012.5016
 30
0.0000
 11
9482.4971
 21
-9016.3126
 31
0.0000
  0
LINE
  5
243
  8
חשמל
 10
9482.4971
 20
-9016.3126
 30
0.0000
 11
9486.3081
 21
-9020.5770
 31
0.0000
  0
LINE
  5
244
  8
חשמל
 10
9486.3081
 20
-9020.5770
 30
0.0000
 11
9489.6176
 21
-9025.2414
 31
0.0000
  0
LINE
  5
245
  8
חשמל
 10
9489.6176
 20
-9025.2414
 30
0.0000
 11
9492.3841
 21
-9030.2469
 31
0.0000
  0
LINE
  5
246
  8
חשמל
 10
9492.3841
 20
-9030.2469
 30
0.0000
 11
9494.5727
 21
-9035.5308
 31
0.0000
  0
LINE
  5
247
  8
חשמל
 10
9494.5727
 20
-9035.5308
 30
0.0000
 11
9496.1560
 21
-9041.0264
 31
0.0000
  0
LINE
  5
248
  8
חשמל
 10
9496.1560
 20
-9041.0264
 30
0.0000
 11
9497.1140
 21
-9046.6648
 31
0.0000
  0
LINE
  5
249
  8
חשמל
 10
9497.1140
 20
-9046.6648
 30
0.0000
 11
9497.4347
 21
-9052.3750
 31
0.0000
  0
LINE
  5
24A
  8
חשמל
 10
9395.4347
 20
-9052.3750
 30
0.0000
 11
9497.4347
 21
-9052.3750
 31
0.0000
  0
TEXT
  5
24B
  8
מקרא
 10
9692.3747
 20
-9060.8750
 30
0.0000
 40
112.5000
  1
x3
 50
0.0000
  7
SOLINE
 73
2
 11
9692.3747
 21
-9060.8750
 31
0.0000
  0
TEXT
  5
24C
  8
מקרא
 10
11792.3747
 20
-9060.8750
 30
0.0000
 40
125.0000
  1
שקע כפול
 50
0.0000
  7
SOLINE
 72
2
 73
2
 11
11792.3747
 21
-9060.8750
 31
0.0000
  0
LINE
  5
24D
  8
חשמל
 10
9392.3747
 20
-9475.1250
 30
0.0000
 11
9392.3747
 21
-9309.3750
 31
0.0000
  0
ARC
  5
24E
  8
חשמל
 10
9392.3747
 20
-9373.1250
 30
0.0000
 40
68.0000
 50
0.0000
 51
360.0000
  0
LINE
  5
24F
  8
חשמל
 10
9392.3747
 20
-9373.1250
 30
0.0000
 11
9345.6247
 21
-9326.3750
 31
0.0000
  0
LINE
  5
250
  8
חשמל
 10
9392.3747
 20
-9373.1250
 30
0.0000
 11
9439.1247
 21
-9326.3750
 31
0.0000
  0
LINE
  5
251
  8
חשמל
 10
9392.3747
 20
-9373.1250
 30
0.0000
 11
9345.6247
 21
-9419.8750
 31
0.0000
  0
LINE
  5
252
  8
חשמל
 10
9392.3747
 20
-9373.1250
 30
0.0000
 11
9439.1247
 21
-9419.8750
 31
0.0000
  0
TEXT
  5
253
  8
מקרא
 10
9692.3747
 20
-9385.8750
 30
0.0000
 40
112.5000
  1
x1
 50
0.0000
  7
SOLINE
 73
2
 11
9692.3747
 21
-9385.8750
 31
0.0000
  0
TEXT
  5
254
  8
מקרא
 10
11792.3747
 20
-9385.8750
 30
0.0000
 40
125.0000
  1
Power Line
 50
0.0000
  7
SOLINE
 72
2
 73
2
 11
11792.3747
 21
-9385.8750
 31
0.0000
  0
TEXT
  5
255
  8
מקרא
 10
11792.3747
 20
-9710.8750
 30
0.0000
 40
131.2500
  1
גז  (1)
 50
0.0000
  7
SOLINE
 72
2
 73
2
 11
11792.3747
 21
-9710.8750
 31
0.0000
  0
LINE
  5
256
  8
גז
 10
9392.3747
 20
-10125.1250
 30
0.0000
 11
9392.3747
 21
-10082.6250
 31
0.0000
  0
LINE
  5
257
  8
גז
 10
9392.3747
 20
-9955.1250
 30
0.0000
 11
9447.6247
 21
-9987.0000
 31
0.0000
  0
LINE
  5
258
  8
גז
 10
9447.6247
 20
-9987.0000
 30
0.0000
 11
9447.6247
 21
-10050.7500
 31
0.0000
  0
LINE
  5
259
  8
גז
 10
9447.6247
 20
-10050.7500
 30
0.0000
 11
9392.3747
 21
-10082.6250
 31
0.0000
  0
LINE
  5
25A
  8
גז
 10
9392.3747
 20
-10082.6250
 30
0.0000
 11
9337.1247
 21
-10050.7500
 31
0.0000
  0
LINE
  5
25B
  8
גז
 10
9337.1247
 20
-10050.7500
 30
0.0000
 11
9337.1247
 21
-9987.0000
 31
0.0000
  0
LINE
  5
25C
  8
גז
 10
9337.1247
 20
-9987.0000
 30
0.0000
 11
9392.3747
 21
-9955.1250
 31
0.0000
  0
TEXT
  5
25D
  8
גז
 10
9392.3747
 20
-10018.8750
 30
0.0000
 40
59.5000
  1
G
 50
0.0000
  7
SOLINE
 72
1
 73
2
 11
9392.3747
 21
-10018.8750
 31
0.0000
  0
TEXT
  5
25E
  8
מקרא
 10
9692.3747
 20
-10035.8750
 30
0.0000
 40
112.5000
  1
x1
 50
0.0000
  7
SOLINE
 73
2
 11
9692.3747
 21
-10035.8750
 31
0.0000
  0
TEXT
  5
25F
  8
מקרא
 10
11792.3747
 20
-10035.8750
 30
0.0000
 40
125.0000
  1
Gas
 50
0.0000
  7
SOLINE
 72
2
 73
2
 11
11792.3747
 21
-10035.8750
 31
0.0000
  0
TEXT
  5
260
  8
מקרא
 10
11792.3747
 20
-10360.8750
 30
0.0000
 40
131.2500
  1
תאורה  (2)
 50
0.0000
  7
SOLINE
 72
2
 73
2
 11
11792.3747
 21
-10360.8750
 31
0.0000
  0
ARC
  5
261
  8
תאורה
 10
9392.3747
 20
-10668.8750
 30
0.0000
 40
63.7500
 50
0.0000
 51
360.0000
  0
LINE
  5
262
  8
תאורה
 10
9347.7497
 20
-10624.2500
 30
0.0000
 11
9436.9997
 21
-10713.5000
 31
0.0000
  0
LINE
  5
263
  8
תאורה
 10
9436.9997
 20
-10624.2500
 30
0.0000
 11
9347.7497
 21
-10713.5000
 31
0.0000
  0
TEXT
  5
264
  8
מקרא
 10
9692.3747
 20
-10685.8750
 30
0.0000
 40
112.5000
  1
x2
 50
0.0000
  7
SOLINE
 73
2
 11
9692.3747
 21
-10685.8750
 31
0.0000
  0
TEXT
  5
265
  8
מקרא
 10
11792.3747
 20
-10685.8750
 30
0.0000
 40
125.0000
  1
Can Light
 50
0.0000
  7
SOLINE
 72
2
 73
2
 11
11792.3747
 21
-10685.8750
 31
0.0000
  0
TEXT
  5
266
  8
מקרא
 10
11792.3747
 20
-11010.8750
 30
0.0000
 40
131.2500
  1
מים  (2)
 50
0.0000
  7
SOLINE
 72
2
 73
2
 11
11792.3747
 21
-11010.8750
 31
0.0000
  0
LINE
  5
267
  8
מים
 10
9392.3747
 20
-11425.1250
 30
0.0000
 11
9392.3747
 21
-11365.6250
 31
0.0000
  0
LINE
  5
268
  8
מים
 10
9345.6247
 20
-11272.1250
 30
0.0000
 11
9439.1247
 21
-11272.1250
 31
0.0000
  0
LINE
  5
269
  8
מים
 10
9439.1247
 20
-11272.1250
 30
0.0000
 11
9392.3747
 21
-11318.8750
 31
0.0000
  0
LINE
  5
26A
  8
מים
 10
9392.3747
 20
-11318.8750
 30
0.0000
 11
9345.6247
 21
-11272.1250
 31
0.0000
  0
LINE
  5
26B
  8
מים
 10
9345.6247
 20
-11365.6250
 30
0.0000
 11
9439.1247
 21
-11365.6250
 31
0.0000
  0
LINE
  5
26C
  8
מים
 10
9439.1247
 20
-11365.6250
 30
0.0000
 11
9392.3747
 21
-11318.8750
 31
0.0000
  0
LINE
  5
26D
  8
מים
 10
9392.3747
 20
-11318.8750
 30
0.0000
 11
9345.6247
 21
-11365.6250
 31
0.0000
  0
ARC
  5
26E
  8
מים
 10
9392.3747
 20
-11318.8750
 30
0.0000
 40
9.5625
 50
0.0000
 51
360.0000
  0
TEXT
  5
26F
  8
מקרא
 10
9692.3747
 20
-11335.8750
 30
0.0000
 40
112.5000
  1
x2
 50
0.0000
  7
SOLINE
 73
2
 11
9692.3747
 21
-11335.8750
 31
0.0000
  0
TEXT
  5
270
  8
מקרא
 10
11792.3747
 20
-11335.8750
 30
0.0000
 40
125.0000
  1
Faucet
 50
0.0000
  7
SOLINE
 72
2
 73
2
 11
11792.3747
 21
-11335.8750
 31
0.0000
  0
TEXT
  5
271
  8
מקרא
 10
11792.3747
 20
-11660.8750
 30
0.0000
 40
131.2500
  1
חלון  (2)
 50
0.0000
  7
SOLINE
 72
2
 73
2
 11
11792.3747
 21
-11660.8750
 31
0.0000
  0
LINE
  5
272
  8
חלונות
 10
9286.1247
 20
-11939.1250
 30
0.0000
 11
9498.6247
 21
-11939.1250
 31
0.0000
  0
LINE
  5
273
  8
חלונות
 10
9498.6247
 20
-11939.1250
 30
0.0000
 11
9498.6247
 21
-11998.6250
 31
0.0000
  0
LINE
  5
274
  8
חלונות
 10
9498.6247
 20
-11998.6250
 30
0.0000
 11
9286.1247
 21
-11998.6250
 31
0.0000
  0
LINE
  5
275
  8
חלונות
 10
9286.1247
 20
-11998.6250
 30
0.0000
 11
9286.1247
 21
-11939.1250
 31
0.0000
  0
LINE
  5
276
  8
חלונות
 10
9286.1247
 20
-11959.3550
 30
0.0000
 11
9498.6247
 21
-11959.3550
 31
0.0000
  0
LINE
  5
277
  8
חלונות
 10
9286.1247
 20
-11978.3950
 30
0.0000
 11
9498.6247
 21
-11978.3950
 31
0.0000
  0
TEXT
  5
278
  8
מקרא
 10
9692.3747
 20
-11985.8750
 30
0.0000
 40
112.5000
  1
x2
 50
0.0000
  7
SOLINE
 73
2
 11
9692.3747
 21
-11985.8750
 31
0.0000
  0
TEXT
  5
279
  8
מקרא
 10
11792.3747
 20
-11985.8750
 30
0.0000
 40
125.0000
  1
חלון
 50
0.0000
  7
SOLINE
 72
2
 73
2
 11
11792.3747
 21
-11985.8750
 31
0.0000
  0
LINE
  5
27A
  8
מסגרת
 10
10492.3747
 20
-12852.1250
 30
0.0000
 11
10492.3747
 21
-12227.1250
 31
0.0000
  0
SOLID
  5
27B
  8
מסגרת
 10
10492.3747
 20
-12227.1250
 30
0.0000
 11
10429.8747
 21
-12352.1250
 31
0.0000
 12
10554.8747
 22
-12352.1250
 32
0.0000
 13
10554.8747
 23
-12352.1250
 33
0.0000
  0
TEXT
  5
27C
  8
מסגרת
 10
10492.3747
 20
-12189.6250
 30
0.0000
 40
137.5000
  1
N
 50
0.0000
  7
SOLINE
 72
1
 73
3
 11
10492.3747
 21
-12189.6250
 31
0.0000
  0
LINE
  5
27D
  8
מסגרת
 10
10117.3747
 20
-13039.6250
 30
0.0000
 11
10917.3747
 21
-13039.6250
 31
0.0000
  0
LINE
  5
27E
  8
מסגרת
 10
10117.3747
 20
-13039.6250
 30
0.0000
 11
10117.3747
 21
-13102.1250
 31
0.0000
  0
LINE
  5
27F
  8
מסגרת
 10
10317.3747
 20
-13039.6250
 30
0.0000
 11
10317.3747
 21
-13102.1250
 31
0.0000
  0
LINE
  5
280
  8
מסגרת
 10
10517.3747
 20
-13039.6250
 30
0.0000
 11
10517.3747
 21
-13102.1250
 31
0.0000
  0
LINE
  5
281
  8
מסגרת
 10
10717.3747
 20
-13039.6250
 30
0.0000
 11
10717.3747
 21
-13102.1250
 31
0.0000
  0
LINE
  5
282
  8
מסגרת
 10
10917.3747
 20
-13039.6250
 30
0.0000
 11
10917.3747
 21
-13102.1250
 31
0.0000
  0
TEXT
  5
283
  8
מסגרת
 10
10117.3747
 20
-13239.6250
 30
0.0000
 40
87.5000
  1
0
 50
0.0000
  7
SOLINE
 72
1
 11
10117.3747
 21
-13239.6250
 31
0.0000
  0
TEXT
  5
284
  8
מסגרת
 10
10917.3747
 20
-13239.6250
 30
0.0000
 40
87.5000
  1
0.8 m
 50
0.0000
  7
SOLINE
 72
2
 11
10917.3747
 21
-13239.6250
 31
0.0000
  0
LINE
  5
285
  8
קירות
 10
-187.0000
 20
-15272.0000
 30
0.0000
 11
6056.0000
 21
-15272.0000
 31
0.0000
  0
LINE
  5
286
  8
קירות
 10
6056.0000
 20
-15272.0000
 30
0.0000
 11
6056.0000
 21
-12634.0000
 31
0.0000
  0
LINE
  5
287
  8
קירות
 10
6056.0000
 20
-12634.0000
 30
0.0000
 11
-187.0000
 21
-12634.0000
 31
0.0000
  0
LINE
  5
288
  8
קירות
 10
-187.0000
 20
-12634.0000
 30
0.0000
 11
-187.0000
 21
-15272.0000
 31
0.0000
  0
LINE
  5
289
  8
מידות - חוץ
 10
-187.0000
 20
-15322.0000
 30
0.0000
 11
-187.0000
 21
-15722.0000
 31
0.0000
  0
LINE
  5
28A
  8
מידות - חוץ
 10
6056.0000
 20
-15322.0000
 30
0.0000
 11
6056.0000
 21
-15722.0000
 31
0.0000
  0
LINE
  5
28B
  8
מידות - חוץ
 10
-187.0000
 20
-15647.0000
 30
0.0000
 11
6056.0000
 21
-15647.0000
 31
0.0000
  0
SOLID
  5
28C
  8
מידות - חוץ
 10
-187.0000
 20
-15647.0000
 30
0.0000
 11
-330.7500
 21
-15687.0000
 31
0.0000
 12
-330.7500
 22
-15607.0000
 32
0.0000
 13
-330.7500
 23
-15607.0000
 33
0.0000
  0
SOLID
  5
28D
  8
מידות - חוץ
 10
6056.0000
 20
-15647.0000
 30
0.0000
 11
6199.7500
 21
-15687.0000
 31
0.0000
 12
6199.7500
 22
-15607.0000
 32
0.0000
 13
6199.7500
 23
-15607.0000
 33
0.0000
  0
TEXT
  5
28E
  8
מידות - חוץ
 10
2934.5000
 20
-15765.7500
 30
0.0000
 40
125.0000
  1
624.3
 50
0.0000
  7
SOLINE
 72
1
 73
2
 11
2934.5000
 21
-15765.7500
 31
0.0000
  0
LINE
  5
28F
  8
מידות - חוץ
 10
-237.0000
 20
-15272.0000
 30
0.0000
 11
-637.0000
 21
-15272.0000
 31
0.0000
  0
LINE
  5
290
  8
מידות - חוץ
 10
-237.0000
 20
-12634.0000
 30
0.0000
 11
-637.0000
 21
-12634.0000
 31
0.0000
  0
LINE
  5
291
  8
מידות - חוץ
 10
-562.0000
 20
-15272.0000
 30
0.0000
 11
-562.0000
 21
-12634.0000
 31
0.0000
  0
SOLID
  5
292
  8
מידות - חוץ
 10
-562.0000
 20
-15272.0000
 30
0.0000
 11
-602.0000
 21
-15415.7500
 31
0.0000
 12
-522.0000
 22
-15415.7500
 32
0.0000
 13
-522.0000
 23
-15415.7500
 33
0.0000
  0
SOLID
  5
293
  8
מידות - חוץ
 10
-562.0000
 20
-12634.0000
 30
0.0000
 11
-602.0000
 21
-12490.2500
 31
0.0000
 12
-522.0000
 22
-12490.2500
 32
0.0000
 13
-522.0000
 23
-12490.2500
 33
0.0000
  0
TEXT
  5
294
  8
מידות - חוץ
 10
-680.7500
 20
-13953.0000
 30
0.0000
 40
125.0000
  1
263.8
 50
90.0000
  7
SOLINE
 72
1
 73
2
 11
-680.7500
 21
-13953.0000
 31
0.0000
  0
LINE
  5
295
  8
גז
 10
3936.0000
 20
-15272.0000
 30
0.0000
 11
3956.0000
 21
-15272.0000
 31
0.0000
  0
LINE
  5
296
  8
גז
 10
3956.0000
 20
-15272.0000
 30
0.0000
 11
3956.0000
 21
-15252.0000
 31
0.0000
  0
LINE
  5
297
  8
גז
 10
3956.0000
 20
-15252.0000
 30
0.0000
 11
3936.0000
 21
-15252.0000
 31
0.0000
  0
LINE
  5
298
  8
גז
 10
3936.0000
 20
-15252.0000
 30
0.0000
 11
3936.0000
 21
-15272.0000
 31
0.0000
  0
LINE
  5
299
  8
גז
 10
3946.0000
 20
-15272.0000
 30
0.0000
 11
3946.0000
 21
-15268.0000
 31
0.0000
  0
LINE
  5
29A
  8
גז
 10
3946.0000
 20
-15256.0000
 30
0.0000
 11
3951.2000
 21
-15259.0000
 31
0.0000
  0
LINE
  5
29B
  8
גז
 10
3951.2000
 20
-15259.0000
 30
0.0000
 11
3951.2000
 21
-15265.0000
 31
0.0000
  0
LINE
  5
29C
  8
גז
 10
3951.2000
 20
-15265.0000
 30
0.0000
 11
3946.0000
 21
-15268.0000
 31
0.0000
  0
LINE
  5
29D
  8
גז
 10
3946.0000
 20
-15268.0000
 30
0.0000
 11
3940.8000
 21
-15265.0000
 31
0.0000
  0
LINE
  5
29E
  8
גז
 10
3940.8000
 20
-15265.0000
 30
0.0000
 11
3940.8000
 21
-15259.0000
 31
0.0000
  0
LINE
  5
29F
  8
גז
 10
3940.8000
 20
-15259.0000
 30
0.0000
 11
3946.0000
 21
-15256.0000
 31
0.0000
  0
TEXT
  5
2A0
  8
גז
 10
3946.0000
 20
-15262.0000
 30
0.0000
 40
24.0000
  1
G
 50
0.0000
  7
SOLINE
 72
1
 73
2
 11
3946.0000
 21
-15262.0000
 31
0.0000
  0
LINE
  5
2A1
  8
גז - מידות
 10
6056.0000
 20
-15232.0000
 30
0.0000
 11
6056.0000
 21
-14399.5000
 31
0.0000
  0
LINE
  5
2A2
  8
גז - מידות
 10
3946.0000
 20
-15232.0000
 30
0.0000
 11
3946.0000
 21
-14399.5000
 31
0.0000
  0
LINE
  5
2A3
  8
גז - מידות
 10
6056.0000
 20
-14459.5000
 30
0.0000
 11
3946.0000
 21
-14459.5000
 31
0.0000
  0
SOLID
  5
2A4
  8
גז - מידות
 10
6056.0000
 20
-14459.5000
 30
0.0000
 11
6171.0000
 21
-14427.5000
 31
0.0000
 12
6171.0000
 22
-14491.5000
 32
0.0000
 13
6171.0000
 23
-14491.5000
 33
0.0000
  0
SOLID
  5
2A5
  8
גז - מידות
 10
3946.0000
 20
-14459.5000
 30
0.0000
 11
3831.0000
 21
-14427.5000
 31
0.0000
 12
3831.0000
 22
-14491.5000
 32
0.0000
 13
3831.0000
 23
-14491.5000
 33
0.0000
  0
TEXT
  5
2A6
  8
גז - מידות
 10
5001.0000
 20
-14364.5000
 30
0.0000
 40
100.0000
  1
211
 50
360.0000
  7
SOLINE
 72
1
 73
2
 11
5001.0000
 21
-14364.5000
 31
0.0000
  0
LINE
  5
2A7
  8
גז - מידות
 10
3946.0000
 20
-15272.0000
 30
0.0000
 11
3946.0000
 21
-15272.0000
 31
0.0000
  0
LINE
  5
2A8
  8
גז - מידות
 10
3946.0000
 20
-15272.0000
 30
0.0000
 11
3946.0000
 21
-15272.0000
 31
0.0000
  0
LINE
  5
2A9
  8
גז - מידות
 10
3946.0000
 20
-15272.0000
 30
0.0000
 11
3946.0000
 21
-15272.0000
 31
0.0000
  0
SOLID
  5
2AA
  8
גז - מידות
 10
3946.0000
 20
-15272.0000
 30
0.0000
 11
3946.0000
 21
-15272.0000
 31
0.0000
 12
3946.0000
 22
-15272.0000
 32
0.0000
 13
3946.0000
 23
-15272.0000
 33
0.0000
  0
SOLID
  5
2AB
  8
גז - מידות
 10
3946.0000
 20
-15272.0000
 30
0.0000
 11
3946.0000
 21
-15272.0000
 31
0.0000
 12
3946.0000
 22
-15272.0000
 32
0.0000
 13
3946.0000
 23
-15272.0000
 33
0.0000
  0
TEXT
  5
2AC
  8
גז - מידות
 10
3946.0000
 20
-15272.0000
 30
0.0000
 40
100.0000
  1
0.1
 50
0.0000
  7
SOLINE
 72
1
 73
2
 11
3946.0000
 21
-15272.0000
 31
0.0000
  0
LINE
  5
2AD
  8
חשמל
 10
3920.0000
 20
-14213.0000
 30
0.0000
 11
4000.0000
 21
-14213.0000
 31
0.0000
  0
LINE
  5
2AE
  8
חשמל
 10
4000.0000
 20
-14213.0000
 30
0.0000
 11
4000.0000
 21
-14133.0000
 31
0.0000
  0
LINE
  5
2AF
  8
חשמל
 10
4000.0000
 20
-14133.0000
 30
0.0000
 11
3920.0000
 21
-14133.0000
 31
0.0000
  0
LINE
  5
2B0
  8
חשמל
 10
3920.0000
 20
-14133.0000
 30
0.0000
 11
3920.0000
 21
-14213.0000
 31
0.0000
  0
LINE
  5
2B1
  8
חשמל
 10
3960.0000
 20
-14213.0000
 30
0.0000
 11
3960.0000
 21
-14176.2000
 31
0.0000
  0
LINE
  5
2B2
  8
חשמל
 10
3934.4000
 20
-14176.2000
 30
0.0000
 11
3934.5610
 21
-14173.3337
 31
0.0000
  0
LINE
  5
2B3
  8
חשמל
 10
3934.5610
 20
-14173.3337
 30
0.0000
 11
3935.0418
 21
-14170.5035
 31
0.0000
  0
LINE
  5
2B4
  8
חשמל
 10
3935.0418
 20
-14170.5035
 30
0.0000
 11
3935.8366
 21
-14167.7449
 31
0.0000
  0
LINE
  5
2B5
  8
חשמל
 10
3935.8366
 20
-14167.7449
 30
0.0000
 11
3936.9352
 21
-14165.0926
 31
0.0000
  0
LINE
  5
2B6
  8
חשמל
 10
3936.9352
 20
-14165.0926
 30
0.0000
 11
3938.3239
 21
-14162.5800
 31
0.0000
  0
LINE
  5
2B7
  8
חשמל
 10
3938.3239
 20
-14162.5800
 30
0.0000
 11
3939.9851
 21
-14160.2387
 31
0.0000
  0
LINE
  5
2B8
  8
חשמל
 10
3939.9851
 20
-14160.2387
 30
0.0000
 11
3941.8981
 21
-14158.0981
 31
0.0000
  0
LINE
  5
2B9
  8
חשמל
 10
3941.8981
 20
-14158.0981
 30
0.0000
 11
3944.0387
 21
-14156.1851
 31
0.0000
  0
LINE
  5
2BA
  8
חשמל
 10
3944.0387
 20
-14156.1851
 30
0.0000
 11
3946.3800
 21
-14154.5239
 31
0.0000
  0
LINE
  5
2BB
  8
חשמל
 10
3946.3800
 20
-14154.5239
 30
0.0000
 11
3948.8926
 21
-14153.1352
 31
0.0000
  0
LINE
  5
2BC
  8
חשמל
 10
3948.8926
 20
-14153.1352
 30
0.0000
 11
3951.5449
 21
-14152.0366
 31
0.0000
  0
LINE
  5
2BD
  8
חשמל
 10
3951.5449
 20
-14152.0366
 30
0.0000
 11
3954.3035
 21
-14151.2418
 31
0.0000
  0
LINE
  5
2BE
  8
חשמל
 10
3954.3035
 20
-14151.2418
 30
0.0000
 11
3957.1337
 21
-14150.7610
 31
0.0000
  0
LINE
  5
2BF
  8
חשמל
 10
3957.1337
 20
-14150.7610
 30
0.0000
 11
3960.0000
 21
-14150.6000
 31
0.0000
  0
LINE
  5
2C0
  8
חשמל
 10
3960.0000
 20
-14150.6000
 30
0.0000
 11
3962.8663
 21
-14150.7610
 31
0.0000
  0
LINE
  5
2C1
  8
חשמל
 10
3962.8663
 20
-14150.7610
 30
0.0000
 11
3965.6965
 21
-14151.2418
 31
0.0000
  0
LINE
  5
2C2
  8
חשמל
 10
3965.6965
 20
-14151.2418
 30
0.0000
 11
3968.4551
 21
-14152.0366
 31
0.0000
  0
LINE
  5
2C3
  8
חשמל
 10
3968.4551
 20
-14152.0366
 30
0.0000
 11
3971.1074
 21
-14153.1352
 31
0.0000
  0
LINE
  5
2C4
  8
חשמל
 10
3971.1074
 20
-14153.1352
 30
0.0000
 11
3973.6200
 21
-14154.5239
 31
0.0000
  0
LINE
  5
2C5
  8
חשמל
 10
3973.6200
 20
-14154.5239
 30
0.0000
 11
3975.9613
 21
-14156.1851
 31
0.0000
  0
LINE
  5
2C6
  8
חשמל
 10
3975.9613
 20
-14156.1851
 30
0.0000
 11
3978.1019
 21
-14158.0981
 31
0.0000
  0
LINE
  5
2C7
  8
חשמל
 10
3978.1019
 20
-14158.0981
 30
0.0000
 11
3980.0149
 21
-14160.2387
 31
0.0000
  0
LINE
  5
2C8
  8
חשמל
 10
3980.0149
 20
-14160.2387
 30
0.0000
 11
3981.6761
 21
-14162.5800
 31
0.0000
  0
LINE
  5
2C9
  8
חשמל
 10
3981.6761
 20
-14162.5800
 30
0.0000
 11
3983.0648
 21
-14165.0926
 31
0.0000
  0
LINE
  5
2CA
  8
חשמל
 10
3983.0648
 20
-14165.0926
 30
0.0000
 11
3984.1634
 21
-14167.7449
 31
0.0000
  0
LINE
  5
2CB
  8
חשמל
 10
3984.1634
 20
-14167.7449
 30
0.0000
 11
3984.9582
 21
-14170.5035
 31
0.0000
  0
LINE
  5
2CC
  8
חשמל
 10
3984.9582
 20
-14170.5035
 30
0.0000
 11
3985.4390
 21
-14173.3337
 31
0.0000
  0
LINE
  5
2CD
  8
חשמל
 10
3985.4390
 20
-14173.3337
 30
0.0000
 11
3985.6000
 21
-14176.2000
 31
0.0000
  0
LINE
  5
2CE
  8
חשמל
 10
3934.4000
 20
-14176.2000
 30
0.0000
 11
3985.6000
 21
-14176.2000
 31
0.0000
  0
LINE
  5
2CF
  8
חשמל - מידות
 10
6056.0000
 20
-15232.0000
 30
0.0000
 11
6056.0000
 21
-14049.5000
 31
0.0000
  0
LINE
  5
2D0
  8
חשמל - מידות
 10
3960.0000
 20
-15232.0000
 30
0.0000
 11
3960.0000
 21
-14049.5000
 31
0.0000
  0
LINE
  5
2D1
  8
חשמל - מידות
 10
6056.0000
 20
-14109.5000
 30
0.0000
 11
3960.0000
 21
-14109.5000
 31
0.0000
  0
SOLID
  5
2D2
  8
חשמל - מידות
 10
6056.0000
 20
-14109.5000
 30
0.0000
 11
6171.0000
 21
-14077.5000
 31
0.0000
 12
6171.0000
 22
-14141.5000
 32
0.0000
 13
6171.0000
 23
-14141.5000
 33
0.0000
  0
SOLID
  5
2D3
  8
חשמל - מידות
 10
3960.0000
 20
-14109.5000
 30
0.0000
 11
3845.0000
 21
-14077.5000
 31
0.0000
 12
3845.0000
 22
-14141.5000
 32
0.0000
 13
3845.0000
 23
-14141.5000
 33
0.0000
  0
TEXT
  5
2D4
  8
חשמל - מידות
 10
5008.0000
 20
-14014.5000
 30
0.0000
 40
100.0000
  1
209.6
 50
360.0000
  7
SOLINE
 72
1
 73
2
 11
5008.0000
 21
-14014.5000
 31
0.0000
  0
LINE
  5
2D5
  8
חשמל - מידות
 10
4000.0000
 20
-15272.0000
 30
0.0000
 11
4247.5000
 21
-15272.0000
 31
0.0000
  0
LINE
  5
2D6
  8
חשמל - מידות
 10
4000.0000
 20
-14173.0000
 30
0.0000
 11
4247.5000
 21
-14173.0000
 31
0.0000
  0
LINE
  5
2D7
  8
חשמל - מידות
 10
4187.5000
 20
-15272.0000
 30
0.0000
 11
4187.5000
 21
-14173.0000
 31
0.0000
  0
SOLID
  5
2D8
  8
חשמל - מידות
 10
4187.5000
 20
-15272.0000
 30
0.0000
 11
4219.5000
 21
-15387.0000
 31
0.0000
 12
4155.5000
 22
-15387.0000
 32
0.0000
 13
4155.5000
 23
-15387.0000
 33
0.0000
  0
SOLID
  5
2D9
  8
חשמל - מידות
 10
4187.5000
 20
-14173.0000
 30
0.0000
 11
4219.5000
 21
-14058.0000
 31
0.0000
 12
4155.5000
 22
-14058.0000
 32
0.0000
 13
4155.5000
 23
-14058.0000
 33
0.0000
  0
TEXT
  5
2DA
  8
חשמל - מידות
 10
4282.5000
 20
-14722.5000
 30
0.0000
 40
100.0000
  1
109.9
 50
90.0000
  7
SOLINE
 72
1
 73
2
 11
4282.5000
 21
-14722.5000
 31
0.0000
  0
LINE
  5
2DB
  8
חשמל
 10
3405.0000
 20
-14212.0000
 30
0.0000
 11
3565.0000
 21
-14212.0000
 31
0.0000
  0
LINE
  5
2DC
  8
חשמל
 10
3565.0000
 20
-14212.0000
 30
0.0000
 11
3565.0000
 21
-14132.0000
 31
0.0000
  0
LINE
  5
2DD
  8
חשמל
 10
3565.0000
 20
-14132.0000
 30
0.0000
 11
3405.0000
 21
-14132.0000
 31
0.0000
  0
LINE
  5
2DE
  8
חשמל
 10
3405.0000
 20
-14132.0000
 30
0.0000
 11
3405.0000
 21
-14212.0000
 31
0.0000
  0
LINE
  5
2DF
  8
חשמל
 10
3485.0000
 20
-14212.0000
 30
0.0000
 11
3485.0000
 21
-14175.2000
 31
0.0000
  0
LINE
  5
2E0
  8
חשמל
 10
3405.8960
 20
-14175.2000
 30
0.0000
 11
3406.1375
 21
-14173.0503
 31
0.0000
  0
LINE
  5
2E1
  8
חשמל
 10
3406.1375
 20
-14173.0503
 30
0.0000
 11
3406.8588
 21
-14170.9276
 31
0.0000
  0
LINE
  5
2E2
  8
חשמל
 10
3406.8588
 20
-14170.9276
 30
0.0000
 11
3408.0509
 21
-14168.8586
 31
0.0000
  0
LINE
  5
2E3
  8
חשמל
 10
3408.0509
 20
-14168.8586
 30
0.0000
 11
3409.6988
 21
-14166.8694
 31
0.0000
  0
LINE
  5
2E4
  8
חשמל
 10
3409.6988
 20
-14166.8694
 30
0.0000
 11
3411.7818
 21
-14164.9850
 31
0.0000
  0
LINE
  5
2E5
  8
חשמל
 10
3411.7818
 20
-14164.9850
 30
0.0000
 11
3414.2737
 21
-14163.2290
 31
0.0000
  0
LINE
  5
2E6
  8
חשמל
 10
3414.2737
 20
-14163.2290
 30
0.0000
 11
3417.1431
 21
-14161.6235
 31
0.0000
  0
LINE
  5
2E7
  8
חשמל
 10
3417.1431
 20
-14161.6235
 30
0.0000
 11
3420.3540
 21
-14160.1888
 31
0.0000
  0
LINE
  5
2E8
  8
חשמל
 10
3420.3540
 20
-14160.1888
 30
0.0000
 11
3423.8660
 21
-14158.9429
 31
0.0000
  0
LINE
  5
2E9
  8
חשמל
 10
3423.8660
 20
-14158.9429
 30
0.0000
 11
3427.6349
 21
-14157.9014
 31
0.0000
  0
LINE
  5
2EA
  8
חשמל
 10
3427.6349
 20
-14157.9014
 30
0.0000
 11
3431.6133
 21
-14157.0774
 31
0.0000
  0
LINE
  5
2EB
  8
חשמל
 10
3431.6133
 20
-14157.0774
 30
0.0000
 11
3435.7512
 21
-14156.4814
 31
0.0000
  0
LINE
  5
2EC
  8
חשמל
 10
3435.7512
 20
-14156.4814
 30
0.0000
 11
3439.9966
 21
-14156.1207
 31
0.0000
  0
LINE
  5
2ED
  8
חשמל
 10
3439.9966
 20
-14156.1207
 30
0.0000
 11
3444.2960
 21
-14156.0000
 31
0.0000
  0
LINE
  5
2EE
  8
חשמל
 10
3444.2960
 20
-14156.0000
 30
0.0000
 11
3448.5954
 21
-14156.1207
 31
0.0000
  0
LINE
  5
2EF
  8
חשמל
 10
3448.5954
 20
-14156.1207
 30
0.0000
 11
3452.8408
 21
-14156.4814
 31
0.0000
  0
LINE
  5
2F0
  8
חשמל
 10
3452.8408
 20
-14156.4814
 30
0.0000
 11
3456.9787
 21
-14157.0774
 31
0.0000
  0
LINE
  5
2F1
  8
חשמל
 10
3456.9787
 20
-14157.0774
 30
0.0000
 11
3460.9571
 21
-14157.9014
 31
0.0000
  0
LINE
  5
2F2
  8
חשמל
 10
3460.9571
 20
-14157.9014
 30
0.0000
 11
3464.7260
 21
-14158.9429
 31
0.0000
  0
LINE
  5
2F3
  8
חשמל
 10
3464.7260
 20
-14158.9429
 30
0.0000
 11
3468.2380
 21
-14160.1888
 31
0.0000
  0
LINE
  5
2F4
  8
חשמל
 10
3468.2380
 20
-14160.1888
 30
0.0000
 11
3471.4489
 21
-14161.6235
 31
0.0000
  0
LINE
  5
2F5
  8
חשמל
 10
3471.4489
 20
-14161.6235
 30
0.0000
 11
3474.3183
 21
-14163.2290
 31
0.0000
  0
LINE
  5
2F6
  8
חשמל
 10
3474.3183
 20
-14163.2290
 30
0.0000
 11
3476.8102
 21
-14164.9850
 31
0.0000
  0
LINE
  5
2F7
  8
חשמל
 10
3476.8102
 20
-14164.9850
 30
0.0000
 11
3478.8932
 21
-14166.8694
 31
0.0000
  0
LINE
  5
2F8
  8
חשמל
 10
3478.8932
 20
-14166.8694
 30
0.0000
 11
3480.5411
 21
-14168.8586
 31
0.0000
  0
LINE
  5
2F9
  8
חשמל
 10
3480.5411
 20
-14168.8586
 30
0.0000
 11
3481.7332
 21
-14170.9276
 31
0.0000
  0
LINE
  5
2FA
  8
חשמל
 10
3481.7332
 20
-14170.9276
 30
0.0000
 11
3482.4545
 21
-14173.0503
 31
0.0000
  0
LINE
  5
2FB
  8
חשמל
 10
3482.4545
 20
-14173.0503
 30
0.0000
 11
3482.6960
 21
-14175.2000
 31
0.0000
  0
LINE
  5
2FC
  8
חשמל
 10
3405.8960
 20
-14175.2000
 30
0.0000
 11
3482.6960
 21
-14175.2000
 31
0.0000
  0
LINE
  5
2FD
  8
חשמל
 10
3487.3040
 20
-14175.2000
 30
0.0000
 11
3487.5455
 21
-14173.0503
 31
0.0000
  0
LINE
  5
2FE
  8
חשמל
 10
3487.5455
 20
-14173.0503
 30
0.0000
 11
3488.2668
 21
-14170.9276
 31
0.0000
  0
LINE
  5
2FF
  8
חשמל
 10
3488.2668
 20
-14170.9276
 30
0.0000
 11
3489.4589
 21
-14168.8586
 31
0.0000
  0
LINE
  5
300
  8
חשמל
 10
3489.4589
 20
-14168.8586
 30
0.0000
 11
3491.1068
 21
-14166.8694
 31
0.0000
  0
LINE
  5
301
  8
חשמל
 10
3491.1068
 20
-14166.8694
 30
0.0000
 11
3493.1898
 21
-14164.9850
 31
0.0000
  0
LINE
  5
302
  8
חשמל
 10
3493.1898
 20
-14164.9850
 30
0.0000
 11
3495.6817
 21
-14163.2290
 31
0.0000
  0
LINE
  5
303
  8
חשמל
 10
3495.6817
 20
-14163.2290
 30
0.0000
 11
3498.5511
 21
-14161.6235
 31
0.0000
  0
LINE
  5
304
  8
חשמל
 10
3498.5511
 20
-14161.6235
 30
0.0000
 11
3501.7620
 21
-14160.1888
 31
0.0000
  0
LINE
  5
305
  8
חשמל
 10
3501.7620
 20
-14160.1888
 30
0.0000
 11
3505.2740
 21
-14158.9429
 31
0.0000
  0
LINE
  5
306
  8
חשמל
 10
3505.2740
 20
-14158.9429
 30
0.0000
 11
3509.0429
 21
-14157.9014
 31
0.0000
  0
LINE
  5
307
  8
חשמל
 10
3509.0429
 20
-14157.9014
 30
0.0000
 11
3513.0213
 21
-14157.0774
 31
0.0000
  0
LINE
  5
308
  8
חשמל
 10
3513.0213
 20
-14157.0774
 30
0.0000
 11
3517.1592
 21
-14156.4814
 31
0.0000
  0
LINE
  5
309
  8
חשמל
 10
3517.1592
 20
-14156.4814
 30
0.0000
 11
3521.4046
 21
-14156.1207
 31
0.0000
  0
LINE
  5
30A
  8
חשמל
 10
3521.4046
 20
-14156.1207
 30
0.0000
 11
3525.7040
 21
-14156.0000
 31
0.0000
  0
LINE
  5
30B
  8
חשמל
 10
3525.7040
 20
-14156.0000
 30
0.0000
 11
3530.0034
 21
-14156.1207
 31
0.0000
  0
LINE
  5
30C
  8
חשמל
 10
3530.0034
 20
-14156.1207
 30
0.0000
 11
3534.2488
 21
-14156.4814
 31
0.0000
  0
LINE
  5
30D
  8
חשמל
 10
3534.2488
 20
-14156.4814
 30
0.0000
 11
3538.3867
 21
-14157.0774
 31
0.0000
  0
LINE
  5
30E
  8
חשמל
 10
3538.3867
 20
-14157.0774
 30
0.0000
 11
3542.3651
 21
-14157.9014
 31
0.0000
  0
LINE
  5
30F
  8
חשמל
 10
3542.3651
 20
-14157.9014
 30
0.0000
 11
3546.1340
 21
-14158.9429
 31
0.0000
  0
LINE
  5
310
  8
חשמל
 10
3546.1340
 20
-14158.9429
 30
0.0000
 11
3549.6460
 21
-14160.1888
 31
0.0000
  0
LINE
  5
311
  8
חשמל
 10
3549.6460
 20
-14160.1888
 30
0.0000
 11
3552.8569
 21
-14161.6235
 31
0.0000
  0
LINE
  5
312
  8
חשמל
 10
3552.8569
 20
-14161.6235
 30
0.0000
 11
3555.7263
 21
-14163.2290
 31
0.0000
  0
LINE
  5
313
  8
חשמל
 10
3555.7263
 20
-14163.2290
 30
0.0000
 11
3558.2182
 21
-14164.9850
 31
0.0000
  0
LINE
  5
314
  8
חשמל
 10
3558.2182
 20
-14164.9850
 30
0.0000
 11
3560.3012
 21
-14166.8694
 31
0.0000
  0
LINE
  5
315
  8
חשמל
 10
3560.3012
 20
-14166.8694
 30
0.0000
 11
3561.9491
 21
-14168.8586
 31
0.0000
  0
LINE
  5
316
  8
חשמל
 10
3561.9491
 20
-14168.8586
 30
0.0000
 11
3563.1412
 21
-14170.9276
 31
0.0000
  0
LINE
  5
317
  8
חשמל
 10
3563.1412
 20
-14170.9276
 30
0.0000
 11
3563.8625
 21
-14173.0503
 31
0.0000
  0
LINE
  5
318
  8
חשמל
 10
3563.8625
 20
-14173.0503
 30
0.0000
 11
3564.1040
 21
-14175.2000
 31
0.0000
  0
LINE
  5
319
  8
חשמל
 10
3487.3040
 20
-14175.2000
 30
0.0000
 11
3564.1040
 21
-14175.2000
 31
0.0000
  0
LINE
  5
31A
  8
חשמל - מידות
 10
6056.0000
 20
-15232.0000
 30
0.0000
 11
6056.0000
 21
-13699.5000
 31
0.0000
  0
LINE
  5
31B
  8
חשמל - מידות
 10
3485.0000
 20
-15232.0000
 30
0.0000
 11
3485.0000
 21
-13699.5000
 31
0.0000
  0
LINE
  5
31C
  8
חשמל - מידות
 10
6056.0000
 20
-13759.5000
 30
0.0000
 11
3485.0000
 21
-13759.5000
 31
0.0000
  0
SOLID
  5
31D
  8
חשמל - מידות
 10
6056.0000
 20
-13759.5000
 30
0.0000
 11
6171.0000
 21
-13727.5000
 31
0.0000
 12
6171.0000
 22
-13791.5000
 32
0.0000
 13
6171.0000
 23
-13791.5000
 33
0.0000
  0
SOLID
  5
31E
  8
חשמל - מידות
 10
3485.0000
 20
-13759.5000
 30
0.0000
 11
3370.0000
 21
-13727.5000
 31
0.0000
 12
3370.0000
 22
-13791.5000
 32
0.0000
 13
3370.0000
 23
-13791.5000
 33
0.0000
  0
TEXT
  5
31F
  8
חשמל - מידות
 10
4770.5000
 20
-13664.5000
 30
0.0000
 40
100.0000
  1
257.1
 50
360.0000
  7
SOLINE
 72
1
 73
2
 11
4770.5000
 21
-13664.5000
 31
0.0000
  0
LINE
  5
320
  8
חשמל - מידות
 10
3445.0000
 20
-15272.0000
 30
0.0000
 11
3157.5000
 21
-15272.0000
 31
0.0000
  0
LINE
  5
321
  8
חשמל - מידות
 10
3445.0000
 20
-14172.0000
 30
0.0000
 11
3157.5000
 21
-14172.0000
 31
0.0000
  0
LINE
  5
322
  8
חשמל - מידות
 10
3217.5000
 20
-15272.0000
 30
0.0000
 11
3217.5000
 21
-14172.0000
 31
0.0000
  0
SOLID
  5
323
  8
חשמל - מידות
 10
3217.5000
 20
-15272.0000
 30
0.0000
 11
3185.5000
 21
-15387.0000
 31
0.0000
 12
3249.5000
 22
-15387.0000
 32
0.0000
 13
3249.5000
 23
-15387.0000
 33
0.0000
  0
SOLID
  5
324
  8
חשמל - מידות
 10
3217.5000
 20
-14172.0000
 30
0.0000
 11
3185.5000
 21
-14057.0000
 31
0.0000
 12
3249.5000
 22
-14057.0000
 32
0.0000
 13
3249.5000
 23
-14057.0000
 33
0.0000
  0
TEXT
  5
325
  8
חשמל - מידות
 10
3122.5000
 20
-14722.0000
 30
0.0000
 40
100.0000
  1
110
 50
90.0000
  7
SOLINE
 72
1
 73
2
 11
3122.5000
 21
-14722.0000
 31
0.0000
  0
LINE
  5
326
  8
חשמל
 10
3893.0000
 20
-15272.0000
 30
0.0000
 11
3913.0000
 21
-15272.0000
 31
0.0000
  0
LINE
  5
327
  8
חשמל
 10
3913.0000
 20
-15272.0000
 30
0.0000
 11
3913.0000
 21
-15252.0000
 31
0.0000
  0
LINE
  5
328
  8
חשמל
 10
3913.0000
 20
-15252.0000
 30
0.0000
 11
3893.0000
 21
-15252.0000
 31
0.0000
  0
LINE
  5
329
  8
חשמל
 10
3893.0000
 20
-15252.0000
 30
0.0000
 11
3893.0000
 21
-15272.0000
 31
0.0000
  0
LINE
  5
32A
  8
חשמל
 10
3903.0000
 20
-15272.0000
 30
0.0000
 11
3903.0000
 21
-15256.4000
 31
0.0000
  0
ARC
  5
32B
  8
חשמל
 10
3903.0000
 20
-15262.4000
 30
0.0000
 40
6.4000
 50
0.0000
 51
360.0000
  0
LINE
  5
32C
  8
חשמל
 10
3903.0000
 20
-15262.4000
 30
0.0000
 11
3898.6000
 21
-15258.0000
 31
0.0000
  0
LINE
  5
32D
  8
חשמל
 10
3903.0000
 20
-15262.4000
 30
0.0000
 11
3907.4000
 21
-15258.0000
 31
0.0000
  0
LINE
  5
32E
  8
חשמל
 10
3903.0000
 20
-15262.4000
 30
0.0000
 11
3898.6000
 21
-15266.8000
 31
0.0000
  0
LINE
  5
32F
  8
חשמל
 10
3903.0000
 20
-15262.4000
 30
0.0000
 11
3907.4000
 21
-15266.8000
 31
0.0000
  0
LINE
  5
330
  8
חשמל - מידות
 10
6056.0000
 20
-15232.0000
 30
0.0000
 11
6056.0000
 21
-13349.5000
 31
0.0000
  0
LINE
  5
331
  8
חשמל - מידות
 10
3903.0000
 20
-15232.0000
 30
0.0000
 11
3903.0000
 21
-13349.5000
 31
0.0000
  0
LINE
  5
332
  8
חשמל - מידות
 10
6056.0000
 20
-13409.5000
 30
0.0000
 11
3903.0000
 21
-13409.5000
 31
0.0000
  0
SOLID
  5
333
  8
חשמל - מידות
 10
6056.0000
 20
-13409.5000
 30
0.0000
 11
6171.0000
 21
-13377.5000
 31
0.0000
 12
6171.0000
 22
-13441.5000
 32
0.0000
 13
6171.0000
 23
-13441.5000
 33
0.0000
  0
SOLID
  5
334
  8
חשמל - מידות
 10
3903.0000
 20
-13409.5000
 30
0.0000
 11
3788.0000
 21
-13377.5000
 31
0.0000
 12
3788.0000
 22
-13441.5000
 32
0.0000
 13
3788.0000
 23
-13441.5000
 33
0.0000
  0
TEXT
  5
335
  8
חשמל - מידות
 10
4979.5000
 20
-13314.5000
 30
0.0000
 40
100.0000
  1
215.3
 50
360.0000
  7
SOLINE
 72
1
 73
2
 11
4979.5000
 21
-13314.5000
 31
0.0000
  0
LINE
  5
336
  8
חשמל - מידות
 10
3903.0000
 20
-15272.0000
 30
0.0000
 11
3903.0000
 21
-15272.0000
 31
0.0000
  0
LINE
  5
337
  8
חשמל - מידות
 10
3903.0000
 20
-15272.0000
 30
0.0000
 11
3903.0000
 21
-15272.0000
 31
0.0000
  0
LINE
  5
338
  8
חשמל - מידות
 10
3903.0000
 20
-15272.0000
 30
0.0000
 11
3903.0000
 21
-15272.0000
 31
0.0000
  0
SOLID
  5
339
  8
חשמל - מידות
 10
3903.0000
 20
-15272.0000
 30
0.0000
 11
3903.0000
 21
-15272.0000
 31
0.0000
 12
3903.0000
 22
-15272.0000
 32
0.0000
 13
3903.0000
 23
-15272.0000
 33
0.0000
  0
SOLID
  5
33A
  8
חשמל - מידות
 10
3903.0000
 20
-15272.0000
 30
0.0000
 11
3903.0000
 21
-15272.0000
 31
0.0000
 12
3903.0000
 22
-15272.0000
 32
0.0000
 13
3903.0000
 23
-15272.0000
 33
0.0000
  0
TEXT
  5
33B
  8
חשמל - מידות
 10
3903.0000
 20
-15272.0000
 30
0.0000
 40
100.0000
  1
0.1
 50
0.0000
  7
SOLINE
 72
1
 73
2
 11
3903.0000
 21
-15272.0000
 31
0.0000
  0
LINE
  5
33C
  8
חשמל
 10
-19.0000
 20
-14275.0000
 30
0.0000
 11
61.0000
 21
-14275.0000
 31
0.0000
  0
LINE
  5
33D
  8
חשמל
 10
61.0000
 20
-14275.0000
 30
0.0000
 11
61.0000
 21
-14195.0000
 31
0.0000
  0
LINE
  5
33E
  8
חשמל
 10
61.0000
 20
-14195.0000
 30
0.0000
 11
-19.0000
 21
-14195.0000
 31
0.0000
  0
LINE
  5
33F
  8
חשמל
 10
-19.0000
 20
-14195.0000
 30
0.0000
 11
-19.0000
 21
-14275.0000
 31
0.0000
  0
LINE
  5
340
  8
חשמל
 10
21.0000
 20
-14275.0000
 30
0.0000
 11
21.0000
 21
-14238.2000
 31
0.0000
  0
LINE
  5
341
  8
חשמל
 10
-4.6000
 20
-14238.2000
 30
0.0000
 11
-4.4390
 21
-14235.3337
 31
0.0000
  0
LINE
  5
342
  8
חשמל
 10
-4.4390
 20
-14235.3337
 30
0.0000
 11
-3.9582
 21
-14232.5035
 31
0.0000
  0
LINE
  5
343
  8
חשמל
 10
-3.9582
 20
-14232.5035
 30
0.0000
 11
-3.1634
 21
-14229.7449
 31
0.0000
  0
LINE
  5
344
  8
חשמל
 10
-3.1634
 20
-14229.7449
 30
0.0000
 11
-2.0648
 21
-14227.0926
 31
0.0000
  0
LINE
  5
345
  8
חשמל
 10
-2.0648
 20
-14227.0926
 30
0.0000
 11
-0.6761
 21
-14224.5800
 31
0.0000
  0
LINE
  5
346
  8
חשמל
 10
-0.6761
 20
-14224.5800
 30
0.0000
 11
0.9851
 21
-14222.2387
 31
0.0000
  0
LINE
  5
347
  8
חשמל
 10
0.9851
 20
-14222.2387
 30
0.0000
 11
2.8981
 21
-14220.0981
 31
0.0000
  0
LINE
  5
348
  8
חשמל
 10
2.8981
 20
-14220.0981
 30
0.0000
 11
5.0387
 21
-14218.1851
 31
0.0000
  0
LINE
  5
349
  8
חשמל
 10
5.0387
 20
-14218.1851
 30
0.0000
 11
7.3800
 21
-14216.5239
 31
0.0000
  0
LINE
  5
34A
  8
חשמל
 10
7.3800
 20
-14216.5239
 30
0.0000
 11
9.8926
 21
-14215.1352
 31
0.0000
  0
LINE
  5
34B
  8
חשמל
 10
9.8926
 20
-14215.1352
 30
0.0000
 11
12.5449
 21
-14214.0366
 31
0.0000
  0
LINE
  5
34C
  8
חשמל
 10
12.5449
 20
-14214.0366
 30
0.0000
 11
15.3035
 21
-14213.2418
 31
0.0000
  0
LINE
  5
34D
  8
חשמל
 10
15.3035
 20
-14213.2418
 30
0.0000
 11
18.1337
 21
-14212.7610
 31
0.0000
  0
LINE
  5
34E
  8
חשמל
 10
18.1337
 20
-14212.7610
 30
0.0000
 11
21.0000
 21
-14212.6000
 31
0.0000
  0
LINE
  5
34F
  8
חשמל
 10
21.0000
 20
-14212.6000
 30
0.0000
 11
23.8663
 21
-14212.7610
 31
0.0000
  0
LINE
  5
350
  8
חשמל
 10
23.8663
 20
-14212.7610
 30
0.0000
 11
26.6965
 21
-14213.2418
 31
0.0000
  0
LINE
  5
351
  8
חשמל
 10
26.6965
 20
-14213.2418
 30
0.0000
 11
29.4551
 21
-14214.0366
 31
0.0000
  0
LINE
  5
352
  8
חשמל
 10
29.4551
 20
-14214.0366
 30
0.0000
 11
32.1074
 21
-14215.1352
 31
0.0000
  0
LINE
  5
353
  8
חשמל
 10
32.1074
 20
-14215.1352
 30
0.0000
 11
34.6200
 21
-14216.5239
 31
0.0000
  0
LINE
  5
354
  8
חשמל
 10
34.6200
 20
-14216.5239
 30
0.0000
 11
36.9613
 21
-14218.1851
 31
0.0000
  0
LINE
  5
355
  8
חשמל
 10
36.9613
 20
-14218.1851
 30
0.0000
 11
39.1019
 21
-14220.0981
 31
0.0000
  0
LINE
  5
356
  8
חשמל
 10
39.1019
 20
-14220.0981
 30
0.0000
 11
41.0149
 21
-14222.2387
 31
0.0000
  0
LINE
  5
357
  8
חשמל
 10
41.0149
 20
-14222.2387
 30
0.0000
 11
42.6761
 21
-14224.5800
 31
0.0000
  0
LINE
  5
358
  8
חשמל
 10
42.6761
 20
-14224.5800
 30
0.0000
 11
44.0648
 21
-14227.0926
 31
0.0000
  0
LINE
  5
359
  8
חשמל
 10
44.0648
 20
-14227.0926
 30
0.0000
 11
45.1634
 21
-14229.7449
 31
0.0000
  0
LINE
  5
35A
  8
חשמל
 10
45.1634
 20
-14229.7449
 30
0.0000
 11
45.9582
 21
-14232.5035
 31
0.0000
  0
LINE
  5
35B
  8
חשמל
 10
45.9582
 20
-14232.5035
 30
0.0000
 11
46.4390
 21
-14235.3337
 31
0.0000
  0
LINE
  5
35C
  8
חשמל
 10
46.4390
 20
-14235.3337
 30
0.0000
 11
46.6000
 21
-14238.2000
 31
0.0000
  0
LINE
  5
35D
  8
חשמל
 10
-4.6000
 20
-14238.2000
 30
0.0000
 11
46.6000
 21
-14238.2000
 31
0.0000
  0
LINE
  5
35E
  8
חשמל - מידות
 10
-187.0000
 20
-15312.0000
 30
0.0000
 11
-187.0000
 21
-17544.5000
 31
0.0000
  0
LINE
  5
35F
  8
חשמל - מידות
 10
21.0000
 20
-15312.0000
 30
0.0000
 11
21.0000
 21
-17544.5000
 31
0.0000
  0
LINE
  5
360
  8
חשמל - מידות
 10
-187.0000
 20
-17484.5000
 30
0.0000
 11
21.0000
 21
-17484.5000
 31
0.0000
  0
SOLID
  5
361
  8
חשמל - מידות
 10
-187.0000
 20
-17484.5000
 30
0.0000
 11
-302.0000
 21
-17516.5000
 31
0.0000
 12
-302.0000
 22
-17452.5000
 32
0.0000
 13
-302.0000
 23
-17452.5000
 33
0.0000
  0
SOLID
  5
362
  8
חשמל - מידות
 10
21.0000
 20
-17484.5000
 30
0.0000
 11
136.0000
 21
-17516.5000
 31
0.0000
 12
136.0000
 22
-17452.5000
 32
0.0000
 13
136.0000
 23
-17452.5000
 33
0.0000
  0
TEXT
  5
363
  8
חשמל - מידות
 10
-83.0000
 20
-17579.5000
 30
0.0000
 40
100.0000
  1
20.8
 50
0.0000
  7
SOLINE
 72
1
 73
2
 11
-83.0000
 21
-17579.5000
 31
0.0000
  0
LINE
  5
364
  8
חשמל - מידות
 10
-19.0000
 20
-15272.0000
 30
0.0000
 11
-266.5000
 21
-15272.0000
 31
0.0000
  0
LINE
  5
365
  8
חשמל - מידות
 10
-19.0000
 20
-14235.0000
 30
0.0000
 11
-266.5000
 21
-14235.0000
 31
0.0000
  0
LINE
  5
366
  8
חשמל - מידות
 10
-206.5000
 20
-15272.0000
 30
0.0000
 11
-206.5000
 21
-14235.0000
 31
0.0000
  0
SOLID
  5
367
  8
חשמל - מידות
 10
-206.5000
 20
-15272.0000
 30
0.0000
 11
-238.5000
 21
-15387.0000
 31
0.0000
 12
-174.5000
 22
-15387.0000
 32
0.0000
 13
-174.5000
 23
-15387.0000
 33
0.0000
  0
SOLID
  5
368
  8
חשמל - מידות
 10
-206.5000
 20
-14235.0000
 30
0.0000
 11
-238.5000
 21
-14120.0000
 31
0.0000
 12
-174.5000
 22
-14120.0000
 32
0.0000
 13
-174.5000
 23
-14120.0000
 33
0.0000
  0
TEXT
  5
369
  8
חשמל - מידות
 10
-301.5000
 20
-14753.5000
 30
0.0000
 40
100.0000
  1
103.7
 50
90.0000
  7
SOLINE
 72
1
 73
2
 11
-301.5000
 21
-14753.5000
 31
0.0000
  0
LINE
  5
36A
  8
חשמל
 10
-19.0000
 20
-14452.0000
 30
0.0000
 11
61.0000
 21
-14452.0000
 31
0.0000
  0
LINE
  5
36B
  8
חשמל
 10
61.0000
 20
-14452.0000
 30
0.0000
 11
61.0000
 21
-14372.0000
 31
0.0000
  0
LINE
  5
36C
  8
חשמל
 10
61.0000
 20
-14372.0000
 30
0.0000
 11
-19.0000
 21
-14372.0000
 31
0.0000
  0
LINE
  5
36D
  8
חשמל
 10
-19.0000
 20
-14372.0000
 30
0.0000
 11
-19.0000
 21
-14452.0000
 31
0.0000
  0
LINE
  5
36E
  8
חשמל
 10
21.0000
 20
-14452.0000
 30
0.0000
 11
21.0000
 21
-14415.2000
 31
0.0000
  0
LINE
  5
36F
  8
חשמל
 10
-4.6000
 20
-14415.2000
 30
0.0000
 11
-4.4390
 21
-14412.3337
 31
0.0000
  0
LINE
  5
370
  8
חשמל
 10
-4.4390
 20
-14412.3337
 30
0.0000
 11
-3.9582
 21
-14409.5035
 31
0.0000
  0
LINE
  5
371
  8
חשמל
 10
-3.9582
 20
-14409.5035
 30
0.0000
 11
-3.1634
 21
-14406.7449
 31
0.0000
  0
LINE
  5
372
  8
חשמל
 10
-3.1634
 20
-14406.7449
 30
0.0000
 11
-2.0648
 21
-14404.0926
 31
0.0000
  0
LINE
  5
373
  8
חשמל
 10
-2.0648
 20
-14404.0926
 30
0.0000
 11
-0.6761
 21
-14401.5800
 31
0.0000
  0
LINE
  5
374
  8
חשמל
 10
-0.6761
 20
-14401.5800
 30
0.0000
 11
0.9851
 21
-14399.2387
 31
0.0000
  0
LINE
  5
375
  8
חשמל
 10
0.9851
 20
-14399.2387
 30
0.0000
 11
2.8981
 21
-14397.0981
 31
0.0000
  0
LINE
  5
376
  8
חשמל
 10
2.8981
 20
-14397.0981
 30
0.0000
 11
5.0387
 21
-14395.1851
 31
0.0000
  0
LINE
  5
377
  8
חשמל
 10
5.0387
 20
-14395.1851
 30
0.0000
 11
7.3800
 21
-14393.5239
 31
0.0000
  0
LINE
  5
378
  8
חשמל
 10
7.3800
 20
-14393.5239
 30
0.0000
 11
9.8926
 21
-14392.1352
 31
0.0000
  0
LINE
  5
379
  8
חשמל
 10
9.8926
 20
-14392.1352
 30
0.0000
 11
12.5449
 21
-14391.0366
 31
0.0000
  0
LINE
  5
37A
  8
חשמל
 10
12.5449
 20
-14391.0366
 30
0.0000
 11
15.3035
 21
-14390.2418
 31
0.0000
  0
LINE
  5
37B
  8
חשמל
 10
15.3035
 20
-14390.2418
 30
0.0000
 11
18.1337
 21
-14389.7610
 31
0.0000
  0
LINE
  5
37C
  8
חשמל
 10
18.1337
 20
-14389.7610
 30
0.0000
 11
21.0000
 21
-14389.6000
 31
0.0000
  0
LINE
  5
37D
  8
חשמל
 10
21.0000
 20
-14389.6000
 30
0.0000
 11
23.8663
 21
-14389.7610
 31
0.0000
  0
LINE
  5
37E
  8
חשמל
 10
23.8663
 20
-14389.7610
 30
0.0000
 11
26.6965
 21
-14390.2418
 31
0.0000
  0
LINE
  5
37F
  8
חשמל
 10
26.6965
 20
-14390.2418
 30
0.0000
 11
29.4551
 21
-14391.0366
 31
0.0000
  0
LINE
  5
380
  8
חשמל
 10
29.4551
 20
-14391.0366
 30
0.0000
 11
32.1074
 21
-14392.1352
 31
0.0000
  0
LINE
  5
381
  8
חשמל
 10
32.1074
 20
-14392.1352
 30
0.0000
 11
34.6200
 21
-14393.5239
 31
0.0000
  0
LINE
  5
382
  8
חשמל
 10
34.6200
 20
-14393.5239
 30
0.0000
 11
36.9613
 21
-14395.1851
 31
0.0000
  0
LINE
  5
383
  8
חשמל
 10
36.9613
 20
-14395.1851
 30
0.0000
 11
39.1019
 21
-14397.0981
 31
0.0000
  0
LINE
  5
384
  8
חשמל
 10
39.1019
 20
-14397.0981
 30
0.0000
 11
41.0149
 21
-14399.2387
 31
0.0000
  0
LINE
  5
385
  8
חשמל
 10
41.0149
 20
-14399.2387
 30
0.0000
 11
42.6761
 21
-14401.5800
 31
0.0000
  0
LINE
  5
386
  8
חשמל
 10
42.6761
 20
-14401.5800
 30
0.0000
 11
44.0648
 21
-14404.0926
 31
0.0000
  0
LINE
  5
387
  8
חשמל
 10
44.0648
 20
-14404.0926
 30
0.0000
 11
45.1634
 21
-14406.7449
 31
0.0000
  0
LINE
  5
388
  8
חשמל
 10
45.1634
 20
-14406.7449
 30
0.0000
 11
45.9582
 21
-14409.5035
 31
0.0000
  0
LINE
  5
389
  8
חשמל
 10
45.9582
 20
-14409.5035
 30
0.0000
 11
46.4390
 21
-14412.3337
 31
0.0000
  0
LINE
  5
38A
  8
חשמל
 10
46.4390
 20
-14412.3337
 30
0.0000
 11
46.6000
 21
-14415.2000
 31
0.0000
  0
LINE
  5
38B
  8
חשמל
 10
-4.6000
 20
-14415.2000
 30
0.0000
 11
46.6000
 21
-14415.2000
 31
0.0000
  0
LINE
  5
38C
  8
חשמל - מידות
 10
-187.0000
 20
-15312.0000
 30
0.0000
 11
-187.0000
 21
-17894.5000
 31
0.0000
  0
LINE
  5
38D
  8
חשמל - מידות
 10
21.0000
 20
-15312.0000
 30
0.0000
 11
21.0000
 21
-17894.5000
 31
0.0000
  0
LINE
  5
38E
  8
חשמל - מידות
 10
-187.0000
 20
-17834.5000
 30
0.0000
 11
21.0000
 21
-17834.5000
 31
0.0000
  0
SOLID
  5
38F
  8
חשמל - מידות
 10
-187.0000
 20
-17834.5000
 30
0.0000
 11
-302.0000
 21
-17866.5000
 31
0.0000
 12
-302.0000
 22
-17802.5000
 32
0.0000
 13
-302.0000
 23
-17802.5000
 33
0.0000
  0
SOLID
  5
390
  8
חשמל - מידות
 10
21.0000
 20
-17834.5000
 30
0.0000
 11
136.0000
 21
-17866.5000
 31
0.0000
 12
136.0000
 22
-17802.5000
 32
0.0000
 13
136.0000
 23
-17802.5000
 33
0.0000
  0
TEXT
  5
391
  8
חשמל - מידות
 10
-83.0000
 20
-17929.5000
 30
0.0000
 40
100.0000
  1
20.8
 50
0.0000
  7
SOLINE
 72
1
 73
2
 11
-83.0000
 21
-17929.5000
 31
0.0000
  0
LINE
  5
392
  8
חשמל - מידות
 10
61.0000
 20
-15272.0000
 30
0.0000
 11
308.5000
 21
-15272.0000
 31
0.0000
  0
LINE
  5
393
  8
חשמל - מידות
 10
61.0000
 20
-14412.0000
 30
0.0000
 11
308.5000
 21
-14412.0000
 31
0.0000
  0
LINE
  5
394
  8
חשמל - מידות
 10
248.5000
 20
-15272.0000
 30
0.0000
 11
248.5000
 21
-14412.0000
 31
0.0000
  0
SOLID
  5
395
  8
חשמל - מידות
 10
248.5000
 20
-15272.0000
 30
0.0000
 11
280.5000
 21
-15387.0000
 31
0.0000
 12
216.5000
 22
-15387.0000
 32
0.0000
 13
216.5000
 23
-15387.0000
 33
0.0000
  0
SOLID
  5
396
  8
חשמל - מידות
 10
248.5000
 20
-14412.0000
 30
0.0000
 11
280.5000
 21
-14297.0000
 31
0.0000
 12
216.5000
 22
-14297.0000
 32
0.0000
 13
216.5000
 23
-14297.0000
 33
0.0000
  0
TEXT
  5
397
  8
חשמל - מידות
 10
343.5000
 20
-14842.0000
 30
0.0000
 40
100.0000
  1
86
 50
90.0000
  7
SOLINE
 72
1
 73
2
 11
343.5000
 21
-14842.0000
 31
0.0000
  0
LINE
  5
398
  8
תאורה
 10
4499.0000
 20
-12674.0000
 30
0.0000
 11
4599.0000
 21
-12674.0000
 31
0.0000
  0
LINE
  5
399
  8
תאורה
 10
4599.0000
 20
-12674.0000
 30
0.0000
 11
4599.0000
 21
-12644.0000
 31
0.0000
  0
LINE
  5
39A
  8
תאורה
 10
4599.0000
 20
-12644.0000
 30
0.0000
 11
4499.0000
 21
-12644.0000
 31
0.0000
  0
LINE
  5
39B
  8
תאורה
 10
4499.0000
 20
-12644.0000
 30
0.0000
 11
4499.0000
 21
-12674.0000
 31
0.0000
  0
LINE
  5
39C
  8
תאורה
 10
4579.0000
 20
-12659.0000
 30
0.0000
 11
4578.4236
 21
-12660.7558
 31
0.0000
  0
LINE
  5
39D
  8
תאורה
 10
4578.4236
 20
-12660.7558
 30
0.0000
 11
4576.7164
 21
-12662.4442
 31
0.0000
  0
LINE
  5
39E
  8
תאורה
 10
4576.7164
 20
-12662.4442
 30
0.0000
 11
4573.9441
 21
-12664.0001
 31
0.0000
  0
LINE
  5
39F
  8
תאורה
 10
4573.9441
 20
-12664.0001
 30
0.0000
 11
4570.2132
 21
-12665.3640
 31
0.0000
  0
LINE
  5
3A0
  8
תאורה
 10
4570.2132
 20
-12665.3640
 30
0.0000
 11
4565.6671
 21
-12666.4832
 31
0.0000
  0
LINE
  5
3A1
  8
תאורה
 10
4565.6671
 20
-12666.4832
 30
0.0000
 11
4560.4805
 21
-12667.3149
 31
0.0000
  0
LINE
  5
3A2
  8
תאורה
 10
4560.4805
 20
-12667.3149
 30
0.0000
 11
4554.8527
 21
-12667.8271
 31
0.0000
  0
LINE
  5
3A3
  8
תאורה
 10
4554.8527
 20
-12667.8271
 30
0.0000
 11
4549.0000
 21
-12668.0000
 31
0.0000
  0
LINE
  5
3A4
  8
תאורה
 10
4549.0000
 20
-12668.0000
 30
0.0000
 11
4543.1473
 21
-12667.8271
 31
0.0000
  0
LINE
  5
3A5
  8
תאורה
 10
4543.1473
 20
-12667.8271
 30
0.0000
 11
4537.5195
 21
-12667.3149
 31
0.0000
  0
LINE
  5
3A6
  8
תאורה
 10
4537.5195
 20
-12667.3149
 30
0.0000
 11
4532.3329
 21
-12666.4832
 31
0.0000
  0
LINE
  5
3A7
  8
תאורה
 10
4532.3329
 20
-12666.4832
 30
0.0000
 11
4527.7868
 21
-12665.3640
 31
0.0000
  0
LINE
  5
3A8
  8
תאורה
 10
4527.7868
 20
-12665.3640
 30
0.0000
 11
4524.0559
 21
-12664.0001
 31
0.0000
  0
LINE
  5
3A9
  8
תאורה
 10
4524.0559
 20
-12664.0001
 30
0.0000
 11
4521.2836
 21
-12662.4442
 31
0.0000
  0
LINE
  5
3AA
  8
תאורה
 10
4521.2836
 20
-12662.4442
 30
0.0000
 11
4519.5764
 21
-12660.7558
 31
0.0000
  0
LINE
  5
3AB
  8
תאורה
 10
4519.5764
 20
-12660.7558
 30
0.0000
 11
4519.0000
 21
-12659.0000
 31
0.0000
  0
LINE
  5
3AC
  8
תאורה
 10
4519.0000
 20
-12659.0000
 30
0.0000
 11
4519.5764
 21
-12657.2442
 31
0.0000
  0
LINE
  5
3AD
  8
תאורה
 10
4519.5764
 20
-12657.2442
 30
0.0000
 11
4521.2836
 21
-12655.5558
 31
0.0000
  0
LINE
  5
3AE
  8
תאורה
 10
4521.2836
 20
-12655.5558
 30
0.0000
 11
4524.0559
 21
-12653.9999
 31
0.0000
  0
LINE
  5
3AF
  8
תאורה
 10
4524.0559
 20
-12653.9999
 30
0.0000
 11
4527.7868
 21
-12652.6360
 31
0.0000
  0
LINE
  5
3B0
  8
תאורה
 10
4527.7868
 20
-12652.6360
 30
0.0000
 11
4532.3329
 21
-12651.5168
 31
0.0000
  0
LINE
  5
3B1
  8
תאורה
 10
4532.3329
 20
-12651.5168
 30
0.0000
 11
4537.5195
 21
-12650.6851
 31
0.0000
  0
LINE
  5
3B2
  8
תאורה
 10
4537.5195
 20
-12650.6851
 30
0.0000
 11
4543.1473
 21
-12650.1729
 31
0.0000
  0
LINE
  5
3B3
  8
תאורה
 10
4543.1473
 20
-12650.1729
 30
0.0000
 11
4549.0000
 21
-12650.0000
 31
0.0000
  0
LINE
  5
3B4
  8
תאורה
 10
4549.0000
 20
-12650.0000
 30
0.0000
 11
4554.8527
 21
-12650.1729
 31
0.0000
  0
LINE
  5
3B5
  8
תאורה
 10
4554.8527
 20
-12650.1729
 30
0.0000
 11
4560.4805
 21
-12650.6851
 31
0.0000
  0
LINE
  5
3B6
  8
תאורה
 10
4560.4805
 20
-12650.6851
 30
0.0000
 11
4565.6671
 21
-12651.5168
 31
0.0000
  0
LINE
  5
3B7
  8
תאורה
 10
4565.6671
 20
-12651.5168
 30
0.0000
 11
4570.2132
 21
-12652.6360
 31
0.0000
  0
LINE
  5
3B8
  8
תאורה
 10
4570.2132
 20
-12652.6360
 30
0.0000
 11
4573.9441
 21
-12653.9999
 31
0.0000
  0
LINE
  5
3B9
  8
תאורה
 10
4573.9441
 20
-12653.9999
 30
0.0000
 11
4576.7164
 21
-12655.5558
 31
0.0000
  0
LINE
  5
3BA
  8
תאורה
 10
4576.7164
 20
-12655.5558
 30
0.0000
 11
4578.4236
 21
-12657.2442
 31
0.0000
  0
LINE
  5
3BB
  8
תאורה
 10
4578.4236
 20
-12657.2442
 30
0.0000
 11
4579.0000
 21
-12659.0000
 31
0.0000
  0
LINE
  5
3BC
  8
תאורה
 10
4528.0000
 20
-12652.7000
 30
0.0000
 11
4570.0000
 21
-12665.3000
 31
0.0000
  0
LINE
  5
3BD
  8
תאורה
 10
4570.0000
 20
-12652.7000
 30
0.0000
 11
4528.0000
 21
-12665.3000
 31
0.0000
  0
LINE
  5
3BE
  8
תאורה - מידות
 10
6056.0000
 20
-15232.0000
 30
0.0000
 11
6056.0000
 21
-12299.5000
 31
0.0000
  0
LINE
  5
3BF
  8
תאורה - מידות
 10
4549.0000
 20
-15232.0000
 30
0.0000
 11
4549.0000
 21
-12299.5000
 31
0.0000
  0
LINE
  5
3C0
  8
תאורה - מידות
 10
6056.0000
 20
-12359.5000
 30
0.0000
 11
4549.0000
 21
-12359.5000
 31
0.0000
  0
SOLID
  5
3C1
  8
תאורה - מידות
 10
6056.0000
 20
-12359.5000
 30
0.0000
 11
6171.0000
 21
-12327.5000
 31
0.0000
 12
6171.0000
 22
-12391.5000
 32
0.0000
 13
6171.0000
 23
-12391.5000
 33
0.0000
  0
SOLID
  5
3C2
  8
תאורה - מידות
 10
4549.0000
 20
-12359.5000
 30
0.0000
 11
4434.0000
 21
-12327.5000
 31
0.0000
 12
4434.0000
 22
-12391.5000
 32
0.0000
 13
4434.0000
 23
-12391.5000
 33
0.0000
  0
TEXT
  5
3C3
  8
תאורה - מידות
 10
5302.5000
 20
-12264.5000
 30
0.0000
 40
100.0000
  1
150.7
 50
360.0000
  7
SOLINE
 72
1
 73
2
 11
5302.5000
 21
-12264.5000
 31
0.0000
  0
LINE
  5
3C4
  8
תאורה - מידות
 10
4509.0000
 20
-15272.0000
 30
0.0000
 11
4251.5000
 21
-15272.0000
 31
0.0000
  0
LINE
  5
3C5
  8
תאורה - מידות
 10
4509.0000
 20
-12659.0000
 30
0.0000
 11
4251.5000
 21
-12659.0000
 31
0.0000
  0
LINE
  5
3C6
  8
תאורה - מידות
 10
4311.5000
 20
-15272.0000
 30
0.0000
 11
4311.5000
 21
-12659.0000
 31
0.0000
  0
SOLID
  5
3C7
  8
תאורה - מידות
 10
4311.5000
 20
-15272.0000
 30
0.0000
 11
4279.5000
 21
-15387.0000
 31
0.0000
 12
4343.5000
 22
-15387.0000
 32
0.0000
 13
4343.5000
 23
-15387.0000
 33
0.0000
  0
SOLID
  5
3C8
  8
תאורה - מידות
 10
4311.5000
 20
-12659.0000
 30
0.0000
 11
4279.5000
 21
-12544.0000
 31
0.0000
 12
4343.5000
 22
-12544.0000
 32
0.0000
 13
4343.5000
 23
-12544.0000
 33
0.0000
  0
TEXT
  5
3C9
  8
תאורה - מידות
 10
4216.5000
 20
-13965.5000
 30
0.0000
 40
100.0000
  1
261.3
 50
90.0000
  7
SOLINE
 72
1
 73
2
 11
4216.5000
 21
-13965.5000
 31
0.0000
  0
LINE
  5
3CA
  8
תאורה
 10
4503.0000
 20
-12674.0000
 30
0.0000
 11
4603.0000
 21
-12674.0000
 31
0.0000
  0
LINE
  5
3CB
  8
תאורה
 10
4603.0000
 20
-12674.0000
 30
0.0000
 11
4603.0000
 21
-12644.0000
 31
0.0000
  0
LINE
  5
3CC
  8
תאורה
 10
4603.0000
 20
-12644.0000
 30
0.0000
 11
4503.0000
 21
-12644.0000
 31
0.0000
  0
LINE
  5
3CD
  8
תאורה
 10
4503.0000
 20
-12644.0000
 30
0.0000
 11
4503.0000
 21
-12674.0000
 31
0.0000
  0
LINE
  5
3CE
  8
תאורה
 10
4583.0000
 20
-12659.0000
 30
0.0000
 11
4582.4236
 21
-12660.7558
 31
0.0000
  0
LINE
  5
3CF
  8
תאורה
 10
4582.4236
 20
-12660.7558
 30
0.0000
 11
4580.7164
 21
-12662.4442
 31
0.0000
  0
LINE
  5
3D0
  8
תאורה
 10
4580.7164
 20
-12662.4442
 30
0.0000
 11
4577.9441
 21
-12664.0001
 31
0.0000
  0
LINE
  5
3D1
  8
תאורה
 10
4577.9441
 20
-12664.0001
 30
0.0000
 11
4574.2132
 21
-12665.3640
 31
0.0000
  0
LINE
  5
3D2
  8
תאורה
 10
4574.2132
 20
-12665.3640
 30
0.0000
 11
4569.6671
 21
-12666.4832
 31
0.0000
  0
LINE
  5
3D3
  8
תאורה
 10
4569.6671
 20
-12666.4832
 30
0.0000
 11
4564.4805
 21
-12667.3149
 31
0.0000
  0
LINE
  5
3D4
  8
תאורה
 10
4564.4805
 20
-12667.3149
 30
0.0000
 11
4558.8527
 21
-12667.8271
 31
0.0000
  0
LINE
  5
3D5
  8
תאורה
 10
4558.8527
 20
-12667.8271
 30
0.0000
 11
4553.0000
 21
-12668.0000
 31
0.0000
  0
LINE
  5
3D6
  8
תאורה
 10
4553.0000
 20
-12668.0000
 30
0.0000
 11
4547.1473
 21
-12667.8271
 31
0.0000
  0
LINE
  5
3D7
  8
תאורה
 10
4547.1473
 20
-12667.8271
 30
0.0000
 11
4541.5195
 21
-12667.3149
 31
0.0000
  0
LINE
  5
3D8
  8
תאורה
 10
4541.5195
 20
-12667.3149
 30
0.0000
 11
4536.3329
 21
-12666.4832
 31
0.0000
  0
LINE
  5
3D9
  8
תאורה
 10
4536.3329
 20
-12666.4832
 30
0.0000
 11
4531.7868
 21
-12665.3640
 31
0.0000
  0
LINE
  5
3DA
  8
תאורה
 10
4531.7868
 20
-12665.3640
 30
0.0000
 11
4528.0559
 21
-12664.0001
 31
0.0000
  0
LINE
  5
3DB
  8
תאורה
 10
4528.0559
 20
-12664.0001
 30
0.0000
 11
4525.2836
 21
-12662.4442
 31
0.0000
  0
LINE
  5
3DC
  8
תאורה
 10
4525.2836
 20
-12662.4442
 30
0.0000
 11
4523.5764
 21
-12660.7558
 31
0.0000
  0
LINE
  5
3DD
  8
תאורה
 10
4523.5764
 20
-12660.7558
 30
0.0000
 11
4523.0000
 21
-12659.0000
 31
0.0000
  0
LINE
  5
3DE
  8
תאורה
 10
4523.0000
 20
-12659.0000
 30
0.0000
 11
4523.5764
 21
-12657.2442
 31
0.0000
  0
LINE
  5
3DF
  8
תאורה
 10
4523.5764
 20
-12657.2442
 30
0.0000
 11
4525.2836
 21
-12655.5558
 31
0.0000
  0
LINE
  5
3E0
  8
תאורה
 10
4525.2836
 20
-12655.5558
 30
0.0000
 11
4528.0559
 21
-12653.9999
 31
0.0000
  0
LINE
  5
3E1
  8
תאורה
 10
4528.0559
 20
-12653.9999
 30
0.0000
 11
4531.7868
 21
-12652.6360
 31
0.0000
  0
LINE
  5
3E2
  8
תאורה
 10
4531.7868
 20
-12652.6360
 30
0.0000
 11
4536.3329
 21
-12651.5168
 31
0.0000
  0
LINE
  5
3E3
  8
תאורה
 10
4536.3329
 20
-12651.5168
 30
0.0000
 11
4541.5195
 21
-12650.6851
 31
0.0000
  0
LINE
  5
3E4
  8
תאורה
 10
4541.5195
 20
-12650.6851
 30
0.0000
 11
4547.1473
 21
-12650.1729
 31
0.0000
  0
LINE
  5
3E5
  8
תאורה
 10
4547.1473
 20
-12650.1729
 30
0.0000
 11
4553.0000
 21
-12650.0000
 31
0.0000
  0
LINE
  5
3E6
  8
תאורה
 10
4553.0000
 20
-12650.0000
 30
0.0000
 11
4558.8527
 21
-12650.1729
 31
0.0000
  0
LINE
  5
3E7
  8
תאורה
 10
4558.8527
 20
-12650.1729
 30
0.0000
 11
4564.4805
 21
-12650.6851
 31
0.0000
  0
LINE
  5
3E8
  8
תאורה
 10
4564.4805
 20
-12650.6851
 30
0.0000
 11
4569.6671
 21
-12651.5168
 31
0.0000
  0
LINE
  5
3E9
  8
תאורה
 10
4569.6671
 20
-12651.5168
 30
0.0000
 11
4574.2132
 21
-12652.6360
 31
0.0000
  0
LINE
  5
3EA
  8
תאורה
 10
4574.2132
 20
-12652.6360
 30
0.0000
 11
4577.9441
 21
-12653.9999
 31
0.0000
  0
LINE
  5
3EB
  8
תאורה
 10
4577.9441
 20
-12653.9999
 30
0.0000
 11
4580.7164
 21
-12655.5558
 31
0.0000
  0
LINE
  5
3EC
  8
תאורה
 10
4580.7164
 20
-12655.5558
 30
0.0000
 11
4582.4236
 21
-12657.2442
 31
0.0000
  0
LINE
  5
3ED
  8
תאורה
 10
4582.4236
 20
-12657.2442
 30
0.0000
 11
4583.0000
 21
-12659.0000
 31
0.0000
  0
LINE
  5
3EE
  8
תאורה
 10
4532.0000
 20
-12652.7000
 30
0.0000
 11
4574.0000
 21
-12665.3000
 31
0.0000
  0
LINE
  5
3EF
  8
תאורה
 10
4574.0000
 20
-12652.7000
 30
0.0000
 11
4532.0000
 21
-12665.3000
 31
0.0000
  0
LINE
  5
3F0
  8
תאורה - מידות
 10
6056.0000
 20
-15232.0000
 30
0.0000
 11
6056.0000
 21
-11949.5000
 31
0.0000
  0
LINE
  5
3F1
  8
תאורה - מידות
 10
4553.0000
 20
-15232.0000
 30
0.0000
 11
4553.0000
 21
-11949.5000
 31
0.0000
  0
LINE
  5
3F2
  8
תאורה - מידות
 10
6056.0000
 20
-12009.5000
 30
0.0000
 11
4553.0000
 21
-12009.5000
 31
0.0000
  0
SOLID
  5
3F3
  8
תאורה - מידות
 10
6056.0000
 20
-12009.5000
 30
0.0000
 11
6171.0000
 21
-11977.5000
 31
0.0000
 12
6171.0000
 22
-12041.5000
 32
0.0000
 13
6171.0000
 23
-12041.5000
 33
0.0000
  0
SOLID
  5
3F4
  8
תאורה - מידות
 10
4553.0000
 20
-12009.5000
 30
0.0000
 11
4438.0000
 21
-11977.5000
 31
0.0000
 12
4438.0000
 22
-12041.5000
 32
0.0000
 13
4438.0000
 23
-12041.5000
 33
0.0000
  0
TEXT
  5
3F5
  8
תאורה - מידות
 10
5304.5000
 20
-11914.5000
 30
0.0000
 40
100.0000
  1
150.3
 50
360.0000
  7
SOLINE
 72
1
 73
2
 11
5304.5000
 21
-11914.5000
 31
0.0000
  0
LINE
  5
3F6
  8
תאורה - מידות
 10
4593.0000
 20
-15272.0000
 30
0.0000
 11
4850.5000
 21
-15272.0000
 31
0.0000
  0
LINE
  5
3F7
  8
תאורה - מידות
 10
4593.0000
 20
-12659.0000
 30
0.0000
 11
4850.5000
 21
-12659.0000
 31
0.0000
  0
LINE
  5
3F8
  8
תאורה - מידות
 10
4790.5000
 20
-15272.0000
 30
0.0000
 11
4790.5000
 21
-12659.0000
 31
0.0000
  0
SOLID
  5
3F9
  8
תאורה - מידות
 10
4790.5000
 20
-15272.0000
 30
0.0000
 11
4822.5000
 21
-15387.0000
 31
0.0000
 12
4758.5000
 22
-15387.0000
 32
0.0000
 13
4758.5000
 23
-15387.0000
 33
0.0000
  0
SOLID
  5
3FA
  8
תאורה - מידות
 10
4790.5000
 20
-12659.0000
 30
0.0000
 11
4822.5000
 21
-12544.0000
 31
0.0000
 12
4758.5000
 22
-12544.0000
 32
0.0000
 13
4758.5000
 23
-12544.0000
 33
0.0000
  0
TEXT
  5
3FB
  8
תאורה - מידות
 10
4885.5000
 20
-13965.5000
 30
0.0000
 40
100.0000
  1
261.3
 50
90.0000
  7
SOLINE
 72
1
 73
2
 11
4885.5000
 21
-13965.5000
 31
0.0000
  0
LINE
  5
3FC
  8
חלונות
 10
3590.5000
 20
-14218.0000
 30
0.0000
 11
4759.5000
 21
-14218.0000
 31
0.0000
  0
LINE
  5
3FD
  8
חלונות
 10
4759.5000
 20
-14218.0000
 30
0.0000
 11
4759.5000
 21
-12886.0000
 31
0.0000
  0
LINE
  5
3FE
  8
חלונות
 10
4759.5000
 20
-12886.0000
 30
0.0000
 11
3590.5000
 21
-12886.0000
 31
0.0000
  0
LINE
  5
3FF
  8
חלונות
 10
3590.5000
 20
-12886.0000
 30
0.0000
 11
3590.5000
 21
-14218.0000
 31
0.0000
  0
LINE
  5
400
  8
חלונות
 10
3590.5000
 20
-13365.5200
 30
0.0000
 11
4759.5000
 21
-13365.5200
 31
0.0000
  0
LINE
  5
401
  8
חלונות
 10
4759.5000
 20
-13365.5200
 30
0.0000
 11
4759.5000
 21
-13738.4800
 31
0.0000
  0
LINE
  5
402
  8
חלונות
 10
4759.5000
 20
-13738.4800
 30
0.0000
 11
3590.5000
 21
-13738.4800
 31
0.0000
  0
LINE
  5
403
  8
חלונות
 10
3590.5000
 20
-13738.4800
 30
0.0000
 11
3590.5000
 21
-13365.5200
 31
0.0000
  0
LINE
  5
404
  8
חלונות
 10
3590.5000
 20
-13492.3264
 30
0.0000
 11
4759.5000
 21
-13492.3264
 31
0.0000
  0
LINE
  5
405
  8
חלונות
 10
3590.5000
 20
-13611.6736
 30
0.0000
 11
4759.5000
 21
-13611.6736
 31
0.0000
  0
LINE
  5
406
  8
חלונות - מידות
 10
6056.0000
 20
-15232.0000
 30
0.0000
 11
6056.0000
 21
-11599.5000
 31
0.0000
  0
LINE
  5
407
  8
חלונות - מידות
 10
4759.5000
 20
-15232.0000
 30
0.0000
 11
4759.5000
 21
-11599.5000
 31
0.0000
  0
LINE
  5
408
  8
חלונות - מידות
 10
6056.0000
 20
-11659.5000
 30
0.0000
 11
4759.5000
 21
-11659.5000
 31
0.0000
  0
SOLID
  5
409
  8
חלונות - מידות
 10
6056.0000
 20
-11659.5000
 30
0.0000
 11
6171.0000
 21
-11627.5000
 31
0.0000
 12
6171.0000
 22
-11691.5000
 32
0.0000
 13
6171.0000
 23
-11691.5000
 33
0.0000
  0
SOLID
  5
40A
  8
חלונות - מידות
 10
4759.5000
 20
-11659.5000
 30
0.0000
 11
4644.5000
 21
-11627.5000
 31
0.0000
 12
4644.5000
 22
-11691.5000
 32
0.0000
 13
4644.5000
 23
-11691.5000
 33
0.0000
  0
TEXT
  5
40B
  8
חלונות - מידות
 10
5407.7500
 20
-11564.5000
 30
0.0000
 40
100.0000
  1
129.7
 50
360.0000
  7
SOLINE
 72
1
 73
2
 11
5407.7500
 21
-11564.5000
 31
0.0000
  0
LINE
  5
40C
  8
חלונות - מידות
 10
3590.5000
 20
-12846.0000
 30
0.0000
 11
3590.5000
 21
-12602.5000
 31
0.0000
  0
LINE
  5
40D
  8
חלונות - מידות
 10
4759.5000
 20
-12846.0000
 30
0.0000
 11
4759.5000
 21
-12602.5000
 31
0.0000
  0
LINE
  5
40E
  8
חלונות - מידות
 10
3590.5000
 20
-12661.0000
 30
0.0000
 11
4759.5000
 21
-12661.0000
 31
0.0000
  0
SOLID
  5
40F
  8
חלונות - מידות
 10
3590.5000
 20
-12661.0000
 30
0.0000
 11
3478.3750
 21
-12629.8000
 31
0.0000
 12
3478.3750
 22
-12692.2000
 32
0.0000
 13
3478.3750
 23
-12692.2000
 33
0.0000
  0
SOLID
  5
410
  8
חלונות - מידות
 10
4759.5000
 20
-12661.0000
 30
0.0000
 11
4871.6250
 21
-12629.8000
 31
0.0000
 12
4871.6250
 22
-12692.2000
 32
0.0000
 13
4871.6250
 23
-12692.2000
 33
0.0000
  0
TEXT
  5
411
  8
חלונות - מידות
 10
4175.0000
 20
-12568.3750
 30
0.0000
 40
97.5000
  1
116.9
 50
0.0000
  7
SOLINE
 72
1
 73
2
 11
4175.0000
 21
-12568.3750
 31
0.0000
  0
LINE
  5
412
  8
חלונות - מידות
 10
3550.5000
 20
-15272.0000
 30
0.0000
 11
3344.5000
 21
-15272.0000
 31
0.0000
  0
LINE
  5
413
  8
חלונות - מידות
 10
3550.5000
 20
-14218.0000
 30
0.0000
 11
3344.5000
 21
-14218.0000
 31
0.0000
  0
LINE
  5
414
  8
חלונות - מידות
 10
3403.0000
 20
-15272.0000
 30
0.0000
 11
3403.0000
 21
-14218.0000
 31
0.0000
  0
SOLID
  5
415
  8
חלונות - מידות
 10
3403.0000
 20
-15272.0000
 30
0.0000
 11
3371.8000
 21
-15384.1250
 31
0.0000
 12
3434.2000
 22
-15384.1250
 32
0.0000
 13
3434.2000
 23
-15384.1250
 33
0.0000
  0
SOLID
  5
416
  8
חלונות - מידות
 10
3403.0000
 20
-14218.0000
 30
0.0000
 11
3371.8000
 21
-14105.8750
 31
0.0000
 12
3434.2000
 22
-14105.8750
 32
0.0000
 13
3434.2000
 23
-14105.8750
 33
0.0000
  0
TEXT
  5
417
  8
חלונות - מידות
 10
3310.3750
 20
-14745.0000
 30
0.0000
 40
97.5000
  1
105.4
 50
90.0000
  7
SOLINE
 72
1
 73
2
 11
3310.3750
 21
-14745.0000
 31
0.0000
  0
LINE
  5
418
  8
חלונות - מידות
 10
3550.5000
 20
-14218.0000
 30
0.0000
 11
3007.0000
 21
-14218.0000
 31
0.0000
  0
LINE
  5
419
  8
חלונות - מידות
 10
3550.5000
 20
-12886.0000
 30
0.0000
 11
3007.0000
 21
-12886.0000
 31
0.0000
  0
LINE
  5
41A
  8
חלונות - מידות
 10
3065.5000
 20
-14218.0000
 30
0.0000
 11
3065.5000
 21
-12886.0000
 31
0.0000
  0
SOLID
  5
41B
  8
חלונות - מידות
 10
3065.5000
 20
-14218.0000
 30
0.0000
 11
3034.3000
 21
-14330.1250
 31
0.0000
 12
3096.7000
 22
-14330.1250
 32
0.0000
 13
3096.7000
 23
-14330.1250
 33
0.0000
  0
SOLID
  5
41C
  8
חלונות - מידות
 10
3065.5000
 20
-12886.0000
 30
0.0000
 11
3034.3000
 21
-12773.8750
 31
0.0000
 12
3096.7000
 22
-12773.8750
 32
0.0000
 13
3096.7000
 23
-12773.8750
 33
0.0000
  0
TEXT
  5
41D
  8
חלונות - מידות
 10
2972.8750
 20
-13552.0000
 30
0.0000
 40
97.5000
  1
133.2
 50
90.0000
  7
SOLINE
 72
1
 73
2
 11
2972.8750
 21
-13552.0000
 31
0.0000
  0
LINE
  5
41E
  8
חלונות - מידות
 10
4799.5000
 20
-15272.0000
 30
0.0000
 11
5005.5000
 21
-15272.0000
 31
0.0000
  0
LINE
  5
41F
  8
חלונות - מידות
 10
4799.5000
 20
-12886.0000
 30
0.0000
 11
5005.5000
 21
-12886.0000
 31
0.0000
  0
LINE
  5
420
  8
חלונות - מידות
 10
4947.0000
 20
-15272.0000
 30
0.0000
 11
4947.0000
 21
-12886.0000
 31
0.0000
  0
SOLID
  5
421
  8
חלונות - מידות
 10
4947.0000
 20
-15272.0000
 30
0.0000
 11
4978.2000
 21
-15384.1250
 31
0.0000
 12
4915.8000
 22
-15384.1250
 32
0.0000
 13
4915.8000
 23
-15384.1250
 33
0.0000
  0
SOLID
  5
422
  8
חלונות - מידות
 10
4947.0000
 20
-12886.0000
 30
0.0000
 11
4978.2000
 21
-12773.8750
 31
0.0000
 12
4915.8000
 22
-12773.8750
 32
0.0000
 13
4915.8000
 23
-12773.8750
 33
0.0000
  0
TEXT
  5
423
  8
חלונות - מידות
 10
5039.6250
 20
-14079.0000
 30
0.0000
 40
97.5000
  1
238.6
 50
90.0000
  7
SOLINE
 72
1
 73
2
 11
5039.6250
 21
-14079.0000
 31
0.0000
  0
LINE
  5
424
  8
חלונות - מידות
 10
4799.5000
 20
-12886.0000
 30
0.0000
 11
5343.0000
 21
-12886.0000
 31
0.0000
  0
LINE
  5
425
  8
חלונות - מידות
 10
4799.5000
 20
-12634.0000
 30
0.0000
 11
5343.0000
 21
-12634.0000
 31
0.0000
  0
LINE
  5
426
  8
חלונות - מידות
 10
5284.5000
 20
-12886.0000
 30
0.0000
 11
5284.5000
 21
-12634.0000
 31
0.0000
  0
SOLID
  5
427
  8
חלונות - מידות
 10
5284.5000
 20
-12886.0000
 30
0.0000
 11
5315.7000
 21
-12998.1250
 31
0.0000
 12
5253.3000
 22
-12998.1250
 32
0.0000
 13
5253.3000
 23
-12998.1250
 33
0.0000
  0
SOLID
  5
428
  8
חלונות - מידות
 10
5284.5000
 20
-12634.0000
 30
0.0000
 11
5315.7000
 21
-12521.8750
 31
0.0000
 12
5253.3000
 22
-12521.8750
 32
0.0000
 13
5253.3000
 23
-12521.8750
 33
0.0000
  0
TEXT
  5
429
  8
חלונות - מידות
 10
5377.1250
 20
-12760.0000
 30
0.0000
 40
97.5000
  1
25.2
 50
90.0000
  7
SOLINE
 72
1
 73
2
 11
5377.1250
 21
-12760.0000
 31
0.0000
  0
LINE
  5
42A
  8
חלונות
 10
-1299.5000
 20
-15272.0000
 30
0.0000
 11
1657.5000
 21
-15272.0000
 31
0.0000
  0
LINE
  5
42B
  8
חלונות
 10
1657.5000
 20
-15272.0000
 30
0.0000
 11
1657.5000
 21
-12882.0000
 31
0.0000
  0
LINE
  5
42C
  8
חלונות
 10
1657.5000
 20
-12882.0000
 30
0.0000
 11
-1299.5000
 21
-12882.0000
 31
0.0000
  0
LINE
  5
42D
  8
חלונות
 10
-1299.5000
 20
-12882.0000
 30
0.0000
 11
-1299.5000
 21
-15272.0000
 31
0.0000
  0
LINE
  5
42E
  8
חלונות
 10
-1299.5000
 20
-13742.4000
 30
0.0000
 11
1657.5000
 21
-13742.4000
 31
0.0000
  0
LINE
  5
42F
  8
חלונות
 10
1657.5000
 20
-13742.4000
 30
0.0000
 11
1657.5000
 21
-14411.6000
 31
0.0000
  0
LINE
  5
430
  8
חלונות
 10
1657.5000
 20
-14411.6000
 30
0.0000
 11
-1299.5000
 21
-14411.6000
 31
0.0000
  0
LINE
  5
431
  8
חלונות
 10
-1299.5000
 20
-14411.6000
 30
0.0000
 11
-1299.5000
 21
-13742.4000
 31
0.0000
  0
LINE
  5
432
  8
חלונות
 10
-1299.5000
 20
-13969.9280
 30
0.0000
 11
1657.5000
 21
-13969.9280
 31
0.0000
  0
LINE
  5
433
  8
חלונות
 10
-1299.5000
 20
-14184.0720
 30
0.0000
 11
1657.5000
 21
-14184.0720
 31
0.0000
  0
LINE
  5
434
  8
חלונות - מידות
 10
-187.0000
 20
-15232.0000
 30
0.0000
 11
-187.0000
 21
-11249.5000
 31
0.0000
  0
LINE
  5
435
  8
חלונות - מידות
 10
-1299.5000
 20
-15232.0000
 30
0.0000
 11
-1299.5000
 21
-11249.5000
 31
0.0000
  0
LINE
  5
436
  8
חלונות - מידות
 10
-187.0000
 20
-11309.5000
 30
0.0000
 11
-1299.5000
 21
-11309.5000
 31
0.0000
  0
SOLID
  5
437
  8
חלונות - מידות
 10
-187.0000
 20
-11309.5000
 30
0.0000
 11
-72.0000
 21
-11277.5000
 31
0.0000
 12
-72.0000
 22
-11341.5000
 32
0.0000
 13
-72.0000
 23
-11341.5000
 33
0.0000
  0
SOLID
  5
438
  8
חלונות - מידות
 10
-1299.5000
 20
-11309.5000
 30
0.0000
 11
-1414.5000
 21
-11277.5000
 31
0.0000
 12
-1414.5000
 22
-11341.5000
 32
0.0000
 13
-1414.5000
 23
-11341.5000
 33
0.0000
  0
TEXT
  5
439
  8
חלונות - מידות
 10
-743.2500
 20
-11214.5000
 30
0.0000
 40
100.0000
  1
111.3
 50
360.0000
  7
SOLINE
 72
1
 73
2
 11
-743.2500
 21
-11214.5000
 31
0.0000
  0
LINE
  5
43A
  8
חלונות - מידות
 10
-1299.5000
 20
-12842.0000
 30
0.0000
 11
-1299.5000
 21
-12598.5000
 31
0.0000
  0
LINE
  5
43B
  8
חלונות - מידות
 10
1657.5000
 20
-12842.0000
 30
0.0000
 11
1657.5000
 21
-12598.5000
 31
0.0000
  0
LINE
  5
43C
  8
חלונות - מידות
 10
-1299.5000
 20
-12657.0000
 30
0.0000
 11
1657.5000
 21
-12657.0000
 31
0.0000
  0
SOLID
  5
43D
  8
חלונות - מידות
 10
-1299.5000
 20
-12657.0000
 30
0.0000
 11
-1411.6250
 21
-12625.8000
 31
0.0000
 12
-1411.6250
 22
-12688.2000
 32
0.0000
 13
-1411.6250
 23
-12688.2000
 33
0.0000
  0
SOLID
  5
43E
  8
חלונות - מידות
 10
1657.5000
 20
-12657.0000
 30
0.0000
 11
1769.6250
 21
-12625.8000
 31
0.0000
 12
1769.6250
 22
-12688.2000
 32
0.0000
 13
1769.6250
 23
-12688.2000
 33
0.0000
  0
TEXT
  5
43F
  8
חלונות - מידות
 10
179.0000
 20
-12564.3750
 30
0.0000
 40
97.5000
  1
295.7
 50
0.0000
  7
SOLINE
 72
1
 73
2
 11
179.0000
 21
-12564.3750
 31
0.0000
  0
LINE
  5
440
  8
חלונות - מידות
 10
-1339.5000
 20
-15272.0000
 30
0.0000
 11
-1883.0000
 21
-15272.0000
 31
0.0000
  0
LINE
  5
441
  8
חלונות - מידות
 10
-1339.5000
 20
-12882.0000
 30
0.0000
 11
-1883.0000
 21
-12882.0000
 31
0.0000
  0
LINE
  5
442
  8
חלונות - מידות
 10
-1824.5000
 20
-15272.0000
 30
0.0000
 11
-1824.5000
 21
-12882.0000
 31
0.0000
  0
SOLID
  5
443
  8
חלונות - מידות
 10
-1824.5000
 20
-15272.0000
 30
0.0000
 11
-1855.7000
 21
-15384.1250
 31
0.0000
 12
-1793.3000
 22
-15384.1250
 32
0.0000
 13
-1793.3000
 23
-15384.1250
 33
0.0000
  0
SOLID
  5
444
  8
חלונות - מידות
 10
-1824.5000
 20
-12882.0000
 30
0.0000
 11
-1855.7000
 21
-12769.8750
 31
0.0000
 12
-1793.3000
 22
-12769.8750
 32
0.0000
 13
-1793.3000
 23
-12769.8750
 33
0.0000
  0
TEXT
  5
445
  8
חלונות - מידות
 10
-1917.1250
 20
-14077.0000
 30
0.0000
 40
97.5000
  1
239
 50
90.0000
  7
SOLINE
 72
1
 73
2
 11
-1917.1250
 21
-14077.0000
 31
0.0000
  0
LINE
  5
446
  8
חלונות - מידות
 10
1697.5000
 20
-15272.0000
 30
0.0000
 11
1903.5000
 21
-15272.0000
 31
0.0000
  0
LINE
  5
447
  8
חלונות - מידות
 10
1697.5000
 20
-12882.0000
 30
0.0000
 11
1903.5000
 21
-12882.0000
 31
0.0000
  0
LINE
  5
448
  8
חלונות - מידות
 10
1845.0000
 20
-15272.0000
 30
0.0000
 11
1845.0000
 21
-12882.0000
 31
0.0000
  0
SOLID
  5
449
  8
חלונות - מידות
 10
1845.0000
 20
-15272.0000
 30
0.0000
 11
1876.2000
 21
-15384.1250
 31
0.0000
 12
1813.8000
 22
-15384.1250
 32
0.0000
 13
1813.8000
 23
-15384.1250
 33
0.0000
  0
SOLID
  5
44A
  8
חלונות - מידות
 10
1845.0000
 20
-12882.0000
 30
0.0000
 11
1876.2000
 21
-12769.8750
 31
0.0000
 12
1813.8000
 22
-12769.8750
 32
0.0000
 13
1813.8000
 23
-12769.8750
 33
0.0000
  0
TEXT
  5
44B
  8
חלונות - מידות
 10
1937.6250
 20
-14077.0000
 30
0.0000
 40
97.5000
  1
239
 50
90.0000
  7
SOLINE
 72
1
 73
2
 11
1937.6250
 21
-14077.0000
 31
0.0000
  0
LINE
  5
44C
  8
חלונות - מידות
 10
1697.5000
 20
-12882.0000
 30
0.0000
 11
2241.0000
 21
-12882.0000
 31
0.0000
  0
LINE
  5
44D
  8
חלונות - מידות
 10
1697.5000
 20
-12634.0000
 30
0.0000
 11
2241.0000
 21
-12634.0000
 31
0.0000
  0
LINE
  5
44E
  8
חלונות - מידות
 10
2182.5000
 20
-12882.0000
 30
0.0000
 11
2182.5000
 21
-12634.0000
 31
0.0000
  0
SOLID
  5
44F
  8
חלונות - מידות
 10
2182.5000
 20
-12882.0000
 30
0.0000
 11
2213.7000
 21
-12994.1250
 31
0.0000
 12
2151.3000
 22
-12994.1250
 32
0.0000
 13
2151.3000
 23
-12994.1250
 33
0.0000
  0
SOLID
  5
450
  8
חלונות - מידות
 10
2182.5000
 20
-12634.0000
 30
0.0000
 11
2213.7000
 21
-12521.8750
 31
0.0000
 12
2151.3000
 22
-12521.8750
 32
0.0000
 13
2151.3000
 23
-12521.8750
 33
0.0000
  0
TEXT
  5
451
  8
חלונות - מידות
 10
2275.1250
 20
-12758.0000
 30
0.0000
 40
97.5000
  1
24.8
 50
90.0000
  7
SOLINE
 72
1
 73
2
 11
2275.1250
 21
-12758.0000
 31
0.0000
  0
TEXT
  5
452
  8
קירות - טקסט
 10
2934.5000
 20
-16209.5000
 30
0.0000
 40
162.5000
  1
W1
 50
0.0000
  7
SOLINE
 72
1
 73
2
 11
2934.5000
 21
-16209.5000
 31
0.0000
  0
LINE
  5
453
  8
קירות
 10
8556.0000
 20
-15272.0000
 30
0.0000
 11
12151.0000
 21
-15272.0000
 31
0.0000
  0
LINE
  5
454
  8
קירות
 10
12151.0000
 20
-15272.0000
 30
0.0000
 11
12151.0000
 21
-12634.0000
 31
0.0000
  0
LINE
  5
455
  8
קירות
 10
12151.0000
 20
-12634.0000
 30
0.0000
 11
8556.0000
 21
-12634.0000
 31
0.0000
  0
LINE
  5
456
  8
קירות
 10
8556.0000
 20
-12634.0000
 30
0.0000
 11
8556.0000
 21
-15272.0000
 31
0.0000
  0
LINE
  5
457
  8
מידות - חוץ
 10
8556.0000
 20
-15322.0000
 30
0.0000
 11
8556.0000
 21
-15722.0000
 31
0.0000
  0
LINE
  5
458
  8
מידות - חוץ
 10
12151.0000
 20
-15322.0000
 30
0.0000
 11
12151.0000
 21
-15722.0000
 31
0.0000
  0
LINE
  5
459
  8
מידות - חוץ
 10
8556.0000
 20
-15647.0000
 30
0.0000
 11
12151.0000
 21
-15647.0000
 31
0.0000
  0
SOLID
  5
45A
  8
מידות - חוץ
 10
8556.0000
 20
-15647.0000
 30
0.0000
 11
8412.2500
 21
-15687.0000
 31
0.0000
 12
8412.2500
 22
-15607.0000
 32
0.0000
 13
8412.2500
 23
-15607.0000
 33
0.0000
  0
SOLID
  5
45B
  8
מידות - חוץ
 10
12151.0000
 20
-15647.0000
 30
0.0000
 11
12294.7500
 21
-15687.0000
 31
0.0000
 12
12294.7500
 22
-15607.0000
 32
0.0000
 13
12294.7500
 23
-15607.0000
 33
0.0000
  0
TEXT
  5
45C
  8
מידות - חוץ
 10
10353.5000
 20
-15765.7500
 30
0.0000
 40
125.0000
  1
359.5
 50
0.0000
  7
SOLINE
 72
1
 73
2
 11
10353.5000
 21
-15765.7500
 31
0.0000
  0
LINE
  5
45D
  8
מידות - חוץ
 10
8506.0000
 20
-15272.0000
 30
0.0000
 11
8106.0000
 21
-15272.0000
 31
0.0000
  0
LINE
  5
45E
  8
מידות - חוץ
 10
8506.0000
 20
-12634.0000
 30
0.0000
 11
8106.0000
 21
-12634.0000
 31
0.0000
  0
LINE
  5
45F
  8
מידות - חוץ
 10
8181.0000
 20
-15272.0000
 30
0.0000
 11
8181.0000
 21
-12634.0000
 31
0.0000
  0
SOLID
  5
460
  8
מידות - חוץ
 10
8181.0000
 20
-15272.0000
 30
0.0000
 11
8141.0000
 21
-15415.7500
 31
0.0000
 12
8221.0000
 22
-15415.7500
 32
0.0000
 13
8221.0000
 23
-15415.7500
 33
0.0000
  0
SOLID
  5
461
  8
מידות - חוץ
 10
8181.0000
 20
-12634.0000
 30
0.0000
 11
8141.0000
 21
-12490.2500
 31
0.0000
 12
8221.0000
 22
-12490.2500
 32
0.0000
 13
8221.0000
 23
-12490.2500
 33
0.0000
  0
TEXT
  5
462
  8
מידות - חוץ
 10
8062.2500
 20
-13953.0000
 30
0.0000
 40
125.0000
  1
263.8
 50
90.0000
  7
SOLINE
 72
1
 73
2
 11
8062.2500
 21
-13953.0000
 31
0.0000
  0
LINE
  5
463
  8
חשמל
 10
11860.0054
 20
-13765.0000
 30
0.0000
 11
11940.0054
 21
-13765.0000
 31
0.0000
  0
LINE
  5
464
  8
חשמל
 10
11940.0054
 20
-13765.0000
 30
0.0000
 11
11940.0054
 21
-13685.0000
 31
0.0000
  0
LINE
  5
465
  8
חשמל
 10
11940.0054
 20
-13685.0000
 30
0.0000
 11
11860.0054
 21
-13685.0000
 31
0.0000
  0
LINE
  5
466
  8
חשמל
 10
11860.0054
 20
-13685.0000
 30
0.0000
 11
11860.0054
 21
-13765.0000
 31
0.0000
  0
LINE
  5
467
  8
חשמל
 10
11900.0054
 20
-13765.0000
 30
0.0000
 11
11900.0054
 21
-13728.2000
 31
0.0000
  0
LINE
  5
468
  8
חשמל
 10
11874.4054
 20
-13728.2000
 30
0.0000
 11
11874.5663
 21
-13725.3337
 31
0.0000
  0
LINE
  5
469
  8
חשמל
 10
11874.5663
 20
-13725.3337
 30
0.0000
 11
11875.0472
 21
-13722.5035
 31
0.0000
  0
LINE
  5
46A
  8
חשמל
 10
11875.0472
 20
-13722.5035
 30
0.0000
 11
11875.8420
 21
-13719.7449
 31
0.0000
  0
LINE
  5
46B
  8
חשמל
 10
11875.8420
 20
-13719.7449
 30
0.0000
 11
11876.9406
 21
-13717.0926
 31
0.0000
  0
LINE
  5
46C
  8
חשמל
 10
11876.9406
 20
-13717.0926
 30
0.0000
 11
11878.3292
 21
-13714.5800
 31
0.0000
  0
LINE
  5
46D
  8
חשמל
 10
11878.3292
 20
-13714.5800
 30
0.0000
 11
11879.9905
 21
-13712.2387
 31
0.0000
  0
LINE
  5
46E
  8
חשמל
 10
11879.9905
 20
-13712.2387
 30
0.0000
 11
11881.9034
 21
-13710.0981
 31
0.0000
  0
LINE
  5
46F
  8
חשמל
 10
11881.9034
 20
-13710.0981
 30
0.0000
 11
11884.0440
 21
-13708.1851
 31
0.0000
  0
LINE
  5
470
  8
חשמל
 10
11884.0440
 20
-13708.1851
 30
0.0000
 11
11886.3854
 21
-13706.5239
 31
0.0000
  0
LINE
  5
471
  8
חשמל
 10
11886.3854
 20
-13706.5239
 30
0.0000
 11
11888.8980
 21
-13705.1352
 31
0.0000
  0
LINE
  5
472
  8
חשמל
 10
11888.8980
 20
-13705.1352
 30
0.0000
 11
11891.5502
 21
-13704.0366
 31
0.0000
  0
LINE
  5
473
  8
חשמל
 10
11891.5502
 20
-13704.0366
 30
0.0000
 11
11894.3088
 21
-13703.2418
 31
0.0000
  0
LINE
  5
474
  8
חשמל
 10
11894.3088
 20
-13703.2418
 30
0.0000
 11
11897.1391
 21
-13702.7610
 31
0.0000
  0
LINE
  5
475
  8
חשמל
 10
11897.1391
 20
-13702.7610
 30
0.0000
 11
11900.0054
 21
-13702.6000
 31
0.0000
  0
LINE
  5
476
  8
חשמל
 10
11900.0054
 20
-13702.6000
 30
0.0000
 11
11902.8717
 21
-13702.7610
 31
0.0000
  0
LINE
  5
477
  8
חשמל
 10
11902.8717
 20
-13702.7610
 30
0.0000
 11
11905.7019
 21
-13703.2418
 31
0.0000
  0
LINE
  5
478
  8
חשמל
 10
11905.7019
 20
-13703.2418
 30
0.0000
 11
11908.4605
 21
-13704.0366
 31
0.0000
  0
LINE
  5
479
  8
חשמל
 10
11908.4605
 20
-13704.0366
 30
0.0000
 11
11911.1128
 21
-13705.1352
 31
0.0000
  0
LINE
  5
47A
  8
חשמל
 10
11911.1128
 20
-13705.1352
 30
0.0000
 11
11913.6254
 21
-13706.5239
 31
0.0000
  0
LINE
  5
47B
  8
חשמל
 10
11913.6254
 20
-13706.5239
 30
0.0000
 11
11915.9667
 21
-13708.1851
 31
0.0000
  0
LINE
  5
47C
  8
חשמל
 10
11915.9667
 20
-13708.1851
 30
0.0000
 11
11918.1073
 21
-13710.0981
 31
0.0000
  0
LINE
  5
47D
  8
חשמל
 10
11918.1073
 20
-13710.0981
 30
0.0000
 11
11920.0203
 21
-13712.2387
 31
0.0000
  0
LINE
  5
47E
  8
חשמל
 10
11920.0203
 20
-13712.2387
 30
0.0000
 11
11921.6815
 21
-13714.5800
 31
0.0000
  0
LINE
  5
47F
  8
חשמל
 10
11921.6815
 20
-13714.5800
 30
0.0000
 11
11923.0702
 21
-13717.0926
 31
0.0000
  0
LINE
  5
480
  8
חשמל
 10
11923.0702
 20
-13717.0926
 30
0.0000
 11
11924.1688
 21
-13719.7449
 31
0.0000
  0
LINE
  5
481
  8
חשמל
 10
11924.1688
 20
-13719.7449
 30
0.0000
 11
11924.9635
 21
-13722.5035
 31
0.0000
  0
LINE
  5
482
  8
חשמל
 10
11924.9635
 20
-13722.5035
 30
0.0000
 11
11925.4444
 21
-13725.3337
 31
0.0000
  0
LINE
  5
483
  8
חשמל
 10
11925.4444
 20
-13725.3337
 30
0.0000
 11
11925.6054
 21
-13728.2000
 31
0.0000
  0
LINE
  5
484
  8
חשמל
 10
11874.4054
 20
-13728.2000
 30
0.0000
 11
11925.6054
 21
-13728.2000
 31
0.0000
  0
LINE
  5
485
  8
חשמל - מידות
 10
12151.0000
 20
-15232.0000
 30
0.0000
 11
12151.0000
 21
-14399.5000
 31
0.0000
  0
LINE
  5
486
  8
חשמל - מידות
 10
11900.0054
 20
-15232.0000
 30
0.0000
 11
11900.0054
 21
-14399.5000
 31
0.0000
  0
LINE
  5
487
  8
חשמל - מידות
 10
12151.0000
 20
-14459.5000
 30
0.0000
 11
11900.0054
 21
-14459.5000
 31
0.0000
  0
SOLID
  5
488
  8
חשמל - מידות
 10
12151.0000
 20
-14459.5000
 30
0.0000
 11
12266.0000
 21
-14427.5000
 31
0.0000
 12
12266.0000
 22
-14491.5000
 32
0.0000
 13
12266.0000
 23
-14491.5000
 33
0.0000
  0
SOLID
  5
489
  8
חשמל - מידות
 10
11900.0054
 20
-14459.5000
 30
0.0000
 11
11785.0054
 21
-14427.5000
 31
0.0000
 12
11785.0054
 22
-14491.5000
 32
0.0000
 13
11785.0054
 23
-14491.5000
 33
0.0000
  0
TEXT
  5
48A
  8
חשמל - מידות
 10
12025.5027
 20
-14364.5000
 30
0.0000
 40
100.0000
  1
25.1
 50
360.0000
  7
SOLINE
 72
1
 73
2
 11
12025.5027
 21
-14364.5000
 31
0.0000
  0
LINE
  5
48B
  8
חשמל - מידות
 10
11860.0054
 20
-15272.0000
 30
0.0000
 11
11612.5054
 21
-15272.0000
 31
0.0000
  0
LINE
  5
48C
  8
חשמל - מידות
 10
11860.0054
 20
-13725.0000
 30
0.0000
 11
11612.5054
 21
-13725.0000
 31
0.0000
  0
LINE
  5
48D
  8
חשמל - מידות
 10
11672.5054
 20
-15272.0000
 30
0.0000
 11
11672.5054
 21
-13725.0000
 31
0.0000
  0
SOLID
  5
48E
  8
חשמל - מידות
 10
11672.5054
 20
-15272.0000
 30
0.0000
 11
11640.5054
 21
-15387.0000
 31
0.0000
 12
11704.5054
 22
-15387.0000
 32
0.0000
 13
11704.5054
 23
-15387.0000
 33
0.0000
  0
SOLID
  5
48F
  8
חשמל - מידות
 10
11672.5054
 20
-13725.0000
 30
0.0000
 11
11640.5054
 21
-13610.0000
 31
0.0000
 12
11704.5054
 22
-13610.0000
 32
0.0000
 13
11704.5054
 23
-13610.0000
 33
0.0000
  0
TEXT
  5
490
  8
חשמל - מידות
 10
11577.5054
 20
-14498.5000
 30
0.0000
 40
100.0000
  1
154.7
 50
90.0000
  7
SOLINE
 72
1
 73
2
 11
11577.5054
 21
-14498.5000
 31
0.0000
  0
LINE
  5
491
  8
חשמל
 10
11698.0056
 20
-13768.0000
 30
0.0000
 11
11778.0056
 21
-13768.0000
 31
0.0000
  0
LINE
  5
492
  8
חשמל
 10
11778.0056
 20
-13768.0000
 30
0.0000
 11
11778.0056
 21
-13688.0000
 31
0.0000
  0
LINE
  5
493
  8
חשמל
 10
11778.0056
 20
-13688.0000
 30
0.0000
 11
11698.0056
 21
-13688.0000
 31
0.0000
  0
LINE
  5
494
  8
חשמל
 10
11698.0056
 20
-13688.0000
 30
0.0000
 11
11698.0056
 21
-13768.0000
 31
0.0000
  0
LINE
  5
495
  8
חשמל
 10
11738.0056
 20
-13768.0000
 30
0.0000
 11
11738.0056
 21
-13731.2000
 31
0.0000
  0
LINE
  5
496
  8
חשמל
 10
11712.4056
 20
-13731.2000
 30
0.0000
 11
11712.5666
 21
-13728.3337
 31
0.0000
  0
LINE
  5
497
  8
חשמל
 10
11712.5666
 20
-13728.3337
 30
0.0000
 11
11713.0475
 21
-13725.5035
 31
0.0000
  0
LINE
  5
498
  8
חשמל
 10
11713.0475
 20
-13725.5035
 30
0.0000
 11
11713.8422
 21
-13722.7449
 31
0.0000
  0
LINE
  5
499
  8
חשמל
 10
11713.8422
 20
-13722.7449
 30
0.0000
 11
11714.9408
 21
-13720.0926
 31
0.0000
  0
LINE
  5
49A
  8
חשמל
 10
11714.9408
 20
-13720.0926
 30
0.0000
 11
11716.3295
 21
-13717.5800
 31
0.0000
  0
LINE
  5
49B
  8
חשמל
 10
11716.3295
 20
-13717.5800
 30
0.0000
 11
11717.9907
 21
-13715.2387
 31
0.0000
  0
LINE
  5
49C
  8
חשמל
 10
11717.9907
 20
-13715.2387
 30
0.0000
 11
11719.9037
 21
-13713.0981
 31
0.0000
  0
LINE
  5
49D
  8
חשמל
 10
11719.9037
 20
-13713.0981
 30
0.0000
 11
11722.0443
 21
-13711.1851
 31
0.0000
  0
LINE
  5
49E
  8
חשמל
 10
11722.0443
 20
-13711.1851
 30
0.0000
 11
11724.3856
 21
-13709.5239
 31
0.0000
  0
LINE
  5
49F
  8
חשמל
 10
11724.3856
 20
-13709.5239
 30
0.0000
 11
11726.8982
 21
-13708.1352
 31
0.0000
  0
LINE
  5
4A0
  8
חשמל
 10
11726.8982
 20
-13708.1352
 30
0.0000
 11
11729.5505
 21
-13707.0366
 31
0.0000
  0
LINE
  5
4A1
  8
חשמל
 10
11729.5505
 20
-13707.0366
 30
0.0000
 11
11732.3091
 21
-13706.2418
 31
0.0000
  0
LINE
  5
4A2
  8
חשמל
 10
11732.3091
 20
-13706.2418
 30
0.0000
 11
11735.1393
 21
-13705.7610
 31
0.0000
  0
LINE
  5
4A3
  8
חשמל
 10
11735.1393
 20
-13705.7610
 30
0.0000
 11
11738.0056
 21
-13705.6000
 31
0.0000
  0
LINE
  5
4A4
  8
חשמל
 10
11738.0056
 20
-13705.6000
 30
0.0000
 11
11740.8719
 21
-13705.7610
 31
0.0000
  0
LINE
  5
4A5
  8
חשמל
 10
11740.8719
 20
-13705.7610
 30
0.0000
 11
11743.7022
 21
-13706.2418
 31
0.0000
  0
LINE
  5
4A6
  8
חשמל
 10
11743.7022
 20
-13706.2418
 30
0.0000
 11
11746.4608
 21
-13707.0366
 31
0.0000
  0
LINE
  5
4A7
  8
חשמל
 10
11746.4608
 20
-13707.0366
 30
0.0000
 11
11749.1130
 21
-13708.1352
 31
0.0000
  0
LINE
  5
4A8
  8
חשמל
 10
11749.1130
 20
-13708.1352
 30
0.0000
 11
11751.6256
 21
-13709.5239
 31
0.0000
  0
LINE
  5
4A9
  8
חשמל
 10
11751.6256
 20
-13709.5239
 30
0.0000
 11
11753.9670
 21
-13711.1851
 31
0.0000
  0
LINE
  5
4AA
  8
חשמל
 10
11753.9670
 20
-13711.1851
 30
0.0000
 11
11756.1076
 21
-13713.0981
 31
0.0000
  0
LINE
  5
4AB
  8
חשמל
 10
11756.1076
 20
-13713.0981
 30
0.0000
 11
11758.0205
 21
-13715.2387
 31
0.0000
  0
LINE
  5
4AC
  8
חשמל
 10
11758.0205
 20
-13715.2387
 30
0.0000
 11
11759.6818
 21
-13717.5800
 31
0.0000
  0
LINE
  5
4AD
  8
חשמל
 10
11759.6818
 20
-13717.5800
 30
0.0000
 11
11761.0704
 21
-13720.0926
 31
0.0000
  0
LINE
  5
4AE
  8
חשמל
 10
11761.0704
 20
-13720.0926
 30
0.0000
 11
11762.1690
 21
-13722.7449
 31
0.0000
  0
LINE
  5
4AF
  8
חשמל
 10
11762.1690
 20
-13722.7449
 30
0.0000
 11
11762.9638
 21
-13725.5035
 31
0.0000
  0
LINE
  5
4B0
  8
חשמל
 10
11762.9638
 20
-13725.5035
 30
0.0000
 11
11763.4447
 21
-13728.3337
 31
0.0000
  0
LINE
  5
4B1
  8
חשמל
 10
11763.4447
 20
-13728.3337
 30
0.0000
 11
11763.6056
 21
-13731.2000
 31
0.0000
  0
LINE
  5
4B2
  8
חשמל
 10
11712.4056
 20
-13731.2000
 30
0.0000
 11
11763.6056
 21
-13731.2000
 31
0.0000
  0
LINE
  5
4B3
  8
חשמל - מידות
 10
12151.0000
 20
-15232.0000
 30
0.0000
 11
12151.0000
 21
-14049.5000
 31
0.0000
  0
LINE
  5
4B4
  8
חשמל - מידות
 10
11738.0056
 20
-15232.0000
 30
0.0000
 11
11738.0056
 21
-14049.5000
 31
0.0000
  0
LINE
  5
4B5
  8
חשמל - מידות
 10
12151.0000
 20
-14109.5000
 30
0.0000
 11
11738.0056
 21
-14109.5000
 31
0.0000
  0
SOLID
  5
4B6
  8
חשמל - מידות
 10
12151.0000
 20
-14109.5000
 30
0.0000
 11
12266.0000
 21
-14077.5000
 31
0.0000
 12
12266.0000
 22
-14141.5000
 32
0.0000
 13
12266.0000
 23
-14141.5000
 33
0.0000
  0
SOLID
  5
4B7
  8
חשמל - מידות
 10
11738.0056
 20
-14109.5000
 30
0.0000
 11
11623.0056
 21
-14077.5000
 31
0.0000
 12
11623.0056
 22
-14141.5000
 32
0.0000
 13
11623.0056
 23
-14141.5000
 33
0.0000
  0
TEXT
  5
4B8
  8
חשמל - מידות
 10
11944.5028
 20
-14014.5000
 30
0.0000
 40
100.0000
  1
41.3
 50
360.0000
  7
SOLINE
 72
1
 73
2
 11
11944.5028
 21
-14014.5000
 31
0.0000
  0
LINE
  5
4B9
  8
חשמל - מידות
 10
11778.0056
 20
-15272.0000
 30
0.0000
 11
12025.5056
 21
-15272.0000
 31
0.0000
  0
LINE
  5
4BA
  8
חשמל - מידות
 10
11778.0056
 20
-13728.0000
 30
0.0000
 11
12025.5056
 21
-13728.0000
 31
0.0000
  0
LINE
  5
4BB
  8
חשמל - מידות
 10
11965.5056
 20
-15272.0000
 30
0.0000
 11
11965.5056
 21
-13728.0000
 31
0.0000
  0
SOLID
  5
4BC
  8
חשמל - מידות
 10
11965.5056
 20
-15272.0000
 30
0.0000
 11
11997.5056
 21
-15387.0000
 31
0.0000
 12
11933.5056
 22
-15387.0000
 32
0.0000
 13
11933.5056
 23
-15387.0000
 33
0.0000
  0
SOLID
  5
4BD
  8
חשמל - מידות
 10
11965.5056
 20
-13728.0000
 30
0.0000
 11
11997.5056
 21
-13613.0000
 31
0.0000
 12
11933.5056
 22
-13613.0000
 32
0.0000
 13
11933.5056
 23
-13613.0000
 33
0.0000
  0
TEXT
  5
4BE
  8
חשמל - מידות
 10
12060.5056
 20
-14500.0000
 30
0.0000
 40
100.0000
  1
154.4
 50
90.0000
  7
SOLINE
 72
1
 73
2
 11
12060.5056
 21
-14500.0000
 31
0.0000
  0
LINE
  5
4BF
  8
חשמל
 10
11218.0046
 20
-14206.0000
 30
0.0000
 11
11378.0046
 21
-14206.0000
 31
0.0000
  0
LINE
  5
4C0
  8
חשמל
 10
11378.0046
 20
-14206.0000
 30
0.0000
 11
11378.0046
 21
-14126.0000
 31
0.0000
  0
LINE
  5
4C1
  8
חשמל
 10
11378.0046
 20
-14126.0000
 30
0.0000
 11
11218.0046
 21
-14126.0000
 31
0.0000
  0
LINE
  5
4C2
  8
חשמל
 10
11218.0046
 20
-14126.0000
 30
0.0000
 11
11218.0046
 21
-14206.0000
 31
0.0000
  0
LINE
  5
4C3
  8
חשמל
 10
11298.0046
 20
-14206.0000
 30
0.0000
 11
11298.0046
 21
-14169.2000
 31
0.0000
  0
LINE
  5
4C4
  8
חשמל
 10
11218.9006
 20
-14169.2000
 30
0.0000
 11
11219.1420
 21
-14167.0503
 31
0.0000
  0
LINE
  5
4C5
  8
חשמל
 10
11219.1420
 20
-14167.0503
 30
0.0000
 11
11219.8633
 21
-14164.9276
 31
0.0000
  0
LINE
  5
4C6
  8
חשמל
 10
11219.8633
 20
-14164.9276
 30
0.0000
 11
11221.0554
 21
-14162.8586
 31
0.0000
  0
LINE
  5
4C7
  8
חשמל
 10
11221.0554
 20
-14162.8586
 30
0.0000
 11
11222.7033
 21
-14160.8694
 31
0.0000
  0
LINE
  5
4C8
  8
חשמל
 10
11222.7033
 20
-14160.8694
 30
0.0000
 11
11224.7863
 21
-14158.9850
 31
0.0000
  0
LINE
  5
4C9
  8
חשמל
 10
11224.7863
 20
-14158.9850
 30
0.0000
 11
11227.2782
 21
-14157.2290
 31
0.0000
  0
LINE
  5
4CA
  8
חשמל
 10
11227.2782
 20
-14157.2290
 30
0.0000
 11
11230.1476
 21
-14155.6235
 31
0.0000
  0
LINE
  5
4CB
  8
חשמל
 10
11230.1476
 20
-14155.6235
 30
0.0000
 11
11233.3585
 21
-14154.1888
 31
0.0000
  0
LINE
  5
4CC
  8
חשמל
 10
11233.3585
 20
-14154.1888
 30
0.0000
 11
11236.8705
 21
-14152.9429
 31
0.0000
  0
LINE
  5
4CD
  8
חשמל
 10
11236.8705
 20
-14152.9429
 30
0.0000
 11
11240.6394
 21
-14151.9014
 31
0.0000
  0
LINE
  5
4CE
  8
חשמל
 10
11240.6394
 20
-14151.9014
 30
0.0000
 11
11244.6178
 21
-14151.0774
 31
0.0000
  0
LINE
  5
4CF
  8
חשמל
 10
11244.6178
 20
-14151.0774
 30
0.0000
 11
11248.7557
 21
-14150.4814
 31
0.0000
  0
LINE
  5
4D0
  8
חשמל
 10
11248.7557
 20
-14150.4814
 30
0.0000
 11
11253.0011
 21
-14150.1207
 31
0.0000
  0
LINE
  5
4D1
  8
חשמל
 10
11253.0011
 20
-14150.1207
 30
0.0000
 11
11257.3006
 21
-14150.0000
 31
0.0000
  0
LINE
  5
4D2
  8
חשמל
 10
11257.3006
 20
-14150.0000
 30
0.0000
 11
11261.6000
 21
-14150.1207
 31
0.0000
  0
LINE
  5
4D3
  8
חשמל
 10
11261.6000
 20
-14150.1207
 30
0.0000
 11
11265.8454
 21
-14150.4814
 31
0.0000
  0
LINE
  5
4D4
  8
חשמל
 10
11265.8454
 20
-14150.4814
 30
0.0000
 11
11269.9833
 21
-14151.0774
 31
0.0000
  0
LINE
  5
4D5
  8
חשמל
 10
11269.9833
 20
-14151.0774
 30
0.0000
 11
11273.9617
 21
-14151.9014
 31
0.0000
  0
LINE
  5
4D6
  8
חשמל
 10
11273.9617
 20
-14151.9014
 30
0.0000
 11
11277.7306
 21
-14152.9429
 31
0.0000
  0
LINE
  5
4D7
  8
חשמל
 10
11277.7306
 20
-14152.9429
 30
0.0000
 11
11281.2426
 21
-14154.1888
 31
0.0000
  0
LINE
  5
4D8
  8
חשמל
 10
11281.2426
 20
-14154.1888
 30
0.0000
 11
11284.4535
 21
-14155.6235
 31
0.0000
  0
LINE
  5
4D9
  8
חשמל
 10
11284.4535
 20
-14155.6235
 30
0.0000
 11
11287.3229
 21
-14157.2290
 31
0.0000
  0
LINE
  5
4DA
  8
חשמל
 10
11287.3229
 20
-14157.2290
 30
0.0000
 11
11289.8148
 21
-14158.9850
 31
0.0000
  0
LINE
  5
4DB
  8
חשמל
 10
11289.8148
 20
-14158.9850
 30
0.0000
 11
11291.8978
 21
-14160.8694
 31
0.0000
  0
LINE
  5
4DC
  8
חשמל
 10
11291.8978
 20
-14160.8694
 30
0.0000
 11
11293.5457
 21
-14162.8586
 31
0.0000
  0
LINE
  5
4DD
  8
חשמל
 10
11293.5457
 20
-14162.8586
 30
0.0000
 11
11294.7378
 21
-14164.9276
 31
0.0000
  0
LINE
  5
4DE
  8
חשמל
 10
11294.7378
 20
-14164.9276
 30
0.0000
 11
11295.4591
 21
-14167.0503
 31
0.0000
  0
LINE
  5
4DF
  8
חשמל
 10
11295.4591
 20
-14167.0503
 30
0.0000
 11
11295.7006
 21
-14169.2000
 31
0.0000
  0
LINE
  5
4E0
  8
חשמל
 10
11218.9006
 20
-14169.2000
 30
0.0000
 11
11295.7006
 21
-14169.2000
 31
0.0000
  0
LINE
  5
4E1
  8
חשמל
 10
11300.3086
 20
-14169.2000
 30
0.0000
 11
11300.5500
 21
-14167.0503
 31
0.0000
  0
LINE
  5
4E2
  8
חשמל
 10
11300.5500
 20
-14167.0503
 30
0.0000
 11
11301.2713
 21
-14164.9276
 31
0.0000
  0
LINE
  5
4E3
  8
חשמל
 10
11301.2713
 20
-14164.9276
 30
0.0000
 11
11302.4634
 21
-14162.8586
 31
0.0000
  0
LINE
  5
4E4
  8
חשמל
 10
11302.4634
 20
-14162.8586
 30
0.0000
 11
11304.1113
 21
-14160.8694
 31
0.0000
  0
LINE
  5
4E5
  8
חשמל
 10
11304.1113
 20
-14160.8694
 30
0.0000
 11
11306.1943
 21
-14158.9850
 31
0.0000
  0
LINE
  5
4E6
  8
חשמל
 10
11306.1943
 20
-14158.9850
 30
0.0000
 11
11308.6862
 21
-14157.2290
 31
0.0000
  0
LINE
  5
4E7
  8
חשמל
 10
11308.6862
 20
-14157.2290
 30
0.0000
 11
11311.5556
 21
-14155.6235
 31
0.0000
  0
LINE
  5
4E8
  8
חשמל
 10
11311.5556
 20
-14155.6235
 30
0.0000
 11
11314.7665
 21
-14154.1888
 31
0.0000
  0
LINE
  5
4E9
  8
חשמל
 10
11314.7665
 20
-14154.1888
 30
0.0000
 11
11318.2785
 21
-14152.9429
 31
0.0000
  0
LINE
  5
4EA
  8
חשמל
 10
11318.2785
 20
-14152.9429
 30
0.0000
 11
11322.0474
 21
-14151.9014
 31
0.0000
  0
LINE
  5
4EB
  8
חשמל
 10
11322.0474
 20
-14151.9014
 30
0.0000
 11
11326.0258
 21
-14151.0774
 31
0.0000
  0
LINE
  5
4EC
  8
חשמל
 10
11326.0258
 20
-14151.0774
 30
0.0000
 11
11330.1637
 21
-14150.4814
 31
0.0000
  0
LINE
  5
4ED
  8
חשמל
 10
11330.1637
 20
-14150.4814
 30
0.0000
 11
11334.4091
 21
-14150.1207
 31
0.0000
  0
LINE
  5
4EE
  8
חשמל
 10
11334.4091
 20
-14150.1207
 30
0.0000
 11
11338.7086
 21
-14150.0000
 31
0.0000
  0
LINE
  5
4EF
  8
חשמל
 10
11338.7086
 20
-14150.0000
 30
0.0000
 11
11343.0080
 21
-14150.1207
 31
0.0000
  0
LINE
  5
4F0
  8
חשמל
 10
11343.0080
 20
-14150.1207
 30
0.0000
 11
11347.2534
 21
-14150.4814
 31
0.0000
  0
LINE
  5
4F1
  8
חשמל
 10
11347.2534
 20
-14150.4814
 30
0.0000
 11
11351.3913
 21
-14151.0774
 31
0.0000
  0
LINE
  5
4F2
  8
חשמל
 10
11351.3913
 20
-14151.0774
 30
0.0000
 11
11355.3697
 21
-14151.9014
 31
0.0000
  0
LINE
  5
4F3
  8
חשמל
 10
11355.3697
 20
-14151.9014
 30
0.0000
 11
11359.1386
 21
-14152.9429
 31
0.0000
  0
LINE
  5
4F4
  8
חשמל
 10
11359.1386
 20
-14152.9429
 30
0.0000
 11
11362.6506
 21
-14154.1888
 31
0.0000
  0
LINE
  5
4F5
  8
חשמל
 10
11362.6506
 20
-14154.1888
 30
0.0000
 11
11365.8615
 21
-14155.6235
 31
0.0000
  0
LINE
  5
4F6
  8
חשמל
 10
11365.8615
 20
-14155.6235
 30
0.0000
 11
11368.7309
 21
-14157.2290
 31
0.0000
  0
LINE
  5
4F7
  8
חשמל
 10
11368.7309
 20
-14157.2290
 30
0.0000
 11
11371.2228
 21
-14158.9850
 31
0.0000
  0
LINE
  5
4F8
  8
חשמל
 10
11371.2228
 20
-14158.9850
 30
0.0000
 11
11373.3058
 21
-14160.8694
 31
0.0000
  0
LINE
  5
4F9
  8
חשמל
 10
11373.3058
 20
-14160.8694
 30
0.0000
 11
11374.9537
 21
-14162.8586
 31
0.0000
  0
LINE
  5
4FA
  8
חשמל
 10
11374.9537
 20
-14162.8586
 30
0.0000
 11
11376.1458
 21
-14164.9276
 31
0.0000
  0
LINE
  5
4FB
  8
חשמל
 10
11376.1458
 20
-14164.9276
 30
0.0000
 11
11376.8671
 21
-14167.0503
 31
0.0000
  0
LINE
  5
4FC
  8
חשמל
 10
11376.8671
 20
-14167.0503
 30
0.0000
 11
11377.1086
 21
-14169.2000
 31
0.0000
  0
LINE
  5
4FD
  8
חשמל
 10
11300.3086
 20
-14169.2000
 30
0.0000
 11
11377.1086
 21
-14169.2000
 31
0.0000
  0
LINE
  5
4FE
  8
חשמל - מידות
 10
12151.0000
 20
-15232.0000
 30
0.0000
 11
12151.0000
 21
-13699.5000
 31
0.0000
  0
LINE
  5
4FF
  8
חשמל - מידות
 10
11298.0046
 20
-15232.0000
 30
0.0000
 11
11298.0046
 21
-13699.5000
 31
0.0000
  0
LINE
  5
500
  8
חשמל - מידות
 10
12151.0000
 20
-13759.5000
 30
0.0000
 11
11298.0046
 21
-13759.5000
 31
0.0000
  0
SOLID
  5
501
  8
חשמל - מידות
 10
12151.0000
 20
-13759.5000
 30
0.0000
 11
12266.0000
 21
-13727.5000
 31
0.0000
 12
12266.0000
 22
-13791.5000
 32
0.0000
 13
12266.0000
 23
-13791.5000
 33
0.0000
  0
SOLID
  5
502
  8
חשמל - מידות
 10
11298.0046
 20
-13759.5000
 30
0.0000
 11
11183.0046
 21
-13727.5000
 31
0.0000
 12
11183.0046
 22
-13791.5000
 32
0.0000
 13
11183.0046
 23
-13791.5000
 33
0.0000
  0
TEXT
  5
503
  8
חשמל - מידות
 10
11724.5023
 20
-13664.5000
 30
0.0000
 40
100.0000
  1
85.3
 50
360.0000
  7
SOLINE
 72
1
 73
2
 11
11724.5023
 21
-13664.5000
 31
0.0000
  0
LINE
  5
504
  8
חשמל - מידות
 10
11258.0046
 20
-15272.0000
 30
0.0000
 11
10970.5046
 21
-15272.0000
 31
0.0000
  0
LINE
  5
505
  8
חשמל - מידות
 10
11258.0046
 20
-14166.0000
 30
0.0000
 11
10970.5046
 21
-14166.0000
 31
0.0000
  0
LINE
  5
506
  8
חשמל - מידות
 10
11030.5046
 20
-15272.0000
 30
0.0000
 11
11030.5046
 21
-14166.0000
 31
0.0000
  0
SOLID
  5
507
  8
חשמל - מידות
 10
11030.5046
 20
-15272.0000
 30
0.0000
 11
10998.5046
 21
-15387.0000
 31
0.0000
 12
11062.5046
 22
-15387.0000
 32
0.0000
 13
11062.5046
 23
-15387.0000
 33
0.0000
  0
SOLID
  5
508
  8
חשמל - מידות
 10
11030.5046
 20
-14166.0000
 30
0.0000
 11
10998.5046
 21
-14051.0000
 31
0.0000
 12
11062.5046
 22
-14051.0000
 32
0.0000
 13
11062.5046
 23
-14051.0000
 33
0.0000
  0
TEXT
  5
509
  8
חשמל - מידות
 10
10935.5046
 20
-14719.0000
 30
0.0000
 40
100.0000
  1
110.6
 50
90.0000
  7
SOLINE
 72
1
 73
2
 11
10935.5046
 21
-14719.0000
 31
0.0000
  0
LINE
  5
50A
  8
חשמל
 10
10971.0032
 20
-14835.0000
 30
0.0000
 11
11051.0032
 21
-14835.0000
 31
0.0000
  0
LINE
  5
50B
  8
חשמל
 10
11051.0032
 20
-14835.0000
 30
0.0000
 11
11051.0032
 21
-14755.0000
 31
0.0000
  0
LINE
  5
50C
  8
חשמל
 10
11051.0032
 20
-14755.0000
 30
0.0000
 11
10971.0032
 21
-14755.0000
 31
0.0000
  0
LINE
  5
50D
  8
חשמל
 10
10971.0032
 20
-14755.0000
 30
0.0000
 11
10971.0032
 21
-14835.0000
 31
0.0000
  0
LINE
  5
50E
  8
חשמל
 10
11011.0032
 20
-14835.0000
 30
0.0000
 11
11011.0032
 21
-14798.2000
 31
0.0000
  0
LINE
  5
50F
  8
חשמל
 10
10985.4032
 20
-14798.2000
 30
0.0000
 11
10985.5642
 21
-14795.3337
 31
0.0000
  0
LINE
  5
510
  8
חשמל
 10
10985.5642
 20
-14795.3337
 30
0.0000
 11
10986.0451
 21
-14792.5035
 31
0.0000
  0
LINE
  5
511
  8
חשמל
 10
10986.0451
 20
-14792.5035
 30
0.0000
 11
10986.8398
 21
-14789.7449
 31
0.0000
  0
LINE
  5
512
  8
חשמל
 10
10986.8398
 20
-14789.7449
 30
0.0000
 11
10987.9384
 21
-14787.0926
 31
0.0000
  0
LINE
  5
513
  8
חשמל
 10
10987.9384
 20
-14787.0926
 30
0.0000
 11
10989.3271
 21
-14784.5800
 31
0.0000
  0
LINE
  5
514
  8
חשמל
 10
10989.3271
 20
-14784.5800
 30
0.0000
 11
10990.9884
 21
-14782.2387
 31
0.0000
  0
LINE
  5
515
  8
חשמל
 10
10990.9884
 20
-14782.2387
 30
0.0000
 11
10992.9013
 21
-14780.0981
 31
0.0000
  0
LINE
  5
516
  8
חשמל
 10
10992.9013
 20
-14780.0981
 30
0.0000
 11
10995.0419
 21
-14778.1851
 31
0.0000
  0
LINE
  5
517
  8
חשמל
 10
10995.0419
 20
-14778.1851
 30
0.0000
 11
10997.3832
 21
-14776.5239
 31
0.0000
  0
LINE
  5
518
  8
חשמל
 10
10997.3832
 20
-14776.5239
 30
0.0000
 11
10999.8958
 21
-14775.1352
 31
0.0000
  0
LINE
  5
519
  8
חשמל
 10
10999.8958
 20
-14775.1352
 30
0.0000
 11
11002.5481
 21
-14774.0366
 31
0.0000
  0
LINE
  5
51A
  8
חשמל
 10
11002.5481
 20
-14774.0366
 30
0.0000
 11
11005.3067
 21
-14773.2418
 31
0.0000
  0
LINE
  5
51B
  8
חשמל
 10
11005.3067
 20
-14773.2418
 30
0.0000
 11
11008.1370
 21
-14772.7610
 31
0.0000
  0
LINE
  5
51C
  8
חשמל
 10
11008.1370
 20
-14772.7610
 30
0.0000
 11
11011.0032
 21
-14772.6000
 31
0.0000
  0
LINE
  5
51D
  8
חשמל
 10
11011.0032
 20
-14772.6000
 30
0.0000
 11
11013.8695
 21
-14772.7610
 31
0.0000
  0
LINE
  5
51E
  8
חשמל
 10
11013.8695
 20
-14772.7610
 30
0.0000
 11
11016.6998
 21
-14773.2418
 31
0.0000
  0
LINE
  5
51F
  8
חשמל
 10
11016.6998
 20
-14773.2418
 30
0.0000
 11
11019.4584
 21
-14774.0366
 31
0.0000
  0
LINE
  5
520
  8
חשמל
 10
11019.4584
 20
-14774.0366
 30
0.0000
 11
11022.1107
 21
-14775.1352
 31
0.0000
  0
LINE
  5
521
  8
חשמל
 10
11022.1107
 20
-14775.1352
 30
0.0000
 11
11024.6233
 21
-14776.5239
 31
0.0000
  0
LINE
  5
522
  8
חשמל
 10
11024.6233
 20
-14776.5239
 30
0.0000
 11
11026.9646
 21
-14778.1851
 31
0.0000
  0
LINE
  5
523
  8
חשמל
 10
11026.9646
 20
-14778.1851
 30
0.0000
 11
11029.1052
 21
-14780.0981
 31
0.0000
  0
LINE
  5
524
  8
חשמל
 10
11029.1052
 20
-14780.0981
 30
0.0000
 11
11031.0181
 21
-14782.2387
 31
0.0000
  0
LINE
  5
525
  8
חשמל
 10
11031.0181
 20
-14782.2387
 30
0.0000
 11
11032.6794
 21
-14784.5800
 31
0.0000
  0
LINE
  5
526
  8
חשמל
 10
11032.6794
 20
-14784.5800
 30
0.0000
 11
11034.0680
 21
-14787.0926
 31
0.0000
  0
LINE
  5
527
  8
חשמל
 10
11034.0680
 20
-14787.0926
 30
0.0000
 11
11035.1667
 21
-14789.7449
 31
0.0000
  0
LINE
  5
528
  8
חשמל
 10
11035.1667
 20
-14789.7449
 30
0.0000
 11
11035.9614
 21
-14792.5035
 31
0.0000
  0
LINE
  5
529
  8
חשמל
 10
11035.9614
 20
-14792.5035
 30
0.0000
 11
11036.4423
 21
-14795.3337
 31
0.0000
  0
LINE
  5
52A
  8
חשמל
 10
11036.4423
 20
-14795.3337
 30
0.0000
 11
11036.6032
 21
-14798.2000
 31
0.0000
  0
LINE
  5
52B
  8
חשמל
 10
10985.4032
 20
-14798.2000
 30
0.0000
 11
11036.6032
 21
-14798.2000
 31
0.0000
  0
LINE
  5
52C
  8
חשמל - מידות
 10
12151.0000
 20
-15232.0000
 30
0.0000
 11
12151.0000
 21
-13349.5000
 31
0.0000
  0
LINE
  5
52D
  8
חשמל - מידות
 10
11011.0032
 20
-15232.0000
 30
0.0000
 11
11011.0032
 21
-13349.5000
 31
0.0000
  0
LINE
  5
52E
  8
חשמל - מידות
 10
12151.0000
 20
-13409.5000
 30
0.0000
 11
11011.0032
 21
-13409.5000
 31
0.0000
  0
SOLID
  5
52F
  8
חשמל - מידות
 10
12151.0000
 20
-13409.5000
 30
0.0000
 11
12266.0000
 21
-13377.5000
 31
0.0000
 12
12266.0000
 22
-13441.5000
 32
0.0000
 13
12266.0000
 23
-13441.5000
 33
0.0000
  0
SOLID
  5
530
  8
חשמל - מידות
 10
11011.0032
 20
-13409.5000
 30
0.0000
 11
10896.0032
 21
-13377.5000
 31
0.0000
 12
10896.0032
 22
-13441.5000
 32
0.0000
 13
10896.0032
 23
-13441.5000
 33
0.0000
  0
TEXT
  5
531
  8
חשמל - מידות
 10
11581.0016
 20
-13314.5000
 30
0.0000
 40
100.0000
  1
114
 50
360.0000
  7
SOLINE
 72
1
 73
2
 11
11581.0016
 21
-13314.5000
 31
0.0000
  0
LINE
  5
532
  8
חשמל - מידות
 10
11051.0032
 20
-15272.0000
 30
0.0000
 11
11298.5032
 21
-15272.0000
 31
0.0000
  0
LINE
  5
533
  8
חשמל - מידות
 10
11051.0032
 20
-14795.0000
 30
0.0000
 11
11298.5032
 21
-14795.0000
 31
0.0000
  0
LINE
  5
534
  8
חשמל - מידות
 10
11238.5032
 20
-15272.0000
 30
0.0000
 11
11238.5032
 21
-14795.0000
 31
0.0000
  0
SOLID
  5
535
  8
חשמל - מידות
 10
11238.5032
 20
-15272.0000
 30
0.0000
 11
11270.5032
 21
-15387.0000
 31
0.0000
 12
11206.5032
 22
-15387.0000
 32
0.0000
 13
11206.5032
 23
-15387.0000
 33
0.0000
  0
SOLID
  5
536
  8
חשמל - מידות
 10
11238.5032
 20
-14795.0000
 30
0.0000
 11
11270.5032
 21
-14680.0000
 31
0.0000
 12
11206.5032
 22
-14680.0000
 32
0.0000
 13
11206.5032
 23
-14680.0000
 33
0.0000
  0
TEXT
  5
537
  8
חשמל - מידות
 10
11333.5032
 20
-15033.5000
 30
0.0000
 40
100.0000
  1
47.7
 50
90.0000
  7
SOLINE
 72
1
 73
2
 11
11333.5032
 21
-15033.5000
 31
0.0000
  0
LINE
  5
538
  8
מים
 10
10843.0035
 20
-14866.0000
 30
0.0000
 11
10863.0035
 21
-14866.0000
 31
0.0000
  0
LINE
  5
539
  8
מים
 10
10863.0035
 20
-14866.0000
 30
0.0000
 11
10863.0035
 21
-14846.0000
 31
0.0000
  0
LINE
  5
53A
  8
מים
 10
10863.0035
 20
-14846.0000
 30
0.0000
 11
10843.0035
 21
-14846.0000
 31
0.0000
  0
LINE
  5
53B
  8
מים
 10
10843.0035
 20
-14846.0000
 30
0.0000
 11
10843.0035
 21
-14866.0000
 31
0.0000
  0
LINE
  5
53C
  8
מים
 10
10853.0035
 20
-14866.0000
 30
0.0000
 11
10853.0035
 21
-14860.4000
 31
0.0000
  0
LINE
  5
53D
  8
מים
 10
10848.6035
 20
-14851.6000
 30
0.0000
 11
10857.4035
 21
-14851.6000
 31
0.0000
  0
LINE
  5
53E
  8
מים
 10
10857.4035
 20
-14851.6000
 30
0.0000
 11
10853.0035
 21
-14856.0000
 31
0.0000
  0
LINE
  5
53F
  8
מים
 10
10853.0035
 20
-14856.0000
 30
0.0000
 11
10848.6035
 21
-14851.6000
 31
0.0000
  0
LINE
  5
540
  8
מים
 10
10848.6035
 20
-14860.4000
 30
0.0000
 11
10857.4035
 21
-14860.4000
 31
0.0000
  0
LINE
  5
541
  8
מים
 10
10857.4035
 20
-14860.4000
 30
0.0000
 11
10853.0035
 21
-14856.0000
 31
0.0000
  0
LINE
  5
542
  8
מים
 10
10853.0035
 20
-14856.0000
 30
0.0000
 11
10848.6035
 21
-14860.4000
 31
0.0000
  0
ARC
  5
543
  8
מים
 10
10853.0035
 20
-14856.0000
 30
0.0000
 40
0.9000
 50
0.0000
 51
360.0000
  0
LINE
  5
544
  8
מים - מידות
 10
12151.0000
 20
-15232.0000
 30
0.0000
 11
12151.0000
 21
-12999.5000
 31
0.0000
  0
LINE
  5
545
  8
מים - מידות
 10
10853.0035
 20
-15232.0000
 30
0.0000
 11
10853.0035
 21
-12999.5000
 31
0.0000
  0
LINE
  5
546
  8
מים - מידות
 10
12151.0000
 20
-13059.5000
 30
0.0000
 11
10853.0035
 21
-13059.5000
 31
0.0000
  0
SOLID
  5
547
  8
מים - מידות
 10
12151.0000
 20
-13059.5000
 30
0.0000
 11
12266.0000
 21
-13027.5000
 31
0.0000
 12
12266.0000
 22
-13091.5000
 32
0.0000
 13
12266.0000
 23
-13091.5000
 33
0.0000
  0
SOLID
  5
548
  8
מים - מידות
 10
10853.0035
 20
-13059.5000
 30
0.0000
 11
10738.0035
 21
-13027.5000
 31
0.0000
 12
10738.0035
 22
-13091.5000
 32
0.0000
 13
10738.0035
 23
-13091.5000
 33
0.0000
  0
TEXT
  5
549
  8
מים - מידות
 10
11502.0017
 20
-12964.5000
 30
0.0000
 40
100.0000
  1
129.8
 50
360.0000
  7
SOLINE
 72
1
 73
2
 11
11502.0017
 21
-12964.5000
 31
0.0000
  0
LINE
  5
54A
  8
מים - מידות
 10
10813.0035
 20
-15272.0000
 30
0.0000
 11
10595.5035
 21
-15272.0000
 31
0.0000
  0
LINE
  5
54B
  8
מים - מידות
 10
10813.0035
 20
-14856.0000
 30
0.0000
 11
10595.5035
 21
-14856.0000
 31
0.0000
  0
LINE
  5
54C
  8
מים - מידות
 10
10655.5035
 20
-15272.0000
 30
0.0000
 11
10655.5035
 21
-14856.0000
 31
0.0000
  0
SOLID
  5
54D
  8
מים - מידות
 10
10655.5035
 20
-15272.0000
 30
0.0000
 11
10623.5035
 21
-15387.0000
 31
0.0000
 12
10687.5035
 22
-15387.0000
 32
0.0000
 13
10687.5035
 23
-15387.0000
 33
0.0000
  0
SOLID
  5
54E
  8
מים - מידות
 10
10655.5035
 20
-14856.0000
 30
0.0000
 11
10623.5035
 21
-14741.0000
 31
0.0000
 12
10687.5035
 22
-14741.0000
 32
0.0000
 13
10687.5035
 23
-14741.0000
 33
0.0000
  0
TEXT
  5
54F
  8
מים - מידות
 10
10560.5035
 20
-15064.0000
 30
0.0000
 40
100.0000
  1
41.6
 50
90.0000
  7
SOLINE
 72
1
 73
2
 11
10560.5035
 21
-15064.0000
 31
0.0000
  0
LINE
  5
550
  8
מים
 10
10702.0037
 20
-14863.0000
 30
0.0000
 11
10722.0037
 21
-14863.0000
 31
0.0000
  0
LINE
  5
551
  8
מים
 10
10722.0037
 20
-14863.0000
 30
0.0000
 11
10722.0037
 21
-14843.0000
 31
0.0000
  0
LINE
  5
552
  8
מים
 10
10722.0037
 20
-14843.0000
 30
0.0000
 11
10702.0037
 21
-14843.0000
 31
0.0000
  0
LINE
  5
553
  8
מים
 10
10702.0037
 20
-14843.0000
 30
0.0000
 11
10702.0037
 21
-14863.0000
 31
0.0000
  0
LINE
  5
554
  8
מים
 10
10712.0037
 20
-14863.0000
 30
0.0000
 11
10712.0037
 21
-14857.4000
 31
0.0000
  0
LINE
  5
555
  8
מים
 10
10707.6037
 20
-14848.6000
 30
0.0000
 11
10716.4037
 21
-14848.6000
 31
0.0000
  0
LINE
  5
556
  8
מים
 10
10716.4037
 20
-14848.6000
 30
0.0000
 11
10712.0037
 21
-14853.0000
 31
0.0000
  0
LINE
  5
557
  8
מים
 10
10712.0037
 20
-14853.0000
 30
0.0000
 11
10707.6037
 21
-14848.6000
 31
0.0000
  0
LINE
  5
558
  8
מים
 10
10707.6037
 20
-14857.4000
 30
0.0000
 11
10716.4037
 21
-14857.4000
 31
0.0000
  0
LINE
  5
559
  8
מים
 10
10716.4037
 20
-14857.4000
 30
0.0000
 11
10712.0037
 21
-14853.0000
 31
0.0000
  0
LINE
  5
55A
  8
מים
 10
10712.0037
 20
-14853.0000
 30
0.0000
 11
10707.6037
 21
-14857.4000
 31
0.0000
  0
ARC
  5
55B
  8
מים
 10
10712.0037
 20
-14853.0000
 30
0.0000
 40
0.9000
 50
0.0000
 51
360.0000
  0
LINE
  5
55C
  8
מים - מידות
 10
12151.0000
 20
-15232.0000
 30
0.0000
 11
12151.0000
 21
-12649.5000
 31
0.0000
  0
LINE
  5
55D
  8
מים - מידות
 10
10712.0037
 20
-15232.0000
 30
0.0000
 11
10712.0037
 21
-12649.5000
 31
0.0000
  0
LINE
  5
55E
  8
מים - מידות
 10
12151.0000
 20
-12709.5000
 30
0.0000
 11
10712.0037
 21
-12709.5000
 31
0.0000
  0
SOLID
  5
55F
  8
מים - מידות
 10
12151.0000
 20
-12709.5000
 30
0.0000
 11
12266.0000
 21
-12677.5000
 31
0.0000
 12
12266.0000
 22
-12741.5000
 32
0.0000
 13
12266.0000
 23
-12741.5000
 33
0.0000
  0
SOLID
  5
560
  8
מים - מידות
 10
10712.0037
 20
-12709.5000
 30
0.0000
 11
10597.0037
 21
-12677.5000
 31
0.0000
 12
10597.0037
 22
-12741.5000
 32
0.0000
 13
10597.0037
 23
-12741.5000
 33
0.0000
  0
TEXT
  5
561
  8
מים - מידות
 10
11431.5018
 20
-12614.5000
 30
0.0000
 40
100.0000
  1
143.9
 50
360.0000
  7
SOLINE
 72
1
 73
2
 11
11431.5018
 21
-12614.5000
 31
0.0000
  0
LINE
  5
562
  8
מים - מידות
 10
10752.0037
 20
-15272.0000
 30
0.0000
 11
10969.5037
 21
-15272.0000
 31
0.0000
  0
LINE
  5
563
  8
מים - מידות
 10
10752.0037
 20
-14853.0000
 30
0.0000
 11
10969.5037
 21
-14853.0000
 31
0.0000
  0
LINE
  5
564
  8
מים - מידות
 10
10909.5037
 20
-15272.0000
 30
0.0000
 11
10909.5037
 21
-14853.0000
 31
0.0000
  0
SOLID
  5
565
  8
מים - מידות
 10
10909.5037
 20
-15272.0000
 30
0.0000
 11
10941.5037
 21
-15387.0000
 31
0.0000
 12
10877.5037
 22
-15387.0000
 32
0.0000
 13
10877.5037
 23
-15387.0000
 33
0.0000
  0
SOLID
  5
566
  8
מים - מידות
 10
10909.5037
 20
-14853.0000
 30
0.0000
 11
10941.5037
 21
-14738.0000
 31
0.0000
 12
10877.5037
 22
-14738.0000
 32
0.0000
 13
10877.5037
 23
-14738.0000
 33
0.0000
  0
TEXT
  5
567
  8
מים - מידות
 10
11004.5037
 20
-15062.5000
 30
0.0000
 40
100.0000
  1
41.9
 50
90.0000
  7
SOLINE
 72
1
 73
2
 11
11004.5037
 21
-15062.5000
 31
0.0000
  0
LINE
  5
568
  8
ניקוז
 10
10663.0037
 20
-15272.0000
 30
0.0000
 11
10713.0037
 21
-15272.0000
 31
0.0000
  0
LINE
  5
569
  8
ניקוז
 10
10713.0037
 20
-15272.0000
 30
0.0000
 11
10713.0037
 21
-15222.0000
 31
0.0000
  0
LINE
  5
56A
  8
ניקוז
 10
10713.0037
 20
-15222.0000
 30
0.0000
 11
10663.0037
 21
-15222.0000
 31
0.0000
  0
LINE
  5
56B
  8
ניקוז
 10
10663.0037
 20
-15222.0000
 30
0.0000
 11
10663.0037
 21
-15272.0000
 31
0.0000
  0
LINE
  5
56C
  8
ניקוז
 10
10688.0037
 20
-15272.0000
 30
0.0000
 11
10688.0037
 21
-15233.0000
 31
0.0000
  0
ARC
  5
56D
  8
ניקוז
 10
10688.0037
 20
-15247.0000
 30
0.0000
 40
15.0000
 50
0.0000
 51
360.0000
  0
LINE
  5
56E
  8
ניקוז
 10
10679.0037
 20
-15250.0000
 30
0.0000
 11
10684.0037
 21
-15244.0000
 31
0.0000
  0
LINE
  5
56F
  8
ניקוז
 10
10684.0037
 20
-15244.0000
 30
0.0000
 11
10688.0037
 21
-15250.0000
 31
0.0000
  0
LINE
  5
570
  8
ניקוז
 10
10688.0037
 20
-15250.0000
 30
0.0000
 11
10692.0037
 21
-15244.0000
 31
0.0000
  0
LINE
  5
571
  8
ניקוז
 10
10692.0037
 20
-15244.0000
 30
0.0000
 11
10697.0037
 21
-15250.0000
 31
0.0000
  0
LINE
  5
572
  8
ניקוז - מידות
 10
12151.0000
 20
-15232.0000
 30
0.0000
 11
12151.0000
 21
-12299.5000
 31
0.0000
  0
LINE
  5
573
  8
ניקוז - מידות
 10
10688.0037
 20
-15232.0000
 30
0.0000
 11
10688.0037
 21
-12299.5000
 31
0.0000
  0
LINE
  5
574
  8
ניקוז - מידות
 10
12151.0000
 20
-12359.5000
 30
0.0000
 11
10688.0037
 21
-12359.5000
 31
0.0000
  0
SOLID
  5
575
  8
ניקוז - מידות
 10
12151.0000
 20
-12359.5000
 30
0.0000
 11
12266.0000
 21
-12327.5000
 31
0.0000
 12
12266.0000
 22
-12391.5000
 32
0.0000
 13
12266.0000
 23
-12391.5000
 33
0.0000
  0
SOLID
  5
576
  8
ניקוז - מידות
 10
10688.0037
 20
-12359.5000
 30
0.0000
 11
10573.0037
 21
-12327.5000
 31
0.0000
 12
10573.0037
 22
-12391.5000
 32
0.0000
 13
10573.0037
 23
-12391.5000
 33
0.0000
  0
TEXT
  5
577
  8
ניקוז - מידות
 10
11419.5019
 20
-12264.5000
 30
0.0000
 40
100.0000
  1
146.3
 50
360.0000
  7
SOLINE
 72
1
 73
2
 11
11419.5019
 21
-12264.5000
 31
0.0000
  0
LINE
  5
578
  8
ניקוז - מידות
 10
10688.0037
 20
-15272.0000
 30
0.0000
 11
10688.0037
 21
-15272.0000
 31
0.0000
  0
LINE
  5
579
  8
ניקוז - מידות
 10
10688.0037
 20
-15272.0000
 30
0.0000
 11
10688.0037
 21
-15272.0000
 31
0.0000
  0
LINE
  5
57A
  8
ניקוז - מידות
 10
10688.0037
 20
-15272.0000
 30
0.0000
 11
10688.0037
 21
-15272.0000
 31
0.0000
  0
SOLID
  5
57B
  8
ניקוז - מידות
 10
10688.0037
 20
-15272.0000
 30
0.0000
 11
10688.0037
 21
-15272.0000
 31
0.0000
 12
10688.0037
 22
-15272.0000
 32
0.0000
 13
10688.0037
 23
-15272.0000
 33
0.0000
  0
SOLID
  5
57C
  8
ניקוז - מידות
 10
10688.0037
 20
-15272.0000
 30
0.0000
 11
10688.0037
 21
-15272.0000
 31
0.0000
 12
10688.0037
 22
-15272.0000
 32
0.0000
 13
10688.0037
 23
-15272.0000
 33
0.0000
  0
TEXT
  5
57D
  8
ניקוז - מידות
 10
10688.0037
 20
-15272.0000
 30
0.0000
 40
100.0000
  1
0.1
 50
0.0000
  7
SOLINE
 72
1
 73
2
 11
10688.0037
 21
-15272.0000
 31
0.0000
  0
LINE
  5
57E
  8
ניקוז
 10
10497.0022
 20
-15272.0000
 30
0.0000
 11
10617.0022
 21
-15272.0000
 31
0.0000
  0
LINE
  5
57F
  8
ניקוז
 10
10617.0022
 20
-15272.0000
 30
0.0000
 11
10617.0022
 21
-15152.0000
 31
0.0000
  0
LINE
  5
580
  8
ניקוז
 10
10617.0022
 20
-15152.0000
 30
0.0000
 11
10497.0022
 21
-15152.0000
 31
0.0000
  0
LINE
  5
581
  8
ניקוז
 10
10497.0022
 20
-15152.0000
 30
0.0000
 11
10497.0022
 21
-15272.0000
 31
0.0000
  0
LINE
  5
582
  8
ניקוז
 10
10518.6022
 20
-15173.6000
 30
0.0000
 11
10595.4022
 21
-15173.6000
 31
0.0000
  0
LINE
  5
583
  8
ניקוז
 10
10595.4022
 20
-15173.6000
 30
0.0000
 11
10595.4022
 21
-15250.4000
 31
0.0000
  0
LINE
  5
584
  8
ניקוז
 10
10595.4022
 20
-15250.4000
 30
0.0000
 11
10518.6022
 21
-15250.4000
 31
0.0000
  0
LINE
  5
585
  8
ניקוז
 10
10518.6022
 20
-15250.4000
 30
0.0000
 11
10518.6022
 21
-15173.6000
 31
0.0000
  0
LINE
  5
586
  8
ניקוז
 10
10518.6022
 20
-15173.6000
 30
0.0000
 11
10595.4022
 21
-15250.4000
 31
0.0000
  0
LINE
  5
587
  8
ניקוז
 10
10595.4022
 20
-15173.6000
 30
0.0000
 11
10518.6022
 21
-15250.4000
 31
0.0000
  0
ARC
  5
588
  8
ניקוז
 10
10557.0022
 20
-15212.0000
 30
0.0000
 40
12.0000
 50
0.0000
 51
360.0000
  0
LINE
  5
589
  8
ניקוז - מידות
 10
12151.0000
 20
-15232.0000
 30
0.0000
 11
12151.0000
 21
-11949.5000
 31
0.0000
  0
LINE
  5
58A
  8
ניקוז - מידות
 10
10557.0022
 20
-15232.0000
 30
0.0000
 11
10557.0022
 21
-11949.5000
 31
0.0000
  0
LINE
  5
58B
  8
ניקוז - מידות
 10
12151.0000
 20
-12009.5000
 30
0.0000
 11
10557.0022
 21
-12009.5000
 31
0.0000
  0
SOLID
  5
58C
  8
ניקוז - מידות
 10
12151.0000
 20
-12009.5000
 30
0.0000
 11
12266.0000
 21
-11977.5000
 31
0.0000
 12
12266.0000
 22
-12041.5000
 32
0.0000
 13
12266.0000
 23
-12041.5000
 33
0.0000
  0
SOLID
  5
58D
  8
ניקוז - מידות
 10
10557.0022
 20
-12009.5000
 30
0.0000
 11
10442.0022
 21
-11977.5000
 31
0.0000
 12
10442.0022
 22
-12041.5000
 32
0.0000
 13
10442.0022
 23
-12041.5000
 33
0.0000
  0
TEXT
  5
58E
  8
ניקוז - מידות
 10
11354.0011
 20
-11914.5000
 30
0.0000
 40
100.0000
  1
159.4
 50
360.0000
  7
SOLINE
 72
1
 73
2
 11
11354.0011
 21
-11914.5000
 31
0.0000
  0
LINE
  5
58F
  8
ניקוז - מידות
 10
10557.0022
 20
-15272.0000
 30
0.0000
 11
10557.0022
 21
-15272.0000
 31
0.0000
  0
LINE
  5
590
  8
ניקוז - מידות
 10
10557.0022
 20
-15272.0000
 30
0.0000
 11
10557.0022
 21
-15272.0000
 31
0.0000
  0
LINE
  5
591
  8
ניקוז - מידות
 10
10557.0022
 20
-15272.0000
 30
0.0000
 11
10557.0022
 21
-15272.0000
 31
0.0000
  0
SOLID
  5
592
  8
ניקוז - מידות
 10
10557.0022
 20
-15272.0000
 30
0.0000
 11
10557.0022
 21
-15272.0000
 31
0.0000
 12
10557.0022
 22
-15272.0000
 32
0.0000
 13
10557.0022
 23
-15272.0000
 33
0.0000
  0
SOLID
  5
593
  8
ניקוז - מידות
 10
10557.0022
 20
-15272.0000
 30
0.0000
 11
10557.0022
 21
-15272.0000
 31
0.0000
 12
10557.0022
 22
-15272.0000
 32
0.0000
 13
10557.0022
 23
-15272.0000
 33
0.0000
  0
TEXT
  5
594
  8
ניקוז - מידות
 10
10557.0022
 20
-15272.0000
 30
0.0000
 40
100.0000
  1
0.1
 50
0.0000
  7
SOLINE
 72
1
 73
2
 11
10557.0022
 21
-15272.0000
 31
0.0000
  0
LINE
  5
595
  8
חשמל
 10
10211.0026
 20
-14216.0000
 30
0.0000
 11
10371.0026
 21
-14216.0000
 31
0.0000
  0
LINE
  5
596
  8
חשמל
 10
10371.0026
 20
-14216.0000
 30
0.0000
 11
10371.0026
 21
-14136.0000
 31
0.0000
  0
LINE
  5
597
  8
חשמל
 10
10371.0026
 20
-14136.0000
 30
0.0000
 11
10211.0026
 21
-14136.0000
 31
0.0000
  0
LINE
  5
598
  8
חשמל
 10
10211.0026
 20
-14136.0000
 30
0.0000
 11
10211.0026
 21
-14216.0000
 31
0.0000
  0
LINE
  5
599
  8
חשמל
 10
10291.0026
 20
-14216.0000
 30
0.0000
 11
10291.0026
 21
-14179.2000
 31
0.0000
  0
LINE
  5
59A
  8
חשמל
 10
10211.8986
 20
-14179.2000
 30
0.0000
 11
10212.1400
 21
-14177.0503
 31
0.0000
  0
LINE
  5
59B
  8
חשמל
 10
10212.1400
 20
-14177.0503
 30
0.0000
 11
10212.8614
 21
-14174.9276
 31
0.0000
  0
LINE
  5
59C
  8
חשמל
 10
10212.8614
 20
-14174.9276
 30
0.0000
 11
10214.0535
 21
-14172.8586
 31
0.0000
  0
LINE
  5
59D
  8
חשמל
 10
10214.0535
 20
-14172.8586
 30
0.0000
 11
10215.7014
 21
-14170.8694
 31
0.0000
  0
LINE
  5
59E
  8
חשמל
 10
10215.7014
 20
-14170.8694
 30
0.0000
 11
10217.7844
 21
-14168.9850
 31
0.0000
  0
LINE
  5
59F
  8
חשמל
 10
10217.7844
 20
-14168.9850
 30
0.0000
 11
10220.2763
 21
-14167.2290
 31
0.0000
  0
LINE
  5
5A0
  8
חשמל
 10
10220.2763
 20
-14167.2290
 30
0.0000
 11
10223.1457
 21
-14165.6235
 31
0.0000
  0
LINE
  5
5A1
  8
חשמל
 10
10223.1457
 20
-14165.6235
 30
0.0000
 11
10226.3566
 21
-14164.1888
 31
0.0000
  0
LINE
  5
5A2
  8
חשמל
 10
10226.3566
 20
-14164.1888
 30
0.0000
 11
10229.8686
 21
-14162.9429
 31
0.0000
  0
LINE
  5
5A3
  8
חשמל
 10
10229.8686
 20
-14162.9429
 30
0.0000
 11
10233.6375
 21
-14161.9014
 31
0.0000
  0
LINE
  5
5A4
  8
חשמל
 10
10233.6375
 20
-14161.9014
 30
0.0000
 11
10237.6159
 21
-14161.0774
 31
0.0000
  0
LINE
  5
5A5
  8
חשמל
 10
10237.6159
 20
-14161.0774
 30
0.0000
 11
10241.7538
 21
-14160.4814
 31
0.0000
  0
LINE
  5
5A6
  8
חשמל
 10
10241.7538
 20
-14160.4814
 30
0.0000
 11
10245.9992
 21
-14160.1207
 31
0.0000
  0
LINE
  5
5A7
  8
חשמל
 10
10245.9992
 20
-14160.1207
 30
0.0000
 11
10250.2986
 21
-14160.0000
 31
0.0000
  0
LINE
  5
5A8
  8
חשמל
 10
10250.2986
 20
-14160.0000
 30
0.0000
 11
10254.5980
 21
-14160.1207
 31
0.0000
  0
LINE
  5
5A9
  8
חשמל
 10
10254.5980
 20
-14160.1207
 30
0.0000
 11
10258.8434
 21
-14160.4814
 31
0.0000
  0
LINE
  5
5AA
  8
חשמל
 10
10258.8434
 20
-14160.4814
 30
0.0000
 11
10262.9813
 21
-14161.0774
 31
0.0000
  0
LINE
  5
5AB
  8
חשמל
 10
10262.9813
 20
-14161.0774
 30
0.0000
 11
10266.9597
 21
-14161.9014
 31
0.0000
  0
LINE
  5
5AC
  8
חשמל
 10
10266.9597
 20
-14161.9014
 30
0.0000
 11
10270.7286
 21
-14162.9429
 31
0.0000
  0
LINE
  5
5AD
  8
חשמל
 10
10270.7286
 20
-14162.9429
 30
0.0000
 11
10274.2406
 21
-14164.1888
 31
0.0000
  0
LINE
  5
5AE
  8
חשמל
 10
10274.2406
 20
-14164.1888
 30
0.0000
 11
10277.4515
 21
-14165.6235
 31
0.0000
  0
LINE
  5
5AF
  8
חשמל
 10
10277.4515
 20
-14165.6235
 30
0.0000
 11
10280.3209
 21
-14167.2290
 31
0.0000
  0
LINE
  5
5B0
  8
חשמל
 10
10280.3209
 20
-14167.2290
 30
0.0000
 11
10282.8128
 21
-14168.9850
 31
0.0000
  0
LINE
  5
5B1
  8
חשמל
 10
10282.8128
 20
-14168.9850
 30
0.0000
 11
10284.8958
 21
-14170.8694
 31
0.0000
  0
LINE
  5
5B2
  8
חשמל
 10
10284.8958
 20
-14170.8694
 30
0.0000
 11
10286.5437
 21
-14172.8586
 31
0.0000
  0
LINE
  5
5B3
  8
חשמל
 10
10286.5437
 20
-14172.8586
 30
0.0000
 11
10287.7358
 21
-14174.9276
 31
0.0000
  0
LINE
  5
5B4
  8
חשמל
 10
10287.7358
 20
-14174.9276
 30
0.0000
 11
10288.4571
 21
-14177.0503
 31
0.0000
  0
LINE
  5
5B5
  8
חשמל
 10
10288.4571
 20
-14177.0503
 30
0.0000
 11
10288.6986
 21
-14179.2000
 31
0.0000
  0
LINE
  5
5B6
  8
חשמל
 10
10211.8986
 20
-14179.2000
 30
0.0000
 11
10288.6986
 21
-14179.2000
 31
0.0000
  0
LINE
  5
5B7
  8
חשמל
 10
10293.3066
 20
-14179.2000
 30
0.0000
 11
10293.5480
 21
-14177.0503
 31
0.0000
  0
LINE
  5
5B8
  8
חשמל
 10
10293.5480
 20
-14177.0503
 30
0.0000
 11
10294.2694
 21
-14174.9276
 31
0.0000
  0
LINE
  5
5B9
  8
חשמל
 10
10294.2694
 20
-14174.9276
 30
0.0000
 11
10295.4615
 21
-14172.8586
 31
0.0000
  0
LINE
  5
5BA
  8
חשמל
 10
10295.4615
 20
-14172.8586
 30
0.0000
 11
10297.1094
 21
-14170.8694
 31
0.0000
  0
LINE
  5
5BB
  8
חשמל
 10
10297.1094
 20
-14170.8694
 30
0.0000
 11
10299.1924
 21
-14168.9850
 31
0.0000
  0
LINE
  5
5BC
  8
חשמל
 10
10299.1924
 20
-14168.9850
 30
0.0000
 11
10301.6843
 21
-14167.2290
 31
0.0000
  0
LINE
  5
5BD
  8
חשמל
 10
10301.6843
 20
-14167.2290
 30
0.0000
 11
10304.5537
 21
-14165.6235
 31
0.0000
  0
LINE
  5
5BE
  8
חשמל
 10
10304.5537
 20
-14165.6235
 30
0.0000
 11
10307.7646
 21
-14164.1888
 31
0.0000
  0
LINE
  5
5BF
  8
חשמל
 10
10307.7646
 20
-14164.1888
 30
0.0000
 11
10311.2766
 21
-14162.9429
 31
0.0000
  0
LINE
  5
5C0
  8
חשמל
 10
10311.2766
 20
-14162.9429
 30
0.0000
 11
10315.0455
 21
-14161.9014
 31
0.0000
  0
LINE
  5
5C1
  8
חשמל
 10
10315.0455
 20
-14161.9014
 30
0.0000
 11
10319.0239
 21
-14161.0774
 31
0.0000
  0
LINE
  5
5C2
  8
חשמל
 10
10319.0239
 20
-14161.0774
 30
0.0000
 11
10323.1618
 21
-14160.4814
 31
0.0000
  0
LINE
  5
5C3
  8
חשמל
 10
10323.1618
 20
-14160.4814
 30
0.0000
 11
10327.4072
 21
-14160.1207
 31
0.0000
  0
LINE
  5
5C4
  8
חשמל
 10
10327.4072
 20
-14160.1207
 30
0.0000
 11
10331.7066
 21
-14160.0000
 31
0.0000
  0
LINE
  5
5C5
  8
חשמל
 10
10331.7066
 20
-14160.0000
 30
0.0000
 11
10336.0060
 21
-14160.1207
 31
0.0000
  0
LINE
  5
5C6
  8
חשמל
 10
10336.0060
 20
-14160.1207
 30
0.0000
 11
10340.2514
 21
-14160.4814
 31
0.0000
  0
LINE
  5
5C7
  8
חשמל
 10
10340.2514
 20
-14160.4814
 30
0.0000
 11
10344.3893
 21
-14161.0774
 31
0.0000
  0
LINE
  5
5C8
  8
חשמל
 10
10344.3893
 20
-14161.0774
 30
0.0000
 11
10348.3677
 21
-14161.9014
 31
0.0000
  0
LINE
  5
5C9
  8
חשמל
 10
10348.3677
 20
-14161.9014
 30
0.0000
 11
10352.1366
 21
-14162.9429
 31
0.0000
  0
LINE
  5
5CA
  8
חשמל
 10
10352.1366
 20
-14162.9429
 30
0.0000
 11
10355.6486
 21
-14164.1888
 31
0.0000
  0
LINE
  5
5CB
  8
חשמל
 10
10355.6486
 20
-14164.1888
 30
0.0000
 11
10358.8595
 21
-14165.6235
 31
0.0000
  0
LINE
  5
5CC
  8
חשמל
 10
10358.8595
 20
-14165.6235
 30
0.0000
 11
10361.7289
 21
-14167.2290
 31
0.0000
  0
LINE
  5
5CD
  8
חשמל
 10
10361.7289
 20
-14167.2290
 30
0.0000
 11
10364.2208
 21
-14168.9850
 31
0.0000
  0
LINE
  5
5CE
  8
חשמל
 10
10364.2208
 20
-14168.9850
 30
0.0000
 11
10366.3038
 21
-14170.8694
 31
0.0000
  0
LINE
  5
5CF
  8
חשמל
 10
10366.3038
 20
-14170.8694
 30
0.0000
 11
10367.9517
 21
-14172.8586
 31
0.0000
  0
LINE
  5
5D0
  8
חשמל
 10
10367.9517
 20
-14172.8586
 30
0.0000
 11
10369.1438
 21
-14174.9276
 31
0.0000
  0
LINE
  5
5D1
  8
חשמל
 10
10369.1438
 20
-14174.9276
 30
0.0000
 11
10369.8651
 21
-14177.0503
 31
0.0000
  0
LINE
  5
5D2
  8
חשמל
 10
10369.8651
 20
-14177.0503
 30
0.0000
 11
10370.1066
 21
-14179.2000
 31
0.0000
  0
LINE
  5
5D3
  8
חשמל
 10
10293.3066
 20
-14179.2000
 30
0.0000
 11
10370.1066
 21
-14179.2000
 31
0.0000
  0
LINE
  5
5D4
  8
חשמל - מידות
 10
8556.0000
 20
-15312.0000
 30
0.0000
 11
8556.0000
 21
-18944.5000
 31
0.0000
  0
LINE
  5
5D5
  8
חשמל - מידות
 10
10291.0026
 20
-15312.0000
 30
0.0000
 11
10291.0026
 21
-18944.5000
 31
0.0000
  0
LINE
  5
5D6
  8
חשמל - מידות
 10
8556.0000
 20
-18884.5000
 30
0.0000
 11
10291.0026
 21
-18884.5000
 31
0.0000
  0
SOLID
  5
5D7
  8
חשמל - מידות
 10
8556.0000
 20
-18884.5000
 30
0.0000
 11
8441.0000
 21
-18916.5000
 31
0.0000
 12
8441.0000
 22
-18852.5000
 32
0.0000
 13
8441.0000
 23
-18852.5000
 33
0.0000
  0
SOLID
  5
5D8
  8
חשמל - מידות
 10
10291.0026
 20
-18884.5000
 30
0.0000
 11
10406.0026
 21
-18916.5000
 31
0.0000
 12
10406.0026
 22
-18852.5000
 32
0.0000
 13
10406.0026
 23
-18852.5000
 33
0.0000
  0
TEXT
  5
5D9
  8
חשמל - מידות
 10
9423.5013
 20
-18979.5000
 30
0.0000
 40
100.0000
  1
173.5
 50
0.0000
  7
SOLINE
 72
1
 73
2
 11
9423.5013
 21
-18979.5000
 31
0.0000
  0
LINE
  5
5DA
  8
חשמל - מידות
 10
10251.0026
 20
-15272.0000
 30
0.0000
 11
9963.5026
 21
-15272.0000
 31
0.0000
  0
LINE
  5
5DB
  8
חשמל - מידות
 10
10251.0026
 20
-14176.0000
 30
0.0000
 11
9963.5026
 21
-14176.0000
 31
0.0000
  0
LINE
  5
5DC
  8
חשמל - מידות
 10
10023.5026
 20
-15272.0000
 30
0.0000
 11
10023.5026
 21
-14176.0000
 31
0.0000
  0
SOLID
  5
5DD
  8
חשמל - מידות
 10
10023.5026
 20
-15272.0000
 30
0.0000
 11
9991.5026
 21
-15387.0000
 31
0.0000
 12
10055.5026
 22
-15387.0000
 32
0.0000
 13
10055.5026
 23
-15387.0000
 33
0.0000
  0
SOLID
  5
5DE
  8
חשמל - מידות
 10
10023.5026
 20
-14176.0000
 30
0.0000
 11
9991.5026
 21
-14061.0000
 31
0.0000
 12
10055.5026
 22
-14061.0000
 32
0.0000
 13
10055.5026
 23
-14061.0000
 33
0.0000
  0
TEXT
  5
5DF
  8
חשמל - מידות
 10
9928.5026
 20
-14724.0000
 30
0.0000
 40
100.0000
  1
109.6
 50
90.0000
  7
SOLINE
 72
1
 73
2
 11
9928.5026
 21
-14724.0000
 31
0.0000
  0
LINE
  5
5E0
  8
חשמל
 10
10252.0026
 20
-13468.0000
 30
0.0000
 11
10332.0026
 21
-13468.0000
 31
0.0000
  0
LINE
  5
5E1
  8
חשמל
 10
10332.0026
 20
-13468.0000
 30
0.0000
 11
10332.0026
 21
-13388.0000
 31
0.0000
  0
LINE
  5
5E2
  8
חשמל
 10
10332.0026
 20
-13388.0000
 30
0.0000
 11
10252.0026
 21
-13388.0000
 31
0.0000
  0
LINE
  5
5E3
  8
חשמל
 10
10252.0026
 20
-13388.0000
 30
0.0000
 11
10252.0026
 21
-13468.0000
 31
0.0000
  0
LINE
  5
5E4
  8
חשמל
 10
10292.0026
 20
-13468.0000
 30
0.0000
 11
10292.0026
 21
-13431.2000
 31
0.0000
  0
LINE
  5
5E5
  8
חשמל
 10
10266.4026
 20
-13431.2000
 30
0.0000
 11
10266.5636
 21
-13428.3337
 31
0.0000
  0
LINE
  5
5E6
  8
חשמל
 10
10266.5636
 20
-13428.3337
 30
0.0000
 11
10267.0444
 21
-13425.5035
 31
0.0000
  0
LINE
  5
5E7
  8
חשמל
 10
10267.0444
 20
-13425.5035
 30
0.0000
 11
10267.8392
 21
-13422.7449
 31
0.0000
  0
LINE
  5
5E8
  8
חשמל
 10
10267.8392
 20
-13422.7449
 30
0.0000
 11
10268.9378
 21
-13420.0926
 31
0.0000
  0
LINE
  5
5E9
  8
חשמל
 10
10268.9378
 20
-13420.0926
 30
0.0000
 11
10270.3265
 21
-13417.5800
 31
0.0000
  0
LINE
  5
5EA
  8
חשמל
 10
10270.3265
 20
-13417.5800
 30
0.0000
 11
10271.9877
 21
-13415.2387
 31
0.0000
  0
LINE
  5
5EB
  8
חשמל
 10
10271.9877
 20
-13415.2387
 30
0.0000
 11
10273.9007
 21
-13413.0981
 31
0.0000
  0
LINE
  5
5EC
  8
חשמל
 10
10273.9007
 20
-13413.0981
 30
0.0000
 11
10276.0413
 21
-13411.1851
 31
0.0000
  0
LINE
  5
5ED
  8
חשמל
 10
10276.0413
 20
-13411.1851
 30
0.0000
 11
10278.3826
 21
-13409.5239
 31
0.0000
  0
LINE
  5
5EE
  8
חשמל
 10
10278.3826
 20
-13409.5239
 30
0.0000
 11
10280.8952
 21
-13408.1352
 31
0.0000
  0
LINE
  5
5EF
  8
חשמל
 10
10280.8952
 20
-13408.1352
 30
0.0000
 11
10283.5474
 21
-13407.0366
 31
0.0000
  0
LINE
  5
5F0
  8
חשמל
 10
10283.5474
 20
-13407.0366
 30
0.0000
 11
10286.3061
 21
-13406.2418
 31
0.0000
  0
LINE
  5
5F1
  8
חשמל
 10
10286.3061
 20
-13406.2418
 30
0.0000
 11
10289.1363
 21
-13405.7610
 31
0.0000
  0
LINE
  5
5F2
  8
חשמל
 10
10289.1363
 20
-13405.7610
 30
0.0000
 11
10292.0026
 21
-13405.6000
 31
0.0000
  0
LINE
  5
5F3
  8
חשמל
 10
10292.0026
 20
-13405.6000
 30
0.0000
 11
10294.8689
 21
-13405.7610
 31
0.0000
  0
LINE
  5
5F4
  8
חשמל
 10
10294.8689
 20
-13405.7610
 30
0.0000
 11
10297.6991
 21
-13406.2418
 31
0.0000
  0
LINE
  5
5F5
  8
חשמל
 10
10297.6991
 20
-13406.2418
 30
0.0000
 11
10300.4577
 21
-13407.0366
 31
0.0000
  0
LINE
  5
5F6
  8
חשמל
 10
10300.4577
 20
-13407.0366
 30
0.0000
 11
10303.1100
 21
-13408.1352
 31
0.0000
  0
LINE
  5
5F7
  8
חשמל
 10
10303.1100
 20
-13408.1352
 30
0.0000
 11
10305.6226
 21
-13409.5239
 31
0.0000
  0
LINE
  5
5F8
  8
חשמל
 10
10305.6226
 20
-13409.5239
 30
0.0000
 11
10307.9639
 21
-13411.1851
 31
0.0000
  0
LINE
  5
5F9
  8
חשמל
 10
10307.9639
 20
-13411.1851
 30
0.0000
 11
10310.1045
 21
-13413.0981
 31
0.0000
  0
LINE
  5
5FA
  8
חשמל
 10
10310.1045
 20
-13413.0981
 30
0.0000
 11
10312.0175
 21
-13415.2387
 31
0.0000
  0
LINE
  5
5FB
  8
חשמל
 10
10312.0175
 20
-13415.2387
 30
0.0000
 11
10313.6787
 21
-13417.5800
 31
0.0000
  0
LINE
  5
5FC
  8
חשמל
 10
10313.6787
 20
-13417.5800
 30
0.0000
 11
10315.0674
 21
-13420.0926
 31
0.0000
  0
LINE
  5
5FD
  8
חשמל
 10
10315.0674
 20
-13420.0926
 30
0.0000
 11
10316.1660
 21
-13422.7449
 31
0.0000
  0
LINE
  5
5FE
  8
חשמל
 10
10316.1660
 20
-13422.7449
 30
0.0000
 11
10316.9607
 21
-13425.5035
 31
0.0000
  0
LINE
  5
5FF
  8
חשמל
 10
10316.9607
 20
-13425.5035
 30
0.0000
 11
10317.4416
 21
-13428.3337
 31
0.0000
  0
LINE
  5
600
  8
חשמל
 10
10317.4416
 20
-13428.3337
 30
0.0000
 11
10317.6026
 21
-13431.2000
 31
0.0000
  0
LINE
  5
601
  8
חשמל
 10
10266.4026
 20
-13431.2000
 30
0.0000
 11
10317.6026
 21
-13431.2000
 31
0.0000
  0
LINE
  5
602
  8
חשמל - מידות
 10
8556.0000
 20
-15312.0000
 30
0.0000
 11
8556.0000
 21
-19294.5000
 31
0.0000
  0
LINE
  5
603
  8
חשמל - מידות
 10
10292.0026
 20
-15312.0000
 30
0.0000
 11
10292.0026
 21
-19294.5000
 31
0.0000
  0
LINE
  5
604
  8
חשמל - מידות
 10
8556.0000
 20
-19234.5000
 30
0.0000
 11
10292.0026
 21
-19234.5000
 31
0.0000
  0
SOLID
  5
605
  8
חשמל - מידות
 10
8556.0000
 20
-19234.5000
 30
0.0000
 11
8441.0000
 21
-19266.5000
 31
0.0000
 12
8441.0000
 22
-19202.5000
 32
0.0000
 13
8441.0000
 23
-19202.5000
 33
0.0000
  0
SOLID
  5
606
  8
חשמל - מידות
 10
10292.0026
 20
-19234.5000
 30
0.0000
 11
10407.0026
 21
-19266.5000
 31
0.0000
 12
10407.0026
 22
-19202.5000
 32
0.0000
 13
10407.0026
 23
-19202.5000
 33
0.0000
  0
TEXT
  5
607
  8
חשמל - מידות
 10
9424.0013
 20
-19329.5000
 30
0.0000
 40
100.0000
  1
173.6
 50
0.0000
  7
SOLINE
 72
1
 73
2
 11
9424.0013
 21
-19329.5000
 31
0.0000
  0
LINE
  5
608
  8
חשמל - מידות
 10
10332.0026
 20
-15272.0000
 30
0.0000
 11
10579.5026
 21
-15272.0000
 31
0.0000
  0
LINE
  5
609
  8
חשמל - מידות
 10
10332.0026
 20
-13428.0000
 30
0.0000
 11
10579.5026
 21
-13428.0000
 31
0.0000
  0
LINE
  5
60A
  8
חשמל - מידות
 10
10519.5026
 20
-15272.0000
 30
0.0000
 11
10519.5026
 21
-13428.0000
 31
0.0000
  0
SOLID
  5
60B
  8
חשמל - מידות
 10
10519.5026
 20
-15272.0000
 30
0.0000
 11
10551.5026
 21
-15387.0000
 31
0.0000
 12
10487.5026
 22
-15387.0000
 32
0.0000
 13
10487.5026
 23
-15387.0000
 33
0.0000
  0
SOLID
  5
60C
  8
חשמל - מידות
 10
10519.5026
 20
-13428.0000
 30
0.0000
 11
10551.5026
 21
-13313.0000
 31
0.0000
 12
10487.5026
 22
-13313.0000
 32
0.0000
 13
10487.5026
 23
-13313.0000
 33
0.0000
  0
TEXT
  5
60D
  8
חשמל - מידות
 10
10614.5026
 20
-14350.0000
 30
0.0000
 40
100.0000
  1
184.4
 50
90.0000
  7
SOLINE
 72
1
 73
2
 11
10614.5026
 21
-14350.0000
 31
0.0000
  0
LINE
  5
60E
  8
חשמל
 10
9026.0010
 20
-13576.0000
 30
0.0000
 11
9106.0010
 21
-13576.0000
 31
0.0000
  0
LINE
  5
60F
  8
חשמל
 10
9106.0010
 20
-13576.0000
 30
0.0000
 11
9106.0010
 21
-13496.0000
 31
0.0000
  0
LINE
  5
610
  8
חשמל
 10
9106.0010
 20
-13496.0000
 30
0.0000
 11
9026.0010
 21
-13496.0000
 31
0.0000
  0
LINE
  5
611
  8
חשמל
 10
9026.0010
 20
-13496.0000
 30
0.0000
 11
9026.0010
 21
-13576.0000
 31
0.0000
  0
LINE
  5
612
  8
חשמל
 10
9066.0010
 20
-13576.0000
 30
0.0000
 11
9066.0010
 21
-13539.2000
 31
0.0000
  0
LINE
  5
613
  8
חשמל
 10
9040.4010
 20
-13539.2000
 30
0.0000
 11
9040.5619
 21
-13536.3337
 31
0.0000
  0
LINE
  5
614
  8
חשמל
 10
9040.5619
 20
-13536.3337
 30
0.0000
 11
9041.0428
 21
-13533.5035
 31
0.0000
  0
LINE
  5
615
  8
חשמל
 10
9041.0428
 20
-13533.5035
 30
0.0000
 11
9041.8376
 21
-13530.7449
 31
0.0000
  0
LINE
  5
616
  8
חשמל
 10
9041.8376
 20
-13530.7449
 30
0.0000
 11
9042.9362
 21
-13528.0926
 31
0.0000
  0
LINE
  5
617
  8
חשמל
 10
9042.9362
 20
-13528.0926
 30
0.0000
 11
9044.3248
 21
-13525.5800
 31
0.0000
  0
LINE
  5
618
  8
חשמל
 10
9044.3248
 20
-13525.5800
 30
0.0000
 11
9045.9861
 21
-13523.2387
 31
0.0000
  0
LINE
  5
619
  8
חשמל
 10
9045.9861
 20
-13523.2387
 30
0.0000
 11
9047.8990
 21
-13521.0981
 31
0.0000
  0
LINE
  5
61A
  8
חשמל
 10
9047.8990
 20
-13521.0981
 30
0.0000
 11
9050.0396
 21
-13519.1851
 31
0.0000
  0
LINE
  5
61B
  8
חשמל
 10
9050.0396
 20
-13519.1851
 30
0.0000
 11
9052.3809
 21
-13517.5239
 31
0.0000
  0
LINE
  5
61C
  8
חשמל
 10
9052.3809
 20
-13517.5239
 30
0.0000
 11
9054.8935
 21
-13516.1352
 31
0.0000
  0
LINE
  5
61D
  8
חשמל
 10
9054.8935
 20
-13516.1352
 30
0.0000
 11
9057.5458
 21
-13515.0366
 31
0.0000
  0
LINE
  5
61E
  8
חשמל
 10
9057.5458
 20
-13515.0366
 30
0.0000
 11
9060.3044
 21
-13514.2418
 31
0.0000
  0
LINE
  5
61F
  8
חשמל
 10
9060.3044
 20
-13514.2418
 30
0.0000
 11
9063.1347
 21
-13513.7610
 31
0.0000
  0
LINE
  5
620
  8
חשמל
 10
9063.1347
 20
-13513.7610
 30
0.0000
 11
9066.0010
 21
-13513.6000
 31
0.0000
  0
LINE
  5
621
  8
חשמל
 10
9066.0010
 20
-13513.6000
 30
0.0000
 11
9068.8673
 21
-13513.7610
 31
0.0000
  0
LINE
  5
622
  8
חשמל
 10
9068.8673
 20
-13513.7610
 30
0.0000
 11
9071.6975
 21
-13514.2418
 31
0.0000
  0
LINE
  5
623
  8
חשמל
 10
9071.6975
 20
-13514.2418
 30
0.0000
 11
9074.4561
 21
-13515.0366
 31
0.0000
  0
LINE
  5
624
  8
חשמל
 10
9074.4561
 20
-13515.0366
 30
0.0000
 11
9077.1084
 21
-13516.1352
 31
0.0000
  0
LINE
  5
625
  8
חשמל
 10
9077.1084
 20
-13516.1352
 30
0.0000
 11
9079.6210
 21
-13517.5239
 31
0.0000
  0
LINE
  5
626
  8
חשמל
 10
9079.6210
 20
-13517.5239
 30
0.0000
 11
9081.9623
 21
-13519.1851
 31
0.0000
  0
LINE
  5
627
  8
חשמל
 10
9081.9623
 20
-13519.1851
 30
0.0000
 11
9084.1029
 21
-13521.0981
 31
0.0000
  0
LINE
  5
628
  8
חשמל
 10
9084.1029
 20
-13521.0981
 30
0.0000
 11
9086.0159
 21
-13523.2387
 31
0.0000
  0
LINE
  5
629
  8
חשמל
 10
9086.0159
 20
-13523.2387
 30
0.0000
 11
9087.6771
 21
-13525.5800
 31
0.0000
  0
LINE
  5
62A
  8
חשמל
 10
9087.6771
 20
-13525.5800
 30
0.0000
 11
9089.0658
 21
-13528.0926
 31
0.0000
  0
LINE
  5
62B
  8
חשמל
 10
9089.0658
 20
-13528.0926
 30
0.0000
 11
9090.1644
 21
-13530.7449
 31
0.0000
  0
LINE
  5
62C
  8
חשמל
 10
9090.1644
 20
-13530.7449
 30
0.0000
 11
9090.9591
 21
-13533.5035
 31
0.0000
  0
LINE
  5
62D
  8
חשמל
 10
9090.9591
 20
-13533.5035
 30
0.0000
 11
9091.4400
 21
-13536.3337
 31
0.0000
  0
LINE
  5
62E
  8
חשמל
 10
9091.4400
 20
-13536.3337
 30
0.0000
 11
9091.6010
 21
-13539.2000
 31
0.0000
  0
LINE
  5
62F
  8
חשמל
 10
9040.4010
 20
-13539.2000
 30
0.0000
 11
9091.6010
 21
-13539.2000
 31
0.0000
  0
LINE
  5
630
  8
חשמל - מידות
 10
8556.0000
 20
-15312.0000
 30
0.0000
 11
8556.0000
 21
-19644.5000
 31
0.0000
  0
LINE
  5
631
  8
חשמל - מידות
 10
9066.0010
 20
-15312.0000
 30
0.0000
 11
9066.0010
 21
-19644.5000
 31
0.0000
  0
LINE
  5
632
  8
חשמל - מידות
 10
8556.0000
 20
-19584.5000
 30
0.0000
 11
9066.0010
 21
-19584.5000
 31
0.0000
  0
SOLID
  5
633
  8
חשמל - מידות
 10
8556.0000
 20
-19584.5000
 30
0.0000
 11
8441.0000
 21
-19616.5000
 31
0.0000
 12
8441.0000
 22
-19552.5000
 32
0.0000
 13
8441.0000
 23
-19552.5000
 33
0.0000
  0
SOLID
  5
634
  8
חשמל - מידות
 10
9066.0010
 20
-19584.5000
 30
0.0000
 11
9181.0010
 21
-19616.5000
 31
0.0000
 12
9181.0010
 22
-19552.5000
 32
0.0000
 13
9181.0010
 23
-19552.5000
 33
0.0000
  0
TEXT
  5
635
  8
חשמל - מידות
 10
8811.0005
 20
-19679.5000
 30
0.0000
 40
100.0000
  1
51
 50
0.0000
  7
SOLINE
 72
1
 73
2
 11
8811.0005
 21
-19679.5000
 31
0.0000
  0
LINE
  5
636
  8
חשמל - מידות
 10
9026.0010
 20
-15272.0000
 30
0.0000
 11
8778.5010
 21
-15272.0000
 31
0.0000
  0
LINE
  5
637
  8
חשמל - מידות
 10
9026.0010
 20
-13536.0000
 30
0.0000
 11
8778.5010
 21
-13536.0000
 31
0.0000
  0
LINE
  5
638
  8
חשמל - מידות
 10
8838.5010
 20
-15272.0000
 30
0.0000
 11
8838.5010
 21
-13536.0000
 31
0.0000
  0
SOLID
  5
639
  8
חשמל - מידות
 10
8838.5010
 20
-15272.0000
 30
0.0000
 11
8806.5010
 21
-15387.0000
 31
0.0000
 12
8870.5010
 22
-15387.0000
 32
0.0000
 13
8870.5010
 23
-15387.0000
 33
0.0000
  0
SOLID
  5
63A
  8
חשמל - מידות
 10
8838.5010
 20
-13536.0000
 30
0.0000
 11
8806.5010
 21
-13421.0000
 31
0.0000
 12
8870.5010
 22
-13421.0000
 32
0.0000
 13
8870.5010
 23
-13421.0000
 33
0.0000
  0
TEXT
  5
63B
  8
חשמל - מידות
 10
8743.5010
 20
-14404.0000
 30
0.0000
 40
100.0000
  1
173.6
 50
90.0000
  7
SOLINE
 72
1
 73
2
 11
8743.5010
 21
-14404.0000
 31
0.0000
  0
TEXT
  5
63C
  8
קירות - טקסט
 10
10353.5000
 20
-16209.5000
 30
0.0000
 40
162.5000
  1
W2
 50
0.0000
  7
SOLINE
 72
1
 73
2
 11
10353.5000
 21
-16209.5000
 31
0.0000
  0
LINE
  5
63D
  8
קירות
 10
14651.0000
 20
-15272.0000
 30
0.0000
 11
15578.0000
 21
-15272.0000
 31
0.0000
  0
LINE
  5
63E
  8
קירות
 10
15578.0000
 20
-15272.0000
 30
0.0000
 11
15578.0000
 21
-12634.0000
 31
0.0000
  0
LINE
  5
63F
  8
קירות
 10
15578.0000
 20
-12634.0000
 30
0.0000
 11
14651.0000
 21
-12634.0000
 31
0.0000
  0
LINE
  5
640
  8
קירות
 10
14651.0000
 20
-12634.0000
 30
0.0000
 11
14651.0000
 21
-15272.0000
 31
0.0000
  0
LINE
  5
641
  8
מידות - חוץ
 10
14651.0000
 20
-15322.0000
 30
0.0000
 11
14651.0000
 21
-15722.0000
 31
0.0000
  0
LINE
  5
642
  8
מידות - חוץ
 10
15578.0000
 20
-15322.0000
 30
0.0000
 11
15578.0000
 21
-15722.0000
 31
0.0000
  0
LINE
  5
643
  8
מידות - חוץ
 10
14651.0000
 20
-15647.0000
 30
0.0000
 11
15578.0000
 21
-15647.0000
 31
0.0000
  0
SOLID
  5
644
  8
מידות - חוץ
 10
14651.0000
 20
-15647.0000
 30
0.0000
 11
14507.2500
 21
-15687.0000
 31
0.0000
 12
14507.2500
 22
-15607.0000
 32
0.0000
 13
14507.2500
 23
-15607.0000
 33
0.0000
  0
SOLID
  5
645
  8
מידות - חוץ
 10
15578.0000
 20
-15647.0000
 30
0.0000
 11
15721.7500
 21
-15687.0000
 31
0.0000
 12
15721.7500
 22
-15607.0000
 32
0.0000
 13
15721.7500
 23
-15607.0000
 33
0.0000
  0
TEXT
  5
646
  8
מידות - חוץ
 10
15114.5000
 20
-15765.7500
 30
0.0000
 40
125.0000
  1
92.7
 50
0.0000
  7
SOLINE
 72
1
 73
2
 11
15114.5000
 21
-15765.7500
 31
0.0000
  0
LINE
  5
647
  8
מידות - חוץ
 10
14601.0000
 20
-15272.0000
 30
0.0000
 11
14201.0000
 21
-15272.0000
 31
0.0000
  0
LINE
  5
648
  8
מידות - חוץ
 10
14601.0000
 20
-12634.0000
 30
0.0000
 11
14201.0000
 21
-12634.0000
 31
0.0000
  0
LINE
  5
649
  8
מידות - חוץ
 10
14276.0000
 20
-15272.0000
 30
0.0000
 11
14276.0000
 21
-12634.0000
 31
0.0000
  0
SOLID
  5
64A
  8
מידות - חוץ
 10
14276.0000
 20
-15272.0000
 30
0.0000
 11
14236.0000
 21
-15415.7500
 31
0.0000
 12
14316.0000
 22
-15415.7500
 32
0.0000
 13
14316.0000
 23
-15415.7500
 33
0.0000
  0
SOLID
  5
64B
  8
מידות - חוץ
 10
14276.0000
 20
-12634.0000
 30
0.0000
 11
14236.0000
 21
-12490.2500
 31
0.0000
 12
14316.0000
 22
-12490.2500
 32
0.0000
 13
14316.0000
 23
-12490.2500
 33
0.0000
  0
TEXT
  5
64C
  8
מידות - חוץ
 10
14157.2500
 20
-13953.0000
 30
0.0000
 40
125.0000
  1
263.8
 50
90.0000
  7
SOLINE
 72
1
 73
2
 11
14157.2500
 21
-13953.0000
 31
0.0000
  0
TEXT
  5
64D
  8
קירות - טקסט
 10
15114.5000
 20
-16209.5000
 30
0.0000
 40
162.5000
  1
W3
 50
0.0000
  7
SOLINE
 72
1
 73
2
 11
15114.5000
 21
-16209.5000
 31
0.0000
  0
LINE
  5
64E
  8
קירות
 10
18078.0000
 20
-15272.0000
 30
0.0000
 11
19332.0000
 21
-15272.0000
 31
0.0000
  0
LINE
  5
64F
  8
קירות
 10
19332.0000
 20
-15272.0000
 30
0.0000
 11
19332.0000
 21
-12634.0000
 31
0.0000
  0
LINE
  5
650
  8
קירות
 10
19332.0000
 20
-12634.0000
 30
0.0000
 11
18078.0000
 21
-12634.0000
 31
0.0000
  0
LINE
  5
651
  8
קירות
 10
18078.0000
 20
-12634.0000
 30
0.0000
 11
18078.0000
 21
-15272.0000
 31
0.0000
  0
LINE
  5
652
  8
מידות - חוץ
 10
18078.0000
 20
-15322.0000
 30
0.0000
 11
18078.0000
 21
-15722.0000
 31
0.0000
  0
LINE
  5
653
  8
מידות - חוץ
 10
19332.0000
 20
-15322.0000
 30
0.0000
 11
19332.0000
 21
-15722.0000
 31
0.0000
  0
LINE
  5
654
  8
מידות - חוץ
 10
18078.0000
 20
-15647.0000
 30
0.0000
 11
19332.0000
 21
-15647.0000
 31
0.0000
  0
SOLID
  5
655
  8
מידות - חוץ
 10
18078.0000
 20
-15647.0000
 30
0.0000
 11
17934.2500
 21
-15687.0000
 31
0.0000
 12
17934.2500
 22
-15607.0000
 32
0.0000
 13
17934.2500
 23
-15607.0000
 33
0.0000
  0
SOLID
  5
656
  8
מידות - חוץ
 10
19332.0000
 20
-15647.0000
 30
0.0000
 11
19475.7500
 21
-15687.0000
 31
0.0000
 12
19475.7500
 22
-15607.0000
 32
0.0000
 13
19475.7500
 23
-15607.0000
 33
0.0000
  0
TEXT
  5
657
  8
מידות - חוץ
 10
18705.0000
 20
-15765.7500
 30
0.0000
 40
125.0000
  1
125.4
 50
0.0000
  7
SOLINE
 72
1
 73
2
 11
18705.0000
 21
-15765.7500
 31
0.0000
  0
LINE
  5
658
  8
מידות - חוץ
 10
18028.0000
 20
-15272.0000
 30
0.0000
 11
17628.0000
 21
-15272.0000
 31
0.0000
  0
LINE
  5
659
  8
מידות - חוץ
 10
18028.0000
 20
-12634.0000
 30
0.0000
 11
17628.0000
 21
-12634.0000
 31
0.0000
  0
LINE
  5
65A
  8
מידות - חוץ
 10
17703.0000
 20
-15272.0000
 30
0.0000
 11
17703.0000
 21
-12634.0000
 31
0.0000
  0
SOLID
  5
65B
  8
מידות - חוץ
 10
17703.0000
 20
-15272.0000
 30
0.0000
 11
17663.0000
 21
-15415.7500
 31
0.0000
 12
17743.0000
 22
-15415.7500
 32
0.0000
 13
17743.0000
 23
-15415.7500
 33
0.0000
  0
SOLID
  5
65C
  8
מידות - חוץ
 10
17703.0000
 20
-12634.0000
 30
0.0000
 11
17663.0000
 21
-12490.2500
 31
0.0000
 12
17743.0000
 22
-12490.2500
 32
0.0000
 13
17743.0000
 23
-12490.2500
 33
0.0000
  0
TEXT
  5
65D
  8
מידות - חוץ
 10
17584.2500
 20
-13953.0000
 30
0.0000
 40
125.0000
  1
263.8
 50
90.0000
  7
SOLINE
 72
1
 73
2
 11
17584.2500
 21
-13953.0000
 31
0.0000
  0
LINE
  5
65E
  8
דלתות
 10
17630.6227
 20
-15272.0000
 30
0.0000
 11
18764.6227
 21
-15272.0000
 31
0.0000
  0
LINE
  5
65F
  8
דלתות
 10
18764.6227
 20
-15272.0000
 30
0.0000
 11
18764.6227
 21
-12634.0000
 31
0.0000
  0
LINE
  5
660
  8
דלתות
 10
18764.6227
 20
-12634.0000
 30
0.0000
 11
17630.6227
 21
-12634.0000
 31
0.0000
  0
LINE
  5
661
  8
דלתות
 10
17630.6227
 20
-12634.0000
 30
0.0000
 11
17630.6227
 21
-15272.0000
 31
0.0000
  0
LINE
  5
662
  8
דלתות
 10
17664.6427
 20
-15272.0000
 30
0.0000
 11
17664.6427
 21
-14902.6800
 31
0.0000
  0
LINE
  5
663
  8
דלתות
 10
18730.6027
 20
-15272.0000
 30
0.0000
 11
18730.6027
 21
-14902.6800
 31
0.0000
  0
LINE
  5
664
  8
דלתות
 10
17664.6427
 20
-14902.6800
 30
0.0000
 11
18730.6027
 21
-14902.6800
 31
0.0000
  0
LINE
  5
665
  8
דלתות - מידות
 10
18078.0000
 20
-15232.0000
 30
0.0000
 11
18078.0000
 21
-14399.5000
 31
0.0000
  0
LINE
  5
666
  8
דלתות - מידות
 10
17630.6227
 20
-15232.0000
 30
0.0000
 11
17630.6227
 21
-14399.5000
 31
0.0000
  0
LINE
  5
667
  8
דלתות - מידות
 10
18078.0000
 20
-14459.5000
 30
0.0000
 11
17630.6227
 21
-14459.5000
 31
0.0000
  0
SOLID
  5
668
  8
דלתות - מידות
 10
18078.0000
 20
-14459.5000
 30
0.0000
 11
18193.0000
 21
-14427.5000
 31
0.0000
 12
18193.0000
 22
-14491.5000
 32
0.0000
 13
18193.0000
 23
-14491.5000
 33
0.0000
  0
SOLID
  5
669
  8
דלתות - מידות
 10
17630.6227
 20
-14459.5000
 30
0.0000
 11
17515.6227
 21
-14427.5000
 31
0.0000
 12
17515.6227
 22
-14491.5000
 32
0.0000
 13
17515.6227
 23
-14491.5000
 33
0.0000
  0
TEXT
  5
66A
  8
דלתות - מידות
 10
17854.3114
 20
-14364.5000
 30
0.0000
 40
100.0000
  1
44.7
 50
360.0000
  7
SOLINE
 72
1
 73
2
 11
17854.3114
 21
-14364.5000
 31
0.0000
  0
LINE
  5
66B
  8
דלתות - מידות
 10
17630.6227
 20
-12594.0000
 30
0.0000
 11
17630.6227
 21
-12350.5000
 31
0.0000
  0
LINE
  5
66C
  8
דלתות - מידות
 10
18764.6227
 20
-12594.0000
 30
0.0000
 11
18764.6227
 21
-12350.5000
 31
0.0000
  0
LINE
  5
66D
  8
דלתות - מידות
 10
17630.6227
 20
-12409.0000
 30
0.0000
 11
18764.6227
 21
-12409.0000
 31
0.0000
  0
SOLID
  5
66E
  8
דלתות - מידות
 10
17630.6227
 20
-12409.0000
 30
0.0000
 11
17518.4977
 21
-12377.8000
 31
0.0000
 12
17518.4977
 22
-12440.2000
 32
0.0000
 13
17518.4977
 23
-12440.2000
 33
0.0000
  0
SOLID
  5
66F
  8
דלתות - מידות
 10
18764.6227
 20
-12409.0000
 30
0.0000
 11
18876.7477
 21
-12377.8000
 31
0.0000
 12
18876.7477
 22
-12440.2000
 32
0.0000
 13
18876.7477
 23
-12440.2000
 33
0.0000
  0
TEXT
  5
670
  8
דלתות - מידות
 10
18197.6227
 20
-12316.3750
 30
0.0000
 40
97.5000
  1
113.4
 50
0.0000
  7
SOLINE
 72
1
 73
2
 11
18197.6227
 21
-12316.3750
 31
0.0000
  0
LINE
  5
671
  8
דלתות - מידות
 10
17590.6227
 20
-15272.0000
 30
0.0000
 11
17047.1227
 21
-15272.0000
 31
0.0000
  0
LINE
  5
672
  8
דלתות - מידות
 10
17590.6227
 20
-12634.0000
 30
0.0000
 11
17047.1227
 21
-12634.0000
 31
0.0000
  0
LINE
  5
673
  8
דלתות - מידות
 10
17105.6227
 20
-15272.0000
 30
0.0000
 11
17105.6227
 21
-12634.0000
 31
0.0000
  0
SOLID
  5
674
  8
דלתות - מידות
 10
17105.6227
 20
-15272.0000
 30
0.0000
 11
17074.4227
 21
-15384.1250
 31
0.0000
 12
17136.8227
 22
-15384.1250
 32
0.0000
 13
17136.8227
 23
-15384.1250
 33
0.0000
  0
SOLID
  5
675
  8
דלתות - מידות
 10
17105.6227
 20
-12634.0000
 30
0.0000
 11
17074.4227
 21
-12521.8750
 31
0.0000
 12
17136.8227
 22
-12521.8750
 32
0.0000
 13
17136.8227
 23
-12521.8750
 33
0.0000
  0
TEXT
  5
676
  8
דלתות - מידות
 10
17012.9977
 20
-13953.0000
 30
0.0000
 40
97.5000
  1
263.8
 50
90.0000
  7
SOLINE
 72
1
 73
2
 11
17012.9977
 21
-13953.0000
 31
0.0000
  0
TEXT
  5
677
  8
קירות - טקסט
 10
18705.0000
 20
-16209.5000
 30
0.0000
 40
162.5000
  1
W4
 50
0.0000
  7
SOLINE
 72
1
 73
2
 11
18705.0000
 21
-16209.5000
 31
0.0000
  0
LINE
  5
678
  8
גבול גיליון
 10
-1787.0000
 20
-17259.5000
 30
0.0000
 11
19732.0000
 21
-17259.5000
 31
0.0000
  0
LINE
  5
679
  8
גבול גיליון
 10
19732.0000
 20
-17259.5000
 30
0.0000
 11
19732.0000
 21
201.0000
 31
0.0000
  0
LINE
  5
67A
  8
גבול גיליון
 10
19732.0000
 20
201.0000
 30
0.0000
 11
-1787.0000
 21
201.0000
 31
0.0000
  0
LINE
  5
67B
  8
גבול גיליון
 10
-1787.0000
 20
201.0000
 30
0.0000
 11
-1787.0000
 21
-17259.5000
 31
0.0000
  0
ENDSEC
  0
EOF
