  0
SECTION
  2
HEADER
  9
$ACADVER
  1
AC1009
  9
$INSBASE
 10
0.0000
 20
0.0000
 30
0.0000
  9
$EXTMIN
 10
1241.5000
 20
-8205.5000
 30
0.0000
  9
$EXTMAX
 10
7667.3747
 20
-643.0000
 30
0.0000
  9
$DWGCODEPAGE
  3
ansi_1255
  9
$CLAYER
  8
0
  9
$LTSCALE
 40
10.0000
  9
$LIMMIN
 10
0.0000
 20
0.0000
  9
$LIMMAX
 10
2000.0000
 20
200.0000
  0
ENDSEC
  0
SECTION
  2
TABLES
  0
TABLE
  2
VPORT
 70
1
  0
VPORT
  2
*ACTIVE
 70
0
 10
0.0000
 20
0.0000
 11
1.0000
 21
1.0000
 12
4454.4373
 22
-4424.2500
 13
0.0000
 23
0.0000
 14
10.0000
 24
10.0000
 15
10.0000
 25
10.0000
 16
0.0000
 26
0.0000
 36
1.0000
 17
0.0000
 27
0.0000
 37
0.0000
 40
8696.8750
 41
1.6000
 42
50.0000
 43
0.0000
 44
0.0000
 50
0.0000
 51
0.0000
 71
0
 72
100
 73
1
 74
1
 75
0
 76
0
 77
0
 78
0
  0
ENDTAB
  0
TABLE
  2
LTYPE
 70
3
  0
LTYPE
  2
CONTINUOUS
 70
0
  3
Solid line
 72
65
 73
0
 40
0.0000
  0
LTYPE
  2
HIDDEN
 70
0
  3
Hidden __ __ __ __ __ __
 72
65
 73
2
 40
9.5250
 49
6.3500
 49
-3.1750
  0
LTYPE
  2
CENTER
 70
0
  3
Center ____ _ ____ _ ____
 72
65
 73
4
 40
50.8000
 49
31.7500
 49
-6.3500
 49
6.3500
 49
-6.3500
  0
ENDTAB
  0
TABLE
  2
LAYER
 70
71
  0
LAYER
  2
0
 70
0
 62
7
  6
CONTINUOUS
  0
LAYER
  2
קירות
 70
0
 62
7
  6
CONTINUOUS
  0
LAYER
  2
קירות - מילוי
 70
0
 62
8
  6
CONTINUOUS
  0
LAYER
  2
קירות - מידות
 70
0
 62
7
  6
CONTINUOUS
  0
LAYER
  2
קירות - טקסט
 70
0
 62
7
  6
CONTINUOUS
  0
LAYER
  2
קירות - נסתר
 70
0
 62
7
  6
HIDDEN
  0
LAYER
  2
קירות - ציר
 70
0
 62
7
  6
CENTER
  0
LAYER
  2
מבנה
 70
0
 62
9
  6
CONTINUOUS
  0
LAYER
  2
מבנה - מילוי
 70
0
 62
9
  6
CONTINUOUS
  0
LAYER
  2
מבנה - מידות
 70
0
 62
9
  6
CONTINUOUS
  0
LAYER
  2
מבנה - טקסט
 70
0
 62
9
  6
CONTINUOUS
  0
LAYER
  2
מבנה - נסתר
 70
0
 62
9
  6
HIDDEN
  0
LAYER
  2
מבנה - ציר
 70
0
 62
9
  6
CENTER
  0
LAYER
  2
חשמל
 70
0
 62
6
  6
CONTINUOUS
  0
LAYER
  2
חשמל - מידות
 70
0
 62
6
  6
CONTINUOUS
  0
LAYER
  2
חשמל - טקסט
 70
0
 62
6
  6
CONTINUOUS
  0
LAYER
  2
חשמל - נסתר
 70
0
 62
6
  6
HIDDEN
  0
LAYER
  2
תאורה
 70
0
 62
30
  6
CONTINUOUS
  0
LAYER
  2
תאורה - מידות
 70
0
 62
30
  6
CONTINUOUS
  0
LAYER
  2
תאורה - טקסט
 70
0
 62
30
  6
CONTINUOUS
  0
LAYER
  2
תאורה - נסתר
 70
0
 62
30
  6
HIDDEN
  0
LAYER
  2
מים
 70
0
 62
4
  6
CONTINUOUS
  0
LAYER
  2
מים - מידות
 70
0
 62
4
  6
CONTINUOUS
  0
LAYER
  2
מים - טקסט
 70
0
 62
4
  6
CONTINUOUS
  0
LAYER
  2
מים - נסתר
 70
0
 62
4
  6
HIDDEN
  0
LAYER
  2
מים - ציר
 70
0
 62
4
  6
CENTER
  0
LAYER
  2
ניקוז
 70
0
 62
140
  6
CONTINUOUS
  0
LAYER
  2
ניקוז - מידות
 70
0
 62
140
  6
CONTINUOUS
  0
LAYER
  2
ניקוז - טקסט
 70
0
 62
140
  6
CONTINUOUS
  0
LAYER
  2
ניקוז - נסתר
 70
0
 62
140
  6
HIDDEN
  0
LAYER
  2
ניקוז - ציר
 70
0
 62
140
  6
CENTER
  0
LAYER
  2
גז
 70
0
 62
2
  6
CONTINUOUS
  0
LAYER
  2
גז - מידות
 70
0
 62
2
  6
CONTINUOUS
  0
LAYER
  2
גז - טקסט
 70
0
 62
2
  6
CONTINUOUS
  0
LAYER
  2
גז - נסתר
 70
0
 62
2
  6
HIDDEN
  0
LAYER
  2
גז - ציר
 70
0
 62
2
  6
CENTER
  0
LAYER
  2
מיזוג
 70
0
 62
141
  6
CONTINUOUS
  0
LAYER
  2
מיזוג - מידות
 70
0
 62
141
  6
CONTINUOUS
  0
LAYER
  2
מיזוג - טקסט
 70
0
 62
141
  6
CONTINUOUS
  0
LAYER
  2
מיזוג - נסתר
 70
0
 62
141
  6
HIDDEN
  0
LAYER
  2
אוורור
 70
0
 62
131
  6
CONTINUOUS
  0
LAYER
  2
אוורור - מידות
 70
0
 62
131
  6
CONTINUOUS
  0
LAYER
  2
אוורור - טקסט
 70
0
 62
131
  6
CONTINUOUS
  0
LAYER
  2
אוורור - נסתר
 70
0
 62
131
  6
HIDDEN
  0
LAYER
  2
דלתות
 70
0
 62
5
  6
CONTINUOUS
  0
LAYER
  2
דלתות - מידות
 70
0
 62
5
  6
CONTINUOUS
  0
LAYER
  2
דלתות - טקסט
 70
0
 62
5
  6
CONTINUOUS
  0
LAYER
  2
דלתות - נסתר
 70
0
 62
5
  6
HIDDEN
  0
LAYER
  2
דלתות - מילוי
 70
0
 62
5
  6
CONTINUOUS
  0
LAYER
  2
חלונות
 70
0
 62
151
  6
CONTINUOUS
  0
LAYER
  2
חלונות - מידות
 70
0
 62
151
  6
CONTINUOUS
  0
LAYER
  2
חלונות - טקסט
 70
0
 62
151
  6
CONTINUOUS
  0
LAYER
  2
חלונות - נסתר
 70
0
 62
151
  6
HIDDEN
  0
LAYER
  2
ריהוט
 70
0
 62
42
  6
CONTINUOUS
  0
LAYER
  2
ריהוט - מידות
 70
0
 62
42
  6
CONTINUOUS
  0
LAYER
  2
ריהוט - טקסט
 70
0
 62
42
  6
CONTINUOUS
  0
LAYER
  2
ריהוט - נסתר
 70
0
 62
42
  6
HIDDEN
  0
LAYER
  2
מטבח
 70
0
 62
52
  6
CONTINUOUS
  0
LAYER
  2
מטבח - מידות
 70
0
 62
52
  6
CONTINUOUS
  0
LAYER
  2
מטבח - טקסט
 70
0
 62
52
  6
CONTINUOUS
  0
LAYER
  2
מטבח - נסתר
 70
0
 62
52
  6
HIDDEN
  0
LAYER
  2
ריצוף
 70
0
 62
251
  6
CONTINUOUS
  0
LAYER
  2
ריצוף - מילוי
 70
0
 62
8
  6
CONTINUOUS
  0
LAYER
  2
מידות - פנים
 70
0
 62
3
  6
CONTINUOUS
  0
LAYER
  2
מידות - חוץ
 70
0
 62
1
  6
CONTINUOUS
  0
LAYER
  2
מסגרת
 70
0
 62
250
  6
CONTINUOUS
  0
LAYER
  2
גבול גיליון
 70
0
 62
255
  6
CONTINUOUS
  0
LAYER
  2
מקרא
 70
0
 62
150
  6
CONTINUOUS
  0
LAYER
  2
רשת צירים
 70
0
 62
8
  6
CENTER
  0
LAYER
  2
הערות
 70
0
 62
150
  6
CONTINUOUS
  0
LAYER
  2
מהדורות
 70
0
 62
1
  6
CONTINUOUS
  0
ENDTAB
  0
TABLE
  2
STYLE
 70
2
  0
STYLE
  2
SOLINE
 70
0
 40
0.0000
 41
1.0000
 50
0.0000
 71
0
 42
2.5000
  3
arial.ttf
  4

  0
STYLE
  2
Standard
 70
0
 40
0.0000
 41
1.0000
 50
0.0000
 71
0
 42
2.5000
  3
txt
  4

  0
ENDTAB
  0
ENDSEC
  0
SECTION
  2
BLOCKS
  0
BLOCK
  8
0
  2
GAS
 70
0
 10
0.0000
 20
0.0000
 30
0.0000
  3
GAS
  1

  0
3DFACE
  5
111D
  8
0
 10
-30.0000
 20
0.0000
 30
0.0000
 11
30.0000
 21
0.0000
 31
0.0000
 12
30.0000
 22
30.0000
 32
0.0000
 13
-30.0000
 23
30.0000
 33
0.0000
  0
3DFACE
  5
111E
  8
0
 10
-30.0000
 20
0.0000
 30
60.0000
 11
30.0000
 21
0.0000
 31
60.0000
 12
30.0000
 22
30.0000
 32
60.0000
 13
-30.0000
 23
30.0000
 33
60.0000
  0
3DFACE
  5
111F
  8
0
 10
-30.0000
 20
0.0000
 30
0.0000
 11
30.0000
 21
0.0000
 31
0.0000
 12
30.0000
 22
0.0000
 32
60.0000
 13
-30.0000
 23
0.0000
 33
60.0000
  0
3DFACE
  5
1120
  8
0
 10
-30.0000
 20
30.0000
 30
0.0000
 11
30.0000
 21
30.0000
 31
0.0000
 12
30.0000
 22
30.0000
 32
60.0000
 13
-30.0000
 23
30.0000
 33
60.0000
  0
3DFACE
  5
1121
  8
0
 10
-30.0000
 20
0.0000
 30
0.0000
 11
-30.0000
 21
30.0000
 31
0.0000
 12
-30.0000
 22
30.0000
 32
60.0000
 13
-30.0000
 23
0.0000
 33
60.0000
  0
3DFACE
  5
1122
  8
0
 10
30.0000
 20
0.0000
 30
0.0000
 11
30.0000
 21
30.0000
 31
0.0000
 12
30.0000
 22
30.0000
 32
60.0000
 13
30.0000
 23
0.0000
 33
60.0000
  0
3DFACE
  5
1123
  8
0
 10
-6.0000
 20
30.0000
 30
22.0000
 11
6.0000
 21
30.0000
 31
22.0000
 12
6.0000
 22
60.0000
 32
22.0000
 13
-6.0000
 23
60.0000
 33
22.0000
  0
3DFACE
  5
1124
  8
0
 10
-6.0000
 20
30.0000
 30
38.0000
 11
6.0000
 21
30.0000
 31
38.0000
 12
6.0000
 22
60.0000
 32
38.0000
 13
-6.0000
 23
60.0000
 33
38.0000
  0
3DFACE
  5
1125
  8
0
 10
-6.0000
 20
30.0000
 30
22.0000
 11
6.0000
 21
30.0000
 31
22.0000
 12
6.0000
 22
30.0000
 32
38.0000
 13
-6.0000
 23
30.0000
 33
38.0000
  0
3DFACE
  5
1126
  8
0
 10
-6.0000
 20
60.0000
 30
22.0000
 11
6.0000
 21
60.0000
 31
22.0000
 12
6.0000
 22
60.0000
 32
38.0000
 13
-6.0000
 23
60.0000
 33
38.0000
  0
3DFACE
  5
1127
  8
0
 10
-6.0000
 20
30.0000
 30
22.0000
 11
-6.0000
 21
60.0000
 31
22.0000
 12
-6.0000
 22
60.0000
 32
38.0000
 13
-6.0000
 23
30.0000
 33
38.0000
  0
3DFACE
  5
1128
  8
0
 10
6.0000
 20
30.0000
 30
22.0000
 11
6.0000
 21
60.0000
 31
22.0000
 12
6.0000
 22
60.0000
 32
38.0000
 13
6.0000
 23
30.0000
 33
38.0000
  0
3DFACE
  5
1129
  8
0
 10
-6.0000
 20
-25.0000
 30
22.0000
 11
6.0000
 21
-25.0000
 31
22.0000
 12
6.0000
 22
0.0000
 32
22.0000
 13
-6.0000
 23
0.0000
 33
22.0000
  0
3DFACE
  5
112A
  8
0
 10
-6.0000
 20
-25.0000
 30
38.0000
 11
6.0000
 21
-25.0000
 31
38.0000
 12
6.0000
 22
0.0000
 32
38.0000
 13
-6.0000
 23
0.0000
 33
38.0000
  0
3DFACE
  5
112B
  8
0
 10
-6.0000
 20
-25.0000
 30
22.0000
 11
6.0000
 21
-25.0000
 31
22.0000
 12
6.0000
 22
-25.0000
 32
38.0000
 13
-6.0000
 23
-25.0000
 33
38.0000
  0
3DFACE
  5
112C
  8
0
 10
-6.0000
 20
0.0000
 30
22.0000
 11
6.0000
 21
0.0000
 31
22.0000
 12
6.0000
 22
0.0000
 32
38.0000
 13
-6.0000
 23
0.0000
 33
38.0000
  0
3DFACE
  5
112D
  8
0
 10
-6.0000
 20
-25.0000
 30
22.0000
 11
-6.0000
 21
0.0000
 31
22.0000
 12
-6.0000
 22
0.0000
 32
38.0000
 13
-6.0000
 23
-25.0000
 33
38.0000
  0
3DFACE
  5
112E
  8
0
 10
6.0000
 20
-25.0000
 30
22.0000
 11
6.0000
 21
0.0000
 31
22.0000
 12
6.0000
 22
0.0000
 32
38.0000
 13
6.0000
 23
-25.0000
 33
38.0000
  0
3DFACE
  5
112F
  8
0
 10
-3.0000
 20
55.0000
 30
15.0000
 11
3.0000
 21
55.0000
 31
15.0000
 12
3.0000
 22
65.0000
 32
15.0000
 13
-3.0000
 23
65.0000
 33
15.0000
  0
3DFACE
  5
1130
  8
0
 10
-3.0000
 20
55.0000
 30
45.0000
 11
3.0000
 21
55.0000
 31
45.0000
 12
3.0000
 22
65.0000
 32
45.0000
 13
-3.0000
 23
65.0000
 33
45.0000
  0
3DFACE
  5
1131
  8
0
 10
-3.0000
 20
55.0000
 30
15.0000
 11
3.0000
 21
55.0000
 31
15.0000
 12
3.0000
 22
55.0000
 32
45.0000
 13
-3.0000
 23
55.0000
 33
45.0000
  0
3DFACE
  5
1132
  8
0
 10
-3.0000
 20
65.0000
 30
15.0000
 11
3.0000
 21
65.0000
 31
15.0000
 12
3.0000
 22
65.0000
 32
45.0000
 13
-3.0000
 23
65.0000
 33
45.0000
  0
3DFACE
  5
1133
  8
0
 10
-3.0000
 20
55.0000
 30
15.0000
 11
-3.0000
 21
65.0000
 31
15.0000
 12
-3.0000
 22
65.0000
 32
45.0000
 13
-3.0000
 23
55.0000
 33
45.0000
  0
3DFACE
  5
1134
  8
0
 10
3.0000
 20
55.0000
 30
15.0000
 11
3.0000
 21
65.0000
 31
15.0000
 12
3.0000
 22
65.0000
 32
45.0000
 13
3.0000
 23
55.0000
 33
45.0000
  0
3DFACE
  5
1135
  8
0
 10
-14.0000
 20
60.0000
 30
22.0000
 11
14.0000
 21
60.0000
 31
22.0000
 12
14.0000
 22
72.0000
 32
22.0000
 13
-14.0000
 23
72.0000
 33
22.0000
  0
3DFACE
  5
1136
  8
0
 10
-14.0000
 20
60.0000
 30
38.0000
 11
14.0000
 21
60.0000
 31
38.0000
 12
14.0000
 22
72.0000
 32
38.0000
 13
-14.0000
 23
72.0000
 33
38.0000
  0
3DFACE
  5
1137
  8
0
 10
-14.0000
 20
60.0000
 30
22.0000
 11
14.0000
 21
60.0000
 31
22.0000
 12
14.0000
 22
60.0000
 32
38.0000
 13
-14.0000
 23
60.0000
 33
38.0000
  0
3DFACE
  5
1138
  8
0
 10
-14.0000
 20
72.0000
 30
22.0000
 11
14.0000
 21
72.0000
 31
22.0000
 12
14.0000
 22
72.0000
 32
38.0000
 13
-14.0000
 23
72.0000
 33
38.0000
  0
3DFACE
  5
1139
  8
0
 10
-14.0000
 20
60.0000
 30
22.0000
 11
-14.0000
 21
72.0000
 31
22.0000
 12
-14.0000
 22
72.0000
 32
38.0000
 13
-14.0000
 23
60.0000
 33
38.0000
  0
3DFACE
  5
113A
  8
0
 10
14.0000
 20
60.0000
 30
22.0000
 11
14.0000
 21
72.0000
 31
22.0000
 12
14.0000
 22
72.0000
 32
38.0000
 13
14.0000
 23
60.0000
 33
38.0000
  0
ENDBLK
  8
0
  0
BLOCK
  8
0
  2
SOCKET
 70
0
 10
0.0000
 20
0.0000
 30
0.0000
  3
SOCKET
  1

  0
3DFACE
  5
113B
  8
0
 10
-35.0000
 20
-40.0000
 30
0.0000
 11
35.0000
 21
-40.0000
 31
0.0000
 12
35.0000
 22
0.0000
 32
0.0000
 13
-35.0000
 23
0.0000
 33
0.0000
  0
3DFACE
  5
113C
  8
0
 10
-35.0000
 20
-40.0000
 30
70.0000
 11
35.0000
 21
-40.0000
 31
70.0000
 12
35.0000
 22
0.0000
 32
70.0000
 13
-35.0000
 23
0.0000
 33
70.0000
  0
3DFACE
  5
113D
  8
0
 10
-35.0000
 20
-40.0000
 30
0.0000
 11
35.0000
 21
-40.0000
 31
0.0000
 12
35.0000
 22
-40.0000
 32
70.0000
 13
-35.0000
 23
-40.0000
 33
70.0000
  0
3DFACE
  5
113E
  8
0
 10
-35.0000
 20
0.0000
 30
0.0000
 11
35.0000
 21
0.0000
 31
0.0000
 12
35.0000
 22
0.0000
 32
70.0000
 13
-35.0000
 23
0.0000
 33
70.0000
  0
3DFACE
  5
113F
  8
0
 10
-35.0000
 20
-40.0000
 30
0.0000
 11
-35.0000
 21
0.0000
 31
0.0000
 12
-35.0000
 22
0.0000
 32
70.0000
 13
-35.0000
 23
-40.0000
 33
70.0000
  0
3DFACE
  5
1140
  8
0
 10
35.0000
 20
-40.0000
 30
0.0000
 11
35.0000
 21
0.0000
 31
0.0000
 12
35.0000
 22
0.0000
 32
70.0000
 13
35.0000
 23
-40.0000
 33
70.0000
  0
3DFACE
  5
1141
  8
0
 10
-45.0000
 20
0.0000
 30
-8.0000
 11
45.0000
 21
0.0000
 31
-8.0000
 12
45.0000
 22
8.0000
 32
-8.0000
 13
-45.0000
 23
8.0000
 33
-8.0000
  0
3DFACE
  5
1142
  8
0
 10
-45.0000
 20
0.0000
 30
78.0000
 11
45.0000
 21
0.0000
 31
78.0000
 12
45.0000
 22
8.0000
 32
78.0000
 13
-45.0000
 23
8.0000
 33
78.0000
  0
3DFACE
  5
1143
  8
0
 10
-45.0000
 20
0.0000
 30
-8.0000
 11
45.0000
 21
0.0000
 31
-8.0000
 12
45.0000
 22
0.0000
 32
78.0000
 13
-45.0000
 23
0.0000
 33
78.0000
  0
3DFACE
  5
1144
  8
0
 10
-45.0000
 20
8.0000
 30
-8.0000
 11
45.0000
 21
8.0000
 31
-8.0000
 12
45.0000
 22
8.0000
 32
78.0000
 13
-45.0000
 23
8.0000
 33
78.0000
  0
3DFACE
  5
1145
  8
0
 10
-45.0000
 20
0.0000
 30
-8.0000
 11
-45.0000
 21
8.0000
 31
-8.0000
 12
-45.0000
 22
8.0000
 32
78.0000
 13
-45.0000
 23
0.0000
 33
78.0000
  0
3DFACE
  5
1146
  8
0
 10
45.0000
 20
0.0000
 30
-8.0000
 11
45.0000
 21
8.0000
 31
-8.0000
 12
45.0000
 22
8.0000
 32
78.0000
 13
45.0000
 23
0.0000
 33
78.0000
  0
3DFACE
  5
1147
  8
0
 10
-16.0000
 20
8.0000
 30
20.0000
 11
16.0000
 21
8.0000
 31
20.0000
 12
16.0000
 22
14.0000
 32
20.0000
 13
-16.0000
 23
14.0000
 33
20.0000
  0
3DFACE
  5
1148
  8
0
 10
-16.0000
 20
8.0000
 30
50.0000
 11
16.0000
 21
8.0000
 31
50.0000
 12
16.0000
 22
14.0000
 32
50.0000
 13
-16.0000
 23
14.0000
 33
50.0000
  0
3DFACE
  5
1149
  8
0
 10
-16.0000
 20
8.0000
 30
20.0000
 11
16.0000
 21
8.0000
 31
20.0000
 12
16.0000
 22
8.0000
 32
50.0000
 13
-16.0000
 23
8.0000
 33
50.0000
  0
3DFACE
  5
114A
  8
0
 10
-16.0000
 20
14.0000
 30
20.0000
 11
16.0000
 21
14.0000
 31
20.0000
 12
16.0000
 22
14.0000
 32
50.0000
 13
-16.0000
 23
14.0000
 33
50.0000
  0
3DFACE
  5
114B
  8
0
 10
-16.0000
 20
8.0000
 30
20.0000
 11
-16.0000
 21
14.0000
 31
20.0000
 12
-16.0000
 22
14.0000
 32
50.0000
 13
-16.0000
 23
8.0000
 33
50.0000
  0
3DFACE
  5
114C
  8
0
 10
16.0000
 20
8.0000
 30
20.0000
 11
16.0000
 21
14.0000
 31
20.0000
 12
16.0000
 22
14.0000
 32
50.0000
 13
16.0000
 23
8.0000
 33
50.0000
  0
3DFACE
  5
114D
  8
0
 10
-12.0000
 20
14.0000
 30
30.0000
 11
-4.0000
 21
14.0000
 31
30.0000
 12
-4.0000
 22
18.0000
 32
30.0000
 13
-12.0000
 23
18.0000
 33
30.0000
  0
3DFACE
  5
114E
  8
0
 10
-12.0000
 20
14.0000
 30
44.0000
 11
-4.0000
 21
14.0000
 31
44.0000
 12
-4.0000
 22
18.0000
 32
44.0000
 13
-12.0000
 23
18.0000
 33
44.0000
  0
3DFACE
  5
114F
  8
0
 10
-12.0000
 20
14.0000
 30
30.0000
 11
-4.0000
 21
14.0000
 31
30.0000
 12
-4.0000
 22
14.0000
 32
44.0000
 13
-12.0000
 23
14.0000
 33
44.0000
  0
3DFACE
  5
1150
  8
0
 10
-12.0000
 20
18.0000
 30
30.0000
 11
-4.0000
 21
18.0000
 31
30.0000
 12
-4.0000
 22
18.0000
 32
44.0000
 13
-12.0000
 23
18.0000
 33
44.0000
  0
3DFACE
  5
1151
  8
0
 10
-12.0000
 20
14.0000
 30
30.0000
 11
-12.0000
 21
18.0000
 31
30.0000
 12
-12.0000
 22
18.0000
 32
44.0000
 13
-12.0000
 23
14.0000
 33
44.0000
  0
3DFACE
  5
1152
  8
0
 10
-4.0000
 20
14.0000
 30
30.0000
 11
-4.0000
 21
18.0000
 31
30.0000
 12
-4.0000
 22
18.0000
 32
44.0000
 13
-4.0000
 23
14.0000
 33
44.0000
  0
3DFACE
  5
1153
  8
0
 10
4.0000
 20
14.0000
 30
30.0000
 11
12.0000
 21
14.0000
 31
30.0000
 12
12.0000
 22
18.0000
 32
30.0000
 13
4.0000
 23
18.0000
 33
30.0000
  0
3DFACE
  5
1154
  8
0
 10
4.0000
 20
14.0000
 30
44.0000
 11
12.0000
 21
14.0000
 31
44.0000
 12
12.0000
 22
18.0000
 32
44.0000
 13
4.0000
 23
18.0000
 33
44.0000
  0
3DFACE
  5
1155
  8
0
 10
4.0000
 20
14.0000
 30
30.0000
 11
12.0000
 21
14.0000
 31
30.0000
 12
12.0000
 22
14.0000
 32
44.0000
 13
4.0000
 23
14.0000
 33
44.0000
  0
3DFACE
  5
1156
  8
0
 10
4.0000
 20
18.0000
 30
30.0000
 11
12.0000
 21
18.0000
 31
30.0000
 12
12.0000
 22
18.0000
 32
44.0000
 13
4.0000
 23
18.0000
 33
44.0000
  0
3DFACE
  5
1157
  8
0
 10
4.0000
 20
14.0000
 30
30.0000
 11
4.0000
 21
18.0000
 31
30.0000
 12
4.0000
 22
18.0000
 32
44.0000
 13
4.0000
 23
14.0000
 33
44.0000
  0
3DFACE
  5
1158
  8
0
 10
12.0000
 20
14.0000
 30
30.0000
 11
12.0000
 21
18.0000
 31
30.0000
 12
12.0000
 22
18.0000
 32
44.0000
 13
12.0000
 23
14.0000
 33
44.0000
  0
ENDBLK
  8
0
  0
BLOCK
  8
0
  2
DUPLEXSWITCH
 70
0
 10
0.0000
 20
0.0000
 30
0.0000
  3
DUPLEXSWITCH
  1

  0
3DFACE
  5
1159
  8
0
 10
-72.0000
 20
-40.0000
 30
0.0000
 11
-2.0000
 21
-40.0000
 31
0.0000
 12
-2.0000
 22
0.0000
 32
0.0000
 13
-72.0000
 23
0.0000
 33
0.0000
  0
3DFACE
  5
115A
  8
0
 10
-72.0000
 20
-40.0000
 30
70.0000
 11
-2.0000
 21
-40.0000
 31
70.0000
 12
-2.0000
 22
0.0000
 32
70.0000
 13
-72.0000
 23
0.0000
 33
70.0000
  0
3DFACE
  5
115B
  8
0
 10
-72.0000
 20
-40.0000
 30
0.0000
 11
-2.0000
 21
-40.0000
 31
0.0000
 12
-2.0000
 22
-40.0000
 32
70.0000
 13
-72.0000
 23
-40.0000
 33
70.0000
  0
3DFACE
  5
115C
  8
0
 10
-72.0000
 20
0.0000
 30
0.0000
 11
-2.0000
 21
0.0000
 31
0.0000
 12
-2.0000
 22
0.0000
 32
70.0000
 13
-72.0000
 23
0.0000
 33
70.0000
  0
3DFACE
  5
115D
  8
0
 10
-72.0000
 20
-40.0000
 30
0.0000
 11
-72.0000
 21
0.0000
 31
0.0000
 12
-72.0000
 22
0.0000
 32
70.0000
 13
-72.0000
 23
-40.0000
 33
70.0000
  0
3DFACE
  5
115E
  8
0
 10
-2.0000
 20
-40.0000
 30
0.0000
 11
-2.0000
 21
0.0000
 31
0.0000
 12
-2.0000
 22
0.0000
 32
70.0000
 13
-2.0000
 23
-40.0000
 33
70.0000
  0
3DFACE
  5
115F
  8
0
 10
-82.0000
 20
0.0000
 30
-8.0000
 11
8.0000
 21
0.0000
 31
-8.0000
 12
8.0000
 22
8.0000
 32
-8.0000
 13
-82.0000
 23
8.0000
 33
-8.0000
  0
3DFACE
  5
1160
  8
0
 10
-82.0000
 20
0.0000
 30
78.0000
 11
8.0000
 21
0.0000
 31
78.0000
 12
8.0000
 22
8.0000
 32
78.0000
 13
-82.0000
 23
8.0000
 33
78.0000
  0
3DFACE
  5
1161
  8
0
 10
-82.0000
 20
0.0000
 30
-8.0000
 11
8.0000
 21
0.0000
 31
-8.0000
 12
8.0000
 22
0.0000
 32
78.0000
 13
-82.0000
 23
0.0000
 33
78.0000
  0
3DFACE
  5
1162
  8
0
 10
-82.0000
 20
8.0000
 30
-8.0000
 11
8.0000
 21
8.0000
 31
-8.0000
 12
8.0000
 22
8.0000
 32
78.0000
 13
-82.0000
 23
8.0000
 33
78.0000
  0
3DFACE
  5
1163
  8
0
 10
-82.0000
 20
0.0000
 30
-8.0000
 11
-82.0000
 21
8.0000
 31
-8.0000
 12
-82.0000
 22
8.0000
 32
78.0000
 13
-82.0000
 23
0.0000
 33
78.0000
  0
3DFACE
  5
1164
  8
0
 10
8.0000
 20
0.0000
 30
-8.0000
 11
8.0000
 21
8.0000
 31
-8.0000
 12
8.0000
 22
8.0000
 32
78.0000
 13
8.0000
 23
0.0000
 33
78.0000
  0
3DFACE
  5
1165
  8
0
 10
-53.0000
 20
8.0000
 30
20.0000
 11
-21.0000
 21
8.0000
 31
20.0000
 12
-21.0000
 22
14.0000
 32
20.0000
 13
-53.0000
 23
14.0000
 33
20.0000
  0
3DFACE
  5
1166
  8
0
 10
-53.0000
 20
8.0000
 30
50.0000
 11
-21.0000
 21
8.0000
 31
50.0000
 12
-21.0000
 22
14.0000
 32
50.0000
 13
-53.0000
 23
14.0000
 33
50.0000
  0
3DFACE
  5
1167
  8
0
 10
-53.0000
 20
8.0000
 30
20.0000
 11
-21.0000
 21
8.0000
 31
20.0000
 12
-21.0000
 22
8.0000
 32
50.0000
 13
-53.0000
 23
8.0000
 33
50.0000
  0
3DFACE
  5
1168
  8
0
 10
-53.0000
 20
14.0000
 30
20.0000
 11
-21.0000
 21
14.0000
 31
20.0000
 12
-21.0000
 22
14.0000
 32
50.0000
 13
-53.0000
 23
14.0000
 33
50.0000
  0
3DFACE
  5
1169
  8
0
 10
-53.0000
 20
8.0000
 30
20.0000
 11
-53.0000
 21
14.0000
 31
20.0000
 12
-53.0000
 22
14.0000
 32
50.0000
 13
-53.0000
 23
8.0000
 33
50.0000
  0
3DFACE
  5
116A
  8
0
 10
-21.0000
 20
8.0000
 30
20.0000
 11
-21.0000
 21
14.0000
 31
20.0000
 12
-21.0000
 22
14.0000
 32
50.0000
 13
-21.0000
 23
8.0000
 33
50.0000
  0
3DFACE
  5
116B
  8
0
 10
-49.0000
 20
14.0000
 30
30.0000
 11
-41.0000
 21
14.0000
 31
30.0000
 12
-41.0000
 22
18.0000
 32
30.0000
 13
-49.0000
 23
18.0000
 33
30.0000
  0
3DFACE
  5
116C
  8
0
 10
-49.0000
 20
14.0000
 30
44.0000
 11
-41.0000
 21
14.0000
 31
44.0000
 12
-41.0000
 22
18.0000
 32
44.0000
 13
-49.0000
 23
18.0000
 33
44.0000
  0
3DFACE
  5
116D
  8
0
 10
-49.0000
 20
14.0000
 30
30.0000
 11
-41.0000
 21
14.0000
 31
30.0000
 12
-41.0000
 22
14.0000
 32
44.0000
 13
-49.0000
 23
14.0000
 33
44.0000
  0
3DFACE
  5
116E
  8
0
 10
-49.0000
 20
18.0000
 30
30.0000
 11
-41.0000
 21
18.0000
 31
30.0000
 12
-41.0000
 22
18.0000
 32
44.0000
 13
-49.0000
 23
18.0000
 33
44.0000
  0
3DFACE
  5
116F
  8
0
 10
-49.0000
 20
14.0000
 30
30.0000
 11
-49.0000
 21
18.0000
 31
30.0000
 12
-49.0000
 22
18.0000
 32
44.0000
 13
-49.0000
 23
14.0000
 33
44.0000
  0
3DFACE
  5
1170
  8
0
 10
-41.0000
 20
14.0000
 30
30.0000
 11
-41.0000
 21
18.0000
 31
30.0000
 12
-41.0000
 22
18.0000
 32
44.0000
 13
-41.0000
 23
14.0000
 33
44.0000
  0
3DFACE
  5
1171
  8
0
 10
-33.0000
 20
14.0000
 30
30.0000
 11
-25.0000
 21
14.0000
 31
30.0000
 12
-25.0000
 22
18.0000
 32
30.0000
 13
-33.0000
 23
18.0000
 33
30.0000
  0
3DFACE
  5
1172
  8
0
 10
-33.0000
 20
14.0000
 30
44.0000
 11
-25.0000
 21
14.0000
 31
44.0000
 12
-25.0000
 22
18.0000
 32
44.0000
 13
-33.0000
 23
18.0000
 33
44.0000
  0
3DFACE
  5
1173
  8
0
 10
-33.0000
 20
14.0000
 30
30.0000
 11
-25.0000
 21
14.0000
 31
30.0000
 12
-25.0000
 22
14.0000
 32
44.0000
 13
-33.0000
 23
14.0000
 33
44.0000
  0
3DFACE
  5
1174
  8
0
 10
-33.0000
 20
18.0000
 30
30.0000
 11
-25.0000
 21
18.0000
 31
30.0000
 12
-25.0000
 22
18.0000
 32
44.0000
 13
-33.0000
 23
18.0000
 33
44.0000
  0
3DFACE
  5
1175
  8
0
 10
-33.0000
 20
14.0000
 30
30.0000
 11
-33.0000
 21
18.0000
 31
30.0000
 12
-33.0000
 22
18.0000
 32
44.0000
 13
-33.0000
 23
14.0000
 33
44.0000
  0
3DFACE
  5
1176
  8
0
 10
-25.0000
 20
14.0000
 30
30.0000
 11
-25.0000
 21
18.0000
 31
30.0000
 12
-25.0000
 22
18.0000
 32
44.0000
 13
-25.0000
 23
14.0000
 33
44.0000
  0
3DFACE
  5
1177
  8
0
 10
2.0000
 20
-40.0000
 30
0.0000
 11
72.0000
 21
-40.0000
 31
0.0000
 12
72.0000
 22
0.0000
 32
0.0000
 13
2.0000
 23
0.0000
 33
0.0000
  0
3DFACE
  5
1178
  8
0
 10
2.0000
 20
-40.0000
 30
70.0000
 11
72.0000
 21
-40.0000
 31
70.0000
 12
72.0000
 22
0.0000
 32
70.0000
 13
2.0000
 23
0.0000
 33
70.0000
  0
3DFACE
  5
1179
  8
0
 10
2.0000
 20
-40.0000
 30
0.0000
 11
72.0000
 21
-40.0000
 31
0.0000
 12
72.0000
 22
-40.0000
 32
70.0000
 13
2.0000
 23
-40.0000
 33
70.0000
  0
3DFACE
  5
117A
  8
0
 10
2.0000
 20
0.0000
 30
0.0000
 11
72.0000
 21
0.0000
 31
0.0000
 12
72.0000
 22
0.0000
 32
70.0000
 13
2.0000
 23
0.0000
 33
70.0000
  0
3DFACE
  5
117B
  8
0
 10
2.0000
 20
-40.0000
 30
0.0000
 11
2.0000
 21
0.0000
 31
0.0000
 12
2.0000
 22
0.0000
 32
70.0000
 13
2.0000
 23
-40.0000
 33
70.0000
  0
3DFACE
  5
117C
  8
0
 10
72.0000
 20
-40.0000
 30
0.0000
 11
72.0000
 21
0.0000
 31
0.0000
 12
72.0000
 22
0.0000
 32
70.0000
 13
72.0000
 23
-40.0000
 33
70.0000
  0
3DFACE
  5
117D
  8
0
 10
-8.0000
 20
0.0000
 30
-8.0000
 11
82.0000
 21
0.0000
 31
-8.0000
 12
82.0000
 22
8.0000
 32
-8.0000
 13
-8.0000
 23
8.0000
 33
-8.0000
  0
3DFACE
  5
117E
  8
0
 10
-8.0000
 20
0.0000
 30
78.0000
 11
82.0000
 21
0.0000
 31
78.0000
 12
82.0000
 22
8.0000
 32
78.0000
 13
-8.0000
 23
8.0000
 33
78.0000
  0
3DFACE
  5
117F
  8
0
 10
-8.0000
 20
0.0000
 30
-8.0000
 11
82.0000
 21
0.0000
 31
-8.0000
 12
82.0000
 22
0.0000
 32
78.0000
 13
-8.0000
 23
0.0000
 33
78.0000
  0
3DFACE
  5
1180
  8
0
 10
-8.0000
 20
8.0000
 30
-8.0000
 11
82.0000
 21
8.0000
 31
-8.0000
 12
82.0000
 22
8.0000
 32
78.0000
 13
-8.0000
 23
8.0000
 33
78.0000
  0
3DFACE
  5
1181
  8
0
 10
-8.0000
 20
0.0000
 30
-8.0000
 11
-8.0000
 21
8.0000
 31
-8.0000
 12
-8.0000
 22
8.0000
 32
78.0000
 13
-8.0000
 23
0.0000
 33
78.0000
  0
3DFACE
  5
1182
  8
0
 10
82.0000
 20
0.0000
 30
-8.0000
 11
82.0000
 21
8.0000
 31
-8.0000
 12
82.0000
 22
8.0000
 32
78.0000
 13
82.0000
 23
0.0000
 33
78.0000
  0
3DFACE
  5
1183
  8
0
 10
21.0000
 20
8.0000
 30
20.0000
 11
53.0000
 21
8.0000
 31
20.0000
 12
53.0000
 22
14.0000
 32
20.0000
 13
21.0000
 23
14.0000
 33
20.0000
  0
3DFACE
  5
1184
  8
0
 10
21.0000
 20
8.0000
 30
50.0000
 11
53.0000
 21
8.0000
 31
50.0000
 12
53.0000
 22
14.0000
 32
50.0000
 13
21.0000
 23
14.0000
 33
50.0000
  0
3DFACE
  5
1185
  8
0
 10
21.0000
 20
8.0000
 30
20.0000
 11
53.0000
 21
8.0000
 31
20.0000
 12
53.0000
 22
8.0000
 32
50.0000
 13
21.0000
 23
8.0000
 33
50.0000
  0
3DFACE
  5
1186
  8
0
 10
21.0000
 20
14.0000
 30
20.0000
 11
53.0000
 21
14.0000
 31
20.0000
 12
53.0000
 22
14.0000
 32
50.0000
 13
21.0000
 23
14.0000
 33
50.0000
  0
3DFACE
  5
1187
  8
0
 10
21.0000
 20
8.0000
 30
20.0000
 11
21.0000
 21
14.0000
 31
20.0000
 12
21.0000
 22
14.0000
 32
50.0000
 13
21.0000
 23
8.0000
 33
50.0000
  0
3DFACE
  5
1188
  8
0
 10
53.0000
 20
8.0000
 30
20.0000
 11
53.0000
 21
14.0000
 31
20.0000
 12
53.0000
 22
14.0000
 32
50.0000
 13
53.0000
 23
8.0000
 33
50.0000
  0
3DFACE
  5
1189
  8
0
 10
25.0000
 20
14.0000
 30
30.0000
 11
33.0000
 21
14.0000
 31
30.0000
 12
33.0000
 22
18.0000
 32
30.0000
 13
25.0000
 23
18.0000
 33
30.0000
  0
3DFACE
  5
118A
  8
0
 10
25.0000
 20
14.0000
 30
44.0000
 11
33.0000
 21
14.0000
 31
44.0000
 12
33.0000
 22
18.0000
 32
44.0000
 13
25.0000
 23
18.0000
 33
44.0000
  0
3DFACE
  5
118B
  8
0
 10
25.0000
 20
14.0000
 30
30.0000
 11
33.0000
 21
14.0000
 31
30.0000
 12
33.0000
 22
14.0000
 32
44.0000
 13
25.0000
 23
14.0000
 33
44.0000
  0
3DFACE
  5
118C
  8
0
 10
25.0000
 20
18.0000
 30
30.0000
 11
33.0000
 21
18.0000
 31
30.0000
 12
33.0000
 22
18.0000
 32
44.0000
 13
25.0000
 23
18.0000
 33
44.0000
  0
3DFACE
  5
118D
  8
0
 10
25.0000
 20
14.0000
 30
30.0000
 11
25.0000
 21
18.0000
 31
30.0000
 12
25.0000
 22
18.0000
 32
44.0000
 13
25.0000
 23
14.0000
 33
44.0000
  0
3DFACE
  5
118E
  8
0
 10
33.0000
 20
14.0000
 30
30.0000
 11
33.0000
 21
18.0000
 31
30.0000
 12
33.0000
 22
18.0000
 32
44.0000
 13
33.0000
 23
14.0000
 33
44.0000
  0
3DFACE
  5
118F
  8
0
 10
41.0000
 20
14.0000
 30
30.0000
 11
49.0000
 21
14.0000
 31
30.0000
 12
49.0000
 22
18.0000
 32
30.0000
 13
41.0000
 23
18.0000
 33
30.0000
  0
3DFACE
  5
1190
  8
0
 10
41.0000
 20
14.0000
 30
44.0000
 11
49.0000
 21
14.0000
 31
44.0000
 12
49.0000
 22
18.0000
 32
44.0000
 13
41.0000
 23
18.0000
 33
44.0000
  0
3DFACE
  5
1191
  8
0
 10
41.0000
 20
14.0000
 30
30.0000
 11
49.0000
 21
14.0000
 31
30.0000
 12
49.0000
 22
14.0000
 32
44.0000
 13
41.0000
 23
14.0000
 33
44.0000
  0
3DFACE
  5
1192
  8
0
 10
41.0000
 20
18.0000
 30
30.0000
 11
49.0000
 21
18.0000
 31
30.0000
 12
49.0000
 22
18.0000
 32
44.0000
 13
41.0000
 23
18.0000
 33
44.0000
  0
3DFACE
  5
1193
  8
0
 10
41.0000
 20
14.0000
 30
30.0000
 11
41.0000
 21
18.0000
 31
30.0000
 12
41.0000
 22
18.0000
 32
44.0000
 13
41.0000
 23
14.0000
 33
44.0000
  0
3DFACE
  5
1194
  8
0
 10
49.0000
 20
14.0000
 30
30.0000
 11
49.0000
 21
18.0000
 31
30.0000
 12
49.0000
 22
18.0000
 32
44.0000
 13
49.0000
 23
14.0000
 33
44.0000
  0
ENDBLK
  8
0
  0
BLOCK
  8
0
  2
CONTROLBOX
 70
0
 10
0.0000
 20
0.0000
 30
0.0000
  3
CONTROLBOX
  1

  0
3DFACE
  5
1195
  8
0
 10
-100.0000
 20
-40.0000
 30
-150.0000
 11
100.0000
 21
-40.0000
 31
-150.0000
 12
100.0000
 22
0.0000
 32
-150.0000
 13
-100.0000
 23
0.0000
 33
-150.0000
  0
3DFACE
  5
1196
  8
0
 10
-100.0000
 20
-40.0000
 30
150.0000
 11
100.0000
 21
-40.0000
 31
150.0000
 12
100.0000
 22
0.0000
 32
150.0000
 13
-100.0000
 23
0.0000
 33
150.0000
  0
3DFACE
  5
1197
  8
0
 10
-100.0000
 20
-40.0000
 30
-150.0000
 11
100.0000
 21
-40.0000
 31
-150.0000
 12
100.0000
 22
-40.0000
 32
150.0000
 13
-100.0000
 23
-40.0000
 33
150.0000
  0
3DFACE
  5
1198
  8
0
 10
-100.0000
 20
0.0000
 30
-150.0000
 11
100.0000
 21
0.0000
 31
-150.0000
 12
100.0000
 22
0.0000
 32
150.0000
 13
-100.0000
 23
0.0000
 33
150.0000
  0
3DFACE
  5
1199
  8
0
 10
-100.0000
 20
-40.0000
 30
-150.0000
 11
-100.0000
 21
0.0000
 31
-150.0000
 12
-100.0000
 22
0.0000
 32
150.0000
 13
-100.0000
 23
-40.0000
 33
150.0000
  0
3DFACE
  5
119A
  8
0
 10
100.0000
 20
-40.0000
 30
-150.0000
 11
100.0000
 21
0.0000
 31
-150.0000
 12
100.0000
 22
0.0000
 32
150.0000
 13
100.0000
 23
-40.0000
 33
150.0000
  0
3DFACE
  5
119B
  8
0
 10
-96.0000
 20
0.0000
 30
-146.0000
 11
96.0000
 21
0.0000
 31
-146.0000
 12
96.0000
 22
10.0000
 32
-146.0000
 13
-96.0000
 23
10.0000
 33
-146.0000
  0
3DFACE
  5
119C
  8
0
 10
-96.0000
 20
0.0000
 30
146.0000
 11
96.0000
 21
0.0000
 31
146.0000
 12
96.0000
 22
10.0000
 32
146.0000
 13
-96.0000
 23
10.0000
 33
146.0000
  0
3DFACE
  5
119D
  8
0
 10
-96.0000
 20
0.0000
 30
-146.0000
 11
96.0000
 21
0.0000
 31
-146.0000
 12
96.0000
 22
0.0000
 32
146.0000
 13
-96.0000
 23
0.0000
 33
146.0000
  0
3DFACE
  5
119E
  8
0
 10
-96.0000
 20
10.0000
 30
-146.0000
 11
96.0000
 21
10.0000
 31
-146.0000
 12
96.0000
 22
10.0000
 32
146.0000
 13
-96.0000
 23
10.0000
 33
146.0000
  0
3DFACE
  5
119F
  8
0
 10
-96.0000
 20
0.0000
 30
-146.0000
 11
-96.0000
 21
10.0000
 31
-146.0000
 12
-96.0000
 22
10.0000
 32
146.0000
 13
-96.0000
 23
0.0000
 33
146.0000
  0
3DFACE
  5
11A0
  8
0
 10
96.0000
 20
0.0000
 30
-146.0000
 11
96.0000
 21
10.0000
 31
-146.0000
 12
96.0000
 22
10.0000
 32
146.0000
 13
96.0000
 23
0.0000
 33
146.0000
  0
ENDBLK
  8
0
  0
BLOCK
  8
0
  2
LIGHTING
 70
0
 10
0.0000
 20
0.0000
 30
0.0000
  3
LIGHTING
  1

  0
3DFACE
  5
11A1
  8
0
 10
-60.0000
 20
-30.0000
 30
-60.0000
 11
60.0000
 21
-30.0000
 31
-60.0000
 12
60.0000
 22
0.0000
 32
-60.0000
 13
-60.0000
 23
0.0000
 33
-60.0000
  0
3DFACE
  5
11A2
  8
0
 10
-60.0000
 20
-30.0000
 30
60.0000
 11
60.0000
 21
-30.0000
 31
60.0000
 12
60.0000
 22
0.0000
 32
60.0000
 13
-60.0000
 23
0.0000
 33
60.0000
  0
3DFACE
  5
11A3
  8
0
 10
-60.0000
 20
-30.0000
 30
-60.0000
 11
60.0000
 21
-30.0000
 31
-60.0000
 12
60.0000
 22
-30.0000
 32
60.0000
 13
-60.0000
 23
-30.0000
 33
60.0000
  0
3DFACE
  5
11A4
  8
0
 10
-60.0000
 20
0.0000
 30
-60.0000
 11
60.0000
 21
0.0000
 31
-60.0000
 12
60.0000
 22
0.0000
 32
60.0000
 13
-60.0000
 23
0.0000
 33
60.0000
  0
3DFACE
  5
11A5
  8
0
 10
-60.0000
 20
-30.0000
 30
-60.0000
 11
-60.0000
 21
0.0000
 31
-60.0000
 12
-60.0000
 22
0.0000
 32
60.0000
 13
-60.0000
 23
-30.0000
 33
60.0000
  0
3DFACE
  5
11A6
  8
0
 10
60.0000
 20
-30.0000
 30
-60.0000
 11
60.0000
 21
0.0000
 31
-60.0000
 12
60.0000
 22
0.0000
 32
60.0000
 13
60.0000
 23
-30.0000
 33
60.0000
  0
3DFACE
  5
11A7
  8
0
 10
-50.0000
 20
0.0000
 30
-50.0000
 11
50.0000
 21
0.0000
 31
-50.0000
 12
50.0000
 22
6.0000
 32
-50.0000
 13
-50.0000
 23
6.0000
 33
-50.0000
  0
3DFACE
  5
11A8
  8
0
 10
-50.0000
 20
0.0000
 30
50.0000
 11
50.0000
 21
0.0000
 31
50.0000
 12
50.0000
 22
6.0000
 32
50.0000
 13
-50.0000
 23
6.0000
 33
50.0000
  0
3DFACE
  5
11A9
  8
0
 10
-50.0000
 20
0.0000
 30
-50.0000
 11
50.0000
 21
0.0000
 31
-50.0000
 12
50.0000
 22
0.0000
 32
50.0000
 13
-50.0000
 23
0.0000
 33
50.0000
  0
3DFACE
  5
11AA
  8
0
 10
-50.0000
 20
6.0000
 30
-50.0000
 11
50.0000
 21
6.0000
 31
-50.0000
 12
50.0000
 22
6.0000
 32
50.0000
 13
-50.0000
 23
6.0000
 33
50.0000
  0
3DFACE
  5
11AB
  8
0
 10
-50.0000
 20
0.0000
 30
-50.0000
 11
-50.0000
 21
6.0000
 31
-50.0000
 12
-50.0000
 22
6.0000
 32
50.0000
 13
-50.0000
 23
0.0000
 33
50.0000
  0
3DFACE
  5
11AC
  8
0
 10
50.0000
 20
0.0000
 30
-50.0000
 11
50.0000
 21
6.0000
 31
-50.0000
 12
50.0000
 22
6.0000
 32
50.0000
 13
50.0000
 23
0.0000
 33
50.0000
  0
3DFACE
  5
11AD
  8
0
 10
-64.0000
 20
-6.0000
 30
-64.0000
 11
64.0000
 21
-6.0000
 31
-64.0000
 12
64.0000
 22
0.0000
 32
-64.0000
 13
-64.0000
 23
0.0000
 33
-64.0000
  0
3DFACE
  5
11AE
  8
0
 10
-64.0000
 20
-6.0000
 30
64.0000
 11
64.0000
 21
-6.0000
 31
64.0000
 12
64.0000
 22
0.0000
 32
64.0000
 13
-64.0000
 23
0.0000
 33
64.0000
  0
3DFACE
  5
11AF
  8
0
 10
-64.0000
 20
-6.0000
 30
-64.0000
 11
64.0000
 21
-6.0000
 31
-64.0000
 12
64.0000
 22
-6.0000
 32
64.0000
 13
-64.0000
 23
-6.0000
 33
64.0000
  0
3DFACE
  5
11B0
  8
0
 10
-64.0000
 20
0.0000
 30
-64.0000
 11
64.0000
 21
0.0000
 31
-64.0000
 12
64.0000
 22
0.0000
 32
64.0000
 13
-64.0000
 23
0.0000
 33
64.0000
  0
3DFACE
  5
11B1
  8
0
 10
-64.0000
 20
-6.0000
 30
-64.0000
 11
-64.0000
 21
0.0000
 31
-64.0000
 12
-64.0000
 22
0.0000
 32
64.0000
 13
-64.0000
 23
-6.0000
 33
64.0000
  0
3DFACE
  5
11B2
  8
0
 10
64.0000
 20
-6.0000
 30
-64.0000
 11
64.0000
 21
0.0000
 31
-64.0000
 12
64.0000
 22
0.0000
 32
64.0000
 13
64.0000
 23
-6.0000
 33
64.0000
  0
3DFACE
  5
11B3
  8
0
 10
-30.0000
 20
2.0000
 30
-30.0000
 11
30.0000
 21
2.0000
 31
-30.0000
 12
30.0000
 22
8.0000
 32
-30.0000
 13
-30.0000
 23
8.0000
 33
-30.0000
  0
3DFACE
  5
11B4
  8
0
 10
-30.0000
 20
2.0000
 30
30.0000
 11
30.0000
 21
2.0000
 31
30.0000
 12
30.0000
 22
8.0000
 32
30.0000
 13
-30.0000
 23
8.0000
 33
30.0000
  0
3DFACE
  5
11B5
  8
0
 10
-30.0000
 20
2.0000
 30
-30.0000
 11
30.0000
 21
2.0000
 31
-30.0000
 12
30.0000
 22
2.0000
 32
30.0000
 13
-30.0000
 23
2.0000
 33
30.0000
  0
3DFACE
  5
11B6
  8
0
 10
-30.0000
 20
8.0000
 30
-30.0000
 11
30.0000
 21
8.0000
 31
-30.0000
 12
30.0000
 22
8.0000
 32
30.0000
 13
-30.0000
 23
8.0000
 33
30.0000
  0
3DFACE
  5
11B7
  8
0
 10
-30.0000
 20
2.0000
 30
-30.0000
 11
-30.0000
 21
8.0000
 31
-30.0000
 12
-30.0000
 22
8.0000
 32
30.0000
 13
-30.0000
 23
2.0000
 33
30.0000
  0
3DFACE
  5
11B8
  8
0
 10
30.0000
 20
2.0000
 30
-30.0000
 11
30.0000
 21
8.0000
 31
-30.0000
 12
30.0000
 22
8.0000
 32
30.0000
 13
30.0000
 23
2.0000
 33
30.0000
  0
ENDBLK
  8
0
  0
BLOCK
  8
0
  2
FAUCET
 70
0
 10
0.0000
 20
0.0000
 30
0.0000
  3
FAUCET
  1

  0
3DFACE
  5
11B9
  8
0
 10
-25.0000
 20
0.0000
 30
0.0000
 11
25.0000
 21
0.0000
 31
0.0000
 12
25.0000
 22
25.0000
 32
0.0000
 13
-25.0000
 23
25.0000
 33
0.0000
  0
3DFACE
  5
11BA
  8
0
 10
-25.0000
 20
0.0000
 30
30.0000
 11
25.0000
 21
0.0000
 31
30.0000
 12
25.0000
 22
25.0000
 32
30.0000
 13
-25.0000
 23
25.0000
 33
30.0000
  0
3DFACE
  5
11BB
  8
0
 10
-25.0000
 20
0.0000
 30
0.0000
 11
25.0000
 21
0.0000
 31
0.0000
 12
25.0000
 22
0.0000
 32
30.0000
 13
-25.0000
 23
0.0000
 33
30.0000
  0
3DFACE
  5
11BC
  8
0
 10
-25.0000
 20
25.0000
 30
0.0000
 11
25.0000
 21
25.0000
 31
0.0000
 12
25.0000
 22
25.0000
 32
30.0000
 13
-25.0000
 23
25.0000
 33
30.0000
  0
3DFACE
  5
11BD
  8
0
 10
-25.0000
 20
0.0000
 30
0.0000
 11
-25.0000
 21
25.0000
 31
0.0000
 12
-25.0000
 22
25.0000
 32
30.0000
 13
-25.0000
 23
0.0000
 33
30.0000
  0
3DFACE
  5
11BE
  8
0
 10
25.0000
 20
0.0000
 30
0.0000
 11
25.0000
 21
25.0000
 31
0.0000
 12
25.0000
 22
25.0000
 32
30.0000
 13
25.0000
 23
0.0000
 33
30.0000
  0
3DFACE
  5
11BF
  8
0
 10
-9.0000
 20
0.0000
 30
30.0000
 11
9.0000
 21
0.0000
 31
30.0000
 12
9.0000
 22
18.0000
 32
30.0000
 13
-9.0000
 23
18.0000
 33
30.0000
  0
3DFACE
  5
11C0
  8
0
 10
-9.0000
 20
0.0000
 30
150.0000
 11
9.0000
 21
0.0000
 31
150.0000
 12
9.0000
 22
18.0000
 32
150.0000
 13
-9.0000
 23
18.0000
 33
150.0000
  0
3DFACE
  5
11C1
  8
0
 10
-9.0000
 20
0.0000
 30
30.0000
 11
9.0000
 21
0.0000
 31
30.0000
 12
9.0000
 22
0.0000
 32
150.0000
 13
-9.0000
 23
0.0000
 33
150.0000
  0
3DFACE
  5
11C2
  8
0
 10
-9.0000
 20
18.0000
 30
30.0000
 11
9.0000
 21
18.0000
 31
30.0000
 12
9.0000
 22
18.0000
 32
150.0000
 13
-9.0000
 23
18.0000
 33
150.0000
  0
3DFACE
  5
11C3
  8
0
 10
-9.0000
 20
0.0000
 30
30.0000
 11
-9.0000
 21
18.0000
 31
30.0000
 12
-9.0000
 22
18.0000
 32
150.0000
 13
-9.0000
 23
0.0000
 33
150.0000
  0
3DFACE
  5
11C4
  8
0
 10
9.0000
 20
0.0000
 30
30.0000
 11
9.0000
 21
18.0000
 31
30.0000
 12
9.0000
 22
18.0000
 32
150.0000
 13
9.0000
 23
0.0000
 33
150.0000
  0
3DFACE
  5
11C5
  8
0
 10
-9.0000
 20
0.0000
 30
132.0000
 11
60.0000
 21
0.0000
 31
132.0000
 12
60.0000
 22
18.0000
 32
132.0000
 13
-9.0000
 23
18.0000
 33
132.0000
  0
3DFACE
  5
11C6
  8
0
 10
-9.0000
 20
0.0000
 30
150.0000
 11
60.0000
 21
0.0000
 31
150.0000
 12
60.0000
 22
18.0000
 32
150.0000
 13
-9.0000
 23
18.0000
 33
150.0000
  0
3DFACE
  5
11C7
  8
0
 10
-9.0000
 20
0.0000
 30
132.0000
 11
60.0000
 21
0.0000
 31
132.0000
 12
60.0000
 22
0.0000
 32
150.0000
 13
-9.0000
 23
0.0000
 33
150.0000
  0
3DFACE
  5
11C8
  8
0
 10
-9.0000
 20
18.0000
 30
132.0000
 11
60.0000
 21
18.0000
 31
132.0000
 12
60.0000
 22
18.0000
 32
150.0000
 13
-9.0000
 23
18.0000
 33
150.0000
  0
3DFACE
  5
11C9
  8
0
 10
-9.0000
 20
0.0000
 30
132.0000
 11
-9.0000
 21
18.0000
 31
132.0000
 12
-9.0000
 22
18.0000
 32
150.0000
 13
-9.0000
 23
0.0000
 33
150.0000
  0
3DFACE
  5
11CA
  8
0
 10
60.0000
 20
0.0000
 30
132.0000
 11
60.0000
 21
18.0000
 31
132.0000
 12
60.0000
 22
18.0000
 32
150.0000
 13
60.0000
 23
0.0000
 33
150.0000
  0
3DFACE
  5
11CB
  8
0
 10
52.0000
 20
0.0000
 30
120.0000
 11
68.0000
 21
0.0000
 31
120.0000
 12
68.0000
 22
18.0000
 32
120.0000
 13
52.0000
 23
18.0000
 33
120.0000
  0
3DFACE
  5
11CC
  8
0
 10
52.0000
 20
0.0000
 30
150.0000
 11
68.0000
 21
0.0000
 31
150.0000
 12
68.0000
 22
18.0000
 32
150.0000
 13
52.0000
 23
18.0000
 33
150.0000
  0
3DFACE
  5
11CD
  8
0
 10
52.0000
 20
0.0000
 30
120.0000
 11
68.0000
 21
0.0000
 31
120.0000
 12
68.0000
 22
0.0000
 32
150.0000
 13
52.0000
 23
0.0000
 33
150.0000
  0
3DFACE
  5
11CE
  8
0
 10
52.0000
 20
18.0000
 30
120.0000
 11
68.0000
 21
18.0000
 31
120.0000
 12
68.0000
 22
18.0000
 32
150.0000
 13
52.0000
 23
18.0000
 33
150.0000
  0
3DFACE
  5
11CF
  8
0
 10
52.0000
 20
0.0000
 30
120.0000
 11
52.0000
 21
18.0000
 31
120.0000
 12
52.0000
 22
18.0000
 32
150.0000
 13
52.0000
 23
0.0000
 33
150.0000
  0
3DFACE
  5
11D0
  8
0
 10
68.0000
 20
0.0000
 30
120.0000
 11
68.0000
 21
18.0000
 31
120.0000
 12
68.0000
 22
18.0000
 32
150.0000
 13
68.0000
 23
0.0000
 33
150.0000
  0
3DFACE
  5
11D1
  8
0
 10
52.0000
 20
0.0000
 30
110.0000
 11
68.0000
 21
0.0000
 31
110.0000
 12
68.0000
 22
18.0000
 32
110.0000
 13
52.0000
 23
18.0000
 33
110.0000
  0
3DFACE
  5
11D2
  8
0
 10
52.0000
 20
0.0000
 30
122.0000
 11
68.0000
 21
0.0000
 31
122.0000
 12
68.0000
 22
18.0000
 32
122.0000
 13
52.0000
 23
18.0000
 33
122.0000
  0
3DFACE
  5
11D3
  8
0
 10
52.0000
 20
0.0000
 30
110.0000
 11
68.0000
 21
0.0000
 31
110.0000
 12
68.0000
 22
0.0000
 32
122.0000
 13
52.0000
 23
0.0000
 33
122.0000
  0
3DFACE
  5
11D4
  8
0
 10
52.0000
 20
18.0000
 30
110.0000
 11
68.0000
 21
18.0000
 31
110.0000
 12
68.0000
 22
18.0000
 32
122.0000
 13
52.0000
 23
18.0000
 33
122.0000
  0
3DFACE
  5
11D5
  8
0
 10
52.0000
 20
0.0000
 30
110.0000
 11
52.0000
 21
18.0000
 31
110.0000
 12
52.0000
 22
18.0000
 32
122.0000
 13
52.0000
 23
0.0000
 33
122.0000
  0
3DFACE
  5
11D6
  8
0
 10
68.0000
 20
0.0000
 30
110.0000
 11
68.0000
 21
18.0000
 31
110.0000
 12
68.0000
 22
18.0000
 32
122.0000
 13
68.0000
 23
0.0000
 33
122.0000
  0
3DFACE
  5
11D7
  8
0
 10
-22.0000
 20
0.0000
 30
90.0000
 11
-14.0000
 21
0.0000
 31
90.0000
 12
-14.0000
 22
18.0000
 32
90.0000
 13
-22.0000
 23
18.0000
 33
90.0000
  0
3DFACE
  5
11D8
  8
0
 10
-22.0000
 20
0.0000
 30
120.0000
 11
-14.0000
 21
0.0000
 31
120.0000
 12
-14.0000
 22
18.0000
 32
120.0000
 13
-22.0000
 23
18.0000
 33
120.0000
  0
3DFACE
  5
11D9
  8
0
 10
-22.0000
 20
0.0000
 30
90.0000
 11
-14.0000
 21
0.0000
 31
90.0000
 12
-14.0000
 22
0.0000
 32
120.0000
 13
-22.0000
 23
0.0000
 33
120.0000
  0
3DFACE
  5
11DA
  8
0
 10
-22.0000
 20
18.0000
 30
90.0000
 11
-14.0000
 21
18.0000
 31
90.0000
 12
-14.0000
 22
18.0000
 32
120.0000
 13
-22.0000
 23
18.0000
 33
120.0000
  0
3DFACE
  5
11DB
  8
0
 10
-22.0000
 20
0.0000
 30
90.0000
 11
-22.0000
 21
18.0000
 31
90.0000
 12
-22.0000
 22
18.0000
 32
120.0000
 13
-22.0000
 23
0.0000
 33
120.0000
  0
3DFACE
  5
11DC
  8
0
 10
-14.0000
 20
0.0000
 30
90.0000
 11
-14.0000
 21
18.0000
 31
90.0000
 12
-14.0000
 22
18.0000
 32
120.0000
 13
-14.0000
 23
0.0000
 33
120.0000
  0
3DFACE
  5
11DD
  8
0
 10
14.0000
 20
0.0000
 30
90.0000
 11
22.0000
 21
0.0000
 31
90.0000
 12
22.0000
 22
18.0000
 32
90.0000
 13
14.0000
 23
18.0000
 33
90.0000
  0
3DFACE
  5
11DE
  8
0
 10
14.0000
 20
0.0000
 30
120.0000
 11
22.0000
 21
0.0000
 31
120.0000
 12
22.0000
 22
18.0000
 32
120.0000
 13
14.0000
 23
18.0000
 33
120.0000
  0
3DFACE
  5
11DF
  8
0
 10
14.0000
 20
0.0000
 30
90.0000
 11
22.0000
 21
0.0000
 31
90.0000
 12
22.0000
 22
0.0000
 32
120.0000
 13
14.0000
 23
0.0000
 33
120.0000
  0
3DFACE
  5
11E0
  8
0
 10
14.0000
 20
18.0000
 30
90.0000
 11
22.0000
 21
18.0000
 31
90.0000
 12
22.0000
 22
18.0000
 32
120.0000
 13
14.0000
 23
18.0000
 33
120.0000
  0
3DFACE
  5
11E1
  8
0
 10
14.0000
 20
0.0000
 30
90.0000
 11
14.0000
 21
18.0000
 31
90.0000
 12
14.0000
 22
18.0000
 32
120.0000
 13
14.0000
 23
0.0000
 33
120.0000
  0
3DFACE
  5
11E2
  8
0
 10
22.0000
 20
0.0000
 30
90.0000
 11
22.0000
 21
18.0000
 31
90.0000
 12
22.0000
 22
18.0000
 32
120.0000
 13
22.0000
 23
0.0000
 33
120.0000
  0
ENDBLK
  8
0
  0
BLOCK
  8
0
  2
SEWAGE
 70
0
 10
0.0000
 20
0.0000
 30
0.0000
  3
SEWAGE
  1

  0
3DFACE
  5
11E3
  8
0
 10
-50.0000
 20
0.0000
 30
-50.0000
 11
50.0000
 21
0.0000
 31
-50.0000
 12
50.0000
 22
12.0000
 32
-50.0000
 13
-50.0000
 23
12.0000
 33
-50.0000
  0
3DFACE
  5
11E4
  8
0
 10
-50.0000
 20
0.0000
 30
50.0000
 11
50.0000
 21
0.0000
 31
50.0000
 12
50.0000
 22
12.0000
 32
50.0000
 13
-50.0000
 23
12.0000
 33
50.0000
  0
3DFACE
  5
11E5
  8
0
 10
-50.0000
 20
0.0000
 30
-50.0000
 11
50.0000
 21
0.0000
 31
-50.0000
 12
50.0000
 22
0.0000
 32
50.0000
 13
-50.0000
 23
0.0000
 33
50.0000
  0
3DFACE
  5
11E6
  8
0
 10
-50.0000
 20
12.0000
 30
-50.0000
 11
50.0000
 21
12.0000
 31
-50.0000
 12
50.0000
 22
12.0000
 32
50.0000
 13
-50.0000
 23
12.0000
 33
50.0000
  0
3DFACE
  5
11E7
  8
0
 10
-50.0000
 20
0.0000
 30
-50.0000
 11
-50.0000
 21
12.0000
 31
-50.0000
 12
-50.0000
 22
12.0000
 32
50.0000
 13
-50.0000
 23
0.0000
 33
50.0000
  0
3DFACE
  5
11E8
  8
0
 10
50.0000
 20
0.0000
 30
-50.0000
 11
50.0000
 21
12.0000
 31
-50.0000
 12
50.0000
 22
12.0000
 32
50.0000
 13
50.0000
 23
0.0000
 33
50.0000
  0
3DFACE
  5
11E9
  8
0
 10
-30.0000
 20
12.0000
 30
-30.0000
 11
30.0000
 21
12.0000
 31
-30.0000
 12
30.0000
 22
40.0000
 32
-30.0000
 13
-30.0000
 23
40.0000
 33
-30.0000
  0
3DFACE
  5
11EA
  8
0
 10
-30.0000
 20
12.0000
 30
30.0000
 11
30.0000
 21
12.0000
 31
30.0000
 12
30.0000
 22
40.0000
 32
30.0000
 13
-30.0000
 23
40.0000
 33
30.0000
  0
3DFACE
  5
11EB
  8
0
 10
-30.0000
 20
12.0000
 30
-30.0000
 11
30.0000
 21
12.0000
 31
-30.0000
 12
30.0000
 22
12.0000
 32
30.0000
 13
-30.0000
 23
12.0000
 33
30.0000
  0
3DFACE
  5
11EC
  8
0
 10
-30.0000
 20
40.0000
 30
-30.0000
 11
30.0000
 21
40.0000
 31
-30.0000
 12
30.0000
 22
40.0000
 32
30.0000
 13
-30.0000
 23
40.0000
 33
30.0000
  0
3DFACE
  5
11ED
  8
0
 10
-30.0000
 20
12.0000
 30
-30.0000
 11
-30.0000
 21
40.0000
 31
-30.0000
 12
-30.0000
 22
40.0000
 32
30.0000
 13
-30.0000
 23
12.0000
 33
30.0000
  0
3DFACE
  5
11EE
  8
0
 10
30.0000
 20
12.0000
 30
-30.0000
 11
30.0000
 21
40.0000
 31
-30.0000
 12
30.0000
 22
40.0000
 32
30.0000
 13
30.0000
 23
12.0000
 33
30.0000
  0
3DFACE
  5
11EF
  8
0
 10
-22.0000
 20
40.0000
 30
-22.0000
 11
22.0000
 21
40.0000
 31
-22.0000
 12
22.0000
 22
60.0000
 32
-22.0000
 13
-22.0000
 23
60.0000
 33
-22.0000
  0
3DFACE
  5
11F0
  8
0
 10
-22.0000
 20
40.0000
 30
22.0000
 11
22.0000
 21
40.0000
 31
22.0000
 12
22.0000
 22
60.0000
 32
22.0000
 13
-22.0000
 23
60.0000
 33
22.0000
  0
3DFACE
  5
11F1
  8
0
 10
-22.0000
 20
40.0000
 30
-22.0000
 11
22.0000
 21
40.0000
 31
-22.0000
 12
22.0000
 22
40.0000
 32
22.0000
 13
-22.0000
 23
40.0000
 33
22.0000
  0
3DFACE
  5
11F2
  8
0
 10
-22.0000
 20
60.0000
 30
-22.0000
 11
22.0000
 21
60.0000
 31
-22.0000
 12
22.0000
 22
60.0000
 32
22.0000
 13
-22.0000
 23
60.0000
 33
22.0000
  0
3DFACE
  5
11F3
  8
0
 10
-22.0000
 20
40.0000
 30
-22.0000
 11
-22.0000
 21
60.0000
 31
-22.0000
 12
-22.0000
 22
60.0000
 32
22.0000
 13
-22.0000
 23
40.0000
 33
22.0000
  0
3DFACE
  5
11F4
  8
0
 10
22.0000
 20
40.0000
 30
-22.0000
 11
22.0000
 21
60.0000
 31
-22.0000
 12
22.0000
 22
60.0000
 32
22.0000
 13
22.0000
 23
40.0000
 33
22.0000
  0
3DFACE
  5
11F5
  8
0
 10
-45.0000
 20
0.0000
 30
-45.0000
 11
-39.0000
 21
0.0000
 31
-45.0000
 12
-39.0000
 22
6.0000
 32
-45.0000
 13
-45.0000
 23
6.0000
 33
-45.0000
  0
3DFACE
  5
11F6
  8
0
 10
-45.0000
 20
0.0000
 30
-39.0000
 11
-39.0000
 21
0.0000
 31
-39.0000
 12
-39.0000
 22
6.0000
 32
-39.0000
 13
-45.0000
 23
6.0000
 33
-39.0000
  0
3DFACE
  5
11F7
  8
0
 10
-45.0000
 20
0.0000
 30
-45.0000
 11
-39.0000
 21
0.0000
 31
-45.0000
 12
-39.0000
 22
0.0000
 32
-39.0000
 13
-45.0000
 23
0.0000
 33
-39.0000
  0
3DFACE
  5
11F8
  8
0
 10
-45.0000
 20
6.0000
 30
-45.0000
 11
-39.0000
 21
6.0000
 31
-45.0000
 12
-39.0000
 22
6.0000
 32
-39.0000
 13
-45.0000
 23
6.0000
 33
-39.0000
  0
3DFACE
  5
11F9
  8
0
 10
-45.0000
 20
0.0000
 30
-45.0000
 11
-45.0000
 21
6.0000
 31
-45.0000
 12
-45.0000
 22
6.0000
 32
-39.0000
 13
-45.0000
 23
0.0000
 33
-39.0000
  0
3DFACE
  5
11FA
  8
0
 10
-39.0000
 20
0.0000
 30
-45.0000
 11
-39.0000
 21
6.0000
 31
-45.0000
 12
-39.0000
 22
6.0000
 32
-39.0000
 13
-39.0000
 23
0.0000
 33
-39.0000
  0
3DFACE
  5
11FB
  8
0
 10
39.0000
 20
0.0000
 30
-45.0000
 11
45.0000
 21
0.0000
 31
-45.0000
 12
45.0000
 22
6.0000
 32
-45.0000
 13
39.0000
 23
6.0000
 33
-45.0000
  0
3DFACE
  5
11FC
  8
0
 10
39.0000
 20
0.0000
 30
-39.0000
 11
45.0000
 21
0.0000
 31
-39.0000
 12
45.0000
 22
6.0000
 32
-39.0000
 13
39.0000
 23
6.0000
 33
-39.0000
  0
3DFACE
  5
11FD
  8
0
 10
39.0000
 20
0.0000
 30
-45.0000
 11
45.0000
 21
0.0000
 31
-45.0000
 12
45.0000
 22
0.0000
 32
-39.0000
 13
39.0000
 23
0.0000
 33
-39.0000
  0
3DFACE
  5
11FE
  8
0
 10
39.0000
 20
6.0000
 30
-45.0000
 11
45.0000
 21
6.0000
 31
-45.0000
 12
45.0000
 22
6.0000
 32
-39.0000
 13
39.0000
 23
6.0000
 33
-39.0000
  0
3DFACE
  5
11FF
  8
0
 10
39.0000
 20
0.0000
 30
-45.0000
 11
39.0000
 21
6.0000
 31
-45.0000
 12
39.0000
 22
6.0000
 32
-39.0000
 13
39.0000
 23
0.0000
 33
-39.0000
  0
3DFACE
  5
1200
  8
0
 10
45.0000
 20
0.0000
 30
-45.0000
 11
45.0000
 21
6.0000
 31
-45.0000
 12
45.0000
 22
6.0000
 32
-39.0000
 13
45.0000
 23
0.0000
 33
-39.0000
  0
3DFACE
  5
1201
  8
0
 10
-45.0000
 20
0.0000
 30
39.0000
 11
-39.0000
 21
0.0000
 31
39.0000
 12
-39.0000
 22
6.0000
 32
39.0000
 13
-45.0000
 23
6.0000
 33
39.0000
  0
3DFACE
  5
1202
  8
0
 10
-45.0000
 20
0.0000
 30
45.0000
 11
-39.0000
 21
0.0000
 31
45.0000
 12
-39.0000
 22
6.0000
 32
45.0000
 13
-45.0000
 23
6.0000
 33
45.0000
  0
3DFACE
  5
1203
  8
0
 10
-45.0000
 20
0.0000
 30
39.0000
 11
-39.0000
 21
0.0000
 31
39.0000
 12
-39.0000
 22
0.0000
 32
45.0000
 13
-45.0000
 23
0.0000
 33
45.0000
  0
3DFACE
  5
1204
  8
0
 10
-45.0000
 20
6.0000
 30
39.0000
 11
-39.0000
 21
6.0000
 31
39.0000
 12
-39.0000
 22
6.0000
 32
45.0000
 13
-45.0000
 23
6.0000
 33
45.0000
  0
3DFACE
  5
1205
  8
0
 10
-45.0000
 20
0.0000
 30
39.0000
 11
-45.0000
 21
6.0000
 31
39.0000
 12
-45.0000
 22
6.0000
 32
45.0000
 13
-45.0000
 23
0.0000
 33
45.0000
  0
3DFACE
  5
1206
  8
0
 10
-39.0000
 20
0.0000
 30
39.0000
 11
-39.0000
 21
6.0000
 31
39.0000
 12
-39.0000
 22
6.0000
 32
45.0000
 13
-39.0000
 23
0.0000
 33
45.0000
  0
3DFACE
  5
1207
  8
0
 10
39.0000
 20
0.0000
 30
39.0000
 11
45.0000
 21
0.0000
 31
39.0000
 12
45.0000
 22
6.0000
 32
39.0000
 13
39.0000
 23
6.0000
 33
39.0000
  0
3DFACE
  5
1208
  8
0
 10
39.0000
 20
0.0000
 30
45.0000
 11
45.0000
 21
0.0000
 31
45.0000
 12
45.0000
 22
6.0000
 32
45.0000
 13
39.0000
 23
6.0000
 33
45.0000
  0
3DFACE
  5
1209
  8
0
 10
39.0000
 20
0.0000
 30
39.0000
 11
45.0000
 21
0.0000
 31
39.0000
 12
45.0000
 22
0.0000
 32
45.0000
 13
39.0000
 23
0.0000
 33
45.0000
  0
3DFACE
  5
120A
  8
0
 10
39.0000
 20
6.0000
 30
39.0000
 11
45.0000
 21
6.0000
 31
39.0000
 12
45.0000
 22
6.0000
 32
45.0000
 13
39.0000
 23
6.0000
 33
45.0000
  0
3DFACE
  5
120B
  8
0
 10
39.0000
 20
0.0000
 30
39.0000
 11
39.0000
 21
6.0000
 31
39.0000
 12
39.0000
 22
6.0000
 32
45.0000
 13
39.0000
 23
0.0000
 33
45.0000
  0
3DFACE
  5
120C
  8
0
 10
45.0000
 20
0.0000
 30
39.0000
 11
45.0000
 21
6.0000
 31
39.0000
 12
45.0000
 22
6.0000
 32
45.0000
 13
45.0000
 23
0.0000
 33
45.0000
  0
ENDBLK
  8
0
  0
ENDSEC
  0
SECTION
  2
ENTITIES
  0
3DFACE
  5
1000
  8
ריצוף
 10
2770.0000
 20
-800.0000
 30
0.0000
 11
2770.0000
 21
-7043.0000
 31
0.0000
 12
7617.3747
 22
-7043.0000
 32
0.0000
 13
7617.3747
 23
-7043.0000
 33
0.0000
 70
15
  0
3DFACE
  5
1001
  8
ריצוף
 10
2770.0000
 20
-800.0000
 30
-40.0000
 11
7617.3747
 21
-7043.0000
 31
-40.0000
 12
2770.0000
 22
-7043.0000
 32
-40.0000
 13
2770.0000
 23
-7043.0000
 33
-40.0000
 70
15
  0
3DFACE
  5
1002
  8
ריצוף
 10
7617.3747
 20
-7043.0000
 30
0.0000
 11
7617.3747
 21
-800.0000
 31
0.0000
 12
2770.0000
 22
-800.0000
 32
0.0000
 13
2770.0000
 23
-800.0000
 33
0.0000
 70
15
  0
3DFACE
  5
1003
  8
ריצוף
 10
7617.3747
 20
-7043.0000
 30
-40.0000
 11
2770.0000
 21
-800.0000
 31
-40.0000
 12
7617.3747
 22
-800.0000
 32
-40.0000
 13
7617.3747
 23
-800.0000
 33
-40.0000
 70
15
  0
3DFACE
  5
1004
  8
ריצוף
 10
2770.0000
 20
-7043.0000
 30
-40.0000
 11
7617.3747
 21
-7043.0000
 31
-40.0000
 12
7617.3747
 22
-7043.0000
 32
0.0000
 13
2770.0000
 23
-7043.0000
 33
0.0000
 70
15
  0
3DFACE
  5
1005
  8
ריצוף
 10
7617.3747
 20
-7043.0000
 30
-40.0000
 11
7617.3747
 21
-800.0000
 31
-40.0000
 12
7617.3747
 22
-800.0000
 32
0.0000
 13
7617.3747
 23
-7043.0000
 33
0.0000
 70
15
  0
3DFACE
  5
1006
  8
ריצוף
 10
7617.3747
 20
-800.0000
 30
-40.0000
 11
2770.0000
 21
-800.0000
 31
-40.0000
 12
2770.0000
 22
-800.0000
 32
0.0000
 13
7617.3747
 23
-800.0000
 33
0.0000
 70
15
  0
3DFACE
  5
1007
  8
ריצוף
 10
2770.0000
 20
-800.0000
 30
-40.0000
 11
2770.0000
 21
-7043.0000
 31
-40.0000
 12
2770.0000
 22
-7043.0000
 32
0.0000
 13
2770.0000
 23
-800.0000
 33
0.0000
 70
15
  0
3DFACE
  5
1008
  8
קירות
 10
2770.0000
 20
-7143.0000
 30
0.0000
 11
2770.0000
 21
-7043.0000
 31
0.0000
 12
2670.0000
 22
-7043.0000
 32
0.0000
 13
2670.0000
 23
-7143.0000
 33
0.0000
 70
15
  0
3DFACE
  5
1009
  8
קירות
 10
2770.0000
 20
-7143.0000
 30
2638.0000
 11
2770.0000
 21
-7043.0000
 31
2638.0000
 12
2670.0000
 22
-7043.0000
 32
2638.0000
 13
2670.0000
 23
-7143.0000
 33
2638.0000
 70
15
  0
3DFACE
  5
100A
  8
קירות
 10
2770.0000
 20
-7143.0000
 30
0.0000
 11
2770.0000
 21
-7043.0000
 31
0.0000
 12
2770.0000
 22
-7043.0000
 32
2638.0000
 13
2770.0000
 23
-7143.0000
 33
2638.0000
 70
15
  0
3DFACE
  5
100B
  8
קירות
 10
2670.0000
 20
-7143.0000
 30
0.0000
 11
2670.0000
 21
-7043.0000
 31
0.0000
 12
2670.0000
 22
-7043.0000
 32
2638.0000
 13
2670.0000
 23
-7143.0000
 33
2638.0000
 70
15
  0
3DFACE
  5
100C
  8
קירות
 10
2770.0000
 20
-7143.0000
 30
0.0000
 11
2670.0000
 21
-7143.0000
 31
0.0000
 12
2670.0000
 22
-7143.0000
 32
2638.0000
 13
2770.0000
 23
-7143.0000
 33
2638.0000
 70
15
  0
3DFACE
  5
100D
  8
קירות
 10
2770.0000
 20
-7043.0000
 30
0.0000
 11
2670.0000
 21
-7043.0000
 31
0.0000
 12
2670.0000
 22
-7043.0000
 32
2638.0000
 13
2770.0000
 23
-7043.0000
 33
2638.0000
 70
15
  0
3DFACE
  5
100E
  8
קירות
 10
2770.0000
 20
-7043.0000
 30
2390.0000
 11
2770.0000
 21
-5198.5000
 31
2390.0000
 12
2670.0000
 22
-5198.5000
 32
2390.0000
 13
2670.0000
 23
-7043.0000
 33
2390.0000
 70
15
  0
3DFACE
  5
100F
  8
קירות
 10
2770.0000
 20
-7043.0000
 30
2638.0000
 11
2770.0000
 21
-5198.5000
 31
2638.0000
 12
2670.0000
 22
-5198.5000
 32
2638.0000
 13
2670.0000
 23
-7043.0000
 33
2638.0000
 70
15
  0
3DFACE
  5
1010
  8
קירות
 10
2770.0000
 20
-7043.0000
 30
2390.0000
 11
2770.0000
 21
-5198.5000
 31
2390.0000
 12
2770.0000
 22
-5198.5000
 32
2638.0000
 13
2770.0000
 23
-7043.0000
 33
2638.0000
 70
15
  0
3DFACE
  5
1011
  8
קירות
 10
2670.0000
 20
-7043.0000
 30
2390.0000
 11
2670.0000
 21
-5198.5000
 31
2390.0000
 12
2670.0000
 22
-5198.5000
 32
2638.0000
 13
2670.0000
 23
-7043.0000
 33
2638.0000
 70
15
  0
3DFACE
  5
1012
  8
קירות
 10
2770.0000
 20
-7043.0000
 30
2390.0000
 11
2670.0000
 21
-7043.0000
 31
2390.0000
 12
2670.0000
 22
-7043.0000
 32
2638.0000
 13
2770.0000
 23
-7043.0000
 33
2638.0000
 70
15
  0
3DFACE
  5
1013
  8
קירות
 10
2770.0000
 20
-5198.5000
 30
2390.0000
 11
2670.0000
 21
-5198.5000
 31
2390.0000
 12
2670.0000
 22
-5198.5000
 32
2638.0000
 13
2770.0000
 23
-5198.5000
 33
2638.0000
 70
15
  0
3DFACE
  5
1014
  8
קירות
 10
2770.0000
 20
-5198.5000
 30
0.0000
 11
2770.0000
 21
-3265.5000
 31
0.0000
 12
2670.0000
 22
-3265.5000
 32
0.0000
 13
2670.0000
 23
-5198.5000
 33
0.0000
 70
15
  0
3DFACE
  5
1015
  8
קירות
 10
2770.0000
 20
-5198.5000
 30
2638.0000
 11
2770.0000
 21
-3265.5000
 31
2638.0000
 12
2670.0000
 22
-3265.5000
 32
2638.0000
 13
2670.0000
 23
-5198.5000
 33
2638.0000
 70
15
  0
3DFACE
  5
1016
  8
קירות
 10
2770.0000
 20
-5198.5000
 30
0.0000
 11
2770.0000
 21
-3265.5000
 31
0.0000
 12
2770.0000
 22
-3265.5000
 32
2638.0000
 13
2770.0000
 23
-5198.5000
 33
2638.0000
 70
15
  0
3DFACE
  5
1017
  8
קירות
 10
2670.0000
 20
-5198.5000
 30
0.0000
 11
2670.0000
 21
-3265.5000
 31
0.0000
 12
2670.0000
 22
-3265.5000
 32
2638.0000
 13
2670.0000
 23
-5198.5000
 33
2638.0000
 70
15
  0
3DFACE
  5
1018
  8
קירות
 10
2770.0000
 20
-5198.5000
 30
0.0000
 11
2670.0000
 21
-5198.5000
 31
0.0000
 12
2670.0000
 22
-5198.5000
 32
2638.0000
 13
2770.0000
 23
-5198.5000
 33
2638.0000
 70
15
  0
3DFACE
  5
1019
  8
קירות
 10
2770.0000
 20
-3265.5000
 30
0.0000
 11
2670.0000
 21
-3265.5000
 31
0.0000
 12
2670.0000
 22
-3265.5000
 32
2638.0000
 13
2770.0000
 23
-3265.5000
 33
2638.0000
 70
15
  0
3DFACE
  5
101A
  8
קירות
 10
2770.0000
 20
-3265.5000
 30
0.0000
 11
2770.0000
 21
-2096.5000
 31
0.0000
 12
2670.0000
 22
-2096.5000
 32
0.0000
 13
2670.0000
 23
-3265.5000
 33
0.0000
 70
15
  0
3DFACE
  5
101B
  8
קירות
 10
2770.0000
 20
-3265.5000
 30
388.0000
 11
2770.0000
 21
-2096.5000
 31
388.0000
 12
2670.0000
 22
-2096.5000
 32
388.0000
 13
2670.0000
 23
-3265.5000
 33
388.0000
 70
15
  0
3DFACE
  5
101C
  8
קירות
 10
2770.0000
 20
-3265.5000
 30
0.0000
 11
2770.0000
 21
-2096.5000
 31
0.0000
 12
2770.0000
 22
-2096.5000
 32
388.0000
 13
2770.0000
 23
-3265.5000
 33
388.0000
 70
15
  0
3DFACE
  5
101D
  8
קירות
 10
2670.0000
 20
-3265.5000
 30
0.0000
 11
2670.0000
 21
-2096.5000
 31
0.0000
 12
2670.0000
 22
-2096.5000
 32
388.0000
 13
2670.0000
 23
-3265.5000
 33
388.0000
 70
15
  0
3DFACE
  5
101E
  8
קירות
 10
2770.0000
 20
-3265.5000
 30
0.0000
 11
2670.0000
 21
-3265.5000
 31
0.0000
 12
2670.0000
 22
-3265.5000
 32
388.0000
 13
2770.0000
 23
-3265.5000
 33
388.0000
 70
15
  0
3DFACE
  5
101F
  8
קירות
 10
2770.0000
 20
-2096.5000
 30
0.0000
 11
2670.0000
 21
-2096.5000
 31
0.0000
 12
2670.0000
 22
-2096.5000
 32
388.0000
 13
2770.0000
 23
-2096.5000
 33
388.0000
 70
15
  0
3DFACE
  5
1020
  8
קירות
 10
2770.0000
 20
-3265.5000
 30
1720.0000
 11
2770.0000
 21
-2096.5000
 31
1720.0000
 12
2670.0000
 22
-2096.5000
 32
1720.0000
 13
2670.0000
 23
-3265.5000
 33
1720.0000
 70
15
  0
3DFACE
  5
1021
  8
קירות
 10
2770.0000
 20
-3265.5000
 30
2638.0000
 11
2770.0000
 21
-2096.5000
 31
2638.0000
 12
2670.0000
 22
-2096.5000
 32
2638.0000
 13
2670.0000
 23
-3265.5000
 33
2638.0000
 70
15
  0
3DFACE
  5
1022
  8
קירות
 10
2770.0000
 20
-3265.5000
 30
1720.0000
 11
2770.0000
 21
-2096.5000
 31
1720.0000
 12
2770.0000
 22
-2096.5000
 32
2638.0000
 13
2770.0000
 23
-3265.5000
 33
2638.0000
 70
15
  0
3DFACE
  5
1023
  8
קירות
 10
2670.0000
 20
-3265.5000
 30
1720.0000
 11
2670.0000
 21
-2096.5000
 31
1720.0000
 12
2670.0000
 22
-2096.5000
 32
2638.0000
 13
2670.0000
 23
-3265.5000
 33
2638.0000
 70
15
  0
3DFACE
  5
1024
  8
קירות
 10
2770.0000
 20
-3265.5000
 30
1720.0000
 11
2670.0000
 21
-3265.5000
 31
1720.0000
 12
2670.0000
 22
-3265.5000
 32
2638.0000
 13
2770.0000
 23
-3265.5000
 33
2638.0000
 70
15
  0
3DFACE
  5
1025
  8
קירות
 10
2770.0000
 20
-2096.5000
 30
1720.0000
 11
2670.0000
 21
-2096.5000
 31
1720.0000
 12
2670.0000
 22
-2096.5000
 32
2638.0000
 13
2770.0000
 23
-2096.5000
 33
2638.0000
 70
15
  0
3DFACE
  5
1026
  8
קירות
 10
2770.0000
 20
-2096.5000
 30
0.0000
 11
2770.0000
 21
-700.0000
 31
0.0000
 12
2670.0000
 22
-700.0000
 32
0.0000
 13
2670.0000
 23
-2096.5000
 33
0.0000
 70
15
  0
3DFACE
  5
1027
  8
קירות
 10
2770.0000
 20
-2096.5000
 30
2638.0000
 11
2770.0000
 21
-700.0000
 31
2638.0000
 12
2670.0000
 22
-700.0000
 32
2638.0000
 13
2670.0000
 23
-2096.5000
 33
2638.0000
 70
15
  0
3DFACE
  5
1028
  8
קירות
 10
2770.0000
 20
-2096.5000
 30
0.0000
 11
2770.0000
 21
-700.0000
 31
0.0000
 12
2770.0000
 22
-700.0000
 32
2638.0000
 13
2770.0000
 23
-2096.5000
 33
2638.0000
 70
15
  0
3DFACE
  5
1029
  8
קירות
 10
2670.0000
 20
-2096.5000
 30
0.0000
 11
2670.0000
 21
-700.0000
 31
0.0000
 12
2670.0000
 22
-700.0000
 32
2638.0000
 13
2670.0000
 23
-2096.5000
 33
2638.0000
 70
15
  0
3DFACE
  5
102A
  8
קירות
 10
2770.0000
 20
-2096.5000
 30
0.0000
 11
2670.0000
 21
-2096.5000
 31
0.0000
 12
2670.0000
 22
-2096.5000
 32
2638.0000
 13
2770.0000
 23
-2096.5000
 33
2638.0000
 70
15
  0
3DFACE
  5
102B
  8
קירות
 10
2770.0000
 20
-700.0000
 30
0.0000
 11
2670.0000
 21
-700.0000
 31
0.0000
 12
2670.0000
 22
-700.0000
 32
2638.0000
 13
2770.0000
 23
-700.0000
 33
2638.0000
 70
15
  0
3DFACE
  5
102C
  8
קירות
 10
2670.0002
 20
-799.8255
 30
0.0000
 11
6464.9944
 21
-806.4490
 31
0.0000
 12
6465.1689
 22
-706.4491
 32
0.0000
 13
2670.1747
 23
-699.8256
 33
0.0000
 70
15
  0
3DFACE
  5
102D
  8
קירות
 10
2670.0002
 20
-799.8255
 30
2638.0000
 11
6464.9944
 21
-806.4490
 31
2638.0000
 12
6465.1689
 22
-706.4491
 32
2638.0000
 13
2670.1747
 23
-699.8256
 33
2638.0000
 70
15
  0
3DFACE
  5
102E
  8
קירות
 10
2670.0002
 20
-799.8255
 30
0.0000
 11
6464.9944
 21
-806.4490
 31
0.0000
 12
6464.9944
 22
-806.4490
 32
2638.0000
 13
2670.0002
 23
-799.8255
 33
2638.0000
 70
15
  0
3DFACE
  5
102F
  8
קירות
 10
2670.1747
 20
-699.8256
 30
0.0000
 11
6465.1689
 21
-706.4491
 31
0.0000
 12
6465.1689
 22
-706.4491
 32
2638.0000
 13
2670.1747
 23
-699.8256
 33
2638.0000
 70
15
  0
3DFACE
  5
1030
  8
קירות
 10
2670.0002
 20
-799.8255
 30
0.0000
 11
2670.1747
 21
-699.8256
 31
0.0000
 12
2670.1747
 22
-699.8256
 32
2638.0000
 13
2670.0002
 23
-799.8255
 33
2638.0000
 70
15
  0
3DFACE
  5
1031
  8
קירות
 10
6464.9944
 20
-806.4490
 30
0.0000
 11
6465.1689
 21
-706.4491
 31
0.0000
 12
6465.1689
 22
-706.4491
 32
2638.0000
 13
6464.9944
 23
-806.4490
 33
2638.0000
 70
15
  0
3DFACE
  5
1032
  8
קירות
 10
6365.1691
 20
-706.2746
 30
0.0000
 11
6363.2021
 21
-1833.2729
 31
0.0000
 12
6463.2019
 22
-1833.4474
 32
0.0000
 13
6465.1689
 23
-706.4491
 33
0.0000
 70
15
  0
3DFACE
  5
1033
  8
קירות
 10
6365.1691
 20
-706.2746
 30
2638.0000
 11
6363.2021
 21
-1833.2729
 31
2638.0000
 12
6463.2019
 22
-1833.4474
 32
2638.0000
 13
6465.1689
 23
-706.4491
 33
2638.0000
 70
15
  0
3DFACE
  5
1034
  8
קירות
 10
6365.1691
 20
-706.2746
 30
0.0000
 11
6363.2021
 21
-1833.2729
 31
0.0000
 12
6363.2021
 22
-1833.2729
 32
2638.0000
 13
6365.1691
 23
-706.2746
 33
2638.0000
 70
15
  0
3DFACE
  5
1035
  8
קירות
 10
6465.1689
 20
-706.4491
 30
0.0000
 11
6463.2019
 21
-1833.4474
 31
0.0000
 12
6463.2019
 22
-1833.4474
 32
2638.0000
 13
6465.1689
 23
-706.4491
 33
2638.0000
 70
15
  0
3DFACE
  5
1036
  8
קירות
 10
6365.1691
 20
-706.2746
 30
0.0000
 11
6465.1689
 21
-706.4491
 31
0.0000
 12
6465.1689
 22
-706.4491
 32
2638.0000
 13
6365.1691
 23
-706.2746
 33
2638.0000
 70
15
  0
3DFACE
  5
1037
  8
קירות
 10
6363.2021
 20
-1833.2729
 30
0.0000
 11
6463.2019
 21
-1833.4474
 31
0.0000
 12
6463.2019
 22
-1833.4474
 32
2638.0000
 13
6363.2021
 23
-1833.2729
 33
2638.0000
 70
15
  0
3DFACE
  5
1038
  8
קירות
 10
6263.3768
 20
-1733.0985
 30
0.0000
 11
6363.3766
 21
-1733.2730
 31
0.0000
 12
6363.5511
 22
-1633.2732
 32
0.0000
 13
6263.5513
 23
-1633.0987
 33
0.0000
 70
15
  0
3DFACE
  5
1039
  8
קירות
 10
6263.3768
 20
-1733.0985
 30
2638.0000
 11
6363.3766
 21
-1733.2730
 31
2638.0000
 12
6363.5511
 22
-1633.2732
 32
2638.0000
 13
6263.5513
 23
-1633.0987
 33
2638.0000
 70
15
  0
3DFACE
  5
103A
  8
קירות
 10
6263.3768
 20
-1733.0985
 30
0.0000
 11
6363.3766
 21
-1733.2730
 31
0.0000
 12
6363.3766
 22
-1733.2730
 32
2638.0000
 13
6263.3768
 23
-1733.0985
 33
2638.0000
 70
15
  0
3DFACE
  5
103B
  8
קירות
 10
6263.5513
 20
-1633.0987
 30
0.0000
 11
6363.5511
 21
-1633.2732
 31
0.0000
 12
6363.5511
 22
-1633.2732
 32
2638.0000
 13
6263.5513
 23
-1633.0987
 33
2638.0000
 70
15
  0
3DFACE
  5
103C
  8
קירות
 10
6263.3768
 20
-1733.0985
 30
0.0000
 11
6263.5513
 21
-1633.0987
 31
0.0000
 12
6263.5513
 22
-1633.0987
 32
2638.0000
 13
6263.3768
 23
-1733.0985
 33
2638.0000
 70
15
  0
3DFACE
  5
103D
  8
קירות
 10
6363.3766
 20
-1733.2730
 30
0.0000
 11
6363.5511
 21
-1633.2732
 31
0.0000
 12
6363.5511
 22
-1633.2732
 32
2638.0000
 13
6363.3766
 23
-1733.2730
 33
2638.0000
 70
15
  0
3DFACE
  5
103E
  8
קירות
 10
7049.9983
 20
-1734.4714
 30
0.0000
 11
7717.3745
 21
-1735.6362
 31
0.0000
 12
7717.5491
 22
-1635.6364
 32
0.0000
 13
7050.1728
 23
-1634.4716
 33
0.0000
 70
15
  0
3DFACE
  5
103F
  8
קירות
 10
7049.9983
 20
-1734.4714
 30
2638.0000
 11
7717.3745
 21
-1735.6362
 31
2638.0000
 12
7717.5491
 22
-1635.6364
 32
2638.0000
 13
7050.1728
 23
-1634.4716
 33
2638.0000
 70
15
  0
3DFACE
  5
1040
  8
קירות
 10
7049.9983
 20
-1734.4714
 30
0.0000
 11
7717.3745
 21
-1735.6362
 31
0.0000
 12
7717.3745
 22
-1735.6362
 32
2638.0000
 13
7049.9983
 23
-1734.4714
 33
2638.0000
 70
15
  0
3DFACE
  5
1041
  8
קירות
 10
7050.1728
 20
-1634.4716
 30
0.0000
 11
7717.5491
 21
-1635.6364
 31
0.0000
 12
7717.5491
 22
-1635.6364
 32
2638.0000
 13
7050.1728
 23
-1634.4716
 33
2638.0000
 70
15
  0
3DFACE
  5
1042
  8
קירות
 10
7049.9983
 20
-1734.4714
 30
0.0000
 11
7050.1728
 21
-1634.4716
 31
0.0000
 12
7050.1728
 22
-1634.4716
 32
2638.0000
 13
7049.9983
 23
-1734.4714
 33
2638.0000
 70
15
  0
3DFACE
  5
1043
  8
קירות
 10
7717.3745
 20
-1735.6362
 30
0.0000
 11
7717.5491
 21
-1635.6364
 31
0.0000
 12
7717.5491
 22
-1635.6364
 32
2638.0000
 13
7717.3745
 23
-1735.6362
 33
2638.0000
 70
15
  0
3DFACE
  5
1044
  8
חלונות
 10
2820.0000
 20
-3265.5000
 30
388.0000
 11
2820.0000
 21
-3215.5000
 31
388.0000
 12
2720.0000
 22
-3215.5000
 32
388.0000
 13
2720.0000
 23
-3265.5000
 33
388.0000
 70
15
  0
3DFACE
  5
1045
  8
חלונות
 10
2820.0000
 20
-3265.5000
 30
1720.0000
 11
2820.0000
 21
-3215.5000
 31
1720.0000
 12
2720.0000
 22
-3215.5000
 32
1720.0000
 13
2720.0000
 23
-3265.5000
 33
1720.0000
 70
15
  0
3DFACE
  5
1046
  8
חלונות
 10
2820.0000
 20
-3265.5000
 30
388.0000
 11
2820.0000
 21
-3215.5000
 31
388.0000
 12
2820.0000
 22
-3215.5000
 32
1720.0000
 13
2820.0000
 23
-3265.5000
 33
1720.0000
 70
15
  0
3DFACE
  5
1047
  8
חלונות
 10
2820.0000
 20
-3215.5000
 30
388.0000
 11
2720.0000
 21
-3215.5000
 31
388.0000
 12
2720.0000
 22
-3215.5000
 32
1720.0000
 13
2820.0000
 23
-3215.5000
 33
1720.0000
 70
15
  0
3DFACE
  5
1048
  8
חלונות
 10
2720.0000
 20
-3215.5000
 30
388.0000
 11
2720.0000
 21
-3265.5000
 31
388.0000
 12
2720.0000
 22
-3265.5000
 32
1720.0000
 13
2720.0000
 23
-3215.5000
 33
1720.0000
 70
15
  0
3DFACE
  5
1049
  8
חלונות
 10
2720.0000
 20
-3265.5000
 30
388.0000
 11
2820.0000
 21
-3265.5000
 31
388.0000
 12
2820.0000
 22
-3265.5000
 32
1720.0000
 13
2720.0000
 23
-3265.5000
 33
1720.0000
 70
15
  0
3DFACE
  5
104A
  8
חלונות
 10
2820.0000
 20
-2146.5000
 30
388.0000
 11
2820.0000
 21
-2096.5000
 31
388.0000
 12
2720.0000
 22
-2096.5000
 32
388.0000
 13
2720.0000
 23
-2146.5000
 33
388.0000
 70
15
  0
3DFACE
  5
104B
  8
חלונות
 10
2820.0000
 20
-2146.5000
 30
1720.0000
 11
2820.0000
 21
-2096.5000
 31
1720.0000
 12
2720.0000
 22
-2096.5000
 32
1720.0000
 13
2720.0000
 23
-2146.5000
 33
1720.0000
 70
15
  0
3DFACE
  5
104C
  8
חלונות
 10
2820.0000
 20
-2146.5000
 30
388.0000
 11
2820.0000
 21
-2096.5000
 31
388.0000
 12
2820.0000
 22
-2096.5000
 32
1720.0000
 13
2820.0000
 23
-2146.5000
 33
1720.0000
 70
15
  0
3DFACE
  5
104D
  8
חלונות
 10
2820.0000
 20
-2096.5000
 30
388.0000
 11
2720.0000
 21
-2096.5000
 31
388.0000
 12
2720.0000
 22
-2096.5000
 32
1720.0000
 13
2820.0000
 23
-2096.5000
 33
1720.0000
 70
15
  0
3DFACE
  5
104E
  8
חלונות
 10
2720.0000
 20
-2096.5000
 30
388.0000
 11
2720.0000
 21
-2146.5000
 31
388.0000
 12
2720.0000
 22
-2146.5000
 32
1720.0000
 13
2720.0000
 23
-2096.5000
 33
1720.0000
 70
15
  0
3DFACE
  5
104F
  8
חלונות
 10
2720.0000
 20
-2146.5000
 30
388.0000
 11
2820.0000
 21
-2146.5000
 31
388.0000
 12
2820.0000
 22
-2146.5000
 32
1720.0000
 13
2720.0000
 23
-2146.5000
 33
1720.0000
 70
15
  0
3DFACE
  5
1050
  8
חלונות
 10
2820.0000
 20
-3265.5000
 30
1670.0000
 11
2820.0000
 21
-2096.5000
 31
1670.0000
 12
2720.0000
 22
-2096.5000
 32
1670.0000
 13
2720.0000
 23
-3265.5000
 33
1670.0000
 70
15
  0
3DFACE
  5
1051
  8
חלונות
 10
2820.0000
 20
-3265.5000
 30
1720.0000
 11
2820.0000
 21
-2096.5000
 31
1720.0000
 12
2720.0000
 22
-2096.5000
 32
1720.0000
 13
2720.0000
 23
-3265.5000
 33
1720.0000
 70
15
  0
3DFACE
  5
1052
  8
חלונות
 10
2820.0000
 20
-3265.5000
 30
1670.0000
 11
2820.0000
 21
-2096.5000
 31
1670.0000
 12
2820.0000
 22
-2096.5000
 32
1720.0000
 13
2820.0000
 23
-3265.5000
 33
1720.0000
 70
15
  0
3DFACE
  5
1053
  8
חלונות
 10
2820.0000
 20
-2096.5000
 30
1670.0000
 11
2720.0000
 21
-2096.5000
 31
1670.0000
 12
2720.0000
 22
-2096.5000
 32
1720.0000
 13
2820.0000
 23
-2096.5000
 33
1720.0000
 70
15
  0
3DFACE
  5
1054
  8
חלונות
 10
2720.0000
 20
-2096.5000
 30
1670.0000
 11
2720.0000
 21
-3265.5000
 31
1670.0000
 12
2720.0000
 22
-3265.5000
 32
1720.0000
 13
2720.0000
 23
-2096.5000
 33
1720.0000
 70
15
  0
3DFACE
  5
1055
  8
חלונות
 10
2720.0000
 20
-3265.5000
 30
1670.0000
 11
2820.0000
 21
-3265.5000
 31
1670.0000
 12
2820.0000
 22
-3265.5000
 32
1720.0000
 13
2720.0000
 23
-3265.5000
 33
1720.0000
 70
15
  0
3DFACE
  5
1056
  8
חלונות
 10
2820.0000
 20
-3265.5000
 30
388.0000
 11
2820.0000
 21
-2096.5000
 31
388.0000
 12
2720.0000
 22
-2096.5000
 32
388.0000
 13
2720.0000
 23
-3265.5000
 33
388.0000
 70
15
  0
3DFACE
  5
1057
  8
חלונות
 10
2820.0000
 20
-3265.5000
 30
438.0000
 11
2820.0000
 21
-2096.5000
 31
438.0000
 12
2720.0000
 22
-2096.5000
 32
438.0000
 13
2720.0000
 23
-3265.5000
 33
438.0000
 70
15
  0
3DFACE
  5
1058
  8
חלונות
 10
2820.0000
 20
-3265.5000
 30
388.0000
 11
2820.0000
 21
-2096.5000
 31
388.0000
 12
2820.0000
 22
-2096.5000
 32
438.0000
 13
2820.0000
 23
-3265.5000
 33
438.0000
 70
15
  0
3DFACE
  5
1059
  8
חלונות
 10
2820.0000
 20
-2096.5000
 30
388.0000
 11
2720.0000
 21
-2096.5000
 31
388.0000
 12
2720.0000
 22
-2096.5000
 32
438.0000
 13
2820.0000
 23
-2096.5000
 33
438.0000
 70
15
  0
3DFACE
  5
105A
  8
חלונות
 10
2720.0000
 20
-2096.5000
 30
388.0000
 11
2720.0000
 21
-3265.5000
 31
388.0000
 12
2720.0000
 22
-3265.5000
 32
438.0000
 13
2720.0000
 23
-2096.5000
 33
438.0000
 70
15
  0
3DFACE
  5
105B
  8
חלונות
 10
2720.0000
 20
-3265.5000
 30
388.0000
 11
2820.0000
 21
-3265.5000
 31
388.0000
 12
2820.0000
 22
-3265.5000
 32
438.0000
 13
2720.0000
 23
-3265.5000
 33
438.0000
 70
15
  0
3DFACE
  5
105C
  8
חלונות
 10
2784.0000
 20
-3215.5000
 30
438.0000
 11
2784.0000
 21
-2146.5000
 31
438.0000
 12
2756.0000
 22
-2146.5000
 32
438.0000
 13
2756.0000
 23
-3215.5000
 33
438.0000
 70
15
  0
3DFACE
  5
105D
  8
חלונות
 10
2784.0000
 20
-3215.5000
 30
1670.0000
 11
2784.0000
 21
-2146.5000
 31
1670.0000
 12
2756.0000
 22
-2146.5000
 32
1670.0000
 13
2756.0000
 23
-3215.5000
 33
1670.0000
 70
15
  0
3DFACE
  5
105E
  8
חלונות
 10
2784.0000
 20
-3215.5000
 30
438.0000
 11
2784.0000
 21
-2146.5000
 31
438.0000
 12
2784.0000
 22
-2146.5000
 32
1670.0000
 13
2784.0000
 23
-3215.5000
 33
1670.0000
 70
15
  0
3DFACE
  5
105F
  8
חלונות
 10
2784.0000
 20
-2146.5000
 30
438.0000
 11
2756.0000
 21
-2146.5000
 31
438.0000
 12
2756.0000
 22
-2146.5000
 32
1670.0000
 13
2784.0000
 23
-2146.5000
 33
1670.0000
 70
15
  0
3DFACE
  5
1060
  8
חלונות
 10
2756.0000
 20
-2146.5000
 30
438.0000
 11
2756.0000
 21
-3215.5000
 31
438.0000
 12
2756.0000
 22
-3215.5000
 32
1670.0000
 13
2756.0000
 23
-2146.5000
 33
1670.0000
 70
15
  0
3DFACE
  5
1061
  8
חלונות
 10
2756.0000
 20
-3215.5000
 30
438.0000
 11
2784.0000
 21
-3215.5000
 31
438.0000
 12
2784.0000
 22
-3215.5000
 32
1670.0000
 13
2756.0000
 23
-3215.5000
 33
1670.0000
 70
15
  0
3DFACE
  5
1062
  8
חלונות
 10
2820.0000
 20
-8155.5000
 30
900.0000
 11
2820.0000
 21
-8105.5000
 31
900.0000
 12
2720.0000
 22
-8105.5000
 32
900.0000
 13
2720.0000
 23
-8155.5000
 33
900.0000
 70
15
  0
3DFACE
  5
1063
  8
חלונות
 10
2820.0000
 20
-8155.5000
 30
3290.0000
 11
2820.0000
 21
-8105.5000
 31
3290.0000
 12
2720.0000
 22
-8105.5000
 32
3290.0000
 13
2720.0000
 23
-8155.5000
 33
3290.0000
 70
15
  0
3DFACE
  5
1064
  8
חלונות
 10
2820.0000
 20
-8155.5000
 30
900.0000
 11
2820.0000
 21
-8105.5000
 31
900.0000
 12
2820.0000
 22
-8105.5000
 32
3290.0000
 13
2820.0000
 23
-8155.5000
 33
3290.0000
 70
15
  0
3DFACE
  5
1065
  8
חלונות
 10
2820.0000
 20
-8105.5000
 30
900.0000
 11
2720.0000
 21
-8105.5000
 31
900.0000
 12
2720.0000
 22
-8105.5000
 32
3290.0000
 13
2820.0000
 23
-8105.5000
 33
3290.0000
 70
15
  0
3DFACE
  5
1066
  8
חלונות
 10
2720.0000
 20
-8105.5000
 30
900.0000
 11
2720.0000
 21
-8155.5000
 31
900.0000
 12
2720.0000
 22
-8155.5000
 32
3290.0000
 13
2720.0000
 23
-8105.5000
 33
3290.0000
 70
15
  0
3DFACE
  5
1067
  8
חלונות
 10
2720.0000
 20
-8155.5000
 30
900.0000
 11
2820.0000
 21
-8155.5000
 31
900.0000
 12
2820.0000
 22
-8155.5000
 32
3290.0000
 13
2720.0000
 23
-8155.5000
 33
3290.0000
 70
15
  0
3DFACE
  5
1068
  8
חלונות
 10
2820.0000
 20
-5248.5000
 30
900.0000
 11
2820.0000
 21
-5198.5000
 31
900.0000
 12
2720.0000
 22
-5198.5000
 32
900.0000
 13
2720.0000
 23
-5248.5000
 33
900.0000
 70
15
  0
3DFACE
  5
1069
  8
חלונות
 10
2820.0000
 20
-5248.5000
 30
3290.0000
 11
2820.0000
 21
-5198.5000
 31
3290.0000
 12
2720.0000
 22
-5198.5000
 32
3290.0000
 13
2720.0000
 23
-5248.5000
 33
3290.0000
 70
15
  0
3DFACE
  5
106A
  8
חלונות
 10
2820.0000
 20
-5248.5000
 30
900.0000
 11
2820.0000
 21
-5198.5000
 31
900.0000
 12
2820.0000
 22
-5198.5000
 32
3290.0000
 13
2820.0000
 23
-5248.5000
 33
3290.0000
 70
15
  0
3DFACE
  5
106B
  8
חלונות
 10
2820.0000
 20
-5198.5000
 30
900.0000
 11
2720.0000
 21
-5198.5000
 31
900.0000
 12
2720.0000
 22
-5198.5000
 32
3290.0000
 13
2820.0000
 23
-5198.5000
 33
3290.0000
 70
15
  0
3DFACE
  5
106C
  8
חלונות
 10
2720.0000
 20
-5198.5000
 30
900.0000
 11
2720.0000
 21
-5248.5000
 31
900.0000
 12
2720.0000
 22
-5248.5000
 32
3290.0000
 13
2720.0000
 23
-5198.5000
 33
3290.0000
 70
15
  0
3DFACE
  5
106D
  8
חלונות
 10
2720.0000
 20
-5248.5000
 30
900.0000
 11
2820.0000
 21
-5248.5000
 31
900.0000
 12
2820.0000
 22
-5248.5000
 32
3290.0000
 13
2720.0000
 23
-5248.5000
 33
3290.0000
 70
15
  0
3DFACE
  5
106E
  8
חלונות
 10
2820.0000
 20
-8155.5000
 30
3240.0000
 11
2820.0000
 21
-5198.5000
 31
3240.0000
 12
2720.0000
 22
-5198.5000
 32
3240.0000
 13
2720.0000
 23
-8155.5000
 33
3240.0000
 70
15
  0
3DFACE
  5
106F
  8
חלונות
 10
2820.0000
 20
-8155.5000
 30
3290.0000
 11
2820.0000
 21
-5198.5000
 31
3290.0000
 12
2720.0000
 22
-5198.5000
 32
3290.0000
 13
2720.0000
 23
-8155.5000
 33
3290.0000
 70
15
  0
3DFACE
  5
1070
  8
חלונות
 10
2820.0000
 20
-8155.5000
 30
3240.0000
 11
2820.0000
 21
-5198.5000
 31
3240.0000
 12
2820.0000
 22
-5198.5000
 32
3290.0000
 13
2820.0000
 23
-8155.5000
 33
3290.0000
 70
15
  0
3DFACE
  5
1071
  8
חלונות
 10
2820.0000
 20
-5198.5000
 30
3240.0000
 11
2720.0000
 21
-5198.5000
 31
3240.0000
 12
2720.0000
 22
-5198.5000
 32
3290.0000
 13
2820.0000
 23
-5198.5000
 33
3290.0000
 70
15
  0
3DFACE
  5
1072
  8
חלונות
 10
2720.0000
 20
-5198.5000
 30
3240.0000
 11
2720.0000
 21
-8155.5000
 31
3240.0000
 12
2720.0000
 22
-8155.5000
 32
3290.0000
 13
2720.0000
 23
-5198.5000
 33
3290.0000
 70
15
  0
3DFACE
  5
1073
  8
חלונות
 10
2720.0000
 20
-8155.5000
 30
3240.0000
 11
2820.0000
 21
-8155.5000
 31
3240.0000
 12
2820.0000
 22
-8155.5000
 32
3290.0000
 13
2720.0000
 23
-8155.5000
 33
3290.0000
 70
15
  0
3DFACE
  5
1074
  8
חלונות
 10
2820.0000
 20
-8155.5000
 30
900.0000
 11
2820.0000
 21
-5198.5000
 31
900.0000
 12
2720.0000
 22
-5198.5000
 32
900.0000
 13
2720.0000
 23
-8155.5000
 33
900.0000
 70
15
  0
3DFACE
  5
1075
  8
חלונות
 10
2820.0000
 20
-8155.5000
 30
950.0000
 11
2820.0000
 21
-5198.5000
 31
950.0000
 12
2720.0000
 22
-5198.5000
 32
950.0000
 13
2720.0000
 23
-8155.5000
 33
950.0000
 70
15
  0
3DFACE
  5
1076
  8
חלונות
 10
2820.0000
 20
-8155.5000
 30
900.0000
 11
2820.0000
 21
-5198.5000
 31
900.0000
 12
2820.0000
 22
-5198.5000
 32
950.0000
 13
2820.0000
 23
-8155.5000
 33
950.0000
 70
15
  0
3DFACE
  5
1077
  8
חלונות
 10
2820.0000
 20
-5198.5000
 30
900.0000
 11
2720.0000
 21
-5198.5000
 31
900.0000
 12
2720.0000
 22
-5198.5000
 32
950.0000
 13
2820.0000
 23
-5198.5000
 33
950.0000
 70
15
  0
3DFACE
  5
1078
  8
חלונות
 10
2720.0000
 20
-5198.5000
 30
900.0000
 11
2720.0000
 21
-8155.5000
 31
900.0000
 12
2720.0000
 22
-8155.5000
 32
950.0000
 13
2720.0000
 23
-5198.5000
 33
950.0000
 70
15
  0
3DFACE
  5
1079
  8
חלונות
 10
2720.0000
 20
-8155.5000
 30
900.0000
 11
2820.0000
 21
-8155.5000
 31
900.0000
 12
2820.0000
 22
-8155.5000
 32
950.0000
 13
2720.0000
 23
-8155.5000
 33
950.0000
 70
15
  0
3DFACE
  5
107A
  8
חלונות
 10
2784.0000
 20
-8105.5000
 30
950.0000
 11
2784.0000
 21
-5248.5000
 31
950.0000
 12
2756.0000
 22
-5248.5000
 32
950.0000
 13
2756.0000
 23
-8105.5000
 33
950.0000
 70
15
  0
3DFACE
  5
107B
  8
חלונות
 10
2784.0000
 20
-8105.5000
 30
3240.0000
 11
2784.0000
 21
-5248.5000
 31
3240.0000
 12
2756.0000
 22
-5248.5000
 32
3240.0000
 13
2756.0000
 23
-8105.5000
 33
3240.0000
 70
15
  0
3DFACE
  5
107C
  8
חלונות
 10
2784.0000
 20
-8105.5000
 30
950.0000
 11
2784.0000
 21
-5248.5000
 31
950.0000
 12
2784.0000
 22
-5248.5000
 32
3240.0000
 13
2784.0000
 23
-8105.5000
 33
3240.0000
 70
15
  0
3DFACE
  5
107D
  8
חלונות
 10
2784.0000
 20
-5248.5000
 30
950.0000
 11
2756.0000
 21
-5248.5000
 31
950.0000
 12
2756.0000
 22
-5248.5000
 32
3240.0000
 13
2784.0000
 23
-5248.5000
 33
3240.0000
 70
15
  0
3DFACE
  5
107E
  8
חלונות
 10
2756.0000
 20
-5248.5000
 30
950.0000
 11
2756.0000
 21
-8105.5000
 31
950.0000
 12
2756.0000
 22
-8105.5000
 32
3240.0000
 13
2756.0000
 23
-5248.5000
 33
3240.0000
 70
15
  0
3DFACE
  5
107F
  8
חלונות
 10
2756.0000
 20
-8105.5000
 30
950.0000
 11
2784.0000
 21
-8105.5000
 31
950.0000
 12
2784.0000
 22
-8105.5000
 32
3240.0000
 13
2756.0000
 23
-8105.5000
 33
3240.0000
 70
15
  0
3DFACE
  5
1080
  8
דלתות
 10
5915.9136
 20
-1782.0103
 30
0.0000
 11
5955.9135
 21
-1782.0801
 31
0.0000
 12
5956.0881
 22
-1682.0803
 32
0.0000
 13
5916.0881
 23
-1682.0105
 33
0.0000
 70
15
  0
3DFACE
  5
1081
  8
דלתות
 10
5915.9136
 20
-1782.0103
 30
2638.0000
 11
5955.9135
 21
-1782.0801
 31
2638.0000
 12
5956.0881
 22
-1682.0803
 32
2638.0000
 13
5916.0881
 23
-1682.0105
 33
2638.0000
 70
15
  0
3DFACE
  5
1082
  8
דלתות
 10
5915.9136
 20
-1782.0103
 30
0.0000
 11
5955.9135
 21
-1782.0801
 31
0.0000
 12
5955.9135
 22
-1782.0801
 32
2638.0000
 13
5915.9136
 23
-1782.0103
 33
2638.0000
 70
15
  0
3DFACE
  5
1083
  8
דלתות
 10
5955.9135
 20
-1782.0801
 30
0.0000
 11
5956.0881
 21
-1682.0803
 31
0.0000
 12
5956.0881
 22
-1682.0803
 32
2638.0000
 13
5955.9135
 23
-1782.0801
 33
2638.0000
 70
15
  0
3DFACE
  5
1084
  8
דלתות
 10
5956.0881
 20
-1682.0803
 30
0.0000
 11
5916.0881
 21
-1682.0105
 31
0.0000
 12
5916.0881
 22
-1682.0105
 32
2638.0000
 13
5956.0881
 23
-1682.0803
 33
2638.0000
 70
15
  0
3DFACE
  5
1085
  8
דלתות
 10
5916.0881
 20
-1682.0105
 30
0.0000
 11
5915.9136
 21
-1782.0103
 31
0.0000
 12
5915.9136
 22
-1782.0103
 32
2638.0000
 13
5916.0881
 23
-1682.0105
 33
2638.0000
 70
15
  0
3DFACE
  5
1086
  8
דלתות
 10
7009.9119
 20
-1783.9197
 30
0.0000
 11
7049.9119
 21
-1783.9895
 31
0.0000
 12
7050.0864
 22
-1683.9897
 32
0.0000
 13
7010.0865
 23
-1683.9199
 33
0.0000
 70
15
  0
3DFACE
  5
1087
  8
דלתות
 10
7009.9119
 20
-1783.9197
 30
2638.0000
 11
7049.9119
 21
-1783.9895
 31
2638.0000
 12
7050.0864
 22
-1683.9897
 32
2638.0000
 13
7010.0865
 23
-1683.9199
 33
2638.0000
 70
15
  0
3DFACE
  5
1088
  8
דלתות
 10
7009.9119
 20
-1783.9197
 30
0.0000
 11
7049.9119
 21
-1783.9895
 31
0.0000
 12
7049.9119
 22
-1783.9895
 32
2638.0000
 13
7009.9119
 23
-1783.9197
 33
2638.0000
 70
15
  0
3DFACE
  5
1089
  8
דלתות
 10
7049.9119
 20
-1783.9895
 30
0.0000
 11
7050.0864
 21
-1683.9897
 31
0.0000
 12
7050.0864
 22
-1683.9897
 32
2638.0000
 13
7049.9119
 23
-1783.9895
 33
2638.0000
 70
15
  0
3DFACE
  5
108A
  8
דלתות
 10
7050.0864
 20
-1683.9897
 30
0.0000
 11
7010.0865
 21
-1683.9199
 31
0.0000
 12
7010.0865
 22
-1683.9199
 32
2638.0000
 13
7050.0864
 23
-1683.9897
 33
2638.0000
 70
15
  0
3DFACE
  5
108B
  8
דלתות
 10
7010.0865
 20
-1683.9199
 30
0.0000
 11
7009.9119
 21
-1783.9197
 31
0.0000
 12
7009.9119
 22
-1783.9197
 32
2638.0000
 13
7010.0865
 23
-1683.9199
 33
2638.0000
 70
15
  0
3DFACE
  5
108C
  8
דלתות
 10
5915.9136
 20
-1782.0103
 30
2598.0000
 11
7049.9119
 21
-1783.9895
 31
2598.0000
 12
7050.0864
 22
-1683.9897
 32
2598.0000
 13
5916.0881
 23
-1682.0105
 33
2598.0000
 70
15
  0
3DFACE
  5
108D
  8
דלתות
 10
5915.9136
 20
-1782.0103
 30
2638.0000
 11
7049.9119
 21
-1783.9895
 31
2638.0000
 12
7050.0864
 22
-1683.9897
 32
2638.0000
 13
5916.0881
 23
-1682.0105
 33
2638.0000
 70
15
  0
3DFACE
  5
108E
  8
דלתות
 10
5915.9136
 20
-1782.0103
 30
2598.0000
 11
7049.9119
 21
-1783.9895
 31
2598.0000
 12
7049.9119
 22
-1783.9895
 32
2638.0000
 13
5915.9136
 23
-1782.0103
 33
2638.0000
 70
15
  0
3DFACE
  5
108F
  8
דלתות
 10
7049.9119
 20
-1783.9895
 30
2598.0000
 11
7050.0864
 21
-1683.9897
 31
2598.0000
 12
7050.0864
 22
-1683.9897
 32
2638.0000
 13
7049.9119
 23
-1783.9895
 33
2638.0000
 70
15
  0
3DFACE
  5
1090
  8
דלתות
 10
7050.0864
 20
-1683.9897
 30
2598.0000
 11
5916.0881
 21
-1682.0105
 31
2598.0000
 12
5916.0881
 22
-1682.0105
 32
2638.0000
 13
7050.0864
 23
-1683.9897
 33
2638.0000
 70
15
  0
3DFACE
  5
1091
  8
דלתות
 10
5916.0881
 20
-1682.0105
 30
2598.0000
 11
5915.9136
 21
-1782.0103
 31
2598.0000
 12
5915.9136
 22
-1782.0103
 32
2638.0000
 13
5916.0881
 23
-1682.0105
 33
2638.0000
 70
15
  0
3DFACE
  5
1092
  8
דלתות
 10
5915.9136
 20
-1782.0103
 30
0.0000
 11
7049.9119
 21
-1783.9895
 31
0.0000
 12
7050.0864
 22
-1683.9897
 32
0.0000
 13
5916.0881
 23
-1682.0105
 33
0.0000
 70
15
  0
3DFACE
  5
1093
  8
דלתות
 10
5915.9136
 20
-1782.0103
 30
30.0000
 11
7049.9119
 21
-1783.9895
 31
30.0000
 12
7050.0864
 22
-1683.9897
 32
30.0000
 13
5916.0881
 23
-1682.0105
 33
30.0000
 70
15
  0
3DFACE
  5
1094
  8
דלתות
 10
5915.9136
 20
-1782.0103
 30
0.0000
 11
7049.9119
 21
-1783.9895
 31
0.0000
 12
7049.9119
 22
-1783.9895
 32
30.0000
 13
5915.9136
 23
-1782.0103
 33
30.0000
 70
15
  0
3DFACE
  5
1095
  8
דלתות
 10
7049.9119
 20
-1783.9895
 30
0.0000
 11
7050.0864
 21
-1683.9897
 31
0.0000
 12
7050.0864
 22
-1683.9897
 32
30.0000
 13
7049.9119
 23
-1783.9895
 33
30.0000
 70
15
  0
3DFACE
  5
1096
  8
דלתות
 10
7050.0864
 20
-1683.9897
 30
0.0000
 11
5916.0881
 21
-1682.0105
 31
0.0000
 12
5916.0881
 22
-1682.0105
 32
30.0000
 13
7050.0864
 23
-1683.9897
 33
30.0000
 70
15
  0
3DFACE
  5
1097
  8
דלתות
 10
5916.0881
 20
-1682.0105
 30
0.0000
 11
5915.9136
 21
-1782.0103
 31
0.0000
 12
5915.9136
 22
-1782.0103
 32
30.0000
 13
5916.0881
 23
-1682.0105
 33
30.0000
 70
15
  0
INSERT
  5
1098
  8
גז
  2
GAS
 10
2770.0000
 20
-2910.0000
 30
-12.0000
 41
1.0000
 42
1.0000
 43
1.0000
 50
90.0000
  0
3DFACE
  5
1099
  8
גז
 10
2840.0000
 20
-2920.0000
 30
-12.0000
 11
2840.0000
 21
-2900.0000
 31
-12.0000
 12
2820.0000
 22
-2900.0000
 32
-12.0000
 13
2820.0000
 23
-2920.0000
 33
-12.0000
 70
15
  0
3DFACE
  5
109A
  8
גז
 10
2840.0000
 20
-2920.0000
 30
8.0000
 11
2840.0000
 21
-2900.0000
 31
8.0000
 12
2820.0000
 22
-2900.0000
 32
8.0000
 13
2820.0000
 23
-2920.0000
 33
8.0000
 70
15
  0
3DFACE
  5
109B
  8
גז
 10
2840.0000
 20
-2920.0000
 30
-12.0000
 11
2840.0000
 21
-2900.0000
 31
-12.0000
 12
2840.0000
 22
-2900.0000
 32
8.0000
 13
2840.0000
 23
-2920.0000
 33
8.0000
 70
15
  0
3DFACE
  5
109C
  8
גז
 10
2840.0000
 20
-2900.0000
 30
-12.0000
 11
2820.0000
 21
-2900.0000
 31
-12.0000
 12
2820.0000
 22
-2900.0000
 32
8.0000
 13
2840.0000
 23
-2900.0000
 33
8.0000
 70
15
  0
3DFACE
  5
109D
  8
גז
 10
2820.0000
 20
-2900.0000
 30
-12.0000
 11
2820.0000
 21
-2920.0000
 31
-12.0000
 12
2820.0000
 22
-2920.0000
 32
8.0000
 13
2820.0000
 23
-2900.0000
 33
8.0000
 70
15
  0
3DFACE
  5
109E
  8
גז
 10
2820.0000
 20
-2920.0000
 30
-12.0000
 11
2840.0000
 21
-2920.0000
 31
-12.0000
 12
2840.0000
 22
-2920.0000
 32
8.0000
 13
2820.0000
 23
-2920.0000
 33
8.0000
 70
15
  0
INSERT
  5
109F
  8
חשמל
  2
SOCKET
 10
2770.0000
 20
-2896.0000
 30
1099.0000
 41
1.0000
 42
1.0000
 43
1.0000
 50
90.0000
  0
3DFACE
  5
10A0
  8
חשמל
 10
2835.0000
 20
-2936.0000
 30
1099.0000
 11
2835.0000
 21
-2856.0000
 31
1099.0000
 12
2820.0000
 22
-2856.0000
 32
1099.0000
 13
2820.0000
 23
-2936.0000
 33
1099.0000
 70
15
  0
3DFACE
  5
10A1
  8
חשמל
 10
2835.0000
 20
-2936.0000
 30
1179.0000
 11
2835.0000
 21
-2856.0000
 31
1179.0000
 12
2820.0000
 22
-2856.0000
 32
1179.0000
 13
2820.0000
 23
-2936.0000
 33
1179.0000
 70
15
  0
3DFACE
  5
10A2
  8
חשמל
 10
2835.0000
 20
-2936.0000
 30
1099.0000
 11
2835.0000
 21
-2856.0000
 31
1099.0000
 12
2835.0000
 22
-2856.0000
 32
1179.0000
 13
2835.0000
 23
-2936.0000
 33
1179.0000
 70
15
  0
3DFACE
  5
10A3
  8
חשמל
 10
2835.0000
 20
-2856.0000
 30
1099.0000
 11
2820.0000
 21
-2856.0000
 31
1099.0000
 12
2820.0000
 22
-2856.0000
 32
1179.0000
 13
2835.0000
 23
-2856.0000
 33
1179.0000
 70
15
  0
3DFACE
  5
10A4
  8
חשמל
 10
2820.0000
 20
-2856.0000
 30
1099.0000
 11
2820.0000
 21
-2936.0000
 31
1099.0000
 12
2820.0000
 22
-2936.0000
 32
1179.0000
 13
2820.0000
 23
-2856.0000
 33
1179.0000
 70
15
  0
3DFACE
  5
10A5
  8
חשמל
 10
2820.0000
 20
-2936.0000
 30
1099.0000
 11
2835.0000
 21
-2936.0000
 31
1099.0000
 12
2835.0000
 22
-2936.0000
 32
1179.0000
 13
2820.0000
 23
-2936.0000
 33
1179.0000
 70
15
  0
INSERT
  5
10A6
  8
חשמל
  2
DUPLEXSWITCH
 10
2770.0000
 20
-3371.0000
 30
1100.0000
 41
1.0000
 42
1.0000
 43
1.0000
 50
90.0000
  0
3DFACE
  5
10A7
  8
חשמל
 10
2835.0000
 20
-3451.0000
 30
1100.0000
 11
2835.0000
 21
-3291.0000
 31
1100.0000
 12
2820.0000
 22
-3291.0000
 32
1100.0000
 13
2820.0000
 23
-3451.0000
 33
1100.0000
 70
15
  0
3DFACE
  5
10A8
  8
חשמל
 10
2835.0000
 20
-3451.0000
 30
1180.0000
 11
2835.0000
 21
-3291.0000
 31
1180.0000
 12
2820.0000
 22
-3291.0000
 32
1180.0000
 13
2820.0000
 23
-3451.0000
 33
1180.0000
 70
15
  0
3DFACE
  5
10A9
  8
חשמל
 10
2835.0000
 20
-3451.0000
 30
1100.0000
 11
2835.0000
 21
-3291.0000
 31
1100.0000
 12
2835.0000
 22
-3291.0000
 32
1180.0000
 13
2835.0000
 23
-3451.0000
 33
1180.0000
 70
15
  0
3DFACE
  5
10AA
  8
חשמל
 10
2835.0000
 20
-3291.0000
 30
1100.0000
 11
2820.0000
 21
-3291.0000
 31
1100.0000
 12
2820.0000
 22
-3291.0000
 32
1180.0000
 13
2835.0000
 23
-3291.0000
 33
1180.0000
 70
15
  0
3DFACE
  5
10AB
  8
חשמל
 10
2820.0000
 20
-3291.0000
 30
1100.0000
 11
2820.0000
 21
-3451.0000
 31
1100.0000
 12
2820.0000
 22
-3451.0000
 32
1180.0000
 13
2820.0000
 23
-3291.0000
 33
1180.0000
 70
15
  0
3DFACE
  5
10AC
  8
חשמל
 10
2820.0000
 20
-3451.0000
 30
1100.0000
 11
2835.0000
 21
-3451.0000
 31
1100.0000
 12
2835.0000
 22
-3451.0000
 32
1180.0000
 13
2820.0000
 23
-3451.0000
 33
1180.0000
 70
15
  0
INSERT
  5
10AD
  8
חשמל
  2
CONTROLBOX
 10
2770.0000
 20
-2953.0000
 30
-12.0000
 41
1.0000
 42
1.0000
 43
1.0000
 50
90.0000
  0
3DFACE
  5
10AE
  8
חשמל
 10
2920.0000
 20
-2963.0000
 30
-12.0000
 11
2920.0000
 21
-2943.0000
 31
-12.0000
 12
2820.0000
 22
-2943.0000
 32
-12.0000
 13
2820.0000
 23
-2963.0000
 33
-12.0000
 70
15
  0
3DFACE
  5
10AF
  8
חשמל
 10
2920.0000
 20
-2963.0000
 30
8.0000
 11
2920.0000
 21
-2943.0000
 31
8.0000
 12
2820.0000
 22
-2943.0000
 32
8.0000
 13
2820.0000
 23
-2963.0000
 33
8.0000
 70
15
  0
3DFACE
  5
10B0
  8
חשמל
 10
2920.0000
 20
-2963.0000
 30
-12.0000
 11
2920.0000
 21
-2943.0000
 31
-12.0000
 12
2920.0000
 22
-2943.0000
 32
8.0000
 13
2920.0000
 23
-2963.0000
 33
8.0000
 70
15
  0
3DFACE
  5
10B1
  8
חשמל
 10
2920.0000
 20
-2943.0000
 30
-12.0000
 11
2820.0000
 21
-2943.0000
 31
-12.0000
 12
2820.0000
 22
-2943.0000
 32
8.0000
 13
2920.0000
 23
-2943.0000
 33
8.0000
 70
15
  0
3DFACE
  5
10B2
  8
חשמל
 10
2820.0000
 20
-2943.0000
 30
-12.0000
 11
2820.0000
 21
-2963.0000
 31
-12.0000
 12
2820.0000
 22
-2963.0000
 32
8.0000
 13
2820.0000
 23
-2943.0000
 33
8.0000
 70
15
  0
3DFACE
  5
10B3
  8
חשמל
 10
2820.0000
 20
-2963.0000
 30
-12.0000
 11
2920.0000
 21
-2963.0000
 31
-12.0000
 12
2920.0000
 22
-2963.0000
 32
8.0000
 13
2820.0000
 23
-2963.0000
 33
8.0000
 70
15
  0
INSERT
  5
10B4
  8
חשמל
  2
SOCKET
 10
2770.0000
 20
-6835.0000
 30
1037.0000
 41
1.0000
 42
1.0000
 43
1.0000
 50
90.0000
  0
3DFACE
  5
10B5
  8
חשמל
 10
2835.0000
 20
-6875.0000
 30
1037.0000
 11
2835.0000
 21
-6795.0000
 31
1037.0000
 12
2820.0000
 22
-6795.0000
 32
1037.0000
 13
2820.0000
 23
-6875.0000
 33
1037.0000
 70
15
  0
3DFACE
  5
10B6
  8
חשמל
 10
2835.0000
 20
-6875.0000
 30
1117.0000
 11
2835.0000
 21
-6795.0000
 31
1117.0000
 12
2820.0000
 22
-6795.0000
 32
1117.0000
 13
2820.0000
 23
-6875.0000
 33
1117.0000
 70
15
  0
3DFACE
  5
10B7
  8
חשמל
 10
2835.0000
 20
-6875.0000
 30
1037.0000
 11
2835.0000
 21
-6795.0000
 31
1037.0000
 12
2835.0000
 22
-6795.0000
 32
1117.0000
 13
2835.0000
 23
-6875.0000
 33
1117.0000
 70
15
  0
3DFACE
  5
10B8
  8
חשמל
 10
2835.0000
 20
-6795.0000
 30
1037.0000
 11
2820.0000
 21
-6795.0000
 31
1037.0000
 12
2820.0000
 22
-6795.0000
 32
1117.0000
 13
2835.0000
 23
-6795.0000
 33
1117.0000
 70
15
  0
3DFACE
  5
10B9
  8
חשמל
 10
2820.0000
 20
-6795.0000
 30
1037.0000
 11
2820.0000
 21
-6875.0000
 31
1037.0000
 12
2820.0000
 22
-6875.0000
 32
1117.0000
 13
2820.0000
 23
-6795.0000
 33
1117.0000
 70
15
  0
3DFACE
  5
10BA
  8
חשמל
 10
2820.0000
 20
-6875.0000
 30
1037.0000
 11
2835.0000
 21
-6875.0000
 31
1037.0000
 12
2835.0000
 22
-6875.0000
 32
1117.0000
 13
2820.0000
 23
-6875.0000
 33
1117.0000
 70
15
  0
INSERT
  5
10BB
  8
חשמל
  2
SOCKET
 10
2770.0000
 20
-6835.0000
 30
860.0000
 41
1.0000
 42
1.0000
 43
1.0000
 50
90.0000
  0
3DFACE
  5
10BC
  8
חשמל
 10
2835.0000
 20
-6875.0000
 30
860.0000
 11
2835.0000
 21
-6795.0000
 31
860.0000
 12
2820.0000
 22
-6795.0000
 32
860.0000
 13
2820.0000
 23
-6875.0000
 33
860.0000
 70
15
  0
3DFACE
  5
10BD
  8
חשמל
 10
2835.0000
 20
-6875.0000
 30
940.0000
 11
2835.0000
 21
-6795.0000
 31
940.0000
 12
2820.0000
 22
-6795.0000
 32
940.0000
 13
2820.0000
 23
-6875.0000
 33
940.0000
 70
15
  0
3DFACE
  5
10BE
  8
חשמל
 10
2835.0000
 20
-6875.0000
 30
860.0000
 11
2835.0000
 21
-6795.0000
 31
860.0000
 12
2835.0000
 22
-6795.0000
 32
940.0000
 13
2835.0000
 23
-6875.0000
 33
940.0000
 70
15
  0
3DFACE
  5
10BF
  8
חשמל
 10
2835.0000
 20
-6795.0000
 30
860.0000
 11
2820.0000
 21
-6795.0000
 31
860.0000
 12
2820.0000
 22
-6795.0000
 32
940.0000
 13
2835.0000
 23
-6795.0000
 33
940.0000
 70
15
  0
3DFACE
  5
10C0
  8
חשמל
 10
2820.0000
 20
-6795.0000
 30
860.0000
 11
2820.0000
 21
-6875.0000
 31
860.0000
 12
2820.0000
 22
-6875.0000
 32
940.0000
 13
2820.0000
 23
-6795.0000
 33
940.0000
 70
15
  0
3DFACE
  5
10C1
  8
חשמל
 10
2820.0000
 20
-6875.0000
 30
860.0000
 11
2835.0000
 21
-6875.0000
 31
860.0000
 12
2835.0000
 22
-6875.0000
 32
940.0000
 13
2820.0000
 23
-6875.0000
 33
940.0000
 70
15
  0
INSERT
  5
10C2
  8
תאורה
  2
LIGHTING
 10
2770.0000
 20
-2307.0000
 30
2613.0000
 41
1.0000
 42
1.0000
 43
1.0000
 50
90.0000
  0
3DFACE
  5
10C3
  8
תאורה
 10
2920.0000
 20
-2357.0000
 30
2613.0000
 11
2920.0000
 21
-2257.0000
 31
2613.0000
 12
2820.0000
 22
-2257.0000
 32
2613.0000
 13
2820.0000
 23
-2357.0000
 33
2613.0000
 70
15
  0
3DFACE
  5
10C4
  8
תאורה
 10
2920.0000
 20
-2357.0000
 30
2643.0000
 11
2920.0000
 21
-2257.0000
 31
2643.0000
 12
2820.0000
 22
-2257.0000
 32
2643.0000
 13
2820.0000
 23
-2357.0000
 33
2643.0000
 70
15
  0
3DFACE
  5
10C5
  8
תאורה
 10
2920.0000
 20
-2357.0000
 30
2613.0000
 11
2920.0000
 21
-2257.0000
 31
2613.0000
 12
2920.0000
 22
-2257.0000
 32
2643.0000
 13
2920.0000
 23
-2357.0000
 33
2643.0000
 70
15
  0
3DFACE
  5
10C6
  8
תאורה
 10
2920.0000
 20
-2257.0000
 30
2613.0000
 11
2820.0000
 21
-2257.0000
 31
2613.0000
 12
2820.0000
 22
-2257.0000
 32
2643.0000
 13
2920.0000
 23
-2257.0000
 33
2643.0000
 70
15
  0
3DFACE
  5
10C7
  8
תאורה
 10
2820.0000
 20
-2257.0000
 30
2613.0000
 11
2820.0000
 21
-2357.0000
 31
2613.0000
 12
2820.0000
 22
-2357.0000
 32
2643.0000
 13
2820.0000
 23
-2257.0000
 33
2643.0000
 70
15
  0
3DFACE
  5
10C8
  8
תאורה
 10
2820.0000
 20
-2357.0000
 30
2613.0000
 11
2920.0000
 21
-2357.0000
 31
2613.0000
 12
2920.0000
 22
-2357.0000
 32
2643.0000
 13
2820.0000
 23
-2357.0000
 33
2643.0000
 70
15
  0
INSERT
  5
10C9
  8
תאורה
  2
LIGHTING
 10
2770.0000
 20
-2303.0000
 30
2613.0000
 41
1.0000
 42
1.0000
 43
1.0000
 50
90.0000
  0
3DFACE
  5
10CA
  8
תאורה
 10
2920.0000
 20
-2353.0000
 30
2613.0000
 11
2920.0000
 21
-2253.0000
 31
2613.0000
 12
2820.0000
 22
-2253.0000
 32
2613.0000
 13
2820.0000
 23
-2353.0000
 33
2613.0000
 70
15
  0
3DFACE
  5
10CB
  8
תאורה
 10
2920.0000
 20
-2353.0000
 30
2643.0000
 11
2920.0000
 21
-2253.0000
 31
2643.0000
 12
2820.0000
 22
-2253.0000
 32
2643.0000
 13
2820.0000
 23
-2353.0000
 33
2643.0000
 70
15
  0
3DFACE
  5
10CC
  8
תאורה
 10
2920.0000
 20
-2353.0000
 30
2613.0000
 11
2920.0000
 21
-2253.0000
 31
2613.0000
 12
2920.0000
 22
-2253.0000
 32
2643.0000
 13
2920.0000
 23
-2353.0000
 33
2643.0000
 70
15
  0
3DFACE
  5
10CD
  8
תאורה
 10
2920.0000
 20
-2253.0000
 30
2613.0000
 11
2820.0000
 21
-2253.0000
 31
2613.0000
 12
2820.0000
 22
-2253.0000
 32
2643.0000
 13
2920.0000
 23
-2253.0000
 33
2643.0000
 70
15
  0
3DFACE
  5
10CE
  8
תאורה
 10
2820.0000
 20
-2253.0000
 30
2613.0000
 11
2820.0000
 21
-2353.0000
 31
2613.0000
 12
2820.0000
 22
-2353.0000
 32
2643.0000
 13
2820.0000
 23
-2253.0000
 33
2643.0000
 70
15
  0
3DFACE
  5
10CF
  8
תאורה
 10
2820.0000
 20
-2353.0000
 30
2613.0000
 11
2920.0000
 21
-2353.0000
 31
2613.0000
 12
2920.0000
 22
-2353.0000
 32
2643.0000
 13
2820.0000
 23
-2353.0000
 33
2643.0000
 70
15
  0
INSERT
  5
10D0
  8
חשמל
  2
SOCKET
 10
6114.0000
 20
-806.0000
 30
1547.0000
 41
1.0000
 42
1.0000
 43
1.0000
 50
359.9000
  0
3DFACE
  5
10D1
  8
חשמל
 10
6073.8866
 20
-870.9301
 30
1547.0000
 11
6153.8865
 21
-871.0697
 31
1547.0000
 12
6153.9127
 22
-856.0697
 32
1547.0000
 13
6073.9128
 23
-855.9301
 33
1547.0000
 70
15
  0
3DFACE
  5
10D2
  8
חשמל
 10
6073.8866
 20
-870.9301
 30
1627.0000
 11
6153.8865
 21
-871.0697
 31
1627.0000
 12
6153.9127
 22
-856.0697
 32
1627.0000
 13
6073.9128
 23
-855.9301
 33
1627.0000
 70
15
  0
3DFACE
  5
10D3
  8
חשמל
 10
6073.8866
 20
-870.9301
 30
1547.0000
 11
6153.8865
 21
-871.0697
 31
1547.0000
 12
6153.8865
 22
-871.0697
 32
1627.0000
 13
6073.8866
 23
-870.9301
 33
1627.0000
 70
15
  0
3DFACE
  5
10D4
  8
חשמל
 10
6153.8865
 20
-871.0697
 30
1547.0000
 11
6153.9127
 21
-856.0697
 31
1547.0000
 12
6153.9127
 22
-856.0697
 32
1627.0000
 13
6153.8865
 23
-871.0697
 33
1627.0000
 70
15
  0
3DFACE
  5
10D5
  8
חשמל
 10
6153.9127
 20
-856.0697
 30
1547.0000
 11
6073.9128
 21
-855.9301
 31
1547.0000
 12
6073.9128
 22
-855.9301
 32
1627.0000
 13
6153.9127
 23
-856.0697
 33
1627.0000
 70
15
  0
3DFACE
  5
10D6
  8
חשמל
 10
6073.9128
 20
-855.9301
 30
1547.0000
 11
6073.8866
 21
-870.9301
 31
1547.0000
 12
6073.8866
 22
-870.9301
 32
1627.0000
 13
6073.9128
 23
-855.9301
 33
1627.0000
 70
15
  0
INSERT
  5
10D7
  8
חשמל
  2
SOCKET
 10
5952.0000
 20
-806.0000
 30
1544.0000
 41
1.0000
 42
1.0000
 43
1.0000
 50
359.9000
  0
3DFACE
  5
10D8
  8
חשמל
 10
5911.8866
 20
-870.9301
 30
1544.0000
 11
5991.8865
 21
-871.0697
 31
1544.0000
 12
5991.9127
 22
-856.0697
 32
1544.0000
 13
5911.9128
 23
-855.9301
 33
1544.0000
 70
15
  0
3DFACE
  5
10D9
  8
חשמל
 10
5911.8866
 20
-870.9301
 30
1624.0000
 11
5991.8865
 21
-871.0697
 31
1624.0000
 12
5991.9127
 22
-856.0697
 32
1624.0000
 13
5911.9128
 23
-855.9301
 33
1624.0000
 70
15
  0
3DFACE
  5
10DA
  8
חשמל
 10
5911.8866
 20
-870.9301
 30
1544.0000
 11
5991.8865
 21
-871.0697
 31
1544.0000
 12
5991.8865
 22
-871.0697
 32
1624.0000
 13
5911.8866
 23
-870.9301
 33
1624.0000
 70
15
  0
3DFACE
  5
10DB
  8
חשמל
 10
5991.8865
 20
-871.0697
 30
1544.0000
 11
5991.9127
 21
-856.0697
 31
1544.0000
 12
5991.9127
 22
-856.0697
 32
1624.0000
 13
5991.8865
 23
-871.0697
 33
1624.0000
 70
15
  0
3DFACE
  5
10DC
  8
חשמל
 10
5991.9127
 20
-856.0697
 30
1544.0000
 11
5911.9128
 21
-855.9301
 31
1544.0000
 12
5911.9128
 22
-855.9301
 32
1624.0000
 13
5991.9127
 23
-856.0697
 33
1624.0000
 70
15
  0
3DFACE
  5
10DD
  8
חשמל
 10
5911.9128
 20
-855.9301
 30
1544.0000
 11
5911.8866
 21
-870.9301
 31
1544.0000
 12
5911.8866
 22
-870.9301
 32
1624.0000
 13
5911.9128
 23
-855.9301
 33
1624.0000
 70
15
  0
INSERT
  5
10DE
  8
חשמל
  2
DUPLEXSWITCH
 10
5512.0000
 20
-805.0000
 30
1106.0000
 41
1.0000
 42
1.0000
 43
1.0000
 50
359.9000
  0
3DFACE
  5
10DF
  8
חשמל
 10
5431.8867
 20
-869.8603
 30
1106.0000
 11
5591.8864
 21
-870.1395
 31
1106.0000
 12
5591.9126
 22
-855.1396
 32
1106.0000
 13
5431.9129
 23
-854.8603
 33
1106.0000
 70
15
  0
3DFACE
  5
10E0
  8
חשמל
 10
5431.8867
 20
-869.8603
 30
1186.0000
 11
5591.8864
 21
-870.1395
 31
1186.0000
 12
5591.9126
 22
-855.1396
 32
1186.0000
 13
5431.9129
 23
-854.8603
 33
1186.0000
 70
15
  0
3DFACE
  5
10E1
  8
חשמל
 10
5431.8867
 20
-869.8603
 30
1106.0000
 11
5591.8864
 21
-870.1395
 31
1106.0000
 12
5591.8864
 22
-870.1395
 32
1186.0000
 13
5431.8867
 23
-869.8603
 33
1186.0000
 70
15
  0
3DFACE
  5
10E2
  8
חשמל
 10
5591.8864
 20
-870.1395
 30
1106.0000
 11
5591.9126
 21
-855.1396
 31
1106.0000
 12
5591.9126
 22
-855.1396
 32
1186.0000
 13
5591.8864
 23
-870.1395
 33
1186.0000
 70
15
  0
3DFACE
  5
10E3
  8
חשמל
 10
5591.9126
 20
-855.1396
 30
1106.0000
 11
5431.9129
 21
-854.8603
 31
1106.0000
 12
5431.9129
 22
-854.8603
 32
1186.0000
 13
5591.9126
 23
-855.1396
 33
1186.0000
 70
15
  0
3DFACE
  5
10E4
  8
חשמל
 10
5431.9129
 20
-854.8603
 30
1106.0000
 11
5431.8867
 21
-869.8603
 31
1106.0000
 12
5431.8867
 22
-869.8603
 32
1186.0000
 13
5431.9129
 23
-854.8603
 33
1186.0000
 70
15
  0
INSERT
  5
10E5
  8
חשמל
  2
SOCKET
 10
5225.0000
 20
-804.0000
 30
477.0000
 41
1.0000
 42
1.0000
 43
1.0000
 50
359.9000
  0
3DFACE
  5
10E6
  8
חשמל
 10
5184.8866
 20
-868.9301
 30
477.0000
 11
5264.8865
 21
-869.0697
 31
477.0000
 12
5264.9127
 22
-854.0697
 32
477.0000
 13
5184.9128
 23
-853.9301
 33
477.0000
 70
15
  0
3DFACE
  5
10E7
  8
חשמל
 10
5184.8866
 20
-868.9301
 30
557.0000
 11
5264.8865
 21
-869.0697
 31
557.0000
 12
5264.9127
 22
-854.0697
 32
557.0000
 13
5184.9128
 23
-853.9301
 33
557.0000
 70
15
  0
3DFACE
  5
10E8
  8
חשמל
 10
5184.8866
 20
-868.9301
 30
477.0000
 11
5264.8865
 21
-869.0697
 31
477.0000
 12
5264.8865
 22
-869.0697
 32
557.0000
 13
5184.8866
 23
-868.9301
 33
557.0000
 70
15
  0
3DFACE
  5
10E9
  8
חשמל
 10
5264.8865
 20
-869.0697
 30
477.0000
 11
5264.9127
 21
-854.0697
 31
477.0000
 12
5264.9127
 22
-854.0697
 32
557.0000
 13
5264.8865
 23
-869.0697
 33
557.0000
 70
15
  0
3DFACE
  5
10EA
  8
חשמל
 10
5264.9127
 20
-854.0697
 30
477.0000
 11
5184.9128
 21
-853.9301
 31
477.0000
 12
5184.9128
 22
-853.9301
 32
557.0000
 13
5264.9127
 23
-854.0697
 33
557.0000
 70
15
  0
3DFACE
  5
10EB
  8
חשמל
 10
5184.9128
 20
-853.9301
 30
477.0000
 11
5184.8866
 21
-868.9301
 31
477.0000
 12
5184.8866
 22
-868.9301
 32
557.0000
 13
5184.9128
 23
-853.9301
 33
557.0000
 70
15
  0
INSERT
  5
10EC
  8
מים
  2
FAUCET
 10
5067.0000
 20
-804.0000
 30
416.0000
 41
1.0000
 42
1.0000
 43
1.0000
 50
359.9000
  0
3DFACE
  5
10ED
  8
מים
 10
5056.8778
 20
-873.9824
 30
416.0000
 11
5076.8778
 21
-874.0173
 31
416.0000
 12
5076.9127
 22
-854.0174
 32
416.0000
 13
5056.9127
 23
-853.9825
 33
416.0000
 70
15
  0
3DFACE
  5
10EE
  8
מים
 10
5056.8778
 20
-873.9824
 30
436.0000
 11
5076.8778
 21
-874.0173
 31
436.0000
 12
5076.9127
 22
-854.0174
 32
436.0000
 13
5056.9127
 23
-853.9825
 33
436.0000
 70
15
  0
3DFACE
  5
10EF
  8
מים
 10
5056.8778
 20
-873.9824
 30
416.0000
 11
5076.8778
 21
-874.0173
 31
416.0000
 12
5076.8778
 22
-874.0173
 32
436.0000
 13
5056.8778
 23
-873.9824
 33
436.0000
 70
15
  0
3DFACE
  5
10F0
  8
מים
 10
5076.8778
 20
-874.0173
 30
416.0000
 11
5076.9127
 21
-854.0174
 31
416.0000
 12
5076.9127
 22
-854.0174
 32
436.0000
 13
5076.8778
 23
-874.0173
 33
436.0000
 70
15
  0
3DFACE
  5
10F1
  8
מים
 10
5076.9127
 20
-854.0174
 30
416.0000
 11
5056.9127
 21
-853.9825
 31
416.0000
 12
5056.9127
 22
-853.9825
 32
436.0000
 13
5076.9127
 23
-854.0174
 33
436.0000
 70
15
  0
3DFACE
  5
10F2
  8
מים
 10
5056.9127
 20
-853.9825
 30
416.0000
 11
5056.8778
 21
-873.9824
 31
416.0000
 12
5056.8778
 22
-873.9824
 32
436.0000
 13
5056.9127
 23
-853.9825
 33
436.0000
 70
15
  0
INSERT
  5
10F3
  8
מים
  2
FAUCET
 10
4926.0000
 20
-804.0000
 30
419.0000
 41
1.0000
 42
1.0000
 43
1.0000
 50
359.9000
  0
3DFACE
  5
10F4
  8
מים
 10
4915.8778
 20
-873.9824
 30
419.0000
 11
4935.8778
 21
-874.0173
 31
419.0000
 12
4935.9127
 22
-854.0174
 32
419.0000
 13
4915.9127
 23
-853.9825
 33
419.0000
 70
15
  0
3DFACE
  5
10F5
  8
מים
 10
4915.8778
 20
-873.9824
 30
439.0000
 11
4935.8778
 21
-874.0173
 31
439.0000
 12
4935.9127
 22
-854.0174
 32
439.0000
 13
4915.9127
 23
-853.9825
 33
439.0000
 70
15
  0
3DFACE
  5
10F6
  8
מים
 10
4915.8778
 20
-873.9824
 30
419.0000
 11
4935.8778
 21
-874.0173
 31
419.0000
 12
4935.8778
 22
-874.0173
 32
439.0000
 13
4915.8778
 23
-873.9824
 33
439.0000
 70
15
  0
3DFACE
  5
10F7
  8
מים
 10
4935.8778
 20
-874.0173
 30
419.0000
 11
4935.9127
 21
-854.0174
 31
419.0000
 12
4935.9127
 22
-854.0174
 32
439.0000
 13
4935.8778
 23
-874.0173
 33
439.0000
 70
15
  0
3DFACE
  5
10F8
  8
מים
 10
4935.9127
 20
-854.0174
 30
419.0000
 11
4915.9127
 21
-853.9825
 31
419.0000
 12
4915.9127
 22
-853.9825
 32
439.0000
 13
4935.9127
 23
-854.0174
 33
439.0000
 70
15
  0
3DFACE
  5
10F9
  8
מים
 10
4915.9127
 20
-853.9825
 30
419.0000
 11
4915.8778
 21
-873.9824
 31
419.0000
 12
4915.8778
 22
-873.9824
 32
439.0000
 13
4915.9127
 23
-853.9825
 33
439.0000
 70
15
  0
INSERT
  5
10FA
  8
מים
  2
SEWAGE
 10
4902.0000
 20
-804.0000
 30
-27.0000
 41
1.0000
 42
1.0000
 43
1.0000
 50
359.9000
  0
3DFACE
  5
10FB
  8
ניקוז
 10
4876.8255
 20
-903.9562
 30
-27.0000
 11
4926.8254
 21
-904.0435
 31
-27.0000
 12
4926.9127
 22
-854.0436
 32
-27.0000
 13
4876.9128
 23
-853.9563
 33
-27.0000
 70
15
  0
3DFACE
  5
10FC
  8
ניקוז
 10
4876.8255
 20
-903.9562
 30
23.0000
 11
4926.8254
 21
-904.0435
 31
23.0000
 12
4926.9127
 22
-854.0436
 32
23.0000
 13
4876.9128
 23
-853.9563
 33
23.0000
 70
15
  0
3DFACE
  5
10FD
  8
ניקוז
 10
4876.8255
 20
-903.9562
 30
-27.0000
 11
4926.8254
 21
-904.0435
 31
-27.0000
 12
4926.8254
 22
-904.0435
 32
23.0000
 13
4876.8255
 23
-903.9562
 33
23.0000
 70
15
  0
3DFACE
  5
10FE
  8
ניקוז
 10
4926.8254
 20
-904.0435
 30
-27.0000
 11
4926.9127
 21
-854.0436
 31
-27.0000
 12
4926.9127
 22
-854.0436
 32
23.0000
 13
4926.8254
 23
-904.0435
 33
23.0000
 70
15
  0
3DFACE
  5
10FF
  8
ניקוז
 10
4926.9127
 20
-854.0436
 30
-27.0000
 11
4876.9128
 21
-853.9563
 31
-27.0000
 12
4876.9128
 22
-853.9563
 32
23.0000
 13
4926.9127
 23
-854.0436
 33
23.0000
 70
15
  0
3DFACE
  5
1100
  8
ניקוז
 10
4876.9128
 20
-853.9563
 30
-27.0000
 11
4876.8255
 21
-903.9562
 31
-27.0000
 12
4876.8255
 22
-903.9562
 32
23.0000
 13
4876.9128
 23
-853.9563
 33
23.0000
 70
15
  0
INSERT
  5
1101
  8
מים
  2
SEWAGE
 10
4771.0000
 20
-803.0000
 30
-2.0000
 41
1.0000
 42
1.0000
 43
1.0000
 50
359.9000
  0
3DFACE
  5
1102
  8
ניקוז
 10
4710.7034
 20
-972.8950
 30
-2.0000
 11
4830.7032
 21
-973.1045
 31
-2.0000
 12
4830.9126
 22
-853.1046
 32
-2.0000
 13
4710.9128
 23
-852.8952
 33
-2.0000
 70
15
  0
3DFACE
  5
1103
  8
ניקוז
 10
4710.7034
 20
-972.8950
 30
18.0000
 11
4830.7032
 21
-973.1045
 31
18.0000
 12
4830.9126
 22
-853.1046
 32
18.0000
 13
4710.9128
 23
-852.8952
 33
18.0000
 70
15
  0
3DFACE
  5
1104
  8
ניקוז
 10
4710.7034
 20
-972.8950
 30
-2.0000
 11
4830.7032
 21
-973.1045
 31
-2.0000
 12
4830.7032
 22
-973.1045
 32
18.0000
 13
4710.7034
 23
-972.8950
 33
18.0000
 70
15
  0
3DFACE
  5
1105
  8
ניקוז
 10
4830.7032
 20
-973.1045
 30
-2.0000
 11
4830.9126
 21
-853.1046
 31
-2.0000
 12
4830.9126
 22
-853.1046
 32
18.0000
 13
4830.7032
 23
-973.1045
 33
18.0000
 70
15
  0
3DFACE
  5
1106
  8
ניקוז
 10
4830.9126
 20
-853.1046
 30
-2.0000
 11
4710.9128
 21
-852.8952
 31
-2.0000
 12
4710.9128
 22
-852.8952
 32
18.0000
 13
4830.9126
 23
-853.1046
 33
18.0000
 70
15
  0
3DFACE
  5
1107
  8
ניקוז
 10
4710.9128
 20
-852.8952
 30
-2.0000
 11
4710.7034
 21
-972.8950
 31
-2.0000
 12
4710.7034
 22
-972.8950
 32
18.0000
 13
4710.9128
 23
-852.8952
 33
18.0000
 70
15
  0
INSERT
  5
1108
  8
חשמל
  2
DUPLEXSWITCH
 10
4505.0000
 20
-803.0000
 30
1096.0000
 41
1.0000
 42
1.0000
 43
1.0000
 50
359.9000
  0
3DFACE
  5
1109
  8
חשמל
 10
4424.8867
 20
-867.8603
 30
1096.0000
 11
4584.8864
 21
-868.1395
 31
1096.0000
 12
4584.9126
 22
-853.1396
 32
1096.0000
 13
4424.9129
 23
-852.8603
 33
1096.0000
 70
15
  0
3DFACE
  5
110A
  8
חשמל
 10
4424.8867
 20
-867.8603
 30
1176.0000
 11
4584.8864
 21
-868.1395
 31
1176.0000
 12
4584.9126
 22
-853.1396
 32
1176.0000
 13
4424.9129
 23
-852.8603
 33
1176.0000
 70
15
  0
3DFACE
  5
110B
  8
חשמל
 10
4424.8867
 20
-867.8603
 30
1096.0000
 11
4584.8864
 21
-868.1395
 31
1096.0000
 12
4584.8864
 22
-868.1395
 32
1176.0000
 13
4424.8867
 23
-867.8603
 33
1176.0000
 70
15
  0
3DFACE
  5
110C
  8
חשמל
 10
4584.8864
 20
-868.1395
 30
1096.0000
 11
4584.9126
 21
-853.1396
 31
1096.0000
 12
4584.9126
 22
-853.1396
 32
1176.0000
 13
4584.8864
 23
-868.1395
 33
1176.0000
 70
15
  0
3DFACE
  5
110D
  8
חשמל
 10
4584.9126
 20
-853.1396
 30
1096.0000
 11
4424.9129
 21
-852.8603
 31
1096.0000
 12
4424.9129
 22
-852.8603
 32
1176.0000
 13
4584.9126
 23
-853.1396
 33
1176.0000
 70
15
  0
3DFACE
  5
110E
  8
חשמל
 10
4424.9129
 20
-852.8603
 30
1096.0000
 11
4424.8867
 21
-867.8603
 31
1096.0000
 12
4424.8867
 22
-867.8603
 32
1176.0000
 13
4424.9129
 23
-852.8603
 33
1176.0000
 70
15
  0
INSERT
  5
110F
  8
חשמל
  2
SOCKET
 10
4506.0000
 20
-803.0000
 30
1844.0000
 41
1.0000
 42
1.0000
 43
1.0000
 50
359.9000
  0
3DFACE
  5
1110
  8
חשמל
 10
4465.8866
 20
-867.9301
 30
1844.0000
 11
4545.8865
 21
-868.0697
 31
1844.0000
 12
4545.9127
 22
-853.0697
 32
1844.0000
 13
4465.9128
 23
-852.9301
 33
1844.0000
 70
15
  0
3DFACE
  5
1111
  8
חשמל
 10
4465.8866
 20
-867.9301
 30
1924.0000
 11
4545.8865
 21
-868.0697
 31
1924.0000
 12
4545.9127
 22
-853.0697
 32
1924.0000
 13
4465.9128
 23
-852.9301
 33
1924.0000
 70
15
  0
3DFACE
  5
1112
  8
חשמל
 10
4465.8866
 20
-867.9301
 30
1844.0000
 11
4545.8865
 21
-868.0697
 31
1844.0000
 12
4545.8865
 22
-868.0697
 32
1924.0000
 13
4465.8866
 23
-867.9301
 33
1924.0000
 70
15
  0
3DFACE
  5
1113
  8
חשמל
 10
4545.8865
 20
-868.0697
 30
1844.0000
 11
4545.9127
 21
-853.0697
 31
1844.0000
 12
4545.9127
 22
-853.0697
 32
1924.0000
 13
4545.8865
 23
-868.0697
 33
1924.0000
 70
15
  0
3DFACE
  5
1114
  8
חשמל
 10
4545.9127
 20
-853.0697
 30
1844.0000
 11
4465.9128
 21
-852.9301
 31
1844.0000
 12
4465.9128
 22
-852.9301
 32
1924.0000
 13
4545.9127
 23
-853.0697
 33
1924.0000
 70
15
  0
3DFACE
  5
1115
  8
חשמל
 10
4465.9128
 20
-852.9301
 30
1844.0000
 11
4465.8866
 21
-867.9301
 31
1844.0000
 12
4465.8866
 22
-867.9301
 32
1924.0000
 13
4465.9128
 23
-852.9301
 33
1924.0000
 70
15
  0
INSERT
  5
1116
  8
חשמל
  2
SOCKET
 10
3280.0000
 20
-801.0000
 30
1736.0000
 41
1.0000
 42
1.0000
 43
1.0000
 50
359.9000
  0
3DFACE
  5
1117
  8
חשמל
 10
3239.8866
 20
-865.9301
 30
1736.0000
 11
3319.8865
 21
-866.0697
 31
1736.0000
 12
3319.9127
 22
-851.0697
 32
1736.0000
 13
3239.9128
 23
-850.9301
 33
1736.0000
 70
15
  0
3DFACE
  5
1118
  8
חשמל
 10
3239.8866
 20
-865.9301
 30
1816.0000
 11
3319.8865
 21
-866.0697
 31
1816.0000
 12
3319.9127
 22
-851.0697
 32
1816.0000
 13
3239.9128
 23
-850.9301
 33
1816.0000
 70
15
  0
3DFACE
  5
1119
  8
חשמל
 10
3239.8866
 20
-865.9301
 30
1736.0000
 11
3319.8865
 21
-866.0697
 31
1736.0000
 12
3319.8865
 22
-866.0697
 32
1816.0000
 13
3239.8866
 23
-865.9301
 33
1816.0000
 70
15
  0
3DFACE
  5
111A
  8
חשמל
 10
3319.8865
 20
-866.0697
 30
1736.0000
 11
3319.9127
 21
-851.0697
 31
1736.0000
 12
3319.9127
 22
-851.0697
 32
1816.0000
 13
3319.8865
 23
-866.0697
 33
1816.0000
 70
15
  0
3DFACE
  5
111B
  8
חשמל
 10
3319.9127
 20
-851.0697
 30
1736.0000
 11
3239.9128
 21
-850.9301
 31
1736.0000
 12
3239.9128
 22
-850.9301
 32
1816.0000
 13
3319.9127
 23
-851.0697
 33
1816.0000
 70
15
  0
3DFACE
  5
111C
  8
חשמל
 10
3239.9128
 20
-850.9301
 30
1736.0000
 11
3239.8866
 21
-865.9301
 31
1736.0000
 12
3239.8866
 22
-865.9301
 32
1816.0000
 13
3239.9128
 23
-850.9301
 33
1816.0000
 70
15
  0
ENDSEC
  0
EOF
