  0
SECTION
  2
HEADER
  9
$ACADVER
  1
AC1009
  9
$INSBASE
 10
0.0000
 20
0.0000
 30
0.0000
  9
$EXTMIN
 10
1241.5000
 20
-8205.5000
 30
0.0000
  9
$EXTMAX
 10
7667.3747
 20
-643.0000
 30
0.0000
  9
$DWGCODEPAGE
  3
ansi_1255
  9
$INSUNITS
 70
4
  9
$LTSCALE
 40
10.0000
  9
$LIMMIN
 10
0.0000
 20
0.0000
  9
$LIMMAX
 10
2000.0000
 20
200.0000
  0
ENDSEC
  0
SECTION
  2
TABLES
  0
TABLE
  2
VPORT
 70
1
  0
VPORT
  2
*ACTIVE
 70
0
 10
0.0000
 20
0.0000
 11
1.0000
 21
1.0000
 12
4454.4373
 22
-4424.2500
 13
0.0000
 23
0.0000
 14
10.0000
 24
10.0000
 15
10.0000
 25
10.0000
 16
0.0000
 26
0.0000
 36
1.0000
 17
0.0000
 27
0.0000
 37
0.0000
 40
8318.7500
 41
1.0000
 42
50.0000
 43
0.0000
 44
0.0000
 50
0.0000
 51
0.0000
 71
0
 72
100
 73
1
 74
1
 75
0
 76
0
 77
0
 78
0
  0
ENDTAB
  0
TABLE
  2
LTYPE
 70
2
  0
LTYPE
  2
CONTINUOUS
 70
0
  3
Solid line
 72
65
 73
0
 40
0.0000
  0
LTYPE
  2
HIDDEN
 70
0
  3
Hidden __ __ __ __ __ __ __ __ __ __ __ __ __ __
 72
65
 73
2
 40
0.3750
 49
0.2500
 49
-0.1250
  0
ENDTAB
  0
TABLE
  2
LAYER
 70
37
  0
LAYER
  2
0
 70
0
 62
7
  6
CONTINUOUS
  0
LAYER
  2
Electrical
 70
0
 62
6
  6
CONTINUOUS
  0
LAYER
  2
Plumbing
 70
0
 62
150
  6
CONTINUOUS
  0
LAYER
  2
Const_Walls
 70
0
 62
253
  6
CONTINUOUS
  0
LAYER
  2
Dim
 70
0
 62
9
  6
CONTINUOUS
  0
LAYER
  2
Text
 70
0
 62
74
  6
CONTINUOUS
  0
LAYER
  2
HVAC
 70
0
 62
4
  6
CONTINUOUS
  0
LAYER
  2
Misc
 70
0
 62
32
  6
HIDDEN
  0
LAYER
  2
Dim_Markers
 70
0
 62
9
  6
CONTINUOUS
  0
LAYER
  2
Dim_Wall
 70
0
 62
9
  6
CONTINUOUS
  0
LAYER
  2
Const_Doors
 70
0
 62
5
  6
CONTINUOUS
  0
LAYER
  2
Const_Windows
 70
0
 62
152
  6
CONTINUOUS
  0
LAYER
  2
Text_Legend
 70
0
 62
74
  6
CONTINUOUS
  0
LAYER
  2
Text_JobInfo
 70
0
 62
74
  6
CONTINUOUS
  0
LAYER
  2
Dim_Overall
 70
0
 62
-9
  6
CONTINUOUS
  0
LAYER
  2
Dim_Embeded
 70
0
 62
-9
  6
CONTINUOUS
  0
LAYER
  2
Dim_Angles_Auto
 70
0
 62
3
  6
CONTINUOUS
  0
LAYER
  2
Text_AreaNo
 70
0
 62
-74
  6
CONTINUOUS
  0
LAYER
  2
Dim_ArcChord
 70
0
 62
9
  6
HIDDEN
  0
LAYER
  2
Const_Walls_Ext
 70
0
 62
253
  6
CONTINUOUS
  0
LAYER
  2
Dim_Verification
 70
0
 62
-9
  6
CONTINUOUS
  0
LAYER
  2
Dim_Radius
 70
0
 62
9
  6
CONTINUOUS
  0
LAYER
  2
Dim_Angles
 70
0
 62
9
  6
CONTINUOUS
  0
LAYER
  2
Z_Other
 70
0
 62
253
  6
CONTINUOUS
  0
LAYER
  2
Const_Stairs
 70
0
 62
253
  6
CONTINUOUS
  0
LAYER
  2
Misc_Cabinets
 70
0
 62
36
  6
CONTINUOUS
  0
LAYER
  2
Z_Scale_Ruler
 70
0
 62
7
  6
CONTINUOUS
  0
LAYER
  2
Const_Fill
 70
0
 62
253
  6
CONTINUOUS
  0
LAYER
  2
Wall_Image
 70
0
 62
7
  6
CONTINUOUS
  0
LAYER
  2
Exterior_walls
 70
0
 62
5
  6
CONTINUOUS
  0
LAYER
  2
HVAC_DIM
 70
0
 62
4
  6
CONTINUOUS
  0
LAYER
  2
HVAC_H
 70
0
 62
4
  6
CONTINUOUS
  0
LAYER
  2
Electrical_DIM
 70
0
 62
6
  6
CONTINUOUS
  0
LAYER
  2
Electrical_H
 70
0
 62
6
  6
CONTINUOUS
  0
LAYER
  2
Plumbing_DIM
 70
0
 62
150
  6
CONTINUOUS
  0
LAYER
  2
Plumbing_H
 70
0
 62
150
  6
CONTINUOUS
  0
LAYER
  2
datum
 70
0
 62
1
  6
CONTINUOUS
  0
ENDTAB
  0
TABLE
  2
STYLE
 70
1
  0
STYLE
  2
STANDARD
 70
0
 40
0.0000
 41
1.0000
 50
0.0000
 71
0
 42
10.0000
  3
ARIAL.TTF
  4

  0
ENDTAB
  0
ENDSEC
  0
SECTION
  2
BLOCKS
  0
BLOCK
  8
0
  2
GAS
 70
0
 10
0.0000
 20
0.0000
 30
0.0000
  0
LINE
  5
10D5
  8
0
 10
0.0000
 20
0.0000
 30
0.0000
 11
0.0000
 21
18.0000
 31
0.0000
  0
ARC
  5
10D6
  8
0
 10
0.0000
 20
62.0000
 30
0.0000
 40
44.0000
 50
0.0000
 51
360.0000
  0
LINE
  5
10D7
  8
0
 10
-16.0000
 20
52.0000
 30
0.0000
 11
0.0000
 21
78.0000
 31
0.0000
  0
LINE
  5
10D8
  8
0
 10
0.0000
 20
78.0000
 30
0.0000
 11
16.0000
 21
52.0000
 31
0.0000
  0
LINE
  5
10D9
  8
0
 10
0.0000
 20
45.0000
 30
0.0000
 11
0.0000
 21
70.0000
 31
0.0000
  0
ENDBLK
  5
10DA
  8
0
  0
BLOCK
  8
0
  2
SOCKET
 70
0
 10
0.0000
 20
0.0000
 30
0.0000
  0
LINE
  5
10DB
  8
0
 10
0.0000
 20
0.0000
 30
0.0000
 11
0.0000
 21
20.0000
 31
0.0000
  0
ARC
  5
10DC
  8
0
 10
0.0000
 20
70.0000
 30
0.0000
 40
50.0000
 50
0.0000
 51
360.0000
  0
LINE
  5
10DD
  8
0
 10
-50.0000
 20
70.0000
 30
0.0000
 11
50.0000
 21
70.0000
 31
0.0000
  0
LINE
  5
10DE
  8
0
 10
-18.0000
 20
55.0000
 30
0.0000
 11
-18.0000
 21
85.0000
 31
0.0000
  0
LINE
  5
10DF
  8
0
 10
18.0000
 20
55.0000
 30
0.0000
 11
18.0000
 21
85.0000
 31
0.0000
  0
ENDBLK
  5
10E0
  8
0
  0
BLOCK
  8
0
  2
DUPLEXSWITCH
 70
0
 10
0.0000
 20
0.0000
 30
0.0000
  0
LINE
  5
10E1
  8
0
 10
0.0000
 20
0.0000
 30
0.0000
 11
0.0000
 21
20.0000
 31
0.0000
  0
ARC
  5
10E2
  8
0
 10
-45.0000
 20
70.0000
 30
0.0000
 40
38.0000
 50
0.0000
 51
360.0000
  0
ARC
  5
10E3
  8
0
 10
45.0000
 20
70.0000
 30
0.0000
 40
38.0000
 50
0.0000
 51
360.0000
  0
LINE
  5
10E4
  8
0
 10
-45.0000
 20
55.0000
 30
0.0000
 11
-45.0000
 21
85.0000
 31
0.0000
  0
LINE
  5
10E5
  8
0
 10
45.0000
 20
55.0000
 30
0.0000
 11
45.0000
 21
85.0000
 31
0.0000
  0
ENDBLK
  5
10E6
  8
0
  0
BLOCK
  8
0
  2
CONTROLBOX
 70
0
 10
0.0000
 20
0.0000
 30
0.0000
  0
LINE
  5
10E7
  8
0
 10
-90.0000
 20
0.0000
 30
0.0000
 11
90.0000
 21
0.0000
 31
0.0000
  0
LINE
  5
10E8
  8
0
 10
90.0000
 20
0.0000
 30
0.0000
 11
90.0000
 21
70.0000
 31
0.0000
  0
LINE
  5
10E9
  8
0
 10
90.0000
 20
70.0000
 30
0.0000
 11
-90.0000
 21
70.0000
 31
0.0000
  0
LINE
  5
10EA
  8
0
 10
-90.0000
 20
70.0000
 30
0.0000
 11
-90.0000
 21
0.0000
 31
0.0000
  0
LINE
  5
10EB
  8
0
 10
-90.0000
 20
0.0000
 30
0.0000
 11
90.0000
 21
70.0000
 31
0.0000
  0
ENDBLK
  5
10EC
  8
0
  0
BLOCK
  8
0
  2
LIGHTING
 70
0
 10
0.0000
 20
0.0000
 30
0.0000
  0
ARC
  5
10ED
  8
0
 10
0.0000
 20
0.0000
 30
0.0000
 40
55.0000
 50
0.0000
 51
360.0000
  0
LINE
  5
10EE
  8
0
 10
-38.0000
 20
-38.0000
 30
0.0000
 11
38.0000
 21
38.0000
 31
0.0000
  0
LINE
  5
10EF
  8
0
 10
-38.0000
 20
38.0000
 30
0.0000
 11
38.0000
 21
-38.0000
 31
0.0000
  0
ENDBLK
  5
10F0
  8
0
  0
BLOCK
  8
0
  2
FAUCET
 70
0
 10
0.0000
 20
0.0000
 30
0.0000
  0
LINE
  5
10F1
  8
0
 10
0.0000
 20
0.0000
 30
0.0000
 11
0.0000
 21
12.0000
 31
0.0000
  0
ARC
  5
10F2
  8
0
 10
0.0000
 20
57.0000
 30
0.0000
 40
45.0000
 50
0.0000
 51
360.0000
  0
LINE
  5
10F3
  8
0
 10
-32.0000
 20
57.0000
 30
0.0000
 11
32.0000
 21
57.0000
 31
0.0000
  0
LINE
  5
10F4
  8
0
 10
0.0000
 20
25.0000
 30
0.0000
 11
0.0000
 21
89.0000
 31
0.0000
  0
ENDBLK
  5
10F5
  8
0
  0
BLOCK
  8
0
  2
SEWAGE
 70
0
 10
0.0000
 20
0.0000
 30
0.0000
  0
LINE
  5
10F6
  8
0
 10
0.0000
 20
0.0000
 30
0.0000
 11
0.0000
 21
10.0000
 31
0.0000
  0
ARC
  5
10F7
  8
0
 10
0.0000
 20
50.0000
 30
0.0000
 40
45.0000
 50
0.0000
 51
360.0000
  0
LINE
  5
10F8
  8
0
 10
-30.0000
 20
20.0000
 30
0.0000
 11
30.0000
 21
80.0000
 31
0.0000
  0
LINE
  5
10F9
  8
0
 10
-30.0000
 20
80.0000
 30
0.0000
 11
30.0000
 21
20.0000
 31
0.0000
  0
ENDBLK
  5
10FA
  8
0
  0
BLOCK
  8
0
  2
WINDOW1
 70
0
 10
0.0000
 20
0.0000
 30
0.0000
  0
LINE
  5
10FB
  8
0
 10
-0.5000
 20
-0.5000
 30
0.0000
 11
0.5000
 21
-0.5000
 31
0.0000
  0
LINE
  5
10FC
  8
0
 10
0.5000
 20
-0.5000
 30
0.0000
 11
0.5000
 21
0.5000
 31
0.0000
  0
LINE
  5
10FD
  8
0
 10
0.5000
 20
0.5000
 30
0.0000
 11
-0.5000
 21
0.5000
 31
0.0000
  0
LINE
  5
10FE
  8
0
 10
-0.5000
 20
0.5000
 30
0.0000
 11
-0.5000
 21
-0.5000
 31
0.0000
  0
LINE
  5
10FF
  8
0
 10
-0.5000
 20
0.0000
 30
0.0000
 11
0.5000
 21
0.0000
 31
0.0000
  0
ENDBLK
  5
1100
  8
0
  0
BLOCK
  8
0
  2
DOOR1
 70
0
 10
0.0000
 20
0.0000
 30
0.0000
  0
LINE
  5
1101
  8
0
 10
-0.5000
 20
-0.5000
 30
0.0000
 11
-0.5000
 21
0.5000
 31
0.0000
  0
LINE
  5
1102
  8
0
 10
-0.5000
 20
0.5000
 30
0.0000
 11
0.5000
 21
0.5000
 31
0.0000
  0
ARC
  5
1103
  8
0
 10
-0.5000
 20
-0.5000
 30
0.0000
 40
1.0000
 50
0.0000
 51
90.0000
  0
ENDBLK
  5
1104
  8
0
  0
ENDSEC
  0
SECTION
  2
ENTITIES
  0
LINE
  5
1000
  8
Const_Walls_Ext
 10
2720.0000
 20
-7043.0000
 30
0.0000
 11
2720.0000
 21
-800.0000
 31
0.0000
  0
LINE
  5
1001
  8
Const_Walls
 10
2820.0000
 20
-7043.0000
 30
0.0000
 11
2820.0000
 21
-800.0000
 31
0.0000
  0
LINE
  5
1002
  8
Const_Walls
 10
2720.0000
 20
-7043.0000
 30
0.0000
 11
2820.0000
 21
-7043.0000
 31
0.0000
  0
LINE
  5
1003
  8
Const_Walls
 10
2720.0000
 20
-800.0000
 30
0.0000
 11
2820.0000
 21
-800.0000
 31
0.0000
  0
SOLID
  5
1004
  8
Const_Fill
 10
2720.0000
 20
-7043.0000
 30
0.0000
 11
2720.0000
 21
-800.0000
 31
0.0000
 12
2820.0000
 22
-7043.0000
 32
0.0000
 13
2820.0000
 23
-800.0000
 33
0.0000
  0
LINE
  5
1005
  8
Dim_Wall
 10
2770.0000
 20
-7043.0000
 30
0.0000
 11
2310.0000
 21
-7043.0000
 31
0.0000
  0
LINE
  5
1006
  8
Dim_Wall
 10
2770.0000
 20
-800.0000
 30
0.0000
 11
2310.0000
 21
-800.0000
 31
0.0000
  0
LINE
  5
1007
  8
Dim_Wall
 10
2370.0000
 20
-7043.0000
 30
0.0000
 11
2370.0000
 21
-800.0000
 31
0.0000
  0
SOLID
  5
1008
  8
Dim_Wall
 10
2370.0000
 20
-7043.0000
 30
0.0000
 11
2340.0000
 21
-7133.0000
 31
0.0000
 12
2400.0000
 22
-7133.0000
 32
0.0000
 13
2400.0000
 23
-7133.0000
 33
0.0000
  0
SOLID
  5
1009
  8
Dim_Wall
 10
2370.0000
 20
-800.0000
 30
0.0000
 11
2340.0000
 21
-710.0000
 31
0.0000
 12
2400.0000
 22
-710.0000
 32
0.0000
 13
2400.0000
 23
-710.0000
 33
0.0000
  0
TEXT
  5
100A
  8
Dim_Wall
 10
2322.0000
 20
-3921.5000
 30
0.0000
 40
120.0000
 50
90.0000
  1
624.3
  7
STANDARD
  0
LINE
  5
100B
  8
Const_Walls_Ext
 10
2770.0873
 20
-750.0001
 30
0.0000
 11
6365.0818
 21
-756.2745
 31
0.0000
  0
LINE
  5
100C
  8
Const_Walls
 10
2769.9127
 20
-849.9999
 30
0.0000
 11
6364.9073
 21
-856.2744
 31
0.0000
  0
LINE
  5
100D
  8
Const_Walls
 10
2770.0873
 20
-750.0001
 30
0.0000
 11
2769.9127
 21
-849.9999
 31
0.0000
  0
LINE
  5
100E
  8
Const_Walls
 10
6365.0818
 20
-756.2745
 30
0.0000
 11
6364.9073
 21
-856.2744
 31
0.0000
  0
SOLID
  5
100F
  8
Const_Fill
 10
2770.0873
 20
-750.0001
 30
0.0000
 11
6365.0818
 21
-756.2745
 31
0.0000
 12
2769.9127
 22
-849.9999
 32
0.0000
 13
6364.9073
 23
-856.2744
 33
0.0000
  0
LINE
  5
1010
  8
Dim_Wall
 10
2770.0000
 20
-800.0000
 30
0.0000
 11
2770.8029
 21
-340.0007
 31
0.0000
  0
LINE
  5
1011
  8
Dim_Wall
 10
6364.9945
 20
-806.2745
 30
0.0000
 11
6365.7974
 21
-346.2752
 31
0.0000
  0
LINE
  5
1012
  8
Dim_Wall
 10
2770.6981
 20
-400.0006
 30
0.0000
 11
6365.6927
 21
-406.2751
 31
0.0000
  0
SOLID
  5
1013
  8
Dim_Wall
 10
2770.6981
 20
-400.0006
 30
0.0000
 11
2680.7506
 21
-369.8436
 31
0.0000
 12
2680.6459
 22
-429.8435
 32
0.0000
 13
2680.6459
 23
-429.8435
 33
0.0000
  0
SOLID
  5
1014
  8
Dim_Wall
 10
6365.6927
 20
-406.2751
 30
0.0000
 11
6455.7449
 21
-376.4322
 31
0.0000
 12
6455.6402
 22
-436.4321
 32
0.0000
 13
6455.6402
 23
-436.4321
 33
0.0000
  0
TEXT
  5
1015
  8
Dim_Wall
 10
4568.2792
 20
-355.1379
 30
0.0000
 40
120.0000
 50
-0.1000
  1
359.5
  7
STANDARD
  0
LINE
  5
1016
  8
Const_Walls_Ext
 10
6414.9944
 20
-806.3617
 30
0.0000
 11
6413.3765
 21
-1733.3603
 31
0.0000
  0
LINE
  5
1017
  8
Const_Walls
 10
6314.9946
 20
-806.1872
 30
0.0000
 11
6313.3767
 21
-1733.1858
 31
0.0000
  0
LINE
  5
1018
  8
Const_Walls
 10
6414.9944
 20
-806.3617
 30
0.0000
 11
6314.9946
 21
-806.1872
 31
0.0000
  0
LINE
  5
1019
  8
Const_Walls
 10
6413.3765
 20
-1733.3603
 30
0.0000
 11
6313.3767
 21
-1733.1858
 31
0.0000
  0
SOLID
  5
101A
  8
Const_Fill
 10
6414.9944
 20
-806.3617
 30
0.0000
 11
6413.3765
 21
-1733.3603
 31
0.0000
 12
6314.9946
 22
-806.1872
 32
0.0000
 13
6313.3767
 23
-1733.1858
 33
0.0000
  0
LINE
  5
101B
  8
Dim_Wall
 10
6364.9945
 20
-806.2745
 30
0.0000
 11
6824.9938
 21
-807.0773
 31
0.0000
  0
LINE
  5
101C
  8
Dim_Wall
 10
6363.3766
 20
-1733.2730
 30
0.0000
 11
6823.3759
 21
-1734.0759
 31
0.0000
  0
LINE
  5
101D
  8
Dim_Wall
 10
6764.9939
 20
-806.9726
 30
0.0000
 11
6763.3760
 21
-1733.9712
 31
0.0000
  0
SOLID
  5
101E
  8
Dim_Wall
 10
6764.9939
 20
-806.9726
 30
0.0000
 11
6795.1509
 21
-717.0251
 31
0.0000
 12
6735.1510
 22
-716.9204
 32
0.0000
 13
6735.1510
 23
-716.9204
 33
0.0000
  0
SOLID
  5
101F
  8
Dim_Wall
 10
6763.3760
 20
-1733.9712
 30
0.0000
 11
6793.2189
 21
-1824.0234
 31
0.0000
 12
6733.2190
 22
-1823.9187
 32
0.0000
 13
6733.2190
 23
-1823.9187
 33
0.0000
  0
TEXT
  5
1020
  8
Dim_Wall
 10
6812.1849
 20
-1270.5557
 30
0.0000
 40
120.0000
 50
89.9000
  1
92.7
  7
STANDARD
  0
LINE
  5
1021
  8
Const_Walls_Ext
 10
6363.4639
 20
-1683.2731
 30
0.0000
 11
7617.4620
 21
-1685.4618
 31
0.0000
  0
LINE
  5
1022
  8
Const_Walls
 10
6363.2893
 20
-1783.2730
 30
0.0000
 11
7617.2874
 21
-1785.4616
 31
0.0000
  0
LINE
  5
1023
  8
Const_Walls
 10
6363.4639
 20
-1683.2731
 30
0.0000
 11
6363.2893
 21
-1783.2730
 31
0.0000
  0
LINE
  5
1024
  8
Const_Walls
 10
7617.4620
 20
-1685.4618
 30
0.0000
 11
7617.2874
 21
-1785.4616
 31
0.0000
  0
SOLID
  5
1025
  8
Const_Fill
 10
6363.4639
 20
-1683.2731
 30
0.0000
 11
7617.4620
 21
-1685.4618
 31
0.0000
 12
6363.2893
 22
-1783.2730
 32
0.0000
 13
7617.2874
 23
-1785.4616
 33
0.0000
  0
LINE
  5
1026
  8
Dim_Wall
 10
6363.3766
 20
-1733.2730
 30
0.0000
 11
6364.1795
 21
-1273.2737
 31
0.0000
  0
LINE
  5
1027
  8
Dim_Wall
 10
7617.3747
 20
-1735.4617
 30
0.0000
 11
7618.1775
 21
-1275.4624
 31
0.0000
  0
LINE
  5
1028
  8
Dim_Wall
 10
6364.0747
 20
-1333.2737
 30
0.0000
 11
7618.0728
 21
-1335.4623
 31
0.0000
  0
SOLID
  5
1029
  8
Dim_Wall
 10
6364.0747
 20
-1333.2737
 30
0.0000
 11
6274.1272
 21
-1303.1166
 31
0.0000
 12
6274.0225
 22
-1363.1165
 32
0.0000
 13
6274.0225
 23
-1363.1165
 33
0.0000
  0
SOLID
  5
102A
  8
Dim_Wall
 10
7618.0728
 20
-1335.4623
 30
0.0000
 11
7708.1250
 21
-1305.6194
 31
0.0000
 12
7708.0203
 22
-1365.6193
 32
0.0000
 13
7708.0203
 23
-1365.6193
 33
0.0000
  0
TEXT
  5
102B
  8
Dim_Wall
 10
6991.1576
 20
-1286.3680
 30
0.0000
 40
120.0000
 50
-0.1000
  1
125.4
  7
STANDARD
  0
INSERT
  5
102C
  8
Const_Windows
  2
WINDOW1
 10
2770.0000
 20
-2681.0000
 30
0.0000
 41
1169.0000
 42
100.0000
 43
1.0000
 50
90.0000
  0
INSERT
  5
102D
  8
Const_Windows
  2
WINDOW1
 10
2770.0000
 20
-6677.0000
 30
0.0000
 41
2957.0000
 42
100.0000
 43
1.0000
 50
90.0000
  0
INSERT
  5
102E
  8
Const_Doors
  2
DOOR1
 10
6483.0000
 20
-1733.0000
 30
0.0000
 41
1134.0000
 42
100.0000
 43
1.0000
 50
359.9000
  0
INSERT
  5
102F
  8
Plumbing
  2
Gas
 10
2770.0000
 20
-2910.0000
 30
0.0000
 41
1.0000
 42
1.0000
 43
1.0000
 50
90.0000
  0
TEXT
  5
1030
  8
Plumbing_H
 10
2840.0000
 20
-2870.0000
 30
0.0000
 40
90.0000
 50
0.0000
  1
H -1.2
  7
STANDARD
  0
LINE
  5
1031
  8
Plumbing_DIM
 10
2770.0000
 20
-7043.0000
 30
0.0000
 11
3030.0000
 21
-7043.0000
 31
0.0000
  0
LINE
  5
1032
  8
Plumbing_DIM
 10
2770.0000
 20
-2910.0000
 30
0.0000
 11
3030.0000
 21
-2910.0000
 31
0.0000
  0
LINE
  5
1033
  8
Plumbing_DIM
 10
2970.0000
 20
-7043.0000
 30
0.0000
 11
2970.0000
 21
-2910.0000
 31
0.0000
  0
SOLID
  5
1034
  8
Plumbing_DIM
 10
2970.0000
 20
-7043.0000
 30
0.0000
 11
3000.0000
 21
-7133.0000
 31
0.0000
 12
2940.0000
 22
-7133.0000
 32
0.0000
 13
2940.0000
 23
-7133.0000
 33
0.0000
  0
SOLID
  5
1035
  8
Plumbing_DIM
 10
2970.0000
 20
-2910.0000
 30
0.0000
 11
3000.0000
 21
-2820.0000
 31
0.0000
 12
2940.0000
 22
-2820.0000
 32
0.0000
 13
2940.0000
 23
-2820.0000
 33
0.0000
  0
TEXT
  5
1036
  8
Plumbing_DIM
 10
3006.0000
 20
-4976.5000
 30
0.0000
 40
90.0000
 50
90.0000
  1
413.3
  7
STANDARD
  0
INSERT
  5
1037
  8
Electrical
  2
Socket
 10
2770.0000
 20
-2896.0000
 30
0.0000
 41
1.0000
 42
1.0000
 43
1.0000
 50
90.0000
  0
TEXT
  5
1038
  8
Electrical_H
 10
2840.0000
 20
-2856.0000
 30
0.0000
 40
90.0000
 50
0.0000
  1
H 109.9
  7
STANDARD
  0
LINE
  5
1039
  8
Electrical_DIM
 10
2770.0000
 20
-7043.0000
 30
0.0000
 11
3030.0000
 21
-7043.0000
 31
0.0000
  0
LINE
  5
103A
  8
Electrical_DIM
 10
2770.0000
 20
-2896.0000
 30
0.0000
 11
3030.0000
 21
-2896.0000
 31
0.0000
  0
LINE
  5
103B
  8
Electrical_DIM
 10
2970.0000
 20
-7043.0000
 30
0.0000
 11
2970.0000
 21
-2896.0000
 31
0.0000
  0
SOLID
  5
103C
  8
Electrical_DIM
 10
2970.0000
 20
-7043.0000
 30
0.0000
 11
3000.0000
 21
-7133.0000
 31
0.0000
 12
2940.0000
 22
-7133.0000
 32
0.0000
 13
2940.0000
 23
-7133.0000
 33
0.0000
  0
SOLID
  5
103D
  8
Electrical_DIM
 10
2970.0000
 20
-2896.0000
 30
0.0000
 11
3000.0000
 21
-2806.0000
 31
0.0000
 12
2940.0000
 22
-2806.0000
 32
0.0000
 13
2940.0000
 23
-2806.0000
 33
0.0000
  0
TEXT
  5
103E
  8
Electrical_DIM
 10
3006.0000
 20
-4969.5000
 30
0.0000
 40
90.0000
 50
90.0000
  1
414.7
  7
STANDARD
  0
INSERT
  5
103F
  8
Electrical
  2
DuplexSwitch
 10
2770.0000
 20
-3371.0000
 30
0.0000
 41
1.0000
 42
1.0000
 43
1.0000
 50
90.0000
  0
TEXT
  5
1040
  8
Electrical_H
 10
2840.0000
 20
-3331.0000
 30
0.0000
 40
90.0000
 50
0.0000
  1
H 110
  7
STANDARD
  0
LINE
  5
1041
  8
Electrical_DIM
 10
2770.0000
 20
-7043.0000
 30
0.0000
 11
3030.0000
 21
-7043.0000
 31
0.0000
  0
LINE
  5
1042
  8
Electrical_DIM
 10
2770.0000
 20
-3371.0000
 30
0.0000
 11
3030.0000
 21
-3371.0000
 31
0.0000
  0
LINE
  5
1043
  8
Electrical_DIM
 10
2970.0000
 20
-7043.0000
 30
0.0000
 11
2970.0000
 21
-3371.0000
 31
0.0000
  0
SOLID
  5
1044
  8
Electrical_DIM
 10
2970.0000
 20
-7043.0000
 30
0.0000
 11
3000.0000
 21
-7133.0000
 31
0.0000
 12
2940.0000
 22
-7133.0000
 32
0.0000
 13
2940.0000
 23
-7133.0000
 33
0.0000
  0
SOLID
  5
1045
  8
Electrical_DIM
 10
2970.0000
 20
-3371.0000
 30
0.0000
 11
3000.0000
 21
-3281.0000
 31
0.0000
 12
2940.0000
 22
-3281.0000
 32
0.0000
 13
2940.0000
 23
-3281.0000
 33
0.0000
  0
TEXT
  5
1046
  8
Electrical_DIM
 10
3006.0000
 20
-5207.0000
 30
0.0000
 40
90.0000
 50
90.0000
  1
367.2
  7
STANDARD
  0
INSERT
  5
1047
  8
Electrical
  2
ControlBox
 10
2770.0000
 20
-2953.0000
 30
0.0000
 41
1.0000
 42
1.0000
 43
1.0000
 50
90.0000
  0
TEXT
  5
1048
  8
Electrical_H
 10
2840.0000
 20
-2913.0000
 30
0.0000
 40
90.0000
 50
0.0000
  1
H -1.2
  7
STANDARD
  0
LINE
  5
1049
  8
Electrical_DIM
 10
2770.0000
 20
-7043.0000
 30
0.0000
 11
3030.0000
 21
-7043.0000
 31
0.0000
  0
LINE
  5
104A
  8
Electrical_DIM
 10
2770.0000
 20
-2953.0000
 30
0.0000
 11
3030.0000
 21
-2953.0000
 31
0.0000
  0
LINE
  5
104B
  8
Electrical_DIM
 10
2970.0000
 20
-7043.0000
 30
0.0000
 11
2970.0000
 21
-2953.0000
 31
0.0000
  0
SOLID
  5
104C
  8
Electrical_DIM
 10
2970.0000
 20
-7043.0000
 30
0.0000
 11
3000.0000
 21
-7133.0000
 31
0.0000
 12
2940.0000
 22
-7133.0000
 32
0.0000
 13
2940.0000
 23
-7133.0000
 33
0.0000
  0
SOLID
  5
104D
  8
Electrical_DIM
 10
2970.0000
 20
-2953.0000
 30
0.0000
 11
3000.0000
 21
-2863.0000
 31
0.0000
 12
2940.0000
 22
-2863.0000
 32
0.0000
 13
2940.0000
 23
-2863.0000
 33
0.0000
  0
TEXT
  5
104E
  8
Electrical_DIM
 10
3006.0000
 20
-4998.0000
 30
0.0000
 40
90.0000
 50
90.0000
  1
409
  7
STANDARD
  0
INSERT
  5
104F
  8
Electrical
  2
Socket
 10
2770.0000
 20
-6835.0000
 30
0.0000
 41
1.0000
 42
1.0000
 43
1.0000
 50
90.0000
  0
TEXT
  5
1050
  8
Electrical_H
 10
2840.0000
 20
-6795.0000
 30
0.0000
 40
90.0000
 50
0.0000
  1
H 103.7
  7
STANDARD
  0
LINE
  5
1051
  8
Electrical_DIM
 10
2770.0000
 20
-7043.0000
 30
0.0000
 11
3030.0000
 21
-7043.0000
 31
0.0000
  0
LINE
  5
1052
  8
Electrical_DIM
 10
2770.0000
 20
-6835.0000
 30
0.0000
 11
3030.0000
 21
-6835.0000
 31
0.0000
  0
LINE
  5
1053
  8
Electrical_DIM
 10
2970.0000
 20
-7043.0000
 30
0.0000
 11
2970.0000
 21
-6835.0000
 31
0.0000
  0
SOLID
  5
1054
  8
Electrical_DIM
 10
2970.0000
 20
-7043.0000
 30
0.0000
 11
3000.0000
 21
-7133.0000
 31
0.0000
 12
2940.0000
 22
-7133.0000
 32
0.0000
 13
2940.0000
 23
-7133.0000
 33
0.0000
  0
SOLID
  5
1055
  8
Electrical_DIM
 10
2970.0000
 20
-6835.0000
 30
0.0000
 11
3000.0000
 21
-6745.0000
 31
0.0000
 12
2940.0000
 22
-6745.0000
 32
0.0000
 13
2940.0000
 23
-6745.0000
 33
0.0000
  0
TEXT
  5
1056
  8
Electrical_DIM
 10
3006.0000
 20
-6939.0000
 30
0.0000
 40
90.0000
 50
90.0000
  1
20.8
  7
STANDARD
  0
INSERT
  5
1057
  8
Electrical
  2
Socket
 10
2770.0000
 20
-6835.0000
 30
0.0000
 41
1.0000
 42
1.0000
 43
1.0000
 50
90.0000
  0
TEXT
  5
1058
  8
Electrical_H
 10
2840.0000
 20
-6795.0000
 30
0.0000
 40
90.0000
 50
0.0000
  1
H 86
  7
STANDARD
  0
LINE
  5
1059
  8
Electrical_DIM
 10
2770.0000
 20
-7043.0000
 30
0.0000
 11
3030.0000
 21
-7043.0000
 31
0.0000
  0
LINE
  5
105A
  8
Electrical_DIM
 10
2770.0000
 20
-6835.0000
 30
0.0000
 11
3030.0000
 21
-6835.0000
 31
0.0000
  0
LINE
  5
105B
  8
Electrical_DIM
 10
2970.0000
 20
-7043.0000
 30
0.0000
 11
2970.0000
 21
-6835.0000
 31
0.0000
  0
SOLID
  5
105C
  8
Electrical_DIM
 10
2970.0000
 20
-7043.0000
 30
0.0000
 11
3000.0000
 21
-7133.0000
 31
0.0000
 12
2940.0000
 22
-7133.0000
 32
0.0000
 13
2940.0000
 23
-7133.0000
 33
0.0000
  0
SOLID
  5
105D
  8
Electrical_DIM
 10
2970.0000
 20
-6835.0000
 30
0.0000
 11
3000.0000
 21
-6745.0000
 31
0.0000
 12
2940.0000
 22
-6745.0000
 32
0.0000
 13
2940.0000
 23
-6745.0000
 33
0.0000
  0
TEXT
  5
105E
  8
Electrical_DIM
 10
3006.0000
 20
-6939.0000
 30
0.0000
 40
90.0000
 50
90.0000
  1
20.8
  7
STANDARD
  0
INSERT
  5
105F
  8
Electrical
  2
Lighting
 10
2770.0000
 20
-2307.0000
 30
0.0000
 41
1.0000
 42
1.0000
 43
1.0000
 50
90.0000
  0
TEXT
  5
1060
  8
Electrical_H
 10
2840.0000
 20
-2267.0000
 30
0.0000
 40
90.0000
 50
0.0000
  1
H 261.3
  7
STANDARD
  0
LINE
  5
1061
  8
Electrical_DIM
 10
2770.0000
 20
-7043.0000
 30
0.0000
 11
3030.0000
 21
-7043.0000
 31
0.0000
  0
LINE
  5
1062
  8
Electrical_DIM
 10
2770.0000
 20
-2307.0000
 30
0.0000
 11
3030.0000
 21
-2307.0000
 31
0.0000
  0
LINE
  5
1063
  8
Electrical_DIM
 10
2970.0000
 20
-7043.0000
 30
0.0000
 11
2970.0000
 21
-2307.0000
 31
0.0000
  0
SOLID
  5
1064
  8
Electrical_DIM
 10
2970.0000
 20
-7043.0000
 30
0.0000
 11
3000.0000
 21
-7133.0000
 31
0.0000
 12
2940.0000
 22
-7133.0000
 32
0.0000
 13
2940.0000
 23
-7133.0000
 33
0.0000
  0
SOLID
  5
1065
  8
Electrical_DIM
 10
2970.0000
 20
-2307.0000
 30
0.0000
 11
3000.0000
 21
-2217.0000
 31
0.0000
 12
2940.0000
 22
-2217.0000
 32
0.0000
 13
2940.0000
 23
-2217.0000
 33
0.0000
  0
TEXT
  5
1066
  8
Electrical_DIM
 10
3006.0000
 20
-4675.0000
 30
0.0000
 40
90.0000
 50
90.0000
  1
473.6
  7
STANDARD
  0
INSERT
  5
1067
  8
Electrical
  2
Lighting
 10
2770.0000
 20
-2303.0000
 30
0.0000
 41
1.0000
 42
1.0000
 43
1.0000
 50
90.0000
  0
TEXT
  5
1068
  8
Electrical_H
 10
2840.0000
 20
-2263.0000
 30
0.0000
 40
90.0000
 50
0.0000
  1
H 261.3
  7
STANDARD
  0
LINE
  5
1069
  8
Electrical_DIM
 10
2770.0000
 20
-7043.0000
 30
0.0000
 11
3030.0000
 21
-7043.0000
 31
0.0000
  0
LINE
  5
106A
  8
Electrical_DIM
 10
2770.0000
 20
-2303.0000
 30
0.0000
 11
3030.0000
 21
-2303.0000
 31
0.0000
  0
LINE
  5
106B
  8
Electrical_DIM
 10
2970.0000
 20
-7043.0000
 30
0.0000
 11
2970.0000
 21
-2303.0000
 31
0.0000
  0
SOLID
  5
106C
  8
Electrical_DIM
 10
2970.0000
 20
-7043.0000
 30
0.0000
 11
3000.0000
 21
-7133.0000
 31
0.0000
 12
2940.0000
 22
-7133.0000
 32
0.0000
 13
2940.0000
 23
-7133.0000
 33
0.0000
  0
SOLID
  5
106D
  8
Electrical_DIM
 10
2970.0000
 20
-2303.0000
 30
0.0000
 11
3000.0000
 21
-2213.0000
 31
0.0000
 12
2940.0000
 22
-2213.0000
 32
0.0000
 13
2940.0000
 23
-2213.0000
 33
0.0000
  0
TEXT
  5
106E
  8
Electrical_DIM
 10
3006.0000
 20
-4673.0000
 30
0.0000
 40
90.0000
 50
90.0000
  1
474
  7
STANDARD
  0
INSERT
  5
106F
  8
Electrical
  2
Socket
 10
6114.0000
 20
-806.0000
 30
0.0000
 41
1.0000
 42
1.0000
 43
1.0000
 50
359.9000
  0
TEXT
  5
1070
  8
Electrical_H
 10
6184.0000
 20
-766.0000
 30
0.0000
 40
90.0000
 50
0.0000
  1
H 154.7
  7
STANDARD
  0
LINE
  5
1071
  8
Electrical_DIM
 10
2770.0000
 20
-800.0000
 30
0.0000
 11
2769.5335
 21
-1059.9996
 31
0.0000
  0
LINE
  5
1072
  8
Electrical_DIM
 10
6114.0000
 20
-806.0000
 30
0.0000
 11
6113.5335
 21
-1065.9996
 31
0.0000
  0
LINE
  5
1073
  8
Electrical_DIM
 10
2769.6411
 20
-999.9997
 30
0.0000
 11
6113.6411
 21
-1005.9997
 31
0.0000
  0
SOLID
  5
1074
  8
Electrical_DIM
 10
2769.6411
 20
-999.9997
 30
0.0000
 11
2679.5875
 21
-1029.8381
 31
0.0000
 12
2679.6951
 22
-969.8382
 32
0.0000
 13
2679.6951
 23
-969.8382
 33
0.0000
  0
SOLID
  5
1075
  8
Electrical_DIM
 10
6113.6411
 20
-1005.9997
 30
0.0000
 11
6203.5872
 21
-1036.1611
 31
0.0000
 12
6203.6948
 22
-976.1612
 32
0.0000
 13
6203.6948
 23
-976.1612
 33
0.0000
  0
TEXT
  5
1076
  8
Electrical_DIM
 10
4441.5766
 20
-1038.9996
 30
0.0000
 40
90.0000
 50
-0.1028
  1
334.4
  7
STANDARD
  0
INSERT
  5
1077
  8
Electrical
  2
Socket
 10
5952.0000
 20
-806.0000
 30
0.0000
 41
1.0000
 42
1.0000
 43
1.0000
 50
359.9000
  0
TEXT
  5
1078
  8
Electrical_H
 10
6022.0000
 20
-766.0000
 30
0.0000
 40
90.0000
 50
0.0000
  1
H 154.4
  7
STANDARD
  0
LINE
  5
1079
  8
Electrical_DIM
 10
2770.0000
 20
-800.0000
 30
0.0000
 11
2769.5097
 21
-1059.9995
 31
0.0000
  0
LINE
  5
107A
  8
Electrical_DIM
 10
5952.0000
 20
-806.0000
 30
0.0000
 11
5951.5097
 21
-1065.9995
 31
0.0000
  0
LINE
  5
107B
  8
Electrical_DIM
 10
2769.6229
 20
-999.9996
 30
0.0000
 11
5951.6229
 21
-1005.9996
 31
0.0000
  0
SOLID
  5
107C
  8
Electrical_DIM
 10
2769.6229
 20
-999.9996
 30
0.0000
 11
2679.5665
 21
-1029.8299
 31
0.0000
 12
2679.6796
 22
-969.8300
 32
0.0000
 13
2679.6796
 23
-969.8300
 33
0.0000
  0
SOLID
  5
107D
  8
Electrical_DIM
 10
5951.6229
 20
-1005.9996
 30
0.0000
 11
6041.5662
 21
-1036.1693
 31
0.0000
 12
6041.6793
 22
-976.1694
 32
0.0000
 13
6041.6793
 23
-976.1694
 33
0.0000
  0
TEXT
  5
107E
  8
Electrical_DIM
 10
4360.5550
 20
-1038.9996
 30
0.0000
 40
90.0000
 50
-0.1080
  1
318.2
  7
STANDARD
  0
INSERT
  5
107F
  8
Electrical
  2
DuplexSwitch
 10
5512.0000
 20
-805.0000
 30
0.0000
 41
1.0000
 42
1.0000
 43
1.0000
 50
359.9000
  0
TEXT
  5
1080
  8
Electrical_H
 10
5582.0000
 20
-765.0000
 30
0.0000
 40
90.0000
 50
0.0000
  1
H 110.6
  7
STANDARD
  0
LINE
  5
1081
  8
Electrical_DIM
 10
2770.0000
 20
-800.0000
 30
0.0000
 11
2769.5259
 21
-1059.9996
 31
0.0000
  0
LINE
  5
1082
  8
Electrical_DIM
 10
5512.0000
 20
-805.0000
 30
0.0000
 11
5511.5259
 21
-1064.9996
 31
0.0000
  0
LINE
  5
1083
  8
Electrical_DIM
 10
2769.6353
 20
-999.9997
 30
0.0000
 11
5511.6353
 21
-1004.9997
 31
0.0000
  0
SOLID
  5
1084
  8
Electrical_DIM
 10
2769.6353
 20
-999.9997
 30
0.0000
 11
2679.5807
 21
-1029.8355
 31
0.0000
 12
2679.6902
 22
-969.8356
 32
0.0000
 13
2679.6902
 23
-969.8356
 33
0.0000
  0
SOLID
  5
1085
  8
Electrical_DIM
 10
5511.6353
 20
-1004.9997
 30
0.0000
 11
5601.5804
 21
-1035.1637
 31
0.0000
 12
5601.6899
 22
-975.1638
 32
0.0000
 13
5601.6899
 23
-975.1638
 33
0.0000
  0
TEXT
  5
1086
  8
Electrical_DIM
 10
4140.5697
 20
-1038.4996
 30
0.0000
 40
90.0000
 50
-0.1045
  1
274.2
  7
STANDARD
  0
INSERT
  5
1087
  8
Electrical
  2
Socket
 10
5225.0000
 20
-804.0000
 30
0.0000
 41
1.0000
 42
1.0000
 43
1.0000
 50
359.9000
  0
TEXT
  5
1088
  8
Electrical_H
 10
5295.0000
 20
-764.0000
 30
0.0000
 40
90.0000
 50
0.0000
  1
H 47.7
  7
STANDARD
  0
LINE
  5
1089
  8
Electrical_DIM
 10
2770.0000
 20
-800.0000
 30
0.0000
 11
2769.5764
 21
-1059.9997
 31
0.0000
  0
LINE
  5
108A
  8
Electrical_DIM
 10
5225.0000
 20
-804.0000
 30
0.0000
 11
5224.5764
 21
-1063.9997
 31
0.0000
  0
LINE
  5
108B
  8
Electrical_DIM
 10
2769.6741
 20
-999.9997
 30
0.0000
 11
5224.6741
 21
-1003.9997
 31
0.0000
  0
SOLID
  5
108C
  8
Electrical_DIM
 10
2769.6741
 20
-999.9997
 30
0.0000
 11
2679.6254
 21
-1029.8531
 31
0.0000
 12
2679.7231
 22
-969.8531
 32
0.0000
 13
2679.7231
 23
-969.8531
 33
0.0000
  0
SOLID
  5
108D
  8
Electrical_DIM
 10
5224.6741
 20
-1003.9997
 30
0.0000
 11
5314.6251
 21
-1034.1463
 31
0.0000
 12
5314.7229
 22
-974.1464
 32
0.0000
 13
5314.7229
 23
-974.1464
 33
0.0000
  0
TEXT
  5
108E
  8
Electrical_DIM
 10
3997.1155
 20
-1037.9997
 30
0.0000
 40
90.0000
 50
-0.0934
  1
245.5
  7
STANDARD
  0
INSERT
  5
108F
  8
Plumbing
  2
Faucet
 10
5067.0000
 20
-804.0000
 30
0.0000
 41
1.0000
 42
1.0000
 43
1.0000
 50
359.9000
  0
TEXT
  5
1090
  8
Plumbing_H
 10
5137.0000
 20
-764.0000
 30
0.0000
 40
90.0000
 50
0.0000
  1
H 41.6
  7
STANDARD
  0
LINE
  5
1091
  8
Plumbing_DIM
 10
2770.0000
 20
-800.0000
 30
0.0000
 11
2769.5472
 21
-1059.9996
 31
0.0000
  0
LINE
  5
1092
  8
Plumbing_DIM
 10
5067.0000
 20
-804.0000
 30
0.0000
 11
5066.5472
 21
-1063.9996
 31
0.0000
  0
LINE
  5
1093
  8
Plumbing_DIM
 10
2769.6517
 20
-999.9997
 30
0.0000
 11
5066.6517
 21
-1003.9997
 31
0.0000
  0
SOLID
  5
1094
  8
Plumbing_DIM
 10
2769.6517
 20
-999.9997
 30
0.0000
 11
2679.5996
 21
-1029.8429
 31
0.0000
 12
2679.7041
 22
-969.8430
 32
0.0000
 13
2679.7041
 23
-969.8430
 33
0.0000
  0
SOLID
  5
1095
  8
Plumbing_DIM
 10
5066.6517
 20
-1003.9997
 30
0.0000
 11
5156.5993
 21
-1034.1564
 31
0.0000
 12
5156.7038
 22
-974.1565
 32
0.0000
 13
5156.7038
 23
-974.1565
 33
0.0000
  0
TEXT
  5
1096
  8
Plumbing_DIM
 10
3918.0890
 20
-1037.9996
 30
0.0000
 40
90.0000
 50
-0.0998
  1
229.7
  7
STANDARD
  0
INSERT
  5
1097
  8
Plumbing
  2
Faucet
 10
4926.0000
 20
-804.0000
 30
0.0000
 41
1.0000
 42
1.0000
 43
1.0000
 50
359.9000
  0
TEXT
  5
1098
  8
Plumbing_H
 10
4996.0000
 20
-764.0000
 30
0.0000
 40
90.0000
 50
0.0000
  1
H 41.9
  7
STANDARD
  0
LINE
  5
1099
  8
Plumbing_DIM
 10
2770.0000
 20
-800.0000
 30
0.0000
 11
2769.5176
 21
-1059.9996
 31
0.0000
  0
LINE
  5
109A
  8
Plumbing_DIM
 10
4926.0000
 20
-804.0000
 30
0.0000
 11
4925.5176
 21
-1063.9996
 31
0.0000
  0
LINE
  5
109B
  8
Plumbing_DIM
 10
2769.6289
 20
-999.9997
 30
0.0000
 11
4925.6289
 21
-1003.9997
 31
0.0000
  0
SOLID
  5
109C
  8
Plumbing_DIM
 10
2769.6289
 20
-999.9997
 30
0.0000
 11
2679.5734
 21
-1029.8326
 31
0.0000
 12
2679.6848
 22
-969.8327
 32
0.0000
 13
2679.6848
 23
-969.8327
 33
0.0000
  0
SOLID
  5
109D
  8
Plumbing_DIM
 10
4925.6289
 20
-1003.9997
 30
0.0000
 11
5015.5731
 21
-1034.1666
 31
0.0000
 12
5015.6844
 22
-974.1667
 32
0.0000
 13
5015.6844
 23
-974.1667
 33
0.0000
  0
TEXT
  5
109E
  8
Plumbing_DIM
 10
3847.5622
 20
-1037.9996
 30
0.0000
 40
90.0000
 50
-0.1063
  1
215.6
  7
STANDARD
  0
INSERT
  5
109F
  8
Plumbing
  2
Sewage
 10
4902.0000
 20
-804.0000
 30
0.0000
 41
1.0000
 42
1.0000
 43
1.0000
 50
359.9000
  0
TEXT
  5
10A0
  8
Plumbing_H
 10
4972.0000
 20
-764.0000
 30
0.0000
 40
90.0000
 50
0.0000
  1
H -2.7
  7
STANDARD
  0
LINE
  5
10A1
  8
Plumbing_DIM
 10
2770.0000
 20
-800.0000
 30
0.0000
 11
2769.5122
 21
-1059.9995
 31
0.0000
  0
LINE
  5
10A2
  8
Plumbing_DIM
 10
4902.0000
 20
-804.0000
 30
0.0000
 11
4901.5122
 21
-1063.9995
 31
0.0000
  0
LINE
  5
10A3
  8
Plumbing_DIM
 10
2769.6248
 20
-999.9996
 30
0.0000
 11
4901.6248
 21
-1003.9996
 31
0.0000
  0
SOLID
  5
10A4
  8
Plumbing_DIM
 10
2769.6248
 20
-999.9996
 30
0.0000
 11
2679.5686
 21
-1029.8307
 31
0.0000
 12
2679.6812
 22
-969.8308
 32
0.0000
 13
2679.6812
 23
-969.8308
 33
0.0000
  0
SOLID
  5
10A5
  8
Plumbing_DIM
 10
4901.6248
 20
-1003.9996
 30
0.0000
 11
4991.5683
 21
-1034.1685
 31
0.0000
 12
4991.6809
 22
-974.1686
 32
0.0000
 13
4991.6809
 23
-974.1686
 33
0.0000
  0
TEXT
  5
10A6
  8
Plumbing_DIM
 10
3835.5572
 20
-1037.9996
 30
0.0000
 40
90.0000
 50
-0.1075
  1
213.2
  7
STANDARD
  0
INSERT
  5
10A7
  8
Plumbing
  2
Sewage
 10
4771.0000
 20
-803.0000
 30
0.0000
 41
1.0000
 42
1.0000
 43
1.0000
 50
359.9000
  0
TEXT
  5
10A8
  8
Plumbing_H
 10
4841.0000
 20
-763.0000
 30
0.0000
 40
90.0000
 50
0.0000
  1
H -0.2
  7
STANDARD
  0
LINE
  5
10A9
  8
Plumbing_DIM
 10
2770.0000
 20
-800.0000
 30
0.0000
 11
2769.6102
 21
-1059.9997
 31
0.0000
  0
LINE
  5
10AA
  8
Plumbing_DIM
 10
4771.0000
 20
-803.0000
 30
0.0000
 11
4770.6102
 21
-1062.9997
 31
0.0000
  0
LINE
  5
10AB
  8
Plumbing_DIM
 10
2769.7002
 20
-999.9998
 30
0.0000
 11
4770.7002
 21
-1002.9998
 31
0.0000
  0
SOLID
  5
10AC
  8
Plumbing_DIM
 10
2769.7002
 20
-999.9998
 30
0.0000
 11
2679.6553
 21
-1029.8648
 31
0.0000
 12
2679.7452
 22
-969.8649
 32
0.0000
 13
2679.7452
 23
-969.8649
 33
0.0000
  0
SOLID
  5
10AD
  8
Plumbing_DIM
 10
4770.7002
 20
-1002.9998
 30
0.0000
 11
4860.6551
 21
-1033.1347
 31
0.0000
 12
4860.7450
 22
-973.1347
 32
0.0000
 13
4860.7450
 23
-973.1347
 33
0.0000
  0
TEXT
  5
10AE
  8
Plumbing_DIM
 10
3770.1462
 20
-1037.4997
 30
0.0000
 40
90.0000
 50
-0.0859
  1
200.1
  7
STANDARD
  0
INSERT
  5
10AF
  8
Electrical
  2
DuplexSwitch
 10
4505.0000
 20
-803.0000
 30
0.0000
 41
1.0000
 42
1.0000
 43
1.0000
 50
359.9000
  0
TEXT
  5
10B0
  8
Electrical_H
 10
4575.0000
 20
-763.0000
 30
0.0000
 40
90.0000
 50
0.0000
  1
H 109.6
  7
STANDARD
  0
LINE
  5
10B1
  8
Electrical_DIM
 10
2770.0000
 20
-800.0000
 30
0.0000
 11
2769.5504
 21
-1059.9996
 31
0.0000
  0
LINE
  5
10B2
  8
Electrical_DIM
 10
4505.0000
 20
-803.0000
 30
0.0000
 11
4504.5504
 21
-1062.9996
 31
0.0000
  0
LINE
  5
10B3
  8
Electrical_DIM
 10
2769.6542
 20
-999.9997
 30
0.0000
 11
4504.6542
 21
-1002.9997
 31
0.0000
  0
SOLID
  5
10B4
  8
Electrical_DIM
 10
2769.6542
 20
-999.9997
 30
0.0000
 11
2679.6024
 21
-1029.8440
 31
0.0000
 12
2679.7062
 22
-969.8441
 32
0.0000
 13
2679.7062
 23
-969.8441
 33
0.0000
  0
SOLID
  5
10B5
  8
Electrical_DIM
 10
4504.6542
 20
-1002.9997
 30
0.0000
 11
4594.6022
 21
-1033.1553
 31
0.0000
 12
4594.7059
 22
-973.1554
 32
0.0000
 13
4594.7059
 23
-973.1554
 33
0.0000
  0
TEXT
  5
10B6
  8
Electrical_DIM
 10
3637.0919
 20
-1037.4996
 30
0.0000
 40
90.0000
 50
-0.0991
  1
173.5
  7
STANDARD
  0
INSERT
  5
10B7
  8
Electrical
  2
Socket
 10
4506.0000
 20
-803.0000
 30
0.0000
 41
1.0000
 42
1.0000
 43
1.0000
 50
359.9000
  0
TEXT
  5
10B8
  8
Electrical_H
 10
4576.0000
 20
-763.0000
 30
0.0000
 40
90.0000
 50
0.0000
  1
H 184.4
  7
STANDARD
  0
LINE
  5
10B9
  8
Electrical_DIM
 10
2770.0000
 20
-800.0000
 30
0.0000
 11
2769.5507
 21
-1059.9996
 31
0.0000
  0
LINE
  5
10BA
  8
Electrical_DIM
 10
4506.0000
 20
-803.0000
 30
0.0000
 11
4505.5507
 21
-1062.9996
 31
0.0000
  0
LINE
  5
10BB
  8
Electrical_DIM
 10
2769.6544
 20
-999.9997
 30
0.0000
 11
4505.6544
 21
-1002.9997
 31
0.0000
  0
SOLID
  5
10BC
  8
Electrical_DIM
 10
2769.6544
 20
-999.9997
 30
0.0000
 11
2679.6027
 21
-1029.8441
 31
0.0000
 12
2679.7064
 22
-969.8442
 32
0.0000
 13
2679.7064
 23
-969.8442
 33
0.0000
  0
SOLID
  5
10BD
  8
Electrical_DIM
 10
4505.6544
 20
-1002.9997
 30
0.0000
 11
4595.6024
 21
-1033.1552
 31
0.0000
 12
4595.7061
 22
-973.1553
 32
0.0000
 13
4595.7061
 23
-973.1553
 33
0.0000
  0
TEXT
  5
10BE
  8
Electrical_DIM
 10
3637.5922
 20
-1037.4996
 30
0.0000
 40
90.0000
 50
-0.0990
  1
173.6
  7
STANDARD
  0
INSERT
  5
10BF
  8
Electrical
  2
Socket
 10
3280.0000
 20
-801.0000
 30
0.0000
 41
1.0000
 42
1.0000
 43
1.0000
 50
359.9000
  0
TEXT
  5
10C0
  8
Electrical_H
 10
3350.0000
 20
-761.0000
 30
0.0000
 40
90.0000
 50
0.0000
  1
H 173.6
  7
STANDARD
  0
LINE
  5
10C1
  8
Electrical_DIM
 10
2770.0000
 20
-800.0000
 30
0.0000
 11
2769.4902
 21
-1059.9995
 31
0.0000
  0
LINE
  5
10C2
  8
Electrical_DIM
 10
3280.0000
 20
-801.0000
 30
0.0000
 11
3279.4902
 21
-1060.9995
 31
0.0000
  0
LINE
  5
10C3
  8
Electrical_DIM
 10
2769.6078
 20
-999.9996
 30
0.0000
 11
3279.6078
 21
-1000.9996
 31
0.0000
  0
SOLID
  5
10C4
  8
Electrical_DIM
 10
2769.6078
 20
-999.9996
 30
0.0000
 11
2679.5492
 21
-1029.8231
 31
0.0000
 12
2679.6668
 22
-969.8232
 32
0.0000
 13
2679.6668
 23
-969.8232
 33
0.0000
  0
SOLID
  5
10C5
  8
Electrical_DIM
 10
3279.6078
 20
-1000.9996
 30
0.0000
 11
3369.5488
 21
-1031.1760
 31
0.0000
 12
3369.6665
 22
-971.1761
 32
0.0000
 13
3369.6665
 23
-971.1761
 33
0.0000
  0
TEXT
  5
10C6
  8
Electrical_DIM
 10
3024.5373
 20
-1036.4995
 30
0.0000
 40
90.0000
 50
-0.1123
  1
51
  7
STANDARD
  0
INSERT
  5
10C7
  8
Text_Legend
  2
Gas
 10
8267.3747
 20
-643.0000
 30
0.0000
 41
1.0000
 42
1.0000
 43
1.0000
 50
0.0000
  0
TEXT
  5
10C8
  8
Text_Legend
 10
8467.3747
 20
-673.0000
 30
0.0000
 40
120.0000
 50
0.0000
  1
\U+05D2\U+05D6
  7
STANDARD
  0
INSERT
  5
10C9
  8
Text_Legend
  2
Socket
 10
8267.3747
 20
-993.0000
 30
0.0000
 41
1.0000
 42
1.0000
 43
1.0000
 50
0.0000
  0
TEXT
  5
10CA
  8
Text_Legend
 10
8467.3747
 20
-1023.0000
 30
0.0000
 40
120.0000
 50
0.0000
  1
\U+05E9\U+05E7\U+05E2
  7
STANDARD
  0
INSERT
  5
10CB
  8
Text_Legend
  2
DuplexSwitch
 10
8267.3747
 20
-1343.0000
 30
0.0000
 41
1.0000
 42
1.0000
 43
1.0000
 50
0.0000
  0
TEXT
  5
10CC
  8
Text_Legend
 10
8467.3747
 20
-1373.0000
 30
0.0000
 40
120.0000
 50
0.0000
  1
\U+05E9\U+05E7\U+05E2 \U+05DB\U+05E4\U+05D5\U+05DC
  7
STANDARD
  0
INSERT
  5
10CD
  8
Text_Legend
  2
ControlBox
 10
8267.3747
 20
-1693.0000
 30
0.0000
 41
1.0000
 42
1.0000
 43
1.0000
 50
0.0000
  0
TEXT
  5
10CE
  8
Text_Legend
 10
8467.3747
 20
-1723.0000
 30
0.0000
 40
120.0000
 50
0.0000
  1
\U+05D0\U+05E8\U+05D5\U+05DF \U+05D7\U+05E9\U+05DE\U+05DC
  7
STANDARD
  0
INSERT
  5
10CF
  8
Text_Legend
  2
Lighting
 10
8267.3747
 20
-2043.0000
 30
0.0000
 41
1.0000
 42
1.0000
 43
1.0000
 50
0.0000
  0
TEXT
  5
10D0
  8
Text_Legend
 10
8467.3747
 20
-2073.0000
 30
0.0000
 40
120.0000
 50
0.0000
  1
\U+05EA\U+05D0\U+05D5\U+05E8\U+05D4
  7
STANDARD
  0
INSERT
  5
10D1
  8
Text_Legend
  2
Faucet
 10
8267.3747
 20
-2393.0000
 30
0.0000
 41
1.0000
 42
1.0000
 43
1.0000
 50
0.0000
  0
TEXT
  5
10D2
  8
Text_Legend
 10
8467.3747
 20
-2423.0000
 30
0.0000
 40
120.0000
 50
0.0000
  1
\U+05D1\U+05E8\U+05D6
  7
STANDARD
  0
INSERT
  5
10D3
  8
Text_Legend
  2
Sewage
 10
8267.3747
 20
-2743.0000
 30
0.0000
 41
1.0000
 42
1.0000
 43
1.0000
 50
0.0000
  0
TEXT
  5
10D4
  8
Text_Legend
 10
8467.3747
 20
-2773.0000
 30
0.0000
 40
120.0000
 50
0.0000
  1
\U+05D1\U+05D9\U+05D5\U+05D1
  7
STANDARD
  0
ENDSEC
  0
EOF
