  0
SECTION
  2
HEADER
  9
$ACADVER
  1
AC1009
  9
$INSBASE
 10
0.0000
 20
0.0000
 30
0.0000
  9
$EXTMIN
 10
2309.0000
 20
-6133.0000
 30
0.0000
  9
$EXTMAX
 10
9874.9737
 20
-518.0000
 30
0.0000
  9
$DWGCODEPAGE
  3
ansi_1255
  9
$INSUNITS
 70
4
  9
$LTSCALE
 40
10.0000
  9
$LIMMIN
 10
0.0000
 20
0.0000
  9
$LIMMAX
 10
2000.0000
 20
200.0000
  0
ENDSEC
  0
SECTION
  2
TABLES
  0
TABLE
  2
VPORT
 70
1
  0
VPORT
  2
*ACTIVE
 70
0
 10
0.0000
 20
0.0000
 11
1.0000
 21
1.0000
 12
6091.9868
 22
-3325.5000
 13
0.0000
 23
0.0000
 14
10.0000
 24
10.0000
 15
10.0000
 25
10.0000
 16
0.0000
 26
0.0000
 36
1.0000
 17
0.0000
 27
0.0000
 37
0.0000
 40
6176.5000
 41
1.0000
 42
50.0000
 43
0.0000
 44
0.0000
 50
0.0000
 51
0.0000
 71
0
 72
100
 73
1
 74
1
 75
0
 76
0
 77
0
 78
0
  0
ENDTAB
  0
TABLE
  2
LTYPE
 70
2
  0
LTYPE
  2
CONTINUOUS
 70
0
  3
Solid line
 72
65
 73
0
 40
0.0000
  0
LTYPE
  2
HIDDEN
 70
0
  3
Hidden __ __ __ __ __ __ __ __ __ __ __ __ __ __
 72
65
 73
2
 40
0.3750
 49
0.2500
 49
-0.1250
  0
ENDTAB
  0
TABLE
  2
LAYER
 70
37
  0
LAYER
  2
0
 70
0
 62
7
  6
CONTINUOUS
  0
LAYER
  2
Electrical
 70
0
 62
6
  6
CONTINUOUS
  0
LAYER
  2
Plumbing
 70
0
 62
150
  6
CONTINUOUS
  0
LAYER
  2
Const_Walls
 70
0
 62
253
  6
CONTINUOUS
  0
LAYER
  2
Dim
 70
0
 62
9
  6
CONTINUOUS
  0
LAYER
  2
Text
 70
0
 62
74
  6
CONTINUOUS
  0
LAYER
  2
HVAC
 70
0
 62
4
  6
CONTINUOUS
  0
LAYER
  2
Misc
 70
0
 62
32
  6
HIDDEN
  0
LAYER
  2
Dim_Markers
 70
0
 62
9
  6
CONTINUOUS
  0
LAYER
  2
Dim_Wall
 70
0
 62
9
  6
CONTINUOUS
  0
LAYER
  2
Const_Doors
 70
0
 62
5
  6
CONTINUOUS
  0
LAYER
  2
Const_Windows
 70
0
 62
152
  6
CONTINUOUS
  0
LAYER
  2
Text_Legend
 70
0
 62
74
  6
CONTINUOUS
  0
LAYER
  2
Text_JobInfo
 70
0
 62
74
  6
CONTINUOUS
  0
LAYER
  2
Dim_Overall
 70
0
 62
-9
  6
CONTINUOUS
  0
LAYER
  2
Dim_Embeded
 70
0
 62
-9
  6
CONTINUOUS
  0
LAYER
  2
Dim_Angles_Auto
 70
0
 62
3
  6
CONTINUOUS
  0
LAYER
  2
Text_AreaNo
 70
0
 62
-74
  6
CONTINUOUS
  0
LAYER
  2
Dim_ArcChord
 70
0
 62
9
  6
HIDDEN
  0
LAYER
  2
Const_Walls_Ext
 70
0
 62
253
  6
CONTINUOUS
  0
LAYER
  2
Dim_Verification
 70
0
 62
-9
  6
CONTINUOUS
  0
LAYER
  2
Dim_Radius
 70
0
 62
9
  6
CONTINUOUS
  0
LAYER
  2
Dim_Angles
 70
0
 62
9
  6
CONTINUOUS
  0
LAYER
  2
Z_Other
 70
0
 62
253
  6
CONTINUOUS
  0
LAYER
  2
Const_Stairs
 70
0
 62
253
  6
CONTINUOUS
  0
LAYER
  2
Misc_Cabinets
 70
0
 62
36
  6
CONTINUOUS
  0
LAYER
  2
Z_Scale_Ruler
 70
0
 62
7
  6
CONTINUOUS
  0
LAYER
  2
Const_Fill
 70
0
 62
253
  6
CONTINUOUS
  0
LAYER
  2
Wall_Image
 70
0
 62
7
  6
CONTINUOUS
  0
LAYER
  2
Exterior_walls
 70
0
 62
5
  6
CONTINUOUS
  0
LAYER
  2
HVAC_DIM
 70
0
 62
4
  6
CONTINUOUS
  0
LAYER
  2
HVAC_H
 70
0
 62
4
  6
CONTINUOUS
  0
LAYER
  2
Electrical_DIM
 70
0
 62
6
  6
CONTINUOUS
  0
LAYER
  2
Electrical_H
 70
0
 62
6
  6
CONTINUOUS
  0
LAYER
  2
Plumbing_DIM
 70
0
 62
150
  6
CONTINUOUS
  0
LAYER
  2
Plumbing_H
 70
0
 62
150
  6
CONTINUOUS
  0
LAYER
  2
datum
 70
0
 62
1
  6
CONTINUOUS
  0
ENDTAB
  0
TABLE
  2
STYLE
 70
1
  0
STYLE
  2
STANDARD
 70
0
 40
0.0000
 41
1.0000
 50
0.0000
 71
0
 42
10.0000
  3
ARIAL.TTF
  4

  0
ENDTAB
  0
ENDSEC
  0
SECTION
  2
BLOCKS
  0
BLOCK
  8
0
  2
SOCKET
 70
0
 10
0.0000
 20
0.0000
 30
0.0000
  0
LINE
  5
1142
  8
0
 10
0.0000
 20
0.0000
 30
0.0000
 11
0.0000
 21
20.0000
 31
0.0000
  0
ARC
  5
1143
  8
0
 10
0.0000
 20
70.0000
 30
0.0000
 40
50.0000
 50
0.0000
 51
360.0000
  0
LINE
  5
1144
  8
0
 10
-50.0000
 20
70.0000
 30
0.0000
 11
50.0000
 21
70.0000
 31
0.0000
  0
LINE
  5
1145
  8
0
 10
-18.0000
 20
55.0000
 30
0.0000
 11
-18.0000
 21
85.0000
 31
0.0000
  0
LINE
  5
1146
  8
0
 10
18.0000
 20
55.0000
 30
0.0000
 11
18.0000
 21
85.0000
 31
0.0000
  0
ENDBLK
  5
1147
  8
0
  0
BLOCK
  8
0
  2
FAUCET
 70
0
 10
0.0000
 20
0.0000
 30
0.0000
  0
LINE
  5
1148
  8
0
 10
0.0000
 20
0.0000
 30
0.0000
 11
0.0000
 21
12.0000
 31
0.0000
  0
ARC
  5
1149
  8
0
 10
0.0000
 20
57.0000
 30
0.0000
 40
45.0000
 50
0.0000
 51
360.0000
  0
LINE
  5
114A
  8
0
 10
-32.0000
 20
57.0000
 30
0.0000
 11
32.0000
 21
57.0000
 31
0.0000
  0
LINE
  5
114B
  8
0
 10
0.0000
 20
25.0000
 30
0.0000
 11
0.0000
 21
89.0000
 31
0.0000
  0
ENDBLK
  5
114C
  8
0
  0
BLOCK
  8
0
  2
DUPLEXSWITCH
 70
0
 10
0.0000
 20
0.0000
 30
0.0000
  0
LINE
  5
114D
  8
0
 10
0.0000
 20
0.0000
 30
0.0000
 11
0.0000
 21
20.0000
 31
0.0000
  0
ARC
  5
114E
  8
0
 10
-45.0000
 20
70.0000
 30
0.0000
 40
38.0000
 50
0.0000
 51
360.0000
  0
ARC
  5
114F
  8
0
 10
45.0000
 20
70.0000
 30
0.0000
 40
38.0000
 50
0.0000
 51
360.0000
  0
LINE
  5
1150
  8
0
 10
-45.0000
 20
55.0000
 30
0.0000
 11
-45.0000
 21
85.0000
 31
0.0000
  0
LINE
  5
1151
  8
0
 10
45.0000
 20
55.0000
 30
0.0000
 11
45.0000
 21
85.0000
 31
0.0000
  0
ENDBLK
  5
1152
  8
0
  0
BLOCK
  8
0
  2
CONTROLBOX
 70
0
 10
0.0000
 20
0.0000
 30
0.0000
  0
LINE
  5
1153
  8
0
 10
-90.0000
 20
0.0000
 30
0.0000
 11
90.0000
 21
0.0000
 31
0.0000
  0
LINE
  5
1154
  8
0
 10
90.0000
 20
0.0000
 30
0.0000
 11
90.0000
 21
70.0000
 31
0.0000
  0
LINE
  5
1155
  8
0
 10
90.0000
 20
70.0000
 30
0.0000
 11
-90.0000
 21
70.0000
 31
0.0000
  0
LINE
  5
1156
  8
0
 10
-90.0000
 20
70.0000
 30
0.0000
 11
-90.0000
 21
0.0000
 31
0.0000
  0
LINE
  5
1157
  8
0
 10
-90.0000
 20
0.0000
 30
0.0000
 11
90.0000
 21
70.0000
 31
0.0000
  0
ENDBLK
  5
1158
  8
0
  0
BLOCK
  8
0
  2
SEWAGE
 70
0
 10
0.0000
 20
0.0000
 30
0.0000
  0
LINE
  5
1159
  8
0
 10
0.0000
 20
0.0000
 30
0.0000
 11
0.0000
 21
10.0000
 31
0.0000
  0
ARC
  5
115A
  8
0
 10
0.0000
 20
50.0000
 30
0.0000
 40
45.0000
 50
0.0000
 51
360.0000
  0
LINE
  5
115B
  8
0
 10
-30.0000
 20
20.0000
 30
0.0000
 11
30.0000
 21
80.0000
 31
0.0000
  0
LINE
  5
115C
  8
0
 10
-30.0000
 20
80.0000
 30
0.0000
 11
30.0000
 21
20.0000
 31
0.0000
  0
ENDBLK
  5
115D
  8
0
  0
BLOCK
  8
0
  2
GAS
 70
0
 10
0.0000
 20
0.0000
 30
0.0000
  0
LINE
  5
115E
  8
0
 10
0.0000
 20
0.0000
 30
0.0000
 11
0.0000
 21
18.0000
 31
0.0000
  0
ARC
  5
115F
  8
0
 10
0.0000
 20
62.0000
 30
0.0000
 40
44.0000
 50
0.0000
 51
360.0000
  0
LINE
  5
1160
  8
0
 10
-16.0000
 20
52.0000
 30
0.0000
 11
0.0000
 21
78.0000
 31
0.0000
  0
LINE
  5
1161
  8
0
 10
0.0000
 20
78.0000
 30
0.0000
 11
16.0000
 21
52.0000
 31
0.0000
  0
LINE
  5
1162
  8
0
 10
0.0000
 20
45.0000
 30
0.0000
 11
0.0000
 21
70.0000
 31
0.0000
  0
ENDBLK
  5
1163
  8
0
  0
BLOCK
  8
0
  2
LIGHTING
 70
0
 10
0.0000
 20
0.0000
 30
0.0000
  0
ARC
  5
1164
  8
0
 10
0.0000
 20
0.0000
 30
0.0000
 40
55.0000
 50
0.0000
 51
360.0000
  0
LINE
  5
1165
  8
0
 10
-38.0000
 20
-38.0000
 30
0.0000
 11
38.0000
 21
38.0000
 31
0.0000
  0
LINE
  5
1166
  8
0
 10
-38.0000
 20
38.0000
 30
0.0000
 11
38.0000
 21
-38.0000
 31
0.0000
  0
ENDBLK
  5
1167
  8
0
  0
BLOCK
  8
0
  2
WINDOW1
 70
0
 10
0.0000
 20
0.0000
 30
0.0000
  0
LINE
  5
1168
  8
0
 10
-0.5000
 20
-0.5000
 30
0.0000
 11
0.5000
 21
-0.5000
 31
0.0000
  0
LINE
  5
1169
  8
0
 10
0.5000
 20
-0.5000
 30
0.0000
 11
0.5000
 21
0.5000
 31
0.0000
  0
LINE
  5
116A
  8
0
 10
0.5000
 20
0.5000
 30
0.0000
 11
-0.5000
 21
0.5000
 31
0.0000
  0
LINE
  5
116B
  8
0
 10
-0.5000
 20
0.5000
 30
0.0000
 11
-0.5000
 21
-0.5000
 31
0.0000
  0
LINE
  5
116C
  8
0
 10
-0.5000
 20
0.0000
 30
0.0000
 11
0.5000
 21
0.0000
 31
0.0000
  0
ENDBLK
  5
116D
  8
0
  0
ENDSEC
  0
SECTION
  2
ENTITIES
  0
LINE
  5
1000
  8
Const_Walls_Ext
 10
4420.0000
 20
-5920.0000
 30
0.0000
 11
4420.0000
 21
-5680.0000
 31
0.0000
  0
LINE
  5
1001
  8
Const_Walls
 10
4520.0000
 20
-5920.0000
 30
0.0000
 11
4520.0000
 21
-5680.0000
 31
0.0000
  0
LINE
  5
1002
  8
Const_Walls
 10
4420.0000
 20
-5920.0000
 30
0.0000
 11
4520.0000
 21
-5920.0000
 31
0.0000
  0
LINE
  5
1003
  8
Const_Walls
 10
4420.0000
 20
-5680.0000
 30
0.0000
 11
4520.0000
 21
-5680.0000
 31
0.0000
  0
SOLID
  5
1004
  8
Const_Fill
 10
4420.0000
 20
-5920.0000
 30
0.0000
 11
4420.0000
 21
-5680.0000
 31
0.0000
 12
4520.0000
 22
-5920.0000
 32
0.0000
 13
4520.0000
 23
-5680.0000
 33
0.0000
  0
LINE
  5
1005
  8
Dim_Wall
 10
4470.0000
 20
-5920.0000
 30
0.0000
 11
4010.0000
 21
-5920.0000
 31
0.0000
  0
LINE
  5
1006
  8
Dim_Wall
 10
4470.0000
 20
-5680.0000
 30
0.0000
 11
4010.0000
 21
-5680.0000
 31
0.0000
  0
LINE
  5
1007
  8
Dim_Wall
 10
4070.0000
 20
-5920.0000
 30
0.0000
 11
4070.0000
 21
-5680.0000
 31
0.0000
  0
SOLID
  5
1008
  8
Dim_Wall
 10
4070.0000
 20
-5920.0000
 30
0.0000
 11
4040.0000
 21
-6010.0000
 31
0.0000
 12
4100.0000
 22
-6010.0000
 32
0.0000
 13
4100.0000
 23
-6010.0000
 33
0.0000
  0
SOLID
  5
1009
  8
Dim_Wall
 10
4070.0000
 20
-5680.0000
 30
0.0000
 11
4040.0000
 21
-5590.0000
 31
0.0000
 12
4100.0000
 22
-5590.0000
 32
0.0000
 13
4100.0000
 23
-5590.0000
 33
0.0000
  0
TEXT
  5
100A
  8
Dim_Wall
 10
4022.0000
 20
-5800.0000
 30
0.0000
 40
120.0000
 50
90.0000
  1
24
  7
STANDARD
  0
LINE
  5
100B
  8
Const_Walls_Ext
 10
4470.0000
 20
-5730.0000
 30
0.0000
 11
3686.0000
 21
-5730.0000
 31
0.0000
  0
LINE
  5
100C
  8
Const_Walls
 10
4470.0000
 20
-5630.0000
 30
0.0000
 11
3686.0000
 21
-5630.0000
 31
0.0000
  0
LINE
  5
100D
  8
Const_Walls
 10
4470.0000
 20
-5730.0000
 30
0.0000
 11
4470.0000
 21
-5630.0000
 31
0.0000
  0
LINE
  5
100E
  8
Const_Walls
 10
3686.0000
 20
-5730.0000
 30
0.0000
 11
3686.0000
 21
-5630.0000
 31
0.0000
  0
SOLID
  5
100F
  8
Const_Fill
 10
4470.0000
 20
-5730.0000
 30
0.0000
 11
3686.0000
 21
-5730.0000
 31
0.0000
 12
4470.0000
 22
-5630.0000
 32
0.0000
 13
3686.0000
 23
-5630.0000
 33
0.0000
  0
LINE
  5
1010
  8
Dim_Wall
 10
4470.0000
 20
-5680.0000
 30
0.0000
 11
4470.0000
 21
-6140.0000
 31
0.0000
  0
LINE
  5
1011
  8
Dim_Wall
 10
3686.0000
 20
-5680.0000
 30
0.0000
 11
3686.0000
 21
-6140.0000
 31
0.0000
  0
LINE
  5
1012
  8
Dim_Wall
 10
4470.0000
 20
-6080.0000
 30
0.0000
 11
3686.0000
 21
-6080.0000
 31
0.0000
  0
SOLID
  5
1013
  8
Dim_Wall
 10
4470.0000
 20
-6080.0000
 30
0.0000
 11
4560.0000
 21
-6110.0000
 31
0.0000
 12
4560.0000
 22
-6050.0000
 32
0.0000
 13
4560.0000
 23
-6050.0000
 33
0.0000
  0
SOLID
  5
1014
  8
Dim_Wall
 10
3686.0000
 20
-6080.0000
 30
0.0000
 11
3596.0000
 21
-6110.0000
 31
0.0000
 12
3596.0000
 22
-6050.0000
 32
0.0000
 13
3596.0000
 23
-6050.0000
 33
0.0000
  0
TEXT
  5
1015
  8
Dim_Wall
 10
4078.0000
 20
-6128.0000
 30
0.0000
 40
120.0000
 50
360.0000
  1
78.4
  7
STANDARD
  0
LINE
  5
1016
  8
Const_Walls_Ext
 10
3636.0000
 20
-5680.0000
 30
0.0000
 11
3636.0000
 21
-2831.0000
 31
0.0000
  0
LINE
  5
1017
  8
Const_Walls
 10
3736.0000
 20
-5680.0000
 30
0.0000
 11
3736.0000
 21
-2831.0000
 31
0.0000
  0
LINE
  5
1018
  8
Const_Walls
 10
3636.0000
 20
-5680.0000
 30
0.0000
 11
3736.0000
 21
-5680.0000
 31
0.0000
  0
LINE
  5
1019
  8
Const_Walls
 10
3636.0000
 20
-2831.0000
 30
0.0000
 11
3736.0000
 21
-2831.0000
 31
0.0000
  0
SOLID
  5
101A
  8
Const_Fill
 10
3636.0000
 20
-5680.0000
 30
0.0000
 11
3636.0000
 21
-2831.0000
 31
0.0000
 12
3736.0000
 22
-5680.0000
 32
0.0000
 13
3736.0000
 23
-2831.0000
 33
0.0000
  0
LINE
  5
101B
  8
Dim_Wall
 10
3686.0000
 20
-5680.0000
 30
0.0000
 11
3226.0000
 21
-5680.0000
 31
0.0000
  0
LINE
  5
101C
  8
Dim_Wall
 10
3686.0000
 20
-2831.0000
 30
0.0000
 11
3226.0000
 21
-2831.0000
 31
0.0000
  0
LINE
  5
101D
  8
Dim_Wall
 10
3286.0000
 20
-5680.0000
 30
0.0000
 11
3286.0000
 21
-2831.0000
 31
0.0000
  0
SOLID
  5
101E
  8
Dim_Wall
 10
3286.0000
 20
-5680.0000
 30
0.0000
 11
3256.0000
 21
-5770.0000
 31
0.0000
 12
3316.0000
 22
-5770.0000
 32
0.0000
 13
3316.0000
 23
-5770.0000
 33
0.0000
  0
SOLID
  5
101F
  8
Dim_Wall
 10
3286.0000
 20
-2831.0000
 30
0.0000
 11
3256.0000
 21
-2741.0000
 31
0.0000
 12
3316.0000
 22
-2741.0000
 32
0.0000
 13
3316.0000
 23
-2741.0000
 33
0.0000
  0
TEXT
  5
1020
  8
Dim_Wall
 10
3238.0000
 20
-4255.5000
 30
0.0000
 40
120.0000
 50
90.0000
  1
284.9
  7
STANDARD
  0
LINE
  5
1021
  8
Const_Walls_Ext
 10
3686.1745
 20
-2781.0003
 30
0.0000
 11
8007.1482
 21
-2796.0834
 31
0.0000
  0
LINE
  5
1022
  8
Const_Walls
 10
3685.8255
 20
-2880.9997
 30
0.0000
 11
8006.7991
 21
-2896.0828
 31
0.0000
  0
LINE
  5
1023
  8
Const_Walls
 10
3686.1745
 20
-2781.0003
 30
0.0000
 11
3685.8255
 21
-2880.9997
 31
0.0000
  0
LINE
  5
1024
  8
Const_Walls
 10
8007.1482
 20
-2796.0834
 30
0.0000
 11
8006.7991
 21
-2896.0828
 31
0.0000
  0
SOLID
  5
1025
  8
Const_Fill
 10
3686.1745
 20
-2781.0003
 30
0.0000
 11
8007.1482
 21
-2796.0834
 31
0.0000
 12
3685.8255
 22
-2880.9997
 32
0.0000
 13
8006.7991
 23
-2896.0828
 33
0.0000
  0
LINE
  5
1026
  8
Dim_Wall
 10
3686.0000
 20
-2831.0000
 30
0.0000
 11
3687.6057
 21
-2371.0028
 31
0.0000
  0
LINE
  5
1027
  8
Dim_Wall
 10
8006.9737
 20
-2846.0831
 30
0.0000
 11
8008.5794
 21
-2386.0859
 31
0.0000
  0
LINE
  5
1028
  8
Dim_Wall
 10
3687.3963
 20
-2431.0024
 30
0.0000
 11
8008.3699
 21
-2446.0855
 31
0.0000
  0
SOLID
  5
1029
  8
Dim_Wall
 10
3687.3963
 20
-2431.0024
 30
0.0000
 11
3597.5015
 21
-2400.6885
 31
0.0000
 12
3597.2921
 22
-2460.6881
 32
0.0000
 13
3597.2921
 23
-2460.6881
 33
0.0000
  0
SOLID
  5
102A
  8
Dim_Wall
 10
8008.3699
 20
-2446.0855
 30
0.0000
 11
8098.4741
 21
-2416.3999
 31
0.0000
 12
8098.2647
 22
-2476.3995
 32
0.0000
 13
8098.2647
 23
-2476.3995
 33
0.0000
  0
TEXT
  5
102B
  8
Dim_Wall
 10
5848.0506
 20
-2390.5443
 30
0.0000
 40
120.0000
 50
-0.2000
  1
432.1
  7
STANDARD
  0
LINE
  5
102C
  8
Const_Walls_Ext
 10
8056.9737
 20
-2846.0831
 30
0.0000
 11
8056.9737
 21
-6033.0831
 31
0.0000
  0
LINE
  5
102D
  8
Const_Walls
 10
7956.9737
 20
-2846.0831
 30
0.0000
 11
7956.9737
 21
-6033.0831
 31
0.0000
  0
LINE
  5
102E
  8
Const_Walls
 10
8056.9737
 20
-2846.0831
 30
0.0000
 11
7956.9737
 21
-2846.0831
 31
0.0000
  0
LINE
  5
102F
  8
Const_Walls
 10
8056.9737
 20
-6033.0831
 30
0.0000
 11
7956.9737
 21
-6033.0831
 31
0.0000
  0
SOLID
  5
1030
  8
Const_Fill
 10
8056.9737
 20
-2846.0831
 30
0.0000
 11
8056.9737
 21
-6033.0831
 31
0.0000
 12
7956.9737
 22
-2846.0831
 32
0.0000
 13
7956.9737
 23
-6033.0831
 33
0.0000
  0
LINE
  5
1031
  8
Dim_Wall
 10
8006.9737
 20
-2846.0831
 30
0.0000
 11
8466.9737
 21
-2846.0831
 31
0.0000
  0
LINE
  5
1032
  8
Dim_Wall
 10
8006.9737
 20
-6033.0831
 30
0.0000
 11
8466.9737
 21
-6033.0831
 31
0.0000
  0
LINE
  5
1033
  8
Dim_Wall
 10
8406.9737
 20
-2846.0831
 30
0.0000
 11
8406.9737
 21
-6033.0831
 31
0.0000
  0
SOLID
  5
1034
  8
Dim_Wall
 10
8406.9737
 20
-2846.0831
 30
0.0000
 11
8436.9737
 21
-2756.0831
 31
0.0000
 12
8376.9737
 22
-2756.0831
 32
0.0000
 13
8376.9737
 23
-2756.0831
 33
0.0000
  0
SOLID
  5
1035
  8
Dim_Wall
 10
8406.9737
 20
-6033.0831
 30
0.0000
 11
8436.9737
 21
-6123.0831
 31
0.0000
 12
8376.9737
 22
-6123.0831
 32
0.0000
 13
8376.9737
 23
-6123.0831
 33
0.0000
  0
TEXT
  5
1036
  8
Dim_Wall
 10
8454.9737
 20
-4439.5831
 30
0.0000
 40
120.0000
 50
90.0000
  1
318.7
  7
STANDARD
  0
LINE
  5
1037
  8
Const_Walls_Ext
 10
8006.9737
 20
-5983.0831
 30
0.0000
 11
9824.9737
 21
-5983.0831
 31
0.0000
  0
LINE
  5
1038
  8
Const_Walls
 10
8006.9737
 20
-6083.0831
 30
0.0000
 11
9824.9737
 21
-6083.0831
 31
0.0000
  0
LINE
  5
1039
  8
Const_Walls
 10
8006.9737
 20
-5983.0831
 30
0.0000
 11
8006.9737
 21
-6083.0831
 31
0.0000
  0
LINE
  5
103A
  8
Const_Walls
 10
9824.9737
 20
-5983.0831
 30
0.0000
 11
9824.9737
 21
-6083.0831
 31
0.0000
  0
SOLID
  5
103B
  8
Const_Fill
 10
8006.9737
 20
-5983.0831
 30
0.0000
 11
9824.9737
 21
-5983.0831
 31
0.0000
 12
8006.9737
 22
-6083.0831
 32
0.0000
 13
9824.9737
 23
-6083.0831
 33
0.0000
  0
LINE
  5
103C
  8
Dim_Wall
 10
8006.9737
 20
-6033.0831
 30
0.0000
 11
8006.9737
 21
-5573.0831
 31
0.0000
  0
LINE
  5
103D
  8
Dim_Wall
 10
9824.9737
 20
-6033.0831
 30
0.0000
 11
9824.9737
 21
-5573.0831
 31
0.0000
  0
LINE
  5
103E
  8
Dim_Wall
 10
8006.9737
 20
-5633.0831
 30
0.0000
 11
9824.9737
 21
-5633.0831
 31
0.0000
  0
SOLID
  5
103F
  8
Dim_Wall
 10
8006.9737
 20
-5633.0831
 30
0.0000
 11
7916.9737
 21
-5603.0831
 31
0.0000
 12
7916.9737
 22
-5663.0831
 32
0.0000
 13
7916.9737
 23
-5663.0831
 33
0.0000
  0
SOLID
  5
1040
  8
Dim_Wall
 10
9824.9737
 20
-5633.0831
 30
0.0000
 11
9914.9737
 21
-5603.0831
 31
0.0000
 12
9914.9737
 22
-5663.0831
 32
0.0000
 13
9914.9737
 23
-5663.0831
 33
0.0000
  0
TEXT
  5
1041
  8
Dim_Wall
 10
8915.9737
 20
-5585.0831
 30
0.0000
 40
120.0000
 50
0.0000
  1
181.8
  7
STANDARD
  0
INSERT
  5
1042
  8
Const_Windows
  2
WINDOW1
 10
4705.0000
 20
-2835.0000
 30
0.0000
 41
2149.0000
 42
100.0000
 43
1.0000
 50
359.8000
  0
INSERT
  5
1043
  8
Const_Windows
  2
WINDOW1
 10
8007.0000
 20
-3502.0000
 30
0.0000
 41
1157.0000
 42
100.0000
 43
1.0000
 50
270.0000
  0
INSERT
  5
1044
  8
Electrical
  2
Socket
 10
4470.0000
 20
-5795.0000
 30
0.0000
 41
1.0000
 42
1.0000
 43
1.0000
 50
90.0000
  0
TEXT
  5
1045
  8
Electrical_H
 10
4540.0000
 20
-5755.0000
 30
0.0000
 40
90.0000
 50
0.0000
  1
H 112.5
  7
STANDARD
  0
LINE
  5
1046
  8
Electrical_DIM
 10
4470.0000
 20
-5920.0000
 30
0.0000
 11
4730.0000
 21
-5920.0000
 31
0.0000
  0
LINE
  5
1047
  8
Electrical_DIM
 10
4470.0000
 20
-5795.0000
 30
0.0000
 11
4730.0000
 21
-5795.0000
 31
0.0000
  0
LINE
  5
1048
  8
Electrical_DIM
 10
4670.0000
 20
-5920.0000
 30
0.0000
 11
4670.0000
 21
-5795.0000
 31
0.0000
  0
SOLID
  5
1049
  8
Electrical_DIM
 10
4670.0000
 20
-5920.0000
 30
0.0000
 11
4700.0000
 21
-6010.0000
 31
0.0000
 12
4640.0000
 22
-6010.0000
 32
0.0000
 13
4640.0000
 23
-6010.0000
 33
0.0000
  0
SOLID
  5
104A
  8
Electrical_DIM
 10
4670.0000
 20
-5795.0000
 30
0.0000
 11
4700.0000
 21
-5705.0000
 31
0.0000
 12
4640.0000
 22
-5705.0000
 32
0.0000
 13
4640.0000
 23
-5705.0000
 33
0.0000
  0
TEXT
  5
104B
  8
Electrical_DIM
 10
4706.0000
 20
-5857.5000
 30
0.0000
 40
90.0000
 50
90.0000
  1
12.5
  7
STANDARD
  0
INSERT
  5
104C
  8
Electrical
  2
Socket
 10
3686.0000
 20
-4610.0000
 30
0.0000
 41
1.0000
 42
1.0000
 43
1.0000
 50
90.0000
  0
TEXT
  5
104D
  8
Electrical_H
 10
3756.0000
 20
-4570.0000
 30
0.0000
 40
90.0000
 50
0.0000
  1
H 171.7
  7
STANDARD
  0
LINE
  5
104E
  8
Electrical_DIM
 10
3686.0000
 20
-5680.0000
 30
0.0000
 11
3946.0000
 21
-5680.0000
 31
0.0000
  0
LINE
  5
104F
  8
Electrical_DIM
 10
3686.0000
 20
-4610.0000
 30
0.0000
 11
3946.0000
 21
-4610.0000
 31
0.0000
  0
LINE
  5
1050
  8
Electrical_DIM
 10
3886.0000
 20
-5680.0000
 30
0.0000
 11
3886.0000
 21
-4610.0000
 31
0.0000
  0
SOLID
  5
1051
  8
Electrical_DIM
 10
3886.0000
 20
-5680.0000
 30
0.0000
 11
3916.0000
 21
-5770.0000
 31
0.0000
 12
3856.0000
 22
-5770.0000
 32
0.0000
 13
3856.0000
 23
-5770.0000
 33
0.0000
  0
SOLID
  5
1052
  8
Electrical_DIM
 10
3886.0000
 20
-4610.0000
 30
0.0000
 11
3916.0000
 21
-4520.0000
 31
0.0000
 12
3856.0000
 22
-4520.0000
 32
0.0000
 13
3856.0000
 23
-4520.0000
 33
0.0000
  0
TEXT
  5
1053
  8
Electrical_DIM
 10
3922.0000
 20
-5145.0000
 30
0.0000
 40
90.0000
 50
90.0000
  1
107
  7
STANDARD
  0
INSERT
  5
1054
  8
Electrical
  2
Socket
 10
3686.0000
 20
-3905.0000
 30
0.0000
 41
1.0000
 42
1.0000
 43
1.0000
 50
90.0000
  0
TEXT
  5
1055
  8
Electrical_H
 10
3756.0000
 20
-3865.0000
 30
0.0000
 40
90.0000
 50
0.0000
  1
H 156.8
  7
STANDARD
  0
LINE
  5
1056
  8
Electrical_DIM
 10
3686.0000
 20
-5680.0000
 30
0.0000
 11
3946.0000
 21
-5680.0000
 31
0.0000
  0
LINE
  5
1057
  8
Electrical_DIM
 10
3686.0000
 20
-3905.0000
 30
0.0000
 11
3946.0000
 21
-3905.0000
 31
0.0000
  0
LINE
  5
1058
  8
Electrical_DIM
 10
3886.0000
 20
-5680.0000
 30
0.0000
 11
3886.0000
 21
-3905.0000
 31
0.0000
  0
SOLID
  5
1059
  8
Electrical_DIM
 10
3886.0000
 20
-5680.0000
 30
0.0000
 11
3916.0000
 21
-5770.0000
 31
0.0000
 12
3856.0000
 22
-5770.0000
 32
0.0000
 13
3856.0000
 23
-5770.0000
 33
0.0000
  0
SOLID
  5
105A
  8
Electrical_DIM
 10
3886.0000
 20
-3905.0000
 30
0.0000
 11
3916.0000
 21
-3815.0000
 31
0.0000
 12
3856.0000
 22
-3815.0000
 32
0.0000
 13
3856.0000
 23
-3815.0000
 33
0.0000
  0
TEXT
  5
105B
  8
Electrical_DIM
 10
3922.0000
 20
-4792.5000
 30
0.0000
 40
90.0000
 50
90.0000
  1
177.5
  7
STANDARD
  0
INSERT
  5
105C
  8
Electrical
  2
Socket
 10
3686.0000
 20
-3766.0000
 30
0.0000
 41
1.0000
 42
1.0000
 43
1.0000
 50
90.0000
  0
TEXT
  5
105D
  8
Electrical_H
 10
3756.0000
 20
-3726.0000
 30
0.0000
 40
90.0000
 50
0.0000
  1
H 156.5
  7
STANDARD
  0
LINE
  5
105E
  8
Electrical_DIM
 10
3686.0000
 20
-5680.0000
 30
0.0000
 11
3946.0000
 21
-5680.0000
 31
0.0000
  0
LINE
  5
105F
  8
Electrical_DIM
 10
3686.0000
 20
-3766.0000
 30
0.0000
 11
3946.0000
 21
-3766.0000
 31
0.0000
  0
LINE
  5
1060
  8
Electrical_DIM
 10
3886.0000
 20
-5680.0000
 30
0.0000
 11
3886.0000
 21
-3766.0000
 31
0.0000
  0
SOLID
  5
1061
  8
Electrical_DIM
 10
3886.0000
 20
-5680.0000
 30
0.0000
 11
3916.0000
 21
-5770.0000
 31
0.0000
 12
3856.0000
 22
-5770.0000
 32
0.0000
 13
3856.0000
 23
-5770.0000
 33
0.0000
  0
SOLID
  5
1062
  8
Electrical_DIM
 10
3886.0000
 20
-3766.0000
 30
0.0000
 11
3916.0000
 21
-3676.0000
 31
0.0000
 12
3856.0000
 22
-3676.0000
 32
0.0000
 13
3856.0000
 23
-3676.0000
 33
0.0000
  0
TEXT
  5
1063
  8
Electrical_DIM
 10
3922.0000
 20
-4723.0000
 30
0.0000
 40
90.0000
 50
90.0000
  1
191.4
  7
STANDARD
  0
INSERT
  5
1064
  8
Electrical
  2
Socket
 10
3686.0000
 20
-3105.0000
 30
0.0000
 41
1.0000
 42
1.0000
 43
1.0000
 50
90.0000
  0
TEXT
  5
1065
  8
Electrical_H
 10
3756.0000
 20
-3065.0000
 30
0.0000
 40
90.0000
 50
0.0000
  1
H 112.6
  7
STANDARD
  0
LINE
  5
1066
  8
Electrical_DIM
 10
3686.0000
 20
-5680.0000
 30
0.0000
 11
3946.0000
 21
-5680.0000
 31
0.0000
  0
LINE
  5
1067
  8
Electrical_DIM
 10
3686.0000
 20
-3105.0000
 30
0.0000
 11
3946.0000
 21
-3105.0000
 31
0.0000
  0
LINE
  5
1068
  8
Electrical_DIM
 10
3886.0000
 20
-5680.0000
 30
0.0000
 11
3886.0000
 21
-3105.0000
 31
0.0000
  0
SOLID
  5
1069
  8
Electrical_DIM
 10
3886.0000
 20
-5680.0000
 30
0.0000
 11
3916.0000
 21
-5770.0000
 31
0.0000
 12
3856.0000
 22
-5770.0000
 32
0.0000
 13
3856.0000
 23
-5770.0000
 33
0.0000
  0
SOLID
  5
106A
  8
Electrical_DIM
 10
3886.0000
 20
-3105.0000
 30
0.0000
 11
3916.0000
 21
-3015.0000
 31
0.0000
 12
3856.0000
 22
-3015.0000
 32
0.0000
 13
3856.0000
 23
-3015.0000
 33
0.0000
  0
TEXT
  5
106B
  8
Electrical_DIM
 10
3922.0000
 20
-4392.5000
 30
0.0000
 40
90.0000
 50
90.0000
  1
257.5
  7
STANDARD
  0
INSERT
  5
106C
  8
Plumbing
  2
Faucet
 10
3686.0000
 20
-3279.0000
 30
0.0000
 41
1.0000
 42
1.0000
 43
1.0000
 50
90.0000
  0
TEXT
  5
106D
  8
Plumbing_H
 10
3756.0000
 20
-3239.0000
 30
0.0000
 40
90.0000
 50
0.0000
  1
H 115.5
  7
STANDARD
  0
LINE
  5
106E
  8
Plumbing_DIM
 10
3686.0000
 20
-5680.0000
 30
0.0000
 11
3946.0000
 21
-5680.0000
 31
0.0000
  0
LINE
  5
106F
  8
Plumbing_DIM
 10
3686.0000
 20
-3279.0000
 30
0.0000
 11
3946.0000
 21
-3279.0000
 31
0.0000
  0
LINE
  5
1070
  8
Plumbing_DIM
 10
3886.0000
 20
-5680.0000
 30
0.0000
 11
3886.0000
 21
-3279.0000
 31
0.0000
  0
SOLID
  5
1071
  8
Plumbing_DIM
 10
3886.0000
 20
-5680.0000
 30
0.0000
 11
3916.0000
 21
-5770.0000
 31
0.0000
 12
3856.0000
 22
-5770.0000
 32
0.0000
 13
3856.0000
 23
-5770.0000
 33
0.0000
  0
SOLID
  5
1072
  8
Plumbing_DIM
 10
3886.0000
 20
-3279.0000
 30
0.0000
 11
3916.0000
 21
-3189.0000
 31
0.0000
 12
3856.0000
 22
-3189.0000
 32
0.0000
 13
3856.0000
 23
-3189.0000
 33
0.0000
  0
TEXT
  5
1073
  8
Plumbing_DIM
 10
3922.0000
 20
-4479.5000
 30
0.0000
 40
90.0000
 50
90.0000
  1
240.1
  7
STANDARD
  0
INSERT
  5
1074
  8
Electrical
  2
Socket
 10
4477.0000
 20
-2834.0000
 30
0.0000
 41
1.0000
 42
1.0000
 43
1.0000
 50
359.8000
  0
TEXT
  5
1075
  8
Electrical_H
 10
4547.0000
 20
-2794.0000
 30
0.0000
 40
90.0000
 50
0.0000
  1
H 110
  7
STANDARD
  0
LINE
  5
1076
  8
Electrical_DIM
 10
3686.0000
 20
-2831.0000
 30
0.0000
 11
3685.0139
 21
-3090.9981
 31
0.0000
  0
LINE
  5
1077
  8
Electrical_DIM
 10
4477.0000
 20
-2834.0000
 30
0.0000
 11
4476.0139
 21
-3093.9981
 31
0.0000
  0
LINE
  5
1078
  8
Electrical_DIM
 10
3685.2415
 20
-3030.9986
 30
0.0000
 11
4476.2415
 21
-3033.9986
 31
0.0000
  0
SOLID
  5
1079
  8
Electrical_DIM
 10
3685.2415
 20
-3030.9986
 30
0.0000
 11
3595.1283
 21
-3060.6570
 31
0.0000
 12
3595.3559
 22
-3000.6574
 32
0.0000
 13
3595.3559
 23
-3000.6574
 33
0.0000
  0
SOLID
  5
107A
  8
Electrical_DIM
 10
4476.2415
 20
-3033.9986
 30
0.0000
 11
4566.1270
 21
-3064.3397
 31
0.0000
 12
4566.3546
 22
-3004.3401
 32
0.0000
 13
4566.3546
 23
-3004.3401
 33
0.0000
  0
TEXT
  5
107B
  8
Electrical_DIM
 10
4080.6049
 20
-3068.4983
 30
0.0000
 40
90.0000
 50
-0.2173
  1
79.1
  7
STANDARD
  0
INSERT
  5
107C
  8
Electrical
  2
Socket
 10
4840.0000
 20
-2835.0000
 30
0.0000
 41
1.0000
 42
1.0000
 43
1.0000
 50
359.8000
  0
TEXT
  5
107D
  8
Electrical_H
 10
4910.0000
 20
-2795.0000
 30
0.0000
 40
90.0000
 50
0.0000
  1
H 99.3
  7
STANDARD
  0
LINE
  5
107E
  8
Electrical_DIM
 10
3686.0000
 20
-2831.0000
 30
0.0000
 11
3685.0988
 21
-3090.9984
 31
0.0000
  0
LINE
  5
107F
  8
Electrical_DIM
 10
4840.0000
 20
-2835.0000
 30
0.0000
 11
4839.0988
 21
-3094.9984
 31
0.0000
  0
LINE
  5
1080
  8
Electrical_DIM
 10
3685.3068
 20
-3030.9988
 30
0.0000
 11
4839.3068
 21
-3034.9988
 31
0.0000
  0
SOLID
  5
1081
  8
Electrical_DIM
 10
3685.3068
 20
-3030.9988
 30
0.0000
 11
3595.2033
 21
-3060.6867
 31
0.0000
 12
3595.4113
 22
-3000.6870
 32
0.0000
 13
3595.4113
 23
-3000.6870
 33
0.0000
  0
SOLID
  5
1082
  8
Electrical_DIM
 10
4839.3068
 20
-3034.9988
 30
0.0000
 11
4929.2022
 21
-3065.3106
 31
0.0000
 12
4929.4102
 22
-3005.3109
 32
0.0000
 13
4929.4102
 23
-3005.3109
 33
0.0000
  0
TEXT
  5
1083
  8
Electrical_DIM
 10
4262.1820
 20
-3068.9986
 30
0.0000
 40
90.0000
 50
-0.1986
  1
115.4
  7
STANDARD
  0
INSERT
  5
1084
  8
Electrical
  2
DuplexSwitch
 10
4991.0000
 20
-2836.0000
 30
0.0000
 41
1.0000
 42
1.0000
 43
1.0000
 50
359.8000
  0
TEXT
  5
1085
  8
Electrical_H
 10
5061.0000
 20
-2796.0000
 30
0.0000
 40
90.0000
 50
0.0000
  1
H 99.4
  7
STANDARD
  0
LINE
  5
1086
  8
Electrical_DIM
 10
3686.0000
 20
-2831.0000
 30
0.0000
 11
3685.0038
 21
-3090.9981
 31
0.0000
  0
LINE
  5
1087
  8
Electrical_DIM
 10
4991.0000
 20
-2836.0000
 30
0.0000
 11
4990.0038
 21
-3095.9981
 31
0.0000
  0
LINE
  5
1088
  8
Electrical_DIM
 10
3685.2337
 20
-3030.9985
 30
0.0000
 11
4990.2337
 21
-3035.9985
 31
0.0000
  0
SOLID
  5
1089
  8
Electrical_DIM
 10
3685.2337
 20
-3030.9985
 30
0.0000
 11
3595.1194
 21
-3060.6535
 31
0.0000
 12
3595.3493
 22
-3000.6539
 32
0.0000
 13
3595.3493
 23
-3000.6539
 33
0.0000
  0
SOLID
  5
108A
  8
Electrical_DIM
 10
4990.2337
 20
-3035.9985
 30
0.0000
 11
5080.1181
 21
-3066.3431
 31
0.0000
 12
5080.3480
 22
-3006.3436
 32
0.0000
 13
5080.3480
 23
-3006.3436
 33
0.0000
  0
TEXT
  5
108B
  8
Electrical_DIM
 10
4337.5958
 20
-3069.4983
 30
0.0000
 40
90.0000
 50
-0.2195
  1
130.5
  7
STANDARD
  0
INSERT
  5
108C
  8
Electrical
  2
ControlBox
 10
4625.0000
 20
-2834.0000
 30
0.0000
 41
1.0000
 42
1.0000
 43
1.0000
 50
359.8000
  0
TEXT
  5
108D
  8
Electrical_H
 10
4695.0000
 20
-2794.0000
 30
0.0000
 40
90.0000
 50
0.0000
  1
H 230.1
  7
STANDARD
  0
LINE
  5
108E
  8
Electrical_DIM
 10
3686.0000
 20
-2831.0000
 30
0.0000
 11
3685.1693
 21
-3090.9987
 31
0.0000
  0
LINE
  5
108F
  8
Electrical_DIM
 10
4625.0000
 20
-2834.0000
 30
0.0000
 11
4624.1693
 21
-3093.9987
 31
0.0000
  0
LINE
  5
1090
  8
Electrical_DIM
 10
3685.3610
 20
-3030.9990
 30
0.0000
 11
4624.3610
 21
-3033.9990
 31
0.0000
  0
SOLID
  5
1091
  8
Electrical_DIM
 10
3685.3610
 20
-3030.9990
 30
0.0000
 11
3595.2656
 21
-3060.7113
 31
0.0000
 12
3595.4573
 22
-3000.7116
 32
0.0000
 13
3595.4573
 23
-3000.7116
 33
0.0000
  0
SOLID
  5
1092
  8
Electrical_DIM
 10
4624.3610
 20
-3033.9990
 30
0.0000
 11
4714.2647
 21
-3064.2864
 31
0.0000
 12
4714.4564
 22
-3004.2867
 32
0.0000
 13
4714.4564
 23
-3004.2867
 33
0.0000
  0
TEXT
  5
1093
  8
Electrical_DIM
 10
4154.7460
 20
-3068.4988
 30
0.0000
 40
90.0000
 50
-0.1831
  1
93.9
  7
STANDARD
  0
INSERT
  5
1094
  8
Electrical
  2
Socket
 10
5443.0000
 20
-2837.0000
 30
0.0000
 41
1.0000
 42
1.0000
 43
1.0000
 50
359.8000
  0
TEXT
  5
1095
  8
Electrical_H
 10
5513.0000
 20
-2797.0000
 30
0.0000
 40
90.0000
 50
0.0000
  1
H 44.5
  7
STANDARD
  0
LINE
  5
1096
  8
Electrical_DIM
 10
3686.0000
 20
-2831.0000
 30
0.0000
 11
3685.1121
 21
-3090.9985
 31
0.0000
  0
LINE
  5
1097
  8
Electrical_DIM
 10
5443.0000
 20
-2837.0000
 30
0.0000
 11
5442.1121
 21
-3096.9985
 31
0.0000
  0
LINE
  5
1098
  8
Electrical_DIM
 10
3685.3170
 20
-3030.9988
 30
0.0000
 11
5442.3170
 21
-3036.9988
 31
0.0000
  0
SOLID
  5
1099
  8
Electrical_DIM
 10
3685.3170
 20
-3030.9988
 30
0.0000
 11
3595.2151
 21
-3060.6913
 31
0.0000
 12
3595.4200
 22
-3000.6917
 32
0.0000
 13
3595.4200
 23
-3000.6917
 33
0.0000
  0
SOLID
  5
109A
  8
Electrical_DIM
 10
5442.3170
 20
-3036.9988
 30
0.0000
 11
5532.2141
 21
-3067.3060
 31
0.0000
 12
5532.4189
 22
-3007.3063
 32
0.0000
 13
5532.4189
 23
-3007.3063
 33
0.0000
  0
TEXT
  5
109B
  8
Electrical_DIM
 10
4563.6941
 20
-3069.9986
 30
0.0000
 40
90.0000
 50
-0.1957
  1
175.7
  7
STANDARD
  0
INSERT
  5
109C
  8
Plumbing
  2
Faucet
 10
5619.0000
 20
-2838.0000
 30
0.0000
 41
1.0000
 42
1.0000
 43
1.0000
 50
359.8000
  0
TEXT
  5
109D
  8
Plumbing_H
 10
5689.0000
 20
-2798.0000
 30
0.0000
 40
90.0000
 50
0.0000
  1
H 53.6
  7
STANDARD
  0
LINE
  5
109E
  8
Plumbing_DIM
 10
3686.0000
 20
-2831.0000
 30
0.0000
 11
3685.0585
 21
-3090.9983
 31
0.0000
  0
LINE
  5
109F
  8
Plumbing_DIM
 10
5619.0000
 20
-2838.0000
 30
0.0000
 11
5618.0585
 21
-3097.9983
 31
0.0000
  0
LINE
  5
10A0
  8
Plumbing_DIM
 10
3685.2757
 20
-3030.9987
 30
0.0000
 11
5618.2757
 21
-3037.9987
 31
0.0000
  0
SOLID
  5
10A1
  8
Plumbing_DIM
 10
3685.2757
 20
-3030.9987
 30
0.0000
 11
3595.1677
 21
-3060.6726
 31
0.0000
 12
3595.3850
 22
-3000.6730
 32
0.0000
 13
3595.3850
 23
-3000.6730
 33
0.0000
  0
SOLID
  5
10A2
  8
Plumbing_DIM
 10
5618.2757
 20
-3037.9987
 30
0.0000
 11
5708.1665
 21
-3068.3244
 31
0.0000
 12
5708.3838
 22
-3008.3248
 32
0.0000
 13
5708.3838
 23
-3008.3248
 33
0.0000
  0
TEXT
  5
10A3
  8
Plumbing_DIM
 10
4651.6454
 20
-3070.4985
 30
0.0000
 40
90.0000
 50
-0.2075
  1
193.3
  7
STANDARD
  0
INSERT
  5
10A4
  8
Plumbing
  2
Faucet
 10
5770.0000
 20
-2838.0000
 30
0.0000
 41
1.0000
 42
1.0000
 43
1.0000
 50
359.8000
  0
TEXT
  5
10A5
  8
Plumbing_H
 10
5840.0000
 20
-2798.0000
 30
0.0000
 40
90.0000
 50
0.0000
  1
H 54.3
  7
STANDARD
  0
LINE
  5
10A6
  8
Plumbing_DIM
 10
3686.0000
 20
-2831.0000
 30
0.0000
 11
3685.1267
 21
-3090.9985
 31
0.0000
  0
LINE
  5
10A7
  8
Plumbing_DIM
 10
5770.0000
 20
-2838.0000
 30
0.0000
 11
5769.1267
 21
-3097.9985
 31
0.0000
  0
LINE
  5
10A8
  8
Plumbing_DIM
 10
3685.3282
 20
-3030.9989
 30
0.0000
 11
5769.3282
 21
-3037.9989
 31
0.0000
  0
SOLID
  5
10A9
  8
Plumbing_DIM
 10
3685.3282
 20
-3030.9989
 30
0.0000
 11
3595.2280
 21
-3060.6964
 31
0.0000
 12
3595.4295
 22
-3000.6967
 32
0.0000
 13
3595.4295
 23
-3000.6967
 33
0.0000
  0
SOLID
  5
10AA
  8
Plumbing_DIM
 10
5769.3282
 20
-3037.9989
 30
0.0000
 11
5859.2269
 21
-3068.3010
 31
0.0000
 12
5859.4285
 22
-3008.3013
 32
0.0000
 13
5859.4285
 23
-3008.3013
 33
0.0000
  0
TEXT
  5
10AB
  8
Plumbing_DIM
 10
4727.2073
 20
-3070.4987
 30
0.0000
 40
90.0000
 50
-0.1925
  1
208.4
  7
STANDARD
  0
INSERT
  5
10AC
  8
Plumbing
  2
Faucet
 10
5881.0000
 20
-2839.0000
 30
0.0000
 41
1.0000
 42
1.0000
 43
1.0000
 50
359.8000
  0
TEXT
  5
10AD
  8
Plumbing_H
 10
5951.0000
 20
-2799.0000
 30
0.0000
 40
90.0000
 50
0.0000
  1
H 52.9
  7
STANDARD
  0
LINE
  5
10AE
  8
Plumbing_DIM
 10
3686.0000
 20
-2831.0000
 30
0.0000
 11
3685.0524
 21
-3090.9983
 31
0.0000
  0
LINE
  5
10AF
  8
Plumbing_DIM
 10
5881.0000
 20
-2839.0000
 30
0.0000
 11
5880.0524
 21
-3098.9983
 31
0.0000
  0
LINE
  5
10B0
  8
Plumbing_DIM
 10
3685.2711
 20
-3030.9987
 30
0.0000
 11
5880.2711
 21
-3038.9987
 31
0.0000
  0
SOLID
  5
10B1
  8
Plumbing_DIM
 10
3685.2711
 20
-3030.9987
 30
0.0000
 11
3595.1623
 21
-3060.6705
 31
0.0000
 12
3595.3810
 22
-3000.6709
 32
0.0000
 13
3595.3810
 23
-3000.6709
 33
0.0000
  0
SOLID
  5
10B2
  8
Plumbing_DIM
 10
5880.2711
 20
-3038.9987
 30
0.0000
 11
5970.1611
 21
-3069.3265
 31
0.0000
 12
5970.3798
 22
-3009.3269
 32
0.0000
 13
5970.3798
 23
-3009.3269
 33
0.0000
  0
TEXT
  5
10B3
  8
Plumbing_DIM
 10
4782.6399
 20
-3070.9984
 30
0.0000
 40
90.0000
 50
-0.2088
  1
219.5
  7
STANDARD
  0
INSERT
  5
10B4
  8
Plumbing
  2
Sewage
 10
5774.0000
 20
-2838.0000
 30
0.0000
 41
1.0000
 42
1.0000
 43
1.0000
 50
359.8000
  0
TEXT
  5
10B5
  8
Plumbing_H
 10
5844.0000
 20
-2798.0000
 30
0.0000
 40
90.0000
 50
0.0000
  1
H -0.2
  7
STANDARD
  0
LINE
  5
10B6
  8
Plumbing_DIM
 10
3686.0000
 20
-2831.0000
 30
0.0000
 11
3685.1284
 21
-3090.9985
 31
0.0000
  0
LINE
  5
10B7
  8
Plumbing_DIM
 10
5774.0000
 20
-2838.0000
 30
0.0000
 11
5773.1284
 21
-3097.9985
 31
0.0000
  0
LINE
  5
10B8
  8
Plumbing_DIM
 10
3685.3295
 20
-3030.9989
 30
0.0000
 11
5773.3295
 21
-3037.9989
 31
0.0000
  0
SOLID
  5
10B9
  8
Plumbing_DIM
 10
3685.3295
 20
-3030.9989
 30
0.0000
 11
3595.2294
 21
-3060.6970
 31
0.0000
 12
3595.4306
 22
-3000.6973
 32
0.0000
 13
3595.4306
 23
-3000.6973
 33
0.0000
  0
SOLID
  5
10BA
  8
Plumbing_DIM
 10
5773.3295
 20
-3037.9989
 30
0.0000
 11
5863.2284
 21
-3068.3004
 31
0.0000
 12
5863.4296
 22
-3008.3008
 32
0.0000
 13
5863.4296
 23
-3008.3008
 33
0.0000
  0
TEXT
  5
10BB
  8
Plumbing_DIM
 10
4729.2088
 20
-3070.4987
 30
0.0000
 40
90.0000
 50
-0.1921
  1
208.8
  7
STANDARD
  0
INSERT
  5
10BC
  8
Electrical
  2
Socket
 10
7027.0000
 20
-2843.0000
 30
0.0000
 41
1.0000
 42
1.0000
 43
1.0000
 50
359.8000
  0
TEXT
  5
10BD
  8
Electrical_H
 10
7097.0000
 20
-2803.0000
 30
0.0000
 40
90.0000
 50
0.0000
  1
H 43.5
  7
STANDARD
  0
LINE
  5
10BE
  8
Electrical_DIM
 10
3686.0000
 20
-2831.0000
 30
0.0000
 11
3685.0662
 21
-3090.9983
 31
0.0000
  0
LINE
  5
10BF
  8
Electrical_DIM
 10
7027.0000
 20
-2843.0000
 30
0.0000
 11
7026.0662
 21
-3102.9983
 31
0.0000
  0
LINE
  5
10C0
  8
Electrical_DIM
 10
3685.2817
 20
-3030.9987
 30
0.0000
 11
7026.2817
 21
-3042.9987
 31
0.0000
  0
SOLID
  5
10C1
  8
Electrical_DIM
 10
3685.2817
 20
-3030.9987
 30
0.0000
 11
3595.1745
 21
-3060.6753
 31
0.0000
 12
3595.3900
 22
-3000.6756
 32
0.0000
 13
3595.3900
 23
-3000.6756
 33
0.0000
  0
SOLID
  5
10C2
  8
Electrical_DIM
 10
7026.2817
 20
-3042.9987
 30
0.0000
 11
7116.1733
 21
-3073.3218
 31
0.0000
 12
7116.3888
 22
-3013.3222
 32
0.0000
 13
7116.3888
 23
-3013.3222
 33
0.0000
  0
TEXT
  5
10C3
  8
Electrical_DIM
 10
5355.6524
 20
-3072.9985
 30
0.0000
 40
90.0000
 50
-0.2058
  1
334.1
  7
STANDARD
  0
INSERT
  5
10C4
  8
Electrical
  2
Socket
 10
7180.0000
 20
-2843.0000
 30
0.0000
 41
1.0000
 42
1.0000
 43
1.0000
 50
359.8000
  0
TEXT
  5
10C5
  8
Electrical_H
 10
7250.0000
 20
-2803.0000
 30
0.0000
 40
90.0000
 50
0.0000
  1
H 43.7
  7
STANDARD
  0
LINE
  5
10C6
  8
Electrical_DIM
 10
3686.0000
 20
-2831.0000
 30
0.0000
 11
3685.1070
 21
-3090.9985
 31
0.0000
  0
LINE
  5
10C7
  8
Electrical_DIM
 10
7180.0000
 20
-2843.0000
 30
0.0000
 11
7179.1070
 21
-3102.9985
 31
0.0000
  0
LINE
  5
10C8
  8
Electrical_DIM
 10
3685.3131
 20
-3030.9988
 30
0.0000
 11
7179.3131
 21
-3042.9988
 31
0.0000
  0
SOLID
  5
10C9
  8
Electrical_DIM
 10
3685.3131
 20
-3030.9988
 30
0.0000
 11
3595.2106
 21
-3060.6895
 31
0.0000
 12
3595.4167
 22
-3000.6899
 32
0.0000
 13
3595.4167
 23
-3000.6899
 33
0.0000
  0
SOLID
  5
10CA
  8
Electrical_DIM
 10
7179.3131
 20
-3042.9988
 30
0.0000
 11
7269.2095
 21
-3073.3077
 31
0.0000
 12
7269.4156
 22
-3013.3081
 32
0.0000
 13
7269.4156
 23
-3013.3081
 33
0.0000
  0
TEXT
  5
10CB
  8
Electrical_DIM
 10
5432.1895
 20
-3072.9986
 30
0.0000
 40
90.0000
 50
-0.1968
  1
349.4
  7
STANDARD
  0
INSERT
  5
10CC
  8
Electrical
  2
Socket
 10
7821.0000
 20
-2845.0000
 30
0.0000
 41
1.0000
 42
1.0000
 43
1.0000
 50
359.8000
  0
TEXT
  5
10CD
  8
Electrical_H
 10
7891.0000
 20
-2805.0000
 30
0.0000
 40
90.0000
 50
0.0000
  1
H 112
  7
STANDARD
  0
LINE
  5
10CE
  8
Electrical_DIM
 10
3686.0000
 20
-2831.0000
 30
0.0000
 11
3685.1197
 21
-3090.9985
 31
0.0000
  0
LINE
  5
10CF
  8
Electrical_DIM
 10
7821.0000
 20
-2845.0000
 30
0.0000
 11
7820.1197
 21
-3104.9985
 31
0.0000
  0
LINE
  5
10D0
  8
Electrical_DIM
 10
3685.3229
 20
-3030.9989
 30
0.0000
 11
7820.3229
 21
-3044.9989
 31
0.0000
  0
SOLID
  5
10D1
  8
Electrical_DIM
 10
3685.3229
 20
-3030.9989
 30
0.0000
 11
3595.2218
 21
-3060.6940
 31
0.0000
 12
3595.4249
 22
-3000.6943
 32
0.0000
 13
3595.4249
 23
-3000.6943
 33
0.0000
  0
SOLID
  5
10D2
  8
Electrical_DIM
 10
7820.3229
 20
-3044.9989
 30
0.0000
 11
7910.2208
 21
-3075.3034
 31
0.0000
 12
7910.4239
 22
-3015.3037
 32
0.0000
 13
7910.4239
 23
-3015.3037
 33
0.0000
  0
TEXT
  5
10D3
  8
Electrical_DIM
 10
5752.7010
 20
-3073.9986
 30
0.0000
 40
90.0000
 50
-0.1940
  1
413.5
  7
STANDARD
  0
INSERT
  5
10D4
  8
Plumbing
  2
Gas
 10
7836.0000
 20
-2845.0000
 30
0.0000
 41
1.0000
 42
1.0000
 43
1.0000
 50
359.8000
  0
TEXT
  5
10D5
  8
Plumbing_H
 10
7906.0000
 20
-2805.0000
 30
0.0000
 40
90.0000
 50
0.0000
  1
H -1.2
  7
STANDARD
  0
LINE
  5
10D6
  8
Plumbing_DIM
 10
3686.0000
 20
-2831.0000
 30
0.0000
 11
3685.1229
 21
-3090.9985
 31
0.0000
  0
LINE
  5
10D7
  8
Plumbing_DIM
 10
7836.0000
 20
-2845.0000
 30
0.0000
 11
7835.1229
 21
-3104.9985
 31
0.0000
  0
LINE
  5
10D8
  8
Plumbing_DIM
 10
3685.3253
 20
-3030.9989
 30
0.0000
 11
7835.3253
 21
-3044.9989
 31
0.0000
  0
SOLID
  5
10D9
  8
Plumbing_DIM
 10
3685.3253
 20
-3030.9989
 30
0.0000
 11
3595.2246
 21
-3060.6951
 31
0.0000
 12
3595.4270
 22
-3000.6954
 32
0.0000
 13
3595.4270
 23
-3000.6954
 33
0.0000
  0
SOLID
  5
10DA
  8
Plumbing_DIM
 10
7835.3253
 20
-3044.9989
 30
0.0000
 11
7925.2236
 21
-3075.3023
 31
0.0000
 12
7925.4260
 22
-3015.3026
 32
0.0000
 13
7925.4260
 23
-3015.3026
 33
0.0000
  0
TEXT
  5
10DB
  8
Plumbing_DIM
 10
5760.2039
 20
-3073.9987
 30
0.0000
 40
90.0000
 50
-0.1933
  1
415
  7
STANDARD
  0
INSERT
  5
10DC
  8
Electrical
  2
Lighting
 10
4857.0000
 20
-2835.0000
 30
0.0000
 41
1.0000
 42
1.0000
 43
1.0000
 50
359.8000
  0
TEXT
  5
10DD
  8
Electrical_H
 10
4927.0000
 20
-2795.0000
 30
0.0000
 40
90.0000
 50
0.0000
  1
H 268
  7
STANDARD
  0
LINE
  5
10DE
  8
Electrical_DIM
 10
3686.0000
 20
-2831.0000
 30
0.0000
 11
3685.1119
 21
-3090.9985
 31
0.0000
  0
LINE
  5
10DF
  8
Electrical_DIM
 10
4857.0000
 20
-2835.0000
 30
0.0000
 11
4856.1119
 21
-3094.9985
 31
0.0000
  0
LINE
  5
10E0
  8
Electrical_DIM
 10
3685.3168
 20
-3030.9988
 30
0.0000
 11
4856.3168
 21
-3034.9988
 31
0.0000
  0
SOLID
  5
10E1
  8
Electrical_DIM
 10
3685.3168
 20
-3030.9988
 30
0.0000
 11
3595.2149
 21
-3060.6912
 31
0.0000
 12
3595.4198
 22
-3000.6916
 32
0.0000
 13
3595.4198
 23
-3000.6916
 33
0.0000
  0
SOLID
  5
10E2
  8
Electrical_DIM
 10
4856.3168
 20
-3034.9988
 30
0.0000
 11
4946.2138
 21
-3065.3061
 31
0.0000
 12
4946.4188
 22
-3005.3064
 32
0.0000
 13
4946.4188
 23
-3005.3064
 33
0.0000
  0
TEXT
  5
10E3
  8
Electrical_DIM
 10
4270.6939
 20
-3068.9986
 30
0.0000
 40
90.0000
 50
-0.1957
  1
117.1
  7
STANDARD
  0
INSERT
  5
10E4
  8
Electrical
  2
Socket
 10
6013.0000
 20
-2839.0000
 30
0.0000
 41
1.0000
 42
1.0000
 43
1.0000
 50
359.8000
  0
TEXT
  5
10E5
  8
Electrical_H
 10
6083.0000
 20
-2799.0000
 30
0.0000
 40
90.0000
 50
0.0000
  1
H 44.9
  7
STANDARD
  0
LINE
  5
10E6
  8
Electrical_DIM
 10
3686.0000
 20
-2831.0000
 30
0.0000
 11
3685.1062
 21
-3090.9985
 31
0.0000
  0
LINE
  5
10E7
  8
Electrical_DIM
 10
6013.0000
 20
-2839.0000
 30
0.0000
 11
6012.1062
 21
-3098.9985
 31
0.0000
  0
LINE
  5
10E8
  8
Electrical_DIM
 10
3685.3124
 20
-3030.9988
 30
0.0000
 11
6012.3124
 21
-3038.9988
 31
0.0000
  0
SOLID
  5
10E9
  8
Electrical_DIM
 10
3685.3124
 20
-3030.9988
 30
0.0000
 11
3595.2098
 21
-3060.6892
 31
0.0000
 12
3595.4161
 22
-3000.6896
 32
0.0000
 13
3595.4161
 23
-3000.6896
 33
0.0000
  0
SOLID
  5
10EA
  8
Electrical_DIM
 10
6012.3124
 20
-3038.9988
 30
0.0000
 11
6102.2088
 21
-3069.3081
 31
0.0000
 12
6102.4150
 22
-3009.3084
 32
0.0000
 13
6102.4150
 23
-3009.3084
 33
0.0000
  0
TEXT
  5
10EB
  8
Electrical_DIM
 10
4848.6887
 20
-3070.9986
 30
0.0000
 40
90.0000
 50
-0.1970
  1
232.7
  7
STANDARD
  0
INSERT
  5
10EC
  8
Electrical
  2
DuplexSwitch
 10
8007.0000
 20
-3164.0000
 30
0.0000
 41
1.0000
 42
1.0000
 43
1.0000
 50
270.0000
  0
TEXT
  5
10ED
  8
Electrical_H
 10
8077.0000
 20
-3124.0000
 30
0.0000
 40
90.0000
 50
0.0000
  1
H 111.5
  7
STANDARD
  0
LINE
  5
10EE
  8
Electrical_DIM
 10
8006.9737
 20
-2846.0831
 30
0.0000
 11
7746.9737
 21
-2846.1046
 31
0.0000
  0
LINE
  5
10EF
  8
Electrical_DIM
 10
8007.0000
 20
-3164.0000
 30
0.0000
 11
7747.0000
 21
-3164.0215
 31
0.0000
  0
LINE
  5
10F0
  8
Electrical_DIM
 10
7806.9737
 20
-2846.0997
 30
0.0000
 11
7807.0000
 21
-3164.0166
 31
0.0000
  0
SOLID
  5
10F1
  8
Electrical_DIM
 10
7806.9737
 20
-2846.0997
 30
0.0000
 11
7776.9662
 21
-2756.1022
 31
0.0000
 12
7836.9662
 22
-2756.0972
 32
0.0000
 13
7836.9662
 23
-2756.0972
 33
0.0000
  0
SOLID
  5
10F2
  8
Electrical_DIM
 10
7807.0000
 20
-3164.0166
 30
0.0000
 11
7777.0075
 21
-3254.0190
 31
0.0000
 12
7837.0075
 22
-3254.0141
 32
0.0000
 13
7837.0075
 23
-3254.0141
 33
0.0000
  0
TEXT
  5
10F3
  8
Electrical_DIM
 10
7770.9868
 20
-3005.0611
 30
0.0000
 40
90.0000
 50
-89.9953
  1
31.8
  7
STANDARD
  0
INSERT
  5
10F4
  8
Electrical
  2
ControlBox
 10
8007.0000
 20
-3427.0000
 30
0.0000
 41
1.0000
 42
1.0000
 43
1.0000
 50
270.0000
  0
TEXT
  5
10F5
  8
Electrical_H
 10
8077.0000
 20
-3387.0000
 30
0.0000
 40
90.0000
 50
0.0000
  1
H 229.6
  7
STANDARD
  0
LINE
  5
10F6
  8
Electrical_DIM
 10
8006.9737
 20
-2846.0831
 30
0.0000
 11
7746.9737
 21
-2846.0949
 31
0.0000
  0
LINE
  5
10F7
  8
Electrical_DIM
 10
8007.0000
 20
-3427.0000
 30
0.0000
 11
7747.0000
 21
-3427.0118
 31
0.0000
  0
LINE
  5
10F8
  8
Electrical_DIM
 10
7806.9737
 20
-2846.0922
 30
0.0000
 11
7807.0000
 21
-3427.0091
 31
0.0000
  0
SOLID
  5
10F9
  8
Electrical_DIM
 10
7806.9737
 20
-2846.0922
 30
0.0000
 11
7776.9696
 21
-2756.0935
 31
0.0000
 12
7836.9696
 22
-2756.0908
 32
0.0000
 13
7836.9696
 23
-2756.0908
 33
0.0000
  0
SOLID
  5
10FA
  8
Electrical_DIM
 10
7807.0000
 20
-3427.0091
 30
0.0000
 11
7777.0041
 21
-3517.0104
 31
0.0000
 12
7837.0041
 22
-3517.0077
 32
0.0000
 13
7837.0041
 23
-3517.0077
 33
0.0000
  0
TEXT
  5
10FB
  8
Electrical_DIM
 10
7770.9868
 20
-3136.5522
 30
0.0000
 40
90.0000
 50
-89.9974
  1
58.1
  7
STANDARD
  0
INSERT
  5
10FC
  8
Electrical
  2
Socket
 10
8007.0000
 20
-4930.0000
 30
0.0000
 41
1.0000
 42
1.0000
 43
1.0000
 50
270.0000
  0
TEXT
  5
10FD
  8
Electrical_H
 10
8077.0000
 20
-4890.0000
 30
0.0000
 40
90.0000
 50
0.0000
  1
H 111.7
  7
STANDARD
  0
LINE
  5
10FE
  8
Electrical_DIM
 10
8006.9737
 20
-2846.0831
 30
0.0000
 11
7746.9737
 21
-2846.0864
 31
0.0000
  0
LINE
  5
10FF
  8
Electrical_DIM
 10
8007.0000
 20
-4930.0000
 30
0.0000
 11
7747.0000
 21
-4930.0033
 31
0.0000
  0
LINE
  5
1100
  8
Electrical_DIM
 10
7806.9737
 20
-2846.0856
 30
0.0000
 11
7807.0000
 21
-4930.0025
 31
0.0000
  0
SOLID
  5
1101
  8
Electrical_DIM
 10
7806.9737
 20
-2846.0856
 30
0.0000
 11
7776.9725
 21
-2756.0860
 31
0.0000
 12
7836.9725
 22
-2756.0853
 32
0.0000
 13
7836.9725
 23
-2756.0853
 33
0.0000
  0
SOLID
  5
1102
  8
Electrical_DIM
 10
7807.0000
 20
-4930.0025
 30
0.0000
 11
7777.0011
 21
-5020.0029
 31
0.0000
 12
7837.0011
 22
-5020.0021
 32
0.0000
 13
7837.0011
 23
-5020.0021
 33
0.0000
  0
TEXT
  5
1103
  8
Electrical_DIM
 10
7770.9868
 20
-3888.0445
 30
0.0000
 40
90.0000
 50
-89.9993
  1
208.4
  7
STANDARD
  0
INSERT
  5
1104
  8
Electrical
  2
DuplexSwitch
 10
8007.0000
 20
-5549.0000
 30
0.0000
 41
1.0000
 42
1.0000
 43
1.0000
 50
270.0000
  0
TEXT
  5
1105
  8
Electrical_H
 10
8077.0000
 20
-5509.0000
 30
0.0000
 40
90.0000
 50
0.0000
  1
H 111.3
  7
STANDARD
  0
LINE
  5
1106
  8
Electrical_DIM
 10
8006.9737
 20
-2846.0831
 30
0.0000
 11
7746.9737
 21
-2846.0856
 31
0.0000
  0
LINE
  5
1107
  8
Electrical_DIM
 10
8007.0000
 20
-5549.0000
 30
0.0000
 11
7747.0000
 21
-5549.0025
 31
0.0000
  0
LINE
  5
1108
  8
Electrical_DIM
 10
7806.9737
 20
-2846.0851
 30
0.0000
 11
7807.0000
 21
-5549.0019
 31
0.0000
  0
SOLID
  5
1109
  8
Electrical_DIM
 10
7806.9737
 20
-2846.0851
 30
0.0000
 11
7776.9728
 21
-2756.0853
 31
0.0000
 12
7836.9728
 22
-2756.0848
 32
0.0000
 13
7836.9728
 23
-2756.0848
 33
0.0000
  0
SOLID
  5
110A
  8
Electrical_DIM
 10
7807.0000
 20
-5549.0019
 30
0.0000
 11
7777.0009
 21
-5639.0022
 31
0.0000
 12
7837.0009
 22
-5639.0017
 32
0.0000
 13
7837.0009
 23
-5639.0017
 33
0.0000
  0
TEXT
  5
110B
  8
Electrical_DIM
 10
7770.9868
 20
-4197.5439
 30
0.0000
 40
90.0000
 50
-89.9994
  1
270.3
  7
STANDARD
  0
INSERT
  5
110C
  8
Electrical
  2
Lighting
 10
8007.0000
 20
-5063.0000
 30
0.0000
 41
1.0000
 42
1.0000
 43
1.0000
 50
270.0000
  0
TEXT
  5
110D
  8
Electrical_H
 10
8077.0000
 20
-5023.0000
 30
0.0000
 40
90.0000
 50
0.0000
  1
H 268
  7
STANDARD
  0
LINE
  5
110E
  8
Electrical_DIM
 10
8006.9737
 20
-2846.0831
 30
0.0000
 11
7746.9737
 21
-2846.0862
 31
0.0000
  0
LINE
  5
110F
  8
Electrical_DIM
 10
8007.0000
 20
-5063.0000
 30
0.0000
 11
7747.0000
 21
-5063.0031
 31
0.0000
  0
LINE
  5
1110
  8
Electrical_DIM
 10
7806.9737
 20
-2846.0855
 30
0.0000
 11
7807.0000
 21
-5063.0024
 31
0.0000
  0
SOLID
  5
1111
  8
Electrical_DIM
 10
7806.9737
 20
-2846.0855
 30
0.0000
 11
7776.9726
 21
-2756.0858
 31
0.0000
 12
7836.9726
 22
-2756.0851
 32
0.0000
 13
7836.9726
 23
-2756.0851
 33
0.0000
  0
SOLID
  5
1112
  8
Electrical_DIM
 10
7807.0000
 20
-5063.0024
 30
0.0000
 11
7777.0011
 21
-5153.0027
 31
0.0000
 12
7837.0011
 22
-5153.0020
 32
0.0000
 13
7837.0011
 23
-5153.0020
 33
0.0000
  0
TEXT
  5
1113
  8
Electrical_DIM
 10
7770.9868
 20
-3954.5444
 30
0.0000
 40
90.0000
 50
-89.9993
  1
221.7
  7
STANDARD
  0
INSERT
  5
1114
  8
Electrical
  2
Lighting
 10
8007.0000
 20
-5061.0000
 30
0.0000
 41
1.0000
 42
1.0000
 43
1.0000
 50
270.0000
  0
TEXT
  5
1115
  8
Electrical_H
 10
8077.0000
 20
-5021.0000
 30
0.0000
 40
90.0000
 50
0.0000
  1
H 268
  7
STANDARD
  0
LINE
  5
1116
  8
Electrical_DIM
 10
8006.9737
 20
-2846.0831
 30
0.0000
 11
7746.9737
 21
-2846.0862
 31
0.0000
  0
LINE
  5
1117
  8
Electrical_DIM
 10
8007.0000
 20
-5061.0000
 30
0.0000
 11
7747.0000
 21
-5061.0031
 31
0.0000
  0
LINE
  5
1118
  8
Electrical_DIM
 10
7806.9737
 20
-2846.0855
 30
0.0000
 11
7807.0000
 21
-5061.0024
 31
0.0000
  0
SOLID
  5
1119
  8
Electrical_DIM
 10
7806.9737
 20
-2846.0855
 30
0.0000
 11
7776.9726
 21
-2756.0858
 31
0.0000
 12
7836.9726
 22
-2756.0851
 32
0.0000
 13
7836.9726
 23
-2756.0851
 33
0.0000
  0
SOLID
  5
111A
  8
Electrical_DIM
 10
7807.0000
 20
-5061.0024
 30
0.0000
 11
7777.0011
 21
-5151.0027
 31
0.0000
 12
7837.0011
 22
-5151.0020
 32
0.0000
 13
7837.0011
 23
-5151.0020
 33
0.0000
  0
TEXT
  5
111B
  8
Electrical_DIM
 10
7770.9868
 20
-3953.5444
 30
0.0000
 40
90.0000
 50
-89.9993
  1
221.5
  7
STANDARD
  0
INSERT
  5
111C
  8
Electrical
  2
Lighting
 10
8007.0000
 20
-5061.0000
 30
0.0000
 41
1.0000
 42
1.0000
 43
1.0000
 50
270.0000
  0
TEXT
  5
111D
  8
Electrical_H
 10
8077.0000
 20
-5021.0000
 30
0.0000
 40
90.0000
 50
0.0000
  1
H 268
  7
STANDARD
  0
LINE
  5
111E
  8
Electrical_DIM
 10
8006.9737
 20
-2846.0831
 30
0.0000
 11
7746.9737
 21
-2846.0862
 31
0.0000
  0
LINE
  5
111F
  8
Electrical_DIM
 10
8007.0000
 20
-5061.0000
 30
0.0000
 11
7747.0000
 21
-5061.0031
 31
0.0000
  0
LINE
  5
1120
  8
Electrical_DIM
 10
7806.9737
 20
-2846.0855
 30
0.0000
 11
7807.0000
 21
-5061.0024
 31
0.0000
  0
SOLID
  5
1121
  8
Electrical_DIM
 10
7806.9737
 20
-2846.0855
 30
0.0000
 11
7776.9726
 21
-2756.0858
 31
0.0000
 12
7836.9726
 22
-2756.0851
 32
0.0000
 13
7836.9726
 23
-2756.0851
 33
0.0000
  0
SOLID
  5
1122
  8
Electrical_DIM
 10
7807.0000
 20
-5061.0024
 30
0.0000
 11
7777.0011
 21
-5151.0027
 31
0.0000
 12
7837.0011
 22
-5151.0020
 32
0.0000
 13
7837.0011
 23
-5151.0020
 33
0.0000
  0
TEXT
  5
1123
  8
Electrical_DIM
 10
7770.9868
 20
-3953.5444
 30
0.0000
 40
90.0000
 50
-89.9993
  1
221.5
  7
STANDARD
  0
INSERT
  5
1124
  8
Electrical
  2
Socket
 10
8218.0000
 20
-6033.0000
 30
0.0000
 41
1.0000
 42
1.0000
 43
1.0000
 50
0.0000
  0
TEXT
  5
1125
  8
Electrical_H
 10
8288.0000
 20
-5993.0000
 30
0.0000
 40
90.0000
 50
0.0000
  1
H 111.3
  7
STANDARD
  0
LINE
  5
1126
  8
Electrical_DIM
 10
8006.9737
 20
-6033.0831
 30
0.0000
 11
8007.0761
 21
-6293.0831
 31
0.0000
  0
LINE
  5
1127
  8
Electrical_DIM
 10
8218.0000
 20
-6033.0000
 30
0.0000
 11
8218.1024
 21
-6293.0000
 31
0.0000
  0
LINE
  5
1128
  8
Electrical_DIM
 10
8007.0524
 20
-6233.0831
 30
0.0000
 11
8218.0788
 21
-6233.0000
 31
0.0000
  0
SOLID
  5
1129
  8
Electrical_DIM
 10
8007.0524
 20
-6233.0831
 30
0.0000
 11
7917.0643
 21
-6263.1185
 31
0.0000
 12
7917.0406
 22
-6203.1185
 32
0.0000
 13
7917.0406
 23
-6203.1185
 33
0.0000
  0
SOLID
  5
112A
  8
Electrical_DIM
 10
8218.0788
 20
-6233.0000
 30
0.0000
 11
8308.0906
 21
-6262.9645
 31
0.0000
 12
8308.0669
 22
-6202.9645
 32
0.0000
 13
8308.0669
 23
-6202.9645
 33
0.0000
  0
TEXT
  5
112B
  8
Electrical_DIM
 10
8112.5798
 20
-6269.0415
 30
0.0000
 40
90.0000
 50
0.0226
  1
21.1
  7
STANDARD
  0
INSERT
  5
112C
  8
Electrical
  2
Socket
 10
9623.0000
 20
-6033.0000
 30
0.0000
 41
1.0000
 42
1.0000
 43
1.0000
 50
0.0000
  0
TEXT
  5
112D
  8
Electrical_H
 10
9693.0000
 20
-5993.0000
 30
0.0000
 40
90.0000
 50
0.0000
  1
H 110.1
  7
STANDARD
  0
LINE
  5
112E
  8
Electrical_DIM
 10
8006.9737
 20
-6033.0831
 30
0.0000
 11
8006.9870
 21
-6293.0831
 31
0.0000
  0
LINE
  5
112F
  8
Electrical_DIM
 10
9623.0000
 20
-6033.0000
 30
0.0000
 11
9623.0134
 21
-6293.0000
 31
0.0000
  0
LINE
  5
1130
  8
Electrical_DIM
 10
8006.9840
 20
-6233.0831
 30
0.0000
 11
9623.0103
 21
-6233.0000
 31
0.0000
  0
SOLID
  5
1131
  8
Electrical_DIM
 10
8006.9840
 20
-6233.0831
 30
0.0000
 11
7916.9855
 21
-6263.0877
 31
0.0000
 12
7916.9824
 22
-6203.0877
 32
0.0000
 13
7916.9824
 23
-6203.0877
 33
0.0000
  0
SOLID
  5
1132
  8
Electrical_DIM
 10
9623.0103
 20
-6233.0000
 30
0.0000
 11
9713.0118
 21
-6262.9954
 31
0.0000
 12
9713.0087
 22
-6202.9954
 32
0.0000
 13
9713.0087
 23
-6202.9954
 33
0.0000
  0
TEXT
  5
1133
  8
Electrical_DIM
 10
8814.9990
 20
-6269.0416
 30
0.0000
 40
90.0000
 50
0.0029
  1
161.6
  7
STANDARD
  0
INSERT
  5
1134
  8
Text_Legend
  2
Socket
 10
10474.9737
 20
-518.0000
 30
0.0000
 41
1.0000
 42
1.0000
 43
1.0000
 50
0.0000
  0
TEXT
  5
1135
  8
Text_Legend
 10
10674.9737
 20
-548.0000
 30
0.0000
 40
120.0000
 50
0.0000
  1
\U+05E9\U+05E7\U+05E2
  7
STANDARD
  0
INSERT
  5
1136
  8
Text_Legend
  2
Faucet
 10
10474.9737
 20
-868.0000
 30
0.0000
 41
1.0000
 42
1.0000
 43
1.0000
 50
0.0000
  0
TEXT
  5
1137
  8
Text_Legend
 10
10674.9737
 20
-898.0000
 30
0.0000
 40
120.0000
 50
0.0000
  1
\U+05D1\U+05E8\U+05D6
  7
STANDARD
  0
INSERT
  5
1138
  8
Text_Legend
  2
DuplexSwitch
 10
10474.9737
 20
-1218.0000
 30
0.0000
 41
1.0000
 42
1.0000
 43
1.0000
 50
0.0000
  0
TEXT
  5
1139
  8
Text_Legend
 10
10674.9737
 20
-1248.0000
 30
0.0000
 40
120.0000
 50
0.0000
  1
\U+05E9\U+05E7\U+05E2 \U+05DB\U+05E4\U+05D5\U+05DC
  7
STANDARD
  0
INSERT
  5
113A
  8
Text_Legend
  2
ControlBox
 10
10474.9737
 20
-1568.0000
 30
0.0000
 41
1.0000
 42
1.0000
 43
1.0000
 50
0.0000
  0
TEXT
  5
113B
  8
Text_Legend
 10
10674.9737
 20
-1598.0000
 30
0.0000
 40
120.0000
 50
0.0000
  1
\U+05D0\U+05E8\U+05D5\U+05DF \U+05D7\U+05E9\U+05DE\U+05DC
  7
STANDARD
  0
INSERT
  5
113C
  8
Text_Legend
  2
Sewage
 10
10474.9737
 20
-1918.0000
 30
0.0000
 41
1.0000
 42
1.0000
 43
1.0000
 50
0.0000
  0
TEXT
  5
113D
  8
Text_Legend
 10
10674.9737
 20
-1948.0000
 30
0.0000
 40
120.0000
 50
0.0000
  1
\U+05D1\U+05D9\U+05D5\U+05D1
  7
STANDARD
  0
INSERT
  5
113E
  8
Text_Legend
  2
Gas
 10
10474.9737
 20
-2268.0000
 30
0.0000
 41
1.0000
 42
1.0000
 43
1.0000
 50
0.0000
  0
TEXT
  5
113F
  8
Text_Legend
 10
10674.9737
 20
-2298.0000
 30
0.0000
 40
120.0000
 50
0.0000
  1
\U+05D2\U+05D6
  7
STANDARD
  0
INSERT
  5
1140
  8
Text_Legend
  2
Lighting
 10
10474.9737
 20
-2618.0000
 30
0.0000
 41
1.0000
 42
1.0000
 43
1.0000
 50
0.0000
  0
TEXT
  5
1141
  8
Text_Legend
 10
10674.9737
 20
-2648.0000
 30
0.0000
 40
120.0000
 50
0.0000
  1
\U+05EA\U+05D0\U+05D5\U+05E8\U+05D4
  7
STANDARD
  0
ENDSEC
  0
EOF
