  0
SECTION
  2
HEADER
  9
$ACADVER
  1
AC1009
  9
$INSBASE
 10
0.0000
 20
0.0000
 30
0.0000
  9
$EXTMIN
 10
2309.0000
 20
-6133.0000
 30
0.0000
  9
$EXTMAX
 10
9874.9737
 20
-518.0000
 30
0.0000
  9
$DWGCODEPAGE
  3
ansi_1255
  9
$CLAYER
  8
0
  9
$LTSCALE
 40
10.0000
  9
$LIMMIN
 10
0.0000
 20
0.0000
  9
$LIMMAX
 10
2000.0000
 20
200.0000
  0
ENDSEC
  0
SECTION
  2
TABLES
  0
TABLE
  2
VPORT
 70
1
  0
VPORT
  2
*ACTIVE
 70
0
 10
0.0000
 20
0.0000
 11
1.0000
 21
1.0000
 12
6091.9868
 22
-3325.5000
 13
0.0000
 23
0.0000
 14
10.0000
 24
10.0000
 15
10.0000
 25
10.0000
 16
0.0000
 26
0.0000
 36
1.0000
 17
0.0000
 27
0.0000
 37
0.0000
 40
6457.2500
 41
1.6000
 42
50.0000
 43
0.0000
 44
0.0000
 50
0.0000
 51
0.0000
 71
0
 72
100
 73
1
 74
1
 75
0
 76
0
 77
0
 78
0
  0
ENDTAB
  0
TABLE
  2
LTYPE
 70
3
  0
LTYPE
  2
CONTINUOUS
 70
0
  3
Solid line
 72
65
 73
0
 40
0.0000
  0
LTYPE
  2
HIDDEN
 70
0
  3
Hidden __ __ __ __ __ __
 72
65
 73
2
 40
9.5250
 49
6.3500
 49
-3.1750
  0
LTYPE
  2
CENTER
 70
0
  3
Center ____ _ ____ _ ____
 72
65
 73
4
 40
50.8000
 49
31.7500
 49
-6.3500
 49
6.3500
 49
-6.3500
  0
ENDTAB
  0
TABLE
  2
LAYER
 70
71
  0
LAYER
  2
0
 70
0
 62
7
  6
CONTINUOUS
  0
LAYER
  2
קירות
 70
0
 62
7
  6
CONTINUOUS
  0
LAYER
  2
קירות - מילוי
 70
0
 62
8
  6
CONTINUOUS
  0
LAYER
  2
קירות - מידות
 70
0
 62
7
  6
CONTINUOUS
  0
LAYER
  2
קירות - טקסט
 70
0
 62
7
  6
CONTINUOUS
  0
LAYER
  2
קירות - נסתר
 70
0
 62
7
  6
HIDDEN
  0
LAYER
  2
קירות - ציר
 70
0
 62
7
  6
CENTER
  0
LAYER
  2
מבנה
 70
0
 62
9
  6
CONTINUOUS
  0
LAYER
  2
מבנה - מילוי
 70
0
 62
9
  6
CONTINUOUS
  0
LAYER
  2
מבנה - מידות
 70
0
 62
9
  6
CONTINUOUS
  0
LAYER
  2
מבנה - טקסט
 70
0
 62
9
  6
CONTINUOUS
  0
LAYER
  2
מבנה - נסתר
 70
0
 62
9
  6
HIDDEN
  0
LAYER
  2
מבנה - ציר
 70
0
 62
9
  6
CENTER
  0
LAYER
  2
חשמל
 70
0
 62
6
  6
CONTINUOUS
  0
LAYER
  2
חשמל - מידות
 70
0
 62
6
  6
CONTINUOUS
  0
LAYER
  2
חשמל - טקסט
 70
0
 62
6
  6
CONTINUOUS
  0
LAYER
  2
חשמל - נסתר
 70
0
 62
6
  6
HIDDEN
  0
LAYER
  2
תאורה
 70
0
 62
30
  6
CONTINUOUS
  0
LAYER
  2
תאורה - מידות
 70
0
 62
30
  6
CONTINUOUS
  0
LAYER
  2
תאורה - טקסט
 70
0
 62
30
  6
CONTINUOUS
  0
LAYER
  2
תאורה - נסתר
 70
0
 62
30
  6
HIDDEN
  0
LAYER
  2
מים
 70
0
 62
4
  6
CONTINUOUS
  0
LAYER
  2
מים - מידות
 70
0
 62
4
  6
CONTINUOUS
  0
LAYER
  2
מים - טקסט
 70
0
 62
4
  6
CONTINUOUS
  0
LAYER
  2
מים - נסתר
 70
0
 62
4
  6
HIDDEN
  0
LAYER
  2
מים - ציר
 70
0
 62
4
  6
CENTER
  0
LAYER
  2
ניקוז
 70
0
 62
140
  6
CONTINUOUS
  0
LAYER
  2
ניקוז - מידות
 70
0
 62
140
  6
CONTINUOUS
  0
LAYER
  2
ניקוז - טקסט
 70
0
 62
140
  6
CONTINUOUS
  0
LAYER
  2
ניקוז - נסתר
 70
0
 62
140
  6
HIDDEN
  0
LAYER
  2
ניקוז - ציר
 70
0
 62
140
  6
CENTER
  0
LAYER
  2
גז
 70
0
 62
2
  6
CONTINUOUS
  0
LAYER
  2
גז - מידות
 70
0
 62
2
  6
CONTINUOUS
  0
LAYER
  2
גז - טקסט
 70
0
 62
2
  6
CONTINUOUS
  0
LAYER
  2
גז - נסתר
 70
0
 62
2
  6
HIDDEN
  0
LAYER
  2
גז - ציר
 70
0
 62
2
  6
CENTER
  0
LAYER
  2
מיזוג
 70
0
 62
141
  6
CONTINUOUS
  0
LAYER
  2
מיזוג - מידות
 70
0
 62
141
  6
CONTINUOUS
  0
LAYER
  2
מיזוג - טקסט
 70
0
 62
141
  6
CONTINUOUS
  0
LAYER
  2
מיזוג - נסתר
 70
0
 62
141
  6
HIDDEN
  0
LAYER
  2
אוורור
 70
0
 62
131
  6
CONTINUOUS
  0
LAYER
  2
אוורור - מידות
 70
0
 62
131
  6
CONTINUOUS
  0
LAYER
  2
אוורור - טקסט
 70
0
 62
131
  6
CONTINUOUS
  0
LAYER
  2
אוורור - נסתר
 70
0
 62
131
  6
HIDDEN
  0
LAYER
  2
דלתות
 70
0
 62
5
  6
CONTINUOUS
  0
LAYER
  2
דלתות - מידות
 70
0
 62
5
  6
CONTINUOUS
  0
LAYER
  2
דלתות - טקסט
 70
0
 62
5
  6
CONTINUOUS
  0
LAYER
  2
דלתות - נסתר
 70
0
 62
5
  6
HIDDEN
  0
LAYER
  2
דלתות - מילוי
 70
0
 62
5
  6
CONTINUOUS
  0
LAYER
  2
חלונות
 70
0
 62
151
  6
CONTINUOUS
  0
LAYER
  2
חלונות - מידות
 70
0
 62
151
  6
CONTINUOUS
  0
LAYER
  2
חלונות - טקסט
 70
0
 62
151
  6
CONTINUOUS
  0
LAYER
  2
חלונות - נסתר
 70
0
 62
151
  6
HIDDEN
  0
LAYER
  2
ריהוט
 70
0
 62
42
  6
CONTINUOUS
  0
LAYER
  2
ריהוט - מידות
 70
0
 62
42
  6
CONTINUOUS
  0
LAYER
  2
ריהוט - טקסט
 70
0
 62
42
  6
CONTINUOUS
  0
LAYER
  2
ריהוט - נסתר
 70
0
 62
42
  6
HIDDEN
  0
LAYER
  2
מטבח
 70
0
 62
52
  6
CONTINUOUS
  0
LAYER
  2
מטבח - מידות
 70
0
 62
52
  6
CONTINUOUS
  0
LAYER
  2
מטבח - טקסט
 70
0
 62
52
  6
CONTINUOUS
  0
LAYER
  2
מטבח - נסתר
 70
0
 62
52
  6
HIDDEN
  0
LAYER
  2
ריצוף
 70
0
 62
251
  6
CONTINUOUS
  0
LAYER
  2
ריצוף - מילוי
 70
0
 62
8
  6
CONTINUOUS
  0
LAYER
  2
מידות - פנים
 70
0
 62
3
  6
CONTINUOUS
  0
LAYER
  2
מידות - חוץ
 70
0
 62
1
  6
CONTINUOUS
  0
LAYER
  2
מסגרת
 70
0
 62
250
  6
CONTINUOUS
  0
LAYER
  2
גבול גיליון
 70
0
 62
255
  6
CONTINUOUS
  0
LAYER
  2
מקרא
 70
0
 62
150
  6
CONTINUOUS
  0
LAYER
  2
רשת צירים
 70
0
 62
8
  6
CENTER
  0
LAYER
  2
הערות
 70
0
 62
150
  6
CONTINUOUS
  0
LAYER
  2
מהדורות
 70
0
 62
1
  6
CONTINUOUS
  0
ENDTAB
  0
TABLE
  2
STYLE
 70
2
  0
STYLE
  2
SOLINE
 70
0
 40
0.0000
 41
1.0000
 50
0.0000
 71
0
 42
2.5000
  3
arial.ttf
  4

  0
STYLE
  2
Standard
 70
0
 40
0.0000
 41
1.0000
 50
0.0000
 71
0
 42
2.5000
  3
txt
  4

  0
ENDTAB
  0
ENDSEC
  0
SECTION
  2
BLOCKS
  0
BLOCK
  8
0
  2
SOCKET
 70
0
 10
0.0000
 20
0.0000
 30
0.0000
  3
SOCKET
  1

  0
3DFACE
  5
115E
  8
0
 10
-35.0000
 20
-40.0000
 30
0.0000
 11
35.0000
 21
-40.0000
 31
0.0000
 12
35.0000
 22
0.0000
 32
0.0000
 13
-35.0000
 23
0.0000
 33
0.0000
  0
3DFACE
  5
115F
  8
0
 10
-35.0000
 20
-40.0000
 30
70.0000
 11
35.0000
 21
-40.0000
 31
70.0000
 12
35.0000
 22
0.0000
 32
70.0000
 13
-35.0000
 23
0.0000
 33
70.0000
  0
3DFACE
  5
1160
  8
0
 10
-35.0000
 20
-40.0000
 30
0.0000
 11
35.0000
 21
-40.0000
 31
0.0000
 12
35.0000
 22
-40.0000
 32
70.0000
 13
-35.0000
 23
-40.0000
 33
70.0000
  0
3DFACE
  5
1161
  8
0
 10
-35.0000
 20
0.0000
 30
0.0000
 11
35.0000
 21
0.0000
 31
0.0000
 12
35.0000
 22
0.0000
 32
70.0000
 13
-35.0000
 23
0.0000
 33
70.0000
  0
3DFACE
  5
1162
  8
0
 10
-35.0000
 20
-40.0000
 30
0.0000
 11
-35.0000
 21
0.0000
 31
0.0000
 12
-35.0000
 22
0.0000
 32
70.0000
 13
-35.0000
 23
-40.0000
 33
70.0000
  0
3DFACE
  5
1163
  8
0
 10
35.0000
 20
-40.0000
 30
0.0000
 11
35.0000
 21
0.0000
 31
0.0000
 12
35.0000
 22
0.0000
 32
70.0000
 13
35.0000
 23
-40.0000
 33
70.0000
  0
3DFACE
  5
1164
  8
0
 10
-45.0000
 20
0.0000
 30
-8.0000
 11
45.0000
 21
0.0000
 31
-8.0000
 12
45.0000
 22
8.0000
 32
-8.0000
 13
-45.0000
 23
8.0000
 33
-8.0000
  0
3DFACE
  5
1165
  8
0
 10
-45.0000
 20
0.0000
 30
78.0000
 11
45.0000
 21
0.0000
 31
78.0000
 12
45.0000
 22
8.0000
 32
78.0000
 13
-45.0000
 23
8.0000
 33
78.0000
  0
3DFACE
  5
1166
  8
0
 10
-45.0000
 20
0.0000
 30
-8.0000
 11
45.0000
 21
0.0000
 31
-8.0000
 12
45.0000
 22
0.0000
 32
78.0000
 13
-45.0000
 23
0.0000
 33
78.0000
  0
3DFACE
  5
1167
  8
0
 10
-45.0000
 20
8.0000
 30
-8.0000
 11
45.0000
 21
8.0000
 31
-8.0000
 12
45.0000
 22
8.0000
 32
78.0000
 13
-45.0000
 23
8.0000
 33
78.0000
  0
3DFACE
  5
1168
  8
0
 10
-45.0000
 20
0.0000
 30
-8.0000
 11
-45.0000
 21
8.0000
 31
-8.0000
 12
-45.0000
 22
8.0000
 32
78.0000
 13
-45.0000
 23
0.0000
 33
78.0000
  0
3DFACE
  5
1169
  8
0
 10
45.0000
 20
0.0000
 30
-8.0000
 11
45.0000
 21
8.0000
 31
-8.0000
 12
45.0000
 22
8.0000
 32
78.0000
 13
45.0000
 23
0.0000
 33
78.0000
  0
3DFACE
  5
116A
  8
0
 10
-16.0000
 20
8.0000
 30
20.0000
 11
16.0000
 21
8.0000
 31
20.0000
 12
16.0000
 22
14.0000
 32
20.0000
 13
-16.0000
 23
14.0000
 33
20.0000
  0
3DFACE
  5
116B
  8
0
 10
-16.0000
 20
8.0000
 30
50.0000
 11
16.0000
 21
8.0000
 31
50.0000
 12
16.0000
 22
14.0000
 32
50.0000
 13
-16.0000
 23
14.0000
 33
50.0000
  0
3DFACE
  5
116C
  8
0
 10
-16.0000
 20
8.0000
 30
20.0000
 11
16.0000
 21
8.0000
 31
20.0000
 12
16.0000
 22
8.0000
 32
50.0000
 13
-16.0000
 23
8.0000
 33
50.0000
  0
3DFACE
  5
116D
  8
0
 10
-16.0000
 20
14.0000
 30
20.0000
 11
16.0000
 21
14.0000
 31
20.0000
 12
16.0000
 22
14.0000
 32
50.0000
 13
-16.0000
 23
14.0000
 33
50.0000
  0
3DFACE
  5
116E
  8
0
 10
-16.0000
 20
8.0000
 30
20.0000
 11
-16.0000
 21
14.0000
 31
20.0000
 12
-16.0000
 22
14.0000
 32
50.0000
 13
-16.0000
 23
8.0000
 33
50.0000
  0
3DFACE
  5
116F
  8
0
 10
16.0000
 20
8.0000
 30
20.0000
 11
16.0000
 21
14.0000
 31
20.0000
 12
16.0000
 22
14.0000
 32
50.0000
 13
16.0000
 23
8.0000
 33
50.0000
  0
3DFACE
  5
1170
  8
0
 10
-12.0000
 20
14.0000
 30
30.0000
 11
-4.0000
 21
14.0000
 31
30.0000
 12
-4.0000
 22
18.0000
 32
30.0000
 13
-12.0000
 23
18.0000
 33
30.0000
  0
3DFACE
  5
1171
  8
0
 10
-12.0000
 20
14.0000
 30
44.0000
 11
-4.0000
 21
14.0000
 31
44.0000
 12
-4.0000
 22
18.0000
 32
44.0000
 13
-12.0000
 23
18.0000
 33
44.0000
  0
3DFACE
  5
1172
  8
0
 10
-12.0000
 20
14.0000
 30
30.0000
 11
-4.0000
 21
14.0000
 31
30.0000
 12
-4.0000
 22
14.0000
 32
44.0000
 13
-12.0000
 23
14.0000
 33
44.0000
  0
3DFACE
  5
1173
  8
0
 10
-12.0000
 20
18.0000
 30
30.0000
 11
-4.0000
 21
18.0000
 31
30.0000
 12
-4.0000
 22
18.0000
 32
44.0000
 13
-12.0000
 23
18.0000
 33
44.0000
  0
3DFACE
  5
1174
  8
0
 10
-12.0000
 20
14.0000
 30
30.0000
 11
-12.0000
 21
18.0000
 31
30.0000
 12
-12.0000
 22
18.0000
 32
44.0000
 13
-12.0000
 23
14.0000
 33
44.0000
  0
3DFACE
  5
1175
  8
0
 10
-4.0000
 20
14.0000
 30
30.0000
 11
-4.0000
 21
18.0000
 31
30.0000
 12
-4.0000
 22
18.0000
 32
44.0000
 13
-4.0000
 23
14.0000
 33
44.0000
  0
3DFACE
  5
1176
  8
0
 10
4.0000
 20
14.0000
 30
30.0000
 11
12.0000
 21
14.0000
 31
30.0000
 12
12.0000
 22
18.0000
 32
30.0000
 13
4.0000
 23
18.0000
 33
30.0000
  0
3DFACE
  5
1177
  8
0
 10
4.0000
 20
14.0000
 30
44.0000
 11
12.0000
 21
14.0000
 31
44.0000
 12
12.0000
 22
18.0000
 32
44.0000
 13
4.0000
 23
18.0000
 33
44.0000
  0
3DFACE
  5
1178
  8
0
 10
4.0000
 20
14.0000
 30
30.0000
 11
12.0000
 21
14.0000
 31
30.0000
 12
12.0000
 22
14.0000
 32
44.0000
 13
4.0000
 23
14.0000
 33
44.0000
  0
3DFACE
  5
1179
  8
0
 10
4.0000
 20
18.0000
 30
30.0000
 11
12.0000
 21
18.0000
 31
30.0000
 12
12.0000
 22
18.0000
 32
44.0000
 13
4.0000
 23
18.0000
 33
44.0000
  0
3DFACE
  5
117A
  8
0
 10
4.0000
 20
14.0000
 30
30.0000
 11
4.0000
 21
18.0000
 31
30.0000
 12
4.0000
 22
18.0000
 32
44.0000
 13
4.0000
 23
14.0000
 33
44.0000
  0
3DFACE
  5
117B
  8
0
 10
12.0000
 20
14.0000
 30
30.0000
 11
12.0000
 21
18.0000
 31
30.0000
 12
12.0000
 22
18.0000
 32
44.0000
 13
12.0000
 23
14.0000
 33
44.0000
  0
ENDBLK
  8
0
  0
BLOCK
  8
0
  2
FAUCET
 70
0
 10
0.0000
 20
0.0000
 30
0.0000
  3
FAUCET
  1

  0
3DFACE
  5
117C
  8
0
 10
-25.0000
 20
0.0000
 30
0.0000
 11
25.0000
 21
0.0000
 31
0.0000
 12
25.0000
 22
25.0000
 32
0.0000
 13
-25.0000
 23
25.0000
 33
0.0000
  0
3DFACE
  5
117D
  8
0
 10
-25.0000
 20
0.0000
 30
30.0000
 11
25.0000
 21
0.0000
 31
30.0000
 12
25.0000
 22
25.0000
 32
30.0000
 13
-25.0000
 23
25.0000
 33
30.0000
  0
3DFACE
  5
117E
  8
0
 10
-25.0000
 20
0.0000
 30
0.0000
 11
25.0000
 21
0.0000
 31
0.0000
 12
25.0000
 22
0.0000
 32
30.0000
 13
-25.0000
 23
0.0000
 33
30.0000
  0
3DFACE
  5
117F
  8
0
 10
-25.0000
 20
25.0000
 30
0.0000
 11
25.0000
 21
25.0000
 31
0.0000
 12
25.0000
 22
25.0000
 32
30.0000
 13
-25.0000
 23
25.0000
 33
30.0000
  0
3DFACE
  5
1180
  8
0
 10
-25.0000
 20
0.0000
 30
0.0000
 11
-25.0000
 21
25.0000
 31
0.0000
 12
-25.0000
 22
25.0000
 32
30.0000
 13
-25.0000
 23
0.0000
 33
30.0000
  0
3DFACE
  5
1181
  8
0
 10
25.0000
 20
0.0000
 30
0.0000
 11
25.0000
 21
25.0000
 31
0.0000
 12
25.0000
 22
25.0000
 32
30.0000
 13
25.0000
 23
0.0000
 33
30.0000
  0
3DFACE
  5
1182
  8
0
 10
-9.0000
 20
0.0000
 30
30.0000
 11
9.0000
 21
0.0000
 31
30.0000
 12
9.0000
 22
18.0000
 32
30.0000
 13
-9.0000
 23
18.0000
 33
30.0000
  0
3DFACE
  5
1183
  8
0
 10
-9.0000
 20
0.0000
 30
150.0000
 11
9.0000
 21
0.0000
 31
150.0000
 12
9.0000
 22
18.0000
 32
150.0000
 13
-9.0000
 23
18.0000
 33
150.0000
  0
3DFACE
  5
1184
  8
0
 10
-9.0000
 20
0.0000
 30
30.0000
 11
9.0000
 21
0.0000
 31
30.0000
 12
9.0000
 22
0.0000
 32
150.0000
 13
-9.0000
 23
0.0000
 33
150.0000
  0
3DFACE
  5
1185
  8
0
 10
-9.0000
 20
18.0000
 30
30.0000
 11
9.0000
 21
18.0000
 31
30.0000
 12
9.0000
 22
18.0000
 32
150.0000
 13
-9.0000
 23
18.0000
 33
150.0000
  0
3DFACE
  5
1186
  8
0
 10
-9.0000
 20
0.0000
 30
30.0000
 11
-9.0000
 21
18.0000
 31
30.0000
 12
-9.0000
 22
18.0000
 32
150.0000
 13
-9.0000
 23
0.0000
 33
150.0000
  0
3DFACE
  5
1187
  8
0
 10
9.0000
 20
0.0000
 30
30.0000
 11
9.0000
 21
18.0000
 31
30.0000
 12
9.0000
 22
18.0000
 32
150.0000
 13
9.0000
 23
0.0000
 33
150.0000
  0
3DFACE
  5
1188
  8
0
 10
-9.0000
 20
0.0000
 30
132.0000
 11
60.0000
 21
0.0000
 31
132.0000
 12
60.0000
 22
18.0000
 32
132.0000
 13
-9.0000
 23
18.0000
 33
132.0000
  0
3DFACE
  5
1189
  8
0
 10
-9.0000
 20
0.0000
 30
150.0000
 11
60.0000
 21
0.0000
 31
150.0000
 12
60.0000
 22
18.0000
 32
150.0000
 13
-9.0000
 23
18.0000
 33
150.0000
  0
3DFACE
  5
118A
  8
0
 10
-9.0000
 20
0.0000
 30
132.0000
 11
60.0000
 21
0.0000
 31
132.0000
 12
60.0000
 22
0.0000
 32
150.0000
 13
-9.0000
 23
0.0000
 33
150.0000
  0
3DFACE
  5
118B
  8
0
 10
-9.0000
 20
18.0000
 30
132.0000
 11
60.0000
 21
18.0000
 31
132.0000
 12
60.0000
 22
18.0000
 32
150.0000
 13
-9.0000
 23
18.0000
 33
150.0000
  0
3DFACE
  5
118C
  8
0
 10
-9.0000
 20
0.0000
 30
132.0000
 11
-9.0000
 21
18.0000
 31
132.0000
 12
-9.0000
 22
18.0000
 32
150.0000
 13
-9.0000
 23
0.0000
 33
150.0000
  0
3DFACE
  5
118D
  8
0
 10
60.0000
 20
0.0000
 30
132.0000
 11
60.0000
 21
18.0000
 31
132.0000
 12
60.0000
 22
18.0000
 32
150.0000
 13
60.0000
 23
0.0000
 33
150.0000
  0
3DFACE
  5
118E
  8
0
 10
52.0000
 20
0.0000
 30
120.0000
 11
68.0000
 21
0.0000
 31
120.0000
 12
68.0000
 22
18.0000
 32
120.0000
 13
52.0000
 23
18.0000
 33
120.0000
  0
3DFACE
  5
118F
  8
0
 10
52.0000
 20
0.0000
 30
150.0000
 11
68.0000
 21
0.0000
 31
150.0000
 12
68.0000
 22
18.0000
 32
150.0000
 13
52.0000
 23
18.0000
 33
150.0000
  0
3DFACE
  5
1190
  8
0
 10
52.0000
 20
0.0000
 30
120.0000
 11
68.0000
 21
0.0000
 31
120.0000
 12
68.0000
 22
0.0000
 32
150.0000
 13
52.0000
 23
0.0000
 33
150.0000
  0
3DFACE
  5
1191
  8
0
 10
52.0000
 20
18.0000
 30
120.0000
 11
68.0000
 21
18.0000
 31
120.0000
 12
68.0000
 22
18.0000
 32
150.0000
 13
52.0000
 23
18.0000
 33
150.0000
  0
3DFACE
  5
1192
  8
0
 10
52.0000
 20
0.0000
 30
120.0000
 11
52.0000
 21
18.0000
 31
120.0000
 12
52.0000
 22
18.0000
 32
150.0000
 13
52.0000
 23
0.0000
 33
150.0000
  0
3DFACE
  5
1193
  8
0
 10
68.0000
 20
0.0000
 30
120.0000
 11
68.0000
 21
18.0000
 31
120.0000
 12
68.0000
 22
18.0000
 32
150.0000
 13
68.0000
 23
0.0000
 33
150.0000
  0
3DFACE
  5
1194
  8
0
 10
52.0000
 20
0.0000
 30
110.0000
 11
68.0000
 21
0.0000
 31
110.0000
 12
68.0000
 22
18.0000
 32
110.0000
 13
52.0000
 23
18.0000
 33
110.0000
  0
3DFACE
  5
1195
  8
0
 10
52.0000
 20
0.0000
 30
122.0000
 11
68.0000
 21
0.0000
 31
122.0000
 12
68.0000
 22
18.0000
 32
122.0000
 13
52.0000
 23
18.0000
 33
122.0000
  0
3DFACE
  5
1196
  8
0
 10
52.0000
 20
0.0000
 30
110.0000
 11
68.0000
 21
0.0000
 31
110.0000
 12
68.0000
 22
0.0000
 32
122.0000
 13
52.0000
 23
0.0000
 33
122.0000
  0
3DFACE
  5
1197
  8
0
 10
52.0000
 20
18.0000
 30
110.0000
 11
68.0000
 21
18.0000
 31
110.0000
 12
68.0000
 22
18.0000
 32
122.0000
 13
52.0000
 23
18.0000
 33
122.0000
  0
3DFACE
  5
1198
  8
0
 10
52.0000
 20
0.0000
 30
110.0000
 11
52.0000
 21
18.0000
 31
110.0000
 12
52.0000
 22
18.0000
 32
122.0000
 13
52.0000
 23
0.0000
 33
122.0000
  0
3DFACE
  5
1199
  8
0
 10
68.0000
 20
0.0000
 30
110.0000
 11
68.0000
 21
18.0000
 31
110.0000
 12
68.0000
 22
18.0000
 32
122.0000
 13
68.0000
 23
0.0000
 33
122.0000
  0
3DFACE
  5
119A
  8
0
 10
-22.0000
 20
0.0000
 30
90.0000
 11
-14.0000
 21
0.0000
 31
90.0000
 12
-14.0000
 22
18.0000
 32
90.0000
 13
-22.0000
 23
18.0000
 33
90.0000
  0
3DFACE
  5
119B
  8
0
 10
-22.0000
 20
0.0000
 30
120.0000
 11
-14.0000
 21
0.0000
 31
120.0000
 12
-14.0000
 22
18.0000
 32
120.0000
 13
-22.0000
 23
18.0000
 33
120.0000
  0
3DFACE
  5
119C
  8
0
 10
-22.0000
 20
0.0000
 30
90.0000
 11
-14.0000
 21
0.0000
 31
90.0000
 12
-14.0000
 22
0.0000
 32
120.0000
 13
-22.0000
 23
0.0000
 33
120.0000
  0
3DFACE
  5
119D
  8
0
 10
-22.0000
 20
18.0000
 30
90.0000
 11
-14.0000
 21
18.0000
 31
90.0000
 12
-14.0000
 22
18.0000
 32
120.0000
 13
-22.0000
 23
18.0000
 33
120.0000
  0
3DFACE
  5
119E
  8
0
 10
-22.0000
 20
0.0000
 30
90.0000
 11
-22.0000
 21
18.0000
 31
90.0000
 12
-22.0000
 22
18.0000
 32
120.0000
 13
-22.0000
 23
0.0000
 33
120.0000
  0
3DFACE
  5
119F
  8
0
 10
-14.0000
 20
0.0000
 30
90.0000
 11
-14.0000
 21
18.0000
 31
90.0000
 12
-14.0000
 22
18.0000
 32
120.0000
 13
-14.0000
 23
0.0000
 33
120.0000
  0
3DFACE
  5
11A0
  8
0
 10
14.0000
 20
0.0000
 30
90.0000
 11
22.0000
 21
0.0000
 31
90.0000
 12
22.0000
 22
18.0000
 32
90.0000
 13
14.0000
 23
18.0000
 33
90.0000
  0
3DFACE
  5
11A1
  8
0
 10
14.0000
 20
0.0000
 30
120.0000
 11
22.0000
 21
0.0000
 31
120.0000
 12
22.0000
 22
18.0000
 32
120.0000
 13
14.0000
 23
18.0000
 33
120.0000
  0
3DFACE
  5
11A2
  8
0
 10
14.0000
 20
0.0000
 30
90.0000
 11
22.0000
 21
0.0000
 31
90.0000
 12
22.0000
 22
0.0000
 32
120.0000
 13
14.0000
 23
0.0000
 33
120.0000
  0
3DFACE
  5
11A3
  8
0
 10
14.0000
 20
18.0000
 30
90.0000
 11
22.0000
 21
18.0000
 31
90.0000
 12
22.0000
 22
18.0000
 32
120.0000
 13
14.0000
 23
18.0000
 33
120.0000
  0
3DFACE
  5
11A4
  8
0
 10
14.0000
 20
0.0000
 30
90.0000
 11
14.0000
 21
18.0000
 31
90.0000
 12
14.0000
 22
18.0000
 32
120.0000
 13
14.0000
 23
0.0000
 33
120.0000
  0
3DFACE
  5
11A5
  8
0
 10
22.0000
 20
0.0000
 30
90.0000
 11
22.0000
 21
18.0000
 31
90.0000
 12
22.0000
 22
18.0000
 32
120.0000
 13
22.0000
 23
0.0000
 33
120.0000
  0
ENDBLK
  8
0
  0
BLOCK
  8
0
  2
DUPLEXSWITCH
 70
0
 10
0.0000
 20
0.0000
 30
0.0000
  3
DUPLEXSWITCH
  1

  0
3DFACE
  5
11A6
  8
0
 10
-72.0000
 20
-40.0000
 30
0.0000
 11
-2.0000
 21
-40.0000
 31
0.0000
 12
-2.0000
 22
0.0000
 32
0.0000
 13
-72.0000
 23
0.0000
 33
0.0000
  0
3DFACE
  5
11A7
  8
0
 10
-72.0000
 20
-40.0000
 30
70.0000
 11
-2.0000
 21
-40.0000
 31
70.0000
 12
-2.0000
 22
0.0000
 32
70.0000
 13
-72.0000
 23
0.0000
 33
70.0000
  0
3DFACE
  5
11A8
  8
0
 10
-72.0000
 20
-40.0000
 30
0.0000
 11
-2.0000
 21
-40.0000
 31
0.0000
 12
-2.0000
 22
-40.0000
 32
70.0000
 13
-72.0000
 23
-40.0000
 33
70.0000
  0
3DFACE
  5
11A9
  8
0
 10
-72.0000
 20
0.0000
 30
0.0000
 11
-2.0000
 21
0.0000
 31
0.0000
 12
-2.0000
 22
0.0000
 32
70.0000
 13
-72.0000
 23
0.0000
 33
70.0000
  0
3DFACE
  5
11AA
  8
0
 10
-72.0000
 20
-40.0000
 30
0.0000
 11
-72.0000
 21
0.0000
 31
0.0000
 12
-72.0000
 22
0.0000
 32
70.0000
 13
-72.0000
 23
-40.0000
 33
70.0000
  0
3DFACE
  5
11AB
  8
0
 10
-2.0000
 20
-40.0000
 30
0.0000
 11
-2.0000
 21
0.0000
 31
0.0000
 12
-2.0000
 22
0.0000
 32
70.0000
 13
-2.0000
 23
-40.0000
 33
70.0000
  0
3DFACE
  5
11AC
  8
0
 10
-82.0000
 20
0.0000
 30
-8.0000
 11
8.0000
 21
0.0000
 31
-8.0000
 12
8.0000
 22
8.0000
 32
-8.0000
 13
-82.0000
 23
8.0000
 33
-8.0000
  0
3DFACE
  5
11AD
  8
0
 10
-82.0000
 20
0.0000
 30
78.0000
 11
8.0000
 21
0.0000
 31
78.0000
 12
8.0000
 22
8.0000
 32
78.0000
 13
-82.0000
 23
8.0000
 33
78.0000
  0
3DFACE
  5
11AE
  8
0
 10
-82.0000
 20
0.0000
 30
-8.0000
 11
8.0000
 21
0.0000
 31
-8.0000
 12
8.0000
 22
0.0000
 32
78.0000
 13
-82.0000
 23
0.0000
 33
78.0000
  0
3DFACE
  5
11AF
  8
0
 10
-82.0000
 20
8.0000
 30
-8.0000
 11
8.0000
 21
8.0000
 31
-8.0000
 12
8.0000
 22
8.0000
 32
78.0000
 13
-82.0000
 23
8.0000
 33
78.0000
  0
3DFACE
  5
11B0
  8
0
 10
-82.0000
 20
0.0000
 30
-8.0000
 11
-82.0000
 21
8.0000
 31
-8.0000
 12
-82.0000
 22
8.0000
 32
78.0000
 13
-82.0000
 23
0.0000
 33
78.0000
  0
3DFACE
  5
11B1
  8
0
 10
8.0000
 20
0.0000
 30
-8.0000
 11
8.0000
 21
8.0000
 31
-8.0000
 12
8.0000
 22
8.0000
 32
78.0000
 13
8.0000
 23
0.0000
 33
78.0000
  0
3DFACE
  5
11B2
  8
0
 10
-53.0000
 20
8.0000
 30
20.0000
 11
-21.0000
 21
8.0000
 31
20.0000
 12
-21.0000
 22
14.0000
 32
20.0000
 13
-53.0000
 23
14.0000
 33
20.0000
  0
3DFACE
  5
11B3
  8
0
 10
-53.0000
 20
8.0000
 30
50.0000
 11
-21.0000
 21
8.0000
 31
50.0000
 12
-21.0000
 22
14.0000
 32
50.0000
 13
-53.0000
 23
14.0000
 33
50.0000
  0
3DFACE
  5
11B4
  8
0
 10
-53.0000
 20
8.0000
 30
20.0000
 11
-21.0000
 21
8.0000
 31
20.0000
 12
-21.0000
 22
8.0000
 32
50.0000
 13
-53.0000
 23
8.0000
 33
50.0000
  0
3DFACE
  5
11B5
  8
0
 10
-53.0000
 20
14.0000
 30
20.0000
 11
-21.0000
 21
14.0000
 31
20.0000
 12
-21.0000
 22
14.0000
 32
50.0000
 13
-53.0000
 23
14.0000
 33
50.0000
  0
3DFACE
  5
11B6
  8
0
 10
-53.0000
 20
8.0000
 30
20.0000
 11
-53.0000
 21
14.0000
 31
20.0000
 12
-53.0000
 22
14.0000
 32
50.0000
 13
-53.0000
 23
8.0000
 33
50.0000
  0
3DFACE
  5
11B7
  8
0
 10
-21.0000
 20
8.0000
 30
20.0000
 11
-21.0000
 21
14.0000
 31
20.0000
 12
-21.0000
 22
14.0000
 32
50.0000
 13
-21.0000
 23
8.0000
 33
50.0000
  0
3DFACE
  5
11B8
  8
0
 10
-49.0000
 20
14.0000
 30
30.0000
 11
-41.0000
 21
14.0000
 31
30.0000
 12
-41.0000
 22
18.0000
 32
30.0000
 13
-49.0000
 23
18.0000
 33
30.0000
  0
3DFACE
  5
11B9
  8
0
 10
-49.0000
 20
14.0000
 30
44.0000
 11
-41.0000
 21
14.0000
 31
44.0000
 12
-41.0000
 22
18.0000
 32
44.0000
 13
-49.0000
 23
18.0000
 33
44.0000
  0
3DFACE
  5
11BA
  8
0
 10
-49.0000
 20
14.0000
 30
30.0000
 11
-41.0000
 21
14.0000
 31
30.0000
 12
-41.0000
 22
14.0000
 32
44.0000
 13
-49.0000
 23
14.0000
 33
44.0000
  0
3DFACE
  5
11BB
  8
0
 10
-49.0000
 20
18.0000
 30
30.0000
 11
-41.0000
 21
18.0000
 31
30.0000
 12
-41.0000
 22
18.0000
 32
44.0000
 13
-49.0000
 23
18.0000
 33
44.0000
  0
3DFACE
  5
11BC
  8
0
 10
-49.0000
 20
14.0000
 30
30.0000
 11
-49.0000
 21
18.0000
 31
30.0000
 12
-49.0000
 22
18.0000
 32
44.0000
 13
-49.0000
 23
14.0000
 33
44.0000
  0
3DFACE
  5
11BD
  8
0
 10
-41.0000
 20
14.0000
 30
30.0000
 11
-41.0000
 21
18.0000
 31
30.0000
 12
-41.0000
 22
18.0000
 32
44.0000
 13
-41.0000
 23
14.0000
 33
44.0000
  0
3DFACE
  5
11BE
  8
0
 10
-33.0000
 20
14.0000
 30
30.0000
 11
-25.0000
 21
14.0000
 31
30.0000
 12
-25.0000
 22
18.0000
 32
30.0000
 13
-33.0000
 23
18.0000
 33
30.0000
  0
3DFACE
  5
11BF
  8
0
 10
-33.0000
 20
14.0000
 30
44.0000
 11
-25.0000
 21
14.0000
 31
44.0000
 12
-25.0000
 22
18.0000
 32
44.0000
 13
-33.0000
 23
18.0000
 33
44.0000
  0
3DFACE
  5
11C0
  8
0
 10
-33.0000
 20
14.0000
 30
30.0000
 11
-25.0000
 21
14.0000
 31
30.0000
 12
-25.0000
 22
14.0000
 32
44.0000
 13
-33.0000
 23
14.0000
 33
44.0000
  0
3DFACE
  5
11C1
  8
0
 10
-33.0000
 20
18.0000
 30
30.0000
 11
-25.0000
 21
18.0000
 31
30.0000
 12
-25.0000
 22
18.0000
 32
44.0000
 13
-33.0000
 23
18.0000
 33
44.0000
  0
3DFACE
  5
11C2
  8
0
 10
-33.0000
 20
14.0000
 30
30.0000
 11
-33.0000
 21
18.0000
 31
30.0000
 12
-33.0000
 22
18.0000
 32
44.0000
 13
-33.0000
 23
14.0000
 33
44.0000
  0
3DFACE
  5
11C3
  8
0
 10
-25.0000
 20
14.0000
 30
30.0000
 11
-25.0000
 21
18.0000
 31
30.0000
 12
-25.0000
 22
18.0000
 32
44.0000
 13
-25.0000
 23
14.0000
 33
44.0000
  0
3DFACE
  5
11C4
  8
0
 10
2.0000
 20
-40.0000
 30
0.0000
 11
72.0000
 21
-40.0000
 31
0.0000
 12
72.0000
 22
0.0000
 32
0.0000
 13
2.0000
 23
0.0000
 33
0.0000
  0
3DFACE
  5
11C5
  8
0
 10
2.0000
 20
-40.0000
 30
70.0000
 11
72.0000
 21
-40.0000
 31
70.0000
 12
72.0000
 22
0.0000
 32
70.0000
 13
2.0000
 23
0.0000
 33
70.0000
  0
3DFACE
  5
11C6
  8
0
 10
2.0000
 20
-40.0000
 30
0.0000
 11
72.0000
 21
-40.0000
 31
0.0000
 12
72.0000
 22
-40.0000
 32
70.0000
 13
2.0000
 23
-40.0000
 33
70.0000
  0
3DFACE
  5
11C7
  8
0
 10
2.0000
 20
0.0000
 30
0.0000
 11
72.0000
 21
0.0000
 31
0.0000
 12
72.0000
 22
0.0000
 32
70.0000
 13
2.0000
 23
0.0000
 33
70.0000
  0
3DFACE
  5
11C8
  8
0
 10
2.0000
 20
-40.0000
 30
0.0000
 11
2.0000
 21
0.0000
 31
0.0000
 12
2.0000
 22
0.0000
 32
70.0000
 13
2.0000
 23
-40.0000
 33
70.0000
  0
3DFACE
  5
11C9
  8
0
 10
72.0000
 20
-40.0000
 30
0.0000
 11
72.0000
 21
0.0000
 31
0.0000
 12
72.0000
 22
0.0000
 32
70.0000
 13
72.0000
 23
-40.0000
 33
70.0000
  0
3DFACE
  5
11CA
  8
0
 10
-8.0000
 20
0.0000
 30
-8.0000
 11
82.0000
 21
0.0000
 31
-8.0000
 12
82.0000
 22
8.0000
 32
-8.0000
 13
-8.0000
 23
8.0000
 33
-8.0000
  0
3DFACE
  5
11CB
  8
0
 10
-8.0000
 20
0.0000
 30
78.0000
 11
82.0000
 21
0.0000
 31
78.0000
 12
82.0000
 22
8.0000
 32
78.0000
 13
-8.0000
 23
8.0000
 33
78.0000
  0
3DFACE
  5
11CC
  8
0
 10
-8.0000
 20
0.0000
 30
-8.0000
 11
82.0000
 21
0.0000
 31
-8.0000
 12
82.0000
 22
0.0000
 32
78.0000
 13
-8.0000
 23
0.0000
 33
78.0000
  0
3DFACE
  5
11CD
  8
0
 10
-8.0000
 20
8.0000
 30
-8.0000
 11
82.0000
 21
8.0000
 31
-8.0000
 12
82.0000
 22
8.0000
 32
78.0000
 13
-8.0000
 23
8.0000
 33
78.0000
  0
3DFACE
  5
11CE
  8
0
 10
-8.0000
 20
0.0000
 30
-8.0000
 11
-8.0000
 21
8.0000
 31
-8.0000
 12
-8.0000
 22
8.0000
 32
78.0000
 13
-8.0000
 23
0.0000
 33
78.0000
  0
3DFACE
  5
11CF
  8
0
 10
82.0000
 20
0.0000
 30
-8.0000
 11
82.0000
 21
8.0000
 31
-8.0000
 12
82.0000
 22
8.0000
 32
78.0000
 13
82.0000
 23
0.0000
 33
78.0000
  0
3DFACE
  5
11D0
  8
0
 10
21.0000
 20
8.0000
 30
20.0000
 11
53.0000
 21
8.0000
 31
20.0000
 12
53.0000
 22
14.0000
 32
20.0000
 13
21.0000
 23
14.0000
 33
20.0000
  0
3DFACE
  5
11D1
  8
0
 10
21.0000
 20
8.0000
 30
50.0000
 11
53.0000
 21
8.0000
 31
50.0000
 12
53.0000
 22
14.0000
 32
50.0000
 13
21.0000
 23
14.0000
 33
50.0000
  0
3DFACE
  5
11D2
  8
0
 10
21.0000
 20
8.0000
 30
20.0000
 11
53.0000
 21
8.0000
 31
20.0000
 12
53.0000
 22
8.0000
 32
50.0000
 13
21.0000
 23
8.0000
 33
50.0000
  0
3DFACE
  5
11D3
  8
0
 10
21.0000
 20
14.0000
 30
20.0000
 11
53.0000
 21
14.0000
 31
20.0000
 12
53.0000
 22
14.0000
 32
50.0000
 13
21.0000
 23
14.0000
 33
50.0000
  0
3DFACE
  5
11D4
  8
0
 10
21.0000
 20
8.0000
 30
20.0000
 11
21.0000
 21
14.0000
 31
20.0000
 12
21.0000
 22
14.0000
 32
50.0000
 13
21.0000
 23
8.0000
 33
50.0000
  0
3DFACE
  5
11D5
  8
0
 10
53.0000
 20
8.0000
 30
20.0000
 11
53.0000
 21
14.0000
 31
20.0000
 12
53.0000
 22
14.0000
 32
50.0000
 13
53.0000
 23
8.0000
 33
50.0000
  0
3DFACE
  5
11D6
  8
0
 10
25.0000
 20
14.0000
 30
30.0000
 11
33.0000
 21
14.0000
 31
30.0000
 12
33.0000
 22
18.0000
 32
30.0000
 13
25.0000
 23
18.0000
 33
30.0000
  0
3DFACE
  5
11D7
  8
0
 10
25.0000
 20
14.0000
 30
44.0000
 11
33.0000
 21
14.0000
 31
44.0000
 12
33.0000
 22
18.0000
 32
44.0000
 13
25.0000
 23
18.0000
 33
44.0000
  0
3DFACE
  5
11D8
  8
0
 10
25.0000
 20
14.0000
 30
30.0000
 11
33.0000
 21
14.0000
 31
30.0000
 12
33.0000
 22
14.0000
 32
44.0000
 13
25.0000
 23
14.0000
 33
44.0000
  0
3DFACE
  5
11D9
  8
0
 10
25.0000
 20
18.0000
 30
30.0000
 11
33.0000
 21
18.0000
 31
30.0000
 12
33.0000
 22
18.0000
 32
44.0000
 13
25.0000
 23
18.0000
 33
44.0000
  0
3DFACE
  5
11DA
  8
0
 10
25.0000
 20
14.0000
 30
30.0000
 11
25.0000
 21
18.0000
 31
30.0000
 12
25.0000
 22
18.0000
 32
44.0000
 13
25.0000
 23
14.0000
 33
44.0000
  0
3DFACE
  5
11DB
  8
0
 10
33.0000
 20
14.0000
 30
30.0000
 11
33.0000
 21
18.0000
 31
30.0000
 12
33.0000
 22
18.0000
 32
44.0000
 13
33.0000
 23
14.0000
 33
44.0000
  0
3DFACE
  5
11DC
  8
0
 10
41.0000
 20
14.0000
 30
30.0000
 11
49.0000
 21
14.0000
 31
30.0000
 12
49.0000
 22
18.0000
 32
30.0000
 13
41.0000
 23
18.0000
 33
30.0000
  0
3DFACE
  5
11DD
  8
0
 10
41.0000
 20
14.0000
 30
44.0000
 11
49.0000
 21
14.0000
 31
44.0000
 12
49.0000
 22
18.0000
 32
44.0000
 13
41.0000
 23
18.0000
 33
44.0000
  0
3DFACE
  5
11DE
  8
0
 10
41.0000
 20
14.0000
 30
30.0000
 11
49.0000
 21
14.0000
 31
30.0000
 12
49.0000
 22
14.0000
 32
44.0000
 13
41.0000
 23
14.0000
 33
44.0000
  0
3DFACE
  5
11DF
  8
0
 10
41.0000
 20
18.0000
 30
30.0000
 11
49.0000
 21
18.0000
 31
30.0000
 12
49.0000
 22
18.0000
 32
44.0000
 13
41.0000
 23
18.0000
 33
44.0000
  0
3DFACE
  5
11E0
  8
0
 10
41.0000
 20
14.0000
 30
30.0000
 11
41.0000
 21
18.0000
 31
30.0000
 12
41.0000
 22
18.0000
 32
44.0000
 13
41.0000
 23
14.0000
 33
44.0000
  0
3DFACE
  5
11E1
  8
0
 10
49.0000
 20
14.0000
 30
30.0000
 11
49.0000
 21
18.0000
 31
30.0000
 12
49.0000
 22
18.0000
 32
44.0000
 13
49.0000
 23
14.0000
 33
44.0000
  0
ENDBLK
  8
0
  0
BLOCK
  8
0
  2
CONTROLBOX
 70
0
 10
0.0000
 20
0.0000
 30
0.0000
  3
CONTROLBOX
  1

  0
3DFACE
  5
11E2
  8
0
 10
-100.0000
 20
-40.0000
 30
-150.0000
 11
100.0000
 21
-40.0000
 31
-150.0000
 12
100.0000
 22
0.0000
 32
-150.0000
 13
-100.0000
 23
0.0000
 33
-150.0000
  0
3DFACE
  5
11E3
  8
0
 10
-100.0000
 20
-40.0000
 30
150.0000
 11
100.0000
 21
-40.0000
 31
150.0000
 12
100.0000
 22
0.0000
 32
150.0000
 13
-100.0000
 23
0.0000
 33
150.0000
  0
3DFACE
  5
11E4
  8
0
 10
-100.0000
 20
-40.0000
 30
-150.0000
 11
100.0000
 21
-40.0000
 31
-150.0000
 12
100.0000
 22
-40.0000
 32
150.0000
 13
-100.0000
 23
-40.0000
 33
150.0000
  0
3DFACE
  5
11E5
  8
0
 10
-100.0000
 20
0.0000
 30
-150.0000
 11
100.0000
 21
0.0000
 31
-150.0000
 12
100.0000
 22
0.0000
 32
150.0000
 13
-100.0000
 23
0.0000
 33
150.0000
  0
3DFACE
  5
11E6
  8
0
 10
-100.0000
 20
-40.0000
 30
-150.0000
 11
-100.0000
 21
0.0000
 31
-150.0000
 12
-100.0000
 22
0.0000
 32
150.0000
 13
-100.0000
 23
-40.0000
 33
150.0000
  0
3DFACE
  5
11E7
  8
0
 10
100.0000
 20
-40.0000
 30
-150.0000
 11
100.0000
 21
0.0000
 31
-150.0000
 12
100.0000
 22
0.0000
 32
150.0000
 13
100.0000
 23
-40.0000
 33
150.0000
  0
3DFACE
  5
11E8
  8
0
 10
-96.0000
 20
0.0000
 30
-146.0000
 11
96.0000
 21
0.0000
 31
-146.0000
 12
96.0000
 22
10.0000
 32
-146.0000
 13
-96.0000
 23
10.0000
 33
-146.0000
  0
3DFACE
  5
11E9
  8
0
 10
-96.0000
 20
0.0000
 30
146.0000
 11
96.0000
 21
0.0000
 31
146.0000
 12
96.0000
 22
10.0000
 32
146.0000
 13
-96.0000
 23
10.0000
 33
146.0000
  0
3DFACE
  5
11EA
  8
0
 10
-96.0000
 20
0.0000
 30
-146.0000
 11
96.0000
 21
0.0000
 31
-146.0000
 12
96.0000
 22
0.0000
 32
146.0000
 13
-96.0000
 23
0.0000
 33
146.0000
  0
3DFACE
  5
11EB
  8
0
 10
-96.0000
 20
10.0000
 30
-146.0000
 11
96.0000
 21
10.0000
 31
-146.0000
 12
96.0000
 22
10.0000
 32
146.0000
 13
-96.0000
 23
10.0000
 33
146.0000
  0
3DFACE
  5
11EC
  8
0
 10
-96.0000
 20
0.0000
 30
-146.0000
 11
-96.0000
 21
10.0000
 31
-146.0000
 12
-96.0000
 22
10.0000
 32
146.0000
 13
-96.0000
 23
0.0000
 33
146.0000
  0
3DFACE
  5
11ED
  8
0
 10
96.0000
 20
0.0000
 30
-146.0000
 11
96.0000
 21
10.0000
 31
-146.0000
 12
96.0000
 22
10.0000
 32
146.0000
 13
96.0000
 23
0.0000
 33
146.0000
  0
ENDBLK
  8
0
  0
BLOCK
  8
0
  2
SEWAGE
 70
0
 10
0.0000
 20
0.0000
 30
0.0000
  3
SEWAGE
  1

  0
3DFACE
  5
11EE
  8
0
 10
-50.0000
 20
0.0000
 30
-50.0000
 11
50.0000
 21
0.0000
 31
-50.0000
 12
50.0000
 22
12.0000
 32
-50.0000
 13
-50.0000
 23
12.0000
 33
-50.0000
  0
3DFACE
  5
11EF
  8
0
 10
-50.0000
 20
0.0000
 30
50.0000
 11
50.0000
 21
0.0000
 31
50.0000
 12
50.0000
 22
12.0000
 32
50.0000
 13
-50.0000
 23
12.0000
 33
50.0000
  0
3DFACE
  5
11F0
  8
0
 10
-50.0000
 20
0.0000
 30
-50.0000
 11
50.0000
 21
0.0000
 31
-50.0000
 12
50.0000
 22
0.0000
 32
50.0000
 13
-50.0000
 23
0.0000
 33
50.0000
  0
3DFACE
  5
11F1
  8
0
 10
-50.0000
 20
12.0000
 30
-50.0000
 11
50.0000
 21
12.0000
 31
-50.0000
 12
50.0000
 22
12.0000
 32
50.0000
 13
-50.0000
 23
12.0000
 33
50.0000
  0
3DFACE
  5
11F2
  8
0
 10
-50.0000
 20
0.0000
 30
-50.0000
 11
-50.0000
 21
12.0000
 31
-50.0000
 12
-50.0000
 22
12.0000
 32
50.0000
 13
-50.0000
 23
0.0000
 33
50.0000
  0
3DFACE
  5
11F3
  8
0
 10
50.0000
 20
0.0000
 30
-50.0000
 11
50.0000
 21
12.0000
 31
-50.0000
 12
50.0000
 22
12.0000
 32
50.0000
 13
50.0000
 23
0.0000
 33
50.0000
  0
3DFACE
  5
11F4
  8
0
 10
-30.0000
 20
12.0000
 30
-30.0000
 11
30.0000
 21
12.0000
 31
-30.0000
 12
30.0000
 22
40.0000
 32
-30.0000
 13
-30.0000
 23
40.0000
 33
-30.0000
  0
3DFACE
  5
11F5
  8
0
 10
-30.0000
 20
12.0000
 30
30.0000
 11
30.0000
 21
12.0000
 31
30.0000
 12
30.0000
 22
40.0000
 32
30.0000
 13
-30.0000
 23
40.0000
 33
30.0000
  0
3DFACE
  5
11F6
  8
0
 10
-30.0000
 20
12.0000
 30
-30.0000
 11
30.0000
 21
12.0000
 31
-30.0000
 12
30.0000
 22
12.0000
 32
30.0000
 13
-30.0000
 23
12.0000
 33
30.0000
  0
3DFACE
  5
11F7
  8
0
 10
-30.0000
 20
40.0000
 30
-30.0000
 11
30.0000
 21
40.0000
 31
-30.0000
 12
30.0000
 22
40.0000
 32
30.0000
 13
-30.0000
 23
40.0000
 33
30.0000
  0
3DFACE
  5
11F8
  8
0
 10
-30.0000
 20
12.0000
 30
-30.0000
 11
-30.0000
 21
40.0000
 31
-30.0000
 12
-30.0000
 22
40.0000
 32
30.0000
 13
-30.0000
 23
12.0000
 33
30.0000
  0
3DFACE
  5
11F9
  8
0
 10
30.0000
 20
12.0000
 30
-30.0000
 11
30.0000
 21
40.0000
 31
-30.0000
 12
30.0000
 22
40.0000
 32
30.0000
 13
30.0000
 23
12.0000
 33
30.0000
  0
3DFACE
  5
11FA
  8
0
 10
-22.0000
 20
40.0000
 30
-22.0000
 11
22.0000
 21
40.0000
 31
-22.0000
 12
22.0000
 22
60.0000
 32
-22.0000
 13
-22.0000
 23
60.0000
 33
-22.0000
  0
3DFACE
  5
11FB
  8
0
 10
-22.0000
 20
40.0000
 30
22.0000
 11
22.0000
 21
40.0000
 31
22.0000
 12
22.0000
 22
60.0000
 32
22.0000
 13
-22.0000
 23
60.0000
 33
22.0000
  0
3DFACE
  5
11FC
  8
0
 10
-22.0000
 20
40.0000
 30
-22.0000
 11
22.0000
 21
40.0000
 31
-22.0000
 12
22.0000
 22
40.0000
 32
22.0000
 13
-22.0000
 23
40.0000
 33
22.0000
  0
3DFACE
  5
11FD
  8
0
 10
-22.0000
 20
60.0000
 30
-22.0000
 11
22.0000
 21
60.0000
 31
-22.0000
 12
22.0000
 22
60.0000
 32
22.0000
 13
-22.0000
 23
60.0000
 33
22.0000
  0
3DFACE
  5
11FE
  8
0
 10
-22.0000
 20
40.0000
 30
-22.0000
 11
-22.0000
 21
60.0000
 31
-22.0000
 12
-22.0000
 22
60.0000
 32
22.0000
 13
-22.0000
 23
40.0000
 33
22.0000
  0
3DFACE
  5
11FF
  8
0
 10
22.0000
 20
40.0000
 30
-22.0000
 11
22.0000
 21
60.0000
 31
-22.0000
 12
22.0000
 22
60.0000
 32
22.0000
 13
22.0000
 23
40.0000
 33
22.0000
  0
3DFACE
  5
1200
  8
0
 10
-45.0000
 20
0.0000
 30
-45.0000
 11
-39.0000
 21
0.0000
 31
-45.0000
 12
-39.0000
 22
6.0000
 32
-45.0000
 13
-45.0000
 23
6.0000
 33
-45.0000
  0
3DFACE
  5
1201
  8
0
 10
-45.0000
 20
0.0000
 30
-39.0000
 11
-39.0000
 21
0.0000
 31
-39.0000
 12
-39.0000
 22
6.0000
 32
-39.0000
 13
-45.0000
 23
6.0000
 33
-39.0000
  0
3DFACE
  5
1202
  8
0
 10
-45.0000
 20
0.0000
 30
-45.0000
 11
-39.0000
 21
0.0000
 31
-45.0000
 12
-39.0000
 22
0.0000
 32
-39.0000
 13
-45.0000
 23
0.0000
 33
-39.0000
  0
3DFACE
  5
1203
  8
0
 10
-45.0000
 20
6.0000
 30
-45.0000
 11
-39.0000
 21
6.0000
 31
-45.0000
 12
-39.0000
 22
6.0000
 32
-39.0000
 13
-45.0000
 23
6.0000
 33
-39.0000
  0
3DFACE
  5
1204
  8
0
 10
-45.0000
 20
0.0000
 30
-45.0000
 11
-45.0000
 21
6.0000
 31
-45.0000
 12
-45.0000
 22
6.0000
 32
-39.0000
 13
-45.0000
 23
0.0000
 33
-39.0000
  0
3DFACE
  5
1205
  8
0
 10
-39.0000
 20
0.0000
 30
-45.0000
 11
-39.0000
 21
6.0000
 31
-45.0000
 12
-39.0000
 22
6.0000
 32
-39.0000
 13
-39.0000
 23
0.0000
 33
-39.0000
  0
3DFACE
  5
1206
  8
0
 10
39.0000
 20
0.0000
 30
-45.0000
 11
45.0000
 21
0.0000
 31
-45.0000
 12
45.0000
 22
6.0000
 32
-45.0000
 13
39.0000
 23
6.0000
 33
-45.0000
  0
3DFACE
  5
1207
  8
0
 10
39.0000
 20
0.0000
 30
-39.0000
 11
45.0000
 21
0.0000
 31
-39.0000
 12
45.0000
 22
6.0000
 32
-39.0000
 13
39.0000
 23
6.0000
 33
-39.0000
  0
3DFACE
  5
1208
  8
0
 10
39.0000
 20
0.0000
 30
-45.0000
 11
45.0000
 21
0.0000
 31
-45.0000
 12
45.0000
 22
0.0000
 32
-39.0000
 13
39.0000
 23
0.0000
 33
-39.0000
  0
3DFACE
  5
1209
  8
0
 10
39.0000
 20
6.0000
 30
-45.0000
 11
45.0000
 21
6.0000
 31
-45.0000
 12
45.0000
 22
6.0000
 32
-39.0000
 13
39.0000
 23
6.0000
 33
-39.0000
  0
3DFACE
  5
120A
  8
0
 10
39.0000
 20
0.0000
 30
-45.0000
 11
39.0000
 21
6.0000
 31
-45.0000
 12
39.0000
 22
6.0000
 32
-39.0000
 13
39.0000
 23
0.0000
 33
-39.0000
  0
3DFACE
  5
120B
  8
0
 10
45.0000
 20
0.0000
 30
-45.0000
 11
45.0000
 21
6.0000
 31
-45.0000
 12
45.0000
 22
6.0000
 32
-39.0000
 13
45.0000
 23
0.0000
 33
-39.0000
  0
3DFACE
  5
120C
  8
0
 10
-45.0000
 20
0.0000
 30
39.0000
 11
-39.0000
 21
0.0000
 31
39.0000
 12
-39.0000
 22
6.0000
 32
39.0000
 13
-45.0000
 23
6.0000
 33
39.0000
  0
3DFACE
  5
120D
  8
0
 10
-45.0000
 20
0.0000
 30
45.0000
 11
-39.0000
 21
0.0000
 31
45.0000
 12
-39.0000
 22
6.0000
 32
45.0000
 13
-45.0000
 23
6.0000
 33
45.0000
  0
3DFACE
  5
120E
  8
0
 10
-45.0000
 20
0.0000
 30
39.0000
 11
-39.0000
 21
0.0000
 31
39.0000
 12
-39.0000
 22
0.0000
 32
45.0000
 13
-45.0000
 23
0.0000
 33
45.0000
  0
3DFACE
  5
120F
  8
0
 10
-45.0000
 20
6.0000
 30
39.0000
 11
-39.0000
 21
6.0000
 31
39.0000
 12
-39.0000
 22
6.0000
 32
45.0000
 13
-45.0000
 23
6.0000
 33
45.0000
  0
3DFACE
  5
1210
  8
0
 10
-45.0000
 20
0.0000
 30
39.0000
 11
-45.0000
 21
6.0000
 31
39.0000
 12
-45.0000
 22
6.0000
 32
45.0000
 13
-45.0000
 23
0.0000
 33
45.0000
  0
3DFACE
  5
1211
  8
0
 10
-39.0000
 20
0.0000
 30
39.0000
 11
-39.0000
 21
6.0000
 31
39.0000
 12
-39.0000
 22
6.0000
 32
45.0000
 13
-39.0000
 23
0.0000
 33
45.0000
  0
3DFACE
  5
1212
  8
0
 10
39.0000
 20
0.0000
 30
39.0000
 11
45.0000
 21
0.0000
 31
39.0000
 12
45.0000
 22
6.0000
 32
39.0000
 13
39.0000
 23
6.0000
 33
39.0000
  0
3DFACE
  5
1213
  8
0
 10
39.0000
 20
0.0000
 30
45.0000
 11
45.0000
 21
0.0000
 31
45.0000
 12
45.0000
 22
6.0000
 32
45.0000
 13
39.0000
 23
6.0000
 33
45.0000
  0
3DFACE
  5
1214
  8
0
 10
39.0000
 20
0.0000
 30
39.0000
 11
45.0000
 21
0.0000
 31
39.0000
 12
45.0000
 22
0.0000
 32
45.0000
 13
39.0000
 23
0.0000
 33
45.0000
  0
3DFACE
  5
1215
  8
0
 10
39.0000
 20
6.0000
 30
39.0000
 11
45.0000
 21
6.0000
 31
39.0000
 12
45.0000
 22
6.0000
 32
45.0000
 13
39.0000
 23
6.0000
 33
45.0000
  0
3DFACE
  5
1216
  8
0
 10
39.0000
 20
0.0000
 30
39.0000
 11
39.0000
 21
6.0000
 31
39.0000
 12
39.0000
 22
6.0000
 32
45.0000
 13
39.0000
 23
0.0000
 33
45.0000
  0
3DFACE
  5
1217
  8
0
 10
45.0000
 20
0.0000
 30
39.0000
 11
45.0000
 21
6.0000
 31
39.0000
 12
45.0000
 22
6.0000
 32
45.0000
 13
45.0000
 23
0.0000
 33
45.0000
  0
ENDBLK
  8
0
  0
BLOCK
  8
0
  2
GAS
 70
0
 10
0.0000
 20
0.0000
 30
0.0000
  3
GAS
  1

  0
3DFACE
  5
1218
  8
0
 10
-30.0000
 20
0.0000
 30
0.0000
 11
30.0000
 21
0.0000
 31
0.0000
 12
30.0000
 22
30.0000
 32
0.0000
 13
-30.0000
 23
30.0000
 33
0.0000
  0
3DFACE
  5
1219
  8
0
 10
-30.0000
 20
0.0000
 30
60.0000
 11
30.0000
 21
0.0000
 31
60.0000
 12
30.0000
 22
30.0000
 32
60.0000
 13
-30.0000
 23
30.0000
 33
60.0000
  0
3DFACE
  5
121A
  8
0
 10
-30.0000
 20
0.0000
 30
0.0000
 11
30.0000
 21
0.0000
 31
0.0000
 12
30.0000
 22
0.0000
 32
60.0000
 13
-30.0000
 23
0.0000
 33
60.0000
  0
3DFACE
  5
121B
  8
0
 10
-30.0000
 20
30.0000
 30
0.0000
 11
30.0000
 21
30.0000
 31
0.0000
 12
30.0000
 22
30.0000
 32
60.0000
 13
-30.0000
 23
30.0000
 33
60.0000
  0
3DFACE
  5
121C
  8
0
 10
-30.0000
 20
0.0000
 30
0.0000
 11
-30.0000
 21
30.0000
 31
0.0000
 12
-30.0000
 22
30.0000
 32
60.0000
 13
-30.0000
 23
0.0000
 33
60.0000
  0
3DFACE
  5
121D
  8
0
 10
30.0000
 20
0.0000
 30
0.0000
 11
30.0000
 21
30.0000
 31
0.0000
 12
30.0000
 22
30.0000
 32
60.0000
 13
30.0000
 23
0.0000
 33
60.0000
  0
3DFACE
  5
121E
  8
0
 10
-6.0000
 20
30.0000
 30
22.0000
 11
6.0000
 21
30.0000
 31
22.0000
 12
6.0000
 22
60.0000
 32
22.0000
 13
-6.0000
 23
60.0000
 33
22.0000
  0
3DFACE
  5
121F
  8
0
 10
-6.0000
 20
30.0000
 30
38.0000
 11
6.0000
 21
30.0000
 31
38.0000
 12
6.0000
 22
60.0000
 32
38.0000
 13
-6.0000
 23
60.0000
 33
38.0000
  0
3DFACE
  5
1220
  8
0
 10
-6.0000
 20
30.0000
 30
22.0000
 11
6.0000
 21
30.0000
 31
22.0000
 12
6.0000
 22
30.0000
 32
38.0000
 13
-6.0000
 23
30.0000
 33
38.0000
  0
3DFACE
  5
1221
  8
0
 10
-6.0000
 20
60.0000
 30
22.0000
 11
6.0000
 21
60.0000
 31
22.0000
 12
6.0000
 22
60.0000
 32
38.0000
 13
-6.0000
 23
60.0000
 33
38.0000
  0
3DFACE
  5
1222
  8
0
 10
-6.0000
 20
30.0000
 30
22.0000
 11
-6.0000
 21
60.0000
 31
22.0000
 12
-6.0000
 22
60.0000
 32
38.0000
 13
-6.0000
 23
30.0000
 33
38.0000
  0
3DFACE
  5
1223
  8
0
 10
6.0000
 20
30.0000
 30
22.0000
 11
6.0000
 21
60.0000
 31
22.0000
 12
6.0000
 22
60.0000
 32
38.0000
 13
6.0000
 23
30.0000
 33
38.0000
  0
3DFACE
  5
1224
  8
0
 10
-6.0000
 20
-25.0000
 30
22.0000
 11
6.0000
 21
-25.0000
 31
22.0000
 12
6.0000
 22
0.0000
 32
22.0000
 13
-6.0000
 23
0.0000
 33
22.0000
  0
3DFACE
  5
1225
  8
0
 10
-6.0000
 20
-25.0000
 30
38.0000
 11
6.0000
 21
-25.0000
 31
38.0000
 12
6.0000
 22
0.0000
 32
38.0000
 13
-6.0000
 23
0.0000
 33
38.0000
  0
3DFACE
  5
1226
  8
0
 10
-6.0000
 20
-25.0000
 30
22.0000
 11
6.0000
 21
-25.0000
 31
22.0000
 12
6.0000
 22
-25.0000
 32
38.0000
 13
-6.0000
 23
-25.0000
 33
38.0000
  0
3DFACE
  5
1227
  8
0
 10
-6.0000
 20
0.0000
 30
22.0000
 11
6.0000
 21
0.0000
 31
22.0000
 12
6.0000
 22
0.0000
 32
38.0000
 13
-6.0000
 23
0.0000
 33
38.0000
  0
3DFACE
  5
1228
  8
0
 10
-6.0000
 20
-25.0000
 30
22.0000
 11
-6.0000
 21
0.0000
 31
22.0000
 12
-6.0000
 22
0.0000
 32
38.0000
 13
-6.0000
 23
-25.0000
 33
38.0000
  0
3DFACE
  5
1229
  8
0
 10
6.0000
 20
-25.0000
 30
22.0000
 11
6.0000
 21
0.0000
 31
22.0000
 12
6.0000
 22
0.0000
 32
38.0000
 13
6.0000
 23
-25.0000
 33
38.0000
  0
3DFACE
  5
122A
  8
0
 10
-3.0000
 20
55.0000
 30
15.0000
 11
3.0000
 21
55.0000
 31
15.0000
 12
3.0000
 22
65.0000
 32
15.0000
 13
-3.0000
 23
65.0000
 33
15.0000
  0
3DFACE
  5
122B
  8
0
 10
-3.0000
 20
55.0000
 30
45.0000
 11
3.0000
 21
55.0000
 31
45.0000
 12
3.0000
 22
65.0000
 32
45.0000
 13
-3.0000
 23
65.0000
 33
45.0000
  0
3DFACE
  5
122C
  8
0
 10
-3.0000
 20
55.0000
 30
15.0000
 11
3.0000
 21
55.0000
 31
15.0000
 12
3.0000
 22
55.0000
 32
45.0000
 13
-3.0000
 23
55.0000
 33
45.0000
  0
3DFACE
  5
122D
  8
0
 10
-3.0000
 20
65.0000
 30
15.0000
 11
3.0000
 21
65.0000
 31
15.0000
 12
3.0000
 22
65.0000
 32
45.0000
 13
-3.0000
 23
65.0000
 33
45.0000
  0
3DFACE
  5
122E
  8
0
 10
-3.0000
 20
55.0000
 30
15.0000
 11
-3.0000
 21
65.0000
 31
15.0000
 12
-3.0000
 22
65.0000
 32
45.0000
 13
-3.0000
 23
55.0000
 33
45.0000
  0
3DFACE
  5
122F
  8
0
 10
3.0000
 20
55.0000
 30
15.0000
 11
3.0000
 21
65.0000
 31
15.0000
 12
3.0000
 22
65.0000
 32
45.0000
 13
3.0000
 23
55.0000
 33
45.0000
  0
3DFACE
  5
1230
  8
0
 10
-14.0000
 20
60.0000
 30
22.0000
 11
14.0000
 21
60.0000
 31
22.0000
 12
14.0000
 22
72.0000
 32
22.0000
 13
-14.0000
 23
72.0000
 33
22.0000
  0
3DFACE
  5
1231
  8
0
 10
-14.0000
 20
60.0000
 30
38.0000
 11
14.0000
 21
60.0000
 31
38.0000
 12
14.0000
 22
72.0000
 32
38.0000
 13
-14.0000
 23
72.0000
 33
38.0000
  0
3DFACE
  5
1232
  8
0
 10
-14.0000
 20
60.0000
 30
22.0000
 11
14.0000
 21
60.0000
 31
22.0000
 12
14.0000
 22
60.0000
 32
38.0000
 13
-14.0000
 23
60.0000
 33
38.0000
  0
3DFACE
  5
1233
  8
0
 10
-14.0000
 20
72.0000
 30
22.0000
 11
14.0000
 21
72.0000
 31
22.0000
 12
14.0000
 22
72.0000
 32
38.0000
 13
-14.0000
 23
72.0000
 33
38.0000
  0
3DFACE
  5
1234
  8
0
 10
-14.0000
 20
60.0000
 30
22.0000
 11
-14.0000
 21
72.0000
 31
22.0000
 12
-14.0000
 22
72.0000
 32
38.0000
 13
-14.0000
 23
60.0000
 33
38.0000
  0
3DFACE
  5
1235
  8
0
 10
14.0000
 20
60.0000
 30
22.0000
 11
14.0000
 21
72.0000
 31
22.0000
 12
14.0000
 22
72.0000
 32
38.0000
 13
14.0000
 23
60.0000
 33
38.0000
  0
ENDBLK
  8
0
  0
BLOCK
  8
0
  2
LIGHTING
 70
0
 10
0.0000
 20
0.0000
 30
0.0000
  3
LIGHTING
  1

  0
3DFACE
  5
1236
  8
0
 10
-60.0000
 20
-30.0000
 30
-60.0000
 11
60.0000
 21
-30.0000
 31
-60.0000
 12
60.0000
 22
0.0000
 32
-60.0000
 13
-60.0000
 23
0.0000
 33
-60.0000
  0
3DFACE
  5
1237
  8
0
 10
-60.0000
 20
-30.0000
 30
60.0000
 11
60.0000
 21
-30.0000
 31
60.0000
 12
60.0000
 22
0.0000
 32
60.0000
 13
-60.0000
 23
0.0000
 33
60.0000
  0
3DFACE
  5
1238
  8
0
 10
-60.0000
 20
-30.0000
 30
-60.0000
 11
60.0000
 21
-30.0000
 31
-60.0000
 12
60.0000
 22
-30.0000
 32
60.0000
 13
-60.0000
 23
-30.0000
 33
60.0000
  0
3DFACE
  5
1239
  8
0
 10
-60.0000
 20
0.0000
 30
-60.0000
 11
60.0000
 21
0.0000
 31
-60.0000
 12
60.0000
 22
0.0000
 32
60.0000
 13
-60.0000
 23
0.0000
 33
60.0000
  0
3DFACE
  5
123A
  8
0
 10
-60.0000
 20
-30.0000
 30
-60.0000
 11
-60.0000
 21
0.0000
 31
-60.0000
 12
-60.0000
 22
0.0000
 32
60.0000
 13
-60.0000
 23
-30.0000
 33
60.0000
  0
3DFACE
  5
123B
  8
0
 10
60.0000
 20
-30.0000
 30
-60.0000
 11
60.0000
 21
0.0000
 31
-60.0000
 12
60.0000
 22
0.0000
 32
60.0000
 13
60.0000
 23
-30.0000
 33
60.0000
  0
3DFACE
  5
123C
  8
0
 10
-50.0000
 20
0.0000
 30
-50.0000
 11
50.0000
 21
0.0000
 31
-50.0000
 12
50.0000
 22
6.0000
 32
-50.0000
 13
-50.0000
 23
6.0000
 33
-50.0000
  0
3DFACE
  5
123D
  8
0
 10
-50.0000
 20
0.0000
 30
50.0000
 11
50.0000
 21
0.0000
 31
50.0000
 12
50.0000
 22
6.0000
 32
50.0000
 13
-50.0000
 23
6.0000
 33
50.0000
  0
3DFACE
  5
123E
  8
0
 10
-50.0000
 20
0.0000
 30
-50.0000
 11
50.0000
 21
0.0000
 31
-50.0000
 12
50.0000
 22
0.0000
 32
50.0000
 13
-50.0000
 23
0.0000
 33
50.0000
  0
3DFACE
  5
123F
  8
0
 10
-50.0000
 20
6.0000
 30
-50.0000
 11
50.0000
 21
6.0000
 31
-50.0000
 12
50.0000
 22
6.0000
 32
50.0000
 13
-50.0000
 23
6.0000
 33
50.0000
  0
3DFACE
  5
1240
  8
0
 10
-50.0000
 20
0.0000
 30
-50.0000
 11
-50.0000
 21
6.0000
 31
-50.0000
 12
-50.0000
 22
6.0000
 32
50.0000
 13
-50.0000
 23
0.0000
 33
50.0000
  0
3DFACE
  5
1241
  8
0
 10
50.0000
 20
0.0000
 30
-50.0000
 11
50.0000
 21
6.0000
 31
-50.0000
 12
50.0000
 22
6.0000
 32
50.0000
 13
50.0000
 23
0.0000
 33
50.0000
  0
3DFACE
  5
1242
  8
0
 10
-64.0000
 20
-6.0000
 30
-64.0000
 11
64.0000
 21
-6.0000
 31
-64.0000
 12
64.0000
 22
0.0000
 32
-64.0000
 13
-64.0000
 23
0.0000
 33
-64.0000
  0
3DFACE
  5
1243
  8
0
 10
-64.0000
 20
-6.0000
 30
64.0000
 11
64.0000
 21
-6.0000
 31
64.0000
 12
64.0000
 22
0.0000
 32
64.0000
 13
-64.0000
 23
0.0000
 33
64.0000
  0
3DFACE
  5
1244
  8
0
 10
-64.0000
 20
-6.0000
 30
-64.0000
 11
64.0000
 21
-6.0000
 31
-64.0000
 12
64.0000
 22
-6.0000
 32
64.0000
 13
-64.0000
 23
-6.0000
 33
64.0000
  0
3DFACE
  5
1245
  8
0
 10
-64.0000
 20
0.0000
 30
-64.0000
 11
64.0000
 21
0.0000
 31
-64.0000
 12
64.0000
 22
0.0000
 32
64.0000
 13
-64.0000
 23
0.0000
 33
64.0000
  0
3DFACE
  5
1246
  8
0
 10
-64.0000
 20
-6.0000
 30
-64.0000
 11
-64.0000
 21
0.0000
 31
-64.0000
 12
-64.0000
 22
0.0000
 32
64.0000
 13
-64.0000
 23
-6.0000
 33
64.0000
  0
3DFACE
  5
1247
  8
0
 10
64.0000
 20
-6.0000
 30
-64.0000
 11
64.0000
 21
0.0000
 31
-64.0000
 12
64.0000
 22
0.0000
 32
64.0000
 13
64.0000
 23
-6.0000
 33
64.0000
  0
3DFACE
  5
1248
  8
0
 10
-30.0000
 20
2.0000
 30
-30.0000
 11
30.0000
 21
2.0000
 31
-30.0000
 12
30.0000
 22
8.0000
 32
-30.0000
 13
-30.0000
 23
8.0000
 33
-30.0000
  0
3DFACE
  5
1249
  8
0
 10
-30.0000
 20
2.0000
 30
30.0000
 11
30.0000
 21
2.0000
 31
30.0000
 12
30.0000
 22
8.0000
 32
30.0000
 13
-30.0000
 23
8.0000
 33
30.0000
  0
3DFACE
  5
124A
  8
0
 10
-30.0000
 20
2.0000
 30
-30.0000
 11
30.0000
 21
2.0000
 31
-30.0000
 12
30.0000
 22
2.0000
 32
30.0000
 13
-30.0000
 23
2.0000
 33
30.0000
  0
3DFACE
  5
124B
  8
0
 10
-30.0000
 20
8.0000
 30
-30.0000
 11
30.0000
 21
8.0000
 31
-30.0000
 12
30.0000
 22
8.0000
 32
30.0000
 13
-30.0000
 23
8.0000
 33
30.0000
  0
3DFACE
  5
124C
  8
0
 10
-30.0000
 20
2.0000
 30
-30.0000
 11
-30.0000
 21
8.0000
 31
-30.0000
 12
-30.0000
 22
8.0000
 32
30.0000
 13
-30.0000
 23
2.0000
 33
30.0000
  0
3DFACE
  5
124D
  8
0
 10
30.0000
 20
2.0000
 30
-30.0000
 11
30.0000
 21
8.0000
 31
-30.0000
 12
30.0000
 22
8.0000
 32
30.0000
 13
30.0000
 23
2.0000
 33
30.0000
  0
ENDBLK
  8
0
  0
ENDSEC
  0
SECTION
  2
ENTITIES
  0
3DFACE
  5
1000
  8
ריצוף
 10
3686.0000
 20
-2831.0000
 30
0.0000
 11
3686.0000
 21
-6033.0831
 31
0.0000
 12
9824.9737
 22
-6033.0831
 32
0.0000
 13
9824.9737
 23
-6033.0831
 33
0.0000
 70
15
  0
3DFACE
  5
1001
  8
ריצוף
 10
3686.0000
 20
-2831.0000
 30
-40.0000
 11
9824.9737
 21
-6033.0831
 31
-40.0000
 12
3686.0000
 22
-6033.0831
 32
-40.0000
 13
3686.0000
 23
-6033.0831
 33
-40.0000
 70
15
  0
3DFACE
  5
1002
  8
ריצוף
 10
9824.9737
 20
-6033.0831
 30
0.0000
 11
9824.9737
 21
-2831.0000
 31
0.0000
 12
3686.0000
 22
-2831.0000
 32
0.0000
 13
3686.0000
 23
-2831.0000
 33
0.0000
 70
15
  0
3DFACE
  5
1003
  8
ריצוף
 10
9824.9737
 20
-6033.0831
 30
-40.0000
 11
3686.0000
 21
-2831.0000
 31
-40.0000
 12
9824.9737
 22
-2831.0000
 32
-40.0000
 13
9824.9737
 23
-2831.0000
 33
-40.0000
 70
15
  0
3DFACE
  5
1004
  8
ריצוף
 10
3686.0000
 20
-6033.0831
 30
-40.0000
 11
9824.9737
 21
-6033.0831
 31
-40.0000
 12
9824.9737
 22
-6033.0831
 32
0.0000
 13
3686.0000
 23
-6033.0831
 33
0.0000
 70
15
  0
3DFACE
  5
1005
  8
ריצוף
 10
9824.9737
 20
-6033.0831
 30
-40.0000
 11
9824.9737
 21
-2831.0000
 31
-40.0000
 12
9824.9737
 22
-2831.0000
 32
0.0000
 13
9824.9737
 23
-6033.0831
 33
0.0000
 70
15
  0
3DFACE
  5
1006
  8
ריצוף
 10
9824.9737
 20
-2831.0000
 30
-40.0000
 11
3686.0000
 21
-2831.0000
 31
-40.0000
 12
3686.0000
 22
-2831.0000
 32
0.0000
 13
9824.9737
 23
-2831.0000
 33
0.0000
 70
15
  0
3DFACE
  5
1007
  8
ריצוף
 10
3686.0000
 20
-2831.0000
 30
-40.0000
 11
3686.0000
 21
-6033.0831
 31
-40.0000
 12
3686.0000
 22
-6033.0831
 32
0.0000
 13
3686.0000
 23
-2831.0000
 33
0.0000
 70
15
  0
3DFACE
  5
1008
  8
קירות
 10
4470.0000
 20
-6020.0000
 30
0.0000
 11
4470.0000
 21
-5580.0000
 31
0.0000
 12
4370.0000
 22
-5580.0000
 32
0.0000
 13
4370.0000
 23
-6020.0000
 33
0.0000
 70
15
  0
3DFACE
  5
1009
  8
קירות
 10
4470.0000
 20
-6020.0000
 30
2705.0000
 11
4470.0000
 21
-5580.0000
 31
2705.0000
 12
4370.0000
 22
-5580.0000
 32
2705.0000
 13
4370.0000
 23
-6020.0000
 33
2705.0000
 70
15
  0
3DFACE
  5
100A
  8
קירות
 10
4470.0000
 20
-6020.0000
 30
0.0000
 11
4470.0000
 21
-5580.0000
 31
0.0000
 12
4470.0000
 22
-5580.0000
 32
2705.0000
 13
4470.0000
 23
-6020.0000
 33
2705.0000
 70
15
  0
3DFACE
  5
100B
  8
קירות
 10
4370.0000
 20
-6020.0000
 30
0.0000
 11
4370.0000
 21
-5580.0000
 31
0.0000
 12
4370.0000
 22
-5580.0000
 32
2705.0000
 13
4370.0000
 23
-6020.0000
 33
2705.0000
 70
15
  0
3DFACE
  5
100C
  8
קירות
 10
4470.0000
 20
-6020.0000
 30
0.0000
 11
4370.0000
 21
-6020.0000
 31
0.0000
 12
4370.0000
 22
-6020.0000
 32
2705.0000
 13
4470.0000
 23
-6020.0000
 33
2705.0000
 70
15
  0
3DFACE
  5
100D
  8
קירות
 10
4470.0000
 20
-5580.0000
 30
0.0000
 11
4370.0000
 21
-5580.0000
 31
0.0000
 12
4370.0000
 22
-5580.0000
 32
2705.0000
 13
4470.0000
 23
-5580.0000
 33
2705.0000
 70
15
  0
3DFACE
  5
100E
  8
קירות
 10
4570.0000
 20
-5680.0000
 30
0.0000
 11
3586.0000
 21
-5680.0000
 31
0.0000
 12
3586.0000
 22
-5780.0000
 32
0.0000
 13
4570.0000
 23
-5780.0000
 33
0.0000
 70
15
  0
3DFACE
  5
100F
  8
קירות
 10
4570.0000
 20
-5680.0000
 30
2705.0000
 11
3586.0000
 21
-5680.0000
 31
2705.0000
 12
3586.0000
 22
-5780.0000
 32
2705.0000
 13
4570.0000
 23
-5780.0000
 33
2705.0000
 70
15
  0
3DFACE
  5
1010
  8
קירות
 10
4570.0000
 20
-5680.0000
 30
0.0000
 11
3586.0000
 21
-5680.0000
 31
0.0000
 12
3586.0000
 22
-5680.0000
 32
2705.0000
 13
4570.0000
 23
-5680.0000
 33
2705.0000
 70
15
  0
3DFACE
  5
1011
  8
קירות
 10
4570.0000
 20
-5780.0000
 30
0.0000
 11
3586.0000
 21
-5780.0000
 31
0.0000
 12
3586.0000
 22
-5780.0000
 32
2705.0000
 13
4570.0000
 23
-5780.0000
 33
2705.0000
 70
15
  0
3DFACE
  5
1012
  8
קירות
 10
4570.0000
 20
-5680.0000
 30
0.0000
 11
4570.0000
 21
-5780.0000
 31
0.0000
 12
4570.0000
 22
-5780.0000
 32
2705.0000
 13
4570.0000
 23
-5680.0000
 33
2705.0000
 70
15
  0
3DFACE
  5
1013
  8
קירות
 10
3586.0000
 20
-5680.0000
 30
0.0000
 11
3586.0000
 21
-5780.0000
 31
0.0000
 12
3586.0000
 22
-5780.0000
 32
2705.0000
 13
3586.0000
 23
-5680.0000
 33
2705.0000
 70
15
  0
3DFACE
  5
1014
  8
קירות
 10
3686.0000
 20
-5780.0000
 30
0.0000
 11
3686.0000
 21
-2731.0000
 31
0.0000
 12
3586.0000
 22
-2731.0000
 32
0.0000
 13
3586.0000
 23
-5780.0000
 33
0.0000
 70
15
  0
3DFACE
  5
1015
  8
קירות
 10
3686.0000
 20
-5780.0000
 30
2705.0000
 11
3686.0000
 21
-2731.0000
 31
2705.0000
 12
3586.0000
 22
-2731.0000
 32
2705.0000
 13
3586.0000
 23
-5780.0000
 33
2705.0000
 70
15
  0
3DFACE
  5
1016
  8
קירות
 10
3686.0000
 20
-5780.0000
 30
0.0000
 11
3686.0000
 21
-2731.0000
 31
0.0000
 12
3686.0000
 22
-2731.0000
 32
2705.0000
 13
3686.0000
 23
-5780.0000
 33
2705.0000
 70
15
  0
3DFACE
  5
1017
  8
קירות
 10
3586.0000
 20
-5780.0000
 30
0.0000
 11
3586.0000
 21
-2731.0000
 31
0.0000
 12
3586.0000
 22
-2731.0000
 32
2705.0000
 13
3586.0000
 23
-5780.0000
 33
2705.0000
 70
15
  0
3DFACE
  5
1018
  8
קירות
 10
3686.0000
 20
-5780.0000
 30
0.0000
 11
3586.0000
 21
-5780.0000
 31
0.0000
 12
3586.0000
 22
-5780.0000
 32
2705.0000
 13
3686.0000
 23
-5780.0000
 33
2705.0000
 70
15
  0
3DFACE
  5
1019
  8
קירות
 10
3686.0000
 20
-2731.0000
 30
0.0000
 11
3586.0000
 21
-2731.0000
 31
0.0000
 12
3586.0000
 22
-2731.0000
 32
2705.0000
 13
3686.0000
 23
-2731.0000
 33
2705.0000
 70
15
  0
3DFACE
  5
101A
  8
קירות
 10
3586.0006
 20
-2830.6509
 30
0.0000
 11
3686.0000
 21
-2831.0000
 31
0.0000
 12
3686.3491
 22
-2731.0006
 32
0.0000
 13
3586.3497
 23
-2730.6515
 33
0.0000
 70
15
  0
3DFACE
  5
101B
  8
קירות
 10
3586.0006
 20
-2830.6509
 30
2705.0000
 11
3686.0000
 21
-2831.0000
 31
2705.0000
 12
3686.3491
 22
-2731.0006
 32
2705.0000
 13
3586.3497
 23
-2730.6515
 33
2705.0000
 70
15
  0
3DFACE
  5
101C
  8
קירות
 10
3586.0006
 20
-2830.6509
 30
0.0000
 11
3686.0000
 21
-2831.0000
 31
0.0000
 12
3686.0000
 22
-2831.0000
 32
2705.0000
 13
3586.0006
 23
-2830.6509
 33
2705.0000
 70
15
  0
3DFACE
  5
101D
  8
קירות
 10
3586.3497
 20
-2730.6515
 30
0.0000
 11
3686.3491
 21
-2731.0006
 31
0.0000
 12
3686.3491
 22
-2731.0006
 32
2705.0000
 13
3586.3497
 23
-2730.6515
 33
2705.0000
 70
15
  0
3DFACE
  5
101E
  8
קירות
 10
3586.0006
 20
-2830.6509
 30
0.0000
 11
3586.3497
 21
-2730.6515
 31
0.0000
 12
3586.3497
 22
-2730.6515
 32
2705.0000
 13
3586.0006
 23
-2830.6509
 33
2705.0000
 70
15
  0
3DFACE
  5
101F
  8
קירות
 10
3686.0000
 20
-2831.0000
 30
0.0000
 11
3686.3491
 21
-2731.0006
 31
0.0000
 12
3686.3491
 22
-2731.0006
 32
2705.0000
 13
3686.0000
 23
-2831.0000
 33
2705.0000
 70
15
  0
3DFACE
  5
1020
  8
קירות
 10
3686.0000
 20
-2831.0000
 30
0.0000
 11
5779.4950
 21
-2838.3077
 31
0.0000
 12
5779.8441
 22
-2738.3083
 32
0.0000
 13
3686.3491
 23
-2731.0006
 33
0.0000
 70
15
  0
3DFACE
  5
1021
  8
קירות
 10
3686.0000
 20
-2831.0000
 30
617.5000
 11
5779.4950
 21
-2838.3077
 31
617.5000
 12
5779.8441
 22
-2738.3083
 32
617.5000
 13
3686.3491
 23
-2731.0006
 33
617.5000
 70
15
  0
3DFACE
  5
1022
  8
קירות
 10
3686.0000
 20
-2831.0000
 30
0.0000
 11
5779.4950
 21
-2838.3077
 31
0.0000
 12
5779.4950
 22
-2838.3077
 32
617.5000
 13
3686.0000
 23
-2831.0000
 33
617.5000
 70
15
  0
3DFACE
  5
1023
  8
קירות
 10
3686.3491
 20
-2731.0006
 30
0.0000
 11
5779.8441
 21
-2738.3083
 31
0.0000
 12
5779.8441
 22
-2738.3083
 32
617.5000
 13
3686.3491
 23
-2731.0006
 33
617.5000
 70
15
  0
3DFACE
  5
1024
  8
קירות
 10
3686.0000
 20
-2831.0000
 30
0.0000
 11
3686.3491
 21
-2731.0006
 31
0.0000
 12
3686.3491
 22
-2731.0006
 32
617.5000
 13
3686.0000
 23
-2831.0000
 33
617.5000
 70
15
  0
3DFACE
  5
1025
  8
קירות
 10
5779.4950
 20
-2838.3077
 30
0.0000
 11
5779.8441
 21
-2738.3083
 31
0.0000
 12
5779.8441
 22
-2738.3083
 32
617.5000
 13
5779.4950
 23
-2838.3077
 33
617.5000
 70
15
  0
3DFACE
  5
1026
  8
קירות
 10
3686.0000
 20
-2831.0000
 30
1698.5000
 11
5779.4950
 21
-2838.3077
 31
1698.5000
 12
5779.8441
 22
-2738.3083
 32
1698.5000
 13
3686.3491
 23
-2731.0006
 33
1698.5000
 70
15
  0
3DFACE
  5
1027
  8
קירות
 10
3686.0000
 20
-2831.0000
 30
2705.0000
 11
5779.4950
 21
-2838.3077
 31
2705.0000
 12
5779.8441
 22
-2738.3083
 32
2705.0000
 13
3686.3491
 23
-2731.0006
 33
2705.0000
 70
15
  0
3DFACE
  5
1028
  8
קירות
 10
3686.0000
 20
-2831.0000
 30
1698.5000
 11
5779.4950
 21
-2838.3077
 31
1698.5000
 12
5779.4950
 22
-2838.3077
 32
2705.0000
 13
3686.0000
 23
-2831.0000
 33
2705.0000
 70
15
  0
3DFACE
  5
1029
  8
קירות
 10
3686.3491
 20
-2731.0006
 30
1698.5000
 11
5779.8441
 21
-2738.3083
 31
1698.5000
 12
5779.8441
 22
-2738.3083
 32
2705.0000
 13
3686.3491
 23
-2731.0006
 33
2705.0000
 70
15
  0
3DFACE
  5
102A
  8
קירות
 10
3686.0000
 20
-2831.0000
 30
1698.5000
 11
3686.3491
 21
-2731.0006
 31
1698.5000
 12
3686.3491
 22
-2731.0006
 32
2705.0000
 13
3686.0000
 23
-2831.0000
 33
2705.0000
 70
15
  0
3DFACE
  5
102B
  8
קירות
 10
5779.4950
 20
-2838.3077
 30
1698.5000
 11
5779.8441
 21
-2738.3083
 31
1698.5000
 12
5779.8441
 22
-2738.3083
 32
2705.0000
 13
5779.4950
 23
-2838.3077
 33
2705.0000
 70
15
  0
3DFACE
  5
102C
  8
קירות
 10
5779.4950
 20
-2838.3077
 30
0.0000
 11
8106.9731
 21
-2846.4322
 31
0.0000
 12
8107.3221
 22
-2746.4328
 32
0.0000
 13
5779.8441
 23
-2738.3083
 33
0.0000
 70
15
  0
3DFACE
  5
102D
  8
קירות
 10
5779.4950
 20
-2838.3077
 30
2705.0000
 11
8106.9731
 21
-2846.4322
 31
2705.0000
 12
8107.3221
 22
-2746.4328
 32
2705.0000
 13
5779.8441
 23
-2738.3083
 33
2705.0000
 70
15
  0
3DFACE
  5
102E
  8
קירות
 10
5779.4950
 20
-2838.3077
 30
0.0000
 11
8106.9731
 21
-2846.4322
 31
0.0000
 12
8106.9731
 22
-2846.4322
 32
2705.0000
 13
5779.4950
 23
-2838.3077
 33
2705.0000
 70
15
  0
3DFACE
  5
102F
  8
קירות
 10
5779.8441
 20
-2738.3083
 30
0.0000
 11
8107.3221
 21
-2746.4328
 31
0.0000
 12
8107.3221
 22
-2746.4328
 32
2705.0000
 13
5779.8441
 23
-2738.3083
 33
2705.0000
 70
15
  0
3DFACE
  5
1030
  8
קירות
 10
5779.4950
 20
-2838.3077
 30
0.0000
 11
5779.8441
 21
-2738.3083
 31
0.0000
 12
5779.8441
 22
-2738.3083
 32
2705.0000
 13
5779.4950
 23
-2838.3077
 33
2705.0000
 70
15
  0
3DFACE
  5
1031
  8
קירות
 10
8106.9731
 20
-2846.4322
 30
0.0000
 11
8107.3221
 21
-2746.4328
 31
0.0000
 12
8107.3221
 22
-2746.4328
 32
2705.0000
 13
8106.9731
 23
-2846.4322
 33
2705.0000
 70
15
  0
3DFACE
  5
1032
  8
קירות
 10
8006.9737
 20
-2746.0831
 30
0.0000
 11
8006.9737
 21
-2923.5000
 31
0.0000
 12
8106.9737
 22
-2923.5000
 32
0.0000
 13
8106.9737
 23
-2746.0831
 33
0.0000
 70
15
  0
3DFACE
  5
1033
  8
קירות
 10
8006.9737
 20
-2746.0831
 30
2705.0000
 11
8006.9737
 21
-2923.5000
 31
2705.0000
 12
8106.9737
 22
-2923.5000
 32
2705.0000
 13
8106.9737
 23
-2746.0831
 33
2705.0000
 70
15
  0
3DFACE
  5
1034
  8
קירות
 10
8006.9737
 20
-2746.0831
 30
0.0000
 11
8006.9737
 21
-2923.5000
 31
0.0000
 12
8006.9737
 22
-2923.5000
 32
2705.0000
 13
8006.9737
 23
-2746.0831
 33
2705.0000
 70
15
  0
3DFACE
  5
1035
  8
קירות
 10
8106.9737
 20
-2746.0831
 30
0.0000
 11
8106.9737
 21
-2923.5000
 31
0.0000
 12
8106.9737
 22
-2923.5000
 32
2705.0000
 13
8106.9737
 23
-2746.0831
 33
2705.0000
 70
15
  0
3DFACE
  5
1036
  8
קירות
 10
8006.9737
 20
-2746.0831
 30
0.0000
 11
8106.9737
 21
-2746.0831
 31
0.0000
 12
8106.9737
 22
-2746.0831
 32
2705.0000
 13
8006.9737
 23
-2746.0831
 33
2705.0000
 70
15
  0
3DFACE
  5
1037
  8
קירות
 10
8006.9737
 20
-2923.5000
 30
0.0000
 11
8106.9737
 21
-2923.5000
 31
0.0000
 12
8106.9737
 22
-2923.5000
 32
2705.0000
 13
8006.9737
 23
-2923.5000
 33
2705.0000
 70
15
  0
3DFACE
  5
1038
  8
קירות
 10
8006.9737
 20
-2923.5000
 30
0.0000
 11
8006.9737
 21
-4080.5000
 31
0.0000
 12
8106.9737
 22
-4080.5000
 32
0.0000
 13
8106.9737
 23
-2923.5000
 33
0.0000
 70
15
  0
3DFACE
  5
1039
  8
קירות
 10
8006.9737
 20
-2923.5000
 30
610.5000
 11
8006.9737
 21
-4080.5000
 31
610.5000
 12
8106.9737
 22
-4080.5000
 32
610.5000
 13
8106.9737
 23
-2923.5000
 33
610.5000
 70
15
  0
3DFACE
  5
103A
  8
קירות
 10
8006.9737
 20
-2923.5000
 30
0.0000
 11
8006.9737
 21
-4080.5000
 31
0.0000
 12
8006.9737
 22
-4080.5000
 32
610.5000
 13
8006.9737
 23
-2923.5000
 33
610.5000
 70
15
  0
3DFACE
  5
103B
  8
קירות
 10
8106.9737
 20
-2923.5000
 30
0.0000
 11
8106.9737
 21
-4080.5000
 31
0.0000
 12
8106.9737
 22
-4080.5000
 32
610.5000
 13
8106.9737
 23
-2923.5000
 33
610.5000
 70
15
  0
3DFACE
  5
103C
  8
קירות
 10
8006.9737
 20
-2923.5000
 30
0.0000
 11
8106.9737
 21
-2923.5000
 31
0.0000
 12
8106.9737
 22
-2923.5000
 32
610.5000
 13
8006.9737
 23
-2923.5000
 33
610.5000
 70
15
  0
3DFACE
  5
103D
  8
קירות
 10
8006.9737
 20
-4080.5000
 30
0.0000
 11
8106.9737
 21
-4080.5000
 31
0.0000
 12
8106.9737
 22
-4080.5000
 32
610.5000
 13
8006.9737
 23
-4080.5000
 33
610.5000
 70
15
  0
3DFACE
  5
103E
  8
קירות
 10
8006.9737
 20
-2923.5000
 30
1693.5000
 11
8006.9737
 21
-4080.5000
 31
1693.5000
 12
8106.9737
 22
-4080.5000
 32
1693.5000
 13
8106.9737
 23
-2923.5000
 33
1693.5000
 70
15
  0
3DFACE
  5
103F
  8
קירות
 10
8006.9737
 20
-2923.5000
 30
2705.0000
 11
8006.9737
 21
-4080.5000
 31
2705.0000
 12
8106.9737
 22
-4080.5000
 32
2705.0000
 13
8106.9737
 23
-2923.5000
 33
2705.0000
 70
15
  0
3DFACE
  5
1040
  8
קירות
 10
8006.9737
 20
-2923.5000
 30
1693.5000
 11
8006.9737
 21
-4080.5000
 31
1693.5000
 12
8006.9737
 22
-4080.5000
 32
2705.0000
 13
8006.9737
 23
-2923.5000
 33
2705.0000
 70
15
  0
3DFACE
  5
1041
  8
קירות
 10
8106.9737
 20
-2923.5000
 30
1693.5000
 11
8106.9737
 21
-4080.5000
 31
1693.5000
 12
8106.9737
 22
-4080.5000
 32
2705.0000
 13
8106.9737
 23
-2923.5000
 33
2705.0000
 70
15
  0
3DFACE
  5
1042
  8
קירות
 10
8006.9737
 20
-2923.5000
 30
1693.5000
 11
8106.9737
 21
-2923.5000
 31
1693.5000
 12
8106.9737
 22
-2923.5000
 32
2705.0000
 13
8006.9737
 23
-2923.5000
 33
2705.0000
 70
15
  0
3DFACE
  5
1043
  8
קירות
 10
8006.9737
 20
-4080.5000
 30
1693.5000
 11
8106.9737
 21
-4080.5000
 31
1693.5000
 12
8106.9737
 22
-4080.5000
 32
2705.0000
 13
8006.9737
 23
-4080.5000
 33
2705.0000
 70
15
  0
3DFACE
  5
1044
  8
קירות
 10
8006.9737
 20
-4080.5000
 30
0.0000
 11
8006.9737
 21
-6133.0831
 31
0.0000
 12
8106.9737
 22
-6133.0831
 32
0.0000
 13
8106.9737
 23
-4080.5000
 33
0.0000
 70
15
  0
3DFACE
  5
1045
  8
קירות
 10
8006.9737
 20
-4080.5000
 30
2705.0000
 11
8006.9737
 21
-6133.0831
 31
2705.0000
 12
8106.9737
 22
-6133.0831
 32
2705.0000
 13
8106.9737
 23
-4080.5000
 33
2705.0000
 70
15
  0
3DFACE
  5
1046
  8
קירות
 10
8006.9737
 20
-4080.5000
 30
0.0000
 11
8006.9737
 21
-6133.0831
 31
0.0000
 12
8006.9737
 22
-6133.0831
 32
2705.0000
 13
8006.9737
 23
-4080.5000
 33
2705.0000
 70
15
  0
3DFACE
  5
1047
  8
קירות
 10
8106.9737
 20
-4080.5000
 30
0.0000
 11
8106.9737
 21
-6133.0831
 31
0.0000
 12
8106.9737
 22
-6133.0831
 32
2705.0000
 13
8106.9737
 23
-4080.5000
 33
2705.0000
 70
15
  0
3DFACE
  5
1048
  8
קירות
 10
8006.9737
 20
-4080.5000
 30
0.0000
 11
8106.9737
 21
-4080.5000
 31
0.0000
 12
8106.9737
 22
-4080.5000
 32
2705.0000
 13
8006.9737
 23
-4080.5000
 33
2705.0000
 70
15
  0
3DFACE
  5
1049
  8
קירות
 10
8006.9737
 20
-6133.0831
 30
0.0000
 11
8106.9737
 21
-6133.0831
 31
0.0000
 12
8106.9737
 22
-6133.0831
 32
2705.0000
 13
8006.9737
 23
-6133.0831
 33
2705.0000
 70
15
  0
3DFACE
  5
104A
  8
קירות
 10
7906.9737
 20
-6033.0831
 30
0.0000
 11
9924.9737
 21
-6033.0831
 31
0.0000
 12
9924.9737
 22
-6133.0831
 32
0.0000
 13
7906.9737
 23
-6133.0831
 33
0.0000
 70
15
  0
3DFACE
  5
104B
  8
קירות
 10
7906.9737
 20
-6033.0831
 30
2705.0000
 11
9924.9737
 21
-6033.0831
 31
2705.0000
 12
9924.9737
 22
-6133.0831
 32
2705.0000
 13
7906.9737
 23
-6133.0831
 33
2705.0000
 70
15
  0
3DFACE
  5
104C
  8
קירות
 10
7906.9737
 20
-6033.0831
 30
0.0000
 11
9924.9737
 21
-6033.0831
 31
0.0000
 12
9924.9737
 22
-6033.0831
 32
2705.0000
 13
7906.9737
 23
-6033.0831
 33
2705.0000
 70
15
  0
3DFACE
  5
104D
  8
קירות
 10
7906.9737
 20
-6133.0831
 30
0.0000
 11
9924.9737
 21
-6133.0831
 31
0.0000
 12
9924.9737
 22
-6133.0831
 32
2705.0000
 13
7906.9737
 23
-6133.0831
 33
2705.0000
 70
15
  0
3DFACE
  5
104E
  8
קירות
 10
7906.9737
 20
-6033.0831
 30
0.0000
 11
7906.9737
 21
-6133.0831
 31
0.0000
 12
7906.9737
 22
-6133.0831
 32
2705.0000
 13
7906.9737
 23
-6033.0831
 33
2705.0000
 70
15
  0
3DFACE
  5
104F
  8
קירות
 10
9924.9737
 20
-6033.0831
 30
0.0000
 11
9924.9737
 21
-6133.0831
 31
0.0000
 12
9924.9737
 22
-6133.0831
 32
2705.0000
 13
9924.9737
 23
-6033.0831
 33
2705.0000
 70
15
  0
3DFACE
  5
1050
  8
חלונות
 10
3630.3320
 20
-2881.2490
 30
617.5000
 11
3680.3317
 21
-2881.4235
 31
617.5000
 12
3680.6808
 22
-2781.4241
 32
617.5000
 13
3630.6811
 23
-2781.2496
 33
617.5000
 70
15
  0
3DFACE
  5
1051
  8
חלונות
 10
3630.3320
 20
-2881.2490
 30
1698.5000
 11
3680.3317
 21
-2881.4235
 31
1698.5000
 12
3680.6808
 22
-2781.4241
 32
1698.5000
 13
3630.6811
 23
-2781.2496
 33
1698.5000
 70
15
  0
3DFACE
  5
1052
  8
חלונות
 10
3630.3320
 20
-2881.2490
 30
617.5000
 11
3680.3317
 21
-2881.4235
 31
617.5000
 12
3680.3317
 22
-2881.4235
 32
1698.5000
 13
3630.3320
 23
-2881.2490
 33
1698.5000
 70
15
  0
3DFACE
  5
1053
  8
חלונות
 10
3680.3317
 20
-2881.4235
 30
617.5000
 11
3680.6808
 21
-2781.4241
 31
617.5000
 12
3680.6808
 22
-2781.4241
 32
1698.5000
 13
3680.3317
 23
-2881.4235
 33
1698.5000
 70
15
  0
3DFACE
  5
1054
  8
חלונות
 10
3680.6808
 20
-2781.4241
 30
617.5000
 11
3630.6811
 21
-2781.2496
 31
617.5000
 12
3630.6811
 22
-2781.2496
 32
1698.5000
 13
3680.6808
 23
-2781.4241
 33
1698.5000
 70
15
  0
3DFACE
  5
1055
  8
חלונות
 10
3630.6811
 20
-2781.2496
 30
617.5000
 11
3630.3320
 21
-2881.2490
 31
617.5000
 12
3630.3320
 22
-2881.2490
 32
1698.5000
 13
3630.6811
 23
-2781.2496
 33
1698.5000
 70
15
  0
3DFACE
  5
1056
  8
חלונות
 10
5729.3192
 20
-2888.5759
 30
617.5000
 11
5779.3189
 21
-2888.7504
 31
617.5000
 12
5779.6680
 22
-2788.7510
 32
617.5000
 13
5729.6683
 23
-2788.5765
 33
617.5000
 70
15
  0
3DFACE
  5
1057
  8
חלונות
 10
5729.3192
 20
-2888.5759
 30
1698.5000
 11
5779.3189
 21
-2888.7504
 31
1698.5000
 12
5779.6680
 22
-2788.7510
 32
1698.5000
 13
5729.6683
 23
-2788.5765
 33
1698.5000
 70
15
  0
3DFACE
  5
1058
  8
חלונות
 10
5729.3192
 20
-2888.5759
 30
617.5000
 11
5779.3189
 21
-2888.7504
 31
617.5000
 12
5779.3189
 22
-2888.7504
 32
1698.5000
 13
5729.3192
 23
-2888.5759
 33
1698.5000
 70
15
  0
3DFACE
  5
1059
  8
חלונות
 10
5779.3189
 20
-2888.7504
 30
617.5000
 11
5779.6680
 21
-2788.7510
 31
617.5000
 12
5779.6680
 22
-2788.7510
 32
1698.5000
 13
5779.3189
 23
-2888.7504
 33
1698.5000
 70
15
  0
3DFACE
  5
105A
  8
חלונות
 10
5779.6680
 20
-2788.7510
 30
617.5000
 11
5729.6683
 21
-2788.5765
 31
617.5000
 12
5729.6683
 22
-2788.5765
 32
1698.5000
 13
5779.6680
 23
-2788.7510
 33
1698.5000
 70
15
  0
3DFACE
  5
105B
  8
חלונות
 10
5729.6683
 20
-2788.5765
 30
617.5000
 11
5729.3192
 21
-2888.5759
 31
617.5000
 12
5729.3192
 22
-2888.5759
 32
1698.5000
 13
5729.6683
 23
-2788.5765
 33
1698.5000
 70
15
  0
3DFACE
  5
105C
  8
חלונות
 10
3630.3320
 20
-2881.2490
 30
1648.5000
 11
5779.3189
 21
-2888.7504
 31
1648.5000
 12
5779.6680
 22
-2788.7510
 32
1648.5000
 13
3630.6811
 23
-2781.2496
 33
1648.5000
 70
15
  0
3DFACE
  5
105D
  8
חלונות
 10
3630.3320
 20
-2881.2490
 30
1698.5000
 11
5779.3189
 21
-2888.7504
 31
1698.5000
 12
5779.6680
 22
-2788.7510
 32
1698.5000
 13
3630.6811
 23
-2781.2496
 33
1698.5000
 70
15
  0
3DFACE
  5
105E
  8
חלונות
 10
3630.3320
 20
-2881.2490
 30
1648.5000
 11
5779.3189
 21
-2888.7504
 31
1648.5000
 12
5779.3189
 22
-2888.7504
 32
1698.5000
 13
3630.3320
 23
-2881.2490
 33
1698.5000
 70
15
  0
3DFACE
  5
105F
  8
חלונות
 10
5779.3189
 20
-2888.7504
 30
1648.5000
 11
5779.6680
 21
-2788.7510
 31
1648.5000
 12
5779.6680
 22
-2788.7510
 32
1698.5000
 13
5779.3189
 23
-2888.7504
 33
1698.5000
 70
15
  0
3DFACE
  5
1060
  8
חלונות
 10
5779.6680
 20
-2788.7510
 30
1648.5000
 11
3630.6811
 21
-2781.2496
 31
1648.5000
 12
3630.6811
 22
-2781.2496
 32
1698.5000
 13
5779.6680
 23
-2788.7510
 33
1698.5000
 70
15
  0
3DFACE
  5
1061
  8
חלונות
 10
3630.6811
 20
-2781.2496
 30
1648.5000
 11
3630.3320
 21
-2881.2490
 31
1648.5000
 12
3630.3320
 22
-2881.2490
 32
1698.5000
 13
3630.6811
 23
-2781.2496
 33
1698.5000
 70
15
  0
3DFACE
  5
1062
  8
חלונות
 10
3630.3320
 20
-2881.2490
 30
617.5000
 11
5779.3189
 21
-2888.7504
 31
617.5000
 12
5779.6680
 22
-2788.7510
 32
617.5000
 13
3630.6811
 23
-2781.2496
 33
617.5000
 70
15
  0
3DFACE
  5
1063
  8
חלונות
 10
3630.3320
 20
-2881.2490
 30
667.5000
 11
5779.3189
 21
-2888.7504
 31
667.5000
 12
5779.6680
 22
-2788.7510
 32
667.5000
 13
3630.6811
 23
-2781.2496
 33
667.5000
 70
15
  0
3DFACE
  5
1064
  8
חלונות
 10
3630.3320
 20
-2881.2490
 30
617.5000
 11
5779.3189
 21
-2888.7504
 31
617.5000
 12
5779.3189
 22
-2888.7504
 32
667.5000
 13
3630.3320
 23
-2881.2490
 33
667.5000
 70
15
  0
3DFACE
  5
1065
  8
חלונות
 10
5779.3189
 20
-2888.7504
 30
617.5000
 11
5779.6680
 21
-2788.7510
 31
617.5000
 12
5779.6680
 22
-2788.7510
 32
667.5000
 13
5779.3189
 23
-2888.7504
 33
667.5000
 70
15
  0
3DFACE
  5
1066
  8
חלונות
 10
5779.6680
 20
-2788.7510
 30
617.5000
 11
3630.6811
 21
-2781.2496
 31
617.5000
 12
3630.6811
 22
-2781.2496
 32
667.5000
 13
5779.6680
 23
-2788.7510
 33
667.5000
 70
15
  0
3DFACE
  5
1067
  8
חלונות
 10
3630.6811
 20
-2781.2496
 30
617.5000
 11
3630.3320
 21
-2881.2490
 31
617.5000
 12
3630.3320
 22
-2881.2490
 32
667.5000
 13
3630.6811
 23
-2781.2496
 33
667.5000
 70
15
  0
3DFACE
  5
1068
  8
חלונות
 10
3680.4574
 20
-2845.4237
 30
667.5000
 11
5729.4449
 21
-2852.5761
 31
667.5000
 12
5729.5426
 22
-2824.5763
 32
667.5000
 13
3680.5551
 23
-2817.4239
 33
667.5000
 70
15
  0
3DFACE
  5
1069
  8
חלונות
 10
3680.4574
 20
-2845.4237
 30
1648.5000
 11
5729.4449
 21
-2852.5761
 31
1648.5000
 12
5729.5426
 22
-2824.5763
 32
1648.5000
 13
3680.5551
 23
-2817.4239
 33
1648.5000
 70
15
  0
3DFACE
  5
106A
  8
חלונות
 10
3680.4574
 20
-2845.4237
 30
667.5000
 11
5729.4449
 21
-2852.5761
 31
667.5000
 12
5729.4449
 22
-2852.5761
 32
1648.5000
 13
3680.4574
 23
-2845.4237
 33
1648.5000
 70
15
  0
3DFACE
  5
106B
  8
חלונות
 10
5729.4449
 20
-2852.5761
 30
667.5000
 11
5729.5426
 21
-2824.5763
 31
667.5000
 12
5729.5426
 22
-2824.5763
 32
1648.5000
 13
5729.4449
 23
-2852.5761
 33
1648.5000
 70
15
  0
3DFACE
  5
106C
  8
חלונות
 10
5729.5426
 20
-2824.5763
 30
667.5000
 11
3680.5551
 21
-2817.4239
 31
667.5000
 12
3680.5551
 22
-2817.4239
 32
1648.5000
 13
5729.5426
 23
-2824.5763
 33
1648.5000
 70
15
  0
3DFACE
  5
106D
  8
חלונות
 10
3680.5551
 20
-2817.4239
 30
667.5000
 11
3680.4574
 21
-2845.4237
 31
667.5000
 12
3680.4574
 22
-2845.4237
 32
1648.5000
 13
3680.5551
 23
-2817.4239
 33
1648.5000
 70
15
  0
3DFACE
  5
106E
  8
חלונות
 10
7957.0000
 20
-2923.5000
 30
610.5000
 11
7957.0000
 21
-2973.5000
 31
610.5000
 12
8057.0000
 22
-2973.5000
 32
610.5000
 13
8057.0000
 23
-2923.5000
 33
610.5000
 70
15
  0
3DFACE
  5
106F
  8
חלונות
 10
7957.0000
 20
-2923.5000
 30
1693.5000
 11
7957.0000
 21
-2973.5000
 31
1693.5000
 12
8057.0000
 22
-2973.5000
 32
1693.5000
 13
8057.0000
 23
-2923.5000
 33
1693.5000
 70
15
  0
3DFACE
  5
1070
  8
חלונות
 10
7957.0000
 20
-2923.5000
 30
610.5000
 11
7957.0000
 21
-2973.5000
 31
610.5000
 12
7957.0000
 22
-2973.5000
 32
1693.5000
 13
7957.0000
 23
-2923.5000
 33
1693.5000
 70
15
  0
3DFACE
  5
1071
  8
חלונות
 10
7957.0000
 20
-2973.5000
 30
610.5000
 11
8057.0000
 21
-2973.5000
 31
610.5000
 12
8057.0000
 22
-2973.5000
 32
1693.5000
 13
7957.0000
 23
-2973.5000
 33
1693.5000
 70
15
  0
3DFACE
  5
1072
  8
חלונות
 10
8057.0000
 20
-2973.5000
 30
610.5000
 11
8057.0000
 21
-2923.5000
 31
610.5000
 12
8057.0000
 22
-2923.5000
 32
1693.5000
 13
8057.0000
 23
-2973.5000
 33
1693.5000
 70
15
  0
3DFACE
  5
1073
  8
חלונות
 10
8057.0000
 20
-2923.5000
 30
610.5000
 11
7957.0000
 21
-2923.5000
 31
610.5000
 12
7957.0000
 22
-2923.5000
 32
1693.5000
 13
8057.0000
 23
-2923.5000
 33
1693.5000
 70
15
  0
3DFACE
  5
1074
  8
חלונות
 10
7957.0000
 20
-4030.5000
 30
610.5000
 11
7957.0000
 21
-4080.5000
 31
610.5000
 12
8057.0000
 22
-4080.5000
 32
610.5000
 13
8057.0000
 23
-4030.5000
 33
610.5000
 70
15
  0
3DFACE
  5
1075
  8
חלונות
 10
7957.0000
 20
-4030.5000
 30
1693.5000
 11
7957.0000
 21
-4080.5000
 31
1693.5000
 12
8057.0000
 22
-4080.5000
 32
1693.5000
 13
8057.0000
 23
-4030.5000
 33
1693.5000
 70
15
  0
3DFACE
  5
1076
  8
חלונות
 10
7957.0000
 20
-4030.5000
 30
610.5000
 11
7957.0000
 21
-4080.5000
 31
610.5000
 12
7957.0000
 22
-4080.5000
 32
1693.5000
 13
7957.0000
 23
-4030.5000
 33
1693.5000
 70
15
  0
3DFACE
  5
1077
  8
חלונות
 10
7957.0000
 20
-4080.5000
 30
610.5000
 11
8057.0000
 21
-4080.5000
 31
610.5000
 12
8057.0000
 22
-4080.5000
 32
1693.5000
 13
7957.0000
 23
-4080.5000
 33
1693.5000
 70
15
  0
3DFACE
  5
1078
  8
חלונות
 10
8057.0000
 20
-4080.5000
 30
610.5000
 11
8057.0000
 21
-4030.5000
 31
610.5000
 12
8057.0000
 22
-4030.5000
 32
1693.5000
 13
8057.0000
 23
-4080.5000
 33
1693.5000
 70
15
  0
3DFACE
  5
1079
  8
חלונות
 10
8057.0000
 20
-4030.5000
 30
610.5000
 11
7957.0000
 21
-4030.5000
 31
610.5000
 12
7957.0000
 22
-4030.5000
 32
1693.5000
 13
8057.0000
 23
-4030.5000
 33
1693.5000
 70
15
  0
3DFACE
  5
107A
  8
חלונות
 10
7957.0000
 20
-2923.5000
 30
1643.5000
 11
7957.0000
 21
-4080.5000
 31
1643.5000
 12
8057.0000
 22
-4080.5000
 32
1643.5000
 13
8057.0000
 23
-2923.5000
 33
1643.5000
 70
15
  0
3DFACE
  5
107B
  8
חלונות
 10
7957.0000
 20
-2923.5000
 30
1693.5000
 11
7957.0000
 21
-4080.5000
 31
1693.5000
 12
8057.0000
 22
-4080.5000
 32
1693.5000
 13
8057.0000
 23
-2923.5000
 33
1693.5000
 70
15
  0
3DFACE
  5
107C
  8
חלונות
 10
7957.0000
 20
-2923.5000
 30
1643.5000
 11
7957.0000
 21
-4080.5000
 31
1643.5000
 12
7957.0000
 22
-4080.5000
 32
1693.5000
 13
7957.0000
 23
-2923.5000
 33
1693.5000
 70
15
  0
3DFACE
  5
107D
  8
חלונות
 10
7957.0000
 20
-4080.5000
 30
1643.5000
 11
8057.0000
 21
-4080.5000
 31
1643.5000
 12
8057.0000
 22
-4080.5000
 32
1693.5000
 13
7957.0000
 23
-4080.5000
 33
1693.5000
 70
15
  0
3DFACE
  5
107E
  8
חלונות
 10
8057.0000
 20
-4080.5000
 30
1643.5000
 11
8057.0000
 21
-2923.5000
 31
1643.5000
 12
8057.0000
 22
-2923.5000
 32
1693.5000
 13
8057.0000
 23
-4080.5000
 33
1693.5000
 70
15
  0
3DFACE
  5
107F
  8
חלונות
 10
8057.0000
 20
-2923.5000
 30
1643.5000
 11
7957.0000
 21
-2923.5000
 31
1643.5000
 12
7957.0000
 22
-2923.5000
 32
1693.5000
 13
8057.0000
 23
-2923.5000
 33
1693.5000
 70
15
  0
3DFACE
  5
1080
  8
חלונות
 10
7957.0000
 20
-2923.5000
 30
610.5000
 11
7957.0000
 21
-4080.5000
 31
610.5000
 12
8057.0000
 22
-4080.5000
 32
610.5000
 13
8057.0000
 23
-2923.5000
 33
610.5000
 70
15
  0
3DFACE
  5
1081
  8
חלונות
 10
7957.0000
 20
-2923.5000
 30
660.5000
 11
7957.0000
 21
-4080.5000
 31
660.5000
 12
8057.0000
 22
-4080.5000
 32
660.5000
 13
8057.0000
 23
-2923.5000
 33
660.5000
 70
15
  0
3DFACE
  5
1082
  8
חלונות
 10
7957.0000
 20
-2923.5000
 30
610.5000
 11
7957.0000
 21
-4080.5000
 31
610.5000
 12
7957.0000
 22
-4080.5000
 32
660.5000
 13
7957.0000
 23
-2923.5000
 33
660.5000
 70
15
  0
3DFACE
  5
1083
  8
חלונות
 10
7957.0000
 20
-4080.5000
 30
610.5000
 11
8057.0000
 21
-4080.5000
 31
610.5000
 12
8057.0000
 22
-4080.5000
 32
660.5000
 13
7957.0000
 23
-4080.5000
 33
660.5000
 70
15
  0
3DFACE
  5
1084
  8
חלונות
 10
8057.0000
 20
-4080.5000
 30
610.5000
 11
8057.0000
 21
-2923.5000
 31
610.5000
 12
8057.0000
 22
-2923.5000
 32
660.5000
 13
8057.0000
 23
-4080.5000
 33
660.5000
 70
15
  0
3DFACE
  5
1085
  8
חלונות
 10
8057.0000
 20
-2923.5000
 30
610.5000
 11
7957.0000
 21
-2923.5000
 31
610.5000
 12
7957.0000
 22
-2923.5000
 32
660.5000
 13
8057.0000
 23
-2923.5000
 33
660.5000
 70
15
  0
3DFACE
  5
1086
  8
חלונות
 10
7993.0000
 20
-2973.5000
 30
660.5000
 11
7993.0000
 21
-4030.5000
 31
660.5000
 12
8021.0000
 22
-4030.5000
 32
660.5000
 13
8021.0000
 23
-2973.5000
 33
660.5000
 70
15
  0
3DFACE
  5
1087
  8
חלונות
 10
7993.0000
 20
-2973.5000
 30
1643.5000
 11
7993.0000
 21
-4030.5000
 31
1643.5000
 12
8021.0000
 22
-4030.5000
 32
1643.5000
 13
8021.0000
 23
-2973.5000
 33
1643.5000
 70
15
  0
3DFACE
  5
1088
  8
חלונות
 10
7993.0000
 20
-2973.5000
 30
660.5000
 11
7993.0000
 21
-4030.5000
 31
660.5000
 12
7993.0000
 22
-4030.5000
 32
1643.5000
 13
7993.0000
 23
-2973.5000
 33
1643.5000
 70
15
  0
3DFACE
  5
1089
  8
חלונות
 10
7993.0000
 20
-4030.5000
 30
660.5000
 11
8021.0000
 21
-4030.5000
 31
660.5000
 12
8021.0000
 22
-4030.5000
 32
1643.5000
 13
7993.0000
 23
-4030.5000
 33
1643.5000
 70
15
  0
3DFACE
  5
108A
  8
חלונות
 10
8021.0000
 20
-4030.5000
 30
660.5000
 11
8021.0000
 21
-2973.5000
 31
660.5000
 12
8021.0000
 22
-2973.5000
 32
1643.5000
 13
8021.0000
 23
-4030.5000
 33
1643.5000
 70
15
  0
3DFACE
  5
108B
  8
חלונות
 10
8021.0000
 20
-2973.5000
 30
660.5000
 11
7993.0000
 21
-2973.5000
 31
660.5000
 12
7993.0000
 22
-2973.5000
 32
1643.5000
 13
8021.0000
 23
-2973.5000
 33
1643.5000
 70
15
  0
INSERT
  5
108C
  8
חשמל
  2
SOCKET
 10
4470.0000
 20
-5795.0000
 30
1125.0000
 41
1.0000
 42
1.0000
 43
1.0000
 50
90.0000
  0
3DFACE
  5
108D
  8
חשמל
 10
4535.0000
 20
-5835.0000
 30
1125.0000
 11
4535.0000
 21
-5755.0000
 31
1125.0000
 12
4520.0000
 22
-5755.0000
 32
1125.0000
 13
4520.0000
 23
-5835.0000
 33
1125.0000
 70
15
  0
3DFACE
  5
108E
  8
חשמל
 10
4535.0000
 20
-5835.0000
 30
1205.0000
 11
4535.0000
 21
-5755.0000
 31
1205.0000
 12
4520.0000
 22
-5755.0000
 32
1205.0000
 13
4520.0000
 23
-5835.0000
 33
1205.0000
 70
15
  0
3DFACE
  5
108F
  8
חשמל
 10
4535.0000
 20
-5835.0000
 30
1125.0000
 11
4535.0000
 21
-5755.0000
 31
1125.0000
 12
4535.0000
 22
-5755.0000
 32
1205.0000
 13
4535.0000
 23
-5835.0000
 33
1205.0000
 70
15
  0
3DFACE
  5
1090
  8
חשמל
 10
4535.0000
 20
-5755.0000
 30
1125.0000
 11
4520.0000
 21
-5755.0000
 31
1125.0000
 12
4520.0000
 22
-5755.0000
 32
1205.0000
 13
4535.0000
 23
-5755.0000
 33
1205.0000
 70
15
  0
3DFACE
  5
1091
  8
חשמל
 10
4520.0000
 20
-5755.0000
 30
1125.0000
 11
4520.0000
 21
-5835.0000
 31
1125.0000
 12
4520.0000
 22
-5835.0000
 32
1205.0000
 13
4520.0000
 23
-5755.0000
 33
1205.0000
 70
15
  0
3DFACE
  5
1092
  8
חשמל
 10
4520.0000
 20
-5835.0000
 30
1125.0000
 11
4535.0000
 21
-5835.0000
 31
1125.0000
 12
4535.0000
 22
-5835.0000
 32
1205.0000
 13
4520.0000
 23
-5835.0000
 33
1205.0000
 70
15
  0
INSERT
  5
1093
  8
חשמל
  2
SOCKET
 10
3686.0000
 20
-4610.0000
 30
1717.0000
 41
1.0000
 42
1.0000
 43
1.0000
 50
90.0000
  0
3DFACE
  5
1094
  8
חשמל
 10
3751.0000
 20
-4650.0000
 30
1717.0000
 11
3751.0000
 21
-4570.0000
 31
1717.0000
 12
3736.0000
 22
-4570.0000
 32
1717.0000
 13
3736.0000
 23
-4650.0000
 33
1717.0000
 70
15
  0
3DFACE
  5
1095
  8
חשמל
 10
3751.0000
 20
-4650.0000
 30
1797.0000
 11
3751.0000
 21
-4570.0000
 31
1797.0000
 12
3736.0000
 22
-4570.0000
 32
1797.0000
 13
3736.0000
 23
-4650.0000
 33
1797.0000
 70
15
  0
3DFACE
  5
1096
  8
חשמל
 10
3751.0000
 20
-4650.0000
 30
1717.0000
 11
3751.0000
 21
-4570.0000
 31
1717.0000
 12
3751.0000
 22
-4570.0000
 32
1797.0000
 13
3751.0000
 23
-4650.0000
 33
1797.0000
 70
15
  0
3DFACE
  5
1097
  8
חשמל
 10
3751.0000
 20
-4570.0000
 30
1717.0000
 11
3736.0000
 21
-4570.0000
 31
1717.0000
 12
3736.0000
 22
-4570.0000
 32
1797.0000
 13
3751.0000
 23
-4570.0000
 33
1797.0000
 70
15
  0
3DFACE
  5
1098
  8
חשמל
 10
3736.0000
 20
-4570.0000
 30
1717.0000
 11
3736.0000
 21
-4650.0000
 31
1717.0000
 12
3736.0000
 22
-4650.0000
 32
1797.0000
 13
3736.0000
 23
-4570.0000
 33
1797.0000
 70
15
  0
3DFACE
  5
1099
  8
חשמל
 10
3736.0000
 20
-4650.0000
 30
1717.0000
 11
3751.0000
 21
-4650.0000
 31
1717.0000
 12
3751.0000
 22
-4650.0000
 32
1797.0000
 13
3736.0000
 23
-4650.0000
 33
1797.0000
 70
15
  0
INSERT
  5
109A
  8
חשמל
  2
SOCKET
 10
3686.0000
 20
-3905.0000
 30
1568.0000
 41
1.0000
 42
1.0000
 43
1.0000
 50
90.0000
  0
3DFACE
  5
109B
  8
חשמל
 10
3751.0000
 20
-3945.0000
 30
1568.0000
 11
3751.0000
 21
-3865.0000
 31
1568.0000
 12
3736.0000
 22
-3865.0000
 32
1568.0000
 13
3736.0000
 23
-3945.0000
 33
1568.0000
 70
15
  0
3DFACE
  5
109C
  8
חשמל
 10
3751.0000
 20
-3945.0000
 30
1648.0000
 11
3751.0000
 21
-3865.0000
 31
1648.0000
 12
3736.0000
 22
-3865.0000
 32
1648.0000
 13
3736.0000
 23
-3945.0000
 33
1648.0000
 70
15
  0
3DFACE
  5
109D
  8
חשמל
 10
3751.0000
 20
-3945.0000
 30
1568.0000
 11
3751.0000
 21
-3865.0000
 31
1568.0000
 12
3751.0000
 22
-3865.0000
 32
1648.0000
 13
3751.0000
 23
-3945.0000
 33
1648.0000
 70
15
  0
3DFACE
  5
109E
  8
חשמל
 10
3751.0000
 20
-3865.0000
 30
1568.0000
 11
3736.0000
 21
-3865.0000
 31
1568.0000
 12
3736.0000
 22
-3865.0000
 32
1648.0000
 13
3751.0000
 23
-3865.0000
 33
1648.0000
 70
15
  0
3DFACE
  5
109F
  8
חשמל
 10
3736.0000
 20
-3865.0000
 30
1568.0000
 11
3736.0000
 21
-3945.0000
 31
1568.0000
 12
3736.0000
 22
-3945.0000
 32
1648.0000
 13
3736.0000
 23
-3865.0000
 33
1648.0000
 70
15
  0
3DFACE
  5
10A0
  8
חשמל
 10
3736.0000
 20
-3945.0000
 30
1568.0000
 11
3751.0000
 21
-3945.0000
 31
1568.0000
 12
3751.0000
 22
-3945.0000
 32
1648.0000
 13
3736.0000
 23
-3945.0000
 33
1648.0000
 70
15
  0
INSERT
  5
10A1
  8
חשמל
  2
SOCKET
 10
3686.0000
 20
-3766.0000
 30
1565.0000
 41
1.0000
 42
1.0000
 43
1.0000
 50
90.0000
  0
3DFACE
  5
10A2
  8
חשמל
 10
3751.0000
 20
-3806.0000
 30
1565.0000
 11
3751.0000
 21
-3726.0000
 31
1565.0000
 12
3736.0000
 22
-3726.0000
 32
1565.0000
 13
3736.0000
 23
-3806.0000
 33
1565.0000
 70
15
  0
3DFACE
  5
10A3
  8
חשמל
 10
3751.0000
 20
-3806.0000
 30
1645.0000
 11
3751.0000
 21
-3726.0000
 31
1645.0000
 12
3736.0000
 22
-3726.0000
 32
1645.0000
 13
3736.0000
 23
-3806.0000
 33
1645.0000
 70
15
  0
3DFACE
  5
10A4
  8
חשמל
 10
3751.0000
 20
-3806.0000
 30
1565.0000
 11
3751.0000
 21
-3726.0000
 31
1565.0000
 12
3751.0000
 22
-3726.0000
 32
1645.0000
 13
3751.0000
 23
-3806.0000
 33
1645.0000
 70
15
  0
3DFACE
  5
10A5
  8
חשמל
 10
3751.0000
 20
-3726.0000
 30
1565.0000
 11
3736.0000
 21
-3726.0000
 31
1565.0000
 12
3736.0000
 22
-3726.0000
 32
1645.0000
 13
3751.0000
 23
-3726.0000
 33
1645.0000
 70
15
  0
3DFACE
  5
10A6
  8
חשמל
 10
3736.0000
 20
-3726.0000
 30
1565.0000
 11
3736.0000
 21
-3806.0000
 31
1565.0000
 12
3736.0000
 22
-3806.0000
 32
1645.0000
 13
3736.0000
 23
-3726.0000
 33
1645.0000
 70
15
  0
3DFACE
  5
10A7
  8
חשמל
 10
3736.0000
 20
-3806.0000
 30
1565.0000
 11
3751.0000
 21
-3806.0000
 31
1565.0000
 12
3751.0000
 22
-3806.0000
 32
1645.0000
 13
3736.0000
 23
-3806.0000
 33
1645.0000
 70
15
  0
INSERT
  5
10A8
  8
חשמל
  2
SOCKET
 10
3686.0000
 20
-3105.0000
 30
1126.0000
 41
1.0000
 42
1.0000
 43
1.0000
 50
90.0000
  0
3DFACE
  5
10A9
  8
חשמל
 10
3806.0000
 20
-3192.5000
 30
1126.0000
 11
3806.0000
 21
-3017.5000
 31
1126.0000
 12
3736.0000
 22
-3017.5000
 32
1126.0000
 13
3736.0000
 23
-3192.5000
 33
1126.0000
 70
15
  0
3DFACE
  5
10AA
  8
חשמל
 10
3806.0000
 20
-3192.5000
 30
1196.0000
 11
3806.0000
 21
-3017.5000
 31
1196.0000
 12
3736.0000
 22
-3017.5000
 32
1196.0000
 13
3736.0000
 23
-3192.5000
 33
1196.0000
 70
15
  0
3DFACE
  5
10AB
  8
חשמל
 10
3806.0000
 20
-3192.5000
 30
1126.0000
 11
3806.0000
 21
-3017.5000
 31
1126.0000
 12
3806.0000
 22
-3017.5000
 32
1196.0000
 13
3806.0000
 23
-3192.5000
 33
1196.0000
 70
15
  0
3DFACE
  5
10AC
  8
חשמל
 10
3806.0000
 20
-3017.5000
 30
1126.0000
 11
3736.0000
 21
-3017.5000
 31
1126.0000
 12
3736.0000
 22
-3017.5000
 32
1196.0000
 13
3806.0000
 23
-3017.5000
 33
1196.0000
 70
15
  0
3DFACE
  5
10AD
  8
חשמל
 10
3736.0000
 20
-3017.5000
 30
1126.0000
 11
3736.0000
 21
-3192.5000
 31
1126.0000
 12
3736.0000
 22
-3192.5000
 32
1196.0000
 13
3736.0000
 23
-3017.5000
 33
1196.0000
 70
15
  0
3DFACE
  5
10AE
  8
חשמל
 10
3736.0000
 20
-3192.5000
 30
1126.0000
 11
3806.0000
 21
-3192.5000
 31
1126.0000
 12
3806.0000
 22
-3192.5000
 32
1196.0000
 13
3736.0000
 23
-3192.5000
 33
1196.0000
 70
15
  0
INSERT
  5
10AF
  8
מים
  2
FAUCET
 10
3686.0000
 20
-3279.0000
 30
1155.0000
 41
1.0000
 42
1.0000
 43
1.0000
 50
90.0000
  0
3DFACE
  5
10B0
  8
מים
 10
3756.0000
 20
-3289.0000
 30
1155.0000
 11
3756.0000
 21
-3269.0000
 31
1155.0000
 12
3736.0000
 22
-3269.0000
 32
1155.0000
 13
3736.0000
 23
-3289.0000
 33
1155.0000
 70
15
  0
3DFACE
  5
10B1
  8
מים
 10
3756.0000
 20
-3289.0000
 30
1175.0000
 11
3756.0000
 21
-3269.0000
 31
1175.0000
 12
3736.0000
 22
-3269.0000
 32
1175.0000
 13
3736.0000
 23
-3289.0000
 33
1175.0000
 70
15
  0
3DFACE
  5
10B2
  8
מים
 10
3756.0000
 20
-3289.0000
 30
1155.0000
 11
3756.0000
 21
-3269.0000
 31
1155.0000
 12
3756.0000
 22
-3269.0000
 32
1175.0000
 13
3756.0000
 23
-3289.0000
 33
1175.0000
 70
15
  0
3DFACE
  5
10B3
  8
מים
 10
3756.0000
 20
-3269.0000
 30
1155.0000
 11
3736.0000
 21
-3269.0000
 31
1155.0000
 12
3736.0000
 22
-3269.0000
 32
1175.0000
 13
3756.0000
 23
-3269.0000
 33
1175.0000
 70
15
  0
3DFACE
  5
10B4
  8
מים
 10
3736.0000
 20
-3269.0000
 30
1155.0000
 11
3736.0000
 21
-3289.0000
 31
1155.0000
 12
3736.0000
 22
-3289.0000
 32
1175.0000
 13
3736.0000
 23
-3269.0000
 33
1175.0000
 70
15
  0
3DFACE
  5
10B5
  8
מים
 10
3736.0000
 20
-3289.0000
 30
1155.0000
 11
3756.0000
 21
-3289.0000
 31
1155.0000
 12
3756.0000
 22
-3289.0000
 32
1175.0000
 13
3736.0000
 23
-3289.0000
 33
1175.0000
 70
15
  0
INSERT
  5
10B6
  8
חשמל
  2
SOCKET
 10
4477.0000
 20
-2834.0000
 30
1100.0000
 41
1.0000
 42
1.0000
 43
1.0000
 50
359.8000
  0
3DFACE
  5
10B7
  8
חשמל
 10
4436.7734
 20
-2898.8600
 30
1100.0000
 11
4516.7729
 21
-2899.1392
 31
1100.0000
 12
4516.8252
 22
-2884.1393
 32
1100.0000
 13
4436.8257
 23
-2883.8601
 33
1100.0000
 70
15
  0
3DFACE
  5
10B8
  8
חשמל
 10
4436.7734
 20
-2898.8600
 30
1180.0000
 11
4516.7729
 21
-2899.1392
 31
1180.0000
 12
4516.8252
 22
-2884.1393
 32
1180.0000
 13
4436.8257
 23
-2883.8601
 33
1180.0000
 70
15
  0
3DFACE
  5
10B9
  8
חשמל
 10
4436.7734
 20
-2898.8600
 30
1100.0000
 11
4516.7729
 21
-2899.1392
 31
1100.0000
 12
4516.7729
 22
-2899.1392
 32
1180.0000
 13
4436.7734
 23
-2898.8600
 33
1180.0000
 70
15
  0
3DFACE
  5
10BA
  8
חשמל
 10
4516.7729
 20
-2899.1392
 30
1100.0000
 11
4516.8252
 21
-2884.1393
 31
1100.0000
 12
4516.8252
 22
-2884.1393
 32
1180.0000
 13
4516.7729
 23
-2899.1392
 33
1180.0000
 70
15
  0
3DFACE
  5
10BB
  8
חשמל
 10
4516.8252
 20
-2884.1393
 30
1100.0000
 11
4436.8257
 21
-2883.8601
 31
1100.0000
 12
4436.8257
 22
-2883.8601
 32
1180.0000
 13
4516.8252
 23
-2884.1393
 33
1180.0000
 70
15
  0
3DFACE
  5
10BC
  8
חשמל
 10
4436.8257
 20
-2883.8601
 30
1100.0000
 11
4436.7734
 21
-2898.8600
 31
1100.0000
 12
4436.7734
 22
-2898.8600
 32
1180.0000
 13
4436.8257
 23
-2883.8601
 33
1180.0000
 70
15
  0
INSERT
  5
10BD
  8
חשמל
  2
SOCKET
 10
4840.0000
 20
-2835.0000
 30
993.0000
 41
1.0000
 42
1.0000
 43
1.0000
 50
359.8000
  0
3DFACE
  5
10BE
  8
חשמל
 10
4799.7734
 20
-2899.8600
 30
993.0000
 11
4879.7729
 21
-2900.1392
 31
993.0000
 12
4879.8252
 22
-2885.1393
 32
993.0000
 13
4799.8257
 23
-2884.8601
 33
993.0000
 70
15
  0
3DFACE
  5
10BF
  8
חשמל
 10
4799.7734
 20
-2899.8600
 30
1073.0000
 11
4879.7729
 21
-2900.1392
 31
1073.0000
 12
4879.8252
 22
-2885.1393
 32
1073.0000
 13
4799.8257
 23
-2884.8601
 33
1073.0000
 70
15
  0
3DFACE
  5
10C0
  8
חשמל
 10
4799.7734
 20
-2899.8600
 30
993.0000
 11
4879.7729
 21
-2900.1392
 31
993.0000
 12
4879.7729
 22
-2900.1392
 32
1073.0000
 13
4799.7734
 23
-2899.8600
 33
1073.0000
 70
15
  0
3DFACE
  5
10C1
  8
חשמל
 10
4879.7729
 20
-2900.1392
 30
993.0000
 11
4879.8252
 21
-2885.1393
 31
993.0000
 12
4879.8252
 22
-2885.1393
 32
1073.0000
 13
4879.7729
 23
-2900.1392
 33
1073.0000
 70
15
  0
3DFACE
  5
10C2
  8
חשמל
 10
4879.8252
 20
-2885.1393
 30
993.0000
 11
4799.8257
 21
-2884.8601
 31
993.0000
 12
4799.8257
 22
-2884.8601
 32
1073.0000
 13
4879.8252
 23
-2885.1393
 33
1073.0000
 70
15
  0
3DFACE
  5
10C3
  8
חשמל
 10
4799.8257
 20
-2884.8601
 30
993.0000
 11
4799.7734
 21
-2899.8600
 31
993.0000
 12
4799.7734
 22
-2899.8600
 32
1073.0000
 13
4799.8257
 23
-2884.8601
 33
1073.0000
 70
15
  0
INSERT
  5
10C4
  8
חשמל
  2
DUPLEXSWITCH
 10
4991.0000
 20
-2836.0000
 30
994.0000
 41
1.0000
 42
1.0000
 43
1.0000
 50
359.8000
  0
3DFACE
  5
10C5
  8
חשמל
 10
4910.7736
 20
-2900.7204
 30
994.0000
 11
5070.7726
 21
-2901.2789
 31
994.0000
 12
5070.8250
 22
-2886.2789
 32
994.0000
 13
4910.8260
 23
-2885.7204
 33
994.0000
 70
15
  0
3DFACE
  5
10C6
  8
חשמל
 10
4910.7736
 20
-2900.7204
 30
1074.0000
 11
5070.7726
 21
-2901.2789
 31
1074.0000
 12
5070.8250
 22
-2886.2789
 32
1074.0000
 13
4910.8260
 23
-2885.7204
 33
1074.0000
 70
15
  0
3DFACE
  5
10C7
  8
חשמל
 10
4910.7736
 20
-2900.7204
 30
994.0000
 11
5070.7726
 21
-2901.2789
 31
994.0000
 12
5070.7726
 22
-2901.2789
 32
1074.0000
 13
4910.7736
 23
-2900.7204
 33
1074.0000
 70
15
  0
3DFACE
  5
10C8
  8
חשמל
 10
5070.7726
 20
-2901.2789
 30
994.0000
 11
5070.8250
 21
-2886.2789
 31
994.0000
 12
5070.8250
 22
-2886.2789
 32
1074.0000
 13
5070.7726
 23
-2901.2789
 33
1074.0000
 70
15
  0
3DFACE
  5
10C9
  8
חשמל
 10
5070.8250
 20
-2886.2789
 30
994.0000
 11
4910.8260
 21
-2885.7204
 31
994.0000
 12
4910.8260
 22
-2885.7204
 32
1074.0000
 13
5070.8250
 23
-2886.2789
 33
1074.0000
 70
15
  0
3DFACE
  5
10CA
  8
חשמל
 10
4910.8260
 20
-2885.7204
 30
994.0000
 11
4910.7736
 21
-2900.7204
 31
994.0000
 12
4910.7736
 22
-2900.7204
 32
1074.0000
 13
4910.8260
 23
-2885.7204
 33
1074.0000
 70
15
  0
INSERT
  5
10CB
  8
חשמל
  2
CONTROLBOX
 10
4625.0000
 20
-2834.0000
 30
2301.0000
 41
1.0000
 42
1.0000
 43
1.0000
 50
359.8000
  0
3DFACE
  5
10CC
  8
חלונות
 10
3466.7976
 20
-2889.9575
 30
2301.0000
 11
5782.7835
 21
-2898.0418
 31
2301.0000
 12
5782.8184
 22
-2888.0419
 32
2301.0000
 13
3466.8325
 23
-2879.9575
 33
2301.0000
 70
15
  0
3DFACE
  5
10CD
  8
חלונות
 10
3466.7976
 20
-2889.9575
 30
2546.0000
 11
5782.7835
 21
-2898.0418
 31
2546.0000
 12
5782.8184
 22
-2888.0419
 32
2546.0000
 13
3466.8325
 23
-2879.9575
 33
2546.0000
 70
15
  0
3DFACE
  5
10CE
  8
חלונות
 10
3466.7976
 20
-2889.9575
 30
2301.0000
 11
5782.7835
 21
-2898.0418
 31
2301.0000
 12
5782.7835
 22
-2898.0418
 32
2546.0000
 13
3466.7976
 23
-2889.9575
 33
2546.0000
 70
15
  0
3DFACE
  5
10CF
  8
חלונות
 10
5782.7835
 20
-2898.0418
 30
2301.0000
 11
5782.8184
 21
-2888.0419
 31
2301.0000
 12
5782.8184
 22
-2888.0419
 32
2546.0000
 13
5782.7835
 23
-2898.0418
 33
2546.0000
 70
15
  0
3DFACE
  5
10D0
  8
חלונות
 10
5782.8184
 20
-2888.0419
 30
2301.0000
 11
3466.8325
 21
-2879.9575
 31
2301.0000
 12
3466.8325
 22
-2879.9575
 32
2546.0000
 13
5782.8184
 23
-2888.0419
 33
2546.0000
 70
15
  0
3DFACE
  5
10D1
  8
חלונות
 10
3466.8325
 20
-2879.9575
 30
2301.0000
 11
3466.7976
 21
-2889.9575
 31
2301.0000
 12
3466.7976
 22
-2889.9575
 32
2546.0000
 13
3466.8325
 23
-2879.9575
 33
2546.0000
 70
15
  0
INSERT
  5
10D2
  8
חשמל
  2
SOCKET
 10
5443.0000
 20
-2837.0000
 30
445.0000
 41
1.0000
 42
1.0000
 43
1.0000
 50
359.8000
  0
3DFACE
  5
10D3
  8
חשמל
 10
5402.7734
 20
-2901.8600
 30
445.0000
 11
5482.7729
 21
-2902.1392
 31
445.0000
 12
5482.8252
 22
-2887.1393
 32
445.0000
 13
5402.8257
 23
-2886.8601
 33
445.0000
 70
15
  0
3DFACE
  5
10D4
  8
חשמל
 10
5402.7734
 20
-2901.8600
 30
525.0000
 11
5482.7729
 21
-2902.1392
 31
525.0000
 12
5482.8252
 22
-2887.1393
 32
525.0000
 13
5402.8257
 23
-2886.8601
 33
525.0000
 70
15
  0
3DFACE
  5
10D5
  8
חשמל
 10
5402.7734
 20
-2901.8600
 30
445.0000
 11
5482.7729
 21
-2902.1392
 31
445.0000
 12
5482.7729
 22
-2902.1392
 32
525.0000
 13
5402.7734
 23
-2901.8600
 33
525.0000
 70
15
  0
3DFACE
  5
10D6
  8
חשמל
 10
5482.7729
 20
-2902.1392
 30
445.0000
 11
5482.8252
 21
-2887.1393
 31
445.0000
 12
5482.8252
 22
-2887.1393
 32
525.0000
 13
5482.7729
 23
-2902.1392
 33
525.0000
 70
15
  0
3DFACE
  5
10D7
  8
חשמל
 10
5482.8252
 20
-2887.1393
 30
445.0000
 11
5402.8257
 21
-2886.8601
 31
445.0000
 12
5402.8257
 22
-2886.8601
 32
525.0000
 13
5482.8252
 23
-2887.1393
 33
525.0000
 70
15
  0
3DFACE
  5
10D8
  8
חשמל
 10
5402.8257
 20
-2886.8601
 30
445.0000
 11
5402.7734
 21
-2901.8600
 31
445.0000
 12
5402.7734
 22
-2901.8600
 32
525.0000
 13
5402.8257
 23
-2886.8601
 33
525.0000
 70
15
  0
INSERT
  5
10D9
  8
מים
  2
FAUCET
 10
5619.0000
 20
-2838.0000
 30
536.0000
 41
1.0000
 42
1.0000
 43
1.0000
 50
359.8000
  0
3DFACE
  5
10DA
  8
מים
 10
5608.7557
 20
-2907.9647
 30
536.0000
 11
5628.7556
 21
-2908.0345
 31
536.0000
 12
5628.8254
 22
-2888.0346
 32
536.0000
 13
5608.8255
 23
-2887.9648
 33
536.0000
 70
15
  0
3DFACE
  5
10DB
  8
מים
 10
5608.7557
 20
-2907.9647
 30
556.0000
 11
5628.7556
 21
-2908.0345
 31
556.0000
 12
5628.8254
 22
-2888.0346
 32
556.0000
 13
5608.8255
 23
-2887.9648
 33
556.0000
 70
15
  0
3DFACE
  5
10DC
  8
מים
 10
5608.7557
 20
-2907.9647
 30
536.0000
 11
5628.7556
 21
-2908.0345
 31
536.0000
 12
5628.7556
 22
-2908.0345
 32
556.0000
 13
5608.7557
 23
-2907.9647
 33
556.0000
 70
15
  0
3DFACE
  5
10DD
  8
מים
 10
5628.7556
 20
-2908.0345
 30
536.0000
 11
5628.8254
 21
-2888.0346
 31
536.0000
 12
5628.8254
 22
-2888.0346
 32
556.0000
 13
5628.7556
 23
-2908.0345
 33
556.0000
 70
15
  0
3DFACE
  5
10DE
  8
מים
 10
5628.8254
 20
-2888.0346
 30
536.0000
 11
5608.8255
 21
-2887.9648
 31
536.0000
 12
5608.8255
 22
-2887.9648
 32
556.0000
 13
5628.8254
 23
-2888.0346
 33
556.0000
 70
15
  0
3DFACE
  5
10DF
  8
מים
 10
5608.8255
 20
-2887.9648
 30
536.0000
 11
5608.7557
 21
-2907.9647
 31
536.0000
 12
5608.7557
 22
-2907.9647
 32
556.0000
 13
5608.8255
 23
-2887.9648
 33
556.0000
 70
15
  0
INSERT
  5
10E0
  8
מים
  2
FAUCET
 10
5770.0000
 20
-2838.0000
 30
543.0000
 41
1.0000
 42
1.0000
 43
1.0000
 50
359.8000
  0
3DFACE
  5
10E1
  8
מים
 10
5759.7557
 20
-2907.9647
 30
543.0000
 11
5779.7556
 21
-2908.0345
 31
543.0000
 12
5779.8254
 22
-2888.0346
 32
543.0000
 13
5759.8255
 23
-2887.9648
 33
543.0000
 70
15
  0
3DFACE
  5
10E2
  8
מים
 10
5759.7557
 20
-2907.9647
 30
563.0000
 11
5779.7556
 21
-2908.0345
 31
563.0000
 12
5779.8254
 22
-2888.0346
 32
563.0000
 13
5759.8255
 23
-2887.9648
 33
563.0000
 70
15
  0
3DFACE
  5
10E3
  8
מים
 10
5759.7557
 20
-2907.9647
 30
543.0000
 11
5779.7556
 21
-2908.0345
 31
543.0000
 12
5779.7556
 22
-2908.0345
 32
563.0000
 13
5759.7557
 23
-2907.9647
 33
563.0000
 70
15
  0
3DFACE
  5
10E4
  8
מים
 10
5779.7556
 20
-2908.0345
 30
543.0000
 11
5779.8254
 21
-2888.0346
 31
543.0000
 12
5779.8254
 22
-2888.0346
 32
563.0000
 13
5779.7556
 23
-2908.0345
 33
563.0000
 70
15
  0
3DFACE
  5
10E5
  8
מים
 10
5779.8254
 20
-2888.0346
 30
543.0000
 11
5759.8255
 21
-2887.9648
 31
543.0000
 12
5759.8255
 22
-2887.9648
 32
563.0000
 13
5779.8254
 23
-2888.0346
 33
563.0000
 70
15
  0
3DFACE
  5
10E6
  8
מים
 10
5759.8255
 20
-2887.9648
 30
543.0000
 11
5759.7557
 21
-2907.9647
 31
543.0000
 12
5759.7557
 22
-2907.9647
 32
563.0000
 13
5759.8255
 23
-2887.9648
 33
563.0000
 70
15
  0
INSERT
  5
10E7
  8
מים
  2
FAUCET
 10
5881.0000
 20
-2839.0000
 30
529.0000
 41
1.0000
 42
1.0000
 43
1.0000
 50
359.8000
  0
3DFACE
  5
10E8
  8
מים
 10
5870.7557
 20
-2908.9647
 30
529.0000
 11
5890.7556
 21
-2909.0345
 31
529.0000
 12
5890.8254
 22
-2889.0346
 32
529.0000
 13
5870.8255
 23
-2888.9648
 33
529.0000
 70
15
  0
3DFACE
  5
10E9
  8
מים
 10
5870.7557
 20
-2908.9647
 30
549.0000
 11
5890.7556
 21
-2909.0345
 31
549.0000
 12
5890.8254
 22
-2889.0346
 32
549.0000
 13
5870.8255
 23
-2888.9648
 33
549.0000
 70
15
  0
3DFACE
  5
10EA
  8
מים
 10
5870.7557
 20
-2908.9647
 30
529.0000
 11
5890.7556
 21
-2909.0345
 31
529.0000
 12
5890.7556
 22
-2909.0345
 32
549.0000
 13
5870.7557
 23
-2908.9647
 33
549.0000
 70
15
  0
3DFACE
  5
10EB
  8
מים
 10
5890.7556
 20
-2909.0345
 30
529.0000
 11
5890.8254
 21
-2889.0346
 31
529.0000
 12
5890.8254
 22
-2889.0346
 32
549.0000
 13
5890.7556
 23
-2909.0345
 33
549.0000
 70
15
  0
3DFACE
  5
10EC
  8
מים
 10
5890.8254
 20
-2889.0346
 30
529.0000
 11
5870.8255
 21
-2888.9648
 31
529.0000
 12
5870.8255
 22
-2888.9648
 32
549.0000
 13
5890.8254
 23
-2889.0346
 33
549.0000
 70
15
  0
3DFACE
  5
10ED
  8
מים
 10
5870.8255
 20
-2888.9648
 30
529.0000
 11
5870.7557
 21
-2908.9647
 31
529.0000
 12
5870.7557
 22
-2908.9647
 32
549.0000
 13
5870.8255
 23
-2888.9648
 33
549.0000
 70
15
  0
INSERT
  5
10EE
  8
מים
  2
SEWAGE
 10
5774.0000
 20
-2838.0000
 30
-2.0000
 41
1.0000
 42
1.0000
 43
1.0000
 50
359.8000
  0
3DFACE
  5
10EF
  8
ניקוז
 10
5713.4070
 20
-3007.7895
 30
-2.0000
 11
5833.4062
 21
-3008.2084
 31
-2.0000
 12
5833.8251
 22
-2888.2091
 32
-2.0000
 13
5713.8258
 23
-2887.7903
 33
-2.0000
 70
15
  0
3DFACE
  5
10F0
  8
ניקוז
 10
5713.4070
 20
-3007.7895
 30
18.0000
 11
5833.4062
 21
-3008.2084
 31
18.0000
 12
5833.8251
 22
-2888.2091
 32
18.0000
 13
5713.8258
 23
-2887.7903
 33
18.0000
 70
15
  0
3DFACE
  5
10F1
  8
ניקוז
 10
5713.4070
 20
-3007.7895
 30
-2.0000
 11
5833.4062
 21
-3008.2084
 31
-2.0000
 12
5833.4062
 22
-3008.2084
 32
18.0000
 13
5713.4070
 23
-3007.7895
 33
18.0000
 70
15
  0
3DFACE
  5
10F2
  8
ניקוז
 10
5833.4062
 20
-3008.2084
 30
-2.0000
 11
5833.8251
 21
-2888.2091
 31
-2.0000
 12
5833.8251
 22
-2888.2091
 32
18.0000
 13
5833.4062
 23
-3008.2084
 33
18.0000
 70
15
  0
3DFACE
  5
10F3
  8
ניקוז
 10
5833.8251
 20
-2888.2091
 30
-2.0000
 11
5713.8258
 21
-2887.7903
 31
-2.0000
 12
5713.8258
 22
-2887.7903
 32
18.0000
 13
5833.8251
 23
-2888.2091
 33
18.0000
 70
15
  0
3DFACE
  5
10F4
  8
ניקוז
 10
5713.8258
 20
-2887.7903
 30
-2.0000
 11
5713.4070
 21
-3007.7895
 31
-2.0000
 12
5713.4070
 22
-3007.7895
 32
18.0000
 13
5713.8258
 23
-2887.7903
 33
18.0000
 70
15
  0
INSERT
  5
10F5
  8
חשמל
  2
SOCKET
 10
7027.0000
 20
-2843.0000
 30
435.0000
 41
1.0000
 42
1.0000
 43
1.0000
 50
359.8000
  0
3DFACE
  5
10F6
  8
חשמל
 10
6986.7734
 20
-2907.8600
 30
435.0000
 11
7066.7729
 21
-2908.1392
 31
435.0000
 12
7066.8252
 22
-2893.1393
 32
435.0000
 13
6986.8257
 23
-2892.8601
 33
435.0000
 70
15
  0
3DFACE
  5
10F7
  8
חשמל
 10
6986.7734
 20
-2907.8600
 30
515.0000
 11
7066.7729
 21
-2908.1392
 31
515.0000
 12
7066.8252
 22
-2893.1393
 32
515.0000
 13
6986.8257
 23
-2892.8601
 33
515.0000
 70
15
  0
3DFACE
  5
10F8
  8
חשמל
 10
6986.7734
 20
-2907.8600
 30
435.0000
 11
7066.7729
 21
-2908.1392
 31
435.0000
 12
7066.7729
 22
-2908.1392
 32
515.0000
 13
6986.7734
 23
-2907.8600
 33
515.0000
 70
15
  0
3DFACE
  5
10F9
  8
חשמל
 10
7066.7729
 20
-2908.1392
 30
435.0000
 11
7066.8252
 21
-2893.1393
 31
435.0000
 12
7066.8252
 22
-2893.1393
 32
515.0000
 13
7066.7729
 23
-2908.1392
 33
515.0000
 70
15
  0
3DFACE
  5
10FA
  8
חשמל
 10
7066.8252
 20
-2893.1393
 30
435.0000
 11
6986.8257
 21
-2892.8601
 31
435.0000
 12
6986.8257
 22
-2892.8601
 32
515.0000
 13
7066.8252
 23
-2893.1393
 33
515.0000
 70
15
  0
3DFACE
  5
10FB
  8
חשמל
 10
6986.8257
 20
-2892.8601
 30
435.0000
 11
6986.7734
 21
-2907.8600
 31
435.0000
 12
6986.7734
 22
-2907.8600
 32
515.0000
 13
6986.8257
 23
-2892.8601
 33
515.0000
 70
15
  0
INSERT
  5
10FC
  8
חשמל
  2
SOCKET
 10
7180.0000
 20
-2843.0000
 30
437.0000
 41
1.0000
 42
1.0000
 43
1.0000
 50
359.8000
  0
3DFACE
  5
10FD
  8
חשמל
 10
7139.7734
 20
-2907.8600
 30
437.0000
 11
7219.7729
 21
-2908.1392
 31
437.0000
 12
7219.8252
 22
-2893.1393
 32
437.0000
 13
7139.8257
 23
-2892.8601
 33
437.0000
 70
15
  0
3DFACE
  5
10FE
  8
חשמל
 10
7139.7734
 20
-2907.8600
 30
517.0000
 11
7219.7729
 21
-2908.1392
 31
517.0000
 12
7219.8252
 22
-2893.1393
 32
517.0000
 13
7139.8257
 23
-2892.8601
 33
517.0000
 70
15
  0
3DFACE
  5
10FF
  8
חשמל
 10
7139.7734
 20
-2907.8600
 30
437.0000
 11
7219.7729
 21
-2908.1392
 31
437.0000
 12
7219.7729
 22
-2908.1392
 32
517.0000
 13
7139.7734
 23
-2907.8600
 33
517.0000
 70
15
  0
3DFACE
  5
1100
  8
חשמל
 10
7219.7729
 20
-2908.1392
 30
437.0000
 11
7219.8252
 21
-2893.1393
 31
437.0000
 12
7219.8252
 22
-2893.1393
 32
517.0000
 13
7219.7729
 23
-2908.1392
 33
517.0000
 70
15
  0
3DFACE
  5
1101
  8
חשמל
 10
7219.8252
 20
-2893.1393
 30
437.0000
 11
7139.8257
 21
-2892.8601
 31
437.0000
 12
7139.8257
 22
-2892.8601
 32
517.0000
 13
7219.8252
 23
-2893.1393
 33
517.0000
 70
15
  0
3DFACE
  5
1102
  8
חשמל
 10
7139.8257
 20
-2892.8601
 30
437.0000
 11
7139.7734
 21
-2907.8600
 31
437.0000
 12
7139.7734
 22
-2907.8600
 32
517.0000
 13
7139.8257
 23
-2892.8601
 33
517.0000
 70
15
  0
INSERT
  5
1103
  8
חשמל
  2
SOCKET
 10
7821.0000
 20
-2845.0000
 30
1120.0000
 41
1.0000
 42
1.0000
 43
1.0000
 50
359.8000
  0
3DFACE
  5
1104
  8
חשמל
 10
7729.5817
 20
-2964.6816
 30
1120.0000
 11
7911.5806
 21
-2965.3169
 31
1120.0000
 12
7911.8249
 22
-2895.3173
 32
1120.0000
 13
7729.8260
 23
-2894.6820
 33
1120.0000
 70
15
  0
3DFACE
  5
1105
  8
חשמל
 10
7729.5817
 20
-2964.6816
 30
1198.0000
 11
7911.5806
 21
-2965.3169
 31
1198.0000
 12
7911.8249
 22
-2895.3173
 32
1198.0000
 13
7729.8260
 23
-2894.6820
 33
1198.0000
 70
15
  0
3DFACE
  5
1106
  8
חשמל
 10
7729.5817
 20
-2964.6816
 30
1120.0000
 11
7911.5806
 21
-2965.3169
 31
1120.0000
 12
7911.5806
 22
-2965.3169
 32
1198.0000
 13
7729.5817
 23
-2964.6816
 33
1198.0000
 70
15
  0
3DFACE
  5
1107
  8
חשמל
 10
7911.5806
 20
-2965.3169
 30
1120.0000
 11
7911.8249
 21
-2895.3173
 31
1120.0000
 12
7911.8249
 22
-2895.3173
 32
1198.0000
 13
7911.5806
 23
-2965.3169
 33
1198.0000
 70
15
  0
3DFACE
  5
1108
  8
חשמל
 10
7911.8249
 20
-2895.3173
 30
1120.0000
 11
7729.8260
 21
-2894.6820
 31
1120.0000
 12
7729.8260
 22
-2894.6820
 32
1198.0000
 13
7911.8249
 23
-2895.3173
 33
1198.0000
 70
15
  0
3DFACE
  5
1109
  8
חשמל
 10
7729.8260
 20
-2894.6820
 30
1120.0000
 11
7729.5817
 21
-2964.6816
 31
1120.0000
 12
7729.5817
 22
-2964.6816
 32
1198.0000
 13
7729.8260
 23
-2894.6820
 33
1198.0000
 70
15
  0
INSERT
  5
110A
  8
גז
  2
GAS
 10
7836.0000
 20
-2845.0000
 30
-12.0000
 41
1.0000
 42
1.0000
 43
1.0000
 50
359.8000
  0
3DFACE
  5
110B
  8
גז
 10
7825.7557
 20
-2914.9647
 30
-12.0000
 11
7845.7556
 21
-2915.0345
 31
-12.0000
 12
7845.8254
 22
-2895.0346
 32
-12.0000
 13
7825.8255
 23
-2894.9648
 33
-12.0000
 70
15
  0
3DFACE
  5
110C
  8
גז
 10
7825.7557
 20
-2914.9647
 30
8.0000
 11
7845.7556
 21
-2915.0345
 31
8.0000
 12
7845.8254
 22
-2895.0346
 32
8.0000
 13
7825.8255
 23
-2894.9648
 33
8.0000
 70
15
  0
3DFACE
  5
110D
  8
גז
 10
7825.7557
 20
-2914.9647
 30
-12.0000
 11
7845.7556
 21
-2915.0345
 31
-12.0000
 12
7845.7556
 22
-2915.0345
 32
8.0000
 13
7825.7557
 23
-2914.9647
 33
8.0000
 70
15
  0
3DFACE
  5
110E
  8
גז
 10
7845.7556
 20
-2915.0345
 30
-12.0000
 11
7845.8254
 21
-2895.0346
 31
-12.0000
 12
7845.8254
 22
-2895.0346
 32
8.0000
 13
7845.7556
 23
-2915.0345
 33
8.0000
 70
15
  0
3DFACE
  5
110F
  8
גז
 10
7845.8254
 20
-2895.0346
 30
-12.0000
 11
7825.8255
 21
-2894.9648
 31
-12.0000
 12
7825.8255
 22
-2894.9648
 32
8.0000
 13
7845.8254
 23
-2895.0346
 33
8.0000
 70
15
  0
3DFACE
  5
1110
  8
גז
 10
7825.8255
 20
-2894.9648
 30
-12.0000
 11
7825.7557
 21
-2914.9647
 31
-12.0000
 12
7825.7557
 22
-2914.9647
 32
8.0000
 13
7825.8255
 23
-2894.9648
 33
8.0000
 70
15
  0
INSERT
  5
1111
  8
תאורה
  2
LIGHTING
 10
4857.0000
 20
-2835.0000
 30
2680.0000
 41
1.0000
 42
1.0000
 43
1.0000
 50
359.8000
  0
3DFACE
  5
1112
  8
תאורה
 10
4806.4767
 20
-2984.8246
 30
2680.0000
 11
4906.4761
 21
-2985.1736
 31
2680.0000
 12
4906.8252
 22
-2885.1742
 32
2680.0000
 13
4806.8258
 23
-2884.8252
 33
2680.0000
 70
15
  0
3DFACE
  5
1113
  8
תאורה
 10
4806.4767
 20
-2984.8246
 30
2710.0000
 11
4906.4761
 21
-2985.1736
 31
2710.0000
 12
4906.8252
 22
-2885.1742
 32
2710.0000
 13
4806.8258
 23
-2884.8252
 33
2710.0000
 70
15
  0
3DFACE
  5
1114
  8
תאורה
 10
4806.4767
 20
-2984.8246
 30
2680.0000
 11
4906.4761
 21
-2985.1736
 31
2680.0000
 12
4906.4761
 22
-2985.1736
 32
2710.0000
 13
4806.4767
 23
-2984.8246
 33
2710.0000
 70
15
  0
3DFACE
  5
1115
  8
תאורה
 10
4906.4761
 20
-2985.1736
 30
2680.0000
 11
4906.8252
 21
-2885.1742
 31
2680.0000
 12
4906.8252
 22
-2885.1742
 32
2710.0000
 13
4906.4761
 23
-2985.1736
 33
2710.0000
 70
15
  0
3DFACE
  5
1116
  8
תאורה
 10
4906.8252
 20
-2885.1742
 30
2680.0000
 11
4806.8258
 21
-2884.8252
 31
2680.0000
 12
4806.8258
 22
-2884.8252
 32
2710.0000
 13
4906.8252
 23
-2885.1742
 33
2710.0000
 70
15
  0
3DFACE
  5
1117
  8
תאורה
 10
4806.8258
 20
-2884.8252
 30
2680.0000
 11
4806.4767
 21
-2984.8246
 31
2680.0000
 12
4806.4767
 22
-2984.8246
 32
2710.0000
 13
4806.8258
 23
-2884.8252
 33
2710.0000
 70
15
  0
INSERT
  5
1118
  8
חשמל
  2
SOCKET
 10
6013.0000
 20
-2839.0000
 30
449.0000
 41
1.0000
 42
1.0000
 43
1.0000
 50
359.8000
  0
3DFACE
  5
1119
  8
חשמל
 10
5972.7734
 20
-2903.8600
 30
449.0000
 11
6052.7729
 21
-2904.1392
 31
449.0000
 12
6052.8252
 22
-2889.1393
 32
449.0000
 13
5972.8257
 23
-2888.8601
 33
449.0000
 70
15
  0
3DFACE
  5
111A
  8
חשמל
 10
5972.7734
 20
-2903.8600
 30
529.0000
 11
6052.7729
 21
-2904.1392
 31
529.0000
 12
6052.8252
 22
-2889.1393
 32
529.0000
 13
5972.8257
 23
-2888.8601
 33
529.0000
 70
15
  0
3DFACE
  5
111B
  8
חשמל
 10
5972.7734
 20
-2903.8600
 30
449.0000
 11
6052.7729
 21
-2904.1392
 31
449.0000
 12
6052.7729
 22
-2904.1392
 32
529.0000
 13
5972.7734
 23
-2903.8600
 33
529.0000
 70
15
  0
3DFACE
  5
111C
  8
חשמל
 10
6052.7729
 20
-2904.1392
 30
449.0000
 11
6052.8252
 21
-2889.1393
 31
449.0000
 12
6052.8252
 22
-2889.1393
 32
529.0000
 13
6052.7729
 23
-2904.1392
 33
529.0000
 70
15
  0
3DFACE
  5
111D
  8
חשמל
 10
6052.8252
 20
-2889.1393
 30
449.0000
 11
5972.8257
 21
-2888.8601
 31
449.0000
 12
5972.8257
 22
-2888.8601
 32
529.0000
 13
6052.8252
 23
-2889.1393
 33
529.0000
 70
15
  0
3DFACE
  5
111E
  8
חשמל
 10
5972.8257
 20
-2888.8601
 30
449.0000
 11
5972.7734
 21
-2903.8600
 31
449.0000
 12
5972.7734
 22
-2903.8600
 32
529.0000
 13
5972.8257
 23
-2888.8601
 33
529.0000
 70
15
  0
INSERT
  5
111F
  8
חשמל
  2
DUPLEXSWITCH
 10
8007.0000
 20
-3164.0000
 30
1115.0000
 41
1.0000
 42
1.0000
 43
1.0000
 50
270.0000
  0
3DFACE
  5
1120
  8
חשמל
 10
7942.0000
 20
-3084.0000
 30
1115.0000
 11
7942.0000
 21
-3244.0000
 31
1115.0000
 12
7957.0000
 22
-3244.0000
 32
1115.0000
 13
7957.0000
 23
-3084.0000
 33
1115.0000
 70
15
  0
3DFACE
  5
1121
  8
חשמל
 10
7942.0000
 20
-3084.0000
 30
1195.0000
 11
7942.0000
 21
-3244.0000
 31
1195.0000
 12
7957.0000
 22
-3244.0000
 32
1195.0000
 13
7957.0000
 23
-3084.0000
 33
1195.0000
 70
15
  0
3DFACE
  5
1122
  8
חשמל
 10
7942.0000
 20
-3084.0000
 30
1115.0000
 11
7942.0000
 21
-3244.0000
 31
1115.0000
 12
7942.0000
 22
-3244.0000
 32
1195.0000
 13
7942.0000
 23
-3084.0000
 33
1195.0000
 70
15
  0
3DFACE
  5
1123
  8
חשמל
 10
7942.0000
 20
-3244.0000
 30
1115.0000
 11
7957.0000
 21
-3244.0000
 31
1115.0000
 12
7957.0000
 22
-3244.0000
 32
1195.0000
 13
7942.0000
 23
-3244.0000
 33
1195.0000
 70
15
  0
3DFACE
  5
1124
  8
חשמל
 10
7957.0000
 20
-3244.0000
 30
1115.0000
 11
7957.0000
 21
-3084.0000
 31
1115.0000
 12
7957.0000
 22
-3084.0000
 32
1195.0000
 13
7957.0000
 23
-3244.0000
 33
1195.0000
 70
15
  0
3DFACE
  5
1125
  8
חשמל
 10
7957.0000
 20
-3084.0000
 30
1115.0000
 11
7942.0000
 21
-3084.0000
 31
1115.0000
 12
7942.0000
 22
-3084.0000
 32
1195.0000
 13
7957.0000
 23
-3084.0000
 33
1195.0000
 70
15
  0
INSERT
  5
1126
  8
חשמל
  2
CONTROLBOX
 10
8007.0000
 20
-3427.0000
 30
2296.0000
 41
1.0000
 42
1.0000
 43
1.0000
 50
270.0000
  0
3DFACE
  5
1127
  8
חלונות
 10
7947.0000
 20
-2766.5000
 30
2296.0000
 11
7947.0000
 21
-4087.5000
 31
2296.0000
 12
7957.0000
 22
-4087.5000
 32
2296.0000
 13
7957.0000
 23
-2766.5000
 33
2296.0000
 70
15
  0
3DFACE
  5
1128
  8
חלונות
 10
7947.0000
 20
-2766.5000
 30
2541.0000
 11
7947.0000
 21
-4087.5000
 31
2541.0000
 12
7957.0000
 22
-4087.5000
 32
2541.0000
 13
7957.0000
 23
-2766.5000
 33
2541.0000
 70
15
  0
3DFACE
  5
1129
  8
חלונות
 10
7947.0000
 20
-2766.5000
 30
2296.0000
 11
7947.0000
 21
-4087.5000
 31
2296.0000
 12
7947.0000
 22
-4087.5000
 32
2541.0000
 13
7947.0000
 23
-2766.5000
 33
2541.0000
 70
15
  0
3DFACE
  5
112A
  8
חלונות
 10
7947.0000
 20
-4087.5000
 30
2296.0000
 11
7957.0000
 21
-4087.5000
 31
2296.0000
 12
7957.0000
 22
-4087.5000
 32
2541.0000
 13
7947.0000
 23
-4087.5000
 33
2541.0000
 70
15
  0
3DFACE
  5
112B
  8
חלונות
 10
7957.0000
 20
-4087.5000
 30
2296.0000
 11
7957.0000
 21
-2766.5000
 31
2296.0000
 12
7957.0000
 22
-2766.5000
 32
2541.0000
 13
7957.0000
 23
-4087.5000
 33
2541.0000
 70
15
  0
3DFACE
  5
112C
  8
חלונות
 10
7957.0000
 20
-2766.5000
 30
2296.0000
 11
7947.0000
 21
-2766.5000
 31
2296.0000
 12
7947.0000
 22
-2766.5000
 32
2541.0000
 13
7957.0000
 23
-2766.5000
 33
2541.0000
 70
15
  0
INSERT
  5
112D
  8
חשמל
  2
SOCKET
 10
8007.0000
 20
-4930.0000
 30
1117.0000
 41
1.0000
 42
1.0000
 43
1.0000
 50
270.0000
  0
3DFACE
  5
112E
  8
חשמל
 10
7887.0000
 20
-4843.5000
 30
1117.0000
 11
7887.0000
 21
-5016.5000
 31
1117.0000
 12
7957.0000
 22
-5016.5000
 32
1117.0000
 13
7957.0000
 23
-4843.5000
 33
1117.0000
 70
15
  0
3DFACE
  5
112F
  8
חשמל
 10
7887.0000
 20
-4843.5000
 30
1184.0000
 11
7887.0000
 21
-5016.5000
 31
1184.0000
 12
7957.0000
 22
-5016.5000
 32
1184.0000
 13
7957.0000
 23
-4843.5000
 33
1184.0000
 70
15
  0
3DFACE
  5
1130
  8
חשמל
 10
7887.0000
 20
-4843.5000
 30
1117.0000
 11
7887.0000
 21
-5016.5000
 31
1117.0000
 12
7887.0000
 22
-5016.5000
 32
1184.0000
 13
7887.0000
 23
-4843.5000
 33
1184.0000
 70
15
  0
3DFACE
  5
1131
  8
חשמל
 10
7887.0000
 20
-5016.5000
 30
1117.0000
 11
7957.0000
 21
-5016.5000
 31
1117.0000
 12
7957.0000
 22
-5016.5000
 32
1184.0000
 13
7887.0000
 23
-5016.5000
 33
1184.0000
 70
15
  0
3DFACE
  5
1132
  8
חשמל
 10
7957.0000
 20
-5016.5000
 30
1117.0000
 11
7957.0000
 21
-4843.5000
 31
1117.0000
 12
7957.0000
 22
-4843.5000
 32
1184.0000
 13
7957.0000
 23
-5016.5000
 33
1184.0000
 70
15
  0
3DFACE
  5
1133
  8
חשמל
 10
7957.0000
 20
-4843.5000
 30
1117.0000
 11
7887.0000
 21
-4843.5000
 31
1117.0000
 12
7887.0000
 22
-4843.5000
 32
1184.0000
 13
7957.0000
 23
-4843.5000
 33
1184.0000
 70
15
  0
INSERT
  5
1134
  8
חשמל
  2
DUPLEXSWITCH
 10
8007.0000
 20
-5549.0000
 30
1113.0000
 41
1.0000
 42
1.0000
 43
1.0000
 50
270.0000
  0
3DFACE
  5
1135
  8
חשמל
 10
7942.0000
 20
-5469.0000
 30
1113.0000
 11
7942.0000
 21
-5629.0000
 31
1113.0000
 12
7957.0000
 22
-5629.0000
 32
1113.0000
 13
7957.0000
 23
-5469.0000
 33
1113.0000
 70
15
  0
3DFACE
  5
1136
  8
חשמל
 10
7942.0000
 20
-5469.0000
 30
1193.0000
 11
7942.0000
 21
-5629.0000
 31
1193.0000
 12
7957.0000
 22
-5629.0000
 32
1193.0000
 13
7957.0000
 23
-5469.0000
 33
1193.0000
 70
15
  0
3DFACE
  5
1137
  8
חשמל
 10
7942.0000
 20
-5469.0000
 30
1113.0000
 11
7942.0000
 21
-5629.0000
 31
1113.0000
 12
7942.0000
 22
-5629.0000
 32
1193.0000
 13
7942.0000
 23
-5469.0000
 33
1193.0000
 70
15
  0
3DFACE
  5
1138
  8
חשמל
 10
7942.0000
 20
-5629.0000
 30
1113.0000
 11
7957.0000
 21
-5629.0000
 31
1113.0000
 12
7957.0000
 22
-5629.0000
 32
1193.0000
 13
7942.0000
 23
-5629.0000
 33
1193.0000
 70
15
  0
3DFACE
  5
1139
  8
חשמל
 10
7957.0000
 20
-5629.0000
 30
1113.0000
 11
7957.0000
 21
-5469.0000
 31
1113.0000
 12
7957.0000
 22
-5469.0000
 32
1193.0000
 13
7957.0000
 23
-5629.0000
 33
1193.0000
 70
15
  0
3DFACE
  5
113A
  8
חשמל
 10
7957.0000
 20
-5469.0000
 30
1113.0000
 11
7942.0000
 21
-5469.0000
 31
1113.0000
 12
7942.0000
 22
-5469.0000
 32
1193.0000
 13
7957.0000
 23
-5469.0000
 33
1193.0000
 70
15
  0
INSERT
  5
113B
  8
תאורה
  2
LIGHTING
 10
8007.0000
 20
-5063.0000
 30
2680.0000
 41
1.0000
 42
1.0000
 43
1.0000
 50
270.0000
  0
3DFACE
  5
113C
  8
תאורה
 10
7857.0000
 20
-5013.0000
 30
2680.0000
 11
7857.0000
 21
-5113.0000
 31
2680.0000
 12
7957.0000
 22
-5113.0000
 32
2680.0000
 13
7957.0000
 23
-5013.0000
 33
2680.0000
 70
15
  0
3DFACE
  5
113D
  8
תאורה
 10
7857.0000
 20
-5013.0000
 30
2710.0000
 11
7857.0000
 21
-5113.0000
 31
2710.0000
 12
7957.0000
 22
-5113.0000
 32
2710.0000
 13
7957.0000
 23
-5013.0000
 33
2710.0000
 70
15
  0
3DFACE
  5
113E
  8
תאורה
 10
7857.0000
 20
-5013.0000
 30
2680.0000
 11
7857.0000
 21
-5113.0000
 31
2680.0000
 12
7857.0000
 22
-5113.0000
 32
2710.0000
 13
7857.0000
 23
-5013.0000
 33
2710.0000
 70
15
  0
3DFACE
  5
113F
  8
תאורה
 10
7857.0000
 20
-5113.0000
 30
2680.0000
 11
7957.0000
 21
-5113.0000
 31
2680.0000
 12
7957.0000
 22
-5113.0000
 32
2710.0000
 13
7857.0000
 23
-5113.0000
 33
2710.0000
 70
15
  0
3DFACE
  5
1140
  8
תאורה
 10
7957.0000
 20
-5113.0000
 30
2680.0000
 11
7957.0000
 21
-5013.0000
 31
2680.0000
 12
7957.0000
 22
-5013.0000
 32
2710.0000
 13
7957.0000
 23
-5113.0000
 33
2710.0000
 70
15
  0
3DFACE
  5
1141
  8
תאורה
 10
7957.0000
 20
-5013.0000
 30
2680.0000
 11
7857.0000
 21
-5013.0000
 31
2680.0000
 12
7857.0000
 22
-5013.0000
 32
2710.0000
 13
7957.0000
 23
-5013.0000
 33
2710.0000
 70
15
  0
INSERT
  5
1142
  8
תאורה
  2
LIGHTING
 10
8007.0000
 20
-5061.0000
 30
2680.0000
 41
1.0000
 42
1.0000
 43
1.0000
 50
270.0000
  0
3DFACE
  5
1143
  8
תאורה
 10
7857.0000
 20
-5011.0000
 30
2680.0000
 11
7857.0000
 21
-5111.0000
 31
2680.0000
 12
7957.0000
 22
-5111.0000
 32
2680.0000
 13
7957.0000
 23
-5011.0000
 33
2680.0000
 70
15
  0
3DFACE
  5
1144
  8
תאורה
 10
7857.0000
 20
-5011.0000
 30
2710.0000
 11
7857.0000
 21
-5111.0000
 31
2710.0000
 12
7957.0000
 22
-5111.0000
 32
2710.0000
 13
7957.0000
 23
-5011.0000
 33
2710.0000
 70
15
  0
3DFACE
  5
1145
  8
תאורה
 10
7857.0000
 20
-5011.0000
 30
2680.0000
 11
7857.0000
 21
-5111.0000
 31
2680.0000
 12
7857.0000
 22
-5111.0000
 32
2710.0000
 13
7857.0000
 23
-5011.0000
 33
2710.0000
 70
15
  0
3DFACE
  5
1146
  8
תאורה
 10
7857.0000
 20
-5111.0000
 30
2680.0000
 11
7957.0000
 21
-5111.0000
 31
2680.0000
 12
7957.0000
 22
-5111.0000
 32
2710.0000
 13
7857.0000
 23
-5111.0000
 33
2710.0000
 70
15
  0
3DFACE
  5
1147
  8
תאורה
 10
7957.0000
 20
-5111.0000
 30
2680.0000
 11
7957.0000
 21
-5011.0000
 31
2680.0000
 12
7957.0000
 22
-5011.0000
 32
2710.0000
 13
7957.0000
 23
-5111.0000
 33
2710.0000
 70
15
  0
3DFACE
  5
1148
  8
תאורה
 10
7957.0000
 20
-5011.0000
 30
2680.0000
 11
7857.0000
 21
-5011.0000
 31
2680.0000
 12
7857.0000
 22
-5011.0000
 32
2710.0000
 13
7957.0000
 23
-5011.0000
 33
2710.0000
 70
15
  0
INSERT
  5
1149
  8
תאורה
  2
LIGHTING
 10
8007.0000
 20
-5061.0000
 30
2680.0000
 41
1.0000
 42
1.0000
 43
1.0000
 50
270.0000
  0
3DFACE
  5
114A
  8
תאורה
 10
7857.0000
 20
-5011.0000
 30
2680.0000
 11
7857.0000
 21
-5111.0000
 31
2680.0000
 12
7957.0000
 22
-5111.0000
 32
2680.0000
 13
7957.0000
 23
-5011.0000
 33
2680.0000
 70
15
  0
3DFACE
  5
114B
  8
תאורה
 10
7857.0000
 20
-5011.0000
 30
2710.0000
 11
7857.0000
 21
-5111.0000
 31
2710.0000
 12
7957.0000
 22
-5111.0000
 32
2710.0000
 13
7957.0000
 23
-5011.0000
 33
2710.0000
 70
15
  0
3DFACE
  5
114C
  8
תאורה
 10
7857.0000
 20
-5011.0000
 30
2680.0000
 11
7857.0000
 21
-5111.0000
 31
2680.0000
 12
7857.0000
 22
-5111.0000
 32
2710.0000
 13
7857.0000
 23
-5011.0000
 33
2710.0000
 70
15
  0
3DFACE
  5
114D
  8
תאורה
 10
7857.0000
 20
-5111.0000
 30
2680.0000
 11
7957.0000
 21
-5111.0000
 31
2680.0000
 12
7957.0000
 22
-5111.0000
 32
2710.0000
 13
7857.0000
 23
-5111.0000
 33
2710.0000
 70
15
  0
3DFACE
  5
114E
  8
תאורה
 10
7957.0000
 20
-5111.0000
 30
2680.0000
 11
7957.0000
 21
-5011.0000
 31
2680.0000
 12
7957.0000
 22
-5011.0000
 32
2710.0000
 13
7957.0000
 23
-5111.0000
 33
2710.0000
 70
15
  0
3DFACE
  5
114F
  8
תאורה
 10
7957.0000
 20
-5011.0000
 30
2680.0000
 11
7857.0000
 21
-5011.0000
 31
2680.0000
 12
7857.0000
 22
-5011.0000
 32
2710.0000
 13
7957.0000
 23
-5011.0000
 33
2710.0000
 70
15
  0
INSERT
  5
1150
  8
חשמל
  2
SOCKET
 10
8218.0000
 20
-6033.0000
 30
1113.0000
 41
1.0000
 42
1.0000
 43
1.0000
 50
0.0000
  0
3DFACE
  5
1151
  8
חשמל
 10
8178.0000
 20
-5983.0000
 30
1113.0000
 11
8258.0000
 21
-5983.0000
 31
1113.0000
 12
8258.0000
 22
-5968.0000
 32
1113.0000
 13
8178.0000
 23
-5968.0000
 33
1113.0000
 70
15
  0
3DFACE
  5
1152
  8
חשמל
 10
8178.0000
 20
-5983.0000
 30
1193.0000
 11
8258.0000
 21
-5983.0000
 31
1193.0000
 12
8258.0000
 22
-5968.0000
 32
1193.0000
 13
8178.0000
 23
-5968.0000
 33
1193.0000
 70
15
  0
3DFACE
  5
1153
  8
חשמל
 10
8178.0000
 20
-5983.0000
 30
1113.0000
 11
8258.0000
 21
-5983.0000
 31
1113.0000
 12
8258.0000
 22
-5983.0000
 32
1193.0000
 13
8178.0000
 23
-5983.0000
 33
1193.0000
 70
15
  0
3DFACE
  5
1154
  8
חשמל
 10
8258.0000
 20
-5983.0000
 30
1113.0000
 11
8258.0000
 21
-5968.0000
 31
1113.0000
 12
8258.0000
 22
-5968.0000
 32
1193.0000
 13
8258.0000
 23
-5983.0000
 33
1193.0000
 70
15
  0
3DFACE
  5
1155
  8
חשמל
 10
8258.0000
 20
-5968.0000
 30
1113.0000
 11
8178.0000
 21
-5968.0000
 31
1113.0000
 12
8178.0000
 22
-5968.0000
 32
1193.0000
 13
8258.0000
 23
-5968.0000
 33
1193.0000
 70
15
  0
3DFACE
  5
1156
  8
חשמל
 10
8178.0000
 20
-5968.0000
 30
1113.0000
 11
8178.0000
 21
-5983.0000
 31
1113.0000
 12
8178.0000
 22
-5983.0000
 32
1193.0000
 13
8178.0000
 23
-5968.0000
 33
1193.0000
 70
15
  0
INSERT
  5
1157
  8
חשמל
  2
SOCKET
 10
9623.0000
 20
-6033.0000
 30
1101.0000
 41
1.0000
 42
1.0000
 43
1.0000
 50
0.0000
  0
3DFACE
  5
1158
  8
חשמל
 10
9583.0000
 20
-5983.0000
 30
1101.0000
 11
9663.0000
 21
-5983.0000
 31
1101.0000
 12
9663.0000
 22
-5968.0000
 32
1101.0000
 13
9583.0000
 23
-5968.0000
 33
1101.0000
 70
15
  0
3DFACE
  5
1159
  8
חשמל
 10
9583.0000
 20
-5983.0000
 30
1181.0000
 11
9663.0000
 21
-5983.0000
 31
1181.0000
 12
9663.0000
 22
-5968.0000
 32
1181.0000
 13
9583.0000
 23
-5968.0000
 33
1181.0000
 70
15
  0
3DFACE
  5
115A
  8
חשמל
 10
9583.0000
 20
-5983.0000
 30
1101.0000
 11
9663.0000
 21
-5983.0000
 31
1101.0000
 12
9663.0000
 22
-5983.0000
 32
1181.0000
 13
9583.0000
 23
-5983.0000
 33
1181.0000
 70
15
  0
3DFACE
  5
115B
  8
חשמל
 10
9663.0000
 20
-5983.0000
 30
1101.0000
 11
9663.0000
 21
-5968.0000
 31
1101.0000
 12
9663.0000
 22
-5968.0000
 32
1181.0000
 13
9663.0000
 23
-5983.0000
 33
1181.0000
 70
15
  0
3DFACE
  5
115C
  8
חשמל
 10
9663.0000
 20
-5968.0000
 30
1101.0000
 11
9583.0000
 21
-5968.0000
 31
1101.0000
 12
9583.0000
 22
-5968.0000
 32
1181.0000
 13
9663.0000
 23
-5968.0000
 33
1181.0000
 70
15
  0
3DFACE
  5
115D
  8
חשמל
 10
9583.0000
 20
-5968.0000
 30
1101.0000
 11
9583.0000
 21
-5983.0000
 31
1101.0000
 12
9583.0000
 22
-5983.0000
 32
1181.0000
 13
9583.0000
 23
-5968.0000
 33
1181.0000
 70
15
  0
ENDSEC
  0
EOF
