  0
SECTION
  2
HEADER
  9
$ACADVER
  1
AC1009
  9
$INSBASE
 10
0.0000
 20
0.0000
 30
0.0000
  9
$EXTMIN
 10
-1300.0000
 20
-17584.3750
 30
0.0000
  9
$EXTMAX
 10
27250.0000
 20
1300.0000
 30
0.0000
  9
$DWGCODEPAGE
  3
ansi_1255
  9
$CLAYER
  8
0
  9
$LTSCALE
 40
10.0000
  9
$LIMMIN
 10
0.0000
 20
0.0000
  9
$LIMMAX
 10
2000.0000
 20
200.0000
  0
ENDSEC
  0
SECTION
  2
TABLES
  0
TABLE
  2
VPORT
 70
1
  0
VPORT
  2
*ACTIVE
 70
0
 10
0.0000
 20
0.0000
 11
1.0000
 21
1.0000
 12
12975.0000
 22
-8142.1875
 13
0.0000
 23
0.0000
 14
10.0000
 24
10.0000
 15
10.0000
 25
10.0000
 16
0.0000
 26
0.0000
 36
1.0000
 17
0.0000
 27
0.0000
 37
0.0000
 40
21717.0313
 41
1.6000
 42
50.0000
 43
0.0000
 44
0.0000
 50
0.0000
 51
0.0000
 71
0
 72
100
 73
1
 74
1
 75
0
 76
0
 77
0
 78
0
  0
ENDTAB
  0
TABLE
  2
LTYPE
 70
3
  0
LTYPE
  2
CONTINUOUS
 70
0
  3
Solid line
 72
65
 73
0
 40
0.0000
  0
LTYPE
  2
HIDDEN
 70
0
  3
Hidden __ __ __ __ __ __
 72
65
 73
2
 40
9.5250
 49
6.3500
 49
-3.1750
  0
LTYPE
  2
CENTER
 70
0
  3
Center ____ _ ____ _ ____
 72
65
 73
4
 40
50.8000
 49
31.7500
 49
-6.3500
 49
6.3500
 49
-6.3500
  0
ENDTAB
  0
TABLE
  2
LAYER
 70
71
  0
LAYER
  2
0
 70
0
 62
7
  6
CONTINUOUS
  0
LAYER
  2
קירות
 70
0
 62
7
  6
CONTINUOUS
  0
LAYER
  2
קירות-מילוי
 70
0
 62
8
  6
CONTINUOUS
  0
LAYER
  2
קירות-מידות
 70
0
 62
7
  6
CONTINUOUS
  0
LAYER
  2
קירות-טקסט
 70
0
 62
7
  6
CONTINUOUS
  0
LAYER
  2
קירות-נסתר
 70
0
 62
7
  6
HIDDEN
  0
LAYER
  2
קירות-ציר
 70
0
 62
7
  6
CENTER
  0
LAYER
  2
מבנה
 70
0
 62
9
  6
CONTINUOUS
  0
LAYER
  2
מבנה-מילוי
 70
0
 62
9
  6
CONTINUOUS
  0
LAYER
  2
מבנה-מידות
 70
0
 62
9
  6
CONTINUOUS
  0
LAYER
  2
מבנה-טקסט
 70
0
 62
9
  6
CONTINUOUS
  0
LAYER
  2
מבנה-נסתר
 70
0
 62
9
  6
HIDDEN
  0
LAYER
  2
מבנה-ציר
 70
0
 62
9
  6
CENTER
  0
LAYER
  2
חשמל
 70
0
 62
6
  6
CONTINUOUS
  0
LAYER
  2
חשמל-מידות
 70
0
 62
6
  6
CONTINUOUS
  0
LAYER
  2
חשמל-טקסט
 70
0
 62
6
  6
CONTINUOUS
  0
LAYER
  2
חשמל-נסתר
 70
0
 62
6
  6
HIDDEN
  0
LAYER
  2
תאורה
 70
0
 62
30
  6
CONTINUOUS
  0
LAYER
  2
תאורה-מידות
 70
0
 62
30
  6
CONTINUOUS
  0
LAYER
  2
תאורה-טקסט
 70
0
 62
30
  6
CONTINUOUS
  0
LAYER
  2
תאורה-נסתר
 70
0
 62
30
  6
HIDDEN
  0
LAYER
  2
מים
 70
0
 62
4
  6
CONTINUOUS
  0
LAYER
  2
מים-מידות
 70
0
 62
4
  6
CONTINUOUS
  0
LAYER
  2
מים-טקסט
 70
0
 62
4
  6
CONTINUOUS
  0
LAYER
  2
מים-נסתר
 70
0
 62
4
  6
HIDDEN
  0
LAYER
  2
מים-ציר
 70
0
 62
4
  6
CENTER
  0
LAYER
  2
ניקוז
 70
0
 62
140
  6
CONTINUOUS
  0
LAYER
  2
ניקוז-מידות
 70
0
 62
140
  6
CONTINUOUS
  0
LAYER
  2
ניקוז-טקסט
 70
0
 62
140
  6
CONTINUOUS
  0
LAYER
  2
ניקוז-נסתר
 70
0
 62
140
  6
HIDDEN
  0
LAYER
  2
ניקוז-ציר
 70
0
 62
140
  6
CENTER
  0
LAYER
  2
גז
 70
0
 62
2
  6
CONTINUOUS
  0
LAYER
  2
גז-מידות
 70
0
 62
2
  6
CONTINUOUS
  0
LAYER
  2
גז-טקסט
 70
0
 62
2
  6
CONTINUOUS
  0
LAYER
  2
גז-נסתר
 70
0
 62
2
  6
HIDDEN
  0
LAYER
  2
גז-ציר
 70
0
 62
2
  6
CENTER
  0
LAYER
  2
מיזוג
 70
0
 62
141
  6
CONTINUOUS
  0
LAYER
  2
מיזוג-מידות
 70
0
 62
141
  6
CONTINUOUS
  0
LAYER
  2
מיזוג-טקסט
 70
0
 62
141
  6
CONTINUOUS
  0
LAYER
  2
מיזוג-נסתר
 70
0
 62
141
  6
HIDDEN
  0
LAYER
  2
אוורור
 70
0
 62
131
  6
CONTINUOUS
  0
LAYER
  2
אוורור-מידות
 70
0
 62
131
  6
CONTINUOUS
  0
LAYER
  2
אוורור-טקסט
 70
0
 62
131
  6
CONTINUOUS
  0
LAYER
  2
אוורור-נסתר
 70
0
 62
131
  6
HIDDEN
  0
LAYER
  2
דלתות
 70
0
 62
5
  6
CONTINUOUS
  0
LAYER
  2
דלתות-מידות
 70
0
 62
5
  6
CONTINUOUS
  0
LAYER
  2
דלתות-טקסט
 70
0
 62
5
  6
CONTINUOUS
  0
LAYER
  2
דלתות-נסתר
 70
0
 62
5
  6
HIDDEN
  0
LAYER
  2
דלתות-מילוי
 70
0
 62
5
  6
CONTINUOUS
  0
LAYER
  2
חלונות
 70
0
 62
151
  6
CONTINUOUS
  0
LAYER
  2
חלונות-מידות
 70
0
 62
151
  6
CONTINUOUS
  0
LAYER
  2
חלונות-טקסט
 70
0
 62
151
  6
CONTINUOUS
  0
LAYER
  2
חלונות-נסתר
 70
0
 62
151
  6
HIDDEN
  0
LAYER
  2
ריהוט
 70
0
 62
42
  6
CONTINUOUS
  0
LAYER
  2
ריהוט-מידות
 70
0
 62
42
  6
CONTINUOUS
  0
LAYER
  2
ריהוט-טקסט
 70
0
 62
42
  6
CONTINUOUS
  0
LAYER
  2
ריהוט-נסתר
 70
0
 62
42
  6
HIDDEN
  0
LAYER
  2
מטבח
 70
0
 62
52
  6
CONTINUOUS
  0
LAYER
  2
מטבח-מידות
 70
0
 62
52
  6
CONTINUOUS
  0
LAYER
  2
מטבח-טקסט
 70
0
 62
52
  6
CONTINUOUS
  0
LAYER
  2
מטבח-נסתר
 70
0
 62
52
  6
HIDDEN
  0
LAYER
  2
ריצוף
 70
0
 62
251
  6
CONTINUOUS
  0
LAYER
  2
ריצוף-מילוי
 70
0
 62
8
  6
CONTINUOUS
  0
LAYER
  2
מידות-פנים
 70
0
 62
3
  6
CONTINUOUS
  0
LAYER
  2
מידות-חוץ
 70
0
 62
1
  6
CONTINUOUS
  0
LAYER
  2
מסגרת
 70
0
 62
250
  6
CONTINUOUS
  0
LAYER
  2
גבול-גיליון
 70
0
 62
255
  6
CONTINUOUS
  0
LAYER
  2
מקרא
 70
0
 62
150
  6
CONTINUOUS
  0
LAYER
  2
רשת-צירים
 70
0
 62
8
  6
CENTER
  0
LAYER
  2
הערות
 70
0
 62
150
  6
CONTINUOUS
  0
LAYER
  2
מהדורות
 70
0
 62
1
  6
CONTINUOUS
  0
ENDTAB
  0
TABLE
  2
STYLE
 70
2
  0
STYLE
  2
SOLINE
 70
0
 40
0.0000
 41
1.0000
 50
0.0000
 71
0
 42
2.5000
  3
arial.ttf
  4

  0
STYLE
  2
Standard
 70
0
 40
0.0000
 41
1.0000
 50
0.0000
 71
0
 42
2.5000
  3
txt
  4

  0
ENDTAB
  0
ENDSEC
  0
SECTION
  2
BLOCKS
  0
BLOCK
  8
0
  2
SS_socket_single_85x80
 70
0
 10
0.0000
 20
0.0000
 30
0.0000
  3
SS_socket_single_85x80
  1

  0
LINE
  5
2B1
  8
0
 10
0.0000
 20
0.0000
 30
0.0000
 11
0.0000
 21
36.8000
 31
0.0000
  0
LINE
  5
2B2
  8
0
 10
-27.2000
 20
36.8000
 30
0.0000
 11
-27.0290
 21
39.6663
 31
0.0000
  0
LINE
  5
2B3
  8
0
 10
-27.0290
 20
39.6663
 30
0.0000
 11
-26.5180
 21
42.4965
 31
0.0000
  0
LINE
  5
2B4
  8
0
 10
-26.5180
 20
42.4965
 30
0.0000
 11
-25.6736
 21
45.2551
 31
0.0000
  0
LINE
  5
2B5
  8
0
 10
-25.6736
 20
45.2551
 30
0.0000
 11
-24.5064
 21
47.9074
 31
0.0000
  0
LINE
  5
2B6
  8
0
 10
-24.5064
 20
47.9074
 30
0.0000
 11
-23.0309
 21
50.4200
 31
0.0000
  0
LINE
  5
2B7
  8
0
 10
-23.0309
 20
50.4200
 30
0.0000
 11
-21.2658
 21
52.7613
 31
0.0000
  0
LINE
  5
2B8
  8
0
 10
-21.2658
 20
52.7613
 30
0.0000
 11
-19.2333
 21
54.9019
 31
0.0000
  0
LINE
  5
2B9
  8
0
 10
-19.2333
 20
54.9019
 30
0.0000
 11
-16.9589
 21
56.8149
 31
0.0000
  0
LINE
  5
2BA
  8
0
 10
-16.9589
 20
56.8149
 30
0.0000
 11
-14.4713
 21
58.4761
 31
0.0000
  0
LINE
  5
2BB
  8
0
 10
-14.4713
 20
58.4761
 30
0.0000
 11
-11.8016
 21
59.8648
 31
0.0000
  0
LINE
  5
2BC
  8
0
 10
-11.8016
 20
59.8648
 30
0.0000
 11
-8.9836
 21
60.9634
 31
0.0000
  0
LINE
  5
2BD
  8
0
 10
-8.9836
 20
60.9634
 30
0.0000
 11
-6.0526
 21
61.7582
 31
0.0000
  0
LINE
  5
2BE
  8
0
 10
-6.0526
 20
61.7582
 30
0.0000
 11
-3.0454
 21
62.2390
 31
0.0000
  0
LINE
  5
2BF
  8
0
 10
-3.0454
 20
62.2390
 30
0.0000
 11
0.0000
 21
62.4000
 31
0.0000
  0
LINE
  5
2C0
  8
0
 10
0.0000
 20
62.4000
 30
0.0000
 11
3.0454
 21
62.2390
 31
0.0000
  0
LINE
  5
2C1
  8
0
 10
3.0454
 20
62.2390
 30
0.0000
 11
6.0526
 21
61.7582
 31
0.0000
  0
LINE
  5
2C2
  8
0
 10
6.0526
 20
61.7582
 30
0.0000
 11
8.9836
 21
60.9634
 31
0.0000
  0
LINE
  5
2C3
  8
0
 10
8.9836
 20
60.9634
 30
0.0000
 11
11.8016
 21
59.8648
 31
0.0000
  0
LINE
  5
2C4
  8
0
 10
11.8016
 20
59.8648
 30
0.0000
 11
14.4713
 21
58.4761
 31
0.0000
  0
LINE
  5
2C5
  8
0
 10
14.4713
 20
58.4761
 30
0.0000
 11
16.9589
 21
56.8149
 31
0.0000
  0
LINE
  5
2C6
  8
0
 10
16.9589
 20
56.8149
 30
0.0000
 11
19.2333
 21
54.9019
 31
0.0000
  0
LINE
  5
2C7
  8
0
 10
19.2333
 20
54.9019
 30
0.0000
 11
21.2658
 21
52.7613
 31
0.0000
  0
LINE
  5
2C8
  8
0
 10
21.2658
 20
52.7613
 30
0.0000
 11
23.0309
 21
50.4200
 31
0.0000
  0
LINE
  5
2C9
  8
0
 10
23.0309
 20
50.4200
 30
0.0000
 11
24.5064
 21
47.9074
 31
0.0000
  0
LINE
  5
2CA
  8
0
 10
24.5064
 20
47.9074
 30
0.0000
 11
25.6736
 21
45.2551
 31
0.0000
  0
LINE
  5
2CB
  8
0
 10
25.6736
 20
45.2551
 30
0.0000
 11
26.5180
 21
42.4965
 31
0.0000
  0
LINE
  5
2CC
  8
0
 10
26.5180
 20
42.4965
 30
0.0000
 11
27.0290
 21
39.6663
 31
0.0000
  0
LINE
  5
2CD
  8
0
 10
27.0290
 20
39.6663
 30
0.0000
 11
27.2000
 21
36.8000
 31
0.0000
  0
LINE
  5
2CE
  8
0
 10
-27.2000
 20
36.8000
 30
0.0000
 11
27.2000
 21
36.8000
 31
0.0000
  0
ENDBLK
  8
0
  0
BLOCK
  8
0
  2
SS_gas_point_40x20
 70
0
 10
0.0000
 20
0.0000
 30
0.0000
  3
SS_gas_point_40x20
  1

  0
LINE
  5
2CF
  8
0
 10
0.0000
 20
0.0000
 30
0.0000
 11
0.0000
 21
4.0000
 31
0.0000
  0
LINE
  5
2D0
  8
0
 10
0.0000
 20
16.0000
 30
0.0000
 11
10.4000
 21
13.0000
 31
0.0000
  0
LINE
  5
2D1
  8
0
 10
10.4000
 20
13.0000
 30
0.0000
 11
10.4000
 21
7.0000
 31
0.0000
  0
LINE
  5
2D2
  8
0
 10
10.4000
 20
7.0000
 30
0.0000
 11
0.0000
 21
4.0000
 31
0.0000
  0
LINE
  5
2D3
  8
0
 10
0.0000
 20
4.0000
 30
0.0000
 11
-10.4000
 21
7.0000
 31
0.0000
  0
LINE
  5
2D4
  8
0
 10
-10.4000
 20
7.0000
 30
0.0000
 11
-10.4000
 21
13.0000
 31
0.0000
  0
LINE
  5
2D5
  8
0
 10
-10.4000
 20
13.0000
 30
0.0000
 11
0.0000
 21
16.0000
 31
0.0000
  0
TEXT
  5
2D6
  8
0
 10
0.0000
 20
10.0000
 30
0.0000
 40
24.0000
  1
G
 50
0.0000
  7
SOLINE
 72
1
 73
2
 11
0.0000
 21
10.0000
 31
0.0000
  0
ENDBLK
  8
0
  0
BLOCK
  8
0
  2
SS_water_point_40x20
 70
0
 10
0.0000
 20
0.0000
 30
0.0000
  3
SS_water_point_40x20
  1

  0
LINE
  5
2D7
  8
0
 10
0.0000
 20
0.0000
 30
0.0000
 11
0.0000
 21
4.6000
 31
0.0000
  0
LINE
  5
2D8
  8
0
 10
11.2000
 20
10.0000
 30
0.0000
 11
10.9848
 21
8.9075
 31
0.0000
  0
LINE
  5
2D9
  8
0
 10
10.9848
 20
8.9075
 30
0.0000
 11
10.3475
 21
7.8570
 31
0.0000
  0
LINE
  5
2DA
  8
0
 10
10.3475
 20
7.8570
 30
0.0000
 11
9.3125
 21
6.8888
 31
0.0000
  0
LINE
  5
2DB
  8
0
 10
9.3125
 20
6.8888
 30
0.0000
 11
7.9196
 21
6.0402
 31
0.0000
  0
LINE
  5
2DC
  8
0
 10
7.9196
 20
6.0402
 30
0.0000
 11
6.2224
 21
5.3438
 31
0.0000
  0
LINE
  5
2DD
  8
0
 10
6.2224
 20
5.3438
 30
0.0000
 11
4.2861
 21
4.8263
 31
0.0000
  0
LINE
  5
2DE
  8
0
 10
4.2861
 20
4.8263
 30
0.0000
 11
2.1850
 21
4.5076
 31
0.0000
  0
LINE
  5
2DF
  8
0
 10
2.1850
 20
4.5076
 30
0.0000
 11
0.0000
 21
4.4000
 31
0.0000
  0
LINE
  5
2E0
  8
0
 10
0.0000
 20
4.4000
 30
0.0000
 11
-2.1850
 21
4.5076
 31
0.0000
  0
LINE
  5
2E1
  8
0
 10
-2.1850
 20
4.5076
 30
0.0000
 11
-4.2861
 21
4.8263
 31
0.0000
  0
LINE
  5
2E2
  8
0
 10
-4.2861
 20
4.8263
 30
0.0000
 11
-6.2224
 21
5.3438
 31
0.0000
  0
LINE
  5
2E3
  8
0
 10
-6.2224
 20
5.3438
 30
0.0000
 11
-7.9196
 21
6.0402
 31
0.0000
  0
LINE
  5
2E4
  8
0
 10
-7.9196
 20
6.0402
 30
0.0000
 11
-9.3125
 21
6.8888
 31
0.0000
  0
LINE
  5
2E5
  8
0
 10
-9.3125
 20
6.8888
 30
0.0000
 11
-10.3475
 21
7.8570
 31
0.0000
  0
LINE
  5
2E6
  8
0
 10
-10.3475
 20
7.8570
 30
0.0000
 11
-10.9848
 21
8.9075
 31
0.0000
  0
LINE
  5
2E7
  8
0
 10
-10.9848
 20
8.9075
 30
0.0000
 11
-11.2000
 21
10.0000
 31
0.0000
  0
LINE
  5
2E8
  8
0
 10
-11.2000
 20
10.0000
 30
0.0000
 11
-10.9848
 21
11.0925
 31
0.0000
  0
LINE
  5
2E9
  8
0
 10
-10.9848
 20
11.0925
 30
0.0000
 11
-10.3475
 21
12.1430
 31
0.0000
  0
LINE
  5
2EA
  8
0
 10
-10.3475
 20
12.1430
 30
0.0000
 11
-9.3125
 21
13.1112
 31
0.0000
  0
LINE
  5
2EB
  8
0
 10
-9.3125
 20
13.1112
 30
0.0000
 11
-7.9196
 21
13.9598
 31
0.0000
  0
LINE
  5
2EC
  8
0
 10
-7.9196
 20
13.9598
 30
0.0000
 11
-6.2224
 21
14.6562
 31
0.0000
  0
LINE
  5
2ED
  8
0
 10
-6.2224
 20
14.6562
 30
0.0000
 11
-4.2861
 21
15.1737
 31
0.0000
  0
LINE
  5
2EE
  8
0
 10
-4.2861
 20
15.1737
 30
0.0000
 11
-2.1850
 21
15.4924
 31
0.0000
  0
LINE
  5
2EF
  8
0
 10
-2.1850
 20
15.4924
 30
0.0000
 11
0.0000
 21
15.6000
 31
0.0000
  0
LINE
  5
2F0
  8
0
 10
0.0000
 20
15.6000
 30
0.0000
 11
2.1850
 21
15.4924
 31
0.0000
  0
LINE
  5
2F1
  8
0
 10
2.1850
 20
15.4924
 30
0.0000
 11
4.2861
 21
15.1737
 31
0.0000
  0
LINE
  5
2F2
  8
0
 10
4.2861
 20
15.1737
 30
0.0000
 11
6.2224
 21
14.6562
 31
0.0000
  0
LINE
  5
2F3
  8
0
 10
6.2224
 20
14.6562
 30
0.0000
 11
7.9196
 21
13.9598
 31
0.0000
  0
LINE
  5
2F4
  8
0
 10
7.9196
 20
13.9598
 30
0.0000
 11
9.3125
 21
13.1112
 31
0.0000
  0
LINE
  5
2F5
  8
0
 10
9.3125
 20
13.1112
 30
0.0000
 11
10.3475
 21
12.1430
 31
0.0000
  0
LINE
  5
2F6
  8
0
 10
10.3475
 20
12.1430
 30
0.0000
 11
10.9848
 21
11.0925
 31
0.0000
  0
LINE
  5
2F7
  8
0
 10
10.9848
 20
11.0925
 30
0.0000
 11
11.2000
 21
10.0000
 31
0.0000
  0
LINE
  5
2F8
  8
0
 10
-9.6000
 20
10.0000
 30
0.0000
 11
9.6000
 21
10.0000
 31
0.0000
  0
LINE
  5
2F9
  8
0
 10
0.0000
 20
14.8000
 30
0.0000
 11
0.0000
 21
5.2000
 31
0.0000
  0
ENDBLK
  8
0
  0
ENDSEC
  0
SECTION
  2
ENTITIES
  0
SOLID
  5
100
  8
קירות-מילוי
 10
1318.7500
 20
-85.0000
 30
0.0000
 11
5518.7500
 21
-85.0000
 31
0.0000
 12
1418.7500
 22
-185.0000
 32
0.0000
 13
5418.7500
 23
-185.0000
 33
0.0000
  0
LINE
  5
101
  8
קירות
 10
1318.7500
 20
-85.0000
 30
0.0000
 11
5518.7500
 21
-85.0000
 31
0.0000
  0
LINE
  5
102
  8
קירות
 10
1418.7500
 20
-185.0000
 30
0.0000
 11
5418.7500
 21
-185.0000
 31
0.0000
  0
SOLID
  5
103
  8
קירות-מילוי
 10
5518.7500
 20
-85.0000
 30
0.0000
 11
5518.7500
 21
-3285.0000
 31
0.0000
 12
5418.7500
 22
-185.0000
 32
0.0000
 13
5418.7500
 23
-3185.0000
 33
0.0000
  0
LINE
  5
104
  8
קירות
 10
5518.7500
 20
-85.0000
 30
0.0000
 11
5518.7500
 21
-3285.0000
 31
0.0000
  0
LINE
  5
105
  8
קירות
 10
5418.7500
 20
-185.0000
 30
0.0000
 11
5418.7500
 21
-3185.0000
 31
0.0000
  0
SOLID
  5
106
  8
קירות-מילוי
 10
5518.7500
 20
-3285.0000
 30
0.0000
 11
1318.7500
 21
-3285.0000
 31
0.0000
 12
5418.7500
 22
-3185.0000
 32
0.0000
 13
1418.7500
 23
-3185.0000
 33
0.0000
  0
LINE
  5
107
  8
קירות
 10
5518.7500
 20
-3285.0000
 30
0.0000
 11
1318.7500
 21
-3285.0000
 31
0.0000
  0
LINE
  5
108
  8
קירות
 10
5418.7500
 20
-3185.0000
 30
0.0000
 11
1418.7500
 21
-3185.0000
 31
0.0000
  0
SOLID
  5
109
  8
קירות-מילוי
 10
1318.7500
 20
-3285.0000
 30
0.0000
 11
1318.7500
 21
-85.0000
 31
0.0000
 12
1418.7500
 22
-3185.0000
 32
0.0000
 13
1418.7500
 23
-185.0000
 33
0.0000
  0
LINE
  5
10A
  8
קירות
 10
1318.7500
 20
-3285.0000
 30
0.0000
 11
1318.7500
 21
-85.0000
 31
0.0000
  0
LINE
  5
10B
  8
קירות
 10
1418.7500
 20
-3185.0000
 30
0.0000
 11
1418.7500
 21
-185.0000
 31
0.0000
  0
LINE
  5
10C
  8
חלונות
 10
2818.7500
 20
-275.0000
 30
0.0000
 11
4018.7500
 21
-275.0000
 31
0.0000
  0
LINE
  5
10D
  8
חלונות
 10
4018.7500
 20
-275.0000
 30
0.0000
 11
4018.7500
 21
-175.0000
 31
0.0000
  0
LINE
  5
10E
  8
חלונות
 10
4018.7500
 20
-175.0000
 30
0.0000
 11
2818.7500
 21
-175.0000
 31
0.0000
  0
LINE
  5
10F
  8
חלונות
 10
2818.7500
 20
-175.0000
 30
0.0000
 11
2818.7500
 21
-275.0000
 31
0.0000
  0
LINE
  5
110
  8
חלונות
 10
2868.7500
 20
-275.0000
 30
0.0000
 11
2868.7500
 21
-175.0000
 31
0.0000
  0
LINE
  5
111
  8
חלונות
 10
3968.7500
 20
-275.0000
 30
0.0000
 11
3968.7500
 21
-175.0000
 31
0.0000
  0
LINE
  5
112
  8
חלונות
 10
2868.7500
 20
-225.0000
 30
0.0000
 11
3968.7500
 21
-225.0000
 31
0.0000
  0
LINE
  5
113
  8
חלונות
 10
2868.7500
 20
-225.0000
 30
0.0000
 11
3968.7500
 21
-225.0000
 31
0.0000
  0
LINE
  5
114
  8
חלונות
 10
2868.7500
 20
-225.0000
 30
0.0000
 11
3968.7500
 21
-225.0000
 31
0.0000
  0
TEXT
  5
115
  8
חלונות-טקסט
 10
3418.7500
 20
0.0000
 30
0.0000
 40
125.0000
  1
W1
 50
0.0000
  7
SOLINE
 72
1
 73
2
 11
3418.7500
 21
0.0000
 31
0.0000
  0
LINE
  5
116
  8
דלתות
 10
3318.7500
 20
-3095.0000
 30
0.0000
 11
2518.7500
 21
-3095.0000
 31
0.0000
  0
LINE
  5
117
  8
דלתות
 10
2518.7500
 20
-3095.0000
 30
0.0000
 11
2518.7500
 21
-3195.0000
 31
0.0000
  0
LINE
  5
118
  8
דלתות
 10
2518.7500
 20
-3195.0000
 30
0.0000
 11
3318.7500
 21
-3195.0000
 31
0.0000
  0
LINE
  5
119
  8
דלתות
 10
3318.7500
 20
-3195.0000
 30
0.0000
 11
3318.7500
 21
-3095.0000
 31
0.0000
  0
LINE
  5
11A
  8
דלתות
 10
3278.7500
 20
-3095.0000
 30
0.0000
 11
3278.7500
 21
-3195.0000
 31
0.0000
  0
LINE
  5
11B
  8
דלתות
 10
2558.7500
 20
-3095.0000
 30
0.0000
 11
2558.7500
 21
-3195.0000
 31
0.0000
  0
LINE
  5
11C
  8
דלתות
 10
3278.7500
 20
-3145.0000
 30
0.0000
 11
2558.7500
 21
-3145.0000
 31
0.0000
  0
LINE
  5
11D
  8
דלתות
 10
3278.7500
 20
-3145.0000
 30
0.0000
 11
3278.7500
 21
-2425.0000
 31
0.0000
  0
ARC
  5
11E
  8
דלתות
 10
3278.7500
 20
-3145.0000
 30
0.0000
 40
720.0000
 50
90.0000
 51
180.0000
  0
TEXT
  5
11F
  8
דלתות-טקסט
 10
2918.7500
 20
-3370.0000
 30
0.0000
 40
125.0000
  1
D1
 50
0.0000
  7
SOLINE
 72
1
 73
2
 11
2918.7500
 21
-3370.0000
 31
0.0000
  0
INSERT
  5
120
  8
חשמל
  2
SS_socket_single_85x80
 10
2218.7500
 20
-225.0000
 30
0.0000
 41
1.0000
 42
1.0000
 43
1.0000
 50
0.0000
  0
INSERT
  5
121
  8
גז
  2
SS_gas_point_40x20
 10
3918.7500
 20
-225.0000
 30
0.0000
 41
1.0000
 42
1.0000
 43
1.0000
 50
0.0000
  0
INSERT
  5
122
  8
מים
  2
SS_water_point_40x20
 10
5378.7500
 20
-1685.0000
 30
0.0000
 41
1.0000
 42
1.0000
 43
1.0000
 50
90.0000
  0
LINE
  5
123
  8
מידות-פנים
 10
1418.7500
 20
-3235.0000
 30
0.0000
 11
1418.7500
 21
-4560.0000
 31
0.0000
  0
LINE
  5
124
  8
מידות-פנים
 10
5418.7500
 20
-3235.0000
 30
0.0000
 11
5418.7500
 21
-4560.0000
 31
0.0000
  0
LINE
  5
125
  8
מידות-פנים
 10
1418.7500
 20
-4485.0000
 30
0.0000
 11
5418.7500
 21
-4485.0000
 31
0.0000
  0
SOLID
  5
126
  8
מידות-פנים
 10
1418.7500
 20
-4485.0000
 30
0.0000
 11
1275.0000
 21
-4525.0000
 31
0.0000
 12
1275.0000
 22
-4445.0000
 32
0.0000
 13
1275.0000
 23
-4445.0000
 33
0.0000
  0
SOLID
  5
127
  8
מידות-פנים
 10
5418.7500
 20
-4485.0000
 30
0.0000
 11
5562.5000
 21
-4525.0000
 31
0.0000
 12
5562.5000
 22
-4445.0000
 32
0.0000
 13
5562.5000
 23
-4445.0000
 33
0.0000
  0
TEXT
  5
128
  8
מידות-פנים
 10
3418.7500
 20
-4603.7500
 30
0.0000
 40
125.0000
  1
400
 50
0.0000
  7
SOLINE
 72
1
 73
2
 11
3418.7500
 21
-4603.7500
 31
0.0000
  0
LINE
  5
129
  8
מידות-פנים
 10
1368.7500
 20
-3185.0000
 30
0.0000
 11
43.7500
 21
-3185.0000
 31
0.0000
  0
LINE
  5
12A
  8
מידות-פנים
 10
1368.7500
 20
-185.0000
 30
0.0000
 11
43.7500
 21
-185.0000
 31
0.0000
  0
LINE
  5
12B
  8
מידות-פנים
 10
118.7500
 20
-3185.0000
 30
0.0000
 11
118.7500
 21
-185.0000
 31
0.0000
  0
SOLID
  5
12C
  8
מידות-פנים
 10
118.7500
 20
-3185.0000
 30
0.0000
 11
78.7500
 21
-3328.7500
 31
0.0000
 12
158.7500
 22
-3328.7500
 32
0.0000
 13
158.7500
 23
-3328.7500
 33
0.0000
  0
SOLID
  5
12D
  8
מידות-פנים
 10
118.7500
 20
-185.0000
 30
0.0000
 11
78.7500
 21
-41.2500
 31
0.0000
 12
158.7500
 22
-41.2500
 32
0.0000
 13
158.7500
 23
-41.2500
 33
0.0000
  0
TEXT
  5
12E
  8
מידות-פנים
 10
0.0000
 20
-1685.0000
 30
0.0000
 40
125.0000
  1
300
 50
90.0000
  7
SOLINE
 72
1
 73
2
 11
0.0000
 21
-1685.0000
 31
0.0000
  0
LINE
  5
12F
  8
מסגרת
 10
23200.0000
 20
0.0000
 30
0.0000
 11
25950.0000
 21
0.0000
 31
0.0000
  0
LINE
  5
130
  8
מסגרת
 10
25950.0000
 20
0.0000
 30
0.0000
 11
25950.0000
 21
-3388.1250
 31
0.0000
  0
LINE
  5
131
  8
מסגרת
 10
25950.0000
 20
-3388.1250
 30
0.0000
 11
23200.0000
 21
-3388.1250
 31
0.0000
  0
LINE
  5
132
  8
מסגרת
 10
23200.0000
 20
-3388.1250
 30
0.0000
 11
23200.0000
 21
0.0000
 31
0.0000
  0
LINE
  5
133
  8
מסגרת
 10
23200.0000
 20
-560.6250
 30
0.0000
 11
25950.0000
 21
-560.6250
 31
0.0000
  0
LINE
  5
134
  8
מסגרת
 10
23275.0000
 20
-498.1250
 30
0.0000
 11
23850.0000
 21
-498.1250
 31
0.0000
  0
LINE
  5
135
  8
מסגרת
 10
23850.0000
 20
-498.1250
 30
0.0000
 11
23850.0000
 21
-62.5000
 31
0.0000
  0
LINE
  5
136
  8
מסגרת
 10
23850.0000
 20
-62.5000
 30
0.0000
 11
23275.0000
 21
-62.5000
 31
0.0000
  0
LINE
  5
137
  8
מסגרת
 10
23275.0000
 20
-62.5000
 30
0.0000
 11
23275.0000
 21
-498.1250
 31
0.0000
  0
TEXT
  5
138
  8
מסגרת
 10
23925.0000
 20
-246.6750
 30
0.0000
 40
250.0000
  1
SOLINE
 50
0.0000
  7
SOLINE
 73
2
 11
23925.0000
 21
-246.6750
 31
0.0000
  0
TEXT
  5
139
  8
מקרא
 10
23562.5000
 20
-459.7125
 30
0.0000
 40
68.7500
  1
brand/soline-logo.png
 50
0.0000
  7
SOLINE
 72
1
 73
2
 11
23562.5000
 21
-459.7125
 31
0.0000
  0
TEXT
  5
13A
  8
מסגרת
 10
23275.0000
 20
-731.2500
 30
0.0000
 40
102.5000
  1
Project:
 50
0.0000
  7
SOLINE
 73
2
 11
23275.0000
 21
-731.2500
 31
0.0000
  0
TEXT
  5
13B
  8
מסגרת
 10
25875.0000
 20
-731.2500
 30
0.0000
 40
110.0000
  1
(synthetic scene)
 50
0.0000
  7
SOLINE
 72
2
 73
2
 11
25875.0000
 21
-731.2500
 31
0.0000
  0
TEXT
  5
13C
  8
מסגרת
 10
23275.0000
 20
-975.0000
 30
0.0000
 40
102.5000
  1
Client:
 50
0.0000
  7
SOLINE
 73
2
 11
23275.0000
 21
-975.0000
 31
0.0000
  0
TEXT
  5
13D
  8
מסגרת
 10
25875.0000
 20
-975.0000
 30
0.0000
 40
110.0000
  1
-
 50
0.0000
  7
SOLINE
 72
2
 73
2
 11
25875.0000
 21
-975.0000
 31
0.0000
  0
TEXT
  5
13E
  8
מסגרת
 10
23275.0000
 20
-1218.7500
 30
0.0000
 40
102.5000
  1
Address:
 50
0.0000
  7
SOLINE
 73
2
 11
23275.0000
 21
-1218.7500
 31
0.0000
  0
TEXT
  5
13F
  8
מסגרת
 10
25875.0000
 20
-1218.7500
 30
0.0000
 40
110.0000
  1
-
 50
0.0000
  7
SOLINE
 72
2
 73
2
 11
25875.0000
 21
-1218.7500
 31
0.0000
  0
TEXT
  5
140
  8
מסגרת
 10
23275.0000
 20
-1462.5000
 30
0.0000
 40
102.5000
  1
Drawing:
 50
0.0000
  7
SOLINE
 73
2
 11
23275.0000
 21
-1462.5000
 31
0.0000
  0
TEXT
  5
141
  8
מסגרת
 10
25875.0000
 20
-1462.5000
 30
0.0000
 40
110.0000
  1
Measurement Plan
 50
0.0000
  7
SOLINE
 72
2
 73
2
 11
25875.0000
 21
-1462.5000
 31
0.0000
  0
TEXT
  5
142
  8
מסגרת
 10
23275.0000
 20
-1706.2500
 30
0.0000
 40
102.5000
  1
Scale:
 50
0.0000
  7
SOLINE
 73
2
 11
23275.0000
 21
-1706.2500
 31
0.0000
  0
TEXT
  5
143
  8
מסגרת
 10
25875.0000
 20
-1706.2500
 30
0.0000
 40
110.0000
  1
1:50  (mm)
 50
0.0000
  7
SOLINE
 72
2
 73
2
 11
25875.0000
 21
-1706.2500
 31
0.0000
  0
TEXT
  5
144
  8
מסגרת
 10
23275.0000
 20
-1950.0000
 30
0.0000
 40
102.5000
  1
Date:
 50
0.0000
  7
SOLINE
 73
2
 11
23275.0000
 21
-1950.0000
 31
0.0000
  0
TEXT
  5
145
  8
מסגרת
 10
25875.0000
 20
-1950.0000
 30
0.0000
 40
110.0000
  1
2026-08-24
 50
0.0000
  7
SOLINE
 72
2
 73
2
 11
25875.0000
 21
-1950.0000
 31
0.0000
  0
TEXT
  5
146
  8
מסגרת
 10
23275.0000
 20
-2193.7500
 30
0.0000
 40
102.5000
  1
Surveyor:
 50
0.0000
  7
SOLINE
 73
2
 11
23275.0000
 21
-2193.7500
 31
0.0000
  0
TEXT
  5
147
  8
מסגרת
 10
25875.0000
 20
-2193.7500
 30
0.0000
 40
110.0000
  1
-
 50
0.0000
  7
SOLINE
 72
2
 73
2
 11
25875.0000
 21
-2193.7500
 31
0.0000
  0
TEXT
  5
148
  8
מסגרת
 10
23275.0000
 20
-2437.5000
 30
0.0000
 40
102.5000
  1
Checked:
 50
0.0000
  7
SOLINE
 73
2
 11
23275.0000
 21
-2437.5000
 31
0.0000
  0
TEXT
  5
149
  8
מסגרת
 10
25875.0000
 20
-2437.5000
 30
0.0000
 40
110.0000
  1
-
 50
0.0000
  7
SOLINE
 72
2
 73
2
 11
25875.0000
 21
-2437.5000
 31
0.0000
  0
TEXT
  5
14A
  8
מסגרת
 10
23275.0000
 20
-2681.2500
 30
0.0000
 40
102.5000
  1
Drawing No:
 50
0.0000
  7
SOLINE
 73
2
 11
23275.0000
 21
-2681.2500
 31
0.0000
  0
TEXT
  5
14B
  8
מסגרת
 10
25875.0000
 20
-2681.2500
 30
0.0000
 40
110.0000
  1
M-01
 50
0.0000
  7
SOLINE
 72
2
 73
2
 11
25875.0000
 21
-2681.2500
 31
0.0000
  0
TEXT
  5
14C
  8
מסגרת
 10
23275.0000
 20
-2925.0000
 30
0.0000
 40
102.5000
  1
Sheet:
 50
0.0000
  7
SOLINE
 73
2
 11
23275.0000
 21
-2925.0000
 31
0.0000
  0
TEXT
  5
14D
  8
מסגרת
 10
25875.0000
 20
-2925.0000
 30
0.0000
 40
110.0000
  1
1/1
 50
0.0000
  7
SOLINE
 72
2
 73
2
 11
25875.0000
 21
-2925.0000
 31
0.0000
  0
TEXT
  5
14E
  8
מסגרת
 10
23275.0000
 20
-3168.7500
 30
0.0000
 40
102.5000
  1
Revision:
 50
0.0000
  7
SOLINE
 73
2
 11
23275.0000
 21
-3168.7500
 31
0.0000
  0
TEXT
  5
14F
  8
מסגרת
 10
25875.0000
 20
-3168.7500
 30
0.0000
 40
110.0000
  1
0
 50
0.0000
  7
SOLINE
 72
2
 73
2
 11
25875.0000
 21
-3168.7500
 31
0.0000
  0
LINE
  5
150
  8
מסגרת
 10
23200.0000
 20
-3763.1250
 30
0.0000
 11
25950.0000
 21
-3763.1250
 31
0.0000
  0
LINE
  5
151
  8
מסגרת
 10
25950.0000
 20
-3763.1250
 30
0.0000
 11
25950.0000
 21
-5143.1250
 31
0.0000
  0
LINE
  5
152
  8
מסגרת
 10
25950.0000
 20
-5143.1250
 30
0.0000
 11
23200.0000
 21
-5143.1250
 31
0.0000
  0
LINE
  5
153
  8
מסגרת
 10
23200.0000
 20
-5143.1250
 30
0.0000
 11
23200.0000
 21
-3763.1250
 31
0.0000
  0
LINE
  5
154
  8
מסגרת
 10
23200.0000
 20
-4123.1250
 30
0.0000
 11
25950.0000
 21
-4123.1250
 31
0.0000
  0
TEXT
  5
155
  8
מקרא
 10
25875.0000
 20
-3979.1250
 30
0.0000
 40
175.0000
  1
טבלת מפרט פתחים
 50
0.0000
  7
SOLINE
 72
2
 73
2
 11
25875.0000
 21
-3979.1250
 31
0.0000
  0
TEXT
  5
156
  8
מקרא
 10
25867.5000
 20
-4303.1250
 30
0.0000
 40
112.5000
  1
מס'
 50
0.0000
  7
SOLINE
 72
2
 73
2
 11
25867.5000
 21
-4303.1250
 31
0.0000
  0
TEXT
  5
157
  8
מקרא
 10
25400.0000
 20
-4303.1250
 30
0.0000
 40
112.5000
  1
סוג
 50
0.0000
  7
SOLINE
 72
2
 73
2
 11
25400.0000
 21
-4303.1250
 31
0.0000
  0
TEXT
  5
158
  8
מקרא
 10
24712.5000
 20
-4303.1250
 30
0.0000
 40
112.5000
  1
רוחבxגובה
 50
0.0000
  7
SOLINE
 72
2
 73
2
 11
24712.5000
 21
-4303.1250
 31
0.0000
  0
TEXT
  5
159
  8
מקרא
 10
24080.0000
 20
-4303.1250
 30
0.0000
 40
112.5000
  1
כיוון
 50
0.0000
  7
SOLINE
 72
2
 73
2
 11
24080.0000
 21
-4303.1250
 31
0.0000
  0
TEXT
  5
15A
  8
מקרא
 10
23557.5000
 20
-4303.1250
 30
0.0000
 40
112.5000
  1
כמות
 50
0.0000
  7
SOLINE
 72
2
 73
2
 11
23557.5000
 21
-4303.1250
 31
0.0000
  0
LINE
  5
15B
  8
מקרא
 10
23250.0000
 20
-4468.1250
 30
0.0000
 11
25900.0000
 21
-4468.1250
 31
0.0000
  0
TEXT
  5
15C
  8
מסגרת
 10
25867.5000
 20
-4603.1250
 30
0.0000
 40
112.5000
  1
D1
 50
0.0000
  7
SOLINE
 72
2
 73
2
 11
25867.5000
 21
-4603.1250
 31
0.0000
  0
TEXT
  5
15D
  8
מקרא
 10
25400.0000
 20
-4603.1250
 30
0.0000
 40
112.5000
  1
דלת פנים שמאל
 50
0.0000
  7
SOLINE
 72
2
 73
2
 11
25400.0000
 21
-4603.1250
 31
0.0000
  0
TEXT
  5
15E
  8
מסגרת
 10
24712.5000
 20
-4603.1250
 30
0.0000
 40
112.5000
  1
800x2050
 50
0.0000
  7
SOLINE
 72
2
 73
2
 11
24712.5000
 21
-4603.1250
 31
0.0000
  0
TEXT
  5
15F
  8
מקרא
 10
24080.0000
 20
-4603.1250
 30
0.0000
 40
112.5000
  1
שמאל פנימה
 50
0.0000
  7
SOLINE
 72
2
 73
2
 11
24080.0000
 21
-4603.1250
 31
0.0000
  0
TEXT
  5
160
  8
מסגרת
 10
23557.5000
 20
-4603.1250
 30
0.0000
 40
112.5000
  1
x1
 50
0.0000
  7
SOLINE
 72
2
 73
2
 11
23557.5000
 21
-4603.1250
 31
0.0000
  0
TEXT
  5
161
  8
מסגרת
 10
25867.5000
 20
-4903.1250
 30
0.0000
 40
112.5000
  1
W1
 50
0.0000
  7
SOLINE
 72
2
 73
2
 11
25867.5000
 21
-4903.1250
 31
0.0000
  0
TEXT
  5
162
  8
מקרא
 10
25400.0000
 20
-4903.1250
 30
0.0000
 40
112.5000
  1
חלון
 50
0.0000
  7
SOLINE
 72
2
 73
2
 11
25400.0000
 21
-4903.1250
 31
0.0000
  0
TEXT
  5
163
  8
מסגרת
 10
24712.5000
 20
-4903.1250
 30
0.0000
 40
112.5000
  1
1200x1440
 50
0.0000
  7
SOLINE
 72
2
 73
2
 11
24712.5000
 21
-4903.1250
 31
0.0000
  0
TEXT
  5
164
  8
מקרא
 10
24080.0000
 20
-4903.1250
 30
0.0000
 40
112.5000
  1
-
 50
0.0000
  7
SOLINE
 72
2
 73
2
 11
24080.0000
 21
-4903.1250
 31
0.0000
  0
TEXT
  5
165
  8
מסגרת
 10
23557.5000
 20
-4903.1250
 30
0.0000
 40
112.5000
  1
x1
 50
0.0000
  7
SOLINE
 72
2
 73
2
 11
23557.5000
 21
-4903.1250
 31
0.0000
  0
LINE
  5
166
  8
מסגרת
 10
23200.0000
 20
-5518.1250
 30
0.0000
 11
25950.0000
 21
-5518.1250
 31
0.0000
  0
LINE
  5
167
  8
מסגרת
 10
25950.0000
 20
-5518.1250
 30
0.0000
 11
25950.0000
 21
-9353.1250
 31
0.0000
  0
LINE
  5
168
  8
מסגרת
 10
25950.0000
 20
-9353.1250
 30
0.0000
 11
23200.0000
 21
-9353.1250
 31
0.0000
  0
LINE
  5
169
  8
מסגרת
 10
23200.0000
 20
-9353.1250
 30
0.0000
 11
23200.0000
 21
-5518.1250
 31
0.0000
  0
LINE
  5
16A
  8
מסגרת
 10
23200.0000
 20
-5908.1250
 30
0.0000
 11
25950.0000
 21
-5908.1250
 31
0.0000
  0
TEXT
  5
16B
  8
מקרא
 10
25875.0000
 20
-5752.1250
 30
0.0000
 40
175.0000
  1
מקרא וספירת אלמנטים
 50
0.0000
  7
SOLINE
 72
2
 73
2
 11
25875.0000
 21
-5752.1250
 31
0.0000
  0
TEXT
  5
16C
  8
מקרא
 10
25875.0000
 20
-6086.8750
 30
0.0000
 40
131.2500
  1
דלת  (1)
 50
0.0000
  7
SOLINE
 72
2
 73
2
 11
25875.0000
 21
-6086.8750
 31
0.0000
  0
LINE
  5
16D
  8
דלתות
 10
23379.3750
 20
-6501.1250
 30
0.0000
 11
23379.3750
 21
-6479.8750
 31
0.0000
  0
LINE
  5
16E
  8
דלתות
 10
23570.6250
 20
-6501.1250
 30
0.0000
 11
23570.6250
 21
-6479.8750
 31
0.0000
  0
LINE
  5
16F
  8
דלתות
 10
23379.3750
 20
-6309.8750
 30
0.0000
 11
23391.0625
 21
-6309.8750
 31
0.0000
  0
LINE
  5
170
  8
דלתות
 10
23391.0625
 20
-6309.8750
 30
0.0000
 11
23391.0625
 21
-6501.1250
 31
0.0000
  0
LINE
  5
171
  8
דלתות
 10
23391.0625
 20
-6501.1250
 30
0.0000
 11
23379.3750
 21
-6501.1250
 31
0.0000
  0
LINE
  5
172
  8
דלתות
 10
23379.3750
 20
-6501.1250
 30
0.0000
 11
23379.3750
 21
-6309.8750
 31
0.0000
  0
LINE
  5
173
  8
דלתות
 10
23379.3750
 20
-6309.8750
 30
0.0000
 11
23390.0985
 21
-6310.1759
 31
0.0000
  0
LINE
  5
174
  8
דלתות
 10
23390.0985
 20
-6310.1759
 30
0.0000
 11
23400.7882
 21
-6311.0775
 31
0.0000
  0
LINE
  5
175
  8
דלתות
 10
23400.7882
 20
-6311.0775
 30
0.0000
 11
23411.4106
 21
-6312.5772
 31
0.0000
  0
LINE
  5
176
  8
דלתות
 10
23411.4106
 20
-6312.5772
 30
0.0000
 11
23421.9321
 21
-6314.6700
 31
0.0000
  0
LINE
  5
177
  8
דלתות
 10
23421.9321
 20
-6314.6700
 30
0.0000
 11
23432.3198
 21
-6317.3496
 31
0.0000
  0
LINE
  5
178
  8
דלתות
 10
23432.3198
 20
-6317.3496
 30
0.0000
 11
23442.5409
 21
-6320.6073
 31
0.0000
  0
LINE
  5
179
  8
דלתות
 10
23442.5409
 20
-6320.6073
 30
0.0000
 11
23452.5632
 21
-6324.4330
 31
0.0000
  0
LINE
  5
17A
  8
דלתות
 10
23452.5632
 20
-6324.4330
 30
0.0000
 11
23462.3553
 21
-6328.8147
 31
0.0000
  0
LINE
  5
17B
  8
דלתות
 10
23462.3553
 20
-6328.8147
 30
0.0000
 11
23471.8862
 21
-6333.7385
 31
0.0000
  0
LINE
  5
17C
  8
דלתות
 10
23471.8862
 20
-6333.7385
 30
0.0000
 11
23481.1261
 21
-6339.1890
 31
0.0000
  0
LINE
  5
17D
  8
דלתות
 10
23481.1261
 20
-6339.1890
 30
0.0000
 11
23490.0459
 21
-6345.1490
 31
0.0000
  0
LINE
  5
17E
  8
דלתות
 10
23490.0459
 20
-6345.1490
 30
0.0000
 11
23498.6174
 21
-6351.5997
 31
0.0000
  0
LINE
  5
17F
  8
דלתות
 10
23498.6174
 20
-6351.5997
 30
0.0000
 11
23506.8138
 21
-6358.5209
 31
0.0000
  0
LINE
  5
180
  8
דלתות
 10
23506.8138
 20
-6358.5209
 30
0.0000
 11
23514.6092
 21
-6365.8908
 31
0.0000
  0
LINE
  5
181
  8
דלתות
 10
23514.6092
 20
-6365.8908
 30
0.0000
 11
23521.9791
 21
-6373.6862
 31
0.0000
  0
LINE
  5
182
  8
דלתות
 10
23521.9791
 20
-6373.6862
 30
0.0000
 11
23528.9003
 21
-6381.8826
 31
0.0000
  0
LINE
  5
183
  8
דלתות
 10
23528.9003
 20
-6381.8826
 30
0.0000
 11
23535.3510
 21
-6390.4541
 31
0.0000
  0
LINE
  5
184
  8
דלתות
 10
23535.3510
 20
-6390.4541
 30
0.0000
 11
23541.3110
 21
-6399.3739
 31
0.0000
  0
LINE
  5
185
  8
דלתות
 10
23541.3110
 20
-6399.3739
 30
0.0000
 11
23546.7615
 21
-6408.6138
 31
0.0000
  0
LINE
  5
186
  8
דלתות
 10
23546.7615
 20
-6408.6138
 30
0.0000
 11
23551.6853
 21
-6418.1447
 31
0.0000
  0
LINE
  5
187
  8
דלתות
 10
23551.6853
 20
-6418.1447
 30
0.0000
 11
23556.0670
 21
-6427.9368
 31
0.0000
  0
LINE
  5
188
  8
דלתות
 10
23556.0670
 20
-6427.9368
 30
0.0000
 11
23559.8927
 21
-6437.9591
 31
0.0000
  0
LINE
  5
189
  8
דלתות
 10
23559.8927
 20
-6437.9591
 30
0.0000
 11
23563.1504
 21
-6448.1802
 31
0.0000
  0
LINE
  5
18A
  8
דלתות
 10
23563.1504
 20
-6448.1802
 30
0.0000
 11
23565.8300
 21
-6458.5679
 31
0.0000
  0
LINE
  5
18B
  8
דלתות
 10
23565.8300
 20
-6458.5679
 30
0.0000
 11
23567.9228
 21
-6469.0894
 31
0.0000
  0
LINE
  5
18C
  8
דלתות
 10
23567.9228
 20
-6469.0894
 30
0.0000
 11
23569.4225
 21
-6479.7118
 31
0.0000
  0
LINE
  5
18D
  8
דלתות
 10
23569.4225
 20
-6479.7118
 30
0.0000
 11
23570.3241
 21
-6490.4015
 31
0.0000
  0
LINE
  5
18E
  8
דלתות
 10
23570.3241
 20
-6490.4015
 30
0.0000
 11
23570.6250
 21
-6501.1250
 31
0.0000
  0
TEXT
  5
18F
  8
מקרא
 10
23775.0000
 20
-6411.8750
 30
0.0000
 40
112.5000
  1
x1
 50
0.0000
  7
SOLINE
 73
2
 11
23775.0000
 21
-6411.8750
 31
0.0000
  0
TEXT
  5
190
  8
מקרא
 10
25875.0000
 20
-6411.8750
 30
0.0000
 40
125.0000
  1
דלת
 50
0.0000
  7
SOLINE
 72
2
 73
2
 11
25875.0000
 21
-6411.8750
 31
0.0000
  0
TEXT
  5
191
  8
מקרא
 10
25875.0000
 20
-6736.8750
 30
0.0000
 40
131.2500
  1
חשמל  (1)
 50
0.0000
  7
SOLINE
 72
2
 73
2
 11
25875.0000
 21
-6736.8750
 31
0.0000
  0
LINE
  5
192
  8
חשמל
 10
23475.0000
 20
-7151.1250
 30
0.0000
 11
23475.0000
 21
-7053.3750
 31
0.0000
  0
LINE
  5
193
  8
חשמל
 10
23407.0000
 20
-7053.3750
 30
0.0000
 11
23407.4276
 21
-7045.7614
 31
0.0000
  0
LINE
  5
194
  8
חשמל
 10
23407.4276
 20
-7045.7614
 30
0.0000
 11
23408.7049
 21
-7038.2436
 31
0.0000
  0
LINE
  5
195
  8
חשמל
 10
23408.7049
 20
-7038.2436
 30
0.0000
 11
23410.8159
 21
-7030.9160
 31
0.0000
  0
LINE
  5
196
  8
חשמל
 10
23410.8159
 20
-7030.9160
 30
0.0000
 11
23413.7341
 21
-7023.8709
 31
0.0000
  0
LINE
  5
197
  8
חשמל
 10
23413.7341
 20
-7023.8709
 30
0.0000
 11
23417.4228
 21
-7017.1968
 31
0.0000
  0
LINE
  5
198
  8
חשמל
 10
23417.4228
 20
-7017.1968
 30
0.0000
 11
23421.8355
 21
-7010.9777
 31
0.0000
  0
LINE
  5
199
  8
חשמל
 10
23421.8355
 20
-7010.9777
 30
0.0000
 11
23426.9167
 21
-7005.2917
 31
0.0000
  0
LINE
  5
19A
  8
חשמל
 10
23426.9167
 20
-7005.2917
 30
0.0000
 11
23432.6027
 21
-7000.2105
 31
0.0000
  0
LINE
  5
19B
  8
חשמל
 10
23432.6027
 20
-7000.2105
 30
0.0000
 11
23438.8218
 21
-6995.7978
 31
0.0000
  0
LINE
  5
19C
  8
חשמל
 10
23438.8218
 20
-6995.7978
 30
0.0000
 11
23445.4959
 21
-6992.1091
 31
0.0000
  0
LINE
  5
19D
  8
חשמל
 10
23445.4959
 20
-6992.1091
 30
0.0000
 11
23452.5410
 21
-6989.1909
 31
0.0000
  0
LINE
  5
19E
  8
חשמל
 10
23452.5410
 20
-6989.1909
 30
0.0000
 11
23459.8686
 21
-6987.0799
 31
0.0000
  0
LINE
  5
19F
  8
חשמל
 10
23459.8686
 20
-6987.0799
 30
0.0000
 11
23467.3864
 21
-6985.8026
 31
0.0000
  0
LINE
  5
1A0
  8
חשמל
 10
23467.3864
 20
-6985.8026
 30
0.0000
 11
23475.0000
 21
-6985.3750
 31
0.0000
  0
LINE
  5
1A1
  8
חשמל
 10
23475.0000
 20
-6985.3750
 30
0.0000
 11
23482.6136
 21
-6985.8026
 31
0.0000
  0
LINE
  5
1A2
  8
חשמל
 10
23482.6136
 20
-6985.8026
 30
0.0000
 11
23490.1314
 21
-6987.0799
 31
0.0000
  0
LINE
  5
1A3
  8
חשמל
 10
23490.1314
 20
-6987.0799
 30
0.0000
 11
23497.4590
 21
-6989.1909
 31
0.0000
  0
LINE
  5
1A4
  8
חשמל
 10
23497.4590
 20
-6989.1909
 30
0.0000
 11
23504.5041
 21
-6992.1091
 31
0.0000
  0
LINE
  5
1A5
  8
חשמל
 10
23504.5041
 20
-6992.1091
 30
0.0000
 11
23511.1782
 21
-6995.7978
 31
0.0000
  0
LINE
  5
1A6
  8
חשמל
 10
23511.1782
 20
-6995.7978
 30
0.0000
 11
23517.3973
 21
-7000.2105
 31
0.0000
  0
LINE
  5
1A7
  8
חשמל
 10
23517.3973
 20
-7000.2105
 30
0.0000
 11
23523.0833
 21
-7005.2917
 31
0.0000
  0
LINE
  5
1A8
  8
חשמל
 10
23523.0833
 20
-7005.2917
 30
0.0000
 11
23528.1645
 21
-7010.9777
 31
0.0000
  0
LINE
  5
1A9
  8
חשמל
 10
23528.1645
 20
-7010.9777
 30
0.0000
 11
23532.5772
 21
-7017.1968
 31
0.0000
  0
LINE
  5
1AA
  8
חשמל
 10
23532.5772
 20
-7017.1968
 30
0.0000
 11
23536.2659
 21
-7023.8709
 31
0.0000
  0
LINE
  5
1AB
  8
חשמל
 10
23536.2659
 20
-7023.8709
 30
0.0000
 11
23539.1841
 21
-7030.9160
 31
0.0000
  0
LINE
  5
1AC
  8
חשמל
 10
23539.1841
 20
-7030.9160
 30
0.0000
 11
23541.2951
 21
-7038.2436
 31
0.0000
  0
LINE
  5
1AD
  8
חשמל
 10
23541.2951
 20
-7038.2436
 30
0.0000
 11
23542.5724
 21
-7045.7614
 31
0.0000
  0
LINE
  5
1AE
  8
חשמל
 10
23542.5724
 20
-7045.7614
 30
0.0000
 11
23543.0000
 21
-7053.3750
 31
0.0000
  0
LINE
  5
1AF
  8
חשמל
 10
23407.0000
 20
-7053.3750
 30
0.0000
 11
23543.0000
 21
-7053.3750
 31
0.0000
  0
TEXT
  5
1B0
  8
מקרא
 10
23775.0000
 20
-7061.8750
 30
0.0000
 40
112.5000
  1
x1
 50
0.0000
  7
SOLINE
 73
2
 11
23775.0000
 21
-7061.8750
 31
0.0000
  0
TEXT
  5
1B1
  8
מקרא
 10
25875.0000
 20
-7061.8750
 30
0.0000
 40
125.0000
  1
שקע בודד
 50
0.0000
  7
SOLINE
 72
2
 73
2
 11
25875.0000
 21
-7061.8750
 31
0.0000
  0
TEXT
  5
1B2
  8
מקרא
 10
25875.0000
 20
-7386.8750
 30
0.0000
 40
131.2500
  1
גז  (1)
 50
0.0000
  7
SOLINE
 72
2
 73
2
 11
25875.0000
 21
-7386.8750
 31
0.0000
  0
LINE
  5
1B3
  8
גז
 10
23475.0000
 20
-7801.1250
 30
0.0000
 11
23475.0000
 21
-7758.6250
 31
0.0000
  0
LINE
  5
1B4
  8
גז
 10
23475.0000
 20
-7631.1250
 30
0.0000
 11
23530.2500
 21
-7663.0000
 31
0.0000
  0
LINE
  5
1B5
  8
גז
 10
23530.2500
 20
-7663.0000
 30
0.0000
 11
23530.2500
 21
-7726.7500
 31
0.0000
  0
LINE
  5
1B6
  8
גז
 10
23530.2500
 20
-7726.7500
 30
0.0000
 11
23475.0000
 21
-7758.6250
 31
0.0000
  0
LINE
  5
1B7
  8
גז
 10
23475.0000
 20
-7758.6250
 30
0.0000
 11
23419.7500
 21
-7726.7500
 31
0.0000
  0
LINE
  5
1B8
  8
גז
 10
23419.7500
 20
-7726.7500
 30
0.0000
 11
23419.7500
 21
-7663.0000
 31
0.0000
  0
LINE
  5
1B9
  8
גז
 10
23419.7500
 20
-7663.0000
 30
0.0000
 11
23475.0000
 21
-7631.1250
 31
0.0000
  0
TEXT
  5
1BA
  8
גז
 10
23475.0000
 20
-7694.8750
 30
0.0000
 40
59.5000
  1
G
 50
0.0000
  7
SOLINE
 72
1
 73
2
 11
23475.0000
 21
-7694.8750
 31
0.0000
  0
TEXT
  5
1BB
  8
מקרא
 10
23775.0000
 20
-7711.8750
 30
0.0000
 40
112.5000
  1
x1
 50
0.0000
  7
SOLINE
 73
2
 11
23775.0000
 21
-7711.8750
 31
0.0000
  0
TEXT
  5
1BC
  8
מקרא
 10
25875.0000
 20
-7711.8750
 30
0.0000
 40
125.0000
  1
גז
 50
0.0000
  7
SOLINE
 72
2
 73
2
 11
25875.0000
 21
-7711.8750
 31
0.0000
  0
TEXT
  5
1BD
  8
מקרא
 10
25875.0000
 20
-8036.8750
 30
0.0000
 40
131.2500
  1
מים  (1)
 50
0.0000
  7
SOLINE
 72
2
 73
2
 11
25875.0000
 21
-8036.8750
 31
0.0000
  0
LINE
  5
1BE
  8
מים
 10
23475.0000
 20
-8451.1250
 30
0.0000
 11
23475.0000
 21
-8402.2500
 31
0.0000
  0
ARC
  5
1BF
  8
מים
 10
23475.0000
 20
-8344.8750
 30
0.0000
 40
59.5000
 50
0.0000
 51
360.0000
  0
LINE
  5
1C0
  8
מים
 10
23424.0000
 20
-8344.8750
 30
0.0000
 11
23526.0000
 21
-8344.8750
 31
0.0000
  0
LINE
  5
1C1
  8
מים
 10
23475.0000
 20
-8293.8750
 30
0.0000
 11
23475.0000
 21
-8395.8750
 31
0.0000
  0
TEXT
  5
1C2
  8
מקרא
 10
23775.0000
 20
-8361.8750
 30
0.0000
 40
112.5000
  1
x1
 50
0.0000
  7
SOLINE
 73
2
 11
23775.0000
 21
-8361.8750
 31
0.0000
  0
TEXT
  5
1C3
  8
מקרא
 10
25875.0000
 20
-8361.8750
 30
0.0000
 40
125.0000
  1
מים
 50
0.0000
  7
SOLINE
 72
2
 73
2
 11
25875.0000
 21
-8361.8750
 31
0.0000
  0
TEXT
  5
1C4
  8
מקרא
 10
25875.0000
 20
-8686.8750
 30
0.0000
 40
131.2500
  1
חלון  (1)
 50
0.0000
  7
SOLINE
 72
2
 73
2
 11
25875.0000
 21
-8686.8750
 31
0.0000
  0
LINE
  5
1C5
  8
חלונות
 10
23368.7500
 20
-8965.1250
 30
0.0000
 11
23581.2500
 21
-8965.1250
 31
0.0000
  0
LINE
  5
1C6
  8
חלונות
 10
23581.2500
 20
-8965.1250
 30
0.0000
 11
23581.2500
 21
-9024.6250
 31
0.0000
  0
LINE
  5
1C7
  8
חלונות
 10
23581.2500
 20
-9024.6250
 30
0.0000
 11
23368.7500
 21
-9024.6250
 31
0.0000
  0
LINE
  5
1C8
  8
חלונות
 10
23368.7500
 20
-9024.6250
 30
0.0000
 11
23368.7500
 21
-8965.1250
 31
0.0000
  0
LINE
  5
1C9
  8
חלונות
 10
23368.7500
 20
-8985.3550
 30
0.0000
 11
23581.2500
 21
-8985.3550
 31
0.0000
  0
LINE
  5
1CA
  8
חלונות
 10
23368.7500
 20
-9004.3950
 30
0.0000
 11
23581.2500
 21
-9004.3950
 31
0.0000
  0
TEXT
  5
1CB
  8
מקרא
 10
23775.0000
 20
-9011.8750
 30
0.0000
 40
112.5000
  1
x1
 50
0.0000
  7
SOLINE
 73
2
 11
23775.0000
 21
-9011.8750
 31
0.0000
  0
TEXT
  5
1CC
  8
מקרא
 10
25875.0000
 20
-9011.8750
 30
0.0000
 40
125.0000
  1
חלון
 50
0.0000
  7
SOLINE
 72
2
 73
2
 11
25875.0000
 21
-9011.8750
 31
0.0000
  0
LINE
  5
1CD
  8
מסגרת
 10
24575.0000
 20
-9978.1250
 30
0.0000
 11
24575.0000
 21
-9353.1250
 31
0.0000
  0
SOLID
  5
1CE
  8
מסגרת
 10
24575.0000
 20
-9353.1250
 30
0.0000
 11
24512.5000
 21
-9478.1250
 31
0.0000
 12
24637.5000
 22
-9478.1250
 32
0.0000
 13
24637.5000
 23
-9478.1250
 33
0.0000
  0
TEXT
  5
1CF
  8
מסגרת
 10
24575.0000
 20
-9315.6250
 30
0.0000
 40
137.5000
  1
N
 50
0.0000
  7
SOLINE
 72
1
 73
3
 11
24575.0000
 21
-9315.6250
 31
0.0000
  0
LINE
  5
1D0
  8
מסגרת
 10
24200.0000
 20
-10165.6250
 30
0.0000
 11
25000.0000
 21
-10165.6250
 31
0.0000
  0
LINE
  5
1D1
  8
מסגרת
 10
24200.0000
 20
-10165.6250
 30
0.0000
 11
24200.0000
 21
-10228.1250
 31
0.0000
  0
LINE
  5
1D2
  8
מסגרת
 10
24400.0000
 20
-10165.6250
 30
0.0000
 11
24400.0000
 21
-10228.1250
 31
0.0000
  0
LINE
  5
1D3
  8
מסגרת
 10
24600.0000
 20
-10165.6250
 30
0.0000
 11
24600.0000
 21
-10228.1250
 31
0.0000
  0
LINE
  5
1D4
  8
מסגרת
 10
24800.0000
 20
-10165.6250
 30
0.0000
 11
24800.0000
 21
-10228.1250
 31
0.0000
  0
LINE
  5
1D5
  8
מסגרת
 10
25000.0000
 20
-10165.6250
 30
0.0000
 11
25000.0000
 21
-10228.1250
 31
0.0000
  0
TEXT
  5
1D6
  8
מסגרת
 10
24200.0000
 20
-10365.6250
 30
0.0000
 40
87.5000
  1
0
 50
0.0000
  7
SOLINE
 72
1
 11
24200.0000
 21
-10365.6250
 31
0.0000
  0
TEXT
  5
1D7
  8
מסגרת
 10
25000.0000
 20
-10365.6250
 30
0.0000
 40
87.5000
  1
0.8 m
 50
0.0000
  7
SOLINE
 72
2
 11
25000.0000
 21
-10365.6250
 31
0.0000
  0
LINE
  5
1D8
  8
קירות
 10
1218.7500
 20
-15365.6250
 30
0.0000
 11
5218.7500
 21
-15365.6250
 31
0.0000
  0
LINE
  5
1D9
  8
קירות
 10
5218.7500
 20
-15365.6250
 30
0.0000
 11
5218.7500
 21
-12665.6250
 31
0.0000
  0
LINE
  5
1DA
  8
קירות
 10
5218.7500
 20
-12665.6250
 30
0.0000
 11
1218.7500
 21
-12665.6250
 31
0.0000
  0
LINE
  5
1DB
  8
קירות
 10
1218.7500
 20
-12665.6250
 30
0.0000
 11
1218.7500
 21
-15365.6250
 31
0.0000
  0
TEXT
  5
1DC
  8
קירות-טקסט
 10
3218.7500
 20
-12365.6250
 30
0.0000
 40
175.0000
  1
W1
 50
0.0000
  7
SOLINE
 72
1
 73
1
 11
3218.7500
 21
-12365.6250
 31
0.0000
  0
LINE
  5
1DD
  8
חשמל
 10
1976.2500
 20
-15105.6250
 30
0.0000
 11
2061.2500
 21
-15105.6250
 31
0.0000
  0
LINE
  5
1DE
  8
חשמל
 10
2061.2500
 20
-15105.6250
 30
0.0000
 11
2061.2500
 21
-15025.6250
 31
0.0000
  0
LINE
  5
1DF
  8
חשמל
 10
2061.2500
 20
-15025.6250
 30
0.0000
 11
1976.2500
 21
-15025.6250
 31
0.0000
  0
LINE
  5
1E0
  8
חשמל
 10
1976.2500
 20
-15025.6250
 30
0.0000
 11
1976.2500
 21
-15105.6250
 31
0.0000
  0
LINE
  5
1E1
  8
חשמל
 10
2018.7500
 20
-15105.6250
 30
0.0000
 11
2018.7500
 21
-15068.8250
 31
0.0000
  0
LINE
  5
1E2
  8
חשמל
 10
1991.5500
 20
-15068.8250
 30
0.0000
 11
1991.7210
 21
-15065.9587
 31
0.0000
  0
LINE
  5
1E3
  8
חשמל
 10
1991.7210
 20
-15065.9587
 30
0.0000
 11
1992.2320
 21
-15063.1285
 31
0.0000
  0
LINE
  5
1E4
  8
חשמל
 10
1992.2320
 20
-15063.1285
 30
0.0000
 11
1993.0764
 21
-15060.3699
 31
0.0000
  0
LINE
  5
1E5
  8
חשמל
 10
1993.0764
 20
-15060.3699
 30
0.0000
 11
1994.2436
 21
-15057.7176
 31
0.0000
  0
LINE
  5
1E6
  8
חשמל
 10
1994.2436
 20
-15057.7176
 30
0.0000
 11
1995.7191
 21
-15055.2050
 31
0.0000
  0
LINE
  5
1E7
  8
חשמל
 10
1995.7191
 20
-15055.2050
 30
0.0000
 11
1997.4842
 21
-15052.8637
 31
0.0000
  0
LINE
  5
1E8
  8
חשמל
 10
1997.4842
 20
-15052.8637
 30
0.0000
 11
1999.5167
 21
-15050.7231
 31
0.0000
  0
LINE
  5
1E9
  8
חשמל
 10
1999.5167
 20
-15050.7231
 30
0.0000
 11
2001.7911
 21
-15048.8101
 31
0.0000
  0
LINE
  5
1EA
  8
חשמל
 10
2001.7911
 20
-15048.8101
 30
0.0000
 11
2004.2787
 21
-15047.1489
 31
0.0000
  0
LINE
  5
1EB
  8
חשמל
 10
2004.2787
 20
-15047.1489
 30
0.0000
 11
2006.9484
 21
-15045.7602
 31
0.0000
  0
LINE
  5
1EC
  8
חשמל
 10
2006.9484
 20
-15045.7602
 30
0.0000
 11
2009.7664
 21
-15044.6616
 31
0.0000
  0
LINE
  5
1ED
  8
חשמל
 10
2009.7664
 20
-15044.6616
 30
0.0000
 11
2012.6974
 21
-15043.8668
 31
0.0000
  0
LINE
  5
1EE
  8
חשמל
 10
2012.6974
 20
-15043.8668
 30
0.0000
 11
2015.7046
 21
-15043.3860
 31
0.0000
  0
LINE
  5
1EF
  8
חשמל
 10
2015.7046
 20
-15043.3860
 30
0.0000
 11
2018.7500
 21
-15043.2250
 31
0.0000
  0
LINE
  5
1F0
  8
חשמל
 10
2018.7500
 20
-15043.2250
 30
0.0000
 11
2021.7954
 21
-15043.3860
 31
0.0000
  0
LINE
  5
1F1
  8
חשמל
 10
2021.7954
 20
-15043.3860
 30
0.0000
 11
2024.8026
 21
-15043.8668
 31
0.0000
  0
LINE
  5
1F2
  8
חשמל
 10
2024.8026
 20
-15043.8668
 30
0.0000
 11
2027.7336
 21
-15044.6616
 31
0.0000
  0
LINE
  5
1F3
  8
חשמל
 10
2027.7336
 20
-15044.6616
 30
0.0000
 11
2030.5516
 21
-15045.7602
 31
0.0000
  0
LINE
  5
1F4
  8
חשמל
 10
2030.5516
 20
-15045.7602
 30
0.0000
 11
2033.2213
 21
-15047.1489
 31
0.0000
  0
LINE
  5
1F5
  8
חשמל
 10
2033.2213
 20
-15047.1489
 30
0.0000
 11
2035.7089
 21
-15048.8101
 31
0.0000
  0
LINE
  5
1F6
  8
חשמל
 10
2035.7089
 20
-15048.8101
 30
0.0000
 11
2037.9833
 21
-15050.7231
 31
0.0000
  0
LINE
  5
1F7
  8
חשמל
 10
2037.9833
 20
-15050.7231
 30
0.0000
 11
2040.0158
 21
-15052.8637
 31
0.0000
  0
LINE
  5
1F8
  8
חשמל
 10
2040.0158
 20
-15052.8637
 30
0.0000
 11
2041.7809
 21
-15055.2050
 31
0.0000
  0
LINE
  5
1F9
  8
חשמל
 10
2041.7809
 20
-15055.2050
 30
0.0000
 11
2043.2564
 21
-15057.7176
 31
0.0000
  0
LINE
  5
1FA
  8
חשמל
 10
2043.2564
 20
-15057.7176
 30
0.0000
 11
2044.4236
 21
-15060.3699
 31
0.0000
  0
LINE
  5
1FB
  8
חשמל
 10
2044.4236
 20
-15060.3699
 30
0.0000
 11
2045.2680
 21
-15063.1285
 31
0.0000
  0
LINE
  5
1FC
  8
חשמל
 10
2045.2680
 20
-15063.1285
 30
0.0000
 11
2045.7790
 21
-15065.9587
 31
0.0000
  0
LINE
  5
1FD
  8
חשמל
 10
2045.7790
 20
-15065.9587
 30
0.0000
 11
2045.9500
 21
-15068.8250
 31
0.0000
  0
LINE
  5
1FE
  8
חשמל
 10
1991.5500
 20
-15068.8250
 30
0.0000
 11
2045.9500
 21
-15068.8250
 31
0.0000
  0
LINE
  5
1FF
  8
גז
 10
3698.7500
 20
-14875.6250
 30
0.0000
 11
3738.7500
 21
-14875.6250
 31
0.0000
  0
LINE
  5
200
  8
גז
 10
3738.7500
 20
-14875.6250
 30
0.0000
 11
3738.7500
 21
-14855.6250
 31
0.0000
  0
LINE
  5
201
  8
גז
 10
3738.7500
 20
-14855.6250
 30
0.0000
 11
3698.7500
 21
-14855.6250
 31
0.0000
  0
LINE
  5
202
  8
גז
 10
3698.7500
 20
-14855.6250
 30
0.0000
 11
3698.7500
 21
-14875.6250
 31
0.0000
  0
LINE
  5
203
  8
גז
 10
3718.7500
 20
-14875.6250
 30
0.0000
 11
3718.7500
 21
-14871.6250
 31
0.0000
  0
LINE
  5
204
  8
גז
 10
3718.7500
 20
-14859.6250
 30
0.0000
 11
3729.1500
 21
-14862.6250
 31
0.0000
  0
LINE
  5
205
  8
גז
 10
3729.1500
 20
-14862.6250
 30
0.0000
 11
3729.1500
 21
-14868.6250
 31
0.0000
  0
LINE
  5
206
  8
גז
 10
3729.1500
 20
-14868.6250
 30
0.0000
 11
3718.7500
 21
-14871.6250
 31
0.0000
  0
LINE
  5
207
  8
גז
 10
3718.7500
 20
-14871.6250
 30
0.0000
 11
3708.3500
 21
-14868.6250
 31
0.0000
  0
LINE
  5
208
  8
גז
 10
3708.3500
 20
-14868.6250
 30
0.0000
 11
3708.3500
 21
-14862.6250
 31
0.0000
  0
LINE
  5
209
  8
גז
 10
3708.3500
 20
-14862.6250
 30
0.0000
 11
3718.7500
 21
-14859.6250
 31
0.0000
  0
TEXT
  5
20A
  8
גז
 10
3718.7500
 20
-14865.6250
 30
0.0000
 40
24.0000
  1
G
 50
0.0000
  7
SOLINE
 72
1
 73
2
 11
3718.7500
 21
-14865.6250
 31
0.0000
  0
LINE
  5
20B
  8
מידות-פנים
 10
1218.7500
 20
-15405.6250
 30
0.0000
 11
1218.7500
 21
-15824.1250
 31
0.0000
  0
LINE
  5
20C
  8
מידות-פנים
 10
2018.7500
 20
-15405.6250
 30
0.0000
 11
2018.7500
 21
-15824.1250
 31
0.0000
  0
LINE
  5
20D
  8
מידות-פנים
 10
1218.7500
 20
-15765.6250
 30
0.0000
 11
2018.7500
 21
-15765.6250
 31
0.0000
  0
SOLID
  5
20E
  8
מידות-פנים
 10
1218.7500
 20
-15765.6250
 30
0.0000
 11
1106.6250
 21
-15796.8250
 31
0.0000
 12
1106.6250
 22
-15734.4250
 32
0.0000
 13
1106.6250
 23
-15734.4250
 33
0.0000
  0
SOLID
  5
20F
  8
מידות-פנים
 10
2018.7500
 20
-15765.6250
 30
0.0000
 11
2130.8750
 21
-15796.8250
 31
0.0000
 12
2130.8750
 22
-15734.4250
 32
0.0000
 13
2130.8750
 23
-15734.4250
 33
0.0000
  0
TEXT
  5
210
  8
מידות-פנים
 10
1618.7500
 20
-15858.2500
 30
0.0000
 40
97.5000
  1
80
 50
0.0000
  7
SOLINE
 72
1
 73
2
 11
1618.7500
 21
-15858.2500
 31
0.0000
  0
LINE
  5
211
  8
מידות-פנים
 10
2018.7500
 20
-15405.6250
 30
0.0000
 11
2018.7500
 21
-15824.1250
 31
0.0000
  0
LINE
  5
212
  8
מידות-פנים
 10
3718.7500
 20
-15405.6250
 30
0.0000
 11
3718.7500
 21
-15824.1250
 31
0.0000
  0
LINE
  5
213
  8
מידות-פנים
 10
2018.7500
 20
-15765.6250
 30
0.0000
 11
3718.7500
 21
-15765.6250
 31
0.0000
  0
SOLID
  5
214
  8
מידות-פנים
 10
2018.7500
 20
-15765.6250
 30
0.0000
 11
1906.6250
 21
-15796.8250
 31
0.0000
 12
1906.6250
 22
-15734.4250
 32
0.0000
 13
1906.6250
 23
-15734.4250
 33
0.0000
  0
SOLID
  5
215
  8
מידות-פנים
 10
3718.7500
 20
-15765.6250
 30
0.0000
 11
3830.8750
 21
-15796.8250
 31
0.0000
 12
3830.8750
 22
-15734.4250
 32
0.0000
 13
3830.8750
 23
-15734.4250
 33
0.0000
  0
TEXT
  5
216
  8
מידות-פנים
 10
2868.7500
 20
-15858.2500
 30
0.0000
 40
97.5000
  1
170
 50
0.0000
  7
SOLINE
 72
1
 73
2
 11
2868.7500
 21
-15858.2500
 31
0.0000
  0
LINE
  5
217
  8
מידות-פנים
 10
3718.7500
 20
-15405.6250
 30
0.0000
 11
3718.7500
 21
-15824.1250
 31
0.0000
  0
LINE
  5
218
  8
מידות-פנים
 10
5218.7500
 20
-15405.6250
 30
0.0000
 11
5218.7500
 21
-15824.1250
 31
0.0000
  0
LINE
  5
219
  8
מידות-פנים
 10
3718.7500
 20
-15765.6250
 30
0.0000
 11
5218.7500
 21
-15765.6250
 31
0.0000
  0
SOLID
  5
21A
  8
מידות-פנים
 10
3718.7500
 20
-15765.6250
 30
0.0000
 11
3606.6250
 21
-15796.8250
 31
0.0000
 12
3606.6250
 22
-15734.4250
 32
0.0000
 13
3606.6250
 23
-15734.4250
 33
0.0000
  0
SOLID
  5
21B
  8
מידות-פנים
 10
5218.7500
 20
-15765.6250
 30
0.0000
 11
5330.8750
 21
-15796.8250
 31
0.0000
 12
5330.8750
 22
-15734.4250
 32
0.0000
 13
5330.8750
 23
-15734.4250
 33
0.0000
  0
TEXT
  5
21C
  8
מידות-פנים
 10
4468.7500
 20
-15858.2500
 30
0.0000
 40
97.5000
  1
150
 50
0.0000
  7
SOLINE
 72
1
 73
2
 11
4468.7500
 21
-15858.2500
 31
0.0000
  0
LINE
  5
21D
  8
מידות-פנים
 10
1218.7500
 20
-15415.6250
 30
0.0000
 11
1218.7500
 21
-16240.6250
 31
0.0000
  0
LINE
  5
21E
  8
מידות-פנים
 10
5218.7500
 20
-15415.6250
 30
0.0000
 11
5218.7500
 21
-16240.6250
 31
0.0000
  0
LINE
  5
21F
  8
מידות-פנים
 10
1218.7500
 20
-16165.6250
 30
0.0000
 11
5218.7500
 21
-16165.6250
 31
0.0000
  0
SOLID
  5
220
  8
מידות-פנים
 10
1218.7500
 20
-16165.6250
 30
0.0000
 11
1075.0000
 21
-16205.6250
 31
0.0000
 12
1075.0000
 22
-16125.6250
 32
0.0000
 13
1075.0000
 23
-16125.6250
 33
0.0000
  0
SOLID
  5
221
  8
מידות-פנים
 10
5218.7500
 20
-16165.6250
 30
0.0000
 11
5362.5000
 21
-16205.6250
 31
0.0000
 12
5362.5000
 22
-16125.6250
 32
0.0000
 13
5362.5000
 23
-16125.6250
 33
0.0000
  0
TEXT
  5
222
  8
מידות-פנים
 10
3218.7500
 20
-16284.3750
 30
0.0000
 40
125.0000
  1
400
 50
0.0000
  7
SOLINE
 72
1
 73
2
 11
3218.7500
 21
-16284.3750
 31
0.0000
  0
LINE
  5
223
  8
חשמל-מידות
 10
778.7500
 20
-15365.6250
 30
0.0000
 11
763.2500
 21
-15365.6250
 31
0.0000
  0
LINE
  5
224
  8
חשמל-מידות
 10
778.7500
 20
-15065.6250
 30
0.0000
 11
763.2500
 21
-15065.6250
 31
0.0000
  0
LINE
  5
225
  8
חשמל-מידות
 10
818.7500
 20
-15365.6250
 30
0.0000
 11
818.7500
 21
-15065.6250
 31
0.0000
  0
SOLID
  5
226
  8
חשמל-מידות
 10
818.7500
 20
-15365.6250
 30
0.0000
 11
789.1500
 21
-15472.0000
 31
0.0000
 12
848.3500
 22
-15472.0000
 32
0.0000
 13
848.3500
 23
-15472.0000
 33
0.0000
  0
SOLID
  5
227
  8
חשמל-מידות
 10
818.7500
 20
-15065.6250
 30
0.0000
 11
789.1500
 21
-14959.2500
 31
0.0000
 12
848.3500
 22
-14959.2500
 32
0.0000
 13
848.3500
 23
-14959.2500
 33
0.0000
  0
TEXT
  5
228
  8
חשמל-מידות
 10
730.8750
 20
-15215.6250
 30
0.0000
 40
92.5000
  1
30
 50
90.0000
  7
SOLINE
 72
1
 73
2
 11
730.8750
 21
-15215.6250
 31
0.0000
  0
LINE
  5
229
  8
גז-מידות
 10
428.7500
 20
-15365.6250
 30
0.0000
 11
413.2500
 21
-15365.6250
 31
0.0000
  0
LINE
  5
22A
  8
גז-מידות
 10
428.7500
 20
-14865.6250
 30
0.0000
 11
413.2500
 21
-14865.6250
 31
0.0000
  0
LINE
  5
22B
  8
גז-מידות
 10
468.7500
 20
-15365.6250
 30
0.0000
 11
468.7500
 21
-14865.6250
 31
0.0000
  0
SOLID
  5
22C
  8
גז-מידות
 10
468.7500
 20
-15365.6250
 30
0.0000
 11
439.1500
 21
-15472.0000
 31
0.0000
 12
498.3500
 22
-15472.0000
 32
0.0000
 13
498.3500
 23
-15472.0000
 33
0.0000
  0
SOLID
  5
22D
  8
גז-מידות
 10
468.7500
 20
-14865.6250
 30
0.0000
 11
439.1500
 21
-14759.2500
 31
0.0000
 12
498.3500
 22
-14759.2500
 32
0.0000
 13
498.3500
 23
-14759.2500
 33
0.0000
  0
TEXT
  5
22E
  8
גז-מידות
 10
380.8750
 20
-15115.6250
 30
0.0000
 40
92.5000
  1
50
 50
90.0000
  7
SOLINE
 72
1
 73
2
 11
380.8750
 21
-15115.6250
 31
0.0000
  0
LINE
  5
22F
  8
מידות-פנים
 10
68.7500
 20
-15365.6250
 30
0.0000
 11
43.7500
 21
-15365.6250
 31
0.0000
  0
LINE
  5
230
  8
מידות-פנים
 10
68.7500
 20
-12665.6250
 30
0.0000
 11
43.7500
 21
-12665.6250
 31
0.0000
  0
LINE
  5
231
  8
מידות-פנים
 10
118.7500
 20
-15365.6250
 30
0.0000
 11
118.7500
 21
-12665.6250
 31
0.0000
  0
SOLID
  5
232
  8
מידות-פנים
 10
118.7500
 20
-15365.6250
 30
0.0000
 11
78.7500
 21
-15509.3750
 31
0.0000
 12
158.7500
 22
-15509.3750
 32
0.0000
 13
158.7500
 23
-15509.3750
 33
0.0000
  0
SOLID
  5
233
  8
מידות-פנים
 10
118.7500
 20
-12665.6250
 30
0.0000
 11
78.7500
 21
-12521.8750
 31
0.0000
 12
158.7500
 22
-12521.8750
 32
0.0000
 13
158.7500
 23
-12521.8750
 33
0.0000
  0
TEXT
  5
234
  8
מידות-פנים
 10
0.0000
 20
-14015.6250
 30
0.0000
 40
125.0000
  1
270
 50
90.0000
  7
SOLINE
 72
1
 73
2
 11
0.0000
 21
-14015.6250
 31
0.0000
  0
LINE
  5
235
  8
קירות
 10
8981.2500
 20
-15365.6250
 30
0.0000
 11
11981.2500
 21
-15365.6250
 31
0.0000
  0
LINE
  5
236
  8
קירות
 10
11981.2500
 20
-15365.6250
 30
0.0000
 11
11981.2500
 21
-12665.6250
 31
0.0000
  0
LINE
  5
237
  8
קירות
 10
11981.2500
 20
-12665.6250
 30
0.0000
 11
8981.2500
 21
-12665.6250
 31
0.0000
  0
LINE
  5
238
  8
קירות
 10
8981.2500
 20
-12665.6250
 30
0.0000
 11
8981.2500
 21
-15365.6250
 31
0.0000
  0
TEXT
  5
239
  8
קירות-טקסט
 10
10481.2500
 20
-12365.6250
 30
0.0000
 40
175.0000
  1
W2
 50
0.0000
  7
SOLINE
 72
1
 73
1
 11
10481.2500
 21
-12365.6250
 31
0.0000
  0
LINE
  5
23A
  8
מים
 10
10461.2500
 20
-14775.6250
 30
0.0000
 11
10501.2500
 21
-14775.6250
 31
0.0000
  0
LINE
  5
23B
  8
מים
 10
10501.2500
 20
-14775.6250
 30
0.0000
 11
10501.2500
 21
-14755.6250
 31
0.0000
  0
LINE
  5
23C
  8
מים
 10
10501.2500
 20
-14755.6250
 30
0.0000
 11
10461.2500
 21
-14755.6250
 31
0.0000
  0
LINE
  5
23D
  8
מים
 10
10461.2500
 20
-14755.6250
 30
0.0000
 11
10461.2500
 21
-14775.6250
 31
0.0000
  0
LINE
  5
23E
  8
מים
 10
10481.2500
 20
-14775.6250
 30
0.0000
 11
10481.2500
 21
-14771.0250
 31
0.0000
  0
LINE
  5
23F
  8
מים
 10
10492.4500
 20
-14765.6250
 30
0.0000
 11
10492.2348
 21
-14766.7175
 31
0.0000
  0
LINE
  5
240
  8
מים
 10
10492.2348
 20
-14766.7175
 30
0.0000
 11
10491.5975
 21
-14767.7680
 31
0.0000
  0
LINE
  5
241
  8
מים
 10
10491.5975
 20
-14767.7680
 30
0.0000
 11
10490.5625
 21
-14768.7362
 31
0.0000
  0
LINE
  5
242
  8
מים
 10
10490.5625
 20
-14768.7362
 30
0.0000
 11
10489.1696
 21
-14769.5848
 31
0.0000
  0
LINE
  5
243
  8
מים
 10
10489.1696
 20
-14769.5848
 30
0.0000
 11
10487.4724
 21
-14770.2812
 31
0.0000
  0
LINE
  5
244
  8
מים
 10
10487.4724
 20
-14770.2812
 30
0.0000
 11
10485.5361
 21
-14770.7987
 31
0.0000
  0
LINE
  5
245
  8
מים
 10
10485.5361
 20
-14770.7987
 30
0.0000
 11
10483.4350
 21
-14771.1174
 31
0.0000
  0
LINE
  5
246
  8
מים
 10
10483.4350
 20
-14771.1174
 30
0.0000
 11
10481.2500
 21
-14771.2250
 31
0.0000
  0
LINE
  5
247
  8
מים
 10
10481.2500
 20
-14771.2250
 30
0.0000
 11
10479.0650
 21
-14771.1174
 31
0.0000
  0
LINE
  5
248
  8
מים
 10
10479.0650
 20
-14771.1174
 30
0.0000
 11
10476.9639
 21
-14770.7987
 31
0.0000
  0
LINE
  5
249
  8
מים
 10
10476.9639
 20
-14770.7987
 30
0.0000
 11
10475.0276
 21
-14770.2812
 31
0.0000
  0
LINE
  5
24A
  8
מים
 10
10475.0276
 20
-14770.2812
 30
0.0000
 11
10473.3304
 21
-14769.5848
 31
0.0000
  0
LINE
  5
24B
  8
מים
 10
10473.3304
 20
-14769.5848
 30
0.0000
 11
10471.9375
 21
-14768.7362
 31
0.0000
  0
LINE
  5
24C
  8
מים
 10
10471.9375
 20
-14768.7362
 30
0.0000
 11
10470.9025
 21
-14767.7680
 31
0.0000
  0
LINE
  5
24D
  8
מים
 10
10470.9025
 20
-14767.7680
 30
0.0000
 11
10470.2652
 21
-14766.7175
 31
0.0000
  0
LINE
  5
24E
  8
מים
 10
10470.2652
 20
-14766.7175
 30
0.0000
 11
10470.0500
 21
-14765.6250
 31
0.0000
  0
LINE
  5
24F
  8
מים
 10
10470.0500
 20
-14765.6250
 30
0.0000
 11
10470.2652
 21
-14764.5325
 31
0.0000
  0
LINE
  5
250
  8
מים
 10
10470.2652
 20
-14764.5325
 30
0.0000
 11
10470.9025
 21
-14763.4820
 31
0.0000
  0
LINE
  5
251
  8
מים
 10
10470.9025
 20
-14763.4820
 30
0.0000
 11
10471.9375
 21
-14762.5138
 31
0.0000
  0
LINE
  5
252
  8
מים
 10
10471.9375
 20
-14762.5138
 30
0.0000
 11
10473.3304
 21
-14761.6652
 31
0.0000
  0
LINE
  5
253
  8
מים
 10
10473.3304
 20
-14761.6652
 30
0.0000
 11
10475.0276
 21
-14760.9688
 31
0.0000
  0
LINE
  5
254
  8
מים
 10
10475.0276
 20
-14760.9688
 30
0.0000
 11
10476.9639
 21
-14760.4513
 31
0.0000
  0
LINE
  5
255
  8
מים
 10
10476.9639
 20
-14760.4513
 30
0.0000
 11
10479.0650
 21
-14760.1326
 31
0.0000
  0
LINE
  5
256
  8
מים
 10
10479.0650
 20
-14760.1326
 30
0.0000
 11
10481.2500
 21
-14760.0250
 31
0.0000
  0
LINE
  5
257
  8
מים
 10
10481.2500
 20
-14760.0250
 30
0.0000
 11
10483.4350
 21
-14760.1326
 31
0.0000
  0
LINE
  5
258
  8
מים
 10
10483.4350
 20
-14760.1326
 30
0.0000
 11
10485.5361
 21
-14760.4513
 31
0.0000
  0
LINE
  5
259
  8
מים
 10
10485.5361
 20
-14760.4513
 30
0.0000
 11
10487.4724
 21
-14760.9688
 31
0.0000
  0
LINE
  5
25A
  8
מים
 10
10487.4724
 20
-14760.9688
 30
0.0000
 11
10489.1696
 21
-14761.6652
 31
0.0000
  0
LINE
  5
25B
  8
מים
 10
10489.1696
 20
-14761.6652
 30
0.0000
 11
10490.5625
 21
-14762.5138
 31
0.0000
  0
LINE
  5
25C
  8
מים
 10
10490.5625
 20
-14762.5138
 30
0.0000
 11
10491.5975
 21
-14763.4820
 31
0.0000
  0
LINE
  5
25D
  8
מים
 10
10491.5975
 20
-14763.4820
 30
0.0000
 11
10492.2348
 21
-14764.5325
 31
0.0000
  0
LINE
  5
25E
  8
מים
 10
10492.2348
 20
-14764.5325
 30
0.0000
 11
10492.4500
 21
-14765.6250
 31
0.0000
  0
LINE
  5
25F
  8
מים
 10
10471.6500
 20
-14765.6250
 30
0.0000
 11
10490.8500
 21
-14765.6250
 31
0.0000
  0
LINE
  5
260
  8
מים
 10
10481.2500
 20
-14760.8250
 30
0.0000
 11
10481.2500
 21
-14770.4250
 31
0.0000
  0
LINE
  5
261
  8
מידות-פנים
 10
8981.2500
 20
-15405.6250
 30
0.0000
 11
8981.2500
 21
-15824.1250
 31
0.0000
  0
LINE
  5
262
  8
מידות-פנים
 10
10481.2500
 20
-15405.6250
 30
0.0000
 11
10481.2500
 21
-15824.1250
 31
0.0000
  0
LINE
  5
263
  8
מידות-פנים
 10
8981.2500
 20
-15765.6250
 30
0.0000
 11
10481.2500
 21
-15765.6250
 31
0.0000
  0
SOLID
  5
264
  8
מידות-פנים
 10
8981.2500
 20
-15765.6250
 30
0.0000
 11
8869.1250
 21
-15796.8250
 31
0.0000
 12
8869.1250
 22
-15734.4250
 32
0.0000
 13
8869.1250
 23
-15734.4250
 33
0.0000
  0
SOLID
  5
265
  8
מידות-פנים
 10
10481.2500
 20
-15765.6250
 30
0.0000
 11
10593.3750
 21
-15796.8250
 31
0.0000
 12
10593.3750
 22
-15734.4250
 32
0.0000
 13
10593.3750
 23
-15734.4250
 33
0.0000
  0
TEXT
  5
266
  8
מידות-פנים
 10
9731.2500
 20
-15858.2500
 30
0.0000
 40
97.5000
  1
150
 50
0.0000
  7
SOLINE
 72
1
 73
2
 11
9731.2500
 21
-15858.2500
 31
0.0000
  0
LINE
  5
267
  8
מידות-פנים
 10
10481.2500
 20
-15405.6250
 30
0.0000
 11
10481.2500
 21
-15824.1250
 31
0.0000
  0
LINE
  5
268
  8
מידות-פנים
 10
11981.2500
 20
-15405.6250
 30
0.0000
 11
11981.2500
 21
-15824.1250
 31
0.0000
  0
LINE
  5
269
  8
מידות-פנים
 10
10481.2500
 20
-15765.6250
 30
0.0000
 11
11981.2500
 21
-15765.6250
 31
0.0000
  0
SOLID
  5
26A
  8
מידות-פנים
 10
10481.2500
 20
-15765.6250
 30
0.0000
 11
10369.1250
 21
-15796.8250
 31
0.0000
 12
10369.1250
 22
-15734.4250
 32
0.0000
 13
10369.1250
 23
-15734.4250
 33
0.0000
  0
SOLID
  5
26B
  8
מידות-פנים
 10
11981.2500
 20
-15765.6250
 30
0.0000
 11
12093.3750
 21
-15796.8250
 31
0.0000
 12
12093.3750
 22
-15734.4250
 32
0.0000
 13
12093.3750
 23
-15734.4250
 33
0.0000
  0
TEXT
  5
26C
  8
מידות-פנים
 10
11231.2500
 20
-15858.2500
 30
0.0000
 40
97.5000
  1
150
 50
0.0000
  7
SOLINE
 72
1
 73
2
 11
11231.2500
 21
-15858.2500
 31
0.0000
  0
LINE
  5
26D
  8
מידות-פנים
 10
8981.2500
 20
-15415.6250
 30
0.0000
 11
8981.2500
 21
-16240.6250
 31
0.0000
  0
LINE
  5
26E
  8
מידות-פנים
 10
11981.2500
 20
-15415.6250
 30
0.0000
 11
11981.2500
 21
-16240.6250
 31
0.0000
  0
LINE
  5
26F
  8
מידות-פנים
 10
8981.2500
 20
-16165.6250
 30
0.0000
 11
11981.2500
 21
-16165.6250
 31
0.0000
  0
SOLID
  5
270
  8
מידות-פנים
 10
8981.2500
 20
-16165.6250
 30
0.0000
 11
8837.5000
 21
-16205.6250
 31
0.0000
 12
8837.5000
 22
-16125.6250
 32
0.0000
 13
8837.5000
 23
-16125.6250
 33
0.0000
  0
SOLID
  5
271
  8
מידות-פנים
 10
11981.2500
 20
-16165.6250
 30
0.0000
 11
12125.0000
 21
-16205.6250
 31
0.0000
 12
12125.0000
 22
-16125.6250
 32
0.0000
 13
12125.0000
 23
-16125.6250
 33
0.0000
  0
TEXT
  5
272
  8
מידות-פנים
 10
10481.2500
 20
-16284.3750
 30
0.0000
 40
125.0000
  1
300
 50
0.0000
  7
SOLINE
 72
1
 73
2
 11
10481.2500
 21
-16284.3750
 31
0.0000
  0
LINE
  5
273
  8
מים-מידות
 10
8541.2500
 20
-15365.6250
 30
0.0000
 11
8525.7500
 21
-15365.6250
 31
0.0000
  0
LINE
  5
274
  8
מים-מידות
 10
8541.2500
 20
-14765.6250
 30
0.0000
 11
8525.7500
 21
-14765.6250
 31
0.0000
  0
LINE
  5
275
  8
מים-מידות
 10
8581.2500
 20
-15365.6250
 30
0.0000
 11
8581.2500
 21
-14765.6250
 31
0.0000
  0
SOLID
  5
276
  8
מים-מידות
 10
8581.2500
 20
-15365.6250
 30
0.0000
 11
8551.6500
 21
-15472.0000
 31
0.0000
 12
8610.8500
 22
-15472.0000
 32
0.0000
 13
8610.8500
 23
-15472.0000
 33
0.0000
  0
SOLID
  5
277
  8
מים-מידות
 10
8581.2500
 20
-14765.6250
 30
0.0000
 11
8551.6500
 21
-14659.2500
 31
0.0000
 12
8610.8500
 22
-14659.2500
 32
0.0000
 13
8610.8500
 23
-14659.2500
 33
0.0000
  0
TEXT
  5
278
  8
מים-מידות
 10
8493.3750
 20
-15065.6250
 30
0.0000
 40
92.5000
  1
60
 50
90.0000
  7
SOLINE
 72
1
 73
2
 11
8493.3750
 21
-15065.6250
 31
0.0000
  0
LINE
  5
279
  8
מידות-פנים
 10
8181.2500
 20
-15365.6250
 30
0.0000
 11
8156.2500
 21
-15365.6250
 31
0.0000
  0
LINE
  5
27A
  8
מידות-פנים
 10
8181.2500
 20
-12665.6250
 30
0.0000
 11
8156.2500
 21
-12665.6250
 31
0.0000
  0
LINE
  5
27B
  8
מידות-פנים
 10
8231.2500
 20
-15365.6250
 30
0.0000
 11
8231.2500
 21
-12665.6250
 31
0.0000
  0
SOLID
  5
27C
  8
מידות-פנים
 10
8231.2500
 20
-15365.6250
 30
0.0000
 11
8191.2500
 21
-15509.3750
 31
0.0000
 12
8271.2500
 22
-15509.3750
 32
0.0000
 13
8271.2500
 23
-15509.3750
 33
0.0000
  0
SOLID
  5
27D
  8
מידות-פנים
 10
8231.2500
 20
-12665.6250
 30
0.0000
 11
8191.2500
 21
-12521.8750
 31
0.0000
 12
8271.2500
 22
-12521.8750
 32
0.0000
 13
8271.2500
 23
-12521.8750
 33
0.0000
  0
TEXT
  5
27E
  8
מידות-פנים
 10
8112.5000
 20
-14015.6250
 30
0.0000
 40
125.0000
  1
270
 50
90.0000
  7
SOLINE
 72
1
 73
2
 11
8112.5000
 21
-14015.6250
 31
0.0000
  0
LINE
  5
27F
  8
קירות
 10
15393.7500
 20
-15365.6250
 30
0.0000
 11
19393.7500
 21
-15365.6250
 31
0.0000
  0
LINE
  5
280
  8
קירות
 10
19393.7500
 20
-15365.6250
 30
0.0000
 11
19393.7500
 21
-12665.6250
 31
0.0000
  0
LINE
  5
281
  8
קירות
 10
19393.7500
 20
-12665.6250
 30
0.0000
 11
15393.7500
 21
-12665.6250
 31
0.0000
  0
LINE
  5
282
  8
קירות
 10
15393.7500
 20
-12665.6250
 30
0.0000
 11
15393.7500
 21
-15365.6250
 31
0.0000
  0
TEXT
  5
283
  8
קירות-טקסט
 10
17393.7500
 20
-12365.6250
 30
0.0000
 40
175.0000
  1
W3
 50
0.0000
  7
SOLINE
 72
1
 73
1
 11
17393.7500
 21
-12365.6250
 31
0.0000
  0
LINE
  5
284
  8
מידות-פנים
 10
15393.7500
 20
-15405.6250
 30
0.0000
 11
15393.7500
 21
-15824.1250
 31
0.0000
  0
LINE
  5
285
  8
מידות-פנים
 10
19393.7500
 20
-15405.6250
 30
0.0000
 11
19393.7500
 21
-15824.1250
 31
0.0000
  0
LINE
  5
286
  8
מידות-פנים
 10
15393.7500
 20
-15765.6250
 30
0.0000
 11
19393.7500
 21
-15765.6250
 31
0.0000
  0
SOLID
  5
287
  8
מידות-פנים
 10
15393.7500
 20
-15765.6250
 30
0.0000
 11
15281.6250
 21
-15796.8250
 31
0.0000
 12
15281.6250
 22
-15734.4250
 32
0.0000
 13
15281.6250
 23
-15734.4250
 33
0.0000
  0
SOLID
  5
288
  8
מידות-פנים
 10
19393.7500
 20
-15765.6250
 30
0.0000
 11
19505.8750
 21
-15796.8250
 31
0.0000
 12
19505.8750
 22
-15734.4250
 32
0.0000
 13
19505.8750
 23
-15734.4250
 33
0.0000
  0
TEXT
  5
289
  8
מידות-פנים
 10
17393.7500
 20
-15858.2500
 30
0.0000
 40
97.5000
  1
400
 50
0.0000
  7
SOLINE
 72
1
 73
2
 11
17393.7500
 21
-15858.2500
 31
0.0000
  0
LINE
  5
28A
  8
מידות-פנים
 10
15393.7500
 20
-15415.6250
 30
0.0000
 11
15393.7500
 21
-16240.6250
 31
0.0000
  0
LINE
  5
28B
  8
מידות-פנים
 10
19393.7500
 20
-15415.6250
 30
0.0000
 11
19393.7500
 21
-16240.6250
 31
0.0000
  0
LINE
  5
28C
  8
מידות-פנים
 10
15393.7500
 20
-16165.6250
 30
0.0000
 11
19393.7500
 21
-16165.6250
 31
0.0000
  0
SOLID
  5
28D
  8
מידות-פנים
 10
15393.7500
 20
-16165.6250
 30
0.0000
 11
15250.0000
 21
-16205.6250
 31
0.0000
 12
15250.0000
 22
-16125.6250
 32
0.0000
 13
15250.0000
 23
-16125.6250
 33
0.0000
  0
SOLID
  5
28E
  8
מידות-פנים
 10
19393.7500
 20
-16165.6250
 30
0.0000
 11
19537.5000
 21
-16205.6250
 31
0.0000
 12
19537.5000
 22
-16125.6250
 32
0.0000
 13
19537.5000
 23
-16125.6250
 33
0.0000
  0
TEXT
  5
28F
  8
מידות-פנים
 10
17393.7500
 20
-16284.3750
 30
0.0000
 40
125.0000
  1
400
 50
0.0000
  7
SOLINE
 72
1
 73
2
 11
17393.7500
 21
-16284.3750
 31
0.0000
  0
LINE
  5
290
  8
מידות-פנים
 10
14943.7500
 20
-15365.6250
 30
0.0000
 11
14918.7500
 21
-15365.6250
 31
0.0000
  0
LINE
  5
291
  8
מידות-פנים
 10
14943.7500
 20
-12665.6250
 30
0.0000
 11
14918.7500
 21
-12665.6250
 31
0.0000
  0
LINE
  5
292
  8
מידות-פנים
 10
14993.7500
 20
-15365.6250
 30
0.0000
 11
14993.7500
 21
-12665.6250
 31
0.0000
  0
SOLID
  5
293
  8
מידות-פנים
 10
14993.7500
 20
-15365.6250
 30
0.0000
 11
14953.7500
 21
-15509.3750
 31
0.0000
 12
15033.7500
 22
-15509.3750
 32
0.0000
 13
15033.7500
 23
-15509.3750
 33
0.0000
  0
SOLID
  5
294
  8
מידות-פנים
 10
14993.7500
 20
-12665.6250
 30
0.0000
 11
14953.7500
 21
-12521.8750
 31
0.0000
 12
15033.7500
 22
-12521.8750
 32
0.0000
 13
15033.7500
 23
-12521.8750
 33
0.0000
  0
TEXT
  5
295
  8
מידות-פנים
 10
14875.0000
 20
-14015.6250
 30
0.0000
 40
125.0000
  1
270
 50
90.0000
  7
SOLINE
 72
1
 73
2
 11
14875.0000
 21
-14015.6250
 31
0.0000
  0
LINE
  5
296
  8
קירות
 10
22806.2500
 20
-15365.6250
 30
0.0000
 11
25806.2500
 21
-15365.6250
 31
0.0000
  0
LINE
  5
297
  8
קירות
 10
25806.2500
 20
-15365.6250
 30
0.0000
 11
25806.2500
 21
-12665.6250
 31
0.0000
  0
LINE
  5
298
  8
קירות
 10
25806.2500
 20
-12665.6250
 30
0.0000
 11
22806.2500
 21
-12665.6250
 31
0.0000
  0
LINE
  5
299
  8
קירות
 10
22806.2500
 20
-12665.6250
 30
0.0000
 11
22806.2500
 21
-15365.6250
 31
0.0000
  0
TEXT
  5
29A
  8
קירות-טקסט
 10
24306.2500
 20
-12365.6250
 30
0.0000
 40
175.0000
  1
W4
 50
0.0000
  7
SOLINE
 72
1
 73
1
 11
24306.2500
 21
-12365.6250
 31
0.0000
  0
LINE
  5
29B
  8
מידות-פנים
 10
22806.2500
 20
-15405.6250
 30
0.0000
 11
22806.2500
 21
-15824.1250
 31
0.0000
  0
LINE
  5
29C
  8
מידות-פנים
 10
25806.2500
 20
-15405.6250
 30
0.0000
 11
25806.2500
 21
-15824.1250
 31
0.0000
  0
LINE
  5
29D
  8
מידות-פנים
 10
22806.2500
 20
-15765.6250
 30
0.0000
 11
25806.2500
 21
-15765.6250
 31
0.0000
  0
SOLID
  5
29E
  8
מידות-פנים
 10
22806.2500
 20
-15765.6250
 30
0.0000
 11
22694.1250
 21
-15796.8250
 31
0.0000
 12
22694.1250
 22
-15734.4250
 32
0.0000
 13
22694.1250
 23
-15734.4250
 33
0.0000
  0
SOLID
  5
29F
  8
מידות-פנים
 10
25806.2500
 20
-15765.6250
 30
0.0000
 11
25918.3750
 21
-15796.8250
 31
0.0000
 12
25918.3750
 22
-15734.4250
 32
0.0000
 13
25918.3750
 23
-15734.4250
 33
0.0000
  0
TEXT
  5
2A0
  8
מידות-פנים
 10
24306.2500
 20
-15858.2500
 30
0.0000
 40
97.5000
  1
300
 50
0.0000
  7
SOLINE
 72
1
 73
2
 11
24306.2500
 21
-15858.2500
 31
0.0000
  0
LINE
  5
2A1
  8
מידות-פנים
 10
22806.2500
 20
-15415.6250
 30
0.0000
 11
22806.2500
 21
-16240.6250
 31
0.0000
  0
LINE
  5
2A2
  8
מידות-פנים
 10
25806.2500
 20
-15415.6250
 30
0.0000
 11
25806.2500
 21
-16240.6250
 31
0.0000
  0
LINE
  5
2A3
  8
מידות-פנים
 10
22806.2500
 20
-16165.6250
 30
0.0000
 11
25806.2500
 21
-16165.6250
 31
0.0000
  0
SOLID
  5
2A4
  8
מידות-פנים
 10
22806.2500
 20
-16165.6250
 30
0.0000
 11
22662.5000
 21
-16205.6250
 31
0.0000
 12
22662.5000
 22
-16125.6250
 32
0.0000
 13
22662.5000
 23
-16125.6250
 33
0.0000
  0
SOLID
  5
2A5
  8
מידות-פנים
 10
25806.2500
 20
-16165.6250
 30
0.0000
 11
25950.0000
 21
-16205.6250
 31
0.0000
 12
25950.0000
 22
-16125.6250
 32
0.0000
 13
25950.0000
 23
-16125.6250
 33
0.0000
  0
TEXT
  5
2A6
  8
מידות-פנים
 10
24306.2500
 20
-16284.3750
 30
0.0000
 40
125.0000
  1
300
 50
0.0000
  7
SOLINE
 72
1
 73
2
 11
24306.2500
 21
-16284.3750
 31
0.0000
  0
LINE
  5
2A7
  8
מידות-פנים
 10
22356.2500
 20
-15365.6250
 30
0.0000
 11
22331.2500
 21
-15365.6250
 31
0.0000
  0
LINE
  5
2A8
  8
מידות-פנים
 10
22356.2500
 20
-12665.6250
 30
0.0000
 11
22331.2500
 21
-12665.6250
 31
0.0000
  0
LINE
  5
2A9
  8
מידות-פנים
 10
22406.2500
 20
-15365.6250
 30
0.0000
 11
22406.2500
 21
-12665.6250
 31
0.0000
  0
SOLID
  5
2AA
  8
מידות-פנים
 10
22406.2500
 20
-15365.6250
 30
0.0000
 11
22366.2500
 21
-15509.3750
 31
0.0000
 12
22446.2500
 22
-15509.3750
 32
0.0000
 13
22446.2500
 23
-15509.3750
 33
0.0000
  0
SOLID
  5
2AB
  8
מידות-פנים
 10
22406.2500
 20
-12665.6250
 30
0.0000
 11
22366.2500
 21
-12521.8750
 31
0.0000
 12
22446.2500
 22
-12521.8750
 32
0.0000
 13
22446.2500
 23
-12521.8750
 33
0.0000
  0
TEXT
  5
2AC
  8
מידות-פנים
 10
22287.5000
 20
-14015.6250
 30
0.0000
 40
125.0000
  1
270
 50
90.0000
  7
SOLINE
 72
1
 73
2
 11
22287.5000
 21
-14015.6250
 31
0.0000
  0
LINE
  5
2AD
  8
גבול-גיליון
 10
-900.0000
 20
-17184.3750
 30
0.0000
 11
26850.0000
 21
-17184.3750
 31
0.0000
  0
LINE
  5
2AE
  8
גבול-גיליון
 10
26850.0000
 20
-17184.3750
 30
0.0000
 11
26850.0000
 21
900.0000
 31
0.0000
  0
LINE
  5
2AF
  8
גבול-גיליון
 10
26850.0000
 20
900.0000
 30
0.0000
 11
-900.0000
 21
900.0000
 31
0.0000
  0
LINE
  5
2B0
  8
גבול-גיליון
 10
-900.0000
 20
900.0000
 30
0.0000
 11
-900.0000
 21
-17184.3750
 31
0.0000
  0
ENDSEC
  0
EOF
