  0
SECTION
  2
HEADER
  9
$ACADVER
  1
AC1009
  9
$INSBASE
 10
0.0000
 20
0.0000
 30
0.0000
  9
$EXTMIN
 10
3020.0000
 20
-10411.2117
 30
0.0000
  9
$EXTMAX
 10
8340.0000
 20
-2189.0000
 30
0.0000
  9
$DWGCODEPAGE
  3
ansi_1255
  9
$CLAYER
  8
0
  9
$LTSCALE
 40
10.0000
  9
$LIMMIN
 10
0.0000
 20
0.0000
  9
$LIMMAX
 10
2000.0000
 20
200.0000
  0
ENDSEC
  0
SECTION
  2
TABLES
  0
TABLE
  2
VPORT
 70
1
  0
VPORT
  2
*ACTIVE
 70
0
 10
0.0000
 20
0.0000
 11
1.0000
 21
1.0000
 12
5680.0000
 22
-6300.1058
 13
0.0000
 23
0.0000
 14
10.0000
 24
10.0000
 15
10.0000
 25
10.0000
 16
0.0000
 26
0.0000
 36
1.0000
 17
0.0000
 27
0.0000
 37
0.0000
 40
9455.5434
 41
1.6000
 42
50.0000
 43
0.0000
 44
0.0000
 50
0.0000
 51
0.0000
 71
0
 72
100
 73
1
 74
1
 75
0
 76
0
 77
0
 78
0
  0
ENDTAB
  0
TABLE
  2
LTYPE
 70
3
  0
LTYPE
  2
CONTINUOUS
 70
0
  3
Solid line
 72
65
 73
0
 40
0.0000
  0
LTYPE
  2
HIDDEN
 70
0
  3
Hidden __ __ __ __ __ __
 72
65
 73
2
 40
9.5250
 49
6.3500
 49
-3.1750
  0
LTYPE
  2
CENTER
 70
0
  3
Center ____ _ ____ _ ____
 72
65
 73
4
 40
50.8000
 49
31.7500
 49
-6.3500
 49
6.3500
 49
-6.3500
  0
ENDTAB
  0
TABLE
  2
LAYER
 70
71
  0
LAYER
  2
0
 70
0
 62
7
  6
CONTINUOUS
  0
LAYER
  2
קירות
 70
0
 62
7
  6
CONTINUOUS
  0
LAYER
  2
קירות-מילוי
 70
0
 62
8
  6
CONTINUOUS
  0
LAYER
  2
קירות-מידות
 70
0
 62
7
  6
CONTINUOUS
  0
LAYER
  2
קירות-טקסט
 70
0
 62
7
  6
CONTINUOUS
  0
LAYER
  2
קירות-נסתר
 70
0
 62
7
  6
HIDDEN
  0
LAYER
  2
קירות-ציר
 70
0
 62
7
  6
CENTER
  0
LAYER
  2
מבנה
 70
0
 62
9
  6
CONTINUOUS
  0
LAYER
  2
מבנה-מילוי
 70
0
 62
9
  6
CONTINUOUS
  0
LAYER
  2
מבנה-מידות
 70
0
 62
9
  6
CONTINUOUS
  0
LAYER
  2
מבנה-טקסט
 70
0
 62
9
  6
CONTINUOUS
  0
LAYER
  2
מבנה-נסתר
 70
0
 62
9
  6
HIDDEN
  0
LAYER
  2
מבנה-ציר
 70
0
 62
9
  6
CENTER
  0
LAYER
  2
חשמל
 70
0
 62
6
  6
CONTINUOUS
  0
LAYER
  2
חשמל-מידות
 70
0
 62
6
  6
CONTINUOUS
  0
LAYER
  2
חשמל-טקסט
 70
0
 62
6
  6
CONTINUOUS
  0
LAYER
  2
חשמל-נסתר
 70
0
 62
6
  6
HIDDEN
  0
LAYER
  2
תאורה
 70
0
 62
30
  6
CONTINUOUS
  0
LAYER
  2
תאורה-מידות
 70
0
 62
30
  6
CONTINUOUS
  0
LAYER
  2
תאורה-טקסט
 70
0
 62
30
  6
CONTINUOUS
  0
LAYER
  2
תאורה-נסתר
 70
0
 62
30
  6
HIDDEN
  0
LAYER
  2
מים
 70
0
 62
4
  6
CONTINUOUS
  0
LAYER
  2
מים-מידות
 70
0
 62
4
  6
CONTINUOUS
  0
LAYER
  2
מים-טקסט
 70
0
 62
4
  6
CONTINUOUS
  0
LAYER
  2
מים-נסתר
 70
0
 62
4
  6
HIDDEN
  0
LAYER
  2
מים-ציר
 70
0
 62
4
  6
CENTER
  0
LAYER
  2
ניקוז
 70
0
 62
140
  6
CONTINUOUS
  0
LAYER
  2
ניקוז-מידות
 70
0
 62
140
  6
CONTINUOUS
  0
LAYER
  2
ניקוז-טקסט
 70
0
 62
140
  6
CONTINUOUS
  0
LAYER
  2
ניקוז-נסתר
 70
0
 62
140
  6
HIDDEN
  0
LAYER
  2
ניקוז-ציר
 70
0
 62
140
  6
CENTER
  0
LAYER
  2
גז
 70
0
 62
2
  6
CONTINUOUS
  0
LAYER
  2
גז-מידות
 70
0
 62
2
  6
CONTINUOUS
  0
LAYER
  2
גז-טקסט
 70
0
 62
2
  6
CONTINUOUS
  0
LAYER
  2
גז-נסתר
 70
0
 62
2
  6
HIDDEN
  0
LAYER
  2
גז-ציר
 70
0
 62
2
  6
CENTER
  0
LAYER
  2
מיזוג
 70
0
 62
141
  6
CONTINUOUS
  0
LAYER
  2
מיזוג-מידות
 70
0
 62
141
  6
CONTINUOUS
  0
LAYER
  2
מיזוג-טקסט
 70
0
 62
141
  6
CONTINUOUS
  0
LAYER
  2
מיזוג-נסתר
 70
0
 62
141
  6
HIDDEN
  0
LAYER
  2
אוורור
 70
0
 62
131
  6
CONTINUOUS
  0
LAYER
  2
אוורור-מידות
 70
0
 62
131
  6
CONTINUOUS
  0
LAYER
  2
אוורור-טקסט
 70
0
 62
131
  6
CONTINUOUS
  0
LAYER
  2
אוורור-נסתר
 70
0
 62
131
  6
HIDDEN
  0
LAYER
  2
דלתות
 70
0
 62
5
  6
CONTINUOUS
  0
LAYER
  2
דלתות-מידות
 70
0
 62
5
  6
CONTINUOUS
  0
LAYER
  2
דלתות-טקסט
 70
0
 62
5
  6
CONTINUOUS
  0
LAYER
  2
דלתות-נסתר
 70
0
 62
5
  6
HIDDEN
  0
LAYER
  2
דלתות-מילוי
 70
0
 62
5
  6
CONTINUOUS
  0
LAYER
  2
חלונות
 70
0
 62
151
  6
CONTINUOUS
  0
LAYER
  2
חלונות-מידות
 70
0
 62
151
  6
CONTINUOUS
  0
LAYER
  2
חלונות-טקסט
 70
0
 62
151
  6
CONTINUOUS
  0
LAYER
  2
חלונות-נסתר
 70
0
 62
151
  6
HIDDEN
  0
LAYER
  2
ריהוט
 70
0
 62
42
  6
CONTINUOUS
  0
LAYER
  2
ריהוט-מידות
 70
0
 62
42
  6
CONTINUOUS
  0
LAYER
  2
ריהוט-טקסט
 70
0
 62
42
  6
CONTINUOUS
  0
LAYER
  2
ריהוט-נסתר
 70
0
 62
42
  6
HIDDEN
  0
LAYER
  2
מטבח
 70
0
 62
52
  6
CONTINUOUS
  0
LAYER
  2
מטבח-מידות
 70
0
 62
52
  6
CONTINUOUS
  0
LAYER
  2
מטבח-טקסט
 70
0
 62
52
  6
CONTINUOUS
  0
LAYER
  2
מטבח-נסתר
 70
0
 62
52
  6
HIDDEN
  0
LAYER
  2
ריצוף
 70
0
 62
251
  6
CONTINUOUS
  0
LAYER
  2
ריצוף-מילוי
 70
0
 62
8
  6
CONTINUOUS
  0
LAYER
  2
מידות-פנים
 70
0
 62
3
  6
CONTINUOUS
  0
LAYER
  2
מידות-חוץ
 70
0
 62
1
  6
CONTINUOUS
  0
LAYER
  2
מסגרת
 70
0
 62
250
  6
CONTINUOUS
  0
LAYER
  2
גבול-גיליון
 70
0
 62
255
  6
CONTINUOUS
  0
LAYER
  2
מקרא
 70
0
 62
150
  6
CONTINUOUS
  0
LAYER
  2
רשת-צירים
 70
0
 62
8
  6
CENTER
  0
LAYER
  2
הערות
 70
0
 62
150
  6
CONTINUOUS
  0
LAYER
  2
מהדורות
 70
0
 62
1
  6
CONTINUOUS
  0
ENDTAB
  0
TABLE
  2
STYLE
 70
2
  0
STYLE
  2
SOLINE
 70
0
 40
0.0000
 41
1.0000
 50
0.0000
 71
0
 42
2.5000
  3
arial.ttf
  4

  0
STYLE
  2
Standard
 70
0
 40
0.0000
 41
1.0000
 50
0.0000
 71
0
 42
2.5000
  3
txt
  4

  0
ENDTAB
  0
ENDSEC
  0
SECTION
  2
BLOCKS
  0
BLOCK
  8
0
  2
DUPLEXSWITCH
 70
0
 10
0.0000
 20
0.0000
 30
0.0000
  3
DUPLEXSWITCH
  1

  0
3DFACE
  5
1121
  8
0
 10
-72.0000
 20
-40.0000
 30
0.0000
 11
-2.0000
 21
-40.0000
 31
0.0000
 12
-2.0000
 22
0.0000
 32
0.0000
 13
-72.0000
 23
0.0000
 33
0.0000
  0
3DFACE
  5
1122
  8
0
 10
-72.0000
 20
-40.0000
 30
70.0000
 11
-2.0000
 21
-40.0000
 31
70.0000
 12
-2.0000
 22
0.0000
 32
70.0000
 13
-72.0000
 23
0.0000
 33
70.0000
  0
3DFACE
  5
1123
  8
0
 10
-72.0000
 20
-40.0000
 30
0.0000
 11
-2.0000
 21
-40.0000
 31
0.0000
 12
-2.0000
 22
-40.0000
 32
70.0000
 13
-72.0000
 23
-40.0000
 33
70.0000
  0
3DFACE
  5
1124
  8
0
 10
-72.0000
 20
0.0000
 30
0.0000
 11
-2.0000
 21
0.0000
 31
0.0000
 12
-2.0000
 22
0.0000
 32
70.0000
 13
-72.0000
 23
0.0000
 33
70.0000
  0
3DFACE
  5
1125
  8
0
 10
-72.0000
 20
-40.0000
 30
0.0000
 11
-72.0000
 21
0.0000
 31
0.0000
 12
-72.0000
 22
0.0000
 32
70.0000
 13
-72.0000
 23
-40.0000
 33
70.0000
  0
3DFACE
  5
1126
  8
0
 10
-2.0000
 20
-40.0000
 30
0.0000
 11
-2.0000
 21
0.0000
 31
0.0000
 12
-2.0000
 22
0.0000
 32
70.0000
 13
-2.0000
 23
-40.0000
 33
70.0000
  0
3DFACE
  5
1127
  8
0
 10
-82.0000
 20
0.0000
 30
-8.0000
 11
8.0000
 21
0.0000
 31
-8.0000
 12
8.0000
 22
8.0000
 32
-8.0000
 13
-82.0000
 23
8.0000
 33
-8.0000
  0
3DFACE
  5
1128
  8
0
 10
-82.0000
 20
0.0000
 30
78.0000
 11
8.0000
 21
0.0000
 31
78.0000
 12
8.0000
 22
8.0000
 32
78.0000
 13
-82.0000
 23
8.0000
 33
78.0000
  0
3DFACE
  5
1129
  8
0
 10
-82.0000
 20
0.0000
 30
-8.0000
 11
8.0000
 21
0.0000
 31
-8.0000
 12
8.0000
 22
0.0000
 32
78.0000
 13
-82.0000
 23
0.0000
 33
78.0000
  0
3DFACE
  5
112A
  8
0
 10
-82.0000
 20
8.0000
 30
-8.0000
 11
8.0000
 21
8.0000
 31
-8.0000
 12
8.0000
 22
8.0000
 32
78.0000
 13
-82.0000
 23
8.0000
 33
78.0000
  0
3DFACE
  5
112B
  8
0
 10
-82.0000
 20
0.0000
 30
-8.0000
 11
-82.0000
 21
8.0000
 31
-8.0000
 12
-82.0000
 22
8.0000
 32
78.0000
 13
-82.0000
 23
0.0000
 33
78.0000
  0
3DFACE
  5
112C
  8
0
 10
8.0000
 20
0.0000
 30
-8.0000
 11
8.0000
 21
8.0000
 31
-8.0000
 12
8.0000
 22
8.0000
 32
78.0000
 13
8.0000
 23
0.0000
 33
78.0000
  0
3DFACE
  5
112D
  8
0
 10
-53.0000
 20
8.0000
 30
20.0000
 11
-21.0000
 21
8.0000
 31
20.0000
 12
-21.0000
 22
14.0000
 32
20.0000
 13
-53.0000
 23
14.0000
 33
20.0000
  0
3DFACE
  5
112E
  8
0
 10
-53.0000
 20
8.0000
 30
50.0000
 11
-21.0000
 21
8.0000
 31
50.0000
 12
-21.0000
 22
14.0000
 32
50.0000
 13
-53.0000
 23
14.0000
 33
50.0000
  0
3DFACE
  5
112F
  8
0
 10
-53.0000
 20
8.0000
 30
20.0000
 11
-21.0000
 21
8.0000
 31
20.0000
 12
-21.0000
 22
8.0000
 32
50.0000
 13
-53.0000
 23
8.0000
 33
50.0000
  0
3DFACE
  5
1130
  8
0
 10
-53.0000
 20
14.0000
 30
20.0000
 11
-21.0000
 21
14.0000
 31
20.0000
 12
-21.0000
 22
14.0000
 32
50.0000
 13
-53.0000
 23
14.0000
 33
50.0000
  0
3DFACE
  5
1131
  8
0
 10
-53.0000
 20
8.0000
 30
20.0000
 11
-53.0000
 21
14.0000
 31
20.0000
 12
-53.0000
 22
14.0000
 32
50.0000
 13
-53.0000
 23
8.0000
 33
50.0000
  0
3DFACE
  5
1132
  8
0
 10
-21.0000
 20
8.0000
 30
20.0000
 11
-21.0000
 21
14.0000
 31
20.0000
 12
-21.0000
 22
14.0000
 32
50.0000
 13
-21.0000
 23
8.0000
 33
50.0000
  0
3DFACE
  5
1133
  8
0
 10
-49.0000
 20
14.0000
 30
30.0000
 11
-41.0000
 21
14.0000
 31
30.0000
 12
-41.0000
 22
18.0000
 32
30.0000
 13
-49.0000
 23
18.0000
 33
30.0000
  0
3DFACE
  5
1134
  8
0
 10
-49.0000
 20
14.0000
 30
44.0000
 11
-41.0000
 21
14.0000
 31
44.0000
 12
-41.0000
 22
18.0000
 32
44.0000
 13
-49.0000
 23
18.0000
 33
44.0000
  0
3DFACE
  5
1135
  8
0
 10
-49.0000
 20
14.0000
 30
30.0000
 11
-41.0000
 21
14.0000
 31
30.0000
 12
-41.0000
 22
14.0000
 32
44.0000
 13
-49.0000
 23
14.0000
 33
44.0000
  0
3DFACE
  5
1136
  8
0
 10
-49.0000
 20
18.0000
 30
30.0000
 11
-41.0000
 21
18.0000
 31
30.0000
 12
-41.0000
 22
18.0000
 32
44.0000
 13
-49.0000
 23
18.0000
 33
44.0000
  0
3DFACE
  5
1137
  8
0
 10
-49.0000
 20
14.0000
 30
30.0000
 11
-49.0000
 21
18.0000
 31
30.0000
 12
-49.0000
 22
18.0000
 32
44.0000
 13
-49.0000
 23
14.0000
 33
44.0000
  0
3DFACE
  5
1138
  8
0
 10
-41.0000
 20
14.0000
 30
30.0000
 11
-41.0000
 21
18.0000
 31
30.0000
 12
-41.0000
 22
18.0000
 32
44.0000
 13
-41.0000
 23
14.0000
 33
44.0000
  0
3DFACE
  5
1139
  8
0
 10
-33.0000
 20
14.0000
 30
30.0000
 11
-25.0000
 21
14.0000
 31
30.0000
 12
-25.0000
 22
18.0000
 32
30.0000
 13
-33.0000
 23
18.0000
 33
30.0000
  0
3DFACE
  5
113A
  8
0
 10
-33.0000
 20
14.0000
 30
44.0000
 11
-25.0000
 21
14.0000
 31
44.0000
 12
-25.0000
 22
18.0000
 32
44.0000
 13
-33.0000
 23
18.0000
 33
44.0000
  0
3DFACE
  5
113B
  8
0
 10
-33.0000
 20
14.0000
 30
30.0000
 11
-25.0000
 21
14.0000
 31
30.0000
 12
-25.0000
 22
14.0000
 32
44.0000
 13
-33.0000
 23
14.0000
 33
44.0000
  0
3DFACE
  5
113C
  8
0
 10
-33.0000
 20
18.0000
 30
30.0000
 11
-25.0000
 21
18.0000
 31
30.0000
 12
-25.0000
 22
18.0000
 32
44.0000
 13
-33.0000
 23
18.0000
 33
44.0000
  0
3DFACE
  5
113D
  8
0
 10
-33.0000
 20
14.0000
 30
30.0000
 11
-33.0000
 21
18.0000
 31
30.0000
 12
-33.0000
 22
18.0000
 32
44.0000
 13
-33.0000
 23
14.0000
 33
44.0000
  0
3DFACE
  5
113E
  8
0
 10
-25.0000
 20
14.0000
 30
30.0000
 11
-25.0000
 21
18.0000
 31
30.0000
 12
-25.0000
 22
18.0000
 32
44.0000
 13
-25.0000
 23
14.0000
 33
44.0000
  0
3DFACE
  5
113F
  8
0
 10
2.0000
 20
-40.0000
 30
0.0000
 11
72.0000
 21
-40.0000
 31
0.0000
 12
72.0000
 22
0.0000
 32
0.0000
 13
2.0000
 23
0.0000
 33
0.0000
  0
3DFACE
  5
1140
  8
0
 10
2.0000
 20
-40.0000
 30
70.0000
 11
72.0000
 21
-40.0000
 31
70.0000
 12
72.0000
 22
0.0000
 32
70.0000
 13
2.0000
 23
0.0000
 33
70.0000
  0
3DFACE
  5
1141
  8
0
 10
2.0000
 20
-40.0000
 30
0.0000
 11
72.0000
 21
-40.0000
 31
0.0000
 12
72.0000
 22
-40.0000
 32
70.0000
 13
2.0000
 23
-40.0000
 33
70.0000
  0
3DFACE
  5
1142
  8
0
 10
2.0000
 20
0.0000
 30
0.0000
 11
72.0000
 21
0.0000
 31
0.0000
 12
72.0000
 22
0.0000
 32
70.0000
 13
2.0000
 23
0.0000
 33
70.0000
  0
3DFACE
  5
1143
  8
0
 10
2.0000
 20
-40.0000
 30
0.0000
 11
2.0000
 21
0.0000
 31
0.0000
 12
2.0000
 22
0.0000
 32
70.0000
 13
2.0000
 23
-40.0000
 33
70.0000
  0
3DFACE
  5
1144
  8
0
 10
72.0000
 20
-40.0000
 30
0.0000
 11
72.0000
 21
0.0000
 31
0.0000
 12
72.0000
 22
0.0000
 32
70.0000
 13
72.0000
 23
-40.0000
 33
70.0000
  0
3DFACE
  5
1145
  8
0
 10
-8.0000
 20
0.0000
 30
-8.0000
 11
82.0000
 21
0.0000
 31
-8.0000
 12
82.0000
 22
8.0000
 32
-8.0000
 13
-8.0000
 23
8.0000
 33
-8.0000
  0
3DFACE
  5
1146
  8
0
 10
-8.0000
 20
0.0000
 30
78.0000
 11
82.0000
 21
0.0000
 31
78.0000
 12
82.0000
 22
8.0000
 32
78.0000
 13
-8.0000
 23
8.0000
 33
78.0000
  0
3DFACE
  5
1147
  8
0
 10
-8.0000
 20
0.0000
 30
-8.0000
 11
82.0000
 21
0.0000
 31
-8.0000
 12
82.0000
 22
0.0000
 32
78.0000
 13
-8.0000
 23
0.0000
 33
78.0000
  0
3DFACE
  5
1148
  8
0
 10
-8.0000
 20
8.0000
 30
-8.0000
 11
82.0000
 21
8.0000
 31
-8.0000
 12
82.0000
 22
8.0000
 32
78.0000
 13
-8.0000
 23
8.0000
 33
78.0000
  0
3DFACE
  5
1149
  8
0
 10
-8.0000
 20
0.0000
 30
-8.0000
 11
-8.0000
 21
8.0000
 31
-8.0000
 12
-8.0000
 22
8.0000
 32
78.0000
 13
-8.0000
 23
0.0000
 33
78.0000
  0
3DFACE
  5
114A
  8
0
 10
82.0000
 20
0.0000
 30
-8.0000
 11
82.0000
 21
8.0000
 31
-8.0000
 12
82.0000
 22
8.0000
 32
78.0000
 13
82.0000
 23
0.0000
 33
78.0000
  0
3DFACE
  5
114B
  8
0
 10
21.0000
 20
8.0000
 30
20.0000
 11
53.0000
 21
8.0000
 31
20.0000
 12
53.0000
 22
14.0000
 32
20.0000
 13
21.0000
 23
14.0000
 33
20.0000
  0
3DFACE
  5
114C
  8
0
 10
21.0000
 20
8.0000
 30
50.0000
 11
53.0000
 21
8.0000
 31
50.0000
 12
53.0000
 22
14.0000
 32
50.0000
 13
21.0000
 23
14.0000
 33
50.0000
  0
3DFACE
  5
114D
  8
0
 10
21.0000
 20
8.0000
 30
20.0000
 11
53.0000
 21
8.0000
 31
20.0000
 12
53.0000
 22
8.0000
 32
50.0000
 13
21.0000
 23
8.0000
 33
50.0000
  0
3DFACE
  5
114E
  8
0
 10
21.0000
 20
14.0000
 30
20.0000
 11
53.0000
 21
14.0000
 31
20.0000
 12
53.0000
 22
14.0000
 32
50.0000
 13
21.0000
 23
14.0000
 33
50.0000
  0
3DFACE
  5
114F
  8
0
 10
21.0000
 20
8.0000
 30
20.0000
 11
21.0000
 21
14.0000
 31
20.0000
 12
21.0000
 22
14.0000
 32
50.0000
 13
21.0000
 23
8.0000
 33
50.0000
  0
3DFACE
  5
1150
  8
0
 10
53.0000
 20
8.0000
 30
20.0000
 11
53.0000
 21
14.0000
 31
20.0000
 12
53.0000
 22
14.0000
 32
50.0000
 13
53.0000
 23
8.0000
 33
50.0000
  0
3DFACE
  5
1151
  8
0
 10
25.0000
 20
14.0000
 30
30.0000
 11
33.0000
 21
14.0000
 31
30.0000
 12
33.0000
 22
18.0000
 32
30.0000
 13
25.0000
 23
18.0000
 33
30.0000
  0
3DFACE
  5
1152
  8
0
 10
25.0000
 20
14.0000
 30
44.0000
 11
33.0000
 21
14.0000
 31
44.0000
 12
33.0000
 22
18.0000
 32
44.0000
 13
25.0000
 23
18.0000
 33
44.0000
  0
3DFACE
  5
1153
  8
0
 10
25.0000
 20
14.0000
 30
30.0000
 11
33.0000
 21
14.0000
 31
30.0000
 12
33.0000
 22
14.0000
 32
44.0000
 13
25.0000
 23
14.0000
 33
44.0000
  0
3DFACE
  5
1154
  8
0
 10
25.0000
 20
18.0000
 30
30.0000
 11
33.0000
 21
18.0000
 31
30.0000
 12
33.0000
 22
18.0000
 32
44.0000
 13
25.0000
 23
18.0000
 33
44.0000
  0
3DFACE
  5
1155
  8
0
 10
25.0000
 20
14.0000
 30
30.0000
 11
25.0000
 21
18.0000
 31
30.0000
 12
25.0000
 22
18.0000
 32
44.0000
 13
25.0000
 23
14.0000
 33
44.0000
  0
3DFACE
  5
1156
  8
0
 10
33.0000
 20
14.0000
 30
30.0000
 11
33.0000
 21
18.0000
 31
30.0000
 12
33.0000
 22
18.0000
 32
44.0000
 13
33.0000
 23
14.0000
 33
44.0000
  0
3DFACE
  5
1157
  8
0
 10
41.0000
 20
14.0000
 30
30.0000
 11
49.0000
 21
14.0000
 31
30.0000
 12
49.0000
 22
18.0000
 32
30.0000
 13
41.0000
 23
18.0000
 33
30.0000
  0
3DFACE
  5
1158
  8
0
 10
41.0000
 20
14.0000
 30
44.0000
 11
49.0000
 21
14.0000
 31
44.0000
 12
49.0000
 22
18.0000
 32
44.0000
 13
41.0000
 23
18.0000
 33
44.0000
  0
3DFACE
  5
1159
  8
0
 10
41.0000
 20
14.0000
 30
30.0000
 11
49.0000
 21
14.0000
 31
30.0000
 12
49.0000
 22
14.0000
 32
44.0000
 13
41.0000
 23
14.0000
 33
44.0000
  0
3DFACE
  5
115A
  8
0
 10
41.0000
 20
18.0000
 30
30.0000
 11
49.0000
 21
18.0000
 31
30.0000
 12
49.0000
 22
18.0000
 32
44.0000
 13
41.0000
 23
18.0000
 33
44.0000
  0
3DFACE
  5
115B
  8
0
 10
41.0000
 20
14.0000
 30
30.0000
 11
41.0000
 21
18.0000
 31
30.0000
 12
41.0000
 22
18.0000
 32
44.0000
 13
41.0000
 23
14.0000
 33
44.0000
  0
3DFACE
  5
115C
  8
0
 10
49.0000
 20
14.0000
 30
30.0000
 11
49.0000
 21
18.0000
 31
30.0000
 12
49.0000
 22
18.0000
 32
44.0000
 13
49.0000
 23
14.0000
 33
44.0000
  0
ENDBLK
  8
0
  0
BLOCK
  8
0
  2
CONTROLBOX
 70
0
 10
0.0000
 20
0.0000
 30
0.0000
  3
CONTROLBOX
  1

  0
3DFACE
  5
115D
  8
0
 10
-100.0000
 20
-40.0000
 30
-150.0000
 11
100.0000
 21
-40.0000
 31
-150.0000
 12
100.0000
 22
0.0000
 32
-150.0000
 13
-100.0000
 23
0.0000
 33
-150.0000
  0
3DFACE
  5
115E
  8
0
 10
-100.0000
 20
-40.0000
 30
150.0000
 11
100.0000
 21
-40.0000
 31
150.0000
 12
100.0000
 22
0.0000
 32
150.0000
 13
-100.0000
 23
0.0000
 33
150.0000
  0
3DFACE
  5
115F
  8
0
 10
-100.0000
 20
-40.0000
 30
-150.0000
 11
100.0000
 21
-40.0000
 31
-150.0000
 12
100.0000
 22
-40.0000
 32
150.0000
 13
-100.0000
 23
-40.0000
 33
150.0000
  0
3DFACE
  5
1160
  8
0
 10
-100.0000
 20
0.0000
 30
-150.0000
 11
100.0000
 21
0.0000
 31
-150.0000
 12
100.0000
 22
0.0000
 32
150.0000
 13
-100.0000
 23
0.0000
 33
150.0000
  0
3DFACE
  5
1161
  8
0
 10
-100.0000
 20
-40.0000
 30
-150.0000
 11
-100.0000
 21
0.0000
 31
-150.0000
 12
-100.0000
 22
0.0000
 32
150.0000
 13
-100.0000
 23
-40.0000
 33
150.0000
  0
3DFACE
  5
1162
  8
0
 10
100.0000
 20
-40.0000
 30
-150.0000
 11
100.0000
 21
0.0000
 31
-150.0000
 12
100.0000
 22
0.0000
 32
150.0000
 13
100.0000
 23
-40.0000
 33
150.0000
  0
3DFACE
  5
1163
  8
0
 10
-96.0000
 20
0.0000
 30
-146.0000
 11
96.0000
 21
0.0000
 31
-146.0000
 12
96.0000
 22
10.0000
 32
-146.0000
 13
-96.0000
 23
10.0000
 33
-146.0000
  0
3DFACE
  5
1164
  8
0
 10
-96.0000
 20
0.0000
 30
146.0000
 11
96.0000
 21
0.0000
 31
146.0000
 12
96.0000
 22
10.0000
 32
146.0000
 13
-96.0000
 23
10.0000
 33
146.0000
  0
3DFACE
  5
1165
  8
0
 10
-96.0000
 20
0.0000
 30
-146.0000
 11
96.0000
 21
0.0000
 31
-146.0000
 12
96.0000
 22
0.0000
 32
146.0000
 13
-96.0000
 23
0.0000
 33
146.0000
  0
3DFACE
  5
1166
  8
0
 10
-96.0000
 20
10.0000
 30
-146.0000
 11
96.0000
 21
10.0000
 31
-146.0000
 12
96.0000
 22
10.0000
 32
146.0000
 13
-96.0000
 23
10.0000
 33
146.0000
  0
3DFACE
  5
1167
  8
0
 10
-96.0000
 20
0.0000
 30
-146.0000
 11
-96.0000
 21
10.0000
 31
-146.0000
 12
-96.0000
 22
10.0000
 32
146.0000
 13
-96.0000
 23
0.0000
 33
146.0000
  0
3DFACE
  5
1168
  8
0
 10
96.0000
 20
0.0000
 30
-146.0000
 11
96.0000
 21
10.0000
 31
-146.0000
 12
96.0000
 22
10.0000
 32
146.0000
 13
96.0000
 23
0.0000
 33
146.0000
  0
ENDBLK
  8
0
  0
BLOCK
  8
0
  2
SOCKET
 70
0
 10
0.0000
 20
0.0000
 30
0.0000
  3
SOCKET
  1

  0
3DFACE
  5
1169
  8
0
 10
-35.0000
 20
-40.0000
 30
0.0000
 11
35.0000
 21
-40.0000
 31
0.0000
 12
35.0000
 22
0.0000
 32
0.0000
 13
-35.0000
 23
0.0000
 33
0.0000
  0
3DFACE
  5
116A
  8
0
 10
-35.0000
 20
-40.0000
 30
70.0000
 11
35.0000
 21
-40.0000
 31
70.0000
 12
35.0000
 22
0.0000
 32
70.0000
 13
-35.0000
 23
0.0000
 33
70.0000
  0
3DFACE
  5
116B
  8
0
 10
-35.0000
 20
-40.0000
 30
0.0000
 11
35.0000
 21
-40.0000
 31
0.0000
 12
35.0000
 22
-40.0000
 32
70.0000
 13
-35.0000
 23
-40.0000
 33
70.0000
  0
3DFACE
  5
116C
  8
0
 10
-35.0000
 20
0.0000
 30
0.0000
 11
35.0000
 21
0.0000
 31
0.0000
 12
35.0000
 22
0.0000
 32
70.0000
 13
-35.0000
 23
0.0000
 33
70.0000
  0
3DFACE
  5
116D
  8
0
 10
-35.0000
 20
-40.0000
 30
0.0000
 11
-35.0000
 21
0.0000
 31
0.0000
 12
-35.0000
 22
0.0000
 32
70.0000
 13
-35.0000
 23
-40.0000
 33
70.0000
  0
3DFACE
  5
116E
  8
0
 10
35.0000
 20
-40.0000
 30
0.0000
 11
35.0000
 21
0.0000
 31
0.0000
 12
35.0000
 22
0.0000
 32
70.0000
 13
35.0000
 23
-40.0000
 33
70.0000
  0
3DFACE
  5
116F
  8
0
 10
-45.0000
 20
0.0000
 30
-8.0000
 11
45.0000
 21
0.0000
 31
-8.0000
 12
45.0000
 22
8.0000
 32
-8.0000
 13
-45.0000
 23
8.0000
 33
-8.0000
  0
3DFACE
  5
1170
  8
0
 10
-45.0000
 20
0.0000
 30
78.0000
 11
45.0000
 21
0.0000
 31
78.0000
 12
45.0000
 22
8.0000
 32
78.0000
 13
-45.0000
 23
8.0000
 33
78.0000
  0
3DFACE
  5
1171
  8
0
 10
-45.0000
 20
0.0000
 30
-8.0000
 11
45.0000
 21
0.0000
 31
-8.0000
 12
45.0000
 22
0.0000
 32
78.0000
 13
-45.0000
 23
0.0000
 33
78.0000
  0
3DFACE
  5
1172
  8
0
 10
-45.0000
 20
8.0000
 30
-8.0000
 11
45.0000
 21
8.0000
 31
-8.0000
 12
45.0000
 22
8.0000
 32
78.0000
 13
-45.0000
 23
8.0000
 33
78.0000
  0
3DFACE
  5
1173
  8
0
 10
-45.0000
 20
0.0000
 30
-8.0000
 11
-45.0000
 21
8.0000
 31
-8.0000
 12
-45.0000
 22
8.0000
 32
78.0000
 13
-45.0000
 23
0.0000
 33
78.0000
  0
3DFACE
  5
1174
  8
0
 10
45.0000
 20
0.0000
 30
-8.0000
 11
45.0000
 21
8.0000
 31
-8.0000
 12
45.0000
 22
8.0000
 32
78.0000
 13
45.0000
 23
0.0000
 33
78.0000
  0
3DFACE
  5
1175
  8
0
 10
-16.0000
 20
8.0000
 30
20.0000
 11
16.0000
 21
8.0000
 31
20.0000
 12
16.0000
 22
14.0000
 32
20.0000
 13
-16.0000
 23
14.0000
 33
20.0000
  0
3DFACE
  5
1176
  8
0
 10
-16.0000
 20
8.0000
 30
50.0000
 11
16.0000
 21
8.0000
 31
50.0000
 12
16.0000
 22
14.0000
 32
50.0000
 13
-16.0000
 23
14.0000
 33
50.0000
  0
3DFACE
  5
1177
  8
0
 10
-16.0000
 20
8.0000
 30
20.0000
 11
16.0000
 21
8.0000
 31
20.0000
 12
16.0000
 22
8.0000
 32
50.0000
 13
-16.0000
 23
8.0000
 33
50.0000
  0
3DFACE
  5
1178
  8
0
 10
-16.0000
 20
14.0000
 30
20.0000
 11
16.0000
 21
14.0000
 31
20.0000
 12
16.0000
 22
14.0000
 32
50.0000
 13
-16.0000
 23
14.0000
 33
50.0000
  0
3DFACE
  5
1179
  8
0
 10
-16.0000
 20
8.0000
 30
20.0000
 11
-16.0000
 21
14.0000
 31
20.0000
 12
-16.0000
 22
14.0000
 32
50.0000
 13
-16.0000
 23
8.0000
 33
50.0000
  0
3DFACE
  5
117A
  8
0
 10
16.0000
 20
8.0000
 30
20.0000
 11
16.0000
 21
14.0000
 31
20.0000
 12
16.0000
 22
14.0000
 32
50.0000
 13
16.0000
 23
8.0000
 33
50.0000
  0
3DFACE
  5
117B
  8
0
 10
-12.0000
 20
14.0000
 30
30.0000
 11
-4.0000
 21
14.0000
 31
30.0000
 12
-4.0000
 22
18.0000
 32
30.0000
 13
-12.0000
 23
18.0000
 33
30.0000
  0
3DFACE
  5
117C
  8
0
 10
-12.0000
 20
14.0000
 30
44.0000
 11
-4.0000
 21
14.0000
 31
44.0000
 12
-4.0000
 22
18.0000
 32
44.0000
 13
-12.0000
 23
18.0000
 33
44.0000
  0
3DFACE
  5
117D
  8
0
 10
-12.0000
 20
14.0000
 30
30.0000
 11
-4.0000
 21
14.0000
 31
30.0000
 12
-4.0000
 22
14.0000
 32
44.0000
 13
-12.0000
 23
14.0000
 33
44.0000
  0
3DFACE
  5
117E
  8
0
 10
-12.0000
 20
18.0000
 30
30.0000
 11
-4.0000
 21
18.0000
 31
30.0000
 12
-4.0000
 22
18.0000
 32
44.0000
 13
-12.0000
 23
18.0000
 33
44.0000
  0
3DFACE
  5
117F
  8
0
 10
-12.0000
 20
14.0000
 30
30.0000
 11
-12.0000
 21
18.0000
 31
30.0000
 12
-12.0000
 22
18.0000
 32
44.0000
 13
-12.0000
 23
14.0000
 33
44.0000
  0
3DFACE
  5
1180
  8
0
 10
-4.0000
 20
14.0000
 30
30.0000
 11
-4.0000
 21
18.0000
 31
30.0000
 12
-4.0000
 22
18.0000
 32
44.0000
 13
-4.0000
 23
14.0000
 33
44.0000
  0
3DFACE
  5
1181
  8
0
 10
4.0000
 20
14.0000
 30
30.0000
 11
12.0000
 21
14.0000
 31
30.0000
 12
12.0000
 22
18.0000
 32
30.0000
 13
4.0000
 23
18.0000
 33
30.0000
  0
3DFACE
  5
1182
  8
0
 10
4.0000
 20
14.0000
 30
44.0000
 11
12.0000
 21
14.0000
 31
44.0000
 12
12.0000
 22
18.0000
 32
44.0000
 13
4.0000
 23
18.0000
 33
44.0000
  0
3DFACE
  5
1183
  8
0
 10
4.0000
 20
14.0000
 30
30.0000
 11
12.0000
 21
14.0000
 31
30.0000
 12
12.0000
 22
14.0000
 32
44.0000
 13
4.0000
 23
14.0000
 33
44.0000
  0
3DFACE
  5
1184
  8
0
 10
4.0000
 20
18.0000
 30
30.0000
 11
12.0000
 21
18.0000
 31
30.0000
 12
12.0000
 22
18.0000
 32
44.0000
 13
4.0000
 23
18.0000
 33
44.0000
  0
3DFACE
  5
1185
  8
0
 10
4.0000
 20
14.0000
 30
30.0000
 11
4.0000
 21
18.0000
 31
30.0000
 12
4.0000
 22
18.0000
 32
44.0000
 13
4.0000
 23
14.0000
 33
44.0000
  0
3DFACE
  5
1186
  8
0
 10
12.0000
 20
14.0000
 30
30.0000
 11
12.0000
 21
18.0000
 31
30.0000
 12
12.0000
 22
18.0000
 32
44.0000
 13
12.0000
 23
14.0000
 33
44.0000
  0
ENDBLK
  8
0
  0
BLOCK
  8
0
  2
GAS
 70
0
 10
0.0000
 20
0.0000
 30
0.0000
  3
GAS
  1

  0
3DFACE
  5
1187
  8
0
 10
-30.0000
 20
0.0000
 30
0.0000
 11
30.0000
 21
0.0000
 31
0.0000
 12
30.0000
 22
30.0000
 32
0.0000
 13
-30.0000
 23
30.0000
 33
0.0000
  0
3DFACE
  5
1188
  8
0
 10
-30.0000
 20
0.0000
 30
60.0000
 11
30.0000
 21
0.0000
 31
60.0000
 12
30.0000
 22
30.0000
 32
60.0000
 13
-30.0000
 23
30.0000
 33
60.0000
  0
3DFACE
  5
1189
  8
0
 10
-30.0000
 20
0.0000
 30
0.0000
 11
30.0000
 21
0.0000
 31
0.0000
 12
30.0000
 22
0.0000
 32
60.0000
 13
-30.0000
 23
0.0000
 33
60.0000
  0
3DFACE
  5
118A
  8
0
 10
-30.0000
 20
30.0000
 30
0.0000
 11
30.0000
 21
30.0000
 31
0.0000
 12
30.0000
 22
30.0000
 32
60.0000
 13
-30.0000
 23
30.0000
 33
60.0000
  0
3DFACE
  5
118B
  8
0
 10
-30.0000
 20
0.0000
 30
0.0000
 11
-30.0000
 21
30.0000
 31
0.0000
 12
-30.0000
 22
30.0000
 32
60.0000
 13
-30.0000
 23
0.0000
 33
60.0000
  0
3DFACE
  5
118C
  8
0
 10
30.0000
 20
0.0000
 30
0.0000
 11
30.0000
 21
30.0000
 31
0.0000
 12
30.0000
 22
30.0000
 32
60.0000
 13
30.0000
 23
0.0000
 33
60.0000
  0
3DFACE
  5
118D
  8
0
 10
-6.0000
 20
30.0000
 30
22.0000
 11
6.0000
 21
30.0000
 31
22.0000
 12
6.0000
 22
60.0000
 32
22.0000
 13
-6.0000
 23
60.0000
 33
22.0000
  0
3DFACE
  5
118E
  8
0
 10
-6.0000
 20
30.0000
 30
38.0000
 11
6.0000
 21
30.0000
 31
38.0000
 12
6.0000
 22
60.0000
 32
38.0000
 13
-6.0000
 23
60.0000
 33
38.0000
  0
3DFACE
  5
118F
  8
0
 10
-6.0000
 20
30.0000
 30
22.0000
 11
6.0000
 21
30.0000
 31
22.0000
 12
6.0000
 22
30.0000
 32
38.0000
 13
-6.0000
 23
30.0000
 33
38.0000
  0
3DFACE
  5
1190
  8
0
 10
-6.0000
 20
60.0000
 30
22.0000
 11
6.0000
 21
60.0000
 31
22.0000
 12
6.0000
 22
60.0000
 32
38.0000
 13
-6.0000
 23
60.0000
 33
38.0000
  0
3DFACE
  5
1191
  8
0
 10
-6.0000
 20
30.0000
 30
22.0000
 11
-6.0000
 21
60.0000
 31
22.0000
 12
-6.0000
 22
60.0000
 32
38.0000
 13
-6.0000
 23
30.0000
 33
38.0000
  0
3DFACE
  5
1192
  8
0
 10
6.0000
 20
30.0000
 30
22.0000
 11
6.0000
 21
60.0000
 31
22.0000
 12
6.0000
 22
60.0000
 32
38.0000
 13
6.0000
 23
30.0000
 33
38.0000
  0
3DFACE
  5
1193
  8
0
 10
-6.0000
 20
-25.0000
 30
22.0000
 11
6.0000
 21
-25.0000
 31
22.0000
 12
6.0000
 22
0.0000
 32
22.0000
 13
-6.0000
 23
0.0000
 33
22.0000
  0
3DFACE
  5
1194
  8
0
 10
-6.0000
 20
-25.0000
 30
38.0000
 11
6.0000
 21
-25.0000
 31
38.0000
 12
6.0000
 22
0.0000
 32
38.0000
 13
-6.0000
 23
0.0000
 33
38.0000
  0
3DFACE
  5
1195
  8
0
 10
-6.0000
 20
-25.0000
 30
22.0000
 11
6.0000
 21
-25.0000
 31
22.0000
 12
6.0000
 22
-25.0000
 32
38.0000
 13
-6.0000
 23
-25.0000
 33
38.0000
  0
3DFACE
  5
1196
  8
0
 10
-6.0000
 20
0.0000
 30
22.0000
 11
6.0000
 21
0.0000
 31
22.0000
 12
6.0000
 22
0.0000
 32
38.0000
 13
-6.0000
 23
0.0000
 33
38.0000
  0
3DFACE
  5
1197
  8
0
 10
-6.0000
 20
-25.0000
 30
22.0000
 11
-6.0000
 21
0.0000
 31
22.0000
 12
-6.0000
 22
0.0000
 32
38.0000
 13
-6.0000
 23
-25.0000
 33
38.0000
  0
3DFACE
  5
1198
  8
0
 10
6.0000
 20
-25.0000
 30
22.0000
 11
6.0000
 21
0.0000
 31
22.0000
 12
6.0000
 22
0.0000
 32
38.0000
 13
6.0000
 23
-25.0000
 33
38.0000
  0
3DFACE
  5
1199
  8
0
 10
-3.0000
 20
55.0000
 30
15.0000
 11
3.0000
 21
55.0000
 31
15.0000
 12
3.0000
 22
65.0000
 32
15.0000
 13
-3.0000
 23
65.0000
 33
15.0000
  0
3DFACE
  5
119A
  8
0
 10
-3.0000
 20
55.0000
 30
45.0000
 11
3.0000
 21
55.0000
 31
45.0000
 12
3.0000
 22
65.0000
 32
45.0000
 13
-3.0000
 23
65.0000
 33
45.0000
  0
3DFACE
  5
119B
  8
0
 10
-3.0000
 20
55.0000
 30
15.0000
 11
3.0000
 21
55.0000
 31
15.0000
 12
3.0000
 22
55.0000
 32
45.0000
 13
-3.0000
 23
55.0000
 33
45.0000
  0
3DFACE
  5
119C
  8
0
 10
-3.0000
 20
65.0000
 30
15.0000
 11
3.0000
 21
65.0000
 31
15.0000
 12
3.0000
 22
65.0000
 32
45.0000
 13
-3.0000
 23
65.0000
 33
45.0000
  0
3DFACE
  5
119D
  8
0
 10
-3.0000
 20
55.0000
 30
15.0000
 11
-3.0000
 21
65.0000
 31
15.0000
 12
-3.0000
 22
65.0000
 32
45.0000
 13
-3.0000
 23
55.0000
 33
45.0000
  0
3DFACE
  5
119E
  8
0
 10
3.0000
 20
55.0000
 30
15.0000
 11
3.0000
 21
65.0000
 31
15.0000
 12
3.0000
 22
65.0000
 32
45.0000
 13
3.0000
 23
55.0000
 33
45.0000
  0
3DFACE
  5
119F
  8
0
 10
-14.0000
 20
60.0000
 30
22.0000
 11
14.0000
 21
60.0000
 31
22.0000
 12
14.0000
 22
72.0000
 32
22.0000
 13
-14.0000
 23
72.0000
 33
22.0000
  0
3DFACE
  5
11A0
  8
0
 10
-14.0000
 20
60.0000
 30
38.0000
 11
14.0000
 21
60.0000
 31
38.0000
 12
14.0000
 22
72.0000
 32
38.0000
 13
-14.0000
 23
72.0000
 33
38.0000
  0
3DFACE
  5
11A1
  8
0
 10
-14.0000
 20
60.0000
 30
22.0000
 11
14.0000
 21
60.0000
 31
22.0000
 12
14.0000
 22
60.0000
 32
38.0000
 13
-14.0000
 23
60.0000
 33
38.0000
  0
3DFACE
  5
11A2
  8
0
 10
-14.0000
 20
72.0000
 30
22.0000
 11
14.0000
 21
72.0000
 31
22.0000
 12
14.0000
 22
72.0000
 32
38.0000
 13
-14.0000
 23
72.0000
 33
38.0000
  0
3DFACE
  5
11A3
  8
0
 10
-14.0000
 20
60.0000
 30
22.0000
 11
-14.0000
 21
72.0000
 31
22.0000
 12
-14.0000
 22
72.0000
 32
38.0000
 13
-14.0000
 23
60.0000
 33
38.0000
  0
3DFACE
  5
11A4
  8
0
 10
14.0000
 20
60.0000
 30
22.0000
 11
14.0000
 21
72.0000
 31
22.0000
 12
14.0000
 22
72.0000
 32
38.0000
 13
14.0000
 23
60.0000
 33
38.0000
  0
ENDBLK
  8
0
  0
BLOCK
  8
0
  2
LIGHTING
 70
0
 10
0.0000
 20
0.0000
 30
0.0000
  3
LIGHTING
  1

  0
3DFACE
  5
11A5
  8
0
 10
-60.0000
 20
-30.0000
 30
-60.0000
 11
60.0000
 21
-30.0000
 31
-60.0000
 12
60.0000
 22
0.0000
 32
-60.0000
 13
-60.0000
 23
0.0000
 33
-60.0000
  0
3DFACE
  5
11A6
  8
0
 10
-60.0000
 20
-30.0000
 30
60.0000
 11
60.0000
 21
-30.0000
 31
60.0000
 12
60.0000
 22
0.0000
 32
60.0000
 13
-60.0000
 23
0.0000
 33
60.0000
  0
3DFACE
  5
11A7
  8
0
 10
-60.0000
 20
-30.0000
 30
-60.0000
 11
60.0000
 21
-30.0000
 31
-60.0000
 12
60.0000
 22
-30.0000
 32
60.0000
 13
-60.0000
 23
-30.0000
 33
60.0000
  0
3DFACE
  5
11A8
  8
0
 10
-60.0000
 20
0.0000
 30
-60.0000
 11
60.0000
 21
0.0000
 31
-60.0000
 12
60.0000
 22
0.0000
 32
60.0000
 13
-60.0000
 23
0.0000
 33
60.0000
  0
3DFACE
  5
11A9
  8
0
 10
-60.0000
 20
-30.0000
 30
-60.0000
 11
-60.0000
 21
0.0000
 31
-60.0000
 12
-60.0000
 22
0.0000
 32
60.0000
 13
-60.0000
 23
-30.0000
 33
60.0000
  0
3DFACE
  5
11AA
  8
0
 10
60.0000
 20
-30.0000
 30
-60.0000
 11
60.0000
 21
0.0000
 31
-60.0000
 12
60.0000
 22
0.0000
 32
60.0000
 13
60.0000
 23
-30.0000
 33
60.0000
  0
3DFACE
  5
11AB
  8
0
 10
-50.0000
 20
0.0000
 30
-50.0000
 11
50.0000
 21
0.0000
 31
-50.0000
 12
50.0000
 22
6.0000
 32
-50.0000
 13
-50.0000
 23
6.0000
 33
-50.0000
  0
3DFACE
  5
11AC
  8
0
 10
-50.0000
 20
0.0000
 30
50.0000
 11
50.0000
 21
0.0000
 31
50.0000
 12
50.0000
 22
6.0000
 32
50.0000
 13
-50.0000
 23
6.0000
 33
50.0000
  0
3DFACE
  5
11AD
  8
0
 10
-50.0000
 20
0.0000
 30
-50.0000
 11
50.0000
 21
0.0000
 31
-50.0000
 12
50.0000
 22
0.0000
 32
50.0000
 13
-50.0000
 23
0.0000
 33
50.0000
  0
3DFACE
  5
11AE
  8
0
 10
-50.0000
 20
6.0000
 30
-50.0000
 11
50.0000
 21
6.0000
 31
-50.0000
 12
50.0000
 22
6.0000
 32
50.0000
 13
-50.0000
 23
6.0000
 33
50.0000
  0
3DFACE
  5
11AF
  8
0
 10
-50.0000
 20
0.0000
 30
-50.0000
 11
-50.0000
 21
6.0000
 31
-50.0000
 12
-50.0000
 22
6.0000
 32
50.0000
 13
-50.0000
 23
0.0000
 33
50.0000
  0
3DFACE
  5
11B0
  8
0
 10
50.0000
 20
0.0000
 30
-50.0000
 11
50.0000
 21
6.0000
 31
-50.0000
 12
50.0000
 22
6.0000
 32
50.0000
 13
50.0000
 23
0.0000
 33
50.0000
  0
3DFACE
  5
11B1
  8
0
 10
-64.0000
 20
-6.0000
 30
-64.0000
 11
64.0000
 21
-6.0000
 31
-64.0000
 12
64.0000
 22
0.0000
 32
-64.0000
 13
-64.0000
 23
0.0000
 33
-64.0000
  0
3DFACE
  5
11B2
  8
0
 10
-64.0000
 20
-6.0000
 30
64.0000
 11
64.0000
 21
-6.0000
 31
64.0000
 12
64.0000
 22
0.0000
 32
64.0000
 13
-64.0000
 23
0.0000
 33
64.0000
  0
3DFACE
  5
11B3
  8
0
 10
-64.0000
 20
-6.0000
 30
-64.0000
 11
64.0000
 21
-6.0000
 31
-64.0000
 12
64.0000
 22
-6.0000
 32
64.0000
 13
-64.0000
 23
-6.0000
 33
64.0000
  0
3DFACE
  5
11B4
  8
0
 10
-64.0000
 20
0.0000
 30
-64.0000
 11
64.0000
 21
0.0000
 31
-64.0000
 12
64.0000
 22
0.0000
 32
64.0000
 13
-64.0000
 23
0.0000
 33
64.0000
  0
3DFACE
  5
11B5
  8
0
 10
-64.0000
 20
-6.0000
 30
-64.0000
 11
-64.0000
 21
0.0000
 31
-64.0000
 12
-64.0000
 22
0.0000
 32
64.0000
 13
-64.0000
 23
-6.0000
 33
64.0000
  0
3DFACE
  5
11B6
  8
0
 10
64.0000
 20
-6.0000
 30
-64.0000
 11
64.0000
 21
0.0000
 31
-64.0000
 12
64.0000
 22
0.0000
 32
64.0000
 13
64.0000
 23
-6.0000
 33
64.0000
  0
3DFACE
  5
11B7
  8
0
 10
-30.0000
 20
2.0000
 30
-30.0000
 11
30.0000
 21
2.0000
 31
-30.0000
 12
30.0000
 22
8.0000
 32
-30.0000
 13
-30.0000
 23
8.0000
 33
-30.0000
  0
3DFACE
  5
11B8
  8
0
 10
-30.0000
 20
2.0000
 30
30.0000
 11
30.0000
 21
2.0000
 31
30.0000
 12
30.0000
 22
8.0000
 32
30.0000
 13
-30.0000
 23
8.0000
 33
30.0000
  0
3DFACE
  5
11B9
  8
0
 10
-30.0000
 20
2.0000
 30
-30.0000
 11
30.0000
 21
2.0000
 31
-30.0000
 12
30.0000
 22
2.0000
 32
30.0000
 13
-30.0000
 23
2.0000
 33
30.0000
  0
3DFACE
  5
11BA
  8
0
 10
-30.0000
 20
8.0000
 30
-30.0000
 11
30.0000
 21
8.0000
 31
-30.0000
 12
30.0000
 22
8.0000
 32
30.0000
 13
-30.0000
 23
8.0000
 33
30.0000
  0
3DFACE
  5
11BB
  8
0
 10
-30.0000
 20
2.0000
 30
-30.0000
 11
-30.0000
 21
8.0000
 31
-30.0000
 12
-30.0000
 22
8.0000
 32
30.0000
 13
-30.0000
 23
2.0000
 33
30.0000
  0
3DFACE
  5
11BC
  8
0
 10
30.0000
 20
2.0000
 30
-30.0000
 11
30.0000
 21
8.0000
 31
-30.0000
 12
30.0000
 22
8.0000
 32
30.0000
 13
30.0000
 23
2.0000
 33
30.0000
  0
ENDBLK
  8
0
  0
BLOCK
  8
0
  2
FAUCET
 70
0
 10
0.0000
 20
0.0000
 30
0.0000
  3
FAUCET
  1

  0
3DFACE
  5
11BD
  8
0
 10
-25.0000
 20
0.0000
 30
0.0000
 11
25.0000
 21
0.0000
 31
0.0000
 12
25.0000
 22
25.0000
 32
0.0000
 13
-25.0000
 23
25.0000
 33
0.0000
  0
3DFACE
  5
11BE
  8
0
 10
-25.0000
 20
0.0000
 30
30.0000
 11
25.0000
 21
0.0000
 31
30.0000
 12
25.0000
 22
25.0000
 32
30.0000
 13
-25.0000
 23
25.0000
 33
30.0000
  0
3DFACE
  5
11BF
  8
0
 10
-25.0000
 20
0.0000
 30
0.0000
 11
25.0000
 21
0.0000
 31
0.0000
 12
25.0000
 22
0.0000
 32
30.0000
 13
-25.0000
 23
0.0000
 33
30.0000
  0
3DFACE
  5
11C0
  8
0
 10
-25.0000
 20
25.0000
 30
0.0000
 11
25.0000
 21
25.0000
 31
0.0000
 12
25.0000
 22
25.0000
 32
30.0000
 13
-25.0000
 23
25.0000
 33
30.0000
  0
3DFACE
  5
11C1
  8
0
 10
-25.0000
 20
0.0000
 30
0.0000
 11
-25.0000
 21
25.0000
 31
0.0000
 12
-25.0000
 22
25.0000
 32
30.0000
 13
-25.0000
 23
0.0000
 33
30.0000
  0
3DFACE
  5
11C2
  8
0
 10
25.0000
 20
0.0000
 30
0.0000
 11
25.0000
 21
25.0000
 31
0.0000
 12
25.0000
 22
25.0000
 32
30.0000
 13
25.0000
 23
0.0000
 33
30.0000
  0
3DFACE
  5
11C3
  8
0
 10
-9.0000
 20
0.0000
 30
30.0000
 11
9.0000
 21
0.0000
 31
30.0000
 12
9.0000
 22
18.0000
 32
30.0000
 13
-9.0000
 23
18.0000
 33
30.0000
  0
3DFACE
  5
11C4
  8
0
 10
-9.0000
 20
0.0000
 30
150.0000
 11
9.0000
 21
0.0000
 31
150.0000
 12
9.0000
 22
18.0000
 32
150.0000
 13
-9.0000
 23
18.0000
 33
150.0000
  0
3DFACE
  5
11C5
  8
0
 10
-9.0000
 20
0.0000
 30
30.0000
 11
9.0000
 21
0.0000
 31
30.0000
 12
9.0000
 22
0.0000
 32
150.0000
 13
-9.0000
 23
0.0000
 33
150.0000
  0
3DFACE
  5
11C6
  8
0
 10
-9.0000
 20
18.0000
 30
30.0000
 11
9.0000
 21
18.0000
 31
30.0000
 12
9.0000
 22
18.0000
 32
150.0000
 13
-9.0000
 23
18.0000
 33
150.0000
  0
3DFACE
  5
11C7
  8
0
 10
-9.0000
 20
0.0000
 30
30.0000
 11
-9.0000
 21
18.0000
 31
30.0000
 12
-9.0000
 22
18.0000
 32
150.0000
 13
-9.0000
 23
0.0000
 33
150.0000
  0
3DFACE
  5
11C8
  8
0
 10
9.0000
 20
0.0000
 30
30.0000
 11
9.0000
 21
18.0000
 31
30.0000
 12
9.0000
 22
18.0000
 32
150.0000
 13
9.0000
 23
0.0000
 33
150.0000
  0
3DFACE
  5
11C9
  8
0
 10
-9.0000
 20
0.0000
 30
132.0000
 11
60.0000
 21
0.0000
 31
132.0000
 12
60.0000
 22
18.0000
 32
132.0000
 13
-9.0000
 23
18.0000
 33
132.0000
  0
3DFACE
  5
11CA
  8
0
 10
-9.0000
 20
0.0000
 30
150.0000
 11
60.0000
 21
0.0000
 31
150.0000
 12
60.0000
 22
18.0000
 32
150.0000
 13
-9.0000
 23
18.0000
 33
150.0000
  0
3DFACE
  5
11CB
  8
0
 10
-9.0000
 20
0.0000
 30
132.0000
 11
60.0000
 21
0.0000
 31
132.0000
 12
60.0000
 22
0.0000
 32
150.0000
 13
-9.0000
 23
0.0000
 33
150.0000
  0
3DFACE
  5
11CC
  8
0
 10
-9.0000
 20
18.0000
 30
132.0000
 11
60.0000
 21
18.0000
 31
132.0000
 12
60.0000
 22
18.0000
 32
150.0000
 13
-9.0000
 23
18.0000
 33
150.0000
  0
3DFACE
  5
11CD
  8
0
 10
-9.0000
 20
0.0000
 30
132.0000
 11
-9.0000
 21
18.0000
 31
132.0000
 12
-9.0000
 22
18.0000
 32
150.0000
 13
-9.0000
 23
0.0000
 33
150.0000
  0
3DFACE
  5
11CE
  8
0
 10
60.0000
 20
0.0000
 30
132.0000
 11
60.0000
 21
18.0000
 31
132.0000
 12
60.0000
 22
18.0000
 32
150.0000
 13
60.0000
 23
0.0000
 33
150.0000
  0
3DFACE
  5
11CF
  8
0
 10
52.0000
 20
0.0000
 30
120.0000
 11
68.0000
 21
0.0000
 31
120.0000
 12
68.0000
 22
18.0000
 32
120.0000
 13
52.0000
 23
18.0000
 33
120.0000
  0
3DFACE
  5
11D0
  8
0
 10
52.0000
 20
0.0000
 30
150.0000
 11
68.0000
 21
0.0000
 31
150.0000
 12
68.0000
 22
18.0000
 32
150.0000
 13
52.0000
 23
18.0000
 33
150.0000
  0
3DFACE
  5
11D1
  8
0
 10
52.0000
 20
0.0000
 30
120.0000
 11
68.0000
 21
0.0000
 31
120.0000
 12
68.0000
 22
0.0000
 32
150.0000
 13
52.0000
 23
0.0000
 33
150.0000
  0
3DFACE
  5
11D2
  8
0
 10
52.0000
 20
18.0000
 30
120.0000
 11
68.0000
 21
18.0000
 31
120.0000
 12
68.0000
 22
18.0000
 32
150.0000
 13
52.0000
 23
18.0000
 33
150.0000
  0
3DFACE
  5
11D3
  8
0
 10
52.0000
 20
0.0000
 30
120.0000
 11
52.0000
 21
18.0000
 31
120.0000
 12
52.0000
 22
18.0000
 32
150.0000
 13
52.0000
 23
0.0000
 33
150.0000
  0
3DFACE
  5
11D4
  8
0
 10
68.0000
 20
0.0000
 30
120.0000
 11
68.0000
 21
18.0000
 31
120.0000
 12
68.0000
 22
18.0000
 32
150.0000
 13
68.0000
 23
0.0000
 33
150.0000
  0
3DFACE
  5
11D5
  8
0
 10
52.0000
 20
0.0000
 30
110.0000
 11
68.0000
 21
0.0000
 31
110.0000
 12
68.0000
 22
18.0000
 32
110.0000
 13
52.0000
 23
18.0000
 33
110.0000
  0
3DFACE
  5
11D6
  8
0
 10
52.0000
 20
0.0000
 30
122.0000
 11
68.0000
 21
0.0000
 31
122.0000
 12
68.0000
 22
18.0000
 32
122.0000
 13
52.0000
 23
18.0000
 33
122.0000
  0
3DFACE
  5
11D7
  8
0
 10
52.0000
 20
0.0000
 30
110.0000
 11
68.0000
 21
0.0000
 31
110.0000
 12
68.0000
 22
0.0000
 32
122.0000
 13
52.0000
 23
0.0000
 33
122.0000
  0
3DFACE
  5
11D8
  8
0
 10
52.0000
 20
18.0000
 30
110.0000
 11
68.0000
 21
18.0000
 31
110.0000
 12
68.0000
 22
18.0000
 32
122.0000
 13
52.0000
 23
18.0000
 33
122.0000
  0
3DFACE
  5
11D9
  8
0
 10
52.0000
 20
0.0000
 30
110.0000
 11
52.0000
 21
18.0000
 31
110.0000
 12
52.0000
 22
18.0000
 32
122.0000
 13
52.0000
 23
0.0000
 33
122.0000
  0
3DFACE
  5
11DA
  8
0
 10
68.0000
 20
0.0000
 30
110.0000
 11
68.0000
 21
18.0000
 31
110.0000
 12
68.0000
 22
18.0000
 32
122.0000
 13
68.0000
 23
0.0000
 33
122.0000
  0
3DFACE
  5
11DB
  8
0
 10
-22.0000
 20
0.0000
 30
90.0000
 11
-14.0000
 21
0.0000
 31
90.0000
 12
-14.0000
 22
18.0000
 32
90.0000
 13
-22.0000
 23
18.0000
 33
90.0000
  0
3DFACE
  5
11DC
  8
0
 10
-22.0000
 20
0.0000
 30
120.0000
 11
-14.0000
 21
0.0000
 31
120.0000
 12
-14.0000
 22
18.0000
 32
120.0000
 13
-22.0000
 23
18.0000
 33
120.0000
  0
3DFACE
  5
11DD
  8
0
 10
-22.0000
 20
0.0000
 30
90.0000
 11
-14.0000
 21
0.0000
 31
90.0000
 12
-14.0000
 22
0.0000
 32
120.0000
 13
-22.0000
 23
0.0000
 33
120.0000
  0
3DFACE
  5
11DE
  8
0
 10
-22.0000
 20
18.0000
 30
90.0000
 11
-14.0000
 21
18.0000
 31
90.0000
 12
-14.0000
 22
18.0000
 32
120.0000
 13
-22.0000
 23
18.0000
 33
120.0000
  0
3DFACE
  5
11DF
  8
0
 10
-22.0000
 20
0.0000
 30
90.0000
 11
-22.0000
 21
18.0000
 31
90.0000
 12
-22.0000
 22
18.0000
 32
120.0000
 13
-22.0000
 23
0.0000
 33
120.0000
  0
3DFACE
  5
11E0
  8
0
 10
-14.0000
 20
0.0000
 30
90.0000
 11
-14.0000
 21
18.0000
 31
90.0000
 12
-14.0000
 22
18.0000
 32
120.0000
 13
-14.0000
 23
0.0000
 33
120.0000
  0
3DFACE
  5
11E1
  8
0
 10
14.0000
 20
0.0000
 30
90.0000
 11
22.0000
 21
0.0000
 31
90.0000
 12
22.0000
 22
18.0000
 32
90.0000
 13
14.0000
 23
18.0000
 33
90.0000
  0
3DFACE
  5
11E2
  8
0
 10
14.0000
 20
0.0000
 30
120.0000
 11
22.0000
 21
0.0000
 31
120.0000
 12
22.0000
 22
18.0000
 32
120.0000
 13
14.0000
 23
18.0000
 33
120.0000
  0
3DFACE
  5
11E3
  8
0
 10
14.0000
 20
0.0000
 30
90.0000
 11
22.0000
 21
0.0000
 31
90.0000
 12
22.0000
 22
0.0000
 32
120.0000
 13
14.0000
 23
0.0000
 33
120.0000
  0
3DFACE
  5
11E4
  8
0
 10
14.0000
 20
18.0000
 30
90.0000
 11
22.0000
 21
18.0000
 31
90.0000
 12
22.0000
 22
18.0000
 32
120.0000
 13
14.0000
 23
18.0000
 33
120.0000
  0
3DFACE
  5
11E5
  8
0
 10
14.0000
 20
0.0000
 30
90.0000
 11
14.0000
 21
18.0000
 31
90.0000
 12
14.0000
 22
18.0000
 32
120.0000
 13
14.0000
 23
0.0000
 33
120.0000
  0
3DFACE
  5
11E6
  8
0
 10
22.0000
 20
0.0000
 30
90.0000
 11
22.0000
 21
18.0000
 31
90.0000
 12
22.0000
 22
18.0000
 32
120.0000
 13
22.0000
 23
0.0000
 33
120.0000
  0
ENDBLK
  8
0
  0
BLOCK
  8
0
  2
SEWAGE
 70
0
 10
0.0000
 20
0.0000
 30
0.0000
  3
SEWAGE
  1

  0
3DFACE
  5
11E7
  8
0
 10
-50.0000
 20
0.0000
 30
-50.0000
 11
50.0000
 21
0.0000
 31
-50.0000
 12
50.0000
 22
12.0000
 32
-50.0000
 13
-50.0000
 23
12.0000
 33
-50.0000
  0
3DFACE
  5
11E8
  8
0
 10
-50.0000
 20
0.0000
 30
50.0000
 11
50.0000
 21
0.0000
 31
50.0000
 12
50.0000
 22
12.0000
 32
50.0000
 13
-50.0000
 23
12.0000
 33
50.0000
  0
3DFACE
  5
11E9
  8
0
 10
-50.0000
 20
0.0000
 30
-50.0000
 11
50.0000
 21
0.0000
 31
-50.0000
 12
50.0000
 22
0.0000
 32
50.0000
 13
-50.0000
 23
0.0000
 33
50.0000
  0
3DFACE
  5
11EA
  8
0
 10
-50.0000
 20
12.0000
 30
-50.0000
 11
50.0000
 21
12.0000
 31
-50.0000
 12
50.0000
 22
12.0000
 32
50.0000
 13
-50.0000
 23
12.0000
 33
50.0000
  0
3DFACE
  5
11EB
  8
0
 10
-50.0000
 20
0.0000
 30
-50.0000
 11
-50.0000
 21
12.0000
 31
-50.0000
 12
-50.0000
 22
12.0000
 32
50.0000
 13
-50.0000
 23
0.0000
 33
50.0000
  0
3DFACE
  5
11EC
  8
0
 10
50.0000
 20
0.0000
 30
-50.0000
 11
50.0000
 21
12.0000
 31
-50.0000
 12
50.0000
 22
12.0000
 32
50.0000
 13
50.0000
 23
0.0000
 33
50.0000
  0
3DFACE
  5
11ED
  8
0
 10
-30.0000
 20
12.0000
 30
-30.0000
 11
30.0000
 21
12.0000
 31
-30.0000
 12
30.0000
 22
40.0000
 32
-30.0000
 13
-30.0000
 23
40.0000
 33
-30.0000
  0
3DFACE
  5
11EE
  8
0
 10
-30.0000
 20
12.0000
 30
30.0000
 11
30.0000
 21
12.0000
 31
30.0000
 12
30.0000
 22
40.0000
 32
30.0000
 13
-30.0000
 23
40.0000
 33
30.0000
  0
3DFACE
  5
11EF
  8
0
 10
-30.0000
 20
12.0000
 30
-30.0000
 11
30.0000
 21
12.0000
 31
-30.0000
 12
30.0000
 22
12.0000
 32
30.0000
 13
-30.0000
 23
12.0000
 33
30.0000
  0
3DFACE
  5
11F0
  8
0
 10
-30.0000
 20
40.0000
 30
-30.0000
 11
30.0000
 21
40.0000
 31
-30.0000
 12
30.0000
 22
40.0000
 32
30.0000
 13
-30.0000
 23
40.0000
 33
30.0000
  0
3DFACE
  5
11F1
  8
0
 10
-30.0000
 20
12.0000
 30
-30.0000
 11
-30.0000
 21
40.0000
 31
-30.0000
 12
-30.0000
 22
40.0000
 32
30.0000
 13
-30.0000
 23
12.0000
 33
30.0000
  0
3DFACE
  5
11F2
  8
0
 10
30.0000
 20
12.0000
 30
-30.0000
 11
30.0000
 21
40.0000
 31
-30.0000
 12
30.0000
 22
40.0000
 32
30.0000
 13
30.0000
 23
12.0000
 33
30.0000
  0
3DFACE
  5
11F3
  8
0
 10
-22.0000
 20
40.0000
 30
-22.0000
 11
22.0000
 21
40.0000
 31
-22.0000
 12
22.0000
 22
60.0000
 32
-22.0000
 13
-22.0000
 23
60.0000
 33
-22.0000
  0
3DFACE
  5
11F4
  8
0
 10
-22.0000
 20
40.0000
 30
22.0000
 11
22.0000
 21
40.0000
 31
22.0000
 12
22.0000
 22
60.0000
 32
22.0000
 13
-22.0000
 23
60.0000
 33
22.0000
  0
3DFACE
  5
11F5
  8
0
 10
-22.0000
 20
40.0000
 30
-22.0000
 11
22.0000
 21
40.0000
 31
-22.0000
 12
22.0000
 22
40.0000
 32
22.0000
 13
-22.0000
 23
40.0000
 33
22.0000
  0
3DFACE
  5
11F6
  8
0
 10
-22.0000
 20
60.0000
 30
-22.0000
 11
22.0000
 21
60.0000
 31
-22.0000
 12
22.0000
 22
60.0000
 32
22.0000
 13
-22.0000
 23
60.0000
 33
22.0000
  0
3DFACE
  5
11F7
  8
0
 10
-22.0000
 20
40.0000
 30
-22.0000
 11
-22.0000
 21
60.0000
 31
-22.0000
 12
-22.0000
 22
60.0000
 32
22.0000
 13
-22.0000
 23
40.0000
 33
22.0000
  0
3DFACE
  5
11F8
  8
0
 10
22.0000
 20
40.0000
 30
-22.0000
 11
22.0000
 21
60.0000
 31
-22.0000
 12
22.0000
 22
60.0000
 32
22.0000
 13
22.0000
 23
40.0000
 33
22.0000
  0
3DFACE
  5
11F9
  8
0
 10
-45.0000
 20
0.0000
 30
-45.0000
 11
-39.0000
 21
0.0000
 31
-45.0000
 12
-39.0000
 22
6.0000
 32
-45.0000
 13
-45.0000
 23
6.0000
 33
-45.0000
  0
3DFACE
  5
11FA
  8
0
 10
-45.0000
 20
0.0000
 30
-39.0000
 11
-39.0000
 21
0.0000
 31
-39.0000
 12
-39.0000
 22
6.0000
 32
-39.0000
 13
-45.0000
 23
6.0000
 33
-39.0000
  0
3DFACE
  5
11FB
  8
0
 10
-45.0000
 20
0.0000
 30
-45.0000
 11
-39.0000
 21
0.0000
 31
-45.0000
 12
-39.0000
 22
0.0000
 32
-39.0000
 13
-45.0000
 23
0.0000
 33
-39.0000
  0
3DFACE
  5
11FC
  8
0
 10
-45.0000
 20
6.0000
 30
-45.0000
 11
-39.0000
 21
6.0000
 31
-45.0000
 12
-39.0000
 22
6.0000
 32
-39.0000
 13
-45.0000
 23
6.0000
 33
-39.0000
  0
3DFACE
  5
11FD
  8
0
 10
-45.0000
 20
0.0000
 30
-45.0000
 11
-45.0000
 21
6.0000
 31
-45.0000
 12
-45.0000
 22
6.0000
 32
-39.0000
 13
-45.0000
 23
0.0000
 33
-39.0000
  0
3DFACE
  5
11FE
  8
0
 10
-39.0000
 20
0.0000
 30
-45.0000
 11
-39.0000
 21
6.0000
 31
-45.0000
 12
-39.0000
 22
6.0000
 32
-39.0000
 13
-39.0000
 23
0.0000
 33
-39.0000
  0
3DFACE
  5
11FF
  8
0
 10
39.0000
 20
0.0000
 30
-45.0000
 11
45.0000
 21
0.0000
 31
-45.0000
 12
45.0000
 22
6.0000
 32
-45.0000
 13
39.0000
 23
6.0000
 33
-45.0000
  0
3DFACE
  5
1200
  8
0
 10
39.0000
 20
0.0000
 30
-39.0000
 11
45.0000
 21
0.0000
 31
-39.0000
 12
45.0000
 22
6.0000
 32
-39.0000
 13
39.0000
 23
6.0000
 33
-39.0000
  0
3DFACE
  5
1201
  8
0
 10
39.0000
 20
0.0000
 30
-45.0000
 11
45.0000
 21
0.0000
 31
-45.0000
 12
45.0000
 22
0.0000
 32
-39.0000
 13
39.0000
 23
0.0000
 33
-39.0000
  0
3DFACE
  5
1202
  8
0
 10
39.0000
 20
6.0000
 30
-45.0000
 11
45.0000
 21
6.0000
 31
-45.0000
 12
45.0000
 22
6.0000
 32
-39.0000
 13
39.0000
 23
6.0000
 33
-39.0000
  0
3DFACE
  5
1203
  8
0
 10
39.0000
 20
0.0000
 30
-45.0000
 11
39.0000
 21
6.0000
 31
-45.0000
 12
39.0000
 22
6.0000
 32
-39.0000
 13
39.0000
 23
0.0000
 33
-39.0000
  0
3DFACE
  5
1204
  8
0
 10
45.0000
 20
0.0000
 30
-45.0000
 11
45.0000
 21
6.0000
 31
-45.0000
 12
45.0000
 22
6.0000
 32
-39.0000
 13
45.0000
 23
0.0000
 33
-39.0000
  0
3DFACE
  5
1205
  8
0
 10
-45.0000
 20
0.0000
 30
39.0000
 11
-39.0000
 21
0.0000
 31
39.0000
 12
-39.0000
 22
6.0000
 32
39.0000
 13
-45.0000
 23
6.0000
 33
39.0000
  0
3DFACE
  5
1206
  8
0
 10
-45.0000
 20
0.0000
 30
45.0000
 11
-39.0000
 21
0.0000
 31
45.0000
 12
-39.0000
 22
6.0000
 32
45.0000
 13
-45.0000
 23
6.0000
 33
45.0000
  0
3DFACE
  5
1207
  8
0
 10
-45.0000
 20
0.0000
 30
39.0000
 11
-39.0000
 21
0.0000
 31
39.0000
 12
-39.0000
 22
0.0000
 32
45.0000
 13
-45.0000
 23
0.0000
 33
45.0000
  0
3DFACE
  5
1208
  8
0
 10
-45.0000
 20
6.0000
 30
39.0000
 11
-39.0000
 21
6.0000
 31
39.0000
 12
-39.0000
 22
6.0000
 32
45.0000
 13
-45.0000
 23
6.0000
 33
45.0000
  0
3DFACE
  5
1209
  8
0
 10
-45.0000
 20
0.0000
 30
39.0000
 11
-45.0000
 21
6.0000
 31
39.0000
 12
-45.0000
 22
6.0000
 32
45.0000
 13
-45.0000
 23
0.0000
 33
45.0000
  0
3DFACE
  5
120A
  8
0
 10
-39.0000
 20
0.0000
 30
39.0000
 11
-39.0000
 21
6.0000
 31
39.0000
 12
-39.0000
 22
6.0000
 32
45.0000
 13
-39.0000
 23
0.0000
 33
45.0000
  0
3DFACE
  5
120B
  8
0
 10
39.0000
 20
0.0000
 30
39.0000
 11
45.0000
 21
0.0000
 31
39.0000
 12
45.0000
 22
6.0000
 32
39.0000
 13
39.0000
 23
6.0000
 33
39.0000
  0
3DFACE
  5
120C
  8
0
 10
39.0000
 20
0.0000
 30
45.0000
 11
45.0000
 21
0.0000
 31
45.0000
 12
45.0000
 22
6.0000
 32
45.0000
 13
39.0000
 23
6.0000
 33
45.0000
  0
3DFACE
  5
120D
  8
0
 10
39.0000
 20
0.0000
 30
39.0000
 11
45.0000
 21
0.0000
 31
39.0000
 12
45.0000
 22
0.0000
 32
45.0000
 13
39.0000
 23
0.0000
 33
45.0000
  0
3DFACE
  5
120E
  8
0
 10
39.0000
 20
6.0000
 30
39.0000
 11
45.0000
 21
6.0000
 31
39.0000
 12
45.0000
 22
6.0000
 32
45.0000
 13
39.0000
 23
6.0000
 33
45.0000
  0
3DFACE
  5
120F
  8
0
 10
39.0000
 20
0.0000
 30
39.0000
 11
39.0000
 21
6.0000
 31
39.0000
 12
39.0000
 22
6.0000
 32
45.0000
 13
39.0000
 23
0.0000
 33
45.0000
  0
3DFACE
  5
1210
  8
0
 10
45.0000
 20
0.0000
 30
39.0000
 11
45.0000
 21
6.0000
 31
39.0000
 12
45.0000
 22
6.0000
 32
45.0000
 13
45.0000
 23
0.0000
 33
45.0000
  0
ENDBLK
  8
0
  0
ENDSEC
  0
SECTION
  2
ENTITIES
  0
3DFACE
  5
1000
  8
ריצוף
 10
3070.0000
 20
-2540.0000
 30
0.0000
 11
3070.0000
 21
-10361.2117
 31
0.0000
 12
7555.0000
 22
-10361.2117
 32
0.0000
 13
7555.0000
 23
-10361.2117
 33
0.0000
 70
15
  0
3DFACE
  5
1001
  8
ריצוף
 10
3070.0000
 20
-2540.0000
 30
-40.0000
 11
7555.0000
 21
-10361.2117
 31
-40.0000
 12
3070.0000
 22
-10361.2117
 32
-40.0000
 13
3070.0000
 23
-10361.2117
 33
-40.0000
 70
15
  0
3DFACE
  5
1002
  8
ריצוף
 10
7555.0000
 20
-10361.2117
 30
0.0000
 11
7555.0000
 21
-2540.0000
 31
0.0000
 12
3070.0000
 22
-2540.0000
 32
0.0000
 13
3070.0000
 23
-2540.0000
 33
0.0000
 70
15
  0
3DFACE
  5
1003
  8
ריצוף
 10
7555.0000
 20
-10361.2117
 30
-40.0000
 11
3070.0000
 21
-2540.0000
 31
-40.0000
 12
7555.0000
 22
-2540.0000
 32
-40.0000
 13
7555.0000
 23
-2540.0000
 33
-40.0000
 70
15
  0
3DFACE
  5
1004
  8
ריצוף
 10
3070.0000
 20
-10361.2117
 30
-40.0000
 11
7555.0000
 21
-10361.2117
 31
-40.0000
 12
7555.0000
 22
-10361.2117
 32
0.0000
 13
3070.0000
 23
-10361.2117
 33
0.0000
 70
15
  0
3DFACE
  5
1005
  8
ריצוף
 10
7555.0000
 20
-10361.2117
 30
-40.0000
 11
7555.0000
 21
-2540.0000
 31
-40.0000
 12
7555.0000
 22
-2540.0000
 32
0.0000
 13
7555.0000
 23
-10361.2117
 33
0.0000
 70
15
  0
3DFACE
  5
1006
  8
ריצוף
 10
7555.0000
 20
-2540.0000
 30
-40.0000
 11
3070.0000
 21
-2540.0000
 31
-40.0000
 12
3070.0000
 22
-2540.0000
 32
0.0000
 13
7555.0000
 23
-2540.0000
 33
0.0000
 70
15
  0
3DFACE
  5
1007
  8
ריצוף
 10
3070.0000
 20
-2540.0000
 30
-40.0000
 11
3070.0000
 21
-10361.2117
 31
-40.0000
 12
3070.0000
 22
-10361.2117
 32
0.0000
 13
3070.0000
 23
-2540.0000
 33
0.0000
 70
15
  0
3DFACE
  5
1008
  8
קירות
 10
3070.0000
 20
-3419.0000
 30
0.0000
 11
3070.0000
 21
-2440.0000
 31
0.0000
 12
2970.0000
 22
-2440.0000
 32
0.0000
 13
2970.0000
 23
-3419.0000
 33
0.0000
 70
15
  0
3DFACE
  5
1009
  8
קירות
 10
3070.0000
 20
-3419.0000
 30
2785.0000
 11
3070.0000
 21
-2440.0000
 31
2785.0000
 12
2970.0000
 22
-2440.0000
 32
2785.0000
 13
2970.0000
 23
-3419.0000
 33
2785.0000
 70
15
  0
3DFACE
  5
100A
  8
קירות
 10
3070.0000
 20
-3419.0000
 30
0.0000
 11
3070.0000
 21
-2440.0000
 31
0.0000
 12
3070.0000
 22
-2440.0000
 32
2785.0000
 13
3070.0000
 23
-3419.0000
 33
2785.0000
 70
15
  0
3DFACE
  5
100B
  8
קירות
 10
2970.0000
 20
-3419.0000
 30
0.0000
 11
2970.0000
 21
-2440.0000
 31
0.0000
 12
2970.0000
 22
-2440.0000
 32
2785.0000
 13
2970.0000
 23
-3419.0000
 33
2785.0000
 70
15
  0
3DFACE
  5
100C
  8
קירות
 10
3070.0000
 20
-3419.0000
 30
0.0000
 11
2970.0000
 21
-3419.0000
 31
0.0000
 12
2970.0000
 22
-3419.0000
 32
2785.0000
 13
3070.0000
 23
-3419.0000
 33
2785.0000
 70
15
  0
3DFACE
  5
100D
  8
קירות
 10
3070.0000
 20
-2440.0000
 30
0.0000
 11
2970.0000
 21
-2440.0000
 31
0.0000
 12
2970.0000
 22
-2440.0000
 32
2785.0000
 13
3070.0000
 23
-2440.0000
 33
2785.0000
 70
15
  0
3DFACE
  5
100E
  8
קירות
 10
2970.0000
 20
-2540.0000
 30
0.0000
 11
7655.0000
 21
-2540.0000
 31
0.0000
 12
7655.0000
 22
-2440.0000
 32
0.0000
 13
2970.0000
 23
-2440.0000
 33
0.0000
 70
15
  0
3DFACE
  5
100F
  8
קירות
 10
2970.0000
 20
-2540.0000
 30
2785.0000
 11
7655.0000
 21
-2540.0000
 31
2785.0000
 12
7655.0000
 22
-2440.0000
 32
2785.0000
 13
2970.0000
 23
-2440.0000
 33
2785.0000
 70
15
  0
3DFACE
  5
1010
  8
קירות
 10
2970.0000
 20
-2540.0000
 30
0.0000
 11
7655.0000
 21
-2540.0000
 31
0.0000
 12
7655.0000
 22
-2540.0000
 32
2785.0000
 13
2970.0000
 23
-2540.0000
 33
2785.0000
 70
15
  0
3DFACE
  5
1011
  8
קירות
 10
2970.0000
 20
-2440.0000
 30
0.0000
 11
7655.0000
 21
-2440.0000
 31
0.0000
 12
7655.0000
 22
-2440.0000
 32
2785.0000
 13
2970.0000
 23
-2440.0000
 33
2785.0000
 70
15
  0
3DFACE
  5
1012
  8
קירות
 10
2970.0000
 20
-2540.0000
 30
0.0000
 11
2970.0000
 21
-2440.0000
 31
0.0000
 12
2970.0000
 22
-2440.0000
 32
2785.0000
 13
2970.0000
 23
-2540.0000
 33
2785.0000
 70
15
  0
3DFACE
  5
1013
  8
קירות
 10
7655.0000
 20
-2540.0000
 30
0.0000
 11
7655.0000
 21
-2440.0000
 31
0.0000
 12
7655.0000
 22
-2440.0000
 32
2785.0000
 13
7655.0000
 23
-2540.0000
 33
2785.0000
 70
15
  0
3DFACE
  5
1014
  8
קירות
 10
7555.5236
 20
-2440.0014
 30
0.0000
 11
7555.0000
 21
-2540.0000
 31
0.0000
 12
7654.9986
 22
-2540.5236
 32
0.0000
 13
7655.5222
 23
-2440.5250
 33
0.0000
 70
15
  0
3DFACE
  5
1015
  8
קירות
 10
7555.5236
 20
-2440.0014
 30
2785.0000
 11
7555.0000
 21
-2540.0000
 31
2785.0000
 12
7654.9986
 22
-2540.5236
 32
2785.0000
 13
7655.5222
 23
-2440.5250
 33
2785.0000
 70
15
  0
3DFACE
  5
1016
  8
קירות
 10
7555.5236
 20
-2440.0014
 30
0.0000
 11
7555.0000
 21
-2540.0000
 31
0.0000
 12
7555.0000
 22
-2540.0000
 32
2785.0000
 13
7555.5236
 23
-2440.0014
 33
2785.0000
 70
15
  0
3DFACE
  5
1017
  8
קירות
 10
7655.5222
 20
-2440.5250
 30
0.0000
 11
7654.9986
 21
-2540.5236
 31
0.0000
 12
7654.9986
 22
-2540.5236
 32
2785.0000
 13
7655.5222
 23
-2440.5250
 33
2785.0000
 70
15
  0
3DFACE
  5
1018
  8
קירות
 10
7555.5236
 20
-2440.0014
 30
0.0000
 11
7655.5222
 21
-2440.5250
 31
0.0000
 12
7655.5222
 22
-2440.5250
 32
2785.0000
 13
7555.5236
 23
-2440.0014
 33
2785.0000
 70
15
  0
3DFACE
  5
1019
  8
קירות
 10
7555.0000
 20
-2540.0000
 30
0.0000
 11
7654.9986
 21
-2540.5236
 31
0.0000
 12
7654.9986
 22
-2540.5236
 32
2785.0000
 13
7555.0000
 23
-2540.0000
 33
2785.0000
 70
15
  0
3DFACE
  5
101A
  8
קירות
 10
7555.0000
 20
-2540.0000
 30
0.0000
 11
7548.8582
 21
-3712.9884
 31
0.0000
 12
7648.8568
 22
-3713.5120
 32
0.0000
 13
7654.9986
 23
-2540.5236
 33
0.0000
 70
15
  0
3DFACE
  5
101B
  8
קירות
 10
7555.0000
 20
-2540.0000
 30
410.0000
 11
7548.8582
 21
-3712.9884
 31
410.0000
 12
7648.8568
 22
-3713.5120
 32
410.0000
 13
7654.9986
 23
-2540.5236
 33
410.0000
 70
15
  0
3DFACE
  5
101C
  8
קירות
 10
7555.0000
 20
-2540.0000
 30
0.0000
 11
7548.8582
 21
-3712.9884
 31
0.0000
 12
7548.8582
 22
-3712.9884
 32
410.0000
 13
7555.0000
 23
-2540.0000
 33
410.0000
 70
15
  0
3DFACE
  5
101D
  8
קירות
 10
7654.9986
 20
-2540.5236
 30
0.0000
 11
7648.8568
 21
-3713.5120
 31
0.0000
 12
7648.8568
 22
-3713.5120
 32
410.0000
 13
7654.9986
 23
-2540.5236
 33
410.0000
 70
15
  0
3DFACE
  5
101E
  8
קירות
 10
7555.0000
 20
-2540.0000
 30
0.0000
 11
7654.9986
 21
-2540.5236
 31
0.0000
 12
7654.9986
 22
-2540.5236
 32
410.0000
 13
7555.0000
 23
-2540.0000
 33
410.0000
 70
15
  0
3DFACE
  5
101F
  8
קירות
 10
7548.8582
 20
-3712.9884
 30
0.0000
 11
7648.8568
 21
-3713.5120
 31
0.0000
 12
7648.8568
 22
-3713.5120
 32
410.0000
 13
7548.8582
 23
-3712.9884
 33
410.0000
 70
15
  0
3DFACE
  5
1020
  8
קירות
 10
7555.0000
 20
-2540.0000
 30
1730.0000
 11
7548.8582
 21
-3712.9884
 31
1730.0000
 12
7648.8568
 22
-3713.5120
 32
1730.0000
 13
7654.9986
 23
-2540.5236
 33
1730.0000
 70
15
  0
3DFACE
  5
1021
  8
קירות
 10
7555.0000
 20
-2540.0000
 30
2785.0000
 11
7548.8582
 21
-3712.9884
 31
2785.0000
 12
7648.8568
 22
-3713.5120
 32
2785.0000
 13
7654.9986
 23
-2540.5236
 33
2785.0000
 70
15
  0
3DFACE
  5
1022
  8
קירות
 10
7555.0000
 20
-2540.0000
 30
1730.0000
 11
7548.8582
 21
-3712.9884
 31
1730.0000
 12
7548.8582
 22
-3712.9884
 32
2785.0000
 13
7555.0000
 23
-2540.0000
 33
2785.0000
 70
15
  0
3DFACE
  5
1023
  8
קירות
 10
7654.9986
 20
-2540.5236
 30
1730.0000
 11
7648.8568
 21
-3713.5120
 31
1730.0000
 12
7648.8568
 22
-3713.5120
 32
2785.0000
 13
7654.9986
 23
-2540.5236
 33
2785.0000
 70
15
  0
3DFACE
  5
1024
  8
קירות
 10
7555.0000
 20
-2540.0000
 30
1730.0000
 11
7654.9986
 21
-2540.5236
 31
1730.0000
 12
7654.9986
 22
-2540.5236
 32
2785.0000
 13
7555.0000
 23
-2540.0000
 33
2785.0000
 70
15
  0
3DFACE
  5
1025
  8
קירות
 10
7548.8582
 20
-3712.9884
 30
1730.0000
 11
7648.8568
 21
-3713.5120
 31
1730.0000
 12
7648.8568
 22
-3713.5120
 32
2785.0000
 13
7548.8582
 23
-3712.9884
 33
2785.0000
 70
15
  0
3DFACE
  5
1026
  8
קירות
 10
7548.8582
 20
-3712.9884
 30
0.0000
 11
7543.9783
 21
-4644.9711
 31
0.0000
 12
7643.9769
 22
-4645.4947
 32
0.0000
 13
7648.8568
 23
-3713.5120
 33
0.0000
 70
15
  0
3DFACE
  5
1027
  8
קירות
 10
7548.8582
 20
-3712.9884
 30
2785.0000
 11
7543.9783
 21
-4644.9711
 31
2785.0000
 12
7643.9769
 22
-4645.4947
 32
2785.0000
 13
7648.8568
 23
-3713.5120
 33
2785.0000
 70
15
  0
3DFACE
  5
1028
  8
קירות
 10
7548.8582
 20
-3712.9884
 30
0.0000
 11
7543.9783
 21
-4644.9711
 31
0.0000
 12
7543.9783
 22
-4644.9711
 32
2785.0000
 13
7548.8582
 23
-3712.9884
 33
2785.0000
 70
15
  0
3DFACE
  5
1029
  8
קירות
 10
7648.8568
 20
-3713.5120
 30
0.0000
 11
7643.9769
 21
-4645.4947
 31
0.0000
 12
7643.9769
 22
-4645.4947
 32
2785.0000
 13
7648.8568
 23
-3713.5120
 33
2785.0000
 70
15
  0
3DFACE
  5
102A
  8
קירות
 10
7548.8582
 20
-3712.9884
 30
0.0000
 11
7648.8568
 21
-3713.5120
 31
0.0000
 12
7648.8568
 22
-3713.5120
 32
2785.0000
 13
7548.8582
 23
-3712.9884
 33
2785.0000
 70
15
  0
3DFACE
  5
102B
  8
קירות
 10
7543.9783
 20
-4644.9711
 30
0.0000
 11
7643.9769
 21
-4645.4947
 31
0.0000
 12
7643.9769
 22
-4645.4947
 32
2785.0000
 13
7543.9783
 23
-4644.9711
 33
2785.0000
 70
15
  0
3DFACE
  5
102C
  8
קירות
 10
7644.5005
 20
-4545.4961
 30
0.0000
 11
6359.5181
 21
-4538.7679
 31
0.0000
 12
6360.0417
 22
-4438.7693
 32
0.0000
 13
7645.0241
 23
-4445.4975
 33
0.0000
 70
15
  0
3DFACE
  5
102D
  8
קירות
 10
7644.5005
 20
-4545.4961
 30
2785.0000
 11
6359.5181
 21
-4538.7679
 31
2785.0000
 12
6360.0417
 22
-4438.7693
 32
2785.0000
 13
7645.0241
 23
-4445.4975
 33
2785.0000
 70
15
  0
3DFACE
  5
102E
  8
קירות
 10
7644.5005
 20
-4545.4961
 30
0.0000
 11
6359.5181
 21
-4538.7679
 31
0.0000
 12
6359.5181
 22
-4538.7679
 32
2785.0000
 13
7644.5005
 23
-4545.4961
 33
2785.0000
 70
15
  0
3DFACE
  5
102F
  8
קירות
 10
7645.0241
 20
-4445.4975
 30
0.0000
 11
6360.0417
 21
-4438.7693
 31
0.0000
 12
6360.0417
 22
-4438.7693
 32
2785.0000
 13
7645.0241
 23
-4445.4975
 33
2785.0000
 70
15
  0
3DFACE
  5
1030
  8
קירות
 10
7644.5005
 20
-4545.4961
 30
0.0000
 11
7645.0241
 21
-4445.4975
 31
0.0000
 12
7645.0241
 22
-4445.4975
 32
2785.0000
 13
7644.5005
 23
-4545.4961
 33
2785.0000
 70
15
  0
3DFACE
  5
1031
  8
קירות
 10
6359.5181
 20
-4538.7679
 30
0.0000
 11
6360.0417
 21
-4438.7693
 31
0.0000
 12
6360.0417
 22
-4438.7693
 32
2785.0000
 13
6359.5181
 23
-4538.7679
 33
2785.0000
 70
15
  0
3DFACE
  5
1032
  8
קירות
 10
6460.0404
 20
-4439.2929
 30
0.0000
 11
6454.8293
 21
-5434.5188
 31
0.0000
 12
6554.8280
 22
-5435.0424
 32
0.0000
 13
6560.0390
 23
-4439.8165
 33
0.0000
 70
15
  0
3DFACE
  5
1033
  8
קירות
 10
6460.0404
 20
-4439.2929
 30
2785.0000
 11
6454.8293
 21
-5434.5188
 31
2785.0000
 12
6554.8280
 22
-5435.0424
 32
2785.0000
 13
6560.0390
 23
-4439.8165
 33
2785.0000
 70
15
  0
3DFACE
  5
1034
  8
קירות
 10
6460.0404
 20
-4439.2929
 30
0.0000
 11
6454.8293
 21
-5434.5188
 31
0.0000
 12
6454.8293
 22
-5434.5188
 32
2785.0000
 13
6460.0404
 23
-4439.2929
 33
2785.0000
 70
15
  0
3DFACE
  5
1035
  8
קירות
 10
6560.0390
 20
-4439.8165
 30
0.0000
 11
6554.8280
 21
-5435.0424
 31
0.0000
 12
6554.8280
 22
-5435.0424
 32
2785.0000
 13
6560.0390
 23
-4439.8165
 33
2785.0000
 70
15
  0
3DFACE
  5
1036
  8
קירות
 10
6460.0404
 20
-4439.2929
 30
0.0000
 11
6560.0390
 21
-4439.8165
 31
0.0000
 12
6560.0390
 22
-4439.8165
 32
2785.0000
 13
6460.0404
 23
-4439.2929
 33
2785.0000
 70
15
  0
3DFACE
  5
1037
  8
קירות
 10
6454.8293
 20
-5434.5188
 30
0.0000
 11
6554.8280
 21
-5435.0424
 31
0.0000
 12
6554.8280
 22
-5435.0424
 32
2785.0000
 13
6454.8293
 23
-5434.5188
 33
2785.0000
 70
15
  0
3DFACE
  5
1038
  8
קירות
 10
6454.8293
 20
-5434.5188
 30
2396.0000
 11
6441.8913
 21
-7905.4850
 31
2396.0000
 12
6541.8899
 22
-7906.0085
 32
2396.0000
 13
6554.8280
 23
-5435.0424
 33
2396.0000
 70
15
  0
3DFACE
  5
1039
  8
קירות
 10
6454.8293
 20
-5434.5188
 30
2785.0000
 11
6441.8913
 21
-7905.4850
 31
2785.0000
 12
6541.8899
 22
-7906.0085
 32
2785.0000
 13
6554.8280
 23
-5435.0424
 33
2785.0000
 70
15
  0
3DFACE
  5
103A
  8
קירות
 10
6454.8293
 20
-5434.5188
 30
2396.0000
 11
6441.8913
 21
-7905.4850
 31
2396.0000
 12
6441.8913
 22
-7905.4850
 32
2785.0000
 13
6454.8293
 23
-5434.5188
 33
2785.0000
 70
15
  0
3DFACE
  5
103B
  8
קירות
 10
6554.8280
 20
-5435.0424
 30
2396.0000
 11
6541.8899
 21
-7906.0085
 31
2396.0000
 12
6541.8899
 22
-7906.0085
 32
2785.0000
 13
6554.8280
 23
-5435.0424
 33
2785.0000
 70
15
  0
3DFACE
  5
103C
  8
קירות
 10
6454.8293
 20
-5434.5188
 30
2396.0000
 11
6554.8280
 21
-5435.0424
 31
2396.0000
 12
6554.8280
 22
-5435.0424
 32
2785.0000
 13
6454.8293
 23
-5434.5188
 33
2785.0000
 70
15
  0
3DFACE
  5
103D
  8
קירות
 10
6441.8913
 20
-7905.4850
 30
2396.0000
 11
6541.8899
 21
-7906.0085
 31
2396.0000
 12
6541.8899
 22
-7906.0085
 32
2785.0000
 13
6441.8913
 23
-7905.4850
 33
2785.0000
 70
15
  0
3DFACE
  5
103E
  8
קירות
 10
6441.8913
 20
-7905.4850
 30
0.0000
 11
6428.5094
 21
-10461.2103
 31
0.0000
 12
6528.5080
 22
-10461.7339
 32
0.0000
 13
6541.8899
 23
-7906.0085
 33
0.0000
 70
15
  0
3DFACE
  5
103F
  8
קירות
 10
6441.8913
 20
-7905.4850
 30
2785.0000
 11
6428.5094
 21
-10461.2103
 31
2785.0000
 12
6528.5080
 22
-10461.7339
 32
2785.0000
 13
6541.8899
 23
-7906.0085
 33
2785.0000
 70
15
  0
3DFACE
  5
1040
  8
קירות
 10
6441.8913
 20
-7905.4850
 30
0.0000
 11
6428.5094
 21
-10461.2103
 31
0.0000
 12
6428.5094
 22
-10461.2103
 32
2785.0000
 13
6441.8913
 23
-7905.4850
 33
2785.0000
 70
15
  0
3DFACE
  5
1041
  8
קירות
 10
6541.8899
 20
-7906.0085
 30
0.0000
 11
6528.5080
 21
-10461.7339
 31
0.0000
 12
6528.5080
 22
-10461.7339
 32
2785.0000
 13
6541.8899
 23
-7906.0085
 33
2785.0000
 70
15
  0
3DFACE
  5
1042
  8
קירות
 10
6441.8913
 20
-7905.4850
 30
0.0000
 11
6541.8899
 21
-7906.0085
 31
0.0000
 12
6541.8899
 22
-7906.0085
 32
2785.0000
 13
6441.8913
 23
-7905.4850
 33
2785.0000
 70
15
  0
3DFACE
  5
1043
  8
קירות
 10
6428.5094
 20
-10461.2103
 30
0.0000
 11
6528.5080
 21
-10461.7339
 31
0.0000
 12
6528.5080
 22
-10461.7339
 32
2785.0000
 13
6428.5094
 23
-10461.2103
 33
2785.0000
 70
15
  0
3DFACE
  5
1044
  8
חלונות
 10
7506.8596
 20
-2238.7483
 30
410.0000
 11
7506.5978
 21
-2288.7476
 31
410.0000
 12
7606.5964
 22
-2289.2712
 32
410.0000
 13
7606.8582
 23
-2239.2719
 33
410.0000
 70
15
  0
3DFACE
  5
1045
  8
חלונות
 10
7506.8596
 20
-2238.7483
 30
1730.0000
 11
7506.5978
 21
-2288.7476
 31
1730.0000
 12
7606.5964
 22
-2289.2712
 32
1730.0000
 13
7606.8582
 23
-2239.2719
 33
1730.0000
 70
15
  0
3DFACE
  5
1046
  8
חלונות
 10
7506.8596
 20
-2238.7483
 30
410.0000
 11
7506.5978
 21
-2288.7476
 31
410.0000
 12
7506.5978
 22
-2288.7476
 32
1730.0000
 13
7506.8596
 23
-2238.7483
 33
1730.0000
 70
15
  0
3DFACE
  5
1047
  8
חלונות
 10
7506.5978
 20
-2288.7476
 30
410.0000
 11
7606.5964
 21
-2289.2712
 31
410.0000
 12
7606.5964
 22
-2289.2712
 32
1730.0000
 13
7506.5978
 23
-2288.7476
 33
1730.0000
 70
15
  0
3DFACE
  5
1048
  8
חלונות
 10
7606.5964
 20
-2289.2712
 30
410.0000
 11
7606.8582
 21
-2239.2719
 31
410.0000
 12
7606.8582
 22
-2239.2719
 32
1730.0000
 13
7606.5964
 23
-2289.2712
 33
1730.0000
 70
15
  0
3DFACE
  5
1049
  8
חלונות
 10
7606.8582
 20
-2239.2719
 30
410.0000
 11
7506.8596
 21
-2238.7483
 31
410.0000
 12
7506.8596
 22
-2238.7483
 32
1730.0000
 13
7606.8582
 23
-2239.2719
 33
1730.0000
 70
15
  0
3DFACE
  5
104A
  8
חלונות
 10
7499.4036
 20
-3662.7288
 30
410.0000
 11
7499.1418
 21
-3712.7281
 31
410.0000
 12
7599.1404
 22
-3713.2517
 32
410.0000
 13
7599.4022
 23
-3663.2524
 33
410.0000
 70
15
  0
3DFACE
  5
104B
  8
חלונות
 10
7499.4036
 20
-3662.7288
 30
1730.0000
 11
7499.1418
 21
-3712.7281
 31
1730.0000
 12
7599.1404
 22
-3713.2517
 32
1730.0000
 13
7599.4022
 23
-3663.2524
 33
1730.0000
 70
15
  0
3DFACE
  5
104C
  8
חלונות
 10
7499.4036
 20
-3662.7288
 30
410.0000
 11
7499.1418
 21
-3712.7281
 31
410.0000
 12
7499.1418
 22
-3712.7281
 32
1730.0000
 13
7499.4036
 23
-3662.7288
 33
1730.0000
 70
15
  0
3DFACE
  5
104D
  8
חלונות
 10
7499.1418
 20
-3712.7281
 30
410.0000
 11
7599.1404
 21
-3713.2517
 31
410.0000
 12
7599.1404
 22
-3713.2517
 32
1730.0000
 13
7499.1418
 23
-3712.7281
 33
1730.0000
 70
15
  0
3DFACE
  5
104E
  8
חלונות
 10
7599.1404
 20
-3713.2517
 30
410.0000
 11
7599.4022
 21
-3663.2524
 31
410.0000
 12
7599.4022
 22
-3663.2524
 32
1730.0000
 13
7599.1404
 23
-3713.2517
 33
1730.0000
 70
15
  0
3DFACE
  5
104F
  8
חלונות
 10
7599.4022
 20
-3663.2524
 30
410.0000
 11
7499.4036
 21
-3662.7288
 31
410.0000
 12
7499.4036
 22
-3662.7288
 32
1730.0000
 13
7599.4022
 23
-3663.2524
 33
1730.0000
 70
15
  0
3DFACE
  5
1050
  8
חלונות
 10
7506.8596
 20
-2238.7483
 30
1680.0000
 11
7499.1418
 21
-3712.7281
 31
1680.0000
 12
7599.1404
 22
-3713.2517
 32
1680.0000
 13
7606.8582
 23
-2239.2719
 33
1680.0000
 70
15
  0
3DFACE
  5
1051
  8
חלונות
 10
7506.8596
 20
-2238.7483
 30
1730.0000
 11
7499.1418
 21
-3712.7281
 31
1730.0000
 12
7599.1404
 22
-3713.2517
 32
1730.0000
 13
7606.8582
 23
-2239.2719
 33
1730.0000
 70
15
  0
3DFACE
  5
1052
  8
חלונות
 10
7506.8596
 20
-2238.7483
 30
1680.0000
 11
7499.1418
 21
-3712.7281
 31
1680.0000
 12
7499.1418
 22
-3712.7281
 32
1730.0000
 13
7506.8596
 23
-2238.7483
 33
1730.0000
 70
15
  0
3DFACE
  5
1053
  8
חלונות
 10
7499.1418
 20
-3712.7281
 30
1680.0000
 11
7599.1404
 21
-3713.2517
 31
1680.0000
 12
7599.1404
 22
-3713.2517
 32
1730.0000
 13
7499.1418
 23
-3712.7281
 33
1730.0000
 70
15
  0
3DFACE
  5
1054
  8
חלונות
 10
7599.1404
 20
-3713.2517
 30
1680.0000
 11
7606.8582
 21
-2239.2719
 31
1680.0000
 12
7606.8582
 22
-2239.2719
 32
1730.0000
 13
7599.1404
 23
-3713.2517
 33
1730.0000
 70
15
  0
3DFACE
  5
1055
  8
חלונות
 10
7606.8582
 20
-2239.2719
 30
1680.0000
 11
7506.8596
 21
-2238.7483
 31
1680.0000
 12
7506.8596
 22
-2238.7483
 32
1730.0000
 13
7606.8582
 23
-2239.2719
 33
1730.0000
 70
15
  0
3DFACE
  5
1056
  8
חלונות
 10
7506.8596
 20
-2238.7483
 30
410.0000
 11
7499.1418
 21
-3712.7281
 31
410.0000
 12
7599.1404
 22
-3713.2517
 32
410.0000
 13
7606.8582
 23
-2239.2719
 33
410.0000
 70
15
  0
3DFACE
  5
1057
  8
חלונות
 10
7506.8596
 20
-2238.7483
 30
460.0000
 11
7499.1418
 21
-3712.7281
 31
460.0000
 12
7599.1404
 22
-3713.2517
 32
460.0000
 13
7606.8582
 23
-2239.2719
 33
460.0000
 70
15
  0
3DFACE
  5
1058
  8
חלונות
 10
7506.8596
 20
-2238.7483
 30
410.0000
 11
7499.1418
 21
-3712.7281
 31
410.0000
 12
7499.1418
 22
-3712.7281
 32
460.0000
 13
7506.8596
 23
-2238.7483
 33
460.0000
 70
15
  0
3DFACE
  5
1059
  8
חלונות
 10
7499.1418
 20
-3712.7281
 30
410.0000
 11
7599.1404
 21
-3713.2517
 31
410.0000
 12
7599.1404
 22
-3713.2517
 32
460.0000
 13
7499.1418
 23
-3712.7281
 33
460.0000
 70
15
  0
3DFACE
  5
105A
  8
חלונות
 10
7599.1404
 20
-3713.2517
 30
410.0000
 11
7606.8582
 21
-2239.2719
 31
410.0000
 12
7606.8582
 22
-2239.2719
 32
460.0000
 13
7599.1404
 23
-3713.2517
 33
460.0000
 70
15
  0
3DFACE
  5
105B
  8
חלונות
 10
7606.8582
 20
-2239.2719
 30
410.0000
 11
7506.8596
 21
-2238.7483
 31
410.0000
 12
7506.8596
 22
-2238.7483
 32
460.0000
 13
7606.8582
 23
-2239.2719
 33
460.0000
 70
15
  0
3DFACE
  5
105C
  8
חלונות
 10
7542.5973
 20
-2288.9361
 30
460.0000
 11
7535.4031
 21
-3662.9173
 31
460.0000
 12
7563.4027
 22
-3663.0639
 32
460.0000
 13
7570.5969
 23
-2289.0827
 33
460.0000
 70
15
  0
3DFACE
  5
105D
  8
חלונות
 10
7542.5973
 20
-2288.9361
 30
1680.0000
 11
7535.4031
 21
-3662.9173
 31
1680.0000
 12
7563.4027
 22
-3663.0639
 32
1680.0000
 13
7570.5969
 23
-2289.0827
 33
1680.0000
 70
15
  0
3DFACE
  5
105E
  8
חלונות
 10
7542.5973
 20
-2288.9361
 30
460.0000
 11
7535.4031
 21
-3662.9173
 31
460.0000
 12
7535.4031
 22
-3662.9173
 32
1680.0000
 13
7542.5973
 23
-2288.9361
 33
1680.0000
 70
15
  0
3DFACE
  5
105F
  8
חלונות
 10
7535.4031
 20
-3662.9173
 30
460.0000
 11
7563.4027
 21
-3663.0639
 31
460.0000
 12
7563.4027
 22
-3663.0639
 32
1680.0000
 13
7535.4031
 23
-3662.9173
 33
1680.0000
 70
15
  0
3DFACE
  5
1060
  8
חלונות
 10
7563.4027
 20
-3663.0639
 30
460.0000
 11
7570.5969
 21
-2289.0827
 31
460.0000
 12
7570.5969
 22
-2289.0827
 32
1680.0000
 13
7563.4027
 23
-3663.0639
 33
1680.0000
 70
15
  0
3DFACE
  5
1061
  8
חלונות
 10
7570.5969
 20
-2289.0827
 30
460.0000
 11
7542.5973
 21
-2288.9361
 31
460.0000
 12
7542.5973
 22
-2288.9361
 32
1680.0000
 13
7570.5969
 23
-2289.0827
 33
1680.0000
 70
15
  0
3DFACE
  5
1062
  8
חלונות
 10
6404.4697
 20
-5434.2551
 30
900.0000
 11
6404.2079
 21
-5484.2545
 31
900.0000
 12
6504.2065
 22
-5484.7780
 32
900.0000
 13
6504.4683
 23
-5434.7787
 33
900.0000
 70
15
  0
3DFACE
  5
1063
  8
חלונות
 10
6404.4697
 20
-5434.2551
 30
3296.0000
 11
6404.2079
 21
-5484.2545
 31
3296.0000
 12
6504.2065
 22
-5484.7780
 32
3296.0000
 13
6504.4683
 23
-5434.7787
 33
3296.0000
 70
15
  0
3DFACE
  5
1064
  8
חלונות
 10
6404.4697
 20
-5434.2551
 30
900.0000
 11
6404.2079
 21
-5484.2545
 31
900.0000
 12
6404.2079
 22
-5484.2545
 32
3296.0000
 13
6404.4697
 23
-5434.2551
 33
3296.0000
 70
15
  0
3DFACE
  5
1065
  8
חלונות
 10
6404.2079
 20
-5484.2545
 30
900.0000
 11
6504.2065
 21
-5484.7780
 31
900.0000
 12
6504.2065
 22
-5484.7780
 32
3296.0000
 13
6404.2079
 23
-5484.2545
 33
3296.0000
 70
15
  0
3DFACE
  5
1066
  8
חלונות
 10
6504.2065
 20
-5484.7780
 30
900.0000
 11
6504.4683
 21
-5434.7787
 31
900.0000
 12
6504.4683
 22
-5434.7787
 32
3296.0000
 13
6504.2065
 23
-5484.7780
 33
3296.0000
 70
15
  0
3DFACE
  5
1067
  8
חלונות
 10
6504.4683
 20
-5434.7787
 30
900.0000
 11
6404.4697
 21
-5434.2551
 31
900.0000
 12
6404.4697
 22
-5434.2551
 32
3296.0000
 13
6504.4683
 23
-5434.7787
 33
3296.0000
 70
15
  0
3DFACE
  5
1068
  8
חלונות
 10
6391.7935
 20
-7855.2220
 30
900.0000
 11
6391.5317
 21
-7905.2213
 31
900.0000
 12
6491.5303
 22
-7905.7449
 32
900.0000
 13
6491.7921
 23
-7855.7455
 33
900.0000
 70
15
  0
3DFACE
  5
1069
  8
חלונות
 10
6391.7935
 20
-7855.2220
 30
3296.0000
 11
6391.5317
 21
-7905.2213
 31
3296.0000
 12
6491.5303
 22
-7905.7449
 32
3296.0000
 13
6491.7921
 23
-7855.7455
 33
3296.0000
 70
15
  0
3DFACE
  5
106A
  8
חלונות
 10
6391.7935
 20
-7855.2220
 30
900.0000
 11
6391.5317
 21
-7905.2213
 31
900.0000
 12
6391.5317
 22
-7905.2213
 32
3296.0000
 13
6391.7935
 23
-7855.2220
 33
3296.0000
 70
15
  0
3DFACE
  5
106B
  8
חלונות
 10
6391.5317
 20
-7905.2213
 30
900.0000
 11
6491.5303
 21
-7905.7449
 31
900.0000
 12
6491.5303
 22
-7905.7449
 32
3296.0000
 13
6391.5317
 23
-7905.2213
 33
3296.0000
 70
15
  0
3DFACE
  5
106C
  8
חלונות
 10
6491.5303
 20
-7905.7449
 30
900.0000
 11
6491.7921
 21
-7855.7455
 31
900.0000
 12
6491.7921
 22
-7855.7455
 32
3296.0000
 13
6491.5303
 23
-7905.7449
 33
3296.0000
 70
15
  0
3DFACE
  5
106D
  8
חלונות
 10
6491.7921
 20
-7855.7455
 30
900.0000
 11
6391.7935
 21
-7855.2220
 31
900.0000
 12
6391.7935
 22
-7855.2220
 32
3296.0000
 13
6491.7921
 23
-7855.7455
 33
3296.0000
 70
15
  0
3DFACE
  5
106E
  8
חלונות
 10
6404.4697
 20
-5434.2551
 30
3246.0000
 11
6391.5317
 21
-7905.2213
 31
3246.0000
 12
6491.5303
 22
-7905.7449
 32
3246.0000
 13
6504.4683
 23
-5434.7787
 33
3246.0000
 70
15
  0
3DFACE
  5
106F
  8
חלונות
 10
6404.4697
 20
-5434.2551
 30
3296.0000
 11
6391.5317
 21
-7905.2213
 31
3296.0000
 12
6491.5303
 22
-7905.7449
 32
3296.0000
 13
6504.4683
 23
-5434.7787
 33
3296.0000
 70
15
  0
3DFACE
  5
1070
  8
חלונות
 10
6404.4697
 20
-5434.2551
 30
3246.0000
 11
6391.5317
 21
-7905.2213
 31
3246.0000
 12
6391.5317
 22
-7905.2213
 32
3296.0000
 13
6404.4697
 23
-5434.2551
 33
3296.0000
 70
15
  0
3DFACE
  5
1071
  8
חלונות
 10
6391.5317
 20
-7905.2213
 30
3246.0000
 11
6491.5303
 21
-7905.7449
 31
3246.0000
 12
6491.5303
 22
-7905.7449
 32
3296.0000
 13
6391.5317
 23
-7905.2213
 33
3296.0000
 70
15
  0
3DFACE
  5
1072
  8
חלונות
 10
6491.5303
 20
-7905.7449
 30
3246.0000
 11
6504.4683
 21
-5434.7787
 31
3246.0000
 12
6504.4683
 22
-5434.7787
 32
3296.0000
 13
6491.5303
 23
-7905.7449
 33
3296.0000
 70
15
  0
3DFACE
  5
1073
  8
חלונות
 10
6504.4683
 20
-5434.7787
 30
3246.0000
 11
6404.4697
 21
-5434.2551
 31
3246.0000
 12
6404.4697
 22
-5434.2551
 32
3296.0000
 13
6504.4683
 23
-5434.7787
 33
3296.0000
 70
15
  0
3DFACE
  5
1074
  8
חלונות
 10
6404.4697
 20
-5434.2551
 30
900.0000
 11
6391.5317
 21
-7905.2213
 31
900.0000
 12
6491.5303
 22
-7905.7449
 32
900.0000
 13
6504.4683
 23
-5434.7787
 33
900.0000
 70
15
  0
3DFACE
  5
1075
  8
חלונות
 10
6404.4697
 20
-5434.2551
 30
950.0000
 11
6391.5317
 21
-7905.2213
 31
950.0000
 12
6491.5303
 22
-7905.7449
 32
950.0000
 13
6504.4683
 23
-5434.7787
 33
950.0000
 70
15
  0
3DFACE
  5
1076
  8
חלונות
 10
6404.4697
 20
-5434.2551
 30
900.0000
 11
6391.5317
 21
-7905.2213
 31
900.0000
 12
6391.5317
 22
-7905.2213
 32
950.0000
 13
6404.4697
 23
-5434.2551
 33
950.0000
 70
15
  0
3DFACE
  5
1077
  8
חלונות
 10
6391.5317
 20
-7905.2213
 30
900.0000
 11
6491.5303
 21
-7905.7449
 31
900.0000
 12
6491.5303
 22
-7905.7449
 32
950.0000
 13
6391.5317
 23
-7905.2213
 33
950.0000
 70
15
  0
3DFACE
  5
1078
  8
חלונות
 10
6491.5303
 20
-7905.7449
 30
900.0000
 11
6504.4683
 21
-5434.7787
 31
900.0000
 12
6504.4683
 22
-5434.7787
 32
950.0000
 13
6491.5303
 23
-7905.7449
 33
950.0000
 70
15
  0
3DFACE
  5
1079
  8
חלונות
 10
6504.4683
 20
-5434.7787
 30
900.0000
 11
6404.4697
 21
-5434.2551
 31
900.0000
 12
6404.4697
 22
-5434.2551
 32
950.0000
 13
6504.4683
 23
-5434.7787
 33
950.0000
 70
15
  0
3DFACE
  5
107A
  8
חלונות
 10
6440.2074
 20
-5484.4429
 30
950.0000
 11
6427.7930
 21
-7855.4104
 31
950.0000
 12
6455.7926
 22
-7855.5571
 32
950.0000
 13
6468.2070
 23
-5484.5896
 33
950.0000
 70
15
  0
3DFACE
  5
107B
  8
חלונות
 10
6440.2074
 20
-5484.4429
 30
3246.0000
 11
6427.7930
 21
-7855.4104
 31
3246.0000
 12
6455.7926
 22
-7855.5571
 32
3246.0000
 13
6468.2070
 23
-5484.5896
 33
3246.0000
 70
15
  0
3DFACE
  5
107C
  8
חלונות
 10
6440.2074
 20
-5484.4429
 30
950.0000
 11
6427.7930
 21
-7855.4104
 31
950.0000
 12
6427.7930
 22
-7855.4104
 32
3246.0000
 13
6440.2074
 23
-5484.4429
 33
3246.0000
 70
15
  0
3DFACE
  5
107D
  8
חלונות
 10
6427.7930
 20
-7855.4104
 30
950.0000
 11
6455.7926
 21
-7855.5571
 31
950.0000
 12
6455.7926
 22
-7855.5571
 32
3246.0000
 13
6427.7930
 23
-7855.4104
 33
3246.0000
 70
15
  0
3DFACE
  5
107E
  8
חלונות
 10
6455.7926
 20
-7855.5571
 30
950.0000
 11
6468.2070
 21
-5484.5896
 31
950.0000
 12
6468.2070
 22
-5484.5896
 32
3246.0000
 13
6455.7926
 23
-7855.5571
 33
3246.0000
 70
15
  0
3DFACE
  5
107F
  8
חלונות
 10
6468.2070
 20
-5484.5896
 30
950.0000
 11
6440.2074
 21
-5484.4429
 31
950.0000
 12
6440.2074
 22
-5484.4429
 32
3246.0000
 13
6468.2070
 23
-5484.5896
 33
3246.0000
 70
15
  0
INSERT
  5
1080
  8
חשמל
  2
DUPLEXSWITCH
 10
7175.0000
 20
-2540.0000
 30
1085.0000
 41
1.0000
 42
1.0000
 43
1.0000
 50
0.0000
  0
3DFACE
  5
1081
  8
חשמל
 10
7095.0000
 20
-2605.0000
 30
1085.0000
 11
7255.0000
 21
-2605.0000
 31
1085.0000
 12
7255.0000
 22
-2590.0000
 32
1085.0000
 13
7095.0000
 23
-2590.0000
 33
1085.0000
 70
15
  0
3DFACE
  5
1082
  8
חשמל
 10
7095.0000
 20
-2605.0000
 30
1165.0000
 11
7255.0000
 21
-2605.0000
 31
1165.0000
 12
7255.0000
 22
-2590.0000
 32
1165.0000
 13
7095.0000
 23
-2590.0000
 33
1165.0000
 70
15
  0
3DFACE
  5
1083
  8
חשמל
 10
7095.0000
 20
-2605.0000
 30
1085.0000
 11
7255.0000
 21
-2605.0000
 31
1085.0000
 12
7255.0000
 22
-2605.0000
 32
1165.0000
 13
7095.0000
 23
-2605.0000
 33
1165.0000
 70
15
  0
3DFACE
  5
1084
  8
חשמל
 10
7255.0000
 20
-2605.0000
 30
1085.0000
 11
7255.0000
 21
-2590.0000
 31
1085.0000
 12
7255.0000
 22
-2590.0000
 32
1165.0000
 13
7255.0000
 23
-2605.0000
 33
1165.0000
 70
15
  0
3DFACE
  5
1085
  8
חשמל
 10
7255.0000
 20
-2590.0000
 30
1085.0000
 11
7095.0000
 21
-2590.0000
 31
1085.0000
 12
7095.0000
 22
-2590.0000
 32
1165.0000
 13
7255.0000
 23
-2590.0000
 33
1165.0000
 70
15
  0
3DFACE
  5
1086
  8
חשמל
 10
7095.0000
 20
-2590.0000
 30
1085.0000
 11
7095.0000
 21
-2605.0000
 31
1085.0000
 12
7095.0000
 22
-2605.0000
 32
1165.0000
 13
7095.0000
 23
-2590.0000
 33
1165.0000
 70
15
  0
INSERT
  5
1087
  8
חשמל
  2
CONTROLBOX
 10
6841.0000
 20
-2540.0000
 30
2253.0000
 41
1.0000
 42
1.0000
 43
1.0000
 50
0.0000
  0
3DFACE
  5
1088
  8
חשמל
 10
6801.0000
 20
-2605.0000
 30
2253.0000
 11
6881.0000
 21
-2605.0000
 31
2253.0000
 12
6881.0000
 22
-2590.0000
 32
2253.0000
 13
6801.0000
 23
-2590.0000
 33
2253.0000
 70
15
  0
3DFACE
  5
1089
  8
חשמל
 10
6801.0000
 20
-2605.0000
 30
2333.0000
 11
6881.0000
 21
-2605.0000
 31
2333.0000
 12
6881.0000
 22
-2590.0000
 32
2333.0000
 13
6801.0000
 23
-2590.0000
 33
2333.0000
 70
15
  0
3DFACE
  5
108A
  8
חשמל
 10
6801.0000
 20
-2605.0000
 30
2253.0000
 11
6881.0000
 21
-2605.0000
 31
2253.0000
 12
6881.0000
 22
-2605.0000
 32
2333.0000
 13
6801.0000
 23
-2605.0000
 33
2333.0000
 70
15
  0
3DFACE
  5
108B
  8
חשמל
 10
6881.0000
 20
-2605.0000
 30
2253.0000
 11
6881.0000
 21
-2590.0000
 31
2253.0000
 12
6881.0000
 22
-2590.0000
 32
2333.0000
 13
6881.0000
 23
-2605.0000
 33
2333.0000
 70
15
  0
3DFACE
  5
108C
  8
חשמל
 10
6881.0000
 20
-2590.0000
 30
2253.0000
 11
6801.0000
 21
-2590.0000
 31
2253.0000
 12
6801.0000
 22
-2590.0000
 32
2333.0000
 13
6881.0000
 23
-2590.0000
 33
2333.0000
 70
15
  0
3DFACE
  5
108D
  8
חשמל
 10
6801.0000
 20
-2590.0000
 30
2253.0000
 11
6801.0000
 21
-2605.0000
 31
2253.0000
 12
6801.0000
 22
-2605.0000
 32
2333.0000
 13
6801.0000
 23
-2590.0000
 33
2333.0000
 70
15
  0
INSERT
  5
108E
  8
חשמל
  2
SOCKET
 10
5815.0000
 20
-2540.0000
 30
684.0000
 41
1.0000
 42
1.0000
 43
1.0000
 50
0.0000
  0
3DFACE
  5
108F
  8
חשמל
 10
5775.0000
 20
-2605.0000
 30
684.0000
 11
5855.0000
 21
-2605.0000
 31
684.0000
 12
5855.0000
 22
-2590.0000
 32
684.0000
 13
5775.0000
 23
-2590.0000
 33
684.0000
 70
15
  0
3DFACE
  5
1090
  8
חשמל
 10
5775.0000
 20
-2605.0000
 30
764.0000
 11
5855.0000
 21
-2605.0000
 31
764.0000
 12
5855.0000
 22
-2590.0000
 32
764.0000
 13
5775.0000
 23
-2590.0000
 33
764.0000
 70
15
  0
3DFACE
  5
1091
  8
חשמל
 10
5775.0000
 20
-2605.0000
 30
684.0000
 11
5855.0000
 21
-2605.0000
 31
684.0000
 12
5855.0000
 22
-2605.0000
 32
764.0000
 13
5775.0000
 23
-2605.0000
 33
764.0000
 70
15
  0
3DFACE
  5
1092
  8
חשמל
 10
5855.0000
 20
-2605.0000
 30
684.0000
 11
5855.0000
 21
-2590.0000
 31
684.0000
 12
5855.0000
 22
-2590.0000
 32
764.0000
 13
5855.0000
 23
-2605.0000
 33
764.0000
 70
15
  0
3DFACE
  5
1093
  8
חשמל
 10
5855.0000
 20
-2590.0000
 30
684.0000
 11
5775.0000
 21
-2590.0000
 31
684.0000
 12
5775.0000
 22
-2590.0000
 32
764.0000
 13
5855.0000
 23
-2590.0000
 33
764.0000
 70
15
  0
3DFACE
  5
1094
  8
חשמל
 10
5775.0000
 20
-2590.0000
 30
684.0000
 11
5775.0000
 21
-2605.0000
 31
684.0000
 12
5775.0000
 22
-2605.0000
 32
764.0000
 13
5775.0000
 23
-2590.0000
 33
764.0000
 70
15
  0
INSERT
  5
1095
  8
חשמל
  2
SOCKET
 10
5665.0000
 20
-2540.0000
 30
678.0000
 41
1.0000
 42
1.0000
 43
1.0000
 50
0.0000
  0
3DFACE
  5
1096
  8
חשמל
 10
5625.0000
 20
-2605.0000
 30
678.0000
 11
5705.0000
 21
-2605.0000
 31
678.0000
 12
5705.0000
 22
-2590.0000
 32
678.0000
 13
5625.0000
 23
-2590.0000
 33
678.0000
 70
15
  0
3DFACE
  5
1097
  8
חשמל
 10
5625.0000
 20
-2605.0000
 30
758.0000
 11
5705.0000
 21
-2605.0000
 31
758.0000
 12
5705.0000
 22
-2590.0000
 32
758.0000
 13
5625.0000
 23
-2590.0000
 33
758.0000
 70
15
  0
3DFACE
  5
1098
  8
חשמל
 10
5625.0000
 20
-2605.0000
 30
678.0000
 11
5705.0000
 21
-2605.0000
 31
678.0000
 12
5705.0000
 22
-2605.0000
 32
758.0000
 13
5625.0000
 23
-2605.0000
 33
758.0000
 70
15
  0
3DFACE
  5
1099
  8
חשמל
 10
5705.0000
 20
-2605.0000
 30
678.0000
 11
5705.0000
 21
-2590.0000
 31
678.0000
 12
5705.0000
 22
-2590.0000
 32
758.0000
 13
5705.0000
 23
-2605.0000
 33
758.0000
 70
15
  0
3DFACE
  5
109A
  8
חשמל
 10
5705.0000
 20
-2590.0000
 30
678.0000
 11
5625.0000
 21
-2590.0000
 31
678.0000
 12
5625.0000
 22
-2590.0000
 32
758.0000
 13
5705.0000
 23
-2590.0000
 33
758.0000
 70
15
  0
3DFACE
  5
109B
  8
חשמל
 10
5625.0000
 20
-2590.0000
 30
678.0000
 11
5625.0000
 21
-2605.0000
 31
678.0000
 12
5625.0000
 22
-2605.0000
 32
758.0000
 13
5625.0000
 23
-2590.0000
 33
758.0000
 70
15
  0
INSERT
  5
109C
  8
גז
  2
GAS
 10
5701.0000
 20
-2540.0000
 30
-12.0000
 41
1.0000
 42
1.0000
 43
1.0000
 50
0.0000
  0
3DFACE
  5
109D
  8
גז
 10
5691.0000
 20
-2610.0000
 30
-12.0000
 11
5711.0000
 21
-2610.0000
 31
-12.0000
 12
5711.0000
 22
-2590.0000
 32
-12.0000
 13
5691.0000
 23
-2590.0000
 33
-12.0000
 70
15
  0
3DFACE
  5
109E
  8
גז
 10
5691.0000
 20
-2610.0000
 30
8.0000
 11
5711.0000
 21
-2610.0000
 31
8.0000
 12
5711.0000
 22
-2590.0000
 32
8.0000
 13
5691.0000
 23
-2590.0000
 33
8.0000
 70
15
  0
3DFACE
  5
109F
  8
גז
 10
5691.0000
 20
-2610.0000
 30
-12.0000
 11
5711.0000
 21
-2610.0000
 31
-12.0000
 12
5711.0000
 22
-2610.0000
 32
8.0000
 13
5691.0000
 23
-2610.0000
 33
8.0000
 70
15
  0
3DFACE
  5
10A0
  8
גז
 10
5711.0000
 20
-2610.0000
 30
-12.0000
 11
5711.0000
 21
-2590.0000
 31
-12.0000
 12
5711.0000
 22
-2590.0000
 32
8.0000
 13
5711.0000
 23
-2610.0000
 33
8.0000
 70
15
  0
3DFACE
  5
10A1
  8
גז
 10
5711.0000
 20
-2590.0000
 30
-12.0000
 11
5691.0000
 21
-2590.0000
 31
-12.0000
 12
5691.0000
 22
-2590.0000
 32
8.0000
 13
5711.0000
 23
-2590.0000
 33
8.0000
 70
15
  0
3DFACE
  5
10A2
  8
גז
 10
5691.0000
 20
-2590.0000
 30
-12.0000
 11
5691.0000
 21
-2610.0000
 31
-12.0000
 12
5691.0000
 22
-2610.0000
 32
8.0000
 13
5691.0000
 23
-2590.0000
 33
8.0000
 70
15
  0
INSERT
  5
10A3
  8
חשמל
  2
SOCKET
 10
3531.0000
 20
-2540.0000
 30
1724.0000
 41
1.0000
 42
1.0000
 43
1.0000
 50
0.0000
  0
3DFACE
  5
10A4
  8
חשמל
 10
3491.0000
 20
-2605.0000
 30
1724.0000
 11
3571.0000
 21
-2605.0000
 31
1724.0000
 12
3571.0000
 22
-2590.0000
 32
1724.0000
 13
3491.0000
 23
-2590.0000
 33
1724.0000
 70
15
  0
3DFACE
  5
10A5
  8
חשמל
 10
3491.0000
 20
-2605.0000
 30
1804.0000
 11
3571.0000
 21
-2605.0000
 31
1804.0000
 12
3571.0000
 22
-2590.0000
 32
1804.0000
 13
3491.0000
 23
-2590.0000
 33
1804.0000
 70
15
  0
3DFACE
  5
10A6
  8
חשמל
 10
3491.0000
 20
-2605.0000
 30
1724.0000
 11
3571.0000
 21
-2605.0000
 31
1724.0000
 12
3571.0000
 22
-2605.0000
 32
1804.0000
 13
3491.0000
 23
-2605.0000
 33
1804.0000
 70
15
  0
3DFACE
  5
10A7
  8
חשמל
 10
3571.0000
 20
-2605.0000
 30
1724.0000
 11
3571.0000
 21
-2590.0000
 31
1724.0000
 12
3571.0000
 22
-2590.0000
 32
1804.0000
 13
3571.0000
 23
-2605.0000
 33
1804.0000
 70
15
  0
3DFACE
  5
10A8
  8
חשמל
 10
3571.0000
 20
-2590.0000
 30
1724.0000
 11
3491.0000
 21
-2590.0000
 31
1724.0000
 12
3491.0000
 22
-2590.0000
 32
1804.0000
 13
3571.0000
 23
-2590.0000
 33
1804.0000
 70
15
  0
3DFACE
  5
10A9
  8
חשמל
 10
3491.0000
 20
-2590.0000
 30
1724.0000
 11
3491.0000
 21
-2605.0000
 31
1724.0000
 12
3491.0000
 22
-2605.0000
 32
1804.0000
 13
3491.0000
 23
-2590.0000
 33
1804.0000
 70
15
  0
INSERT
  5
10AA
  8
חשמל
  2
SOCKET
 10
4198.0000
 20
-2540.0000
 30
1567.0000
 41
1.0000
 42
1.0000
 43
1.0000
 50
0.0000
  0
3DFACE
  5
10AB
  8
חשמל
 10
4158.0000
 20
-2605.0000
 30
1567.0000
 11
4238.0000
 21
-2605.0000
 31
1567.0000
 12
4238.0000
 22
-2590.0000
 32
1567.0000
 13
4158.0000
 23
-2590.0000
 33
1567.0000
 70
15
  0
3DFACE
  5
10AC
  8
חשמל
 10
4158.0000
 20
-2605.0000
 30
1647.0000
 11
4238.0000
 21
-2605.0000
 31
1647.0000
 12
4238.0000
 22
-2590.0000
 32
1647.0000
 13
4158.0000
 23
-2590.0000
 33
1647.0000
 70
15
  0
3DFACE
  5
10AD
  8
חשמל
 10
4158.0000
 20
-2605.0000
 30
1567.0000
 11
4238.0000
 21
-2605.0000
 31
1567.0000
 12
4238.0000
 22
-2605.0000
 32
1647.0000
 13
4158.0000
 23
-2605.0000
 33
1647.0000
 70
15
  0
3DFACE
  5
10AE
  8
חשמל
 10
4238.0000
 20
-2605.0000
 30
1567.0000
 11
4238.0000
 21
-2590.0000
 31
1567.0000
 12
4238.0000
 22
-2590.0000
 32
1647.0000
 13
4238.0000
 23
-2605.0000
 33
1647.0000
 70
15
  0
3DFACE
  5
10AF
  8
חשמל
 10
4238.0000
 20
-2590.0000
 30
1567.0000
 11
4158.0000
 21
-2590.0000
 31
1567.0000
 12
4158.0000
 22
-2590.0000
 32
1647.0000
 13
4238.0000
 23
-2590.0000
 33
1647.0000
 70
15
  0
3DFACE
  5
10B0
  8
חשמל
 10
4158.0000
 20
-2590.0000
 30
1567.0000
 11
4158.0000
 21
-2605.0000
 31
1567.0000
 12
4158.0000
 22
-2605.0000
 32
1647.0000
 13
4158.0000
 23
-2590.0000
 33
1647.0000
 70
15
  0
INSERT
  5
10B1
  8
חשמל
  2
SOCKET
 10
4351.0000
 20
-2540.0000
 30
1566.0000
 41
1.0000
 42
1.0000
 43
1.0000
 50
0.0000
  0
3DFACE
  5
10B2
  8
חשמל
 10
4311.0000
 20
-2605.0000
 30
1566.0000
 11
4391.0000
 21
-2605.0000
 31
1566.0000
 12
4391.0000
 22
-2590.0000
 32
1566.0000
 13
4311.0000
 23
-2590.0000
 33
1566.0000
 70
15
  0
3DFACE
  5
10B3
  8
חשמל
 10
4311.0000
 20
-2605.0000
 30
1646.0000
 11
4391.0000
 21
-2605.0000
 31
1646.0000
 12
4391.0000
 22
-2590.0000
 32
1646.0000
 13
4311.0000
 23
-2590.0000
 33
1646.0000
 70
15
  0
3DFACE
  5
10B4
  8
חשמל
 10
4311.0000
 20
-2605.0000
 30
1566.0000
 11
4391.0000
 21
-2605.0000
 31
1566.0000
 12
4391.0000
 22
-2605.0000
 32
1646.0000
 13
4311.0000
 23
-2605.0000
 33
1646.0000
 70
15
  0
3DFACE
  5
10B5
  8
חשמל
 10
4391.0000
 20
-2605.0000
 30
1566.0000
 11
4391.0000
 21
-2590.0000
 31
1566.0000
 12
4391.0000
 22
-2590.0000
 32
1646.0000
 13
4391.0000
 23
-2605.0000
 33
1646.0000
 70
15
  0
3DFACE
  5
10B6
  8
חשמל
 10
4391.0000
 20
-2590.0000
 30
1566.0000
 11
4311.0000
 21
-2590.0000
 31
1566.0000
 12
4311.0000
 22
-2590.0000
 32
1646.0000
 13
4391.0000
 23
-2590.0000
 33
1646.0000
 70
15
  0
3DFACE
  5
10B7
  8
חשמל
 10
4311.0000
 20
-2590.0000
 30
1566.0000
 11
4311.0000
 21
-2605.0000
 31
1566.0000
 12
4311.0000
 22
-2605.0000
 32
1646.0000
 13
4311.0000
 23
-2590.0000
 33
1646.0000
 70
15
  0
INSERT
  5
10B8
  8
חשמל
  2
DUPLEXSWITCH
 10
4870.0000
 20
-2540.0000
 30
1113.0000
 41
1.0000
 42
1.0000
 43
1.0000
 50
0.0000
  0
3DFACE
  5
10B9
  8
חשמל
 10
4790.0000
 20
-2605.0000
 30
1113.0000
 11
4950.0000
 21
-2605.0000
 31
1113.0000
 12
4950.0000
 22
-2590.0000
 32
1113.0000
 13
4790.0000
 23
-2590.0000
 33
1113.0000
 70
15
  0
3DFACE
  5
10BA
  8
חשמל
 10
4790.0000
 20
-2605.0000
 30
1193.0000
 11
4950.0000
 21
-2605.0000
 31
1193.0000
 12
4950.0000
 22
-2590.0000
 32
1193.0000
 13
4790.0000
 23
-2590.0000
 33
1193.0000
 70
15
  0
3DFACE
  5
10BB
  8
חשמל
 10
4790.0000
 20
-2605.0000
 30
1113.0000
 11
4950.0000
 21
-2605.0000
 31
1113.0000
 12
4950.0000
 22
-2605.0000
 32
1193.0000
 13
4790.0000
 23
-2605.0000
 33
1193.0000
 70
15
  0
3DFACE
  5
10BC
  8
חשמל
 10
4950.0000
 20
-2605.0000
 30
1113.0000
 11
4950.0000
 21
-2590.0000
 31
1113.0000
 12
4950.0000
 22
-2590.0000
 32
1193.0000
 13
4950.0000
 23
-2605.0000
 33
1193.0000
 70
15
  0
3DFACE
  5
10BD
  8
חשמל
 10
4950.0000
 20
-2590.0000
 30
1113.0000
 11
4790.0000
 21
-2590.0000
 31
1113.0000
 12
4790.0000
 22
-2590.0000
 32
1193.0000
 13
4950.0000
 23
-2590.0000
 33
1193.0000
 70
15
  0
3DFACE
  5
10BE
  8
חשמל
 10
4790.0000
 20
-2590.0000
 30
1113.0000
 11
4790.0000
 21
-2605.0000
 31
1113.0000
 12
4790.0000
 22
-2605.0000
 32
1193.0000
 13
4790.0000
 23
-2590.0000
 33
1193.0000
 70
15
  0
INSERT
  5
10BF
  8
חשמל
  2
CONTROLBOX
 10
4426.0000
 20
-2540.0000
 30
2238.0000
 41
1.0000
 42
1.0000
 43
1.0000
 50
0.0000
  0
3DFACE
  5
10C0
  8
חשמל
 10
4386.0000
 20
-2605.0000
 30
2238.0000
 11
4466.0000
 21
-2605.0000
 31
2238.0000
 12
4466.0000
 22
-2590.0000
 32
2238.0000
 13
4386.0000
 23
-2590.0000
 33
2238.0000
 70
15
  0
3DFACE
  5
10C1
  8
חשמל
 10
4386.0000
 20
-2605.0000
 30
2318.0000
 11
4466.0000
 21
-2605.0000
 31
2318.0000
 12
4466.0000
 22
-2590.0000
 32
2318.0000
 13
4386.0000
 23
-2590.0000
 33
2318.0000
 70
15
  0
3DFACE
  5
10C2
  8
חשמל
 10
4386.0000
 20
-2605.0000
 30
2238.0000
 11
4466.0000
 21
-2605.0000
 31
2238.0000
 12
4466.0000
 22
-2605.0000
 32
2318.0000
 13
4386.0000
 23
-2605.0000
 33
2318.0000
 70
15
  0
3DFACE
  5
10C3
  8
חשמל
 10
4466.0000
 20
-2605.0000
 30
2238.0000
 11
4466.0000
 21
-2590.0000
 31
2238.0000
 12
4466.0000
 22
-2590.0000
 32
2318.0000
 13
4466.0000
 23
-2605.0000
 33
2318.0000
 70
15
  0
3DFACE
  5
10C4
  8
חשמל
 10
4466.0000
 20
-2590.0000
 30
2238.0000
 11
4386.0000
 21
-2590.0000
 31
2238.0000
 12
4386.0000
 22
-2590.0000
 32
2318.0000
 13
4466.0000
 23
-2590.0000
 33
2318.0000
 70
15
  0
3DFACE
  5
10C5
  8
חשמל
 10
4386.0000
 20
-2590.0000
 30
2238.0000
 11
4386.0000
 21
-2605.0000
 31
2238.0000
 12
4386.0000
 22
-2605.0000
 32
2318.0000
 13
4386.0000
 23
-2590.0000
 33
2318.0000
 70
15
  0
INSERT
  5
10C6
  8
תאורה
  2
LIGHTING
 10
4584.0000
 20
-2540.0000
 30
2760.0000
 41
1.0000
 42
1.0000
 43
1.0000
 50
0.0000
  0
3DFACE
  5
10C7
  8
תאורה
 10
4534.0000
 20
-2690.0000
 30
2760.0000
 11
4634.0000
 21
-2690.0000
 31
2760.0000
 12
4634.0000
 22
-2590.0000
 32
2760.0000
 13
4534.0000
 23
-2590.0000
 33
2760.0000
 70
15
  0
3DFACE
  5
10C8
  8
תאורה
 10
4534.0000
 20
-2690.0000
 30
2790.0000
 11
4634.0000
 21
-2690.0000
 31
2790.0000
 12
4634.0000
 22
-2590.0000
 32
2790.0000
 13
4534.0000
 23
-2590.0000
 33
2790.0000
 70
15
  0
3DFACE
  5
10C9
  8
תאורה
 10
4534.0000
 20
-2690.0000
 30
2760.0000
 11
4634.0000
 21
-2690.0000
 31
2760.0000
 12
4634.0000
 22
-2690.0000
 32
2790.0000
 13
4534.0000
 23
-2690.0000
 33
2790.0000
 70
15
  0
3DFACE
  5
10CA
  8
תאורה
 10
4634.0000
 20
-2690.0000
 30
2760.0000
 11
4634.0000
 21
-2590.0000
 31
2760.0000
 12
4634.0000
 22
-2590.0000
 32
2790.0000
 13
4634.0000
 23
-2690.0000
 33
2790.0000
 70
15
  0
3DFACE
  5
10CB
  8
תאורה
 10
4634.0000
 20
-2590.0000
 30
2760.0000
 11
4534.0000
 21
-2590.0000
 31
2760.0000
 12
4534.0000
 22
-2590.0000
 32
2790.0000
 13
4634.0000
 23
-2590.0000
 33
2790.0000
 70
15
  0
3DFACE
  5
10CC
  8
תאורה
 10
4534.0000
 20
-2590.0000
 30
2760.0000
 11
4534.0000
 21
-2690.0000
 31
2760.0000
 12
4534.0000
 22
-2690.0000
 32
2790.0000
 13
4534.0000
 23
-2590.0000
 33
2790.0000
 70
15
  0
INSERT
  5
10CD
  8
תאורה
  2
LIGHTING
 10
6023.0000
 20
-2540.0000
 30
2760.0000
 41
1.0000
 42
1.0000
 43
1.0000
 50
0.0000
  0
3DFACE
  5
10CE
  8
תאורה
 10
5973.0000
 20
-2690.0000
 30
2760.0000
 11
6073.0000
 21
-2690.0000
 31
2760.0000
 12
6073.0000
 22
-2590.0000
 32
2760.0000
 13
5973.0000
 23
-2590.0000
 33
2760.0000
 70
15
  0
3DFACE
  5
10CF
  8
תאורה
 10
5973.0000
 20
-2690.0000
 30
2790.0000
 11
6073.0000
 21
-2690.0000
 31
2790.0000
 12
6073.0000
 22
-2590.0000
 32
2790.0000
 13
5973.0000
 23
-2590.0000
 33
2790.0000
 70
15
  0
3DFACE
  5
10D0
  8
תאורה
 10
5973.0000
 20
-2690.0000
 30
2760.0000
 11
6073.0000
 21
-2690.0000
 31
2760.0000
 12
6073.0000
 22
-2690.0000
 32
2790.0000
 13
5973.0000
 23
-2690.0000
 33
2790.0000
 70
15
  0
3DFACE
  5
10D1
  8
תאורה
 10
6073.0000
 20
-2690.0000
 30
2760.0000
 11
6073.0000
 21
-2590.0000
 31
2760.0000
 12
6073.0000
 22
-2590.0000
 32
2790.0000
 13
6073.0000
 23
-2690.0000
 33
2790.0000
 70
15
  0
3DFACE
  5
10D2
  8
תאורה
 10
6073.0000
 20
-2590.0000
 30
2760.0000
 11
5973.0000
 21
-2590.0000
 31
2760.0000
 12
5973.0000
 22
-2590.0000
 32
2790.0000
 13
6073.0000
 23
-2590.0000
 33
2790.0000
 70
15
  0
3DFACE
  5
10D3
  8
תאורה
 10
5973.0000
 20
-2590.0000
 30
2760.0000
 11
5973.0000
 21
-2690.0000
 31
2760.0000
 12
5973.0000
 22
-2690.0000
 32
2790.0000
 13
5973.0000
 23
-2590.0000
 33
2790.0000
 70
15
  0
INSERT
  5
10D4
  8
חשמל
  2
SOCKET
 10
7548.0000
 20
-3846.0000
 30
481.0000
 41
1.0000
 42
1.0000
 43
1.0000
 50
269.7000
  0
3DFACE
  5
10D5
  8
חשמל
 10
7483.2103
 20
-3805.6602
 30
481.0000
 11
7482.7915
 21
-3885.6591
 31
481.0000
 12
7497.7912
 22
-3885.7377
 32
481.0000
 13
7498.2101
 23
-3805.7388
 33
481.0000
 70
15
  0
3DFACE
  5
10D6
  8
חשמל
 10
7483.2103
 20
-3805.6602
 30
561.0000
 11
7482.7915
 21
-3885.6591
 31
561.0000
 12
7497.7912
 22
-3885.7377
 32
561.0000
 13
7498.2101
 23
-3805.7388
 33
561.0000
 70
15
  0
3DFACE
  5
10D7
  8
חשמל
 10
7483.2103
 20
-3805.6602
 30
481.0000
 11
7482.7915
 21
-3885.6591
 31
481.0000
 12
7482.7915
 22
-3885.6591
 32
561.0000
 13
7483.2103
 23
-3805.6602
 33
561.0000
 70
15
  0
3DFACE
  5
10D8
  8
חשמל
 10
7482.7915
 20
-3885.6591
 30
481.0000
 11
7497.7912
 21
-3885.7377
 31
481.0000
 12
7497.7912
 22
-3885.7377
 32
561.0000
 13
7482.7915
 23
-3885.6591
 33
561.0000
 70
15
  0
3DFACE
  5
10D9
  8
חשמל
 10
7497.7912
 20
-3885.7377
 30
481.0000
 11
7498.2101
 21
-3805.7388
 31
481.0000
 12
7498.2101
 22
-3805.7388
 32
561.0000
 13
7497.7912
 23
-3885.7377
 33
561.0000
 70
15
  0
3DFACE
  5
10DA
  8
חשמל
 10
7498.2101
 20
-3805.7388
 30
481.0000
 11
7483.2103
 21
-3805.6602
 31
481.0000
 12
7483.2103
 22
-3805.6602
 32
561.0000
 13
7498.2101
 23
-3805.7388
 33
561.0000
 70
15
  0
INSERT
  5
10DB
  8
מים
  2
FAUCET
 10
7549.0000
 20
-3680.0000
 30
519.0000
 41
1.0000
 42
1.0000
 43
1.0000
 50
269.7000
  0
3DFACE
  5
10DC
  8
מים
 10
7479.0533
 20
-3669.6336
 30
519.0000
 11
7478.9486
 21
-3689.6333
 31
519.0000
 12
7498.9483
 22
-3689.7381
 32
519.0000
 13
7499.0530
 23
-3669.7383
 33
519.0000
 70
15
  0
3DFACE
  5
10DD
  8
מים
 10
7479.0533
 20
-3669.6336
 30
539.0000
 11
7478.9486
 21
-3689.6333
 31
539.0000
 12
7498.9483
 22
-3689.7381
 32
539.0000
 13
7499.0530
 23
-3669.7383
 33
539.0000
 70
15
  0
3DFACE
  5
10DE
  8
מים
 10
7479.0533
 20
-3669.6336
 30
519.0000
 11
7478.9486
 21
-3689.6333
 31
519.0000
 12
7478.9486
 22
-3689.6333
 32
539.0000
 13
7479.0533
 23
-3669.6336
 33
539.0000
 70
15
  0
3DFACE
  5
10DF
  8
מים
 10
7478.9486
 20
-3689.6333
 30
519.0000
 11
7498.9483
 21
-3689.7381
 31
519.0000
 12
7498.9483
 22
-3689.7381
 32
539.0000
 13
7478.9486
 23
-3689.6333
 33
539.0000
 70
15
  0
3DFACE
  5
10E0
  8
מים
 10
7498.9483
 20
-3689.7381
 30
519.0000
 11
7499.0530
 21
-3669.7383
 31
519.0000
 12
7499.0530
 22
-3669.7383
 32
539.0000
 13
7498.9483
 23
-3689.7381
 33
539.0000
 70
15
  0
3DFACE
  5
10E1
  8
מים
 10
7499.0530
 20
-3669.7383
 30
519.0000
 11
7479.0533
 21
-3669.6336
 31
519.0000
 12
7479.0533
 22
-3669.6336
 32
539.0000
 13
7499.0530
 23
-3669.7383
 33
539.0000
 70
15
  0
INSERT
  5
10E2
  8
מים
  2
FAUCET
 10
7550.0000
 20
-3529.0000
 30
532.0000
 41
1.0000
 42
1.0000
 43
1.0000
 50
269.7000
  0
3DFACE
  5
10E3
  8
מים
 10
7480.0533
 20
-3518.6336
 30
532.0000
 11
7479.9486
 21
-3538.6333
 31
532.0000
 12
7499.9483
 22
-3538.7381
 32
532.0000
 13
7500.0530
 23
-3518.7383
 33
532.0000
 70
15
  0
3DFACE
  5
10E4
  8
מים
 10
7480.0533
 20
-3518.6336
 30
552.0000
 11
7479.9486
 21
-3538.6333
 31
552.0000
 12
7499.9483
 22
-3538.7381
 32
552.0000
 13
7500.0530
 23
-3518.7383
 33
552.0000
 70
15
  0
3DFACE
  5
10E5
  8
מים
 10
7480.0533
 20
-3518.6336
 30
532.0000
 11
7479.9486
 21
-3538.6333
 31
532.0000
 12
7479.9486
 22
-3538.6333
 32
552.0000
 13
7480.0533
 23
-3518.6336
 33
552.0000
 70
15
  0
3DFACE
  5
10E6
  8
מים
 10
7479.9486
 20
-3538.6333
 30
532.0000
 11
7499.9483
 21
-3538.7381
 31
532.0000
 12
7499.9483
 22
-3538.7381
 32
552.0000
 13
7479.9486
 23
-3538.6333
 33
552.0000
 70
15
  0
3DFACE
  5
10E7
  8
מים
 10
7499.9483
 20
-3538.7381
 30
532.0000
 11
7500.0530
 21
-3518.7383
 31
532.0000
 12
7500.0530
 22
-3518.7383
 32
552.0000
 13
7499.9483
 23
-3538.7381
 33
552.0000
 70
15
  0
3DFACE
  5
10E8
  8
מים
 10
7500.0530
 20
-3518.7383
 30
532.0000
 11
7480.0533
 21
-3518.6336
 31
532.0000
 12
7480.0533
 22
-3518.6336
 32
552.0000
 13
7500.0530
 23
-3518.7383
 33
552.0000
 70
15
  0
INSERT
  5
10E9
  8
מים
  2
FAUCET
 10
7551.0000
 20
-3395.0000
 30
505.0000
 41
1.0000
 42
1.0000
 43
1.0000
 50
269.7000
  0
3DFACE
  5
10EA
  8
מים
 10
7481.0533
 20
-3384.6336
 30
505.0000
 11
7480.9486
 21
-3404.6333
 31
505.0000
 12
7500.9483
 22
-3404.7381
 32
505.0000
 13
7501.0530
 23
-3384.7383
 33
505.0000
 70
15
  0
3DFACE
  5
10EB
  8
מים
 10
7481.0533
 20
-3384.6336
 30
525.0000
 11
7480.9486
 21
-3404.6333
 31
525.0000
 12
7500.9483
 22
-3404.7381
 32
525.0000
 13
7501.0530
 23
-3384.7383
 33
525.0000
 70
15
  0
3DFACE
  5
10EC
  8
מים
 10
7481.0533
 20
-3384.6336
 30
505.0000
 11
7480.9486
 21
-3404.6333
 31
505.0000
 12
7480.9486
 22
-3404.6333
 32
525.0000
 13
7481.0533
 23
-3384.6336
 33
525.0000
 70
15
  0
3DFACE
  5
10ED
  8
מים
 10
7480.9486
 20
-3404.6333
 30
505.0000
 11
7500.9483
 21
-3404.7381
 31
505.0000
 12
7500.9483
 22
-3404.7381
 32
525.0000
 13
7480.9486
 23
-3404.6333
 33
525.0000
 70
15
  0
3DFACE
  5
10EE
  8
מים
 10
7500.9483
 20
-3404.7381
 30
505.0000
 11
7501.0530
 21
-3384.7383
 31
505.0000
 12
7501.0530
 22
-3384.7383
 32
525.0000
 13
7500.9483
 23
-3404.7381
 33
525.0000
 70
15
  0
3DFACE
  5
10EF
  8
מים
 10
7501.0530
 20
-3384.7383
 30
505.0000
 11
7481.0533
 21
-3384.6336
 31
505.0000
 12
7481.0533
 22
-3384.6336
 32
525.0000
 13
7501.0530
 23
-3384.7383
 33
525.0000
 70
15
  0
INSERT
  5
10F0
  8
מים
  2
SEWAGE
 10
7550.0000
 20
-3569.0000
 30
-27.0000
 41
1.0000
 42
1.0000
 43
1.0000
 50
269.7000
  0
3DFACE
  5
10F1
  8
ניקוז
 10
7450.1323
 20
-3543.4767
 30
-27.0000
 11
7449.8705
 21
-3593.4761
 31
-27.0000
 12
7499.8698
 22
-3593.7379
 32
-27.0000
 13
7500.1316
 23
-3543.7385
 33
-27.0000
 70
15
  0
3DFACE
  5
10F2
  8
ניקוז
 10
7450.1323
 20
-3543.4767
 30
23.0000
 11
7449.8705
 21
-3593.4761
 31
23.0000
 12
7499.8698
 22
-3593.7379
 32
23.0000
 13
7500.1316
 23
-3543.7385
 33
23.0000
 70
15
  0
3DFACE
  5
10F3
  8
ניקוז
 10
7450.1323
 20
-3543.4767
 30
-27.0000
 11
7449.8705
 21
-3593.4761
 31
-27.0000
 12
7449.8705
 22
-3593.4761
 32
23.0000
 13
7450.1323
 23
-3543.4767
 33
23.0000
 70
15
  0
3DFACE
  5
10F4
  8
ניקוז
 10
7449.8705
 20
-3593.4761
 30
-27.0000
 11
7499.8698
 21
-3593.7379
 31
-27.0000
 12
7499.8698
 22
-3593.7379
 32
23.0000
 13
7449.8705
 23
-3593.4761
 33
23.0000
 70
15
  0
3DFACE
  5
10F5
  8
ניקוז
 10
7499.8698
 20
-3593.7379
 30
-27.0000
 11
7500.1316
 21
-3543.7385
 31
-27.0000
 12
7500.1316
 22
-3543.7385
 32
23.0000
 13
7499.8698
 23
-3593.7379
 33
23.0000
 70
15
  0
3DFACE
  5
10F6
  8
ניקוז
 10
7500.1316
 20
-3543.7385
 30
-27.0000
 11
7450.1323
 21
-3543.4767
 31
-27.0000
 12
7450.1323
 22
-3543.4767
 32
23.0000
 13
7500.1316
 23
-3543.7385
 33
23.0000
 70
15
  0
INSERT
  5
10F7
  8
חשמל
  2
SOCKET
 10
7554.0000
 20
-2796.0000
 30
1100.0000
 41
1.0000
 42
1.0000
 43
1.0000
 50
269.7000
  0
3DFACE
  5
10F8
  8
חשמל
 10
7489.2103
 20
-2755.6602
 30
1100.0000
 11
7488.7915
 21
-2835.6591
 31
1100.0000
 12
7503.7912
 22
-2835.7377
 32
1100.0000
 13
7504.2101
 23
-2755.7388
 33
1100.0000
 70
15
  0
3DFACE
  5
10F9
  8
חשמל
 10
7489.2103
 20
-2755.6602
 30
1180.0000
 11
7488.7915
 21
-2835.6591
 31
1180.0000
 12
7503.7912
 22
-2835.7377
 32
1180.0000
 13
7504.2101
 23
-2755.7388
 33
1180.0000
 70
15
  0
3DFACE
  5
10FA
  8
חשמל
 10
7489.2103
 20
-2755.6602
 30
1100.0000
 11
7488.7915
 21
-2835.6591
 31
1100.0000
 12
7488.7915
 22
-2835.6591
 32
1180.0000
 13
7489.2103
 23
-2755.6602
 33
1180.0000
 70
15
  0
3DFACE
  5
10FB
  8
חשמל
 10
7488.7915
 20
-2835.6591
 30
1100.0000
 11
7503.7912
 21
-2835.7377
 31
1100.0000
 12
7503.7912
 22
-2835.7377
 32
1180.0000
 13
7488.7915
 23
-2835.6591
 33
1180.0000
 70
15
  0
3DFACE
  5
10FC
  8
חשמל
 10
7503.7912
 20
-2835.7377
 30
1100.0000
 11
7504.2101
 21
-2755.7388
 31
1100.0000
 12
7504.2101
 22
-2755.7388
 32
1180.0000
 13
7503.7912
 23
-2835.7377
 33
1180.0000
 70
15
  0
3DFACE
  5
10FD
  8
חשמל
 10
7504.2101
 20
-2755.7388
 30
1100.0000
 11
7489.2103
 21
-2755.6602
 31
1100.0000
 12
7489.2103
 22
-2755.6602
 32
1180.0000
 13
7504.2101
 23
-2755.7388
 33
1180.0000
 70
15
  0
INSERT
  5
10FE
  8
חשמל
  2
CONTROLBOX
 10
7553.0000
 20
-2838.0000
 30
2173.0000
 41
1.0000
 42
1.0000
 43
1.0000
 50
269.7000
  0
3DFACE
  5
10FF
  8
חשמל
 10
7488.2103
 20
-2797.6602
 30
2173.0000
 11
7487.7915
 21
-2877.6591
 31
2173.0000
 12
7502.7912
 22
-2877.7377
 32
2173.0000
 13
7503.2101
 23
-2797.7388
 33
2173.0000
 70
15
  0
3DFACE
  5
1100
  8
חשמל
 10
7488.2103
 20
-2797.6602
 30
2253.0000
 11
7487.7915
 21
-2877.6591
 31
2253.0000
 12
7502.7912
 22
-2877.7377
 32
2253.0000
 13
7503.2101
 23
-2797.7388
 33
2253.0000
 70
15
  0
3DFACE
  5
1101
  8
חשמל
 10
7488.2103
 20
-2797.6602
 30
2173.0000
 11
7487.7915
 21
-2877.6591
 31
2173.0000
 12
7487.7915
 22
-2877.6591
 32
2253.0000
 13
7488.2103
 23
-2797.6602
 33
2253.0000
 70
15
  0
3DFACE
  5
1102
  8
חשמל
 10
7487.7915
 20
-2877.6591
 30
2173.0000
 11
7502.7912
 21
-2877.7377
 31
2173.0000
 12
7502.7912
 22
-2877.7377
 32
2253.0000
 13
7487.7915
 23
-2877.6591
 33
2253.0000
 70
15
  0
3DFACE
  5
1103
  8
חשמל
 10
7502.7912
 20
-2877.7377
 30
2173.0000
 11
7503.2101
 21
-2797.7388
 31
2173.0000
 12
7503.2101
 22
-2797.7388
 32
2253.0000
 13
7502.7912
 23
-2877.7377
 33
2253.0000
 70
15
  0
3DFACE
  5
1104
  8
חשמל
 10
7503.2101
 20
-2797.7388
 30
2173.0000
 11
7488.2103
 21
-2797.6602
 31
2173.0000
 12
7488.2103
 22
-2797.6602
 32
2253.0000
 13
7503.2101
 23
-2797.7388
 33
2253.0000
 70
15
  0
INSERT
  5
1105
  8
חשמל
  2
DUPLEXSWITCH
 10
7385.0000
 20
-4544.0000
 30
1111.0000
 41
1.0000
 42
1.0000
 43
1.0000
 50
179.7000
  0
3DFACE
  5
1106
  8
חשמל
 10
7464.7371
 20
-4594.4182
 30
1111.0000
 11
7304.7393
 21
-4593.5804
 31
1111.0000
 12
7304.6608
 22
-4608.5802
 32
1111.0000
 13
7464.6586
 23
-4609.4180
 33
1111.0000
 70
15
  0
3DFACE
  5
1107
  8
חשמל
 10
7464.7371
 20
-4594.4182
 30
1191.0000
 11
7304.7393
 21
-4593.5804
 31
1191.0000
 12
7304.6608
 22
-4608.5802
 32
1191.0000
 13
7464.6586
 23
-4609.4180
 33
1191.0000
 70
15
  0
3DFACE
  5
1108
  8
חשמל
 10
7464.7371
 20
-4594.4182
 30
1111.0000
 11
7304.7393
 21
-4593.5804
 31
1111.0000
 12
7304.7393
 22
-4593.5804
 32
1191.0000
 13
7464.7371
 23
-4594.4182
 33
1191.0000
 70
15
  0
3DFACE
  5
1109
  8
חשמל
 10
7304.7393
 20
-4593.5804
 30
1111.0000
 11
7304.6608
 21
-4608.5802
 31
1111.0000
 12
7304.6608
 22
-4608.5802
 32
1191.0000
 13
7304.7393
 23
-4593.5804
 33
1191.0000
 70
15
  0
3DFACE
  5
110A
  8
חשמל
 10
7304.6608
 20
-4608.5802
 30
1111.0000
 11
7464.6586
 21
-4609.4180
 31
1111.0000
 12
7464.6586
 22
-4609.4180
 32
1191.0000
 13
7304.6608
 23
-4608.5802
 33
1191.0000
 70
15
  0
3DFACE
  5
110B
  8
חשמל
 10
7464.6586
 20
-4609.4180
 30
1111.0000
 11
7464.7371
 21
-4594.4182
 31
1111.0000
 12
7464.7371
 22
-4594.4182
 32
1191.0000
 13
7464.6586
 23
-4609.4180
 33
1191.0000
 70
15
  0
INSERT
  5
110C
  8
חשמל
  2
CONTROLBOX
 10
7317.0000
 20
-4544.0000
 30
2154.0000
 41
1.0000
 42
1.0000
 43
1.0000
 50
179.7000
  0
3DFACE
  5
110D
  8
חשמל
 10
7356.7377
 20
-4594.2088
 30
2154.0000
 11
7276.7388
 21
-4593.7899
 31
2154.0000
 12
7276.6602
 22
-4608.7897
 32
2154.0000
 13
7356.6591
 23
-4609.2085
 33
2154.0000
 70
15
  0
3DFACE
  5
110E
  8
חשמל
 10
7356.7377
 20
-4594.2088
 30
2234.0000
 11
7276.7388
 21
-4593.7899
 31
2234.0000
 12
7276.6602
 22
-4608.7897
 32
2234.0000
 13
7356.6591
 23
-4609.2085
 33
2234.0000
 70
15
  0
3DFACE
  5
110F
  8
חשמל
 10
7356.7377
 20
-4594.2088
 30
2154.0000
 11
7276.7388
 21
-4593.7899
 31
2154.0000
 12
7276.7388
 22
-4593.7899
 32
2234.0000
 13
7356.7377
 23
-4594.2088
 33
2234.0000
 70
15
  0
3DFACE
  5
1110
  8
חשמל
 10
7276.7388
 20
-4593.7899
 30
2154.0000
 11
7276.6602
 21
-4608.7897
 31
2154.0000
 12
7276.6602
 22
-4608.7897
 32
2234.0000
 13
7276.7388
 23
-4593.7899
 33
2234.0000
 70
15
  0
3DFACE
  5
1111
  8
חשמל
 10
7276.6602
 20
-4608.7897
 30
2154.0000
 11
7356.6591
 21
-4609.2085
 31
2154.0000
 12
7356.6591
 22
-4609.2085
 32
2234.0000
 13
7276.6602
 23
-4608.7897
 33
2234.0000
 70
15
  0
3DFACE
  5
1112
  8
חשמל
 10
7356.6591
 20
-4609.2085
 30
2154.0000
 11
7356.7377
 21
-4594.2088
 31
2154.0000
 12
7356.7377
 22
-4594.2088
 32
2234.0000
 13
7356.6591
 23
-4609.2085
 33
2234.0000
 70
15
  0
INSERT
  5
1113
  8
חשמל
  2
SOCKET
 10
6458.0000
 20
-4884.0000
 30
1110.0000
 41
1.0000
 42
1.0000
 43
1.0000
 50
269.7000
  0
3DFACE
  5
1114
  8
חשמל
 10
6393.2103
 20
-4843.6602
 30
1110.0000
 11
6392.7915
 21
-4923.6591
 31
1110.0000
 12
6407.7912
 22
-4923.7377
 32
1110.0000
 13
6408.2101
 23
-4843.7388
 33
1110.0000
 70
15
  0
3DFACE
  5
1115
  8
חשמל
 10
6393.2103
 20
-4843.6602
 30
1190.0000
 11
6392.7915
 21
-4923.6591
 31
1190.0000
 12
6407.7912
 22
-4923.7377
 32
1190.0000
 13
6408.2101
 23
-4843.7388
 33
1190.0000
 70
15
  0
3DFACE
  5
1116
  8
חשמל
 10
6393.2103
 20
-4843.6602
 30
1110.0000
 11
6392.7915
 21
-4923.6591
 31
1110.0000
 12
6392.7915
 22
-4923.6591
 32
1190.0000
 13
6393.2103
 23
-4843.6602
 33
1190.0000
 70
15
  0
3DFACE
  5
1117
  8
חשמל
 10
6392.7915
 20
-4923.6591
 30
1110.0000
 11
6407.7912
 21
-4923.7377
 31
1110.0000
 12
6407.7912
 22
-4923.7377
 32
1190.0000
 13
6392.7915
 23
-4923.6591
 33
1190.0000
 70
15
  0
3DFACE
  5
1118
  8
חשמל
 10
6407.7912
 20
-4923.7377
 30
1110.0000
 11
6408.2101
 21
-4843.7388
 31
1110.0000
 12
6408.2101
 22
-4843.7388
 32
1190.0000
 13
6407.7912
 23
-4923.7377
 33
1190.0000
 70
15
  0
3DFACE
  5
1119
  8
חשמל
 10
6408.2101
 20
-4843.7388
 30
1110.0000
 11
6393.2103
 21
-4843.6602
 31
1110.0000
 12
6393.2103
 22
-4843.6602
 32
1190.0000
 13
6408.2101
 23
-4843.7388
 33
1190.0000
 70
15
  0
INSERT
  5
111A
  8
חשמל
  2
SOCKET
 10
6450.0000
 20
-6364.0000
 30
1225.0000
 41
1.0000
 42
1.0000
 43
1.0000
 50
269.7000
  0
3DFACE
  5
111B
  8
חשמל
 10
6385.2103
 20
-6323.6602
 30
1225.0000
 11
6384.7915
 21
-6403.6591
 31
1225.0000
 12
6399.7912
 22
-6403.7377
 32
1225.0000
 13
6400.2101
 23
-6323.7388
 33
1225.0000
 70
15
  0
3DFACE
  5
111C
  8
חשמל
 10
6385.2103
 20
-6323.6602
 30
1305.0000
 11
6384.7915
 21
-6403.6591
 31
1305.0000
 12
6399.7912
 22
-6403.7377
 32
1305.0000
 13
6400.2101
 23
-6323.7388
 33
1305.0000
 70
15
  0
3DFACE
  5
111D
  8
חשמל
 10
6385.2103
 20
-6323.6602
 30
1225.0000
 11
6384.7915
 21
-6403.6591
 31
1225.0000
 12
6384.7915
 22
-6403.6591
 32
1305.0000
 13
6385.2103
 23
-6323.6602
 33
1305.0000
 70
15
  0
3DFACE
  5
111E
  8
חשמל
 10
6384.7915
 20
-6403.6591
 30
1225.0000
 11
6399.7912
 21
-6403.7377
 31
1225.0000
 12
6399.7912
 22
-6403.7377
 32
1305.0000
 13
6384.7915
 23
-6403.6591
 33
1305.0000
 70
15
  0
3DFACE
  5
111F
  8
חשמל
 10
6399.7912
 20
-6403.7377
 30
1225.0000
 11
6400.2101
 21
-6323.7388
 31
1225.0000
 12
6400.2101
 22
-6323.7388
 32
1305.0000
 13
6399.7912
 23
-6403.7377
 33
1305.0000
 70
15
  0
3DFACE
  5
1120
  8
חשמל
 10
6400.2101
 20
-6323.7388
 30
1225.0000
 11
6385.2103
 21
-6323.6602
 31
1225.0000
 12
6385.2103
 22
-6323.6602
 32
1305.0000
 13
6400.2101
 23
-6323.7388
 33
1305.0000
 70
15
  0
ENDSEC
  0
EOF
