  0
SECTION
  2
HEADER
  9
$ACADVER
  1
AC1009
  9
$INSBASE
 10
0.0000
 20
0.0000
 30
0.0000
  9
$EXTMIN
 10
-2673.0000
 20
-4279.0000
 30
0.0000
  9
$EXTMAX
 10
2212.0000
 20
2680.0000
 30
0.0000
  9
$DWGCODEPAGE
  3
ansi_1255
  9
$INSUNITS
 70
4
  9
$LTSCALE
 40
10.0000
  9
$LIMMIN
 10
0.0000
 20
0.0000
  9
$LIMMAX
 10
2000.0000
 20
200.0000
  0
ENDSEC
  0
SECTION
  2
TABLES
  0
TABLE
  2
VPORT
 70
1
  0
VPORT
  2
*ACTIVE
 70
0
 10
0.0000
 20
0.0000
 11
1.0000
 21
1.0000
 12
-230.5000
 22
-799.5000
 13
0.0000
 23
0.0000
 14
10.0000
 24
10.0000
 15
10.0000
 25
10.0000
 16
0.0000
 26
0.0000
 36
1.0000
 17
0.0000
 27
0.0000
 37
0.0000
 40
7654.9000
 41
1.0000
 42
50.0000
 43
0.0000
 44
0.0000
 50
0.0000
 51
0.0000
 71
0
 72
100
 73
1
 74
1
 75
0
 76
0
 77
0
 78
0
  0
ENDTAB
  0
TABLE
  2
LTYPE
 70
2
  0
LTYPE
  2
CONTINUOUS
 70
0
  3
Solid line
 72
65
 73
0
 40
0.0000
  0
LTYPE
  2
HIDDEN
 70
0
  3
Hidden __ __ __ __ __ __ __ __ __ __ __ __ __ __
 72
65
 73
2
 40
0.3750
 49
0.2500
 49
-0.1250
  0
ENDTAB
  0
TABLE
  2
LAYER
 70
47
  0
LAYER
  2
0
 70
0
 62
7
  6
CONTINUOUS
  0
LAYER
  2
Electrical
 70
0
 62
6
  6
CONTINUOUS
  0
LAYER
  2
Plumbing
 70
0
 62
150
  6
CONTINUOUS
  0
LAYER
  2
Const_Walls
 70
0
 62
253
  6
CONTINUOUS
  0
LAYER
  2
Dim
 70
0
 62
9
  6
CONTINUOUS
  0
LAYER
  2
Text
 70
0
 62
74
  6
CONTINUOUS
  0
LAYER
  2
HVAC
 70
0
 62
4
  6
CONTINUOUS
  0
LAYER
  2
Misc
 70
0
 62
32
  6
HIDDEN
  0
LAYER
  2
Dim_Markers
 70
0
 62
9
  6
CONTINUOUS
  0
LAYER
  2
Dim_Wall
 70
0
 62
9
  6
CONTINUOUS
  0
LAYER
  2
Const_Doors
 70
0
 62
5
  6
CONTINUOUS
  0
LAYER
  2
Const_Windows
 70
0
 62
152
  6
CONTINUOUS
  0
LAYER
  2
Text_Legend
 70
0
 62
74
  6
CONTINUOUS
  0
LAYER
  2
Text_JobInfo
 70
0
 62
74
  6
CONTINUOUS
  0
LAYER
  2
Dim_Overall
 70
0
 62
-9
  6
CONTINUOUS
  0
LAYER
  2
Dim_Embeded
 70
0
 62
-9
  6
CONTINUOUS
  0
LAYER
  2
Dim_Angles_Auto
 70
0
 62
3
  6
CONTINUOUS
  0
LAYER
  2
Text_AreaNo
 70
0
 62
-74
  6
CONTINUOUS
  0
LAYER
  2
Dim_ArcChord
 70
0
 62
9
  6
HIDDEN
  0
LAYER
  2
Const_Walls_Ext
 70
0
 62
253
  6
CONTINUOUS
  0
LAYER
  2
Dim_Verification
 70
0
 62
-9
  6
CONTINUOUS
  0
LAYER
  2
Dim_Radius
 70
0
 62
9
  6
CONTINUOUS
  0
LAYER
  2
Dim_Angles
 70
0
 62
9
  6
CONTINUOUS
  0
LAYER
  2
Z_Other
 70
0
 62
253
  6
CONTINUOUS
  0
LAYER
  2
Const_Stairs
 70
0
 62
253
  6
CONTINUOUS
  0
LAYER
  2
Misc_Cabinets
 70
0
 62
36
  6
CONTINUOUS
  0
LAYER
  2
Z_Scale_Ruler
 70
0
 62
7
  6
CONTINUOUS
  0
LAYER
  2
Const_Fill
 70
0
 62
253
  6
CONTINUOUS
  0
LAYER
  2
Wall_Image
 70
0
 62
7
  6
CONTINUOUS
  0
LAYER
  2
Exterior_walls
 70
0
 62
5
  6
CONTINUOUS
  0
LAYER
  2
HVAC_DIM
 70
0
 62
4
  6
CONTINUOUS
  0
LAYER
  2
HVAC_H
 70
0
 62
4
  6
CONTINUOUS
  0
LAYER
  2
Electrical_DIM
 70
0
 62
6
  6
CONTINUOUS
  0
LAYER
  2
Electrical_H
 70
0
 62
6
  6
CONTINUOUS
  0
LAYER
  2
Plumbing_DIM
 70
0
 62
150
  6
CONTINUOUS
  0
LAYER
  2
Plumbing_H
 70
0
 62
150
  6
CONTINUOUS
  0
LAYER
  2
datum
 70
0
 62
1
  6
CONTINUOUS
  0
LAYER
  2
Const_Floor
 70
0
 62
8
  6
CONTINUOUS
  0
LAYER
  2
Elem_Electrical
 70
0
 62
6
  6
CONTINUOUS
  0
LAYER
  2
Elem_Plumbing
 70
0
 62
5
  6
CONTINUOUS
  0
LAYER
  2
Elem_Gas
 70
0
 62
2
  6
CONTINUOUS
  0
LAYER
  2
Elem_HVAC
 70
0
 62
4
  6
CONTINUOUS
  0
LAYER
  2
Elem_Lighting
 70
0
 62
30
  6
CONTINUOUS
  0
LAYER
  2
Elem_Struct
 70
0
 62
8
  6
CONTINUOUS
  0
LAYER
  2
Elem_Opening
 70
0
 62
152
  6
CONTINUOUS
  0
LAYER
  2
Elem_Misc
 70
0
 62
7
  6
CONTINUOUS
  0
LAYER
  2
Elem_Label
 70
0
 62
74
  6
CONTINUOUS
  0
ENDTAB
  0
TABLE
  2
STYLE
 70
1
  0
STYLE
  2
STANDARD
 70
0
 40
0.0000
 41
1.0000
 50
0.0000
 71
0
 42
10.0000
  3
ARIAL.TTF
  4

  0
ENDTAB
  0
ENDSEC
  0
SECTION
  2
BLOCKS
  0
BLOCK
  8
0
  2
CONTROLBOX
 70
0
 10
0.0000
 20
0.0000
 30
0.0000
  0
3DFACE
  5
107F
  8
0
 10
-100.0000
 20
-40.0000
 30
-150.0000
 11
100.0000
 21
-40.0000
 31
-150.0000
 12
100.0000
 22
0.0000
 32
-150.0000
 13
-100.0000
 23
0.0000
 33
-150.0000
  0
3DFACE
  5
1080
  8
0
 10
-100.0000
 20
-40.0000
 30
150.0000
 11
100.0000
 21
-40.0000
 31
150.0000
 12
100.0000
 22
0.0000
 32
150.0000
 13
-100.0000
 23
0.0000
 33
150.0000
  0
3DFACE
  5
1081
  8
0
 10
-100.0000
 20
-40.0000
 30
-150.0000
 11
100.0000
 21
-40.0000
 31
-150.0000
 12
100.0000
 22
-40.0000
 32
150.0000
 13
-100.0000
 23
-40.0000
 33
150.0000
  0
3DFACE
  5
1082
  8
0
 10
-100.0000
 20
0.0000
 30
-150.0000
 11
100.0000
 21
0.0000
 31
-150.0000
 12
100.0000
 22
0.0000
 32
150.0000
 13
-100.0000
 23
0.0000
 33
150.0000
  0
3DFACE
  5
1083
  8
0
 10
-100.0000
 20
-40.0000
 30
-150.0000
 11
-100.0000
 21
0.0000
 31
-150.0000
 12
-100.0000
 22
0.0000
 32
150.0000
 13
-100.0000
 23
-40.0000
 33
150.0000
  0
3DFACE
  5
1084
  8
0
 10
100.0000
 20
-40.0000
 30
-150.0000
 11
100.0000
 21
0.0000
 31
-150.0000
 12
100.0000
 22
0.0000
 32
150.0000
 13
100.0000
 23
-40.0000
 33
150.0000
  0
3DFACE
  5
1085
  8
0
 10
-96.0000
 20
0.0000
 30
-146.0000
 11
96.0000
 21
0.0000
 31
-146.0000
 12
96.0000
 22
10.0000
 32
-146.0000
 13
-96.0000
 23
10.0000
 33
-146.0000
  0
3DFACE
  5
1086
  8
0
 10
-96.0000
 20
0.0000
 30
146.0000
 11
96.0000
 21
0.0000
 31
146.0000
 12
96.0000
 22
10.0000
 32
146.0000
 13
-96.0000
 23
10.0000
 33
146.0000
  0
3DFACE
  5
1087
  8
0
 10
-96.0000
 20
0.0000
 30
-146.0000
 11
96.0000
 21
0.0000
 31
-146.0000
 12
96.0000
 22
0.0000
 32
146.0000
 13
-96.0000
 23
0.0000
 33
146.0000
  0
3DFACE
  5
1088
  8
0
 10
-96.0000
 20
10.0000
 30
-146.0000
 11
96.0000
 21
10.0000
 31
-146.0000
 12
96.0000
 22
10.0000
 32
146.0000
 13
-96.0000
 23
10.0000
 33
146.0000
  0
3DFACE
  5
1089
  8
0
 10
-96.0000
 20
0.0000
 30
-146.0000
 11
-96.0000
 21
10.0000
 31
-146.0000
 12
-96.0000
 22
10.0000
 32
146.0000
 13
-96.0000
 23
0.0000
 33
146.0000
  0
3DFACE
  5
108A
  8
0
 10
96.0000
 20
0.0000
 30
-146.0000
 11
96.0000
 21
10.0000
 31
-146.0000
 12
96.0000
 22
10.0000
 32
146.0000
 13
96.0000
 23
0.0000
 33
146.0000
  0
ENDBLK
  5
108B
  8
0
  0
ENDSEC
  0
SECTION
  2
ENTITIES
  0
3DFACE
  5
1000
  8
Const_Floor
 10
1943.0230
 20
2229.6040
 30
0.0000
 11
-2208.9830
 21
2229.6040
 31
0.0000
 12
-2226.3890
 22
-1258.0320
 32
0.0000
 13
-2226.3890
 23
-1258.0320
 33
0.0000
 70
15
  0
3DFACE
  5
1001
  8
Const_Floor
 10
1943.0230
 20
2229.6040
 30
-40.0000
 11
-2226.3890
 21
-1258.0320
 31
-40.0000
 12
-2208.9830
 22
2229.6040
 32
-40.0000
 13
-2208.9830
 23
2229.6040
 33
-40.0000
 70
15
  0
3DFACE
  5
1002
  8
Const_Floor
 10
1943.0230
 20
2229.6040
 30
0.0000
 11
-2226.3890
 21
-1258.0320
 31
0.0000
 12
-893.1690
 22
-1293.9060
 32
0.0000
 13
-893.1690
 23
-1293.9060
 33
0.0000
 70
15
  0
3DFACE
  5
1003
  8
Const_Floor
 10
1943.0230
 20
2229.6040
 30
-40.0000
 11
-893.1690
 21
-1293.9060
 31
-40.0000
 12
-2226.3890
 22
-1258.0320
 32
-40.0000
 13
-2226.3890
 23
-1258.0320
 33
-40.0000
 70
15
  0
3DFACE
  5
1004
  8
Const_Floor
 10
1943.0230
 20
2229.6040
 30
0.0000
 11
-893.1690
 21
-1293.9060
 31
0.0000
 12
561.7870
 22
-3480.9610
 32
0.0000
 13
561.7870
 23
-3480.9610
 33
0.0000
 70
15
  0
3DFACE
  5
1005
  8
Const_Floor
 10
1943.0230
 20
2229.6040
 30
-40.0000
 11
561.7870
 21
-3480.9610
 31
-40.0000
 12
-893.1690
 22
-1293.9060
 32
-40.0000
 13
-893.1690
 23
-1293.9060
 33
-40.0000
 70
15
  0
3DFACE
  5
1006
  8
Const_Floor
 10
561.7870
 20
-3480.9610
 30
0.0000
 11
1939.8780
 21
-3477.9560
 31
0.0000
 12
1943.0230
 22
2229.6040
 32
0.0000
 13
1943.0230
 23
2229.6040
 33
0.0000
 70
15
  0
3DFACE
  5
1007
  8
Const_Floor
 10
561.7870
 20
-3480.9610
 30
-40.0000
 11
1943.0230
 21
2229.6040
 31
-40.0000
 12
1939.8780
 22
-3477.9560
 32
-40.0000
 13
1939.8780
 23
-3477.9560
 33
-40.0000
 70
15
  0
3DFACE
  5
1008
  8
Const_Floor
 10
1943.0230
 20
2229.6040
 30
-40.0000
 11
1939.8780
 21
-3477.9560
 31
-40.0000
 12
1939.8780
 22
-3477.9560
 32
0.0000
 13
1943.0230
 23
2229.6040
 33
0.0000
 70
15
  0
3DFACE
  5
1009
  8
Const_Floor
 10
1939.8780
 20
-3477.9560
 30
-40.0000
 11
561.7870
 21
-3480.9610
 31
-40.0000
 12
561.7870
 22
-3480.9610
 32
0.0000
 13
1939.8780
 23
-3477.9560
 33
0.0000
 70
15
  0
3DFACE
  5
100A
  8
Const_Floor
 10
561.7870
 20
-3480.9610
 30
-40.0000
 11
-893.1690
 21
-1293.9060
 31
-40.0000
 12
-893.1690
 22
-1293.9060
 32
0.0000
 13
561.7870
 23
-3480.9610
 33
0.0000
 70
15
  0
3DFACE
  5
100B
  8
Const_Floor
 10
-893.1690
 20
-1293.9060
 30
-40.0000
 11
-2226.3890
 21
-1258.0320
 31
-40.0000
 12
-2226.3890
 22
-1258.0320
 32
0.0000
 13
-893.1690
 23
-1293.9060
 33
0.0000
 70
15
  0
3DFACE
  5
100C
  8
Const_Floor
 10
-2226.3890
 20
-1258.0320
 30
-40.0000
 11
-2208.9830
 21
2229.6040
 31
-40.0000
 12
-2208.9830
 22
2229.6040
 32
0.0000
 13
-2226.3890
 23
-1258.0320
 33
0.0000
 70
15
  0
3DFACE
  5
100D
  8
Const_Floor
 10
-2208.9830
 20
2229.6040
 30
-40.0000
 11
1943.0230
 21
2229.6040
 31
-40.0000
 12
1943.0230
 22
2229.6040
 32
0.0000
 13
-2208.9830
 23
2229.6040
 33
0.0000
 70
15
  0
3DFACE
  5
100E
  8
Const_Walls
 10
1993.0505
 20
2279.5764
 30
0.0000
 11
1989.8504
 21
-3527.9835
 31
0.0000
 12
1889.8505
 22
-3527.9284
 32
0.0000
 13
1893.0506
 23
2279.6315
 33
0.0000
 70
15
  0
3DFACE
  5
100F
  8
Const_Walls
 10
1993.0505
 20
2279.5764
 30
2526.7000
 11
1989.8504
 21
-3527.9835
 31
2526.7000
 12
1889.8505
 22
-3527.9284
 32
2526.7000
 13
1893.0506
 23
2279.6315
 33
2526.7000
 70
15
  0
3DFACE
  5
1010
  8
Const_Walls
 10
1993.0505
 20
2279.5764
 30
0.0000
 11
1989.8504
 21
-3527.9835
 31
0.0000
 12
1989.8504
 22
-3527.9835
 32
2526.7000
 13
1993.0505
 23
2279.5764
 33
2526.7000
 70
15
  0
3DFACE
  5
1011
  8
Const_Walls
 10
1989.8504
 20
-3527.9835
 30
0.0000
 11
1889.8505
 21
-3527.9284
 31
0.0000
 12
1889.8505
 22
-3527.9284
 32
2526.7000
 13
1989.8504
 23
-3527.9835
 33
2526.7000
 70
15
  0
3DFACE
  5
1012
  8
Const_Walls
 10
1889.8505
 20
-3527.9284
 30
0.0000
 11
1893.0506
 21
2279.6315
 31
0.0000
 12
1893.0506
 22
2279.6315
 32
2526.7000
 13
1889.8505
 23
-3527.9284
 33
2526.7000
 70
15
  0
3DFACE
  5
1013
  8
Const_Walls
 10
1893.0506
 20
2279.6315
 30
0.0000
 11
1993.0505
 21
2279.5764
 31
0.0000
 12
1993.0505
 22
2279.5764
 32
2526.7000
 13
1893.0506
 23
2279.6315
 33
2526.7000
 70
15
  0
3DFACE
  5
1014
  8
Const_Walls_Ext
 10
1989.9869
 20
-3527.8469
 30
0.0000
 11
561.8960
 21
-3530.9609
 31
0.0000
 12
561.6780
 22
-3430.9611
 32
0.0000
 13
1989.7689
 23
-3427.8471
 33
0.0000
 70
15
  0
3DFACE
  5
1015
  8
Const_Walls_Ext
 10
1989.9869
 20
-3527.8469
 30
2526.7000
 11
561.8960
 21
-3530.9609
 31
2526.7000
 12
561.6780
 22
-3430.9611
 32
2526.7000
 13
1989.7689
 23
-3427.8471
 33
2526.7000
 70
15
  0
3DFACE
  5
1016
  8
Const_Walls_Ext
 10
1989.9869
 20
-3527.8469
 30
0.0000
 11
561.8960
 21
-3530.9609
 31
0.0000
 12
561.8960
 22
-3530.9609
 32
2526.7000
 13
1989.9869
 23
-3527.8469
 33
2526.7000
 70
15
  0
3DFACE
  5
1017
  8
Const_Walls_Ext
 10
561.8960
 20
-3530.9609
 30
0.0000
 11
561.6780
 21
-3430.9611
 31
0.0000
 12
561.6780
 22
-3430.9611
 32
2526.7000
 13
561.8960
 23
-3530.9609
 33
2526.7000
 70
15
  0
3DFACE
  5
1018
  8
Const_Walls_Ext
 10
561.6780
 20
-3430.9611
 30
0.0000
 11
1989.7689
 21
-3427.8471
 31
0.0000
 12
1989.7689
 22
-3427.8471
 32
2526.7000
 13
561.6780
 23
-3430.9611
 33
2526.7000
 70
15
  0
3DFACE
  5
1019
  8
Const_Walls_Ext
 10
1989.7689
 20
-3427.8471
 30
0.0000
 11
1989.9869
 21
-3527.8469
 31
0.0000
 12
1989.9869
 22
-3527.8469
 32
2526.7000
 13
1989.7689
 23
-3427.8471
 33
2526.7000
 70
15
  0
3DFACE
  5
101A
  8
Const_Walls
 10
-894.5139
 20
-1343.8879
 30
0.0000
 11
-2277.7158
 21
-1306.6690
 31
0.0000
 12
-2275.0260
 22
-1206.7052
 32
0.0000
 13
-891.8241
 23
-1243.9241
 33
0.0000
 70
15
  0
3DFACE
  5
101B
  8
Const_Walls
 10
-894.5139
 20
-1343.8879
 30
2526.7000
 11
-2277.7158
 21
-1306.6690
 31
2526.7000
 12
-2275.0260
 22
-1206.7052
 32
2526.7000
 13
-891.8241
 23
-1243.9241
 33
2526.7000
 70
15
  0
3DFACE
  5
101C
  8
Const_Walls
 10
-894.5139
 20
-1343.8879
 30
0.0000
 11
-2277.7158
 21
-1306.6690
 31
0.0000
 12
-2277.7158
 22
-1306.6690
 32
2526.7000
 13
-894.5139
 23
-1343.8879
 33
2526.7000
 70
15
  0
3DFACE
  5
101D
  8
Const_Walls
 10
-2277.7158
 20
-1306.6690
 30
0.0000
 11
-2275.0260
 21
-1206.7052
 31
0.0000
 12
-2275.0260
 22
-1206.7052
 32
2526.7000
 13
-2277.7158
 23
-1306.6690
 33
2526.7000
 70
15
  0
3DFACE
  5
101E
  8
Const_Walls
 10
-2275.0260
 20
-1206.7052
 30
0.0000
 11
-891.8241
 21
-1243.9241
 31
0.0000
 12
-891.8241
 22
-1243.9241
 32
2526.7000
 13
-2275.0260
 23
-1206.7052
 33
2526.7000
 70
15
  0
3DFACE
  5
101F
  8
Const_Walls
 10
-891.8241
 20
-1243.9241
 30
0.0000
 11
-894.5139
 21
-1343.8879
 31
0.0000
 12
-894.5139
 22
-1343.8879
 32
2526.7000
 13
-891.8241
 23
-1243.9241
 33
2526.7000
 70
15
  0
3DFACE
  5
1020
  8
Const_Walls
 10
-2276.9695
 20
-1308.6642
 30
0.0000
 11
-2258.7282
 21
2279.8575
 31
0.0000
 12
-2158.7295
 22
2279.3492
 32
0.0000
 13
-2176.9708
 23
-1309.1725
 33
0.0000
 70
15
  0
3DFACE
  5
1021
  8
Const_Walls
 10
-2276.9695
 20
-1308.6642
 30
2526.7000
 11
-2258.7282
 21
2279.8575
 31
2526.7000
 12
-2158.7295
 22
2279.3492
 32
2526.7000
 13
-2176.9708
 23
-1309.1725
 33
2526.7000
 70
15
  0
3DFACE
  5
1022
  8
Const_Walls
 10
-2276.9695
 20
-1308.6642
 30
0.0000
 11
-2258.7282
 21
2279.8575
 31
0.0000
 12
-2258.7282
 22
2279.8575
 32
2526.7000
 13
-2276.9695
 23
-1308.6642
 33
2526.7000
 70
15
  0
3DFACE
  5
1023
  8
Const_Walls
 10
-2258.7282
 20
2279.8575
 30
0.0000
 11
-2158.7295
 21
2279.3492
 31
0.0000
 12
-2158.7295
 22
2279.3492
 32
2526.7000
 13
-2258.7282
 23
2279.8575
 33
2526.7000
 70
15
  0
3DFACE
  5
1024
  8
Const_Walls
 10
-2158.7295
 20
2279.3492
 30
0.0000
 11
-2176.9708
 21
-1309.1725
 31
0.0000
 12
-2176.9708
 22
-1309.1725
 32
2526.7000
 13
-2158.7295
 23
2279.3492
 33
2526.7000
 70
15
  0
3DFACE
  5
1025
  8
Const_Walls
 10
-2176.9708
 20
-1309.1725
 30
0.0000
 11
-2276.9695
 21
-1308.6642
 31
0.0000
 12
-2276.9695
 22
-1308.6642
 32
2526.7000
 13
-2176.9708
 23
-1309.1725
 33
2526.7000
 70
15
  0
3DFACE
  5
1026
  8
Const_Walls
 10
-2258.9830
 20
2279.6040
 30
0.0000
 11
1993.0230
 21
2279.6040
 31
0.0000
 12
1993.0230
 22
2179.6040
 32
0.0000
 13
-2258.9830
 23
2179.6040
 33
0.0000
 70
15
  0
3DFACE
  5
1027
  8
Const_Walls
 10
-2258.9830
 20
2279.6040
 30
2526.7000
 11
1993.0230
 21
2279.6040
 31
2526.7000
 12
1993.0230
 22
2179.6040
 32
2526.7000
 13
-2258.9830
 23
2179.6040
 33
2526.7000
 70
15
  0
3DFACE
  5
1028
  8
Const_Walls
 10
-2258.9830
 20
2279.6040
 30
0.0000
 11
1993.0230
 21
2279.6040
 31
0.0000
 12
1993.0230
 22
2279.6040
 32
2526.7000
 13
-2258.9830
 23
2279.6040
 33
2526.7000
 70
15
  0
3DFACE
  5
1029
  8
Const_Walls
 10
1993.0230
 20
2279.6040
 30
0.0000
 11
1993.0230
 21
2179.6040
 31
0.0000
 12
1993.0230
 22
2179.6040
 32
2526.7000
 13
1993.0230
 23
2279.6040
 33
2526.7000
 70
15
  0
3DFACE
  5
102A
  8
Const_Walls
 10
1993.0230
 20
2179.6040
 30
0.0000
 11
-2258.9830
 21
2179.6040
 31
0.0000
 12
-2258.9830
 22
2179.6040
 32
2526.7000
 13
1993.0230
 23
2179.6040
 33
2526.7000
 70
15
  0
3DFACE
  5
102B
  8
Const_Walls
 10
-2258.9830
 20
2179.6040
 30
0.0000
 11
-2258.9830
 21
2279.6040
 31
0.0000
 12
-2258.9830
 22
2279.6040
 32
2526.7000
 13
-2258.9830
 23
2179.6040
 33
2526.7000
 70
15
  0
3DFACE
  5
102C
  8
Const_Windows
 10
1961.9120
 20
-3428.2147
 30
900.0000
 11
1061.9134
 21
-3429.7855
 31
900.0000
 12
1062.0880
 22
-3529.7853
 32
900.0000
 13
1962.0866
 23
-3528.2145
 33
900.0000
 70
15
  0
3DFACE
  5
102D
  8
Const_Windows
 10
1961.9120
 20
-3428.2147
 30
2100.0000
 11
1061.9134
 21
-3429.7855
 31
2100.0000
 12
1062.0880
 22
-3529.7853
 32
2100.0000
 13
1962.0866
 23
-3528.2145
 33
2100.0000
 70
15
  0
3DFACE
  5
102E
  8
Const_Windows
 10
1961.9120
 20
-3428.2147
 30
900.0000
 11
1061.9134
 21
-3429.7855
 31
900.0000
 12
1061.9134
 22
-3429.7855
 32
2100.0000
 13
1961.9120
 23
-3428.2147
 33
2100.0000
 70
15
  0
3DFACE
  5
102F
  8
Const_Windows
 10
1061.9134
 20
-3429.7855
 30
900.0000
 11
1062.0880
 21
-3529.7853
 31
900.0000
 12
1062.0880
 22
-3529.7853
 32
2100.0000
 13
1061.9134
 23
-3429.7855
 33
2100.0000
 70
15
  0
3DFACE
  5
1030
  8
Const_Windows
 10
1062.0880
 20
-3529.7853
 30
900.0000
 11
1962.0866
 21
-3528.2145
 31
900.0000
 12
1962.0866
 22
-3528.2145
 32
2100.0000
 13
1062.0880
 23
-3529.7853
 33
2100.0000
 70
15
  0
3DFACE
  5
1031
  8
Const_Windows
 10
1962.0866
 20
-3528.2145
 30
900.0000
 11
1961.9120
 21
-3428.2147
 31
900.0000
 12
1961.9120
 22
-3428.2147
 32
2100.0000
 13
1962.0866
 23
-3528.2145
 33
2100.0000
 70
15
  0
3DFACE
  5
1032
  8
Const_Windows
 10
1881.9558
 20
-3453.3543
 30
980.0000
 11
1141.9569
 21
-3454.6458
 31
980.0000
 12
1142.0442
 22
-3504.6457
 32
980.0000
 13
1882.0431
 23
-3503.3542
 33
980.0000
 70
15
  0
3DFACE
  5
1033
  8
Const_Windows
 10
1881.9558
 20
-3453.3543
 30
2020.0000
 11
1141.9569
 21
-3454.6458
 31
2020.0000
 12
1142.0442
 22
-3504.6457
 32
2020.0000
 13
1882.0431
 23
-3503.3542
 33
2020.0000
 70
15
  0
3DFACE
  5
1034
  8
Const_Windows
 10
1881.9558
 20
-3453.3543
 30
980.0000
 11
1141.9569
 21
-3454.6458
 31
980.0000
 12
1141.9569
 22
-3454.6458
 32
2020.0000
 13
1881.9558
 23
-3453.3543
 33
2020.0000
 70
15
  0
3DFACE
  5
1035
  8
Const_Windows
 10
1141.9569
 20
-3454.6458
 30
980.0000
 11
1142.0442
 21
-3504.6457
 31
980.0000
 12
1142.0442
 22
-3504.6457
 32
2020.0000
 13
1141.9569
 23
-3454.6458
 33
2020.0000
 70
15
  0
3DFACE
  5
1036
  8
Const_Windows
 10
1142.0442
 20
-3504.6457
 30
980.0000
 11
1882.0431
 21
-3503.3542
 31
980.0000
 12
1882.0431
 22
-3503.3542
 32
2020.0000
 13
1142.0442
 23
-3504.6457
 33
2020.0000
 70
15
  0
3DFACE
  5
1037
  8
Const_Windows
 10
1882.0431
 20
-3503.3542
 30
980.0000
 11
1881.9558
 21
-3453.3543
 31
980.0000
 12
1881.9558
 22
-3453.3543
 32
2020.0000
 13
1882.0431
 23
-3503.3542
 33
2020.0000
 70
15
  0
TEXT
  5
1038
  8
Elem_Label
 10
1062.0000
 20
-3479.0000
 30
2140.0000
 40
120.0000
 50
0.0000
  1
\U+05D7\U+05DC\U+05D5\U+05DF
  7
STANDARD
  0
3DFACE
  5
1039
  8
Const_Doors
 10
-825.8454
 20
-1245.7968
 30
0.0000
 11
-1725.5369
 21
-1222.2375
 31
0.0000
 12
-1728.1546
 22
-1322.2032
 32
0.0000
 13
-828.4631
 23
-1345.7625
 33
0.0000
 70
15
  0
3DFACE
  5
103A
  8
Const_Doors
 10
-825.8454
 20
-1245.7968
 30
2100.0000
 11
-1725.5369
 21
-1222.2375
 31
2100.0000
 12
-1728.1546
 22
-1322.2032
 32
2100.0000
 13
-828.4631
 23
-1345.7625
 33
2100.0000
 70
15
  0
3DFACE
  5
103B
  8
Const_Doors
 10
-825.8454
 20
-1245.7968
 30
0.0000
 11
-1725.5369
 21
-1222.2375
 31
0.0000
 12
-1725.5369
 22
-1222.2375
 32
2100.0000
 13
-825.8454
 23
-1245.7968
 33
2100.0000
 70
15
  0
3DFACE
  5
103C
  8
Const_Doors
 10
-1725.5369
 20
-1222.2375
 30
0.0000
 11
-1728.1546
 21
-1322.2032
 31
0.0000
 12
-1728.1546
 22
-1322.2032
 32
2100.0000
 13
-1725.5369
 23
-1222.2375
 33
2100.0000
 70
15
  0
3DFACE
  5
103D
  8
Const_Doors
 10
-1728.1546
 20
-1322.2032
 30
0.0000
 11
-828.4631
 21
-1345.7625
 31
0.0000
 12
-828.4631
 22
-1345.7625
 32
2100.0000
 13
-1728.1546
 23
-1322.2032
 33
2100.0000
 70
15
  0
3DFACE
  5
103E
  8
Const_Doors
 10
-828.4631
 20
-1345.7625
 30
0.0000
 11
-825.8454
 21
-1245.7968
 31
0.0000
 12
-825.8454
 22
-1245.7968
 32
2100.0000
 13
-828.4631
 23
-1345.7625
 33
2100.0000
 70
15
  0
TEXT
  5
103F
  8
Elem_Label
 10
-1727.0000
 20
-1284.0000
 30
2140.0000
 40
120.0000
 50
0.0000
  1
\U+05DE\U+05E2\U+05D1\U+05E8
  7
STANDARD
  0
3DFACE
  5
1040
  8
Const_Doors
 10
-2175.0951
 20
-859.2563
 30
0.0000
 11
-2170.9063
 21
-59.2673
 31
0.0000
 12
-2270.9049
 22
-58.7437
 32
0.0000
 13
-2275.0937
 23
-858.7327
 33
0.0000
 70
15
  0
3DFACE
  5
1041
  8
Const_Doors
 10
-2175.0951
 20
-859.2563
 30
2050.0000
 11
-2170.9063
 21
-59.2673
 31
2050.0000
 12
-2270.9049
 22
-58.7437
 32
2050.0000
 13
-2275.0937
 23
-858.7327
 33
2050.0000
 70
15
  0
3DFACE
  5
1042
  8
Const_Doors
 10
-2175.0951
 20
-859.2563
 30
0.0000
 11
-2170.9063
 21
-59.2673
 31
0.0000
 12
-2170.9063
 22
-59.2673
 32
2050.0000
 13
-2175.0951
 23
-859.2563
 33
2050.0000
 70
15
  0
3DFACE
  5
1043
  8
Const_Doors
 10
-2170.9063
 20
-59.2673
 30
0.0000
 11
-2270.9049
 21
-58.7437
 31
0.0000
 12
-2270.9049
 22
-58.7437
 32
2050.0000
 13
-2170.9063
 23
-59.2673
 33
2050.0000
 70
15
  0
3DFACE
  5
1044
  8
Const_Doors
 10
-2270.9049
 20
-58.7437
 30
0.0000
 11
-2275.0937
 21
-858.7327
 31
0.0000
 12
-2275.0937
 22
-858.7327
 32
2050.0000
 13
-2270.9049
 23
-58.7437
 33
2050.0000
 70
15
  0
3DFACE
  5
1045
  8
Const_Doors
 10
-2275.0937
 20
-858.7327
 30
0.0000
 11
-2175.0951
 21
-859.2563
 31
0.0000
 12
-2175.0951
 22
-859.2563
 32
2050.0000
 13
-2275.0937
 23
-858.7327
 33
2050.0000
 70
15
  0
TEXT
  5
1046
  8
Elem_Label
 10
-2623.0000
 20
-459.0000
 30
2090.0000
 40
120.0000
 50
0.0000
  1
\U+05DE\U+05E4\U+05EA\U+05D7 \U+05E2\U+05DD \U+05DE\U+05E9\U+05E7\U+05D5\U+05E3
  7
STANDARD
  0
3DFACE
  5
1047
  8
Const_Doors
 10
-1809.0000
 20
2180.0000
 30
0.0000
 11
-1009.0000
 21
2180.0000
 31
0.0000
 12
-1009.0000
 22
2280.0000
 32
0.0000
 13
-1809.0000
 23
2280.0000
 33
0.0000
 70
15
  0
3DFACE
  5
1048
  8
Const_Doors
 10
-1809.0000
 20
2180.0000
 30
2050.0000
 11
-1009.0000
 21
2180.0000
 31
2050.0000
 12
-1009.0000
 22
2280.0000
 32
2050.0000
 13
-1809.0000
 23
2280.0000
 33
2050.0000
 70
15
  0
3DFACE
  5
1049
  8
Const_Doors
 10
-1809.0000
 20
2180.0000
 30
0.0000
 11
-1009.0000
 21
2180.0000
 31
0.0000
 12
-1009.0000
 22
2180.0000
 32
2050.0000
 13
-1809.0000
 23
2180.0000
 33
2050.0000
 70
15
  0
3DFACE
  5
104A
  8
Const_Doors
 10
-1009.0000
 20
2180.0000
 30
0.0000
 11
-1009.0000
 21
2280.0000
 31
0.0000
 12
-1009.0000
 22
2280.0000
 32
2050.0000
 13
-1009.0000
 23
2180.0000
 33
2050.0000
 70
15
  0
3DFACE
  5
104B
  8
Const_Doors
 10
-1009.0000
 20
2280.0000
 30
0.0000
 11
-1809.0000
 21
2280.0000
 31
0.0000
 12
-1809.0000
 22
2280.0000
 32
2050.0000
 13
-1009.0000
 23
2280.0000
 33
2050.0000
 70
15
  0
3DFACE
  5
104C
  8
Const_Doors
 10
-1809.0000
 20
2280.0000
 30
0.0000
 11
-1809.0000
 21
2180.0000
 31
0.0000
 12
-1809.0000
 22
2180.0000
 32
2050.0000
 13
-1809.0000
 23
2280.0000
 33
2050.0000
 70
15
  0
TEXT
  5
104D
  8
Elem_Label
 10
-1809.0000
 20
2230.0000
 30
2090.0000
 40
120.0000
 50
0.0000
  1
\U+05D3\U+05DC\U+05EA \U+05E4\U+05E0\U+05D9\U+05DE\U+05D4 \U+05E9\U+05DE\U+05D0\U+05DC
  7
STANDARD
  0
3DFACE
  5
104E
  8
Elem_Electrical
 10
1873.0000
 20
2029.5000
 30
300.0000
 11
1873.0000
 21
1944.5000
 31
300.0000
 12
1893.0000
 22
1944.5000
 32
300.0000
 13
1893.0000
 23
2029.5000
 33
300.0000
 70
15
  0
3DFACE
  5
104F
  8
Elem_Electrical
 10
1873.0000
 20
2029.5000
 30
377.0000
 11
1873.0000
 21
1944.5000
 31
377.0000
 12
1893.0000
 22
1944.5000
 32
377.0000
 13
1893.0000
 23
2029.5000
 33
377.0000
 70
15
  0
3DFACE
  5
1050
  8
Elem_Electrical
 10
1873.0000
 20
2029.5000
 30
300.0000
 11
1873.0000
 21
1944.5000
 31
300.0000
 12
1873.0000
 22
1944.5000
 32
377.0000
 13
1873.0000
 23
2029.5000
 33
377.0000
 70
15
  0
3DFACE
  5
1051
  8
Elem_Electrical
 10
1873.0000
 20
1944.5000
 30
300.0000
 11
1893.0000
 21
1944.5000
 31
300.0000
 12
1893.0000
 22
1944.5000
 32
377.0000
 13
1873.0000
 23
1944.5000
 33
377.0000
 70
15
  0
3DFACE
  5
1052
  8
Elem_Electrical
 10
1893.0000
 20
1944.5000
 30
300.0000
 11
1893.0000
 21
2029.5000
 31
300.0000
 12
1893.0000
 22
2029.5000
 32
377.0000
 13
1893.0000
 23
1944.5000
 33
377.0000
 70
15
  0
3DFACE
  5
1053
  8
Elem_Electrical
 10
1893.0000
 20
2029.5000
 30
300.0000
 11
1873.0000
 21
2029.5000
 31
300.0000
 12
1873.0000
 22
2029.5000
 32
377.0000
 13
1893.0000
 23
2029.5000
 33
377.0000
 70
15
  0
TEXT
  5
1054
  8
Elem_Label
 10
1883.0000
 20
2029.5000
 30
417.0000
 40
70.0000
 50
450.0000
  1
\U+05E9\U+05E7\U+05E2 \U+05D1\U+05D5\U+05D3\U+05D3
  7
STANDARD
  0
3DFACE
  5
1055
  8
Elem_Gas
 10
1873.0000
 20
1430.0000
 30
500.0000
 11
1873.0000
 21
1390.0000
 31
500.0000
 12
1893.0000
 22
1390.0000
 32
500.0000
 13
1893.0000
 23
1430.0000
 33
500.0000
 70
15
  0
3DFACE
  5
1056
  8
Elem_Gas
 10
1873.0000
 20
1430.0000
 30
540.0000
 11
1873.0000
 21
1390.0000
 31
540.0000
 12
1893.0000
 22
1390.0000
 32
540.0000
 13
1893.0000
 23
1430.0000
 33
540.0000
 70
15
  0
3DFACE
  5
1057
  8
Elem_Gas
 10
1873.0000
 20
1430.0000
 30
500.0000
 11
1873.0000
 21
1390.0000
 31
500.0000
 12
1873.0000
 22
1390.0000
 32
540.0000
 13
1873.0000
 23
1430.0000
 33
540.0000
 70
15
  0
3DFACE
  5
1058
  8
Elem_Gas
 10
1873.0000
 20
1390.0000
 30
500.0000
 11
1893.0000
 21
1390.0000
 31
500.0000
 12
1893.0000
 22
1390.0000
 32
540.0000
 13
1873.0000
 23
1390.0000
 33
540.0000
 70
15
  0
3DFACE
  5
1059
  8
Elem_Gas
 10
1893.0000
 20
1390.0000
 30
500.0000
 11
1893.0000
 21
1430.0000
 31
500.0000
 12
1893.0000
 22
1430.0000
 32
540.0000
 13
1893.0000
 23
1390.0000
 33
540.0000
 70
15
  0
3DFACE
  5
105A
  8
Elem_Gas
 10
1893.0000
 20
1430.0000
 30
500.0000
 11
1873.0000
 21
1430.0000
 31
500.0000
 12
1873.0000
 22
1430.0000
 32
540.0000
 13
1893.0000
 23
1430.0000
 33
540.0000
 70
15
  0
TEXT
  5
105B
  8
Elem_Label
 10
1883.0000
 20
1430.0000
 30
580.0000
 40
70.0000
 50
450.0000
  1
\U+05D2\U+05D6
  7
STANDARD
  0
3DFACE
  5
105C
  8
Elem_Electrical
 10
1739.8777
 20
-3408.8605
 30
300.0000
 11
1579.8779
 21
-3409.1397
 31
300.0000
 12
1579.9129
 22
-3429.1397
 32
300.0000
 13
1739.9126
 23
-3428.8604
 33
300.0000
 70
15
  0
3DFACE
  5
105D
  8
Elem_Electrical
 10
1739.8777
 20
-3408.8605
 30
377.0000
 11
1579.8779
 21
-3409.1397
 31
377.0000
 12
1579.9129
 22
-3429.1397
 32
377.0000
 13
1739.9126
 23
-3428.8604
 33
377.0000
 70
15
  0
3DFACE
  5
105E
  8
Elem_Electrical
 10
1739.8777
 20
-3408.8605
 30
300.0000
 11
1579.8779
 21
-3409.1397
 31
300.0000
 12
1579.8779
 22
-3409.1397
 32
377.0000
 13
1739.8777
 23
-3408.8605
 33
377.0000
 70
15
  0
3DFACE
  5
105F
  8
Elem_Electrical
 10
1579.8779
 20
-3409.1397
 30
300.0000
 11
1579.9129
 21
-3429.1397
 31
300.0000
 12
1579.9129
 22
-3429.1397
 32
377.0000
 13
1579.8779
 23
-3409.1397
 33
377.0000
 70
15
  0
3DFACE
  5
1060
  8
Elem_Electrical
 10
1579.9129
 20
-3429.1397
 30
300.0000
 11
1739.9126
 21
-3428.8604
 31
300.0000
 12
1739.9126
 22
-3428.8604
 32
377.0000
 13
1579.9129
 23
-3429.1397
 33
377.0000
 70
15
  0
3DFACE
  5
1061
  8
Elem_Electrical
 10
1739.9126
 20
-3428.8604
 30
300.0000
 11
1739.8777
 21
-3408.8605
 31
300.0000
 12
1739.8777
 22
-3408.8605
 32
377.0000
 13
1739.9126
 23
-3428.8604
 33
377.0000
 70
15
  0
TEXT
  5
1062
  8
Elem_Label
 10
1739.8952
 20
-3418.8605
 30
417.0000
 40
80.0000
 50
360.1000
  1
\U+05E9\U+05E7\U+05E2 \U+05DE\U+05E8\U+05D5\U+05D1\U+05E2
  7
STANDARD
  0
3DFACE
  5
1063
  8
Elem_HVAC
 10
1810.7777
 20
-2778.3029
 30
2226.0000
 11
1010.7789
 21
-2779.6992
 31
2226.0000
 12
1011.9133
 22
-3429.6982
 32
2226.0000
 13
1811.9121
 23
-3428.3019
 33
2226.0000
 70
15
  0
3DFACE
  5
1064
  8
Elem_HVAC
 10
1810.7777
 20
-2778.3029
 30
2526.0000
 11
1010.7789
 21
-2779.6992
 31
2526.0000
 12
1011.9133
 22
-3429.6982
 32
2526.0000
 13
1811.9121
 23
-3428.3019
 33
2526.0000
 70
15
  0
3DFACE
  5
1065
  8
Elem_HVAC
 10
1810.7777
 20
-2778.3029
 30
2226.0000
 11
1010.7789
 21
-2779.6992
 31
2226.0000
 12
1010.7789
 22
-2779.6992
 32
2526.0000
 13
1810.7777
 23
-2778.3029
 33
2526.0000
 70
15
  0
3DFACE
  5
1066
  8
Elem_HVAC
 10
1010.7789
 20
-2779.6992
 30
2226.0000
 11
1011.9133
 21
-3429.6982
 31
2226.0000
 12
1011.9133
 22
-3429.6982
 32
2526.0000
 13
1010.7789
 23
-2779.6992
 33
2526.0000
 70
15
  0
3DFACE
  5
1067
  8
Elem_HVAC
 10
1011.9133
 20
-3429.6982
 30
2226.0000
 11
1811.9121
 21
-3428.3019
 31
2226.0000
 12
1811.9121
 22
-3428.3019
 32
2526.0000
 13
1011.9133
 23
-3429.6982
 33
2526.0000
 70
15
  0
3DFACE
  5
1068
  8
Elem_HVAC
 10
1811.9121
 20
-3428.3019
 30
2226.0000
 11
1810.7777
 21
-2778.3029
 31
2226.0000
 12
1810.7777
 22
-2778.3029
 32
2526.0000
 13
1811.9121
 23
-3428.3019
 33
2526.0000
 70
15
  0
TEXT
  5
1069
  8
Elem_Label
 10
1811.3449
 20
-3103.3024
 30
2566.0000
 40
160.0000
 50
360.1000
  1
\U+05D4\U+05E0\U+05DE\U+05DB\U+05EA \U+05EA\U+05E7\U+05E8\U+05D4 \U+05E2\U+05DD \U+05DE\U+05D6\U+05D2\U+05DF
  7
STANDARD
  0
3DFACE
  5
106A
  8
Elem_Electrical
 10
-1091.1762
 20
-1218.6784
 30
300.0000
 11
-1141.1590
 21
-1217.3696
 31
300.0000
 12
-1141.6826
 22
-1237.3627
 32
300.0000
 13
-1091.6997
 23
-1238.6716
 33
300.0000
 70
15
  0
3DFACE
  5
106B
  8
Elem_Electrical
 10
-1091.1762
 20
-1218.6784
 30
350.0000
 11
-1141.1590
 21
-1217.3696
 31
350.0000
 12
-1141.6826
 22
-1237.3627
 32
350.0000
 13
-1091.6997
 23
-1238.6716
 33
350.0000
 70
15
  0
3DFACE
  5
106C
  8
Elem_Electrical
 10
-1091.1762
 20
-1218.6784
 30
300.0000
 11
-1141.1590
 21
-1217.3696
 31
300.0000
 12
-1141.1590
 22
-1217.3696
 32
350.0000
 13
-1091.1762
 23
-1218.6784
 33
350.0000
 70
15
  0
3DFACE
  5
106D
  8
Elem_Electrical
 10
-1141.1590
 20
-1217.3696
 30
300.0000
 11
-1141.6826
 21
-1237.3627
 31
300.0000
 12
-1141.6826
 22
-1237.3627
 32
350.0000
 13
-1141.1590
 23
-1217.3696
 33
350.0000
 70
15
  0
3DFACE
  5
106E
  8
Elem_Electrical
 10
-1141.6826
 20
-1237.3627
 30
300.0000
 11
-1091.6997
 21
-1238.6716
 31
300.0000
 12
-1091.6997
 22
-1238.6716
 32
350.0000
 13
-1141.6826
 23
-1237.3627
 33
350.0000
 70
15
  0
3DFACE
  5
106F
  8
Elem_Electrical
 10
-1091.6997
 20
-1238.6716
 30
300.0000
 11
-1091.1762
 21
-1218.6784
 31
300.0000
 12
-1091.1762
 22
-1218.6784
 32
350.0000
 13
-1091.6997
 23
-1238.6716
 33
350.0000
 70
15
  0
TEXT
  5
1070
  8
Elem_Label
 10
-1091.4379
 20
-1228.6750
 30
390.0000
 40
70.0000
 50
358.5000
  1
\U+05EA\U+05E9\U+05EA\U+05D9\U+05EA \U+05D7\U+05E9\U+05DE\U+05DC -\U+05E7\U+05D9\U+05E8
  7
STANDARD
  0
3DFACE
  5
1071
  8
Elem_Plumbing
 10
-2156.1057
 20
-1059.3662
 30
300.0000
 11
-2155.8962
 21
-1019.3668
 31
300.0000
 12
-2175.8960
 22
-1019.2621
 32
300.0000
 13
-2176.1054
 23
-1059.2615
 33
300.0000
 70
15
  0
3DFACE
  5
1072
  8
Elem_Plumbing
 10
-2156.1057
 20
-1059.3662
 30
340.0000
 11
-2155.8962
 21
-1019.3668
 31
340.0000
 12
-2175.8960
 22
-1019.2621
 32
340.0000
 13
-2176.1054
 23
-1059.2615
 33
340.0000
 70
15
  0
3DFACE
  5
1073
  8
Elem_Plumbing
 10
-2156.1057
 20
-1059.3662
 30
300.0000
 11
-2155.8962
 21
-1019.3668
 31
300.0000
 12
-2155.8962
 22
-1019.3668
 32
340.0000
 13
-2156.1057
 23
-1059.3662
 33
340.0000
 70
15
  0
3DFACE
  5
1074
  8
Elem_Plumbing
 10
-2155.8962
 20
-1019.3668
 30
300.0000
 11
-2175.8960
 21
-1019.2621
 31
300.0000
 12
-2175.8960
 22
-1019.2621
 32
340.0000
 13
-2155.8962
 23
-1019.3668
 33
340.0000
 70
15
  0
3DFACE
  5
1075
  8
Elem_Plumbing
 10
-2175.8960
 20
-1019.2621
 30
300.0000
 11
-2176.1054
 21
-1059.2615
 31
300.0000
 12
-2176.1054
 22
-1059.2615
 32
340.0000
 13
-2175.8960
 23
-1019.2621
 33
340.0000
 70
15
  0
3DFACE
  5
1076
  8
Elem_Plumbing
 10
-2176.1054
 20
-1059.2615
 30
300.0000
 11
-2156.1057
 21
-1059.3662
 31
300.0000
 12
-2156.1057
 22
-1059.3662
 32
340.0000
 13
-2176.1054
 23
-1059.2615
 33
340.0000
 70
15
  0
TEXT
  5
1077
  8
Elem_Label
 10
-2166.1055
 20
-1059.3139
 30
380.0000
 40
70.0000
 50
89.7000
  1
\U+05DE\U+05D9\U+05DD
  7
STANDARD
  0
3DFACE
  5
1078
  8
Elem_Plumbing
 10
-2084.0000
 20
2160.0000
 30
300.0000
 11
-1934.0000
 21
2160.0000
 31
300.0000
 12
-1934.0000
 22
2180.0000
 32
300.0000
 13
-2084.0000
 23
2180.0000
 33
300.0000
 70
15
  0
3DFACE
  5
1079
  8
Elem_Plumbing
 10
-2084.0000
 20
2160.0000
 30
340.0000
 11
-1934.0000
 21
2160.0000
 31
340.0000
 12
-1934.0000
 22
2180.0000
 32
340.0000
 13
-2084.0000
 23
2180.0000
 33
340.0000
 70
15
  0
3DFACE
  5
107A
  8
Elem_Plumbing
 10
-2084.0000
 20
2160.0000
 30
300.0000
 11
-1934.0000
 21
2160.0000
 31
300.0000
 12
-1934.0000
 22
2160.0000
 32
340.0000
 13
-2084.0000
 23
2160.0000
 33
340.0000
 70
15
  0
3DFACE
  5
107B
  8
Elem_Plumbing
 10
-1934.0000
 20
2160.0000
 30
300.0000
 11
-1934.0000
 21
2180.0000
 31
300.0000
 12
-1934.0000
 22
2180.0000
 32
340.0000
 13
-1934.0000
 23
2160.0000
 33
340.0000
 70
15
  0
3DFACE
  5
107C
  8
Elem_Plumbing
 10
-1934.0000
 20
2180.0000
 30
300.0000
 11
-2084.0000
 21
2180.0000
 31
300.0000
 12
-2084.0000
 22
2180.0000
 32
340.0000
 13
-1934.0000
 23
2180.0000
 33
340.0000
 70
15
  0
3DFACE
  5
107D
  8
Elem_Plumbing
 10
-2084.0000
 20
2180.0000
 30
300.0000
 11
-2084.0000
 21
2160.0000
 31
300.0000
 12
-2084.0000
 22
2160.0000
 32
340.0000
 13
-2084.0000
 23
2180.0000
 33
340.0000
 70
15
  0
TEXT
  5
107E
  8
Elem_Label
 10
-2084.0000
 20
2170.0000
 30
380.0000
 40
75.0000
 50
0.0000
  1
\U+05EA\U+05DE\U+05D94
  7
STANDARD
  0
ENDSEC
  0
EOF
