  0
SECTION
  2
HEADER
  9
$ACADVER
  1
AC1009
  9
$INSBASE
 10
0.0000
 20
0.0000
 30
0.0000
  9
$EXTMIN
 10
3930.0000
 20
-3073.0000
 30
0.0000
  9
$EXTMAX
 10
5166.0000
 20
-2110.0000
 30
0.0000
  9
$DWGCODEPAGE
  3
ansi_1255
  9
$INSUNITS
 70
4
  9
$LTSCALE
 40
10.0000
  9
$LIMMIN
 10
0.0000
 20
0.0000
  9
$LIMMAX
 10
2000.0000
 20
200.0000
  0
ENDSEC
  0
SECTION
  2
TABLES
  0
TABLE
  2
VPORT
 70
1
  0
VPORT
  2
*ACTIVE
 70
0
 10
0.0000
 20
0.0000
 11
1.0000
 21
1.0000
 12
4548.0000
 22
-2591.5000
 13
0.0000
 23
0.0000
 14
10.0000
 24
10.0000
 15
10.0000
 25
10.0000
 16
0.0000
 26
0.0000
 36
1.0000
 17
0.0000
 27
0.0000
 37
0.0000
 40
1059.3000
 41
1.0000
 42
50.0000
 43
0.0000
 44
0.0000
 50
0.0000
 51
0.0000
 71
0
 72
100
 73
1
 74
1
 75
0
 76
0
 77
0
 78
0
  0
ENDTAB
  0
TABLE
  2
LTYPE
 70
2
  0
LTYPE
  2
CONTINUOUS
 70
0
  3
Solid line
 72
65
 73
0
 40
0.0000
  0
LTYPE
  2
HIDDEN
 70
0
  3
Hidden __ __ __ __ __ __ __ __ __ __ __ __ __ __
 72
65
 73
2
 40
0.3750
 49
0.2500
 49
-0.1250
  0
ENDTAB
  0
TABLE
  2
LAYER
 70
50
  0
LAYER
  2
0
 70
0
 62
7
  6
CONTINUOUS
  0
LAYER
  2
Electrical
 70
0
 62
6
  6
CONTINUOUS
  0
LAYER
  2
Plumbing
 70
0
 62
150
  6
CONTINUOUS
  0
LAYER
  2
Const_Walls
 70
0
 62
253
  6
CONTINUOUS
  0
LAYER
  2
Dim
 70
0
 62
9
  6
CONTINUOUS
  0
LAYER
  2
Text
 70
0
 62
74
  6
CONTINUOUS
  0
LAYER
  2
HVAC
 70
0
 62
4
  6
CONTINUOUS
  0
LAYER
  2
Misc
 70
0
 62
32
  6
HIDDEN
  0
LAYER
  2
Dim_Markers
 70
0
 62
9
  6
CONTINUOUS
  0
LAYER
  2
Dim_Wall
 70
0
 62
9
  6
CONTINUOUS
  0
LAYER
  2
Const_Doors
 70
0
 62
5
  6
CONTINUOUS
  0
LAYER
  2
Const_Windows
 70
0
 62
152
  6
CONTINUOUS
  0
LAYER
  2
Text_Legend
 70
0
 62
74
  6
CONTINUOUS
  0
LAYER
  2
Text_JobInfo
 70
0
 62
74
  6
CONTINUOUS
  0
LAYER
  2
Dim_Overall
 70
0
 62
-9
  6
CONTINUOUS
  0
LAYER
  2
Dim_Embeded
 70
0
 62
-9
  6
CONTINUOUS
  0
LAYER
  2
Dim_Angles_Auto
 70
0
 62
3
  6
CONTINUOUS
  0
LAYER
  2
Text_AreaNo
 70
0
 62
-74
  6
CONTINUOUS
  0
LAYER
  2
Dim_ArcChord
 70
0
 62
9
  6
HIDDEN
  0
LAYER
  2
Const_Walls_Ext
 70
0
 62
253
  6
CONTINUOUS
  0
LAYER
  2
Dim_Verification
 70
0
 62
-9
  6
CONTINUOUS
  0
LAYER
  2
Dim_Radius
 70
0
 62
9
  6
CONTINUOUS
  0
LAYER
  2
Dim_Angles
 70
0
 62
9
  6
CONTINUOUS
  0
LAYER
  2
Z_Other
 70
0
 62
253
  6
CONTINUOUS
  0
LAYER
  2
Const_Stairs
 70
0
 62
253
  6
CONTINUOUS
  0
LAYER
  2
Misc_Cabinets
 70
0
 62
36
  6
CONTINUOUS
  0
LAYER
  2
Z_Scale_Ruler
 70
0
 62
7
  6
CONTINUOUS
  0
LAYER
  2
Const_Fill
 70
0
 62
253
  6
CONTINUOUS
  0
LAYER
  2
Wall_Image
 70
0
 62
7
  6
CONTINUOUS
  0
LAYER
  2
Exterior_walls
 70
0
 62
5
  6
CONTINUOUS
  0
LAYER
  2
HVAC_DIM
 70
0
 62
4
  6
CONTINUOUS
  0
LAYER
  2
HVAC_H
 70
0
 62
4
  6
CONTINUOUS
  0
LAYER
  2
Electrical_DIM
 70
0
 62
6
  6
CONTINUOUS
  0
LAYER
  2
Electrical_H
 70
0
 62
6
  6
CONTINUOUS
  0
LAYER
  2
Plumbing_DIM
 70
0
 62
150
  6
CONTINUOUS
  0
LAYER
  2
Plumbing_H
 70
0
 62
150
  6
CONTINUOUS
  0
LAYER
  2
datum
 70
0
 62
1
  6
CONTINUOUS
  0
LAYER
  2
Const_Floor
 70
0
 62
8
  6
CONTINUOUS
  0
LAYER
  2
Elem_Electrical
 70
0
 62
6
  6
CONTINUOUS
  0
LAYER
  2
Elem_Plumbing
 70
0
 62
5
  6
CONTINUOUS
  0
LAYER
  2
Elem_Gas
 70
0
 62
2
  6
CONTINUOUS
  0
LAYER
  2
Elem_HVAC
 70
0
 62
4
  6
CONTINUOUS
  0
LAYER
  2
Elem_Lighting
 70
0
 62
30
  6
CONTINUOUS
  0
LAYER
  2
Elem_Struct
 70
0
 62
8
  6
CONTINUOUS
  0
LAYER
  2
Elem_Opening
 70
0
 62
152
  6
CONTINUOUS
  0
LAYER
  2
Elem_Misc
 70
0
 62
7
  6
CONTINUOUS
  0
LAYER
  2
Elem_Label
 70
0
 62
74
  6
CONTINUOUS
  0
LAYER
  2
Cabinets
 70
0
 62
36
  6
CONTINUOUS
  0
LAYER
  2
Cabinets_Kick
 70
0
 62
32
  6
CONTINUOUS
  0
LAYER
  2
Cabinets_Top
 70
0
 62
42
  6
CONTINUOUS
  0
ENDTAB
  0
TABLE
  2
STYLE
 70
1
  0
STYLE
  2
STANDARD
 70
0
 40
0.0000
 41
1.0000
 50
0.0000
 71
0
 42
10.0000
  3
ARIAL.TTF
  4

  0
ENDTAB
  0
ENDSEC
  0
SECTION
  2
BLOCKS
  0
BLOCK
  8
0
  2
FAUCET
 70
0
 10
0.0000
 20
0.0000
 30
0.0000
  0
3DFACE
  5
1042
  8
0
 10
-25.0000
 20
0.0000
 30
0.0000
 11
25.0000
 21
0.0000
 31
0.0000
 12
25.0000
 22
25.0000
 32
0.0000
 13
-25.0000
 23
25.0000
 33
0.0000
  0
3DFACE
  5
1043
  8
0
 10
-25.0000
 20
0.0000
 30
30.0000
 11
25.0000
 21
0.0000
 31
30.0000
 12
25.0000
 22
25.0000
 32
30.0000
 13
-25.0000
 23
25.0000
 33
30.0000
  0
3DFACE
  5
1044
  8
0
 10
-25.0000
 20
0.0000
 30
0.0000
 11
25.0000
 21
0.0000
 31
0.0000
 12
25.0000
 22
0.0000
 32
30.0000
 13
-25.0000
 23
0.0000
 33
30.0000
  0
3DFACE
  5
1045
  8
0
 10
-25.0000
 20
25.0000
 30
0.0000
 11
25.0000
 21
25.0000
 31
0.0000
 12
25.0000
 22
25.0000
 32
30.0000
 13
-25.0000
 23
25.0000
 33
30.0000
  0
3DFACE
  5
1046
  8
0
 10
-25.0000
 20
0.0000
 30
0.0000
 11
-25.0000
 21
25.0000
 31
0.0000
 12
-25.0000
 22
25.0000
 32
30.0000
 13
-25.0000
 23
0.0000
 33
30.0000
  0
3DFACE
  5
1047
  8
0
 10
25.0000
 20
0.0000
 30
0.0000
 11
25.0000
 21
25.0000
 31
0.0000
 12
25.0000
 22
25.0000
 32
30.0000
 13
25.0000
 23
0.0000
 33
30.0000
  0
3DFACE
  5
1048
  8
0
 10
-9.0000
 20
0.0000
 30
30.0000
 11
9.0000
 21
0.0000
 31
30.0000
 12
9.0000
 22
18.0000
 32
30.0000
 13
-9.0000
 23
18.0000
 33
30.0000
  0
3DFACE
  5
1049
  8
0
 10
-9.0000
 20
0.0000
 30
150.0000
 11
9.0000
 21
0.0000
 31
150.0000
 12
9.0000
 22
18.0000
 32
150.0000
 13
-9.0000
 23
18.0000
 33
150.0000
  0
3DFACE
  5
104A
  8
0
 10
-9.0000
 20
0.0000
 30
30.0000
 11
9.0000
 21
0.0000
 31
30.0000
 12
9.0000
 22
0.0000
 32
150.0000
 13
-9.0000
 23
0.0000
 33
150.0000
  0
3DFACE
  5
104B
  8
0
 10
-9.0000
 20
18.0000
 30
30.0000
 11
9.0000
 21
18.0000
 31
30.0000
 12
9.0000
 22
18.0000
 32
150.0000
 13
-9.0000
 23
18.0000
 33
150.0000
  0
3DFACE
  5
104C
  8
0
 10
-9.0000
 20
0.0000
 30
30.0000
 11
-9.0000
 21
18.0000
 31
30.0000
 12
-9.0000
 22
18.0000
 32
150.0000
 13
-9.0000
 23
0.0000
 33
150.0000
  0
3DFACE
  5
104D
  8
0
 10
9.0000
 20
0.0000
 30
30.0000
 11
9.0000
 21
18.0000
 31
30.0000
 12
9.0000
 22
18.0000
 32
150.0000
 13
9.0000
 23
0.0000
 33
150.0000
  0
3DFACE
  5
104E
  8
0
 10
-9.0000
 20
0.0000
 30
132.0000
 11
60.0000
 21
0.0000
 31
132.0000
 12
60.0000
 22
18.0000
 32
132.0000
 13
-9.0000
 23
18.0000
 33
132.0000
  0
3DFACE
  5
104F
  8
0
 10
-9.0000
 20
0.0000
 30
150.0000
 11
60.0000
 21
0.0000
 31
150.0000
 12
60.0000
 22
18.0000
 32
150.0000
 13
-9.0000
 23
18.0000
 33
150.0000
  0
3DFACE
  5
1050
  8
0
 10
-9.0000
 20
0.0000
 30
132.0000
 11
60.0000
 21
0.0000
 31
132.0000
 12
60.0000
 22
0.0000
 32
150.0000
 13
-9.0000
 23
0.0000
 33
150.0000
  0
3DFACE
  5
1051
  8
0
 10
-9.0000
 20
18.0000
 30
132.0000
 11
60.0000
 21
18.0000
 31
132.0000
 12
60.0000
 22
18.0000
 32
150.0000
 13
-9.0000
 23
18.0000
 33
150.0000
  0
3DFACE
  5
1052
  8
0
 10
-9.0000
 20
0.0000
 30
132.0000
 11
-9.0000
 21
18.0000
 31
132.0000
 12
-9.0000
 22
18.0000
 32
150.0000
 13
-9.0000
 23
0.0000
 33
150.0000
  0
3DFACE
  5
1053
  8
0
 10
60.0000
 20
0.0000
 30
132.0000
 11
60.0000
 21
18.0000
 31
132.0000
 12
60.0000
 22
18.0000
 32
150.0000
 13
60.0000
 23
0.0000
 33
150.0000
  0
3DFACE
  5
1054
  8
0
 10
52.0000
 20
0.0000
 30
120.0000
 11
68.0000
 21
0.0000
 31
120.0000
 12
68.0000
 22
18.0000
 32
120.0000
 13
52.0000
 23
18.0000
 33
120.0000
  0
3DFACE
  5
1055
  8
0
 10
52.0000
 20
0.0000
 30
150.0000
 11
68.0000
 21
0.0000
 31
150.0000
 12
68.0000
 22
18.0000
 32
150.0000
 13
52.0000
 23
18.0000
 33
150.0000
  0
3DFACE
  5
1056
  8
0
 10
52.0000
 20
0.0000
 30
120.0000
 11
68.0000
 21
0.0000
 31
120.0000
 12
68.0000
 22
0.0000
 32
150.0000
 13
52.0000
 23
0.0000
 33
150.0000
  0
3DFACE
  5
1057
  8
0
 10
52.0000
 20
18.0000
 30
120.0000
 11
68.0000
 21
18.0000
 31
120.0000
 12
68.0000
 22
18.0000
 32
150.0000
 13
52.0000
 23
18.0000
 33
150.0000
  0
3DFACE
  5
1058
  8
0
 10
52.0000
 20
0.0000
 30
120.0000
 11
52.0000
 21
18.0000
 31
120.0000
 12
52.0000
 22
18.0000
 32
150.0000
 13
52.0000
 23
0.0000
 33
150.0000
  0
3DFACE
  5
1059
  8
0
 10
68.0000
 20
0.0000
 30
120.0000
 11
68.0000
 21
18.0000
 31
120.0000
 12
68.0000
 22
18.0000
 32
150.0000
 13
68.0000
 23
0.0000
 33
150.0000
  0
3DFACE
  5
105A
  8
0
 10
52.0000
 20
0.0000
 30
110.0000
 11
68.0000
 21
0.0000
 31
110.0000
 12
68.0000
 22
18.0000
 32
110.0000
 13
52.0000
 23
18.0000
 33
110.0000
  0
3DFACE
  5
105B
  8
0
 10
52.0000
 20
0.0000
 30
122.0000
 11
68.0000
 21
0.0000
 31
122.0000
 12
68.0000
 22
18.0000
 32
122.0000
 13
52.0000
 23
18.0000
 33
122.0000
  0
3DFACE
  5
105C
  8
0
 10
52.0000
 20
0.0000
 30
110.0000
 11
68.0000
 21
0.0000
 31
110.0000
 12
68.0000
 22
0.0000
 32
122.0000
 13
52.0000
 23
0.0000
 33
122.0000
  0
3DFACE
  5
105D
  8
0
 10
52.0000
 20
18.0000
 30
110.0000
 11
68.0000
 21
18.0000
 31
110.0000
 12
68.0000
 22
18.0000
 32
122.0000
 13
52.0000
 23
18.0000
 33
122.0000
  0
3DFACE
  5
105E
  8
0
 10
52.0000
 20
0.0000
 30
110.0000
 11
52.0000
 21
18.0000
 31
110.0000
 12
52.0000
 22
18.0000
 32
122.0000
 13
52.0000
 23
0.0000
 33
122.0000
  0
3DFACE
  5
105F
  8
0
 10
68.0000
 20
0.0000
 30
110.0000
 11
68.0000
 21
18.0000
 31
110.0000
 12
68.0000
 22
18.0000
 32
122.0000
 13
68.0000
 23
0.0000
 33
122.0000
  0
3DFACE
  5
1060
  8
0
 10
-22.0000
 20
0.0000
 30
90.0000
 11
-14.0000
 21
0.0000
 31
90.0000
 12
-14.0000
 22
18.0000
 32
90.0000
 13
-22.0000
 23
18.0000
 33
90.0000
  0
3DFACE
  5
1061
  8
0
 10
-22.0000
 20
0.0000
 30
120.0000
 11
-14.0000
 21
0.0000
 31
120.0000
 12
-14.0000
 22
18.0000
 32
120.0000
 13
-22.0000
 23
18.0000
 33
120.0000
  0
3DFACE
  5
1062
  8
0
 10
-22.0000
 20
0.0000
 30
90.0000
 11
-14.0000
 21
0.0000
 31
90.0000
 12
-14.0000
 22
0.0000
 32
120.0000
 13
-22.0000
 23
0.0000
 33
120.0000
  0
3DFACE
  5
1063
  8
0
 10
-22.0000
 20
18.0000
 30
90.0000
 11
-14.0000
 21
18.0000
 31
90.0000
 12
-14.0000
 22
18.0000
 32
120.0000
 13
-22.0000
 23
18.0000
 33
120.0000
  0
3DFACE
  5
1064
  8
0
 10
-22.0000
 20
0.0000
 30
90.0000
 11
-22.0000
 21
18.0000
 31
90.0000
 12
-22.0000
 22
18.0000
 32
120.0000
 13
-22.0000
 23
0.0000
 33
120.0000
  0
3DFACE
  5
1065
  8
0
 10
-14.0000
 20
0.0000
 30
90.0000
 11
-14.0000
 21
18.0000
 31
90.0000
 12
-14.0000
 22
18.0000
 32
120.0000
 13
-14.0000
 23
0.0000
 33
120.0000
  0
3DFACE
  5
1066
  8
0
 10
14.0000
 20
0.0000
 30
90.0000
 11
22.0000
 21
0.0000
 31
90.0000
 12
22.0000
 22
18.0000
 32
90.0000
 13
14.0000
 23
18.0000
 33
90.0000
  0
3DFACE
  5
1067
  8
0
 10
14.0000
 20
0.0000
 30
120.0000
 11
22.0000
 21
0.0000
 31
120.0000
 12
22.0000
 22
18.0000
 32
120.0000
 13
14.0000
 23
18.0000
 33
120.0000
  0
3DFACE
  5
1068
  8
0
 10
14.0000
 20
0.0000
 30
90.0000
 11
22.0000
 21
0.0000
 31
90.0000
 12
22.0000
 22
0.0000
 32
120.0000
 13
14.0000
 23
0.0000
 33
120.0000
  0
3DFACE
  5
1069
  8
0
 10
14.0000
 20
18.0000
 30
90.0000
 11
22.0000
 21
18.0000
 31
90.0000
 12
22.0000
 22
18.0000
 32
120.0000
 13
14.0000
 23
18.0000
 33
120.0000
  0
3DFACE
  5
106A
  8
0
 10
14.0000
 20
0.0000
 30
90.0000
 11
14.0000
 21
18.0000
 31
90.0000
 12
14.0000
 22
18.0000
 32
120.0000
 13
14.0000
 23
0.0000
 33
120.0000
  0
3DFACE
  5
106B
  8
0
 10
22.0000
 20
0.0000
 30
90.0000
 11
22.0000
 21
18.0000
 31
90.0000
 12
22.0000
 22
18.0000
 32
120.0000
 13
22.0000
 23
0.0000
 33
120.0000
  0
ENDBLK
  5
106C
  8
0
  0
BLOCK
  8
0
  2
SOCKET
 70
0
 10
0.0000
 20
0.0000
 30
0.0000
  0
3DFACE
  5
106D
  8
0
 10
-35.0000
 20
-40.0000
 30
0.0000
 11
35.0000
 21
-40.0000
 31
0.0000
 12
35.0000
 22
0.0000
 32
0.0000
 13
-35.0000
 23
0.0000
 33
0.0000
  0
3DFACE
  5
106E
  8
0
 10
-35.0000
 20
-40.0000
 30
70.0000
 11
35.0000
 21
-40.0000
 31
70.0000
 12
35.0000
 22
0.0000
 32
70.0000
 13
-35.0000
 23
0.0000
 33
70.0000
  0
3DFACE
  5
106F
  8
0
 10
-35.0000
 20
-40.0000
 30
0.0000
 11
35.0000
 21
-40.0000
 31
0.0000
 12
35.0000
 22
-40.0000
 32
70.0000
 13
-35.0000
 23
-40.0000
 33
70.0000
  0
3DFACE
  5
1070
  8
0
 10
-35.0000
 20
0.0000
 30
0.0000
 11
35.0000
 21
0.0000
 31
0.0000
 12
35.0000
 22
0.0000
 32
70.0000
 13
-35.0000
 23
0.0000
 33
70.0000
  0
3DFACE
  5
1071
  8
0
 10
-35.0000
 20
-40.0000
 30
0.0000
 11
-35.0000
 21
0.0000
 31
0.0000
 12
-35.0000
 22
0.0000
 32
70.0000
 13
-35.0000
 23
-40.0000
 33
70.0000
  0
3DFACE
  5
1072
  8
0
 10
35.0000
 20
-40.0000
 30
0.0000
 11
35.0000
 21
0.0000
 31
0.0000
 12
35.0000
 22
0.0000
 32
70.0000
 13
35.0000
 23
-40.0000
 33
70.0000
  0
3DFACE
  5
1073
  8
0
 10
-45.0000
 20
0.0000
 30
-8.0000
 11
45.0000
 21
0.0000
 31
-8.0000
 12
45.0000
 22
8.0000
 32
-8.0000
 13
-45.0000
 23
8.0000
 33
-8.0000
  0
3DFACE
  5
1074
  8
0
 10
-45.0000
 20
0.0000
 30
78.0000
 11
45.0000
 21
0.0000
 31
78.0000
 12
45.0000
 22
8.0000
 32
78.0000
 13
-45.0000
 23
8.0000
 33
78.0000
  0
3DFACE
  5
1075
  8
0
 10
-45.0000
 20
0.0000
 30
-8.0000
 11
45.0000
 21
0.0000
 31
-8.0000
 12
45.0000
 22
0.0000
 32
78.0000
 13
-45.0000
 23
0.0000
 33
78.0000
  0
3DFACE
  5
1076
  8
0
 10
-45.0000
 20
8.0000
 30
-8.0000
 11
45.0000
 21
8.0000
 31
-8.0000
 12
45.0000
 22
8.0000
 32
78.0000
 13
-45.0000
 23
8.0000
 33
78.0000
  0
3DFACE
  5
1077
  8
0
 10
-45.0000
 20
0.0000
 30
-8.0000
 11
-45.0000
 21
8.0000
 31
-8.0000
 12
-45.0000
 22
8.0000
 32
78.0000
 13
-45.0000
 23
0.0000
 33
78.0000
  0
3DFACE
  5
1078
  8
0
 10
45.0000
 20
0.0000
 30
-8.0000
 11
45.0000
 21
8.0000
 31
-8.0000
 12
45.0000
 22
8.0000
 32
78.0000
 13
45.0000
 23
0.0000
 33
78.0000
  0
3DFACE
  5
1079
  8
0
 10
-16.0000
 20
8.0000
 30
20.0000
 11
16.0000
 21
8.0000
 31
20.0000
 12
16.0000
 22
14.0000
 32
20.0000
 13
-16.0000
 23
14.0000
 33
20.0000
  0
3DFACE
  5
107A
  8
0
 10
-16.0000
 20
8.0000
 30
50.0000
 11
16.0000
 21
8.0000
 31
50.0000
 12
16.0000
 22
14.0000
 32
50.0000
 13
-16.0000
 23
14.0000
 33
50.0000
  0
3DFACE
  5
107B
  8
0
 10
-16.0000
 20
8.0000
 30
20.0000
 11
16.0000
 21
8.0000
 31
20.0000
 12
16.0000
 22
8.0000
 32
50.0000
 13
-16.0000
 23
8.0000
 33
50.0000
  0
3DFACE
  5
107C
  8
0
 10
-16.0000
 20
14.0000
 30
20.0000
 11
16.0000
 21
14.0000
 31
20.0000
 12
16.0000
 22
14.0000
 32
50.0000
 13
-16.0000
 23
14.0000
 33
50.0000
  0
3DFACE
  5
107D
  8
0
 10
-16.0000
 20
8.0000
 30
20.0000
 11
-16.0000
 21
14.0000
 31
20.0000
 12
-16.0000
 22
14.0000
 32
50.0000
 13
-16.0000
 23
8.0000
 33
50.0000
  0
3DFACE
  5
107E
  8
0
 10
16.0000
 20
8.0000
 30
20.0000
 11
16.0000
 21
14.0000
 31
20.0000
 12
16.0000
 22
14.0000
 32
50.0000
 13
16.0000
 23
8.0000
 33
50.0000
  0
3DFACE
  5
107F
  8
0
 10
-12.0000
 20
14.0000
 30
30.0000
 11
-4.0000
 21
14.0000
 31
30.0000
 12
-4.0000
 22
18.0000
 32
30.0000
 13
-12.0000
 23
18.0000
 33
30.0000
  0
3DFACE
  5
1080
  8
0
 10
-12.0000
 20
14.0000
 30
44.0000
 11
-4.0000
 21
14.0000
 31
44.0000
 12
-4.0000
 22
18.0000
 32
44.0000
 13
-12.0000
 23
18.0000
 33
44.0000
  0
3DFACE
  5
1081
  8
0
 10
-12.0000
 20
14.0000
 30
30.0000
 11
-4.0000
 21
14.0000
 31
30.0000
 12
-4.0000
 22
14.0000
 32
44.0000
 13
-12.0000
 23
14.0000
 33
44.0000
  0
3DFACE
  5
1082
  8
0
 10
-12.0000
 20
18.0000
 30
30.0000
 11
-4.0000
 21
18.0000
 31
30.0000
 12
-4.0000
 22
18.0000
 32
44.0000
 13
-12.0000
 23
18.0000
 33
44.0000
  0
3DFACE
  5
1083
  8
0
 10
-12.0000
 20
14.0000
 30
30.0000
 11
-12.0000
 21
18.0000
 31
30.0000
 12
-12.0000
 22
18.0000
 32
44.0000
 13
-12.0000
 23
14.0000
 33
44.0000
  0
3DFACE
  5
1084
  8
0
 10
-4.0000
 20
14.0000
 30
30.0000
 11
-4.0000
 21
18.0000
 31
30.0000
 12
-4.0000
 22
18.0000
 32
44.0000
 13
-4.0000
 23
14.0000
 33
44.0000
  0
3DFACE
  5
1085
  8
0
 10
4.0000
 20
14.0000
 30
30.0000
 11
12.0000
 21
14.0000
 31
30.0000
 12
12.0000
 22
18.0000
 32
30.0000
 13
4.0000
 23
18.0000
 33
30.0000
  0
3DFACE
  5
1086
  8
0
 10
4.0000
 20
14.0000
 30
44.0000
 11
12.0000
 21
14.0000
 31
44.0000
 12
12.0000
 22
18.0000
 32
44.0000
 13
4.0000
 23
18.0000
 33
44.0000
  0
3DFACE
  5
1087
  8
0
 10
4.0000
 20
14.0000
 30
30.0000
 11
12.0000
 21
14.0000
 31
30.0000
 12
12.0000
 22
14.0000
 32
44.0000
 13
4.0000
 23
14.0000
 33
44.0000
  0
3DFACE
  5
1088
  8
0
 10
4.0000
 20
18.0000
 30
30.0000
 11
12.0000
 21
18.0000
 31
30.0000
 12
12.0000
 22
18.0000
 32
44.0000
 13
4.0000
 23
18.0000
 33
44.0000
  0
3DFACE
  5
1089
  8
0
 10
4.0000
 20
14.0000
 30
30.0000
 11
4.0000
 21
18.0000
 31
30.0000
 12
4.0000
 22
18.0000
 32
44.0000
 13
4.0000
 23
14.0000
 33
44.0000
  0
3DFACE
  5
108A
  8
0
 10
12.0000
 20
14.0000
 30
30.0000
 11
12.0000
 21
18.0000
 31
30.0000
 12
12.0000
 22
18.0000
 32
44.0000
 13
12.0000
 23
14.0000
 33
44.0000
  0
ENDBLK
  5
108B
  8
0
  0
BLOCK
  8
0
  2
SEWAGE
 70
0
 10
0.0000
 20
0.0000
 30
0.0000
  0
3DFACE
  5
108C
  8
0
 10
-50.0000
 20
0.0000
 30
-50.0000
 11
50.0000
 21
0.0000
 31
-50.0000
 12
50.0000
 22
12.0000
 32
-50.0000
 13
-50.0000
 23
12.0000
 33
-50.0000
  0
3DFACE
  5
108D
  8
0
 10
-50.0000
 20
0.0000
 30
50.0000
 11
50.0000
 21
0.0000
 31
50.0000
 12
50.0000
 22
12.0000
 32
50.0000
 13
-50.0000
 23
12.0000
 33
50.0000
  0
3DFACE
  5
108E
  8
0
 10
-50.0000
 20
0.0000
 30
-50.0000
 11
50.0000
 21
0.0000
 31
-50.0000
 12
50.0000
 22
0.0000
 32
50.0000
 13
-50.0000
 23
0.0000
 33
50.0000
  0
3DFACE
  5
108F
  8
0
 10
-50.0000
 20
12.0000
 30
-50.0000
 11
50.0000
 21
12.0000
 31
-50.0000
 12
50.0000
 22
12.0000
 32
50.0000
 13
-50.0000
 23
12.0000
 33
50.0000
  0
3DFACE
  5
1090
  8
0
 10
-50.0000
 20
0.0000
 30
-50.0000
 11
-50.0000
 21
12.0000
 31
-50.0000
 12
-50.0000
 22
12.0000
 32
50.0000
 13
-50.0000
 23
0.0000
 33
50.0000
  0
3DFACE
  5
1091
  8
0
 10
50.0000
 20
0.0000
 30
-50.0000
 11
50.0000
 21
12.0000
 31
-50.0000
 12
50.0000
 22
12.0000
 32
50.0000
 13
50.0000
 23
0.0000
 33
50.0000
  0
3DFACE
  5
1092
  8
0
 10
-30.0000
 20
12.0000
 30
-30.0000
 11
30.0000
 21
12.0000
 31
-30.0000
 12
30.0000
 22
40.0000
 32
-30.0000
 13
-30.0000
 23
40.0000
 33
-30.0000
  0
3DFACE
  5
1093
  8
0
 10
-30.0000
 20
12.0000
 30
30.0000
 11
30.0000
 21
12.0000
 31
30.0000
 12
30.0000
 22
40.0000
 32
30.0000
 13
-30.0000
 23
40.0000
 33
30.0000
  0
3DFACE
  5
1094
  8
0
 10
-30.0000
 20
12.0000
 30
-30.0000
 11
30.0000
 21
12.0000
 31
-30.0000
 12
30.0000
 22
12.0000
 32
30.0000
 13
-30.0000
 23
12.0000
 33
30.0000
  0
3DFACE
  5
1095
  8
0
 10
-30.0000
 20
40.0000
 30
-30.0000
 11
30.0000
 21
40.0000
 31
-30.0000
 12
30.0000
 22
40.0000
 32
30.0000
 13
-30.0000
 23
40.0000
 33
30.0000
  0
3DFACE
  5
1096
  8
0
 10
-30.0000
 20
12.0000
 30
-30.0000
 11
-30.0000
 21
40.0000
 31
-30.0000
 12
-30.0000
 22
40.0000
 32
30.0000
 13
-30.0000
 23
12.0000
 33
30.0000
  0
3DFACE
  5
1097
  8
0
 10
30.0000
 20
12.0000
 30
-30.0000
 11
30.0000
 21
40.0000
 31
-30.0000
 12
30.0000
 22
40.0000
 32
30.0000
 13
30.0000
 23
12.0000
 33
30.0000
  0
3DFACE
  5
1098
  8
0
 10
-22.0000
 20
40.0000
 30
-22.0000
 11
22.0000
 21
40.0000
 31
-22.0000
 12
22.0000
 22
60.0000
 32
-22.0000
 13
-22.0000
 23
60.0000
 33
-22.0000
  0
3DFACE
  5
1099
  8
0
 10
-22.0000
 20
40.0000
 30
22.0000
 11
22.0000
 21
40.0000
 31
22.0000
 12
22.0000
 22
60.0000
 32
22.0000
 13
-22.0000
 23
60.0000
 33
22.0000
  0
3DFACE
  5
109A
  8
0
 10
-22.0000
 20
40.0000
 30
-22.0000
 11
22.0000
 21
40.0000
 31
-22.0000
 12
22.0000
 22
40.0000
 32
22.0000
 13
-22.0000
 23
40.0000
 33
22.0000
  0
3DFACE
  5
109B
  8
0
 10
-22.0000
 20
60.0000
 30
-22.0000
 11
22.0000
 21
60.0000
 31
-22.0000
 12
22.0000
 22
60.0000
 32
22.0000
 13
-22.0000
 23
60.0000
 33
22.0000
  0
3DFACE
  5
109C
  8
0
 10
-22.0000
 20
40.0000
 30
-22.0000
 11
-22.0000
 21
60.0000
 31
-22.0000
 12
-22.0000
 22
60.0000
 32
22.0000
 13
-22.0000
 23
40.0000
 33
22.0000
  0
3DFACE
  5
109D
  8
0
 10
22.0000
 20
40.0000
 30
-22.0000
 11
22.0000
 21
60.0000
 31
-22.0000
 12
22.0000
 22
60.0000
 32
22.0000
 13
22.0000
 23
40.0000
 33
22.0000
  0
3DFACE
  5
109E
  8
0
 10
-45.0000
 20
0.0000
 30
-45.0000
 11
-39.0000
 21
0.0000
 31
-45.0000
 12
-39.0000
 22
6.0000
 32
-45.0000
 13
-45.0000
 23
6.0000
 33
-45.0000
  0
3DFACE
  5
109F
  8
0
 10
-45.0000
 20
0.0000
 30
-39.0000
 11
-39.0000
 21
0.0000
 31
-39.0000
 12
-39.0000
 22
6.0000
 32
-39.0000
 13
-45.0000
 23
6.0000
 33
-39.0000
  0
3DFACE
  5
10A0
  8
0
 10
-45.0000
 20
0.0000
 30
-45.0000
 11
-39.0000
 21
0.0000
 31
-45.0000
 12
-39.0000
 22
0.0000
 32
-39.0000
 13
-45.0000
 23
0.0000
 33
-39.0000
  0
3DFACE
  5
10A1
  8
0
 10
-45.0000
 20
6.0000
 30
-45.0000
 11
-39.0000
 21
6.0000
 31
-45.0000
 12
-39.0000
 22
6.0000
 32
-39.0000
 13
-45.0000
 23
6.0000
 33
-39.0000
  0
3DFACE
  5
10A2
  8
0
 10
-45.0000
 20
0.0000
 30
-45.0000
 11
-45.0000
 21
6.0000
 31
-45.0000
 12
-45.0000
 22
6.0000
 32
-39.0000
 13
-45.0000
 23
0.0000
 33
-39.0000
  0
3DFACE
  5
10A3
  8
0
 10
-39.0000
 20
0.0000
 30
-45.0000
 11
-39.0000
 21
6.0000
 31
-45.0000
 12
-39.0000
 22
6.0000
 32
-39.0000
 13
-39.0000
 23
0.0000
 33
-39.0000
  0
3DFACE
  5
10A4
  8
0
 10
39.0000
 20
0.0000
 30
-45.0000
 11
45.0000
 21
0.0000
 31
-45.0000
 12
45.0000
 22
6.0000
 32
-45.0000
 13
39.0000
 23
6.0000
 33
-45.0000
  0
3DFACE
  5
10A5
  8
0
 10
39.0000
 20
0.0000
 30
-39.0000
 11
45.0000
 21
0.0000
 31
-39.0000
 12
45.0000
 22
6.0000
 32
-39.0000
 13
39.0000
 23
6.0000
 33
-39.0000
  0
3DFACE
  5
10A6
  8
0
 10
39.0000
 20
0.0000
 30
-45.0000
 11
45.0000
 21
0.0000
 31
-45.0000
 12
45.0000
 22
0.0000
 32
-39.0000
 13
39.0000
 23
0.0000
 33
-39.0000
  0
3DFACE
  5
10A7
  8
0
 10
39.0000
 20
6.0000
 30
-45.0000
 11
45.0000
 21
6.0000
 31
-45.0000
 12
45.0000
 22
6.0000
 32
-39.0000
 13
39.0000
 23
6.0000
 33
-39.0000
  0
3DFACE
  5
10A8
  8
0
 10
39.0000
 20
0.0000
 30
-45.0000
 11
39.0000
 21
6.0000
 31
-45.0000
 12
39.0000
 22
6.0000
 32
-39.0000
 13
39.0000
 23
0.0000
 33
-39.0000
  0
3DFACE
  5
10A9
  8
0
 10
45.0000
 20
0.0000
 30
-45.0000
 11
45.0000
 21
6.0000
 31
-45.0000
 12
45.0000
 22
6.0000
 32
-39.0000
 13
45.0000
 23
0.0000
 33
-39.0000
  0
3DFACE
  5
10AA
  8
0
 10
-45.0000
 20
0.0000
 30
39.0000
 11
-39.0000
 21
0.0000
 31
39.0000
 12
-39.0000
 22
6.0000
 32
39.0000
 13
-45.0000
 23
6.0000
 33
39.0000
  0
3DFACE
  5
10AB
  8
0
 10
-45.0000
 20
0.0000
 30
45.0000
 11
-39.0000
 21
0.0000
 31
45.0000
 12
-39.0000
 22
6.0000
 32
45.0000
 13
-45.0000
 23
6.0000
 33
45.0000
  0
3DFACE
  5
10AC
  8
0
 10
-45.0000
 20
0.0000
 30
39.0000
 11
-39.0000
 21
0.0000
 31
39.0000
 12
-39.0000
 22
0.0000
 32
45.0000
 13
-45.0000
 23
0.0000
 33
45.0000
  0
3DFACE
  5
10AD
  8
0
 10
-45.0000
 20
6.0000
 30
39.0000
 11
-39.0000
 21
6.0000
 31
39.0000
 12
-39.0000
 22
6.0000
 32
45.0000
 13
-45.0000
 23
6.0000
 33
45.0000
  0
3DFACE
  5
10AE
  8
0
 10
-45.0000
 20
0.0000
 30
39.0000
 11
-45.0000
 21
6.0000
 31
39.0000
 12
-45.0000
 22
6.0000
 32
45.0000
 13
-45.0000
 23
0.0000
 33
45.0000
  0
3DFACE
  5
10AF
  8
0
 10
-39.0000
 20
0.0000
 30
39.0000
 11
-39.0000
 21
6.0000
 31
39.0000
 12
-39.0000
 22
6.0000
 32
45.0000
 13
-39.0000
 23
0.0000
 33
45.0000
  0
3DFACE
  5
10B0
  8
0
 10
39.0000
 20
0.0000
 30
39.0000
 11
45.0000
 21
0.0000
 31
39.0000
 12
45.0000
 22
6.0000
 32
39.0000
 13
39.0000
 23
6.0000
 33
39.0000
  0
3DFACE
  5
10B1
  8
0
 10
39.0000
 20
0.0000
 30
45.0000
 11
45.0000
 21
0.0000
 31
45.0000
 12
45.0000
 22
6.0000
 32
45.0000
 13
39.0000
 23
6.0000
 33
45.0000
  0
3DFACE
  5
10B2
  8
0
 10
39.0000
 20
0.0000
 30
39.0000
 11
45.0000
 21
0.0000
 31
39.0000
 12
45.0000
 22
0.0000
 32
45.0000
 13
39.0000
 23
0.0000
 33
45.0000
  0
3DFACE
  5
10B3
  8
0
 10
39.0000
 20
6.0000
 30
39.0000
 11
45.0000
 21
6.0000
 31
39.0000
 12
45.0000
 22
6.0000
 32
45.0000
 13
39.0000
 23
6.0000
 33
45.0000
  0
3DFACE
  5
10B4
  8
0
 10
39.0000
 20
0.0000
 30
39.0000
 11
39.0000
 21
6.0000
 31
39.0000
 12
39.0000
 22
6.0000
 32
45.0000
 13
39.0000
 23
0.0000
 33
45.0000
  0
3DFACE
  5
10B5
  8
0
 10
45.0000
 20
0.0000
 30
39.0000
 11
45.0000
 21
6.0000
 31
39.0000
 12
45.0000
 22
6.0000
 32
45.0000
 13
45.0000
 23
0.0000
 33
45.0000
  0
ENDBLK
  5
10B6
  8
0
  0
BLOCK
  8
0
  2
CONTROLBOX
 70
0
 10
0.0000
 20
0.0000
 30
0.0000
  0
3DFACE
  5
10B7
  8
0
 10
-100.0000
 20
-40.0000
 30
-150.0000
 11
100.0000
 21
-40.0000
 31
-150.0000
 12
100.0000
 22
0.0000
 32
-150.0000
 13
-100.0000
 23
0.0000
 33
-150.0000
  0
3DFACE
  5
10B8
  8
0
 10
-100.0000
 20
-40.0000
 30
150.0000
 11
100.0000
 21
-40.0000
 31
150.0000
 12
100.0000
 22
0.0000
 32
150.0000
 13
-100.0000
 23
0.0000
 33
150.0000
  0
3DFACE
  5
10B9
  8
0
 10
-100.0000
 20
-40.0000
 30
-150.0000
 11
100.0000
 21
-40.0000
 31
-150.0000
 12
100.0000
 22
-40.0000
 32
150.0000
 13
-100.0000
 23
-40.0000
 33
150.0000
  0
3DFACE
  5
10BA
  8
0
 10
-100.0000
 20
0.0000
 30
-150.0000
 11
100.0000
 21
0.0000
 31
-150.0000
 12
100.0000
 22
0.0000
 32
150.0000
 13
-100.0000
 23
0.0000
 33
150.0000
  0
3DFACE
  5
10BB
  8
0
 10
-100.0000
 20
-40.0000
 30
-150.0000
 11
-100.0000
 21
0.0000
 31
-150.0000
 12
-100.0000
 22
0.0000
 32
150.0000
 13
-100.0000
 23
-40.0000
 33
150.0000
  0
3DFACE
  5
10BC
  8
0
 10
100.0000
 20
-40.0000
 30
-150.0000
 11
100.0000
 21
0.0000
 31
-150.0000
 12
100.0000
 22
0.0000
 32
150.0000
 13
100.0000
 23
-40.0000
 33
150.0000
  0
3DFACE
  5
10BD
  8
0
 10
-96.0000
 20
0.0000
 30
-146.0000
 11
96.0000
 21
0.0000
 31
-146.0000
 12
96.0000
 22
10.0000
 32
-146.0000
 13
-96.0000
 23
10.0000
 33
-146.0000
  0
3DFACE
  5
10BE
  8
0
 10
-96.0000
 20
0.0000
 30
146.0000
 11
96.0000
 21
0.0000
 31
146.0000
 12
96.0000
 22
10.0000
 32
146.0000
 13
-96.0000
 23
10.0000
 33
146.0000
  0
3DFACE
  5
10BF
  8
0
 10
-96.0000
 20
0.0000
 30
-146.0000
 11
96.0000
 21
0.0000
 31
-146.0000
 12
96.0000
 22
0.0000
 32
146.0000
 13
-96.0000
 23
0.0000
 33
146.0000
  0
3DFACE
  5
10C0
  8
0
 10
-96.0000
 20
10.0000
 30
-146.0000
 11
96.0000
 21
10.0000
 31
-146.0000
 12
96.0000
 22
10.0000
 32
146.0000
 13
-96.0000
 23
10.0000
 33
146.0000
  0
3DFACE
  5
10C1
  8
0
 10
-96.0000
 20
0.0000
 30
-146.0000
 11
-96.0000
 21
10.0000
 31
-146.0000
 12
-96.0000
 22
10.0000
 32
146.0000
 13
-96.0000
 23
0.0000
 33
146.0000
  0
3DFACE
  5
10C2
  8
0
 10
96.0000
 20
0.0000
 30
-146.0000
 11
96.0000
 21
10.0000
 31
-146.0000
 12
96.0000
 22
10.0000
 32
146.0000
 13
96.0000
 23
0.0000
 33
146.0000
  0
ENDBLK
  5
10C3
  8
0
  0
ENDSEC
  0
SECTION
  2
ENTITIES
  0
3DFACE
  5
1000
  8
Const_Floor
 10
3980.0000
 20
-2210.0000
 30
0.0000
 11
3980.0000
 21
-3023.0000
 31
0.0000
 12
5116.0000
 22
-3023.0000
 32
0.0000
 13
5116.0000
 23
-3023.0000
 33
0.0000
 70
15
  0
3DFACE
  5
1001
  8
Const_Floor
 10
3980.0000
 20
-2210.0000
 30
-40.0000
 11
5116.0000
 21
-3023.0000
 31
-40.0000
 12
3980.0000
 22
-3023.0000
 32
-40.0000
 13
3980.0000
 23
-3023.0000
 33
-40.0000
 70
15
  0
3DFACE
  5
1002
  8
Const_Floor
 10
5116.0000
 20
-3023.0000
 30
0.0000
 11
5116.0000
 21
-2210.0000
 31
0.0000
 12
3980.0000
 22
-2210.0000
 32
0.0000
 13
3980.0000
 23
-2210.0000
 33
0.0000
 70
15
  0
3DFACE
  5
1003
  8
Const_Floor
 10
5116.0000
 20
-3023.0000
 30
-40.0000
 11
3980.0000
 21
-2210.0000
 31
-40.0000
 12
5116.0000
 22
-2210.0000
 32
-40.0000
 13
5116.0000
 23
-2210.0000
 33
-40.0000
 70
15
  0
3DFACE
  5
1004
  8
Const_Floor
 10
3980.0000
 20
-3023.0000
 30
-40.0000
 11
5116.0000
 21
-3023.0000
 31
-40.0000
 12
5116.0000
 22
-3023.0000
 32
0.0000
 13
3980.0000
 23
-3023.0000
 33
0.0000
 70
15
  0
3DFACE
  5
1005
  8
Const_Floor
 10
5116.0000
 20
-3023.0000
 30
-40.0000
 11
5116.0000
 21
-2210.0000
 31
-40.0000
 12
5116.0000
 22
-2210.0000
 32
0.0000
 13
5116.0000
 23
-3023.0000
 33
0.0000
 70
15
  0
3DFACE
  5
1006
  8
Const_Floor
 10
5116.0000
 20
-2210.0000
 30
-40.0000
 11
3980.0000
 21
-2210.0000
 31
-40.0000
 12
3980.0000
 22
-2210.0000
 32
0.0000
 13
5116.0000
 23
-2210.0000
 33
0.0000
 70
15
  0
3DFACE
  5
1007
  8
Const_Floor
 10
3980.0000
 20
-2210.0000
 30
-40.0000
 11
3980.0000
 21
-3023.0000
 31
-40.0000
 12
3980.0000
 22
-3023.0000
 32
0.0000
 13
3980.0000
 23
-2210.0000
 33
0.0000
 70
15
  0
3DFACE
  5
1008
  8
Const_Walls
 10
3930.0000
 20
-3023.0000
 30
0.0000
 11
3930.0000
 21
-2160.0000
 31
0.0000
 12
4030.0000
 22
-2160.0000
 32
0.0000
 13
4030.0000
 23
-3023.0000
 33
0.0000
 70
15
  0
3DFACE
  5
1009
  8
Const_Walls
 10
3930.0000
 20
-3023.0000
 30
2780.0000
 11
3930.0000
 21
-2160.0000
 31
2780.0000
 12
4030.0000
 22
-2160.0000
 32
2780.0000
 13
4030.0000
 23
-3023.0000
 33
2780.0000
 70
15
  0
3DFACE
  5
100A
  8
Const_Walls
 10
3930.0000
 20
-3023.0000
 30
0.0000
 11
3930.0000
 21
-2160.0000
 31
0.0000
 12
3930.0000
 22
-2160.0000
 32
2780.0000
 13
3930.0000
 23
-3023.0000
 33
2780.0000
 70
15
  0
3DFACE
  5
100B
  8
Const_Walls
 10
3930.0000
 20
-2160.0000
 30
0.0000
 11
4030.0000
 21
-2160.0000
 31
0.0000
 12
4030.0000
 22
-2160.0000
 32
2780.0000
 13
3930.0000
 23
-2160.0000
 33
2780.0000
 70
15
  0
3DFACE
  5
100C
  8
Const_Walls
 10
4030.0000
 20
-2160.0000
 30
0.0000
 11
4030.0000
 21
-3023.0000
 31
0.0000
 12
4030.0000
 22
-3023.0000
 32
2780.0000
 13
4030.0000
 23
-2160.0000
 33
2780.0000
 70
15
  0
3DFACE
  5
100D
  8
Const_Walls
 10
4030.0000
 20
-3023.0000
 30
0.0000
 11
3930.0000
 21
-3023.0000
 31
0.0000
 12
3930.0000
 22
-3023.0000
 32
2780.0000
 13
4030.0000
 23
-3023.0000
 33
2780.0000
 70
15
  0
3DFACE
  5
100E
  8
Const_Walls
 10
3930.0000
 20
-2160.0000
 30
0.0000
 11
5166.0000
 21
-2160.0000
 31
0.0000
 12
5166.0000
 22
-2260.0000
 32
0.0000
 13
3930.0000
 23
-2260.0000
 33
0.0000
 70
15
  0
3DFACE
  5
100F
  8
Const_Walls
 10
3930.0000
 20
-2160.0000
 30
2780.0000
 11
5166.0000
 21
-2160.0000
 31
2780.0000
 12
5166.0000
 22
-2260.0000
 32
2780.0000
 13
3930.0000
 23
-2260.0000
 33
2780.0000
 70
15
  0
3DFACE
  5
1010
  8
Const_Walls
 10
3930.0000
 20
-2160.0000
 30
0.0000
 11
5166.0000
 21
-2160.0000
 31
0.0000
 12
5166.0000
 22
-2160.0000
 32
2780.0000
 13
3930.0000
 23
-2160.0000
 33
2780.0000
 70
15
  0
3DFACE
  5
1011
  8
Const_Walls
 10
5166.0000
 20
-2160.0000
 30
0.0000
 11
5166.0000
 21
-2260.0000
 31
0.0000
 12
5166.0000
 22
-2260.0000
 32
2780.0000
 13
5166.0000
 23
-2160.0000
 33
2780.0000
 70
15
  0
3DFACE
  5
1012
  8
Const_Walls
 10
5166.0000
 20
-2260.0000
 30
0.0000
 11
3930.0000
 21
-2260.0000
 31
0.0000
 12
3930.0000
 22
-2260.0000
 32
2780.0000
 13
5166.0000
 23
-2260.0000
 33
2780.0000
 70
15
  0
3DFACE
  5
1013
  8
Const_Walls
 10
3930.0000
 20
-2260.0000
 30
0.0000
 11
3930.0000
 21
-2160.0000
 31
0.0000
 12
3930.0000
 22
-2160.0000
 32
2780.0000
 13
3930.0000
 23
-2260.0000
 33
2780.0000
 70
15
  0
3DFACE
  5
1014
  8
Const_Walls
 10
5166.0000
 20
-2160.0000
 30
0.0000
 11
5166.0000
 21
-2814.0000
 31
0.0000
 12
5066.0000
 22
-2814.0000
 32
0.0000
 13
5066.0000
 23
-2160.0000
 33
0.0000
 70
15
  0
3DFACE
  5
1015
  8
Const_Walls
 10
5166.0000
 20
-2160.0000
 30
2780.0000
 11
5166.0000
 21
-2814.0000
 31
2780.0000
 12
5066.0000
 22
-2814.0000
 32
2780.0000
 13
5066.0000
 23
-2160.0000
 33
2780.0000
 70
15
  0
3DFACE
  5
1016
  8
Const_Walls
 10
5166.0000
 20
-2160.0000
 30
0.0000
 11
5166.0000
 21
-2814.0000
 31
0.0000
 12
5166.0000
 22
-2814.0000
 32
2780.0000
 13
5166.0000
 23
-2160.0000
 33
2780.0000
 70
15
  0
3DFACE
  5
1017
  8
Const_Walls
 10
5166.0000
 20
-2814.0000
 30
0.0000
 11
5066.0000
 21
-2814.0000
 31
0.0000
 12
5066.0000
 22
-2814.0000
 32
2780.0000
 13
5166.0000
 23
-2814.0000
 33
2780.0000
 70
15
  0
3DFACE
  5
1018
  8
Const_Walls
 10
5066.0000
 20
-2814.0000
 30
0.0000
 11
5066.0000
 21
-2160.0000
 31
0.0000
 12
5066.0000
 22
-2160.0000
 32
2780.0000
 13
5066.0000
 23
-2814.0000
 33
2780.0000
 70
15
  0
3DFACE
  5
1019
  8
Const_Walls
 10
5066.0000
 20
-2160.0000
 30
0.0000
 11
5166.0000
 21
-2160.0000
 31
0.0000
 12
5166.0000
 22
-2160.0000
 32
2780.0000
 13
5066.0000
 23
-2160.0000
 33
2780.0000
 70
15
  0
INSERT
  5
101A
  8
Plumbing
  2
Faucet
 10
4151.0000
 20
-2210.0000
 30
205.0000
 41
1.0000
 42
1.0000
 43
1.0000
 50
0.0000
  0
3DFACE
  5
101B
  8
Elem_Plumbing
 10
4141.0000
 20
-2280.0000
 30
205.0000
 11
4161.0000
 21
-2280.0000
 31
205.0000
 12
4161.0000
 22
-2260.0000
 32
205.0000
 13
4141.0000
 23
-2260.0000
 33
205.0000
 70
15
  0
3DFACE
  5
101C
  8
Elem_Plumbing
 10
4141.0000
 20
-2280.0000
 30
225.0000
 11
4161.0000
 21
-2280.0000
 31
225.0000
 12
4161.0000
 22
-2260.0000
 32
225.0000
 13
4141.0000
 23
-2260.0000
 33
225.0000
 70
15
  0
3DFACE
  5
101D
  8
Elem_Plumbing
 10
4141.0000
 20
-2280.0000
 30
205.0000
 11
4161.0000
 21
-2280.0000
 31
205.0000
 12
4161.0000
 22
-2280.0000
 32
225.0000
 13
4141.0000
 23
-2280.0000
 33
225.0000
 70
15
  0
3DFACE
  5
101E
  8
Elem_Plumbing
 10
4161.0000
 20
-2280.0000
 30
205.0000
 11
4161.0000
 21
-2260.0000
 31
205.0000
 12
4161.0000
 22
-2260.0000
 32
225.0000
 13
4161.0000
 23
-2280.0000
 33
225.0000
 70
15
  0
3DFACE
  5
101F
  8
Elem_Plumbing
 10
4161.0000
 20
-2260.0000
 30
205.0000
 11
4141.0000
 21
-2260.0000
 31
205.0000
 12
4141.0000
 22
-2260.0000
 32
225.0000
 13
4161.0000
 23
-2260.0000
 33
225.0000
 70
15
  0
3DFACE
  5
1020
  8
Elem_Plumbing
 10
4141.0000
 20
-2260.0000
 30
205.0000
 11
4141.0000
 21
-2280.0000
 31
205.0000
 12
4141.0000
 22
-2280.0000
 32
225.0000
 13
4141.0000
 23
-2260.0000
 33
225.0000
 70
15
  0
TEXT
  5
1021
  8
Elem_Label
 10
4141.0000
 20
-2270.0000
 30
265.0000
 40
70.0000
 50
0.0000
  1
Faucet
  7
STANDARD
  0
INSERT
  5
1022
  8
Electrical
  2
Socket
 10
4599.0000
 20
-2210.0000
 30
363.0000
 41
1.0000
 42
1.0000
 43
1.0000
 50
0.0000
  0
3DFACE
  5
1023
  8
Elem_Electrical
 10
4559.0000
 20
-2275.0000
 30
363.0000
 11
4639.0000
 21
-2275.0000
 31
363.0000
 12
4639.0000
 22
-2260.0000
 32
363.0000
 13
4559.0000
 23
-2260.0000
 33
363.0000
 70
15
  0
3DFACE
  5
1024
  8
Elem_Electrical
 10
4559.0000
 20
-2275.0000
 30
443.0000
 11
4639.0000
 21
-2275.0000
 31
443.0000
 12
4639.0000
 22
-2260.0000
 32
443.0000
 13
4559.0000
 23
-2260.0000
 33
443.0000
 70
15
  0
3DFACE
  5
1025
  8
Elem_Electrical
 10
4559.0000
 20
-2275.0000
 30
363.0000
 11
4639.0000
 21
-2275.0000
 31
363.0000
 12
4639.0000
 22
-2275.0000
 32
443.0000
 13
4559.0000
 23
-2275.0000
 33
443.0000
 70
15
  0
3DFACE
  5
1026
  8
Elem_Electrical
 10
4639.0000
 20
-2275.0000
 30
363.0000
 11
4639.0000
 21
-2260.0000
 31
363.0000
 12
4639.0000
 22
-2260.0000
 32
443.0000
 13
4639.0000
 23
-2275.0000
 33
443.0000
 70
15
  0
3DFACE
  5
1027
  8
Elem_Electrical
 10
4639.0000
 20
-2260.0000
 30
363.0000
 11
4559.0000
 21
-2260.0000
 31
363.0000
 12
4559.0000
 22
-2260.0000
 32
443.0000
 13
4639.0000
 23
-2260.0000
 33
443.0000
 70
15
  0
3DFACE
  5
1028
  8
Elem_Electrical
 10
4559.0000
 20
-2260.0000
 30
363.0000
 11
4559.0000
 21
-2275.0000
 31
363.0000
 12
4559.0000
 22
-2275.0000
 32
443.0000
 13
4559.0000
 23
-2260.0000
 33
443.0000
 70
15
  0
TEXT
  5
1029
  8
Elem_Label
 10
4559.0000
 20
-2267.5000
 30
483.0000
 40
70.0000
 50
0.0000
  1
Socket
  7
STANDARD
  0
INSERT
  5
102A
  8
Plumbing
  2
Sewage
 10
4236.0000
 20
-2210.0000
 30
185.0000
 41
1.0000
 42
1.0000
 43
1.0000
 50
0.0000
  0
3DFACE
  5
102B
  8
Elem_Plumbing
 10
4211.0000
 20
-2310.0000
 30
185.0000
 11
4261.0000
 21
-2310.0000
 31
185.0000
 12
4261.0000
 22
-2260.0000
 32
185.0000
 13
4211.0000
 23
-2260.0000
 33
185.0000
 70
15
  0
3DFACE
  5
102C
  8
Elem_Plumbing
 10
4211.0000
 20
-2310.0000
 30
235.0000
 11
4261.0000
 21
-2310.0000
 31
235.0000
 12
4261.0000
 22
-2260.0000
 32
235.0000
 13
4211.0000
 23
-2260.0000
 33
235.0000
 70
15
  0
3DFACE
  5
102D
  8
Elem_Plumbing
 10
4211.0000
 20
-2310.0000
 30
185.0000
 11
4261.0000
 21
-2310.0000
 31
185.0000
 12
4261.0000
 22
-2310.0000
 32
235.0000
 13
4211.0000
 23
-2310.0000
 33
235.0000
 70
15
  0
3DFACE
  5
102E
  8
Elem_Plumbing
 10
4261.0000
 20
-2310.0000
 30
185.0000
 11
4261.0000
 21
-2260.0000
 31
185.0000
 12
4261.0000
 22
-2260.0000
 32
235.0000
 13
4261.0000
 23
-2310.0000
 33
235.0000
 70
15
  0
3DFACE
  5
102F
  8
Elem_Plumbing
 10
4261.0000
 20
-2260.0000
 30
185.0000
 11
4211.0000
 21
-2260.0000
 31
185.0000
 12
4211.0000
 22
-2260.0000
 32
235.0000
 13
4261.0000
 23
-2260.0000
 33
235.0000
 70
15
  0
3DFACE
  5
1030
  8
Elem_Plumbing
 10
4211.0000
 20
-2260.0000
 30
185.0000
 11
4211.0000
 21
-2310.0000
 31
185.0000
 12
4211.0000
 22
-2310.0000
 32
235.0000
 13
4211.0000
 23
-2260.0000
 33
235.0000
 70
15
  0
TEXT
  5
1031
  8
Elem_Label
 10
4211.0000
 20
-2285.0000
 30
275.0000
 40
70.0000
 50
0.0000
  1
Sewage
  7
STANDARD
  0
INSERT
  5
1032
  8
Electrical
  2
ControlBox
 10
4743.0000
 20
-2210.0000
 30
373.0000
 41
1.0000
 42
1.0000
 43
1.0000
 50
0.0000
  0
3DFACE
  5
1033
  8
Elem_Electrical
 10
4733.0000
 20
-2360.0000
 30
373.0000
 11
4753.0000
 21
-2360.0000
 31
373.0000
 12
4753.0000
 22
-2260.0000
 32
373.0000
 13
4733.0000
 23
-2260.0000
 33
373.0000
 70
15
  0
3DFACE
  5
1034
  8
Elem_Electrical
 10
4733.0000
 20
-2360.0000
 30
393.0000
 11
4753.0000
 21
-2360.0000
 31
393.0000
 12
4753.0000
 22
-2260.0000
 32
393.0000
 13
4733.0000
 23
-2260.0000
 33
393.0000
 70
15
  0
3DFACE
  5
1035
  8
Elem_Electrical
 10
4733.0000
 20
-2360.0000
 30
373.0000
 11
4753.0000
 21
-2360.0000
 31
373.0000
 12
4753.0000
 22
-2360.0000
 32
393.0000
 13
4733.0000
 23
-2360.0000
 33
393.0000
 70
15
  0
3DFACE
  5
1036
  8
Elem_Electrical
 10
4753.0000
 20
-2360.0000
 30
373.0000
 11
4753.0000
 21
-2260.0000
 31
373.0000
 12
4753.0000
 22
-2260.0000
 32
393.0000
 13
4753.0000
 23
-2360.0000
 33
393.0000
 70
15
  0
3DFACE
  5
1037
  8
Elem_Electrical
 10
4753.0000
 20
-2260.0000
 30
373.0000
 11
4733.0000
 21
-2260.0000
 31
373.0000
 12
4733.0000
 22
-2260.0000
 32
393.0000
 13
4753.0000
 23
-2260.0000
 33
393.0000
 70
15
  0
3DFACE
  5
1038
  8
Elem_Electrical
 10
4733.0000
 20
-2260.0000
 30
373.0000
 11
4733.0000
 21
-2360.0000
 31
373.0000
 12
4733.0000
 22
-2360.0000
 32
393.0000
 13
4733.0000
 23
-2260.0000
 33
393.0000
 70
15
  0
TEXT
  5
1039
  8
Elem_Label
 10
4733.0000
 20
-2310.0000
 30
433.0000
 40
70.0000
 50
0.0000
  1
Power Line
  7
STANDARD
  0
INSERT
  5
103A
  8
Electrical
  2
Socket
 10
4230.0000
 20
-2210.0000
 30
2289.0000
 41
1.0000
 42
1.0000
 43
1.0000
 50
0.0000
  0
3DFACE
  5
103B
  8
Elem_Electrical
 10
4190.0000
 20
-2275.0000
 30
2289.0000
 11
4270.0000
 21
-2275.0000
 31
2289.0000
 12
4270.0000
 22
-2260.0000
 32
2289.0000
 13
4190.0000
 23
-2260.0000
 33
2289.0000
 70
15
  0
3DFACE
  5
103C
  8
Elem_Electrical
 10
4190.0000
 20
-2275.0000
 30
2369.0000
 11
4270.0000
 21
-2275.0000
 31
2369.0000
 12
4270.0000
 22
-2260.0000
 32
2369.0000
 13
4190.0000
 23
-2260.0000
 33
2369.0000
 70
15
  0
3DFACE
  5
103D
  8
Elem_Electrical
 10
4190.0000
 20
-2275.0000
 30
2289.0000
 11
4270.0000
 21
-2275.0000
 31
2289.0000
 12
4270.0000
 22
-2275.0000
 32
2369.0000
 13
4190.0000
 23
-2275.0000
 33
2369.0000
 70
15
  0
3DFACE
  5
103E
  8
Elem_Electrical
 10
4270.0000
 20
-2275.0000
 30
2289.0000
 11
4270.0000
 21
-2260.0000
 31
2289.0000
 12
4270.0000
 22
-2260.0000
 32
2369.0000
 13
4270.0000
 23
-2275.0000
 33
2369.0000
 70
15
  0
3DFACE
  5
103F
  8
Elem_Electrical
 10
4270.0000
 20
-2260.0000
 30
2289.0000
 11
4190.0000
 21
-2260.0000
 31
2289.0000
 12
4190.0000
 22
-2260.0000
 32
2369.0000
 13
4270.0000
 23
-2260.0000
 33
2369.0000
 70
15
  0
3DFACE
  5
1040
  8
Elem_Electrical
 10
4190.0000
 20
-2260.0000
 30
2289.0000
 11
4190.0000
 21
-2275.0000
 31
2289.0000
 12
4190.0000
 22
-2275.0000
 32
2369.0000
 13
4190.0000
 23
-2260.0000
 33
2369.0000
 70
15
  0
TEXT
  5
1041
  8
Elem_Label
 10
4190.0000
 20
-2267.5000
 30
2409.0000
 40
70.0000
 50
0.0000
  1
Socket
  7
STANDARD
  0
ENDSEC
  0
EOF
