  0
SECTION
  2
HEADER
  9
$ACADVER
  1
AC1009
  9
$INSBASE
 10
0.0000
 20
0.0000
 30
0.0000
  9
$EXTMIN
 10
2330.0000
 20
-4673.0000
 30
0.0000
  9
$EXTMAX
 10
8166.0000
 20
-410.0000
 30
0.0000
  9
$DWGCODEPAGE
  3
ansi_1255
  9
$INSUNITS
 70
4
  9
$LTSCALE
 40
10.0000
  9
$LIMMIN
 10
0.0000
 20
0.0000
  9
$LIMMAX
 10
2000.0000
 20
200.0000
  0
ENDSEC
  0
SECTION
  2
TABLES
  0
TABLE
  2
VPORT
 70
1
  0
VPORT
  2
*ACTIVE
 70
0
 10
0.0000
 20
0.0000
 11
1.0000
 21
1.0000
 12
5248.0000
 22
-2541.5000
 13
0.0000
 23
0.0000
 14
10.0000
 24
10.0000
 15
10.0000
 25
10.0000
 16
0.0000
 26
0.0000
 36
1.0000
 17
0.0000
 27
0.0000
 37
0.0000
 40
4902.4500
 41
1.6000
 42
50.0000
 43
0.0000
 44
0.0000
 50
0.0000
 51
0.0000
 71
0
 72
100
 73
1
 74
1
 75
0
 76
0
 77
0
 78
0
  0
ENDTAB
  0
TABLE
  2
LTYPE
 70
2
  0
LTYPE
  2
CONTINUOUS
 70
0
  3
Solid line
 72
65
 73
0
 40
0.0000
  0
LTYPE
  2
HIDDEN
 70
0
  3
Hidden . . . . . .
 72
65
 73
2
 40
9.5250
 49
6.3500
 49
-3.1750
  0
ENDTAB
  0
TABLE
  2
LAYER
 70
29
  0
LAYER
  2
0
 70
0
 62
7
  6
CONTINUOUS
  0
LAYER
  2
Walls
 70
0
 62
7
  6
CONTINUOUS
  0
LAYER
  2
Ext_Wall
 70
0
 62
7
  6
CONTINUOUS
  0
LAYER
  2
Walls_Fill
 70
0
 62
8
  6
CONTINUOUS
  0
LAYER
  2
Const_Doors
 70
0
 62
5
  6
CONTINUOUS
  0
LAYER
  2
Const_Windows
 70
0
 62
152
  6
CONTINUOUS
  0
LAYER
  2
Electrical
 70
0
 62
6
  6
CONTINUOUS
  0
LAYER
  2
Dim_Power
 70
0
 62
6
  6
CONTINUOUS
  0
LAYER
  2
Plumbing
 70
0
 62
150
  6
CONTINUOUS
  0
LAYER
  2
Dim_Plumbing
 70
0
 62
150
  6
CONTINUOUS
  0
LAYER
  2
Gas
 70
0
 62
2
  6
CONTINUOUS
  0
LAYER
  2
Dim_Gas
 70
0
 62
2
  6
CONTINUOUS
  0
LAYER
  2
HVAC
 70
0
 62
4
  6
CONTINUOUS
  0
LAYER
  2
Dim_HVAC
 70
0
 62
4
  6
CONTINUOUS
  0
LAYER
  2
Lighting
 70
0
 62
30
  6
CONTINUOUS
  0
LAYER
  2
Dim_Lighting
 70
0
 62
30
  6
CONTINUOUS
  0
LAYER
  2
Structural
 70
0
 62
8
  6
CONTINUOUS
  0
LAYER
  2
Dim_Struct
 70
0
 62
8
  6
CONTINUOUS
  0
LAYER
  2
Misc
 70
0
 62
7
  6
CONTINUOUS
  0
LAYER
  2
Dim_Misc
 70
0
 62
7
  6
CONTINUOUS
  0
LAYER
  2
Cabinets
 70
0
 62
36
  6
CONTINUOUS
  0
LAYER
  2
Cabinets_Text
 70
0
 62
36
  6
CONTINUOUS
  0
LAYER
  2
DIM
 70
0
 62
9
  6
CONTINUOUS
  0
LAYER
  2
Dim_overall
 70
0
 62
9
  6
CONTINUOUS
  0
LAYER
  2
Text
 70
0
 62
74
  6
CONTINUOUS
  0
LAYER
  2
Text_Legend
 70
0
 62
74
  6
CONTINUOUS
  0
LAYER
  2
Text_Title
 70
0
 62
74
  6
CONTINUOUS
  0
LAYER
  2
PicNumber
 70
0
 62
74
  6
CONTINUOUS
  0
LAYER
  2
Frame
 70
0
 62
7
  6
CONTINUOUS
  0
ENDTAB
  0
TABLE
  2
STYLE
 70
1
  0
STYLE
  2
STANDARD
 70
0
 40
0.0000
 41
1.0000
 50
0.0000
 71
0
 42
2.5000
  3
ARIAL.TTF
  4

  0
ENDTAB
  0
ENDSEC
  0
SECTION
  2
BLOCKS
  0
BLOCK
  8
0
  2
WATER
 70
0
 10
0.0000
 20
0.0000
 30
0.0000
  0
LINE
  5
17F
  8
0
 10
0.0000
 20
0.0000
 30
0.0000
 11
0.0000
 21
24.0000
 31
0.0000
  0
ARC
  5
180
  8
0
 10
0.0000
 20
114.0000
 30
0.0000
 40
90.0000
 50
0.0000
 51
360.0000
  0
LINE
  5
181
  8
0
 10
-70.0000
 20
114.0000
 30
0.0000
 11
70.0000
 21
114.0000
 31
0.0000
  0
LINE
  5
182
  8
0
 10
0.0000
 20
44.0000
 30
0.0000
 11
0.0000
 21
184.0000
 31
0.0000
  0
ENDBLK
  5
183
  8
0
  0
BLOCK
  8
0
  2
SOCKET
 70
0
 10
0.0000
 20
0.0000
 30
0.0000
  0
LINE
  5
184
  8
0
 10
0.0000
 20
0.0000
 30
0.0000
 11
0.0000
 21
40.0000
 31
0.0000
  0
ARC
  5
185
  8
0
 10
0.0000
 20
130.0000
 30
0.0000
 40
90.0000
 50
0.0000
 51
360.0000
  0
LINE
  5
186
  8
0
 10
-90.0000
 20
130.0000
 30
0.0000
 11
90.0000
 21
130.0000
 31
0.0000
  0
LINE
  5
187
  8
0
 10
-30.0000
 20
104.0000
 30
0.0000
 11
-30.0000
 21
156.0000
 31
0.0000
  0
LINE
  5
188
  8
0
 10
30.0000
 20
104.0000
 30
0.0000
 11
30.0000
 21
156.0000
 31
0.0000
  0
ENDBLK
  5
189
  8
0
  0
BLOCK
  8
0
  2
DRAIN
 70
0
 10
0.0000
 20
0.0000
 30
0.0000
  0
LINE
  5
18A
  8
0
 10
0.0000
 20
0.0000
 30
0.0000
 11
0.0000
 21
20.0000
 31
0.0000
  0
ARC
  5
18B
  8
0
 10
0.0000
 20
110.0000
 30
0.0000
 40
90.0000
 50
0.0000
 51
360.0000
  0
LINE
  5
18C
  8
0
 10
-60.0000
 20
50.0000
 30
0.0000
 11
60.0000
 21
170.0000
 31
0.0000
  0
LINE
  5
18D
  8
0
 10
-60.0000
 20
170.0000
 30
0.0000
 11
60.0000
 21
50.0000
 31
0.0000
  0
ENDBLK
  5
18E
  8
0
  0
BLOCK
  8
0
  2
PANEL
 70
0
 10
0.0000
 20
0.0000
 30
0.0000
  0
LINE
  5
18F
  8
0
 10
-120.0000
 20
20.0000
 30
0.0000
 11
120.0000
 21
20.0000
 31
0.0000
  0
LINE
  5
190
  8
0
 10
120.0000
 20
20.0000
 30
0.0000
 11
120.0000
 21
200.0000
 31
0.0000
  0
LINE
  5
191
  8
0
 10
120.0000
 20
200.0000
 30
0.0000
 11
-120.0000
 21
200.0000
 31
0.0000
  0
LINE
  5
192
  8
0
 10
-120.0000
 20
200.0000
 30
0.0000
 11
-120.0000
 21
20.0000
 31
0.0000
  0
LINE
  5
193
  8
0
 10
-120.0000
 20
20.0000
 30
0.0000
 11
120.0000
 21
200.0000
 31
0.0000
  0
ENDBLK
  5
194
  8
0
  0
ENDSEC
  0
SECTION
  2
ENTITIES
  0
SOLID
  5
100
  8
Walls_Fill
 10
3930.0000
 20
-3023.0000
 30
0.0000
 11
3930.0000
 21
-2160.0000
 31
0.0000
 12
4030.0000
 22
-3023.0000
 32
0.0000
 13
4030.0000
 23
-2260.0000
 33
0.0000
  0
LINE
  5
101
  8
Ext_Wall
 10
3930.0000
 20
-3023.0000
 30
0.0000
 11
3930.0000
 21
-2160.0000
 31
0.0000
  0
LINE
  5
102
  8
Walls
 10
4030.0000
 20
-3023.0000
 30
0.0000
 11
4030.0000
 21
-2260.0000
 31
0.0000
  0
LINE
  5
103
  8
Walls
 10
3930.0000
 20
-3023.0000
 30
0.0000
 11
4030.0000
 21
-3023.0000
 31
0.0000
  0
SOLID
  5
104
  8
Walls_Fill
 10
3930.0000
 20
-2160.0000
 30
0.0000
 11
5166.0000
 21
-2160.0000
 31
0.0000
 12
4030.0000
 22
-2260.0000
 32
0.0000
 13
5066.0000
 23
-2260.0000
 33
0.0000
  0
LINE
  5
105
  8
Ext_Wall
 10
3930.0000
 20
-2160.0000
 30
0.0000
 11
5166.0000
 21
-2160.0000
 31
0.0000
  0
LINE
  5
106
  8
Walls
 10
4030.0000
 20
-2260.0000
 30
0.0000
 11
5066.0000
 21
-2260.0000
 31
0.0000
  0
SOLID
  5
107
  8
Walls_Fill
 10
5166.0000
 20
-2160.0000
 30
0.0000
 11
5166.0000
 21
-2814.0000
 31
0.0000
 12
5066.0000
 22
-2260.0000
 32
0.0000
 13
5066.0000
 23
-2814.0000
 33
0.0000
  0
LINE
  5
108
  8
Ext_Wall
 10
5166.0000
 20
-2160.0000
 30
0.0000
 11
5166.0000
 21
-2814.0000
 31
0.0000
  0
LINE
  5
109
  8
Walls
 10
5066.0000
 20
-2260.0000
 30
0.0000
 11
5066.0000
 21
-2814.0000
 31
0.0000
  0
LINE
  5
10A
  8
Walls
 10
5166.0000
 20
-2814.0000
 30
0.0000
 11
5066.0000
 21
-2814.0000
 31
0.0000
  0
INSERT
  5
10B
  8
Plumbing
  2
WATER
 10
4151.0000
 20
-2210.0000
 30
0.0000
 41
1.0000
 42
1.0000
 43
1.0000
 50
0.0000
  0
TEXT
  5
10C
  8
Text
 10
4151.0000
 20
-1980.0000
 30
0.0000
 40
49.2000
  1
Faucet
 50
0.0000
  7
STANDARD
 72
1
 73
2
 11
4151.0000
 21
-1980.0000
 31
0.0000
  0
TEXT
  5
10D
  8
Plumbing
 10
4221.0000
 20
-2150.0000
 30
0.0000
 40
49.2000
  1
H 20.5
 50
0.0000
  7
STANDARD
  0
INSERT
  5
10E
  8
Electrical
  2
SOCKET
 10
4599.0000
 20
-2210.0000
 30
0.0000
 41
1.0000
 42
1.0000
 43
1.0000
 50
0.0000
  0
TEXT
  5
10F
  8
Text
 10
4599.0000
 20
-1980.0000
 30
0.0000
 40
49.2000
  1
Socket
 50
0.0000
  7
STANDARD
 72
1
 73
2
 11
4599.0000
 21
-1980.0000
 31
0.0000
  0
TEXT
  5
110
  8
Electrical
 10
4669.0000
 20
-2150.0000
 30
0.0000
 40
49.2000
  1
H 36.3
 50
0.0000
  7
STANDARD
  0
INSERT
  5
111
  8
Plumbing
  2
DRAIN
 10
4236.0000
 20
-2210.0000
 30
0.0000
 41
1.0000
 42
1.0000
 43
1.0000
 50
0.0000
  0
TEXT
  5
112
  8
Text
 10
4236.0000
 20
-1980.0000
 30
0.0000
 40
49.2000
  1
Sewage
 50
0.0000
  7
STANDARD
 72
1
 73
2
 11
4236.0000
 21
-1980.0000
 31
0.0000
  0
TEXT
  5
113
  8
Plumbing
 10
4306.0000
 20
-2150.0000
 30
0.0000
 40
49.2000
  1
H 18.5
 50
0.0000
  7
STANDARD
  0
INSERT
  5
114
  8
Electrical
  2
PANEL
 10
4743.0000
 20
-2210.0000
 30
0.0000
 41
1.0000
 42
1.0000
 43
1.0000
 50
0.0000
  0
TEXT
  5
115
  8
Text
 10
4743.0000
 20
-1980.0000
 30
0.0000
 40
49.2000
  1
Power Line
 50
0.0000
  7
STANDARD
 72
1
 73
2
 11
4743.0000
 21
-1980.0000
 31
0.0000
  0
TEXT
  5
116
  8
Electrical
 10
4813.0000
 20
-2150.0000
 30
0.0000
 40
49.2000
  1
H 37.3
 50
0.0000
  7
STANDARD
  0
INSERT
  5
117
  8
Electrical
  2
SOCKET
 10
4230.0000
 20
-2210.0000
 30
0.0000
 41
1.0000
 42
1.0000
 43
1.0000
 50
0.0000
  0
TEXT
  5
118
  8
Text
 10
4230.0000
 20
-1980.0000
 30
0.0000
 40
49.2000
  1
Socket
 50
0.0000
  7
STANDARD
 72
1
 73
2
 11
4230.0000
 21
-1980.0000
 31
0.0000
  0
TEXT
  5
119
  8
Electrical
 10
4300.0000
 20
-2150.0000
 30
0.0000
 40
49.2000
  1
H 228.9
 50
0.0000
  7
STANDARD
  0
LINE
  5
11A
  8
DIM
 10
3980.0000
 20
-2170.0000
 30
0.0000
 11
3980.0000
 21
-1960.0000
 31
0.0000
  0
LINE
  5
11B
  8
DIM
 10
4151.0000
 20
-2170.0000
 30
0.0000
 11
4151.0000
 21
-1960.0000
 31
0.0000
  0
LINE
  5
11C
  8
DIM
 10
3980.0000
 20
-2010.0000
 30
0.0000
 11
4151.0000
 21
-2010.0000
 31
0.0000
  0
SOLID
  5
11D
  8
DIM
 10
3980.0000
 20
-2010.0000
 30
0.0000
 11
3910.0000
 21
-1992.0000
 31
0.0000
 12
3910.0000
 22
-2028.0000
 32
0.0000
 13
3910.0000
 23
-2028.0000
 33
0.0000
  0
SOLID
  5
11E
  8
DIM
 10
4151.0000
 20
-2010.0000
 30
0.0000
 11
4221.0000
 21
-1992.0000
 31
0.0000
 12
4221.0000
 22
-2028.0000
 32
0.0000
 13
4221.0000
 23
-2028.0000
 33
0.0000
  0
TEXT
  5
11F
  8
DIM
 10
4065.5000
 20
-1968.9600
 30
0.0000
 40
43.2000
  1
17.1
 50
0.0000
  7
STANDARD
 72
1
 73
2
 11
4065.5000
 21
-1968.9600
 31
0.0000
  0
LINE
  5
120
  8
DIM
 10
4151.0000
 20
-2170.0000
 30
0.0000
 11
4151.0000
 21
-1960.0000
 31
0.0000
  0
LINE
  5
121
  8
DIM
 10
4230.0000
 20
-2170.0000
 30
0.0000
 11
4230.0000
 21
-1960.0000
 31
0.0000
  0
LINE
  5
122
  8
DIM
 10
4151.0000
 20
-2010.0000
 30
0.0000
 11
4230.0000
 21
-2010.0000
 31
0.0000
  0
SOLID
  5
123
  8
DIM
 10
4151.0000
 20
-2010.0000
 30
0.0000
 11
4081.0000
 21
-1992.0000
 31
0.0000
 12
4081.0000
 22
-2028.0000
 32
0.0000
 13
4081.0000
 23
-2028.0000
 33
0.0000
  0
SOLID
  5
124
  8
DIM
 10
4230.0000
 20
-2010.0000
 30
0.0000
 11
4300.0000
 21
-1992.0000
 31
0.0000
 12
4300.0000
 22
-2028.0000
 32
0.0000
 13
4300.0000
 23
-2028.0000
 33
0.0000
  0
TEXT
  5
125
  8
DIM
 10
4190.5000
 20
-1968.9600
 30
0.0000
 40
43.2000
  1
7.9
 50
0.0000
  7
STANDARD
 72
1
 73
2
 11
4190.5000
 21
-1968.9600
 31
0.0000
  0
LINE
  5
126
  8
DIM
 10
4230.0000
 20
-2170.0000
 30
0.0000
 11
4230.0000
 21
-1960.0000
 31
0.0000
  0
LINE
  5
127
  8
DIM
 10
4599.0000
 20
-2170.0000
 30
0.0000
 11
4599.0000
 21
-1960.0000
 31
0.0000
  0
LINE
  5
128
  8
DIM
 10
4230.0000
 20
-2010.0000
 30
0.0000
 11
4599.0000
 21
-2010.0000
 31
0.0000
  0
SOLID
  5
129
  8
DIM
 10
4230.0000
 20
-2010.0000
 30
0.0000
 11
4160.0000
 21
-1992.0000
 31
0.0000
 12
4160.0000
 22
-2028.0000
 32
0.0000
 13
4160.0000
 23
-2028.0000
 33
0.0000
  0
SOLID
  5
12A
  8
DIM
 10
4599.0000
 20
-2010.0000
 30
0.0000
 11
4669.0000
 21
-1992.0000
 31
0.0000
 12
4669.0000
 22
-2028.0000
 32
0.0000
 13
4669.0000
 23
-2028.0000
 33
0.0000
  0
TEXT
  5
12B
  8
DIM
 10
4414.5000
 20
-1968.9600
 30
0.0000
 40
43.2000
  1
36.9
 50
0.0000
  7
STANDARD
 72
1
 73
2
 11
4414.5000
 21
-1968.9600
 31
0.0000
  0
LINE
  5
12C
  8
DIM
 10
4599.0000
 20
-2170.0000
 30
0.0000
 11
4599.0000
 21
-1960.0000
 31
0.0000
  0
LINE
  5
12D
  8
DIM
 10
4743.0000
 20
-2170.0000
 30
0.0000
 11
4743.0000
 21
-1960.0000
 31
0.0000
  0
LINE
  5
12E
  8
DIM
 10
4599.0000
 20
-2010.0000
 30
0.0000
 11
4743.0000
 21
-2010.0000
 31
0.0000
  0
SOLID
  5
12F
  8
DIM
 10
4599.0000
 20
-2010.0000
 30
0.0000
 11
4529.0000
 21
-1992.0000
 31
0.0000
 12
4529.0000
 22
-2028.0000
 32
0.0000
 13
4529.0000
 23
-2028.0000
 33
0.0000
  0
SOLID
  5
130
  8
DIM
 10
4743.0000
 20
-2010.0000
 30
0.0000
 11
4813.0000
 21
-1992.0000
 31
0.0000
 12
4813.0000
 22
-2028.0000
 32
0.0000
 13
4813.0000
 23
-2028.0000
 33
0.0000
  0
TEXT
  5
131
  8
DIM
 10
4671.0000
 20
-1968.9600
 30
0.0000
 40
43.2000
  1
14.4
 50
0.0000
  7
STANDARD
 72
1
 73
2
 11
4671.0000
 21
-1968.9600
 31
0.0000
  0
LINE
  5
132
  8
DIM
 10
4743.0000
 20
-2170.0000
 30
0.0000
 11
4743.0000
 21
-1960.0000
 31
0.0000
  0
LINE
  5
133
  8
DIM
 10
5116.0000
 20
-2170.0000
 30
0.0000
 11
5116.0000
 21
-1960.0000
 31
0.0000
  0
LINE
  5
134
  8
DIM
 10
4743.0000
 20
-2010.0000
 30
0.0000
 11
5116.0000
 21
-2010.0000
 31
0.0000
  0
SOLID
  5
135
  8
DIM
 10
4743.0000
 20
-2010.0000
 30
0.0000
 11
4673.0000
 21
-1992.0000
 31
0.0000
 12
4673.0000
 22
-2028.0000
 32
0.0000
 13
4673.0000
 23
-2028.0000
 33
0.0000
  0
SOLID
  5
136
  8
DIM
 10
5116.0000
 20
-2010.0000
 30
0.0000
 11
5186.0000
 21
-1992.0000
 31
0.0000
 12
5186.0000
 22
-2028.0000
 32
0.0000
 13
5186.0000
 23
-2028.0000
 33
0.0000
  0
TEXT
  5
137
  8
DIM
 10
4929.5000
 20
-1968.9600
 30
0.0000
 40
43.2000
  1
37.3
 50
0.0000
  7
STANDARD
 72
1
 73
2
 11
4929.5000
 21
-1968.9600
 31
0.0000
  0
LINE
  5
138
  8
DIM
 10
3940.0000
 20
-3023.0000
 30
0.0000
 11
3560.0000
 21
-3023.0000
 31
0.0000
  0
LINE
  5
139
  8
DIM
 10
3940.0000
 20
-2210.0000
 30
0.0000
 11
3560.0000
 21
-2210.0000
 31
0.0000
  0
LINE
  5
13A
  8
DIM
 10
3610.0000
 20
-3023.0000
 30
0.0000
 11
3610.0000
 21
-2210.0000
 31
0.0000
  0
SOLID
  5
13B
  8
DIM
 10
3610.0000
 20
-3023.0000
 30
0.0000
 11
3590.8000
 21
-3093.0000
 31
0.0000
 12
3629.2000
 22
-3093.0000
 32
0.0000
 13
3629.2000
 23
-3093.0000
 33
0.0000
  0
SOLID
  5
13C
  8
DIM
 10
3610.0000
 20
-2210.0000
 30
0.0000
 11
3590.8000
 21
-2140.0000
 31
0.0000
 12
3629.2000
 22
-2140.0000
 32
0.0000
 13
3629.2000
 23
-2140.0000
 33
0.0000
  0
TEXT
  5
13D
  8
DIM
 10
3553.0000
 20
-2616.5000
 30
0.0000
 40
60.0000
  1
81.3
 50
90.0000
  7
STANDARD
 72
1
 73
2
 11
3553.0000
 21
-2616.5000
 31
0.0000
  0
LINE
  5
13E
  8
DIM
 10
3980.0000
 20
-2170.0000
 30
0.0000
 11
3980.0000
 21
-1790.0000
 31
0.0000
  0
LINE
  5
13F
  8
DIM
 10
5116.0000
 20
-2170.0000
 30
0.0000
 11
5116.0000
 21
-1790.0000
 31
0.0000
  0
LINE
  5
140
  8
DIM
 10
3980.0000
 20
-1840.0000
 30
0.0000
 11
5116.0000
 21
-1840.0000
 31
0.0000
  0
SOLID
  5
141
  8
DIM
 10
3980.0000
 20
-1840.0000
 30
0.0000
 11
3910.0000
 21
-1820.8000
 31
0.0000
 12
3910.0000
 22
-1859.2000
 32
0.0000
 13
3910.0000
 23
-1859.2000
 33
0.0000
  0
SOLID
  5
142
  8
DIM
 10
5116.0000
 20
-1840.0000
 30
0.0000
 11
5186.0000
 21
-1820.8000
 31
0.0000
 12
5186.0000
 22
-1859.2000
 32
0.0000
 13
5186.0000
 23
-1859.2000
 33
0.0000
  0
TEXT
  5
143
  8
DIM
 10
4548.0000
 20
-1783.0000
 30
0.0000
 40
60.0000
  1
113.6
 50
0.0000
  7
STANDARD
 72
1
 73
2
 11
4548.0000
 21
-1783.0000
 31
0.0000
  0
LINE
  5
144
  8
DIM
 10
5156.0000
 20
-2210.0000
 30
0.0000
 11
5536.0000
 21
-2210.0000
 31
0.0000
  0
LINE
  5
145
  8
DIM
 10
5156.0000
 20
-2814.0000
 30
0.0000
 11
5536.0000
 21
-2814.0000
 31
0.0000
  0
LINE
  5
146
  8
DIM
 10
5486.0000
 20
-2210.0000
 30
0.0000
 11
5486.0000
 21
-2814.0000
 31
0.0000
  0
SOLID
  5
147
  8
DIM
 10
5486.0000
 20
-2210.0000
 30
0.0000
 11
5505.2000
 21
-2140.0000
 31
0.0000
 12
5466.8000
 22
-2140.0000
 32
0.0000
 13
5466.8000
 23
-2140.0000
 33
0.0000
  0
SOLID
  5
148
  8
DIM
 10
5486.0000
 20
-2814.0000
 30
0.0000
 11
5505.2000
 21
-2884.0000
 31
0.0000
 12
5466.8000
 22
-2884.0000
 32
0.0000
 13
5466.8000
 23
-2884.0000
 33
0.0000
  0
TEXT
  5
149
  8
DIM
 10
5543.0000
 20
-2512.0000
 30
0.0000
 40
60.0000
  1
60.4
 50
90.0000
  7
STANDARD
 72
1
 73
2
 11
5543.0000
 21
-2512.0000
 31
0.0000
  0
LINE
  5
14A
  8
Dim_overall
 10
3930.0000
 20
-3113.0000
 30
0.0000
 11
3930.0000
 21
-4223.0000
 31
0.0000
  0
LINE
  5
14B
  8
Dim_overall
 10
5166.0000
 20
-3113.0000
 30
0.0000
 11
5166.0000
 21
-4223.0000
 31
0.0000
  0
LINE
  5
14C
  8
Dim_overall
 10
3930.0000
 20
-4173.0000
 30
0.0000
 11
5166.0000
 21
-4173.0000
 31
0.0000
  0
SOLID
  5
14D
  8
Dim_overall
 10
3930.0000
 20
-4173.0000
 30
0.0000
 11
3860.0000
 21
-4192.2000
 31
0.0000
 12
3860.0000
 22
-4153.8000
 32
0.0000
 13
3860.0000
 23
-4153.8000
 33
0.0000
  0
SOLID
  5
14E
  8
Dim_overall
 10
5166.0000
 20
-4173.0000
 30
0.0000
 11
5236.0000
 21
-4192.2000
 31
0.0000
 12
5236.0000
 22
-4153.8000
 32
0.0000
 13
5236.0000
 23
-4153.8000
 33
0.0000
  0
TEXT
  5
14F
  8
Dim_overall
 10
4548.0000
 20
-4230.0000
 30
0.0000
 40
60.0000
  1
123.6
 50
0.0000
  7
STANDARD
 72
1
 73
2
 11
4548.0000
 21
-4230.0000
 31
0.0000
  0
LINE
  5
150
  8
Dim_overall
 10
3890.0000
 20
-3073.0000
 30
0.0000
 11
2780.0000
 21
-3073.0000
 31
0.0000
  0
LINE
  5
151
  8
Dim_overall
 10
3890.0000
 20
-2010.0000
 30
0.0000
 11
2780.0000
 21
-2010.0000
 31
0.0000
  0
LINE
  5
152
  8
Dim_overall
 10
2830.0000
 20
-3073.0000
 30
0.0000
 11
2830.0000
 21
-2010.0000
 31
0.0000
  0
SOLID
  5
153
  8
Dim_overall
 10
2830.0000
 20
-3073.0000
 30
0.0000
 11
2810.8000
 21
-3143.0000
 31
0.0000
 12
2849.2000
 22
-3143.0000
 32
0.0000
 13
2849.2000
 23
-3143.0000
 33
0.0000
  0
SOLID
  5
154
  8
Dim_overall
 10
2830.0000
 20
-2010.0000
 30
0.0000
 11
2810.8000
 21
-1940.0000
 31
0.0000
 12
2849.2000
 22
-1940.0000
 32
0.0000
 13
2849.2000
 23
-1940.0000
 33
0.0000
  0
TEXT
  5
155
  8
Dim_overall
 10
2773.0000
 20
-2541.5000
 30
0.0000
 40
60.0000
  1
106.3
 50
90.0000
  7
STANDARD
 72
1
 73
2
 11
2773.0000
 21
-2541.5000
 31
0.0000
  0
TEXT
  5
156
  8
Text
 10
4548.0000
 20
-2362.1667
 30
0.0000
 40
66.0000
  1
\U+05D7\U+05D3\U+05E8
 50
0.0000
  7
STANDARD
 72
1
 73
2
 11
4548.0000
 21
-2362.1667
 31
0.0000
  0
TEXT
  5
157
  8
PicNumber
 10
4548.0000
 20
-2482.1667
 30
0.0000
 40
78.0000
  1
P.1
 50
0.0000
  7
STANDARD
 72
1
 73
2
 11
4548.0000
 21
-2482.1667
 31
0.0000
  0
LINE
  5
158
  8
Frame
 10
6566.0000
 20
-2010.0000
 30
0.0000
 11
7766.0000
 21
-2010.0000
 31
0.0000
  0
LINE
  5
159
  8
Frame
 10
7766.0000
 20
-2010.0000
 30
0.0000
 11
7766.0000
 21
-2898.0000
 31
0.0000
  0
LINE
  5
15A
  8
Frame
 10
7766.0000
 20
-2898.0000
 30
0.0000
 11
6566.0000
 21
-2898.0000
 31
0.0000
  0
LINE
  5
15B
  8
Frame
 10
6566.0000
 20
-2898.0000
 30
0.0000
 11
6566.0000
 21
-2010.0000
 31
0.0000
  0
LINE
  5
15C
  8
Frame
 10
6566.0000
 20
-2166.0000
 30
0.0000
 11
7766.0000
 21
-2166.0000
 31
0.0000
  0
TEXT
  5
15D
  8
Text_Title
 10
7730.0000
 20
-2118.0000
 30
0.0000
 40
75.0000
  1
\U+05E1\U+05D5\U+05DC\U+05D9\U+05DF \U+2014 \U+05EA\U+05DB\U+05E0\U+05D9\U+05EA \U+05DE\U+05D3\U+05D9\U+05D3\U+05D4
 50
0.0000
  7
STANDARD
 72
2
 73
2
 11
7730.0000
 21
-2118.0000
 31
0.0000
  0
TEXT
  5
15E
  8
Text_Title
 10
7730.0000
 20
-2238.0000
 30
0.0000
 40
60.0000
  1
\U+05E4\U+05E8\U+05D5\U+05D9\U+05E7\U+05D8: mimran-5_Room1_Teveth_Roni_DR1
 50
0.0000
  7
STANDARD
 72
2
 73
2
 11
7730.0000
 21
-2238.0000
 31
0.0000
  0
TEXT
  5
15F
  8
Text_Title
 10
7730.0000
 20
-2358.0000
 30
0.0000
 40
60.0000
  1
\U+05DC\U+05E7\U+05D5\U+05D7: \U+2014
 50
0.0000
  7
STANDARD
 72
2
 73
2
 11
7730.0000
 21
-2358.0000
 31
0.0000
  0
TEXT
  5
160
  8
Text_Title
 10
7730.0000
 20
-2478.0000
 30
0.0000
 40
60.0000
  1
\U+05DB\U+05EA\U+05D5\U+05D1\U+05EA: \U+2014
 50
0.0000
  7
STANDARD
 72
2
 73
2
 11
7730.0000
 21
-2478.0000
 31
0.0000
  0
TEXT
  5
161
  8
Text_Title
 10
7730.0000
 20
-2598.0000
 30
0.0000
 40
60.0000
  1
\U+05DE\U+05D5\U+05D3\U+05D3: \U+2014
 50
0.0000
  7
STANDARD
 72
2
 73
2
 11
7730.0000
 21
-2598.0000
 31
0.0000
  0
TEXT
  5
162
  8
Text_Title
 10
7730.0000
 20
-2718.0000
 30
0.0000
 40
60.0000
  1
\U+05EA\U+05D0\U+05E8\U+05D9\U+05DA: 2026-08-21
 50
0.0000
  7
STANDARD
 72
2
 73
2
 11
7730.0000
 21
-2718.0000
 31
0.0000
  0
TEXT
  5
163
  8
Text_Title
 10
7730.0000
 20
-2838.0000
 30
0.0000
 40
60.0000
  1
\U+05E7\U+05E0"\U+05DE: 1:50   \U+05D9\U+05D7\U+05D9\U+05D3\U+05D5\U+05EA: \U+05DE"\U+05DE
 50
0.0000
  7
STANDARD
 72
2
 73
2
 11
7730.0000
 21
-2838.0000
 31
0.0000
  0
LINE
  5
164
  8
Frame
 10
6566.0000
 20
-3048.0000
 30
0.0000
 11
7526.0000
 21
-3048.0000
 31
0.0000
  0
LINE
  5
165
  8
Frame
 10
7526.0000
 20
-3048.0000
 30
0.0000
 11
7526.0000
 21
-3624.0000
 31
0.0000
  0
LINE
  5
166
  8
Frame
 10
7526.0000
 20
-3624.0000
 30
0.0000
 11
6566.0000
 21
-3624.0000
 31
0.0000
  0
LINE
  5
167
  8
Frame
 10
6566.0000
 20
-3624.0000
 30
0.0000
 11
6566.0000
 21
-3048.0000
 31
0.0000
  0
TEXT
  5
168
  8
Text_Legend
 10
7466.0000
 20
-3182.4000
 30
0.0000
 40
69.0000
  1
\U+05DE\U+05E7\U+05E8\U+05D0
 50
0.0000
  7
STANDARD
 72
2
 73
2
 11
7466.0000
 21
-3182.4000
 31
0.0000
  0
LINE
  5
169
  8
Plumbing
 10
6686.0000
 20
-3367.5000
 30
0.0000
 11
6686.0000
 21
-3353.1000
 31
0.0000
  0
ARC
  5
16A
  8
Plumbing
 10
6686.0000
 20
-3299.1000
 30
0.0000
 40
54.0000
 50
0.0000
 51
360.0000
  0
LINE
  5
16B
  8
Plumbing
 10
6644.0000
 20
-3299.1000
 30
0.0000
 11
6728.0000
 21
-3299.1000
 31
0.0000
  0
LINE
  5
16C
  8
Plumbing
 10
6686.0000
 20
-3341.1000
 30
0.0000
 11
6686.0000
 21
-3257.1000
 31
0.0000
  0
TEXT
  5
16D
  8
Text_Legend
 10
7466.0000
 20
-3336.0000
 30
0.0000
 40
60.0000
  1
\U+05D0\U+05D9\U+05E0\U+05E1\U+05D8\U+05DC\U+05E6\U+05D9\U+05D4 / \U+05DE\U+05D9\U+05DD
 50
0.0000
  7
STANDARD
 72
2
 73
2
 11
7466.0000
 21
-3336.0000
 31
0.0000
  0
LINE
  5
16E
  8
Electrical
 10
6686.0000
 20
-3559.5000
 30
0.0000
 11
6686.0000
 21
-3535.5000
 31
0.0000
  0
ARC
  5
16F
  8
Electrical
 10
6686.0000
 20
-3481.5000
 30
0.0000
 40
54.0000
 50
0.0000
 51
360.0000
  0
LINE
  5
170
  8
Electrical
 10
6632.0000
 20
-3481.5000
 30
0.0000
 11
6740.0000
 21
-3481.5000
 31
0.0000
  0
LINE
  5
171
  8
Electrical
 10
6668.0000
 20
-3497.1000
 30
0.0000
 11
6668.0000
 21
-3465.9000
 31
0.0000
  0
LINE
  5
172
  8
Electrical
 10
6704.0000
 20
-3497.1000
 30
0.0000
 11
6704.0000
 21
-3465.9000
 31
0.0000
  0
TEXT
  5
173
  8
Text_Legend
 10
7466.0000
 20
-3528.0000
 30
0.0000
 40
60.0000
  1
\U+05D7\U+05E9\U+05DE\U+05DC
 50
0.0000
  7
STANDARD
 72
2
 73
2
 11
7466.0000
 21
-3528.0000
 31
0.0000
  0
LINE
  5
174
  8
Frame
 10
7166.0000
 20
-3804.0000
 30
0.0000
 11
7166.0000
 21
-3504.0000
 31
0.0000
  0
SOLID
  5
175
  8
Frame
 10
7166.0000
 20
-3504.0000
 30
0.0000
 11
7136.0000
 21
-3564.0000
 31
0.0000
 12
7196.0000
 22
-3564.0000
 32
0.0000
 13
7196.0000
 23
-3564.0000
 33
0.0000
  0
TEXT
  5
176
  8
Frame
 10
7166.0000
 20
-3486.0000
 30
0.0000
 40
66.0000
  1
\U+05E6
 50
0.0000
  7
STANDARD
 72
1
 73
3
 11
7166.0000
 21
-3486.0000
 31
0.0000
  0
LINE
  5
177
  8
Frame
 10
6986.0000
 20
-3894.0000
 30
0.0000
 11
7786.0000
 21
-3894.0000
 31
0.0000
  0
LINE
  5
178
  8
Frame
 10
6986.0000
 20
-3894.0000
 30
0.0000
 11
6986.0000
 21
-3924.0000
 31
0.0000
  0
LINE
  5
179
  8
Frame
 10
7186.0000
 20
-3894.0000
 30
0.0000
 11
7186.0000
 21
-3924.0000
 31
0.0000
  0
LINE
  5
17A
  8
Frame
 10
7386.0000
 20
-3894.0000
 30
0.0000
 11
7386.0000
 21
-3924.0000
 31
0.0000
  0
LINE
  5
17B
  8
Frame
 10
7586.0000
 20
-3894.0000
 30
0.0000
 11
7586.0000
 21
-3924.0000
 31
0.0000
  0
LINE
  5
17C
  8
Frame
 10
7786.0000
 20
-3894.0000
 30
0.0000
 11
7786.0000
 21
-3924.0000
 31
0.0000
  0
TEXT
  5
17D
  8
Frame
 10
6986.0000
 20
-3990.0000
 30
0.0000
 40
42.0000
  1
0
 50
0.0000
  7
STANDARD
 72
1
 11
6986.0000
 21
-3990.0000
 31
0.0000
  0
TEXT
  5
17E
  8
Frame
 10
7786.0000
 20
-3990.0000
 30
0.0000
 40
42.0000
  1
0.8 \U+05DE\U+05F3
 50
0.0000
  7
STANDARD
 72
2
 11
7786.0000
 21
-3990.0000
 31
0.0000
  0
ENDSEC
  0
EOF
