  0
SECTION
  2
HEADER
  9
$ACADVER
  1
AC1009
  9
$INSBASE
 10
0.0000
 20
0.0000
 30
0.0000
  9
$EXTMIN
 10
-500.0000
 20
-4950.0000
 30
0.0000
  9
$EXTMAX
 10
4750.0000
 20
160.0000
 30
0.0000
  9
$DWGCODEPAGE
  3
ansi_1255
  9
$INSUNITS
 70
4
  9
$LTSCALE
 40
10.0000
  9
$LIMMIN
 10
0.0000
 20
0.0000
  9
$LIMMAX
 10
2000.0000
 20
200.0000
  0
ENDSEC
  0
SECTION
  2
TABLES
  0
TABLE
  2
VPORT
 70
1
  0
VPORT
  2
*ACTIVE
 70
0
 10
0.0000
 20
0.0000
 11
1.0000
 21
1.0000
 12
2125.0000
 22
-2395.0000
 13
0.0000
 23
0.0000
 14
10.0000
 24
10.0000
 15
10.0000
 25
10.0000
 16
0.0000
 26
0.0000
 36
1.0000
 17
0.0000
 27
0.0000
 37
0.0000
 40
5621.0000
 41
1.0000
 42
50.0000
 43
0.0000
 44
0.0000
 50
0.0000
 51
0.0000
 71
0
 72
100
 73
1
 74
1
 75
0
 76
0
 77
0
 78
0
  0
ENDTAB
  0
TABLE
  2
LTYPE
 70
2
  0
LTYPE
  2
CONTINUOUS
 70
0
  3
Solid line
 72
65
 73
0
 40
0.0000
  0
LTYPE
  2
HIDDEN
 70
0
  3
Hidden __ __ __ __ __ __ __ __ __ __ __ __ __ __
 72
65
 73
2
 40
0.3750
 49
0.2500
 49
-0.1250
  0
ENDTAB
  0
TABLE
  2
LAYER
 70
37
  0
LAYER
  2
0
 70
0
 62
7
  6
CONTINUOUS
  0
LAYER
  2
Electrical
 70
0
 62
6
  6
CONTINUOUS
  0
LAYER
  2
Plumbing
 70
0
 62
150
  6
CONTINUOUS
  0
LAYER
  2
Const_Walls
 70
0
 62
253
  6
CONTINUOUS
  0
LAYER
  2
Dim
 70
0
 62
9
  6
CONTINUOUS
  0
LAYER
  2
Text
 70
0
 62
74
  6
CONTINUOUS
  0
LAYER
  2
HVAC
 70
0
 62
4
  6
CONTINUOUS
  0
LAYER
  2
Misc
 70
0
 62
32
  6
HIDDEN
  0
LAYER
  2
Dim_Markers
 70
0
 62
9
  6
CONTINUOUS
  0
LAYER
  2
Dim_Wall
 70
0
 62
9
  6
CONTINUOUS
  0
LAYER
  2
Const_Doors
 70
0
 62
5
  6
CONTINUOUS
  0
LAYER
  2
Const_Windows
 70
0
 62
152
  6
CONTINUOUS
  0
LAYER
  2
Text_Legend
 70
0
 62
74
  6
CONTINUOUS
  0
LAYER
  2
Text_JobInfo
 70
0
 62
74
  6
CONTINUOUS
  0
LAYER
  2
Dim_Overall
 70
0
 62
-9
  6
CONTINUOUS
  0
LAYER
  2
Dim_Embeded
 70
0
 62
-9
  6
CONTINUOUS
  0
LAYER
  2
Dim_Angles_Auto
 70
0
 62
3
  6
CONTINUOUS
  0
LAYER
  2
Text_AreaNo
 70
0
 62
-74
  6
CONTINUOUS
  0
LAYER
  2
Dim_ArcChord
 70
0
 62
9
  6
HIDDEN
  0
LAYER
  2
Const_Walls_Ext
 70
0
 62
253
  6
CONTINUOUS
  0
LAYER
  2
Dim_Verification
 70
0
 62
-9
  6
CONTINUOUS
  0
LAYER
  2
Dim_Radius
 70
0
 62
9
  6
CONTINUOUS
  0
LAYER
  2
Dim_Angles
 70
0
 62
9
  6
CONTINUOUS
  0
LAYER
  2
Z_Other
 70
0
 62
253
  6
CONTINUOUS
  0
LAYER
  2
Const_Stairs
 70
0
 62
253
  6
CONTINUOUS
  0
LAYER
  2
Misc_Cabinets
 70
0
 62
36
  6
CONTINUOUS
  0
LAYER
  2
Z_Scale_Ruler
 70
0
 62
7
  6
CONTINUOUS
  0
LAYER
  2
Const_Fill
 70
0
 62
253
  6
CONTINUOUS
  0
LAYER
  2
Wall_Image
 70
0
 62
7
  6
CONTINUOUS
  0
LAYER
  2
Exterior_walls
 70
0
 62
5
  6
CONTINUOUS
  0
LAYER
  2
HVAC_DIM
 70
0
 62
4
  6
CONTINUOUS
  0
LAYER
  2
HVAC_H
 70
0
 62
4
  6
CONTINUOUS
  0
LAYER
  2
Electrical_DIM
 70
0
 62
6
  6
CONTINUOUS
  0
LAYER
  2
Electrical_H
 70
0
 62
6
  6
CONTINUOUS
  0
LAYER
  2
Plumbing_DIM
 70
0
 62
150
  6
CONTINUOUS
  0
LAYER
  2
Plumbing_H
 70
0
 62
150
  6
CONTINUOUS
  0
LAYER
  2
datum
 70
0
 62
1
  6
CONTINUOUS
  0
ENDTAB
  0
TABLE
  2
STYLE
 70
1
  0
STYLE
  2
STANDARD
 70
0
 40
0.0000
 41
1.0000
 50
0.0000
 71
0
 42
10.0000
  3
ARIAL.TTF
  4

  0
ENDTAB
  0
ENDSEC
  0
SECTION
  2
BLOCKS
  0
BLOCK
  8
0
  2
SOCKET
 70
0
 10
0.0000
 20
0.0000
 30
0.0000
  0
LINE
  5
107B
  8
0
 10
0.0000
 20
0.0000
 30
0.0000
 11
0.0000
 21
20.0000
 31
0.0000
  0
ARC
  5
107C
  8
0
 10
0.0000
 20
70.0000
 30
0.0000
 40
50.0000
 50
0.0000
 51
360.0000
  0
LINE
  5
107D
  8
0
 10
-50.0000
 20
70.0000
 30
0.0000
 11
50.0000
 21
70.0000
 31
0.0000
  0
LINE
  5
107E
  8
0
 10
-18.0000
 20
55.0000
 30
0.0000
 11
-18.0000
 21
85.0000
 31
0.0000
  0
LINE
  5
107F
  8
0
 10
18.0000
 20
55.0000
 30
0.0000
 11
18.0000
 21
85.0000
 31
0.0000
  0
ENDBLK
  5
1080
  8
0
  0
BLOCK
  8
0
  2
DUPLEXSWITCH
 70
0
 10
0.0000
 20
0.0000
 30
0.0000
  0
LINE
  5
1081
  8
0
 10
0.0000
 20
0.0000
 30
0.0000
 11
0.0000
 21
20.0000
 31
0.0000
  0
ARC
  5
1082
  8
0
 10
-45.0000
 20
70.0000
 30
0.0000
 40
38.0000
 50
0.0000
 51
360.0000
  0
ARC
  5
1083
  8
0
 10
45.0000
 20
70.0000
 30
0.0000
 40
38.0000
 50
0.0000
 51
360.0000
  0
LINE
  5
1084
  8
0
 10
-45.0000
 20
55.0000
 30
0.0000
 11
-45.0000
 21
85.0000
 31
0.0000
  0
LINE
  5
1085
  8
0
 10
45.0000
 20
55.0000
 30
0.0000
 11
45.0000
 21
85.0000
 31
0.0000
  0
ENDBLK
  5
1086
  8
0
  0
BLOCK
  8
0
  2
GAS
 70
0
 10
0.0000
 20
0.0000
 30
0.0000
  0
LINE
  5
1087
  8
0
 10
0.0000
 20
0.0000
 30
0.0000
 11
0.0000
 21
18.0000
 31
0.0000
  0
ARC
  5
1088
  8
0
 10
0.0000
 20
62.0000
 30
0.0000
 40
44.0000
 50
0.0000
 51
360.0000
  0
LINE
  5
1089
  8
0
 10
-16.0000
 20
52.0000
 30
0.0000
 11
0.0000
 21
78.0000
 31
0.0000
  0
LINE
  5
108A
  8
0
 10
0.0000
 20
78.0000
 30
0.0000
 11
16.0000
 21
52.0000
 31
0.0000
  0
LINE
  5
108B
  8
0
 10
0.0000
 20
45.0000
 30
0.0000
 11
0.0000
 21
70.0000
 31
0.0000
  0
ENDBLK
  5
108C
  8
0
  0
BLOCK
  8
0
  2
FAUCET
 70
0
 10
0.0000
 20
0.0000
 30
0.0000
  0
LINE
  5
108D
  8
0
 10
0.0000
 20
0.0000
 30
0.0000
 11
0.0000
 21
12.0000
 31
0.0000
  0
ARC
  5
108E
  8
0
 10
0.0000
 20
57.0000
 30
0.0000
 40
45.0000
 50
0.0000
 51
360.0000
  0
LINE
  5
108F
  8
0
 10
-32.0000
 20
57.0000
 30
0.0000
 11
32.0000
 21
57.0000
 31
0.0000
  0
LINE
  5
1090
  8
0
 10
0.0000
 20
25.0000
 30
0.0000
 11
0.0000
 21
89.0000
 31
0.0000
  0
ENDBLK
  5
1091
  8
0
  0
BLOCK
  8
0
  2
SEWAGE
 70
0
 10
0.0000
 20
0.0000
 30
0.0000
  0
LINE
  5
1092
  8
0
 10
0.0000
 20
0.0000
 30
0.0000
 11
0.0000
 21
10.0000
 31
0.0000
  0
ARC
  5
1093
  8
0
 10
0.0000
 20
50.0000
 30
0.0000
 40
45.0000
 50
0.0000
 51
360.0000
  0
LINE
  5
1094
  8
0
 10
-30.0000
 20
20.0000
 30
0.0000
 11
30.0000
 21
80.0000
 31
0.0000
  0
LINE
  5
1095
  8
0
 10
-30.0000
 20
80.0000
 30
0.0000
 11
30.0000
 21
20.0000
 31
0.0000
  0
ENDBLK
  5
1096
  8
0
  0
BLOCK
  8
0
  2
CONTROLBOX
 70
0
 10
0.0000
 20
0.0000
 30
0.0000
  0
LINE
  5
1097
  8
0
 10
-90.0000
 20
0.0000
 30
0.0000
 11
90.0000
 21
0.0000
 31
0.0000
  0
LINE
  5
1098
  8
0
 10
90.0000
 20
0.0000
 30
0.0000
 11
90.0000
 21
70.0000
 31
0.0000
  0
LINE
  5
1099
  8
0
 10
90.0000
 20
70.0000
 30
0.0000
 11
-90.0000
 21
70.0000
 31
0.0000
  0
LINE
  5
109A
  8
0
 10
-90.0000
 20
70.0000
 30
0.0000
 11
-90.0000
 21
0.0000
 31
0.0000
  0
LINE
  5
109B
  8
0
 10
-90.0000
 20
0.0000
 30
0.0000
 11
90.0000
 21
70.0000
 31
0.0000
  0
ENDBLK
  5
109C
  8
0
  0
BLOCK
  8
0
  2
WINDOW1
 70
0
 10
0.0000
 20
0.0000
 30
0.0000
  0
LINE
  5
109D
  8
0
 10
-0.5000
 20
-0.5000
 30
0.0000
 11
0.5000
 21
-0.5000
 31
0.0000
  0
LINE
  5
109E
  8
0
 10
0.5000
 20
-0.5000
 30
0.0000
 11
0.5000
 21
0.5000
 31
0.0000
  0
LINE
  5
109F
  8
0
 10
0.5000
 20
0.5000
 30
0.0000
 11
-0.5000
 21
0.5000
 31
0.0000
  0
LINE
  5
10A0
  8
0
 10
-0.5000
 20
0.5000
 30
0.0000
 11
-0.5000
 21
-0.5000
 31
0.0000
  0
LINE
  5
10A1
  8
0
 10
-0.5000
 20
0.0000
 30
0.0000
 11
0.5000
 21
0.0000
 31
0.0000
  0
ENDBLK
  5
10A2
  8
0
  0
BLOCK
  8
0
  2
DOOR1
 70
0
 10
0.0000
 20
0.0000
 30
0.0000
  0
LINE
  5
10A3
  8
0
 10
-0.5000
 20
-0.5000
 30
0.0000
 11
-0.5000
 21
0.5000
 31
0.0000
  0
LINE
  5
10A4
  8
0
 10
-0.5000
 20
0.5000
 30
0.0000
 11
0.5000
 21
0.5000
 31
0.0000
  0
ARC
  5
10A5
  8
0
 10
-0.5000
 20
-0.5000
 30
0.0000
 40
1.0000
 50
0.0000
 51
90.0000
  0
ENDBLK
  5
10A6
  8
0
  0
ENDSEC
  0
SECTION
  2
ENTITIES
  0
LINE
  5
1000
  8
Const_Walls_Ext
 10
0.0000
 20
50.0000
 30
0.0000
 11
4000.0000
 21
50.0000
 31
0.0000
  0
LINE
  5
1001
  8
Const_Walls
 10
0.0000
 20
-50.0000
 30
0.0000
 11
4000.0000
 21
-50.0000
 31
0.0000
  0
LINE
  5
1002
  8
Const_Walls
 10
0.0000
 20
50.0000
 30
0.0000
 11
0.0000
 21
-50.0000
 31
0.0000
  0
LINE
  5
1003
  8
Const_Walls
 10
4000.0000
 20
50.0000
 30
0.0000
 11
4000.0000
 21
-50.0000
 31
0.0000
  0
SOLID
  5
1004
  8
Const_Fill
 10
0.0000
 20
50.0000
 30
0.0000
 11
4000.0000
 21
50.0000
 31
0.0000
 12
0.0000
 22
-50.0000
 32
0.0000
 13
4000.0000
 23
-50.0000
 33
0.0000
  0
LINE
  5
1005
  8
Dim_Wall
 10
0.0000
 20
0.0000
 30
0.0000
 11
0.0000
 21
460.0000
 31
0.0000
  0
LINE
  5
1006
  8
Dim_Wall
 10
4000.0000
 20
0.0000
 30
0.0000
 11
4000.0000
 21
460.0000
 31
0.0000
  0
LINE
  5
1007
  8
Dim_Wall
 10
0.0000
 20
400.0000
 30
0.0000
 11
4000.0000
 21
400.0000
 31
0.0000
  0
SOLID
  5
1008
  8
Dim_Wall
 10
0.0000
 20
400.0000
 30
0.0000
 11
-90.0000
 21
430.0000
 31
0.0000
 12
-90.0000
 22
370.0000
 32
0.0000
 13
-90.0000
 23
370.0000
 33
0.0000
  0
SOLID
  5
1009
  8
Dim_Wall
 10
4000.0000
 20
400.0000
 30
0.0000
 11
4090.0000
 21
430.0000
 31
0.0000
 12
4090.0000
 22
370.0000
 32
0.0000
 13
4090.0000
 23
370.0000
 33
0.0000
  0
TEXT
  5
100A
  8
Dim_Wall
 10
2000.0000
 20
448.0000
 30
0.0000
 40
120.0000
 50
0.0000
  1
400
  7
STANDARD
  0
LINE
  5
100B
  8
Const_Walls_Ext
 10
4050.0000
 20
0.0000
 30
0.0000
 11
4050.0000
 21
-4000.0000
 31
0.0000
  0
LINE
  5
100C
  8
Const_Walls
 10
3950.0000
 20
0.0000
 30
0.0000
 11
3950.0000
 21
-4000.0000
 31
0.0000
  0
LINE
  5
100D
  8
Const_Walls
 10
4050.0000
 20
0.0000
 30
0.0000
 11
3950.0000
 21
0.0000
 31
0.0000
  0
LINE
  5
100E
  8
Const_Walls
 10
4050.0000
 20
-4000.0000
 30
0.0000
 11
3950.0000
 21
-4000.0000
 31
0.0000
  0
SOLID
  5
100F
  8
Const_Fill
 10
4050.0000
 20
0.0000
 30
0.0000
 11
4050.0000
 21
-4000.0000
 31
0.0000
 12
3950.0000
 22
0.0000
 32
0.0000
 13
3950.0000
 23
-4000.0000
 33
0.0000
  0
LINE
  5
1010
  8
Dim_Wall
 10
4000.0000
 20
0.0000
 30
0.0000
 11
4460.0000
 21
0.0000
 31
0.0000
  0
LINE
  5
1011
  8
Dim_Wall
 10
4000.0000
 20
-4000.0000
 30
0.0000
 11
4460.0000
 21
-4000.0000
 31
0.0000
  0
LINE
  5
1012
  8
Dim_Wall
 10
4400.0000
 20
0.0000
 30
0.0000
 11
4400.0000
 21
-4000.0000
 31
0.0000
  0
SOLID
  5
1013
  8
Dim_Wall
 10
4400.0000
 20
0.0000
 30
0.0000
 11
4430.0000
 21
90.0000
 31
0.0000
 12
4370.0000
 22
90.0000
 32
0.0000
 13
4370.0000
 23
90.0000
 33
0.0000
  0
SOLID
  5
1014
  8
Dim_Wall
 10
4400.0000
 20
-4000.0000
 30
0.0000
 11
4430.0000
 21
-4090.0000
 31
0.0000
 12
4370.0000
 22
-4090.0000
 32
0.0000
 13
4370.0000
 23
-4090.0000
 33
0.0000
  0
TEXT
  5
1015
  8
Dim_Wall
 10
4448.0000
 20
-2000.0000
 30
0.0000
 40
120.0000
 50
90.0000
  1
400
  7
STANDARD
  0
LINE
  5
1016
  8
Const_Walls_Ext
 10
4000.0000
 20
-4050.0000
 30
0.0000
 11
0.0000
 21
-4050.0000
 31
0.0000
  0
LINE
  5
1017
  8
Const_Walls
 10
4000.0000
 20
-3950.0000
 30
0.0000
 11
0.0000
 21
-3950.0000
 31
0.0000
  0
LINE
  5
1018
  8
Const_Walls
 10
4000.0000
 20
-4050.0000
 30
0.0000
 11
4000.0000
 21
-3950.0000
 31
0.0000
  0
LINE
  5
1019
  8
Const_Walls
 10
0.0000
 20
-4050.0000
 30
0.0000
 11
0.0000
 21
-3950.0000
 31
0.0000
  0
SOLID
  5
101A
  8
Const_Fill
 10
4000.0000
 20
-4050.0000
 30
0.0000
 11
0.0000
 21
-4050.0000
 31
0.0000
 12
4000.0000
 22
-3950.0000
 32
0.0000
 13
0.0000
 23
-3950.0000
 33
0.0000
  0
LINE
  5
101B
  8
Dim_Wall
 10
4000.0000
 20
-4000.0000
 30
0.0000
 11
4000.0000
 21
-4460.0000
 31
0.0000
  0
LINE
  5
101C
  8
Dim_Wall
 10
0.0000
 20
-4000.0000
 30
0.0000
 11
0.0000
 21
-4460.0000
 31
0.0000
  0
LINE
  5
101D
  8
Dim_Wall
 10
4000.0000
 20
-4400.0000
 30
0.0000
 11
0.0000
 21
-4400.0000
 31
0.0000
  0
SOLID
  5
101E
  8
Dim_Wall
 10
4000.0000
 20
-4400.0000
 30
0.0000
 11
4090.0000
 21
-4430.0000
 31
0.0000
 12
4090.0000
 22
-4370.0000
 32
0.0000
 13
4090.0000
 23
-4370.0000
 33
0.0000
  0
SOLID
  5
101F
  8
Dim_Wall
 10
0.0000
 20
-4400.0000
 30
0.0000
 11
-90.0000
 21
-4430.0000
 31
0.0000
 12
-90.0000
 22
-4370.0000
 32
0.0000
 13
-90.0000
 23
-4370.0000
 33
0.0000
  0
TEXT
  5
1020
  8
Dim_Wall
 10
2000.0000
 20
-4448.0000
 30
0.0000
 40
120.0000
 50
360.0000
  1
400
  7
STANDARD
  0
LINE
  5
1021
  8
Const_Walls_Ext
 10
-50.0000
 20
-4000.0000
 30
0.0000
 11
-50.0000
 21
0.0000
 31
0.0000
  0
LINE
  5
1022
  8
Const_Walls
 10
50.0000
 20
-4000.0000
 30
0.0000
 11
50.0000
 21
0.0000
 31
0.0000
  0
LINE
  5
1023
  8
Const_Walls
 10
-50.0000
 20
-4000.0000
 30
0.0000
 11
50.0000
 21
-4000.0000
 31
0.0000
  0
LINE
  5
1024
  8
Const_Walls
 10
-50.0000
 20
0.0000
 30
0.0000
 11
50.0000
 21
0.0000
 31
0.0000
  0
SOLID
  5
1025
  8
Const_Fill
 10
-50.0000
 20
-4000.0000
 30
0.0000
 11
-50.0000
 21
0.0000
 31
0.0000
 12
50.0000
 22
-4000.0000
 32
0.0000
 13
50.0000
 23
0.0000
 33
0.0000
  0
LINE
  5
1026
  8
Dim_Wall
 10
0.0000
 20
-4000.0000
 30
0.0000
 11
-460.0000
 21
-4000.0000
 31
0.0000
  0
LINE
  5
1027
  8
Dim_Wall
 10
0.0000
 20
0.0000
 30
0.0000
 11
-460.0000
 21
0.0000
 31
0.0000
  0
LINE
  5
1028
  8
Dim_Wall
 10
-400.0000
 20
-4000.0000
 30
0.0000
 11
-400.0000
 21
0.0000
 31
0.0000
  0
SOLID
  5
1029
  8
Dim_Wall
 10
-400.0000
 20
-4000.0000
 30
0.0000
 11
-430.0000
 21
-4090.0000
 31
0.0000
 12
-370.0000
 22
-4090.0000
 32
0.0000
 13
-370.0000
 23
-4090.0000
 33
0.0000
  0
SOLID
  5
102A
  8
Dim_Wall
 10
-400.0000
 20
0.0000
 30
0.0000
 11
-430.0000
 21
90.0000
 31
0.0000
 12
-370.0000
 22
90.0000
 32
0.0000
 13
-370.0000
 23
90.0000
 33
0.0000
  0
TEXT
  5
102B
  8
Dim_Wall
 10
-448.0000
 20
-2000.0000
 30
0.0000
 40
120.0000
 50
90.0000
  1
400
  7
STANDARD
  0
INSERT
  5
102C
  8
Const_Windows
  2
WINDOW1
 10
4000.0000
 20
-2000.0000
 30
0.0000
 41
1400.0000
 42
100.0000
 43
1.0000
 50
270.0000
  0
INSERT
  5
102D
  8
Const_Windows
  2
WINDOW1
 10
2000.0000
 20
-4000.0000
 30
0.0000
 41
1800.0000
 42
100.0000
 43
1.0000
 50
180.0000
  0
INSERT
  5
102E
  8
Const_Doors
  2
DOOR1
 10
0.0000
 20
-1100.0000
 30
0.0000
 41
900.0000
 42
100.0000
 43
1.0000
 50
90.0000
  0
INSERT
  5
102F
  8
Electrical
  2
Socket
 10
540.0000
 20
0.0000
 30
0.0000
 41
1.0000
 42
1.0000
 43
1.0000
 50
0.0000
  0
TEXT
  5
1030
  8
Electrical_H
 10
610.0000
 20
40.0000
 30
0.0000
 40
90.0000
 50
0.0000
  1
H 110
  7
STANDARD
  0
LINE
  5
1031
  8
Electrical_DIM
 10
0.0000
 20
0.0000
 30
0.0000
 11
0.0000
 21
-260.0000
 31
0.0000
  0
LINE
  5
1032
  8
Electrical_DIM
 10
540.0000
 20
0.0000
 30
0.0000
 11
540.0000
 21
-260.0000
 31
0.0000
  0
LINE
  5
1033
  8
Electrical_DIM
 10
0.0000
 20
-200.0000
 30
0.0000
 11
540.0000
 21
-200.0000
 31
0.0000
  0
SOLID
  5
1034
  8
Electrical_DIM
 10
0.0000
 20
-200.0000
 30
0.0000
 11
-90.0000
 21
-230.0000
 31
0.0000
 12
-90.0000
 22
-170.0000
 32
0.0000
 13
-90.0000
 23
-170.0000
 33
0.0000
  0
SOLID
  5
1035
  8
Electrical_DIM
 10
540.0000
 20
-200.0000
 30
0.0000
 11
630.0000
 21
-230.0000
 31
0.0000
 12
630.0000
 22
-170.0000
 32
0.0000
 13
630.0000
 23
-170.0000
 33
0.0000
  0
TEXT
  5
1036
  8
Electrical_DIM
 10
270.0000
 20
-236.0000
 30
0.0000
 40
90.0000
 50
0.0000
  1
54
  7
STANDARD
  0
INSERT
  5
1037
  8
Electrical
  2
DuplexSwitch
 10
1480.0000
 20
0.0000
 30
0.0000
 41
1.0000
 42
1.0000
 43
1.0000
 50
0.0000
  0
TEXT
  5
1038
  8
Electrical_H
 10
1550.0000
 20
40.0000
 30
0.0000
 40
90.0000
 50
0.0000
  1
H 110
  7
STANDARD
  0
LINE
  5
1039
  8
Electrical_DIM
 10
0.0000
 20
0.0000
 30
0.0000
 11
0.0000
 21
-260.0000
 31
0.0000
  0
LINE
  5
103A
  8
Electrical_DIM
 10
1480.0000
 20
0.0000
 30
0.0000
 11
1480.0000
 21
-260.0000
 31
0.0000
  0
LINE
  5
103B
  8
Electrical_DIM
 10
0.0000
 20
-200.0000
 30
0.0000
 11
1480.0000
 21
-200.0000
 31
0.0000
  0
SOLID
  5
103C
  8
Electrical_DIM
 10
0.0000
 20
-200.0000
 30
0.0000
 11
-90.0000
 21
-230.0000
 31
0.0000
 12
-90.0000
 22
-170.0000
 32
0.0000
 13
-90.0000
 23
-170.0000
 33
0.0000
  0
SOLID
  5
103D
  8
Electrical_DIM
 10
1480.0000
 20
-200.0000
 30
0.0000
 11
1570.0000
 21
-230.0000
 31
0.0000
 12
1570.0000
 22
-170.0000
 32
0.0000
 13
1570.0000
 23
-170.0000
 33
0.0000
  0
TEXT
  5
103E
  8
Electrical_DIM
 10
740.0000
 20
-236.0000
 30
0.0000
 40
90.0000
 50
0.0000
  1
148
  7
STANDARD
  0
INSERT
  5
103F
  8
Plumbing
  2
Gas
 10
2210.0000
 20
0.0000
 30
0.0000
 41
1.0000
 42
1.0000
 43
1.0000
 50
0.0000
  0
TEXT
  5
1040
  8
Plumbing_H
 10
2280.0000
 20
40.0000
 30
0.0000
 40
90.0000
 50
0.0000
  1
H 70
  7
STANDARD
  0
LINE
  5
1041
  8
Plumbing_DIM
 10
0.0000
 20
0.0000
 30
0.0000
 11
0.0000
 21
-260.0000
 31
0.0000
  0
LINE
  5
1042
  8
Plumbing_DIM
 10
2210.0000
 20
0.0000
 30
0.0000
 11
2210.0000
 21
-260.0000
 31
0.0000
  0
LINE
  5
1043
  8
Plumbing_DIM
 10
0.0000
 20
-200.0000
 30
0.0000
 11
2210.0000
 21
-200.0000
 31
0.0000
  0
SOLID
  5
1044
  8
Plumbing_DIM
 10
0.0000
 20
-200.0000
 30
0.0000
 11
-90.0000
 21
-230.0000
 31
0.0000
 12
-90.0000
 22
-170.0000
 32
0.0000
 13
-90.0000
 23
-170.0000
 33
0.0000
  0
SOLID
  5
1045
  8
Plumbing_DIM
 10
2210.0000
 20
-200.0000
 30
0.0000
 11
2300.0000
 21
-230.0000
 31
0.0000
 12
2300.0000
 22
-170.0000
 32
0.0000
 13
2300.0000
 23
-170.0000
 33
0.0000
  0
TEXT
  5
1046
  8
Plumbing_DIM
 10
1105.0000
 20
-236.0000
 30
0.0000
 40
90.0000
 50
0.0000
  1
221
  7
STANDARD
  0
INSERT
  5
1047
  8
Plumbing
  2
Faucet
 10
3110.0000
 20
0.0000
 30
0.0000
 41
1.0000
 42
1.0000
 43
1.0000
 50
0.0000
  0
TEXT
  5
1048
  8
Plumbing_H
 10
3180.0000
 20
40.0000
 30
0.0000
 40
90.0000
 50
0.0000
  1
H 105
  7
STANDARD
  0
LINE
  5
1049
  8
Plumbing_DIM
 10
0.0000
 20
0.0000
 30
0.0000
 11
0.0000
 21
-260.0000
 31
0.0000
  0
LINE
  5
104A
  8
Plumbing_DIM
 10
3110.0000
 20
0.0000
 30
0.0000
 11
3110.0000
 21
-260.0000
 31
0.0000
  0
LINE
  5
104B
  8
Plumbing_DIM
 10
0.0000
 20
-200.0000
 30
0.0000
 11
3110.0000
 21
-200.0000
 31
0.0000
  0
SOLID
  5
104C
  8
Plumbing_DIM
 10
0.0000
 20
-200.0000
 30
0.0000
 11
-90.0000
 21
-230.0000
 31
0.0000
 12
-90.0000
 22
-170.0000
 32
0.0000
 13
-90.0000
 23
-170.0000
 33
0.0000
  0
SOLID
  5
104D
  8
Plumbing_DIM
 10
3110.0000
 20
-200.0000
 30
0.0000
 11
3200.0000
 21
-230.0000
 31
0.0000
 12
3200.0000
 22
-170.0000
 32
0.0000
 13
3200.0000
 23
-170.0000
 33
0.0000
  0
TEXT
  5
104E
  8
Plumbing_DIM
 10
1555.0000
 20
-236.0000
 30
0.0000
 40
90.0000
 50
0.0000
  1
311
  7
STANDARD
  0
INSERT
  5
104F
  8
Plumbing
  2
Faucet
 10
3210.0000
 20
0.0000
 30
0.0000
 41
1.0000
 42
1.0000
 43
1.0000
 50
0.0000
  0
TEXT
  5
1050
  8
Plumbing_H
 10
3280.0000
 20
40.0000
 30
0.0000
 40
90.0000
 50
0.0000
  1
H 50
  7
STANDARD
  0
LINE
  5
1051
  8
Plumbing_DIM
 10
0.0000
 20
0.0000
 30
0.0000
 11
0.0000
 21
-260.0000
 31
0.0000
  0
LINE
  5
1052
  8
Plumbing_DIM
 10
3210.0000
 20
0.0000
 30
0.0000
 11
3210.0000
 21
-260.0000
 31
0.0000
  0
LINE
  5
1053
  8
Plumbing_DIM
 10
0.0000
 20
-200.0000
 30
0.0000
 11
3210.0000
 21
-200.0000
 31
0.0000
  0
SOLID
  5
1054
  8
Plumbing_DIM
 10
0.0000
 20
-200.0000
 30
0.0000
 11
-90.0000
 21
-230.0000
 31
0.0000
 12
-90.0000
 22
-170.0000
 32
0.0000
 13
-90.0000
 23
-170.0000
 33
0.0000
  0
SOLID
  5
1055
  8
Plumbing_DIM
 10
3210.0000
 20
-200.0000
 30
0.0000
 11
3300.0000
 21
-230.0000
 31
0.0000
 12
3300.0000
 22
-170.0000
 32
0.0000
 13
3300.0000
 23
-170.0000
 33
0.0000
  0
TEXT
  5
1056
  8
Plumbing_DIM
 10
1605.0000
 20
-236.0000
 30
0.0000
 40
90.0000
 50
0.0000
  1
321
  7
STANDARD
  0
INSERT
  5
1057
  8
Plumbing
  2
Sewage
 10
3125.0000
 20
0.0000
 30
0.0000
 41
1.0000
 42
1.0000
 43
1.0000
 50
0.0000
  0
TEXT
  5
1058
  8
Plumbing_H
 10
3195.0000
 20
40.0000
 30
0.0000
 40
90.0000
 50
0.0000
  1
H 20
  7
STANDARD
  0
LINE
  5
1059
  8
Plumbing_DIM
 10
0.0000
 20
0.0000
 30
0.0000
 11
0.0000
 21
-260.0000
 31
0.0000
  0
LINE
  5
105A
  8
Plumbing_DIM
 10
3125.0000
 20
0.0000
 30
0.0000
 11
3125.0000
 21
-260.0000
 31
0.0000
  0
LINE
  5
105B
  8
Plumbing_DIM
 10
0.0000
 20
-200.0000
 30
0.0000
 11
3125.0000
 21
-200.0000
 31
0.0000
  0
SOLID
  5
105C
  8
Plumbing_DIM
 10
0.0000
 20
-200.0000
 30
0.0000
 11
-90.0000
 21
-230.0000
 31
0.0000
 12
-90.0000
 22
-170.0000
 32
0.0000
 13
-90.0000
 23
-170.0000
 33
0.0000
  0
SOLID
  5
105D
  8
Plumbing_DIM
 10
3125.0000
 20
-200.0000
 30
0.0000
 11
3215.0000
 21
-230.0000
 31
0.0000
 12
3215.0000
 22
-170.0000
 32
0.0000
 13
3215.0000
 23
-170.0000
 33
0.0000
  0
TEXT
  5
105E
  8
Plumbing_DIM
 10
1562.5000
 20
-236.0000
 30
0.0000
 40
90.0000
 50
0.0000
  1
312.5
  7
STANDARD
  0
INSERT
  5
105F
  8
Electrical
  2
Socket
 10
4000.0000
 20
-640.0000
 30
0.0000
 41
1.0000
 42
1.0000
 43
1.0000
 50
270.0000
  0
TEXT
  5
1060
  8
Electrical_H
 10
4070.0000
 20
-600.0000
 30
0.0000
 40
90.0000
 50
0.0000
  1
H 35
  7
STANDARD
  0
LINE
  5
1061
  8
Electrical_DIM
 10
4000.0000
 20
0.0000
 30
0.0000
 11
3740.0000
 21
0.0000
 31
0.0000
  0
LINE
  5
1062
  8
Electrical_DIM
 10
4000.0000
 20
-640.0000
 30
0.0000
 11
3740.0000
 21
-640.0000
 31
0.0000
  0
LINE
  5
1063
  8
Electrical_DIM
 10
3800.0000
 20
0.0000
 30
0.0000
 11
3800.0000
 21
-640.0000
 31
0.0000
  0
SOLID
  5
1064
  8
Electrical_DIM
 10
3800.0000
 20
0.0000
 30
0.0000
 11
3770.0000
 21
90.0000
 31
0.0000
 12
3830.0000
 22
90.0000
 32
0.0000
 13
3830.0000
 23
90.0000
 33
0.0000
  0
SOLID
  5
1065
  8
Electrical_DIM
 10
3800.0000
 20
-640.0000
 30
0.0000
 11
3770.0000
 21
-730.0000
 31
0.0000
 12
3830.0000
 22
-730.0000
 32
0.0000
 13
3830.0000
 23
-730.0000
 33
0.0000
  0
TEXT
  5
1066
  8
Electrical_DIM
 10
3764.0000
 20
-320.0000
 30
0.0000
 40
90.0000
 50
90.0000
  1
64
  7
STANDARD
  0
INSERT
  5
1067
  8
Electrical
  2
ControlBox
 10
0.0000
 20
-510.0000
 30
0.0000
 41
1.0000
 42
1.0000
 43
1.0000
 50
90.0000
  0
TEXT
  5
1068
  8
Electrical_H
 10
70.0000
 20
-470.0000
 30
0.0000
 40
90.0000
 50
0.0000
  1
H 135
  7
STANDARD
  0
LINE
  5
1069
  8
Electrical_DIM
 10
0.0000
 20
-4000.0000
 30
0.0000
 11
260.0000
 21
-4000.0000
 31
0.0000
  0
LINE
  5
106A
  8
Electrical_DIM
 10
0.0000
 20
-510.0000
 30
0.0000
 11
260.0000
 21
-510.0000
 31
0.0000
  0
LINE
  5
106B
  8
Electrical_DIM
 10
200.0000
 20
-4000.0000
 30
0.0000
 11
200.0000
 21
-510.0000
 31
0.0000
  0
SOLID
  5
106C
  8
Electrical_DIM
 10
200.0000
 20
-4000.0000
 30
0.0000
 11
230.0000
 21
-4090.0000
 31
0.0000
 12
170.0000
 22
-4090.0000
 32
0.0000
 13
170.0000
 23
-4090.0000
 33
0.0000
  0
SOLID
  5
106D
  8
Electrical_DIM
 10
200.0000
 20
-510.0000
 30
0.0000
 11
230.0000
 21
-420.0000
 31
0.0000
 12
170.0000
 22
-420.0000
 32
0.0000
 13
170.0000
 23
-420.0000
 33
0.0000
  0
TEXT
  5
106E
  8
Electrical_DIM
 10
236.0000
 20
-2255.0000
 30
0.0000
 40
90.0000
 50
90.0000
  1
349
  7
STANDARD
  0
INSERT
  5
106F
  8
Text_Legend
  2
Socket
 10
5350.0000
 20
160.0000
 30
0.0000
 41
1.0000
 42
1.0000
 43
1.0000
 50
0.0000
  0
TEXT
  5
1070
  8
Text_Legend
 10
5550.0000
 20
130.0000
 30
0.0000
 40
120.0000
 50
0.0000
  1
\U+05E9\U+05E7\U+05E2
  7
STANDARD
  0
INSERT
  5
1071
  8
Text_Legend
  2
DuplexSwitch
 10
5350.0000
 20
-190.0000
 30
0.0000
 41
1.0000
 42
1.0000
 43
1.0000
 50
0.0000
  0
TEXT
  5
1072
  8
Text_Legend
 10
5550.0000
 20
-220.0000
 30
0.0000
 40
120.0000
 50
0.0000
  1
\U+05E9\U+05E7\U+05E2 \U+05DB\U+05E4\U+05D5\U+05DC
  7
STANDARD
  0
INSERT
  5
1073
  8
Text_Legend
  2
Gas
 10
5350.0000
 20
-540.0000
 30
0.0000
 41
1.0000
 42
1.0000
 43
1.0000
 50
0.0000
  0
TEXT
  5
1074
  8
Text_Legend
 10
5550.0000
 20
-570.0000
 30
0.0000
 40
120.0000
 50
0.0000
  1
\U+05D2\U+05D6
  7
STANDARD
  0
INSERT
  5
1075
  8
Text_Legend
  2
Faucet
 10
5350.0000
 20
-890.0000
 30
0.0000
 41
1.0000
 42
1.0000
 43
1.0000
 50
0.0000
  0
TEXT
  5
1076
  8
Text_Legend
 10
5550.0000
 20
-920.0000
 30
0.0000
 40
120.0000
 50
0.0000
  1
\U+05D1\U+05E8\U+05D6
  7
STANDARD
  0
INSERT
  5
1077
  8
Text_Legend
  2
Sewage
 10
5350.0000
 20
-1240.0000
 30
0.0000
 41
1.0000
 42
1.0000
 43
1.0000
 50
0.0000
  0
TEXT
  5
1078
  8
Text_Legend
 10
5550.0000
 20
-1270.0000
 30
0.0000
 40
120.0000
 50
0.0000
  1
\U+05D1\U+05D9\U+05D5\U+05D1
  7
STANDARD
  0
INSERT
  5
1079
  8
Text_Legend
  2
ControlBox
 10
5350.0000
 20
-1590.0000
 30
0.0000
 41
1.0000
 42
1.0000
 43
1.0000
 50
0.0000
  0
TEXT
  5
107A
  8
Text_Legend
 10
5550.0000
 20
-1620.0000
 30
0.0000
 40
120.0000
 50
0.0000
  1
\U+05D0\U+05E8\U+05D5\U+05DF \U+05D7\U+05E9\U+05DE\U+05DC
  7
STANDARD
  0
ENDSEC
  0
EOF
