  0
SECTION
  2
HEADER
  9
$ACADVER
  1
AC1009
  9
$INSBASE
 10
0.0000
 20
0.0000
 30
0.0000
  9
$EXTMIN
 10
-2673.0000
 20
-4279.0000
 30
0.0000
  9
$EXTMAX
 10
2212.0000
 20
2680.0000
 30
0.0000
  9
$DWGCODEPAGE
  3
ansi_1255
  9
$INSUNITS
 70
4
  9
$LTSCALE
 40
10.0000
  9
$LIMMIN
 10
0.0000
 20
0.0000
  9
$LIMMAX
 10
2000.0000
 20
200.0000
  0
ENDSEC
  0
SECTION
  2
TABLES
  0
TABLE
  2
VPORT
 70
1
  0
VPORT
  2
*ACTIVE
 70
0
 10
0.0000
 20
0.0000
 11
1.0000
 21
1.0000
 12
-230.5000
 22
-799.5000
 13
0.0000
 23
0.0000
 14
10.0000
 24
10.0000
 15
10.0000
 25
10.0000
 16
0.0000
 26
0.0000
 36
1.0000
 17
0.0000
 27
0.0000
 37
0.0000
 40
7654.9000
 41
1.0000
 42
50.0000
 43
0.0000
 44
0.0000
 50
0.0000
 51
0.0000
 71
0
 72
100
 73
1
 74
1
 75
0
 76
0
 77
0
 78
0
  0
ENDTAB
  0
TABLE
  2
LTYPE
 70
2
  0
LTYPE
  2
CONTINUOUS
 70
0
  3
Solid line
 72
65
 73
0
 40
0.0000
  0
LTYPE
  2
HIDDEN
 70
0
  3
Hidden __ __ __ __ __ __ __ __ __ __ __ __ __ __
 72
65
 73
2
 40
0.3750
 49
0.2500
 49
-0.1250
  0
ENDTAB
  0
TABLE
  2
LAYER
 70
46
  0
LAYER
  2
0
 70
0
 62
7
  6
CONTINUOUS
  0
LAYER
  2
Electrical
 70
0
 62
6
  6
CONTINUOUS
  0
LAYER
  2
Plumbing
 70
0
 62
150
  6
CONTINUOUS
  0
LAYER
  2
Const_Walls
 70
0
 62
253
  6
CONTINUOUS
  0
LAYER
  2
Dim
 70
0
 62
9
  6
CONTINUOUS
  0
LAYER
  2
Text
 70
0
 62
74
  6
CONTINUOUS
  0
LAYER
  2
HVAC
 70
0
 62
4
  6
CONTINUOUS
  0
LAYER
  2
Misc
 70
0
 62
32
  6
HIDDEN
  0
LAYER
  2
Dim_Markers
 70
0
 62
9
  6
CONTINUOUS
  0
LAYER
  2
Dim_Wall
 70
0
 62
9
  6
CONTINUOUS
  0
LAYER
  2
Const_Doors
 70
0
 62
5
  6
CONTINUOUS
  0
LAYER
  2
Const_Windows
 70
0
 62
152
  6
CONTINUOUS
  0
LAYER
  2
Text_Legend
 70
0
 62
74
  6
CONTINUOUS
  0
LAYER
  2
Text_JobInfo
 70
0
 62
74
  6
CONTINUOUS
  0
LAYER
  2
Dim_Overall
 70
0
 62
-9
  6
CONTINUOUS
  0
LAYER
  2
Dim_Embeded
 70
0
 62
-9
  6
CONTINUOUS
  0
LAYER
  2
Dim_Angles_Auto
 70
0
 62
3
  6
CONTINUOUS
  0
LAYER
  2
Text_AreaNo
 70
0
 62
-74
  6
CONTINUOUS
  0
LAYER
  2
Dim_ArcChord
 70
0
 62
9
  6
HIDDEN
  0
LAYER
  2
Const_Walls_Ext
 70
0
 62
253
  6
CONTINUOUS
  0
LAYER
  2
Dim_Verification
 70
0
 62
-9
  6
CONTINUOUS
  0
LAYER
  2
Dim_Radius
 70
0
 62
9
  6
CONTINUOUS
  0
LAYER
  2
Dim_Angles
 70
0
 62
9
  6
CONTINUOUS
  0
LAYER
  2
Z_Other
 70
0
 62
253
  6
CONTINUOUS
  0
LAYER
  2
Const_Stairs
 70
0
 62
253
  6
CONTINUOUS
  0
LAYER
  2
Misc_Cabinets
 70
0
 62
36
  6
CONTINUOUS
  0
LAYER
  2
Z_Scale_Ruler
 70
0
 62
7
  6
CONTINUOUS
  0
LAYER
  2
Const_Fill
 70
0
 62
253
  6
CONTINUOUS
  0
LAYER
  2
Wall_Image
 70
0
 62
7
  6
CONTINUOUS
  0
LAYER
  2
Exterior_walls
 70
0
 62
5
  6
CONTINUOUS
  0
LAYER
  2
HVAC_DIM
 70
0
 62
4
  6
CONTINUOUS
  0
LAYER
  2
HVAC_H
 70
0
 62
4
  6
CONTINUOUS
  0
LAYER
  2
Electrical_DIM
 70
0
 62
6
  6
CONTINUOUS
  0
LAYER
  2
Electrical_H
 70
0
 62
6
  6
CONTINUOUS
  0
LAYER
  2
Plumbing_DIM
 70
0
 62
150
  6
CONTINUOUS
  0
LAYER
  2
Plumbing_H
 70
0
 62
150
  6
CONTINUOUS
  0
LAYER
  2
datum
 70
0
 62
1
  6
CONTINUOUS
  0
LAYER
  2
Elem_Electrical
 70
0
 62
6
  6
CONTINUOUS
  0
LAYER
  2
Elem_Plumbing
 70
0
 62
5
  6
CONTINUOUS
  0
LAYER
  2
Elem_Gas
 70
0
 62
2
  6
CONTINUOUS
  0
LAYER
  2
Elem_HVAC
 70
0
 62
4
  6
CONTINUOUS
  0
LAYER
  2
Elem_Lighting
 70
0
 62
30
  6
CONTINUOUS
  0
LAYER
  2
Elem_Struct
 70
0
 62
8
  6
CONTINUOUS
  0
LAYER
  2
Elem_Opening
 70
0
 62
152
  6
CONTINUOUS
  0
LAYER
  2
Elem_Misc
 70
0
 62
7
  6
CONTINUOUS
  0
LAYER
  2
Elem_Label
 70
0
 62
74
  6
CONTINUOUS
  0
ENDTAB
  0
TABLE
  2
STYLE
 70
1
  0
STYLE
  2
STANDARD
 70
0
 40
0.0000
 41
1.0000
 50
0.0000
 71
0
 42
10.0000
  3
ARIAL.TTF
  4

  0
ENDTAB
  0
ENDSEC
  0
SECTION
  2
BLOCKS
  0
BLOCK
  8
0
  2
CONTROLBOX
 70
0
 10
0.0000
 20
0.0000
 30
0.0000
  0
3DFACE
  5
1071
  8
0
 10
-100.0000
 20
-40.0000
 30
-150.0000
 11
100.0000
 21
-40.0000
 31
-150.0000
 12
100.0000
 22
0.0000
 32
-150.0000
 13
-100.0000
 23
0.0000
 33
-150.0000
  0
3DFACE
  5
1072
  8
0
 10
-100.0000
 20
-40.0000
 30
150.0000
 11
100.0000
 21
-40.0000
 31
150.0000
 12
100.0000
 22
0.0000
 32
150.0000
 13
-100.0000
 23
0.0000
 33
150.0000
  0
3DFACE
  5
1073
  8
0
 10
-100.0000
 20
-40.0000
 30
-150.0000
 11
100.0000
 21
-40.0000
 31
-150.0000
 12
100.0000
 22
-40.0000
 32
150.0000
 13
-100.0000
 23
-40.0000
 33
150.0000
  0
3DFACE
  5
1074
  8
0
 10
-100.0000
 20
0.0000
 30
-150.0000
 11
100.0000
 21
0.0000
 31
-150.0000
 12
100.0000
 22
0.0000
 32
150.0000
 13
-100.0000
 23
0.0000
 33
150.0000
  0
3DFACE
  5
1075
  8
0
 10
-100.0000
 20
-40.0000
 30
-150.0000
 11
-100.0000
 21
0.0000
 31
-150.0000
 12
-100.0000
 22
0.0000
 32
150.0000
 13
-100.0000
 23
-40.0000
 33
150.0000
  0
3DFACE
  5
1076
  8
0
 10
100.0000
 20
-40.0000
 30
-150.0000
 11
100.0000
 21
0.0000
 31
-150.0000
 12
100.0000
 22
0.0000
 32
150.0000
 13
100.0000
 23
-40.0000
 33
150.0000
  0
3DFACE
  5
1077
  8
0
 10
-96.0000
 20
0.0000
 30
-146.0000
 11
96.0000
 21
0.0000
 31
-146.0000
 12
96.0000
 22
10.0000
 32
-146.0000
 13
-96.0000
 23
10.0000
 33
-146.0000
  0
3DFACE
  5
1078
  8
0
 10
-96.0000
 20
0.0000
 30
146.0000
 11
96.0000
 21
0.0000
 31
146.0000
 12
96.0000
 22
10.0000
 32
146.0000
 13
-96.0000
 23
10.0000
 33
146.0000
  0
3DFACE
  5
1079
  8
0
 10
-96.0000
 20
0.0000
 30
-146.0000
 11
96.0000
 21
0.0000
 31
-146.0000
 12
96.0000
 22
0.0000
 32
146.0000
 13
-96.0000
 23
0.0000
 33
146.0000
  0
3DFACE
  5
107A
  8
0
 10
-96.0000
 20
10.0000
 30
-146.0000
 11
96.0000
 21
10.0000
 31
-146.0000
 12
96.0000
 22
10.0000
 32
146.0000
 13
-96.0000
 23
10.0000
 33
146.0000
  0
3DFACE
  5
107B
  8
0
 10
-96.0000
 20
0.0000
 30
-146.0000
 11
-96.0000
 21
10.0000
 31
-146.0000
 12
-96.0000
 22
10.0000
 32
146.0000
 13
-96.0000
 23
0.0000
 33
146.0000
  0
3DFACE
  5
107C
  8
0
 10
96.0000
 20
0.0000
 30
-146.0000
 11
96.0000
 21
10.0000
 31
-146.0000
 12
96.0000
 22
10.0000
 32
146.0000
 13
96.0000
 23
0.0000
 33
146.0000
  0
ENDBLK
  5
107D
  8
0
  0
ENDSEC
  0
SECTION
  2
ENTITIES
  0
3DFACE
  5
1000
  8
Const_Walls
 10
1993.0230
 20
2229.5764
 30
0.0000
 11
1989.8780
 21
-3477.9836
 31
0.0000
 12
1889.8780
 22
-3477.9284
 32
0.0000
 13
1893.0230
 23
2229.6316
 33
0.0000
 70
15
  0
3DFACE
  5
1001
  8
Const_Walls
 10
1993.0230
 20
2229.5764
 30
2526.7000
 11
1989.8780
 21
-3477.9836
 31
2526.7000
 12
1889.8780
 22
-3477.9284
 32
2526.7000
 13
1893.0230
 23
2229.6316
 33
2526.7000
 70
15
  0
3DFACE
  5
1002
  8
Const_Walls
 10
1993.0230
 20
2229.5764
 30
0.0000
 11
1989.8780
 21
-3477.9836
 31
0.0000
 12
1989.8780
 22
-3477.9836
 32
2526.7000
 13
1993.0230
 23
2229.5764
 33
2526.7000
 70
15
  0
3DFACE
  5
1003
  8
Const_Walls
 10
1989.8780
 20
-3477.9836
 30
0.0000
 11
1889.8780
 21
-3477.9284
 31
0.0000
 12
1889.8780
 22
-3477.9284
 32
2526.7000
 13
1989.8780
 23
-3477.9836
 33
2526.7000
 70
15
  0
3DFACE
  5
1004
  8
Const_Walls
 10
1889.8780
 20
-3477.9284
 30
0.0000
 11
1893.0230
 21
2229.6316
 31
0.0000
 12
1893.0230
 22
2229.6316
 32
2526.7000
 13
1889.8780
 23
-3477.9284
 33
2526.7000
 70
15
  0
3DFACE
  5
1005
  8
Const_Walls
 10
1893.0230
 20
2229.6316
 30
0.0000
 11
1993.0230
 21
2229.5764
 31
0.0000
 12
1993.0230
 22
2229.5764
 32
2526.7000
 13
1893.0230
 23
2229.6316
 33
2526.7000
 70
15
  0
3DFACE
  5
1006
  8
Const_Walls_Ext
 10
1939.9870
 20
-3527.9559
 30
0.0000
 11
561.8960
 21
-3530.9609
 31
0.0000
 12
561.6780
 22
-3430.9611
 32
0.0000
 13
1939.7690
 23
-3427.9561
 33
0.0000
 70
15
  0
3DFACE
  5
1007
  8
Const_Walls_Ext
 10
1939.9870
 20
-3527.9559
 30
2526.7000
 11
561.8960
 21
-3530.9609
 31
2526.7000
 12
561.6780
 22
-3430.9611
 32
2526.7000
 13
1939.7690
 23
-3427.9561
 33
2526.7000
 70
15
  0
3DFACE
  5
1008
  8
Const_Walls_Ext
 10
1939.9870
 20
-3527.9559
 30
0.0000
 11
561.8960
 21
-3530.9609
 31
0.0000
 12
561.8960
 22
-3530.9609
 32
2526.7000
 13
1939.9870
 23
-3527.9559
 33
2526.7000
 70
15
  0
3DFACE
  5
1009
  8
Const_Walls_Ext
 10
561.8960
 20
-3530.9609
 30
0.0000
 11
561.6780
 21
-3430.9611
 31
0.0000
 12
561.6780
 22
-3430.9611
 32
2526.7000
 13
561.8960
 23
-3530.9609
 33
2526.7000
 70
15
  0
3DFACE
  5
100A
  8
Const_Walls_Ext
 10
561.6780
 20
-3430.9611
 30
0.0000
 11
1939.7690
 21
-3427.9561
 31
0.0000
 12
1939.7690
 22
-3427.9561
 32
2526.7000
 13
561.6780
 23
-3430.9611
 33
2526.7000
 70
15
  0
3DFACE
  5
100B
  8
Const_Walls_Ext
 10
1939.7690
 20
-3427.9561
 30
0.0000
 11
1939.9870
 21
-3527.9559
 31
0.0000
 12
1939.9870
 22
-3527.9559
 32
2526.7000
 13
1939.7690
 23
-3427.9561
 33
2526.7000
 70
15
  0
3DFACE
  5
100C
  8
Const_Walls
 10
-894.5139
 20
-1343.8879
 30
0.0000
 11
-2227.7339
 21
-1308.0139
 31
0.0000
 12
-2225.0441
 22
-1208.0501
 32
0.0000
 13
-891.8241
 23
-1243.9241
 33
0.0000
 70
15
  0
3DFACE
  5
100D
  8
Const_Walls
 10
-894.5139
 20
-1343.8879
 30
2526.7000
 11
-2227.7339
 21
-1308.0139
 31
2526.7000
 12
-2225.0441
 22
-1208.0501
 32
2526.7000
 13
-891.8241
 23
-1243.9241
 33
2526.7000
 70
15
  0
3DFACE
  5
100E
  8
Const_Walls
 10
-894.5139
 20
-1343.8879
 30
0.0000
 11
-2227.7339
 21
-1308.0139
 31
0.0000
 12
-2227.7339
 22
-1308.0139
 32
2526.7000
 13
-894.5139
 23
-1343.8879
 33
2526.7000
 70
15
  0
3DFACE
  5
100F
  8
Const_Walls
 10
-2227.7339
 20
-1308.0139
 30
0.0000
 11
-2225.0441
 21
-1208.0501
 31
0.0000
 12
-2225.0441
 22
-1208.0501
 32
2526.7000
 13
-2227.7339
 23
-1308.0139
 33
2526.7000
 70
15
  0
3DFACE
  5
1010
  8
Const_Walls
 10
-2225.0441
 20
-1208.0501
 30
0.0000
 11
-891.8241
 21
-1243.9241
 31
0.0000
 12
-891.8241
 22
-1243.9241
 32
2526.7000
 13
-2225.0441
 23
-1208.0501
 33
2526.7000
 70
15
  0
3DFACE
  5
1011
  8
Const_Walls
 10
-891.8241
 20
-1243.9241
 30
0.0000
 11
-894.5139
 21
-1343.8879
 31
0.0000
 12
-894.5139
 22
-1343.8879
 32
2526.7000
 13
-891.8241
 23
-1243.9241
 33
2526.7000
 70
15
  0
3DFACE
  5
1012
  8
Const_Walls
 10
-2276.7154
 20
-1258.6648
 30
0.0000
 11
-2258.9824
 21
2229.8582
 31
0.0000
 12
-2158.9836
 22
2229.3498
 32
0.0000
 13
-2176.7166
 23
-1259.1732
 33
0.0000
 70
15
  0
3DFACE
  5
1013
  8
Const_Walls
 10
-2276.7154
 20
-1258.6648
 30
2526.7000
 11
-2258.9824
 21
2229.8582
 31
2526.7000
 12
-2158.9836
 22
2229.3498
 32
2526.7000
 13
-2176.7166
 23
-1259.1732
 33
2526.7000
 70
15
  0
3DFACE
  5
1014
  8
Const_Walls
 10
-2276.7154
 20
-1258.6648
 30
0.0000
 11
-2258.9824
 21
2229.8582
 31
0.0000
 12
-2258.9824
 22
2229.8582
 32
2526.7000
 13
-2276.7154
 23
-1258.6648
 33
2526.7000
 70
15
  0
3DFACE
  5
1015
  8
Const_Walls
 10
-2258.9824
 20
2229.8582
 30
0.0000
 11
-2158.9836
 21
2229.3498
 31
0.0000
 12
-2158.9836
 22
2229.3498
 32
2526.7000
 13
-2258.9824
 23
2229.8582
 33
2526.7000
 70
15
  0
3DFACE
  5
1016
  8
Const_Walls
 10
-2158.9836
 20
2229.3498
 30
0.0000
 11
-2176.7166
 21
-1259.1732
 31
0.0000
 12
-2176.7166
 22
-1259.1732
 32
2526.7000
 13
-2158.9836
 23
2229.3498
 33
2526.7000
 70
15
  0
3DFACE
  5
1017
  8
Const_Walls
 10
-2176.7166
 20
-1259.1732
 30
0.0000
 11
-2276.7154
 21
-1258.6648
 31
0.0000
 12
-2276.7154
 22
-1258.6648
 32
2526.7000
 13
-2176.7166
 23
-1259.1732
 33
2526.7000
 70
15
  0
3DFACE
  5
1018
  8
Const_Walls
 10
-2208.9830
 20
2279.6040
 30
0.0000
 11
1943.0230
 21
2279.6040
 31
0.0000
 12
1943.0230
 22
2179.6040
 32
0.0000
 13
-2208.9830
 23
2179.6040
 33
0.0000
 70
15
  0
3DFACE
  5
1019
  8
Const_Walls
 10
-2208.9830
 20
2279.6040
 30
2526.7000
 11
1943.0230
 21
2279.6040
 31
2526.7000
 12
1943.0230
 22
2179.6040
 32
2526.7000
 13
-2208.9830
 23
2179.6040
 33
2526.7000
 70
15
  0
3DFACE
  5
101A
  8
Const_Walls
 10
-2208.9830
 20
2279.6040
 30
0.0000
 11
1943.0230
 21
2279.6040
 31
0.0000
 12
1943.0230
 22
2279.6040
 32
2526.7000
 13
-2208.9830
 23
2279.6040
 33
2526.7000
 70
15
  0
3DFACE
  5
101B
  8
Const_Walls
 10
1943.0230
 20
2279.6040
 30
0.0000
 11
1943.0230
 21
2179.6040
 31
0.0000
 12
1943.0230
 22
2179.6040
 32
2526.7000
 13
1943.0230
 23
2279.6040
 33
2526.7000
 70
15
  0
3DFACE
  5
101C
  8
Const_Walls
 10
1943.0230
 20
2179.6040
 30
0.0000
 11
-2208.9830
 21
2179.6040
 31
0.0000
 12
-2208.9830
 22
2179.6040
 32
2526.7000
 13
1943.0230
 23
2179.6040
 33
2526.7000
 70
15
  0
3DFACE
  5
101D
  8
Const_Walls
 10
-2208.9830
 20
2179.6040
 30
0.0000
 11
-2208.9830
 21
2279.6040
 31
0.0000
 12
-2208.9830
 22
2279.6040
 32
2526.7000
 13
-2208.9830
 23
2179.6040
 33
2526.7000
 70
15
  0
3DFACE
  5
101E
  8
Const_Windows
 10
1961.9120
 20
-3428.2147
 30
900.0000
 11
1061.9134
 21
-3429.7855
 31
900.0000
 12
1062.0880
 22
-3529.7853
 32
900.0000
 13
1962.0866
 23
-3528.2145
 33
900.0000
 70
15
  0
3DFACE
  5
101F
  8
Const_Windows
 10
1961.9120
 20
-3428.2147
 30
2100.0000
 11
1061.9134
 21
-3429.7855
 31
2100.0000
 12
1062.0880
 22
-3529.7853
 32
2100.0000
 13
1962.0866
 23
-3528.2145
 33
2100.0000
 70
15
  0
3DFACE
  5
1020
  8
Const_Windows
 10
1961.9120
 20
-3428.2147
 30
900.0000
 11
1061.9134
 21
-3429.7855
 31
900.0000
 12
1061.9134
 22
-3429.7855
 32
2100.0000
 13
1961.9120
 23
-3428.2147
 33
2100.0000
 70
15
  0
3DFACE
  5
1021
  8
Const_Windows
 10
1061.9134
 20
-3429.7855
 30
900.0000
 11
1062.0880
 21
-3529.7853
 31
900.0000
 12
1062.0880
 22
-3529.7853
 32
2100.0000
 13
1061.9134
 23
-3429.7855
 33
2100.0000
 70
15
  0
3DFACE
  5
1022
  8
Const_Windows
 10
1062.0880
 20
-3529.7853
 30
900.0000
 11
1962.0866
 21
-3528.2145
 31
900.0000
 12
1962.0866
 22
-3528.2145
 32
2100.0000
 13
1062.0880
 23
-3529.7853
 33
2100.0000
 70
15
  0
3DFACE
  5
1023
  8
Const_Windows
 10
1962.0866
 20
-3528.2145
 30
900.0000
 11
1961.9120
 21
-3428.2147
 31
900.0000
 12
1961.9120
 22
-3428.2147
 32
2100.0000
 13
1962.0866
 23
-3528.2145
 33
2100.0000
 70
15
  0
3DFACE
  5
1024
  8
Const_Windows
 10
1881.9558
 20
-3453.3543
 30
980.0000
 11
1141.9569
 21
-3454.6458
 31
980.0000
 12
1142.0442
 22
-3504.6457
 32
980.0000
 13
1882.0431
 23
-3503.3542
 33
980.0000
 70
15
  0
3DFACE
  5
1025
  8
Const_Windows
 10
1881.9558
 20
-3453.3543
 30
2020.0000
 11
1141.9569
 21
-3454.6458
 31
2020.0000
 12
1142.0442
 22
-3504.6457
 32
2020.0000
 13
1882.0431
 23
-3503.3542
 33
2020.0000
 70
15
  0
3DFACE
  5
1026
  8
Const_Windows
 10
1881.9558
 20
-3453.3543
 30
980.0000
 11
1141.9569
 21
-3454.6458
 31
980.0000
 12
1141.9569
 22
-3454.6458
 32
2020.0000
 13
1881.9558
 23
-3453.3543
 33
2020.0000
 70
15
  0
3DFACE
  5
1027
  8
Const_Windows
 10
1141.9569
 20
-3454.6458
 30
980.0000
 11
1142.0442
 21
-3504.6457
 31
980.0000
 12
1142.0442
 22
-3504.6457
 32
2020.0000
 13
1141.9569
 23
-3454.6458
 33
2020.0000
 70
15
  0
3DFACE
  5
1028
  8
Const_Windows
 10
1142.0442
 20
-3504.6457
 30
980.0000
 11
1882.0431
 21
-3503.3542
 31
980.0000
 12
1882.0431
 22
-3503.3542
 32
2020.0000
 13
1142.0442
 23
-3504.6457
 33
2020.0000
 70
15
  0
3DFACE
  5
1029
  8
Const_Windows
 10
1882.0431
 20
-3503.3542
 30
980.0000
 11
1881.9558
 21
-3453.3543
 31
980.0000
 12
1881.9558
 22
-3453.3543
 32
2020.0000
 13
1882.0431
 23
-3503.3542
 33
2020.0000
 70
15
  0
TEXT
  5
102A
  8
Elem_Label
 10
1062.0000
 20
-3479.0000
 30
2140.0000
 40
120.0000
 50
0.0000
  1
\U+05D7\U+05DC\U+05D5\U+05DF
  7
STANDARD
  0
3DFACE
  5
102B
  8
Const_Doors
 10
-825.8454
 20
-1245.7968
 30
0.0000
 11
-1725.5369
 21
-1222.2375
 31
0.0000
 12
-1728.1546
 22
-1322.2032
 32
0.0000
 13
-828.4631
 23
-1345.7625
 33
0.0000
 70
15
  0
3DFACE
  5
102C
  8
Const_Doors
 10
-825.8454
 20
-1245.7968
 30
2100.0000
 11
-1725.5369
 21
-1222.2375
 31
2100.0000
 12
-1728.1546
 22
-1322.2032
 32
2100.0000
 13
-828.4631
 23
-1345.7625
 33
2100.0000
 70
15
  0
3DFACE
  5
102D
  8
Const_Doors
 10
-825.8454
 20
-1245.7968
 30
0.0000
 11
-1725.5369
 21
-1222.2375
 31
0.0000
 12
-1725.5369
 22
-1222.2375
 32
2100.0000
 13
-825.8454
 23
-1245.7968
 33
2100.0000
 70
15
  0
3DFACE
  5
102E
  8
Const_Doors
 10
-1725.5369
 20
-1222.2375
 30
0.0000
 11
-1728.1546
 21
-1322.2032
 31
0.0000
 12
-1728.1546
 22
-1322.2032
 32
2100.0000
 13
-1725.5369
 23
-1222.2375
 33
2100.0000
 70
15
  0
3DFACE
  5
102F
  8
Const_Doors
 10
-1728.1546
 20
-1322.2032
 30
0.0000
 11
-828.4631
 21
-1345.7625
 31
0.0000
 12
-828.4631
 22
-1345.7625
 32
2100.0000
 13
-1728.1546
 23
-1322.2032
 33
2100.0000
 70
15
  0
3DFACE
  5
1030
  8
Const_Doors
 10
-828.4631
 20
-1345.7625
 30
0.0000
 11
-825.8454
 21
-1245.7968
 31
0.0000
 12
-825.8454
 22
-1245.7968
 32
2100.0000
 13
-828.4631
 23
-1345.7625
 33
2100.0000
 70
15
  0
TEXT
  5
1031
  8
Elem_Label
 10
-1727.0000
 20
-1284.0000
 30
2140.0000
 40
120.0000
 50
0.0000
  1
\U+05DE\U+05E2\U+05D1\U+05E8
  7
STANDARD
  0
3DFACE
  5
1032
  8
Const_Doors
 10
-2175.0951
 20
-859.2563
 30
0.0000
 11
-2170.9063
 21
-59.2673
 31
0.0000
 12
-2270.9049
 22
-58.7437
 32
0.0000
 13
-2275.0937
 23
-858.7327
 33
0.0000
 70
15
  0
3DFACE
  5
1033
  8
Const_Doors
 10
-2175.0951
 20
-859.2563
 30
2050.0000
 11
-2170.9063
 21
-59.2673
 31
2050.0000
 12
-2270.9049
 22
-58.7437
 32
2050.0000
 13
-2275.0937
 23
-858.7327
 33
2050.0000
 70
15
  0
3DFACE
  5
1034
  8
Const_Doors
 10
-2175.0951
 20
-859.2563
 30
0.0000
 11
-2170.9063
 21
-59.2673
 31
0.0000
 12
-2170.9063
 22
-59.2673
 32
2050.0000
 13
-2175.0951
 23
-859.2563
 33
2050.0000
 70
15
  0
3DFACE
  5
1035
  8
Const_Doors
 10
-2170.9063
 20
-59.2673
 30
0.0000
 11
-2270.9049
 21
-58.7437
 31
0.0000
 12
-2270.9049
 22
-58.7437
 32
2050.0000
 13
-2170.9063
 23
-59.2673
 33
2050.0000
 70
15
  0
3DFACE
  5
1036
  8
Const_Doors
 10
-2270.9049
 20
-58.7437
 30
0.0000
 11
-2275.0937
 21
-858.7327
 31
0.0000
 12
-2275.0937
 22
-858.7327
 32
2050.0000
 13
-2270.9049
 23
-58.7437
 33
2050.0000
 70
15
  0
3DFACE
  5
1037
  8
Const_Doors
 10
-2275.0937
 20
-858.7327
 30
0.0000
 11
-2175.0951
 21
-859.2563
 31
0.0000
 12
-2175.0951
 22
-859.2563
 32
2050.0000
 13
-2275.0937
 23
-858.7327
 33
2050.0000
 70
15
  0
TEXT
  5
1038
  8
Elem_Label
 10
-2623.0000
 20
-459.0000
 30
2090.0000
 40
120.0000
 50
0.0000
  1
\U+05DE\U+05E4\U+05EA\U+05D7 \U+05E2\U+05DD \U+05DE\U+05E9\U+05E7\U+05D5\U+05E3
  7
STANDARD
  0
3DFACE
  5
1039
  8
Const_Doors
 10
-1809.0000
 20
2180.0000
 30
0.0000
 11
-1009.0000
 21
2180.0000
 31
0.0000
 12
-1009.0000
 22
2280.0000
 32
0.0000
 13
-1809.0000
 23
2280.0000
 33
0.0000
 70
15
  0
3DFACE
  5
103A
  8
Const_Doors
 10
-1809.0000
 20
2180.0000
 30
2050.0000
 11
-1009.0000
 21
2180.0000
 31
2050.0000
 12
-1009.0000
 22
2280.0000
 32
2050.0000
 13
-1809.0000
 23
2280.0000
 33
2050.0000
 70
15
  0
3DFACE
  5
103B
  8
Const_Doors
 10
-1809.0000
 20
2180.0000
 30
0.0000
 11
-1009.0000
 21
2180.0000
 31
0.0000
 12
-1009.0000
 22
2180.0000
 32
2050.0000
 13
-1809.0000
 23
2180.0000
 33
2050.0000
 70
15
  0
3DFACE
  5
103C
  8
Const_Doors
 10
-1009.0000
 20
2180.0000
 30
0.0000
 11
-1009.0000
 21
2280.0000
 31
0.0000
 12
-1009.0000
 22
2280.0000
 32
2050.0000
 13
-1009.0000
 23
2180.0000
 33
2050.0000
 70
15
  0
3DFACE
  5
103D
  8
Const_Doors
 10
-1009.0000
 20
2280.0000
 30
0.0000
 11
-1809.0000
 21
2280.0000
 31
0.0000
 12
-1809.0000
 22
2280.0000
 32
2050.0000
 13
-1009.0000
 23
2280.0000
 33
2050.0000
 70
15
  0
3DFACE
  5
103E
  8
Const_Doors
 10
-1809.0000
 20
2280.0000
 30
0.0000
 11
-1809.0000
 21
2180.0000
 31
0.0000
 12
-1809.0000
 22
2180.0000
 32
2050.0000
 13
-1809.0000
 23
2280.0000
 33
2050.0000
 70
15
  0
TEXT
  5
103F
  8
Elem_Label
 10
-1809.0000
 20
2230.0000
 30
2090.0000
 40
120.0000
 50
0.0000
  1
\U+05D3\U+05DC\U+05EA \U+05E4\U+05E0\U+05D9\U+05DE\U+05D4 \U+05E9\U+05DE\U+05D0\U+05DC
  7
STANDARD
  0
3DFACE
  5
1040
  8
Elem_Electrical
 10
1933.0000
 20
2029.5000
 30
300.0000
 11
1933.0000
 21
1944.5000
 31
300.0000
 12
1953.0000
 22
1944.5000
 32
300.0000
 13
1953.0000
 23
2029.5000
 33
300.0000
 70
15
  0
3DFACE
  5
1041
  8
Elem_Electrical
 10
1933.0000
 20
2029.5000
 30
377.0000
 11
1933.0000
 21
1944.5000
 31
377.0000
 12
1953.0000
 22
1944.5000
 32
377.0000
 13
1953.0000
 23
2029.5000
 33
377.0000
 70
15
  0
3DFACE
  5
1042
  8
Elem_Electrical
 10
1933.0000
 20
2029.5000
 30
300.0000
 11
1933.0000
 21
1944.5000
 31
300.0000
 12
1933.0000
 22
1944.5000
 32
377.0000
 13
1933.0000
 23
2029.5000
 33
377.0000
 70
15
  0
3DFACE
  5
1043
  8
Elem_Electrical
 10
1933.0000
 20
1944.5000
 30
300.0000
 11
1953.0000
 21
1944.5000
 31
300.0000
 12
1953.0000
 22
1944.5000
 32
377.0000
 13
1933.0000
 23
1944.5000
 33
377.0000
 70
15
  0
3DFACE
  5
1044
  8
Elem_Electrical
 10
1953.0000
 20
1944.5000
 30
300.0000
 11
1953.0000
 21
2029.5000
 31
300.0000
 12
1953.0000
 22
2029.5000
 32
377.0000
 13
1953.0000
 23
1944.5000
 33
377.0000
 70
15
  0
3DFACE
  5
1045
  8
Elem_Electrical
 10
1953.0000
 20
2029.5000
 30
300.0000
 11
1933.0000
 21
2029.5000
 31
300.0000
 12
1933.0000
 22
2029.5000
 32
377.0000
 13
1953.0000
 23
2029.5000
 33
377.0000
 70
15
  0
TEXT
  5
1046
  8
Elem_Label
 10
1900.5000
 20
1987.0000
 30
80.0000
 40
407.0000
 50
0.0000
  1
\U+05E9\U+05E7\U+05E2 \U+05D1\U+05D5\U+05D3\U+05D3
  7
STANDARD
  0
3DFACE
  5
1047
  8
Elem_Gas
 10
1933.0000
 20
1430.0000
 30
500.0000
 11
1933.0000
 21
1390.0000
 31
500.0000
 12
1953.0000
 22
1390.0000
 32
500.0000
 13
1953.0000
 23
1430.0000
 33
500.0000
 70
15
  0
3DFACE
  5
1048
  8
Elem_Gas
 10
1933.0000
 20
1430.0000
 30
540.0000
 11
1933.0000
 21
1390.0000
 31
540.0000
 12
1953.0000
 22
1390.0000
 32
540.0000
 13
1953.0000
 23
1430.0000
 33
540.0000
 70
15
  0
3DFACE
  5
1049
  8
Elem_Gas
 10
1933.0000
 20
1430.0000
 30
500.0000
 11
1933.0000
 21
1390.0000
 31
500.0000
 12
1933.0000
 22
1390.0000
 32
540.0000
 13
1933.0000
 23
1430.0000
 33
540.0000
 70
15
  0
3DFACE
  5
104A
  8
Elem_Gas
 10
1933.0000
 20
1390.0000
 30
500.0000
 11
1953.0000
 21
1390.0000
 31
500.0000
 12
1953.0000
 22
1390.0000
 32
540.0000
 13
1933.0000
 23
1390.0000
 33
540.0000
 70
15
  0
3DFACE
  5
104B
  8
Elem_Gas
 10
1953.0000
 20
1390.0000
 30
500.0000
 11
1953.0000
 21
1430.0000
 31
500.0000
 12
1953.0000
 22
1430.0000
 32
540.0000
 13
1953.0000
 23
1390.0000
 33
540.0000
 70
15
  0
3DFACE
  5
104C
  8
Elem_Gas
 10
1953.0000
 20
1430.0000
 30
500.0000
 11
1933.0000
 21
1430.0000
 31
500.0000
 12
1933.0000
 22
1430.0000
 32
540.0000
 13
1953.0000
 23
1430.0000
 33
540.0000
 70
15
  0
TEXT
  5
104D
  8
Elem_Label
 10
1923.0000
 20
1410.0000
 30
80.0000
 40
570.0000
 50
0.0000
  1
\U+05D2\U+05D6
  7
STANDARD
  0
3DFACE
  5
104E
  8
Elem_Electrical
 10
1739.9824
 20
-3468.8604
 30
300.0000
 11
1579.9827
 21
-3469.1396
 31
300.0000
 12
1580.0176
 22
-3489.1396
 32
300.0000
 13
1740.0173
 23
-3488.8604
 33
300.0000
 70
15
  0
3DFACE
  5
104F
  8
Elem_Electrical
 10
1739.9824
 20
-3468.8604
 30
377.0000
 11
1579.9827
 21
-3469.1396
 31
377.0000
 12
1580.0176
 22
-3489.1396
 32
377.0000
 13
1740.0173
 23
-3488.8604
 33
377.0000
 70
15
  0
3DFACE
  5
1050
  8
Elem_Electrical
 10
1739.9824
 20
-3468.8604
 30
300.0000
 11
1579.9827
 21
-3469.1396
 31
300.0000
 12
1579.9827
 22
-3469.1396
 32
377.0000
 13
1739.9824
 23
-3468.8604
 33
377.0000
 70
15
  0
3DFACE
  5
1051
  8
Elem_Electrical
 10
1579.9827
 20
-3469.1396
 30
300.0000
 11
1580.0176
 21
-3489.1396
 31
300.0000
 12
1580.0176
 22
-3489.1396
 32
377.0000
 13
1579.9827
 23
-3469.1396
 33
377.0000
 70
15
  0
3DFACE
  5
1052
  8
Elem_Electrical
 10
1580.0176
 20
-3489.1396
 30
300.0000
 11
1740.0173
 21
-3488.8604
 31
300.0000
 12
1740.0173
 22
-3488.8604
 32
377.0000
 13
1580.0176
 23
-3489.1396
 33
377.0000
 70
15
  0
3DFACE
  5
1053
  8
Elem_Electrical
 10
1740.0173
 20
-3488.8604
 30
300.0000
 11
1739.9824
 21
-3468.8604
 31
300.0000
 12
1739.9824
 22
-3468.8604
 32
377.0000
 13
1740.0173
 23
-3488.8604
 33
377.0000
 70
15
  0
TEXT
  5
1054
  8
Elem_Label
 10
1580.0000
 20
-3479.0000
 30
96.0000
 40
407.0000
 50
0.0000
  1
\U+05E9\U+05E7\U+05E2 \U+05DE\U+05E8\U+05D5\U+05D1\U+05E2
  7
STANDARD
  0
3DFACE
  5
1055
  8
Elem_HVAC
 10
1811.4322
 20
-3153.3024
 30
2226.0000
 11
1011.4334
 21
-3154.6986
 31
2226.0000
 12
1012.5678
 22
-3804.6976
 32
2226.0000
 13
1812.5666
 23
-3803.3014
 33
2226.0000
 70
15
  0
3DFACE
  5
1056
  8
Elem_HVAC
 10
1811.4322
 20
-3153.3024
 30
2526.0000
 11
1011.4334
 21
-3154.6986
 31
2526.0000
 12
1012.5678
 22
-3804.6976
 32
2526.0000
 13
1812.5666
 23
-3803.3014
 33
2526.0000
 70
15
  0
3DFACE
  5
1057
  8
Elem_HVAC
 10
1811.4322
 20
-3153.3024
 30
2226.0000
 11
1011.4334
 21
-3154.6986
 31
2226.0000
 12
1011.4334
 22
-3154.6986
 32
2526.0000
 13
1811.4322
 23
-3153.3024
 33
2526.0000
 70
15
  0
3DFACE
  5
1058
  8
Elem_HVAC
 10
1011.4334
 20
-3154.6986
 30
2226.0000
 11
1012.5678
 21
-3804.6976
 31
2226.0000
 12
1012.5678
 22
-3804.6976
 32
2526.0000
 13
1011.4334
 23
-3154.6986
 33
2526.0000
 70
15
  0
3DFACE
  5
1059
  8
Elem_HVAC
 10
1012.5678
 20
-3804.6976
 30
2226.0000
 11
1812.5666
 21
-3803.3014
 31
2226.0000
 12
1812.5666
 22
-3803.3014
 32
2526.0000
 13
1012.5678
 23
-3804.6976
 33
2526.0000
 70
15
  0
3DFACE
  5
105A
  8
Elem_HVAC
 10
1812.5666
 20
-3803.3014
 30
2226.0000
 11
1811.4322
 21
-3153.3024
 31
2226.0000
 12
1811.4322
 22
-3153.3024
 32
2526.0000
 13
1812.5666
 23
-3803.3014
 33
2526.0000
 70
15
  0
TEXT
  5
105B
  8
Elem_Label
 10
1012.0000
 20
-3479.0000
 30
180.0000
 40
2556.0000
 50
0.0000
  1
\U+05D4\U+05E0\U+05DE\U+05DB\U+05EA \U+05EA\U+05E7\U+05E8\U+05D4 \U+05E2\U+05DD \U+05DE\U+05D6\U+05D2\U+05DF
  7
STANDARD
  0
3DFACE
  5
105C
  8
Elem_Electrical
 10
-1092.7468
 20
-1278.6579
 30
300.0000
 11
-1142.7297
 21
-1277.3490
 31
300.0000
 12
-1143.2532
 22
-1297.3421
 32
300.0000
 13
-1093.2703
 23
-1298.6510
 33
300.0000
 70
15
  0
3DFACE
  5
105D
  8
Elem_Electrical
 10
-1092.7468
 20
-1278.6579
 30
350.0000
 11
-1142.7297
 21
-1277.3490
 31
350.0000
 12
-1143.2532
 22
-1297.3421
 32
350.0000
 13
-1093.2703
 23
-1298.6510
 33
350.0000
 70
15
  0
3DFACE
  5
105E
  8
Elem_Electrical
 10
-1092.7468
 20
-1278.6579
 30
300.0000
 11
-1142.7297
 21
-1277.3490
 31
300.0000
 12
-1142.7297
 22
-1277.3490
 32
350.0000
 13
-1092.7468
 23
-1278.6579
 33
350.0000
 70
15
  0
3DFACE
  5
105F
  8
Elem_Electrical
 10
-1142.7297
 20
-1277.3490
 30
300.0000
 11
-1143.2532
 21
-1297.3421
 31
300.0000
 12
-1143.2532
 22
-1297.3421
 32
350.0000
 13
-1142.7297
 23
-1277.3490
 33
350.0000
 70
15
  0
3DFACE
  5
1060
  8
Elem_Electrical
 10
-1143.2532
 20
-1297.3421
 30
300.0000
 11
-1093.2703
 21
-1298.6510
 31
300.0000
 12
-1093.2703
 22
-1298.6510
 32
350.0000
 13
-1143.2532
 23
-1297.3421
 33
350.0000
 70
15
  0
3DFACE
  5
1061
  8
Elem_Electrical
 10
-1093.2703
 20
-1298.6510
 30
300.0000
 11
-1092.7468
 21
-1278.6579
 31
300.0000
 12
-1092.7468
 22
-1278.6579
 32
350.0000
 13
-1093.2703
 23
-1298.6510
 33
350.0000
 70
15
  0
TEXT
  5
1062
  8
Elem_Label
 10
-1143.0000
 20
-1288.0000
 30
80.0000
 40
380.0000
 50
0.0000
  1
\U+05EA\U+05E9\U+05EA\U+05D9\U+05EA \U+05D7\U+05E9\U+05DE\U+05DC -\U+05E7\U+05D9\U+05E8
  7
STANDARD
  0
3DFACE
  5
1063
  8
Elem_Plumbing
 10
-2216.1049
 20
-1059.0521
 30
300.0000
 11
-2215.8954
 21
-1019.0526
 31
300.0000
 12
-2235.8951
 22
-1018.9479
 32
300.0000
 13
-2236.1046
 23
-1058.9474
 33
300.0000
 70
15
  0
3DFACE
  5
1064
  8
Elem_Plumbing
 10
-2216.1049
 20
-1059.0521
 30
340.0000
 11
-2215.8954
 21
-1019.0526
 31
340.0000
 12
-2235.8951
 22
-1018.9479
 32
340.0000
 13
-2236.1046
 23
-1058.9474
 33
340.0000
 70
15
  0
3DFACE
  5
1065
  8
Elem_Plumbing
 10
-2216.1049
 20
-1059.0521
 30
300.0000
 11
-2215.8954
 21
-1019.0526
 31
300.0000
 12
-2215.8954
 22
-1019.0526
 32
340.0000
 13
-2216.1049
 23
-1059.0521
 33
340.0000
 70
15
  0
3DFACE
  5
1066
  8
Elem_Plumbing
 10
-2215.8954
 20
-1019.0526
 30
300.0000
 11
-2235.8951
 21
-1018.9479
 31
300.0000
 12
-2235.8951
 22
-1018.9479
 32
340.0000
 13
-2215.8954
 23
-1019.0526
 33
340.0000
 70
15
  0
3DFACE
  5
1067
  8
Elem_Plumbing
 10
-2235.8951
 20
-1018.9479
 30
300.0000
 11
-2236.1046
 21
-1058.9474
 31
300.0000
 12
-2236.1046
 22
-1058.9474
 32
340.0000
 13
-2235.8951
 23
-1018.9479
 33
340.0000
 70
15
  0
3DFACE
  5
1068
  8
Elem_Plumbing
 10
-2236.1046
 20
-1058.9474
 30
300.0000
 11
-2216.1049
 21
-1059.0521
 31
300.0000
 12
-2216.1049
 22
-1059.0521
 32
340.0000
 13
-2236.1046
 23
-1058.9474
 33
340.0000
 70
15
  0
TEXT
  5
1069
  8
Elem_Label
 10
-2246.0000
 20
-1039.0000
 30
80.0000
 40
370.0000
 50
0.0000
  1
\U+05DE\U+05D9\U+05DD
  7
STANDARD
  0
3DFACE
  5
106A
  8
Elem_Plumbing
 10
-2084.0000
 20
2220.0000
 30
300.0000
 11
-1934.0000
 21
2220.0000
 31
300.0000
 12
-1934.0000
 22
2240.0000
 32
300.0000
 13
-2084.0000
 23
2240.0000
 33
300.0000
 70
15
  0
3DFACE
  5
106B
  8
Elem_Plumbing
 10
-2084.0000
 20
2220.0000
 30
340.0000
 11
-1934.0000
 21
2220.0000
 31
340.0000
 12
-1934.0000
 22
2240.0000
 32
340.0000
 13
-2084.0000
 23
2240.0000
 33
340.0000
 70
15
  0
3DFACE
  5
106C
  8
Elem_Plumbing
 10
-2084.0000
 20
2220.0000
 30
300.0000
 11
-1934.0000
 21
2220.0000
 31
300.0000
 12
-1934.0000
 22
2220.0000
 32
340.0000
 13
-2084.0000
 23
2220.0000
 33
340.0000
 70
15
  0
3DFACE
  5
106D
  8
Elem_Plumbing
 10
-1934.0000
 20
2220.0000
 30
300.0000
 11
-1934.0000
 21
2240.0000
 31
300.0000
 12
-1934.0000
 22
2240.0000
 32
340.0000
 13
-1934.0000
 23
2220.0000
 33
340.0000
 70
15
  0
3DFACE
  5
106E
  8
Elem_Plumbing
 10
-1934.0000
 20
2240.0000
 30
300.0000
 11
-2084.0000
 21
2240.0000
 31
300.0000
 12
-2084.0000
 22
2240.0000
 32
340.0000
 13
-1934.0000
 23
2240.0000
 33
340.0000
 70
15
  0
3DFACE
  5
106F
  8
Elem_Plumbing
 10
-2084.0000
 20
2240.0000
 30
300.0000
 11
-2084.0000
 21
2220.0000
 31
300.0000
 12
-2084.0000
 22
2220.0000
 32
340.0000
 13
-2084.0000
 23
2240.0000
 33
340.0000
 70
15
  0
TEXT
  5
1070
  8
Elem_Label
 10
-2084.0000
 20
2230.0000
 30
90.0000
 40
370.0000
 50
0.0000
  1
\U+05EA\U+05DE\U+05D94
  7
STANDARD
  0
ENDSEC
  0
EOF
