  0
SECTION
  2
HEADER
  9
$ACADVER
  1
AC1009
  9
$INSBASE
 10
0.0000
 20
0.0000
 30
0.0000
  9
$EXTMIN
 10
-2200.0000
 20
-13187.5000
 30
0.0000
  9
$EXTMAX
 10
11100.0000
 20
1400.0000
 30
0.0000
  9
$DWGCODEPAGE
  3
ansi_1255
  9
$CLAYER
  8
0
  9
$LTSCALE
 40
10.0000
  9
$LIMMIN
 10
0.0000
 20
0.0000
  9
$LIMMAX
 10
2000.0000
 20
200.0000
  0
ENDSEC
  0
SECTION
  2
TABLES
  0
TABLE
  2
VPORT
 70
1
  0
VPORT
  2
*ACTIVE
 70
0
 10
0.0000
 20
0.0000
 11
1.0000
 21
1.0000
 12
4450.0000
 22
-5893.7500
 13
0.0000
 23
0.0000
 14
10.0000
 24
10.0000
 15
10.0000
 25
10.0000
 16
0.0000
 26
0.0000
 36
1.0000
 17
0.0000
 27
0.0000
 37
0.0000
 40
16775.6250
 41
1.6000
 42
50.0000
 43
0.0000
 44
0.0000
 50
0.0000
 51
0.0000
 71
0
 72
100
 73
1
 74
1
 75
0
 76
0
 77
0
 78
0
  0
ENDTAB
  0
TABLE
  2
LTYPE
 70
3
  0
LTYPE
  2
CONTINUOUS
 70
0
  3
Solid line
 72
65
 73
0
 40
0.0000
  0
LTYPE
  2
HIDDEN
 70
0
  3
Hidden __ __ __ __ __ __
 72
65
 73
2
 40
9.5250
 49
6.3500
 49
-3.1750
  0
LTYPE
  2
CENTER
 70
0
  3
Center ____ _ ____ _ ____
 72
65
 73
4
 40
50.8000
 49
31.7500
 49
-6.3500
 49
6.3500
 49
-6.3500
  0
ENDTAB
  0
TABLE
  2
LAYER
 70
71
  0
LAYER
  2
0
 70
0
 62
7
  6
CONTINUOUS
  0
LAYER
  2
קירות
 70
0
 62
7
  6
CONTINUOUS
  0
LAYER
  2
קירות - מילוי
 70
0
 62
8
  6
CONTINUOUS
  0
LAYER
  2
קירות - מידות
 70
0
 62
7
  6
CONTINUOUS
  0
LAYER
  2
קירות - טקסט
 70
0
 62
7
  6
CONTINUOUS
  0
LAYER
  2
קירות - נסתר
 70
0
 62
7
  6
HIDDEN
  0
LAYER
  2
קירות - ציר
 70
0
 62
7
  6
CENTER
  0
LAYER
  2
מבנה
 70
0
 62
9
  6
CONTINUOUS
  0
LAYER
  2
מבנה - מילוי
 70
0
 62
9
  6
CONTINUOUS
  0
LAYER
  2
מבנה - מידות
 70
0
 62
9
  6
CONTINUOUS
  0
LAYER
  2
מבנה - טקסט
 70
0
 62
9
  6
CONTINUOUS
  0
LAYER
  2
מבנה - נסתר
 70
0
 62
9
  6
HIDDEN
  0
LAYER
  2
מבנה - ציר
 70
0
 62
9
  6
CENTER
  0
LAYER
  2
חשמל
 70
0
 62
6
  6
CONTINUOUS
  0
LAYER
  2
חשמל - מידות
 70
0
 62
6
  6
CONTINUOUS
  0
LAYER
  2
חשמל - טקסט
 70
0
 62
6
  6
CONTINUOUS
  0
LAYER
  2
חשמל - נסתר
 70
0
 62
6
  6
HIDDEN
  0
LAYER
  2
תאורה
 70
0
 62
30
  6
CONTINUOUS
  0
LAYER
  2
תאורה - מידות
 70
0
 62
30
  6
CONTINUOUS
  0
LAYER
  2
תאורה - טקסט
 70
0
 62
30
  6
CONTINUOUS
  0
LAYER
  2
תאורה - נסתר
 70
0
 62
30
  6
HIDDEN
  0
LAYER
  2
מים
 70
0
 62
4
  6
CONTINUOUS
  0
LAYER
  2
מים - מידות
 70
0
 62
4
  6
CONTINUOUS
  0
LAYER
  2
מים - טקסט
 70
0
 62
4
  6
CONTINUOUS
  0
LAYER
  2
מים - נסתר
 70
0
 62
4
  6
HIDDEN
  0
LAYER
  2
מים - ציר
 70
0
 62
4
  6
CENTER
  0
LAYER
  2
ניקוז
 70
0
 62
140
  6
CONTINUOUS
  0
LAYER
  2
ניקוז - מידות
 70
0
 62
140
  6
CONTINUOUS
  0
LAYER
  2
ניקוז - טקסט
 70
0
 62
140
  6
CONTINUOUS
  0
LAYER
  2
ניקוז - נסתר
 70
0
 62
140
  6
HIDDEN
  0
LAYER
  2
ניקוז - ציר
 70
0
 62
140
  6
CENTER
  0
LAYER
  2
גז
 70
0
 62
2
  6
CONTINUOUS
  0
LAYER
  2
גז - מידות
 70
0
 62
2
  6
CONTINUOUS
  0
LAYER
  2
גז - טקסט
 70
0
 62
2
  6
CONTINUOUS
  0
LAYER
  2
גז - נסתר
 70
0
 62
2
  6
HIDDEN
  0
LAYER
  2
גז - ציר
 70
0
 62
2
  6
CENTER
  0
LAYER
  2
מיזוג
 70
0
 62
141
  6
CONTINUOUS
  0
LAYER
  2
מיזוג - מידות
 70
0
 62
141
  6
CONTINUOUS
  0
LAYER
  2
מיזוג - טקסט
 70
0
 62
141
  6
CONTINUOUS
  0
LAYER
  2
מיזוג - נסתר
 70
0
 62
141
  6
HIDDEN
  0
LAYER
  2
אוורור
 70
0
 62
131
  6
CONTINUOUS
  0
LAYER
  2
אוורור - מידות
 70
0
 62
131
  6
CONTINUOUS
  0
LAYER
  2
אוורור - טקסט
 70
0
 62
131
  6
CONTINUOUS
  0
LAYER
  2
אוורור - נסתר
 70
0
 62
131
  6
HIDDEN
  0
LAYER
  2
דלתות
 70
0
 62
5
  6
CONTINUOUS
  0
LAYER
  2
דלתות - מידות
 70
0
 62
5
  6
CONTINUOUS
  0
LAYER
  2
דלתות - טקסט
 70
0
 62
5
  6
CONTINUOUS
  0
LAYER
  2
דלתות - נסתר
 70
0
 62
5
  6
HIDDEN
  0
LAYER
  2
דלתות - מילוי
 70
0
 62
5
  6
CONTINUOUS
  0
LAYER
  2
חלונות
 70
0
 62
151
  6
CONTINUOUS
  0
LAYER
  2
חלונות - מידות
 70
0
 62
151
  6
CONTINUOUS
  0
LAYER
  2
חלונות - טקסט
 70
0
 62
151
  6
CONTINUOUS
  0
LAYER
  2
חלונות - נסתר
 70
0
 62
151
  6
HIDDEN
  0
LAYER
  2
ריהוט
 70
0
 62
42
  6
CONTINUOUS
  0
LAYER
  2
ריהוט - מידות
 70
0
 62
42
  6
CONTINUOUS
  0
LAYER
  2
ריהוט - טקסט
 70
0
 62
42
  6
CONTINUOUS
  0
LAYER
  2
ריהוט - נסתר
 70
0
 62
42
  6
HIDDEN
  0
LAYER
  2
מטבח
 70
0
 62
52
  6
CONTINUOUS
  0
LAYER
  2
מטבח - מידות
 70
0
 62
52
  6
CONTINUOUS
  0
LAYER
  2
מטבח - טקסט
 70
0
 62
52
  6
CONTINUOUS
  0
LAYER
  2
מטבח - נסתר
 70
0
 62
52
  6
HIDDEN
  0
LAYER
  2
ריצוף
 70
0
 62
251
  6
CONTINUOUS
  0
LAYER
  2
ריצוף - מילוי
 70
0
 62
8
  6
CONTINUOUS
  0
LAYER
  2
מידות - פנים
 70
0
 62
3
  6
CONTINUOUS
  0
LAYER
  2
מידות - חוץ
 70
0
 62
1
  6
CONTINUOUS
  0
LAYER
  2
מסגרת
 70
0
 62
250
  6
CONTINUOUS
  0
LAYER
  2
גבול גיליון
 70
0
 62
255
  6
CONTINUOUS
  0
LAYER
  2
מקרא
 70
0
 62
150
  6
CONTINUOUS
  0
LAYER
  2
רשת צירים
 70
0
 62
8
  6
CENTER
  0
LAYER
  2
הערות
 70
0
 62
150
  6
CONTINUOUS
  0
LAYER
  2
מהדורות
 70
0
 62
1
  6
CONTINUOUS
  0
ENDTAB
  0
TABLE
  2
STYLE
 70
2
  0
STYLE
  2
SOLINE
 70
0
 40
0.0000
 41
1.0000
 50
0.0000
 71
0
 42
2.5000
  3
arial.ttf
  4

  0
STYLE
  2
Standard
 70
0
 40
0.0000
 41
1.0000
 50
0.0000
 71
0
 42
2.5000
  3
txt
  4

  0
ENDTAB
  0
ENDSEC
  0
SECTION
  2
BLOCKS
  0
BLOCK
  8
0
  2
SS_beam_85x77
 70
0
 10
0.0000
 20
0.0000
 30
0.0000
  3
SS_beam_85x77
  1

  0
LINE
  5
22E
  8
0
 10
-42.5000
 20
47.7400
 30
0.0000
 11
42.5000
 21
47.7400
 31
0.0000
  0
LINE
  5
22F
  8
0
 10
42.5000
 20
47.7400
 30
0.0000
 11
42.5000
 21
29.2600
 31
0.0000
  0
LINE
  5
230
  8
0
 10
42.5000
 20
29.2600
 30
0.0000
 11
-42.5000
 21
29.2600
 31
0.0000
  0
LINE
  5
231
  8
0
 10
-42.5000
 20
29.2600
 30
0.0000
 11
-42.5000
 21
47.7400
 31
0.0000
  0
ENDBLK
  8
0
  0
BLOCK
  8
0
  2
SS_socket_single_85x77
 70
0
 10
0.0000
 20
0.0000
 30
0.0000
  3
SS_socket_single_85x77
  1

  0
LINE
  5
232
  8
0
 10
0.0000
 20
0.0000
 30
0.0000
 11
0.0000
 21
35.4200
 31
0.0000
  0
LINE
  5
233
  8
0
 10
-27.2000
 20
35.4200
 30
0.0000
 11
-27.0290
 21
38.1788
 31
0.0000
  0
LINE
  5
234
  8
0
 10
-27.0290
 20
38.1788
 30
0.0000
 11
-26.5180
 21
40.9029
 31
0.0000
  0
LINE
  5
235
  8
0
 10
-26.5180
 20
40.9029
 30
0.0000
 11
-25.6736
 21
43.5581
 31
0.0000
  0
LINE
  5
236
  8
0
 10
-25.6736
 20
43.5581
 30
0.0000
 11
-24.5064
 21
46.1109
 31
0.0000
  0
LINE
  5
237
  8
0
 10
-24.5064
 20
46.1109
 30
0.0000
 11
-23.0309
 21
48.5293
 31
0.0000
  0
LINE
  5
238
  8
0
 10
-23.0309
 20
48.5293
 30
0.0000
 11
-21.2658
 21
50.7828
 31
0.0000
  0
LINE
  5
239
  8
0
 10
-21.2658
 20
50.7828
 30
0.0000
 11
-19.2333
 21
52.8431
 31
0.0000
  0
LINE
  5
23A
  8
0
 10
-19.2333
 20
52.8431
 30
0.0000
 11
-16.9589
 21
54.6843
 31
0.0000
  0
LINE
  5
23B
  8
0
 10
-16.9589
 20
54.6843
 30
0.0000
 11
-14.4713
 21
56.2833
 31
0.0000
  0
LINE
  5
23C
  8
0
 10
-14.4713
 20
56.2833
 30
0.0000
 11
-11.8016
 21
57.6199
 31
0.0000
  0
LINE
  5
23D
  8
0
 10
-11.8016
 20
57.6199
 30
0.0000
 11
-8.9836
 21
58.6773
 31
0.0000
  0
LINE
  5
23E
  8
0
 10
-8.9836
 20
58.6773
 30
0.0000
 11
-6.0526
 21
59.4422
 31
0.0000
  0
LINE
  5
23F
  8
0
 10
-6.0526
 20
59.4422
 30
0.0000
 11
-3.0454
 21
59.9051
 31
0.0000
  0
LINE
  5
240
  8
0
 10
-3.0454
 20
59.9051
 30
0.0000
 11
0.0000
 21
60.0600
 31
0.0000
  0
LINE
  5
241
  8
0
 10
0.0000
 20
60.0600
 30
0.0000
 11
3.0454
 21
59.9051
 31
0.0000
  0
LINE
  5
242
  8
0
 10
3.0454
 20
59.9051
 30
0.0000
 11
6.0526
 21
59.4422
 31
0.0000
  0
LINE
  5
243
  8
0
 10
6.0526
 20
59.4422
 30
0.0000
 11
8.9836
 21
58.6773
 31
0.0000
  0
LINE
  5
244
  8
0
 10
8.9836
 20
58.6773
 30
0.0000
 11
11.8016
 21
57.6199
 31
0.0000
  0
LINE
  5
245
  8
0
 10
11.8016
 20
57.6199
 30
0.0000
 11
14.4713
 21
56.2833
 31
0.0000
  0
LINE
  5
246
  8
0
 10
14.4713
 20
56.2833
 30
0.0000
 11
16.9589
 21
54.6843
 31
0.0000
  0
LINE
  5
247
  8
0
 10
16.9589
 20
54.6843
 30
0.0000
 11
19.2333
 21
52.8431
 31
0.0000
  0
LINE
  5
248
  8
0
 10
19.2333
 20
52.8431
 30
0.0000
 11
21.2658
 21
50.7828
 31
0.0000
  0
LINE
  5
249
  8
0
 10
21.2658
 20
50.7828
 30
0.0000
 11
23.0309
 21
48.5293
 31
0.0000
  0
LINE
  5
24A
  8
0
 10
23.0309
 20
48.5293
 30
0.0000
 11
24.5064
 21
46.1109
 31
0.0000
  0
LINE
  5
24B
  8
0
 10
24.5064
 20
46.1109
 30
0.0000
 11
25.6736
 21
43.5581
 31
0.0000
  0
LINE
  5
24C
  8
0
 10
25.6736
 20
43.5581
 30
0.0000
 11
26.5180
 21
40.9029
 31
0.0000
  0
LINE
  5
24D
  8
0
 10
26.5180
 20
40.9029
 30
0.0000
 11
27.0290
 21
38.1788
 31
0.0000
  0
LINE
  5
24E
  8
0
 10
27.0290
 20
38.1788
 30
0.0000
 11
27.2000
 21
35.4200
 31
0.0000
  0
LINE
  5
24F
  8
0
 10
-27.2000
 20
35.4200
 30
0.0000
 11
27.2000
 21
35.4200
 31
0.0000
  0
ENDBLK
  8
0
  0
BLOCK
  8
0
  2
SS_junction_cable_85x77
 70
0
 10
0.0000
 20
0.0000
 30
0.0000
  3
SS_junction_cable_85x77
  1

  0
LINE
  5
250
  8
0
 10
0.0000
 20
0.0000
 30
0.0000
 11
0.0000
 21
60.0600
 31
0.0000
  0
LINE
  5
251
  8
0
 10
27.2000
 20
36.9600
 30
0.0000
 11
26.6774
 21
32.1530
 31
0.0000
  0
LINE
  5
252
  8
0
 10
26.6774
 20
32.1530
 30
0.0000
 11
25.1295
 21
27.5307
 31
0.0000
  0
LINE
  5
253
  8
0
 10
25.1295
 20
27.5307
 30
0.0000
 11
22.6160
 21
23.2707
 31
0.0000
  0
LINE
  5
254
  8
0
 10
22.6160
 20
23.2707
 30
0.0000
 11
19.2333
 21
19.5369
 31
0.0000
  0
LINE
  5
255
  8
0
 10
19.2333
 20
19.5369
 30
0.0000
 11
15.1115
 21
16.4726
 31
0.0000
  0
LINE
  5
256
  8
0
 10
15.1115
 20
16.4726
 30
0.0000
 11
10.4090
 21
14.1956
 31
0.0000
  0
LINE
  5
257
  8
0
 10
10.4090
 20
14.1956
 30
0.0000
 11
5.3065
 21
12.7935
 31
0.0000
  0
LINE
  5
258
  8
0
 10
5.3065
 20
12.7935
 30
0.0000
 11
0.0000
 21
12.3200
 31
0.0000
  0
LINE
  5
259
  8
0
 10
0.0000
 20
12.3200
 30
0.0000
 11
-5.3065
 21
12.7935
 31
0.0000
  0
LINE
  5
25A
  8
0
 10
-5.3065
 20
12.7935
 30
0.0000
 11
-10.4090
 21
14.1956
 31
0.0000
  0
LINE
  5
25B
  8
0
 10
-10.4090
 20
14.1956
 30
0.0000
 11
-15.1115
 21
16.4726
 31
0.0000
  0
LINE
  5
25C
  8
0
 10
-15.1115
 20
16.4726
 30
0.0000
 11
-19.2333
 21
19.5369
 31
0.0000
  0
LINE
  5
25D
  8
0
 10
-19.2333
 20
19.5369
 30
0.0000
 11
-22.6160
 21
23.2707
 31
0.0000
  0
LINE
  5
25E
  8
0
 10
-22.6160
 20
23.2707
 30
0.0000
 11
-25.1295
 21
27.5307
 31
0.0000
  0
LINE
  5
25F
  8
0
 10
-25.1295
 20
27.5307
 30
0.0000
 11
-26.6774
 21
32.1530
 31
0.0000
  0
LINE
  5
260
  8
0
 10
-26.6774
 20
32.1530
 30
0.0000
 11
-27.2000
 21
36.9600
 31
0.0000
  0
LINE
  5
261
  8
0
 10
-27.2000
 20
36.9600
 30
0.0000
 11
-26.6774
 21
41.7670
 31
0.0000
  0
LINE
  5
262
  8
0
 10
-26.6774
 20
41.7670
 30
0.0000
 11
-25.1295
 21
46.3893
 31
0.0000
  0
LINE
  5
263
  8
0
 10
-25.1295
 20
46.3893
 30
0.0000
 11
-22.6160
 21
50.6493
 31
0.0000
  0
LINE
  5
264
  8
0
 10
-22.6160
 20
50.6493
 30
0.0000
 11
-19.2333
 21
54.3831
 31
0.0000
  0
LINE
  5
265
  8
0
 10
-19.2333
 20
54.3831
 30
0.0000
 11
-15.1115
 21
57.4474
 31
0.0000
  0
LINE
  5
266
  8
0
 10
-15.1115
 20
57.4474
 30
0.0000
 11
-10.4090
 21
59.7244
 31
0.0000
  0
LINE
  5
267
  8
0
 10
-10.4090
 20
59.7244
 30
0.0000
 11
-5.3065
 21
61.1265
 31
0.0000
  0
LINE
  5
268
  8
0
 10
-5.3065
 20
61.1265
 30
0.0000
 11
0.0000
 21
61.6000
 31
0.0000
  0
LINE
  5
269
  8
0
 10
0.0000
 20
61.6000
 30
0.0000
 11
5.3065
 21
61.1265
 31
0.0000
  0
LINE
  5
26A
  8
0
 10
5.3065
 20
61.1265
 30
0.0000
 11
10.4090
 21
59.7244
 31
0.0000
  0
LINE
  5
26B
  8
0
 10
10.4090
 20
59.7244
 30
0.0000
 11
15.1115
 21
57.4474
 31
0.0000
  0
LINE
  5
26C
  8
0
 10
15.1115
 20
57.4474
 30
0.0000
 11
19.2333
 21
54.3831
 31
0.0000
  0
LINE
  5
26D
  8
0
 10
19.2333
 20
54.3831
 30
0.0000
 11
22.6160
 21
50.6493
 31
0.0000
  0
LINE
  5
26E
  8
0
 10
22.6160
 20
50.6493
 30
0.0000
 11
25.1295
 21
46.3893
 31
0.0000
  0
LINE
  5
26F
  8
0
 10
25.1295
 20
46.3893
 30
0.0000
 11
26.6774
 21
41.7670
 31
0.0000
  0
LINE
  5
270
  8
0
 10
26.6774
 20
41.7670
 30
0.0000
 11
27.2000
 21
36.9600
 31
0.0000
  0
LINE
  5
271
  8
0
 10
0.0000
 20
36.9600
 30
0.0000
 11
-18.7000
 21
53.9000
 31
0.0000
  0
LINE
  5
272
  8
0
 10
0.0000
 20
36.9600
 30
0.0000
 11
18.7000
 21
53.9000
 31
0.0000
  0
LINE
  5
273
  8
0
 10
0.0000
 20
36.9600
 30
0.0000
 11
-18.7000
 21
20.0200
 31
0.0000
  0
LINE
  5
274
  8
0
 10
0.0000
 20
36.9600
 30
0.0000
 11
18.7000
 21
20.0200
 31
0.0000
  0
ENDBLK
  8
0
  0
ENDSEC
  0
SECTION
  2
ENTITIES
  0
SOLID
  5
100
  8
קירות - מילוי
 10
0.0000
 20
100.0000
 30
0.0000
 11
3100.0000
 21
100.0000
 31
0.0000
 12
0.0000
 22
0.0000
 32
0.0000
 13
3000.0000
 23
0.0000
 33
0.0000
  0
LINE
  5
101
  8
קירות
 10
0.0000
 20
100.0000
 30
0.0000
 11
3100.0000
 21
100.0000
 31
0.0000
  0
LINE
  5
102
  8
קירות
 10
0.0000
 20
0.0000
 30
0.0000
 11
3000.0000
 21
0.0000
 31
0.0000
  0
LINE
  5
103
  8
קירות
 10
0.0000
 20
100.0000
 30
0.0000
 11
0.0000
 21
0.0000
 31
0.0000
  0
SOLID
  5
104
  8
קירות - מילוי
 10
3100.0000
 20
100.0000
 30
0.0000
 11
3100.0000
 21
-5000.0000
 31
0.0000
 12
3000.0000
 22
0.0000
 32
0.0000
 13
3000.0000
 23
-5000.0000
 33
0.0000
  0
LINE
  5
105
  8
קירות
 10
3100.0000
 20
100.0000
 30
0.0000
 11
3100.0000
 21
-5000.0000
 31
0.0000
  0
LINE
  5
106
  8
קירות
 10
3000.0000
 20
0.0000
 30
0.0000
 11
3000.0000
 21
-5000.0000
 31
0.0000
  0
LINE
  5
107
  8
קירות
 10
3100.0000
 20
-5000.0000
 30
0.0000
 11
3000.0000
 21
-5000.0000
 31
0.0000
  0
INSERT
  5
108
  8
מבנה
  2
SS_beam_85x77
 10
0.0000
 20
0.0000
 30
0.0000
 41
1.0000
 42
1.0000
 43
1.0000
 50
0.0000
  0
INSERT
  5
109
  8
חשמל
  2
SS_socket_single_85x77
 10
1474.0000
 20
0.0000
 30
0.0000
 41
1.0000
 42
1.0000
 43
1.0000
 50
0.0000
  0
INSERT
  5
10A
  8
חשמל
  2
SS_junction_cable_85x77
 10
3000.0000
 20
-842.0000
 30
0.0000
 41
1.0000
 42
1.0000
 43
1.0000
 50
270.0000
  0
LINE
  5
10B
  8
מידות - פנים
 10
0.0000
 20
-5050.0000
 30
0.0000
 11
0.0000
 21
-5925.0000
 31
0.0000
  0
LINE
  5
10C
  8
מידות - פנים
 10
3000.0000
 20
-5050.0000
 30
0.0000
 11
3000.0000
 21
-5925.0000
 31
0.0000
  0
LINE
  5
10D
  8
מידות - פנים
 10
0.0000
 20
-5850.0000
 30
0.0000
 11
3000.0000
 21
-5850.0000
 31
0.0000
  0
SOLID
  5
10E
  8
מידות - פנים
 10
0.0000
 20
-5850.0000
 30
0.0000
 11
-143.7500
 21
-5890.0000
 31
0.0000
 12
-143.7500
 22
-5810.0000
 32
0.0000
 13
-143.7500
 23
-5810.0000
 33
0.0000
  0
SOLID
  5
10F
  8
מידות - פנים
 10
3000.0000
 20
-5850.0000
 30
0.0000
 11
3143.7500
 21
-5890.0000
 31
0.0000
 12
3143.7500
 22
-5810.0000
 32
0.0000
 13
3143.7500
 23
-5810.0000
 33
0.0000
  0
TEXT
  5
110
  8
מידות - פנים
 10
1500.0000
 20
-5968.7500
 30
0.0000
 40
125.0000
  1
300
 50
0.0000
  7
SOLINE
 72
1
 73
2
 11
1500.0000
 21
-5968.7500
 31
0.0000
  0
LINE
  5
111
  8
מידות - פנים
 10
-50.0000
 20
-5000.0000
 30
0.0000
 11
-925.0000
 21
-5000.0000
 31
0.0000
  0
LINE
  5
112
  8
מידות - פנים
 10
-50.0000
 20
0.0000
 30
0.0000
 11
-925.0000
 21
0.0000
 31
0.0000
  0
LINE
  5
113
  8
מידות - פנים
 10
-850.0000
 20
-5000.0000
 30
0.0000
 11
-850.0000
 21
0.0000
 31
0.0000
  0
SOLID
  5
114
  8
מידות - פנים
 10
-850.0000
 20
-5000.0000
 30
0.0000
 11
-890.0000
 21
-5143.7500
 31
0.0000
 12
-810.0000
 22
-5143.7500
 32
0.0000
 13
-810.0000
 23
-5143.7500
 33
0.0000
  0
SOLID
  5
115
  8
מידות - פנים
 10
-850.0000
 20
0.0000
 30
0.0000
 11
-890.0000
 21
143.7500
 31
0.0000
 12
-810.0000
 22
143.7500
 32
0.0000
 13
-810.0000
 23
143.7500
 33
0.0000
  0
TEXT
  5
116
  8
מידות - פנים
 10
-968.7500
 20
-2500.0000
 30
0.0000
 40
125.0000
  1
500
 50
90.0000
  7
SOLINE
 72
1
 73
2
 11
-968.7500
 21
-2500.0000
 31
0.0000
  0
LINE
  5
117
  8
מידות - חוץ
 10
0.0000
 20
-5050.0000
 30
0.0000
 11
0.0000
 21
-6675.0000
 31
0.0000
  0
LINE
  5
118
  8
מידות - חוץ
 10
3100.0000
 20
-5050.0000
 30
0.0000
 11
3100.0000
 21
-6675.0000
 31
0.0000
  0
LINE
  5
119
  8
מידות - חוץ
 10
0.0000
 20
-6600.0000
 30
0.0000
 11
3100.0000
 21
-6600.0000
 31
0.0000
  0
SOLID
  5
11A
  8
מידות - חוץ
 10
0.0000
 20
-6600.0000
 30
0.0000
 11
-143.7500
 21
-6640.0000
 31
0.0000
 12
-143.7500
 22
-6560.0000
 32
0.0000
 13
-143.7500
 23
-6560.0000
 33
0.0000
  0
SOLID
  5
11B
  8
מידות - חוץ
 10
3100.0000
 20
-6600.0000
 30
0.0000
 11
3243.7500
 21
-6640.0000
 31
0.0000
 12
3243.7500
 22
-6560.0000
 32
0.0000
 13
3243.7500
 23
-6560.0000
 33
0.0000
  0
TEXT
  5
11C
  8
מידות - חוץ
 10
1550.0000
 20
-6718.7500
 30
0.0000
 40
125.0000
  1
310
 50
0.0000
  7
SOLINE
 72
1
 73
2
 11
1550.0000
 21
-6718.7500
 31
0.0000
  0
LINE
  5
11D
  8
מידות - חוץ
 10
-50.0000
 20
-5000.0000
 30
0.0000
 11
-1675.0000
 21
-5000.0000
 31
0.0000
  0
LINE
  5
11E
  8
מידות - חוץ
 10
-50.0000
 20
100.0000
 30
0.0000
 11
-1675.0000
 21
100.0000
 31
0.0000
  0
LINE
  5
11F
  8
מידות - חוץ
 10
-1600.0000
 20
-5000.0000
 30
0.0000
 11
-1600.0000
 21
100.0000
 31
0.0000
  0
SOLID
  5
120
  8
מידות - חוץ
 10
-1600.0000
 20
-5000.0000
 30
0.0000
 11
-1640.0000
 21
-5143.7500
 31
0.0000
 12
-1560.0000
 22
-5143.7500
 32
0.0000
 13
-1560.0000
 23
-5143.7500
 33
0.0000
  0
SOLID
  5
121
  8
מידות - חוץ
 10
-1600.0000
 20
100.0000
 30
0.0000
 11
-1640.0000
 21
243.7500
 31
0.0000
 12
-1560.0000
 22
243.7500
 32
0.0000
 13
-1560.0000
 23
243.7500
 33
0.0000
  0
TEXT
  5
122
  8
מידות - חוץ
 10
-1718.7500
 20
-2450.0000
 30
0.0000
 40
125.0000
  1
510
 50
90.0000
  7
SOLINE
 72
1
 73
2
 11
-1718.7500
 21
-2450.0000
 31
0.0000
  0
LINE
  5
123
  8
מסגרת
 10
4600.0000
 20
200.0000
 30
0.0000
 11
7350.0000
 21
200.0000
 31
0.0000
  0
LINE
  5
124
  8
מסגרת
 10
7350.0000
 20
200.0000
 30
0.0000
 11
7350.0000
 21
-3188.1250
 31
0.0000
  0
LINE
  5
125
  8
מסגרת
 10
7350.0000
 20
-3188.1250
 30
0.0000
 11
4600.0000
 21
-3188.1250
 31
0.0000
  0
LINE
  5
126
  8
מסגרת
 10
4600.0000
 20
-3188.1250
 30
0.0000
 11
4600.0000
 21
200.0000
 31
0.0000
  0
LINE
  5
127
  8
מסגרת
 10
4600.0000
 20
-360.6250
 30
0.0000
 11
7350.0000
 21
-360.6250
 31
0.0000
  0
LINE
  5
128
  8
מסגרת
 10
4675.0000
 20
-298.1250
 30
0.0000
 11
5250.0000
 21
-298.1250
 31
0.0000
  0
LINE
  5
129
  8
מסגרת
 10
5250.0000
 20
-298.1250
 30
0.0000
 11
5250.0000
 21
137.5000
 31
0.0000
  0
LINE
  5
12A
  8
מסגרת
 10
5250.0000
 20
137.5000
 30
0.0000
 11
4675.0000
 21
137.5000
 31
0.0000
  0
LINE
  5
12B
  8
מסגרת
 10
4675.0000
 20
137.5000
 30
0.0000
 11
4675.0000
 21
-298.1250
 31
0.0000
  0
TEXT
  5
12C
  8
מסגרת
 10
5325.0000
 20
-46.6750
 30
0.0000
 40
250.0000
  1
SOLINE
 50
0.0000
  7
SOLINE
 73
2
 11
5325.0000
 21
-46.6750
 31
0.0000
  0
TEXT
  5
12D
  8
מקרא
 10
4962.5000
 20
-259.7125
 30
0.0000
 40
68.7500
  1
brand/soline-logo.png
 50
0.0000
  7
SOLINE
 72
1
 73
2
 11
4962.5000
 21
-259.7125
 31
0.0000
  0
TEXT
  5
12E
  8
מסגרת
 10
4675.0000
 20
-531.2500
 30
0.0000
 40
102.5000
  1
Project:
 50
0.0000
  7
SOLINE
 73
2
 11
4675.0000
 21
-531.2500
 31
0.0000
  0
TEXT
  5
12F
  8
מסגרת
 10
7275.0000
 20
-531.2500
 30
0.0000
 40
110.0000
  1
-
 50
0.0000
  7
SOLINE
 72
2
 73
2
 11
7275.0000
 21
-531.2500
 31
0.0000
  0
TEXT
  5
130
  8
מסגרת
 10
4675.0000
 20
-775.0000
 30
0.0000
 40
102.5000
  1
Client:
 50
0.0000
  7
SOLINE
 73
2
 11
4675.0000
 21
-775.0000
 31
0.0000
  0
TEXT
  5
131
  8
מסגרת
 10
7275.0000
 20
-775.0000
 30
0.0000
 40
110.0000
  1
-
 50
0.0000
  7
SOLINE
 72
2
 73
2
 11
7275.0000
 21
-775.0000
 31
0.0000
  0
TEXT
  5
132
  8
מסגרת
 10
4675.0000
 20
-1018.7500
 30
0.0000
 40
102.5000
  1
Address:
 50
0.0000
  7
SOLINE
 73
2
 11
4675.0000
 21
-1018.7500
 31
0.0000
  0
TEXT
  5
133
  8
מסגרת
 10
7275.0000
 20
-1018.7500
 30
0.0000
 40
110.0000
  1
-
 50
0.0000
  7
SOLINE
 72
2
 73
2
 11
7275.0000
 21
-1018.7500
 31
0.0000
  0
TEXT
  5
134
  8
מסגרת
 10
4675.0000
 20
-1262.5000
 30
0.0000
 40
102.5000
  1
Drawing:
 50
0.0000
  7
SOLINE
 73
2
 11
4675.0000
 21
-1262.5000
 31
0.0000
  0
TEXT
  5
135
  8
מסגרת
 10
7275.0000
 20
-1262.5000
 30
0.0000
 40
110.0000
  1
Measurement Plan
 50
0.0000
  7
SOLINE
 72
2
 73
2
 11
7275.0000
 21
-1262.5000
 31
0.0000
  0
TEXT
  5
136
  8
מסגרת
 10
4675.0000
 20
-1506.2500
 30
0.0000
 40
102.5000
  1
Scale:
 50
0.0000
  7
SOLINE
 73
2
 11
4675.0000
 21
-1506.2500
 31
0.0000
  0
TEXT
  5
137
  8
מסגרת
 10
7275.0000
 20
-1506.2500
 30
0.0000
 40
110.0000
  1
1:50  (mm)
 50
0.0000
  7
SOLINE
 72
2
 73
2
 11
7275.0000
 21
-1506.2500
 31
0.0000
  0
TEXT
  5
138
  8
מסגרת
 10
4675.0000
 20
-1750.0000
 30
0.0000
 40
102.5000
  1
Date:
 50
0.0000
  7
SOLINE
 73
2
 11
4675.0000
 21
-1750.0000
 31
0.0000
  0
TEXT
  5
139
  8
מסגרת
 10
7275.0000
 20
-1750.0000
 30
0.0000
 40
110.0000
  1
2026-08-24
 50
0.0000
  7
SOLINE
 72
2
 73
2
 11
7275.0000
 21
-1750.0000
 31
0.0000
  0
TEXT
  5
13A
  8
מסגרת
 10
4675.0000
 20
-1993.7500
 30
0.0000
 40
102.5000
  1
Surveyor:
 50
0.0000
  7
SOLINE
 73
2
 11
4675.0000
 21
-1993.7500
 31
0.0000
  0
TEXT
  5
13B
  8
מסגרת
 10
7275.0000
 20
-1993.7500
 30
0.0000
 40
110.0000
  1
-
 50
0.0000
  7
SOLINE
 72
2
 73
2
 11
7275.0000
 21
-1993.7500
 31
0.0000
  0
TEXT
  5
13C
  8
מסגרת
 10
4675.0000
 20
-2237.5000
 30
0.0000
 40
102.5000
  1
Checked:
 50
0.0000
  7
SOLINE
 73
2
 11
4675.0000
 21
-2237.5000
 31
0.0000
  0
TEXT
  5
13D
  8
מסגרת
 10
7275.0000
 20
-2237.5000
 30
0.0000
 40
110.0000
  1
-
 50
0.0000
  7
SOLINE
 72
2
 73
2
 11
7275.0000
 21
-2237.5000
 31
0.0000
  0
TEXT
  5
13E
  8
מסגרת
 10
4675.0000
 20
-2481.2500
 30
0.0000
 40
102.5000
  1
Drawing No:
 50
0.0000
  7
SOLINE
 73
2
 11
4675.0000
 21
-2481.2500
 31
0.0000
  0
TEXT
  5
13F
  8
מסגרת
 10
7275.0000
 20
-2481.2500
 30
0.0000
 40
110.0000
  1
M-01
 50
0.0000
  7
SOLINE
 72
2
 73
2
 11
7275.0000
 21
-2481.2500
 31
0.0000
  0
TEXT
  5
140
  8
מסגרת
 10
4675.0000
 20
-2725.0000
 30
0.0000
 40
102.5000
  1
Sheet:
 50
0.0000
  7
SOLINE
 73
2
 11
4675.0000
 21
-2725.0000
 31
0.0000
  0
TEXT
  5
141
  8
מסגרת
 10
7275.0000
 20
-2725.0000
 30
0.0000
 40
110.0000
  1
1/1
 50
0.0000
  7
SOLINE
 72
2
 73
2
 11
7275.0000
 21
-2725.0000
 31
0.0000
  0
TEXT
  5
142
  8
מסגרת
 10
4675.0000
 20
-2968.7500
 30
0.0000
 40
102.5000
  1
Revision:
 50
0.0000
  7
SOLINE
 73
2
 11
4675.0000
 21
-2968.7500
 31
0.0000
  0
TEXT
  5
143
  8
מסגרת
 10
7275.0000
 20
-2968.7500
 30
0.0000
 40
110.0000
  1
0
 50
0.0000
  7
SOLINE
 72
2
 73
2
 11
7275.0000
 21
-2968.7500
 31
0.0000
  0
LINE
  5
144
  8
מסגרת
 10
4600.0000
 20
-3463.1250
 30
0.0000
 11
7350.0000
 21
-3463.1250
 31
0.0000
  0
LINE
  5
145
  8
מסגרת
 10
7350.0000
 20
-3463.1250
 30
0.0000
 11
7350.0000
 21
-5673.1250
 31
0.0000
  0
LINE
  5
146
  8
מסגרת
 10
7350.0000
 20
-5673.1250
 30
0.0000
 11
4600.0000
 21
-5673.1250
 31
0.0000
  0
LINE
  5
147
  8
מסגרת
 10
4600.0000
 20
-5673.1250
 30
0.0000
 11
4600.0000
 21
-3463.1250
 31
0.0000
  0
LINE
  5
148
  8
מסגרת
 10
4600.0000
 20
-3853.1250
 30
0.0000
 11
7350.0000
 21
-3853.1250
 31
0.0000
  0
TEXT
  5
149
  8
מקרא
 10
7275.0000
 20
-3697.1250
 30
0.0000
 40
175.0000
  1
מקרא וספירת אלמנטים
 50
0.0000
  7
SOLINE
 72
2
 73
2
 11
7275.0000
 21
-3697.1250
 31
0.0000
  0
TEXT
  5
14A
  8
מקרא
 10
7275.0000
 20
-4031.8750
 30
0.0000
 40
131.2500
  1
חשמל  (2)
 50
0.0000
  7
SOLINE
 72
2
 73
2
 11
7275.0000
 21
-4031.8750
 31
0.0000
  0
LINE
  5
14B
  8
חשמל
 10
4875.0000
 20
-4446.1250
 30
0.0000
 11
4875.0000
 21
-4348.3750
 31
0.0000
  0
LINE
  5
14C
  8
חשמל
 10
4807.0000
 20
-4348.3750
 30
0.0000
 11
4807.4276
 21
-4340.7614
 31
0.0000
  0
LINE
  5
14D
  8
חשמל
 10
4807.4276
 20
-4340.7614
 30
0.0000
 11
4808.7049
 21
-4333.2436
 31
0.0000
  0
LINE
  5
14E
  8
חשמל
 10
4808.7049
 20
-4333.2436
 30
0.0000
 11
4810.8159
 21
-4325.9160
 31
0.0000
  0
LINE
  5
14F
  8
חשמל
 10
4810.8159
 20
-4325.9160
 30
0.0000
 11
4813.7341
 21
-4318.8709
 31
0.0000
  0
LINE
  5
150
  8
חשמל
 10
4813.7341
 20
-4318.8709
 30
0.0000
 11
4817.4228
 21
-4312.1968
 31
0.0000
  0
LINE
  5
151
  8
חשמל
 10
4817.4228
 20
-4312.1968
 30
0.0000
 11
4821.8355
 21
-4305.9777
 31
0.0000
  0
LINE
  5
152
  8
חשמל
 10
4821.8355
 20
-4305.9777
 30
0.0000
 11
4826.9167
 21
-4300.2917
 31
0.0000
  0
LINE
  5
153
  8
חשמל
 10
4826.9167
 20
-4300.2917
 30
0.0000
 11
4832.6027
 21
-4295.2105
 31
0.0000
  0
LINE
  5
154
  8
חשמל
 10
4832.6027
 20
-4295.2105
 30
0.0000
 11
4838.8218
 21
-4290.7978
 31
0.0000
  0
LINE
  5
155
  8
חשמל
 10
4838.8218
 20
-4290.7978
 30
0.0000
 11
4845.4959
 21
-4287.1091
 31
0.0000
  0
LINE
  5
156
  8
חשמל
 10
4845.4959
 20
-4287.1091
 30
0.0000
 11
4852.5410
 21
-4284.1909
 31
0.0000
  0
LINE
  5
157
  8
חשמל
 10
4852.5410
 20
-4284.1909
 30
0.0000
 11
4859.8686
 21
-4282.0799
 31
0.0000
  0
LINE
  5
158
  8
חשמל
 10
4859.8686
 20
-4282.0799
 30
0.0000
 11
4867.3864
 21
-4280.8026
 31
0.0000
  0
LINE
  5
159
  8
חשמל
 10
4867.3864
 20
-4280.8026
 30
0.0000
 11
4875.0000
 21
-4280.3750
 31
0.0000
  0
LINE
  5
15A
  8
חשמל
 10
4875.0000
 20
-4280.3750
 30
0.0000
 11
4882.6136
 21
-4280.8026
 31
0.0000
  0
LINE
  5
15B
  8
חשמל
 10
4882.6136
 20
-4280.8026
 30
0.0000
 11
4890.1314
 21
-4282.0799
 31
0.0000
  0
LINE
  5
15C
  8
חשמל
 10
4890.1314
 20
-4282.0799
 30
0.0000
 11
4897.4590
 21
-4284.1909
 31
0.0000
  0
LINE
  5
15D
  8
חשמל
 10
4897.4590
 20
-4284.1909
 30
0.0000
 11
4904.5041
 21
-4287.1091
 31
0.0000
  0
LINE
  5
15E
  8
חשמל
 10
4904.5041
 20
-4287.1091
 30
0.0000
 11
4911.1782
 21
-4290.7978
 31
0.0000
  0
LINE
  5
15F
  8
חשמל
 10
4911.1782
 20
-4290.7978
 30
0.0000
 11
4917.3973
 21
-4295.2105
 31
0.0000
  0
LINE
  5
160
  8
חשמל
 10
4917.3973
 20
-4295.2105
 30
0.0000
 11
4923.0833
 21
-4300.2917
 31
0.0000
  0
LINE
  5
161
  8
חשמל
 10
4923.0833
 20
-4300.2917
 30
0.0000
 11
4928.1645
 21
-4305.9777
 31
0.0000
  0
LINE
  5
162
  8
חשמל
 10
4928.1645
 20
-4305.9777
 30
0.0000
 11
4932.5772
 21
-4312.1968
 31
0.0000
  0
LINE
  5
163
  8
חשמל
 10
4932.5772
 20
-4312.1968
 30
0.0000
 11
4936.2659
 21
-4318.8709
 31
0.0000
  0
LINE
  5
164
  8
חשמל
 10
4936.2659
 20
-4318.8709
 30
0.0000
 11
4939.1841
 21
-4325.9160
 31
0.0000
  0
LINE
  5
165
  8
חשמל
 10
4939.1841
 20
-4325.9160
 30
0.0000
 11
4941.2951
 21
-4333.2436
 31
0.0000
  0
LINE
  5
166
  8
חשמל
 10
4941.2951
 20
-4333.2436
 30
0.0000
 11
4942.5724
 21
-4340.7614
 31
0.0000
  0
LINE
  5
167
  8
חשמל
 10
4942.5724
 20
-4340.7614
 30
0.0000
 11
4943.0000
 21
-4348.3750
 31
0.0000
  0
LINE
  5
168
  8
חשמל
 10
4807.0000
 20
-4348.3750
 30
0.0000
 11
4943.0000
 21
-4348.3750
 31
0.0000
  0
TEXT
  5
169
  8
מקרא
 10
5175.0000
 20
-4356.8750
 30
0.0000
 40
112.5000
  1
x1
 50
0.0000
  7
SOLINE
 73
2
 11
5175.0000
 21
-4356.8750
 31
0.0000
  0
TEXT
  5
16A
  8
מקרא
 10
7275.0000
 20
-4356.8750
 30
0.0000
 40
125.0000
  1
שקע
 50
0.0000
  7
SOLINE
 72
2
 73
2
 11
7275.0000
 21
-4356.8750
 31
0.0000
  0
LINE
  5
16B
  8
חשמל
 10
4875.0000
 20
-4771.1250
 30
0.0000
 11
4875.0000
 21
-4605.3750
 31
0.0000
  0
ARC
  5
16C
  8
חשמל
 10
4875.0000
 20
-4669.1250
 30
0.0000
 40
68.0000
 50
0.0000
 51
360.0000
  0
LINE
  5
16D
  8
חשמל
 10
4875.0000
 20
-4669.1250
 30
0.0000
 11
4828.2500
 21
-4622.3750
 31
0.0000
  0
LINE
  5
16E
  8
חשמל
 10
4875.0000
 20
-4669.1250
 30
0.0000
 11
4921.7500
 21
-4622.3750
 31
0.0000
  0
LINE
  5
16F
  8
חשמל
 10
4875.0000
 20
-4669.1250
 30
0.0000
 11
4828.2500
 21
-4715.8750
 31
0.0000
  0
LINE
  5
170
  8
חשמל
 10
4875.0000
 20
-4669.1250
 30
0.0000
 11
4921.7500
 21
-4715.8750
 31
0.0000
  0
TEXT
  5
171
  8
מקרא
 10
5175.0000
 20
-4681.8750
 30
0.0000
 40
112.5000
  1
x1
 50
0.0000
  7
SOLINE
 73
2
 11
5175.0000
 21
-4681.8750
 31
0.0000
  0
TEXT
  5
172
  8
מקרא
 10
7275.0000
 20
-4681.8750
 30
0.0000
 40
125.0000
  1
תשתית חשמל
 50
0.0000
  7
SOLINE
 72
2
 73
2
 11
7275.0000
 21
-4681.8750
 31
0.0000
  0
TEXT
  5
173
  8
מקרא
 10
7275.0000
 20
-5006.8750
 30
0.0000
 40
131.2500
  1
מבנה  (1)
 50
0.0000
  7
SOLINE
 72
2
 73
2
 11
7275.0000
 21
-5006.8750
 31
0.0000
  0
LINE
  5
174
  8
מבנה
 10
4768.7500
 20
-5289.3750
 30
0.0000
 11
4981.2500
 21
-5289.3750
 31
0.0000
  0
LINE
  5
175
  8
מבנה
 10
4981.2500
 20
-5289.3750
 30
0.0000
 11
4981.2500
 21
-5340.3750
 31
0.0000
  0
LINE
  5
176
  8
מבנה
 10
4981.2500
 20
-5340.3750
 30
0.0000
 11
4768.7500
 21
-5340.3750
 31
0.0000
  0
LINE
  5
177
  8
מבנה
 10
4768.7500
 20
-5340.3750
 30
0.0000
 11
4768.7500
 21
-5289.3750
 31
0.0000
  0
TEXT
  5
178
  8
מקרא
 10
5175.0000
 20
-5331.8750
 30
0.0000
 40
112.5000
  1
x1
 50
0.0000
  7
SOLINE
 73
2
 11
5175.0000
 21
-5331.8750
 31
0.0000
  0
TEXT
  5
179
  8
מקרא
 10
7275.0000
 20
-5331.8750
 30
0.0000
 40
125.0000
  1
עמוד
 50
0.0000
  7
SOLINE
 72
2
 73
2
 11
7275.0000
 21
-5331.8750
 31
0.0000
  0
LINE
  5
17A
  8
מסגרת
 10
5975.0000
 20
-6198.1250
 30
0.0000
 11
5975.0000
 21
-5573.1250
 31
0.0000
  0
SOLID
  5
17B
  8
מסגרת
 10
5975.0000
 20
-5573.1250
 30
0.0000
 11
5912.5000
 21
-5698.1250
 31
0.0000
 12
6037.5000
 22
-5698.1250
 32
0.0000
 13
6037.5000
 23
-5698.1250
 33
0.0000
  0
TEXT
  5
17C
  8
מסגרת
 10
5975.0000
 20
-5535.6250
 30
0.0000
 40
137.5000
  1
N
 50
0.0000
  7
SOLINE
 72
1
 73
3
 11
5975.0000
 21
-5535.6250
 31
0.0000
  0
LINE
  5
17D
  8
מסגרת
 10
5600.0000
 20
-6385.6250
 30
0.0000
 11
6400.0000
 21
-6385.6250
 31
0.0000
  0
LINE
  5
17E
  8
מסגרת
 10
5600.0000
 20
-6385.6250
 30
0.0000
 11
5600.0000
 21
-6448.1250
 31
0.0000
  0
LINE
  5
17F
  8
מסגרת
 10
5800.0000
 20
-6385.6250
 30
0.0000
 11
5800.0000
 21
-6448.1250
 31
0.0000
  0
LINE
  5
180
  8
מסגרת
 10
6000.0000
 20
-6385.6250
 30
0.0000
 11
6000.0000
 21
-6448.1250
 31
0.0000
  0
LINE
  5
181
  8
מסגרת
 10
6200.0000
 20
-6385.6250
 30
0.0000
 11
6200.0000
 21
-6448.1250
 31
0.0000
  0
LINE
  5
182
  8
מסגרת
 10
6400.0000
 20
-6385.6250
 30
0.0000
 11
6400.0000
 21
-6448.1250
 31
0.0000
  0
TEXT
  5
183
  8
מסגרת
 10
5600.0000
 20
-6585.6250
 30
0.0000
 40
87.5000
  1
0
 50
0.0000
  7
SOLINE
 72
1
 11
5600.0000
 21
-6585.6250
 31
0.0000
  0
TEXT
  5
184
  8
מסגרת
 10
6400.0000
 20
-6585.6250
 30
0.0000
 40
87.5000
  1
0.8 m
 50
0.0000
  7
SOLINE
 72
2
 11
6400.0000
 21
-6585.6250
 31
0.0000
  0
LINE
  5
185
  8
קירות
 10
-200.0000
 20
-10800.0000
 30
0.0000
 11
2800.0000
 21
-10800.0000
 31
0.0000
  0
LINE
  5
186
  8
קירות
 10
2800.0000
 20
-10800.0000
 30
0.0000
 11
2800.0000
 21
-8100.0000
 31
0.0000
  0
LINE
  5
187
  8
קירות
 10
2800.0000
 20
-8100.0000
 30
0.0000
 11
-200.0000
 21
-8100.0000
 31
0.0000
  0
LINE
  5
188
  8
קירות
 10
-200.0000
 20
-8100.0000
 30
0.0000
 11
-200.0000
 21
-10800.0000
 31
0.0000
  0
LINE
  5
189
  8
מידות - חוץ
 10
-200.0000
 20
-10850.0000
 30
0.0000
 11
-200.0000
 21
-11250.0000
 31
0.0000
  0
LINE
  5
18A
  8
מידות - חוץ
 10
2800.0000
 20
-10850.0000
 30
0.0000
 11
2800.0000
 21
-11250.0000
 31
0.0000
  0
LINE
  5
18B
  8
מידות - חוץ
 10
-200.0000
 20
-11175.0000
 30
0.0000
 11
2800.0000
 21
-11175.0000
 31
0.0000
  0
SOLID
  5
18C
  8
מידות - חוץ
 10
-200.0000
 20
-11175.0000
 30
0.0000
 11
-343.7500
 21
-11215.0000
 31
0.0000
 12
-343.7500
 22
-11135.0000
 32
0.0000
 13
-343.7500
 23
-11135.0000
 33
0.0000
  0
SOLID
  5
18D
  8
מידות - חוץ
 10
2800.0000
 20
-11175.0000
 30
0.0000
 11
2943.7500
 21
-11215.0000
 31
0.0000
 12
2943.7500
 22
-11135.0000
 32
0.0000
 13
2943.7500
 23
-11135.0000
 33
0.0000
  0
TEXT
  5
18E
  8
מידות - חוץ
 10
1300.0000
 20
-11293.7500
 30
0.0000
 40
125.0000
  1
300
 50
0.0000
  7
SOLINE
 72
1
 73
2
 11
1300.0000
 21
-11293.7500
 31
0.0000
  0
LINE
  5
18F
  8
מידות - חוץ
 10
-250.0000
 20
-10800.0000
 30
0.0000
 11
-650.0000
 21
-10800.0000
 31
0.0000
  0
LINE
  5
190
  8
מידות - חוץ
 10
-250.0000
 20
-8100.0000
 30
0.0000
 11
-650.0000
 21
-8100.0000
 31
0.0000
  0
LINE
  5
191
  8
מידות - חוץ
 10
-575.0000
 20
-10800.0000
 30
0.0000
 11
-575.0000
 21
-8100.0000
 31
0.0000
  0
SOLID
  5
192
  8
מידות - חוץ
 10
-575.0000
 20
-10800.0000
 30
0.0000
 11
-615.0000
 21
-10943.7500
 31
0.0000
 12
-535.0000
 22
-10943.7500
 32
0.0000
 13
-535.0000
 23
-10943.7500
 33
0.0000
  0
SOLID
  5
193
  8
מידות - חוץ
 10
-575.0000
 20
-8100.0000
 30
0.0000
 11
-615.0000
 21
-7956.2500
 31
0.0000
 12
-535.0000
 22
-7956.2500
 32
0.0000
 13
-535.0000
 23
-7956.2500
 33
0.0000
  0
TEXT
  5
194
  8
מידות - חוץ
 10
-693.7500
 20
-9450.0000
 30
0.0000
 40
125.0000
  1
270
 50
90.0000
  7
SOLINE
 72
1
 73
2
 11
-693.7500
 21
-9450.0000
 31
0.0000
  0
LINE
  5
195
  8
מבנה
 10
-242.5000
 20
-10500.0000
 30
0.0000
 11
-157.5000
 21
-10500.0000
 31
0.0000
  0
LINE
  5
196
  8
מבנה
 10
-157.5000
 20
-10500.0000
 30
0.0000
 11
-157.5000
 21
-10423.0000
 31
0.0000
  0
LINE
  5
197
  8
מבנה
 10
-157.5000
 20
-10423.0000
 30
0.0000
 11
-242.5000
 21
-10423.0000
 31
0.0000
  0
LINE
  5
198
  8
מבנה
 10
-242.5000
 20
-10423.0000
 30
0.0000
 11
-242.5000
 21
-10500.0000
 31
0.0000
  0
LINE
  5
199
  8
מבנה
 10
-242.5000
 20
-10452.2600
 30
0.0000
 11
-157.5000
 21
-10452.2600
 31
0.0000
  0
LINE
  5
19A
  8
מבנה
 10
-157.5000
 20
-10452.2600
 30
0.0000
 11
-157.5000
 21
-10470.7400
 31
0.0000
  0
LINE
  5
19B
  8
מבנה
 10
-157.5000
 20
-10470.7400
 30
0.0000
 11
-242.5000
 21
-10470.7400
 31
0.0000
  0
LINE
  5
19C
  8
מבנה
 10
-242.5000
 20
-10470.7400
 30
0.0000
 11
-242.5000
 21
-10452.2600
 31
0.0000
  0
LINE
  5
19D
  8
מבנה - מידות
 10
-200.0000
 20
-10760.0000
 30
0.0000
 11
-200.0000
 21
-9927.5000
 31
0.0000
  0
LINE
  5
19E
  8
מבנה - מידות
 10
-242.5000
 20
-10760.0000
 30
0.0000
 11
-242.5000
 21
-9927.5000
 31
0.0000
  0
LINE
  5
19F
  8
מבנה - מידות
 10
-200.0000
 20
-9987.5000
 30
0.0000
 11
-242.5000
 21
-9987.5000
 31
0.0000
  0
SOLID
  5
1A0
  8
מבנה - מידות
 10
-200.0000
 20
-9987.5000
 30
0.0000
 11
-85.0000
 21
-9955.5000
 31
0.0000
 12
-85.0000
 22
-10019.5000
 32
0.0000
 13
-85.0000
 23
-10019.5000
 33
0.0000
  0
SOLID
  5
1A1
  8
מבנה - מידות
 10
-242.5000
 20
-9987.5000
 30
0.0000
 11
-357.5000
 21
-9955.5000
 31
0.0000
 12
-357.5000
 22
-10019.5000
 32
0.0000
 13
-357.5000
 23
-10019.5000
 33
0.0000
  0
TEXT
  5
1A2
  8
מבנה - מידות
 10
-221.2500
 20
-9892.5000
 30
0.0000
 40
100.0000
  1
4.3
 50
360.0000
  7
SOLINE
 72
1
 73
2
 11
-221.2500
 21
-9892.5000
 31
0.0000
  0
LINE
  5
1A3
  8
מבנה - מידות
 10
-242.5000
 20
-10383.0000
 30
0.0000
 11
-242.5000
 21
-10139.5000
 31
0.0000
  0
LINE
  5
1A4
  8
מבנה - מידות
 10
-157.5000
 20
-10383.0000
 30
0.0000
 11
-157.5000
 21
-10139.5000
 31
0.0000
  0
LINE
  5
1A5
  8
מבנה - מידות
 10
-242.5000
 20
-10198.0000
 30
0.0000
 11
-157.5000
 21
-10198.0000
 31
0.0000
  0
SOLID
  5
1A6
  8
מבנה - מידות
 10
-242.5000
 20
-10198.0000
 30
0.0000
 11
-354.6250
 21
-10166.8000
 31
0.0000
 12
-354.6250
 22
-10229.2000
 32
0.0000
 13
-354.6250
 23
-10229.2000
 33
0.0000
  0
SOLID
  5
1A7
  8
מבנה - מידות
 10
-157.5000
 20
-10198.0000
 30
0.0000
 11
-45.3750
 21
-10166.8000
 31
0.0000
 12
-45.3750
 22
-10229.2000
 32
0.0000
 13
-45.3750
 23
-10229.2000
 33
0.0000
  0
TEXT
  5
1A8
  8
מבנה - מידות
 10
-200.0000
 20
-10105.3750
 30
0.0000
 40
97.5000
  1
8.5
 50
0.0000
  7
SOLINE
 72
1
 73
2
 11
-200.0000
 21
-10105.3750
 31
0.0000
  0
LINE
  5
1A9
  8
מבנה - מידות
 10
-282.5000
 20
-10800.0000
 30
0.0000
 11
-488.5000
 21
-10800.0000
 31
0.0000
  0
LINE
  5
1AA
  8
מבנה - מידות
 10
-282.5000
 20
-10500.0000
 30
0.0000
 11
-488.5000
 21
-10500.0000
 31
0.0000
  0
LINE
  5
1AB
  8
מבנה - מידות
 10
-430.0000
 20
-10800.0000
 30
0.0000
 11
-430.0000
 21
-10500.0000
 31
0.0000
  0
SOLID
  5
1AC
  8
מבנה - מידות
 10
-430.0000
 20
-10800.0000
 30
0.0000
 11
-461.2000
 21
-10912.1250
 31
0.0000
 12
-398.8000
 22
-10912.1250
 32
0.0000
 13
-398.8000
 23
-10912.1250
 33
0.0000
  0
SOLID
  5
1AD
  8
מבנה - מידות
 10
-430.0000
 20
-10500.0000
 30
0.0000
 11
-461.2000
 21
-10387.8750
 31
0.0000
 12
-398.8000
 22
-10387.8750
 32
0.0000
 13
-398.8000
 23
-10387.8750
 33
0.0000
  0
TEXT
  5
1AE
  8
מבנה - מידות
 10
-522.6250
 20
-10650.0000
 30
0.0000
 40
97.5000
  1
30
 50
90.0000
  7
SOLINE
 72
1
 73
2
 11
-522.6250
 21
-10650.0000
 31
0.0000
  0
LINE
  5
1AF
  8
מבנה - מידות
 10
-282.5000
 20
-10500.0000
 30
0.0000
 11
-826.0000
 21
-10500.0000
 31
0.0000
  0
LINE
  5
1B0
  8
מבנה - מידות
 10
-282.5000
 20
-10423.0000
 30
0.0000
 11
-826.0000
 21
-10423.0000
 31
0.0000
  0
LINE
  5
1B1
  8
מבנה - מידות
 10
-767.5000
 20
-10500.0000
 30
0.0000
 11
-767.5000
 21
-10423.0000
 31
0.0000
  0
SOLID
  5
1B2
  8
מבנה - מידות
 10
-767.5000
 20
-10500.0000
 30
0.0000
 11
-798.7000
 21
-10612.1250
 31
0.0000
 12
-736.3000
 22
-10612.1250
 32
0.0000
 13
-736.3000
 23
-10612.1250
 33
0.0000
  0
SOLID
  5
1B3
  8
מבנה - מידות
 10
-767.5000
 20
-10423.0000
 30
0.0000
 11
-798.7000
 21
-10310.8750
 31
0.0000
 12
-736.3000
 22
-10310.8750
 32
0.0000
 13
-736.3000
 23
-10310.8750
 33
0.0000
  0
TEXT
  5
1B4
  8
מבנה - מידות
 10
-860.1250
 20
-10461.5000
 30
0.0000
 40
97.5000
  1
7.7
 50
90.0000
  7
SOLINE
 72
1
 73
2
 11
-860.1250
 21
-10461.5000
 31
0.0000
  0
LINE
  5
1B5
  8
חשמל
 10
1231.5000
 20
-10538.5000
 30
0.0000
 11
1316.5000
 21
-10538.5000
 31
0.0000
  0
LINE
  5
1B6
  8
חשמל
 10
1316.5000
 20
-10538.5000
 30
0.0000
 11
1316.5000
 21
-10461.5000
 31
0.0000
  0
LINE
  5
1B7
  8
חשמל
 10
1316.5000
 20
-10461.5000
 30
0.0000
 11
1231.5000
 21
-10461.5000
 31
0.0000
  0
LINE
  5
1B8
  8
חשמל
 10
1231.5000
 20
-10461.5000
 30
0.0000
 11
1231.5000
 21
-10538.5000
 31
0.0000
  0
LINE
  5
1B9
  8
חשמל
 10
1274.0000
 20
-10538.5000
 30
0.0000
 11
1274.0000
 21
-10503.0800
 31
0.0000
  0
LINE
  5
1BA
  8
חשמל
 10
1246.8000
 20
-10503.0800
 30
0.0000
 11
1246.9710
 21
-10500.3212
 31
0.0000
  0
LINE
  5
1BB
  8
חשמל
 10
1246.9710
 20
-10500.3212
 30
0.0000
 11
1247.4820
 21
-10497.5971
 31
0.0000
  0
LINE
  5
1BC
  8
חשמל
 10
1247.4820
 20
-10497.5971
 30
0.0000
 11
1248.3264
 21
-10494.9419
 31
0.0000
  0
LINE
  5
1BD
  8
חשמל
 10
1248.3264
 20
-10494.9419
 30
0.0000
 11
1249.4936
 21
-10492.3891
 31
0.0000
  0
LINE
  5
1BE
  8
חשמל
 10
1249.4936
 20
-10492.3891
 30
0.0000
 11
1250.9691
 21
-10489.9707
 31
0.0000
  0
LINE
  5
1BF
  8
חשמל
 10
1250.9691
 20
-10489.9707
 30
0.0000
 11
1252.7342
 21
-10487.7172
 31
0.0000
  0
LINE
  5
1C0
  8
חשמל
 10
1252.7342
 20
-10487.7172
 30
0.0000
 11
1254.7667
 21
-10485.6569
 31
0.0000
  0
LINE
  5
1C1
  8
חשמל
 10
1254.7667
 20
-10485.6569
 30
0.0000
 11
1257.0411
 21
-10483.8157
 31
0.0000
  0
LINE
  5
1C2
  8
חשמל
 10
1257.0411
 20
-10483.8157
 30
0.0000
 11
1259.5287
 21
-10482.2167
 31
0.0000
  0
LINE
  5
1C3
  8
חשמל
 10
1259.5287
 20
-10482.2167
 30
0.0000
 11
1262.1984
 21
-10480.8801
 31
0.0000
  0
LINE
  5
1C4
  8
חשמל
 10
1262.1984
 20
-10480.8801
 30
0.0000
 11
1265.0164
 21
-10479.8227
 31
0.0000
  0
LINE
  5
1C5
  8
חשמל
 10
1265.0164
 20
-10479.8227
 30
0.0000
 11
1267.9474
 21
-10479.0578
 31
0.0000
  0
LINE
  5
1C6
  8
חשמל
 10
1267.9474
 20
-10479.0578
 30
0.0000
 11
1270.9546
 21
-10478.5949
 31
0.0000
  0
LINE
  5
1C7
  8
חשמל
 10
1270.9546
 20
-10478.5949
 30
0.0000
 11
1274.0000
 21
-10478.4400
 31
0.0000
  0
LINE
  5
1C8
  8
חשמל
 10
1274.0000
 20
-10478.4400
 30
0.0000
 11
1277.0454
 21
-10478.5949
 31
0.0000
  0
LINE
  5
1C9
  8
חשמל
 10
1277.0454
 20
-10478.5949
 30
0.0000
 11
1280.0526
 21
-10479.0578
 31
0.0000
  0
LINE
  5
1CA
  8
חשמל
 10
1280.0526
 20
-10479.0578
 30
0.0000
 11
1282.9836
 21
-10479.8227
 31
0.0000
  0
LINE
  5
1CB
  8
חשמל
 10
1282.9836
 20
-10479.8227
 30
0.0000
 11
1285.8016
 21
-10480.8801
 31
0.0000
  0
LINE
  5
1CC
  8
חשמל
 10
1285.8016
 20
-10480.8801
 30
0.0000
 11
1288.4713
 21
-10482.2167
 31
0.0000
  0
LINE
  5
1CD
  8
חשמל
 10
1288.4713
 20
-10482.2167
 30
0.0000
 11
1290.9589
 21
-10483.8157
 31
0.0000
  0
LINE
  5
1CE
  8
חשמל
 10
1290.9589
 20
-10483.8157
 30
0.0000
 11
1293.2333
 21
-10485.6569
 31
0.0000
  0
LINE
  5
1CF
  8
חשמל
 10
1293.2333
 20
-10485.6569
 30
0.0000
 11
1295.2658
 21
-10487.7172
 31
0.0000
  0
LINE
  5
1D0
  8
חשמל
 10
1295.2658
 20
-10487.7172
 30
0.0000
 11
1297.0309
 21
-10489.9707
 31
0.0000
  0
LINE
  5
1D1
  8
חשמל
 10
1297.0309
 20
-10489.9707
 30
0.0000
 11
1298.5064
 21
-10492.3891
 31
0.0000
  0
LINE
  5
1D2
  8
חשמל
 10
1298.5064
 20
-10492.3891
 30
0.0000
 11
1299.6736
 21
-10494.9419
 31
0.0000
  0
LINE
  5
1D3
  8
חשמל
 10
1299.6736
 20
-10494.9419
 30
0.0000
 11
1300.5180
 21
-10497.5971
 31
0.0000
  0
LINE
  5
1D4
  8
חשמל
 10
1300.5180
 20
-10497.5971
 30
0.0000
 11
1301.0290
 21
-10500.3212
 31
0.0000
  0
LINE
  5
1D5
  8
חשמל
 10
1301.0290
 20
-10500.3212
 30
0.0000
 11
1301.2000
 21
-10503.0800
 31
0.0000
  0
LINE
  5
1D6
  8
חשמל
 10
1246.8000
 20
-10503.0800
 30
0.0000
 11
1301.2000
 21
-10503.0800
 31
0.0000
  0
LINE
  5
1D7
  8
חשמל - מידות
 10
-200.0000
 20
-10840.0000
 30
0.0000
 11
-200.0000
 21
-12022.5000
 31
0.0000
  0
LINE
  5
1D8
  8
חשמל - מידות
 10
1274.0000
 20
-10840.0000
 30
0.0000
 11
1274.0000
 21
-12022.5000
 31
0.0000
  0
LINE
  5
1D9
  8
חשמל - מידות
 10
-200.0000
 20
-11962.5000
 30
0.0000
 11
1274.0000
 21
-11962.5000
 31
0.0000
  0
SOLID
  5
1DA
  8
חשמל - מידות
 10
-200.0000
 20
-11962.5000
 30
0.0000
 11
-315.0000
 21
-11994.5000
 31
0.0000
 12
-315.0000
 22
-11930.5000
 32
0.0000
 13
-315.0000
 23
-11930.5000
 33
0.0000
  0
SOLID
  5
1DB
  8
חשמל - מידות
 10
1274.0000
 20
-11962.5000
 30
0.0000
 11
1389.0000
 21
-11994.5000
 31
0.0000
 12
1389.0000
 22
-11930.5000
 32
0.0000
 13
1389.0000
 23
-11930.5000
 33
0.0000
  0
TEXT
  5
1DC
  8
חשמל - מידות
 10
537.0000
 20
-12057.5000
 30
0.0000
 40
100.0000
  1
147.4
 50
0.0000
  7
SOLINE
 72
1
 73
2
 11
537.0000
 21
-12057.5000
 31
0.0000
  0
LINE
  5
1DD
  8
חשמל - מידות
 10
1314.0000
 20
-10800.0000
 30
0.0000
 11
1564.0000
 21
-10800.0000
 31
0.0000
  0
LINE
  5
1DE
  8
חשמל - מידות
 10
1314.0000
 20
-10500.0000
 30
0.0000
 11
1564.0000
 21
-10500.0000
 31
0.0000
  0
LINE
  5
1DF
  8
חשמל - מידות
 10
1504.0000
 20
-10800.0000
 30
0.0000
 11
1504.0000
 21
-10500.0000
 31
0.0000
  0
SOLID
  5
1E0
  8
חשמל - מידות
 10
1504.0000
 20
-10800.0000
 30
0.0000
 11
1536.0000
 21
-10915.0000
 31
0.0000
 12
1472.0000
 22
-10915.0000
 32
0.0000
 13
1472.0000
 23
-10915.0000
 33
0.0000
  0
SOLID
  5
1E1
  8
חשמל - מידות
 10
1504.0000
 20
-10500.0000
 30
0.0000
 11
1536.0000
 21
-10385.0000
 31
0.0000
 12
1472.0000
 22
-10385.0000
 32
0.0000
 13
1472.0000
 23
-10385.0000
 33
0.0000
  0
TEXT
  5
1E2
  8
חשמל - מידות
 10
1599.0000
 20
-10650.0000
 30
0.0000
 40
100.0000
  1
30
 50
90.0000
  7
SOLINE
 72
1
 73
2
 11
1599.0000
 21
-10650.0000
 31
0.0000
  0
TEXT
  5
1E3
  8
קירות - טקסט
 10
1300.0000
 20
-11737.5000
 30
0.0000
 40
162.5000
  1
W1
 50
0.0000
  7
SOLINE
 72
1
 73
2
 11
1300.0000
 21
-11737.5000
 31
0.0000
  0
LINE
  5
1E4
  8
קירות
 10
5300.0000
 20
-10800.0000
 30
0.0000
 11
10300.0000
 21
-10800.0000
 31
0.0000
  0
LINE
  5
1E5
  8
קירות
 10
10300.0000
 20
-10800.0000
 30
0.0000
 11
10300.0000
 21
-8100.0000
 31
0.0000
  0
LINE
  5
1E6
  8
קירות
 10
10300.0000
 20
-8100.0000
 30
0.0000
 11
5300.0000
 21
-8100.0000
 31
0.0000
  0
LINE
  5
1E7
  8
קירות
 10
5300.0000
 20
-8100.0000
 30
0.0000
 11
5300.0000
 21
-10800.0000
 31
0.0000
  0
LINE
  5
1E8
  8
מידות - חוץ
 10
5300.0000
 20
-10850.0000
 30
0.0000
 11
5300.0000
 21
-11250.0000
 31
0.0000
  0
LINE
  5
1E9
  8
מידות - חוץ
 10
10300.0000
 20
-10850.0000
 30
0.0000
 11
10300.0000
 21
-11250.0000
 31
0.0000
  0
LINE
  5
1EA
  8
מידות - חוץ
 10
5300.0000
 20
-11175.0000
 30
0.0000
 11
10300.0000
 21
-11175.0000
 31
0.0000
  0
SOLID
  5
1EB
  8
מידות - חוץ
 10
5300.0000
 20
-11175.0000
 30
0.0000
 11
5156.2500
 21
-11215.0000
 31
0.0000
 12
5156.2500
 22
-11135.0000
 32
0.0000
 13
5156.2500
 23
-11135.0000
 33
0.0000
  0
SOLID
  5
1EC
  8
מידות - חוץ
 10
10300.0000
 20
-11175.0000
 30
0.0000
 11
10443.7500
 21
-11215.0000
 31
0.0000
 12
10443.7500
 22
-11135.0000
 32
0.0000
 13
10443.7500
 23
-11135.0000
 33
0.0000
  0
TEXT
  5
1ED
  8
מידות - חוץ
 10
7800.0000
 20
-11293.7500
 30
0.0000
 40
125.0000
  1
500
 50
0.0000
  7
SOLINE
 72
1
 73
2
 11
7800.0000
 21
-11293.7500
 31
0.0000
  0
LINE
  5
1EE
  8
מידות - חוץ
 10
5250.0000
 20
-10800.0000
 30
0.0000
 11
4850.0000
 21
-10800.0000
 31
0.0000
  0
LINE
  5
1EF
  8
מידות - חוץ
 10
5250.0000
 20
-8100.0000
 30
0.0000
 11
4850.0000
 21
-8100.0000
 31
0.0000
  0
LINE
  5
1F0
  8
מידות - חוץ
 10
4925.0000
 20
-10800.0000
 30
0.0000
 11
4925.0000
 21
-8100.0000
 31
0.0000
  0
SOLID
  5
1F1
  8
מידות - חוץ
 10
4925.0000
 20
-10800.0000
 30
0.0000
 11
4885.0000
 21
-10943.7500
 31
0.0000
 12
4965.0000
 22
-10943.7500
 32
0.0000
 13
4965.0000
 23
-10943.7500
 33
0.0000
  0
SOLID
  5
1F2
  8
מידות - חוץ
 10
4925.0000
 20
-8100.0000
 30
0.0000
 11
4885.0000
 21
-7956.2500
 31
0.0000
 12
4965.0000
 22
-7956.2500
 32
0.0000
 13
4965.0000
 23
-7956.2500
 33
0.0000
  0
TEXT
  5
1F3
  8
מידות - חוץ
 10
4806.2500
 20
-9450.0000
 30
0.0000
 40
125.0000
  1
270
 50
90.0000
  7
SOLINE
 72
1
 73
2
 11
4806.2500
 21
-9450.0000
 31
0.0000
  0
LINE
  5
1F4
  8
חשמל
 10
6099.5000
 20
-10538.5000
 30
0.0000
 11
6184.5000
 21
-10538.5000
 31
0.0000
  0
LINE
  5
1F5
  8
חשמל
 10
6184.5000
 20
-10538.5000
 30
0.0000
 11
6184.5000
 21
-10461.5000
 31
0.0000
  0
LINE
  5
1F6
  8
חשמל
 10
6184.5000
 20
-10461.5000
 30
0.0000
 11
6099.5000
 21
-10461.5000
 31
0.0000
  0
LINE
  5
1F7
  8
חשמל
 10
6099.5000
 20
-10461.5000
 30
0.0000
 11
6099.5000
 21
-10538.5000
 31
0.0000
  0
LINE
  5
1F8
  8
חשמל
 10
6142.0000
 20
-10538.5000
 30
0.0000
 11
6142.0000
 21
-10478.4400
 31
0.0000
  0
LINE
  5
1F9
  8
חשמל
 10
6169.2000
 20
-10501.5400
 30
0.0000
 11
6168.6774
 21
-10506.3470
 31
0.0000
  0
LINE
  5
1FA
  8
חשמל
 10
6168.6774
 20
-10506.3470
 30
0.0000
 11
6167.1295
 21
-10510.9693
 31
0.0000
  0
LINE
  5
1FB
  8
חשמל
 10
6167.1295
 20
-10510.9693
 30
0.0000
 11
6164.6160
 21
-10515.2293
 31
0.0000
  0
LINE
  5
1FC
  8
חשמל
 10
6164.6160
 20
-10515.2293
 30
0.0000
 11
6161.2333
 21
-10518.9631
 31
0.0000
  0
LINE
  5
1FD
  8
חשמל
 10
6161.2333
 20
-10518.9631
 30
0.0000
 11
6157.1115
 21
-10522.0274
 31
0.0000
  0
LINE
  5
1FE
  8
חשמל
 10
6157.1115
 20
-10522.0274
 30
0.0000
 11
6152.4090
 21
-10524.3044
 31
0.0000
  0
LINE
  5
1FF
  8
חשמל
 10
6152.4090
 20
-10524.3044
 30
0.0000
 11
6147.3065
 21
-10525.7065
 31
0.0000
  0
LINE
  5
200
  8
חשמל
 10
6147.3065
 20
-10525.7065
 30
0.0000
 11
6142.0000
 21
-10526.1800
 31
0.0000
  0
LINE
  5
201
  8
חשמל
 10
6142.0000
 20
-10526.1800
 30
0.0000
 11
6136.6935
 21
-10525.7065
 31
0.0000
  0
LINE
  5
202
  8
חשמל
 10
6136.6935
 20
-10525.7065
 30
0.0000
 11
6131.5910
 21
-10524.3044
 31
0.0000
  0
LINE
  5
203
  8
חשמל
 10
6131.5910
 20
-10524.3044
 30
0.0000
 11
6126.8885
 21
-10522.0274
 31
0.0000
  0
LINE
  5
204
  8
חשמל
 10
6126.8885
 20
-10522.0274
 30
0.0000
 11
6122.7667
 21
-10518.9631
 31
0.0000
  0
LINE
  5
205
  8
חשמל
 10
6122.7667
 20
-10518.9631
 30
0.0000
 11
6119.3840
 21
-10515.2293
 31
0.0000
  0
LINE
  5
206
  8
חשמל
 10
6119.3840
 20
-10515.2293
 30
0.0000
 11
6116.8705
 21
-10510.9693
 31
0.0000
  0
LINE
  5
207
  8
חשמל
 10
6116.8705
 20
-10510.9693
 30
0.0000
 11
6115.3226
 21
-10506.3470
 31
0.0000
  0
LINE
  5
208
  8
חשמל
 10
6115.3226
 20
-10506.3470
 30
0.0000
 11
6114.8000
 21
-10501.5400
 31
0.0000
  0
LINE
  5
209
  8
חשמל
 10
6114.8000
 20
-10501.5400
 30
0.0000
 11
6115.3226
 21
-10496.7330
 31
0.0000
  0
LINE
  5
20A
  8
חשמל
 10
6115.3226
 20
-10496.7330
 30
0.0000
 11
6116.8705
 21
-10492.1107
 31
0.0000
  0
LINE
  5
20B
  8
חשמל
 10
6116.8705
 20
-10492.1107
 30
0.0000
 11
6119.3840
 21
-10487.8507
 31
0.0000
  0
LINE
  5
20C
  8
חשמל
 10
6119.3840
 20
-10487.8507
 30
0.0000
 11
6122.7667
 21
-10484.1169
 31
0.0000
  0
LINE
  5
20D
  8
חשמל
 10
6122.7667
 20
-10484.1169
 30
0.0000
 11
6126.8885
 21
-10481.0526
 31
0.0000
  0
LINE
  5
20E
  8
חשמל
 10
6126.8885
 20
-10481.0526
 30
0.0000
 11
6131.5910
 21
-10478.7756
 31
0.0000
  0
LINE
  5
20F
  8
חשמל
 10
6131.5910
 20
-10478.7756
 30
0.0000
 11
6136.6935
 21
-10477.3735
 31
0.0000
  0
LINE
  5
210
  8
חשמל
 10
6136.6935
 20
-10477.3735
 30
0.0000
 11
6142.0000
 21
-10476.9000
 31
0.0000
  0
LINE
  5
211
  8
חשמל
 10
6142.0000
 20
-10476.9000
 30
0.0000
 11
6147.3065
 21
-10477.3735
 31
0.0000
  0
LINE
  5
212
  8
חשמל
 10
6147.3065
 20
-10477.3735
 30
0.0000
 11
6152.4090
 21
-10478.7756
 31
0.0000
  0
LINE
  5
213
  8
חשמל
 10
6152.4090
 20
-10478.7756
 30
0.0000
 11
6157.1115
 21
-10481.0526
 31
0.0000
  0
LINE
  5
214
  8
חשמל
 10
6157.1115
 20
-10481.0526
 30
0.0000
 11
6161.2333
 21
-10484.1169
 31
0.0000
  0
LINE
  5
215
  8
חשמל
 10
6161.2333
 20
-10484.1169
 30
0.0000
 11
6164.6160
 21
-10487.8507
 31
0.0000
  0
LINE
  5
216
  8
חשמל
 10
6164.6160
 20
-10487.8507
 30
0.0000
 11
6167.1295
 21
-10492.1107
 31
0.0000
  0
LINE
  5
217
  8
חשמל
 10
6167.1295
 20
-10492.1107
 30
0.0000
 11
6168.6774
 21
-10496.7330
 31
0.0000
  0
LINE
  5
218
  8
חשמל
 10
6168.6774
 20
-10496.7330
 30
0.0000
 11
6169.2000
 21
-10501.5400
 31
0.0000
  0
LINE
  5
219
  8
חשמל
 10
6142.0000
 20
-10501.5400
 30
0.0000
 11
6123.3000
 21
-10484.6000
 31
0.0000
  0
LINE
  5
21A
  8
חשמל
 10
6142.0000
 20
-10501.5400
 30
0.0000
 11
6160.7000
 21
-10484.6000
 31
0.0000
  0
LINE
  5
21B
  8
חשמל
 10
6142.0000
 20
-10501.5400
 30
0.0000
 11
6123.3000
 21
-10518.4800
 31
0.0000
  0
LINE
  5
21C
  8
חשמל
 10
6142.0000
 20
-10501.5400
 30
0.0000
 11
6160.7000
 21
-10518.4800
 31
0.0000
  0
LINE
  5
21D
  8
חשמל - מידות
 10
5300.0000
 20
-10840.0000
 30
0.0000
 11
5300.0000
 21
-11672.5000
 31
0.0000
  0
LINE
  5
21E
  8
חשמל - מידות
 10
6142.0000
 20
-10840.0000
 30
0.0000
 11
6142.0000
 21
-11672.5000
 31
0.0000
  0
LINE
  5
21F
  8
חשמל - מידות
 10
5300.0000
 20
-11612.5000
 30
0.0000
 11
6142.0000
 21
-11612.5000
 31
0.0000
  0
SOLID
  5
220
  8
חשמל - מידות
 10
5300.0000
 20
-11612.5000
 30
0.0000
 11
5185.0000
 21
-11644.5000
 31
0.0000
 12
5185.0000
 22
-11580.5000
 32
0.0000
 13
5185.0000
 23
-11580.5000
 33
0.0000
  0
SOLID
  5
221
  8
חשמל - מידות
 10
6142.0000
 20
-11612.5000
 30
0.0000
 11
6257.0000
 21
-11644.5000
 31
0.0000
 12
6257.0000
 22
-11580.5000
 32
0.0000
 13
6257.0000
 23
-11580.5000
 33
0.0000
  0
TEXT
  5
222
  8
חשמל - מידות
 10
5721.0000
 20
-11707.5000
 30
0.0000
 40
100.0000
  1
84.2
 50
0.0000
  7
SOLINE
 72
1
 73
2
 11
5721.0000
 21
-11707.5000
 31
0.0000
  0
LINE
  5
223
  8
חשמל - מידות
 10
6102.0000
 20
-10800.0000
 30
0.0000
 11
5852.0000
 21
-10800.0000
 31
0.0000
  0
LINE
  5
224
  8
חשמל - מידות
 10
6102.0000
 20
-10500.0000
 30
0.0000
 11
5852.0000
 21
-10500.0000
 31
0.0000
  0
LINE
  5
225
  8
חשמל - מידות
 10
5912.0000
 20
-10800.0000
 30
0.0000
 11
5912.0000
 21
-10500.0000
 31
0.0000
  0
SOLID
  5
226
  8
חשמל - מידות
 10
5912.0000
 20
-10800.0000
 30
0.0000
 11
5880.0000
 21
-10915.0000
 31
0.0000
 12
5944.0000
 22
-10915.0000
 32
0.0000
 13
5944.0000
 23
-10915.0000
 33
0.0000
  0
SOLID
  5
227
  8
חשמל - מידות
 10
5912.0000
 20
-10500.0000
 30
0.0000
 11
5880.0000
 21
-10385.0000
 31
0.0000
 12
5944.0000
 22
-10385.0000
 32
0.0000
 13
5944.0000
 23
-10385.0000
 33
0.0000
  0
TEXT
  5
228
  8
חשמל - מידות
 10
5817.0000
 20
-10650.0000
 30
0.0000
 40
100.0000
  1
30
 50
90.0000
  7
SOLINE
 72
1
 73
2
 11
5817.0000
 21
-10650.0000
 31
0.0000
  0
TEXT
  5
229
  8
קירות - טקסט
 10
7800.0000
 20
-11737.5000
 30
0.0000
 40
162.5000
  1
W2
 50
0.0000
  7
SOLINE
 72
1
 73
2
 11
7800.0000
 21
-11737.5000
 31
0.0000
  0
LINE
  5
22A
  8
גבול גיליון
 10
-1800.0000
 20
-12787.5000
 30
0.0000
 11
10700.0000
 21
-12787.5000
 31
0.0000
  0
LINE
  5
22B
  8
גבול גיליון
 10
10700.0000
 20
-12787.5000
 30
0.0000
 11
10700.0000
 21
1000.0000
 31
0.0000
  0
LINE
  5
22C
  8
גבול גיליון
 10
10700.0000
 20
1000.0000
 30
0.0000
 11
-1800.0000
 21
1000.0000
 31
0.0000
  0
LINE
  5
22D
  8
גבול גיליון
 10
-1800.0000
 20
1000.0000
 30
0.0000
 11
-1800.0000
 21
-12787.5000
 31
0.0000
  0
ENDSEC
  0
EOF
