  0
SECTION
  2
HEADER
  9
$ACADVER
  1
AC1009
  9
$INSBASE
 10
0.0000
 20
0.0000
 30
0.0000
  9
$EXTMIN
 10
-2138.2310
 20
-1971.4600
 30
0.0000
  9
$EXTMAX
 10
3327.3840
 20
1951.0000
 30
0.0000
  9
$DWGCODEPAGE
  3
ansi_1255
  9
$INSUNITS
 70
4
  9
$LTSCALE
 40
10.0000
  9
$LIMMIN
 10
0.0000
 20
0.0000
  9
$LIMMAX
 10
2000.0000
 20
200.0000
  0
ENDSEC
  0
SECTION
  2
TABLES
  0
TABLE
  2
VPORT
 70
1
  0
VPORT
  2
*ACTIVE
 70
0
 10
0.0000
 20
0.0000
 11
1.0000
 21
1.0000
 12
594.5765
 22
-10.2300
 13
0.0000
 23
0.0000
 14
10.0000
 24
10.0000
 15
10.0000
 25
10.0000
 16
0.0000
 26
0.0000
 36
1.0000
 17
0.0000
 27
0.0000
 37
0.0000
 40
4314.7060
 41
1.0000
 42
50.0000
 43
0.0000
 44
0.0000
 50
0.0000
 51
0.0000
 71
0
 72
100
 73
1
 74
1
 75
0
 76
0
 77
0
 78
0
  0
ENDTAB
  0
TABLE
  2
LTYPE
 70
2
  0
LTYPE
  2
CONTINUOUS
 70
0
  3
Solid line
 72
65
 73
0
 40
0.0000
  0
LTYPE
  2
HIDDEN
 70
0
  3
Hidden __ __ __ __ __ __ __ __ __ __ __ __ __ __
 72
65
 73
2
 40
0.3750
 49
0.2500
 49
-0.1250
  0
ENDTAB
  0
TABLE
  2
LAYER
 70
37
  0
LAYER
  2
0
 70
0
 62
7
  6
CONTINUOUS
  0
LAYER
  2
Electrical
 70
0
 62
6
  6
CONTINUOUS
  0
LAYER
  2
Plumbing
 70
0
 62
150
  6
CONTINUOUS
  0
LAYER
  2
Const_Walls
 70
0
 62
253
  6
CONTINUOUS
  0
LAYER
  2
Dim
 70
0
 62
9
  6
CONTINUOUS
  0
LAYER
  2
Text
 70
0
 62
74
  6
CONTINUOUS
  0
LAYER
  2
HVAC
 70
0
 62
4
  6
CONTINUOUS
  0
LAYER
  2
Misc
 70
0
 62
32
  6
HIDDEN
  0
LAYER
  2
Dim_Markers
 70
0
 62
9
  6
CONTINUOUS
  0
LAYER
  2
Dim_Wall
 70
0
 62
9
  6
CONTINUOUS
  0
LAYER
  2
Const_Doors
 70
0
 62
5
  6
CONTINUOUS
  0
LAYER
  2
Const_Windows
 70
0
 62
152
  6
CONTINUOUS
  0
LAYER
  2
Text_Legend
 70
0
 62
74
  6
CONTINUOUS
  0
LAYER
  2
Text_JobInfo
 70
0
 62
74
  6
CONTINUOUS
  0
LAYER
  2
Dim_Overall
 70
0
 62
-9
  6
CONTINUOUS
  0
LAYER
  2
Dim_Embeded
 70
0
 62
-9
  6
CONTINUOUS
  0
LAYER
  2
Dim_Angles_Auto
 70
0
 62
3
  6
CONTINUOUS
  0
LAYER
  2
Text_AreaNo
 70
0
 62
-74
  6
CONTINUOUS
  0
LAYER
  2
Dim_ArcChord
 70
0
 62
9
  6
HIDDEN
  0
LAYER
  2
Const_Walls_Ext
 70
0
 62
253
  6
CONTINUOUS
  0
LAYER
  2
Dim_Verification
 70
0
 62
-9
  6
CONTINUOUS
  0
LAYER
  2
Dim_Radius
 70
0
 62
9
  6
CONTINUOUS
  0
LAYER
  2
Dim_Angles
 70
0
 62
9
  6
CONTINUOUS
  0
LAYER
  2
Z_Other
 70
0
 62
253
  6
CONTINUOUS
  0
LAYER
  2
Const_Stairs
 70
0
 62
253
  6
CONTINUOUS
  0
LAYER
  2
Misc_Cabinets
 70
0
 62
36
  6
CONTINUOUS
  0
LAYER
  2
Z_Scale_Ruler
 70
0
 62
7
  6
CONTINUOUS
  0
LAYER
  2
Const_Fill
 70
0
 62
253
  6
CONTINUOUS
  0
LAYER
  2
Wall_Image
 70
0
 62
7
  6
CONTINUOUS
  0
LAYER
  2
Exterior_walls
 70
0
 62
5
  6
CONTINUOUS
  0
LAYER
  2
HVAC_DIM
 70
0
 62
4
  6
CONTINUOUS
  0
LAYER
  2
HVAC_H
 70
0
 62
4
  6
CONTINUOUS
  0
LAYER
  2
Electrical_DIM
 70
0
 62
6
  6
CONTINUOUS
  0
LAYER
  2
Electrical_H
 70
0
 62
6
  6
CONTINUOUS
  0
LAYER
  2
Plumbing_DIM
 70
0
 62
150
  6
CONTINUOUS
  0
LAYER
  2
Plumbing_H
 70
0
 62
150
  6
CONTINUOUS
  0
LAYER
  2
datum
 70
0
 62
1
  6
CONTINUOUS
  0
ENDTAB
  0
TABLE
  2
STYLE
 70
1
  0
STYLE
  2
STANDARD
 70
0
 40
0.0000
 41
1.0000
 50
0.0000
 71
0
 42
10.0000
  3
ARIAL.TTF
  4

  0
ENDTAB
  0
ENDSEC
  0
SECTION
  2
BLOCKS
  0
BLOCK
  8
0
  2
CONTROLBOX
 70
0
 10
0.0000
 20
0.0000
 30
0.0000
  0
LINE
  5
10E5
  8
0
 10
-90.0000
 20
0.0000
 30
0.0000
 11
90.0000
 21
0.0000
 31
0.0000
  0
LINE
  5
10E6
  8
0
 10
90.0000
 20
0.0000
 30
0.0000
 11
90.0000
 21
70.0000
 31
0.0000
  0
LINE
  5
10E7
  8
0
 10
90.0000
 20
70.0000
 30
0.0000
 11
-90.0000
 21
70.0000
 31
0.0000
  0
LINE
  5
10E8
  8
0
 10
-90.0000
 20
70.0000
 30
0.0000
 11
-90.0000
 21
0.0000
 31
0.0000
  0
LINE
  5
10E9
  8
0
 10
-90.0000
 20
0.0000
 30
0.0000
 11
90.0000
 21
70.0000
 31
0.0000
  0
ENDBLK
  5
10EA
  8
0
  0
BLOCK
  8
0
  2
DOOR1
 70
0
 10
0.0000
 20
0.0000
 30
0.0000
  0
LINE
  5
10EB
  8
0
 10
-0.5000
 20
-0.5000
 30
0.0000
 11
-0.5000
 21
0.5000
 31
0.0000
  0
LINE
  5
10EC
  8
0
 10
-0.5000
 20
0.5000
 30
0.0000
 11
0.5000
 21
0.5000
 31
0.0000
  0
ARC
  5
10ED
  8
0
 10
-0.5000
 20
-0.5000
 30
0.0000
 40
1.0000
 50
0.0000
 51
90.0000
  0
ENDBLK
  5
10EE
  8
0
  0
ENDSEC
  0
SECTION
  2
ENTITIES
  0
LINE
  5
1000
  8
Const_Walls_Ext
 10
332.0220
 20
1677.3031
 30
0.0000
 11
332.8080
 21
1082.8661
 31
0.0000
  0
LINE
  5
1001
  8
Const_Walls
 10
232.0220
 20
1677.1709
 30
0.0000
 11
232.8080
 21
1082.7339
 31
0.0000
  0
LINE
  5
1002
  8
Const_Walls
 10
332.0220
 20
1677.3031
 30
0.0000
 11
232.0220
 21
1677.1709
 31
0.0000
  0
LINE
  5
1003
  8
Const_Walls
 10
332.8080
 20
1082.8661
 30
0.0000
 11
232.8080
 21
1082.7339
 31
0.0000
  0
SOLID
  5
1004
  8
Const_Fill
 10
332.0220
 20
1677.3031
 30
0.0000
 11
332.8080
 21
1082.8661
 31
0.0000
 12
232.0220
 22
1677.1709
 32
0.0000
 13
232.8080
 23
1082.7339
 33
0.0000
  0
LINE
  5
1005
  8
Dim_Wall
 10
282.0220
 20
1677.2370
 30
0.0000
 11
742.0216
 21
1677.8452
 31
0.0000
  0
LINE
  5
1006
  8
Dim_Wall
 10
282.8080
 20
1082.8000
 30
0.0000
 11
742.8076
 21
1083.4082
 31
0.0000
  0
LINE
  5
1007
  8
Dim_Wall
 10
682.0217
 20
1677.7659
 30
0.0000
 11
682.8077
 21
1083.3289
 31
0.0000
  0
SOLID
  5
1008
  8
Dim_Wall
 10
682.0217
 20
1677.7659
 30
0.0000
 11
711.9026
 21
1767.8055
 31
0.0000
 12
651.9027
 22
1767.7262
 32
0.0000
 13
651.9027
 23
1767.7262
 33
0.0000
  0
SOLID
  5
1009
  8
Dim_Wall
 10
682.8077
 20
1083.3289
 30
0.0000
 11
712.9266
 21
993.3686
 31
0.0000
 12
652.9267
 22
993.2893
 32
0.0000
 13
652.9267
 23
993.2893
 33
0.0000
  0
TEXT
  5
100A
  8
Dim_Wall
 10
730.4146
 20
1380.6109
 30
0.0000
 40
120.0000
 50
-89.9242
  1
59.4
  7
STANDARD
  0
LINE
  5
100B
  8
Const_Walls_Ext
 10
-1282.8980
 20
1727.2370
 30
0.0000
 11
282.0220
 21
1727.2370
 31
0.0000
  0
LINE
  5
100C
  8
Const_Walls
 10
-1282.8980
 20
1627.2370
 30
0.0000
 11
282.0220
 21
1627.2370
 31
0.0000
  0
LINE
  5
100D
  8
Const_Walls
 10
-1282.8980
 20
1727.2370
 30
0.0000
 11
-1282.8980
 21
1627.2370
 31
0.0000
  0
LINE
  5
100E
  8
Const_Walls
 10
282.0220
 20
1727.2370
 30
0.0000
 11
282.0220
 21
1627.2370
 31
0.0000
  0
SOLID
  5
100F
  8
Const_Fill
 10
-1282.8980
 20
1727.2370
 30
0.0000
 11
282.0220
 21
1727.2370
 31
0.0000
 12
-1282.8980
 22
1627.2370
 32
0.0000
 13
282.0220
 23
1627.2370
 33
0.0000
  0
LINE
  5
1010
  8
Dim_Wall
 10
-1282.8980
 20
1677.2370
 30
0.0000
 11
-1282.8980
 21
2137.2370
 31
0.0000
  0
LINE
  5
1011
  8
Dim_Wall
 10
282.0220
 20
1677.2370
 30
0.0000
 11
282.0220
 21
2137.2370
 31
0.0000
  0
LINE
  5
1012
  8
Dim_Wall
 10
-1282.8980
 20
2077.2370
 30
0.0000
 11
282.0220
 21
2077.2370
 31
0.0000
  0
SOLID
  5
1013
  8
Dim_Wall
 10
-1282.8980
 20
2077.2370
 30
0.0000
 11
-1372.8980
 21
2107.2370
 31
0.0000
 12
-1372.8980
 22
2047.2370
 32
0.0000
 13
-1372.8980
 23
2047.2370
 33
0.0000
  0
SOLID
  5
1014
  8
Dim_Wall
 10
282.0220
 20
2077.2370
 30
0.0000
 11
372.0220
 21
2107.2370
 31
0.0000
 12
372.0220
 22
2047.2370
 32
0.0000
 13
372.0220
 23
2047.2370
 33
0.0000
  0
TEXT
  5
1015
  8
Dim_Wall
 10
-500.4380
 20
2125.2370
 30
0.0000
 40
120.0000
 50
0.0000
  1
156.5
  7
STANDARD
  0
LINE
  5
1016
  8
Const_Walls_Ext
 10
-1328.0313
 20
1083.6160
 30
0.0000
 11
-1332.8963
 21
1676.8270
 31
0.0000
  0
LINE
  5
1017
  8
Const_Walls
 10
-1228.0347
 20
1084.4360
 30
0.0000
 11
-1232.8997
 21
1677.6470
 31
0.0000
  0
LINE
  5
1018
  8
Const_Walls
 10
-1328.0313
 20
1083.6160
 30
0.0000
 11
-1228.0347
 21
1084.4360
 31
0.0000
  0
LINE
  5
1019
  8
Const_Walls
 10
-1332.8963
 20
1676.8270
 30
0.0000
 11
-1232.8997
 21
1677.6470
 31
0.0000
  0
SOLID
  5
101A
  8
Const_Fill
 10
-1328.0313
 20
1083.6160
 30
0.0000
 11
-1332.8963
 21
1676.8270
 31
0.0000
 12
-1228.0347
 22
1084.4360
 32
0.0000
 13
-1232.8997
 23
1677.6470
 33
0.0000
  0
LINE
  5
101B
  8
Dim_Wall
 10
-1278.0330
 20
1084.0260
 30
0.0000
 11
-1738.0175
 21
1080.2536
 31
0.0000
  0
LINE
  5
101C
  8
Dim_Wall
 10
-1282.8980
 20
1677.2370
 30
0.0000
 11
-1742.8825
 21
1673.4646
 31
0.0000
  0
LINE
  5
101D
  8
Dim_Wall
 10
-1678.0195
 20
1080.7457
 30
0.0000
 11
-1682.8845
 21
1673.9567
 31
0.0000
  0
SOLID
  5
101E
  8
Dim_Wall
 10
-1678.0195
 20
1080.7457
 30
0.0000
 11
-1707.2805
 21
990.5027
 31
0.0000
 12
-1647.2825
 22
990.9947
 32
0.0000
 13
-1647.2825
 23
990.9947
 33
0.0000
  0
SOLID
  5
101F
  8
Dim_Wall
 10
-1682.8845
 20
1673.9567
 30
0.0000
 11
-1713.6216
 21
1763.7076
 31
0.0000
 12
-1653.6236
 22
1764.1997
 32
0.0000
 13
-1653.6236
 23
1764.1997
 33
0.0000
  0
TEXT
  5
1020
  8
Dim_Wall
 10
-1728.4504
 20
1376.9575
 30
0.0000
 40
120.0000
 50
270.4699
  1
59.3
  7
STANDARD
  0
LINE
  5
1021
  8
Const_Walls_Ext
 10
-2088.2310
 20
1244.7930
 30
0.0000
 11
2671.7270
 21
1244.7930
 31
0.0000
  0
LINE
  5
1022
  8
Const_Walls
 10
-2088.2310
 20
1144.7930
 30
0.0000
 11
2671.7270
 21
1144.7930
 31
0.0000
  0
LINE
  5
1023
  8
Const_Walls
 10
-2088.2310
 20
1244.7930
 30
0.0000
 11
-2088.2310
 21
1144.7930
 31
0.0000
  0
LINE
  5
1024
  8
Const_Walls
 10
2671.7270
 20
1244.7930
 30
0.0000
 11
2671.7270
 21
1144.7930
 31
0.0000
  0
SOLID
  5
1025
  8
Const_Fill
 10
-2088.2310
 20
1244.7930
 30
0.0000
 11
2671.7270
 21
1244.7930
 31
0.0000
 12
-2088.2310
 22
1144.7930
 32
0.0000
 13
2671.7270
 23
1144.7930
 33
0.0000
  0
LINE
  5
1026
  8
Dim_Wall
 10
-2088.2310
 20
1194.7930
 30
0.0000
 11
-2088.2310
 21
1654.7930
 31
0.0000
  0
LINE
  5
1027
  8
Dim_Wall
 10
2671.7270
 20
1194.7930
 30
0.0000
 11
2671.7270
 21
1654.7930
 31
0.0000
  0
LINE
  5
1028
  8
Dim_Wall
 10
-2088.2310
 20
1594.7930
 30
0.0000
 11
2671.7270
 21
1594.7930
 31
0.0000
  0
SOLID
  5
1029
  8
Dim_Wall
 10
-2088.2310
 20
1594.7930
 30
0.0000
 11
-2178.2310
 21
1624.7930
 31
0.0000
 12
-2178.2310
 22
1564.7930
 32
0.0000
 13
-2178.2310
 23
1564.7930
 33
0.0000
  0
SOLID
  5
102A
  8
Dim_Wall
 10
2671.7270
 20
1594.7930
 30
0.0000
 11
2761.7270
 21
1624.7930
 31
0.0000
 12
2761.7270
 22
1564.7930
 32
0.0000
 13
2761.7270
 23
1564.7930
 33
0.0000
  0
TEXT
  5
102B
  8
Dim_Wall
 10
291.7480
 20
1642.7930
 30
0.0000
 40
120.0000
 50
0.0000
  1
476
  7
STANDARD
  0
LINE
  5
102C
  8
Const_Walls_Ext
 10
2721.7270
 20
1194.8272
 30
0.0000
 11
2723.8610
 21
-1921.4258
 31
0.0000
  0
LINE
  5
102D
  8
Const_Walls
 10
2621.7270
 20
1194.7588
 30
0.0000
 11
2623.8610
 21
-1921.4942
 31
0.0000
  0
LINE
  5
102E
  8
Const_Walls
 10
2721.7270
 20
1194.8272
 30
0.0000
 11
2621.7270
 21
1194.7588
 31
0.0000
  0
LINE
  5
102F
  8
Const_Walls
 10
2723.8610
 20
-1921.4258
 30
0.0000
 11
2623.8610
 21
-1921.4942
 31
0.0000
  0
SOLID
  5
1030
  8
Const_Fill
 10
2721.7270
 20
1194.8272
 30
0.0000
 11
2723.8610
 21
-1921.4258
 31
0.0000
 12
2621.7270
 22
1194.7588
 32
0.0000
 13
2623.8610
 23
-1921.4942
 33
0.0000
  0
LINE
  5
1031
  8
Dim_Wall
 10
2671.7270
 20
1194.7930
 30
0.0000
 11
3131.7269
 21
1195.1080
 31
0.0000
  0
LINE
  5
1032
  8
Dim_Wall
 10
2673.8610
 20
-1921.4600
 30
0.0000
 11
3133.8609
 21
-1921.1450
 31
0.0000
  0
LINE
  5
1033
  8
Dim_Wall
 10
3071.7269
 20
1195.0669
 30
0.0000
 11
3073.8609
 21
-1921.1861
 31
0.0000
  0
SOLID
  5
1034
  8
Dim_Wall
 10
3071.7269
 20
1195.0669
 30
0.0000
 11
3101.6653
 21
1285.0874
 31
0.0000
 12
3041.6653
 22
1285.0464
 32
0.0000
 13
3041.6653
 23
1285.0464
 33
0.0000
  0
SOLID
  5
1035
  8
Dim_Wall
 10
3073.8609
 20
-1921.1861
 30
0.0000
 11
3103.9225
 21
-2011.1655
 31
0.0000
 12
3043.9225
 22
-2011.2066
 32
0.0000
 13
3043.9225
 23
-2011.2066
 33
0.0000
  0
TEXT
  5
1036
  8
Dim_Wall
 10
3120.7939
 20
-363.0267
 30
0.0000
 40
120.0000
 50
-89.9608
  1
311.6
  7
STANDARD
  0
LINE
  5
1037
  8
Const_Walls_Ext
 10
-2130.8464
 20
-311.8321
 30
0.0000
 11
-2138.2304
 21
1194.5479
 31
0.0000
  0
LINE
  5
1038
  8
Const_Walls
 10
-2030.8476
 20
-311.3419
 30
0.0000
 11
-2038.2316
 21
1195.0381
 31
0.0000
  0
LINE
  5
1039
  8
Const_Walls
 10
-2130.8464
 20
-311.8321
 30
0.0000
 11
-2030.8476
 21
-311.3419
 31
0.0000
  0
LINE
  5
103A
  8
Const_Walls
 10
-2138.2304
 20
1194.5479
 30
0.0000
 11
-2038.2316
 21
1195.0381
 31
0.0000
  0
SOLID
  5
103B
  8
Const_Fill
 10
-2130.8464
 20
-311.8321
 30
0.0000
 11
-2138.2304
 21
1194.5479
 31
0.0000
 12
-2030.8476
 22
-311.3419
 32
0.0000
 13
-2038.2316
 23
1195.0381
 33
0.0000
  0
LINE
  5
103C
  8
Dim_Wall
 10
-2080.8470
 20
-311.5870
 30
0.0000
 11
-2540.8415
 21
-313.8418
 31
0.0000
  0
LINE
  5
103D
  8
Dim_Wall
 10
-2088.2310
 20
1194.7930
 30
0.0000
 11
-2548.2255
 21
1192.5382
 31
0.0000
  0
LINE
  5
103E
  8
Dim_Wall
 10
-2480.8422
 20
-313.5477
 30
0.0000
 11
-2488.2262
 21
1192.8323
 31
0.0000
  0
SOLID
  5
103F
  8
Dim_Wall
 10
-2480.8422
 20
-313.5477
 30
0.0000
 11
-2510.4007
 21
-403.6937
 31
0.0000
 12
-2450.4014
 22
-403.3996
 32
0.0000
 13
-2450.4014
 23
-403.3996
 33
0.0000
  0
SOLID
  5
1040
  8
Dim_Wall
 10
-2488.2262
 20
1192.8323
 30
0.0000
 11
-2518.6670
 21
1282.6842
 31
0.0000
 12
-2458.6677
 22
1282.9783
 32
0.0000
 13
-2458.6677
 23
1282.9783
 33
0.0000
  0
TEXT
  5
1041
  8
Dim_Wall
 10
-2532.5336
 20
439.4070
 30
0.0000
 40
120.0000
 50
270.2809
  1
150.6
  7
STANDARD
  0
LINE
  5
1042
  8
Const_Walls_Ext
 10
2485.4344
 20
55.1546
 30
0.0000
 11
2481.6054
 21
-700.4634
 31
0.0000
  0
LINE
  5
1043
  8
Const_Walls
 10
2385.4356
 20
55.6614
 30
0.0000
 11
2381.6066
 21
-699.9566
 31
0.0000
  0
LINE
  5
1044
  8
Const_Walls
 10
2485.4344
 20
55.1546
 30
0.0000
 11
2385.4356
 21
55.6614
 31
0.0000
  0
LINE
  5
1045
  8
Const_Walls
 10
2481.6054
 20
-700.4634
 30
0.0000
 11
2381.6066
 21
-699.9566
 31
0.0000
  0
SOLID
  5
1046
  8
Const_Fill
 10
2485.4344
 20
55.1546
 30
0.0000
 11
2481.6054
 21
-700.4634
 31
0.0000
 12
2385.4356
 22
55.6614
 32
0.0000
 13
2381.6066
 23
-699.9566
 33
0.0000
  0
LINE
  5
1047
  8
Dim_Wall
 10
2435.4350
 20
55.4080
 30
0.0000
 11
2895.4291
 21
53.0770
 31
0.0000
  0
LINE
  5
1048
  8
Dim_Wall
 10
2431.6060
 20
-700.2100
 30
0.0000
 11
2891.6001
 21
-702.5410
 31
0.0000
  0
LINE
  5
1049
  8
Dim_Wall
 10
2835.4299
 20
53.3811
 30
0.0000
 11
2831.6009
 21
-702.2369
 31
0.0000
  0
SOLID
  5
104A
  8
Dim_Wall
 10
2835.4299
 20
53.3811
 30
0.0000
 11
2865.8855
 21
143.2279
 31
0.0000
 12
2805.8863
 22
143.5319
 32
0.0000
 13
2805.8863
 23
143.5319
 33
0.0000
  0
SOLID
  5
104B
  8
Dim_Wall
 10
2831.6009
 20
-702.2369
 30
0.0000
 11
2861.1444
 21
-792.3878
 31
0.0000
 12
2801.1452
 22
-792.0837
 32
0.0000
 13
2801.1452
 23
-792.0837
 33
0.0000
  0
TEXT
  5
104C
  8
Dim_Wall
 10
2881.5147
 20
-324.6712
 30
0.0000
 40
120.0000
 50
89.7097
  1
75.6
  7
STANDARD
  0
LINE
  5
104D
  8
Const_Walls_Ext
 10
913.6880
 20
105.4080
 30
0.0000
 11
2435.4350
 21
105.4080
 31
0.0000
  0
LINE
  5
104E
  8
Const_Walls
 10
913.6880
 20
5.4080
 30
0.0000
 11
2435.4350
 21
5.4080
 31
0.0000
  0
LINE
  5
104F
  8
Const_Walls
 10
913.6880
 20
105.4080
 30
0.0000
 11
913.6880
 21
5.4080
 31
0.0000
  0
LINE
  5
1050
  8
Const_Walls
 10
2435.4350
 20
105.4080
 30
0.0000
 11
2435.4350
 21
5.4080
 31
0.0000
  0
SOLID
  5
1051
  8
Const_Fill
 10
913.6880
 20
105.4080
 30
0.0000
 11
2435.4350
 21
105.4080
 31
0.0000
 12
913.6880
 22
5.4080
 32
0.0000
 13
2435.4350
 23
5.4080
 33
0.0000
  0
LINE
  5
1052
  8
Dim_Wall
 10
913.6880
 20
55.4080
 30
0.0000
 11
913.6880
 21
515.4080
 31
0.0000
  0
LINE
  5
1053
  8
Dim_Wall
 10
2435.4350
 20
55.4080
 30
0.0000
 11
2435.4350
 21
515.4080
 31
0.0000
  0
LINE
  5
1054
  8
Dim_Wall
 10
913.6880
 20
455.4080
 30
0.0000
 11
2435.4350
 21
455.4080
 31
0.0000
  0
SOLID
  5
1055
  8
Dim_Wall
 10
913.6880
 20
455.4080
 30
0.0000
 11
823.6880
 21
485.4080
 31
0.0000
 12
823.6880
 22
425.4080
 32
0.0000
 13
823.6880
 23
425.4080
 33
0.0000
  0
SOLID
  5
1056
  8
Dim_Wall
 10
2435.4350
 20
455.4080
 30
0.0000
 11
2525.4350
 21
485.4080
 31
0.0000
 12
2525.4350
 22
425.4080
 32
0.0000
 13
2525.4350
 23
425.4080
 33
0.0000
  0
TEXT
  5
1057
  8
Dim_Wall
 10
1674.5615
 20
503.4080
 30
0.0000
 40
120.0000
 50
0.0000
  1
152.2
  7
STANDARD
  0
LINE
  5
1058
  8
Const_Walls_Ext
 10
850.5975
 20
-453.6819
 30
0.0000
 11
848.7155
 21
47.9631
 31
0.0000
  0
LINE
  5
1059
  8
Const_Walls
 10
980.5965
 20
-453.1941
 30
0.0000
 11
978.7145
 21
48.4509
 31
0.0000
  0
LINE
  5
105A
  8
Const_Walls
 10
850.5975
 20
-453.6819
 30
0.0000
 11
980.5965
 21
-453.1941
 31
0.0000
  0
LINE
  5
105B
  8
Const_Walls
 10
848.7155
 20
47.9631
 30
0.0000
 11
978.7145
 21
48.4509
 31
0.0000
  0
SOLID
  5
105C
  8
Const_Fill
 10
850.5975
 20
-453.6819
 30
0.0000
 11
848.7155
 21
47.9631
 31
0.0000
 12
980.5965
 22
-453.1941
 32
0.0000
 13
978.7145
 23
48.4509
 33
0.0000
  0
LINE
  5
105D
  8
Dim_Wall
 10
915.5970
 20
-453.4380
 30
0.0000
 11
440.6003
 21
-455.2200
 31
0.0000
  0
LINE
  5
105E
  8
Dim_Wall
 10
913.7150
 20
48.2070
 30
0.0000
 11
438.7183
 21
46.4250
 31
0.0000
  0
LINE
  5
105F
  8
Dim_Wall
 10
500.5999
 20
-454.9949
 30
0.0000
 11
498.7179
 21
46.6501
 31
0.0000
  0
SOLID
  5
1060
  8
Dim_Wall
 10
500.5999
 20
-454.9949
 30
0.0000
 11
470.9378
 21
-545.1068
 31
0.0000
 12
530.9374
 22
-544.8817
 32
0.0000
 13
530.9374
 23
-544.8817
 33
0.0000
  0
SOLID
  5
1061
  8
Dim_Wall
 10
498.7179
 20
46.6501
 30
0.0000
 11
468.3805
 21
136.5369
 31
0.0000
 12
528.3801
 22
136.7620
 32
0.0000
 13
528.3801
 23
136.7620
 33
0.0000
  0
TEXT
  5
1062
  8
Dim_Wall
 10
451.6593
 20
-204.3525
 30
0.0000
 40
120.0000
 50
270.2150
  1
50.2
  7
STANDARD
  0
LINE
  5
1063
  8
Const_Walls_Ext
 10
-695.6940
 20
97.4010
 30
0.0000
 11
913.6900
 21
98.2070
 31
0.0000
  0
LINE
  5
1064
  8
Const_Walls
 10
-695.6440
 20
-2.5990
 30
0.0000
 11
913.7400
 21
-1.7930
 31
0.0000
  0
LINE
  5
1065
  8
Const_Walls
 10
-695.6940
 20
97.4010
 30
0.0000
 11
-695.6440
 21
-2.5990
 31
0.0000
  0
LINE
  5
1066
  8
Const_Walls
 10
913.6900
 20
98.2070
 30
0.0000
 11
913.7400
 21
-1.7930
 31
0.0000
  0
SOLID
  5
1067
  8
Const_Fill
 10
-695.6940
 20
97.4010
 30
0.0000
 11
913.6900
 21
98.2070
 31
0.0000
 12
-695.6440
 22
-2.5990
 32
0.0000
 13
913.7400
 23
-1.7930
 33
0.0000
  0
LINE
  5
1068
  8
Dim_Wall
 10
-695.6690
 20
47.4010
 30
0.0000
 11
-695.8994
 21
507.4009
 31
0.0000
  0
LINE
  5
1069
  8
Dim_Wall
 10
913.7150
 20
48.2070
 30
0.0000
 11
913.4846
 21
508.2069
 31
0.0000
  0
LINE
  5
106A
  8
Dim_Wall
 10
-695.8693
 20
447.4009
 30
0.0000
 11
913.5147
 21
448.2069
 31
0.0000
  0
SOLID
  5
106B
  8
Dim_Wall
 10
-695.8693
 20
447.4009
 30
0.0000
 11
-785.8843
 21
477.3559
 31
0.0000
 12
-785.8543
 22
417.3559
 32
0.0000
 13
-785.8543
 23
417.3559
 33
0.0000
  0
SOLID
  5
106C
  8
Dim_Wall
 10
913.5147
 20
448.2069
 30
0.0000
 11
1003.4996
 21
478.2520
 31
0.0000
 12
1003.5297
 22
418.2520
 32
0.0000
 13
1003.5297
 23
418.2520
 33
0.0000
  0
TEXT
  5
106D
  8
Dim_Wall
 10
108.7986
 20
495.8039
 30
0.0000
 40
120.0000
 50
0.0287
  1
160.9
  7
STANDARD
  0
LINE
  5
106E
  8
Const_Walls_Ext
 10
-747.2478
 20
-544.8207
 30
0.0000
 11
-745.6688
 21
47.5343
 31
0.0000
  0
LINE
  5
106F
  8
Const_Walls
 10
-647.2482
 20
-545.0873
 30
0.0000
 11
-645.6692
 21
47.2677
 31
0.0000
  0
LINE
  5
1070
  8
Const_Walls
 10
-747.2478
 20
-544.8207
 30
0.0000
 11
-647.2482
 21
-545.0873
 31
0.0000
  0
LINE
  5
1071
  8
Const_Walls
 10
-745.6688
 20
47.5343
 30
0.0000
 11
-645.6692
 21
47.2677
 31
0.0000
  0
SOLID
  5
1072
  8
Const_Fill
 10
-747.2478
 20
-544.8207
 30
0.0000
 11
-745.6688
 21
47.5343
 31
0.0000
 12
-647.2482
 22
-545.0873
 32
0.0000
 13
-645.6692
 23
47.2677
 33
0.0000
  0
LINE
  5
1073
  8
Dim_Wall
 10
-697.2480
 20
-544.9540
 30
0.0000
 11
-1157.2464
 21
-543.7278
 31
0.0000
  0
LINE
  5
1074
  8
Dim_Wall
 10
-695.6690
 20
47.4010
 30
0.0000
 11
-1155.6674
 21
48.6272
 31
0.0000
  0
LINE
  5
1075
  8
Dim_Wall
 10
-1097.2466
 20
-543.8878
 30
0.0000
 11
-1095.6676
 21
48.4672
 31
0.0000
  0
SOLID
  5
1076
  8
Dim_Wall
 10
-1097.2466
 20
-543.8878
 30
0.0000
 11
-1127.4864
 21
-633.8075
 31
0.0000
 12
-1067.4866
 22
-633.9674
 32
0.0000
 13
-1067.4866
 23
-633.9674
 33
0.0000
  0
SOLID
  5
1077
  8
Dim_Wall
 10
-1095.6676
 20
48.4672
 30
0.0000
 11
-1125.4276
 21
138.5469
 31
0.0000
 12
-1065.4278
 22
138.3870
 32
0.0000
 13
-1065.4278
 23
138.3870
 33
0.0000
  0
TEXT
  5
1078
  8
Dim_Wall
 10
-1144.4569
 20
-247.5823
 30
0.0000
 40
120.0000
 50
89.8473
  1
59.2
  7
STANDARD
  0
INSERT
  5
1079
  8
Const_Doors
  2
DOOR1
 10
-1314.0000
 20
1195.0000
 30
0.0000
 41
1030.0000
 42
100.0000
 43
1.0000
 50
0.0000
  0
INSERT
  5
107A
  8
Const_Doors
  2
DOOR1
 10
914.0000
 20
55.0000
 30
0.0000
 41
895.0000
 42
100.0000
 43
1.0000
 50
0.0000
  0
INSERT
  5
107B
  8
Electrical
  2
ControlBox
 10
-17.0000
 20
1677.0000
 30
0.0000
 41
1.0000
 42
1.0000
 43
1.0000
 50
0.0000
  0
TEXT
  5
107C
  8
Electrical_H
 10
53.0000
 20
1717.0000
 30
0.0000
 40
90.0000
 50
0.0000
  1
H 90.5
  7
STANDARD
  0
LINE
  5
107D
  8
Electrical_DIM
 10
-1282.8980
 20
1677.2370
 30
0.0000
 11
-1282.9467
 21
1417.2370
 31
0.0000
  0
LINE
  5
107E
  8
Electrical_DIM
 10
-17.0000
 20
1677.0000
 30
0.0000
 11
-17.0487
 21
1417.0000
 31
0.0000
  0
LINE
  5
107F
  8
Electrical_DIM
 10
-1282.9354
 20
1477.2370
 30
0.0000
 11
-17.0374
 21
1477.0000
 31
0.0000
  0
SOLID
  5
1080
  8
Electrical_DIM
 10
-1282.9354
 20
1477.2370
 30
0.0000
 11
-1372.9411
 21
1447.2539
 31
0.0000
 12
-1372.9298
 22
1507.2539
 32
0.0000
 13
-1372.9298
 23
1507.2539
 33
0.0000
  0
SOLID
  5
1081
  8
Electrical_DIM
 10
-17.0374
 20
1477.0000
 30
0.0000
 11
72.9569
 21
1446.9832
 31
0.0000
 12
72.9682
 22
1506.9832
 32
0.0000
 13
72.9682
 23
1506.9832
 33
0.0000
  0
TEXT
  5
1082
  8
Electrical_DIM
 10
-649.9932
 20
1441.1185
 30
0.0000
 40
90.0000
 50
-0.0107
  1
126.6
  7
STANDARD
  0
INSERT
  5
1083
  8
Electrical
  2
ControlBox
 10
20.0000
 20
1677.0000
 30
0.0000
 41
1.0000
 42
1.0000
 43
1.0000
 50
0.0000
  0
TEXT
  5
1084
  8
Electrical_H
 10
90.0000
 20
1717.0000
 30
0.0000
 40
90.0000
 50
0.0000
  1
H 38.4
  7
STANDARD
  0
LINE
  5
1085
  8
Electrical_DIM
 10
-1282.8980
 20
1677.2370
 30
0.0000
 11
-1282.9453
 21
1417.2370
 31
0.0000
  0
LINE
  5
1086
  8
Electrical_DIM
 10
20.0000
 20
1677.0000
 30
0.0000
 11
19.9527
 21
1417.0000
 31
0.0000
  0
LINE
  5
1087
  8
Electrical_DIM
 10
-1282.9344
 20
1477.2370
 30
0.0000
 11
19.9636
 21
1477.0000
 31
0.0000
  0
SOLID
  5
1088
  8
Electrical_DIM
 10
-1282.9344
 20
1477.2370
 30
0.0000
 11
-1372.9398
 21
1447.2534
 31
0.0000
 12
-1372.9289
 22
1507.2534
 32
0.0000
 13
-1372.9289
 23
1507.2534
 33
0.0000
  0
SOLID
  5
1089
  8
Electrical_DIM
 10
19.9636
 20
1477.0000
 30
0.0000
 11
109.9582
 21
1446.9836
 31
0.0000
 12
109.9691
 22
1506.9836
 32
0.0000
 13
109.9691
 23
1506.9836
 33
0.0000
  0
TEXT
  5
108A
  8
Electrical_DIM
 10
-631.4919
 20
1441.1185
 30
0.0000
 40
90.0000
 50
-0.0104
  1
130.3
  7
STANDARD
  0
INSERT
  5
108B
  8
Electrical
  2
ControlBox
 10
-1140.0000
 20
1677.0000
 30
0.0000
 41
1.0000
 42
1.0000
 43
1.0000
 50
0.0000
  0
TEXT
  5
108C
  8
Electrical_H
 10
-1070.0000
 20
1717.0000
 30
0.0000
 40
90.0000
 50
0.0000
  1
H 259.1
  7
STANDARD
  0
LINE
  5
108D
  8
Electrical_DIM
 10
-1282.8980
 20
1677.2370
 30
0.0000
 11
-1283.3292
 21
1417.2374
 31
0.0000
  0
LINE
  5
108E
  8
Electrical_DIM
 10
-1140.0000
 20
1677.0000
 30
0.0000
 11
-1140.4312
 21
1417.0004
 31
0.0000
  0
LINE
  5
108F
  8
Electrical_DIM
 10
-1283.2297
 20
1477.2373
 30
0.0000
 11
-1140.3317
 21
1477.0003
 31
0.0000
  0
SOLID
  5
1090
  8
Electrical_DIM
 10
-1283.2297
 20
1477.2373
 30
0.0000
 11
-1373.2793
 21
1447.3866
 31
0.0000
 12
-1373.1798
 22
1507.3865
 32
0.0000
 13
-1373.1798
 23
1507.3865
 33
0.0000
  0
SOLID
  5
1091
  8
Electrical_DIM
 10
-1140.3317
 20
1477.0003
 30
0.0000
 11
-1050.3816
 21
1446.8510
 31
0.0000
 12
-1050.2821
 22
1506.8510
 32
0.0000
 13
-1050.2821
 23
1506.8510
 33
0.0000
  0
TEXT
  5
1092
  8
Electrical_DIM
 10
-1211.8404
 20
1441.1188
 30
0.0000
 40
90.0000
 50
-0.0950
  1
14.3
  7
STANDARD
  0
INSERT
  5
1093
  8
Electrical
  2
ControlBox
 10
84.0000
 20
1677.0000
 30
0.0000
 41
1.0000
 42
1.0000
 43
1.0000
 50
0.0000
  0
TEXT
  5
1094
  8
Electrical_H
 10
154.0000
 20
1717.0000
 30
0.0000
 40
90.0000
 50
0.0000
  1
H 259.1
  7
STANDARD
  0
LINE
  5
1095
  8
Electrical_DIM
 10
-1282.8980
 20
1677.2370
 30
0.0000
 11
-1282.9431
 21
1417.2370
 31
0.0000
  0
LINE
  5
1096
  8
Electrical_DIM
 10
84.0000
 20
1677.0000
 30
0.0000
 11
83.9549
 21
1417.0000
 31
0.0000
  0
LINE
  5
1097
  8
Electrical_DIM
 10
-1282.9327
 20
1477.2370
 30
0.0000
 11
83.9653
 21
1477.0000
 31
0.0000
  0
SOLID
  5
1098
  8
Electrical_DIM
 10
-1282.9327
 20
1477.2370
 30
0.0000
 11
-1372.9379
 21
1447.2526
 31
0.0000
 12
-1372.9275
 22
1507.2526
 32
0.0000
 13
-1372.9275
 23
1507.2526
 33
0.0000
  0
SOLID
  5
1099
  8
Electrical_DIM
 10
83.9653
 20
1477.0000
 30
0.0000
 11
173.9601
 21
1446.9844
 31
0.0000
 12
173.9705
 22
1506.9844
 32
0.0000
 13
173.9705
 23
1506.9844
 33
0.0000
  0
TEXT
  5
109A
  8
Electrical_DIM
 10
-599.4899
 20
1441.1185
 30
0.0000
 40
90.0000
 50
-0.0099
  1
136.7
  7
STANDARD
  0
INSERT
  5
109B
  8
Electrical
  2
ControlBox
 10
2121.0000
 20
1195.0000
 30
0.0000
 41
1.0000
 42
1.0000
 43
1.0000
 50
0.0000
  0
TEXT
  5
109C
  8
Electrical_H
 10
2191.0000
 20
1235.0000
 30
0.0000
 40
90.0000
 50
0.0000
  1
H 90.9
  7
STANDARD
  0
LINE
  5
109D
  8
Electrical_DIM
 10
-2088.2310
 20
1194.7930
 30
0.0000
 11
-2088.2182
 21
934.7930
 31
0.0000
  0
LINE
  5
109E
  8
Electrical_DIM
 10
2121.0000
 20
1195.0000
 30
0.0000
 11
2121.0128
 21
935.0000
 31
0.0000
  0
LINE
  5
109F
  8
Electrical_DIM
 10
-2088.2212
 20
994.7930
 30
0.0000
 11
2121.0098
 21
995.0000
 31
0.0000
  0
SOLID
  5
10A0
  8
Electrical_DIM
 10
-2088.2212
 20
994.7930
 30
0.0000
 11
-2178.2197
 21
964.7886
 31
0.0000
 12
-2178.2226
 22
1024.7886
 32
0.0000
 13
-2178.2226
 23
1024.7886
 33
0.0000
  0
SOLID
  5
10A1
  8
Electrical_DIM
 10
2121.0098
 20
995.0000
 30
0.0000
 11
2211.0113
 21
965.0044
 31
0.0000
 12
2211.0084
 22
1025.0044
 32
0.0000
 13
2211.0084
 23
1025.0044
 33
0.0000
  0
TEXT
  5
10A2
  8
Electrical_DIM
 10
16.3961
 20
958.8965
 30
0.0000
 40
90.0000
 50
0.0028
  1
420.9
  7
STANDARD
  0
INSERT
  5
10A3
  8
Electrical
  2
ControlBox
 10
1310.0000
 20
1195.0000
 30
0.0000
 41
1.0000
 42
1.0000
 43
1.0000
 50
0.0000
  0
TEXT
  5
10A4
  8
Electrical_H
 10
1380.0000
 20
1235.0000
 30
0.0000
 40
90.0000
 50
0.0000
  1
H 147.7
  7
STANDARD
  0
LINE
  5
10A5
  8
Electrical_DIM
 10
-2088.2310
 20
1194.7930
 30
0.0000
 11
-2088.2152
 21
934.7930
 31
0.0000
  0
LINE
  5
10A6
  8
Electrical_DIM
 10
1310.0000
 20
1195.0000
 30
0.0000
 11
1310.0158
 21
935.0000
 31
0.0000
  0
LINE
  5
10A7
  8
Electrical_DIM
 10
-2088.2188
 20
994.7930
 30
0.0000
 11
1310.0122
 21
995.0000
 31
0.0000
  0
SOLID
  5
10A8
  8
Electrical_DIM
 10
-2088.2188
 20
994.7930
 30
0.0000
 11
-2178.2170
 21
964.7875
 31
0.0000
 12
-2178.2206
 22
1024.7875
 32
0.0000
 13
-2178.2206
 23
1024.7875
 33
0.0000
  0
SOLID
  5
10A9
  8
Electrical_DIM
 10
1310.0122
 20
995.0000
 30
0.0000
 11
1400.0140
 21
965.0055
 31
0.0000
 12
1400.0104
 22
1025.0055
 32
0.0000
 13
1400.0104
 23
1025.0055
 33
0.0000
  0
TEXT
  5
10AA
  8
Electrical_DIM
 10
-389.1011
 20
958.8965
 30
0.0000
 40
90.0000
 50
0.0035
  1
339.8
  7
STANDARD
  0
INSERT
  5
10AB
  8
Electrical
  2
ControlBox
 10
2432.0000
 20
-548.0000
 30
0.0000
 41
1.0000
 42
1.0000
 43
1.0000
 50
269.7000
  0
TEXT
  5
10AC
  8
Electrical_H
 10
2502.0000
 20
-508.0000
 30
0.0000
 40
90.0000
 50
0.0000
  1
H 116.7
  7
STANDARD
  0
LINE
  5
10AD
  8
Electrical_DIM
 10
2435.4350
 20
55.4080
 30
0.0000
 11
2175.4392
 21
56.8881
 31
0.0000
  0
LINE
  5
10AE
  8
Electrical_DIM
 10
2432.0000
 20
-548.0000
 30
0.0000
 11
2172.0042
 21
-546.5199
 31
0.0000
  0
LINE
  5
10AF
  8
Electrical_DIM
 10
2235.4382
 20
56.5465
 30
0.0000
 11
2232.0032
 21
-546.8615
 31
0.0000
  0
SOLID
  5
10B0
  8
Electrical_DIM
 10
2235.4382
 20
56.5465
 30
0.0000
 11
2205.9511
 21
146.7158
 31
0.0000
 12
2265.9501
 22
146.3743
 32
0.0000
 13
2265.9501
 23
146.3743
 33
0.0000
  0
SOLID
  5
10B1
  8
Electrical_DIM
 10
2232.0032
 20
-546.8615
 30
0.0000
 11
2201.4914
 21
-636.6892
 31
0.0000
 12
2261.4904
 22
-637.0308
 32
0.0000
 13
2261.4904
 23
-637.0308
 33
0.0000
  0
TEXT
  5
10B2
  8
Electrical_DIM
 10
2197.7213
 20
-244.9526
 30
0.0000
 40
90.0000
 50
89.6738
  1
60.3
  7
STANDARD
  0
INSERT
  5
10B3
  8
Electrical
  2
ControlBox
 10
2432.0000
 20
-543.0000
 30
0.0000
 41
1.0000
 42
1.0000
 43
1.0000
 50
269.7000
  0
TEXT
  5
10B4
  8
Electrical_H
 10
2502.0000
 20
-503.0000
 30
0.0000
 40
90.0000
 50
0.0000
  1
H 136.2
  7
STANDARD
  0
LINE
  5
10B5
  8
Electrical_DIM
 10
2435.4350
 20
55.4080
 30
0.0000
 11
2175.4393
 21
56.9004
 31
0.0000
  0
LINE
  5
10B6
  8
Electrical_DIM
 10
2432.0000
 20
-543.0000
 30
0.0000
 11
2172.0043
 21
-541.5076
 31
0.0000
  0
LINE
  5
10B7
  8
Electrical_DIM
 10
2235.4383
 20
56.5560
 30
0.0000
 11
2232.0033
 21
-541.8520
 31
0.0000
  0
SOLID
  5
10B8
  8
Electrical_DIM
 10
2235.4383
 20
56.5560
 30
0.0000
 11
2205.9554
 21
146.7267
 31
0.0000
 12
2265.9544
 22
146.3823
 32
0.0000
 13
2265.9544
 23
146.3823
 33
0.0000
  0
SOLID
  5
10B9
  8
Electrical_DIM
 10
2232.0033
 20
-541.8520
 30
0.0000
 11
2201.4872
 21
-631.6783
 31
0.0000
 12
2261.4862
 22
-632.0227
 32
0.0000
 13
2261.4862
 23
-632.0227
 33
0.0000
  0
TEXT
  5
10BA
  8
Electrical_DIM
 10
2197.7214
 20
-242.4413
 30
0.0000
 40
90.0000
 50
89.6711
  1
59.8
  7
STANDARD
  0
INSERT
  5
10BB
  8
Electrical
  2
ControlBox
 10
1184.0000
 20
55.0000
 30
0.0000
 41
1.0000
 42
1.0000
 43
1.0000
 50
0.0000
  0
TEXT
  5
10BC
  8
Electrical_H
 10
1254.0000
 20
95.0000
 30
0.0000
 40
90.0000
 50
0.0000
  1
H 100
  7
STANDARD
  0
LINE
  5
10BD
  8
Electrical_DIM
 10
913.6880
 20
55.4080
 30
0.0000
 11
913.2956
 21
-204.5917
 31
0.0000
  0
LINE
  5
10BE
  8
Electrical_DIM
 10
1184.0000
 20
55.0000
 30
0.0000
 11
1183.6076
 21
-204.9997
 31
0.0000
  0
LINE
  5
10BF
  8
Electrical_DIM
 10
913.3861
 20
-144.5918
 30
0.0000
 11
1183.6981
 21
-144.9998
 31
0.0000
  0
SOLID
  5
10C0
  8
Electrical_DIM
 10
913.3861
 20
-144.5918
 30
0.0000
 11
823.3409
 21
-174.4559
 31
0.0000
 12
823.4315
 22
-114.4560
 32
0.0000
 13
823.4315
 23
-114.4560
 33
0.0000
  0
SOLID
  5
10C1
  8
Electrical_DIM
 10
1183.6981
 20
-144.9998
 30
0.0000
 11
1273.6527
 21
-175.1356
 31
0.0000
 12
1273.7433
 22
-115.1356
 32
0.0000
 13
1273.7433
 23
-115.1356
 33
0.0000
  0
TEXT
  5
10C2
  8
Electrical_DIM
 10
1048.4878
 20
-180.7957
 30
0.0000
 40
90.0000
 50
-0.0865
  1
27
  7
STANDARD
  0
INSERT
  5
10C3
  8
Electrical
  2
ControlBox
 10
914.0000
 20
-159.0000
 30
0.0000
 41
1.0000
 42
1.0000
 43
1.0000
 50
90.2000
  0
TEXT
  5
10C4
  8
Electrical_H
 10
984.0000
 20
-119.0000
 30
0.0000
 40
90.0000
 50
0.0000
  1
H 120
  7
STANDARD
  0
LINE
  5
10C5
  8
Electrical_DIM
 10
915.5970
 20
-453.4380
 30
0.0000
 11
1175.5932
 21
-452.0278
 31
0.0000
  0
LINE
  5
10C6
  8
Electrical_DIM
 10
914.0000
 20
-159.0000
 30
0.0000
 11
1173.9962
 21
-157.5898
 31
0.0000
  0
LINE
  5
10C7
  8
Electrical_DIM
 10
1115.5941
 20
-452.3532
 30
0.0000
 11
1113.9971
 21
-157.9152
 31
0.0000
  0
SOLID
  5
10C8
  8
Electrical_DIM
 10
1115.5941
 20
-452.3532
 30
0.0000
 11
1146.0818
 21
-542.1892
 31
0.0000
 12
1086.0826
 22
-542.5146
 32
0.0000
 13
1086.0826
 23
-542.5146
 33
0.0000
  0
SOLID
  5
10C9
  8
Electrical_DIM
 10
1113.9971
 20
-157.9152
 30
0.0000
 11
1143.5085
 21
-67.7538
 31
0.0000
 12
1083.5094
 22
-68.0793
 32
0.0000
 13
1083.5094
 23
-68.0793
 33
0.0000
  0
TEXT
  5
10CA
  8
Electrical_DIM
 10
1150.7950
 20
-304.9390
 30
0.0000
 40
90.0000
 50
270.3108
  1
29.4
  7
STANDARD
  0
INSERT
  5
10CB
  8
Electrical
  2
ControlBox
 10
914.0000
 20
-159.0000
 30
0.0000
 41
1.0000
 42
1.0000
 43
1.0000
 50
90.2000
  0
TEXT
  5
10CC
  8
Electrical_H
 10
984.0000
 20
-119.0000
 30
0.0000
 40
90.0000
 50
0.0000
  1
H 170.3
  7
STANDARD
  0
LINE
  5
10CD
  8
Electrical_DIM
 10
915.5970
 20
-453.4380
 30
0.0000
 11
1175.5932
 21
-452.0278
 31
0.0000
  0
LINE
  5
10CE
  8
Electrical_DIM
 10
914.0000
 20
-159.0000
 30
0.0000
 11
1173.9962
 21
-157.5898
 31
0.0000
  0
LINE
  5
10CF
  8
Electrical_DIM
 10
1115.5941
 20
-452.3532
 30
0.0000
 11
1113.9971
 21
-157.9152
 31
0.0000
  0
SOLID
  5
10D0
  8
Electrical_DIM
 10
1115.5941
 20
-452.3532
 30
0.0000
 11
1146.0818
 21
-542.1892
 31
0.0000
 12
1086.0826
 22
-542.5146
 32
0.0000
 13
1086.0826
 23
-542.5146
 33
0.0000
  0
SOLID
  5
10D1
  8
Electrical_DIM
 10
1113.9971
 20
-157.9152
 30
0.0000
 11
1143.5085
 21
-67.7538
 31
0.0000
 12
1083.5094
 22
-68.0793
 32
0.0000
 13
1083.5094
 23
-68.0793
 33
0.0000
  0
TEXT
  5
10D2
  8
Electrical_DIM
 10
1150.7950
 20
-304.9390
 30
0.0000
 40
90.0000
 50
270.3108
  1
29.4
  7
STANDARD
  0
INSERT
  5
10D3
  8
Electrical
  2
ControlBox
 10
1718.0000
 20
49.0000
 30
0.0000
 41
1.0000
 42
1.0000
 43
1.0000
 50
0.0000
  0
TEXT
  5
10D4
  8
Electrical_H
 10
1788.0000
 20
89.0000
 30
0.0000
 40
90.0000
 50
0.0000
  1
H 155
  7
STANDARD
  0
LINE
  5
10D5
  8
Electrical_DIM
 10
-695.6690
 20
47.4010
 30
0.0000
 11
-695.4968
 21
-212.5989
 31
0.0000
  0
LINE
  5
10D6
  8
Electrical_DIM
 10
1718.0000
 20
49.0000
 30
0.0000
 11
1718.1722
 21
-210.9999
 31
0.0000
  0
LINE
  5
10D7
  8
Electrical_DIM
 10
-695.5365
 20
-152.5990
 30
0.0000
 11
1718.1325
 21
-151.0000
 31
0.0000
  0
SOLID
  5
10D8
  8
Electrical_DIM
 10
-695.5365
 20
-152.5990
 30
0.0000
 11
-785.5166
 21
-182.6586
 31
0.0000
 12
-785.5564
 22
-122.6586
 32
0.0000
 13
-785.5564
 23
-122.6586
 33
0.0000
  0
SOLID
  5
10D9
  8
Electrical_DIM
 10
1718.1325
 20
-151.0000
 30
0.0000
 11
1808.1523
 21
-180.9403
 31
0.0000
 12
1808.1126
 22
-120.9403
 32
0.0000
 13
1808.1126
 23
-120.9403
 33
0.0000
  0
TEXT
  5
10DA
  8
Electrical_DIM
 10
511.3218
 20
-187.7994
 30
0.0000
 40
90.0000
 50
0.0380
  1
241.4
  7
STANDARD
  0
INSERT
  5
10DB
  8
Electrical
  2
ControlBox
 10
119.0000
 20
48.0000
 30
0.0000
 41
1.0000
 42
1.0000
 43
1.0000
 50
0.0000
  0
TEXT
  5
10DC
  8
Electrical_H
 10
189.0000
 20
88.0000
 30
0.0000
 40
90.0000
 50
0.0000
  1
H 250
  7
STANDARD
  0
LINE
  5
10DD
  8
Electrical_DIM
 10
-695.6690
 20
47.4010
 30
0.0000
 11
-695.4778
 21
-212.5989
 31
0.0000
  0
LINE
  5
10DE
  8
Electrical_DIM
 10
119.0000
 20
48.0000
 30
0.0000
 11
119.1912
 21
-211.9999
 31
0.0000
  0
LINE
  5
10DF
  8
Electrical_DIM
 10
-695.5219
 20
-152.5989
 30
0.0000
 11
119.1471
 21
-151.9999
 31
0.0000
  0
SOLID
  5
10E0
  8
Electrical_DIM
 10
-695.5219
 20
-152.5989
 30
0.0000
 11
-785.4999
 21
-182.6651
 31
0.0000
 12
-785.5440
 22
-122.6651
 32
0.0000
 13
-785.5440
 23
-122.6651
 33
0.0000
  0
SOLID
  5
10E1
  8
Electrical_DIM
 10
119.1471
 20
-151.9999
 30
0.0000
 11
209.1691
 21
-181.9338
 31
0.0000
 12
209.1250
 22
-121.9338
 32
0.0000
 13
209.1250
 23
-121.9338
 33
0.0000
  0
TEXT
  5
10E2
  8
Electrical_DIM
 10
-288.1610
 20
-188.2994
 30
0.0000
 40
90.0000
 50
0.0421
  1
81.5
  7
STANDARD
  0
INSERT
  5
10E3
  8
Text_Legend
  2
ControlBox
 10
3927.3840
 20
1951.0000
 30
0.0000
 41
1.0000
 42
1.0000
 43
1.0000
 50
0.0000
  0
TEXT
  5
10E4
  8
Text_Legend
 10
4127.3840
 20
1921.0000
 30
0.0000
 40
120.0000
 50
0.0000
  1
\U+05D0\U+05E8\U+05D5\U+05DF \U+05D7\U+05E9\U+05DE\U+05DC
  7
STANDARD
  0
ENDSEC
  0
EOF
