  0
SECTION
  2
HEADER
  9
$ACADVER
  1
AC1009
  9
$INSBASE
 10
0.0000
 20
0.0000
 30
0.0000
  9
$EXTMIN
 10
-2138.2310
 20
-1971.4600
 30
0.0000
  9
$EXTMAX
 10
3327.3840
 20
1951.0000
 30
0.0000
  9
$DWGCODEPAGE
  3
ansi_1255
  9
$INSUNITS
 70
4
  9
$LTSCALE
 40
10.0000
  9
$LIMMIN
 10
0.0000
 20
0.0000
  9
$LIMMAX
 10
2000.0000
 20
200.0000
  0
ENDSEC
  0
SECTION
  2
TABLES
  0
TABLE
  2
VPORT
 70
1
  0
VPORT
  2
*ACTIVE
 70
0
 10
0.0000
 20
0.0000
 11
1.0000
 21
1.0000
 12
594.5765
 22
-10.2300
 13
0.0000
 23
0.0000
 14
10.0000
 24
10.0000
 15
10.0000
 25
10.0000
 16
0.0000
 26
0.0000
 36
1.0000
 17
0.0000
 27
0.0000
 37
0.0000
 40
4314.7060
 41
1.0000
 42
50.0000
 43
0.0000
 44
0.0000
 50
0.0000
 51
0.0000
 71
0
 72
100
 73
1
 74
1
 75
0
 76
0
 77
0
 78
0
  0
ENDTAB
  0
TABLE
  2
LTYPE
 70
2
  0
LTYPE
  2
CONTINUOUS
 70
0
  3
Solid line
 72
65
 73
0
 40
0.0000
  0
LTYPE
  2
HIDDEN
 70
0
  3
Hidden __ __ __ __ __ __ __ __ __ __ __ __ __ __
 72
65
 73
2
 40
0.3750
 49
0.2500
 49
-0.1250
  0
ENDTAB
  0
TABLE
  2
LAYER
 70
37
  0
LAYER
  2
0
 70
0
 62
7
  6
CONTINUOUS
  0
LAYER
  2
Electrical
 70
0
 62
6
  6
CONTINUOUS
  0
LAYER
  2
Plumbing
 70
0
 62
150
  6
CONTINUOUS
  0
LAYER
  2
Const_Walls
 70
0
 62
253
  6
CONTINUOUS
  0
LAYER
  2
Dim
 70
0
 62
9
  6
CONTINUOUS
  0
LAYER
  2
Text
 70
0
 62
74
  6
CONTINUOUS
  0
LAYER
  2
HVAC
 70
0
 62
4
  6
CONTINUOUS
  0
LAYER
  2
Misc
 70
0
 62
32
  6
HIDDEN
  0
LAYER
  2
Dim_Markers
 70
0
 62
9
  6
CONTINUOUS
  0
LAYER
  2
Dim_Wall
 70
0
 62
9
  6
CONTINUOUS
  0
LAYER
  2
Const_Doors
 70
0
 62
5
  6
CONTINUOUS
  0
LAYER
  2
Const_Windows
 70
0
 62
152
  6
CONTINUOUS
  0
LAYER
  2
Text_Legend
 70
0
 62
74
  6
CONTINUOUS
  0
LAYER
  2
Text_JobInfo
 70
0
 62
74
  6
CONTINUOUS
  0
LAYER
  2
Dim_Overall
 70
0
 62
-9
  6
CONTINUOUS
  0
LAYER
  2
Dim_Embeded
 70
0
 62
-9
  6
CONTINUOUS
  0
LAYER
  2
Dim_Angles_Auto
 70
0
 62
3
  6
CONTINUOUS
  0
LAYER
  2
Text_AreaNo
 70
0
 62
-74
  6
CONTINUOUS
  0
LAYER
  2
Dim_ArcChord
 70
0
 62
9
  6
HIDDEN
  0
LAYER
  2
Const_Walls_Ext
 70
0
 62
253
  6
CONTINUOUS
  0
LAYER
  2
Dim_Verification
 70
0
 62
-9
  6
CONTINUOUS
  0
LAYER
  2
Dim_Radius
 70
0
 62
9
  6
CONTINUOUS
  0
LAYER
  2
Dim_Angles
 70
0
 62
9
  6
CONTINUOUS
  0
LAYER
  2
Z_Other
 70
0
 62
253
  6
CONTINUOUS
  0
LAYER
  2
Const_Stairs
 70
0
 62
253
  6
CONTINUOUS
  0
LAYER
  2
Misc_Cabinets
 70
0
 62
36
  6
CONTINUOUS
  0
LAYER
  2
Z_Scale_Ruler
 70
0
 62
7
  6
CONTINUOUS
  0
LAYER
  2
Const_Fill
 70
0
 62
253
  6
CONTINUOUS
  0
LAYER
  2
Wall_Image
 70
0
 62
7
  6
CONTINUOUS
  0
LAYER
  2
Exterior_walls
 70
0
 62
5
  6
CONTINUOUS
  0
LAYER
  2
HVAC_DIM
 70
0
 62
4
  6
CONTINUOUS
  0
LAYER
  2
HVAC_H
 70
0
 62
4
  6
CONTINUOUS
  0
LAYER
  2
Electrical_DIM
 70
0
 62
6
  6
CONTINUOUS
  0
LAYER
  2
Electrical_H
 70
0
 62
6
  6
CONTINUOUS
  0
LAYER
  2
Plumbing_DIM
 70
0
 62
150
  6
CONTINUOUS
  0
LAYER
  2
Plumbing_H
 70
0
 62
150
  6
CONTINUOUS
  0
LAYER
  2
datum
 70
0
 62
1
  6
CONTINUOUS
  0
ENDTAB
  0
TABLE
  2
STYLE
 70
1
  0
STYLE
  2
STANDARD
 70
0
 40
0.0000
 41
1.0000
 50
0.0000
 71
0
 42
10.0000
  3
ARIAL.TTF
  4

  0
ENDTAB
  0
ENDSEC
  0
SECTION
  2
BLOCKS
  0
BLOCK
  8
0
  2
CONTROLBOX
 70
0
 10
0.0000
 20
0.0000
 30
0.0000
  0
3DFACE
  5
105B
  8
0
 10
-100.0000
 20
-40.0000
 30
-150.0000
 11
100.0000
 21
-40.0000
 31
-150.0000
 12
100.0000
 22
0.0000
 32
-150.0000
 13
-100.0000
 23
0.0000
 33
-150.0000
  0
3DFACE
  5
105C
  8
0
 10
-100.0000
 20
-40.0000
 30
150.0000
 11
100.0000
 21
-40.0000
 31
150.0000
 12
100.0000
 22
0.0000
 32
150.0000
 13
-100.0000
 23
0.0000
 33
150.0000
  0
3DFACE
  5
105D
  8
0
 10
-100.0000
 20
-40.0000
 30
-150.0000
 11
100.0000
 21
-40.0000
 31
-150.0000
 12
100.0000
 22
-40.0000
 32
150.0000
 13
-100.0000
 23
-40.0000
 33
150.0000
  0
3DFACE
  5
105E
  8
0
 10
-100.0000
 20
0.0000
 30
-150.0000
 11
100.0000
 21
0.0000
 31
-150.0000
 12
100.0000
 22
0.0000
 32
150.0000
 13
-100.0000
 23
0.0000
 33
150.0000
  0
3DFACE
  5
105F
  8
0
 10
-100.0000
 20
-40.0000
 30
-150.0000
 11
-100.0000
 21
0.0000
 31
-150.0000
 12
-100.0000
 22
0.0000
 32
150.0000
 13
-100.0000
 23
-40.0000
 33
150.0000
  0
3DFACE
  5
1060
  8
0
 10
100.0000
 20
-40.0000
 30
-150.0000
 11
100.0000
 21
0.0000
 31
-150.0000
 12
100.0000
 22
0.0000
 32
150.0000
 13
100.0000
 23
-40.0000
 33
150.0000
  0
3DFACE
  5
1061
  8
0
 10
-96.0000
 20
0.0000
 30
-146.0000
 11
96.0000
 21
0.0000
 31
-146.0000
 12
96.0000
 22
10.0000
 32
-146.0000
 13
-96.0000
 23
10.0000
 33
-146.0000
  0
3DFACE
  5
1062
  8
0
 10
-96.0000
 20
0.0000
 30
146.0000
 11
96.0000
 21
0.0000
 31
146.0000
 12
96.0000
 22
10.0000
 32
146.0000
 13
-96.0000
 23
10.0000
 33
146.0000
  0
3DFACE
  5
1063
  8
0
 10
-96.0000
 20
0.0000
 30
-146.0000
 11
96.0000
 21
0.0000
 31
-146.0000
 12
96.0000
 22
0.0000
 32
146.0000
 13
-96.0000
 23
0.0000
 33
146.0000
  0
3DFACE
  5
1064
  8
0
 10
-96.0000
 20
10.0000
 30
-146.0000
 11
96.0000
 21
10.0000
 31
-146.0000
 12
96.0000
 22
10.0000
 32
146.0000
 13
-96.0000
 23
10.0000
 33
146.0000
  0
3DFACE
  5
1065
  8
0
 10
-96.0000
 20
0.0000
 30
-146.0000
 11
-96.0000
 21
10.0000
 31
-146.0000
 12
-96.0000
 22
10.0000
 32
146.0000
 13
-96.0000
 23
0.0000
 33
146.0000
  0
3DFACE
  5
1066
  8
0
 10
96.0000
 20
0.0000
 30
-146.0000
 11
96.0000
 21
10.0000
 31
-146.0000
 12
96.0000
 22
10.0000
 32
146.0000
 13
96.0000
 23
0.0000
 33
146.0000
  0
ENDBLK
  5
1067
  8
0
  0
ENDSEC
  0
SECTION
  2
ENTITIES
  0
3DFACE
  5
1000
  8
Const_Walls
 10
332.0220
 20
1677.3031
 30
0.0000
 11
332.8080
 21
1082.8661
 31
0.0000
 12
232.8080
 22
1082.7339
 32
0.0000
 13
232.0220
 23
1677.1709
 33
0.0000
 70
15
  0
3DFACE
  5
1001
  8
Const_Walls
 10
332.0220
 20
1677.3031
 30
2583.7000
 11
332.8080
 21
1082.8661
 31
2583.7000
 12
232.8080
 22
1082.7339
 32
2583.7000
 13
232.0220
 23
1677.1709
 33
2583.7000
 70
15
  0
3DFACE
  5
1002
  8
Const_Walls
 10
332.0220
 20
1677.3031
 30
0.0000
 11
332.8080
 21
1082.8661
 31
0.0000
 12
332.8080
 22
1082.8661
 32
2583.7000
 13
332.0220
 23
1677.3031
 33
2583.7000
 70
15
  0
3DFACE
  5
1003
  8
Const_Walls
 10
332.8080
 20
1082.8661
 30
0.0000
 11
232.8080
 21
1082.7339
 31
0.0000
 12
232.8080
 22
1082.7339
 32
2583.7000
 13
332.8080
 23
1082.8661
 33
2583.7000
 70
15
  0
3DFACE
  5
1004
  8
Const_Walls
 10
232.8080
 20
1082.7339
 30
0.0000
 11
232.0220
 21
1677.1709
 31
0.0000
 12
232.0220
 22
1677.1709
 32
2583.7000
 13
232.8080
 23
1082.7339
 33
2583.7000
 70
15
  0
3DFACE
  5
1005
  8
Const_Walls
 10
232.0220
 20
1677.1709
 30
0.0000
 11
332.0220
 21
1677.3031
 31
0.0000
 12
332.0220
 22
1677.3031
 32
2583.7000
 13
232.0220
 23
1677.1709
 33
2583.7000
 70
15
  0
3DFACE
  5
1006
  8
Const_Walls
 10
-1282.8980
 20
1727.2370
 30
0.0000
 11
282.0220
 21
1727.2370
 31
0.0000
 12
282.0220
 22
1627.2370
 32
0.0000
 13
-1282.8980
 23
1627.2370
 33
0.0000
 70
15
  0
3DFACE
  5
1007
  8
Const_Walls
 10
-1282.8980
 20
1727.2370
 30
2583.7000
 11
282.0220
 21
1727.2370
 31
2583.7000
 12
282.0220
 22
1627.2370
 32
2583.7000
 13
-1282.8980
 23
1627.2370
 33
2583.7000
 70
15
  0
3DFACE
  5
1008
  8
Const_Walls
 10
-1282.8980
 20
1727.2370
 30
0.0000
 11
282.0220
 21
1727.2370
 31
0.0000
 12
282.0220
 22
1727.2370
 32
2583.7000
 13
-1282.8980
 23
1727.2370
 33
2583.7000
 70
15
  0
3DFACE
  5
1009
  8
Const_Walls
 10
282.0220
 20
1727.2370
 30
0.0000
 11
282.0220
 21
1627.2370
 31
0.0000
 12
282.0220
 22
1627.2370
 32
2583.7000
 13
282.0220
 23
1727.2370
 33
2583.7000
 70
15
  0
3DFACE
  5
100A
  8
Const_Walls
 10
282.0220
 20
1627.2370
 30
0.0000
 11
-1282.8980
 21
1627.2370
 31
0.0000
 12
-1282.8980
 22
1627.2370
 32
2583.7000
 13
282.0220
 23
1627.2370
 33
2583.7000
 70
15
  0
3DFACE
  5
100B
  8
Const_Walls
 10
-1282.8980
 20
1627.2370
 30
0.0000
 11
-1282.8980
 21
1727.2370
 31
0.0000
 12
-1282.8980
 22
1727.2370
 32
2583.7000
 13
-1282.8980
 23
1627.2370
 33
2583.7000
 70
15
  0
3DFACE
  5
100C
  8
Const_Walls
 10
-1328.0313
 20
1083.6160
 30
0.0000
 11
-1332.8963
 21
1676.8270
 31
0.0000
 12
-1232.8997
 22
1677.6470
 32
0.0000
 13
-1228.0347
 23
1084.4360
 33
0.0000
 70
15
  0
3DFACE
  5
100D
  8
Const_Walls
 10
-1328.0313
 20
1083.6160
 30
2583.7000
 11
-1332.8963
 21
1676.8270
 31
2583.7000
 12
-1232.8997
 22
1677.6470
 32
2583.7000
 13
-1228.0347
 23
1084.4360
 33
2583.7000
 70
15
  0
3DFACE
  5
100E
  8
Const_Walls
 10
-1328.0313
 20
1083.6160
 30
0.0000
 11
-1332.8963
 21
1676.8270
 31
0.0000
 12
-1332.8963
 22
1676.8270
 32
2583.7000
 13
-1328.0313
 23
1083.6160
 33
2583.7000
 70
15
  0
3DFACE
  5
100F
  8
Const_Walls
 10
-1332.8963
 20
1676.8270
 30
0.0000
 11
-1232.8997
 21
1677.6470
 31
0.0000
 12
-1232.8997
 22
1677.6470
 32
2583.7000
 13
-1332.8963
 23
1676.8270
 33
2583.7000
 70
15
  0
3DFACE
  5
1010
  8
Const_Walls
 10
-1232.8997
 20
1677.6470
 30
0.0000
 11
-1228.0347
 21
1084.4360
 31
0.0000
 12
-1228.0347
 22
1084.4360
 32
2583.7000
 13
-1232.8997
 23
1677.6470
 33
2583.7000
 70
15
  0
3DFACE
  5
1011
  8
Const_Walls
 10
-1228.0347
 20
1084.4360
 30
0.0000
 11
-1328.0313
 21
1083.6160
 31
0.0000
 12
-1328.0313
 22
1083.6160
 32
2583.7000
 13
-1228.0347
 23
1084.4360
 33
2583.7000
 70
15
  0
3DFACE
  5
1012
  8
Const_Walls
 10
-2088.2310
 20
1244.7930
 30
0.0000
 11
2671.7270
 21
1244.7930
 31
0.0000
 12
2671.7270
 22
1144.7930
 32
0.0000
 13
-2088.2310
 23
1144.7930
 33
0.0000
 70
15
  0
3DFACE
  5
1013
  8
Const_Walls
 10
-2088.2310
 20
1244.7930
 30
2583.1000
 11
2671.7270
 21
1244.7930
 31
2583.1000
 12
2671.7270
 22
1144.7930
 32
2583.1000
 13
-2088.2310
 23
1144.7930
 33
2583.1000
 70
15
  0
3DFACE
  5
1014
  8
Const_Walls
 10
-2088.2310
 20
1244.7930
 30
0.0000
 11
2671.7270
 21
1244.7930
 31
0.0000
 12
2671.7270
 22
1244.7930
 32
2583.1000
 13
-2088.2310
 23
1244.7930
 33
2583.1000
 70
15
  0
3DFACE
  5
1015
  8
Const_Walls
 10
2671.7270
 20
1244.7930
 30
0.0000
 11
2671.7270
 21
1144.7930
 31
0.0000
 12
2671.7270
 22
1144.7930
 32
2583.1000
 13
2671.7270
 23
1244.7930
 33
2583.1000
 70
15
  0
3DFACE
  5
1016
  8
Const_Walls
 10
2671.7270
 20
1144.7930
 30
0.0000
 11
-2088.2310
 21
1144.7930
 31
0.0000
 12
-2088.2310
 22
1144.7930
 32
2583.1000
 13
2671.7270
 23
1144.7930
 33
2583.1000
 70
15
  0
3DFACE
  5
1017
  8
Const_Walls
 10
-2088.2310
 20
1144.7930
 30
0.0000
 11
-2088.2310
 21
1244.7930
 31
0.0000
 12
-2088.2310
 22
1244.7930
 32
2583.1000
 13
-2088.2310
 23
1144.7930
 33
2583.1000
 70
15
  0
3DFACE
  5
1018
  8
Const_Walls
 10
2721.7270
 20
1194.8272
 30
0.0000
 11
2723.8610
 21
-1921.4258
 31
0.0000
 12
2623.8610
 22
-1921.4942
 32
0.0000
 13
2621.7270
 23
1194.7588
 33
0.0000
 70
15
  0
3DFACE
  5
1019
  8
Const_Walls
 10
2721.7270
 20
1194.8272
 30
2583.1000
 11
2723.8610
 21
-1921.4258
 31
2583.1000
 12
2623.8610
 22
-1921.4942
 32
2583.1000
 13
2621.7270
 23
1194.7588
 33
2583.1000
 70
15
  0
3DFACE
  5
101A
  8
Const_Walls
 10
2721.7270
 20
1194.8272
 30
0.0000
 11
2723.8610
 21
-1921.4258
 31
0.0000
 12
2723.8610
 22
-1921.4258
 32
2583.1000
 13
2721.7270
 23
1194.8272
 33
2583.1000
 70
15
  0
3DFACE
  5
101B
  8
Const_Walls
 10
2723.8610
 20
-1921.4258
 30
0.0000
 11
2623.8610
 21
-1921.4942
 31
0.0000
 12
2623.8610
 22
-1921.4942
 32
2583.1000
 13
2723.8610
 23
-1921.4258
 33
2583.1000
 70
15
  0
3DFACE
  5
101C
  8
Const_Walls
 10
2623.8610
 20
-1921.4942
 30
0.0000
 11
2621.7270
 21
1194.7588
 31
0.0000
 12
2621.7270
 22
1194.7588
 32
2583.1000
 13
2623.8610
 23
-1921.4942
 33
2583.1000
 70
15
  0
3DFACE
  5
101D
  8
Const_Walls
 10
2621.7270
 20
1194.7588
 30
0.0000
 11
2721.7270
 21
1194.8272
 31
0.0000
 12
2721.7270
 22
1194.8272
 32
2583.1000
 13
2621.7270
 23
1194.7588
 33
2583.1000
 70
15
  0
3DFACE
  5
101E
  8
Const_Walls
 10
-2130.8464
 20
-311.8321
 30
0.0000
 11
-2138.2304
 21
1194.5479
 31
0.0000
 12
-2038.2316
 22
1195.0381
 32
0.0000
 13
-2030.8476
 23
-311.3419
 33
0.0000
 70
15
  0
3DFACE
  5
101F
  8
Const_Walls
 10
-2130.8464
 20
-311.8321
 30
2583.1000
 11
-2138.2304
 21
1194.5479
 31
2583.1000
 12
-2038.2316
 22
1195.0381
 32
2583.1000
 13
-2030.8476
 23
-311.3419
 33
2583.1000
 70
15
  0
3DFACE
  5
1020
  8
Const_Walls
 10
-2130.8464
 20
-311.8321
 30
0.0000
 11
-2138.2304
 21
1194.5479
 31
0.0000
 12
-2138.2304
 22
1194.5479
 32
2583.1000
 13
-2130.8464
 23
-311.8321
 33
2583.1000
 70
15
  0
3DFACE
  5
1021
  8
Const_Walls
 10
-2138.2304
 20
1194.5479
 30
0.0000
 11
-2038.2316
 21
1195.0381
 31
0.0000
 12
-2038.2316
 22
1195.0381
 32
2583.1000
 13
-2138.2304
 23
1194.5479
 33
2583.1000
 70
15
  0
3DFACE
  5
1022
  8
Const_Walls
 10
-2038.2316
 20
1195.0381
 30
0.0000
 11
-2030.8476
 21
-311.3419
 31
0.0000
 12
-2030.8476
 22
-311.3419
 32
2583.1000
 13
-2038.2316
 23
1195.0381
 33
2583.1000
 70
15
  0
3DFACE
  5
1023
  8
Const_Walls
 10
-2030.8476
 20
-311.3419
 30
0.0000
 11
-2130.8464
 21
-311.8321
 31
0.0000
 12
-2130.8464
 22
-311.8321
 32
2583.1000
 13
-2030.8476
 23
-311.3419
 33
2583.1000
 70
15
  0
3DFACE
  5
1024
  8
Const_Walls
 10
2485.4344
 20
55.1546
 30
0.0000
 11
2481.6054
 21
-700.4634
 31
0.0000
 12
2381.6066
 22
-699.9566
 32
0.0000
 13
2385.4356
 23
55.6614
 33
0.0000
 70
15
  0
3DFACE
  5
1025
  8
Const_Walls
 10
2485.4344
 20
55.1546
 30
2579.9000
 11
2481.6054
 21
-700.4634
 31
2579.9000
 12
2381.6066
 22
-699.9566
 32
2579.9000
 13
2385.4356
 23
55.6614
 33
2579.9000
 70
15
  0
3DFACE
  5
1026
  8
Const_Walls
 10
2485.4344
 20
55.1546
 30
0.0000
 11
2481.6054
 21
-700.4634
 31
0.0000
 12
2481.6054
 22
-700.4634
 32
2579.9000
 13
2485.4344
 23
55.1546
 33
2579.9000
 70
15
  0
3DFACE
  5
1027
  8
Const_Walls
 10
2481.6054
 20
-700.4634
 30
0.0000
 11
2381.6066
 21
-699.9566
 31
0.0000
 12
2381.6066
 22
-699.9566
 32
2579.9000
 13
2481.6054
 23
-700.4634
 33
2579.9000
 70
15
  0
3DFACE
  5
1028
  8
Const_Walls
 10
2381.6066
 20
-699.9566
 30
0.0000
 11
2385.4356
 21
55.6614
 31
0.0000
 12
2385.4356
 22
55.6614
 32
2579.9000
 13
2381.6066
 23
-699.9566
 33
2579.9000
 70
15
  0
3DFACE
  5
1029
  8
Const_Walls
 10
2385.4356
 20
55.6614
 30
0.0000
 11
2485.4344
 21
55.1546
 31
0.0000
 12
2485.4344
 22
55.1546
 32
2579.9000
 13
2385.4356
 23
55.6614
 33
2579.9000
 70
15
  0
3DFACE
  5
102A
  8
Const_Walls
 10
913.6880
 20
105.4080
 30
0.0000
 11
2435.4350
 21
105.4080
 31
0.0000
 12
2435.4350
 22
5.4080
 32
0.0000
 13
913.6880
 23
5.4080
 33
0.0000
 70
15
  0
3DFACE
  5
102B
  8
Const_Walls
 10
913.6880
 20
105.4080
 30
2579.9000
 11
2435.4350
 21
105.4080
 31
2579.9000
 12
2435.4350
 22
5.4080
 32
2579.9000
 13
913.6880
 23
5.4080
 33
2579.9000
 70
15
  0
3DFACE
  5
102C
  8
Const_Walls
 10
913.6880
 20
105.4080
 30
0.0000
 11
2435.4350
 21
105.4080
 31
0.0000
 12
2435.4350
 22
105.4080
 32
2579.9000
 13
913.6880
 23
105.4080
 33
2579.9000
 70
15
  0
3DFACE
  5
102D
  8
Const_Walls
 10
2435.4350
 20
105.4080
 30
0.0000
 11
2435.4350
 21
5.4080
 31
0.0000
 12
2435.4350
 22
5.4080
 32
2579.9000
 13
2435.4350
 23
105.4080
 33
2579.9000
 70
15
  0
3DFACE
  5
102E
  8
Const_Walls
 10
2435.4350
 20
5.4080
 30
0.0000
 11
913.6880
 21
5.4080
 31
0.0000
 12
913.6880
 22
5.4080
 32
2579.9000
 13
2435.4350
 23
5.4080
 33
2579.9000
 70
15
  0
3DFACE
  5
102F
  8
Const_Walls
 10
913.6880
 20
5.4080
 30
0.0000
 11
913.6880
 21
105.4080
 31
0.0000
 12
913.6880
 22
105.4080
 32
2579.9000
 13
913.6880
 23
5.4080
 33
2579.9000
 70
15
  0
3DFACE
  5
1030
  8
Const_Walls
 10
850.5975
 20
-453.6819
 30
0.0000
 11
848.7155
 21
47.9631
 31
0.0000
 12
978.7145
 22
48.4509
 32
0.0000
 13
980.5965
 23
-453.1941
 33
0.0000
 70
15
  0
3DFACE
  5
1031
  8
Const_Walls
 10
850.5975
 20
-453.6819
 30
2579.9000
 11
848.7155
 21
47.9631
 31
2579.9000
 12
978.7145
 22
48.4509
 32
2579.9000
 13
980.5965
 23
-453.1941
 33
2579.9000
 70
15
  0
3DFACE
  5
1032
  8
Const_Walls
 10
850.5975
 20
-453.6819
 30
0.0000
 11
848.7155
 21
47.9631
 31
0.0000
 12
848.7155
 22
47.9631
 32
2579.9000
 13
850.5975
 23
-453.6819
 33
2579.9000
 70
15
  0
3DFACE
  5
1033
  8
Const_Walls
 10
848.7155
 20
47.9631
 30
0.0000
 11
978.7145
 21
48.4509
 31
0.0000
 12
978.7145
 22
48.4509
 32
2579.9000
 13
848.7155
 23
47.9631
 33
2579.9000
 70
15
  0
3DFACE
  5
1034
  8
Const_Walls
 10
978.7145
 20
48.4509
 30
0.0000
 11
980.5965
 21
-453.1941
 31
0.0000
 12
980.5965
 22
-453.1941
 32
2579.9000
 13
978.7145
 23
48.4509
 33
2579.9000
 70
15
  0
3DFACE
  5
1035
  8
Const_Walls
 10
980.5965
 20
-453.1941
 30
0.0000
 11
850.5975
 21
-453.6819
 31
0.0000
 12
850.5975
 22
-453.6819
 32
2579.9000
 13
980.5965
 23
-453.1941
 33
2579.9000
 70
15
  0
3DFACE
  5
1036
  8
Const_Walls
 10
-695.6940
 20
97.4010
 30
0.0000
 11
913.6900
 21
98.2070
 31
0.0000
 12
913.7400
 22
-1.7930
 32
0.0000
 13
-695.6440
 23
-2.5990
 33
0.0000
 70
15
  0
3DFACE
  5
1037
  8
Const_Walls
 10
-695.6940
 20
97.4010
 30
2579.9000
 11
913.6900
 21
98.2070
 31
2579.9000
 12
913.7400
 22
-1.7930
 32
2579.9000
 13
-695.6440
 23
-2.5990
 33
2579.9000
 70
15
  0
3DFACE
  5
1038
  8
Const_Walls
 10
-695.6940
 20
97.4010
 30
0.0000
 11
913.6900
 21
98.2070
 31
0.0000
 12
913.6900
 22
98.2070
 32
2579.9000
 13
-695.6940
 23
97.4010
 33
2579.9000
 70
15
  0
3DFACE
  5
1039
  8
Const_Walls
 10
913.6900
 20
98.2070
 30
0.0000
 11
913.7400
 21
-1.7930
 31
0.0000
 12
913.7400
 22
-1.7930
 32
2579.9000
 13
913.6900
 23
98.2070
 33
2579.9000
 70
15
  0
3DFACE
  5
103A
  8
Const_Walls
 10
913.7400
 20
-1.7930
 30
0.0000
 11
-695.6440
 21
-2.5990
 31
0.0000
 12
-695.6440
 22
-2.5990
 32
2579.9000
 13
913.7400
 23
-1.7930
 33
2579.9000
 70
15
  0
3DFACE
  5
103B
  8
Const_Walls
 10
-695.6440
 20
-2.5990
 30
0.0000
 11
-695.6940
 21
97.4010
 31
0.0000
 12
-695.6940
 22
97.4010
 32
2579.9000
 13
-695.6440
 23
-2.5990
 33
2579.9000
 70
15
  0
3DFACE
  5
103C
  8
Const_Walls
 10
-747.2478
 20
-544.8207
 30
0.0000
 11
-745.6688
 21
47.5343
 31
0.0000
 12
-645.6692
 22
47.2677
 32
0.0000
 13
-647.2482
 23
-545.0873
 33
0.0000
 70
15
  0
3DFACE
  5
103D
  8
Const_Walls
 10
-747.2478
 20
-544.8207
 30
2579.9000
 11
-745.6688
 21
47.5343
 31
2579.9000
 12
-645.6692
 22
47.2677
 32
2579.9000
 13
-647.2482
 23
-545.0873
 33
2579.9000
 70
15
  0
3DFACE
  5
103E
  8
Const_Walls
 10
-747.2478
 20
-544.8207
 30
0.0000
 11
-745.6688
 21
47.5343
 31
0.0000
 12
-745.6688
 22
47.5343
 32
2579.9000
 13
-747.2478
 23
-544.8207
 33
2579.9000
 70
15
  0
3DFACE
  5
103F
  8
Const_Walls
 10
-745.6688
 20
47.5343
 30
0.0000
 11
-645.6692
 21
47.2677
 31
0.0000
 12
-645.6692
 22
47.2677
 32
2579.9000
 13
-745.6688
 23
47.5343
 33
2579.9000
 70
15
  0
3DFACE
  5
1040
  8
Const_Walls
 10
-645.6692
 20
47.2677
 30
0.0000
 11
-647.2482
 21
-545.0873
 31
0.0000
 12
-647.2482
 22
-545.0873
 32
2579.9000
 13
-645.6692
 23
47.2677
 33
2579.9000
 70
15
  0
3DFACE
  5
1041
  8
Const_Walls
 10
-647.2482
 20
-545.0873
 30
0.0000
 11
-747.2478
 21
-544.8207
 31
0.0000
 12
-747.2478
 22
-544.8207
 32
2579.9000
 13
-647.2482
 23
-545.0873
 33
2579.9000
 70
15
  0
3DFACE
  5
1042
  8
Const_Doors
 10
-1829.0000
 20
1145.0000
 30
0.0000
 11
-799.0000
 21
1145.0000
 31
0.0000
 12
-799.0000
 22
1245.0000
 32
0.0000
 13
-1829.0000
 23
1245.0000
 33
0.0000
 70
15
  0
3DFACE
  5
1043
  8
Const_Doors
 10
-1829.0000
 20
1145.0000
 30
2134.0000
 11
-799.0000
 21
1145.0000
 31
2134.0000
 12
-799.0000
 22
1245.0000
 32
2134.0000
 13
-1829.0000
 23
1245.0000
 33
2134.0000
 70
15
  0
3DFACE
  5
1044
  8
Const_Doors
 10
-1829.0000
 20
1145.0000
 30
0.0000
 11
-799.0000
 21
1145.0000
 31
0.0000
 12
-799.0000
 22
1145.0000
 32
2134.0000
 13
-1829.0000
 23
1145.0000
 33
2134.0000
 70
15
  0
3DFACE
  5
1045
  8
Const_Doors
 10
-799.0000
 20
1145.0000
 30
0.0000
 11
-799.0000
 21
1245.0000
 31
0.0000
 12
-799.0000
 22
1245.0000
 32
2134.0000
 13
-799.0000
 23
1145.0000
 33
2134.0000
 70
15
  0
3DFACE
  5
1046
  8
Const_Doors
 10
-799.0000
 20
1245.0000
 30
0.0000
 11
-1829.0000
 21
1245.0000
 31
0.0000
 12
-1829.0000
 22
1245.0000
 32
2134.0000
 13
-799.0000
 23
1245.0000
 33
2134.0000
 70
15
  0
3DFACE
  5
1047
  8
Const_Doors
 10
-1829.0000
 20
1245.0000
 30
0.0000
 11
-1829.0000
 21
1145.0000
 31
0.0000
 12
-1829.0000
 22
1145.0000
 32
2134.0000
 13
-1829.0000
 23
1245.0000
 33
2134.0000
 70
15
  0
3DFACE
  5
1048
  8
Const_Doors
 10
466.5000
 20
5.0000
 30
0.0000
 11
1361.5000
 21
5.0000
 31
0.0000
 12
1361.5000
 22
105.0000
 32
0.0000
 13
466.5000
 23
105.0000
 33
0.0000
 70
15
  0
3DFACE
  5
1049
  8
Const_Doors
 10
466.5000
 20
5.0000
 30
1620.0000
 11
1361.5000
 21
5.0000
 31
1620.0000
 12
1361.5000
 22
105.0000
 32
1620.0000
 13
466.5000
 23
105.0000
 33
1620.0000
 70
15
  0
3DFACE
  5
104A
  8
Const_Doors
 10
466.5000
 20
5.0000
 30
0.0000
 11
1361.5000
 21
5.0000
 31
0.0000
 12
1361.5000
 22
5.0000
 32
1620.0000
 13
466.5000
 23
5.0000
 33
1620.0000
 70
15
  0
3DFACE
  5
104B
  8
Const_Doors
 10
1361.5000
 20
5.0000
 30
0.0000
 11
1361.5000
 21
105.0000
 31
0.0000
 12
1361.5000
 22
105.0000
 32
1620.0000
 13
1361.5000
 23
5.0000
 33
1620.0000
 70
15
  0
3DFACE
  5
104C
  8
Const_Doors
 10
1361.5000
 20
105.0000
 30
0.0000
 11
466.5000
 21
105.0000
 31
0.0000
 12
466.5000
 22
105.0000
 32
1620.0000
 13
1361.5000
 23
105.0000
 33
1620.0000
 70
15
  0
3DFACE
  5
104D
  8
Const_Doors
 10
466.5000
 20
105.0000
 30
0.0000
 11
466.5000
 21
5.0000
 31
0.0000
 12
466.5000
 22
5.0000
 32
1620.0000
 13
466.5000
 23
105.0000
 33
1620.0000
 70
15
  0
INSERT
  5
104E
  8
Electrical
  2
ControlBox
 10
-17.0000
 20
1677.0000
 30
905.0000
 41
1.0000
 42
1.0000
 43
1.0000
 50
0.0000
  0
INSERT
  5
104F
  8
Electrical
  2
ControlBox
 10
20.0000
 20
1677.0000
 30
384.0000
 41
1.0000
 42
1.0000
 43
1.0000
 50
0.0000
  0
INSERT
  5
1050
  8
Electrical
  2
ControlBox
 10
-1140.0000
 20
1677.0000
 30
2591.0000
 41
1.0000
 42
1.0000
 43
1.0000
 50
0.0000
  0
INSERT
  5
1051
  8
Electrical
  2
ControlBox
 10
84.0000
 20
1677.0000
 30
2591.0000
 41
1.0000
 42
1.0000
 43
1.0000
 50
0.0000
  0
INSERT
  5
1052
  8
Electrical
  2
ControlBox
 10
2121.0000
 20
1195.0000
 30
909.0000
 41
1.0000
 42
1.0000
 43
1.0000
 50
0.0000
  0
INSERT
  5
1053
  8
Electrical
  2
ControlBox
 10
1310.0000
 20
1195.0000
 30
1477.0000
 41
1.0000
 42
1.0000
 43
1.0000
 50
0.0000
  0
INSERT
  5
1054
  8
Electrical
  2
ControlBox
 10
2432.0000
 20
-548.0000
 30
1167.0000
 41
1.0000
 42
1.0000
 43
1.0000
 50
269.7000
  0
INSERT
  5
1055
  8
Electrical
  2
ControlBox
 10
2432.0000
 20
-543.0000
 30
1362.0000
 41
1.0000
 42
1.0000
 43
1.0000
 50
269.7000
  0
INSERT
  5
1056
  8
Electrical
  2
ControlBox
 10
1184.0000
 20
55.0000
 30
1000.0000
 41
1.0000
 42
1.0000
 43
1.0000
 50
0.0000
  0
INSERT
  5
1057
  8
Electrical
  2
ControlBox
 10
914.0000
 20
-159.0000
 30
1200.0000
 41
1.0000
 42
1.0000
 43
1.0000
 50
90.2000
  0
INSERT
  5
1058
  8
Electrical
  2
ControlBox
 10
914.0000
 20
-159.0000
 30
1703.0000
 41
1.0000
 42
1.0000
 43
1.0000
 50
90.2000
  0
INSERT
  5
1059
  8
Electrical
  2
ControlBox
 10
1718.0000
 20
49.0000
 30
1549.9000
 41
1.0000
 42
1.0000
 43
1.0000
 50
0.0000
  0
INSERT
  5
105A
  8
Electrical
  2
ControlBox
 10
119.0000
 20
48.0000
 30
2500.0000
 41
1.0000
 42
1.0000
 43
1.0000
 50
0.0000
  0
ENDSEC
  0
EOF
