  0
SECTION
  2
HEADER
  9
$ACADVER
  1
AC1009
  9
$INSBASE
 10
0.0000
 20
0.0000
 30
0.0000
  9
$EXTMIN
 10
-1000.0000
 20
-12900.0000
 30
0.0000
  9
$EXTMAX
 10
17350.0000
 20
500.0000
 30
0.0000
  9
$DWGCODEPAGE
  3
ansi_1255
  9
$CLAYER
  8
0
  9
$LTSCALE
 40
10.0000
  9
$LIMMIN
 10
0.0000
 20
0.0000
  9
$LIMMAX
 10
2000.0000
 20
200.0000
  9
$LUNITS
 70
2
  9
$DIMSCALE
 40
50.0000
  9
$DIMLFAC
 40
0.1000
  9
$DIMTXT
 40
2.5000
  9
$DIMASZ
 40
2.5000
  9
$DIMEXE
 40
1.2500
  9
$DIMEXO
 40
0.6250
  9
$DIMDLI
 40
7.0000
  9
$DIMTAD
 70
1
  9
$DIMTIH
 70
0
  9
$DIMTOH
 70
0
  9
$DIMZIN
 70
8
  0
ENDSEC
  0
SECTION
  2
TABLES
  0
TABLE
  2
VPORT
 70
1
  0
VPORT
  2
*ACTIVE
 70
0
 10
0.0000
 20
0.0000
 11
1.0000
 21
1.0000
 12
8175.0000
 22
-6200.0000
 13
0.0000
 23
0.0000
 14
10.0000
 24
10.0000
 15
10.0000
 25
10.0000
 16
0.0000
 26
0.0000
 36
1.0000
 17
0.0000
 27
0.0000
 37
0.0000
 40
15410.0000
 41
1.6000
 42
50.0000
 43
0.0000
 44
0.0000
 50
0.0000
 51
0.0000
 71
0
 72
100
 73
1
 74
1
 75
0
 76
0
 77
0
 78
0
  0
ENDTAB
  0
TABLE
  2
LTYPE
 70
3
  0
LTYPE
  2
CONTINUOUS
 70
0
  3
Solid line
 72
65
 73
0
 40
0.0000
  0
LTYPE
  2
HIDDEN
 70
0
  3
Hidden __ __ __ __ __ __
 72
65
 73
2
 40
9.5250
 49
6.3500
 49
-3.1750
  0
LTYPE
  2
CENTER
 70
0
  3
Center ____ _ ____ _ ____
 72
65
 73
4
 40
50.8000
 49
31.7500
 49
-6.3500
 49
6.3500
 49
-6.3500
  0
ENDTAB
  0
TABLE
  2
LAYER
 70
71
  0
LAYER
  2
0
 70
0
 62
7
  6
CONTINUOUS
  0
LAYER
  2
קירות
 70
0
 62
7
  6
CONTINUOUS
  0
LAYER
  2
קירות-מילוי
 70
0
 62
8
  6
CONTINUOUS
  0
LAYER
  2
קירות-מידות
 70
0
 62
7
  6
CONTINUOUS
  0
LAYER
  2
קירות-טקסט
 70
0
 62
7
  6
CONTINUOUS
  0
LAYER
  2
קירות-נסתר
 70
0
 62
7
  6
HIDDEN
  0
LAYER
  2
קירות-ציר
 70
0
 62
7
  6
CENTER
  0
LAYER
  2
מבנה
 70
0
 62
9
  6
CONTINUOUS
  0
LAYER
  2
מבנה-מילוי
 70
0
 62
9
  6
CONTINUOUS
  0
LAYER
  2
מבנה-מידות
 70
0
 62
9
  6
CONTINUOUS
  0
LAYER
  2
מבנה-טקסט
 70
0
 62
9
  6
CONTINUOUS
  0
LAYER
  2
מבנה-נסתר
 70
0
 62
9
  6
HIDDEN
  0
LAYER
  2
מבנה-ציר
 70
0
 62
9
  6
CENTER
  0
LAYER
  2
חשמל
 70
0
 62
6
  6
CONTINUOUS
  0
LAYER
  2
חשמל-מידות
 70
0
 62
6
  6
CONTINUOUS
  0
LAYER
  2
חשמל-טקסט
 70
0
 62
6
  6
CONTINUOUS
  0
LAYER
  2
חשמל-נסתר
 70
0
 62
6
  6
HIDDEN
  0
LAYER
  2
תאורה
 70
0
 62
30
  6
CONTINUOUS
  0
LAYER
  2
תאורה-מידות
 70
0
 62
30
  6
CONTINUOUS
  0
LAYER
  2
תאורה-טקסט
 70
0
 62
30
  6
CONTINUOUS
  0
LAYER
  2
תאורה-נסתר
 70
0
 62
30
  6
HIDDEN
  0
LAYER
  2
מים
 70
0
 62
4
  6
CONTINUOUS
  0
LAYER
  2
מים-מידות
 70
0
 62
4
  6
CONTINUOUS
  0
LAYER
  2
מים-טקסט
 70
0
 62
4
  6
CONTINUOUS
  0
LAYER
  2
מים-נסתר
 70
0
 62
4
  6
HIDDEN
  0
LAYER
  2
מים-ציר
 70
0
 62
4
  6
CENTER
  0
LAYER
  2
ניקוז
 70
0
 62
140
  6
CONTINUOUS
  0
LAYER
  2
ניקוז-מידות
 70
0
 62
140
  6
CONTINUOUS
  0
LAYER
  2
ניקוז-טקסט
 70
0
 62
140
  6
CONTINUOUS
  0
LAYER
  2
ניקוז-נסתר
 70
0
 62
140
  6
HIDDEN
  0
LAYER
  2
ניקוז-ציר
 70
0
 62
140
  6
CENTER
  0
LAYER
  2
גז
 70
0
 62
2
  6
CONTINUOUS
  0
LAYER
  2
גז-מידות
 70
0
 62
2
  6
CONTINUOUS
  0
LAYER
  2
גז-טקסט
 70
0
 62
2
  6
CONTINUOUS
  0
LAYER
  2
גז-נסתר
 70
0
 62
2
  6
HIDDEN
  0
LAYER
  2
גז-ציר
 70
0
 62
2
  6
CENTER
  0
LAYER
  2
מיזוג
 70
0
 62
141
  6
CONTINUOUS
  0
LAYER
  2
מיזוג-מידות
 70
0
 62
141
  6
CONTINUOUS
  0
LAYER
  2
מיזוג-טקסט
 70
0
 62
141
  6
CONTINUOUS
  0
LAYER
  2
מיזוג-נסתר
 70
0
 62
141
  6
HIDDEN
  0
LAYER
  2
אוורור
 70
0
 62
131
  6
CONTINUOUS
  0
LAYER
  2
אוורור-מידות
 70
0
 62
131
  6
CONTINUOUS
  0
LAYER
  2
אוורור-טקסט
 70
0
 62
131
  6
CONTINUOUS
  0
LAYER
  2
אוורור-נסתר
 70
0
 62
131
  6
HIDDEN
  0
LAYER
  2
דלתות
 70
0
 62
5
  6
CONTINUOUS
  0
LAYER
  2
דלתות-מידות
 70
0
 62
5
  6
CONTINUOUS
  0
LAYER
  2
דלתות-טקסט
 70
0
 62
5
  6
CONTINUOUS
  0
LAYER
  2
דלתות-נסתר
 70
0
 62
5
  6
HIDDEN
  0
LAYER
  2
דלתות-מילוי
 70
0
 62
5
  6
CONTINUOUS
  0
LAYER
  2
חלונות
 70
0
 62
151
  6
CONTINUOUS
  0
LAYER
  2
חלונות-מידות
 70
0
 62
151
  6
CONTINUOUS
  0
LAYER
  2
חלונות-טקסט
 70
0
 62
151
  6
CONTINUOUS
  0
LAYER
  2
חלונות-נסתר
 70
0
 62
151
  6
HIDDEN
  0
LAYER
  2
ריהוט
 70
0
 62
42
  6
CONTINUOUS
  0
LAYER
  2
ריהוט-מידות
 70
0
 62
42
  6
CONTINUOUS
  0
LAYER
  2
ריהוט-טקסט
 70
0
 62
42
  6
CONTINUOUS
  0
LAYER
  2
ריהוט-נסתר
 70
0
 62
42
  6
HIDDEN
  0
LAYER
  2
מטבח
 70
0
 62
52
  6
CONTINUOUS
  0
LAYER
  2
מטבח-מידות
 70
0
 62
52
  6
CONTINUOUS
  0
LAYER
  2
מטבח-טקסט
 70
0
 62
52
  6
CONTINUOUS
  0
LAYER
  2
מטבח-נסתר
 70
0
 62
52
  6
HIDDEN
  0
LAYER
  2
ריצוף
 70
0
 62
251
  6
CONTINUOUS
  0
LAYER
  2
ריצוף-מילוי
 70
0
 62
8
  6
CONTINUOUS
  0
LAYER
  2
מידות-פנים
 70
0
 62
3
  6
CONTINUOUS
  0
LAYER
  2
מידות-חוץ
 70
0
 62
1
  6
CONTINUOUS
  0
LAYER
  2
מסגרת
 70
0
 62
250
  6
CONTINUOUS
  0
LAYER
  2
גבול-גיליון
 70
0
 62
255
  6
CONTINUOUS
  0
LAYER
  2
מקרא
 70
0
 62
150
  6
CONTINUOUS
  0
LAYER
  2
רשת-צירים
 70
0
 62
8
  6
CENTER
  0
LAYER
  2
הערות
 70
0
 62
150
  6
CONTINUOUS
  0
LAYER
  2
מהדורות
 70
0
 62
1
  6
CONTINUOUS
  0
ENDTAB
  0
TABLE
  2
STYLE
 70
2
  0
STYLE
  2
SOLINE
 70
0
 40
0.0000
 41
1.0000
 50
0.0000
 71
0
 42
2.5000
  3
arial.ttf
  4

  0
STYLE
  2
Standard
 70
0
 40
0.0000
 41
1.0000
 50
0.0000
 71
0
 42
2.5000
  3
txt
  4

  0
ENDTAB
  0
ENDSEC
  0
SECTION
  2
BLOCKS
  0
BLOCK
  8
0
  2
SOCKET
 70
0
 10
0.0000
 20
0.0000
 30
0.0000
  3
SOCKET
  1

  0
3DFACE
  5
11EF
  8
0
 10
-35.0000
 20
-40.0000
 30
0.0000
 11
35.0000
 21
-40.0000
 31
0.0000
 12
35.0000
 22
0.0000
 32
0.0000
 13
-35.0000
 23
0.0000
 33
0.0000
  0
3DFACE
  5
11F0
  8
0
 10
-35.0000
 20
-40.0000
 30
70.0000
 11
35.0000
 21
-40.0000
 31
70.0000
 12
35.0000
 22
0.0000
 32
70.0000
 13
-35.0000
 23
0.0000
 33
70.0000
  0
3DFACE
  5
11F1
  8
0
 10
-35.0000
 20
-40.0000
 30
0.0000
 11
35.0000
 21
-40.0000
 31
0.0000
 12
35.0000
 22
-40.0000
 32
70.0000
 13
-35.0000
 23
-40.0000
 33
70.0000
  0
3DFACE
  5
11F2
  8
0
 10
-35.0000
 20
0.0000
 30
0.0000
 11
35.0000
 21
0.0000
 31
0.0000
 12
35.0000
 22
0.0000
 32
70.0000
 13
-35.0000
 23
0.0000
 33
70.0000
  0
3DFACE
  5
11F3
  8
0
 10
-35.0000
 20
-40.0000
 30
0.0000
 11
-35.0000
 21
0.0000
 31
0.0000
 12
-35.0000
 22
0.0000
 32
70.0000
 13
-35.0000
 23
-40.0000
 33
70.0000
  0
3DFACE
  5
11F4
  8
0
 10
35.0000
 20
-40.0000
 30
0.0000
 11
35.0000
 21
0.0000
 31
0.0000
 12
35.0000
 22
0.0000
 32
70.0000
 13
35.0000
 23
-40.0000
 33
70.0000
  0
3DFACE
  5
11F5
  8
0
 10
-45.0000
 20
0.0000
 30
-8.0000
 11
45.0000
 21
0.0000
 31
-8.0000
 12
45.0000
 22
8.0000
 32
-8.0000
 13
-45.0000
 23
8.0000
 33
-8.0000
  0
3DFACE
  5
11F6
  8
0
 10
-45.0000
 20
0.0000
 30
78.0000
 11
45.0000
 21
0.0000
 31
78.0000
 12
45.0000
 22
8.0000
 32
78.0000
 13
-45.0000
 23
8.0000
 33
78.0000
  0
3DFACE
  5
11F7
  8
0
 10
-45.0000
 20
0.0000
 30
-8.0000
 11
45.0000
 21
0.0000
 31
-8.0000
 12
45.0000
 22
0.0000
 32
78.0000
 13
-45.0000
 23
0.0000
 33
78.0000
  0
3DFACE
  5
11F8
  8
0
 10
-45.0000
 20
8.0000
 30
-8.0000
 11
45.0000
 21
8.0000
 31
-8.0000
 12
45.0000
 22
8.0000
 32
78.0000
 13
-45.0000
 23
8.0000
 33
78.0000
  0
3DFACE
  5
11F9
  8
0
 10
-45.0000
 20
0.0000
 30
-8.0000
 11
-45.0000
 21
8.0000
 31
-8.0000
 12
-45.0000
 22
8.0000
 32
78.0000
 13
-45.0000
 23
0.0000
 33
78.0000
  0
3DFACE
  5
11FA
  8
0
 10
45.0000
 20
0.0000
 30
-8.0000
 11
45.0000
 21
8.0000
 31
-8.0000
 12
45.0000
 22
8.0000
 32
78.0000
 13
45.0000
 23
0.0000
 33
78.0000
  0
3DFACE
  5
11FB
  8
0
 10
-16.0000
 20
8.0000
 30
20.0000
 11
16.0000
 21
8.0000
 31
20.0000
 12
16.0000
 22
14.0000
 32
20.0000
 13
-16.0000
 23
14.0000
 33
20.0000
  0
3DFACE
  5
11FC
  8
0
 10
-16.0000
 20
8.0000
 30
50.0000
 11
16.0000
 21
8.0000
 31
50.0000
 12
16.0000
 22
14.0000
 32
50.0000
 13
-16.0000
 23
14.0000
 33
50.0000
  0
3DFACE
  5
11FD
  8
0
 10
-16.0000
 20
8.0000
 30
20.0000
 11
16.0000
 21
8.0000
 31
20.0000
 12
16.0000
 22
8.0000
 32
50.0000
 13
-16.0000
 23
8.0000
 33
50.0000
  0
3DFACE
  5
11FE
  8
0
 10
-16.0000
 20
14.0000
 30
20.0000
 11
16.0000
 21
14.0000
 31
20.0000
 12
16.0000
 22
14.0000
 32
50.0000
 13
-16.0000
 23
14.0000
 33
50.0000
  0
3DFACE
  5
11FF
  8
0
 10
-16.0000
 20
8.0000
 30
20.0000
 11
-16.0000
 21
14.0000
 31
20.0000
 12
-16.0000
 22
14.0000
 32
50.0000
 13
-16.0000
 23
8.0000
 33
50.0000
  0
3DFACE
  5
1200
  8
0
 10
16.0000
 20
8.0000
 30
20.0000
 11
16.0000
 21
14.0000
 31
20.0000
 12
16.0000
 22
14.0000
 32
50.0000
 13
16.0000
 23
8.0000
 33
50.0000
  0
3DFACE
  5
1201
  8
0
 10
-12.0000
 20
14.0000
 30
30.0000
 11
-4.0000
 21
14.0000
 31
30.0000
 12
-4.0000
 22
18.0000
 32
30.0000
 13
-12.0000
 23
18.0000
 33
30.0000
  0
3DFACE
  5
1202
  8
0
 10
-12.0000
 20
14.0000
 30
44.0000
 11
-4.0000
 21
14.0000
 31
44.0000
 12
-4.0000
 22
18.0000
 32
44.0000
 13
-12.0000
 23
18.0000
 33
44.0000
  0
3DFACE
  5
1203
  8
0
 10
-12.0000
 20
14.0000
 30
30.0000
 11
-4.0000
 21
14.0000
 31
30.0000
 12
-4.0000
 22
14.0000
 32
44.0000
 13
-12.0000
 23
14.0000
 33
44.0000
  0
3DFACE
  5
1204
  8
0
 10
-12.0000
 20
18.0000
 30
30.0000
 11
-4.0000
 21
18.0000
 31
30.0000
 12
-4.0000
 22
18.0000
 32
44.0000
 13
-12.0000
 23
18.0000
 33
44.0000
  0
3DFACE
  5
1205
  8
0
 10
-12.0000
 20
14.0000
 30
30.0000
 11
-12.0000
 21
18.0000
 31
30.0000
 12
-12.0000
 22
18.0000
 32
44.0000
 13
-12.0000
 23
14.0000
 33
44.0000
  0
3DFACE
  5
1206
  8
0
 10
-4.0000
 20
14.0000
 30
30.0000
 11
-4.0000
 21
18.0000
 31
30.0000
 12
-4.0000
 22
18.0000
 32
44.0000
 13
-4.0000
 23
14.0000
 33
44.0000
  0
3DFACE
  5
1207
  8
0
 10
4.0000
 20
14.0000
 30
30.0000
 11
12.0000
 21
14.0000
 31
30.0000
 12
12.0000
 22
18.0000
 32
30.0000
 13
4.0000
 23
18.0000
 33
30.0000
  0
3DFACE
  5
1208
  8
0
 10
4.0000
 20
14.0000
 30
44.0000
 11
12.0000
 21
14.0000
 31
44.0000
 12
12.0000
 22
18.0000
 32
44.0000
 13
4.0000
 23
18.0000
 33
44.0000
  0
3DFACE
  5
1209
  8
0
 10
4.0000
 20
14.0000
 30
30.0000
 11
12.0000
 21
14.0000
 31
30.0000
 12
12.0000
 22
14.0000
 32
44.0000
 13
4.0000
 23
14.0000
 33
44.0000
  0
3DFACE
  5
120A
  8
0
 10
4.0000
 20
18.0000
 30
30.0000
 11
12.0000
 21
18.0000
 31
30.0000
 12
12.0000
 22
18.0000
 32
44.0000
 13
4.0000
 23
18.0000
 33
44.0000
  0
3DFACE
  5
120B
  8
0
 10
4.0000
 20
14.0000
 30
30.0000
 11
4.0000
 21
18.0000
 31
30.0000
 12
4.0000
 22
18.0000
 32
44.0000
 13
4.0000
 23
14.0000
 33
44.0000
  0
3DFACE
  5
120C
  8
0
 10
12.0000
 20
14.0000
 30
30.0000
 11
12.0000
 21
18.0000
 31
30.0000
 12
12.0000
 22
18.0000
 32
44.0000
 13
12.0000
 23
14.0000
 33
44.0000
  0
ENDBLK
  8
0
  0
BLOCK
  8
0
  2
DUPLEXSWITCH
 70
0
 10
0.0000
 20
0.0000
 30
0.0000
  3
DUPLEXSWITCH
  1

  0
3DFACE
  5
120D
  8
0
 10
-72.0000
 20
-40.0000
 30
0.0000
 11
-2.0000
 21
-40.0000
 31
0.0000
 12
-2.0000
 22
0.0000
 32
0.0000
 13
-72.0000
 23
0.0000
 33
0.0000
  0
3DFACE
  5
120E
  8
0
 10
-72.0000
 20
-40.0000
 30
70.0000
 11
-2.0000
 21
-40.0000
 31
70.0000
 12
-2.0000
 22
0.0000
 32
70.0000
 13
-72.0000
 23
0.0000
 33
70.0000
  0
3DFACE
  5
120F
  8
0
 10
-72.0000
 20
-40.0000
 30
0.0000
 11
-2.0000
 21
-40.0000
 31
0.0000
 12
-2.0000
 22
-40.0000
 32
70.0000
 13
-72.0000
 23
-40.0000
 33
70.0000
  0
3DFACE
  5
1210
  8
0
 10
-72.0000
 20
0.0000
 30
0.0000
 11
-2.0000
 21
0.0000
 31
0.0000
 12
-2.0000
 22
0.0000
 32
70.0000
 13
-72.0000
 23
0.0000
 33
70.0000
  0
3DFACE
  5
1211
  8
0
 10
-72.0000
 20
-40.0000
 30
0.0000
 11
-72.0000
 21
0.0000
 31
0.0000
 12
-72.0000
 22
0.0000
 32
70.0000
 13
-72.0000
 23
-40.0000
 33
70.0000
  0
3DFACE
  5
1212
  8
0
 10
-2.0000
 20
-40.0000
 30
0.0000
 11
-2.0000
 21
0.0000
 31
0.0000
 12
-2.0000
 22
0.0000
 32
70.0000
 13
-2.0000
 23
-40.0000
 33
70.0000
  0
3DFACE
  5
1213
  8
0
 10
-82.0000
 20
0.0000
 30
-8.0000
 11
8.0000
 21
0.0000
 31
-8.0000
 12
8.0000
 22
8.0000
 32
-8.0000
 13
-82.0000
 23
8.0000
 33
-8.0000
  0
3DFACE
  5
1214
  8
0
 10
-82.0000
 20
0.0000
 30
78.0000
 11
8.0000
 21
0.0000
 31
78.0000
 12
8.0000
 22
8.0000
 32
78.0000
 13
-82.0000
 23
8.0000
 33
78.0000
  0
3DFACE
  5
1215
  8
0
 10
-82.0000
 20
0.0000
 30
-8.0000
 11
8.0000
 21
0.0000
 31
-8.0000
 12
8.0000
 22
0.0000
 32
78.0000
 13
-82.0000
 23
0.0000
 33
78.0000
  0
3DFACE
  5
1216
  8
0
 10
-82.0000
 20
8.0000
 30
-8.0000
 11
8.0000
 21
8.0000
 31
-8.0000
 12
8.0000
 22
8.0000
 32
78.0000
 13
-82.0000
 23
8.0000
 33
78.0000
  0
3DFACE
  5
1217
  8
0
 10
-82.0000
 20
0.0000
 30
-8.0000
 11
-82.0000
 21
8.0000
 31
-8.0000
 12
-82.0000
 22
8.0000
 32
78.0000
 13
-82.0000
 23
0.0000
 33
78.0000
  0
3DFACE
  5
1218
  8
0
 10
8.0000
 20
0.0000
 30
-8.0000
 11
8.0000
 21
8.0000
 31
-8.0000
 12
8.0000
 22
8.0000
 32
78.0000
 13
8.0000
 23
0.0000
 33
78.0000
  0
3DFACE
  5
1219
  8
0
 10
-53.0000
 20
8.0000
 30
20.0000
 11
-21.0000
 21
8.0000
 31
20.0000
 12
-21.0000
 22
14.0000
 32
20.0000
 13
-53.0000
 23
14.0000
 33
20.0000
  0
3DFACE
  5
121A
  8
0
 10
-53.0000
 20
8.0000
 30
50.0000
 11
-21.0000
 21
8.0000
 31
50.0000
 12
-21.0000
 22
14.0000
 32
50.0000
 13
-53.0000
 23
14.0000
 33
50.0000
  0
3DFACE
  5
121B
  8
0
 10
-53.0000
 20
8.0000
 30
20.0000
 11
-21.0000
 21
8.0000
 31
20.0000
 12
-21.0000
 22
8.0000
 32
50.0000
 13
-53.0000
 23
8.0000
 33
50.0000
  0
3DFACE
  5
121C
  8
0
 10
-53.0000
 20
14.0000
 30
20.0000
 11
-21.0000
 21
14.0000
 31
20.0000
 12
-21.0000
 22
14.0000
 32
50.0000
 13
-53.0000
 23
14.0000
 33
50.0000
  0
3DFACE
  5
121D
  8
0
 10
-53.0000
 20
8.0000
 30
20.0000
 11
-53.0000
 21
14.0000
 31
20.0000
 12
-53.0000
 22
14.0000
 32
50.0000
 13
-53.0000
 23
8.0000
 33
50.0000
  0
3DFACE
  5
121E
  8
0
 10
-21.0000
 20
8.0000
 30
20.0000
 11
-21.0000
 21
14.0000
 31
20.0000
 12
-21.0000
 22
14.0000
 32
50.0000
 13
-21.0000
 23
8.0000
 33
50.0000
  0
3DFACE
  5
121F
  8
0
 10
-49.0000
 20
14.0000
 30
30.0000
 11
-41.0000
 21
14.0000
 31
30.0000
 12
-41.0000
 22
18.0000
 32
30.0000
 13
-49.0000
 23
18.0000
 33
30.0000
  0
3DFACE
  5
1220
  8
0
 10
-49.0000
 20
14.0000
 30
44.0000
 11
-41.0000
 21
14.0000
 31
44.0000
 12
-41.0000
 22
18.0000
 32
44.0000
 13
-49.0000
 23
18.0000
 33
44.0000
  0
3DFACE
  5
1221
  8
0
 10
-49.0000
 20
14.0000
 30
30.0000
 11
-41.0000
 21
14.0000
 31
30.0000
 12
-41.0000
 22
14.0000
 32
44.0000
 13
-49.0000
 23
14.0000
 33
44.0000
  0
3DFACE
  5
1222
  8
0
 10
-49.0000
 20
18.0000
 30
30.0000
 11
-41.0000
 21
18.0000
 31
30.0000
 12
-41.0000
 22
18.0000
 32
44.0000
 13
-49.0000
 23
18.0000
 33
44.0000
  0
3DFACE
  5
1223
  8
0
 10
-49.0000
 20
14.0000
 30
30.0000
 11
-49.0000
 21
18.0000
 31
30.0000
 12
-49.0000
 22
18.0000
 32
44.0000
 13
-49.0000
 23
14.0000
 33
44.0000
  0
3DFACE
  5
1224
  8
0
 10
-41.0000
 20
14.0000
 30
30.0000
 11
-41.0000
 21
18.0000
 31
30.0000
 12
-41.0000
 22
18.0000
 32
44.0000
 13
-41.0000
 23
14.0000
 33
44.0000
  0
3DFACE
  5
1225
  8
0
 10
-33.0000
 20
14.0000
 30
30.0000
 11
-25.0000
 21
14.0000
 31
30.0000
 12
-25.0000
 22
18.0000
 32
30.0000
 13
-33.0000
 23
18.0000
 33
30.0000
  0
3DFACE
  5
1226
  8
0
 10
-33.0000
 20
14.0000
 30
44.0000
 11
-25.0000
 21
14.0000
 31
44.0000
 12
-25.0000
 22
18.0000
 32
44.0000
 13
-33.0000
 23
18.0000
 33
44.0000
  0
3DFACE
  5
1227
  8
0
 10
-33.0000
 20
14.0000
 30
30.0000
 11
-25.0000
 21
14.0000
 31
30.0000
 12
-25.0000
 22
14.0000
 32
44.0000
 13
-33.0000
 23
14.0000
 33
44.0000
  0
3DFACE
  5
1228
  8
0
 10
-33.0000
 20
18.0000
 30
30.0000
 11
-25.0000
 21
18.0000
 31
30.0000
 12
-25.0000
 22
18.0000
 32
44.0000
 13
-33.0000
 23
18.0000
 33
44.0000
  0
3DFACE
  5
1229
  8
0
 10
-33.0000
 20
14.0000
 30
30.0000
 11
-33.0000
 21
18.0000
 31
30.0000
 12
-33.0000
 22
18.0000
 32
44.0000
 13
-33.0000
 23
14.0000
 33
44.0000
  0
3DFACE
  5
122A
  8
0
 10
-25.0000
 20
14.0000
 30
30.0000
 11
-25.0000
 21
18.0000
 31
30.0000
 12
-25.0000
 22
18.0000
 32
44.0000
 13
-25.0000
 23
14.0000
 33
44.0000
  0
3DFACE
  5
122B
  8
0
 10
2.0000
 20
-40.0000
 30
0.0000
 11
72.0000
 21
-40.0000
 31
0.0000
 12
72.0000
 22
0.0000
 32
0.0000
 13
2.0000
 23
0.0000
 33
0.0000
  0
3DFACE
  5
122C
  8
0
 10
2.0000
 20
-40.0000
 30
70.0000
 11
72.0000
 21
-40.0000
 31
70.0000
 12
72.0000
 22
0.0000
 32
70.0000
 13
2.0000
 23
0.0000
 33
70.0000
  0
3DFACE
  5
122D
  8
0
 10
2.0000
 20
-40.0000
 30
0.0000
 11
72.0000
 21
-40.0000
 31
0.0000
 12
72.0000
 22
-40.0000
 32
70.0000
 13
2.0000
 23
-40.0000
 33
70.0000
  0
3DFACE
  5
122E
  8
0
 10
2.0000
 20
0.0000
 30
0.0000
 11
72.0000
 21
0.0000
 31
0.0000
 12
72.0000
 22
0.0000
 32
70.0000
 13
2.0000
 23
0.0000
 33
70.0000
  0
3DFACE
  5
122F
  8
0
 10
2.0000
 20
-40.0000
 30
0.0000
 11
2.0000
 21
0.0000
 31
0.0000
 12
2.0000
 22
0.0000
 32
70.0000
 13
2.0000
 23
-40.0000
 33
70.0000
  0
3DFACE
  5
1230
  8
0
 10
72.0000
 20
-40.0000
 30
0.0000
 11
72.0000
 21
0.0000
 31
0.0000
 12
72.0000
 22
0.0000
 32
70.0000
 13
72.0000
 23
-40.0000
 33
70.0000
  0
3DFACE
  5
1231
  8
0
 10
-8.0000
 20
0.0000
 30
-8.0000
 11
82.0000
 21
0.0000
 31
-8.0000
 12
82.0000
 22
8.0000
 32
-8.0000
 13
-8.0000
 23
8.0000
 33
-8.0000
  0
3DFACE
  5
1232
  8
0
 10
-8.0000
 20
0.0000
 30
78.0000
 11
82.0000
 21
0.0000
 31
78.0000
 12
82.0000
 22
8.0000
 32
78.0000
 13
-8.0000
 23
8.0000
 33
78.0000
  0
3DFACE
  5
1233
  8
0
 10
-8.0000
 20
0.0000
 30
-8.0000
 11
82.0000
 21
0.0000
 31
-8.0000
 12
82.0000
 22
0.0000
 32
78.0000
 13
-8.0000
 23
0.0000
 33
78.0000
  0
3DFACE
  5
1234
  8
0
 10
-8.0000
 20
8.0000
 30
-8.0000
 11
82.0000
 21
8.0000
 31
-8.0000
 12
82.0000
 22
8.0000
 32
78.0000
 13
-8.0000
 23
8.0000
 33
78.0000
  0
3DFACE
  5
1235
  8
0
 10
-8.0000
 20
0.0000
 30
-8.0000
 11
-8.0000
 21
8.0000
 31
-8.0000
 12
-8.0000
 22
8.0000
 32
78.0000
 13
-8.0000
 23
0.0000
 33
78.0000
  0
3DFACE
  5
1236
  8
0
 10
82.0000
 20
0.0000
 30
-8.0000
 11
82.0000
 21
8.0000
 31
-8.0000
 12
82.0000
 22
8.0000
 32
78.0000
 13
82.0000
 23
0.0000
 33
78.0000
  0
3DFACE
  5
1237
  8
0
 10
21.0000
 20
8.0000
 30
20.0000
 11
53.0000
 21
8.0000
 31
20.0000
 12
53.0000
 22
14.0000
 32
20.0000
 13
21.0000
 23
14.0000
 33
20.0000
  0
3DFACE
  5
1238
  8
0
 10
21.0000
 20
8.0000
 30
50.0000
 11
53.0000
 21
8.0000
 31
50.0000
 12
53.0000
 22
14.0000
 32
50.0000
 13
21.0000
 23
14.0000
 33
50.0000
  0
3DFACE
  5
1239
  8
0
 10
21.0000
 20
8.0000
 30
20.0000
 11
53.0000
 21
8.0000
 31
20.0000
 12
53.0000
 22
8.0000
 32
50.0000
 13
21.0000
 23
8.0000
 33
50.0000
  0
3DFACE
  5
123A
  8
0
 10
21.0000
 20
14.0000
 30
20.0000
 11
53.0000
 21
14.0000
 31
20.0000
 12
53.0000
 22
14.0000
 32
50.0000
 13
21.0000
 23
14.0000
 33
50.0000
  0
3DFACE
  5
123B
  8
0
 10
21.0000
 20
8.0000
 30
20.0000
 11
21.0000
 21
14.0000
 31
20.0000
 12
21.0000
 22
14.0000
 32
50.0000
 13
21.0000
 23
8.0000
 33
50.0000
  0
3DFACE
  5
123C
  8
0
 10
53.0000
 20
8.0000
 30
20.0000
 11
53.0000
 21
14.0000
 31
20.0000
 12
53.0000
 22
14.0000
 32
50.0000
 13
53.0000
 23
8.0000
 33
50.0000
  0
3DFACE
  5
123D
  8
0
 10
25.0000
 20
14.0000
 30
30.0000
 11
33.0000
 21
14.0000
 31
30.0000
 12
33.0000
 22
18.0000
 32
30.0000
 13
25.0000
 23
18.0000
 33
30.0000
  0
3DFACE
  5
123E
  8
0
 10
25.0000
 20
14.0000
 30
44.0000
 11
33.0000
 21
14.0000
 31
44.0000
 12
33.0000
 22
18.0000
 32
44.0000
 13
25.0000
 23
18.0000
 33
44.0000
  0
3DFACE
  5
123F
  8
0
 10
25.0000
 20
14.0000
 30
30.0000
 11
33.0000
 21
14.0000
 31
30.0000
 12
33.0000
 22
14.0000
 32
44.0000
 13
25.0000
 23
14.0000
 33
44.0000
  0
3DFACE
  5
1240
  8
0
 10
25.0000
 20
18.0000
 30
30.0000
 11
33.0000
 21
18.0000
 31
30.0000
 12
33.0000
 22
18.0000
 32
44.0000
 13
25.0000
 23
18.0000
 33
44.0000
  0
3DFACE
  5
1241
  8
0
 10
25.0000
 20
14.0000
 30
30.0000
 11
25.0000
 21
18.0000
 31
30.0000
 12
25.0000
 22
18.0000
 32
44.0000
 13
25.0000
 23
14.0000
 33
44.0000
  0
3DFACE
  5
1242
  8
0
 10
33.0000
 20
14.0000
 30
30.0000
 11
33.0000
 21
18.0000
 31
30.0000
 12
33.0000
 22
18.0000
 32
44.0000
 13
33.0000
 23
14.0000
 33
44.0000
  0
3DFACE
  5
1243
  8
0
 10
41.0000
 20
14.0000
 30
30.0000
 11
49.0000
 21
14.0000
 31
30.0000
 12
49.0000
 22
18.0000
 32
30.0000
 13
41.0000
 23
18.0000
 33
30.0000
  0
3DFACE
  5
1244
  8
0
 10
41.0000
 20
14.0000
 30
44.0000
 11
49.0000
 21
14.0000
 31
44.0000
 12
49.0000
 22
18.0000
 32
44.0000
 13
41.0000
 23
18.0000
 33
44.0000
  0
3DFACE
  5
1245
  8
0
 10
41.0000
 20
14.0000
 30
30.0000
 11
49.0000
 21
14.0000
 31
30.0000
 12
49.0000
 22
14.0000
 32
44.0000
 13
41.0000
 23
14.0000
 33
44.0000
  0
3DFACE
  5
1246
  8
0
 10
41.0000
 20
18.0000
 30
30.0000
 11
49.0000
 21
18.0000
 31
30.0000
 12
49.0000
 22
18.0000
 32
44.0000
 13
41.0000
 23
18.0000
 33
44.0000
  0
3DFACE
  5
1247
  8
0
 10
41.0000
 20
14.0000
 30
30.0000
 11
41.0000
 21
18.0000
 31
30.0000
 12
41.0000
 22
18.0000
 32
44.0000
 13
41.0000
 23
14.0000
 33
44.0000
  0
3DFACE
  5
1248
  8
0
 10
49.0000
 20
14.0000
 30
30.0000
 11
49.0000
 21
18.0000
 31
30.0000
 12
49.0000
 22
18.0000
 32
44.0000
 13
49.0000
 23
14.0000
 33
44.0000
  0
ENDBLK
  8
0
  0
BLOCK
  8
0
  2
SWITCH
 70
0
 10
0.0000
 20
0.0000
 30
0.0000
  3
SWITCH
  1

  0
3DFACE
  5
1249
  8
0
 10
-35.0000
 20
-40.0000
 30
0.0000
 11
35.0000
 21
-40.0000
 31
0.0000
 12
35.0000
 22
0.0000
 32
0.0000
 13
-35.0000
 23
0.0000
 33
0.0000
  0
3DFACE
  5
124A
  8
0
 10
-35.0000
 20
-40.0000
 30
70.0000
 11
35.0000
 21
-40.0000
 31
70.0000
 12
35.0000
 22
0.0000
 32
70.0000
 13
-35.0000
 23
0.0000
 33
70.0000
  0
3DFACE
  5
124B
  8
0
 10
-35.0000
 20
-40.0000
 30
0.0000
 11
35.0000
 21
-40.0000
 31
0.0000
 12
35.0000
 22
-40.0000
 32
70.0000
 13
-35.0000
 23
-40.0000
 33
70.0000
  0
3DFACE
  5
124C
  8
0
 10
-35.0000
 20
0.0000
 30
0.0000
 11
35.0000
 21
0.0000
 31
0.0000
 12
35.0000
 22
0.0000
 32
70.0000
 13
-35.0000
 23
0.0000
 33
70.0000
  0
3DFACE
  5
124D
  8
0
 10
-35.0000
 20
-40.0000
 30
0.0000
 11
-35.0000
 21
0.0000
 31
0.0000
 12
-35.0000
 22
0.0000
 32
70.0000
 13
-35.0000
 23
-40.0000
 33
70.0000
  0
3DFACE
  5
124E
  8
0
 10
35.0000
 20
-40.0000
 30
0.0000
 11
35.0000
 21
0.0000
 31
0.0000
 12
35.0000
 22
0.0000
 32
70.0000
 13
35.0000
 23
-40.0000
 33
70.0000
  0
3DFACE
  5
124F
  8
0
 10
-42.0000
 20
0.0000
 30
-6.0000
 11
42.0000
 21
0.0000
 31
-6.0000
 12
42.0000
 22
8.0000
 32
-6.0000
 13
-42.0000
 23
8.0000
 33
-6.0000
  0
3DFACE
  5
1250
  8
0
 10
-42.0000
 20
0.0000
 30
76.0000
 11
42.0000
 21
0.0000
 31
76.0000
 12
42.0000
 22
8.0000
 32
76.0000
 13
-42.0000
 23
8.0000
 33
76.0000
  0
3DFACE
  5
1251
  8
0
 10
-42.0000
 20
0.0000
 30
-6.0000
 11
42.0000
 21
0.0000
 31
-6.0000
 12
42.0000
 22
0.0000
 32
76.0000
 13
-42.0000
 23
0.0000
 33
76.0000
  0
3DFACE
  5
1252
  8
0
 10
-42.0000
 20
8.0000
 30
-6.0000
 11
42.0000
 21
8.0000
 31
-6.0000
 12
42.0000
 22
8.0000
 32
76.0000
 13
-42.0000
 23
8.0000
 33
76.0000
  0
3DFACE
  5
1253
  8
0
 10
-42.0000
 20
0.0000
 30
-6.0000
 11
-42.0000
 21
8.0000
 31
-6.0000
 12
-42.0000
 22
8.0000
 32
76.0000
 13
-42.0000
 23
0.0000
 33
76.0000
  0
3DFACE
  5
1254
  8
0
 10
42.0000
 20
0.0000
 30
-6.0000
 11
42.0000
 21
8.0000
 31
-6.0000
 12
42.0000
 22
8.0000
 32
76.0000
 13
42.0000
 23
0.0000
 33
76.0000
  0
3DFACE
  5
1255
  8
0
 10
-24.0000
 20
8.0000
 30
12.0000
 11
24.0000
 21
8.0000
 31
12.0000
 12
24.0000
 22
16.0000
 32
12.0000
 13
-24.0000
 23
16.0000
 33
12.0000
  0
3DFACE
  5
1256
  8
0
 10
-24.0000
 20
8.0000
 30
58.0000
 11
24.0000
 21
8.0000
 31
58.0000
 12
24.0000
 22
16.0000
 32
58.0000
 13
-24.0000
 23
16.0000
 33
58.0000
  0
3DFACE
  5
1257
  8
0
 10
-24.0000
 20
8.0000
 30
12.0000
 11
24.0000
 21
8.0000
 31
12.0000
 12
24.0000
 22
8.0000
 32
58.0000
 13
-24.0000
 23
8.0000
 33
58.0000
  0
3DFACE
  5
1258
  8
0
 10
-24.0000
 20
16.0000
 30
12.0000
 11
24.0000
 21
16.0000
 31
12.0000
 12
24.0000
 22
16.0000
 32
58.0000
 13
-24.0000
 23
16.0000
 33
58.0000
  0
3DFACE
  5
1259
  8
0
 10
-24.0000
 20
8.0000
 30
12.0000
 11
-24.0000
 21
16.0000
 31
12.0000
 12
-24.0000
 22
16.0000
 32
58.0000
 13
-24.0000
 23
8.0000
 33
58.0000
  0
3DFACE
  5
125A
  8
0
 10
24.0000
 20
8.0000
 30
12.0000
 11
24.0000
 21
16.0000
 31
12.0000
 12
24.0000
 22
16.0000
 32
58.0000
 13
24.0000
 23
8.0000
 33
58.0000
  0
3DFACE
  5
125B
  8
0
 10
-3.0000
 20
8.0000
 30
66.0000
 11
3.0000
 21
8.0000
 31
66.0000
 12
3.0000
 22
12.0000
 32
66.0000
 13
-3.0000
 23
12.0000
 33
66.0000
  0
3DFACE
  5
125C
  8
0
 10
-3.0000
 20
8.0000
 30
72.0000
 11
3.0000
 21
8.0000
 31
72.0000
 12
3.0000
 22
12.0000
 32
72.0000
 13
-3.0000
 23
12.0000
 33
72.0000
  0
3DFACE
  5
125D
  8
0
 10
-3.0000
 20
8.0000
 30
66.0000
 11
3.0000
 21
8.0000
 31
66.0000
 12
3.0000
 22
8.0000
 32
72.0000
 13
-3.0000
 23
8.0000
 33
72.0000
  0
3DFACE
  5
125E
  8
0
 10
-3.0000
 20
12.0000
 30
66.0000
 11
3.0000
 21
12.0000
 31
66.0000
 12
3.0000
 22
12.0000
 32
72.0000
 13
-3.0000
 23
12.0000
 33
72.0000
  0
3DFACE
  5
125F
  8
0
 10
-3.0000
 20
8.0000
 30
66.0000
 11
-3.0000
 21
12.0000
 31
66.0000
 12
-3.0000
 22
12.0000
 32
72.0000
 13
-3.0000
 23
8.0000
 33
72.0000
  0
3DFACE
  5
1260
  8
0
 10
3.0000
 20
8.0000
 30
66.0000
 11
3.0000
 21
12.0000
 31
66.0000
 12
3.0000
 22
12.0000
 32
72.0000
 13
3.0000
 23
8.0000
 33
72.0000
  0
3DFACE
  5
1261
  8
0
 10
-3.0000
 20
8.0000
 30
-2.0000
 11
3.0000
 21
8.0000
 31
-2.0000
 12
3.0000
 22
12.0000
 32
-2.0000
 13
-3.0000
 23
12.0000
 33
-2.0000
  0
3DFACE
  5
1262
  8
0
 10
-3.0000
 20
8.0000
 30
4.0000
 11
3.0000
 21
8.0000
 31
4.0000
 12
3.0000
 22
12.0000
 32
4.0000
 13
-3.0000
 23
12.0000
 33
4.0000
  0
3DFACE
  5
1263
  8
0
 10
-3.0000
 20
8.0000
 30
-2.0000
 11
3.0000
 21
8.0000
 31
-2.0000
 12
3.0000
 22
8.0000
 32
4.0000
 13
-3.0000
 23
8.0000
 33
4.0000
  0
3DFACE
  5
1264
  8
0
 10
-3.0000
 20
12.0000
 30
-2.0000
 11
3.0000
 21
12.0000
 31
-2.0000
 12
3.0000
 22
12.0000
 32
4.0000
 13
-3.0000
 23
12.0000
 33
4.0000
  0
3DFACE
  5
1265
  8
0
 10
-3.0000
 20
8.0000
 30
-2.0000
 11
-3.0000
 21
12.0000
 31
-2.0000
 12
-3.0000
 22
12.0000
 32
4.0000
 13
-3.0000
 23
8.0000
 33
4.0000
  0
3DFACE
  5
1266
  8
0
 10
3.0000
 20
8.0000
 30
-2.0000
 11
3.0000
 21
12.0000
 31
-2.0000
 12
3.0000
 22
12.0000
 32
4.0000
 13
3.0000
 23
8.0000
 33
4.0000
  0
ENDBLK
  8
0
  0
BLOCK
  8
0
  2
CONTROLBOX
 70
0
 10
0.0000
 20
0.0000
 30
0.0000
  3
CONTROLBOX
  1

  0
3DFACE
  5
1267
  8
0
 10
-100.0000
 20
-40.0000
 30
-150.0000
 11
100.0000
 21
-40.0000
 31
-150.0000
 12
100.0000
 22
0.0000
 32
-150.0000
 13
-100.0000
 23
0.0000
 33
-150.0000
  0
3DFACE
  5
1268
  8
0
 10
-100.0000
 20
-40.0000
 30
150.0000
 11
100.0000
 21
-40.0000
 31
150.0000
 12
100.0000
 22
0.0000
 32
150.0000
 13
-100.0000
 23
0.0000
 33
150.0000
  0
3DFACE
  5
1269
  8
0
 10
-100.0000
 20
-40.0000
 30
-150.0000
 11
100.0000
 21
-40.0000
 31
-150.0000
 12
100.0000
 22
-40.0000
 32
150.0000
 13
-100.0000
 23
-40.0000
 33
150.0000
  0
3DFACE
  5
126A
  8
0
 10
-100.0000
 20
0.0000
 30
-150.0000
 11
100.0000
 21
0.0000
 31
-150.0000
 12
100.0000
 22
0.0000
 32
150.0000
 13
-100.0000
 23
0.0000
 33
150.0000
  0
3DFACE
  5
126B
  8
0
 10
-100.0000
 20
-40.0000
 30
-150.0000
 11
-100.0000
 21
0.0000
 31
-150.0000
 12
-100.0000
 22
0.0000
 32
150.0000
 13
-100.0000
 23
-40.0000
 33
150.0000
  0
3DFACE
  5
126C
  8
0
 10
100.0000
 20
-40.0000
 30
-150.0000
 11
100.0000
 21
0.0000
 31
-150.0000
 12
100.0000
 22
0.0000
 32
150.0000
 13
100.0000
 23
-40.0000
 33
150.0000
  0
3DFACE
  5
126D
  8
0
 10
-96.0000
 20
0.0000
 30
-146.0000
 11
96.0000
 21
0.0000
 31
-146.0000
 12
96.0000
 22
10.0000
 32
-146.0000
 13
-96.0000
 23
10.0000
 33
-146.0000
  0
3DFACE
  5
126E
  8
0
 10
-96.0000
 20
0.0000
 30
146.0000
 11
96.0000
 21
0.0000
 31
146.0000
 12
96.0000
 22
10.0000
 32
146.0000
 13
-96.0000
 23
10.0000
 33
146.0000
  0
3DFACE
  5
126F
  8
0
 10
-96.0000
 20
0.0000
 30
-146.0000
 11
96.0000
 21
0.0000
 31
-146.0000
 12
96.0000
 22
0.0000
 32
146.0000
 13
-96.0000
 23
0.0000
 33
146.0000
  0
3DFACE
  5
1270
  8
0
 10
-96.0000
 20
10.0000
 30
-146.0000
 11
96.0000
 21
10.0000
 31
-146.0000
 12
96.0000
 22
10.0000
 32
146.0000
 13
-96.0000
 23
10.0000
 33
146.0000
  0
3DFACE
  5
1271
  8
0
 10
-96.0000
 20
0.0000
 30
-146.0000
 11
-96.0000
 21
10.0000
 31
-146.0000
 12
-96.0000
 22
10.0000
 32
146.0000
 13
-96.0000
 23
0.0000
 33
146.0000
  0
3DFACE
  5
1272
  8
0
 10
96.0000
 20
0.0000
 30
-146.0000
 11
96.0000
 21
10.0000
 31
-146.0000
 12
96.0000
 22
10.0000
 32
146.0000
 13
96.0000
 23
0.0000
 33
146.0000
  0
ENDBLK
  8
0
  0
BLOCK
  8
0
  2
LIGHTING
 70
0
 10
0.0000
 20
0.0000
 30
0.0000
  3
LIGHTING
  1

  0
3DFACE
  5
1273
  8
0
 10
-60.0000
 20
-30.0000
 30
-60.0000
 11
60.0000
 21
-30.0000
 31
-60.0000
 12
60.0000
 22
0.0000
 32
-60.0000
 13
-60.0000
 23
0.0000
 33
-60.0000
  0
3DFACE
  5
1274
  8
0
 10
-60.0000
 20
-30.0000
 30
60.0000
 11
60.0000
 21
-30.0000
 31
60.0000
 12
60.0000
 22
0.0000
 32
60.0000
 13
-60.0000
 23
0.0000
 33
60.0000
  0
3DFACE
  5
1275
  8
0
 10
-60.0000
 20
-30.0000
 30
-60.0000
 11
60.0000
 21
-30.0000
 31
-60.0000
 12
60.0000
 22
-30.0000
 32
60.0000
 13
-60.0000
 23
-30.0000
 33
60.0000
  0
3DFACE
  5
1276
  8
0
 10
-60.0000
 20
0.0000
 30
-60.0000
 11
60.0000
 21
0.0000
 31
-60.0000
 12
60.0000
 22
0.0000
 32
60.0000
 13
-60.0000
 23
0.0000
 33
60.0000
  0
3DFACE
  5
1277
  8
0
 10
-60.0000
 20
-30.0000
 30
-60.0000
 11
-60.0000
 21
0.0000
 31
-60.0000
 12
-60.0000
 22
0.0000
 32
60.0000
 13
-60.0000
 23
-30.0000
 33
60.0000
  0
3DFACE
  5
1278
  8
0
 10
60.0000
 20
-30.0000
 30
-60.0000
 11
60.0000
 21
0.0000
 31
-60.0000
 12
60.0000
 22
0.0000
 32
60.0000
 13
60.0000
 23
-30.0000
 33
60.0000
  0
3DFACE
  5
1279
  8
0
 10
-50.0000
 20
0.0000
 30
-50.0000
 11
50.0000
 21
0.0000
 31
-50.0000
 12
50.0000
 22
6.0000
 32
-50.0000
 13
-50.0000
 23
6.0000
 33
-50.0000
  0
3DFACE
  5
127A
  8
0
 10
-50.0000
 20
0.0000
 30
50.0000
 11
50.0000
 21
0.0000
 31
50.0000
 12
50.0000
 22
6.0000
 32
50.0000
 13
-50.0000
 23
6.0000
 33
50.0000
  0
3DFACE
  5
127B
  8
0
 10
-50.0000
 20
0.0000
 30
-50.0000
 11
50.0000
 21
0.0000
 31
-50.0000
 12
50.0000
 22
0.0000
 32
50.0000
 13
-50.0000
 23
0.0000
 33
50.0000
  0
3DFACE
  5
127C
  8
0
 10
-50.0000
 20
6.0000
 30
-50.0000
 11
50.0000
 21
6.0000
 31
-50.0000
 12
50.0000
 22
6.0000
 32
50.0000
 13
-50.0000
 23
6.0000
 33
50.0000
  0
3DFACE
  5
127D
  8
0
 10
-50.0000
 20
0.0000
 30
-50.0000
 11
-50.0000
 21
6.0000
 31
-50.0000
 12
-50.0000
 22
6.0000
 32
50.0000
 13
-50.0000
 23
0.0000
 33
50.0000
  0
3DFACE
  5
127E
  8
0
 10
50.0000
 20
0.0000
 30
-50.0000
 11
50.0000
 21
6.0000
 31
-50.0000
 12
50.0000
 22
6.0000
 32
50.0000
 13
50.0000
 23
0.0000
 33
50.0000
  0
3DFACE
  5
127F
  8
0
 10
-64.0000
 20
-6.0000
 30
-64.0000
 11
64.0000
 21
-6.0000
 31
-64.0000
 12
64.0000
 22
0.0000
 32
-64.0000
 13
-64.0000
 23
0.0000
 33
-64.0000
  0
3DFACE
  5
1280
  8
0
 10
-64.0000
 20
-6.0000
 30
64.0000
 11
64.0000
 21
-6.0000
 31
64.0000
 12
64.0000
 22
0.0000
 32
64.0000
 13
-64.0000
 23
0.0000
 33
64.0000
  0
3DFACE
  5
1281
  8
0
 10
-64.0000
 20
-6.0000
 30
-64.0000
 11
64.0000
 21
-6.0000
 31
-64.0000
 12
64.0000
 22
-6.0000
 32
64.0000
 13
-64.0000
 23
-6.0000
 33
64.0000
  0
3DFACE
  5
1282
  8
0
 10
-64.0000
 20
0.0000
 30
-64.0000
 11
64.0000
 21
0.0000
 31
-64.0000
 12
64.0000
 22
0.0000
 32
64.0000
 13
-64.0000
 23
0.0000
 33
64.0000
  0
3DFACE
  5
1283
  8
0
 10
-64.0000
 20
-6.0000
 30
-64.0000
 11
-64.0000
 21
0.0000
 31
-64.0000
 12
-64.0000
 22
0.0000
 32
64.0000
 13
-64.0000
 23
-6.0000
 33
64.0000
  0
3DFACE
  5
1284
  8
0
 10
64.0000
 20
-6.0000
 30
-64.0000
 11
64.0000
 21
0.0000
 31
-64.0000
 12
64.0000
 22
0.0000
 32
64.0000
 13
64.0000
 23
-6.0000
 33
64.0000
  0
3DFACE
  5
1285
  8
0
 10
-30.0000
 20
2.0000
 30
-30.0000
 11
30.0000
 21
2.0000
 31
-30.0000
 12
30.0000
 22
8.0000
 32
-30.0000
 13
-30.0000
 23
8.0000
 33
-30.0000
  0
3DFACE
  5
1286
  8
0
 10
-30.0000
 20
2.0000
 30
30.0000
 11
30.0000
 21
2.0000
 31
30.0000
 12
30.0000
 22
8.0000
 32
30.0000
 13
-30.0000
 23
8.0000
 33
30.0000
  0
3DFACE
  5
1287
  8
0
 10
-30.0000
 20
2.0000
 30
-30.0000
 11
30.0000
 21
2.0000
 31
-30.0000
 12
30.0000
 22
2.0000
 32
30.0000
 13
-30.0000
 23
2.0000
 33
30.0000
  0
3DFACE
  5
1288
  8
0
 10
-30.0000
 20
8.0000
 30
-30.0000
 11
30.0000
 21
8.0000
 31
-30.0000
 12
30.0000
 22
8.0000
 32
30.0000
 13
-30.0000
 23
8.0000
 33
30.0000
  0
3DFACE
  5
1289
  8
0
 10
-30.0000
 20
2.0000
 30
-30.0000
 11
-30.0000
 21
8.0000
 31
-30.0000
 12
-30.0000
 22
8.0000
 32
30.0000
 13
-30.0000
 23
2.0000
 33
30.0000
  0
3DFACE
  5
128A
  8
0
 10
30.0000
 20
2.0000
 30
-30.0000
 11
30.0000
 21
8.0000
 31
-30.0000
 12
30.0000
 22
8.0000
 32
30.0000
 13
30.0000
 23
2.0000
 33
30.0000
  0
ENDBLK
  8
0
  0
BLOCK
  8
0
  2
FAUCET
 70
0
 10
0.0000
 20
0.0000
 30
0.0000
  3
FAUCET
  1

  0
3DFACE
  5
128B
  8
0
 10
-25.0000
 20
0.0000
 30
0.0000
 11
25.0000
 21
0.0000
 31
0.0000
 12
25.0000
 22
25.0000
 32
0.0000
 13
-25.0000
 23
25.0000
 33
0.0000
  0
3DFACE
  5
128C
  8
0
 10
-25.0000
 20
0.0000
 30
30.0000
 11
25.0000
 21
0.0000
 31
30.0000
 12
25.0000
 22
25.0000
 32
30.0000
 13
-25.0000
 23
25.0000
 33
30.0000
  0
3DFACE
  5
128D
  8
0
 10
-25.0000
 20
0.0000
 30
0.0000
 11
25.0000
 21
0.0000
 31
0.0000
 12
25.0000
 22
0.0000
 32
30.0000
 13
-25.0000
 23
0.0000
 33
30.0000
  0
3DFACE
  5
128E
  8
0
 10
-25.0000
 20
25.0000
 30
0.0000
 11
25.0000
 21
25.0000
 31
0.0000
 12
25.0000
 22
25.0000
 32
30.0000
 13
-25.0000
 23
25.0000
 33
30.0000
  0
3DFACE
  5
128F
  8
0
 10
-25.0000
 20
0.0000
 30
0.0000
 11
-25.0000
 21
25.0000
 31
0.0000
 12
-25.0000
 22
25.0000
 32
30.0000
 13
-25.0000
 23
0.0000
 33
30.0000
  0
3DFACE
  5
1290
  8
0
 10
25.0000
 20
0.0000
 30
0.0000
 11
25.0000
 21
25.0000
 31
0.0000
 12
25.0000
 22
25.0000
 32
30.0000
 13
25.0000
 23
0.0000
 33
30.0000
  0
3DFACE
  5
1291
  8
0
 10
-9.0000
 20
0.0000
 30
30.0000
 11
9.0000
 21
0.0000
 31
30.0000
 12
9.0000
 22
18.0000
 32
30.0000
 13
-9.0000
 23
18.0000
 33
30.0000
  0
3DFACE
  5
1292
  8
0
 10
-9.0000
 20
0.0000
 30
150.0000
 11
9.0000
 21
0.0000
 31
150.0000
 12
9.0000
 22
18.0000
 32
150.0000
 13
-9.0000
 23
18.0000
 33
150.0000
  0
3DFACE
  5
1293
  8
0
 10
-9.0000
 20
0.0000
 30
30.0000
 11
9.0000
 21
0.0000
 31
30.0000
 12
9.0000
 22
0.0000
 32
150.0000
 13
-9.0000
 23
0.0000
 33
150.0000
  0
3DFACE
  5
1294
  8
0
 10
-9.0000
 20
18.0000
 30
30.0000
 11
9.0000
 21
18.0000
 31
30.0000
 12
9.0000
 22
18.0000
 32
150.0000
 13
-9.0000
 23
18.0000
 33
150.0000
  0
3DFACE
  5
1295
  8
0
 10
-9.0000
 20
0.0000
 30
30.0000
 11
-9.0000
 21
18.0000
 31
30.0000
 12
-9.0000
 22
18.0000
 32
150.0000
 13
-9.0000
 23
0.0000
 33
150.0000
  0
3DFACE
  5
1296
  8
0
 10
9.0000
 20
0.0000
 30
30.0000
 11
9.0000
 21
18.0000
 31
30.0000
 12
9.0000
 22
18.0000
 32
150.0000
 13
9.0000
 23
0.0000
 33
150.0000
  0
3DFACE
  5
1297
  8
0
 10
-9.0000
 20
0.0000
 30
132.0000
 11
60.0000
 21
0.0000
 31
132.0000
 12
60.0000
 22
18.0000
 32
132.0000
 13
-9.0000
 23
18.0000
 33
132.0000
  0
3DFACE
  5
1298
  8
0
 10
-9.0000
 20
0.0000
 30
150.0000
 11
60.0000
 21
0.0000
 31
150.0000
 12
60.0000
 22
18.0000
 32
150.0000
 13
-9.0000
 23
18.0000
 33
150.0000
  0
3DFACE
  5
1299
  8
0
 10
-9.0000
 20
0.0000
 30
132.0000
 11
60.0000
 21
0.0000
 31
132.0000
 12
60.0000
 22
0.0000
 32
150.0000
 13
-9.0000
 23
0.0000
 33
150.0000
  0
3DFACE
  5
129A
  8
0
 10
-9.0000
 20
18.0000
 30
132.0000
 11
60.0000
 21
18.0000
 31
132.0000
 12
60.0000
 22
18.0000
 32
150.0000
 13
-9.0000
 23
18.0000
 33
150.0000
  0
3DFACE
  5
129B
  8
0
 10
-9.0000
 20
0.0000
 30
132.0000
 11
-9.0000
 21
18.0000
 31
132.0000
 12
-9.0000
 22
18.0000
 32
150.0000
 13
-9.0000
 23
0.0000
 33
150.0000
  0
3DFACE
  5
129C
  8
0
 10
60.0000
 20
0.0000
 30
132.0000
 11
60.0000
 21
18.0000
 31
132.0000
 12
60.0000
 22
18.0000
 32
150.0000
 13
60.0000
 23
0.0000
 33
150.0000
  0
3DFACE
  5
129D
  8
0
 10
52.0000
 20
0.0000
 30
120.0000
 11
68.0000
 21
0.0000
 31
120.0000
 12
68.0000
 22
18.0000
 32
120.0000
 13
52.0000
 23
18.0000
 33
120.0000
  0
3DFACE
  5
129E
  8
0
 10
52.0000
 20
0.0000
 30
150.0000
 11
68.0000
 21
0.0000
 31
150.0000
 12
68.0000
 22
18.0000
 32
150.0000
 13
52.0000
 23
18.0000
 33
150.0000
  0
3DFACE
  5
129F
  8
0
 10
52.0000
 20
0.0000
 30
120.0000
 11
68.0000
 21
0.0000
 31
120.0000
 12
68.0000
 22
0.0000
 32
150.0000
 13
52.0000
 23
0.0000
 33
150.0000
  0
3DFACE
  5
12A0
  8
0
 10
52.0000
 20
18.0000
 30
120.0000
 11
68.0000
 21
18.0000
 31
120.0000
 12
68.0000
 22
18.0000
 32
150.0000
 13
52.0000
 23
18.0000
 33
150.0000
  0
3DFACE
  5
12A1
  8
0
 10
52.0000
 20
0.0000
 30
120.0000
 11
52.0000
 21
18.0000
 31
120.0000
 12
52.0000
 22
18.0000
 32
150.0000
 13
52.0000
 23
0.0000
 33
150.0000
  0
3DFACE
  5
12A2
  8
0
 10
68.0000
 20
0.0000
 30
120.0000
 11
68.0000
 21
18.0000
 31
120.0000
 12
68.0000
 22
18.0000
 32
150.0000
 13
68.0000
 23
0.0000
 33
150.0000
  0
3DFACE
  5
12A3
  8
0
 10
52.0000
 20
0.0000
 30
110.0000
 11
68.0000
 21
0.0000
 31
110.0000
 12
68.0000
 22
18.0000
 32
110.0000
 13
52.0000
 23
18.0000
 33
110.0000
  0
3DFACE
  5
12A4
  8
0
 10
52.0000
 20
0.0000
 30
122.0000
 11
68.0000
 21
0.0000
 31
122.0000
 12
68.0000
 22
18.0000
 32
122.0000
 13
52.0000
 23
18.0000
 33
122.0000
  0
3DFACE
  5
12A5
  8
0
 10
52.0000
 20
0.0000
 30
110.0000
 11
68.0000
 21
0.0000
 31
110.0000
 12
68.0000
 22
0.0000
 32
122.0000
 13
52.0000
 23
0.0000
 33
122.0000
  0
3DFACE
  5
12A6
  8
0
 10
52.0000
 20
18.0000
 30
110.0000
 11
68.0000
 21
18.0000
 31
110.0000
 12
68.0000
 22
18.0000
 32
122.0000
 13
52.0000
 23
18.0000
 33
122.0000
  0
3DFACE
  5
12A7
  8
0
 10
52.0000
 20
0.0000
 30
110.0000
 11
52.0000
 21
18.0000
 31
110.0000
 12
52.0000
 22
18.0000
 32
122.0000
 13
52.0000
 23
0.0000
 33
122.0000
  0
3DFACE
  5
12A8
  8
0
 10
68.0000
 20
0.0000
 30
110.0000
 11
68.0000
 21
18.0000
 31
110.0000
 12
68.0000
 22
18.0000
 32
122.0000
 13
68.0000
 23
0.0000
 33
122.0000
  0
3DFACE
  5
12A9
  8
0
 10
-22.0000
 20
0.0000
 30
90.0000
 11
-14.0000
 21
0.0000
 31
90.0000
 12
-14.0000
 22
18.0000
 32
90.0000
 13
-22.0000
 23
18.0000
 33
90.0000
  0
3DFACE
  5
12AA
  8
0
 10
-22.0000
 20
0.0000
 30
120.0000
 11
-14.0000
 21
0.0000
 31
120.0000
 12
-14.0000
 22
18.0000
 32
120.0000
 13
-22.0000
 23
18.0000
 33
120.0000
  0
3DFACE
  5
12AB
  8
0
 10
-22.0000
 20
0.0000
 30
90.0000
 11
-14.0000
 21
0.0000
 31
90.0000
 12
-14.0000
 22
0.0000
 32
120.0000
 13
-22.0000
 23
0.0000
 33
120.0000
  0
3DFACE
  5
12AC
  8
0
 10
-22.0000
 20
18.0000
 30
90.0000
 11
-14.0000
 21
18.0000
 31
90.0000
 12
-14.0000
 22
18.0000
 32
120.0000
 13
-22.0000
 23
18.0000
 33
120.0000
  0
3DFACE
  5
12AD
  8
0
 10
-22.0000
 20
0.0000
 30
90.0000
 11
-22.0000
 21
18.0000
 31
90.0000
 12
-22.0000
 22
18.0000
 32
120.0000
 13
-22.0000
 23
0.0000
 33
120.0000
  0
3DFACE
  5
12AE
  8
0
 10
-14.0000
 20
0.0000
 30
90.0000
 11
-14.0000
 21
18.0000
 31
90.0000
 12
-14.0000
 22
18.0000
 32
120.0000
 13
-14.0000
 23
0.0000
 33
120.0000
  0
3DFACE
  5
12AF
  8
0
 10
14.0000
 20
0.0000
 30
90.0000
 11
22.0000
 21
0.0000
 31
90.0000
 12
22.0000
 22
18.0000
 32
90.0000
 13
14.0000
 23
18.0000
 33
90.0000
  0
3DFACE
  5
12B0
  8
0
 10
14.0000
 20
0.0000
 30
120.0000
 11
22.0000
 21
0.0000
 31
120.0000
 12
22.0000
 22
18.0000
 32
120.0000
 13
14.0000
 23
18.0000
 33
120.0000
  0
3DFACE
  5
12B1
  8
0
 10
14.0000
 20
0.0000
 30
90.0000
 11
22.0000
 21
0.0000
 31
90.0000
 12
22.0000
 22
0.0000
 32
120.0000
 13
14.0000
 23
0.0000
 33
120.0000
  0
3DFACE
  5
12B2
  8
0
 10
14.0000
 20
18.0000
 30
90.0000
 11
22.0000
 21
18.0000
 31
90.0000
 12
22.0000
 22
18.0000
 32
120.0000
 13
14.0000
 23
18.0000
 33
120.0000
  0
3DFACE
  5
12B3
  8
0
 10
14.0000
 20
0.0000
 30
90.0000
 11
14.0000
 21
18.0000
 31
90.0000
 12
14.0000
 22
18.0000
 32
120.0000
 13
14.0000
 23
0.0000
 33
120.0000
  0
3DFACE
  5
12B4
  8
0
 10
22.0000
 20
0.0000
 30
90.0000
 11
22.0000
 21
18.0000
 31
90.0000
 12
22.0000
 22
18.0000
 32
120.0000
 13
22.0000
 23
0.0000
 33
120.0000
  0
ENDBLK
  8
0
  0
BLOCK
  8
0
  2
SEWAGE
 70
0
 10
0.0000
 20
0.0000
 30
0.0000
  3
SEWAGE
  1

  0
3DFACE
  5
12B5
  8
0
 10
-50.0000
 20
0.0000
 30
-50.0000
 11
50.0000
 21
0.0000
 31
-50.0000
 12
50.0000
 22
12.0000
 32
-50.0000
 13
-50.0000
 23
12.0000
 33
-50.0000
  0
3DFACE
  5
12B6
  8
0
 10
-50.0000
 20
0.0000
 30
50.0000
 11
50.0000
 21
0.0000
 31
50.0000
 12
50.0000
 22
12.0000
 32
50.0000
 13
-50.0000
 23
12.0000
 33
50.0000
  0
3DFACE
  5
12B7
  8
0
 10
-50.0000
 20
0.0000
 30
-50.0000
 11
50.0000
 21
0.0000
 31
-50.0000
 12
50.0000
 22
0.0000
 32
50.0000
 13
-50.0000
 23
0.0000
 33
50.0000
  0
3DFACE
  5
12B8
  8
0
 10
-50.0000
 20
12.0000
 30
-50.0000
 11
50.0000
 21
12.0000
 31
-50.0000
 12
50.0000
 22
12.0000
 32
50.0000
 13
-50.0000
 23
12.0000
 33
50.0000
  0
3DFACE
  5
12B9
  8
0
 10
-50.0000
 20
0.0000
 30
-50.0000
 11
-50.0000
 21
12.0000
 31
-50.0000
 12
-50.0000
 22
12.0000
 32
50.0000
 13
-50.0000
 23
0.0000
 33
50.0000
  0
3DFACE
  5
12BA
  8
0
 10
50.0000
 20
0.0000
 30
-50.0000
 11
50.0000
 21
12.0000
 31
-50.0000
 12
50.0000
 22
12.0000
 32
50.0000
 13
50.0000
 23
0.0000
 33
50.0000
  0
3DFACE
  5
12BB
  8
0
 10
-30.0000
 20
12.0000
 30
-30.0000
 11
30.0000
 21
12.0000
 31
-30.0000
 12
30.0000
 22
40.0000
 32
-30.0000
 13
-30.0000
 23
40.0000
 33
-30.0000
  0
3DFACE
  5
12BC
  8
0
 10
-30.0000
 20
12.0000
 30
30.0000
 11
30.0000
 21
12.0000
 31
30.0000
 12
30.0000
 22
40.0000
 32
30.0000
 13
-30.0000
 23
40.0000
 33
30.0000
  0
3DFACE
  5
12BD
  8
0
 10
-30.0000
 20
12.0000
 30
-30.0000
 11
30.0000
 21
12.0000
 31
-30.0000
 12
30.0000
 22
12.0000
 32
30.0000
 13
-30.0000
 23
12.0000
 33
30.0000
  0
3DFACE
  5
12BE
  8
0
 10
-30.0000
 20
40.0000
 30
-30.0000
 11
30.0000
 21
40.0000
 31
-30.0000
 12
30.0000
 22
40.0000
 32
30.0000
 13
-30.0000
 23
40.0000
 33
30.0000
  0
3DFACE
  5
12BF
  8
0
 10
-30.0000
 20
12.0000
 30
-30.0000
 11
-30.0000
 21
40.0000
 31
-30.0000
 12
-30.0000
 22
40.0000
 32
30.0000
 13
-30.0000
 23
12.0000
 33
30.0000
  0
3DFACE
  5
12C0
  8
0
 10
30.0000
 20
12.0000
 30
-30.0000
 11
30.0000
 21
40.0000
 31
-30.0000
 12
30.0000
 22
40.0000
 32
30.0000
 13
30.0000
 23
12.0000
 33
30.0000
  0
3DFACE
  5
12C1
  8
0
 10
-22.0000
 20
40.0000
 30
-22.0000
 11
22.0000
 21
40.0000
 31
-22.0000
 12
22.0000
 22
60.0000
 32
-22.0000
 13
-22.0000
 23
60.0000
 33
-22.0000
  0
3DFACE
  5
12C2
  8
0
 10
-22.0000
 20
40.0000
 30
22.0000
 11
22.0000
 21
40.0000
 31
22.0000
 12
22.0000
 22
60.0000
 32
22.0000
 13
-22.0000
 23
60.0000
 33
22.0000
  0
3DFACE
  5
12C3
  8
0
 10
-22.0000
 20
40.0000
 30
-22.0000
 11
22.0000
 21
40.0000
 31
-22.0000
 12
22.0000
 22
40.0000
 32
22.0000
 13
-22.0000
 23
40.0000
 33
22.0000
  0
3DFACE
  5
12C4
  8
0
 10
-22.0000
 20
60.0000
 30
-22.0000
 11
22.0000
 21
60.0000
 31
-22.0000
 12
22.0000
 22
60.0000
 32
22.0000
 13
-22.0000
 23
60.0000
 33
22.0000
  0
3DFACE
  5
12C5
  8
0
 10
-22.0000
 20
40.0000
 30
-22.0000
 11
-22.0000
 21
60.0000
 31
-22.0000
 12
-22.0000
 22
60.0000
 32
22.0000
 13
-22.0000
 23
40.0000
 33
22.0000
  0
3DFACE
  5
12C6
  8
0
 10
22.0000
 20
40.0000
 30
-22.0000
 11
22.0000
 21
60.0000
 31
-22.0000
 12
22.0000
 22
60.0000
 32
22.0000
 13
22.0000
 23
40.0000
 33
22.0000
  0
3DFACE
  5
12C7
  8
0
 10
-45.0000
 20
0.0000
 30
-45.0000
 11
-39.0000
 21
0.0000
 31
-45.0000
 12
-39.0000
 22
6.0000
 32
-45.0000
 13
-45.0000
 23
6.0000
 33
-45.0000
  0
3DFACE
  5
12C8
  8
0
 10
-45.0000
 20
0.0000
 30
-39.0000
 11
-39.0000
 21
0.0000
 31
-39.0000
 12
-39.0000
 22
6.0000
 32
-39.0000
 13
-45.0000
 23
6.0000
 33
-39.0000
  0
3DFACE
  5
12C9
  8
0
 10
-45.0000
 20
0.0000
 30
-45.0000
 11
-39.0000
 21
0.0000
 31
-45.0000
 12
-39.0000
 22
0.0000
 32
-39.0000
 13
-45.0000
 23
0.0000
 33
-39.0000
  0
3DFACE
  5
12CA
  8
0
 10
-45.0000
 20
6.0000
 30
-45.0000
 11
-39.0000
 21
6.0000
 31
-45.0000
 12
-39.0000
 22
6.0000
 32
-39.0000
 13
-45.0000
 23
6.0000
 33
-39.0000
  0
3DFACE
  5
12CB
  8
0
 10
-45.0000
 20
0.0000
 30
-45.0000
 11
-45.0000
 21
6.0000
 31
-45.0000
 12
-45.0000
 22
6.0000
 32
-39.0000
 13
-45.0000
 23
0.0000
 33
-39.0000
  0
3DFACE
  5
12CC
  8
0
 10
-39.0000
 20
0.0000
 30
-45.0000
 11
-39.0000
 21
6.0000
 31
-45.0000
 12
-39.0000
 22
6.0000
 32
-39.0000
 13
-39.0000
 23
0.0000
 33
-39.0000
  0
3DFACE
  5
12CD
  8
0
 10
39.0000
 20
0.0000
 30
-45.0000
 11
45.0000
 21
0.0000
 31
-45.0000
 12
45.0000
 22
6.0000
 32
-45.0000
 13
39.0000
 23
6.0000
 33
-45.0000
  0
3DFACE
  5
12CE
  8
0
 10
39.0000
 20
0.0000
 30
-39.0000
 11
45.0000
 21
0.0000
 31
-39.0000
 12
45.0000
 22
6.0000
 32
-39.0000
 13
39.0000
 23
6.0000
 33
-39.0000
  0
3DFACE
  5
12CF
  8
0
 10
39.0000
 20
0.0000
 30
-45.0000
 11
45.0000
 21
0.0000
 31
-45.0000
 12
45.0000
 22
0.0000
 32
-39.0000
 13
39.0000
 23
0.0000
 33
-39.0000
  0
3DFACE
  5
12D0
  8
0
 10
39.0000
 20
6.0000
 30
-45.0000
 11
45.0000
 21
6.0000
 31
-45.0000
 12
45.0000
 22
6.0000
 32
-39.0000
 13
39.0000
 23
6.0000
 33
-39.0000
  0
3DFACE
  5
12D1
  8
0
 10
39.0000
 20
0.0000
 30
-45.0000
 11
39.0000
 21
6.0000
 31
-45.0000
 12
39.0000
 22
6.0000
 32
-39.0000
 13
39.0000
 23
0.0000
 33
-39.0000
  0
3DFACE
  5
12D2
  8
0
 10
45.0000
 20
0.0000
 30
-45.0000
 11
45.0000
 21
6.0000
 31
-45.0000
 12
45.0000
 22
6.0000
 32
-39.0000
 13
45.0000
 23
0.0000
 33
-39.0000
  0
3DFACE
  5
12D3
  8
0
 10
-45.0000
 20
0.0000
 30
39.0000
 11
-39.0000
 21
0.0000
 31
39.0000
 12
-39.0000
 22
6.0000
 32
39.0000
 13
-45.0000
 23
6.0000
 33
39.0000
  0
3DFACE
  5
12D4
  8
0
 10
-45.0000
 20
0.0000
 30
45.0000
 11
-39.0000
 21
0.0000
 31
45.0000
 12
-39.0000
 22
6.0000
 32
45.0000
 13
-45.0000
 23
6.0000
 33
45.0000
  0
3DFACE
  5
12D5
  8
0
 10
-45.0000
 20
0.0000
 30
39.0000
 11
-39.0000
 21
0.0000
 31
39.0000
 12
-39.0000
 22
0.0000
 32
45.0000
 13
-45.0000
 23
0.0000
 33
45.0000
  0
3DFACE
  5
12D6
  8
0
 10
-45.0000
 20
6.0000
 30
39.0000
 11
-39.0000
 21
6.0000
 31
39.0000
 12
-39.0000
 22
6.0000
 32
45.0000
 13
-45.0000
 23
6.0000
 33
45.0000
  0
3DFACE
  5
12D7
  8
0
 10
-45.0000
 20
0.0000
 30
39.0000
 11
-45.0000
 21
6.0000
 31
39.0000
 12
-45.0000
 22
6.0000
 32
45.0000
 13
-45.0000
 23
0.0000
 33
45.0000
  0
3DFACE
  5
12D8
  8
0
 10
-39.0000
 20
0.0000
 30
39.0000
 11
-39.0000
 21
6.0000
 31
39.0000
 12
-39.0000
 22
6.0000
 32
45.0000
 13
-39.0000
 23
0.0000
 33
45.0000
  0
3DFACE
  5
12D9
  8
0
 10
39.0000
 20
0.0000
 30
39.0000
 11
45.0000
 21
0.0000
 31
39.0000
 12
45.0000
 22
6.0000
 32
39.0000
 13
39.0000
 23
6.0000
 33
39.0000
  0
3DFACE
  5
12DA
  8
0
 10
39.0000
 20
0.0000
 30
45.0000
 11
45.0000
 21
0.0000
 31
45.0000
 12
45.0000
 22
6.0000
 32
45.0000
 13
39.0000
 23
6.0000
 33
45.0000
  0
3DFACE
  5
12DB
  8
0
 10
39.0000
 20
0.0000
 30
39.0000
 11
45.0000
 21
0.0000
 31
39.0000
 12
45.0000
 22
0.0000
 32
45.0000
 13
39.0000
 23
0.0000
 33
45.0000
  0
3DFACE
  5
12DC
  8
0
 10
39.0000
 20
6.0000
 30
39.0000
 11
45.0000
 21
6.0000
 31
39.0000
 12
45.0000
 22
6.0000
 32
45.0000
 13
39.0000
 23
6.0000
 33
45.0000
  0
3DFACE
  5
12DD
  8
0
 10
39.0000
 20
0.0000
 30
39.0000
 11
39.0000
 21
6.0000
 31
39.0000
 12
39.0000
 22
6.0000
 32
45.0000
 13
39.0000
 23
0.0000
 33
45.0000
  0
3DFACE
  5
12DE
  8
0
 10
45.0000
 20
0.0000
 30
39.0000
 11
45.0000
 21
6.0000
 31
39.0000
 12
45.0000
 22
6.0000
 32
45.0000
 13
45.0000
 23
0.0000
 33
45.0000
  0
ENDBLK
  8
0
  0
BLOCK
  8
0
  2
GAS
 70
0
 10
0.0000
 20
0.0000
 30
0.0000
  3
GAS
  1

  0
3DFACE
  5
12DF
  8
0
 10
-30.0000
 20
0.0000
 30
0.0000
 11
30.0000
 21
0.0000
 31
0.0000
 12
30.0000
 22
30.0000
 32
0.0000
 13
-30.0000
 23
30.0000
 33
0.0000
  0
3DFACE
  5
12E0
  8
0
 10
-30.0000
 20
0.0000
 30
60.0000
 11
30.0000
 21
0.0000
 31
60.0000
 12
30.0000
 22
30.0000
 32
60.0000
 13
-30.0000
 23
30.0000
 33
60.0000
  0
3DFACE
  5
12E1
  8
0
 10
-30.0000
 20
0.0000
 30
0.0000
 11
30.0000
 21
0.0000
 31
0.0000
 12
30.0000
 22
0.0000
 32
60.0000
 13
-30.0000
 23
0.0000
 33
60.0000
  0
3DFACE
  5
12E2
  8
0
 10
-30.0000
 20
30.0000
 30
0.0000
 11
30.0000
 21
30.0000
 31
0.0000
 12
30.0000
 22
30.0000
 32
60.0000
 13
-30.0000
 23
30.0000
 33
60.0000
  0
3DFACE
  5
12E3
  8
0
 10
-30.0000
 20
0.0000
 30
0.0000
 11
-30.0000
 21
30.0000
 31
0.0000
 12
-30.0000
 22
30.0000
 32
60.0000
 13
-30.0000
 23
0.0000
 33
60.0000
  0
3DFACE
  5
12E4
  8
0
 10
30.0000
 20
0.0000
 30
0.0000
 11
30.0000
 21
30.0000
 31
0.0000
 12
30.0000
 22
30.0000
 32
60.0000
 13
30.0000
 23
0.0000
 33
60.0000
  0
3DFACE
  5
12E5
  8
0
 10
-6.0000
 20
30.0000
 30
22.0000
 11
6.0000
 21
30.0000
 31
22.0000
 12
6.0000
 22
60.0000
 32
22.0000
 13
-6.0000
 23
60.0000
 33
22.0000
  0
3DFACE
  5
12E6
  8
0
 10
-6.0000
 20
30.0000
 30
38.0000
 11
6.0000
 21
30.0000
 31
38.0000
 12
6.0000
 22
60.0000
 32
38.0000
 13
-6.0000
 23
60.0000
 33
38.0000
  0
3DFACE
  5
12E7
  8
0
 10
-6.0000
 20
30.0000
 30
22.0000
 11
6.0000
 21
30.0000
 31
22.0000
 12
6.0000
 22
30.0000
 32
38.0000
 13
-6.0000
 23
30.0000
 33
38.0000
  0
3DFACE
  5
12E8
  8
0
 10
-6.0000
 20
60.0000
 30
22.0000
 11
6.0000
 21
60.0000
 31
22.0000
 12
6.0000
 22
60.0000
 32
38.0000
 13
-6.0000
 23
60.0000
 33
38.0000
  0
3DFACE
  5
12E9
  8
0
 10
-6.0000
 20
30.0000
 30
22.0000
 11
-6.0000
 21
60.0000
 31
22.0000
 12
-6.0000
 22
60.0000
 32
38.0000
 13
-6.0000
 23
30.0000
 33
38.0000
  0
3DFACE
  5
12EA
  8
0
 10
6.0000
 20
30.0000
 30
22.0000
 11
6.0000
 21
60.0000
 31
22.0000
 12
6.0000
 22
60.0000
 32
38.0000
 13
6.0000
 23
30.0000
 33
38.0000
  0
3DFACE
  5
12EB
  8
0
 10
-6.0000
 20
-25.0000
 30
22.0000
 11
6.0000
 21
-25.0000
 31
22.0000
 12
6.0000
 22
0.0000
 32
22.0000
 13
-6.0000
 23
0.0000
 33
22.0000
  0
3DFACE
  5
12EC
  8
0
 10
-6.0000
 20
-25.0000
 30
38.0000
 11
6.0000
 21
-25.0000
 31
38.0000
 12
6.0000
 22
0.0000
 32
38.0000
 13
-6.0000
 23
0.0000
 33
38.0000
  0
3DFACE
  5
12ED
  8
0
 10
-6.0000
 20
-25.0000
 30
22.0000
 11
6.0000
 21
-25.0000
 31
22.0000
 12
6.0000
 22
-25.0000
 32
38.0000
 13
-6.0000
 23
-25.0000
 33
38.0000
  0
3DFACE
  5
12EE
  8
0
 10
-6.0000
 20
0.0000
 30
22.0000
 11
6.0000
 21
0.0000
 31
22.0000
 12
6.0000
 22
0.0000
 32
38.0000
 13
-6.0000
 23
0.0000
 33
38.0000
  0
3DFACE
  5
12EF
  8
0
 10
-6.0000
 20
-25.0000
 30
22.0000
 11
-6.0000
 21
0.0000
 31
22.0000
 12
-6.0000
 22
0.0000
 32
38.0000
 13
-6.0000
 23
-25.0000
 33
38.0000
  0
3DFACE
  5
12F0
  8
0
 10
6.0000
 20
-25.0000
 30
22.0000
 11
6.0000
 21
0.0000
 31
22.0000
 12
6.0000
 22
0.0000
 32
38.0000
 13
6.0000
 23
-25.0000
 33
38.0000
  0
3DFACE
  5
12F1
  8
0
 10
-3.0000
 20
55.0000
 30
15.0000
 11
3.0000
 21
55.0000
 31
15.0000
 12
3.0000
 22
65.0000
 32
15.0000
 13
-3.0000
 23
65.0000
 33
15.0000
  0
3DFACE
  5
12F2
  8
0
 10
-3.0000
 20
55.0000
 30
45.0000
 11
3.0000
 21
55.0000
 31
45.0000
 12
3.0000
 22
65.0000
 32
45.0000
 13
-3.0000
 23
65.0000
 33
45.0000
  0
3DFACE
  5
12F3
  8
0
 10
-3.0000
 20
55.0000
 30
15.0000
 11
3.0000
 21
55.0000
 31
15.0000
 12
3.0000
 22
55.0000
 32
45.0000
 13
-3.0000
 23
55.0000
 33
45.0000
  0
3DFACE
  5
12F4
  8
0
 10
-3.0000
 20
65.0000
 30
15.0000
 11
3.0000
 21
65.0000
 31
15.0000
 12
3.0000
 22
65.0000
 32
45.0000
 13
-3.0000
 23
65.0000
 33
45.0000
  0
3DFACE
  5
12F5
  8
0
 10
-3.0000
 20
55.0000
 30
15.0000
 11
-3.0000
 21
65.0000
 31
15.0000
 12
-3.0000
 22
65.0000
 32
45.0000
 13
-3.0000
 23
55.0000
 33
45.0000
  0
3DFACE
  5
12F6
  8
0
 10
3.0000
 20
55.0000
 30
15.0000
 11
3.0000
 21
65.0000
 31
15.0000
 12
3.0000
 22
65.0000
 32
45.0000
 13
3.0000
 23
55.0000
 33
45.0000
  0
3DFACE
  5
12F7
  8
0
 10
-14.0000
 20
60.0000
 30
22.0000
 11
14.0000
 21
60.0000
 31
22.0000
 12
14.0000
 22
72.0000
 32
22.0000
 13
-14.0000
 23
72.0000
 33
22.0000
  0
3DFACE
  5
12F8
  8
0
 10
-14.0000
 20
60.0000
 30
38.0000
 11
14.0000
 21
60.0000
 31
38.0000
 12
14.0000
 22
72.0000
 32
38.0000
 13
-14.0000
 23
72.0000
 33
38.0000
  0
3DFACE
  5
12F9
  8
0
 10
-14.0000
 20
60.0000
 30
22.0000
 11
14.0000
 21
60.0000
 31
22.0000
 12
14.0000
 22
60.0000
 32
38.0000
 13
-14.0000
 23
60.0000
 33
38.0000
  0
3DFACE
  5
12FA
  8
0
 10
-14.0000
 20
72.0000
 30
22.0000
 11
14.0000
 21
72.0000
 31
22.0000
 12
14.0000
 22
72.0000
 32
38.0000
 13
-14.0000
 23
72.0000
 33
38.0000
  0
3DFACE
  5
12FB
  8
0
 10
-14.0000
 20
60.0000
 30
22.0000
 11
-14.0000
 21
72.0000
 31
22.0000
 12
-14.0000
 22
72.0000
 32
38.0000
 13
-14.0000
 23
60.0000
 33
38.0000
  0
3DFACE
  5
12FC
  8
0
 10
14.0000
 20
60.0000
 30
22.0000
 11
14.0000
 21
72.0000
 31
22.0000
 12
14.0000
 22
72.0000
 32
38.0000
 13
14.0000
 23
60.0000
 33
38.0000
  0
ENDBLK
  8
0
  0
ENDSEC
  0
SECTION
  2
ENTITIES
  0
3DFACE
  5
1000
  8
ריצוף
 10
0.0000
 20
0.0000
 30
0.0000
 11
0.0000
 21
-11600.0000
 31
0.0000
 12
16700.0000
 22
-11600.0000
 32
0.0000
 13
16700.0000
 23
-11600.0000
 33
0.0000
 70
15
  0
3DFACE
  5
1001
  8
ריצוף
 10
0.0000
 20
0.0000
 30
-40.0000
 11
16700.0000
 21
-11600.0000
 31
-40.0000
 12
0.0000
 22
-11600.0000
 32
-40.0000
 13
0.0000
 23
-11600.0000
 33
-40.0000
 70
15
  0
3DFACE
  5
1002
  8
ריצוף
 10
16700.0000
 20
-11600.0000
 30
0.0000
 11
16700.0000
 21
0.0000
 31
0.0000
 12
0.0000
 22
0.0000
 32
0.0000
 13
0.0000
 23
0.0000
 33
0.0000
 70
15
  0
3DFACE
  5
1003
  8
ריצוף
 10
16700.0000
 20
-11600.0000
 30
-40.0000
 11
0.0000
 21
0.0000
 31
-40.0000
 12
16700.0000
 22
0.0000
 32
-40.0000
 13
16700.0000
 23
0.0000
 33
-40.0000
 70
15
  0
3DFACE
  5
1004
  8
ריצוף
 10
0.0000
 20
0.0000
 30
-40.0000
 11
16700.0000
 21
0.0000
 31
-40.0000
 12
16700.0000
 22
0.0000
 32
0.0000
 13
0.0000
 23
0.0000
 33
0.0000
 70
15
  0
3DFACE
  5
1005
  8
ריצוף
 10
16700.0000
 20
0.0000
 30
-40.0000
 11
16700.0000
 21
-11600.0000
 31
-40.0000
 12
16700.0000
 22
-11600.0000
 32
0.0000
 13
16700.0000
 23
0.0000
 33
0.0000
 70
15
  0
3DFACE
  5
1006
  8
ריצוף
 10
16700.0000
 20
-11600.0000
 30
-40.0000
 11
0.0000
 21
-11600.0000
 31
-40.0000
 12
0.0000
 22
-11600.0000
 32
0.0000
 13
16700.0000
 23
-11600.0000
 33
0.0000
 70
15
  0
3DFACE
  5
1007
  8
ריצוף
 10
0.0000
 20
-11600.0000
 30
-40.0000
 11
0.0000
 21
0.0000
 31
-40.0000
 12
0.0000
 22
0.0000
 32
0.0000
 13
0.0000
 23
-11600.0000
 33
0.0000
 70
15
  0
3DFACE
  5
1008
  8
קירות
 10
-100.0000
 20
0.0000
 30
0.0000
 11
16800.0000
 21
0.0000
 31
0.0000
 12
16800.0000
 22
100.0000
 32
0.0000
 13
-100.0000
 23
100.0000
 33
0.0000
 70
15
  0
3DFACE
  5
1009
  8
קירות
 10
-100.0000
 20
0.0000
 30
2650.0000
 11
16800.0000
 21
0.0000
 31
2650.0000
 12
16800.0000
 22
100.0000
 32
2650.0000
 13
-100.0000
 23
100.0000
 33
2650.0000
 70
15
  0
3DFACE
  5
100A
  8
קירות
 10
-100.0000
 20
0.0000
 30
0.0000
 11
16800.0000
 21
0.0000
 31
0.0000
 12
16800.0000
 22
0.0000
 32
2650.0000
 13
-100.0000
 23
0.0000
 33
2650.0000
 70
15
  0
3DFACE
  5
100B
  8
קירות
 10
-100.0000
 20
100.0000
 30
0.0000
 11
16800.0000
 21
100.0000
 31
0.0000
 12
16800.0000
 22
100.0000
 32
2650.0000
 13
-100.0000
 23
100.0000
 33
2650.0000
 70
15
  0
3DFACE
  5
100C
  8
קירות
 10
-100.0000
 20
0.0000
 30
0.0000
 11
-100.0000
 21
100.0000
 31
0.0000
 12
-100.0000
 22
100.0000
 32
2650.0000
 13
-100.0000
 23
0.0000
 33
2650.0000
 70
15
  0
3DFACE
  5
100D
  8
קירות
 10
16800.0000
 20
0.0000
 30
0.0000
 11
16800.0000
 21
100.0000
 31
0.0000
 12
16800.0000
 22
100.0000
 32
2650.0000
 13
16800.0000
 23
0.0000
 33
2650.0000
 70
15
  0
3DFACE
  5
100E
  8
קירות
 10
16700.0000
 20
100.0000
 30
0.0000
 11
16700.0000
 21
-11700.0000
 31
0.0000
 12
16800.0000
 22
-11700.0000
 32
0.0000
 13
16800.0000
 23
100.0000
 33
0.0000
 70
15
  0
3DFACE
  5
100F
  8
קירות
 10
16700.0000
 20
100.0000
 30
2650.0000
 11
16700.0000
 21
-11700.0000
 31
2650.0000
 12
16800.0000
 22
-11700.0000
 32
2650.0000
 13
16800.0000
 23
100.0000
 33
2650.0000
 70
15
  0
3DFACE
  5
1010
  8
קירות
 10
16700.0000
 20
100.0000
 30
0.0000
 11
16700.0000
 21
-11700.0000
 31
0.0000
 12
16700.0000
 22
-11700.0000
 32
2650.0000
 13
16700.0000
 23
100.0000
 33
2650.0000
 70
15
  0
3DFACE
  5
1011
  8
קירות
 10
16800.0000
 20
100.0000
 30
0.0000
 11
16800.0000
 21
-11700.0000
 31
0.0000
 12
16800.0000
 22
-11700.0000
 32
2650.0000
 13
16800.0000
 23
100.0000
 33
2650.0000
 70
15
  0
3DFACE
  5
1012
  8
קירות
 10
16700.0000
 20
100.0000
 30
0.0000
 11
16800.0000
 21
100.0000
 31
0.0000
 12
16800.0000
 22
100.0000
 32
2650.0000
 13
16700.0000
 23
100.0000
 33
2650.0000
 70
15
  0
3DFACE
  5
1013
  8
קירות
 10
16700.0000
 20
-11700.0000
 30
0.0000
 11
16800.0000
 21
-11700.0000
 31
0.0000
 12
16800.0000
 22
-11700.0000
 32
2650.0000
 13
16700.0000
 23
-11700.0000
 33
2650.0000
 70
15
  0
3DFACE
  5
1014
  8
קירות
 10
16800.0000
 20
-11600.0000
 30
0.0000
 11
16000.0000
 21
-11600.0000
 31
0.0000
 12
16000.0000
 22
-11700.0000
 32
0.0000
 13
16800.0000
 23
-11700.0000
 33
0.0000
 70
15
  0
3DFACE
  5
1015
  8
קירות
 10
16800.0000
 20
-11600.0000
 30
2650.0000
 11
16000.0000
 21
-11600.0000
 31
2650.0000
 12
16000.0000
 22
-11700.0000
 32
2650.0000
 13
16800.0000
 23
-11700.0000
 33
2650.0000
 70
15
  0
3DFACE
  5
1016
  8
קירות
 10
16800.0000
 20
-11600.0000
 30
0.0000
 11
16000.0000
 21
-11600.0000
 31
0.0000
 12
16000.0000
 22
-11600.0000
 32
2650.0000
 13
16800.0000
 23
-11600.0000
 33
2650.0000
 70
15
  0
3DFACE
  5
1017
  8
קירות
 10
16800.0000
 20
-11700.0000
 30
0.0000
 11
16000.0000
 21
-11700.0000
 31
0.0000
 12
16000.0000
 22
-11700.0000
 32
2650.0000
 13
16800.0000
 23
-11700.0000
 33
2650.0000
 70
15
  0
3DFACE
  5
1018
  8
קירות
 10
16800.0000
 20
-11600.0000
 30
0.0000
 11
16800.0000
 21
-11700.0000
 31
0.0000
 12
16800.0000
 22
-11700.0000
 32
2650.0000
 13
16800.0000
 23
-11600.0000
 33
2650.0000
 70
15
  0
3DFACE
  5
1019
  8
קירות
 10
16000.0000
 20
-11600.0000
 30
0.0000
 11
16000.0000
 21
-11700.0000
 31
0.0000
 12
16000.0000
 22
-11700.0000
 32
2650.0000
 13
16000.0000
 23
-11600.0000
 33
2650.0000
 70
15
  0
3DFACE
  5
101A
  8
קירות
 10
16000.0000
 20
-11600.0000
 30
2050.0000
 11
15100.0000
 21
-11600.0000
 31
2050.0000
 12
15100.0000
 22
-11700.0000
 32
2050.0000
 13
16000.0000
 23
-11700.0000
 33
2050.0000
 70
15
  0
3DFACE
  5
101B
  8
קירות
 10
16000.0000
 20
-11600.0000
 30
2650.0000
 11
15100.0000
 21
-11600.0000
 31
2650.0000
 12
15100.0000
 22
-11700.0000
 32
2650.0000
 13
16000.0000
 23
-11700.0000
 33
2650.0000
 70
15
  0
3DFACE
  5
101C
  8
קירות
 10
16000.0000
 20
-11600.0000
 30
2050.0000
 11
15100.0000
 21
-11600.0000
 31
2050.0000
 12
15100.0000
 22
-11600.0000
 32
2650.0000
 13
16000.0000
 23
-11600.0000
 33
2650.0000
 70
15
  0
3DFACE
  5
101D
  8
קירות
 10
16000.0000
 20
-11700.0000
 30
2050.0000
 11
15100.0000
 21
-11700.0000
 31
2050.0000
 12
15100.0000
 22
-11700.0000
 32
2650.0000
 13
16000.0000
 23
-11700.0000
 33
2650.0000
 70
15
  0
3DFACE
  5
101E
  8
קירות
 10
16000.0000
 20
-11600.0000
 30
2050.0000
 11
16000.0000
 21
-11700.0000
 31
2050.0000
 12
16000.0000
 22
-11700.0000
 32
2650.0000
 13
16000.0000
 23
-11600.0000
 33
2650.0000
 70
15
  0
3DFACE
  5
101F
  8
קירות
 10
15100.0000
 20
-11600.0000
 30
2050.0000
 11
15100.0000
 21
-11700.0000
 31
2050.0000
 12
15100.0000
 22
-11700.0000
 32
2650.0000
 13
15100.0000
 23
-11600.0000
 33
2650.0000
 70
15
  0
3DFACE
  5
1020
  8
קירות
 10
15100.0000
 20
-11600.0000
 30
0.0000
 11
14050.0000
 21
-11600.0000
 31
0.0000
 12
14050.0000
 22
-11700.0000
 32
0.0000
 13
15100.0000
 23
-11700.0000
 33
0.0000
 70
15
  0
3DFACE
  5
1021
  8
קירות
 10
15100.0000
 20
-11600.0000
 30
2650.0000
 11
14050.0000
 21
-11600.0000
 31
2650.0000
 12
14050.0000
 22
-11700.0000
 32
2650.0000
 13
15100.0000
 23
-11700.0000
 33
2650.0000
 70
15
  0
3DFACE
  5
1022
  8
קירות
 10
15100.0000
 20
-11600.0000
 30
0.0000
 11
14050.0000
 21
-11600.0000
 31
0.0000
 12
14050.0000
 22
-11600.0000
 32
2650.0000
 13
15100.0000
 23
-11600.0000
 33
2650.0000
 70
15
  0
3DFACE
  5
1023
  8
קירות
 10
15100.0000
 20
-11700.0000
 30
0.0000
 11
14050.0000
 21
-11700.0000
 31
0.0000
 12
14050.0000
 22
-11700.0000
 32
2650.0000
 13
15100.0000
 23
-11700.0000
 33
2650.0000
 70
15
  0
3DFACE
  5
1024
  8
קירות
 10
15100.0000
 20
-11600.0000
 30
0.0000
 11
15100.0000
 21
-11700.0000
 31
0.0000
 12
15100.0000
 22
-11700.0000
 32
2650.0000
 13
15100.0000
 23
-11600.0000
 33
2650.0000
 70
15
  0
3DFACE
  5
1025
  8
קירות
 10
14050.0000
 20
-11600.0000
 30
0.0000
 11
14050.0000
 21
-11700.0000
 31
0.0000
 12
14050.0000
 22
-11700.0000
 32
2650.0000
 13
14050.0000
 23
-11600.0000
 33
2650.0000
 70
15
  0
3DFACE
  5
1026
  8
קירות
 10
14050.0000
 20
-11600.0000
 30
2100.0000
 11
13150.0000
 21
-11600.0000
 31
2100.0000
 12
13150.0000
 22
-11700.0000
 32
2100.0000
 13
14050.0000
 23
-11700.0000
 33
2100.0000
 70
15
  0
3DFACE
  5
1027
  8
קירות
 10
14050.0000
 20
-11600.0000
 30
2650.0000
 11
13150.0000
 21
-11600.0000
 31
2650.0000
 12
13150.0000
 22
-11700.0000
 32
2650.0000
 13
14050.0000
 23
-11700.0000
 33
2650.0000
 70
15
  0
3DFACE
  5
1028
  8
קירות
 10
14050.0000
 20
-11600.0000
 30
2100.0000
 11
13150.0000
 21
-11600.0000
 31
2100.0000
 12
13150.0000
 22
-11600.0000
 32
2650.0000
 13
14050.0000
 23
-11600.0000
 33
2650.0000
 70
15
  0
3DFACE
  5
1029
  8
קירות
 10
14050.0000
 20
-11700.0000
 30
2100.0000
 11
13150.0000
 21
-11700.0000
 31
2100.0000
 12
13150.0000
 22
-11700.0000
 32
2650.0000
 13
14050.0000
 23
-11700.0000
 33
2650.0000
 70
15
  0
3DFACE
  5
102A
  8
קירות
 10
14050.0000
 20
-11600.0000
 30
2100.0000
 11
14050.0000
 21
-11700.0000
 31
2100.0000
 12
14050.0000
 22
-11700.0000
 32
2650.0000
 13
14050.0000
 23
-11600.0000
 33
2650.0000
 70
15
  0
3DFACE
  5
102B
  8
קירות
 10
13150.0000
 20
-11600.0000
 30
2100.0000
 11
13150.0000
 21
-11700.0000
 31
2100.0000
 12
13150.0000
 22
-11700.0000
 32
2650.0000
 13
13150.0000
 23
-11600.0000
 33
2650.0000
 70
15
  0
3DFACE
  5
102C
  8
קירות
 10
13150.0000
 20
-11600.0000
 30
0.0000
 11
12100.0000
 21
-11600.0000
 31
0.0000
 12
12100.0000
 22
-11700.0000
 32
0.0000
 13
13150.0000
 23
-11700.0000
 33
0.0000
 70
15
  0
3DFACE
  5
102D
  8
קירות
 10
13150.0000
 20
-11600.0000
 30
2650.0000
 11
12100.0000
 21
-11600.0000
 31
2650.0000
 12
12100.0000
 22
-11700.0000
 32
2650.0000
 13
13150.0000
 23
-11700.0000
 33
2650.0000
 70
15
  0
3DFACE
  5
102E
  8
קירות
 10
13150.0000
 20
-11600.0000
 30
0.0000
 11
12100.0000
 21
-11600.0000
 31
0.0000
 12
12100.0000
 22
-11600.0000
 32
2650.0000
 13
13150.0000
 23
-11600.0000
 33
2650.0000
 70
15
  0
3DFACE
  5
102F
  8
קירות
 10
13150.0000
 20
-11700.0000
 30
0.0000
 11
12100.0000
 21
-11700.0000
 31
0.0000
 12
12100.0000
 22
-11700.0000
 32
2650.0000
 13
13150.0000
 23
-11700.0000
 33
2650.0000
 70
15
  0
3DFACE
  5
1030
  8
קירות
 10
13150.0000
 20
-11600.0000
 30
0.0000
 11
13150.0000
 21
-11700.0000
 31
0.0000
 12
13150.0000
 22
-11700.0000
 32
2650.0000
 13
13150.0000
 23
-11600.0000
 33
2650.0000
 70
15
  0
3DFACE
  5
1031
  8
קירות
 10
12100.0000
 20
-11600.0000
 30
0.0000
 11
12100.0000
 21
-11700.0000
 31
0.0000
 12
12100.0000
 22
-11700.0000
 32
2650.0000
 13
12100.0000
 23
-11600.0000
 33
2650.0000
 70
15
  0
3DFACE
  5
1032
  8
קירות
 10
12100.0000
 20
-11600.0000
 30
2100.0000
 11
11000.0000
 21
-11600.0000
 31
2100.0000
 12
11000.0000
 22
-11700.0000
 32
2100.0000
 13
12100.0000
 23
-11700.0000
 33
2100.0000
 70
15
  0
3DFACE
  5
1033
  8
קירות
 10
12100.0000
 20
-11600.0000
 30
2650.0000
 11
11000.0000
 21
-11600.0000
 31
2650.0000
 12
11000.0000
 22
-11700.0000
 32
2650.0000
 13
12100.0000
 23
-11700.0000
 33
2650.0000
 70
15
  0
3DFACE
  5
1034
  8
קירות
 10
12100.0000
 20
-11600.0000
 30
2100.0000
 11
11000.0000
 21
-11600.0000
 31
2100.0000
 12
11000.0000
 22
-11600.0000
 32
2650.0000
 13
12100.0000
 23
-11600.0000
 33
2650.0000
 70
15
  0
3DFACE
  5
1035
  8
קירות
 10
12100.0000
 20
-11700.0000
 30
2100.0000
 11
11000.0000
 21
-11700.0000
 31
2100.0000
 12
11000.0000
 22
-11700.0000
 32
2650.0000
 13
12100.0000
 23
-11700.0000
 33
2650.0000
 70
15
  0
3DFACE
  5
1036
  8
קירות
 10
12100.0000
 20
-11600.0000
 30
2100.0000
 11
12100.0000
 21
-11700.0000
 31
2100.0000
 12
12100.0000
 22
-11700.0000
 32
2650.0000
 13
12100.0000
 23
-11600.0000
 33
2650.0000
 70
15
  0
3DFACE
  5
1037
  8
קירות
 10
11000.0000
 20
-11600.0000
 30
2100.0000
 11
11000.0000
 21
-11700.0000
 31
2100.0000
 12
11000.0000
 22
-11700.0000
 32
2650.0000
 13
11000.0000
 23
-11600.0000
 33
2650.0000
 70
15
  0
3DFACE
  5
1038
  8
קירות
 10
11000.0000
 20
-11600.0000
 30
0.0000
 11
9850.0000
 21
-11600.0000
 31
0.0000
 12
9850.0000
 22
-11700.0000
 32
0.0000
 13
11000.0000
 23
-11700.0000
 33
0.0000
 70
15
  0
3DFACE
  5
1039
  8
קירות
 10
11000.0000
 20
-11600.0000
 30
2650.0000
 11
9850.0000
 21
-11600.0000
 31
2650.0000
 12
9850.0000
 22
-11700.0000
 32
2650.0000
 13
11000.0000
 23
-11700.0000
 33
2650.0000
 70
15
  0
3DFACE
  5
103A
  8
קירות
 10
11000.0000
 20
-11600.0000
 30
0.0000
 11
9850.0000
 21
-11600.0000
 31
0.0000
 12
9850.0000
 22
-11600.0000
 32
2650.0000
 13
11000.0000
 23
-11600.0000
 33
2650.0000
 70
15
  0
3DFACE
  5
103B
  8
קירות
 10
11000.0000
 20
-11700.0000
 30
0.0000
 11
9850.0000
 21
-11700.0000
 31
0.0000
 12
9850.0000
 22
-11700.0000
 32
2650.0000
 13
11000.0000
 23
-11700.0000
 33
2650.0000
 70
15
  0
3DFACE
  5
103C
  8
קירות
 10
11000.0000
 20
-11600.0000
 30
0.0000
 11
11000.0000
 21
-11700.0000
 31
0.0000
 12
11000.0000
 22
-11700.0000
 32
2650.0000
 13
11000.0000
 23
-11600.0000
 33
2650.0000
 70
15
  0
3DFACE
  5
103D
  8
קירות
 10
9850.0000
 20
-11600.0000
 30
0.0000
 11
9850.0000
 21
-11700.0000
 31
0.0000
 12
9850.0000
 22
-11700.0000
 32
2650.0000
 13
9850.0000
 23
-11600.0000
 33
2650.0000
 70
15
  0
3DFACE
  5
103E
  8
קירות
 10
9850.0000
 20
-11600.0000
 30
2050.0000
 11
8950.0000
 21
-11600.0000
 31
2050.0000
 12
8950.0000
 22
-11700.0000
 32
2050.0000
 13
9850.0000
 23
-11700.0000
 33
2050.0000
 70
15
  0
3DFACE
  5
103F
  8
קירות
 10
9850.0000
 20
-11600.0000
 30
2650.0000
 11
8950.0000
 21
-11600.0000
 31
2650.0000
 12
8950.0000
 22
-11700.0000
 32
2650.0000
 13
9850.0000
 23
-11700.0000
 33
2650.0000
 70
15
  0
3DFACE
  5
1040
  8
קירות
 10
9850.0000
 20
-11600.0000
 30
2050.0000
 11
8950.0000
 21
-11600.0000
 31
2050.0000
 12
8950.0000
 22
-11600.0000
 32
2650.0000
 13
9850.0000
 23
-11600.0000
 33
2650.0000
 70
15
  0
3DFACE
  5
1041
  8
קירות
 10
9850.0000
 20
-11700.0000
 30
2050.0000
 11
8950.0000
 21
-11700.0000
 31
2050.0000
 12
8950.0000
 22
-11700.0000
 32
2650.0000
 13
9850.0000
 23
-11700.0000
 33
2650.0000
 70
15
  0
3DFACE
  5
1042
  8
קירות
 10
9850.0000
 20
-11600.0000
 30
2050.0000
 11
9850.0000
 21
-11700.0000
 31
2050.0000
 12
9850.0000
 22
-11700.0000
 32
2650.0000
 13
9850.0000
 23
-11600.0000
 33
2650.0000
 70
15
  0
3DFACE
  5
1043
  8
קירות
 10
8950.0000
 20
-11600.0000
 30
2050.0000
 11
8950.0000
 21
-11700.0000
 31
2050.0000
 12
8950.0000
 22
-11700.0000
 32
2650.0000
 13
8950.0000
 23
-11600.0000
 33
2650.0000
 70
15
  0
3DFACE
  5
1044
  8
קירות
 10
8950.0000
 20
-11600.0000
 30
0.0000
 11
7900.0000
 21
-11600.0000
 31
0.0000
 12
7900.0000
 22
-11700.0000
 32
0.0000
 13
8950.0000
 23
-11700.0000
 33
0.0000
 70
15
  0
3DFACE
  5
1045
  8
קירות
 10
8950.0000
 20
-11600.0000
 30
2650.0000
 11
7900.0000
 21
-11600.0000
 31
2650.0000
 12
7900.0000
 22
-11700.0000
 32
2650.0000
 13
8950.0000
 23
-11700.0000
 33
2650.0000
 70
15
  0
3DFACE
  5
1046
  8
קירות
 10
8950.0000
 20
-11600.0000
 30
0.0000
 11
7900.0000
 21
-11600.0000
 31
0.0000
 12
7900.0000
 22
-11600.0000
 32
2650.0000
 13
8950.0000
 23
-11600.0000
 33
2650.0000
 70
15
  0
3DFACE
  5
1047
  8
קירות
 10
8950.0000
 20
-11700.0000
 30
0.0000
 11
7900.0000
 21
-11700.0000
 31
0.0000
 12
7900.0000
 22
-11700.0000
 32
2650.0000
 13
8950.0000
 23
-11700.0000
 33
2650.0000
 70
15
  0
3DFACE
  5
1048
  8
קירות
 10
8950.0000
 20
-11600.0000
 30
0.0000
 11
8950.0000
 21
-11700.0000
 31
0.0000
 12
8950.0000
 22
-11700.0000
 32
2650.0000
 13
8950.0000
 23
-11600.0000
 33
2650.0000
 70
15
  0
3DFACE
  5
1049
  8
קירות
 10
7900.0000
 20
-11600.0000
 30
0.0000
 11
7900.0000
 21
-11700.0000
 31
0.0000
 12
7900.0000
 22
-11700.0000
 32
2650.0000
 13
7900.0000
 23
-11600.0000
 33
2650.0000
 70
15
  0
3DFACE
  5
104A
  8
קירות
 10
7900.0000
 20
-11600.0000
 30
0.0000
 11
6700.0000
 21
-11600.0000
 31
0.0000
 12
6700.0000
 22
-11700.0000
 32
0.0000
 13
7900.0000
 23
-11700.0000
 33
0.0000
 70
15
  0
3DFACE
  5
104B
  8
קירות
 10
7900.0000
 20
-11600.0000
 30
300.0000
 11
6700.0000
 21
-11600.0000
 31
300.0000
 12
6700.0000
 22
-11700.0000
 32
300.0000
 13
7900.0000
 23
-11700.0000
 33
300.0000
 70
15
  0
3DFACE
  5
104C
  8
קירות
 10
7900.0000
 20
-11600.0000
 30
0.0000
 11
6700.0000
 21
-11600.0000
 31
0.0000
 12
6700.0000
 22
-11600.0000
 32
300.0000
 13
7900.0000
 23
-11600.0000
 33
300.0000
 70
15
  0
3DFACE
  5
104D
  8
קירות
 10
7900.0000
 20
-11700.0000
 30
0.0000
 11
6700.0000
 21
-11700.0000
 31
0.0000
 12
6700.0000
 22
-11700.0000
 32
300.0000
 13
7900.0000
 23
-11700.0000
 33
300.0000
 70
15
  0
3DFACE
  5
104E
  8
קירות
 10
7900.0000
 20
-11600.0000
 30
0.0000
 11
7900.0000
 21
-11700.0000
 31
0.0000
 12
7900.0000
 22
-11700.0000
 32
300.0000
 13
7900.0000
 23
-11600.0000
 33
300.0000
 70
15
  0
3DFACE
  5
104F
  8
קירות
 10
6700.0000
 20
-11600.0000
 30
0.0000
 11
6700.0000
 21
-11700.0000
 31
0.0000
 12
6700.0000
 22
-11700.0000
 32
300.0000
 13
6700.0000
 23
-11600.0000
 33
300.0000
 70
15
  0
3DFACE
  5
1050
  8
קירות
 10
7900.0000
 20
-11600.0000
 30
1500.0000
 11
6700.0000
 21
-11600.0000
 31
1500.0000
 12
6700.0000
 22
-11700.0000
 32
1500.0000
 13
7900.0000
 23
-11700.0000
 33
1500.0000
 70
15
  0
3DFACE
  5
1051
  8
קירות
 10
7900.0000
 20
-11600.0000
 30
2650.0000
 11
6700.0000
 21
-11600.0000
 31
2650.0000
 12
6700.0000
 22
-11700.0000
 32
2650.0000
 13
7900.0000
 23
-11700.0000
 33
2650.0000
 70
15
  0
3DFACE
  5
1052
  8
קירות
 10
7900.0000
 20
-11600.0000
 30
1500.0000
 11
6700.0000
 21
-11600.0000
 31
1500.0000
 12
6700.0000
 22
-11600.0000
 32
2650.0000
 13
7900.0000
 23
-11600.0000
 33
2650.0000
 70
15
  0
3DFACE
  5
1053
  8
קירות
 10
7900.0000
 20
-11700.0000
 30
1500.0000
 11
6700.0000
 21
-11700.0000
 31
1500.0000
 12
6700.0000
 22
-11700.0000
 32
2650.0000
 13
7900.0000
 23
-11700.0000
 33
2650.0000
 70
15
  0
3DFACE
  5
1054
  8
קירות
 10
7900.0000
 20
-11600.0000
 30
1500.0000
 11
7900.0000
 21
-11700.0000
 31
1500.0000
 12
7900.0000
 22
-11700.0000
 32
2650.0000
 13
7900.0000
 23
-11600.0000
 33
2650.0000
 70
15
  0
3DFACE
  5
1055
  8
קירות
 10
6700.0000
 20
-11600.0000
 30
1500.0000
 11
6700.0000
 21
-11700.0000
 31
1500.0000
 12
6700.0000
 22
-11700.0000
 32
2650.0000
 13
6700.0000
 23
-11600.0000
 33
2650.0000
 70
15
  0
3DFACE
  5
1056
  8
קירות
 10
7900.0000
 20
-11600.0000
 30
0.0000
 11
6700.0000
 21
-11600.0000
 31
0.0000
 12
6700.0000
 22
-11700.0000
 32
0.0000
 13
7900.0000
 23
-11700.0000
 33
0.0000
 70
15
  0
3DFACE
  5
1057
  8
קירות
 10
7900.0000
 20
-11600.0000
 30
750.0000
 11
6700.0000
 21
-11600.0000
 31
750.0000
 12
6700.0000
 22
-11700.0000
 32
750.0000
 13
7900.0000
 23
-11700.0000
 33
750.0000
 70
15
  0
3DFACE
  5
1058
  8
קירות
 10
7900.0000
 20
-11600.0000
 30
0.0000
 11
6700.0000
 21
-11600.0000
 31
0.0000
 12
6700.0000
 22
-11600.0000
 32
750.0000
 13
7900.0000
 23
-11600.0000
 33
750.0000
 70
15
  0
3DFACE
  5
1059
  8
קירות
 10
7900.0000
 20
-11700.0000
 30
0.0000
 11
6700.0000
 21
-11700.0000
 31
0.0000
 12
6700.0000
 22
-11700.0000
 32
750.0000
 13
7900.0000
 23
-11700.0000
 33
750.0000
 70
15
  0
3DFACE
  5
105A
  8
קירות
 10
7900.0000
 20
-11600.0000
 30
0.0000
 11
7900.0000
 21
-11700.0000
 31
0.0000
 12
7900.0000
 22
-11700.0000
 32
750.0000
 13
7900.0000
 23
-11600.0000
 33
750.0000
 70
15
  0
3DFACE
  5
105B
  8
קירות
 10
6700.0000
 20
-11600.0000
 30
0.0000
 11
6700.0000
 21
-11700.0000
 31
0.0000
 12
6700.0000
 22
-11700.0000
 32
750.0000
 13
6700.0000
 23
-11600.0000
 33
750.0000
 70
15
  0
3DFACE
  5
105C
  8
קירות
 10
7900.0000
 20
-11600.0000
 30
850.0000
 11
6700.0000
 21
-11600.0000
 31
850.0000
 12
6700.0000
 22
-11700.0000
 32
850.0000
 13
7900.0000
 23
-11700.0000
 33
850.0000
 70
15
  0
3DFACE
  5
105D
  8
קירות
 10
7900.0000
 20
-11600.0000
 30
2650.0000
 11
6700.0000
 21
-11600.0000
 31
2650.0000
 12
6700.0000
 22
-11700.0000
 32
2650.0000
 13
7900.0000
 23
-11700.0000
 33
2650.0000
 70
15
  0
3DFACE
  5
105E
  8
קירות
 10
7900.0000
 20
-11600.0000
 30
850.0000
 11
6700.0000
 21
-11600.0000
 31
850.0000
 12
6700.0000
 22
-11600.0000
 32
2650.0000
 13
7900.0000
 23
-11600.0000
 33
2650.0000
 70
15
  0
3DFACE
  5
105F
  8
קירות
 10
7900.0000
 20
-11700.0000
 30
850.0000
 11
6700.0000
 21
-11700.0000
 31
850.0000
 12
6700.0000
 22
-11700.0000
 32
2650.0000
 13
7900.0000
 23
-11700.0000
 33
2650.0000
 70
15
  0
3DFACE
  5
1060
  8
קירות
 10
7900.0000
 20
-11600.0000
 30
850.0000
 11
7900.0000
 21
-11700.0000
 31
850.0000
 12
7900.0000
 22
-11700.0000
 32
2650.0000
 13
7900.0000
 23
-11600.0000
 33
2650.0000
 70
15
  0
3DFACE
  5
1061
  8
קירות
 10
6700.0000
 20
-11600.0000
 30
850.0000
 11
6700.0000
 21
-11700.0000
 31
850.0000
 12
6700.0000
 22
-11700.0000
 32
2650.0000
 13
6700.0000
 23
-11600.0000
 33
2650.0000
 70
15
  0
3DFACE
  5
1062
  8
קירות
 10
6700.0000
 20
-11600.0000
 30
0.0000
 11
5500.0000
 21
-11600.0000
 31
0.0000
 12
5500.0000
 22
-11700.0000
 32
0.0000
 13
6700.0000
 23
-11700.0000
 33
0.0000
 70
15
  0
3DFACE
  5
1063
  8
קירות
 10
6700.0000
 20
-11600.0000
 30
2650.0000
 11
5500.0000
 21
-11600.0000
 31
2650.0000
 12
5500.0000
 22
-11700.0000
 32
2650.0000
 13
6700.0000
 23
-11700.0000
 33
2650.0000
 70
15
  0
3DFACE
  5
1064
  8
קירות
 10
6700.0000
 20
-11600.0000
 30
0.0000
 11
5500.0000
 21
-11600.0000
 31
0.0000
 12
5500.0000
 22
-11600.0000
 32
2650.0000
 13
6700.0000
 23
-11600.0000
 33
2650.0000
 70
15
  0
3DFACE
  5
1065
  8
קירות
 10
6700.0000
 20
-11700.0000
 30
0.0000
 11
5500.0000
 21
-11700.0000
 31
0.0000
 12
5500.0000
 22
-11700.0000
 32
2650.0000
 13
6700.0000
 23
-11700.0000
 33
2650.0000
 70
15
  0
3DFACE
  5
1066
  8
קירות
 10
6700.0000
 20
-11600.0000
 30
0.0000
 11
6700.0000
 21
-11700.0000
 31
0.0000
 12
6700.0000
 22
-11700.0000
 32
2650.0000
 13
6700.0000
 23
-11600.0000
 33
2650.0000
 70
15
  0
3DFACE
  5
1067
  8
קירות
 10
5500.0000
 20
-11600.0000
 30
0.0000
 11
5500.0000
 21
-11700.0000
 31
0.0000
 12
5500.0000
 22
-11700.0000
 32
2650.0000
 13
5500.0000
 23
-11600.0000
 33
2650.0000
 70
15
  0
3DFACE
  5
1068
  8
קירות
 10
5500.0000
 20
-11600.0000
 30
0.0000
 11
3900.0000
 21
-11600.0000
 31
0.0000
 12
3900.0000
 22
-11700.0000
 32
0.0000
 13
5500.0000
 23
-11700.0000
 33
0.0000
 70
15
  0
3DFACE
  5
1069
  8
קירות
 10
5500.0000
 20
-11600.0000
 30
150.0000
 11
3900.0000
 21
-11600.0000
 31
150.0000
 12
3900.0000
 22
-11700.0000
 32
150.0000
 13
5500.0000
 23
-11700.0000
 33
150.0000
 70
15
  0
3DFACE
  5
106A
  8
קירות
 10
5500.0000
 20
-11600.0000
 30
0.0000
 11
3900.0000
 21
-11600.0000
 31
0.0000
 12
3900.0000
 22
-11600.0000
 32
150.0000
 13
5500.0000
 23
-11600.0000
 33
150.0000
 70
15
  0
3DFACE
  5
106B
  8
קירות
 10
5500.0000
 20
-11700.0000
 30
0.0000
 11
3900.0000
 21
-11700.0000
 31
0.0000
 12
3900.0000
 22
-11700.0000
 32
150.0000
 13
5500.0000
 23
-11700.0000
 33
150.0000
 70
15
  0
3DFACE
  5
106C
  8
קירות
 10
5500.0000
 20
-11600.0000
 30
0.0000
 11
5500.0000
 21
-11700.0000
 31
0.0000
 12
5500.0000
 22
-11700.0000
 32
150.0000
 13
5500.0000
 23
-11600.0000
 33
150.0000
 70
15
  0
3DFACE
  5
106D
  8
קירות
 10
3900.0000
 20
-11600.0000
 30
0.0000
 11
3900.0000
 21
-11700.0000
 31
0.0000
 12
3900.0000
 22
-11700.0000
 32
150.0000
 13
3900.0000
 23
-11600.0000
 33
150.0000
 70
15
  0
3DFACE
  5
106E
  8
קירות
 10
5500.0000
 20
-11600.0000
 30
1550.0000
 11
3900.0000
 21
-11600.0000
 31
1550.0000
 12
3900.0000
 22
-11700.0000
 32
1550.0000
 13
5500.0000
 23
-11700.0000
 33
1550.0000
 70
15
  0
3DFACE
  5
106F
  8
קירות
 10
5500.0000
 20
-11600.0000
 30
2650.0000
 11
3900.0000
 21
-11600.0000
 31
2650.0000
 12
3900.0000
 22
-11700.0000
 32
2650.0000
 13
5500.0000
 23
-11700.0000
 33
2650.0000
 70
15
  0
3DFACE
  5
1070
  8
קירות
 10
5500.0000
 20
-11600.0000
 30
1550.0000
 11
3900.0000
 21
-11600.0000
 31
1550.0000
 12
3900.0000
 22
-11600.0000
 32
2650.0000
 13
5500.0000
 23
-11600.0000
 33
2650.0000
 70
15
  0
3DFACE
  5
1071
  8
קירות
 10
5500.0000
 20
-11700.0000
 30
1550.0000
 11
3900.0000
 21
-11700.0000
 31
1550.0000
 12
3900.0000
 22
-11700.0000
 32
2650.0000
 13
5500.0000
 23
-11700.0000
 33
2650.0000
 70
15
  0
3DFACE
  5
1072
  8
קירות
 10
5500.0000
 20
-11600.0000
 30
1550.0000
 11
5500.0000
 21
-11700.0000
 31
1550.0000
 12
5500.0000
 22
-11700.0000
 32
2650.0000
 13
5500.0000
 23
-11600.0000
 33
2650.0000
 70
15
  0
3DFACE
  5
1073
  8
קירות
 10
3900.0000
 20
-11600.0000
 30
1550.0000
 11
3900.0000
 21
-11700.0000
 31
1550.0000
 12
3900.0000
 22
-11700.0000
 32
2650.0000
 13
3900.0000
 23
-11600.0000
 33
2650.0000
 70
15
  0
3DFACE
  5
1074
  8
קירות
 10
3900.0000
 20
-11600.0000
 30
0.0000
 11
-100.0000
 21
-11600.0000
 31
0.0000
 12
-100.0000
 22
-11700.0000
 32
0.0000
 13
3900.0000
 23
-11700.0000
 33
0.0000
 70
15
  0
3DFACE
  5
1075
  8
קירות
 10
3900.0000
 20
-11600.0000
 30
2650.0000
 11
-100.0000
 21
-11600.0000
 31
2650.0000
 12
-100.0000
 22
-11700.0000
 32
2650.0000
 13
3900.0000
 23
-11700.0000
 33
2650.0000
 70
15
  0
3DFACE
  5
1076
  8
קירות
 10
3900.0000
 20
-11600.0000
 30
0.0000
 11
-100.0000
 21
-11600.0000
 31
0.0000
 12
-100.0000
 22
-11600.0000
 32
2650.0000
 13
3900.0000
 23
-11600.0000
 33
2650.0000
 70
15
  0
3DFACE
  5
1077
  8
קירות
 10
3900.0000
 20
-11700.0000
 30
0.0000
 11
-100.0000
 21
-11700.0000
 31
0.0000
 12
-100.0000
 22
-11700.0000
 32
2650.0000
 13
3900.0000
 23
-11700.0000
 33
2650.0000
 70
15
  0
3DFACE
  5
1078
  8
קירות
 10
3900.0000
 20
-11600.0000
 30
0.0000
 11
3900.0000
 21
-11700.0000
 31
0.0000
 12
3900.0000
 22
-11700.0000
 32
2650.0000
 13
3900.0000
 23
-11600.0000
 33
2650.0000
 70
15
  0
3DFACE
  5
1079
  8
קירות
 10
-100.0000
 20
-11600.0000
 30
0.0000
 11
-100.0000
 21
-11700.0000
 31
0.0000
 12
-100.0000
 22
-11700.0000
 32
2650.0000
 13
-100.0000
 23
-11600.0000
 33
2650.0000
 70
15
  0
3DFACE
  5
107A
  8
קירות
 10
0.0000
 20
-11700.0000
 30
0.0000
 11
0.0000
 21
100.0000
 31
0.0000
 12
-100.0000
 22
100.0000
 32
0.0000
 13
-100.0000
 23
-11700.0000
 33
0.0000
 70
15
  0
3DFACE
  5
107B
  8
קירות
 10
0.0000
 20
-11700.0000
 30
2650.0000
 11
0.0000
 21
100.0000
 31
2650.0000
 12
-100.0000
 22
100.0000
 32
2650.0000
 13
-100.0000
 23
-11700.0000
 33
2650.0000
 70
15
  0
3DFACE
  5
107C
  8
קירות
 10
0.0000
 20
-11700.0000
 30
0.0000
 11
0.0000
 21
100.0000
 31
0.0000
 12
0.0000
 22
100.0000
 32
2650.0000
 13
0.0000
 23
-11700.0000
 33
2650.0000
 70
15
  0
3DFACE
  5
107D
  8
קירות
 10
-100.0000
 20
-11700.0000
 30
0.0000
 11
-100.0000
 21
100.0000
 31
0.0000
 12
-100.0000
 22
100.0000
 32
2650.0000
 13
-100.0000
 23
-11700.0000
 33
2650.0000
 70
15
  0
3DFACE
  5
107E
  8
קירות
 10
0.0000
 20
-11700.0000
 30
0.0000
 11
-100.0000
 21
-11700.0000
 31
0.0000
 12
-100.0000
 22
-11700.0000
 32
2650.0000
 13
0.0000
 23
-11700.0000
 33
2650.0000
 70
15
  0
3DFACE
  5
107F
  8
קירות
 10
0.0000
 20
100.0000
 30
0.0000
 11
-100.0000
 21
100.0000
 31
0.0000
 12
-100.0000
 22
100.0000
 32
2650.0000
 13
0.0000
 23
100.0000
 33
2650.0000
 70
15
  0
3DFACE
  5
1080
  8
דלתות
 10
16000.0000
 20
-11550.0000
 30
0.0000
 11
15960.0000
 21
-11550.0000
 31
0.0000
 12
15960.0000
 22
-11650.0000
 32
0.0000
 13
16000.0000
 23
-11650.0000
 33
0.0000
 70
15
  0
3DFACE
  5
1081
  8
דלתות
 10
16000.0000
 20
-11550.0000
 30
2050.0000
 11
15960.0000
 21
-11550.0000
 31
2050.0000
 12
15960.0000
 22
-11650.0000
 32
2050.0000
 13
16000.0000
 23
-11650.0000
 33
2050.0000
 70
15
  0
3DFACE
  5
1082
  8
דלתות
 10
16000.0000
 20
-11550.0000
 30
0.0000
 11
15960.0000
 21
-11550.0000
 31
0.0000
 12
15960.0000
 22
-11550.0000
 32
2050.0000
 13
16000.0000
 23
-11550.0000
 33
2050.0000
 70
15
  0
3DFACE
  5
1083
  8
דלתות
 10
15960.0000
 20
-11550.0000
 30
0.0000
 11
15960.0000
 21
-11650.0000
 31
0.0000
 12
15960.0000
 22
-11650.0000
 32
2050.0000
 13
15960.0000
 23
-11550.0000
 33
2050.0000
 70
15
  0
3DFACE
  5
1084
  8
דלתות
 10
15960.0000
 20
-11650.0000
 30
0.0000
 11
16000.0000
 21
-11650.0000
 31
0.0000
 12
16000.0000
 22
-11650.0000
 32
2050.0000
 13
15960.0000
 23
-11650.0000
 33
2050.0000
 70
15
  0
3DFACE
  5
1085
  8
דלתות
 10
16000.0000
 20
-11650.0000
 30
0.0000
 11
16000.0000
 21
-11550.0000
 31
0.0000
 12
16000.0000
 22
-11550.0000
 32
2050.0000
 13
16000.0000
 23
-11650.0000
 33
2050.0000
 70
15
  0
3DFACE
  5
1086
  8
דלתות
 10
15140.0000
 20
-11550.0000
 30
0.0000
 11
15100.0000
 21
-11550.0000
 31
0.0000
 12
15100.0000
 22
-11650.0000
 32
0.0000
 13
15140.0000
 23
-11650.0000
 33
0.0000
 70
15
  0
3DFACE
  5
1087
  8
דלתות
 10
15140.0000
 20
-11550.0000
 30
2050.0000
 11
15100.0000
 21
-11550.0000
 31
2050.0000
 12
15100.0000
 22
-11650.0000
 32
2050.0000
 13
15140.0000
 23
-11650.0000
 33
2050.0000
 70
15
  0
3DFACE
  5
1088
  8
דלתות
 10
15140.0000
 20
-11550.0000
 30
0.0000
 11
15100.0000
 21
-11550.0000
 31
0.0000
 12
15100.0000
 22
-11550.0000
 32
2050.0000
 13
15140.0000
 23
-11550.0000
 33
2050.0000
 70
15
  0
3DFACE
  5
1089
  8
דלתות
 10
15100.0000
 20
-11550.0000
 30
0.0000
 11
15100.0000
 21
-11650.0000
 31
0.0000
 12
15100.0000
 22
-11650.0000
 32
2050.0000
 13
15100.0000
 23
-11550.0000
 33
2050.0000
 70
15
  0
3DFACE
  5
108A
  8
דלתות
 10
15100.0000
 20
-11650.0000
 30
0.0000
 11
15140.0000
 21
-11650.0000
 31
0.0000
 12
15140.0000
 22
-11650.0000
 32
2050.0000
 13
15100.0000
 23
-11650.0000
 33
2050.0000
 70
15
  0
3DFACE
  5
108B
  8
דלתות
 10
15140.0000
 20
-11650.0000
 30
0.0000
 11
15140.0000
 21
-11550.0000
 31
0.0000
 12
15140.0000
 22
-11550.0000
 32
2050.0000
 13
15140.0000
 23
-11650.0000
 33
2050.0000
 70
15
  0
3DFACE
  5
108C
  8
דלתות
 10
16000.0000
 20
-11550.0000
 30
2010.0000
 11
15100.0000
 21
-11550.0000
 31
2010.0000
 12
15100.0000
 22
-11650.0000
 32
2010.0000
 13
16000.0000
 23
-11650.0000
 33
2010.0000
 70
15
  0
3DFACE
  5
108D
  8
דלתות
 10
16000.0000
 20
-11550.0000
 30
2050.0000
 11
15100.0000
 21
-11550.0000
 31
2050.0000
 12
15100.0000
 22
-11650.0000
 32
2050.0000
 13
16000.0000
 23
-11650.0000
 33
2050.0000
 70
15
  0
3DFACE
  5
108E
  8
דלתות
 10
16000.0000
 20
-11550.0000
 30
2010.0000
 11
15100.0000
 21
-11550.0000
 31
2010.0000
 12
15100.0000
 22
-11550.0000
 32
2050.0000
 13
16000.0000
 23
-11550.0000
 33
2050.0000
 70
15
  0
3DFACE
  5
108F
  8
דלתות
 10
15100.0000
 20
-11550.0000
 30
2010.0000
 11
15100.0000
 21
-11650.0000
 31
2010.0000
 12
15100.0000
 22
-11650.0000
 32
2050.0000
 13
15100.0000
 23
-11550.0000
 33
2050.0000
 70
15
  0
3DFACE
  5
1090
  8
דלתות
 10
15100.0000
 20
-11650.0000
 30
2010.0000
 11
16000.0000
 21
-11650.0000
 31
2010.0000
 12
16000.0000
 22
-11650.0000
 32
2050.0000
 13
15100.0000
 23
-11650.0000
 33
2050.0000
 70
15
  0
3DFACE
  5
1091
  8
דלתות
 10
16000.0000
 20
-11650.0000
 30
2010.0000
 11
16000.0000
 21
-11550.0000
 31
2010.0000
 12
16000.0000
 22
-11550.0000
 32
2050.0000
 13
16000.0000
 23
-11650.0000
 33
2050.0000
 70
15
  0
3DFACE
  5
1092
  8
דלתות
 10
16000.0000
 20
-11550.0000
 30
0.0000
 11
15100.0000
 21
-11550.0000
 31
0.0000
 12
15100.0000
 22
-11650.0000
 32
0.0000
 13
16000.0000
 23
-11650.0000
 33
0.0000
 70
15
  0
3DFACE
  5
1093
  8
דלתות
 10
16000.0000
 20
-11550.0000
 30
30.0000
 11
15100.0000
 21
-11550.0000
 31
30.0000
 12
15100.0000
 22
-11650.0000
 32
30.0000
 13
16000.0000
 23
-11650.0000
 33
30.0000
 70
15
  0
3DFACE
  5
1094
  8
דלתות
 10
16000.0000
 20
-11550.0000
 30
0.0000
 11
15100.0000
 21
-11550.0000
 31
0.0000
 12
15100.0000
 22
-11550.0000
 32
30.0000
 13
16000.0000
 23
-11550.0000
 33
30.0000
 70
15
  0
3DFACE
  5
1095
  8
דלתות
 10
15100.0000
 20
-11550.0000
 30
0.0000
 11
15100.0000
 21
-11650.0000
 31
0.0000
 12
15100.0000
 22
-11650.0000
 32
30.0000
 13
15100.0000
 23
-11550.0000
 33
30.0000
 70
15
  0
3DFACE
  5
1096
  8
דלתות
 10
15100.0000
 20
-11650.0000
 30
0.0000
 11
16000.0000
 21
-11650.0000
 31
0.0000
 12
16000.0000
 22
-11650.0000
 32
30.0000
 13
15100.0000
 23
-11650.0000
 33
30.0000
 70
15
  0
3DFACE
  5
1097
  8
דלתות
 10
16000.0000
 20
-11650.0000
 30
0.0000
 11
16000.0000
 21
-11550.0000
 31
0.0000
 12
16000.0000
 22
-11550.0000
 32
30.0000
 13
16000.0000
 23
-11650.0000
 33
30.0000
 70
15
  0
3DFACE
  5
1098
  8
דלתות
 10
14050.0000
 20
-11550.0000
 30
0.0000
 11
14010.0000
 21
-11550.0000
 31
0.0000
 12
14010.0000
 22
-11650.0000
 32
0.0000
 13
14050.0000
 23
-11650.0000
 33
0.0000
 70
15
  0
3DFACE
  5
1099
  8
דלתות
 10
14050.0000
 20
-11550.0000
 30
2100.0000
 11
14010.0000
 21
-11550.0000
 31
2100.0000
 12
14010.0000
 22
-11650.0000
 32
2100.0000
 13
14050.0000
 23
-11650.0000
 33
2100.0000
 70
15
  0
3DFACE
  5
109A
  8
דלתות
 10
14050.0000
 20
-11550.0000
 30
0.0000
 11
14010.0000
 21
-11550.0000
 31
0.0000
 12
14010.0000
 22
-11550.0000
 32
2100.0000
 13
14050.0000
 23
-11550.0000
 33
2100.0000
 70
15
  0
3DFACE
  5
109B
  8
דלתות
 10
14010.0000
 20
-11550.0000
 30
0.0000
 11
14010.0000
 21
-11650.0000
 31
0.0000
 12
14010.0000
 22
-11650.0000
 32
2100.0000
 13
14010.0000
 23
-11550.0000
 33
2100.0000
 70
15
  0
3DFACE
  5
109C
  8
דלתות
 10
14010.0000
 20
-11650.0000
 30
0.0000
 11
14050.0000
 21
-11650.0000
 31
0.0000
 12
14050.0000
 22
-11650.0000
 32
2100.0000
 13
14010.0000
 23
-11650.0000
 33
2100.0000
 70
15
  0
3DFACE
  5
109D
  8
דלתות
 10
14050.0000
 20
-11650.0000
 30
0.0000
 11
14050.0000
 21
-11550.0000
 31
0.0000
 12
14050.0000
 22
-11550.0000
 32
2100.0000
 13
14050.0000
 23
-11650.0000
 33
2100.0000
 70
15
  0
3DFACE
  5
109E
  8
דלתות
 10
13190.0000
 20
-11550.0000
 30
0.0000
 11
13150.0000
 21
-11550.0000
 31
0.0000
 12
13150.0000
 22
-11650.0000
 32
0.0000
 13
13190.0000
 23
-11650.0000
 33
0.0000
 70
15
  0
3DFACE
  5
109F
  8
דלתות
 10
13190.0000
 20
-11550.0000
 30
2100.0000
 11
13150.0000
 21
-11550.0000
 31
2100.0000
 12
13150.0000
 22
-11650.0000
 32
2100.0000
 13
13190.0000
 23
-11650.0000
 33
2100.0000
 70
15
  0
3DFACE
  5
10A0
  8
דלתות
 10
13190.0000
 20
-11550.0000
 30
0.0000
 11
13150.0000
 21
-11550.0000
 31
0.0000
 12
13150.0000
 22
-11550.0000
 32
2100.0000
 13
13190.0000
 23
-11550.0000
 33
2100.0000
 70
15
  0
3DFACE
  5
10A1
  8
דלתות
 10
13150.0000
 20
-11550.0000
 30
0.0000
 11
13150.0000
 21
-11650.0000
 31
0.0000
 12
13150.0000
 22
-11650.0000
 32
2100.0000
 13
13150.0000
 23
-11550.0000
 33
2100.0000
 70
15
  0
3DFACE
  5
10A2
  8
דלתות
 10
13150.0000
 20
-11650.0000
 30
0.0000
 11
13190.0000
 21
-11650.0000
 31
0.0000
 12
13190.0000
 22
-11650.0000
 32
2100.0000
 13
13150.0000
 23
-11650.0000
 33
2100.0000
 70
15
  0
3DFACE
  5
10A3
  8
דלתות
 10
13190.0000
 20
-11650.0000
 30
0.0000
 11
13190.0000
 21
-11550.0000
 31
0.0000
 12
13190.0000
 22
-11550.0000
 32
2100.0000
 13
13190.0000
 23
-11650.0000
 33
2100.0000
 70
15
  0
3DFACE
  5
10A4
  8
דלתות
 10
14050.0000
 20
-11550.0000
 30
2060.0000
 11
13150.0000
 21
-11550.0000
 31
2060.0000
 12
13150.0000
 22
-11650.0000
 32
2060.0000
 13
14050.0000
 23
-11650.0000
 33
2060.0000
 70
15
  0
3DFACE
  5
10A5
  8
דלתות
 10
14050.0000
 20
-11550.0000
 30
2100.0000
 11
13150.0000
 21
-11550.0000
 31
2100.0000
 12
13150.0000
 22
-11650.0000
 32
2100.0000
 13
14050.0000
 23
-11650.0000
 33
2100.0000
 70
15
  0
3DFACE
  5
10A6
  8
דלתות
 10
14050.0000
 20
-11550.0000
 30
2060.0000
 11
13150.0000
 21
-11550.0000
 31
2060.0000
 12
13150.0000
 22
-11550.0000
 32
2100.0000
 13
14050.0000
 23
-11550.0000
 33
2100.0000
 70
15
  0
3DFACE
  5
10A7
  8
דלתות
 10
13150.0000
 20
-11550.0000
 30
2060.0000
 11
13150.0000
 21
-11650.0000
 31
2060.0000
 12
13150.0000
 22
-11650.0000
 32
2100.0000
 13
13150.0000
 23
-11550.0000
 33
2100.0000
 70
15
  0
3DFACE
  5
10A8
  8
דלתות
 10
13150.0000
 20
-11650.0000
 30
2060.0000
 11
14050.0000
 21
-11650.0000
 31
2060.0000
 12
14050.0000
 22
-11650.0000
 32
2100.0000
 13
13150.0000
 23
-11650.0000
 33
2100.0000
 70
15
  0
3DFACE
  5
10A9
  8
דלתות
 10
14050.0000
 20
-11650.0000
 30
2060.0000
 11
14050.0000
 21
-11550.0000
 31
2060.0000
 12
14050.0000
 22
-11550.0000
 32
2100.0000
 13
14050.0000
 23
-11650.0000
 33
2100.0000
 70
15
  0
3DFACE
  5
10AA
  8
דלתות
 10
14050.0000
 20
-11550.0000
 30
0.0000
 11
13150.0000
 21
-11550.0000
 31
0.0000
 12
13150.0000
 22
-11650.0000
 32
0.0000
 13
14050.0000
 23
-11650.0000
 33
0.0000
 70
15
  0
3DFACE
  5
10AB
  8
דלתות
 10
14050.0000
 20
-11550.0000
 30
30.0000
 11
13150.0000
 21
-11550.0000
 31
30.0000
 12
13150.0000
 22
-11650.0000
 32
30.0000
 13
14050.0000
 23
-11650.0000
 33
30.0000
 70
15
  0
3DFACE
  5
10AC
  8
דלתות
 10
14050.0000
 20
-11550.0000
 30
0.0000
 11
13150.0000
 21
-11550.0000
 31
0.0000
 12
13150.0000
 22
-11550.0000
 32
30.0000
 13
14050.0000
 23
-11550.0000
 33
30.0000
 70
15
  0
3DFACE
  5
10AD
  8
דלתות
 10
13150.0000
 20
-11550.0000
 30
0.0000
 11
13150.0000
 21
-11650.0000
 31
0.0000
 12
13150.0000
 22
-11650.0000
 32
30.0000
 13
13150.0000
 23
-11550.0000
 33
30.0000
 70
15
  0
3DFACE
  5
10AE
  8
דלתות
 10
13150.0000
 20
-11650.0000
 30
0.0000
 11
14050.0000
 21
-11650.0000
 31
0.0000
 12
14050.0000
 22
-11650.0000
 32
30.0000
 13
13150.0000
 23
-11650.0000
 33
30.0000
 70
15
  0
3DFACE
  5
10AF
  8
דלתות
 10
14050.0000
 20
-11650.0000
 30
0.0000
 11
14050.0000
 21
-11550.0000
 31
0.0000
 12
14050.0000
 22
-11550.0000
 32
30.0000
 13
14050.0000
 23
-11650.0000
 33
30.0000
 70
15
  0
3DFACE
  5
10B0
  8
דלתות
 10
12100.0000
 20
-11550.0000
 30
0.0000
 11
12060.0000
 21
-11550.0000
 31
0.0000
 12
12060.0000
 22
-11650.0000
 32
0.0000
 13
12100.0000
 23
-11650.0000
 33
0.0000
 70
15
  0
3DFACE
  5
10B1
  8
דלתות
 10
12100.0000
 20
-11550.0000
 30
2100.0000
 11
12060.0000
 21
-11550.0000
 31
2100.0000
 12
12060.0000
 22
-11650.0000
 32
2100.0000
 13
12100.0000
 23
-11650.0000
 33
2100.0000
 70
15
  0
3DFACE
  5
10B2
  8
דלתות
 10
12100.0000
 20
-11550.0000
 30
0.0000
 11
12060.0000
 21
-11550.0000
 31
0.0000
 12
12060.0000
 22
-11550.0000
 32
2100.0000
 13
12100.0000
 23
-11550.0000
 33
2100.0000
 70
15
  0
3DFACE
  5
10B3
  8
דלתות
 10
12060.0000
 20
-11550.0000
 30
0.0000
 11
12060.0000
 21
-11650.0000
 31
0.0000
 12
12060.0000
 22
-11650.0000
 32
2100.0000
 13
12060.0000
 23
-11550.0000
 33
2100.0000
 70
15
  0
3DFACE
  5
10B4
  8
דלתות
 10
12060.0000
 20
-11650.0000
 30
0.0000
 11
12100.0000
 21
-11650.0000
 31
0.0000
 12
12100.0000
 22
-11650.0000
 32
2100.0000
 13
12060.0000
 23
-11650.0000
 33
2100.0000
 70
15
  0
3DFACE
  5
10B5
  8
דלתות
 10
12100.0000
 20
-11650.0000
 30
0.0000
 11
12100.0000
 21
-11550.0000
 31
0.0000
 12
12100.0000
 22
-11550.0000
 32
2100.0000
 13
12100.0000
 23
-11650.0000
 33
2100.0000
 70
15
  0
3DFACE
  5
10B6
  8
דלתות
 10
11040.0000
 20
-11550.0000
 30
0.0000
 11
11000.0000
 21
-11550.0000
 31
0.0000
 12
11000.0000
 22
-11650.0000
 32
0.0000
 13
11040.0000
 23
-11650.0000
 33
0.0000
 70
15
  0
3DFACE
  5
10B7
  8
דלתות
 10
11040.0000
 20
-11550.0000
 30
2100.0000
 11
11000.0000
 21
-11550.0000
 31
2100.0000
 12
11000.0000
 22
-11650.0000
 32
2100.0000
 13
11040.0000
 23
-11650.0000
 33
2100.0000
 70
15
  0
3DFACE
  5
10B8
  8
דלתות
 10
11040.0000
 20
-11550.0000
 30
0.0000
 11
11000.0000
 21
-11550.0000
 31
0.0000
 12
11000.0000
 22
-11550.0000
 32
2100.0000
 13
11040.0000
 23
-11550.0000
 33
2100.0000
 70
15
  0
3DFACE
  5
10B9
  8
דלתות
 10
11000.0000
 20
-11550.0000
 30
0.0000
 11
11000.0000
 21
-11650.0000
 31
0.0000
 12
11000.0000
 22
-11650.0000
 32
2100.0000
 13
11000.0000
 23
-11550.0000
 33
2100.0000
 70
15
  0
3DFACE
  5
10BA
  8
דלתות
 10
11000.0000
 20
-11650.0000
 30
0.0000
 11
11040.0000
 21
-11650.0000
 31
0.0000
 12
11040.0000
 22
-11650.0000
 32
2100.0000
 13
11000.0000
 23
-11650.0000
 33
2100.0000
 70
15
  0
3DFACE
  5
10BB
  8
דלתות
 10
11040.0000
 20
-11650.0000
 30
0.0000
 11
11040.0000
 21
-11550.0000
 31
0.0000
 12
11040.0000
 22
-11550.0000
 32
2100.0000
 13
11040.0000
 23
-11650.0000
 33
2100.0000
 70
15
  0
3DFACE
  5
10BC
  8
דלתות
 10
12100.0000
 20
-11550.0000
 30
2060.0000
 11
11000.0000
 21
-11550.0000
 31
2060.0000
 12
11000.0000
 22
-11650.0000
 32
2060.0000
 13
12100.0000
 23
-11650.0000
 33
2060.0000
 70
15
  0
3DFACE
  5
10BD
  8
דלתות
 10
12100.0000
 20
-11550.0000
 30
2100.0000
 11
11000.0000
 21
-11550.0000
 31
2100.0000
 12
11000.0000
 22
-11650.0000
 32
2100.0000
 13
12100.0000
 23
-11650.0000
 33
2100.0000
 70
15
  0
3DFACE
  5
10BE
  8
דלתות
 10
12100.0000
 20
-11550.0000
 30
2060.0000
 11
11000.0000
 21
-11550.0000
 31
2060.0000
 12
11000.0000
 22
-11550.0000
 32
2100.0000
 13
12100.0000
 23
-11550.0000
 33
2100.0000
 70
15
  0
3DFACE
  5
10BF
  8
דלתות
 10
11000.0000
 20
-11550.0000
 30
2060.0000
 11
11000.0000
 21
-11650.0000
 31
2060.0000
 12
11000.0000
 22
-11650.0000
 32
2100.0000
 13
11000.0000
 23
-11550.0000
 33
2100.0000
 70
15
  0
3DFACE
  5
10C0
  8
דלתות
 10
11000.0000
 20
-11650.0000
 30
2060.0000
 11
12100.0000
 21
-11650.0000
 31
2060.0000
 12
12100.0000
 22
-11650.0000
 32
2100.0000
 13
11000.0000
 23
-11650.0000
 33
2100.0000
 70
15
  0
3DFACE
  5
10C1
  8
דלתות
 10
12100.0000
 20
-11650.0000
 30
2060.0000
 11
12100.0000
 21
-11550.0000
 31
2060.0000
 12
12100.0000
 22
-11550.0000
 32
2100.0000
 13
12100.0000
 23
-11650.0000
 33
2100.0000
 70
15
  0
3DFACE
  5
10C2
  8
דלתות
 10
12100.0000
 20
-11550.0000
 30
0.0000
 11
11000.0000
 21
-11550.0000
 31
0.0000
 12
11000.0000
 22
-11650.0000
 32
0.0000
 13
12100.0000
 23
-11650.0000
 33
0.0000
 70
15
  0
3DFACE
  5
10C3
  8
דלתות
 10
12100.0000
 20
-11550.0000
 30
30.0000
 11
11000.0000
 21
-11550.0000
 31
30.0000
 12
11000.0000
 22
-11650.0000
 32
30.0000
 13
12100.0000
 23
-11650.0000
 33
30.0000
 70
15
  0
3DFACE
  5
10C4
  8
דלתות
 10
12100.0000
 20
-11550.0000
 30
0.0000
 11
11000.0000
 21
-11550.0000
 31
0.0000
 12
11000.0000
 22
-11550.0000
 32
30.0000
 13
12100.0000
 23
-11550.0000
 33
30.0000
 70
15
  0
3DFACE
  5
10C5
  8
דלתות
 10
11000.0000
 20
-11550.0000
 30
0.0000
 11
11000.0000
 21
-11650.0000
 31
0.0000
 12
11000.0000
 22
-11650.0000
 32
30.0000
 13
11000.0000
 23
-11550.0000
 33
30.0000
 70
15
  0
3DFACE
  5
10C6
  8
דלתות
 10
11000.0000
 20
-11650.0000
 30
0.0000
 11
12100.0000
 21
-11650.0000
 31
0.0000
 12
12100.0000
 22
-11650.0000
 32
30.0000
 13
11000.0000
 23
-11650.0000
 33
30.0000
 70
15
  0
3DFACE
  5
10C7
  8
דלתות
 10
12100.0000
 20
-11650.0000
 30
0.0000
 11
12100.0000
 21
-11550.0000
 31
0.0000
 12
12100.0000
 22
-11550.0000
 32
30.0000
 13
12100.0000
 23
-11650.0000
 33
30.0000
 70
15
  0
3DFACE
  5
10C8
  8
דלתות
 10
9850.0000
 20
-11550.0000
 30
0.0000
 11
9810.0000
 21
-11550.0000
 31
0.0000
 12
9810.0000
 22
-11650.0000
 32
0.0000
 13
9850.0000
 23
-11650.0000
 33
0.0000
 70
15
  0
3DFACE
  5
10C9
  8
דלתות
 10
9850.0000
 20
-11550.0000
 30
2050.0000
 11
9810.0000
 21
-11550.0000
 31
2050.0000
 12
9810.0000
 22
-11650.0000
 32
2050.0000
 13
9850.0000
 23
-11650.0000
 33
2050.0000
 70
15
  0
3DFACE
  5
10CA
  8
דלתות
 10
9850.0000
 20
-11550.0000
 30
0.0000
 11
9810.0000
 21
-11550.0000
 31
0.0000
 12
9810.0000
 22
-11550.0000
 32
2050.0000
 13
9850.0000
 23
-11550.0000
 33
2050.0000
 70
15
  0
3DFACE
  5
10CB
  8
דלתות
 10
9810.0000
 20
-11550.0000
 30
0.0000
 11
9810.0000
 21
-11650.0000
 31
0.0000
 12
9810.0000
 22
-11650.0000
 32
2050.0000
 13
9810.0000
 23
-11550.0000
 33
2050.0000
 70
15
  0
3DFACE
  5
10CC
  8
דלתות
 10
9810.0000
 20
-11650.0000
 30
0.0000
 11
9850.0000
 21
-11650.0000
 31
0.0000
 12
9850.0000
 22
-11650.0000
 32
2050.0000
 13
9810.0000
 23
-11650.0000
 33
2050.0000
 70
15
  0
3DFACE
  5
10CD
  8
דלתות
 10
9850.0000
 20
-11650.0000
 30
0.0000
 11
9850.0000
 21
-11550.0000
 31
0.0000
 12
9850.0000
 22
-11550.0000
 32
2050.0000
 13
9850.0000
 23
-11650.0000
 33
2050.0000
 70
15
  0
3DFACE
  5
10CE
  8
דלתות
 10
8990.0000
 20
-11550.0000
 30
0.0000
 11
8950.0000
 21
-11550.0000
 31
0.0000
 12
8950.0000
 22
-11650.0000
 32
0.0000
 13
8990.0000
 23
-11650.0000
 33
0.0000
 70
15
  0
3DFACE
  5
10CF
  8
דלתות
 10
8990.0000
 20
-11550.0000
 30
2050.0000
 11
8950.0000
 21
-11550.0000
 31
2050.0000
 12
8950.0000
 22
-11650.0000
 32
2050.0000
 13
8990.0000
 23
-11650.0000
 33
2050.0000
 70
15
  0
3DFACE
  5
10D0
  8
דלתות
 10
8990.0000
 20
-11550.0000
 30
0.0000
 11
8950.0000
 21
-11550.0000
 31
0.0000
 12
8950.0000
 22
-11550.0000
 32
2050.0000
 13
8990.0000
 23
-11550.0000
 33
2050.0000
 70
15
  0
3DFACE
  5
10D1
  8
דלתות
 10
8950.0000
 20
-11550.0000
 30
0.0000
 11
8950.0000
 21
-11650.0000
 31
0.0000
 12
8950.0000
 22
-11650.0000
 32
2050.0000
 13
8950.0000
 23
-11550.0000
 33
2050.0000
 70
15
  0
3DFACE
  5
10D2
  8
דלתות
 10
8950.0000
 20
-11650.0000
 30
0.0000
 11
8990.0000
 21
-11650.0000
 31
0.0000
 12
8990.0000
 22
-11650.0000
 32
2050.0000
 13
8950.0000
 23
-11650.0000
 33
2050.0000
 70
15
  0
3DFACE
  5
10D3
  8
דלתות
 10
8990.0000
 20
-11650.0000
 30
0.0000
 11
8990.0000
 21
-11550.0000
 31
0.0000
 12
8990.0000
 22
-11550.0000
 32
2050.0000
 13
8990.0000
 23
-11650.0000
 33
2050.0000
 70
15
  0
3DFACE
  5
10D4
  8
דלתות
 10
9850.0000
 20
-11550.0000
 30
2010.0000
 11
8950.0000
 21
-11550.0000
 31
2010.0000
 12
8950.0000
 22
-11650.0000
 32
2010.0000
 13
9850.0000
 23
-11650.0000
 33
2010.0000
 70
15
  0
3DFACE
  5
10D5
  8
דלתות
 10
9850.0000
 20
-11550.0000
 30
2050.0000
 11
8950.0000
 21
-11550.0000
 31
2050.0000
 12
8950.0000
 22
-11650.0000
 32
2050.0000
 13
9850.0000
 23
-11650.0000
 33
2050.0000
 70
15
  0
3DFACE
  5
10D6
  8
דלתות
 10
9850.0000
 20
-11550.0000
 30
2010.0000
 11
8950.0000
 21
-11550.0000
 31
2010.0000
 12
8950.0000
 22
-11550.0000
 32
2050.0000
 13
9850.0000
 23
-11550.0000
 33
2050.0000
 70
15
  0
3DFACE
  5
10D7
  8
דלתות
 10
8950.0000
 20
-11550.0000
 30
2010.0000
 11
8950.0000
 21
-11650.0000
 31
2010.0000
 12
8950.0000
 22
-11650.0000
 32
2050.0000
 13
8950.0000
 23
-11550.0000
 33
2050.0000
 70
15
  0
3DFACE
  5
10D8
  8
דלתות
 10
8950.0000
 20
-11650.0000
 30
2010.0000
 11
9850.0000
 21
-11650.0000
 31
2010.0000
 12
9850.0000
 22
-11650.0000
 32
2050.0000
 13
8950.0000
 23
-11650.0000
 33
2050.0000
 70
15
  0
3DFACE
  5
10D9
  8
דלתות
 10
9850.0000
 20
-11650.0000
 30
2010.0000
 11
9850.0000
 21
-11550.0000
 31
2010.0000
 12
9850.0000
 22
-11550.0000
 32
2050.0000
 13
9850.0000
 23
-11650.0000
 33
2050.0000
 70
15
  0
3DFACE
  5
10DA
  8
דלתות
 10
9850.0000
 20
-11550.0000
 30
0.0000
 11
8950.0000
 21
-11550.0000
 31
0.0000
 12
8950.0000
 22
-11650.0000
 32
0.0000
 13
9850.0000
 23
-11650.0000
 33
0.0000
 70
15
  0
3DFACE
  5
10DB
  8
דלתות
 10
9850.0000
 20
-11550.0000
 30
30.0000
 11
8950.0000
 21
-11550.0000
 31
30.0000
 12
8950.0000
 22
-11650.0000
 32
30.0000
 13
9850.0000
 23
-11650.0000
 33
30.0000
 70
15
  0
3DFACE
  5
10DC
  8
דלתות
 10
9850.0000
 20
-11550.0000
 30
0.0000
 11
8950.0000
 21
-11550.0000
 31
0.0000
 12
8950.0000
 22
-11550.0000
 32
30.0000
 13
9850.0000
 23
-11550.0000
 33
30.0000
 70
15
  0
3DFACE
  5
10DD
  8
דלתות
 10
8950.0000
 20
-11550.0000
 30
0.0000
 11
8950.0000
 21
-11650.0000
 31
0.0000
 12
8950.0000
 22
-11650.0000
 32
30.0000
 13
8950.0000
 23
-11550.0000
 33
30.0000
 70
15
  0
3DFACE
  5
10DE
  8
דלתות
 10
8950.0000
 20
-11650.0000
 30
0.0000
 11
9850.0000
 21
-11650.0000
 31
0.0000
 12
9850.0000
 22
-11650.0000
 32
30.0000
 13
8950.0000
 23
-11650.0000
 33
30.0000
 70
15
  0
3DFACE
  5
10DF
  8
דלתות
 10
9850.0000
 20
-11650.0000
 30
0.0000
 11
9850.0000
 21
-11550.0000
 31
0.0000
 12
9850.0000
 22
-11550.0000
 32
30.0000
 13
9850.0000
 23
-11650.0000
 33
30.0000
 70
15
  0
3DFACE
  5
10E0
  8
דלתות
 10
9010.0000
 20
-11600.0000
 30
0.0000
 11
8970.0000
 21
-11600.0000
 31
0.0000
 12
8970.0000
 22
-12420.0000
 32
0.0000
 13
9010.0000
 23
-12420.0000
 33
0.0000
 70
15
  0
3DFACE
  5
10E1
  8
דלתות
 10
9010.0000
 20
-11600.0000
 30
2050.0000
 11
8970.0000
 21
-11600.0000
 31
2050.0000
 12
8970.0000
 22
-12420.0000
 32
2050.0000
 13
9010.0000
 23
-12420.0000
 33
2050.0000
 70
15
  0
3DFACE
  5
10E2
  8
דלתות
 10
9010.0000
 20
-11600.0000
 30
0.0000
 11
8970.0000
 21
-11600.0000
 31
0.0000
 12
8970.0000
 22
-11600.0000
 32
2050.0000
 13
9010.0000
 23
-11600.0000
 33
2050.0000
 70
15
  0
3DFACE
  5
10E3
  8
דלתות
 10
8970.0000
 20
-11600.0000
 30
0.0000
 11
8970.0000
 21
-12420.0000
 31
0.0000
 12
8970.0000
 22
-12420.0000
 32
2050.0000
 13
8970.0000
 23
-11600.0000
 33
2050.0000
 70
15
  0
3DFACE
  5
10E4
  8
דלתות
 10
8970.0000
 20
-12420.0000
 30
0.0000
 11
9010.0000
 21
-12420.0000
 31
0.0000
 12
9010.0000
 22
-12420.0000
 32
2050.0000
 13
8970.0000
 23
-12420.0000
 33
2050.0000
 70
15
  0
3DFACE
  5
10E5
  8
דלתות
 10
9010.0000
 20
-12420.0000
 30
0.0000
 11
9010.0000
 21
-11600.0000
 31
0.0000
 12
9010.0000
 22
-11600.0000
 32
2050.0000
 13
9010.0000
 23
-12420.0000
 33
2050.0000
 70
15
  0
3DFACE
  5
10E6
  8
חלונות
 10
7900.0000
 20
-11550.0000
 30
300.0000
 11
7850.0000
 21
-11550.0000
 31
300.0000
 12
7850.0000
 22
-11650.0000
 32
300.0000
 13
7900.0000
 23
-11650.0000
 33
300.0000
 70
15
  0
3DFACE
  5
10E7
  8
חלונות
 10
7900.0000
 20
-11550.0000
 30
1500.0000
 11
7850.0000
 21
-11550.0000
 31
1500.0000
 12
7850.0000
 22
-11650.0000
 32
1500.0000
 13
7900.0000
 23
-11650.0000
 33
1500.0000
 70
15
  0
3DFACE
  5
10E8
  8
חלונות
 10
7900.0000
 20
-11550.0000
 30
300.0000
 11
7850.0000
 21
-11550.0000
 31
300.0000
 12
7850.0000
 22
-11550.0000
 32
1500.0000
 13
7900.0000
 23
-11550.0000
 33
1500.0000
 70
15
  0
3DFACE
  5
10E9
  8
חלונות
 10
7850.0000
 20
-11550.0000
 30
300.0000
 11
7850.0000
 21
-11650.0000
 31
300.0000
 12
7850.0000
 22
-11650.0000
 32
1500.0000
 13
7850.0000
 23
-11550.0000
 33
1500.0000
 70
15
  0
3DFACE
  5
10EA
  8
חלונות
 10
7850.0000
 20
-11650.0000
 30
300.0000
 11
7900.0000
 21
-11650.0000
 31
300.0000
 12
7900.0000
 22
-11650.0000
 32
1500.0000
 13
7850.0000
 23
-11650.0000
 33
1500.0000
 70
15
  0
3DFACE
  5
10EB
  8
חלונות
 10
7900.0000
 20
-11650.0000
 30
300.0000
 11
7900.0000
 21
-11550.0000
 31
300.0000
 12
7900.0000
 22
-11550.0000
 32
1500.0000
 13
7900.0000
 23
-11650.0000
 33
1500.0000
 70
15
  0
3DFACE
  5
10EC
  8
חלונות
 10
6750.0000
 20
-11550.0000
 30
300.0000
 11
6700.0000
 21
-11550.0000
 31
300.0000
 12
6700.0000
 22
-11650.0000
 32
300.0000
 13
6750.0000
 23
-11650.0000
 33
300.0000
 70
15
  0
3DFACE
  5
10ED
  8
חלונות
 10
6750.0000
 20
-11550.0000
 30
1500.0000
 11
6700.0000
 21
-11550.0000
 31
1500.0000
 12
6700.0000
 22
-11650.0000
 32
1500.0000
 13
6750.0000
 23
-11650.0000
 33
1500.0000
 70
15
  0
3DFACE
  5
10EE
  8
חלונות
 10
6750.0000
 20
-11550.0000
 30
300.0000
 11
6700.0000
 21
-11550.0000
 31
300.0000
 12
6700.0000
 22
-11550.0000
 32
1500.0000
 13
6750.0000
 23
-11550.0000
 33
1500.0000
 70
15
  0
3DFACE
  5
10EF
  8
חלונות
 10
6700.0000
 20
-11550.0000
 30
300.0000
 11
6700.0000
 21
-11650.0000
 31
300.0000
 12
6700.0000
 22
-11650.0000
 32
1500.0000
 13
6700.0000
 23
-11550.0000
 33
1500.0000
 70
15
  0
3DFACE
  5
10F0
  8
חלונות
 10
6700.0000
 20
-11650.0000
 30
300.0000
 11
6750.0000
 21
-11650.0000
 31
300.0000
 12
6750.0000
 22
-11650.0000
 32
1500.0000
 13
6700.0000
 23
-11650.0000
 33
1500.0000
 70
15
  0
3DFACE
  5
10F1
  8
חלונות
 10
6750.0000
 20
-11650.0000
 30
300.0000
 11
6750.0000
 21
-11550.0000
 31
300.0000
 12
6750.0000
 22
-11550.0000
 32
1500.0000
 13
6750.0000
 23
-11650.0000
 33
1500.0000
 70
15
  0
3DFACE
  5
10F2
  8
חלונות
 10
7900.0000
 20
-11550.0000
 30
1450.0000
 11
6700.0000
 21
-11550.0000
 31
1450.0000
 12
6700.0000
 22
-11650.0000
 32
1450.0000
 13
7900.0000
 23
-11650.0000
 33
1450.0000
 70
15
  0
3DFACE
  5
10F3
  8
חלונות
 10
7900.0000
 20
-11550.0000
 30
1500.0000
 11
6700.0000
 21
-11550.0000
 31
1500.0000
 12
6700.0000
 22
-11650.0000
 32
1500.0000
 13
7900.0000
 23
-11650.0000
 33
1500.0000
 70
15
  0
3DFACE
  5
10F4
  8
חלונות
 10
7900.0000
 20
-11550.0000
 30
1450.0000
 11
6700.0000
 21
-11550.0000
 31
1450.0000
 12
6700.0000
 22
-11550.0000
 32
1500.0000
 13
7900.0000
 23
-11550.0000
 33
1500.0000
 70
15
  0
3DFACE
  5
10F5
  8
חלונות
 10
6700.0000
 20
-11550.0000
 30
1450.0000
 11
6700.0000
 21
-11650.0000
 31
1450.0000
 12
6700.0000
 22
-11650.0000
 32
1500.0000
 13
6700.0000
 23
-11550.0000
 33
1500.0000
 70
15
  0
3DFACE
  5
10F6
  8
חלונות
 10
6700.0000
 20
-11650.0000
 30
1450.0000
 11
7900.0000
 21
-11650.0000
 31
1450.0000
 12
7900.0000
 22
-11650.0000
 32
1500.0000
 13
6700.0000
 23
-11650.0000
 33
1500.0000
 70
15
  0
3DFACE
  5
10F7
  8
חלונות
 10
7900.0000
 20
-11650.0000
 30
1450.0000
 11
7900.0000
 21
-11550.0000
 31
1450.0000
 12
7900.0000
 22
-11550.0000
 32
1500.0000
 13
7900.0000
 23
-11650.0000
 33
1500.0000
 70
15
  0
3DFACE
  5
10F8
  8
חלונות
 10
7900.0000
 20
-11550.0000
 30
300.0000
 11
6700.0000
 21
-11550.0000
 31
300.0000
 12
6700.0000
 22
-11650.0000
 32
300.0000
 13
7900.0000
 23
-11650.0000
 33
300.0000
 70
15
  0
3DFACE
  5
10F9
  8
חלונות
 10
7900.0000
 20
-11550.0000
 30
350.0000
 11
6700.0000
 21
-11550.0000
 31
350.0000
 12
6700.0000
 22
-11650.0000
 32
350.0000
 13
7900.0000
 23
-11650.0000
 33
350.0000
 70
15
  0
3DFACE
  5
10FA
  8
חלונות
 10
7900.0000
 20
-11550.0000
 30
300.0000
 11
6700.0000
 21
-11550.0000
 31
300.0000
 12
6700.0000
 22
-11550.0000
 32
350.0000
 13
7900.0000
 23
-11550.0000
 33
350.0000
 70
15
  0
3DFACE
  5
10FB
  8
חלונות
 10
6700.0000
 20
-11550.0000
 30
300.0000
 11
6700.0000
 21
-11650.0000
 31
300.0000
 12
6700.0000
 22
-11650.0000
 32
350.0000
 13
6700.0000
 23
-11550.0000
 33
350.0000
 70
15
  0
3DFACE
  5
10FC
  8
חלונות
 10
6700.0000
 20
-11650.0000
 30
300.0000
 11
7900.0000
 21
-11650.0000
 31
300.0000
 12
7900.0000
 22
-11650.0000
 32
350.0000
 13
6700.0000
 23
-11650.0000
 33
350.0000
 70
15
  0
3DFACE
  5
10FD
  8
חלונות
 10
7900.0000
 20
-11650.0000
 30
300.0000
 11
7900.0000
 21
-11550.0000
 31
300.0000
 12
7900.0000
 22
-11550.0000
 32
350.0000
 13
7900.0000
 23
-11650.0000
 33
350.0000
 70
15
  0
3DFACE
  5
10FE
  8
חלונות
 10
7850.0000
 20
-11586.0000
 30
350.0000
 11
6750.0000
 21
-11586.0000
 31
350.0000
 12
6750.0000
 22
-11614.0000
 32
350.0000
 13
7850.0000
 23
-11614.0000
 33
350.0000
 70
15
  0
3DFACE
  5
10FF
  8
חלונות
 10
7850.0000
 20
-11586.0000
 30
1450.0000
 11
6750.0000
 21
-11586.0000
 31
1450.0000
 12
6750.0000
 22
-11614.0000
 32
1450.0000
 13
7850.0000
 23
-11614.0000
 33
1450.0000
 70
15
  0
3DFACE
  5
1100
  8
חלונות
 10
7850.0000
 20
-11586.0000
 30
350.0000
 11
6750.0000
 21
-11586.0000
 31
350.0000
 12
6750.0000
 22
-11586.0000
 32
1450.0000
 13
7850.0000
 23
-11586.0000
 33
1450.0000
 70
15
  0
3DFACE
  5
1101
  8
חלונות
 10
6750.0000
 20
-11586.0000
 30
350.0000
 11
6750.0000
 21
-11614.0000
 31
350.0000
 12
6750.0000
 22
-11614.0000
 32
1450.0000
 13
6750.0000
 23
-11586.0000
 33
1450.0000
 70
15
  0
3DFACE
  5
1102
  8
חלונות
 10
6750.0000
 20
-11614.0000
 30
350.0000
 11
7850.0000
 21
-11614.0000
 31
350.0000
 12
7850.0000
 22
-11614.0000
 32
1450.0000
 13
6750.0000
 23
-11614.0000
 33
1450.0000
 70
15
  0
3DFACE
  5
1103
  8
חלונות
 10
7850.0000
 20
-11614.0000
 30
350.0000
 11
7850.0000
 21
-11586.0000
 31
350.0000
 12
7850.0000
 22
-11586.0000
 32
1450.0000
 13
7850.0000
 23
-11614.0000
 33
1450.0000
 70
15
  0
3DFACE
  5
1104
  8
חלונות
 10
7900.0000
 20
-11550.0000
 30
750.0000
 11
7860.0000
 21
-11550.0000
 31
750.0000
 12
7860.0000
 22
-11650.0000
 32
750.0000
 13
7900.0000
 23
-11650.0000
 33
750.0000
 70
15
  0
3DFACE
  5
1105
  8
חלונות
 10
7900.0000
 20
-11550.0000
 30
850.0000
 11
7860.0000
 21
-11550.0000
 31
850.0000
 12
7860.0000
 22
-11650.0000
 32
850.0000
 13
7900.0000
 23
-11650.0000
 33
850.0000
 70
15
  0
3DFACE
  5
1106
  8
חלונות
 10
7900.0000
 20
-11550.0000
 30
750.0000
 11
7860.0000
 21
-11550.0000
 31
750.0000
 12
7860.0000
 22
-11550.0000
 32
850.0000
 13
7900.0000
 23
-11550.0000
 33
850.0000
 70
15
  0
3DFACE
  5
1107
  8
חלונות
 10
7860.0000
 20
-11550.0000
 30
750.0000
 11
7860.0000
 21
-11650.0000
 31
750.0000
 12
7860.0000
 22
-11650.0000
 32
850.0000
 13
7860.0000
 23
-11550.0000
 33
850.0000
 70
15
  0
3DFACE
  5
1108
  8
חלונות
 10
7860.0000
 20
-11650.0000
 30
750.0000
 11
7900.0000
 21
-11650.0000
 31
750.0000
 12
7900.0000
 22
-11650.0000
 32
850.0000
 13
7860.0000
 23
-11650.0000
 33
850.0000
 70
15
  0
3DFACE
  5
1109
  8
חלונות
 10
7900.0000
 20
-11650.0000
 30
750.0000
 11
7900.0000
 21
-11550.0000
 31
750.0000
 12
7900.0000
 22
-11550.0000
 32
850.0000
 13
7900.0000
 23
-11650.0000
 33
850.0000
 70
15
  0
3DFACE
  5
110A
  8
חלונות
 10
6740.0000
 20
-11550.0000
 30
750.0000
 11
6700.0000
 21
-11550.0000
 31
750.0000
 12
6700.0000
 22
-11650.0000
 32
750.0000
 13
6740.0000
 23
-11650.0000
 33
750.0000
 70
15
  0
3DFACE
  5
110B
  8
חלונות
 10
6740.0000
 20
-11550.0000
 30
850.0000
 11
6700.0000
 21
-11550.0000
 31
850.0000
 12
6700.0000
 22
-11650.0000
 32
850.0000
 13
6740.0000
 23
-11650.0000
 33
850.0000
 70
15
  0
3DFACE
  5
110C
  8
חלונות
 10
6740.0000
 20
-11550.0000
 30
750.0000
 11
6700.0000
 21
-11550.0000
 31
750.0000
 12
6700.0000
 22
-11550.0000
 32
850.0000
 13
6740.0000
 23
-11550.0000
 33
850.0000
 70
15
  0
3DFACE
  5
110D
  8
חלונות
 10
6700.0000
 20
-11550.0000
 30
750.0000
 11
6700.0000
 21
-11650.0000
 31
750.0000
 12
6700.0000
 22
-11650.0000
 32
850.0000
 13
6700.0000
 23
-11550.0000
 33
850.0000
 70
15
  0
3DFACE
  5
110E
  8
חלונות
 10
6700.0000
 20
-11650.0000
 30
750.0000
 11
6740.0000
 21
-11650.0000
 31
750.0000
 12
6740.0000
 22
-11650.0000
 32
850.0000
 13
6700.0000
 23
-11650.0000
 33
850.0000
 70
15
  0
3DFACE
  5
110F
  8
חלונות
 10
6740.0000
 20
-11650.0000
 30
750.0000
 11
6740.0000
 21
-11550.0000
 31
750.0000
 12
6740.0000
 22
-11550.0000
 32
850.0000
 13
6740.0000
 23
-11650.0000
 33
850.0000
 70
15
  0
3DFACE
  5
1110
  8
חלונות
 10
7900.0000
 20
-11550.0000
 30
810.0000
 11
6700.0000
 21
-11550.0000
 31
810.0000
 12
6700.0000
 22
-11650.0000
 32
810.0000
 13
7900.0000
 23
-11650.0000
 33
810.0000
 70
15
  0
3DFACE
  5
1111
  8
חלונות
 10
7900.0000
 20
-11550.0000
 30
850.0000
 11
6700.0000
 21
-11550.0000
 31
850.0000
 12
6700.0000
 22
-11650.0000
 32
850.0000
 13
7900.0000
 23
-11650.0000
 33
850.0000
 70
15
  0
3DFACE
  5
1112
  8
חלונות
 10
7900.0000
 20
-11550.0000
 30
810.0000
 11
6700.0000
 21
-11550.0000
 31
810.0000
 12
6700.0000
 22
-11550.0000
 32
850.0000
 13
7900.0000
 23
-11550.0000
 33
850.0000
 70
15
  0
3DFACE
  5
1113
  8
חלונות
 10
6700.0000
 20
-11550.0000
 30
810.0000
 11
6700.0000
 21
-11650.0000
 31
810.0000
 12
6700.0000
 22
-11650.0000
 32
850.0000
 13
6700.0000
 23
-11550.0000
 33
850.0000
 70
15
  0
3DFACE
  5
1114
  8
חלונות
 10
6700.0000
 20
-11650.0000
 30
810.0000
 11
7900.0000
 21
-11650.0000
 31
810.0000
 12
7900.0000
 22
-11650.0000
 32
850.0000
 13
6700.0000
 23
-11650.0000
 33
850.0000
 70
15
  0
3DFACE
  5
1115
  8
חלונות
 10
7900.0000
 20
-11650.0000
 30
810.0000
 11
7900.0000
 21
-11550.0000
 31
810.0000
 12
7900.0000
 22
-11550.0000
 32
850.0000
 13
7900.0000
 23
-11650.0000
 33
850.0000
 70
15
  0
3DFACE
  5
1116
  8
חלונות
 10
7900.0000
 20
-11550.0000
 30
750.0000
 11
6700.0000
 21
-11550.0000
 31
750.0000
 12
6700.0000
 22
-11650.0000
 32
750.0000
 13
7900.0000
 23
-11650.0000
 33
750.0000
 70
15
  0
3DFACE
  5
1117
  8
חלונות
 10
7900.0000
 20
-11550.0000
 30
790.0000
 11
6700.0000
 21
-11550.0000
 31
790.0000
 12
6700.0000
 22
-11650.0000
 32
790.0000
 13
7900.0000
 23
-11650.0000
 33
790.0000
 70
15
  0
3DFACE
  5
1118
  8
חלונות
 10
7900.0000
 20
-11550.0000
 30
750.0000
 11
6700.0000
 21
-11550.0000
 31
750.0000
 12
6700.0000
 22
-11550.0000
 32
790.0000
 13
7900.0000
 23
-11550.0000
 33
790.0000
 70
15
  0
3DFACE
  5
1119
  8
חלונות
 10
6700.0000
 20
-11550.0000
 30
750.0000
 11
6700.0000
 21
-11650.0000
 31
750.0000
 12
6700.0000
 22
-11650.0000
 32
790.0000
 13
6700.0000
 23
-11550.0000
 33
790.0000
 70
15
  0
3DFACE
  5
111A
  8
חלונות
 10
6700.0000
 20
-11650.0000
 30
750.0000
 11
7900.0000
 21
-11650.0000
 31
750.0000
 12
7900.0000
 22
-11650.0000
 32
790.0000
 13
6700.0000
 23
-11650.0000
 33
790.0000
 70
15
  0
3DFACE
  5
111B
  8
חלונות
 10
7900.0000
 20
-11650.0000
 30
750.0000
 11
7900.0000
 21
-11550.0000
 31
750.0000
 12
7900.0000
 22
-11550.0000
 32
790.0000
 13
7900.0000
 23
-11650.0000
 33
790.0000
 70
15
  0
3DFACE
  5
111C
  8
חלונות
 10
7860.0000
 20
-11586.0000
 30
790.0000
 11
6740.0000
 21
-11586.0000
 31
790.0000
 12
6740.0000
 22
-11614.0000
 32
790.0000
 13
7860.0000
 23
-11614.0000
 33
790.0000
 70
15
  0
3DFACE
  5
111D
  8
חלונות
 10
7860.0000
 20
-11586.0000
 30
810.0000
 11
6740.0000
 21
-11586.0000
 31
810.0000
 12
6740.0000
 22
-11614.0000
 32
810.0000
 13
7860.0000
 23
-11614.0000
 33
810.0000
 70
15
  0
3DFACE
  5
111E
  8
חלונות
 10
7860.0000
 20
-11586.0000
 30
790.0000
 11
6740.0000
 21
-11586.0000
 31
790.0000
 12
6740.0000
 22
-11586.0000
 32
810.0000
 13
7860.0000
 23
-11586.0000
 33
810.0000
 70
15
  0
3DFACE
  5
111F
  8
חלונות
 10
6740.0000
 20
-11586.0000
 30
790.0000
 11
6740.0000
 21
-11614.0000
 31
790.0000
 12
6740.0000
 22
-11614.0000
 32
810.0000
 13
6740.0000
 23
-11586.0000
 33
810.0000
 70
15
  0
3DFACE
  5
1120
  8
חלונות
 10
6740.0000
 20
-11614.0000
 30
790.0000
 11
7860.0000
 21
-11614.0000
 31
790.0000
 12
7860.0000
 22
-11614.0000
 32
810.0000
 13
6740.0000
 23
-11614.0000
 33
810.0000
 70
15
  0
3DFACE
  5
1121
  8
חלונות
 10
7860.0000
 20
-11614.0000
 30
790.0000
 11
7860.0000
 21
-11586.0000
 31
790.0000
 12
7860.0000
 22
-11586.0000
 32
810.0000
 13
7860.0000
 23
-11614.0000
 33
810.0000
 70
15
  0
3DFACE
  5
1122
  8
חלונות
 10
5500.0000
 20
-11550.0000
 30
150.0000
 11
5450.0000
 21
-11550.0000
 31
150.0000
 12
5450.0000
 22
-11650.0000
 32
150.0000
 13
5500.0000
 23
-11650.0000
 33
150.0000
 70
15
  0
3DFACE
  5
1123
  8
חלונות
 10
5500.0000
 20
-11550.0000
 30
1550.0000
 11
5450.0000
 21
-11550.0000
 31
1550.0000
 12
5450.0000
 22
-11650.0000
 32
1550.0000
 13
5500.0000
 23
-11650.0000
 33
1550.0000
 70
15
  0
3DFACE
  5
1124
  8
חלונות
 10
5500.0000
 20
-11550.0000
 30
150.0000
 11
5450.0000
 21
-11550.0000
 31
150.0000
 12
5450.0000
 22
-11550.0000
 32
1550.0000
 13
5500.0000
 23
-11550.0000
 33
1550.0000
 70
15
  0
3DFACE
  5
1125
  8
חלונות
 10
5450.0000
 20
-11550.0000
 30
150.0000
 11
5450.0000
 21
-11650.0000
 31
150.0000
 12
5450.0000
 22
-11650.0000
 32
1550.0000
 13
5450.0000
 23
-11550.0000
 33
1550.0000
 70
15
  0
3DFACE
  5
1126
  8
חלונות
 10
5450.0000
 20
-11650.0000
 30
150.0000
 11
5500.0000
 21
-11650.0000
 31
150.0000
 12
5500.0000
 22
-11650.0000
 32
1550.0000
 13
5450.0000
 23
-11650.0000
 33
1550.0000
 70
15
  0
3DFACE
  5
1127
  8
חלונות
 10
5500.0000
 20
-11650.0000
 30
150.0000
 11
5500.0000
 21
-11550.0000
 31
150.0000
 12
5500.0000
 22
-11550.0000
 32
1550.0000
 13
5500.0000
 23
-11650.0000
 33
1550.0000
 70
15
  0
3DFACE
  5
1128
  8
חלונות
 10
3950.0000
 20
-11550.0000
 30
150.0000
 11
3900.0000
 21
-11550.0000
 31
150.0000
 12
3900.0000
 22
-11650.0000
 32
150.0000
 13
3950.0000
 23
-11650.0000
 33
150.0000
 70
15
  0
3DFACE
  5
1129
  8
חלונות
 10
3950.0000
 20
-11550.0000
 30
1550.0000
 11
3900.0000
 21
-11550.0000
 31
1550.0000
 12
3900.0000
 22
-11650.0000
 32
1550.0000
 13
3950.0000
 23
-11650.0000
 33
1550.0000
 70
15
  0
3DFACE
  5
112A
  8
חלונות
 10
3950.0000
 20
-11550.0000
 30
150.0000
 11
3900.0000
 21
-11550.0000
 31
150.0000
 12
3900.0000
 22
-11550.0000
 32
1550.0000
 13
3950.0000
 23
-11550.0000
 33
1550.0000
 70
15
  0
3DFACE
  5
112B
  8
חלונות
 10
3900.0000
 20
-11550.0000
 30
150.0000
 11
3900.0000
 21
-11650.0000
 31
150.0000
 12
3900.0000
 22
-11650.0000
 32
1550.0000
 13
3900.0000
 23
-11550.0000
 33
1550.0000
 70
15
  0
3DFACE
  5
112C
  8
חלונות
 10
3900.0000
 20
-11650.0000
 30
150.0000
 11
3950.0000
 21
-11650.0000
 31
150.0000
 12
3950.0000
 22
-11650.0000
 32
1550.0000
 13
3900.0000
 23
-11650.0000
 33
1550.0000
 70
15
  0
3DFACE
  5
112D
  8
חלונות
 10
3950.0000
 20
-11650.0000
 30
150.0000
 11
3950.0000
 21
-11550.0000
 31
150.0000
 12
3950.0000
 22
-11550.0000
 32
1550.0000
 13
3950.0000
 23
-11650.0000
 33
1550.0000
 70
15
  0
3DFACE
  5
112E
  8
חלונות
 10
5500.0000
 20
-11550.0000
 30
1500.0000
 11
3900.0000
 21
-11550.0000
 31
1500.0000
 12
3900.0000
 22
-11650.0000
 32
1500.0000
 13
5500.0000
 23
-11650.0000
 33
1500.0000
 70
15
  0
3DFACE
  5
112F
  8
חלונות
 10
5500.0000
 20
-11550.0000
 30
1550.0000
 11
3900.0000
 21
-11550.0000
 31
1550.0000
 12
3900.0000
 22
-11650.0000
 32
1550.0000
 13
5500.0000
 23
-11650.0000
 33
1550.0000
 70
15
  0
3DFACE
  5
1130
  8
חלונות
 10
5500.0000
 20
-11550.0000
 30
1500.0000
 11
3900.0000
 21
-11550.0000
 31
1500.0000
 12
3900.0000
 22
-11550.0000
 32
1550.0000
 13
5500.0000
 23
-11550.0000
 33
1550.0000
 70
15
  0
3DFACE
  5
1131
  8
חלונות
 10
3900.0000
 20
-11550.0000
 30
1500.0000
 11
3900.0000
 21
-11650.0000
 31
1500.0000
 12
3900.0000
 22
-11650.0000
 32
1550.0000
 13
3900.0000
 23
-11550.0000
 33
1550.0000
 70
15
  0
3DFACE
  5
1132
  8
חלונות
 10
3900.0000
 20
-11650.0000
 30
1500.0000
 11
5500.0000
 21
-11650.0000
 31
1500.0000
 12
5500.0000
 22
-11650.0000
 32
1550.0000
 13
3900.0000
 23
-11650.0000
 33
1550.0000
 70
15
  0
3DFACE
  5
1133
  8
חלונות
 10
5500.0000
 20
-11650.0000
 30
1500.0000
 11
5500.0000
 21
-11550.0000
 31
1500.0000
 12
5500.0000
 22
-11550.0000
 32
1550.0000
 13
5500.0000
 23
-11650.0000
 33
1550.0000
 70
15
  0
3DFACE
  5
1134
  8
חלונות
 10
5500.0000
 20
-11550.0000
 30
150.0000
 11
3900.0000
 21
-11550.0000
 31
150.0000
 12
3900.0000
 22
-11650.0000
 32
150.0000
 13
5500.0000
 23
-11650.0000
 33
150.0000
 70
15
  0
3DFACE
  5
1135
  8
חלונות
 10
5500.0000
 20
-11550.0000
 30
200.0000
 11
3900.0000
 21
-11550.0000
 31
200.0000
 12
3900.0000
 22
-11650.0000
 32
200.0000
 13
5500.0000
 23
-11650.0000
 33
200.0000
 70
15
  0
3DFACE
  5
1136
  8
חלונות
 10
5500.0000
 20
-11550.0000
 30
150.0000
 11
3900.0000
 21
-11550.0000
 31
150.0000
 12
3900.0000
 22
-11550.0000
 32
200.0000
 13
5500.0000
 23
-11550.0000
 33
200.0000
 70
15
  0
3DFACE
  5
1137
  8
חלונות
 10
3900.0000
 20
-11550.0000
 30
150.0000
 11
3900.0000
 21
-11650.0000
 31
150.0000
 12
3900.0000
 22
-11650.0000
 32
200.0000
 13
3900.0000
 23
-11550.0000
 33
200.0000
 70
15
  0
3DFACE
  5
1138
  8
חלונות
 10
3900.0000
 20
-11650.0000
 30
150.0000
 11
5500.0000
 21
-11650.0000
 31
150.0000
 12
5500.0000
 22
-11650.0000
 32
200.0000
 13
3900.0000
 23
-11650.0000
 33
200.0000
 70
15
  0
3DFACE
  5
1139
  8
חלונות
 10
5500.0000
 20
-11650.0000
 30
150.0000
 11
5500.0000
 21
-11550.0000
 31
150.0000
 12
5500.0000
 22
-11550.0000
 32
200.0000
 13
5500.0000
 23
-11650.0000
 33
200.0000
 70
15
  0
3DFACE
  5
113A
  8
חלונות
 10
5450.0000
 20
-11586.0000
 30
200.0000
 11
3950.0000
 21
-11586.0000
 31
200.0000
 12
3950.0000
 22
-11614.0000
 32
200.0000
 13
5450.0000
 23
-11614.0000
 33
200.0000
 70
15
  0
3DFACE
  5
113B
  8
חלונות
 10
5450.0000
 20
-11586.0000
 30
1500.0000
 11
3950.0000
 21
-11586.0000
 31
1500.0000
 12
3950.0000
 22
-11614.0000
 32
1500.0000
 13
5450.0000
 23
-11614.0000
 33
1500.0000
 70
15
  0
3DFACE
  5
113C
  8
חלונות
 10
5450.0000
 20
-11586.0000
 30
200.0000
 11
3950.0000
 21
-11586.0000
 31
200.0000
 12
3950.0000
 22
-11586.0000
 32
1500.0000
 13
5450.0000
 23
-11586.0000
 33
1500.0000
 70
15
  0
3DFACE
  5
113D
  8
חלונות
 10
3950.0000
 20
-11586.0000
 30
200.0000
 11
3950.0000
 21
-11614.0000
 31
200.0000
 12
3950.0000
 22
-11614.0000
 32
1500.0000
 13
3950.0000
 23
-11586.0000
 33
1500.0000
 70
15
  0
3DFACE
  5
113E
  8
חלונות
 10
3950.0000
 20
-11614.0000
 30
200.0000
 11
5450.0000
 21
-11614.0000
 31
200.0000
 12
5450.0000
 22
-11614.0000
 32
1500.0000
 13
3950.0000
 23
-11614.0000
 33
1500.0000
 70
15
  0
3DFACE
  5
113F
  8
חלונות
 10
5450.0000
 20
-11614.0000
 30
200.0000
 11
5450.0000
 21
-11586.0000
 31
200.0000
 12
5450.0000
 22
-11586.0000
 32
1500.0000
 13
5450.0000
 23
-11614.0000
 33
1500.0000
 70
15
  0
INSERT
  5
1140
  8
חשמל
  2
SOCKET
 10
645.0000
 20
0.0000
 30
400.0000
 41
1.0000
 42
1.0000
 43
1.0000
 50
0.0000
  0
3DFACE
  5
1141
  8
חשמל
 10
600.0000
 20
-60.0000
 30
400.0000
 11
690.0000
 21
-60.0000
 31
400.0000
 12
690.0000
 22
-50.0000
 32
400.0000
 13
600.0000
 23
-50.0000
 33
400.0000
 70
15
  0
3DFACE
  5
1142
  8
חשמל
 10
600.0000
 20
-60.0000
 30
490.0000
 11
690.0000
 21
-60.0000
 31
490.0000
 12
690.0000
 22
-50.0000
 32
490.0000
 13
600.0000
 23
-50.0000
 33
490.0000
 70
15
  0
3DFACE
  5
1143
  8
חשמל
 10
600.0000
 20
-60.0000
 30
400.0000
 11
690.0000
 21
-60.0000
 31
400.0000
 12
690.0000
 22
-60.0000
 32
490.0000
 13
600.0000
 23
-60.0000
 33
490.0000
 70
15
  0
3DFACE
  5
1144
  8
חשמל
 10
690.0000
 20
-60.0000
 30
400.0000
 11
690.0000
 21
-50.0000
 31
400.0000
 12
690.0000
 22
-50.0000
 32
490.0000
 13
690.0000
 23
-60.0000
 33
490.0000
 70
15
  0
3DFACE
  5
1145
  8
חשמל
 10
690.0000
 20
-50.0000
 30
400.0000
 11
600.0000
 21
-50.0000
 31
400.0000
 12
600.0000
 22
-50.0000
 32
490.0000
 13
690.0000
 23
-50.0000
 33
490.0000
 70
15
  0
3DFACE
  5
1146
  8
חשמל
 10
600.0000
 20
-50.0000
 30
400.0000
 11
600.0000
 21
-60.0000
 31
400.0000
 12
600.0000
 22
-60.0000
 32
490.0000
 13
600.0000
 23
-50.0000
 33
490.0000
 70
15
  0
INSERT
  5
1147
  8
חשמל
  2
DUPLEXSWITCH
 10
1670.0000
 20
0.0000
 30
400.0000
 41
1.0000
 42
1.0000
 43
1.0000
 50
0.0000
  0
3DFACE
  5
1148
  8
חשמל
 10
1590.0000
 20
-60.0000
 30
400.0000
 11
1750.0000
 21
-60.0000
 31
400.0000
 12
1750.0000
 22
-50.0000
 32
400.0000
 13
1590.0000
 23
-50.0000
 33
400.0000
 70
15
  0
3DFACE
  5
1149
  8
חשמל
 10
1590.0000
 20
-60.0000
 30
490.0000
 11
1750.0000
 21
-60.0000
 31
490.0000
 12
1750.0000
 22
-50.0000
 32
490.0000
 13
1590.0000
 23
-50.0000
 33
490.0000
 70
15
  0
3DFACE
  5
114A
  8
חשמל
 10
1590.0000
 20
-60.0000
 30
400.0000
 11
1750.0000
 21
-60.0000
 31
400.0000
 12
1750.0000
 22
-60.0000
 32
490.0000
 13
1590.0000
 23
-60.0000
 33
490.0000
 70
15
  0
3DFACE
  5
114B
  8
חשמל
 10
1750.0000
 20
-60.0000
 30
400.0000
 11
1750.0000
 21
-50.0000
 31
400.0000
 12
1750.0000
 22
-50.0000
 32
490.0000
 13
1750.0000
 23
-60.0000
 33
490.0000
 70
15
  0
3DFACE
  5
114C
  8
חשמל
 10
1750.0000
 20
-50.0000
 30
400.0000
 11
1590.0000
 21
-50.0000
 31
400.0000
 12
1590.0000
 22
-50.0000
 32
490.0000
 13
1750.0000
 23
-50.0000
 33
490.0000
 70
15
  0
3DFACE
  5
114D
  8
חשמל
 10
1590.0000
 20
-50.0000
 30
400.0000
 11
1590.0000
 21
-60.0000
 31
400.0000
 12
1590.0000
 22
-60.0000
 32
490.0000
 13
1590.0000
 23
-50.0000
 33
490.0000
 70
15
  0
INSERT
  5
114E
  8
חשמל
  2
SOCKET
 10
2695.0000
 20
0.0000
 30
1100.0000
 41
1.0000
 42
1.0000
 43
1.0000
 50
0.0000
  0
3DFACE
  5
114F
  8
חשמל
 10
2650.0000
 20
-60.0000
 30
1100.0000
 11
2740.0000
 21
-60.0000
 31
1100.0000
 12
2740.0000
 22
-50.0000
 32
1100.0000
 13
2650.0000
 23
-50.0000
 33
1100.0000
 70
15
  0
3DFACE
  5
1150
  8
חשמל
 10
2650.0000
 20
-60.0000
 30
1190.0000
 11
2740.0000
 21
-60.0000
 31
1190.0000
 12
2740.0000
 22
-50.0000
 32
1190.0000
 13
2650.0000
 23
-50.0000
 33
1190.0000
 70
15
  0
3DFACE
  5
1151
  8
חשמל
 10
2650.0000
 20
-60.0000
 30
1100.0000
 11
2740.0000
 21
-60.0000
 31
1100.0000
 12
2740.0000
 22
-60.0000
 32
1190.0000
 13
2650.0000
 23
-60.0000
 33
1190.0000
 70
15
  0
3DFACE
  5
1152
  8
חשמל
 10
2740.0000
 20
-60.0000
 30
1100.0000
 11
2740.0000
 21
-50.0000
 31
1100.0000
 12
2740.0000
 22
-50.0000
 32
1190.0000
 13
2740.0000
 23
-60.0000
 33
1190.0000
 70
15
  0
3DFACE
  5
1153
  8
חשמל
 10
2740.0000
 20
-50.0000
 30
1100.0000
 11
2650.0000
 21
-50.0000
 31
1100.0000
 12
2650.0000
 22
-50.0000
 32
1190.0000
 13
2740.0000
 23
-50.0000
 33
1190.0000
 70
15
  0
3DFACE
  5
1154
  8
חשמל
 10
2650.0000
 20
-50.0000
 30
1100.0000
 11
2650.0000
 21
-60.0000
 31
1100.0000
 12
2650.0000
 22
-60.0000
 32
1190.0000
 13
2650.0000
 23
-50.0000
 33
1190.0000
 70
15
  0
INSERT
  5
1155
  8
חשמל
  2
SWITCH
 10
3685.0000
 20
0.0000
 30
1300.0000
 41
1.0000
 42
1.0000
 43
1.0000
 50
0.0000
  0
3DFACE
  5
1156
  8
חשמל
 10
3640.0000
 20
-60.0000
 30
1300.0000
 11
3730.0000
 21
-60.0000
 31
1300.0000
 12
3730.0000
 22
-50.0000
 32
1300.0000
 13
3640.0000
 23
-50.0000
 33
1300.0000
 70
15
  0
3DFACE
  5
1157
  8
חשמל
 10
3640.0000
 20
-60.0000
 30
1390.0000
 11
3730.0000
 21
-60.0000
 31
1390.0000
 12
3730.0000
 22
-50.0000
 32
1390.0000
 13
3640.0000
 23
-50.0000
 33
1390.0000
 70
15
  0
3DFACE
  5
1158
  8
חשמל
 10
3640.0000
 20
-60.0000
 30
1300.0000
 11
3730.0000
 21
-60.0000
 31
1300.0000
 12
3730.0000
 22
-60.0000
 32
1390.0000
 13
3640.0000
 23
-60.0000
 33
1390.0000
 70
15
  0
3DFACE
  5
1159
  8
חשמל
 10
3730.0000
 20
-60.0000
 30
1300.0000
 11
3730.0000
 21
-50.0000
 31
1300.0000
 12
3730.0000
 22
-50.0000
 32
1390.0000
 13
3730.0000
 23
-60.0000
 33
1390.0000
 70
15
  0
3DFACE
  5
115A
  8
חשמל
 10
3730.0000
 20
-50.0000
 30
1300.0000
 11
3640.0000
 21
-50.0000
 31
1300.0000
 12
3640.0000
 22
-50.0000
 32
1390.0000
 13
3730.0000
 23
-50.0000
 33
1390.0000
 70
15
  0
3DFACE
  5
115B
  8
חשמל
 10
3640.0000
 20
-50.0000
 30
1300.0000
 11
3640.0000
 21
-60.0000
 31
1300.0000
 12
3640.0000
 22
-60.0000
 32
1390.0000
 13
3640.0000
 23
-50.0000
 33
1390.0000
 70
15
  0
INSERT
  5
115C
  8
חשמל
  2
DUPLEXSWITCH
 10
4705.0000
 20
0.0000
 30
1300.0000
 41
1.0000
 42
1.0000
 43
1.0000
 50
0.0000
  0
3DFACE
  5
115D
  8
חשמל
 10
4630.0000
 20
-60.0000
 30
1300.0000
 11
4780.0000
 21
-60.0000
 31
1300.0000
 12
4780.0000
 22
-50.0000
 32
1300.0000
 13
4630.0000
 23
-50.0000
 33
1300.0000
 70
15
  0
3DFACE
  5
115E
  8
חשמל
 10
4630.0000
 20
-60.0000
 30
1390.0000
 11
4780.0000
 21
-60.0000
 31
1390.0000
 12
4780.0000
 22
-50.0000
 32
1390.0000
 13
4630.0000
 23
-50.0000
 33
1390.0000
 70
15
  0
3DFACE
  5
115F
  8
חשמל
 10
4630.0000
 20
-60.0000
 30
1300.0000
 11
4780.0000
 21
-60.0000
 31
1300.0000
 12
4780.0000
 22
-60.0000
 32
1390.0000
 13
4630.0000
 23
-60.0000
 33
1390.0000
 70
15
  0
3DFACE
  5
1160
  8
חשמל
 10
4780.0000
 20
-60.0000
 30
1300.0000
 11
4780.0000
 21
-50.0000
 31
1300.0000
 12
4780.0000
 22
-50.0000
 32
1390.0000
 13
4780.0000
 23
-60.0000
 33
1390.0000
 70
15
  0
3DFACE
  5
1161
  8
חשמל
 10
4780.0000
 20
-50.0000
 30
1300.0000
 11
4630.0000
 21
-50.0000
 31
1300.0000
 12
4630.0000
 22
-50.0000
 32
1390.0000
 13
4780.0000
 23
-50.0000
 33
1390.0000
 70
15
  0
3DFACE
  5
1162
  8
חשמל
 10
4630.0000
 20
-50.0000
 30
1300.0000
 11
4630.0000
 21
-60.0000
 31
1300.0000
 12
4630.0000
 22
-60.0000
 32
1390.0000
 13
4630.0000
 23
-50.0000
 33
1390.0000
 70
15
  0
INSERT
  5
1163
  8
חשמל
  2
CONTROLBOX
 10
5710.0000
 20
0.0000
 30
300.0000
 41
1.0000
 42
1.0000
 43
1.0000
 50
0.0000
  0
3DFACE
  5
1164
  8
חשמל
 10
5680.0000
 20
-100.0000
 30
300.0000
 11
5740.0000
 21
-100.0000
 31
300.0000
 12
5740.0000
 22
-50.0000
 32
300.0000
 13
5680.0000
 23
-50.0000
 33
300.0000
 70
15
  0
3DFACE
  5
1165
  8
חשמל
 10
5680.0000
 20
-100.0000
 30
360.0000
 11
5740.0000
 21
-100.0000
 31
360.0000
 12
5740.0000
 22
-50.0000
 32
360.0000
 13
5680.0000
 23
-50.0000
 33
360.0000
 70
15
  0
3DFACE
  5
1166
  8
חשמל
 10
5680.0000
 20
-100.0000
 30
300.0000
 11
5740.0000
 21
-100.0000
 31
300.0000
 12
5740.0000
 22
-100.0000
 32
360.0000
 13
5680.0000
 23
-100.0000
 33
360.0000
 70
15
  0
3DFACE
  5
1167
  8
חשמל
 10
5740.0000
 20
-100.0000
 30
300.0000
 11
5740.0000
 21
-50.0000
 31
300.0000
 12
5740.0000
 22
-50.0000
 32
360.0000
 13
5740.0000
 23
-100.0000
 33
360.0000
 70
15
  0
3DFACE
  5
1168
  8
חשמל
 10
5740.0000
 20
-50.0000
 30
300.0000
 11
5680.0000
 21
-50.0000
 31
300.0000
 12
5680.0000
 22
-50.0000
 32
360.0000
 13
5740.0000
 23
-50.0000
 33
360.0000
 70
15
  0
3DFACE
  5
1169
  8
חשמל
 10
5680.0000
 20
-50.0000
 30
300.0000
 11
5680.0000
 21
-100.0000
 31
300.0000
 12
5680.0000
 22
-100.0000
 32
360.0000
 13
5680.0000
 23
-50.0000
 33
360.0000
 70
15
  0
INSERT
  5
116A
  8
חשמל
  2
CONTROLBOX
 10
6890.0000
 20
0.0000
 30
1500.0000
 41
1.0000
 42
1.0000
 43
1.0000
 50
0.0000
  0
3DFACE
  5
116B
  8
חשמל
 10
6640.0000
 20
-270.0000
 30
1500.0000
 11
7140.0000
 21
-270.0000
 31
1500.0000
 12
7140.0000
 22
-50.0000
 32
1500.0000
 13
6640.0000
 23
-50.0000
 33
1500.0000
 70
15
  0
3DFACE
  5
116C
  8
חשמל
 10
6640.0000
 20
-270.0000
 30
2040.0000
 11
7140.0000
 21
-270.0000
 31
2040.0000
 12
7140.0000
 22
-50.0000
 32
2040.0000
 13
6640.0000
 23
-50.0000
 33
2040.0000
 70
15
  0
3DFACE
  5
116D
  8
חשמל
 10
6640.0000
 20
-270.0000
 30
1500.0000
 11
7140.0000
 21
-270.0000
 31
1500.0000
 12
7140.0000
 22
-270.0000
 32
2040.0000
 13
6640.0000
 23
-270.0000
 33
2040.0000
 70
15
  0
3DFACE
  5
116E
  8
חשמל
 10
7140.0000
 20
-270.0000
 30
1500.0000
 11
7140.0000
 21
-50.0000
 31
1500.0000
 12
7140.0000
 22
-50.0000
 32
2040.0000
 13
7140.0000
 23
-270.0000
 33
2040.0000
 70
15
  0
3DFACE
  5
116F
  8
חשמל
 10
7140.0000
 20
-50.0000
 30
1500.0000
 11
6640.0000
 21
-50.0000
 31
1500.0000
 12
6640.0000
 22
-50.0000
 32
2040.0000
 13
7140.0000
 23
-50.0000
 33
2040.0000
 70
15
  0
3DFACE
  5
1170
  8
חשמל
 10
6640.0000
 20
-50.0000
 30
1500.0000
 11
6640.0000
 21
-270.0000
 31
1500.0000
 12
6640.0000
 22
-270.0000
 32
2040.0000
 13
6640.0000
 23
-50.0000
 33
2040.0000
 70
15
  0
INSERT
  5
1171
  8
חשמל
  2
CONTROLBOX
 10
8340.0000
 20
0.0000
 30
2200.0000
 41
1.0000
 42
1.0000
 43
1.0000
 50
0.0000
  0
3DFACE
  5
1172
  8
חשמל
 10
8290.0000
 20
-60.0000
 30
2200.0000
 11
8390.0000
 21
-60.0000
 31
2200.0000
 12
8390.0000
 22
-50.0000
 32
2200.0000
 13
8290.0000
 23
-50.0000
 33
2200.0000
 70
15
  0
3DFACE
  5
1173
  8
חשמל
 10
8290.0000
 20
-60.0000
 30
2300.0000
 11
8390.0000
 21
-60.0000
 31
2300.0000
 12
8390.0000
 22
-50.0000
 32
2300.0000
 13
8290.0000
 23
-50.0000
 33
2300.0000
 70
15
  0
3DFACE
  5
1174
  8
חשמל
 10
8290.0000
 20
-60.0000
 30
2200.0000
 11
8390.0000
 21
-60.0000
 31
2200.0000
 12
8390.0000
 22
-60.0000
 32
2300.0000
 13
8290.0000
 23
-60.0000
 33
2300.0000
 70
15
  0
3DFACE
  5
1175
  8
חשמל
 10
8390.0000
 20
-60.0000
 30
2200.0000
 11
8390.0000
 21
-50.0000
 31
2200.0000
 12
8390.0000
 22
-50.0000
 32
2300.0000
 13
8390.0000
 23
-60.0000
 33
2300.0000
 70
15
  0
3DFACE
  5
1176
  8
חשמל
 10
8390.0000
 20
-50.0000
 30
2200.0000
 11
8290.0000
 21
-50.0000
 31
2200.0000
 12
8290.0000
 22
-50.0000
 32
2300.0000
 13
8390.0000
 23
-50.0000
 33
2300.0000
 70
15
  0
3DFACE
  5
1177
  8
חשמל
 10
8290.0000
 20
-50.0000
 30
2200.0000
 11
8290.0000
 21
-60.0000
 31
2200.0000
 12
8290.0000
 22
-60.0000
 32
2300.0000
 13
8290.0000
 23
-50.0000
 33
2300.0000
 70
15
  0
INSERT
  5
1178
  8
חשמל
  2
CONTROLBOX
 10
9320.0000
 20
0.0000
 30
400.0000
 41
1.0000
 42
1.0000
 43
1.0000
 50
0.0000
  0
3DFACE
  5
1179
  8
חשמל
 10
9290.0000
 20
-60.0000
 30
400.0000
 11
9350.0000
 21
-60.0000
 31
400.0000
 12
9350.0000
 22
-50.0000
 32
400.0000
 13
9290.0000
 23
-50.0000
 33
400.0000
 70
15
  0
3DFACE
  5
117A
  8
חשמל
 10
9290.0000
 20
-60.0000
 30
480.0000
 11
9350.0000
 21
-60.0000
 31
480.0000
 12
9350.0000
 22
-50.0000
 32
480.0000
 13
9290.0000
 23
-50.0000
 33
480.0000
 70
15
  0
3DFACE
  5
117B
  8
חשמל
 10
9290.0000
 20
-60.0000
 30
400.0000
 11
9350.0000
 21
-60.0000
 31
400.0000
 12
9350.0000
 22
-60.0000
 32
480.0000
 13
9290.0000
 23
-60.0000
 33
480.0000
 70
15
  0
3DFACE
  5
117C
  8
חשמל
 10
9350.0000
 20
-60.0000
 30
400.0000
 11
9350.0000
 21
-50.0000
 31
400.0000
 12
9350.0000
 22
-50.0000
 32
480.0000
 13
9350.0000
 23
-60.0000
 33
480.0000
 70
15
  0
3DFACE
  5
117D
  8
חשמל
 10
9350.0000
 20
-50.0000
 30
400.0000
 11
9290.0000
 21
-50.0000
 31
400.0000
 12
9290.0000
 22
-50.0000
 32
480.0000
 13
9350.0000
 23
-50.0000
 33
480.0000
 70
15
  0
3DFACE
  5
117E
  8
חשמל
 10
9290.0000
 20
-50.0000
 30
400.0000
 11
9290.0000
 21
-60.0000
 31
400.0000
 12
9290.0000
 22
-60.0000
 32
480.0000
 13
9290.0000
 23
-50.0000
 33
480.0000
 70
15
  0
INSERT
  5
117F
  8
חשמל
  2
CONTROLBOX
 10
10280.0000
 20
0.0000
 30
400.0000
 41
1.0000
 42
1.0000
 43
1.0000
 50
0.0000
  0
3DFACE
  5
1180
  8
חשמל
 10
10250.0000
 20
-60.0000
 30
400.0000
 11
10310.0000
 21
-60.0000
 31
400.0000
 12
10310.0000
 22
-50.0000
 32
400.0000
 13
10250.0000
 23
-50.0000
 33
400.0000
 70
15
  0
3DFACE
  5
1181
  8
חשמל
 10
10250.0000
 20
-60.0000
 30
480.0000
 11
10310.0000
 21
-60.0000
 31
480.0000
 12
10310.0000
 22
-50.0000
 32
480.0000
 13
10250.0000
 23
-50.0000
 33
480.0000
 70
15
  0
3DFACE
  5
1182
  8
חשמל
 10
10250.0000
 20
-60.0000
 30
400.0000
 11
10310.0000
 21
-60.0000
 31
400.0000
 12
10310.0000
 22
-60.0000
 32
480.0000
 13
10250.0000
 23
-60.0000
 33
480.0000
 70
15
  0
3DFACE
  5
1183
  8
חשמל
 10
10310.0000
 20
-60.0000
 30
400.0000
 11
10310.0000
 21
-50.0000
 31
400.0000
 12
10310.0000
 22
-50.0000
 32
480.0000
 13
10310.0000
 23
-60.0000
 33
480.0000
 70
15
  0
3DFACE
  5
1184
  8
חשמל
 10
10310.0000
 20
-50.0000
 30
400.0000
 11
10250.0000
 21
-50.0000
 31
400.0000
 12
10250.0000
 22
-50.0000
 32
480.0000
 13
10310.0000
 23
-50.0000
 33
480.0000
 70
15
  0
3DFACE
  5
1185
  8
חשמל
 10
10250.0000
 20
-50.0000
 30
400.0000
 11
10250.0000
 21
-60.0000
 31
400.0000
 12
10250.0000
 22
-60.0000
 32
480.0000
 13
10250.0000
 23
-50.0000
 33
480.0000
 70
15
  0
INSERT
  5
1186
  8
תאורה
  2
LIGHTING
 10
11285.0000
 20
0.0000
 30
2600.0000
 41
1.0000
 42
1.0000
 43
1.0000
 50
0.0000
  0
3DFACE
  5
1187
  8
תאורה
 10
11210.0000
 20
-150.0000
 30
2600.0000
 11
11360.0000
 21
-150.0000
 31
2600.0000
 12
11360.0000
 22
-50.0000
 32
2600.0000
 13
11210.0000
 23
-50.0000
 33
2600.0000
 70
15
  0
3DFACE
  5
1188
  8
תאורה
 10
11210.0000
 20
-150.0000
 30
2750.0000
 11
11360.0000
 21
-150.0000
 31
2750.0000
 12
11360.0000
 22
-50.0000
 32
2750.0000
 13
11210.0000
 23
-50.0000
 33
2750.0000
 70
15
  0
3DFACE
  5
1189
  8
תאורה
 10
11210.0000
 20
-150.0000
 30
2600.0000
 11
11360.0000
 21
-150.0000
 31
2600.0000
 12
11360.0000
 22
-150.0000
 32
2750.0000
 13
11210.0000
 23
-150.0000
 33
2750.0000
 70
15
  0
3DFACE
  5
118A
  8
תאורה
 10
11360.0000
 20
-150.0000
 30
2600.0000
 11
11360.0000
 21
-50.0000
 31
2600.0000
 12
11360.0000
 22
-50.0000
 32
2750.0000
 13
11360.0000
 23
-150.0000
 33
2750.0000
 70
15
  0
3DFACE
  5
118B
  8
תאורה
 10
11360.0000
 20
-50.0000
 30
2600.0000
 11
11210.0000
 21
-50.0000
 31
2600.0000
 12
11210.0000
 22
-50.0000
 32
2750.0000
 13
11360.0000
 23
-50.0000
 33
2750.0000
 70
15
  0
3DFACE
  5
118C
  8
תאורה
 10
11210.0000
 20
-50.0000
 30
2600.0000
 11
11210.0000
 21
-150.0000
 31
2600.0000
 12
11210.0000
 22
-150.0000
 32
2750.0000
 13
11210.0000
 23
-50.0000
 33
2750.0000
 70
15
  0
INSERT
  5
118D
  8
מים
  2
FAUCET
 10
16700.0000
 20
-630.0000
 30
300.0000
 41
1.0000
 42
1.0000
 43
1.0000
 50
270.0000
  0
3DFACE
  5
118E
  8
מים
 10
16620.0000
 20
-600.0000
 30
300.0000
 11
16620.0000
 21
-660.0000
 31
300.0000
 12
16650.0000
 22
-660.0000
 32
300.0000
 13
16650.0000
 23
-600.0000
 33
300.0000
 70
15
  0
3DFACE
  5
118F
  8
מים
 10
16620.0000
 20
-600.0000
 30
360.0000
 11
16620.0000
 21
-660.0000
 31
360.0000
 12
16650.0000
 22
-660.0000
 32
360.0000
 13
16650.0000
 23
-600.0000
 33
360.0000
 70
15
  0
3DFACE
  5
1190
  8
מים
 10
16620.0000
 20
-600.0000
 30
300.0000
 11
16620.0000
 21
-660.0000
 31
300.0000
 12
16620.0000
 22
-660.0000
 32
360.0000
 13
16620.0000
 23
-600.0000
 33
360.0000
 70
15
  0
3DFACE
  5
1191
  8
מים
 10
16620.0000
 20
-660.0000
 30
300.0000
 11
16650.0000
 21
-660.0000
 31
300.0000
 12
16650.0000
 22
-660.0000
 32
360.0000
 13
16620.0000
 23
-660.0000
 33
360.0000
 70
15
  0
3DFACE
  5
1192
  8
מים
 10
16650.0000
 20
-660.0000
 30
300.0000
 11
16650.0000
 21
-600.0000
 31
300.0000
 12
16650.0000
 22
-600.0000
 32
360.0000
 13
16650.0000
 23
-660.0000
 33
360.0000
 70
15
  0
3DFACE
  5
1193
  8
מים
 10
16650.0000
 20
-600.0000
 30
300.0000
 11
16620.0000
 21
-600.0000
 31
300.0000
 12
16620.0000
 22
-600.0000
 32
360.0000
 13
16650.0000
 23
-600.0000
 33
360.0000
 70
15
  0
INSERT
  5
1194
  8
מים
  2
FAUCET
 10
16700.0000
 20
-1645.0000
 30
1000.0000
 41
1.0000
 42
1.0000
 43
1.0000
 50
270.0000
  0
3DFACE
  5
1195
  8
מים
 10
16640.0000
 20
-1610.0000
 30
1000.0000
 11
16640.0000
 21
-1680.0000
 31
1000.0000
 12
16650.0000
 22
-1680.0000
 32
1000.0000
 13
16650.0000
 23
-1610.0000
 33
1000.0000
 70
15
  0
3DFACE
  5
1196
  8
מים
 10
16640.0000
 20
-1610.0000
 30
1070.0000
 11
16640.0000
 21
-1680.0000
 31
1070.0000
 12
16650.0000
 22
-1680.0000
 32
1070.0000
 13
16650.0000
 23
-1610.0000
 33
1070.0000
 70
15
  0
3DFACE
  5
1197
  8
מים
 10
16640.0000
 20
-1610.0000
 30
1000.0000
 11
16640.0000
 21
-1680.0000
 31
1000.0000
 12
16640.0000
 22
-1680.0000
 32
1070.0000
 13
16640.0000
 23
-1610.0000
 33
1070.0000
 70
15
  0
3DFACE
  5
1198
  8
מים
 10
16640.0000
 20
-1680.0000
 30
1000.0000
 11
16650.0000
 21
-1680.0000
 31
1000.0000
 12
16650.0000
 22
-1680.0000
 32
1070.0000
 13
16640.0000
 23
-1680.0000
 33
1070.0000
 70
15
  0
3DFACE
  5
1199
  8
מים
 10
16650.0000
 20
-1680.0000
 30
1000.0000
 11
16650.0000
 21
-1610.0000
 31
1000.0000
 12
16650.0000
 22
-1610.0000
 32
1070.0000
 13
16650.0000
 23
-1680.0000
 33
1070.0000
 70
15
  0
3DFACE
  5
119A
  8
מים
 10
16650.0000
 20
-1610.0000
 30
1000.0000
 11
16640.0000
 21
-1610.0000
 31
1000.0000
 12
16640.0000
 22
-1610.0000
 32
1070.0000
 13
16650.0000
 23
-1610.0000
 33
1070.0000
 70
15
  0
INSERT
  5
119B
  8
מים
  2
FAUCET
 10
16700.0000
 20
-2880.0000
 30
850.0000
 41
1.0000
 42
1.0000
 43
1.0000
 50
270.0000
  0
3DFACE
  5
119C
  8
מים
 10
16150.0000
 20
-2630.0000
 30
850.0000
 11
16150.0000
 21
-3130.0000
 31
850.0000
 12
16650.0000
 22
-3130.0000
 32
850.0000
 13
16650.0000
 23
-2630.0000
 33
850.0000
 70
15
  0
3DFACE
  5
119D
  8
מים
 10
16150.0000
 20
-2630.0000
 30
1050.0000
 11
16150.0000
 21
-3130.0000
 31
1050.0000
 12
16650.0000
 22
-3130.0000
 32
1050.0000
 13
16650.0000
 23
-2630.0000
 33
1050.0000
 70
15
  0
3DFACE
  5
119E
  8
מים
 10
16150.0000
 20
-2630.0000
 30
850.0000
 11
16150.0000
 21
-3130.0000
 31
850.0000
 12
16150.0000
 22
-3130.0000
 32
1050.0000
 13
16150.0000
 23
-2630.0000
 33
1050.0000
 70
15
  0
3DFACE
  5
119F
  8
מים
 10
16150.0000
 20
-3130.0000
 30
850.0000
 11
16650.0000
 21
-3130.0000
 31
850.0000
 12
16650.0000
 22
-3130.0000
 32
1050.0000
 13
16150.0000
 23
-3130.0000
 33
1050.0000
 70
15
  0
3DFACE
  5
11A0
  8
מים
 10
16650.0000
 20
-3130.0000
 30
850.0000
 11
16650.0000
 21
-2630.0000
 31
850.0000
 12
16650.0000
 22
-2630.0000
 32
1050.0000
 13
16650.0000
 23
-3130.0000
 33
1050.0000
 70
15
  0
3DFACE
  5
11A1
  8
מים
 10
16650.0000
 20
-2630.0000
 30
850.0000
 11
16150.0000
 21
-2630.0000
 31
850.0000
 12
16150.0000
 22
-2630.0000
 32
1050.0000
 13
16650.0000
 23
-2630.0000
 33
1050.0000
 70
15
  0
INSERT
  5
11A2
  8
מים
  2
SEWAGE
 10
16700.0000
 20
-4135.0000
 30
0.0000
 41
1.0000
 42
1.0000
 43
1.0000
 50
270.0000
  0
3DFACE
  5
11A3
  8
ניקוז
 10
16640.0000
 20
-4080.0000
 30
0.0000
 11
16640.0000
 21
-4190.0000
 31
0.0000
 12
16650.0000
 22
-4190.0000
 32
0.0000
 13
16650.0000
 23
-4080.0000
 33
0.0000
 70
15
  0
3DFACE
  5
11A4
  8
ניקוז
 10
16640.0000
 20
-4080.0000
 30
110.0000
 11
16640.0000
 21
-4190.0000
 31
110.0000
 12
16650.0000
 22
-4190.0000
 32
110.0000
 13
16650.0000
 23
-4080.0000
 33
110.0000
 70
15
  0
3DFACE
  5
11A5
  8
ניקוז
 10
16640.0000
 20
-4080.0000
 30
0.0000
 11
16640.0000
 21
-4190.0000
 31
0.0000
 12
16640.0000
 22
-4190.0000
 32
110.0000
 13
16640.0000
 23
-4080.0000
 33
110.0000
 70
15
  0
3DFACE
  5
11A6
  8
ניקוז
 10
16640.0000
 20
-4190.0000
 30
0.0000
 11
16650.0000
 21
-4190.0000
 31
0.0000
 12
16650.0000
 22
-4190.0000
 32
110.0000
 13
16640.0000
 23
-4190.0000
 33
110.0000
 70
15
  0
3DFACE
  5
11A7
  8
ניקוז
 10
16650.0000
 20
-4190.0000
 30
0.0000
 11
16650.0000
 21
-4080.0000
 31
0.0000
 12
16650.0000
 22
-4080.0000
 32
110.0000
 13
16650.0000
 23
-4190.0000
 33
110.0000
 70
15
  0
3DFACE
  5
11A8
  8
ניקוז
 10
16650.0000
 20
-4080.0000
 30
0.0000
 11
16640.0000
 21
-4080.0000
 31
0.0000
 12
16640.0000
 22
-4080.0000
 32
110.0000
 13
16650.0000
 23
-4080.0000
 33
110.0000
 70
15
  0
INSERT
  5
11A9
  8
מים
  2
SEWAGE
 10
16700.0000
 20
-5195.0000
 30
150.0000
 41
1.0000
 42
1.0000
 43
1.0000
 50
270.0000
  0
3DFACE
  5
11AA
  8
ניקוז
 10
16600.0000
 20
-5140.0000
 30
150.0000
 11
16600.0000
 21
-5250.0000
 31
150.0000
 12
16650.0000
 22
-5250.0000
 32
150.0000
 13
16650.0000
 23
-5140.0000
 33
150.0000
 70
15
  0
3DFACE
  5
11AB
  8
ניקוז
 10
16600.0000
 20
-5140.0000
 30
260.0000
 11
16600.0000
 21
-5250.0000
 31
260.0000
 12
16650.0000
 22
-5250.0000
 32
260.0000
 13
16650.0000
 23
-5140.0000
 33
260.0000
 70
15
  0
3DFACE
  5
11AC
  8
ניקוז
 10
16600.0000
 20
-5140.0000
 30
150.0000
 11
16600.0000
 21
-5250.0000
 31
150.0000
 12
16600.0000
 22
-5250.0000
 32
260.0000
 13
16600.0000
 23
-5140.0000
 33
260.0000
 70
15
  0
3DFACE
  5
11AD
  8
ניקוז
 10
16600.0000
 20
-5250.0000
 30
150.0000
 11
16650.0000
 21
-5250.0000
 31
150.0000
 12
16650.0000
 22
-5250.0000
 32
260.0000
 13
16600.0000
 23
-5250.0000
 33
260.0000
 70
15
  0
3DFACE
  5
11AE
  8
ניקוז
 10
16650.0000
 20
-5250.0000
 30
150.0000
 11
16650.0000
 21
-5140.0000
 31
150.0000
 12
16650.0000
 22
-5140.0000
 32
260.0000
 13
16650.0000
 23
-5250.0000
 33
260.0000
 70
15
  0
3DFACE
  5
11AF
  8
ניקוז
 10
16650.0000
 20
-5140.0000
 30
150.0000
 11
16600.0000
 21
-5140.0000
 31
150.0000
 12
16600.0000
 22
-5140.0000
 32
260.0000
 13
16650.0000
 23
-5140.0000
 33
260.0000
 70
15
  0
INSERT
  5
11B0
  8
גז
  2
GAS
 10
16700.0000
 20
-6230.0000
 30
700.0000
 41
1.0000
 42
1.0000
 43
1.0000
 50
270.0000
  0
3DFACE
  5
11B1
  8
גז
 10
16620.0000
 20
-6200.0000
 30
700.0000
 11
16620.0000
 21
-6260.0000
 31
700.0000
 12
16650.0000
 22
-6260.0000
 32
700.0000
 13
16650.0000
 23
-6200.0000
 33
700.0000
 70
15
  0
3DFACE
  5
11B2
  8
גז
 10
16620.0000
 20
-6200.0000
 30
760.0000
 11
16620.0000
 21
-6260.0000
 31
760.0000
 12
16650.0000
 22
-6260.0000
 32
760.0000
 13
16650.0000
 23
-6200.0000
 33
760.0000
 70
15
  0
3DFACE
  5
11B3
  8
גז
 10
16620.0000
 20
-6200.0000
 30
700.0000
 11
16620.0000
 21
-6260.0000
 31
700.0000
 12
16620.0000
 22
-6260.0000
 32
760.0000
 13
16620.0000
 23
-6200.0000
 33
760.0000
 70
15
  0
3DFACE
  5
11B4
  8
גז
 10
16620.0000
 20
-6260.0000
 30
700.0000
 11
16650.0000
 21
-6260.0000
 31
700.0000
 12
16650.0000
 22
-6260.0000
 32
760.0000
 13
16620.0000
 23
-6260.0000
 33
760.0000
 70
15
  0
3DFACE
  5
11B5
  8
גז
 10
16650.0000
 20
-6260.0000
 30
700.0000
 11
16650.0000
 21
-6200.0000
 31
700.0000
 12
16650.0000
 22
-6200.0000
 32
760.0000
 13
16650.0000
 23
-6260.0000
 33
760.0000
 70
15
  0
3DFACE
  5
11B6
  8
גז
 10
16650.0000
 20
-6200.0000
 30
700.0000
 11
16620.0000
 21
-6200.0000
 31
700.0000
 12
16620.0000
 22
-6200.0000
 32
760.0000
 13
16650.0000
 23
-6200.0000
 33
760.0000
 70
15
  0
INSERT
  5
11B7
  8
מים
  2
SEWAGE
 10
16700.0000
 20
-7390.0000
 30
0.0000
 41
1.0000
 42
1.0000
 43
1.0000
 50
270.0000
  0
3DFACE
  5
11B8
  8
ניקוז
 10
16000.0000
 20
-7210.0000
 30
0.0000
 11
16000.0000
 21
-7570.0000
 31
0.0000
 12
16650.0000
 22
-7570.0000
 32
0.0000
 13
16650.0000
 23
-7210.0000
 33
0.0000
 70
15
  0
3DFACE
  5
11B9
  8
ניקוז
 10
16000.0000
 20
-7210.0000
 30
400.0000
 11
16000.0000
 21
-7570.0000
 31
400.0000
 12
16650.0000
 22
-7570.0000
 32
400.0000
 13
16650.0000
 23
-7210.0000
 33
400.0000
 70
15
  0
3DFACE
  5
11BA
  8
ניקוז
 10
16000.0000
 20
-7210.0000
 30
0.0000
 11
16000.0000
 21
-7570.0000
 31
0.0000
 12
16000.0000
 22
-7570.0000
 32
400.0000
 13
16000.0000
 23
-7210.0000
 33
400.0000
 70
15
  0
3DFACE
  5
11BB
  8
ניקוז
 10
16000.0000
 20
-7570.0000
 30
0.0000
 11
16650.0000
 21
-7570.0000
 31
0.0000
 12
16650.0000
 22
-7570.0000
 32
400.0000
 13
16000.0000
 23
-7570.0000
 33
400.0000
 70
15
  0
3DFACE
  5
11BC
  8
ניקוז
 10
16650.0000
 20
-7570.0000
 30
0.0000
 11
16650.0000
 21
-7210.0000
 31
0.0000
 12
16650.0000
 22
-7210.0000
 32
400.0000
 13
16650.0000
 23
-7570.0000
 33
400.0000
 70
15
  0
3DFACE
  5
11BD
  8
ניקוז
 10
16650.0000
 20
-7210.0000
 30
0.0000
 11
16000.0000
 21
-7210.0000
 31
0.0000
 12
16000.0000
 22
-7210.0000
 32
400.0000
 13
16650.0000
 23
-7210.0000
 33
400.0000
 70
15
  0
INSERT
  5
11BE
  8
חשמל
  2
CONTROLBOX
 10
7300.0000
 20
-11600.0000
 30
2250.0000
 41
1.0000
 42
1.0000
 43
1.0000
 50
180.0000
  0
3DFACE
  5
11BF
  8
חלונות
 10
7950.0000
 20
-11350.0000
 30
2250.0000
 11
6650.0000
 21
-11350.0000
 31
2250.0000
 12
6650.0000
 22
-11550.0000
 32
2250.0000
 13
7950.0000
 23
-11550.0000
 33
2250.0000
 70
15
  0
3DFACE
  5
11C0
  8
חלונות
 10
7950.0000
 20
-11350.0000
 30
2550.0000
 11
6650.0000
 21
-11350.0000
 31
2550.0000
 12
6650.0000
 22
-11550.0000
 32
2550.0000
 13
7950.0000
 23
-11550.0000
 33
2550.0000
 70
15
  0
3DFACE
  5
11C1
  8
חלונות
 10
7950.0000
 20
-11350.0000
 30
2250.0000
 11
6650.0000
 21
-11350.0000
 31
2250.0000
 12
6650.0000
 22
-11350.0000
 32
2550.0000
 13
7950.0000
 23
-11350.0000
 33
2550.0000
 70
15
  0
3DFACE
  5
11C2
  8
חלונות
 10
6650.0000
 20
-11350.0000
 30
2250.0000
 11
6650.0000
 21
-11550.0000
 31
2250.0000
 12
6650.0000
 22
-11550.0000
 32
2550.0000
 13
6650.0000
 23
-11350.0000
 33
2550.0000
 70
15
  0
3DFACE
  5
11C3
  8
חלונות
 10
6650.0000
 20
-11550.0000
 30
2250.0000
 11
7950.0000
 21
-11550.0000
 31
2250.0000
 12
7950.0000
 22
-11550.0000
 32
2550.0000
 13
6650.0000
 23
-11550.0000
 33
2550.0000
 70
15
  0
3DFACE
  5
11C4
  8
חלונות
 10
7950.0000
 20
-11550.0000
 30
2250.0000
 11
7950.0000
 21
-11350.0000
 31
2250.0000
 12
7950.0000
 22
-11350.0000
 32
2550.0000
 13
7950.0000
 23
-11550.0000
 33
2550.0000
 70
15
  0
INSERT
  5
11C5
  8
חשמל
  2
CONTROLBOX
 10
2100.0000
 20
-11600.0000
 30
0.0000
 41
1.0000
 42
1.0000
 43
1.0000
 50
180.0000
  0
3DFACE
  5
11C6
  8
דלתות
 10
2500.0000
 20
-11350.0000
 30
0.0000
 11
1700.0000
 21
-11350.0000
 31
0.0000
 12
1700.0000
 22
-11550.0000
 32
0.0000
 13
2500.0000
 23
-11550.0000
 33
0.0000
 70
15
  0
3DFACE
  5
11C7
  8
דלתות
 10
2500.0000
 20
-11350.0000
 30
2000.0000
 11
1700.0000
 21
-11350.0000
 31
2000.0000
 12
1700.0000
 22
-11550.0000
 32
2000.0000
 13
2500.0000
 23
-11550.0000
 33
2000.0000
 70
15
  0
3DFACE
  5
11C8
  8
דלתות
 10
2500.0000
 20
-11350.0000
 30
0.0000
 11
1700.0000
 21
-11350.0000
 31
0.0000
 12
1700.0000
 22
-11350.0000
 32
2000.0000
 13
2500.0000
 23
-11350.0000
 33
2000.0000
 70
15
  0
3DFACE
  5
11C9
  8
דלתות
 10
1700.0000
 20
-11350.0000
 30
0.0000
 11
1700.0000
 21
-11550.0000
 31
0.0000
 12
1700.0000
 22
-11550.0000
 32
2000.0000
 13
1700.0000
 23
-11350.0000
 33
2000.0000
 70
15
  0
3DFACE
  5
11CA
  8
דלתות
 10
1700.0000
 20
-11550.0000
 30
0.0000
 11
2500.0000
 21
-11550.0000
 31
0.0000
 12
2500.0000
 22
-11550.0000
 32
2000.0000
 13
1700.0000
 23
-11550.0000
 33
2000.0000
 70
15
  0
3DFACE
  5
11CB
  8
דלתות
 10
2500.0000
 20
-11550.0000
 30
0.0000
 11
2500.0000
 21
-11350.0000
 31
0.0000
 12
2500.0000
 22
-11350.0000
 32
2000.0000
 13
2500.0000
 23
-11550.0000
 33
2000.0000
 70
15
  0
INSERT
  5
11CC
  8
חשמל
  2
CONTROLBOX
 10
0.0000
 20
-10500.0000
 30
2200.0000
 41
1.0000
 42
1.0000
 43
1.0000
 50
90.0000
  0
3DFACE
  5
11CD
  8
מיזוג
 10
300.0000
 20
-11000.0000
 30
2200.0000
 11
300.0000
 21
-10000.0000
 31
2200.0000
 12
50.0000
 22
-10000.0000
 32
2200.0000
 13
50.0000
 23
-11000.0000
 33
2200.0000
 70
15
  0
3DFACE
  5
11CE
  8
מיזוג
 10
300.0000
 20
-11000.0000
 30
2500.0000
 11
300.0000
 21
-10000.0000
 31
2500.0000
 12
50.0000
 22
-10000.0000
 32
2500.0000
 13
50.0000
 23
-11000.0000
 33
2500.0000
 70
15
  0
3DFACE
  5
11CF
  8
מיזוג
 10
300.0000
 20
-11000.0000
 30
2200.0000
 11
300.0000
 21
-10000.0000
 31
2200.0000
 12
300.0000
 22
-10000.0000
 32
2500.0000
 13
300.0000
 23
-11000.0000
 33
2500.0000
 70
15
  0
3DFACE
  5
11D0
  8
מיזוג
 10
300.0000
 20
-10000.0000
 30
2200.0000
 11
50.0000
 21
-10000.0000
 31
2200.0000
 12
50.0000
 22
-10000.0000
 32
2500.0000
 13
300.0000
 23
-10000.0000
 33
2500.0000
 70
15
  0
3DFACE
  5
11D1
  8
מיזוג
 10
50.0000
 20
-10000.0000
 30
2200.0000
 11
50.0000
 21
-11000.0000
 31
2200.0000
 12
50.0000
 22
-11000.0000
 32
2500.0000
 13
50.0000
 23
-10000.0000
 33
2500.0000
 70
15
  0
3DFACE
  5
11D2
  8
מיזוג
 10
50.0000
 20
-11000.0000
 30
2200.0000
 11
300.0000
 21
-11000.0000
 31
2200.0000
 12
300.0000
 22
-11000.0000
 32
2500.0000
 13
50.0000
 23
-11000.0000
 33
2500.0000
 70
15
  0
INSERT
  5
11D3
  8
חשמל
  2
CONTROLBOX
 10
0.0000
 20
-8100.0000
 30
2600.0000
 41
1.0000
 42
1.0000
 43
1.0000
 50
90.0000
  0
3DFACE
  5
11D4
  8
מיזוג
 10
350.0000
 20
-8350.0000
 30
2600.0000
 11
350.0000
 21
-7850.0000
 31
2600.0000
 12
50.0000
 22
-7850.0000
 32
2600.0000
 13
50.0000
 23
-8350.0000
 33
2600.0000
 70
15
  0
3DFACE
  5
11D5
  8
מיזוג
 10
350.0000
 20
-8350.0000
 30
3100.0000
 11
350.0000
 21
-7850.0000
 31
3100.0000
 12
50.0000
 22
-7850.0000
 32
3100.0000
 13
50.0000
 23
-8350.0000
 33
3100.0000
 70
15
  0
3DFACE
  5
11D6
  8
מיזוג
 10
350.0000
 20
-8350.0000
 30
2600.0000
 11
350.0000
 21
-7850.0000
 31
2600.0000
 12
350.0000
 22
-7850.0000
 32
3100.0000
 13
350.0000
 23
-8350.0000
 33
3100.0000
 70
15
  0
3DFACE
  5
11D7
  8
מיזוג
 10
350.0000
 20
-7850.0000
 30
2600.0000
 11
50.0000
 21
-7850.0000
 31
2600.0000
 12
50.0000
 22
-7850.0000
 32
3100.0000
 13
350.0000
 23
-7850.0000
 33
3100.0000
 70
15
  0
3DFACE
  5
11D8
  8
מיזוג
 10
50.0000
 20
-7850.0000
 30
2600.0000
 11
50.0000
 21
-8350.0000
 31
2600.0000
 12
50.0000
 22
-8350.0000
 32
3100.0000
 13
50.0000
 23
-7850.0000
 33
3100.0000
 70
15
  0
3DFACE
  5
11D9
  8
מיזוג
 10
50.0000
 20
-8350.0000
 30
2600.0000
 11
350.0000
 21
-8350.0000
 31
2600.0000
 12
350.0000
 22
-8350.0000
 32
3100.0000
 13
50.0000
 23
-8350.0000
 33
3100.0000
 70
15
  0
INSERT
  5
11DA
  8
חשמל
  2
CONTROLBOX
 10
0.0000
 20
-5950.0000
 30
150.0000
 41
1.0000
 42
1.0000
 43
1.0000
 50
90.0000
  0
3DFACE
  5
11DB
  8
מיזוג
 10
200.0000
 20
-6450.0000
 30
150.0000
 11
200.0000
 21
-5450.0000
 31
150.0000
 12
50.0000
 22
-5450.0000
 32
150.0000
 13
50.0000
 23
-6450.0000
 33
150.0000
 70
15
  0
3DFACE
  5
11DC
  8
מיזוג
 10
200.0000
 20
-6450.0000
 30
1030.0000
 11
200.0000
 21
-5450.0000
 31
1030.0000
 12
50.0000
 22
-5450.0000
 32
1030.0000
 13
50.0000
 23
-6450.0000
 33
1030.0000
 70
15
  0
3DFACE
  5
11DD
  8
מיזוג
 10
200.0000
 20
-6450.0000
 30
150.0000
 11
200.0000
 21
-5450.0000
 31
150.0000
 12
200.0000
 22
-5450.0000
 32
1030.0000
 13
200.0000
 23
-6450.0000
 33
1030.0000
 70
15
  0
3DFACE
  5
11DE
  8
מיזוג
 10
200.0000
 20
-5450.0000
 30
150.0000
 11
50.0000
 21
-5450.0000
 31
150.0000
 12
50.0000
 22
-5450.0000
 32
1030.0000
 13
200.0000
 23
-5450.0000
 33
1030.0000
 70
15
  0
3DFACE
  5
11DF
  8
מיזוג
 10
50.0000
 20
-5450.0000
 30
150.0000
 11
50.0000
 21
-6450.0000
 31
150.0000
 12
50.0000
 22
-6450.0000
 32
1030.0000
 13
50.0000
 23
-5450.0000
 33
1030.0000
 70
15
  0
3DFACE
  5
11E0
  8
מיזוג
 10
50.0000
 20
-6450.0000
 30
150.0000
 11
200.0000
 21
-6450.0000
 31
150.0000
 12
200.0000
 22
-6450.0000
 32
1030.0000
 13
50.0000
 23
-6450.0000
 33
1030.0000
 70
15
  0
INSERT
  5
11E1
  8
חשמל
  2
CONTROLBOX
 10
0.0000
 20
-3675.0000
 30
2200.0000
 41
1.0000
 42
1.0000
 43
1.0000
 50
90.0000
  0
3DFACE
  5
11E2
  8
מבנה
 10
350.0000
 20
-3800.0000
 30
2200.0000
 11
350.0000
 21
-3550.0000
 31
2200.0000
 12
50.0000
 22
-3550.0000
 32
2200.0000
 13
50.0000
 23
-3800.0000
 33
2200.0000
 70
15
  0
3DFACE
  5
11E3
  8
מבנה
 10
350.0000
 20
-3800.0000
 30
2600.0000
 11
350.0000
 21
-3550.0000
 31
2600.0000
 12
50.0000
 22
-3550.0000
 32
2600.0000
 13
50.0000
 23
-3800.0000
 33
2600.0000
 70
15
  0
3DFACE
  5
11E4
  8
מבנה
 10
350.0000
 20
-3800.0000
 30
2200.0000
 11
350.0000
 21
-3550.0000
 31
2200.0000
 12
350.0000
 22
-3550.0000
 32
2600.0000
 13
350.0000
 23
-3800.0000
 33
2600.0000
 70
15
  0
3DFACE
  5
11E5
  8
מבנה
 10
350.0000
 20
-3550.0000
 30
2200.0000
 11
50.0000
 21
-3550.0000
 31
2200.0000
 12
50.0000
 22
-3550.0000
 32
2600.0000
 13
350.0000
 23
-3550.0000
 33
2600.0000
 70
15
  0
3DFACE
  5
11E6
  8
מבנה
 10
50.0000
 20
-3550.0000
 30
2200.0000
 11
50.0000
 21
-3800.0000
 31
2200.0000
 12
50.0000
 22
-3800.0000
 32
2600.0000
 13
50.0000
 23
-3550.0000
 33
2600.0000
 70
15
  0
3DFACE
  5
11E7
  8
מבנה
 10
50.0000
 20
-3800.0000
 30
2200.0000
 11
350.0000
 21
-3800.0000
 31
2200.0000
 12
350.0000
 22
-3800.0000
 32
2600.0000
 13
50.0000
 23
-3800.0000
 33
2600.0000
 70
15
  0
INSERT
  5
11E8
  8
חשמל
  2
CONTROLBOX
 10
0.0000
 20
-2125.0000
 30
0.0000
 41
1.0000
 42
1.0000
 43
1.0000
 50
90.0000
  0
3DFACE
  5
11E9
  8
מבנה
 10
350.0000
 20
-2275.0000
 30
0.0000
 11
350.0000
 21
-1975.0000
 31
0.0000
 12
50.0000
 22
-1975.0000
 32
0.0000
 13
50.0000
 23
-2275.0000
 33
0.0000
 70
15
  0
3DFACE
  5
11EA
  8
מבנה
 10
350.0000
 20
-2275.0000
 30
2600.0000
 11
350.0000
 21
-1975.0000
 31
2600.0000
 12
50.0000
 22
-1975.0000
 32
2600.0000
 13
50.0000
 23
-2275.0000
 33
2600.0000
 70
15
  0
3DFACE
  5
11EB
  8
מבנה
 10
350.0000
 20
-2275.0000
 30
0.0000
 11
350.0000
 21
-1975.0000
 31
0.0000
 12
350.0000
 22
-1975.0000
 32
2600.0000
 13
350.0000
 23
-2275.0000
 33
2600.0000
 70
15
  0
3DFACE
  5
11EC
  8
מבנה
 10
350.0000
 20
-1975.0000
 30
0.0000
 11
50.0000
 21
-1975.0000
 31
0.0000
 12
50.0000
 22
-1975.0000
 32
2600.0000
 13
350.0000
 23
-1975.0000
 33
2600.0000
 70
15
  0
3DFACE
  5
11ED
  8
מבנה
 10
50.0000
 20
-1975.0000
 30
0.0000
 11
50.0000
 21
-2275.0000
 31
0.0000
 12
50.0000
 22
-2275.0000
 32
2600.0000
 13
50.0000
 23
-1975.0000
 33
2600.0000
 70
15
  0
3DFACE
  5
11EE
  8
מבנה
 10
50.0000
 20
-2275.0000
 30
0.0000
 11
350.0000
 21
-2275.0000
 31
0.0000
 12
350.0000
 22
-2275.0000
 32
2600.0000
 13
50.0000
 23
-2275.0000
 33
2600.0000
 70
15
  0
ENDSEC
  0
EOF
