  0
SECTION
  2
HEADER
  9
$ACADVER
  1
AC1009
  9
$INSBASE
 10
0.0000
 20
0.0000
 30
0.0000
  9
$EXTMIN
 10
-423.0000
 20
-20226.0000
 30
0.0000
  9
$EXTMAX
 10
16591.0000
 20
-7822.0000
 30
0.0000
  9
$DWGCODEPAGE
  3
ansi_1255
  9
$INSUNITS
 70
4
  9
$LTSCALE
 40
10.0000
  9
$LIMMIN
 10
0.0000
 20
0.0000
  9
$LIMMAX
 10
2000.0000
 20
200.0000
  0
ENDSEC
  0
SECTION
  2
TABLES
  0
TABLE
  2
VPORT
 70
1
  0
VPORT
  2
*ACTIVE
 70
0
 10
0.0000
 20
0.0000
 11
1.0000
 21
1.0000
 12
8084.0000
 22
-14024.0000
 13
0.0000
 23
0.0000
 14
10.0000
 24
10.0000
 15
10.0000
 25
10.0000
 16
0.0000
 26
0.0000
 36
1.0000
 17
0.0000
 27
0.0000
 37
0.0000
 40
14264.6000
 41
1.6000
 42
50.0000
 43
0.0000
 44
0.0000
 50
0.0000
 51
0.0000
 71
0
 72
100
 73
1
 74
1
 75
0
 76
0
 77
0
 78
0
  0
ENDTAB
  0
TABLE
  2
LTYPE
 70
2
  0
LTYPE
  2
CONTINUOUS
 70
0
  3
Solid line
 72
65
 73
0
 40
0.0000
  0
LTYPE
  2
HIDDEN
 70
0
  3
Hidden . . . . . .
 72
65
 73
2
 40
9.5250
 49
6.3500
 49
-3.1750
  0
ENDTAB
  0
TABLE
  2
LAYER
 70
27
  0
LAYER
  2
0
 70
0
 62
7
  6
CONTINUOUS
  0
LAYER
  2
Walls
 70
0
 62
253
  6
CONTINUOUS
  0
LAYER
  2
Ext_Wall
 70
0
 62
5
  6
CONTINUOUS
  0
LAYER
  2
Walls_Fill
 70
0
 62
253
  6
CONTINUOUS
  0
LAYER
  2
Const_Doors
 70
0
 62
5
  6
CONTINUOUS
  0
LAYER
  2
Const_Windows
 70
0
 62
152
  6
CONTINUOUS
  0
LAYER
  2
Electrical
 70
0
 62
6
  6
CONTINUOUS
  0
LAYER
  2
Dim_Power
 70
0
 62
6
  6
CONTINUOUS
  0
LAYER
  2
Plumbing
 70
0
 62
150
  6
CONTINUOUS
  0
LAYER
  2
Dim_Plumbing
 70
0
 62
150
  6
CONTINUOUS
  0
LAYER
  2
Gas
 70
0
 62
2
  6
CONTINUOUS
  0
LAYER
  2
Dim_Gas
 70
0
 62
2
  6
CONTINUOUS
  0
LAYER
  2
HVAC
 70
0
 62
4
  6
CONTINUOUS
  0
LAYER
  2
Dim_HVAC
 70
0
 62
4
  6
CONTINUOUS
  0
LAYER
  2
Lighting
 70
0
 62
30
  6
CONTINUOUS
  0
LAYER
  2
Dim_Lighting
 70
0
 62
30
  6
CONTINUOUS
  0
LAYER
  2
Structural
 70
0
 62
8
  6
CONTINUOUS
  0
LAYER
  2
Dim_Struct
 70
0
 62
8
  6
CONTINUOUS
  0
LAYER
  2
Misc
 70
0
 62
7
  6
CONTINUOUS
  0
LAYER
  2
Dim_Misc
 70
0
 62
7
  6
CONTINUOUS
  0
LAYER
  2
DIM
 70
0
 62
9
  6
CONTINUOUS
  0
LAYER
  2
Dim_overall
 70
0
 62
9
  6
CONTINUOUS
  0
LAYER
  2
Text
 70
0
 62
74
  6
CONTINUOUS
  0
LAYER
  2
Text_Legend
 70
0
 62
74
  6
CONTINUOUS
  0
LAYER
  2
Text_Title
 70
0
 62
74
  6
CONTINUOUS
  0
LAYER
  2
PicNumber
 70
0
 62
74
  6
CONTINUOUS
  0
LAYER
  2
Frame
 70
0
 62
7
  6
CONTINUOUS
  0
ENDTAB
  0
TABLE
  2
STYLE
 70
1
  0
STYLE
  2
STANDARD
 70
0
 40
0.0000
 41
1.0000
 50
0.0000
 71
0
 42
2.5000
  3
ARIAL.TTF
  4

  0
ENDTAB
  0
ENDSEC
  0
SECTION
  2
BLOCKS
  0
BLOCK
  8
0
  2
SOCKET
 70
0
 10
0.0000
 20
0.0000
 30
0.0000
  0
LINE
  5
292
  8
0
 10
0.0000
 20
0.0000
 30
0.0000
 11
0.0000
 21
40.0000
 31
0.0000
  0
ARC
  5
293
  8
0
 10
0.0000
 20
130.0000
 30
0.0000
 40
90.0000
 50
0.0000
 51
360.0000
  0
LINE
  5
294
  8
0
 10
-90.0000
 20
130.0000
 30
0.0000
 11
90.0000
 21
130.0000
 31
0.0000
  0
LINE
  5
295
  8
0
 10
-30.0000
 20
104.0000
 30
0.0000
 11
-30.0000
 21
156.0000
 31
0.0000
  0
LINE
  5
296
  8
0
 10
30.0000
 20
104.0000
 30
0.0000
 11
30.0000
 21
156.0000
 31
0.0000
  0
ENDBLK
  5
297
  8
0
  0
BLOCK
  8
0
  2
GAS
 70
0
 10
0.0000
 20
0.0000
 30
0.0000
  0
LINE
  5
298
  8
0
 10
0.0000
 20
0.0000
 30
0.0000
 11
0.0000
 21
30.0000
 31
0.0000
  0
ARC
  5
299
  8
0
 10
0.0000
 20
120.0000
 30
0.0000
 40
90.0000
 50
0.0000
 51
360.0000
  0
LINE
  5
29A
  8
0
 10
-34.0000
 20
100.0000
 30
0.0000
 11
0.0000
 21
154.0000
 31
0.0000
  0
LINE
  5
29B
  8
0
 10
0.0000
 20
154.0000
 30
0.0000
 11
34.0000
 21
100.0000
 31
0.0000
  0
LINE
  5
29C
  8
0
 10
0.0000
 20
86.0000
 30
0.0000
 11
0.0000
 21
140.0000
 31
0.0000
  0
ENDBLK
  5
29D
  8
0
  0
BLOCK
  8
0
  2
PANEL
 70
0
 10
0.0000
 20
0.0000
 30
0.0000
  0
LINE
  5
29E
  8
0
 10
-120.0000
 20
20.0000
 30
0.0000
 11
120.0000
 21
20.0000
 31
0.0000
  0
LINE
  5
29F
  8
0
 10
120.0000
 20
20.0000
 30
0.0000
 11
120.0000
 21
200.0000
 31
0.0000
  0
LINE
  5
2A0
  8
0
 10
120.0000
 20
200.0000
 30
0.0000
 11
-120.0000
 21
200.0000
 31
0.0000
  0
LINE
  5
2A1
  8
0
 10
-120.0000
 20
200.0000
 30
0.0000
 11
-120.0000
 21
20.0000
 31
0.0000
  0
LINE
  5
2A2
  8
0
 10
-120.0000
 20
20.0000
 30
0.0000
 11
120.0000
 21
200.0000
 31
0.0000
  0
ENDBLK
  5
2A3
  8
0
  0
BLOCK
  8
0
  2
WATER
 70
0
 10
0.0000
 20
0.0000
 30
0.0000
  0
LINE
  5
2A4
  8
0
 10
0.0000
 20
0.0000
 30
0.0000
 11
0.0000
 21
24.0000
 31
0.0000
  0
ARC
  5
2A5
  8
0
 10
0.0000
 20
114.0000
 30
0.0000
 40
90.0000
 50
0.0000
 51
360.0000
  0
LINE
  5
2A6
  8
0
 10
-70.0000
 20
114.0000
 30
0.0000
 11
70.0000
 21
114.0000
 31
0.0000
  0
LINE
  5
2A7
  8
0
 10
0.0000
 20
44.0000
 30
0.0000
 11
0.0000
 21
184.0000
 31
0.0000
  0
ENDBLK
  5
2A8
  8
0
  0
BLOCK
  8
0
  2
DRAIN
 70
0
 10
0.0000
 20
0.0000
 30
0.0000
  0
LINE
  5
2A9
  8
0
 10
0.0000
 20
0.0000
 30
0.0000
 11
0.0000
 21
20.0000
 31
0.0000
  0
ARC
  5
2AA
  8
0
 10
0.0000
 20
110.0000
 30
0.0000
 40
90.0000
 50
0.0000
 51
360.0000
  0
LINE
  5
2AB
  8
0
 10
-60.0000
 20
50.0000
 30
0.0000
 11
60.0000
 21
170.0000
 31
0.0000
  0
LINE
  5
2AC
  8
0
 10
-60.0000
 20
170.0000
 30
0.0000
 11
60.0000
 21
50.0000
 31
0.0000
  0
ENDBLK
  5
2AD
  8
0
  0
BLOCK
  8
0
  2
LIGHT
 70
0
 10
0.0000
 20
0.0000
 30
0.0000
  0
ARC
  5
2AE
  8
0
 10
0.0000
 20
90.0000
 30
0.0000
 40
90.0000
 50
0.0000
 51
360.0000
  0
LINE
  5
2AF
  8
0
 10
-64.0000
 20
26.0000
 30
0.0000
 11
64.0000
 21
154.0000
 31
0.0000
  0
LINE
  5
2B0
  8
0
 10
-64.0000
 20
154.0000
 30
0.0000
 11
64.0000
 21
26.0000
 31
0.0000
  0
ENDBLK
  5
2B1
  8
0
  0
ENDSEC
  0
SECTION
  2
ENTITIES
  0
SOLID
  5
100
  8
Walls_Fill
 10
7196.0000
 20
-12694.0000
 30
0.0000
 11
7196.0000
 21
-16247.0000
 31
0.0000
 12
7096.0000
 22
-12694.0000
 32
0.0000
 13
7096.0000
 23
-16247.0000
 33
0.0000
  0
LINE
  5
101
  8
Ext_Wall
 10
7196.0000
 20
-12694.0000
 30
0.0000
 11
7196.0000
 21
-16247.0000
 31
0.0000
  0
LINE
  5
102
  8
Walls
 10
7096.0000
 20
-12694.0000
 30
0.0000
 11
7096.0000
 21
-16247.0000
 31
0.0000
  0
LINE
  5
103
  8
Walls
 10
7196.0000
 20
-12694.0000
 30
0.0000
 11
7096.0000
 21
-12694.0000
 31
0.0000
  0
LINE
  5
104
  8
Walls
 10
7196.0000
 20
-16247.0000
 30
0.0000
 11
7096.0000
 21
-16247.0000
 31
0.0000
  0
SOLID
  5
105
  8
Walls_Fill
 10
7196.0000
 20
-16247.0000
 30
0.0000
 11
6602.0000
 21
-16247.0000
 31
0.0000
 12
7196.0000
 22
-16147.0000
 32
0.0000
 13
6602.0000
 23
-16147.0000
 33
0.0000
  0
LINE
  5
106
  8
Ext_Wall
 10
7196.0000
 20
-16247.0000
 30
0.0000
 11
6602.0000
 21
-16247.0000
 31
0.0000
  0
LINE
  5
107
  8
Walls
 10
7196.0000
 20
-16147.0000
 30
0.0000
 11
6602.0000
 21
-16147.0000
 31
0.0000
  0
LINE
  5
108
  8
Walls
 10
7196.0000
 20
-16247.0000
 30
0.0000
 11
7196.0000
 21
-16147.0000
 31
0.0000
  0
LINE
  5
109
  8
Walls
 10
6602.0000
 20
-16247.0000
 30
0.0000
 11
6602.0000
 21
-16147.0000
 31
0.0000
  0
SOLID
  5
10A
  8
Walls_Fill
 10
6702.0000
 20
-16147.0000
 30
0.0000
 11
6702.0000
 21
-17215.0000
 31
0.0000
 12
6602.0000
 22
-16147.0000
 32
0.0000
 13
6602.0000
 23
-17215.0000
 33
0.0000
  0
LINE
  5
10B
  8
Ext_Wall
 10
6702.0000
 20
-16147.0000
 30
0.0000
 11
6702.0000
 21
-17215.0000
 31
0.0000
  0
LINE
  5
10C
  8
Walls
 10
6602.0000
 20
-16147.0000
 30
0.0000
 11
6602.0000
 21
-17215.0000
 31
0.0000
  0
LINE
  5
10D
  8
Walls
 10
6702.0000
 20
-16147.0000
 30
0.0000
 11
6602.0000
 21
-16147.0000
 31
0.0000
  0
LINE
  5
10E
  8
Walls
 10
6702.0000
 20
-17215.0000
 30
0.0000
 11
6602.0000
 21
-17215.0000
 31
0.0000
  0
SOLID
  5
10F
  8
Walls_Fill
 10
6702.0000
 20
-17215.0000
 30
0.0000
 11
3620.0000
 21
-17215.0000
 31
0.0000
 12
6702.0000
 22
-17115.0000
 32
0.0000
 13
3620.0000
 23
-17115.0000
 33
0.0000
  0
LINE
  5
110
  8
Ext_Wall
 10
6702.0000
 20
-17215.0000
 30
0.0000
 11
3620.0000
 21
-17215.0000
 31
0.0000
  0
LINE
  5
111
  8
Walls
 10
6702.0000
 20
-17115.0000
 30
0.0000
 11
3620.0000
 21
-17115.0000
 31
0.0000
  0
LINE
  5
112
  8
Walls
 10
6702.0000
 20
-17215.0000
 30
0.0000
 11
6702.0000
 21
-17115.0000
 31
0.0000
  0
LINE
  5
113
  8
Walls
 10
3620.0000
 20
-17215.0000
 30
0.0000
 11
3620.0000
 21
-17115.0000
 31
0.0000
  0
SOLID
  5
114
  8
Walls_Fill
 10
3620.0000
 20
-17215.0000
 30
0.0000
 11
3620.0000
 21
-13213.0000
 31
0.0000
 12
3720.0000
 22
-17215.0000
 32
0.0000
 13
3720.0000
 23
-13213.0000
 33
0.0000
  0
LINE
  5
115
  8
Ext_Wall
 10
3620.0000
 20
-17215.0000
 30
0.0000
 11
3620.0000
 21
-13213.0000
 31
0.0000
  0
LINE
  5
116
  8
Walls
 10
3720.0000
 20
-17215.0000
 30
0.0000
 11
3720.0000
 21
-13213.0000
 31
0.0000
  0
LINE
  5
117
  8
Walls
 10
3620.0000
 20
-17215.0000
 30
0.0000
 11
3720.0000
 21
-17215.0000
 31
0.0000
  0
LINE
  5
118
  8
Walls
 10
3620.0000
 20
-13213.0000
 30
0.0000
 11
3720.0000
 21
-13213.0000
 31
0.0000
  0
SOLID
  5
119
  8
Walls_Fill
 10
3620.0000
 20
-13213.0000
 30
0.0000
 11
4933.0000
 21
-13213.0000
 31
0.0000
 12
3620.0000
 22
-13313.0000
 32
0.0000
 13
4933.0000
 23
-13313.0000
 33
0.0000
  0
LINE
  5
11A
  8
Ext_Wall
 10
3620.0000
 20
-13213.0000
 30
0.0000
 11
4933.0000
 21
-13213.0000
 31
0.0000
  0
LINE
  5
11B
  8
Walls
 10
3620.0000
 20
-13313.0000
 30
0.0000
 11
4933.0000
 21
-13313.0000
 31
0.0000
  0
LINE
  5
11C
  8
Walls
 10
3620.0000
 20
-13213.0000
 30
0.0000
 11
3620.0000
 21
-13313.0000
 31
0.0000
  0
LINE
  5
11D
  8
Walls
 10
4933.0000
 20
-13213.0000
 30
0.0000
 11
4933.0000
 21
-13313.0000
 31
0.0000
  0
SOLID
  5
11E
  8
Walls_Fill
 10
4833.0000
 20
-13313.0000
 30
0.0000
 11
4833.0000
 21
-9572.0000
 31
0.0000
 12
4933.0000
 22
-13313.0000
 32
0.0000
 13
4933.0000
 23
-9572.0000
 33
0.0000
  0
LINE
  5
11F
  8
Ext_Wall
 10
4833.0000
 20
-13313.0000
 30
0.0000
 11
4833.0000
 21
-9572.0000
 31
0.0000
  0
LINE
  5
120
  8
Walls
 10
4933.0000
 20
-13313.0000
 30
0.0000
 11
4933.0000
 21
-9572.0000
 31
0.0000
  0
LINE
  5
121
  8
Walls
 10
4833.0000
 20
-13313.0000
 30
0.0000
 11
4933.0000
 21
-13313.0000
 31
0.0000
  0
LINE
  5
122
  8
Walls
 10
4833.0000
 20
-9572.0000
 30
0.0000
 11
4933.0000
 21
-9572.0000
 31
0.0000
  0
SOLID
  5
123
  8
Walls_Fill
 10
4833.0000
 20
-9572.0000
 30
0.0000
 11
9103.0000
 21
-9572.0000
 31
0.0000
 12
4833.0000
 22
-9672.0000
 32
0.0000
 13
9103.0000
 23
-9672.0000
 33
0.0000
  0
LINE
  5
124
  8
Ext_Wall
 10
4833.0000
 20
-9572.0000
 30
0.0000
 11
9103.0000
 21
-9572.0000
 31
0.0000
  0
LINE
  5
125
  8
Walls
 10
4833.0000
 20
-9672.0000
 30
0.0000
 11
9103.0000
 21
-9672.0000
 31
0.0000
  0
LINE
  5
126
  8
Walls
 10
4833.0000
 20
-9572.0000
 30
0.0000
 11
4833.0000
 21
-9672.0000
 31
0.0000
  0
LINE
  5
127
  8
Walls
 10
9103.0000
 20
-9572.0000
 30
0.0000
 11
9103.0000
 21
-9672.0000
 31
0.0000
  0
SOLID
  5
128
  8
Walls_Fill
 10
9103.0000
 20
-9572.0000
 30
0.0000
 11
9103.0000
 21
-13095.0000
 31
0.0000
 12
9003.0000
 22
-9572.0000
 32
0.0000
 13
9003.0000
 23
-13095.0000
 33
0.0000
  0
LINE
  5
129
  8
Ext_Wall
 10
9103.0000
 20
-9572.0000
 30
0.0000
 11
9103.0000
 21
-13095.0000
 31
0.0000
  0
LINE
  5
12A
  8
Walls
 10
9003.0000
 20
-9572.0000
 30
0.0000
 11
9003.0000
 21
-13095.0000
 31
0.0000
  0
LINE
  5
12B
  8
Walls
 10
9103.0000
 20
-9572.0000
 30
0.0000
 11
9003.0000
 21
-9572.0000
 31
0.0000
  0
LINE
  5
12C
  8
Walls
 10
9103.0000
 20
-13095.0000
 30
0.0000
 11
9003.0000
 21
-13095.0000
 31
0.0000
  0
LINE
  5
12D
  8
DIM
 10
7146.0000
 20
-12744.0000
 30
0.0000
 11
7516.0000
 21
-12744.0000
 31
0.0000
  0
LINE
  5
12E
  8
DIM
 10
7146.0000
 20
-16197.0000
 30
0.0000
 11
7516.0000
 21
-16197.0000
 31
0.0000
  0
LINE
  5
12F
  8
DIM
 10
7456.0000
 20
-12744.0000
 30
0.0000
 11
7456.0000
 21
-16197.0000
 31
0.0000
  0
SOLID
  5
130
  8
DIM
 10
7456.0000
 20
-12744.0000
 30
0.0000
 11
7484.0000
 21
-12654.0000
 31
0.0000
 12
7428.0000
 22
-12654.0000
 32
0.0000
 13
7428.0000
 23
-12654.0000
 33
0.0000
  0
SOLID
  5
131
  8
DIM
 10
7456.0000
 20
-16197.0000
 30
0.0000
 11
7484.0000
 21
-16287.0000
 31
0.0000
 12
7428.0000
 22
-16287.0000
 32
0.0000
 13
7428.0000
 23
-16287.0000
 33
0.0000
  0
TEXT
  5
132
  8
DIM
 10
7550.0000
 20
-14470.5000
 30
0.0000
 40
188.0000
  1
345.3
 50
90.0000
  7
STANDARD
 72
1
 73
2
 11
7550.0000
 21
-14470.5000
 31
0.0000
  0
LINE
  5
133
  8
DIM
 10
7146.0000
 20
-16197.0000
 30
0.0000
 11
7146.0000
 21
-16567.0000
 31
0.0000
  0
LINE
  5
134
  8
DIM
 10
6652.0000
 20
-16197.0000
 30
0.0000
 11
6652.0000
 21
-16567.0000
 31
0.0000
  0
LINE
  5
135
  8
DIM
 10
7146.0000
 20
-16507.0000
 30
0.0000
 11
6652.0000
 21
-16507.0000
 31
0.0000
  0
SOLID
  5
136
  8
DIM
 10
7146.0000
 20
-16507.0000
 30
0.0000
 11
7236.0000
 21
-16535.0000
 31
0.0000
 12
7236.0000
 22
-16479.0000
 32
0.0000
 13
7236.0000
 23
-16479.0000
 33
0.0000
  0
SOLID
  5
137
  8
DIM
 10
6652.0000
 20
-16507.0000
 30
0.0000
 11
6562.0000
 21
-16535.0000
 31
0.0000
 12
6562.0000
 22
-16479.0000
 32
0.0000
 13
6562.0000
 23
-16479.0000
 33
0.0000
  0
TEXT
  5
138
  8
DIM
 10
6899.0000
 20
-16601.0000
 30
0.0000
 40
188.0000
  1
49.4
 50
360.0000
  7
STANDARD
 72
1
 73
2
 11
6899.0000
 21
-16601.0000
 31
0.0000
  0
LINE
  5
139
  8
DIM
 10
6652.0000
 20
-16197.0000
 30
0.0000
 11
7022.0000
 21
-16197.0000
 31
0.0000
  0
LINE
  5
13A
  8
DIM
 10
6652.0000
 20
-17165.0000
 30
0.0000
 11
7022.0000
 21
-17165.0000
 31
0.0000
  0
LINE
  5
13B
  8
DIM
 10
6962.0000
 20
-16197.0000
 30
0.0000
 11
6962.0000
 21
-17165.0000
 31
0.0000
  0
SOLID
  5
13C
  8
DIM
 10
6962.0000
 20
-16197.0000
 30
0.0000
 11
6990.0000
 21
-16107.0000
 31
0.0000
 12
6934.0000
 22
-16107.0000
 32
0.0000
 13
6934.0000
 23
-16107.0000
 33
0.0000
  0
SOLID
  5
13D
  8
DIM
 10
6962.0000
 20
-17165.0000
 30
0.0000
 11
6990.0000
 21
-17255.0000
 31
0.0000
 12
6934.0000
 22
-17255.0000
 32
0.0000
 13
6934.0000
 23
-17255.0000
 33
0.0000
  0
TEXT
  5
13E
  8
DIM
 10
7056.0000
 20
-16681.0000
 30
0.0000
 40
188.0000
  1
96.8
 50
90.0000
  7
STANDARD
 72
1
 73
2
 11
7056.0000
 21
-16681.0000
 31
0.0000
  0
LINE
  5
13F
  8
DIM
 10
6652.0000
 20
-17165.0000
 30
0.0000
 11
6652.0000
 21
-17535.0000
 31
0.0000
  0
LINE
  5
140
  8
DIM
 10
3670.0000
 20
-17165.0000
 30
0.0000
 11
3670.0000
 21
-17535.0000
 31
0.0000
  0
LINE
  5
141
  8
DIM
 10
6652.0000
 20
-17475.0000
 30
0.0000
 11
3670.0000
 21
-17475.0000
 31
0.0000
  0
SOLID
  5
142
  8
DIM
 10
6652.0000
 20
-17475.0000
 30
0.0000
 11
6742.0000
 21
-17503.0000
 31
0.0000
 12
6742.0000
 22
-17447.0000
 32
0.0000
 13
6742.0000
 23
-17447.0000
 33
0.0000
  0
SOLID
  5
143
  8
DIM
 10
3670.0000
 20
-17475.0000
 30
0.0000
 11
3580.0000
 21
-17503.0000
 31
0.0000
 12
3580.0000
 22
-17447.0000
 32
0.0000
 13
3580.0000
 23
-17447.0000
 33
0.0000
  0
TEXT
  5
144
  8
DIM
 10
5161.0000
 20
-17569.0000
 30
0.0000
 40
188.0000
  1
298.2
 50
360.0000
  7
STANDARD
 72
1
 73
2
 11
5161.0000
 21
-17569.0000
 31
0.0000
  0
LINE
  5
145
  8
DIM
 10
3670.0000
 20
-17165.0000
 30
0.0000
 11
3300.0000
 21
-17165.0000
 31
0.0000
  0
LINE
  5
146
  8
DIM
 10
3670.0000
 20
-13263.0000
 30
0.0000
 11
3300.0000
 21
-13263.0000
 31
0.0000
  0
LINE
  5
147
  8
DIM
 10
3360.0000
 20
-17165.0000
 30
0.0000
 11
3360.0000
 21
-13263.0000
 31
0.0000
  0
SOLID
  5
148
  8
DIM
 10
3360.0000
 20
-17165.0000
 30
0.0000
 11
3332.0000
 21
-17255.0000
 31
0.0000
 12
3388.0000
 22
-17255.0000
 32
0.0000
 13
3388.0000
 23
-17255.0000
 33
0.0000
  0
SOLID
  5
149
  8
DIM
 10
3360.0000
 20
-13263.0000
 30
0.0000
 11
3332.0000
 21
-13173.0000
 31
0.0000
 12
3388.0000
 22
-13173.0000
 32
0.0000
 13
3388.0000
 23
-13173.0000
 33
0.0000
  0
TEXT
  5
14A
  8
DIM
 10
3266.0000
 20
-15214.0000
 30
0.0000
 40
188.0000
  1
390.2
 50
90.0000
  7
STANDARD
 72
1
 73
2
 11
3266.0000
 21
-15214.0000
 31
0.0000
  0
LINE
  5
14B
  8
DIM
 10
3670.0000
 20
-13263.0000
 30
0.0000
 11
3670.0000
 21
-12893.0000
 31
0.0000
  0
LINE
  5
14C
  8
DIM
 10
4883.0000
 20
-13263.0000
 30
0.0000
 11
4883.0000
 21
-12893.0000
 31
0.0000
  0
LINE
  5
14D
  8
DIM
 10
3670.0000
 20
-12953.0000
 30
0.0000
 11
4883.0000
 21
-12953.0000
 31
0.0000
  0
SOLID
  5
14E
  8
DIM
 10
3670.0000
 20
-12953.0000
 30
0.0000
 11
3580.0000
 21
-12925.0000
 31
0.0000
 12
3580.0000
 22
-12981.0000
 32
0.0000
 13
3580.0000
 23
-12981.0000
 33
0.0000
  0
SOLID
  5
14F
  8
DIM
 10
4883.0000
 20
-12953.0000
 30
0.0000
 11
4973.0000
 21
-12925.0000
 31
0.0000
 12
4973.0000
 22
-12981.0000
 32
0.0000
 13
4973.0000
 23
-12981.0000
 33
0.0000
  0
TEXT
  5
150
  8
DIM
 10
4276.5000
 20
-12859.0000
 30
0.0000
 40
188.0000
  1
121.3
 50
0.0000
  7
STANDARD
 72
1
 73
2
 11
4276.5000
 21
-12859.0000
 31
0.0000
  0
LINE
  5
151
  8
DIM
 10
4883.0000
 20
-13263.0000
 30
0.0000
 11
4513.0000
 21
-13263.0000
 31
0.0000
  0
LINE
  5
152
  8
DIM
 10
4883.0000
 20
-9622.0000
 30
0.0000
 11
4513.0000
 21
-9622.0000
 31
0.0000
  0
LINE
  5
153
  8
DIM
 10
4573.0000
 20
-13263.0000
 30
0.0000
 11
4573.0000
 21
-9622.0000
 31
0.0000
  0
SOLID
  5
154
  8
DIM
 10
4573.0000
 20
-13263.0000
 30
0.0000
 11
4545.0000
 21
-13353.0000
 31
0.0000
 12
4601.0000
 22
-13353.0000
 32
0.0000
 13
4601.0000
 23
-13353.0000
 33
0.0000
  0
SOLID
  5
155
  8
DIM
 10
4573.0000
 20
-9622.0000
 30
0.0000
 11
4545.0000
 21
-9532.0000
 31
0.0000
 12
4601.0000
 22
-9532.0000
 32
0.0000
 13
4601.0000
 23
-9532.0000
 33
0.0000
  0
TEXT
  5
156
  8
DIM
 10
4479.0000
 20
-11442.5000
 30
0.0000
 40
188.0000
  1
364.1
 50
90.0000
  7
STANDARD
 72
1
 73
2
 11
4479.0000
 21
-11442.5000
 31
0.0000
  0
LINE
  5
157
  8
DIM
 10
4883.0000
 20
-9622.0000
 30
0.0000
 11
4883.0000
 21
-9252.0000
 31
0.0000
  0
LINE
  5
158
  8
DIM
 10
9053.0000
 20
-9622.0000
 30
0.0000
 11
9053.0000
 21
-9252.0000
 31
0.0000
  0
LINE
  5
159
  8
DIM
 10
4883.0000
 20
-9312.0000
 30
0.0000
 11
9053.0000
 21
-9312.0000
 31
0.0000
  0
SOLID
  5
15A
  8
DIM
 10
4883.0000
 20
-9312.0000
 30
0.0000
 11
4793.0000
 21
-9284.0000
 31
0.0000
 12
4793.0000
 22
-9340.0000
 32
0.0000
 13
4793.0000
 23
-9340.0000
 33
0.0000
  0
SOLID
  5
15B
  8
DIM
 10
9053.0000
 20
-9312.0000
 30
0.0000
 11
9143.0000
 21
-9284.0000
 31
0.0000
 12
9143.0000
 22
-9340.0000
 32
0.0000
 13
9143.0000
 23
-9340.0000
 33
0.0000
  0
TEXT
  5
15C
  8
DIM
 10
6968.0000
 20
-9218.0000
 30
0.0000
 40
188.0000
  1
417
 50
0.0000
  7
STANDARD
 72
1
 73
2
 11
6968.0000
 21
-9218.0000
 31
0.0000
  0
LINE
  5
15D
  8
DIM
 10
9053.0000
 20
-9622.0000
 30
0.0000
 11
9423.0000
 21
-9622.0000
 31
0.0000
  0
LINE
  5
15E
  8
DIM
 10
9053.0000
 20
-13045.0000
 30
0.0000
 11
9423.0000
 21
-13045.0000
 31
0.0000
  0
LINE
  5
15F
  8
DIM
 10
9363.0000
 20
-9622.0000
 30
0.0000
 11
9363.0000
 21
-13045.0000
 31
0.0000
  0
SOLID
  5
160
  8
DIM
 10
9363.0000
 20
-9622.0000
 30
0.0000
 11
9391.0000
 21
-9532.0000
 31
0.0000
 12
9335.0000
 22
-9532.0000
 32
0.0000
 13
9335.0000
 23
-9532.0000
 33
0.0000
  0
SOLID
  5
161
  8
DIM
 10
9363.0000
 20
-13045.0000
 30
0.0000
 11
9391.0000
 21
-13135.0000
 31
0.0000
 12
9335.0000
 22
-13135.0000
 32
0.0000
 13
9335.0000
 23
-13135.0000
 33
0.0000
  0
TEXT
  5
162
  8
DIM
 10
9457.0000
 20
-11333.5000
 30
0.0000
 40
188.0000
  1
342.3
 50
90.0000
  7
STANDARD
 72
1
 73
2
 11
9457.0000
 21
-11333.5000
 31
0.0000
  0
LINE
  5
163
  8
Const_Windows
 10
6173.5000
 20
-17215.0000
 30
0.0000
 11
4712.5000
 21
-17215.0000
 31
0.0000
  0
LINE
  5
164
  8
Const_Windows
 10
6173.5000
 20
-17115.0000
 30
0.0000
 11
4712.5000
 21
-17115.0000
 31
0.0000
  0
LINE
  5
165
  8
Const_Windows
 10
6173.5000
 20
-17115.0000
 30
0.0000
 11
6173.5000
 21
-17215.0000
 31
0.0000
  0
LINE
  5
166
  8
Const_Windows
 10
4712.5000
 20
-17115.0000
 30
0.0000
 11
4712.5000
 21
-17215.0000
 31
0.0000
  0
LINE
  5
167
  8
Const_Windows
 10
6173.5000
 20
-17165.0000
 30
0.0000
 11
4712.5000
 21
-17165.0000
 31
0.0000
  0
LINE
  5
168
  8
DIM
 10
6173.5000
 20
-17165.0000
 30
0.0000
 11
6173.5000
 21
-17405.0000
 31
0.0000
  0
LINE
  5
169
  8
DIM
 10
4712.5000
 20
-17165.0000
 30
0.0000
 11
4712.5000
 21
-17405.0000
 31
0.0000
  0
LINE
  5
16A
  8
DIM
 10
6173.5000
 20
-17345.0000
 30
0.0000
 11
4712.5000
 21
-17345.0000
 31
0.0000
  0
SOLID
  5
16B
  8
DIM
 10
6173.5000
 20
-17345.0000
 30
0.0000
 11
6263.5000
 21
-17373.0000
 31
0.0000
 12
6263.5000
 22
-17317.0000
 32
0.0000
 13
6263.5000
 23
-17317.0000
 33
0.0000
  0
SOLID
  5
16C
  8
DIM
 10
4712.5000
 20
-17345.0000
 30
0.0000
 11
4622.5000
 21
-17373.0000
 31
0.0000
 12
4622.5000
 22
-17317.0000
 32
0.0000
 13
4622.5000
 23
-17317.0000
 33
0.0000
  0
TEXT
  5
16D
  8
DIM
 10
5443.0000
 20
-17429.6000
 30
0.0000
 40
169.2000
  1
146.1
 50
360.0000
  7
STANDARD
 72
1
 73
2
 11
5443.0000
 21
-17429.6000
 31
0.0000
  0
LINE
  5
16E
  8
Const_Windows
 10
3620.0000
 20
-17163.5000
 30
0.0000
 11
3620.0000
 21
-14670.5000
 31
0.0000
  0
LINE
  5
16F
  8
Const_Windows
 10
3720.0000
 20
-17163.5000
 30
0.0000
 11
3720.0000
 21
-14670.5000
 31
0.0000
  0
LINE
  5
170
  8
Const_Windows
 10
3720.0000
 20
-17163.5000
 30
0.0000
 11
3620.0000
 21
-17163.5000
 31
0.0000
  0
LINE
  5
171
  8
Const_Windows
 10
3720.0000
 20
-14670.5000
 30
0.0000
 11
3620.0000
 21
-14670.5000
 31
0.0000
  0
LINE
  5
172
  8
Const_Windows
 10
3670.0000
 20
-17163.5000
 30
0.0000
 11
3670.0000
 21
-14670.5000
 31
0.0000
  0
LINE
  5
173
  8
DIM
 10
3670.0000
 20
-17163.5000
 30
0.0000
 11
3430.0000
 21
-17163.5000
 31
0.0000
  0
LINE
  5
174
  8
DIM
 10
3670.0000
 20
-14670.5000
 30
0.0000
 11
3430.0000
 21
-14670.5000
 31
0.0000
  0
LINE
  5
175
  8
DIM
 10
3490.0000
 20
-17163.5000
 30
0.0000
 11
3490.0000
 21
-14670.5000
 31
0.0000
  0
SOLID
  5
176
  8
DIM
 10
3490.0000
 20
-17163.5000
 30
0.0000
 11
3462.0000
 21
-17253.5000
 31
0.0000
 12
3518.0000
 22
-17253.5000
 32
0.0000
 13
3518.0000
 23
-17253.5000
 33
0.0000
  0
SOLID
  5
177
  8
DIM
 10
3490.0000
 20
-14670.5000
 30
0.0000
 11
3462.0000
 21
-14580.5000
 31
0.0000
 12
3518.0000
 22
-14580.5000
 32
0.0000
 13
3518.0000
 23
-14580.5000
 33
0.0000
  0
TEXT
  5
178
  8
DIM
 10
3405.4000
 20
-15917.0000
 30
0.0000
 40
169.2000
  1
249.3
 50
90.0000
  7
STANDARD
 72
1
 73
2
 11
3405.4000
 21
-15917.0000
 31
0.0000
  0
LINE
  5
179
  8
Const_Windows
 10
4833.0000
 20
-12774.0000
 30
0.0000
 11
4833.0000
 21
-11306.0000
 31
0.0000
  0
LINE
  5
17A
  8
Const_Windows
 10
4933.0000
 20
-12774.0000
 30
0.0000
 11
4933.0000
 21
-11306.0000
 31
0.0000
  0
LINE
  5
17B
  8
Const_Windows
 10
4933.0000
 20
-12774.0000
 30
0.0000
 11
4833.0000
 21
-12774.0000
 31
0.0000
  0
LINE
  5
17C
  8
Const_Windows
 10
4933.0000
 20
-11306.0000
 30
0.0000
 11
4833.0000
 21
-11306.0000
 31
0.0000
  0
LINE
  5
17D
  8
Const_Windows
 10
4883.0000
 20
-12774.0000
 30
0.0000
 11
4883.0000
 21
-11306.0000
 31
0.0000
  0
LINE
  5
17E
  8
DIM
 10
4883.0000
 20
-12774.0000
 30
0.0000
 11
4643.0000
 21
-12774.0000
 31
0.0000
  0
LINE
  5
17F
  8
DIM
 10
4883.0000
 20
-11306.0000
 30
0.0000
 11
4643.0000
 21
-11306.0000
 31
0.0000
  0
LINE
  5
180
  8
DIM
 10
4703.0000
 20
-12774.0000
 30
0.0000
 11
4703.0000
 21
-11306.0000
 31
0.0000
  0
SOLID
  5
181
  8
DIM
 10
4703.0000
 20
-12774.0000
 30
0.0000
 11
4675.0000
 21
-12864.0000
 31
0.0000
 12
4731.0000
 22
-12864.0000
 32
0.0000
 13
4731.0000
 23
-12864.0000
 33
0.0000
  0
SOLID
  5
182
  8
DIM
 10
4703.0000
 20
-11306.0000
 30
0.0000
 11
4675.0000
 21
-11216.0000
 31
0.0000
 12
4731.0000
 22
-11216.0000
 32
0.0000
 13
4731.0000
 23
-11216.0000
 33
0.0000
  0
TEXT
  5
183
  8
DIM
 10
4618.4000
 20
-12040.0000
 30
0.0000
 40
169.2000
  1
146.8
 50
90.0000
  7
STANDARD
 72
1
 73
2
 11
4618.4000
 21
-12040.0000
 31
0.0000
  0
LINE
  5
184
  8
Const_Doors
 10
9053.0000
 20
-10798.0000
 30
0.0000
 11
10551.0000
 21
-10798.0000
 31
0.0000
  0
LINE
  5
185
  8
Const_Doors
 10
9053.0000
 20
-10798.0000
 30
0.0000
 11
9053.0000
 21
-12296.0000
 31
0.0000
  0
ARC
  5
186
  8
Const_Doors
 10
9053.0000
 20
-10798.0000
 30
0.0000
 40
1498.0000
 50
-90.0000
 51
0.0000
  0
LINE
  5
187
  8
DIM
 10
9053.0000
 20
-10798.0000
 30
0.0000
 11
9293.0000
 21
-10798.0000
 31
0.0000
  0
LINE
  5
188
  8
DIM
 10
9053.0000
 20
-12296.0000
 30
0.0000
 11
9293.0000
 21
-12296.0000
 31
0.0000
  0
LINE
  5
189
  8
DIM
 10
9233.0000
 20
-10798.0000
 30
0.0000
 11
9233.0000
 21
-12296.0000
 31
0.0000
  0
SOLID
  5
18A
  8
DIM
 10
9233.0000
 20
-10798.0000
 30
0.0000
 11
9261.0000
 21
-10708.0000
 31
0.0000
 12
9205.0000
 22
-10708.0000
 32
0.0000
 13
9205.0000
 23
-10708.0000
 33
0.0000
  0
SOLID
  5
18B
  8
DIM
 10
9233.0000
 20
-12296.0000
 30
0.0000
 11
9261.0000
 21
-12386.0000
 31
0.0000
 12
9205.0000
 22
-12386.0000
 32
0.0000
 13
9205.0000
 23
-12386.0000
 33
0.0000
  0
TEXT
  5
18C
  8
DIM
 10
9317.6000
 20
-11547.0000
 30
0.0000
 40
169.2000
  1
149.8
 50
90.0000
  7
STANDARD
 72
1
 73
2
 11
9317.6000
 21
-11547.0000
 31
0.0000
  0
INSERT
  5
18D
  8
Electrical
  2
SOCKET
 10
4883.0000
 20
-11359.0000
 30
0.0000
 41
1.0000
 42
1.0000
 43
1.0000
 50
90.0000
  0
TEXT
  5
18E
  8
Text
 10
4653.0000
 20
-11359.0000
 30
0.0000
 40
154.1600
  1
Socket
 50
0.0000
  7
STANDARD
 72
1
 73
2
 11
4653.0000
 21
-11359.0000
 31
0.0000
  0
TEXT
  5
18F
  8
Electrical
 10
4893.0000
 20
-11359.0000
 30
0.0000
 40
154.1600
  1
H 95.2
 50
0.0000
  7
STANDARD
  0
LINE
  5
190
  8
Dim_Power
 10
4883.0000
 20
-13263.0000
 30
0.0000
 11
5093.0000
 21
-13263.0000
 31
0.0000
  0
LINE
  5
191
  8
Dim_Power
 10
4883.0000
 20
-11359.0000
 30
0.0000
 11
5093.0000
 21
-11359.0000
 31
0.0000
  0
LINE
  5
192
  8
Dim_Power
 10
5033.0000
 20
-13263.0000
 30
0.0000
 11
5033.0000
 21
-11359.0000
 31
0.0000
  0
SOLID
  5
193
  8
Dim_Power
 10
5033.0000
 20
-13263.0000
 30
0.0000
 11
5061.0000
 21
-13353.0000
 31
0.0000
 12
5005.0000
 22
-13353.0000
 32
0.0000
 13
5005.0000
 23
-13353.0000
 33
0.0000
  0
SOLID
  5
194
  8
Dim_Power
 10
5033.0000
 20
-11359.0000
 30
0.0000
 11
5061.0000
 21
-11269.0000
 31
0.0000
 12
5005.0000
 22
-11269.0000
 32
0.0000
 13
5005.0000
 23
-11269.0000
 33
0.0000
  0
TEXT
  5
195
  8
Dim_Power
 10
5112.9000
 20
-12311.0000
 30
0.0000
 40
159.8000
  1
190.4
 50
90.0000
  7
STANDARD
 72
1
 73
2
 11
5112.9000
 21
-12311.0000
 31
0.0000
  0
INSERT
  5
196
  8
Gas
  2
GAS
 10
4883.0000
 20
-12060.0000
 30
0.0000
 41
1.0000
 42
1.0000
 43
1.0000
 50
90.0000
  0
TEXT
  5
197
  8
Text
 10
4653.0000
 20
-12060.0000
 30
0.0000
 40
154.1600
  1
Gas
 50
0.0000
  7
STANDARD
 72
1
 73
2
 11
4653.0000
 21
-12060.0000
 31
0.0000
  0
TEXT
  5
198
  8
Gas
 10
4893.0000
 20
-12060.0000
 30
0.0000
 40
154.1600
  1
H -1.2
 50
0.0000
  7
STANDARD
  0
LINE
  5
199
  8
Dim_Gas
 10
4883.0000
 20
-13263.0000
 30
0.0000
 11
5093.0000
 21
-13263.0000
 31
0.0000
  0
LINE
  5
19A
  8
Dim_Gas
 10
4883.0000
 20
-12060.0000
 30
0.0000
 11
5093.0000
 21
-12060.0000
 31
0.0000
  0
LINE
  5
19B
  8
Dim_Gas
 10
5033.0000
 20
-13263.0000
 30
0.0000
 11
5033.0000
 21
-12060.0000
 31
0.0000
  0
SOLID
  5
19C
  8
Dim_Gas
 10
5033.0000
 20
-13263.0000
 30
0.0000
 11
5061.0000
 21
-13353.0000
 31
0.0000
 12
5005.0000
 22
-13353.0000
 32
0.0000
 13
5005.0000
 23
-13353.0000
 33
0.0000
  0
SOLID
  5
19D
  8
Dim_Gas
 10
5033.0000
 20
-12060.0000
 30
0.0000
 11
5061.0000
 21
-11970.0000
 31
0.0000
 12
5005.0000
 22
-11970.0000
 32
0.0000
 13
5005.0000
 23
-11970.0000
 33
0.0000
  0
TEXT
  5
19E
  8
Dim_Gas
 10
5112.9000
 20
-12661.5000
 30
0.0000
 40
159.8000
  1
120.3
 50
90.0000
  7
STANDARD
 72
1
 73
2
 11
5112.9000
 21
-12661.5000
 31
0.0000
  0
INSERT
  5
19F
  8
Electrical
  2
PANEL
 10
4883.0000
 20
-11930.0000
 30
0.0000
 41
1.0000
 42
1.0000
 43
1.0000
 50
90.0000
  0
TEXT
  5
1A0
  8
Text
 10
4653.0000
 20
-11930.0000
 30
0.0000
 40
154.1600
  1
Power Line
 50
0.0000
  7
STANDARD
 72
1
 73
2
 11
4653.0000
 21
-11930.0000
 31
0.0000
  0
TEXT
  5
1A1
  8
Electrical
 10
4893.0000
 20
-11930.0000
 30
0.0000
 40
154.1600
  1
H -1.2
 50
0.0000
  7
STANDARD
  0
LINE
  5
1A2
  8
Dim_Power
 10
4883.0000
 20
-13263.0000
 30
0.0000
 11
5093.0000
 21
-13263.0000
 31
0.0000
  0
LINE
  5
1A3
  8
Dim_Power
 10
4883.0000
 20
-11930.0000
 30
0.0000
 11
5093.0000
 21
-11930.0000
 31
0.0000
  0
LINE
  5
1A4
  8
Dim_Power
 10
5033.0000
 20
-13263.0000
 30
0.0000
 11
5033.0000
 21
-11930.0000
 31
0.0000
  0
SOLID
  5
1A5
  8
Dim_Power
 10
5033.0000
 20
-13263.0000
 30
0.0000
 11
5061.0000
 21
-13353.0000
 31
0.0000
 12
5005.0000
 22
-13353.0000
 32
0.0000
 13
5005.0000
 23
-13353.0000
 33
0.0000
  0
SOLID
  5
1A6
  8
Dim_Power
 10
5033.0000
 20
-11930.0000
 30
0.0000
 11
5061.0000
 21
-11840.0000
 31
0.0000
 12
5005.0000
 22
-11840.0000
 32
0.0000
 13
5005.0000
 23
-11840.0000
 33
0.0000
  0
TEXT
  5
1A7
  8
Dim_Power
 10
5112.9000
 20
-12596.5000
 30
0.0000
 40
159.8000
  1
133.3
 50
90.0000
  7
STANDARD
 72
1
 73
2
 11
5112.9000
 21
-12596.5000
 31
0.0000
  0
INSERT
  5
1A8
  8
Electrical
  2
PANEL
 10
4883.0000
 20
-11803.0000
 30
0.0000
 41
1.0000
 42
1.0000
 43
1.0000
 50
90.0000
  0
TEXT
  5
1A9
  8
Text
 10
4653.0000
 20
-11803.0000
 30
0.0000
 40
154.1600
  1
Power Line
 50
0.0000
  7
STANDARD
 72
1
 73
2
 11
4653.0000
 21
-11803.0000
 31
0.0000
  0
TEXT
  5
1AA
  8
Electrical
 10
4893.0000
 20
-11803.0000
 30
0.0000
 40
154.1600
  1
H -1.2
 50
0.0000
  7
STANDARD
  0
LINE
  5
1AB
  8
Dim_Power
 10
4883.0000
 20
-13263.0000
 30
0.0000
 11
5093.0000
 21
-13263.0000
 31
0.0000
  0
LINE
  5
1AC
  8
Dim_Power
 10
4883.0000
 20
-11803.0000
 30
0.0000
 11
5093.0000
 21
-11803.0000
 31
0.0000
  0
LINE
  5
1AD
  8
Dim_Power
 10
5033.0000
 20
-13263.0000
 30
0.0000
 11
5033.0000
 21
-11803.0000
 31
0.0000
  0
SOLID
  5
1AE
  8
Dim_Power
 10
5033.0000
 20
-13263.0000
 30
0.0000
 11
5061.0000
 21
-13353.0000
 31
0.0000
 12
5005.0000
 22
-13353.0000
 32
0.0000
 13
5005.0000
 23
-13353.0000
 33
0.0000
  0
SOLID
  5
1AF
  8
Dim_Power
 10
5033.0000
 20
-11803.0000
 30
0.0000
 11
5061.0000
 21
-11713.0000
 31
0.0000
 12
5005.0000
 22
-11713.0000
 32
0.0000
 13
5005.0000
 23
-11713.0000
 33
0.0000
  0
TEXT
  5
1B0
  8
Dim_Power
 10
5112.9000
 20
-12533.0000
 30
0.0000
 40
159.8000
  1
146
 50
90.0000
  7
STANDARD
 72
1
 73
2
 11
5112.9000
 21
-12533.0000
 31
0.0000
  0
INSERT
  5
1B1
  8
Plumbing
  2
WATER
 10
4883.0000
 20
-11842.0000
 30
0.0000
 41
1.0000
 42
1.0000
 43
1.0000
 50
90.0000
  0
TEXT
  5
1B2
  8
Text
 10
4653.0000
 20
-11842.0000
 30
0.0000
 40
154.1600
  1
Water Supply
 50
0.0000
  7
STANDARD
 72
1
 73
2
 11
4653.0000
 21
-11842.0000
 31
0.0000
  0
TEXT
  5
1B3
  8
Plumbing
 10
4893.0000
 20
-11842.0000
 30
0.0000
 40
154.1600
  1
H -1.2
 50
0.0000
  7
STANDARD
  0
LINE
  5
1B4
  8
Dim_Plumbing
 10
4883.0000
 20
-13263.0000
 30
0.0000
 11
5093.0000
 21
-13263.0000
 31
0.0000
  0
LINE
  5
1B5
  8
Dim_Plumbing
 10
4883.0000
 20
-11842.0000
 30
0.0000
 11
5093.0000
 21
-11842.0000
 31
0.0000
  0
LINE
  5
1B6
  8
Dim_Plumbing
 10
5033.0000
 20
-13263.0000
 30
0.0000
 11
5033.0000
 21
-11842.0000
 31
0.0000
  0
SOLID
  5
1B7
  8
Dim_Plumbing
 10
5033.0000
 20
-13263.0000
 30
0.0000
 11
5061.0000
 21
-13353.0000
 31
0.0000
 12
5005.0000
 22
-13353.0000
 32
0.0000
 13
5005.0000
 23
-13353.0000
 33
0.0000
  0
SOLID
  5
1B8
  8
Dim_Plumbing
 10
5033.0000
 20
-11842.0000
 30
0.0000
 11
5061.0000
 21
-11752.0000
 31
0.0000
 12
5005.0000
 22
-11752.0000
 32
0.0000
 13
5005.0000
 23
-11752.0000
 33
0.0000
  0
TEXT
  5
1B9
  8
Dim_Plumbing
 10
5112.9000
 20
-12552.5000
 30
0.0000
 40
159.8000
  1
142.1
 50
90.0000
  7
STANDARD
 72
1
 73
2
 11
5112.9000
 21
-12552.5000
 31
0.0000
  0
INSERT
  5
1BA
  8
Electrical
  2
PANEL
 10
4883.0000
 20
-12372.0000
 30
0.0000
 41
1.0000
 42
1.0000
 43
1.0000
 50
90.0000
  0
TEXT
  5
1BB
  8
Text
 10
4653.0000
 20
-12372.0000
 30
0.0000
 40
154.1600
  1
\U+05E7\U+05D5\U+05E4\U+05E1\U+05EA \U+05D7\U+05D9\U+05D1\U+05D5\U+05E8\U+05D9\U+05DD (\U+05D2\U+05F3\U+05D0\U+05E0\U+05E7\U+05E9\U+05DF)
 50
0.0000
  7
STANDARD
 72
1
 73
2
 11
4653.0000
 21
-12372.0000
 31
0.0000
  0
TEXT
  5
1BC
  8
Electrical
 10
4893.0000
 20
-12372.0000
 30
0.0000
 40
154.1600
  1
H 209.7
 50
0.0000
  7
STANDARD
  0
LINE
  5
1BD
  8
Dim_Power
 10
4883.0000
 20
-13263.0000
 30
0.0000
 11
5093.0000
 21
-13263.0000
 31
0.0000
  0
LINE
  5
1BE
  8
Dim_Power
 10
4883.0000
 20
-12372.0000
 30
0.0000
 11
5093.0000
 21
-12372.0000
 31
0.0000
  0
LINE
  5
1BF
  8
Dim_Power
 10
5033.0000
 20
-13263.0000
 30
0.0000
 11
5033.0000
 21
-12372.0000
 31
0.0000
  0
SOLID
  5
1C0
  8
Dim_Power
 10
5033.0000
 20
-13263.0000
 30
0.0000
 11
5061.0000
 21
-13353.0000
 31
0.0000
 12
5005.0000
 22
-13353.0000
 32
0.0000
 13
5005.0000
 23
-13353.0000
 33
0.0000
  0
SOLID
  5
1C1
  8
Dim_Power
 10
5033.0000
 20
-12372.0000
 30
0.0000
 11
5061.0000
 21
-12282.0000
 31
0.0000
 12
5005.0000
 22
-12282.0000
 32
0.0000
 13
5005.0000
 23
-12282.0000
 33
0.0000
  0
TEXT
  5
1C2
  8
Dim_Power
 10
5112.9000
 20
-12817.5000
 30
0.0000
 40
159.8000
  1
89.1
 50
90.0000
  7
STANDARD
 72
1
 73
2
 11
5112.9000
 21
-12817.5000
 31
0.0000
  0
INSERT
  5
1C3
  8
Electrical
  2
SOCKET
 10
4883.0000
 20
-12210.0000
 30
0.0000
 41
1.0000
 42
1.0000
 43
1.0000
 50
90.0000
  0
TEXT
  5
1C4
  8
Text
 10
4653.0000
 20
-12210.0000
 30
0.0000
 40
154.1600
  1
Socket
 50
0.0000
  7
STANDARD
 72
1
 73
2
 11
4653.0000
 21
-12210.0000
 31
0.0000
  0
TEXT
  5
1C5
  8
Electrical
 10
4893.0000
 20
-12210.0000
 30
0.0000
 40
154.1600
  1
H 122
 50
0.0000
  7
STANDARD
  0
LINE
  5
1C6
  8
Dim_Power
 10
4883.0000
 20
-13263.0000
 30
0.0000
 11
5093.0000
 21
-13263.0000
 31
0.0000
  0
LINE
  5
1C7
  8
Dim_Power
 10
4883.0000
 20
-12210.0000
 30
0.0000
 11
5093.0000
 21
-12210.0000
 31
0.0000
  0
LINE
  5
1C8
  8
Dim_Power
 10
5033.0000
 20
-13263.0000
 30
0.0000
 11
5033.0000
 21
-12210.0000
 31
0.0000
  0
SOLID
  5
1C9
  8
Dim_Power
 10
5033.0000
 20
-13263.0000
 30
0.0000
 11
5061.0000
 21
-13353.0000
 31
0.0000
 12
5005.0000
 22
-13353.0000
 32
0.0000
 13
5005.0000
 23
-13353.0000
 33
0.0000
  0
SOLID
  5
1CA
  8
Dim_Power
 10
5033.0000
 20
-12210.0000
 30
0.0000
 11
5061.0000
 21
-12120.0000
 31
0.0000
 12
5005.0000
 22
-12120.0000
 32
0.0000
 13
5005.0000
 23
-12120.0000
 33
0.0000
  0
TEXT
  5
1CB
  8
Dim_Power
 10
5112.9000
 20
-12736.5000
 30
0.0000
 40
159.8000
  1
105.3
 50
90.0000
  7
STANDARD
 72
1
 73
2
 11
5112.9000
 21
-12736.5000
 31
0.0000
  0
INSERT
  5
1CC
  8
Electrical
  2
SOCKET
 10
4883.0000
 20
-13052.0000
 30
0.0000
 41
1.0000
 42
1.0000
 43
1.0000
 50
90.0000
  0
TEXT
  5
1CD
  8
Text
 10
4653.0000
 20
-13052.0000
 30
0.0000
 40
154.1600
  1
Socket
 50
0.0000
  7
STANDARD
 72
1
 73
2
 11
4653.0000
 21
-13052.0000
 31
0.0000
  0
TEXT
  5
1CE
  8
Electrical
 10
4893.0000
 20
-13052.0000
 30
0.0000
 40
154.1600
  1
H 120.2
 50
0.0000
  7
STANDARD
  0
LINE
  5
1CF
  8
Dim_Power
 10
4883.0000
 20
-13263.0000
 30
0.0000
 11
5093.0000
 21
-13263.0000
 31
0.0000
  0
LINE
  5
1D0
  8
Dim_Power
 10
4883.0000
 20
-13052.0000
 30
0.0000
 11
5093.0000
 21
-13052.0000
 31
0.0000
  0
LINE
  5
1D1
  8
Dim_Power
 10
5033.0000
 20
-13263.0000
 30
0.0000
 11
5033.0000
 21
-13052.0000
 31
0.0000
  0
SOLID
  5
1D2
  8
Dim_Power
 10
5033.0000
 20
-13263.0000
 30
0.0000
 11
5061.0000
 21
-13353.0000
 31
0.0000
 12
5005.0000
 22
-13353.0000
 32
0.0000
 13
5005.0000
 23
-13353.0000
 33
0.0000
  0
SOLID
  5
1D3
  8
Dim_Power
 10
5033.0000
 20
-13052.0000
 30
0.0000
 11
5061.0000
 21
-12962.0000
 31
0.0000
 12
5005.0000
 22
-12962.0000
 32
0.0000
 13
5005.0000
 23
-12962.0000
 33
0.0000
  0
TEXT
  5
1D4
  8
Dim_Power
 10
5112.9000
 20
-13157.5000
 30
0.0000
 40
159.8000
  1
21.1
 50
90.0000
  7
STANDARD
 72
1
 73
2
 11
5112.9000
 21
-13157.5000
 31
0.0000
  0
INSERT
  5
1D5
  8
Electrical
  2
SOCKET
 10
8189.0000
 20
-9622.0000
 30
0.0000
 41
1.0000
 42
1.0000
 43
1.0000
 50
0.0000
  0
TEXT
  5
1D6
  8
Text
 10
8189.0000
 20
-9392.0000
 30
0.0000
 40
154.1600
  1
\U+05E9\U+05E7\U+05E2 \U+05DB\U+05E4\U+05D5\U+05DC
 50
0.0000
  7
STANDARD
 72
1
 73
2
 11
8189.0000
 21
-9392.0000
 31
0.0000
  0
TEXT
  5
1D7
  8
Electrical
 10
8259.0000
 20
-9562.0000
 30
0.0000
 40
154.1600
  1
H 111.7
 50
0.0000
  7
STANDARD
  0
LINE
  5
1D8
  8
Dim_Power
 10
4883.0000
 20
-9622.0000
 30
0.0000
 11
4883.0000
 21
-9832.0000
 31
0.0000
  0
LINE
  5
1D9
  8
Dim_Power
 10
8189.0000
 20
-9622.0000
 30
0.0000
 11
8189.0000
 21
-9832.0000
 31
0.0000
  0
LINE
  5
1DA
  8
Dim_Power
 10
4883.0000
 20
-9772.0000
 30
0.0000
 11
8189.0000
 21
-9772.0000
 31
0.0000
  0
SOLID
  5
1DB
  8
Dim_Power
 10
4883.0000
 20
-9772.0000
 30
0.0000
 11
4793.0000
 21
-9800.0000
 31
0.0000
 12
4793.0000
 22
-9744.0000
 32
0.0000
 13
4793.0000
 23
-9744.0000
 33
0.0000
  0
SOLID
  5
1DC
  8
Dim_Power
 10
8189.0000
 20
-9772.0000
 30
0.0000
 11
8279.0000
 21
-9800.0000
 31
0.0000
 12
8279.0000
 22
-9744.0000
 32
0.0000
 13
8279.0000
 23
-9744.0000
 33
0.0000
  0
TEXT
  5
1DD
  8
Dim_Power
 10
6536.0000
 20
-9851.9000
 30
0.0000
 40
159.8000
  1
330.6
 50
0.0000
  7
STANDARD
 72
1
 73
2
 11
6536.0000
 21
-9851.9000
 31
0.0000
  0
INSERT
  5
1DE
  8
Electrical
  2
PANEL
 10
8289.0000
 20
-9622.0000
 30
0.0000
 41
1.0000
 42
1.0000
 43
1.0000
 50
0.0000
  0
TEXT
  5
1DF
  8
Text
 10
8289.0000
 20
-9392.0000
 30
0.0000
 40
154.1600
  1
Power Line
 50
0.0000
  7
STANDARD
 72
1
 73
2
 11
8289.0000
 21
-9392.0000
 31
0.0000
  0
TEXT
  5
1E0
  8
Electrical
 10
8359.0000
 20
-9562.0000
 30
0.0000
 40
154.1600
  1
H 177.8
 50
0.0000
  7
STANDARD
  0
LINE
  5
1E1
  8
Dim_Power
 10
4883.0000
 20
-9622.0000
 30
0.0000
 11
4883.0000
 21
-9832.0000
 31
0.0000
  0
LINE
  5
1E2
  8
Dim_Power
 10
8289.0000
 20
-9622.0000
 30
0.0000
 11
8289.0000
 21
-9832.0000
 31
0.0000
  0
LINE
  5
1E3
  8
Dim_Power
 10
4883.0000
 20
-9772.0000
 30
0.0000
 11
8289.0000
 21
-9772.0000
 31
0.0000
  0
SOLID
  5
1E4
  8
Dim_Power
 10
4883.0000
 20
-9772.0000
 30
0.0000
 11
4793.0000
 21
-9800.0000
 31
0.0000
 12
4793.0000
 22
-9744.0000
 32
0.0000
 13
4793.0000
 23
-9744.0000
 33
0.0000
  0
SOLID
  5
1E5
  8
Dim_Power
 10
8289.0000
 20
-9772.0000
 30
0.0000
 11
8379.0000
 21
-9800.0000
 31
0.0000
 12
8379.0000
 22
-9744.0000
 32
0.0000
 13
8379.0000
 23
-9744.0000
 33
0.0000
  0
TEXT
  5
1E6
  8
Dim_Power
 10
6586.0000
 20
-9851.9000
 30
0.0000
 40
159.8000
  1
340.6
 50
0.0000
  7
STANDARD
 72
1
 73
2
 11
6586.0000
 21
-9851.9000
 31
0.0000
  0
INSERT
  5
1E7
  8
Plumbing
  2
WATER
 10
7536.0000
 20
-9622.0000
 30
0.0000
 41
1.0000
 42
1.0000
 43
1.0000
 50
0.0000
  0
TEXT
  5
1E8
  8
Text
 10
7536.0000
 20
-9392.0000
 30
0.0000
 40
154.1600
  1
Faucet
 50
0.0000
  7
STANDARD
 72
1
 73
2
 11
7536.0000
 21
-9392.0000
 31
0.0000
  0
TEXT
  5
1E9
  8
Plumbing
 10
7606.0000
 20
-9562.0000
 30
0.0000
 40
154.1600
  1
H 55.9
 50
0.0000
  7
STANDARD
  0
LINE
  5
1EA
  8
Dim_Plumbing
 10
4883.0000
 20
-9622.0000
 30
0.0000
 11
4883.0000
 21
-9832.0000
 31
0.0000
  0
LINE
  5
1EB
  8
Dim_Plumbing
 10
7536.0000
 20
-9622.0000
 30
0.0000
 11
7536.0000
 21
-9832.0000
 31
0.0000
  0
LINE
  5
1EC
  8
Dim_Plumbing
 10
4883.0000
 20
-9772.0000
 30
0.0000
 11
7536.0000
 21
-9772.0000
 31
0.0000
  0
SOLID
  5
1ED
  8
Dim_Plumbing
 10
4883.0000
 20
-9772.0000
 30
0.0000
 11
4793.0000
 21
-9800.0000
 31
0.0000
 12
4793.0000
 22
-9744.0000
 32
0.0000
 13
4793.0000
 23
-9744.0000
 33
0.0000
  0
SOLID
  5
1EE
  8
Dim_Plumbing
 10
7536.0000
 20
-9772.0000
 30
0.0000
 11
7626.0000
 21
-9800.0000
 31
0.0000
 12
7626.0000
 22
-9744.0000
 32
0.0000
 13
7626.0000
 23
-9744.0000
 33
0.0000
  0
TEXT
  5
1EF
  8
Dim_Plumbing
 10
6209.5000
 20
-9851.9000
 30
0.0000
 40
159.8000
  1
265.3
 50
0.0000
  7
STANDARD
 72
1
 73
2
 11
6209.5000
 21
-9851.9000
 31
0.0000
  0
INSERT
  5
1F0
  8
Plumbing
  2
WATER
 10
7382.0000
 20
-9622.0000
 30
0.0000
 41
1.0000
 42
1.0000
 43
1.0000
 50
0.0000
  0
TEXT
  5
1F1
  8
Text
 10
7382.0000
 20
-9392.0000
 30
0.0000
 40
154.1600
  1
Faucet
 50
0.0000
  7
STANDARD
 72
1
 73
2
 11
7382.0000
 21
-9392.0000
 31
0.0000
  0
TEXT
  5
1F2
  8
Plumbing
 10
7452.0000
 20
-9562.0000
 30
0.0000
 40
154.1600
  1
H 55.2
 50
0.0000
  7
STANDARD
  0
LINE
  5
1F3
  8
Dim_Plumbing
 10
4883.0000
 20
-9622.0000
 30
0.0000
 11
4883.0000
 21
-9832.0000
 31
0.0000
  0
LINE
  5
1F4
  8
Dim_Plumbing
 10
7382.0000
 20
-9622.0000
 30
0.0000
 11
7382.0000
 21
-9832.0000
 31
0.0000
  0
LINE
  5
1F5
  8
Dim_Plumbing
 10
4883.0000
 20
-9772.0000
 30
0.0000
 11
7382.0000
 21
-9772.0000
 31
0.0000
  0
SOLID
  5
1F6
  8
Dim_Plumbing
 10
4883.0000
 20
-9772.0000
 30
0.0000
 11
4793.0000
 21
-9800.0000
 31
0.0000
 12
4793.0000
 22
-9744.0000
 32
0.0000
 13
4793.0000
 23
-9744.0000
 33
0.0000
  0
SOLID
  5
1F7
  8
Dim_Plumbing
 10
7382.0000
 20
-9772.0000
 30
0.0000
 11
7472.0000
 21
-9800.0000
 31
0.0000
 12
7472.0000
 22
-9744.0000
 32
0.0000
 13
7472.0000
 23
-9744.0000
 33
0.0000
  0
TEXT
  5
1F8
  8
Dim_Plumbing
 10
6132.5000
 20
-9851.9000
 30
0.0000
 40
159.8000
  1
249.9
 50
0.0000
  7
STANDARD
 72
1
 73
2
 11
6132.5000
 21
-9851.9000
 31
0.0000
  0
INSERT
  5
1F9
  8
Electrical
  2
SOCKET
 10
7212.0000
 20
-9622.0000
 30
0.0000
 41
1.0000
 42
1.0000
 43
1.0000
 50
0.0000
  0
TEXT
  5
1FA
  8
Text
 10
7212.0000
 20
-9392.0000
 30
0.0000
 40
154.1600
  1
Socket
 50
0.0000
  7
STANDARD
 72
1
 73
2
 11
7212.0000
 21
-9392.0000
 31
0.0000
  0
TEXT
  5
1FB
  8
Electrical
 10
7282.0000
 20
-9562.0000
 30
0.0000
 40
154.1600
  1
H 49.4
 50
0.0000
  7
STANDARD
  0
LINE
  5
1FC
  8
Dim_Power
 10
4883.0000
 20
-9622.0000
 30
0.0000
 11
4883.0000
 21
-9832.0000
 31
0.0000
  0
LINE
  5
1FD
  8
Dim_Power
 10
7212.0000
 20
-9622.0000
 30
0.0000
 11
7212.0000
 21
-9832.0000
 31
0.0000
  0
LINE
  5
1FE
  8
Dim_Power
 10
4883.0000
 20
-9772.0000
 30
0.0000
 11
7212.0000
 21
-9772.0000
 31
0.0000
  0
SOLID
  5
1FF
  8
Dim_Power
 10
4883.0000
 20
-9772.0000
 30
0.0000
 11
4793.0000
 21
-9800.0000
 31
0.0000
 12
4793.0000
 22
-9744.0000
 32
0.0000
 13
4793.0000
 23
-9744.0000
 33
0.0000
  0
SOLID
  5
200
  8
Dim_Power
 10
7212.0000
 20
-9772.0000
 30
0.0000
 11
7302.0000
 21
-9800.0000
 31
0.0000
 12
7302.0000
 22
-9744.0000
 32
0.0000
 13
7302.0000
 23
-9744.0000
 33
0.0000
  0
TEXT
  5
201
  8
Dim_Power
 10
6047.5000
 20
-9851.9000
 30
0.0000
 40
159.8000
  1
232.9
 50
0.0000
  7
STANDARD
 72
1
 73
2
 11
6047.5000
 21
-9851.9000
 31
0.0000
  0
INSERT
  5
202
  8
Plumbing
  2
DRAIN
 10
7339.0000
 20
-9622.0000
 30
0.0000
 41
1.0000
 42
1.0000
 43
1.0000
 50
0.0000
  0
TEXT
  5
203
  8
Text
 10
7339.0000
 20
-9392.0000
 30
0.0000
 40
154.1600
  1
Sewage
 50
0.0000
  7
STANDARD
 72
1
 73
2
 11
7339.0000
 21
-9392.0000
 31
0.0000
  0
TEXT
  5
204
  8
Plumbing
 10
7409.0000
 20
-9562.0000
 30
0.0000
 40
154.1600
  1
H -2.7
 50
0.0000
  7
STANDARD
  0
LINE
  5
205
  8
Dim_Plumbing
 10
4883.0000
 20
-9622.0000
 30
0.0000
 11
4883.0000
 21
-9832.0000
 31
0.0000
  0
LINE
  5
206
  8
Dim_Plumbing
 10
7339.0000
 20
-9622.0000
 30
0.0000
 11
7339.0000
 21
-9832.0000
 31
0.0000
  0
LINE
  5
207
  8
Dim_Plumbing
 10
4883.0000
 20
-9772.0000
 30
0.0000
 11
7339.0000
 21
-9772.0000
 31
0.0000
  0
SOLID
  5
208
  8
Dim_Plumbing
 10
4883.0000
 20
-9772.0000
 30
0.0000
 11
4793.0000
 21
-9800.0000
 31
0.0000
 12
4793.0000
 22
-9744.0000
 32
0.0000
 13
4793.0000
 23
-9744.0000
 33
0.0000
  0
SOLID
  5
209
  8
Dim_Plumbing
 10
7339.0000
 20
-9772.0000
 30
0.0000
 11
7429.0000
 21
-9800.0000
 31
0.0000
 12
7429.0000
 22
-9744.0000
 32
0.0000
 13
7429.0000
 23
-9744.0000
 33
0.0000
  0
TEXT
  5
20A
  8
Dim_Plumbing
 10
6111.0000
 20
-9851.9000
 30
0.0000
 40
159.8000
  1
245.6
 50
0.0000
  7
STANDARD
 72
1
 73
2
 11
6111.0000
 21
-9851.9000
 31
0.0000
  0
INSERT
  5
20B
  8
Electrical
  2
SOCKET
 10
6771.0000
 20
-9622.0000
 30
0.0000
 41
1.0000
 42
1.0000
 43
1.0000
 50
0.0000
  0
TEXT
  5
20C
  8
Text
 10
6771.0000
 20
-9392.0000
 30
0.0000
 40
154.1600
  1
\U+05E9\U+05E7\U+05E2 \U+05DB\U+05E4\U+05D5\U+05DC
 50
0.0000
  7
STANDARD
 72
1
 73
2
 11
6771.0000
 21
-9392.0000
 31
0.0000
  0
TEXT
  5
20D
  8
Electrical
 10
6841.0000
 20
-9562.0000
 30
0.0000
 40
154.1600
  1
H 111.5
 50
0.0000
  7
STANDARD
  0
LINE
  5
20E
  8
Dim_Power
 10
4883.0000
 20
-9622.0000
 30
0.0000
 11
4883.0000
 21
-9832.0000
 31
0.0000
  0
LINE
  5
20F
  8
Dim_Power
 10
6771.0000
 20
-9622.0000
 30
0.0000
 11
6771.0000
 21
-9832.0000
 31
0.0000
  0
LINE
  5
210
  8
Dim_Power
 10
4883.0000
 20
-9772.0000
 30
0.0000
 11
6771.0000
 21
-9772.0000
 31
0.0000
  0
SOLID
  5
211
  8
Dim_Power
 10
4883.0000
 20
-9772.0000
 30
0.0000
 11
4793.0000
 21
-9800.0000
 31
0.0000
 12
4793.0000
 22
-9744.0000
 32
0.0000
 13
4793.0000
 23
-9744.0000
 33
0.0000
  0
SOLID
  5
212
  8
Dim_Power
 10
6771.0000
 20
-9772.0000
 30
0.0000
 11
6861.0000
 21
-9800.0000
 31
0.0000
 12
6861.0000
 22
-9744.0000
 32
0.0000
 13
6861.0000
 23
-9744.0000
 33
0.0000
  0
TEXT
  5
213
  8
Dim_Power
 10
5827.0000
 20
-9851.9000
 30
0.0000
 40
159.8000
  1
188.8
 50
0.0000
  7
STANDARD
 72
1
 73
2
 11
5827.0000
 21
-9851.9000
 31
0.0000
  0
INSERT
  5
214
  8
Electrical
  2
SOCKET
 10
6363.0000
 20
-9622.0000
 30
0.0000
 41
1.0000
 42
1.0000
 43
1.0000
 50
0.0000
  0
TEXT
  5
215
  8
Text
 10
6363.0000
 20
-9392.0000
 30
0.0000
 40
154.1600
  1
Socket
 50
0.0000
  7
STANDARD
 72
1
 73
2
 11
6363.0000
 21
-9392.0000
 31
0.0000
  0
TEXT
  5
216
  8
Electrical
 10
6433.0000
 20
-9562.0000
 30
0.0000
 40
154.1600
  1
H 156.8
 50
0.0000
  7
STANDARD
  0
LINE
  5
217
  8
Dim_Power
 10
4883.0000
 20
-9622.0000
 30
0.0000
 11
4883.0000
 21
-9832.0000
 31
0.0000
  0
LINE
  5
218
  8
Dim_Power
 10
6363.0000
 20
-9622.0000
 30
0.0000
 11
6363.0000
 21
-9832.0000
 31
0.0000
  0
LINE
  5
219
  8
Dim_Power
 10
4883.0000
 20
-9772.0000
 30
0.0000
 11
6363.0000
 21
-9772.0000
 31
0.0000
  0
SOLID
  5
21A
  8
Dim_Power
 10
4883.0000
 20
-9772.0000
 30
0.0000
 11
4793.0000
 21
-9800.0000
 31
0.0000
 12
4793.0000
 22
-9744.0000
 32
0.0000
 13
4793.0000
 23
-9744.0000
 33
0.0000
  0
SOLID
  5
21B
  8
Dim_Power
 10
6363.0000
 20
-9772.0000
 30
0.0000
 11
6453.0000
 21
-9800.0000
 31
0.0000
 12
6453.0000
 22
-9744.0000
 32
0.0000
 13
6453.0000
 23
-9744.0000
 33
0.0000
  0
TEXT
  5
21C
  8
Dim_Power
 10
5623.0000
 20
-9851.9000
 30
0.0000
 40
159.8000
  1
148
 50
0.0000
  7
STANDARD
 72
1
 73
2
 11
5623.0000
 21
-9851.9000
 31
0.0000
  0
INSERT
  5
21D
  8
Electrical
  2
SOCKET
 10
6205.0000
 20
-9622.0000
 30
0.0000
 41
1.0000
 42
1.0000
 43
1.0000
 50
0.0000
  0
TEXT
  5
21E
  8
Text
 10
6205.0000
 20
-9392.0000
 30
0.0000
 40
154.1600
  1
Socket
 50
0.0000
  7
STANDARD
 72
1
 73
2
 11
6205.0000
 21
-9392.0000
 31
0.0000
  0
TEXT
  5
21F
  8
Electrical
 10
6275.0000
 20
-9562.0000
 30
0.0000
 40
154.1600
  1
H 156.5
 50
0.0000
  7
STANDARD
  0
LINE
  5
220
  8
Dim_Power
 10
4883.0000
 20
-9622.0000
 30
0.0000
 11
4883.0000
 21
-9832.0000
 31
0.0000
  0
LINE
  5
221
  8
Dim_Power
 10
6205.0000
 20
-9622.0000
 30
0.0000
 11
6205.0000
 21
-9832.0000
 31
0.0000
  0
LINE
  5
222
  8
Dim_Power
 10
4883.0000
 20
-9772.0000
 30
0.0000
 11
6205.0000
 21
-9772.0000
 31
0.0000
  0
SOLID
  5
223
  8
Dim_Power
 10
4883.0000
 20
-9772.0000
 30
0.0000
 11
4793.0000
 21
-9800.0000
 31
0.0000
 12
4793.0000
 22
-9744.0000
 32
0.0000
 13
4793.0000
 23
-9744.0000
 33
0.0000
  0
SOLID
  5
224
  8
Dim_Power
 10
6205.0000
 20
-9772.0000
 30
0.0000
 11
6295.0000
 21
-9800.0000
 31
0.0000
 12
6295.0000
 22
-9744.0000
 32
0.0000
 13
6295.0000
 23
-9744.0000
 33
0.0000
  0
TEXT
  5
225
  8
Dim_Power
 10
5544.0000
 20
-9851.9000
 30
0.0000
 40
159.8000
  1
132.2
 50
0.0000
  7
STANDARD
 72
1
 73
2
 11
5544.0000
 21
-9851.9000
 31
0.0000
  0
INSERT
  5
226
  8
Electrical
  2
SOCKET
 10
5413.0000
 20
-9622.0000
 30
0.0000
 41
1.0000
 42
1.0000
 43
1.0000
 50
0.0000
  0
TEXT
  5
227
  8
Text
 10
5413.0000
 20
-9392.0000
 30
0.0000
 40
154.1600
  1
Socket
 50
0.0000
  7
STANDARD
 72
1
 73
2
 11
5413.0000
 21
-9392.0000
 31
0.0000
  0
TEXT
  5
228
  8
Electrical
 10
5483.0000
 20
-9562.0000
 30
0.0000
 40
154.1600
  1
H 171
 50
0.0000
  7
STANDARD
  0
LINE
  5
229
  8
Dim_Power
 10
4883.0000
 20
-9622.0000
 30
0.0000
 11
4883.0000
 21
-9832.0000
 31
0.0000
  0
LINE
  5
22A
  8
Dim_Power
 10
5413.0000
 20
-9622.0000
 30
0.0000
 11
5413.0000
 21
-9832.0000
 31
0.0000
  0
LINE
  5
22B
  8
Dim_Power
 10
4883.0000
 20
-9772.0000
 30
0.0000
 11
5413.0000
 21
-9772.0000
 31
0.0000
  0
SOLID
  5
22C
  8
Dim_Power
 10
4883.0000
 20
-9772.0000
 30
0.0000
 11
4793.0000
 21
-9800.0000
 31
0.0000
 12
4793.0000
 22
-9744.0000
 32
0.0000
 13
4793.0000
 23
-9744.0000
 33
0.0000
  0
SOLID
  5
22D
  8
Dim_Power
 10
5413.0000
 20
-9772.0000
 30
0.0000
 11
5503.0000
 21
-9800.0000
 31
0.0000
 12
5503.0000
 22
-9744.0000
 32
0.0000
 13
5503.0000
 23
-9744.0000
 33
0.0000
  0
TEXT
  5
22E
  8
Dim_Power
 10
5148.0000
 20
-9851.9000
 30
0.0000
 40
159.8000
  1
53
 50
0.0000
  7
STANDARD
 72
1
 73
2
 11
5148.0000
 21
-9851.9000
 31
0.0000
  0
INSERT
  5
22F
  8
Electrical
  2
PANEL
 10
6691.0000
 20
-9622.0000
 30
0.0000
 41
1.0000
 42
1.0000
 43
1.0000
 50
0.0000
  0
TEXT
  5
230
  8
Text
 10
6691.0000
 20
-9392.0000
 30
0.0000
 40
154.1600
  1
\U+05E7\U+05D5\U+05E4\U+05E1\U+05EA \U+05D7\U+05D9\U+05D1\U+05D5\U+05E8\U+05D9\U+05DD (\U+05D2\U+05F3\U+05D0\U+05E0\U+05E7\U+05E9\U+05DF)
 50
0.0000
  7
STANDARD
 72
1
 73
2
 11
6691.0000
 21
-9392.0000
 31
0.0000
  0
TEXT
  5
231
  8
Electrical
 10
6761.0000
 20
-9562.0000
 30
0.0000
 40
154.1600
  1
H 224.4
 50
0.0000
  7
STANDARD
  0
LINE
  5
232
  8
Dim_Power
 10
4883.0000
 20
-9622.0000
 30
0.0000
 11
4883.0000
 21
-9832.0000
 31
0.0000
  0
LINE
  5
233
  8
Dim_Power
 10
6691.0000
 20
-9622.0000
 30
0.0000
 11
6691.0000
 21
-9832.0000
 31
0.0000
  0
LINE
  5
234
  8
Dim_Power
 10
4883.0000
 20
-9772.0000
 30
0.0000
 11
6691.0000
 21
-9772.0000
 31
0.0000
  0
SOLID
  5
235
  8
Dim_Power
 10
4883.0000
 20
-9772.0000
 30
0.0000
 11
4793.0000
 21
-9800.0000
 31
0.0000
 12
4793.0000
 22
-9744.0000
 32
0.0000
 13
4793.0000
 23
-9744.0000
 33
0.0000
  0
SOLID
  5
236
  8
Dim_Power
 10
6691.0000
 20
-9772.0000
 30
0.0000
 11
6781.0000
 21
-9800.0000
 31
0.0000
 12
6781.0000
 22
-9744.0000
 32
0.0000
 13
6781.0000
 23
-9744.0000
 33
0.0000
  0
TEXT
  5
237
  8
Dim_Power
 10
5787.0000
 20
-9851.9000
 30
0.0000
 40
159.8000
  1
180.8
 50
0.0000
  7
STANDARD
 72
1
 73
2
 11
5787.0000
 21
-9851.9000
 31
0.0000
  0
INSERT
  5
238
  8
Lighting
  2
LIGHT
 10
6024.0000
 20
-9622.0000
 30
0.0000
 41
1.0000
 42
1.0000
 43
1.0000
 50
0.0000
  0
TEXT
  5
239
  8
Text
 10
6024.0000
 20
-9392.0000
 30
0.0000
 40
154.1600
  1
Can Light
 50
0.0000
  7
STANDARD
 72
1
 73
2
 11
6024.0000
 21
-9392.0000
 31
0.0000
  0
TEXT
  5
23A
  8
Lighting
 10
6094.0000
 20
-9562.0000
 30
0.0000
 40
154.1600
  1
H 276.7
 50
0.0000
  7
STANDARD
  0
LINE
  5
23B
  8
Dim_Lighting
 10
4883.0000
 20
-9622.0000
 30
0.0000
 11
4883.0000
 21
-9832.0000
 31
0.0000
  0
LINE
  5
23C
  8
Dim_Lighting
 10
6024.0000
 20
-9622.0000
 30
0.0000
 11
6024.0000
 21
-9832.0000
 31
0.0000
  0
LINE
  5
23D
  8
Dim_Lighting
 10
4883.0000
 20
-9772.0000
 30
0.0000
 11
6024.0000
 21
-9772.0000
 31
0.0000
  0
SOLID
  5
23E
  8
Dim_Lighting
 10
4883.0000
 20
-9772.0000
 30
0.0000
 11
4793.0000
 21
-9800.0000
 31
0.0000
 12
4793.0000
 22
-9744.0000
 32
0.0000
 13
4793.0000
 23
-9744.0000
 33
0.0000
  0
SOLID
  5
23F
  8
Dim_Lighting
 10
6024.0000
 20
-9772.0000
 30
0.0000
 11
6114.0000
 21
-9800.0000
 31
0.0000
 12
6114.0000
 22
-9744.0000
 32
0.0000
 13
6114.0000
 23
-9744.0000
 33
0.0000
  0
TEXT
  5
240
  8
Dim_Lighting
 10
5453.5000
 20
-9851.9000
 30
0.0000
 40
159.8000
  1
114.1
 50
0.0000
  7
STANDARD
 72
1
 73
2
 11
5453.5000
 21
-9851.9000
 31
0.0000
  0
INSERT
  5
241
  8
Lighting
  2
LIGHT
 10
6167.0000
 20
-9622.0000
 30
0.0000
 41
1.0000
 42
1.0000
 43
1.0000
 50
0.0000
  0
TEXT
  5
242
  8
Text
 10
6167.0000
 20
-9392.0000
 30
0.0000
 40
154.1600
  1
Can Light
 50
0.0000
  7
STANDARD
 72
1
 73
2
 11
6167.0000
 21
-9392.0000
 31
0.0000
  0
TEXT
  5
243
  8
Lighting
 10
6237.0000
 20
-9562.0000
 30
0.0000
 40
154.1600
  1
H 276.7
 50
0.0000
  7
STANDARD
  0
LINE
  5
244
  8
Dim_Lighting
 10
4883.0000
 20
-9622.0000
 30
0.0000
 11
4883.0000
 21
-9832.0000
 31
0.0000
  0
LINE
  5
245
  8
Dim_Lighting
 10
6167.0000
 20
-9622.0000
 30
0.0000
 11
6167.0000
 21
-9832.0000
 31
0.0000
  0
LINE
  5
246
  8
Dim_Lighting
 10
4883.0000
 20
-9772.0000
 30
0.0000
 11
6167.0000
 21
-9772.0000
 31
0.0000
  0
SOLID
  5
247
  8
Dim_Lighting
 10
4883.0000
 20
-9772.0000
 30
0.0000
 11
4793.0000
 21
-9800.0000
 31
0.0000
 12
4793.0000
 22
-9744.0000
 32
0.0000
 13
4793.0000
 23
-9744.0000
 33
0.0000
  0
SOLID
  5
248
  8
Dim_Lighting
 10
6167.0000
 20
-9772.0000
 30
0.0000
 11
6257.0000
 21
-9800.0000
 31
0.0000
 12
6257.0000
 22
-9744.0000
 32
0.0000
 13
6257.0000
 23
-9744.0000
 33
0.0000
  0
TEXT
  5
249
  8
Dim_Lighting
 10
5525.0000
 20
-9851.9000
 30
0.0000
 40
159.8000
  1
128.4
 50
0.0000
  7
STANDARD
 72
1
 73
2
 11
5525.0000
 21
-9851.9000
 31
0.0000
  0
INSERT
  5
24A
  8
Lighting
  2
LIGHT
 10
9053.0000
 20
-10945.0000
 30
0.0000
 41
1.0000
 42
1.0000
 43
1.0000
 50
270.0000
  0
TEXT
  5
24B
  8
Text
 10
9283.0000
 20
-10945.0000
 30
0.0000
 40
154.1600
  1
Can Light
 50
0.0000
  7
STANDARD
 72
1
 73
2
 11
9283.0000
 21
-10945.0000
 31
0.0000
  0
TEXT
  5
24C
  8
Lighting
 10
9183.0000
 20
-10945.0000
 30
0.0000
 40
154.1600
  1
H 276.7
 50
0.0000
  7
STANDARD
  0
LINE
  5
24D
  8
Dim_Lighting
 10
9053.0000
 20
-9622.0000
 30
0.0000
 11
8843.0000
 21
-9622.0000
 31
0.0000
  0
LINE
  5
24E
  8
Dim_Lighting
 10
9053.0000
 20
-10945.0000
 30
0.0000
 11
8843.0000
 21
-10945.0000
 31
0.0000
  0
LINE
  5
24F
  8
Dim_Lighting
 10
8903.0000
 20
-9622.0000
 30
0.0000
 11
8903.0000
 21
-10945.0000
 31
0.0000
  0
SOLID
  5
250
  8
Dim_Lighting
 10
8903.0000
 20
-9622.0000
 30
0.0000
 11
8875.0000
 21
-9532.0000
 31
0.0000
 12
8931.0000
 22
-9532.0000
 32
0.0000
 13
8931.0000
 23
-9532.0000
 33
0.0000
  0
SOLID
  5
251
  8
Dim_Lighting
 10
8903.0000
 20
-10945.0000
 30
0.0000
 11
8875.0000
 21
-11035.0000
 31
0.0000
 12
8931.0000
 22
-11035.0000
 32
0.0000
 13
8931.0000
 23
-11035.0000
 33
0.0000
  0
TEXT
  5
252
  8
Dim_Lighting
 10
8823.1000
 20
-10283.5000
 30
0.0000
 40
159.8000
  1
132.3
 50
90.0000
  7
STANDARD
 72
1
 73
2
 11
8823.1000
 21
-10283.5000
 31
0.0000
  0
LINE
  5
253
  8
Dim_overall
 10
1177.0000
 20
-18626.0000
 30
0.0000
 11
1177.0000
 21
-19586.0000
 31
0.0000
  0
LINE
  5
254
  8
Dim_overall
 10
10551.0000
 20
-18626.0000
 30
0.0000
 11
10551.0000
 21
-19586.0000
 31
0.0000
  0
LINE
  5
255
  8
Dim_overall
 10
1177.0000
 20
-19526.0000
 30
0.0000
 11
10551.0000
 21
-19526.0000
 31
0.0000
  0
SOLID
  5
256
  8
Dim_overall
 10
1177.0000
 20
-19526.0000
 30
0.0000
 11
1087.0000
 21
-19554.0000
 31
0.0000
 12
1087.0000
 22
-19498.0000
 32
0.0000
 13
1087.0000
 23
-19498.0000
 33
0.0000
  0
SOLID
  5
257
  8
Dim_overall
 10
10551.0000
 20
-19526.0000
 30
0.0000
 11
10641.0000
 21
-19554.0000
 31
0.0000
 12
10641.0000
 22
-19498.0000
 32
0.0000
 13
10641.0000
 23
-19498.0000
 33
0.0000
  0
TEXT
  5
258
  8
Dim_overall
 10
5864.0000
 20
-19620.0000
 30
0.0000
 40
188.0000
  1
937.4
 50
0.0000
  7
STANDARD
 72
1
 73
2
 11
5864.0000
 21
-19620.0000
 31
0.0000
  0
LINE
  5
259
  8
Dim_overall
 10
1177.0000
 20
-18626.0000
 30
0.0000
 11
217.0000
 21
-18626.0000
 31
0.0000
  0
LINE
  5
25A
  8
Dim_overall
 10
1177.0000
 20
-9422.0000
 30
0.0000
 11
217.0000
 21
-9422.0000
 31
0.0000
  0
LINE
  5
25B
  8
Dim_overall
 10
277.0000
 20
-18626.0000
 30
0.0000
 11
277.0000
 21
-9422.0000
 31
0.0000
  0
SOLID
  5
25C
  8
Dim_overall
 10
277.0000
 20
-18626.0000
 30
0.0000
 11
249.0000
 21
-18716.0000
 31
0.0000
 12
305.0000
 22
-18716.0000
 32
0.0000
 13
305.0000
 23
-18716.0000
 33
0.0000
  0
SOLID
  5
25D
  8
Dim_overall
 10
277.0000
 20
-9422.0000
 30
0.0000
 11
249.0000
 21
-9332.0000
 31
0.0000
 12
305.0000
 22
-9332.0000
 32
0.0000
 13
305.0000
 23
-9332.0000
 33
0.0000
  0
TEXT
  5
25E
  8
Dim_overall
 10
183.0000
 20
-14024.0000
 30
0.0000
 40
188.0000
  1
920.4
 50
90.0000
  7
STANDARD
 72
1
 73
2
 11
183.0000
 21
-14024.0000
 31
0.0000
  0
TEXT
  5
25F
  8
Text
 10
6078.7222
 20
-13668.8556
 30
0.0000
 40
206.8000
  1
\U+05D7\U+05D3\U+05E8
 50
0.0000
  7
STANDARD
 72
1
 73
2
 11
6078.7222
 21
-13668.8556
 31
0.0000
  0
TEXT
  5
260
  8
PicNumber
 10
6078.7222
 20
-14044.8556
 30
0.0000
 40
244.4000
  1
P.1
 50
0.0000
  7
STANDARD
 72
1
 73
2
 11
6078.7222
 21
-14044.8556
 31
0.0000
  0
LINE
  5
261
  8
Frame
 10
12431.0000
 20
-9422.0000
 30
0.0000
 11
16191.0000
 21
-9422.0000
 31
0.0000
  0
LINE
  5
262
  8
Frame
 10
16191.0000
 20
-9422.0000
 30
0.0000
 11
16191.0000
 21
-12204.4000
 31
0.0000
  0
LINE
  5
263
  8
Frame
 10
16191.0000
 20
-12204.4000
 30
0.0000
 11
12431.0000
 21
-12204.4000
 31
0.0000
  0
LINE
  5
264
  8
Frame
 10
12431.0000
 20
-12204.4000
 30
0.0000
 11
12431.0000
 21
-9422.0000
 31
0.0000
  0
LINE
  5
265
  8
Frame
 10
12431.0000
 20
-9910.8000
 30
0.0000
 11
16191.0000
 21
-9910.8000
 31
0.0000
  0
TEXT
  5
266
  8
Text_Title
 10
16078.2000
 20
-9760.4000
 30
0.0000
 40
235.0000
  1
\U+05E1\U+05D5\U+05DC\U+05D9\U+05DF \U+2014 \U+05EA\U+05DB\U+05E0\U+05D9\U+05EA \U+05DE\U+05D3\U+05D9\U+05D3\U+05D4
 50
0.0000
  7
STANDARD
 72
2
 73
2
 11
16078.2000
 21
-9760.4000
 31
0.0000
  0
TEXT
  5
267
  8
Text_Title
 10
16078.2000
 20
-10136.4000
 30
0.0000
 40
188.0000
  1
\U+05E4\U+05E8\U+05D5\U+05D9\U+05E7\U+05D8: 2725_Ktchn_TRIO_Nir_DR1
 50
0.0000
  7
STANDARD
 72
2
 73
2
 11
16078.2000
 21
-10136.4000
 31
0.0000
  0
TEXT
  5
268
  8
Text_Title
 10
16078.2000
 20
-10512.4000
 30
0.0000
 40
188.0000
  1
\U+05DC\U+05E7\U+05D5\U+05D7: \U+2014
 50
0.0000
  7
STANDARD
 72
2
 73
2
 11
16078.2000
 21
-10512.4000
 31
0.0000
  0
TEXT
  5
269
  8
Text_Title
 10
16078.2000
 20
-10888.4000
 30
0.0000
 40
188.0000
  1
\U+05DB\U+05EA\U+05D5\U+05D1\U+05EA: \U+2014
 50
0.0000
  7
STANDARD
 72
2
 73
2
 11
16078.2000
 21
-10888.4000
 31
0.0000
  0
TEXT
  5
26A
  8
Text_Title
 10
16078.2000
 20
-11264.4000
 30
0.0000
 40
188.0000
  1
\U+05DE\U+05D5\U+05D3\U+05D3: \U+2014
 50
0.0000
  7
STANDARD
 72
2
 73
2
 11
16078.2000
 21
-11264.4000
 31
0.0000
  0
TEXT
  5
26B
  8
Text_Title
 10
16078.2000
 20
-11640.4000
 30
0.0000
 40
188.0000
  1
\U+05EA\U+05D0\U+05E8\U+05D9\U+05DA: 2026-08-18
 50
0.0000
  7
STANDARD
 72
2
 73
2
 11
16078.2000
 21
-11640.4000
 31
0.0000
  0
TEXT
  5
26C
  8
Text_Title
 10
16078.2000
 20
-12016.4000
 30
0.0000
 40
188.0000
  1
\U+05E7\U+05E0"\U+05DE: 1:50   \U+05D9\U+05D7\U+05D9\U+05D3\U+05D5\U+05EA: \U+05DE"\U+05DE
 50
0.0000
  7
STANDARD
 72
2
 73
2
 11
16078.2000
 21
-12016.4000
 31
0.0000
  0
LINE
  5
26D
  8
Frame
 10
12431.0000
 20
-12674.4000
 30
0.0000
 11
15439.0000
 21
-12674.4000
 31
0.0000
  0
LINE
  5
26E
  8
Frame
 10
15439.0000
 20
-12674.4000
 30
0.0000
 11
15439.0000
 21
-15682.4000
 31
0.0000
  0
LINE
  5
26F
  8
Frame
 10
15439.0000
 20
-15682.4000
 30
0.0000
 11
12431.0000
 21
-15682.4000
 31
0.0000
  0
LINE
  5
270
  8
Frame
 10
12431.0000
 20
-15682.4000
 30
0.0000
 11
12431.0000
 21
-12674.4000
 31
0.0000
  0
TEXT
  5
271
  8
Text_Legend
 10
15251.0000
 20
-13095.5200
 30
0.0000
 40
216.2000
  1
\U+05DE\U+05E7\U+05E8\U+05D0
 50
0.0000
  7
STANDARD
 72
2
 73
2
 11
15251.0000
 21
-13095.5200
 31
0.0000
  0
LINE
  5
272
  8
Electrical
 10
12807.0000
 20
-13608.3000
 30
0.0000
 11
12807.0000
 21
-13584.3000
 31
0.0000
  0
ARC
  5
273
  8
Electrical
 10
12807.0000
 20
-13530.3000
 30
0.0000
 40
54.0000
 50
0.0000
 51
360.0000
  0
LINE
  5
274
  8
Electrical
 10
12753.0000
 20
-13530.3000
 30
0.0000
 11
12861.0000
 21
-13530.3000
 31
0.0000
  0
LINE
  5
275
  8
Electrical
 10
12789.0000
 20
-13545.9000
 30
0.0000
 11
12789.0000
 21
-13514.7000
 31
0.0000
  0
LINE
  5
276
  8
Electrical
 10
12825.0000
 20
-13545.9000
 30
0.0000
 11
12825.0000
 21
-13514.7000
 31
0.0000
  0
TEXT
  5
277
  8
Text_Legend
 10
15251.0000
 20
-13576.8000
 30
0.0000
 40
188.0000
  1
\U+05D7\U+05E9\U+05DE\U+05DC
 50
0.0000
  7
STANDARD
 72
2
 73
2
 11
15251.0000
 21
-13576.8000
 31
0.0000
  0
LINE
  5
278
  8
Gas
 10
12807.0000
 20
-14209.9000
 30
0.0000
 11
12807.0000
 21
-14191.9000
 31
0.0000
  0
ARC
  5
279
  8
Gas
 10
12807.0000
 20
-14137.9000
 30
0.0000
 40
54.0000
 50
0.0000
 51
360.0000
  0
LINE
  5
27A
  8
Gas
 10
12786.6000
 20
-14149.9000
 30
0.0000
 11
12807.0000
 21
-14117.5000
 31
0.0000
  0
LINE
  5
27B
  8
Gas
 10
12807.0000
 20
-14117.5000
 30
0.0000
 11
12827.4000
 21
-14149.9000
 31
0.0000
  0
LINE
  5
27C
  8
Gas
 10
12807.0000
 20
-14158.3000
 30
0.0000
 11
12807.0000
 21
-14125.9000
 31
0.0000
  0
TEXT
  5
27D
  8
Text_Legend
 10
15251.0000
 20
-14178.4000
 30
0.0000
 40
188.0000
  1
\U+05D2\U+05D6
 50
0.0000
  7
STANDARD
 72
2
 73
2
 11
15251.0000
 21
-14178.4000
 31
0.0000
  0
LINE
  5
27E
  8
Plumbing
 10
12807.0000
 20
-14811.5000
 30
0.0000
 11
12807.0000
 21
-14797.1000
 31
0.0000
  0
ARC
  5
27F
  8
Plumbing
 10
12807.0000
 20
-14743.1000
 30
0.0000
 40
54.0000
 50
0.0000
 51
360.0000
  0
LINE
  5
280
  8
Plumbing
 10
12765.0000
 20
-14743.1000
 30
0.0000
 11
12849.0000
 21
-14743.1000
 31
0.0000
  0
LINE
  5
281
  8
Plumbing
 10
12807.0000
 20
-14785.1000
 30
0.0000
 11
12807.0000
 21
-14701.1000
 31
0.0000
  0
TEXT
  5
282
  8
Text_Legend
 10
15251.0000
 20
-14780.0000
 30
0.0000
 40
188.0000
  1
\U+05D0\U+05D9\U+05E0\U+05E1\U+05D8\U+05DC\U+05E6\U+05D9\U+05D4 / \U+05DE\U+05D9\U+05DD
 50
0.0000
  7
STANDARD
 72
2
 73
2
 11
15251.0000
 21
-14780.0000
 31
0.0000
  0
ARC
  5
283
  8
Lighting
 10
12807.0000
 20
-15359.1000
 30
0.0000
 40
54.0000
 50
0.0000
 51
360.0000
  0
LINE
  5
284
  8
Lighting
 10
12768.6000
 20
-15397.5000
 30
0.0000
 11
12845.4000
 21
-15320.7000
 31
0.0000
  0
LINE
  5
285
  8
Lighting
 10
12768.6000
 20
-15320.7000
 30
0.0000
 11
12845.4000
 21
-15397.5000
 31
0.0000
  0
TEXT
  5
286
  8
Text_Legend
 10
15251.0000
 20
-15381.6000
 30
0.0000
 40
188.0000
  1
\U+05EA\U+05D0\U+05D5\U+05E8\U+05D4
 50
0.0000
  7
STANDARD
 72
2
 73
2
 11
15251.0000
 21
-15381.6000
 31
0.0000
  0
LINE
  5
287
  8
Frame
 10
14311.0000
 20
-16246.4000
 30
0.0000
 11
14311.0000
 21
-15306.4000
 31
0.0000
  0
SOLID
  5
288
  8
Frame
 10
14311.0000
 20
-15306.4000
 30
0.0000
 11
14217.0000
 21
-15494.4000
 31
0.0000
 12
14405.0000
 22
-15494.4000
 32
0.0000
 13
14405.0000
 23
-15494.4000
 33
0.0000
  0
TEXT
  5
289
  8
Frame
 10
14311.0000
 20
-15250.0000
 30
0.0000
 40
206.8000
  1
\U+05E6
 50
0.0000
  7
STANDARD
 72
1
 73
3
 11
14311.0000
 21
-15250.0000
 31
0.0000
  0
LINE
  5
28A
  8
Frame
 10
13747.0000
 20
-16528.4000
 30
0.0000
 11
14547.0000
 21
-16528.4000
 31
0.0000
  0
LINE
  5
28B
  8
Frame
 10
13747.0000
 20
-16528.4000
 30
0.0000
 11
13747.0000
 21
-16622.4000
 31
0.0000
  0
LINE
  5
28C
  8
Frame
 10
13947.0000
 20
-16528.4000
 30
0.0000
 11
13947.0000
 21
-16622.4000
 31
0.0000
  0
LINE
  5
28D
  8
Frame
 10
14147.0000
 20
-16528.4000
 30
0.0000
 11
14147.0000
 21
-16622.4000
 31
0.0000
  0
LINE
  5
28E
  8
Frame
 10
14347.0000
 20
-16528.4000
 30
0.0000
 11
14347.0000
 21
-16622.4000
 31
0.0000
  0
LINE
  5
28F
  8
Frame
 10
14547.0000
 20
-16528.4000
 30
0.0000
 11
14547.0000
 21
-16622.4000
 31
0.0000
  0
TEXT
  5
290
  8
Frame
 10
13747.0000
 20
-16829.2000
 30
0.0000
 40
131.6000
  1
0
 50
0.0000
  7
STANDARD
 72
1
 11
13747.0000
 21
-16829.2000
 31
0.0000
  0
TEXT
  5
291
  8
Frame
 10
14547.0000
 20
-16829.2000
 30
0.0000
 40
131.6000
  1
0.8 \U+05DE\U+05F3
 50
0.0000
  7
STANDARD
 72
2
 11
14547.0000
 21
-16829.2000
 31
0.0000
  0
ENDSEC
  0
EOF
