  0
SECTION
  2
HEADER
  9
$ACADVER
  1
AC1009
  9
$INSBASE
 10
0.0000
 20
0.0000
 30
0.0000
  9
$EXTMIN
 10
25.0000
 20
-9110.0000
 30
0.0000
  9
$EXTMAX
 10
18085.0000
 20
4150.0000
 30
0.0000
  9
$DWGCODEPAGE
  3
ansi_1255
  9
$INSUNITS
 70
4
  9
$LTSCALE
 40
10.0000
  9
$LIMMIN
 10
0.0000
 20
0.0000
  9
$LIMMAX
 10
2000.0000
 20
200.0000
  0
ENDSEC
  0
SECTION
  2
TABLES
  0
TABLE
  2
VPORT
 70
1
  0
VPORT
  2
*ACTIVE
 70
0
 10
0.0000
 20
0.0000
 11
1.0000
 21
1.0000
 12
9055.0000
 22
-2480.0000
 13
0.0000
 23
0.0000
 14
10.0000
 24
10.0000
 15
10.0000
 25
10.0000
 16
0.0000
 26
0.0000
 36
1.0000
 17
0.0000
 27
0.0000
 37
0.0000
 40
15249.0000
 41
1.6000
 42
50.0000
 43
0.0000
 44
0.0000
 50
0.0000
 51
0.0000
 71
0
 72
100
 73
1
 74
1
 75
0
 76
0
 77
0
 78
0
  0
ENDTAB
  0
TABLE
  2
LTYPE
 70
2
  0
LTYPE
  2
CONTINUOUS
 70
0
  3
Solid line
 72
65
 73
0
 40
0.0000
  0
LTYPE
  2
HIDDEN
 70
0
  3
Hidden . . . . . .
 72
65
 73
2
 40
9.5250
 49
6.3500
 49
-3.1750
  0
ENDTAB
  0
TABLE
  2
LAYER
 70
27
  0
LAYER
  2
0
 70
0
 62
7
  6
CONTINUOUS
  0
LAYER
  2
Walls
 70
0
 62
253
  6
CONTINUOUS
  0
LAYER
  2
Ext_Wall
 70
0
 62
5
  6
CONTINUOUS
  0
LAYER
  2
Walls_Fill
 70
0
 62
253
  6
CONTINUOUS
  0
LAYER
  2
Const_Doors
 70
0
 62
5
  6
CONTINUOUS
  0
LAYER
  2
Const_Windows
 70
0
 62
152
  6
CONTINUOUS
  0
LAYER
  2
Electrical
 70
0
 62
6
  6
CONTINUOUS
  0
LAYER
  2
Dim_Power
 70
0
 62
6
  6
CONTINUOUS
  0
LAYER
  2
Plumbing
 70
0
 62
150
  6
CONTINUOUS
  0
LAYER
  2
Dim_Plumbing
 70
0
 62
150
  6
CONTINUOUS
  0
LAYER
  2
Gas
 70
0
 62
2
  6
CONTINUOUS
  0
LAYER
  2
Dim_Gas
 70
0
 62
2
  6
CONTINUOUS
  0
LAYER
  2
HVAC
 70
0
 62
4
  6
CONTINUOUS
  0
LAYER
  2
Dim_HVAC
 70
0
 62
4
  6
CONTINUOUS
  0
LAYER
  2
Lighting
 70
0
 62
30
  6
CONTINUOUS
  0
LAYER
  2
Dim_Lighting
 70
0
 62
30
  6
CONTINUOUS
  0
LAYER
  2
Structural
 70
0
 62
8
  6
CONTINUOUS
  0
LAYER
  2
Dim_Struct
 70
0
 62
8
  6
CONTINUOUS
  0
LAYER
  2
Misc
 70
0
 62
7
  6
CONTINUOUS
  0
LAYER
  2
Dim_Misc
 70
0
 62
7
  6
CONTINUOUS
  0
LAYER
  2
DIM
 70
0
 62
9
  6
CONTINUOUS
  0
LAYER
  2
Dim_overall
 70
0
 62
9
  6
CONTINUOUS
  0
LAYER
  2
Text
 70
0
 62
74
  6
CONTINUOUS
  0
LAYER
  2
Text_Legend
 70
0
 62
74
  6
CONTINUOUS
  0
LAYER
  2
Text_Title
 70
0
 62
74
  6
CONTINUOUS
  0
LAYER
  2
PicNumber
 70
0
 62
74
  6
CONTINUOUS
  0
LAYER
  2
Frame
 70
0
 62
7
  6
CONTINUOUS
  0
ENDTAB
  0
TABLE
  2
STYLE
 70
1
  0
STYLE
  2
STANDARD
 70
0
 40
0.0000
 41
1.0000
 50
0.0000
 71
0
 42
2.5000
  3
ARIAL.TTF
  4

  0
ENDTAB
  0
ENDSEC
  0
SECTION
  2
BLOCKS
  0
BLOCK
  8
0
  2
GENERIC
 70
0
 10
0.0000
 20
0.0000
 30
0.0000
  0
LINE
  5
1B8
  8
0
 10
0.0000
 20
0.0000
 30
0.0000
 11
0.0000
 21
30.0000
 31
0.0000
  0
LINE
  5
1B9
  8
0
 10
0.0000
 20
30.0000
 30
0.0000
 11
70.0000
 21
100.0000
 31
0.0000
  0
LINE
  5
1BA
  8
0
 10
70.0000
 20
100.0000
 30
0.0000
 11
0.0000
 21
170.0000
 31
0.0000
  0
LINE
  5
1BB
  8
0
 10
0.0000
 20
170.0000
 30
0.0000
 11
-70.0000
 21
100.0000
 31
0.0000
  0
LINE
  5
1BC
  8
0
 10
-70.0000
 20
100.0000
 30
0.0000
 11
0.0000
 21
30.0000
 31
0.0000
  0
ENDBLK
  5
1BD
  8
0
  0
BLOCK
  8
0
  2
SOCKET
 70
0
 10
0.0000
 20
0.0000
 30
0.0000
  0
LINE
  5
1BE
  8
0
 10
0.0000
 20
0.0000
 30
0.0000
 11
0.0000
 21
40.0000
 31
0.0000
  0
ARC
  5
1BF
  8
0
 10
0.0000
 20
130.0000
 30
0.0000
 40
90.0000
 50
0.0000
 51
360.0000
  0
LINE
  5
1C0
  8
0
 10
-90.0000
 20
130.0000
 30
0.0000
 11
90.0000
 21
130.0000
 31
0.0000
  0
LINE
  5
1C1
  8
0
 10
-30.0000
 20
104.0000
 30
0.0000
 11
-30.0000
 21
156.0000
 31
0.0000
  0
LINE
  5
1C2
  8
0
 10
30.0000
 20
104.0000
 30
0.0000
 11
30.0000
 21
156.0000
 31
0.0000
  0
ENDBLK
  5
1C3
  8
0
  0
BLOCK
  8
0
  2
WATER
 70
0
 10
0.0000
 20
0.0000
 30
0.0000
  0
LINE
  5
1C4
  8
0
 10
0.0000
 20
0.0000
 30
0.0000
 11
0.0000
 21
24.0000
 31
0.0000
  0
ARC
  5
1C5
  8
0
 10
0.0000
 20
114.0000
 30
0.0000
 40
90.0000
 50
0.0000
 51
360.0000
  0
LINE
  5
1C6
  8
0
 10
-70.0000
 20
114.0000
 30
0.0000
 11
70.0000
 21
114.0000
 31
0.0000
  0
LINE
  5
1C7
  8
0
 10
0.0000
 20
44.0000
 30
0.0000
 11
0.0000
 21
184.0000
 31
0.0000
  0
ENDBLK
  5
1C8
  8
0
  0
ENDSEC
  0
SECTION
  2
ENTITIES
  0
SOLID
  5
100
  8
Walls_Fill
 10
4090.0000
 20
-2430.0000
 30
0.0000
 11
9220.0000
 21
-2430.0000
 31
0.0000
 12
4090.0000
 22
-2530.0000
 32
0.0000
 13
9220.0000
 23
-2530.0000
 33
0.0000
  0
LINE
  5
101
  8
Ext_Wall
 10
4090.0000
 20
-2430.0000
 30
0.0000
 11
9220.0000
 21
-2430.0000
 31
0.0000
  0
LINE
  5
102
  8
Walls
 10
4090.0000
 20
-2530.0000
 30
0.0000
 11
9220.0000
 21
-2530.0000
 31
0.0000
  0
LINE
  5
103
  8
Walls
 10
4090.0000
 20
-2430.0000
 30
0.0000
 11
4090.0000
 21
-2530.0000
 31
0.0000
  0
LINE
  5
104
  8
Walls
 10
9220.0000
 20
-2430.0000
 30
0.0000
 11
9220.0000
 21
-2530.0000
 31
0.0000
  0
SOLID
  5
105
  8
Walls_Fill
 10
9220.0000
 20
-2430.0000
 30
0.0000
 11
9220.0000
 21
-4680.0000
 31
0.0000
 12
9120.0000
 22
-2430.0000
 32
0.0000
 13
9120.0000
 23
-4680.0000
 33
0.0000
  0
LINE
  5
106
  8
Ext_Wall
 10
9220.0000
 20
-2430.0000
 30
0.0000
 11
9220.0000
 21
-4680.0000
 31
0.0000
  0
LINE
  5
107
  8
Walls
 10
9120.0000
 20
-2430.0000
 30
0.0000
 11
9120.0000
 21
-4680.0000
 31
0.0000
  0
LINE
  5
108
  8
Walls
 10
9220.0000
 20
-2430.0000
 30
0.0000
 11
9120.0000
 21
-2430.0000
 31
0.0000
  0
LINE
  5
109
  8
Walls
 10
9220.0000
 20
-4680.0000
 30
0.0000
 11
9120.0000
 21
-4680.0000
 31
0.0000
  0
SOLID
  5
10A
  8
Walls_Fill
 10
9220.0000
 20
-4680.0000
 30
0.0000
 11
4090.0000
 21
-4680.0000
 31
0.0000
 12
9220.0000
 22
-4580.0000
 32
0.0000
 13
4090.0000
 23
-4580.0000
 33
0.0000
  0
LINE
  5
10B
  8
Ext_Wall
 10
9220.0000
 20
-4680.0000
 30
0.0000
 11
4090.0000
 21
-4680.0000
 31
0.0000
  0
LINE
  5
10C
  8
Walls
 10
9220.0000
 20
-4580.0000
 30
0.0000
 11
4090.0000
 21
-4580.0000
 31
0.0000
  0
LINE
  5
10D
  8
Walls
 10
9220.0000
 20
-4680.0000
 30
0.0000
 11
9220.0000
 21
-4580.0000
 31
0.0000
  0
LINE
  5
10E
  8
Walls
 10
4090.0000
 20
-4680.0000
 30
0.0000
 11
4090.0000
 21
-4580.0000
 31
0.0000
  0
SOLID
  5
10F
  8
Walls_Fill
 10
4090.0000
 20
-4680.0000
 30
0.0000
 11
4090.0000
 21
-2430.0000
 31
0.0000
 12
4190.0000
 22
-4680.0000
 32
0.0000
 13
4190.0000
 23
-2430.0000
 33
0.0000
  0
LINE
  5
110
  8
Ext_Wall
 10
4090.0000
 20
-4680.0000
 30
0.0000
 11
4090.0000
 21
-2430.0000
 31
0.0000
  0
LINE
  5
111
  8
Walls
 10
4190.0000
 20
-4680.0000
 30
0.0000
 11
4190.0000
 21
-2430.0000
 31
0.0000
  0
LINE
  5
112
  8
Walls
 10
4090.0000
 20
-4680.0000
 30
0.0000
 11
4190.0000
 21
-4680.0000
 31
0.0000
  0
LINE
  5
113
  8
Walls
 10
4090.0000
 20
-2430.0000
 30
0.0000
 11
4190.0000
 21
-2430.0000
 31
0.0000
  0
LINE
  5
114
  8
DIM
 10
4140.0000
 20
-2480.0000
 30
0.0000
 11
4140.0000
 21
-2110.0000
 31
0.0000
  0
LINE
  5
115
  8
DIM
 10
9170.0000
 20
-2480.0000
 30
0.0000
 11
9170.0000
 21
-2110.0000
 31
0.0000
  0
LINE
  5
116
  8
DIM
 10
4140.0000
 20
-2170.0000
 30
0.0000
 11
9170.0000
 21
-2170.0000
 31
0.0000
  0
SOLID
  5
117
  8
DIM
 10
4140.0000
 20
-2170.0000
 30
0.0000
 11
4050.0000
 21
-2142.0000
 31
0.0000
 12
4050.0000
 22
-2198.0000
 32
0.0000
 13
4050.0000
 23
-2198.0000
 33
0.0000
  0
SOLID
  5
118
  8
DIM
 10
9170.0000
 20
-2170.0000
 30
0.0000
 11
9260.0000
 21
-2142.0000
 31
0.0000
 12
9260.0000
 22
-2198.0000
 32
0.0000
 13
9260.0000
 23
-2198.0000
 33
0.0000
  0
TEXT
  5
119
  8
DIM
 10
6655.0000
 20
-2070.0000
 30
0.0000
 40
200.0000
  1
503
 50
0.0000
  7
STANDARD
 72
1
 73
2
 11
6655.0000
 21
-2070.0000
 31
0.0000
  0
LINE
  5
11A
  8
DIM
 10
9170.0000
 20
-2480.0000
 30
0.0000
 11
9540.0000
 21
-2480.0000
 31
0.0000
  0
LINE
  5
11B
  8
DIM
 10
9170.0000
 20
-4630.0000
 30
0.0000
 11
9540.0000
 21
-4630.0000
 31
0.0000
  0
LINE
  5
11C
  8
DIM
 10
9480.0000
 20
-2480.0000
 30
0.0000
 11
9480.0000
 21
-4630.0000
 31
0.0000
  0
SOLID
  5
11D
  8
DIM
 10
9480.0000
 20
-2480.0000
 30
0.0000
 11
9508.0000
 21
-2390.0000
 31
0.0000
 12
9452.0000
 22
-2390.0000
 32
0.0000
 13
9452.0000
 23
-2390.0000
 33
0.0000
  0
SOLID
  5
11E
  8
DIM
 10
9480.0000
 20
-4630.0000
 30
0.0000
 11
9508.0000
 21
-4720.0000
 31
0.0000
 12
9452.0000
 22
-4720.0000
 32
0.0000
 13
9452.0000
 23
-4720.0000
 33
0.0000
  0
TEXT
  5
11F
  8
DIM
 10
9580.0000
 20
-3555.0000
 30
0.0000
 40
200.0000
  1
215
 50
90.0000
  7
STANDARD
 72
1
 73
2
 11
9580.0000
 21
-3555.0000
 31
0.0000
  0
LINE
  5
120
  8
DIM
 10
9170.0000
 20
-4630.0000
 30
0.0000
 11
9170.0000
 21
-5000.0000
 31
0.0000
  0
LINE
  5
121
  8
DIM
 10
4140.0000
 20
-4630.0000
 30
0.0000
 11
4140.0000
 21
-5000.0000
 31
0.0000
  0
LINE
  5
122
  8
DIM
 10
9170.0000
 20
-4940.0000
 30
0.0000
 11
4140.0000
 21
-4940.0000
 31
0.0000
  0
SOLID
  5
123
  8
DIM
 10
9170.0000
 20
-4940.0000
 30
0.0000
 11
9260.0000
 21
-4968.0000
 31
0.0000
 12
9260.0000
 22
-4912.0000
 32
0.0000
 13
9260.0000
 23
-4912.0000
 33
0.0000
  0
SOLID
  5
124
  8
DIM
 10
4140.0000
 20
-4940.0000
 30
0.0000
 11
4050.0000
 21
-4968.0000
 31
0.0000
 12
4050.0000
 22
-4912.0000
 32
0.0000
 13
4050.0000
 23
-4912.0000
 33
0.0000
  0
TEXT
  5
125
  8
DIM
 10
6655.0000
 20
-5040.0000
 30
0.0000
 40
200.0000
  1
503
 50
360.0000
  7
STANDARD
 72
1
 73
2
 11
6655.0000
 21
-5040.0000
 31
0.0000
  0
LINE
  5
126
  8
DIM
 10
4140.0000
 20
-4630.0000
 30
0.0000
 11
3770.0000
 21
-4630.0000
 31
0.0000
  0
LINE
  5
127
  8
DIM
 10
4140.0000
 20
-2480.0000
 30
0.0000
 11
3770.0000
 21
-2480.0000
 31
0.0000
  0
LINE
  5
128
  8
DIM
 10
3830.0000
 20
-4630.0000
 30
0.0000
 11
3830.0000
 21
-2480.0000
 31
0.0000
  0
SOLID
  5
129
  8
DIM
 10
3830.0000
 20
-4630.0000
 30
0.0000
 11
3802.0000
 21
-4720.0000
 31
0.0000
 12
3858.0000
 22
-4720.0000
 32
0.0000
 13
3858.0000
 23
-4720.0000
 33
0.0000
  0
SOLID
  5
12A
  8
DIM
 10
3830.0000
 20
-2480.0000
 30
0.0000
 11
3802.0000
 21
-2390.0000
 31
0.0000
 12
3858.0000
 22
-2390.0000
 32
0.0000
 13
3858.0000
 23
-2390.0000
 33
0.0000
  0
TEXT
  5
12B
  8
DIM
 10
3730.0000
 20
-3555.0000
 30
0.0000
 40
200.0000
  1
215
 50
90.0000
  7
STANDARD
 72
1
 73
2
 11
3730.0000
 21
-3555.0000
 31
0.0000
  0
INSERT
  5
12C
  8
Misc
  2
GENERIC
 10
6655.0000
 20
-2480.0000
 30
0.0000
 41
1.0000
 42
1.0000
 43
1.0000
 50
0.0000
  0
TEXT
  5
12D
  8
Text
 10
6655.0000
 20
-2250.0000
 30
0.0000
 40
164.0000
  1
Cabinet
 50
0.0000
  7
STANDARD
 72
1
 73
2
 11
6655.0000
 21
-2250.0000
 31
0.0000
  0
TEXT
  5
12E
  8
Misc
 10
6725.0000
 20
-2420.0000
 30
0.0000
 40
164.0000
  1
H 160
 50
0.0000
  7
STANDARD
  0
LINE
  5
12F
  8
Dim_Misc
 10
4140.0000
 20
-2480.0000
 30
0.0000
 11
4140.0000
 21
-2690.0000
 31
0.0000
  0
LINE
  5
130
  8
Dim_Misc
 10
6655.0000
 20
-2480.0000
 30
0.0000
 11
6655.0000
 21
-2690.0000
 31
0.0000
  0
LINE
  5
131
  8
Dim_Misc
 10
4140.0000
 20
-2630.0000
 30
0.0000
 11
6655.0000
 21
-2630.0000
 31
0.0000
  0
SOLID
  5
132
  8
Dim_Misc
 10
4140.0000
 20
-2630.0000
 30
0.0000
 11
4050.0000
 21
-2658.0000
 31
0.0000
 12
4050.0000
 22
-2602.0000
 32
0.0000
 13
4050.0000
 23
-2602.0000
 33
0.0000
  0
SOLID
  5
133
  8
Dim_Misc
 10
6655.0000
 20
-2630.0000
 30
0.0000
 11
6745.0000
 21
-2658.0000
 31
0.0000
 12
6745.0000
 22
-2602.0000
 32
0.0000
 13
6745.0000
 23
-2602.0000
 33
0.0000
  0
TEXT
  5
134
  8
Dim_Misc
 10
5397.5000
 20
-2715.0000
 30
0.0000
 40
170.0000
  1
251.5
 50
0.0000
  7
STANDARD
 72
1
 73
2
 11
5397.5000
 21
-2715.0000
 31
0.0000
  0
INSERT
  5
135
  8
Misc
  2
GENERIC
 10
6655.0000
 20
-2480.0000
 30
0.0000
 41
1.0000
 42
1.0000
 43
1.0000
 50
0.0000
  0
TEXT
  5
136
  8
Text
 10
6655.0000
 20
-2250.0000
 30
0.0000
 40
164.0000
  1
Cabinet
 50
0.0000
  7
STANDARD
 72
1
 73
2
 11
6655.0000
 21
-2250.0000
 31
0.0000
  0
TEXT
  5
137
  8
Misc
 10
6725.0000
 20
-2420.0000
 30
0.0000
 40
164.0000
  1
H 0
 50
0.0000
  7
STANDARD
  0
LINE
  5
138
  8
Dim_Misc
 10
4140.0000
 20
-2480.0000
 30
0.0000
 11
4140.0000
 21
-2690.0000
 31
0.0000
  0
LINE
  5
139
  8
Dim_Misc
 10
6655.0000
 20
-2480.0000
 30
0.0000
 11
6655.0000
 21
-2690.0000
 31
0.0000
  0
LINE
  5
13A
  8
Dim_Misc
 10
4140.0000
 20
-2630.0000
 30
0.0000
 11
6655.0000
 21
-2630.0000
 31
0.0000
  0
SOLID
  5
13B
  8
Dim_Misc
 10
4140.0000
 20
-2630.0000
 30
0.0000
 11
4050.0000
 21
-2658.0000
 31
0.0000
 12
4050.0000
 22
-2602.0000
 32
0.0000
 13
4050.0000
 23
-2602.0000
 33
0.0000
  0
SOLID
  5
13C
  8
Dim_Misc
 10
6655.0000
 20
-2630.0000
 30
0.0000
 11
6745.0000
 21
-2658.0000
 31
0.0000
 12
6745.0000
 22
-2602.0000
 32
0.0000
 13
6745.0000
 23
-2602.0000
 33
0.0000
  0
TEXT
  5
13D
  8
Dim_Misc
 10
5397.5000
 20
-2715.0000
 30
0.0000
 40
170.0000
  1
251.5
 50
0.0000
  7
STANDARD
 72
1
 73
2
 11
5397.5000
 21
-2715.0000
 31
0.0000
  0
INSERT
  5
13E
  8
Electrical
  2
SOCKET
 10
7970.0000
 20
-2480.0000
 30
0.0000
 41
1.0000
 42
1.0000
 43
1.0000
 50
0.0000
  0
TEXT
  5
13F
  8
Text
 10
7970.0000
 20
-2250.0000
 30
0.0000
 40
164.0000
  1
\U+05E9\U+05E7\U+05E2 \U+05DB\U+05E4\U+05D5\U+05DC
 50
0.0000
  7
STANDARD
 72
1
 73
2
 11
7970.0000
 21
-2250.0000
 31
0.0000
  0
TEXT
  5
140
  8
Electrical
 10
8040.0000
 20
-2420.0000
 30
0.0000
 40
164.0000
  1
H 121
 50
0.0000
  7
STANDARD
  0
LINE
  5
141
  8
Dim_Power
 10
4140.0000
 20
-2480.0000
 30
0.0000
 11
4140.0000
 21
-2690.0000
 31
0.0000
  0
LINE
  5
142
  8
Dim_Power
 10
7970.0000
 20
-2480.0000
 30
0.0000
 11
7970.0000
 21
-2690.0000
 31
0.0000
  0
LINE
  5
143
  8
Dim_Power
 10
4140.0000
 20
-2630.0000
 30
0.0000
 11
7970.0000
 21
-2630.0000
 31
0.0000
  0
SOLID
  5
144
  8
Dim_Power
 10
4140.0000
 20
-2630.0000
 30
0.0000
 11
4050.0000
 21
-2658.0000
 31
0.0000
 12
4050.0000
 22
-2602.0000
 32
0.0000
 13
4050.0000
 23
-2602.0000
 33
0.0000
  0
SOLID
  5
145
  8
Dim_Power
 10
7970.0000
 20
-2630.0000
 30
0.0000
 11
8060.0000
 21
-2658.0000
 31
0.0000
 12
8060.0000
 22
-2602.0000
 32
0.0000
 13
8060.0000
 23
-2602.0000
 33
0.0000
  0
TEXT
  5
146
  8
Dim_Power
 10
6055.0000
 20
-2715.0000
 30
0.0000
 40
170.0000
  1
383
 50
0.0000
  7
STANDARD
 72
1
 73
2
 11
6055.0000
 21
-2715.0000
 31
0.0000
  0
INSERT
  5
147
  8
Electrical
  2
SOCKET
 10
7670.0000
 20
-2480.0000
 30
0.0000
 41
1.0000
 42
1.0000
 43
1.0000
 50
0.0000
  0
TEXT
  5
148
  8
Text
 10
7670.0000
 20
-2250.0000
 30
0.0000
 40
164.0000
  1
\U+05E9\U+05E7\U+05E2 \U+05DB\U+05E4\U+05D5\U+05DC
 50
0.0000
  7
STANDARD
 72
1
 73
2
 11
7670.0000
 21
-2250.0000
 31
0.0000
  0
TEXT
  5
149
  8
Electrical
 10
7740.0000
 20
-2420.0000
 30
0.0000
 40
164.0000
  1
H 121
 50
0.0000
  7
STANDARD
  0
LINE
  5
14A
  8
Dim_Power
 10
4140.0000
 20
-2480.0000
 30
0.0000
 11
4140.0000
 21
-2690.0000
 31
0.0000
  0
LINE
  5
14B
  8
Dim_Power
 10
7670.0000
 20
-2480.0000
 30
0.0000
 11
7670.0000
 21
-2690.0000
 31
0.0000
  0
LINE
  5
14C
  8
Dim_Power
 10
4140.0000
 20
-2630.0000
 30
0.0000
 11
7670.0000
 21
-2630.0000
 31
0.0000
  0
SOLID
  5
14D
  8
Dim_Power
 10
4140.0000
 20
-2630.0000
 30
0.0000
 11
4050.0000
 21
-2658.0000
 31
0.0000
 12
4050.0000
 22
-2602.0000
 32
0.0000
 13
4050.0000
 23
-2602.0000
 33
0.0000
  0
SOLID
  5
14E
  8
Dim_Power
 10
7670.0000
 20
-2630.0000
 30
0.0000
 11
7760.0000
 21
-2658.0000
 31
0.0000
 12
7760.0000
 22
-2602.0000
 32
0.0000
 13
7760.0000
 23
-2602.0000
 33
0.0000
  0
TEXT
  5
14F
  8
Dim_Power
 10
5905.0000
 20
-2715.0000
 30
0.0000
 40
170.0000
  1
353
 50
0.0000
  7
STANDARD
 72
1
 73
2
 11
5905.0000
 21
-2715.0000
 31
0.0000
  0
INSERT
  5
150
  8
Electrical
  2
SOCKET
 10
7370.0000
 20
-2480.0000
 30
0.0000
 41
1.0000
 42
1.0000
 43
1.0000
 50
0.0000
  0
TEXT
  5
151
  8
Text
 10
7370.0000
 20
-2250.0000
 30
0.0000
 40
164.0000
  1
\U+05E9\U+05E7\U+05E2 \U+05DB\U+05E4\U+05D5\U+05DC
 50
0.0000
  7
STANDARD
 72
1
 73
2
 11
7370.0000
 21
-2250.0000
 31
0.0000
  0
TEXT
  5
152
  8
Electrical
 10
7440.0000
 20
-2420.0000
 30
0.0000
 40
164.0000
  1
H 121
 50
0.0000
  7
STANDARD
  0
LINE
  5
153
  8
Dim_Power
 10
4140.0000
 20
-2480.0000
 30
0.0000
 11
4140.0000
 21
-2690.0000
 31
0.0000
  0
LINE
  5
154
  8
Dim_Power
 10
7370.0000
 20
-2480.0000
 30
0.0000
 11
7370.0000
 21
-2690.0000
 31
0.0000
  0
LINE
  5
155
  8
Dim_Power
 10
4140.0000
 20
-2630.0000
 30
0.0000
 11
7370.0000
 21
-2630.0000
 31
0.0000
  0
SOLID
  5
156
  8
Dim_Power
 10
4140.0000
 20
-2630.0000
 30
0.0000
 11
4050.0000
 21
-2658.0000
 31
0.0000
 12
4050.0000
 22
-2602.0000
 32
0.0000
 13
4050.0000
 23
-2602.0000
 33
0.0000
  0
SOLID
  5
157
  8
Dim_Power
 10
7370.0000
 20
-2630.0000
 30
0.0000
 11
7460.0000
 21
-2658.0000
 31
0.0000
 12
7460.0000
 22
-2602.0000
 32
0.0000
 13
7460.0000
 23
-2602.0000
 33
0.0000
  0
TEXT
  5
158
  8
Dim_Power
 10
5755.0000
 20
-2715.0000
 30
0.0000
 40
170.0000
  1
323
 50
0.0000
  7
STANDARD
 72
1
 73
2
 11
5755.0000
 21
-2715.0000
 31
0.0000
  0
INSERT
  5
159
  8
Electrical
  2
SOCKET
 10
7070.0000
 20
-2480.0000
 30
0.0000
 41
1.0000
 42
1.0000
 43
1.0000
 50
0.0000
  0
TEXT
  5
15A
  8
Text
 10
7070.0000
 20
-2250.0000
 30
0.0000
 40
164.0000
  1
\U+05E9\U+05E7\U+05E2 \U+05DB\U+05E4\U+05D5\U+05DC
 50
0.0000
  7
STANDARD
 72
1
 73
2
 11
7070.0000
 21
-2250.0000
 31
0.0000
  0
TEXT
  5
15B
  8
Electrical
 10
7140.0000
 20
-2420.0000
 30
0.0000
 40
164.0000
  1
H 121
 50
0.0000
  7
STANDARD
  0
LINE
  5
15C
  8
Dim_Power
 10
4140.0000
 20
-2480.0000
 30
0.0000
 11
4140.0000
 21
-2690.0000
 31
0.0000
  0
LINE
  5
15D
  8
Dim_Power
 10
7070.0000
 20
-2480.0000
 30
0.0000
 11
7070.0000
 21
-2690.0000
 31
0.0000
  0
LINE
  5
15E
  8
Dim_Power
 10
4140.0000
 20
-2630.0000
 30
0.0000
 11
7070.0000
 21
-2630.0000
 31
0.0000
  0
SOLID
  5
15F
  8
Dim_Power
 10
4140.0000
 20
-2630.0000
 30
0.0000
 11
4050.0000
 21
-2658.0000
 31
0.0000
 12
4050.0000
 22
-2602.0000
 32
0.0000
 13
4050.0000
 23
-2602.0000
 33
0.0000
  0
SOLID
  5
160
  8
Dim_Power
 10
7070.0000
 20
-2630.0000
 30
0.0000
 11
7160.0000
 21
-2658.0000
 31
0.0000
 12
7160.0000
 22
-2602.0000
 32
0.0000
 13
7160.0000
 23
-2602.0000
 33
0.0000
  0
TEXT
  5
161
  8
Dim_Power
 10
5605.0000
 20
-2715.0000
 30
0.0000
 40
170.0000
  1
293
 50
0.0000
  7
STANDARD
 72
1
 73
2
 11
5605.0000
 21
-2715.0000
 31
0.0000
  0
INSERT
  5
162
  8
Misc
  2
GENERIC
 10
4140.0000
 20
-3080.0000
 30
0.0000
 41
1.0000
 42
1.0000
 43
1.0000
 50
90.0000
  0
TEXT
  5
163
  8
Text
 10
3910.0000
 20
-3080.0000
 30
0.0000
 40
164.0000
  1
Cabinet
 50
0.0000
  7
STANDARD
 72
1
 73
2
 11
3910.0000
 21
-3080.0000
 31
0.0000
  0
TEXT
  5
164
  8
Misc
 10
4150.0000
 20
-3080.0000
 30
0.0000
 40
164.0000
  1
H 0
 50
0.0000
  7
STANDARD
  0
LINE
  5
165
  8
Dim_Misc
 10
4140.0000
 20
-4630.0000
 30
0.0000
 11
4350.0000
 21
-4630.0000
 31
0.0000
  0
LINE
  5
166
  8
Dim_Misc
 10
4140.0000
 20
-3080.0000
 30
0.0000
 11
4350.0000
 21
-3080.0000
 31
0.0000
  0
LINE
  5
167
  8
Dim_Misc
 10
4290.0000
 20
-4630.0000
 30
0.0000
 11
4290.0000
 21
-3080.0000
 31
0.0000
  0
SOLID
  5
168
  8
Dim_Misc
 10
4290.0000
 20
-4630.0000
 30
0.0000
 11
4318.0000
 21
-4720.0000
 31
0.0000
 12
4262.0000
 22
-4720.0000
 32
0.0000
 13
4262.0000
 23
-4720.0000
 33
0.0000
  0
SOLID
  5
169
  8
Dim_Misc
 10
4290.0000
 20
-3080.0000
 30
0.0000
 11
4318.0000
 21
-2990.0000
 31
0.0000
 12
4262.0000
 22
-2990.0000
 32
0.0000
 13
4262.0000
 23
-2990.0000
 33
0.0000
  0
TEXT
  5
16A
  8
Dim_Misc
 10
4375.0000
 20
-3855.0000
 30
0.0000
 40
170.0000
  1
155
 50
90.0000
  7
STANDARD
 72
1
 73
2
 11
4375.0000
 21
-3855.0000
 31
0.0000
  0
INSERT
  5
16B
  8
Plumbing
  2
WATER
 10
4140.0000
 20
-3630.0000
 30
0.0000
 41
1.0000
 42
1.0000
 43
1.0000
 50
90.0000
  0
TEXT
  5
16C
  8
Text
 10
3910.0000
 20
-3630.0000
 30
0.0000
 40
164.0000
  1
Faucet
 50
0.0000
  7
STANDARD
 72
1
 73
2
 11
3910.0000
 21
-3630.0000
 31
0.0000
  0
TEXT
  5
16D
  8
Plumbing
 10
4150.0000
 20
-3630.0000
 30
0.0000
 40
164.0000
  1
H 39
 50
0.0000
  7
STANDARD
  0
LINE
  5
16E
  8
Dim_Plumbing
 10
4140.0000
 20
-4630.0000
 30
0.0000
 11
4350.0000
 21
-4630.0000
 31
0.0000
  0
LINE
  5
16F
  8
Dim_Plumbing
 10
4140.0000
 20
-3630.0000
 30
0.0000
 11
4350.0000
 21
-3630.0000
 31
0.0000
  0
LINE
  5
170
  8
Dim_Plumbing
 10
4290.0000
 20
-4630.0000
 30
0.0000
 11
4290.0000
 21
-3630.0000
 31
0.0000
  0
SOLID
  5
171
  8
Dim_Plumbing
 10
4290.0000
 20
-4630.0000
 30
0.0000
 11
4318.0000
 21
-4720.0000
 31
0.0000
 12
4262.0000
 22
-4720.0000
 32
0.0000
 13
4262.0000
 23
-4720.0000
 33
0.0000
  0
SOLID
  5
172
  8
Dim_Plumbing
 10
4290.0000
 20
-3630.0000
 30
0.0000
 11
4318.0000
 21
-3540.0000
 31
0.0000
 12
4262.0000
 22
-3540.0000
 32
0.0000
 13
4262.0000
 23
-3540.0000
 33
0.0000
  0
TEXT
  5
173
  8
Dim_Plumbing
 10
4375.0000
 20
-4130.0000
 30
0.0000
 40
170.0000
  1
100
 50
90.0000
  7
STANDARD
 72
1
 73
2
 11
4375.0000
 21
-4130.0000
 31
0.0000
  0
INSERT
  5
174
  8
Plumbing
  2
WATER
 10
4140.0000
 20
-3330.0000
 30
0.0000
 41
1.0000
 42
1.0000
 43
1.0000
 50
90.0000
  0
TEXT
  5
175
  8
Text
 10
3910.0000
 20
-3330.0000
 30
0.0000
 40
164.0000
  1
Faucet
 50
0.0000
  7
STANDARD
 72
1
 73
2
 11
3910.0000
 21
-3330.0000
 31
0.0000
  0
TEXT
  5
176
  8
Plumbing
 10
4150.0000
 20
-3330.0000
 30
0.0000
 40
164.0000
  1
H 39
 50
0.0000
  7
STANDARD
  0
LINE
  5
177
  8
Dim_Plumbing
 10
4140.0000
 20
-4630.0000
 30
0.0000
 11
4350.0000
 21
-4630.0000
 31
0.0000
  0
LINE
  5
178
  8
Dim_Plumbing
 10
4140.0000
 20
-3330.0000
 30
0.0000
 11
4350.0000
 21
-3330.0000
 31
0.0000
  0
LINE
  5
179
  8
Dim_Plumbing
 10
4290.0000
 20
-4630.0000
 30
0.0000
 11
4290.0000
 21
-3330.0000
 31
0.0000
  0
SOLID
  5
17A
  8
Dim_Plumbing
 10
4290.0000
 20
-4630.0000
 30
0.0000
 11
4318.0000
 21
-4720.0000
 31
0.0000
 12
4262.0000
 22
-4720.0000
 32
0.0000
 13
4262.0000
 23
-4720.0000
 33
0.0000
  0
SOLID
  5
17B
  8
Dim_Plumbing
 10
4290.0000
 20
-3330.0000
 30
0.0000
 11
4318.0000
 21
-3240.0000
 31
0.0000
 12
4262.0000
 22
-3240.0000
 32
0.0000
 13
4262.0000
 23
-3240.0000
 33
0.0000
  0
TEXT
  5
17C
  8
Dim_Plumbing
 10
4375.0000
 20
-3980.0000
 30
0.0000
 40
170.0000
  1
130
 50
90.0000
  7
STANDARD
 72
1
 73
2
 11
4375.0000
 21
-3980.0000
 31
0.0000
  0
LINE
  5
17D
  8
Dim_overall
 10
1625.0000
 20
-7510.0000
 30
0.0000
 11
1625.0000
 21
-8470.0000
 31
0.0000
  0
LINE
  5
17E
  8
Dim_overall
 10
11685.0000
 20
-7510.0000
 30
0.0000
 11
11685.0000
 21
-8470.0000
 31
0.0000
  0
LINE
  5
17F
  8
Dim_overall
 10
1625.0000
 20
-8410.0000
 30
0.0000
 11
11685.0000
 21
-8410.0000
 31
0.0000
  0
SOLID
  5
180
  8
Dim_overall
 10
1625.0000
 20
-8410.0000
 30
0.0000
 11
1535.0000
 21
-8438.0000
 31
0.0000
 12
1535.0000
 22
-8382.0000
 32
0.0000
 13
1535.0000
 23
-8382.0000
 33
0.0000
  0
SOLID
  5
181
  8
Dim_overall
 10
11685.0000
 20
-8410.0000
 30
0.0000
 11
11775.0000
 21
-8438.0000
 31
0.0000
 12
11775.0000
 22
-8382.0000
 32
0.0000
 13
11775.0000
 23
-8382.0000
 33
0.0000
  0
TEXT
  5
182
  8
Dim_overall
 10
6655.0000
 20
-8510.0000
 30
0.0000
 40
200.0000
  1
1006
 50
0.0000
  7
STANDARD
 72
1
 73
2
 11
6655.0000
 21
-8510.0000
 31
0.0000
  0
LINE
  5
183
  8
Dim_overall
 10
1625.0000
 20
-7510.0000
 30
0.0000
 11
665.0000
 21
-7510.0000
 31
0.0000
  0
LINE
  5
184
  8
Dim_overall
 10
1625.0000
 20
2550.0000
 30
0.0000
 11
665.0000
 21
2550.0000
 31
0.0000
  0
LINE
  5
185
  8
Dim_overall
 10
725.0000
 20
-7510.0000
 30
0.0000
 11
725.0000
 21
2550.0000
 31
0.0000
  0
SOLID
  5
186
  8
Dim_overall
 10
725.0000
 20
-7510.0000
 30
0.0000
 11
697.0000
 21
-7600.0000
 31
0.0000
 12
753.0000
 22
-7600.0000
 32
0.0000
 13
753.0000
 23
-7600.0000
 33
0.0000
  0
SOLID
  5
187
  8
Dim_overall
 10
725.0000
 20
2550.0000
 30
0.0000
 11
697.0000
 21
2640.0000
 31
0.0000
 12
753.0000
 22
2640.0000
 32
0.0000
 13
753.0000
 23
2640.0000
 33
0.0000
  0
TEXT
  5
188
  8
Dim_overall
 10
625.0000
 20
-2480.0000
 30
0.0000
 40
200.0000
  1
1006
 50
90.0000
  7
STANDARD
 72
1
 73
2
 11
625.0000
 21
-2480.0000
 31
0.0000
  0
TEXT
  5
189
  8
Text
 10
6655.0000
 20
-3275.0000
 30
0.0000
 40
220.0000
  1
\U+05D7\U+05D3\U+05E8
 50
0.0000
  7
STANDARD
 72
1
 73
2
 11
6655.0000
 21
-3275.0000
 31
0.0000
  0
TEXT
  5
18A
  8
PicNumber
 10
6655.0000
 20
-3675.0000
 30
0.0000
 40
260.0000
  1
P.1
 50
0.0000
  7
STANDARD
 72
1
 73
2
 11
6655.0000
 21
-3675.0000
 31
0.0000
  0
LINE
  5
18B
  8
Frame
 10
13685.0000
 20
2550.0000
 30
0.0000
 11
17685.0000
 21
2550.0000
 31
0.0000
  0
LINE
  5
18C
  8
Frame
 10
17685.0000
 20
2550.0000
 30
0.0000
 11
17685.0000
 21
-410.0000
 31
0.0000
  0
LINE
  5
18D
  8
Frame
 10
17685.0000
 20
-410.0000
 30
0.0000
 11
13685.0000
 21
-410.0000
 31
0.0000
  0
LINE
  5
18E
  8
Frame
 10
13685.0000
 20
-410.0000
 30
0.0000
 11
13685.0000
 21
2550.0000
 31
0.0000
  0
LINE
  5
18F
  8
Frame
 10
13685.0000
 20
2030.0000
 30
0.0000
 11
17685.0000
 21
2030.0000
 31
0.0000
  0
TEXT
  5
190
  8
Text_Title
 10
17565.0000
 20
2190.0000
 30
0.0000
 40
250.0000
  1
\U+05E1\U+05D5\U+05DC\U+05D9\U+05DF \U+2014 \U+05EA\U+05DB\U+05E0\U+05D9\U+05EA \U+05DE\U+05D3\U+05D9\U+05D3\U+05D4
 50
0.0000
  7
STANDARD
 72
2
 73
2
 11
17565.0000
 21
2190.0000
 31
0.0000
  0
TEXT
  5
191
  8
Text_Title
 10
17565.0000
 20
1790.0000
 30
0.0000
 40
200.0000
  1
\U+05E4\U+05E8\U+05D5\U+05D9\U+05E7\U+05D8: test-7_Bath_TEST_1_DR1
 50
0.0000
  7
STANDARD
 72
2
 73
2
 11
17565.0000
 21
1790.0000
 31
0.0000
  0
TEXT
  5
192
  8
Text_Title
 10
17565.0000
 20
1390.0000
 30
0.0000
 40
200.0000
  1
\U+05DC\U+05E7\U+05D5\U+05D7: \U+2014
 50
0.0000
  7
STANDARD
 72
2
 73
2
 11
17565.0000
 21
1390.0000
 31
0.0000
  0
TEXT
  5
193
  8
Text_Title
 10
17565.0000
 20
990.0000
 30
0.0000
 40
200.0000
  1
\U+05DB\U+05EA\U+05D5\U+05D1\U+05EA: \U+2014
 50
0.0000
  7
STANDARD
 72
2
 73
2
 11
17565.0000
 21
990.0000
 31
0.0000
  0
TEXT
  5
194
  8
Text_Title
 10
17565.0000
 20
590.0000
 30
0.0000
 40
200.0000
  1
\U+05DE\U+05D5\U+05D3\U+05D3: \U+2014
 50
0.0000
  7
STANDARD
 72
2
 73
2
 11
17565.0000
 21
590.0000
 31
0.0000
  0
TEXT
  5
195
  8
Text_Title
 10
17565.0000
 20
190.0000
 30
0.0000
 40
200.0000
  1
\U+05EA\U+05D0\U+05E8\U+05D9\U+05DA: 2026-08-18
 50
0.0000
  7
STANDARD
 72
2
 73
2
 11
17565.0000
 21
190.0000
 31
0.0000
  0
TEXT
  5
196
  8
Text_Title
 10
17565.0000
 20
-210.0000
 30
0.0000
 40
200.0000
  1
\U+05E7\U+05E0"\U+05DE: 1:50   \U+05D9\U+05D7\U+05D9\U+05D3\U+05D5\U+05EA: \U+05DE"\U+05DE
 50
0.0000
  7
STANDARD
 72
2
 73
2
 11
17565.0000
 21
-210.0000
 31
0.0000
  0
LINE
  5
197
  8
Frame
 10
13685.0000
 20
-910.0000
 30
0.0000
 11
16885.0000
 21
-910.0000
 31
0.0000
  0
LINE
  5
198
  8
Frame
 10
16885.0000
 20
-910.0000
 30
0.0000
 11
16885.0000
 21
-3470.0000
 31
0.0000
  0
LINE
  5
199
  8
Frame
 10
16885.0000
 20
-3470.0000
 30
0.0000
 11
13685.0000
 21
-3470.0000
 31
0.0000
  0
LINE
  5
19A
  8
Frame
 10
13685.0000
 20
-3470.0000
 30
0.0000
 11
13685.0000
 21
-910.0000
 31
0.0000
  0
TEXT
  5
19B
  8
Text_Legend
 10
16685.0000
 20
-1358.0000
 30
0.0000
 40
230.0000
  1
\U+05DE\U+05E7\U+05E8\U+05D0
 50
0.0000
  7
STANDARD
 72
2
 73
2
 11
16685.0000
 21
-1358.0000
 31
0.0000
  0
LINE
  5
19C
  8
Misc
 10
14085.0000
 20
-1901.5000
 30
0.0000
 11
14085.0000
 21
-1883.5000
 31
0.0000
  0
LINE
  5
19D
  8
Misc
 10
14085.0000
 20
-1883.5000
 30
0.0000
 11
14127.0000
 21
-1841.5000
 31
0.0000
  0
LINE
  5
19E
  8
Misc
 10
14127.0000
 20
-1841.5000
 30
0.0000
 11
14085.0000
 21
-1799.5000
 31
0.0000
  0
LINE
  5
19F
  8
Misc
 10
14085.0000
 20
-1799.5000
 30
0.0000
 11
14043.0000
 21
-1841.5000
 31
0.0000
  0
LINE
  5
1A0
  8
Misc
 10
14043.0000
 20
-1841.5000
 30
0.0000
 11
14085.0000
 21
-1883.5000
 31
0.0000
  0
TEXT
  5
1A1
  8
Text_Legend
 10
16685.0000
 20
-1870.0000
 30
0.0000
 40
200.0000
  1
\U+05E9\U+05D5\U+05E0\U+05D5\U+05EA
 50
0.0000
  7
STANDARD
 72
2
 73
2
 11
16685.0000
 21
-1870.0000
 31
0.0000
  0
LINE
  5
1A2
  8
Electrical
 10
14085.0000
 20
-2541.5000
 30
0.0000
 11
14085.0000
 21
-2517.5000
 31
0.0000
  0
ARC
  5
1A3
  8
Electrical
 10
14085.0000
 20
-2463.5000
 30
0.0000
 40
54.0000
 50
0.0000
 51
360.0000
  0
LINE
  5
1A4
  8
Electrical
 10
14031.0000
 20
-2463.5000
 30
0.0000
 11
14139.0000
 21
-2463.5000
 31
0.0000
  0
LINE
  5
1A5
  8
Electrical
 10
14067.0000
 20
-2479.1000
 30
0.0000
 11
14067.0000
 21
-2447.9000
 31
0.0000
  0
LINE
  5
1A6
  8
Electrical
 10
14103.0000
 20
-2479.1000
 30
0.0000
 11
14103.0000
 21
-2447.9000
 31
0.0000
  0
TEXT
  5
1A7
  8
Text_Legend
 10
16685.0000
 20
-2510.0000
 30
0.0000
 40
200.0000
  1
\U+05D7\U+05E9\U+05DE\U+05DC
 50
0.0000
  7
STANDARD
 72
2
 73
2
 11
16685.0000
 21
-2510.0000
 31
0.0000
  0
LINE
  5
1A8
  8
Plumbing
 10
14085.0000
 20
-3181.5000
 30
0.0000
 11
14085.0000
 21
-3167.1000
 31
0.0000
  0
ARC
  5
1A9
  8
Plumbing
 10
14085.0000
 20
-3113.1000
 30
0.0000
 40
54.0000
 50
0.0000
 51
360.0000
  0
LINE
  5
1AA
  8
Plumbing
 10
14043.0000
 20
-3113.1000
 30
0.0000
 11
14127.0000
 21
-3113.1000
 31
0.0000
  0
LINE
  5
1AB
  8
Plumbing
 10
14085.0000
 20
-3155.1000
 30
0.0000
 11
14085.0000
 21
-3071.1000
 31
0.0000
  0
TEXT
  5
1AC
  8
Text_Legend
 10
16685.0000
 20
-3150.0000
 30
0.0000
 40
200.0000
  1
\U+05D0\U+05D9\U+05E0\U+05E1\U+05D8\U+05DC\U+05E6\U+05D9\U+05D4 / \U+05DE\U+05D9\U+05DD
 50
0.0000
  7
STANDARD
 72
2
 73
2
 11
16685.0000
 21
-3150.0000
 31
0.0000
  0
LINE
  5
1AD
  8
Frame
 10
15685.0000
 20
-4070.0000
 30
0.0000
 11
15685.0000
 21
-3070.0000
 31
0.0000
  0
SOLID
  5
1AE
  8
Frame
 10
15685.0000
 20
-3070.0000
 30
0.0000
 11
15585.0000
 21
-3270.0000
 31
0.0000
 12
15785.0000
 22
-3270.0000
 32
0.0000
 13
15785.0000
 23
-3270.0000
 33
0.0000
  0
TEXT
  5
1AF
  8
Frame
 10
15685.0000
 20
-3010.0000
 30
0.0000
 40
220.0000
  1
\U+05E6
 50
0.0000
  7
STANDARD
 72
1
 73
3
 11
15685.0000
 21
-3010.0000
 31
0.0000
  0
LINE
  5
1B0
  8
Frame
 10
15085.0000
 20
-4370.0000
 30
0.0000
 11
15885.0000
 21
-4370.0000
 31
0.0000
  0
LINE
  5
1B1
  8
Frame
 10
15085.0000
 20
-4370.0000
 30
0.0000
 11
15085.0000
 21
-4470.0000
 31
0.0000
  0
LINE
  5
1B2
  8
Frame
 10
15285.0000
 20
-4370.0000
 30
0.0000
 11
15285.0000
 21
-4470.0000
 31
0.0000
  0
LINE
  5
1B3
  8
Frame
 10
15485.0000
 20
-4370.0000
 30
0.0000
 11
15485.0000
 21
-4470.0000
 31
0.0000
  0
LINE
  5
1B4
  8
Frame
 10
15685.0000
 20
-4370.0000
 30
0.0000
 11
15685.0000
 21
-4470.0000
 31
0.0000
  0
LINE
  5
1B5
  8
Frame
 10
15885.0000
 20
-4370.0000
 30
0.0000
 11
15885.0000
 21
-4470.0000
 31
0.0000
  0
TEXT
  5
1B6
  8
Frame
 10
15085.0000
 20
-4690.0000
 30
0.0000
 40
140.0000
  1
0
 50
0.0000
  7
STANDARD
 72
1
 11
15085.0000
 21
-4690.0000
 31
0.0000
  0
TEXT
  5
1B7
  8
Frame
 10
15885.0000
 20
-4690.0000
 30
0.0000
 40
140.0000
  1
0.8 \U+05DE\U+05F3
 50
0.0000
  7
STANDARD
 72
2
 11
15885.0000
 21
-4690.0000
 31
0.0000
  0
ENDSEC
  0
EOF
