  0
SECTION
  2
HEADER
  9
$ACADVER
  1
AC1009
  9
$INSBASE
 10
0.0000
 20
0.0000
 30
0.0000
  9
$EXTMIN
 10
-200.0000
 20
-5050.0000
 30
0.0000
  9
$EXTMAX
 10
3100.0000
 20
200.0000
 30
0.0000
  9
$DWGCODEPAGE
  3
ansi_1255
  9
$INSUNITS
 70
4
  9
$LTSCALE
 40
10.0000
  9
$LIMMIN
 10
0.0000
 20
0.0000
  9
$LIMMAX
 10
2000.0000
 20
200.0000
  0
ENDSEC
  0
SECTION
  2
TABLES
  0
TABLE
  2
VPORT
 70
1
  0
VPORT
  2
*ACTIVE
 70
0
 10
0.0000
 20
0.0000
 11
1.0000
 21
1.0000
 12
1450.0000
 22
-2425.0000
 13
0.0000
 23
0.0000
 14
10.0000
 24
10.0000
 15
10.0000
 25
10.0000
 16
0.0000
 26
0.0000
 36
1.0000
 17
0.0000
 27
0.0000
 37
0.0000
 40
5775.0000
 41
1.0000
 42
50.0000
 43
0.0000
 44
0.0000
 50
0.0000
 51
0.0000
 71
0
 72
100
 73
1
 74
1
 75
0
 76
0
 77
0
 78
0
  0
ENDTAB
  0
TABLE
  2
LTYPE
 70
2
  0
LTYPE
  2
CONTINUOUS
 70
0
  3
Solid line
 72
65
 73
0
 40
0.0000
  0
LTYPE
  2
HIDDEN
 70
0
  3
Hidden __ __ __ __ __ __ __ __ __ __ __ __ __ __
 72
65
 73
2
 40
0.3750
 49
0.2500
 49
-0.1250
  0
ENDTAB
  0
TABLE
  2
LAYER
 70
47
  0
LAYER
  2
0
 70
0
 62
7
  6
CONTINUOUS
  0
LAYER
  2
Electrical
 70
0
 62
6
  6
CONTINUOUS
  0
LAYER
  2
Plumbing
 70
0
 62
150
  6
CONTINUOUS
  0
LAYER
  2
Const_Walls
 70
0
 62
253
  6
CONTINUOUS
  0
LAYER
  2
Dim
 70
0
 62
9
  6
CONTINUOUS
  0
LAYER
  2
Text
 70
0
 62
74
  6
CONTINUOUS
  0
LAYER
  2
HVAC
 70
0
 62
4
  6
CONTINUOUS
  0
LAYER
  2
Misc
 70
0
 62
32
  6
HIDDEN
  0
LAYER
  2
Dim_Markers
 70
0
 62
9
  6
CONTINUOUS
  0
LAYER
  2
Dim_Wall
 70
0
 62
9
  6
CONTINUOUS
  0
LAYER
  2
Const_Doors
 70
0
 62
5
  6
CONTINUOUS
  0
LAYER
  2
Const_Windows
 70
0
 62
152
  6
CONTINUOUS
  0
LAYER
  2
Text_Legend
 70
0
 62
74
  6
CONTINUOUS
  0
LAYER
  2
Text_JobInfo
 70
0
 62
74
  6
CONTINUOUS
  0
LAYER
  2
Dim_Overall
 70
0
 62
-9
  6
CONTINUOUS
  0
LAYER
  2
Dim_Embeded
 70
0
 62
-9
  6
CONTINUOUS
  0
LAYER
  2
Dim_Angles_Auto
 70
0
 62
3
  6
CONTINUOUS
  0
LAYER
  2
Text_AreaNo
 70
0
 62
-74
  6
CONTINUOUS
  0
LAYER
  2
Dim_ArcChord
 70
0
 62
9
  6
HIDDEN
  0
LAYER
  2
Const_Walls_Ext
 70
0
 62
253
  6
CONTINUOUS
  0
LAYER
  2
Dim_Verification
 70
0
 62
-9
  6
CONTINUOUS
  0
LAYER
  2
Dim_Radius
 70
0
 62
9
  6
CONTINUOUS
  0
LAYER
  2
Dim_Angles
 70
0
 62
9
  6
CONTINUOUS
  0
LAYER
  2
Z_Other
 70
0
 62
253
  6
CONTINUOUS
  0
LAYER
  2
Const_Stairs
 70
0
 62
253
  6
CONTINUOUS
  0
LAYER
  2
Misc_Cabinets
 70
0
 62
36
  6
CONTINUOUS
  0
LAYER
  2
Z_Scale_Ruler
 70
0
 62
7
  6
CONTINUOUS
  0
LAYER
  2
Const_Fill
 70
0
 62
253
  6
CONTINUOUS
  0
LAYER
  2
Wall_Image
 70
0
 62
7
  6
CONTINUOUS
  0
LAYER
  2
Exterior_walls
 70
0
 62
5
  6
CONTINUOUS
  0
LAYER
  2
HVAC_DIM
 70
0
 62
4
  6
CONTINUOUS
  0
LAYER
  2
HVAC_H
 70
0
 62
4
  6
CONTINUOUS
  0
LAYER
  2
Electrical_DIM
 70
0
 62
6
  6
CONTINUOUS
  0
LAYER
  2
Electrical_H
 70
0
 62
6
  6
CONTINUOUS
  0
LAYER
  2
Plumbing_DIM
 70
0
 62
150
  6
CONTINUOUS
  0
LAYER
  2
Plumbing_H
 70
0
 62
150
  6
CONTINUOUS
  0
LAYER
  2
datum
 70
0
 62
1
  6
CONTINUOUS
  0
LAYER
  2
Const_Floor
 70
0
 62
8
  6
CONTINUOUS
  0
LAYER
  2
Elem_Electrical
 70
0
 62
6
  6
CONTINUOUS
  0
LAYER
  2
Elem_Plumbing
 70
0
 62
5
  6
CONTINUOUS
  0
LAYER
  2
Elem_Gas
 70
0
 62
2
  6
CONTINUOUS
  0
LAYER
  2
Elem_HVAC
 70
0
 62
4
  6
CONTINUOUS
  0
LAYER
  2
Elem_Lighting
 70
0
 62
30
  6
CONTINUOUS
  0
LAYER
  2
Elem_Struct
 70
0
 62
8
  6
CONTINUOUS
  0
LAYER
  2
Elem_Opening
 70
0
 62
152
  6
CONTINUOUS
  0
LAYER
  2
Elem_Misc
 70
0
 62
7
  6
CONTINUOUS
  0
LAYER
  2
Elem_Label
 70
0
 62
74
  6
CONTINUOUS
  0
ENDTAB
  0
TABLE
  2
STYLE
 70
1
  0
STYLE
  2
STANDARD
 70
0
 40
0.0000
 41
1.0000
 50
0.0000
 71
0
 42
10.0000
  3
ARIAL.TTF
  4

  0
ENDTAB
  0
ENDSEC
  0
SECTION
  2
BLOCKS
  0
BLOCK
  8
0
  2
CONTROLBOX
 70
0
 10
0.0000
 20
0.0000
 30
0.0000
  0
3DFACE
  5
102C
  8
0
 10
-100.0000
 20
-40.0000
 30
-150.0000
 11
100.0000
 21
-40.0000
 31
-150.0000
 12
100.0000
 22
0.0000
 32
-150.0000
 13
-100.0000
 23
0.0000
 33
-150.0000
  0
3DFACE
  5
102D
  8
0
 10
-100.0000
 20
-40.0000
 30
150.0000
 11
100.0000
 21
-40.0000
 31
150.0000
 12
100.0000
 22
0.0000
 32
150.0000
 13
-100.0000
 23
0.0000
 33
150.0000
  0
3DFACE
  5
102E
  8
0
 10
-100.0000
 20
-40.0000
 30
-150.0000
 11
100.0000
 21
-40.0000
 31
-150.0000
 12
100.0000
 22
-40.0000
 32
150.0000
 13
-100.0000
 23
-40.0000
 33
150.0000
  0
3DFACE
  5
102F
  8
0
 10
-100.0000
 20
0.0000
 30
-150.0000
 11
100.0000
 21
0.0000
 31
-150.0000
 12
100.0000
 22
0.0000
 32
150.0000
 13
-100.0000
 23
0.0000
 33
150.0000
  0
3DFACE
  5
1030
  8
0
 10
-100.0000
 20
-40.0000
 30
-150.0000
 11
-100.0000
 21
0.0000
 31
-150.0000
 12
-100.0000
 22
0.0000
 32
150.0000
 13
-100.0000
 23
-40.0000
 33
150.0000
  0
3DFACE
  5
1031
  8
0
 10
100.0000
 20
-40.0000
 30
-150.0000
 11
100.0000
 21
0.0000
 31
-150.0000
 12
100.0000
 22
0.0000
 32
150.0000
 13
100.0000
 23
-40.0000
 33
150.0000
  0
3DFACE
  5
1032
  8
0
 10
-96.0000
 20
0.0000
 30
-146.0000
 11
96.0000
 21
0.0000
 31
-146.0000
 12
96.0000
 22
10.0000
 32
-146.0000
 13
-96.0000
 23
10.0000
 33
-146.0000
  0
3DFACE
  5
1033
  8
0
 10
-96.0000
 20
0.0000
 30
146.0000
 11
96.0000
 21
0.0000
 31
146.0000
 12
96.0000
 22
10.0000
 32
146.0000
 13
-96.0000
 23
10.0000
 33
146.0000
  0
3DFACE
  5
1034
  8
0
 10
-96.0000
 20
0.0000
 30
-146.0000
 11
96.0000
 21
0.0000
 31
-146.0000
 12
96.0000
 22
0.0000
 32
146.0000
 13
-96.0000
 23
0.0000
 33
146.0000
  0
3DFACE
  5
1035
  8
0
 10
-96.0000
 20
10.0000
 30
-146.0000
 11
96.0000
 21
10.0000
 31
-146.0000
 12
96.0000
 22
10.0000
 32
146.0000
 13
-96.0000
 23
10.0000
 33
146.0000
  0
3DFACE
  5
1036
  8
0
 10
-96.0000
 20
0.0000
 30
-146.0000
 11
-96.0000
 21
10.0000
 31
-146.0000
 12
-96.0000
 22
10.0000
 32
146.0000
 13
-96.0000
 23
0.0000
 33
146.0000
  0
3DFACE
  5
1037
  8
0
 10
96.0000
 20
0.0000
 30
-146.0000
 11
96.0000
 21
10.0000
 31
-146.0000
 12
96.0000
 22
10.0000
 32
146.0000
 13
96.0000
 23
0.0000
 33
146.0000
  0
ENDBLK
  5
1038
  8
0
  0
BLOCK
  8
0
  2
SOCKET
 70
0
 10
0.0000
 20
0.0000
 30
0.0000
  0
3DFACE
  5
1039
  8
0
 10
-35.0000
 20
-40.0000
 30
0.0000
 11
35.0000
 21
-40.0000
 31
0.0000
 12
35.0000
 22
0.0000
 32
0.0000
 13
-35.0000
 23
0.0000
 33
0.0000
  0
3DFACE
  5
103A
  8
0
 10
-35.0000
 20
-40.0000
 30
70.0000
 11
35.0000
 21
-40.0000
 31
70.0000
 12
35.0000
 22
0.0000
 32
70.0000
 13
-35.0000
 23
0.0000
 33
70.0000
  0
3DFACE
  5
103B
  8
0
 10
-35.0000
 20
-40.0000
 30
0.0000
 11
35.0000
 21
-40.0000
 31
0.0000
 12
35.0000
 22
-40.0000
 32
70.0000
 13
-35.0000
 23
-40.0000
 33
70.0000
  0
3DFACE
  5
103C
  8
0
 10
-35.0000
 20
0.0000
 30
0.0000
 11
35.0000
 21
0.0000
 31
0.0000
 12
35.0000
 22
0.0000
 32
70.0000
 13
-35.0000
 23
0.0000
 33
70.0000
  0
3DFACE
  5
103D
  8
0
 10
-35.0000
 20
-40.0000
 30
0.0000
 11
-35.0000
 21
0.0000
 31
0.0000
 12
-35.0000
 22
0.0000
 32
70.0000
 13
-35.0000
 23
-40.0000
 33
70.0000
  0
3DFACE
  5
103E
  8
0
 10
35.0000
 20
-40.0000
 30
0.0000
 11
35.0000
 21
0.0000
 31
0.0000
 12
35.0000
 22
0.0000
 32
70.0000
 13
35.0000
 23
-40.0000
 33
70.0000
  0
3DFACE
  5
103F
  8
0
 10
-45.0000
 20
0.0000
 30
-8.0000
 11
45.0000
 21
0.0000
 31
-8.0000
 12
45.0000
 22
8.0000
 32
-8.0000
 13
-45.0000
 23
8.0000
 33
-8.0000
  0
3DFACE
  5
1040
  8
0
 10
-45.0000
 20
0.0000
 30
78.0000
 11
45.0000
 21
0.0000
 31
78.0000
 12
45.0000
 22
8.0000
 32
78.0000
 13
-45.0000
 23
8.0000
 33
78.0000
  0
3DFACE
  5
1041
  8
0
 10
-45.0000
 20
0.0000
 30
-8.0000
 11
45.0000
 21
0.0000
 31
-8.0000
 12
45.0000
 22
0.0000
 32
78.0000
 13
-45.0000
 23
0.0000
 33
78.0000
  0
3DFACE
  5
1042
  8
0
 10
-45.0000
 20
8.0000
 30
-8.0000
 11
45.0000
 21
8.0000
 31
-8.0000
 12
45.0000
 22
8.0000
 32
78.0000
 13
-45.0000
 23
8.0000
 33
78.0000
  0
3DFACE
  5
1043
  8
0
 10
-45.0000
 20
0.0000
 30
-8.0000
 11
-45.0000
 21
8.0000
 31
-8.0000
 12
-45.0000
 22
8.0000
 32
78.0000
 13
-45.0000
 23
0.0000
 33
78.0000
  0
3DFACE
  5
1044
  8
0
 10
45.0000
 20
0.0000
 30
-8.0000
 11
45.0000
 21
8.0000
 31
-8.0000
 12
45.0000
 22
8.0000
 32
78.0000
 13
45.0000
 23
0.0000
 33
78.0000
  0
3DFACE
  5
1045
  8
0
 10
-16.0000
 20
8.0000
 30
20.0000
 11
16.0000
 21
8.0000
 31
20.0000
 12
16.0000
 22
14.0000
 32
20.0000
 13
-16.0000
 23
14.0000
 33
20.0000
  0
3DFACE
  5
1046
  8
0
 10
-16.0000
 20
8.0000
 30
50.0000
 11
16.0000
 21
8.0000
 31
50.0000
 12
16.0000
 22
14.0000
 32
50.0000
 13
-16.0000
 23
14.0000
 33
50.0000
  0
3DFACE
  5
1047
  8
0
 10
-16.0000
 20
8.0000
 30
20.0000
 11
16.0000
 21
8.0000
 31
20.0000
 12
16.0000
 22
8.0000
 32
50.0000
 13
-16.0000
 23
8.0000
 33
50.0000
  0
3DFACE
  5
1048
  8
0
 10
-16.0000
 20
14.0000
 30
20.0000
 11
16.0000
 21
14.0000
 31
20.0000
 12
16.0000
 22
14.0000
 32
50.0000
 13
-16.0000
 23
14.0000
 33
50.0000
  0
3DFACE
  5
1049
  8
0
 10
-16.0000
 20
8.0000
 30
20.0000
 11
-16.0000
 21
14.0000
 31
20.0000
 12
-16.0000
 22
14.0000
 32
50.0000
 13
-16.0000
 23
8.0000
 33
50.0000
  0
3DFACE
  5
104A
  8
0
 10
16.0000
 20
8.0000
 30
20.0000
 11
16.0000
 21
14.0000
 31
20.0000
 12
16.0000
 22
14.0000
 32
50.0000
 13
16.0000
 23
8.0000
 33
50.0000
  0
3DFACE
  5
104B
  8
0
 10
-12.0000
 20
14.0000
 30
30.0000
 11
-4.0000
 21
14.0000
 31
30.0000
 12
-4.0000
 22
18.0000
 32
30.0000
 13
-12.0000
 23
18.0000
 33
30.0000
  0
3DFACE
  5
104C
  8
0
 10
-12.0000
 20
14.0000
 30
44.0000
 11
-4.0000
 21
14.0000
 31
44.0000
 12
-4.0000
 22
18.0000
 32
44.0000
 13
-12.0000
 23
18.0000
 33
44.0000
  0
3DFACE
  5
104D
  8
0
 10
-12.0000
 20
14.0000
 30
30.0000
 11
-4.0000
 21
14.0000
 31
30.0000
 12
-4.0000
 22
14.0000
 32
44.0000
 13
-12.0000
 23
14.0000
 33
44.0000
  0
3DFACE
  5
104E
  8
0
 10
-12.0000
 20
18.0000
 30
30.0000
 11
-4.0000
 21
18.0000
 31
30.0000
 12
-4.0000
 22
18.0000
 32
44.0000
 13
-12.0000
 23
18.0000
 33
44.0000
  0
3DFACE
  5
104F
  8
0
 10
-12.0000
 20
14.0000
 30
30.0000
 11
-12.0000
 21
18.0000
 31
30.0000
 12
-12.0000
 22
18.0000
 32
44.0000
 13
-12.0000
 23
14.0000
 33
44.0000
  0
3DFACE
  5
1050
  8
0
 10
-4.0000
 20
14.0000
 30
30.0000
 11
-4.0000
 21
18.0000
 31
30.0000
 12
-4.0000
 22
18.0000
 32
44.0000
 13
-4.0000
 23
14.0000
 33
44.0000
  0
3DFACE
  5
1051
  8
0
 10
4.0000
 20
14.0000
 30
30.0000
 11
12.0000
 21
14.0000
 31
30.0000
 12
12.0000
 22
18.0000
 32
30.0000
 13
4.0000
 23
18.0000
 33
30.0000
  0
3DFACE
  5
1052
  8
0
 10
4.0000
 20
14.0000
 30
44.0000
 11
12.0000
 21
14.0000
 31
44.0000
 12
12.0000
 22
18.0000
 32
44.0000
 13
4.0000
 23
18.0000
 33
44.0000
  0
3DFACE
  5
1053
  8
0
 10
4.0000
 20
14.0000
 30
30.0000
 11
12.0000
 21
14.0000
 31
30.0000
 12
12.0000
 22
14.0000
 32
44.0000
 13
4.0000
 23
14.0000
 33
44.0000
  0
3DFACE
  5
1054
  8
0
 10
4.0000
 20
18.0000
 30
30.0000
 11
12.0000
 21
18.0000
 31
30.0000
 12
12.0000
 22
18.0000
 32
44.0000
 13
4.0000
 23
18.0000
 33
44.0000
  0
3DFACE
  5
1055
  8
0
 10
4.0000
 20
14.0000
 30
30.0000
 11
4.0000
 21
18.0000
 31
30.0000
 12
4.0000
 22
18.0000
 32
44.0000
 13
4.0000
 23
14.0000
 33
44.0000
  0
3DFACE
  5
1056
  8
0
 10
12.0000
 20
14.0000
 30
30.0000
 11
12.0000
 21
18.0000
 31
30.0000
 12
12.0000
 22
18.0000
 32
44.0000
 13
12.0000
 23
14.0000
 33
44.0000
  0
ENDBLK
  5
1057
  8
0
  0
ENDSEC
  0
SECTION
  2
ENTITIES
  0
3DFACE
  5
1000
  8
Const_Floor
 10
0.0000
 20
0.0000
 30
0.0000
 11
0.0000
 21
-5000.0000
 31
0.0000
 12
3000.0000
 22
-5000.0000
 32
0.0000
 13
3000.0000
 23
-5000.0000
 33
0.0000
 70
15
  0
3DFACE
  5
1001
  8
Const_Floor
 10
0.0000
 20
0.0000
 30
-40.0000
 11
3000.0000
 21
-5000.0000
 31
-40.0000
 12
0.0000
 22
-5000.0000
 32
-40.0000
 13
0.0000
 23
-5000.0000
 33
-40.0000
 70
15
  0
3DFACE
  5
1002
  8
Const_Floor
 10
3000.0000
 20
-5000.0000
 30
0.0000
 11
3000.0000
 21
0.0000
 31
0.0000
 12
0.0000
 22
0.0000
 32
0.0000
 13
0.0000
 23
0.0000
 33
0.0000
 70
15
  0
3DFACE
  5
1003
  8
Const_Floor
 10
3000.0000
 20
-5000.0000
 30
-40.0000
 11
0.0000
 21
0.0000
 31
-40.0000
 12
3000.0000
 22
0.0000
 32
-40.0000
 13
3000.0000
 23
0.0000
 33
-40.0000
 70
15
  0
3DFACE
  5
1004
  8
Const_Floor
 10
0.0000
 20
-5000.0000
 30
-40.0000
 11
3000.0000
 21
-5000.0000
 31
-40.0000
 12
3000.0000
 22
-5000.0000
 32
0.0000
 13
0.0000
 23
-5000.0000
 33
0.0000
 70
15
  0
3DFACE
  5
1005
  8
Const_Floor
 10
3000.0000
 20
-5000.0000
 30
-40.0000
 11
3000.0000
 21
0.0000
 31
-40.0000
 12
3000.0000
 22
0.0000
 32
0.0000
 13
3000.0000
 23
-5000.0000
 33
0.0000
 70
15
  0
3DFACE
  5
1006
  8
Const_Floor
 10
3000.0000
 20
0.0000
 30
-40.0000
 11
0.0000
 21
0.0000
 31
-40.0000
 12
0.0000
 22
0.0000
 32
0.0000
 13
3000.0000
 23
0.0000
 33
0.0000
 70
15
  0
3DFACE
  5
1007
  8
Const_Floor
 10
0.0000
 20
0.0000
 30
-40.0000
 11
0.0000
 21
-5000.0000
 31
-40.0000
 12
0.0000
 22
-5000.0000
 32
0.0000
 13
0.0000
 23
0.0000
 33
0.0000
 70
15
  0
3DFACE
  5
1008
  8
Const_Walls
 10
0.0000
 20
50.0000
 30
0.0000
 11
3050.0000
 21
50.0000
 31
0.0000
 12
3050.0000
 22
-50.0000
 32
0.0000
 13
0.0000
 23
-50.0000
 33
0.0000
 70
15
  0
3DFACE
  5
1009
  8
Const_Walls
 10
0.0000
 20
50.0000
 30
2700.0000
 11
3050.0000
 21
50.0000
 31
2700.0000
 12
3050.0000
 22
-50.0000
 32
2700.0000
 13
0.0000
 23
-50.0000
 33
2700.0000
 70
15
  0
3DFACE
  5
100A
  8
Const_Walls
 10
0.0000
 20
50.0000
 30
0.0000
 11
3050.0000
 21
50.0000
 31
0.0000
 12
3050.0000
 22
50.0000
 32
2700.0000
 13
0.0000
 23
50.0000
 33
2700.0000
 70
15
  0
3DFACE
  5
100B
  8
Const_Walls
 10
3050.0000
 20
50.0000
 30
0.0000
 11
3050.0000
 21
-50.0000
 31
0.0000
 12
3050.0000
 22
-50.0000
 32
2700.0000
 13
3050.0000
 23
50.0000
 33
2700.0000
 70
15
  0
3DFACE
  5
100C
  8
Const_Walls
 10
3050.0000
 20
-50.0000
 30
0.0000
 11
0.0000
 21
-50.0000
 31
0.0000
 12
0.0000
 22
-50.0000
 32
2700.0000
 13
3050.0000
 23
-50.0000
 33
2700.0000
 70
15
  0
3DFACE
  5
100D
  8
Const_Walls
 10
0.0000
 20
-50.0000
 30
0.0000
 11
0.0000
 21
50.0000
 31
0.0000
 12
0.0000
 22
50.0000
 32
2700.0000
 13
0.0000
 23
-50.0000
 33
2700.0000
 70
15
  0
3DFACE
  5
100E
  8
Const_Walls
 10
3050.0000
 20
50.0000
 30
0.0000
 11
3050.0000
 21
-5000.0000
 31
0.0000
 12
2950.0000
 22
-5000.0000
 32
0.0000
 13
2950.0000
 23
50.0000
 33
0.0000
 70
15
  0
3DFACE
  5
100F
  8
Const_Walls
 10
3050.0000
 20
50.0000
 30
2700.0000
 11
3050.0000
 21
-5000.0000
 31
2700.0000
 12
2950.0000
 22
-5000.0000
 32
2700.0000
 13
2950.0000
 23
50.0000
 33
2700.0000
 70
15
  0
3DFACE
  5
1010
  8
Const_Walls
 10
3050.0000
 20
50.0000
 30
0.0000
 11
3050.0000
 21
-5000.0000
 31
0.0000
 12
3050.0000
 22
-5000.0000
 32
2700.0000
 13
3050.0000
 23
50.0000
 33
2700.0000
 70
15
  0
3DFACE
  5
1011
  8
Const_Walls
 10
3050.0000
 20
-5000.0000
 30
0.0000
 11
2950.0000
 21
-5000.0000
 31
0.0000
 12
2950.0000
 22
-5000.0000
 32
2700.0000
 13
3050.0000
 23
-5000.0000
 33
2700.0000
 70
15
  0
3DFACE
  5
1012
  8
Const_Walls
 10
2950.0000
 20
-5000.0000
 30
0.0000
 11
2950.0000
 21
50.0000
 31
0.0000
 12
2950.0000
 22
50.0000
 32
2700.0000
 13
2950.0000
 23
-5000.0000
 33
2700.0000
 70
15
  0
3DFACE
  5
1013
  8
Const_Walls
 10
2950.0000
 20
50.0000
 30
0.0000
 11
3050.0000
 21
50.0000
 31
0.0000
 12
3050.0000
 22
50.0000
 32
2700.0000
 13
2950.0000
 23
50.0000
 33
2700.0000
 70
15
  0
INSERT
  5
1014
  8
Electrical
  2
ControlBox
 10
0.0000
 20
0.0000
 30
300.0000
 41
1.0000
 42
1.0000
 43
1.0000
 50
0.0000
  0
3DFACE
  5
1015
  8
Elem_Struct
 10
-42.5000
 20
-250.0000
 30
300.0000
 11
42.5000
 21
-250.0000
 31
300.0000
 12
42.5000
 22
-50.0000
 32
300.0000
 13
-42.5000
 23
-50.0000
 33
300.0000
 70
15
  0
3DFACE
  5
1016
  8
Elem_Struct
 10
-42.5000
 20
-250.0000
 30
377.0000
 11
42.5000
 21
-250.0000
 31
377.0000
 12
42.5000
 22
-50.0000
 32
377.0000
 13
-42.5000
 23
-50.0000
 33
377.0000
 70
15
  0
3DFACE
  5
1017
  8
Elem_Struct
 10
-42.5000
 20
-250.0000
 30
300.0000
 11
42.5000
 21
-250.0000
 31
300.0000
 12
42.5000
 22
-250.0000
 32
377.0000
 13
-42.5000
 23
-250.0000
 33
377.0000
 70
15
  0
3DFACE
  5
1018
  8
Elem_Struct
 10
42.5000
 20
-250.0000
 30
300.0000
 11
42.5000
 21
-50.0000
 31
300.0000
 12
42.5000
 22
-50.0000
 32
377.0000
 13
42.5000
 23
-250.0000
 33
377.0000
 70
15
  0
3DFACE
  5
1019
  8
Elem_Struct
 10
42.5000
 20
-50.0000
 30
300.0000
 11
-42.5000
 21
-50.0000
 31
300.0000
 12
-42.5000
 22
-50.0000
 32
377.0000
 13
42.5000
 23
-50.0000
 33
377.0000
 70
15
  0
3DFACE
  5
101A
  8
Elem_Struct
 10
-42.5000
 20
-50.0000
 30
300.0000
 11
-42.5000
 21
-250.0000
 31
300.0000
 12
-42.5000
 22
-250.0000
 32
377.0000
 13
-42.5000
 23
-50.0000
 33
377.0000
 70
15
  0
TEXT
  5
101B
  8
Elem_Label
 10
-42.5000
 20
-150.0000
 30
417.0000
 40
70.0000
 50
0.0000
  1
\U+05E2\U+05DE\U+05D5\U+05D3
  7
STANDARD
  0
INSERT
  5
101C
  8
Electrical
  2
Socket
 10
1474.0000
 20
0.0000
 30
300.0000
 41
1.0000
 42
1.0000
 43
1.0000
 50
0.0000
  0
3DFACE
  5
101D
  8
Elem_Electrical
 10
1431.5000
 20
-60.0000
 30
300.0000
 11
1516.5000
 21
-60.0000
 31
300.0000
 12
1516.5000
 22
-50.0000
 32
300.0000
 13
1431.5000
 23
-50.0000
 33
300.0000
 70
15
  0
3DFACE
  5
101E
  8
Elem_Electrical
 10
1431.5000
 20
-60.0000
 30
377.0000
 11
1516.5000
 21
-60.0000
 31
377.0000
 12
1516.5000
 22
-50.0000
 32
377.0000
 13
1431.5000
 23
-50.0000
 33
377.0000
 70
15
  0
3DFACE
  5
101F
  8
Elem_Electrical
 10
1431.5000
 20
-60.0000
 30
300.0000
 11
1516.5000
 21
-60.0000
 31
300.0000
 12
1516.5000
 22
-60.0000
 32
377.0000
 13
1431.5000
 23
-60.0000
 33
377.0000
 70
15
  0
3DFACE
  5
1020
  8
Elem_Electrical
 10
1516.5000
 20
-60.0000
 30
300.0000
 11
1516.5000
 21
-50.0000
 31
300.0000
 12
1516.5000
 22
-50.0000
 32
377.0000
 13
1516.5000
 23
-60.0000
 33
377.0000
 70
15
  0
3DFACE
  5
1021
  8
Elem_Electrical
 10
1516.5000
 20
-50.0000
 30
300.0000
 11
1431.5000
 21
-50.0000
 31
300.0000
 12
1431.5000
 22
-50.0000
 32
377.0000
 13
1516.5000
 23
-50.0000
 33
377.0000
 70
15
  0
3DFACE
  5
1022
  8
Elem_Electrical
 10
1431.5000
 20
-50.0000
 30
300.0000
 11
1431.5000
 21
-60.0000
 31
300.0000
 12
1431.5000
 22
-60.0000
 32
377.0000
 13
1431.5000
 23
-50.0000
 33
377.0000
 70
15
  0
TEXT
  5
1023
  8
Elem_Label
 10
1431.5000
 20
-55.0000
 30
417.0000
 40
70.0000
 50
0.0000
  1
\U+05E9\U+05E7\U+05E2
  7
STANDARD
  0
INSERT
  5
1024
  8
Electrical
  2
ControlBox
 10
3000.0000
 20
-842.0000
 30
300.0000
 41
1.0000
 42
1.0000
 43
1.0000
 50
270.0000
  0
3DFACE
  5
1025
  8
Elem_Electrical
 10
2940.0000
 20
-799.5000
 30
300.0000
 11
2940.0000
 21
-884.5000
 31
300.0000
 12
2950.0000
 22
-884.5000
 32
300.0000
 13
2950.0000
 23
-799.5000
 33
300.0000
 70
15
  0
3DFACE
  5
1026
  8
Elem_Electrical
 10
2940.0000
 20
-799.5000
 30
377.0000
 11
2940.0000
 21
-884.5000
 31
377.0000
 12
2950.0000
 22
-884.5000
 32
377.0000
 13
2950.0000
 23
-799.5000
 33
377.0000
 70
15
  0
3DFACE
  5
1027
  8
Elem_Electrical
 10
2940.0000
 20
-799.5000
 30
300.0000
 11
2940.0000
 21
-884.5000
 31
300.0000
 12
2940.0000
 22
-884.5000
 32
377.0000
 13
2940.0000
 23
-799.5000
 33
377.0000
 70
15
  0
3DFACE
  5
1028
  8
Elem_Electrical
 10
2940.0000
 20
-884.5000
 30
300.0000
 11
2950.0000
 21
-884.5000
 31
300.0000
 12
2950.0000
 22
-884.5000
 32
377.0000
 13
2940.0000
 23
-884.5000
 33
377.0000
 70
15
  0
3DFACE
  5
1029
  8
Elem_Electrical
 10
2950.0000
 20
-884.5000
 30
300.0000
 11
2950.0000
 21
-799.5000
 31
300.0000
 12
2950.0000
 22
-799.5000
 32
377.0000
 13
2950.0000
 23
-884.5000
 33
377.0000
 70
15
  0
3DFACE
  5
102A
  8
Elem_Electrical
 10
2950.0000
 20
-799.5000
 30
300.0000
 11
2940.0000
 21
-799.5000
 31
300.0000
 12
2940.0000
 22
-799.5000
 32
377.0000
 13
2950.0000
 23
-799.5000
 33
377.0000
 70
15
  0
TEXT
  5
102B
  8
Elem_Label
 10
2945.0000
 20
-799.5000
 30
417.0000
 40
70.0000
 50
450.0000
  1
\U+05EA\U+05E9\U+05EA\U+05D9\U+05EA \U+05D7\U+05E9\U+05DE\U+05DC
  7
STANDARD
  0
ENDSEC
  0
EOF
