  0
SECTION
  2
HEADER
  9
$ACADVER
  1
AC1009
  9
$INSBASE
 10
0.0000
 20
0.0000
 30
0.0000
  9
$EXTMIN
 10
-4623.0000
 20
-5979.0000
 30
0.0000
  9
$EXTMAX
 10
6832.0000
 20
4630.0000
 30
0.0000
  9
$DWGCODEPAGE
  3
ansi_1255
  9
$INSUNITS
 70
4
  9
$LTSCALE
 40
10.0000
  9
$LIMMIN
 10
0.0000
 20
0.0000
  9
$LIMMAX
 10
2000.0000
 20
200.0000
  0
ENDSEC
  0
SECTION
  2
TABLES
  0
TABLE
  2
VPORT
 70
1
  0
VPORT
  2
*ACTIVE
 70
0
 10
0.0000
 20
0.0000
 11
1.0000
 21
1.0000
 12
1104.5000
 22
-674.5000
 13
0.0000
 23
0.0000
 14
10.0000
 24
10.0000
 15
10.0000
 25
10.0000
 16
0.0000
 26
0.0000
 36
1.0000
 17
0.0000
 27
0.0000
 37
0.0000
 40
12200.3500
 41
1.6000
 42
50.0000
 43
0.0000
 44
0.0000
 50
0.0000
 51
0.0000
 71
0
 72
100
 73
1
 74
1
 75
0
 76
0
 77
0
 78
0
  0
ENDTAB
  0
TABLE
  2
LTYPE
 70
2
  0
LTYPE
  2
CONTINUOUS
 70
0
  3
Solid line
 72
65
 73
0
 40
0.0000
  0
LTYPE
  2
HIDDEN
 70
0
  3
Hidden . . . . . .
 72
65
 73
2
 40
9.5250
 49
6.3500
 49
-3.1750
  0
ENDTAB
  0
TABLE
  2
LAYER
 70
27
  0
LAYER
  2
0
 70
0
 62
7
  6
CONTINUOUS
  0
LAYER
  2
Walls
 70
0
 62
253
  6
CONTINUOUS
  0
LAYER
  2
Ext_Wall
 70
0
 62
5
  6
CONTINUOUS
  0
LAYER
  2
Walls_Fill
 70
0
 62
253
  6
CONTINUOUS
  0
LAYER
  2
Const_Doors
 70
0
 62
5
  6
CONTINUOUS
  0
LAYER
  2
Const_Windows
 70
0
 62
152
  6
CONTINUOUS
  0
LAYER
  2
Electrical
 70
0
 62
6
  6
CONTINUOUS
  0
LAYER
  2
Dim_Power
 70
0
 62
6
  6
CONTINUOUS
  0
LAYER
  2
Plumbing
 70
0
 62
150
  6
CONTINUOUS
  0
LAYER
  2
Dim_Plumbing
 70
0
 62
150
  6
CONTINUOUS
  0
LAYER
  2
Gas
 70
0
 62
2
  6
CONTINUOUS
  0
LAYER
  2
Dim_Gas
 70
0
 62
2
  6
CONTINUOUS
  0
LAYER
  2
HVAC
 70
0
 62
4
  6
CONTINUOUS
  0
LAYER
  2
Dim_HVAC
 70
0
 62
4
  6
CONTINUOUS
  0
LAYER
  2
Lighting
 70
0
 62
30
  6
CONTINUOUS
  0
LAYER
  2
Dim_Lighting
 70
0
 62
30
  6
CONTINUOUS
  0
LAYER
  2
Structural
 70
0
 62
8
  6
CONTINUOUS
  0
LAYER
  2
Dim_Struct
 70
0
 62
8
  6
CONTINUOUS
  0
LAYER
  2
Misc
 70
0
 62
7
  6
CONTINUOUS
  0
LAYER
  2
Dim_Misc
 70
0
 62
7
  6
CONTINUOUS
  0
LAYER
  2
DIM
 70
0
 62
9
  6
CONTINUOUS
  0
LAYER
  2
Dim_overall
 70
0
 62
9
  6
CONTINUOUS
  0
LAYER
  2
Text
 70
0
 62
74
  6
CONTINUOUS
  0
LAYER
  2
Text_Legend
 70
0
 62
74
  6
CONTINUOUS
  0
LAYER
  2
Text_Title
 70
0
 62
74
  6
CONTINUOUS
  0
LAYER
  2
PicNumber
 70
0
 62
74
  6
CONTINUOUS
  0
LAYER
  2
Frame
 70
0
 62
7
  6
CONTINUOUS
  0
ENDTAB
  0
TABLE
  2
STYLE
 70
1
  0
STYLE
  2
STANDARD
 70
0
 40
0.0000
 41
1.0000
 50
0.0000
 71
0
 42
2.5000
  3
ARIAL.TTF
  4

  0
ENDTAB
  0
ENDSEC
  0
SECTION
  2
BLOCKS
  0
BLOCK
  8
0
  2
SOCKET
 70
0
 10
0.0000
 20
0.0000
 30
0.0000
  0
LINE
  5
1D1
  8
0
 10
0.0000
 20
0.0000
 30
0.0000
 11
0.0000
 21
40.0000
 31
0.0000
  0
ARC
  5
1D2
  8
0
 10
0.0000
 20
130.0000
 30
0.0000
 40
90.0000
 50
0.0000
 51
360.0000
  0
LINE
  5
1D3
  8
0
 10
-90.0000
 20
130.0000
 30
0.0000
 11
90.0000
 21
130.0000
 31
0.0000
  0
LINE
  5
1D4
  8
0
 10
-30.0000
 20
104.0000
 30
0.0000
 11
-30.0000
 21
156.0000
 31
0.0000
  0
LINE
  5
1D5
  8
0
 10
30.0000
 20
104.0000
 30
0.0000
 11
30.0000
 21
156.0000
 31
0.0000
  0
ENDBLK
  5
1D6
  8
0
  0
BLOCK
  8
0
  2
PANEL
 70
0
 10
0.0000
 20
0.0000
 30
0.0000
  0
LINE
  5
1D7
  8
0
 10
-120.0000
 20
20.0000
 30
0.0000
 11
120.0000
 21
20.0000
 31
0.0000
  0
LINE
  5
1D8
  8
0
 10
120.0000
 20
20.0000
 30
0.0000
 11
120.0000
 21
200.0000
 31
0.0000
  0
LINE
  5
1D9
  8
0
 10
120.0000
 20
200.0000
 30
0.0000
 11
-120.0000
 21
200.0000
 31
0.0000
  0
LINE
  5
1DA
  8
0
 10
-120.0000
 20
200.0000
 30
0.0000
 11
-120.0000
 21
20.0000
 31
0.0000
  0
LINE
  5
1DB
  8
0
 10
-120.0000
 20
20.0000
 30
0.0000
 11
120.0000
 21
200.0000
 31
0.0000
  0
ENDBLK
  5
1DC
  8
0
  0
BLOCK
  8
0
  2
WATER
 70
0
 10
0.0000
 20
0.0000
 30
0.0000
  0
LINE
  5
1DD
  8
0
 10
0.0000
 20
0.0000
 30
0.0000
 11
0.0000
 21
24.0000
 31
0.0000
  0
ARC
  5
1DE
  8
0
 10
0.0000
 20
114.0000
 30
0.0000
 40
90.0000
 50
0.0000
 51
360.0000
  0
LINE
  5
1DF
  8
0
 10
-70.0000
 20
114.0000
 30
0.0000
 11
70.0000
 21
114.0000
 31
0.0000
  0
LINE
  5
1E0
  8
0
 10
0.0000
 20
44.0000
 30
0.0000
 11
0.0000
 21
184.0000
 31
0.0000
  0
ENDBLK
  5
1E1
  8
0
  0
ENDSEC
  0
SECTION
  2
ENTITIES
  0
SOLID
  5
100
  8
Walls_Fill
 10
1993.0505
 20
2279.5764
 30
0.0000
 11
1989.8504
 21
-3527.9835
 31
0.0000
 12
1893.0506
 22
2279.6315
 32
0.0000
 13
1889.8505
 23
-3527.9284
 33
0.0000
  0
LINE
  5
101
  8
Ext_Wall
 10
1993.0505
 20
2279.5764
 30
0.0000
 11
1989.8504
 21
-3527.9835
 31
0.0000
  0
LINE
  5
102
  8
Walls
 10
1893.0506
 20
2279.6315
 30
0.0000
 11
1889.8505
 21
-3527.9284
 31
0.0000
  0
LINE
  5
103
  8
Walls
 10
1993.0505
 20
2279.5764
 30
0.0000
 11
1893.0506
 21
2279.6315
 31
0.0000
  0
LINE
  5
104
  8
Walls
 10
1989.8504
 20
-3527.9835
 30
0.0000
 11
1889.8505
 21
-3527.9284
 31
0.0000
  0
SOLID
  5
105
  8
Walls_Fill
 10
1989.9869
 20
-3527.8469
 30
0.0000
 11
511.8961
 21
-3531.0699
 31
0.0000
 12
1989.7689
 22
-3427.8471
 32
0.0000
 13
511.6781
 23
-3431.0701
 33
0.0000
  0
LINE
  5
106
  8
Ext_Wall
 10
1989.9869
 20
-3527.8469
 30
0.0000
 11
511.8961
 21
-3531.0699
 31
0.0000
  0
LINE
  5
107
  8
Walls
 10
1989.7689
 20
-3427.8471
 30
0.0000
 11
511.6781
 21
-3431.0701
 31
0.0000
  0
LINE
  5
108
  8
Walls
 10
1989.9869
 20
-3527.8469
 30
0.0000
 11
1989.7689
 21
-3427.8471
 31
0.0000
  0
LINE
  5
109
  8
Walls
 10
511.8961
 20
-3531.0699
 30
0.0000
 11
511.6781
 21
-3431.0701
 31
0.0000
  0
SOLID
  5
10A
  8
Walls_Fill
 10
-844.5320
 20
-1345.2328
 30
0.0000
 11
-2277.7158
 21
-1306.6690
 31
0.0000
 12
-841.8422
 22
-1245.2690
 32
0.0000
 13
-2275.0260
 23
-1206.7052
 33
0.0000
  0
LINE
  5
10B
  8
Ext_Wall
 10
-844.5320
 20
-1345.2328
 30
0.0000
 11
-2277.7158
 21
-1306.6690
 31
0.0000
  0
LINE
  5
10C
  8
Walls
 10
-841.8422
 20
-1245.2690
 30
0.0000
 11
-2275.0260
 21
-1206.7052
 31
0.0000
  0
LINE
  5
10D
  8
Walls
 10
-844.5320
 20
-1345.2328
 30
0.0000
 11
-841.8422
 21
-1245.2690
 31
0.0000
  0
LINE
  5
10E
  8
Walls
 10
-2277.7158
 20
-1306.6690
 30
0.0000
 11
-2275.0260
 21
-1206.7052
 31
0.0000
  0
SOLID
  5
10F
  8
Walls_Fill
 10
-2276.9695
 20
-1308.6642
 30
0.0000
 11
-2258.7282
 21
2279.8575
 31
0.0000
 12
-2176.9708
 22
-1309.1725
 32
0.0000
 13
-2158.7295
 23
2279.3492
 33
0.0000
  0
LINE
  5
110
  8
Ext_Wall
 10
-2276.9695
 20
-1308.6642
 30
0.0000
 11
-2258.7282
 21
2279.8575
 31
0.0000
  0
LINE
  5
111
  8
Walls
 10
-2176.9708
 20
-1309.1725
 30
0.0000
 11
-2158.7295
 21
2279.3492
 31
0.0000
  0
LINE
  5
112
  8
Walls
 10
-2276.9695
 20
-1308.6642
 30
0.0000
 11
-2176.9708
 21
-1309.1725
 31
0.0000
  0
LINE
  5
113
  8
Walls
 10
-2258.7282
 20
2279.8575
 30
0.0000
 11
-2158.7295
 21
2279.3492
 31
0.0000
  0
SOLID
  5
114
  8
Walls_Fill
 10
-2258.9830
 20
2279.6040
 30
0.0000
 11
1993.0230
 21
2279.6040
 31
0.0000
 12
-2258.9830
 22
2179.6040
 32
0.0000
 13
1993.0230
 23
2179.6040
 33
0.0000
  0
LINE
  5
115
  8
Ext_Wall
 10
-2258.9830
 20
2279.6040
 30
0.0000
 11
1993.0230
 21
2279.6040
 31
0.0000
  0
LINE
  5
116
  8
Walls
 10
-2258.9830
 20
2179.6040
 30
0.0000
 11
1993.0230
 21
2179.6040
 31
0.0000
  0
LINE
  5
117
  8
Walls
 10
-2258.9830
 20
2279.6040
 30
0.0000
 11
-2258.9830
 21
2179.6040
 31
0.0000
  0
LINE
  5
118
  8
Walls
 10
1993.0230
 20
2279.6040
 30
0.0000
 11
1993.0230
 21
2179.6040
 31
0.0000
  0
LINE
  5
119
  8
DIM
 10
1943.0230
 20
2229.6040
 30
0.0000
 11
2313.0229
 21
2229.4001
 31
0.0000
  0
LINE
  5
11A
  8
DIM
 10
1939.8780
 20
-3477.9560
 30
0.0000
 11
2309.8779
 21
-3478.1599
 31
0.0000
  0
LINE
  5
11B
  8
DIM
 10
2253.0230
 20
2229.4332
 30
0.0000
 11
2249.8780
 21
-3478.1268
 31
0.0000
  0
SOLID
  5
11C
  8
DIM
 10
2253.0230
 20
2229.4332
 30
0.0000
 11
2281.0725
 21
2319.4177
 31
0.0000
 12
2225.0725
 22
2319.4486
 32
0.0000
 13
2225.0725
 23
2319.4486
 33
0.0000
  0
SOLID
  5
11D
  8
DIM
 10
2249.8780
 20
-3478.1268
 30
0.0000
 11
2277.8284
 21
-3568.1422
 31
0.0000
 12
2221.8284
 22
-3568.1114
 32
0.0000
 13
2221.8284
 23
-3568.1114
 33
0.0000
  0
TEXT
  5
11E
  8
DIM
 10
2316.9504
 20
-624.3829
 30
0.0000
 40
131.0000
  1
570.8
 50
89.9684
  7
STANDARD
 72
1
 73
2
 11
2316.9504
 21
-624.3829
 31
0.0000
  0
LINE
  5
11F
  8
DIM
 10
1939.8780
 20
-3477.9560
 30
0.0000
 11
1940.6848
 21
-3847.9551
 31
0.0000
  0
LINE
  5
120
  8
DIM
 10
561.7870
 20
-3480.9610
 30
0.0000
 11
562.5938
 21
-3850.9601
 31
0.0000
  0
LINE
  5
121
  8
DIM
 10
1940.5540
 20
-3787.9553
 30
0.0000
 11
562.4630
 21
-3790.9603
 31
0.0000
  0
SOLID
  5
122
  8
DIM
 10
1940.5540
 20
-3787.9553
 30
0.0000
 11
2030.6148
 21
-3815.7589
 31
0.0000
 12
2030.4927
 22
-3759.7591
 32
0.0000
 13
2030.4927
 23
-3759.7591
 33
0.0000
  0
SOLID
  5
123
  8
DIM
 10
562.4630
 20
-3790.9603
 30
0.0000
 11
472.5242
 21
-3819.1564
 31
0.0000
 12
472.4021
 22
-3763.1566
 32
0.0000
 13
472.4021
 23
-3763.1566
 33
0.0000
  0
TEXT
  5
124
  8
DIM
 10
1251.6513
 20
-3854.9576
 30
0.0000
 40
131.0000
  1
137.8
 50
0.1249
  7
STANDARD
 72
1
 73
2
 11
1251.6513
 21
-3854.9576
 31
0.0000
  0
LINE
  5
125
  8
DIM
 10
-893.1690
 20
-1293.9060
 30
0.0000
 11
-903.1213
 21
-1663.7721
 31
0.0000
  0
LINE
  5
126
  8
DIM
 10
-2226.3890
 20
-1258.0320
 30
0.0000
 11
-2236.3413
 21
-1627.8981
 31
0.0000
  0
LINE
  5
127
  8
DIM
 10
-901.5074
 20
-1603.7938
 30
0.0000
 11
-2234.7274
 21
-1567.9198
 31
0.0000
  0
SOLID
  5
128
  8
DIM
 10
-901.5074
 20
-1603.7938
 30
0.0000
 11
-812.2931
 21
-1634.2045
 31
0.0000
 12
-810.7868
 22
-1578.2248
 32
0.0000
 13
-810.7868
 23
-1578.2248
 33
0.0000
  0
SOLID
  5
129
  8
DIM
 10
-2234.7274
 20
-1567.9198
 30
0.0000
 11
-2325.4480
 21
-1593.4889
 31
0.0000
 12
-2323.9417
 22
-1537.5091
 32
0.0000
 13
-2323.9417
 23
-1537.5091
 33
0.0000
  0
TEXT
  5
12A
  8
DIM
 10
-1569.8792
 20
-1651.3331
 30
0.0000
 40
131.0000
  1
133.4
 50
358.4587
  7
STANDARD
 72
1
 73
2
 11
-1569.8792
 21
-1651.3331
 31
0.0000
  0
LINE
  5
12B
  8
DIM
 10
-2226.7160
 20
-1258.9190
 30
0.0000
 11
-2596.7112
 21
-1257.0382
 31
0.0000
  0
LINE
  5
12C
  8
DIM
 10
-2208.9830
 20
2229.6040
 30
0.0000
 11
-2578.9782
 21
2231.4848
 31
0.0000
  0
LINE
  5
12D
  8
DIM
 10
-2536.7120
 20
-1257.3432
 30
0.0000
 11
-2518.9790
 21
2231.1798
 31
0.0000
  0
SOLID
  5
12E
  8
DIM
 10
-2536.7120
 20
-1257.3432
 30
0.0000
 11
-2565.1691
 21
-1347.1997
 31
0.0000
 12
-2509.1698
 22
-1347.4844
 32
0.0000
 13
-2509.1698
 23
-1347.4844
 33
0.0000
  0
SOLID
  5
12F
  8
DIM
 10
-2518.9790
 20
2231.1798
 30
0.0000
 11
-2546.5211
 21
2321.3210
 31
0.0000
 12
-2490.5219
 22
2321.0363
 32
0.0000
 13
-2490.5219
 23
2321.0363
 33
0.0000
  0
TEXT
  5
130
  8
DIM
 10
-2593.3446
 20
487.2512
 30
0.0000
 40
131.0000
  1
348.9
 50
89.7088
  7
STANDARD
 72
1
 73
2
 11
-2593.3446
 21
487.2512
 31
0.0000
  0
LINE
  5
131
  8
DIM
 10
-2208.9830
 20
2229.6040
 30
0.0000
 11
-2208.9830
 21
2599.6040
 31
0.0000
  0
LINE
  5
132
  8
DIM
 10
1943.0230
 20
2229.6040
 30
0.0000
 11
1943.0230
 21
2599.6040
 31
0.0000
  0
LINE
  5
133
  8
DIM
 10
-2208.9830
 20
2539.6040
 30
0.0000
 11
1943.0230
 21
2539.6040
 31
0.0000
  0
SOLID
  5
134
  8
DIM
 10
-2208.9830
 20
2539.6040
 30
0.0000
 11
-2298.9830
 21
2567.6040
 31
0.0000
 12
-2298.9830
 22
2511.6040
 32
0.0000
 13
-2298.9830
 23
2511.6040
 33
0.0000
  0
SOLID
  5
135
  8
DIM
 10
1943.0230
 20
2539.6040
 30
0.0000
 11
2033.0230
 21
2567.6040
 31
0.0000
 12
2033.0230
 22
2511.6040
 32
0.0000
 13
2033.0230
 23
2511.6040
 33
0.0000
  0
TEXT
  5
136
  8
DIM
 10
-132.9800
 20
2605.1040
 30
0.0000
 40
131.0000
  1
415.2
 50
0.0000
  7
STANDARD
 72
1
 73
2
 11
-132.9800
 21
2605.1040
 31
0.0000
  0
LINE
  5
137
  8
Const_Windows
 10
1962.0866
 20
-3528.2145
 30
0.0000
 11
1062.0880
 21
-3529.7853
 31
0.0000
  0
LINE
  5
138
  8
Const_Windows
 10
1961.9120
 20
-3428.2147
 30
0.0000
 11
1061.9134
 21
-3429.7855
 31
0.0000
  0
LINE
  5
139
  8
Const_Windows
 10
1961.9120
 20
-3428.2147
 30
0.0000
 11
1962.0866
 21
-3528.2145
 31
0.0000
  0
LINE
  5
13A
  8
Const_Windows
 10
1061.9134
 20
-3429.7855
 30
0.0000
 11
1062.0880
 21
-3529.7853
 31
0.0000
  0
LINE
  5
13B
  8
Const_Windows
 10
1961.9993
 20
-3478.2146
 30
0.0000
 11
1062.0007
 21
-3479.7854
 31
0.0000
  0
LINE
  5
13C
  8
DIM
 10
1961.9993
 20
-3478.2146
 30
0.0000
 11
1962.4182
 21
-3718.2142
 31
0.0000
  0
LINE
  5
13D
  8
DIM
 10
1062.0007
 20
-3479.7854
 30
0.0000
 11
1062.4196
 21
-3719.7850
 31
0.0000
  0
LINE
  5
13E
  8
DIM
 10
1962.3135
 20
-3658.2143
 30
0.0000
 11
1062.3148
 21
-3659.7851
 31
0.0000
  0
SOLID
  5
13F
  8
DIM
 10
1962.3135
 20
-3658.2143
 30
0.0000
 11
2052.3622
 21
-3686.0572
 31
0.0000
 12
2052.2645
 22
-3630.0573
 32
0.0000
 13
2052.2645
 23
-3630.0573
 33
0.0000
  0
SOLID
  5
140
  8
DIM
 10
1062.3148
 20
-3659.7851
 30
0.0000
 11
972.3639
 21
-3687.9422
 31
0.0000
 12
972.2661
 22
-3631.9422
 32
0.0000
 13
972.2661
 23
-3631.9422
 33
0.0000
  0
TEXT
  5
141
  8
DIM
 10
1512.4170
 20
-3717.9496
 30
0.0000
 40
117.9000
  1
90
 50
0.1000
  7
STANDARD
 72
1
 73
2
 11
1512.4170
 21
-3717.9496
 31
0.0000
  0
LINE
  5
142
  8
Const_Doors
 10
-827.1542
 20
-1295.7796
 30
0.0000
 11
-850.7135
 21
-2195.4712
 31
0.0000
  0
LINE
  5
143
  8
Const_Doors
 10
-827.1542
 20
-1295.7796
 30
0.0000
 11
-1726.8458
 21
-1272.2204
 31
0.0000
  0
ARC
  5
144
  8
Const_Doors
 10
-827.1542
 20
-1295.7796
 30
0.0000
 40
900.0000
 50
178.5000
 51
-91.5000
  0
LINE
  5
145
  8
DIM
 10
-827.1542
 20
-1295.7796
 30
0.0000
 11
-833.4367
 21
-1535.6974
 31
0.0000
  0
LINE
  5
146
  8
DIM
 10
-1726.8458
 20
-1272.2204
 30
0.0000
 11
-1733.1283
 21
-1512.1381
 31
0.0000
  0
LINE
  5
147
  8
DIM
 10
-831.8661
 20
-1475.7179
 30
0.0000
 11
-1731.5576
 21
-1452.1587
 31
0.0000
  0
SOLID
  5
148
  8
DIM
 10
-831.8661
 20
-1475.7179
 30
0.0000
 11
-742.6298
 21
-1506.0643
 31
0.0000
 12
-741.1639
 22
-1450.0835
 32
0.0000
 13
-741.1639
 23
-1450.0835
 33
0.0000
  0
SOLID
  5
149
  8
DIM
 10
-1731.5576
 20
-1452.1587
 30
0.0000
 11
-1822.2598
 21
-1477.7932
 31
0.0000
 12
-1820.7939
 22
-1421.8124
 32
0.0000
 13
-1820.7939
 23
-1421.8124
 33
0.0000
  0
TEXT
  5
14A
  8
DIM
 10
-1283.2550
 20
-1522.8681
 30
0.0000
 40
117.9000
  1
90
 50
358.5000
  7
STANDARD
 72
1
 73
2
 11
-1283.2550
 21
-1522.8681
 31
0.0000
  0
LINE
  5
14B
  8
Const_Doors
 10
-2225.0944
 20
-858.9945
 30
0.0000
 11
-3025.0834
 21
-854.8057
 31
0.0000
  0
LINE
  5
14C
  8
Const_Doors
 10
-2225.0944
 20
-858.9945
 30
0.0000
 11
-2220.9056
 21
-59.0055
 31
0.0000
  0
ARC
  5
14D
  8
Const_Doors
 10
-2225.0944
 20
-858.9945
 30
0.0000
 40
800.0000
 50
89.7000
 51
179.7000
  0
LINE
  5
14E
  8
DIM
 10
-2225.0944
 20
-858.9945
 30
0.0000
 11
-2465.0911
 21
-857.7379
 31
0.0000
  0
LINE
  5
14F
  8
DIM
 10
-2220.9056
 20
-59.0055
 30
0.0000
 11
-2460.9023
 21
-57.7489
 31
0.0000
  0
LINE
  5
150
  8
DIM
 10
-2405.0919
 20
-858.0520
 30
0.0000
 11
-2400.9031
 21
-58.0630
 31
0.0000
  0
SOLID
  5
151
  8
DIM
 10
-2405.0919
 20
-858.0520
 30
0.0000
 11
-2433.5628
 21
-947.9042
 31
0.0000
 12
-2377.5635
 22
-948.1974
 32
0.0000
 13
-2377.5635
 23
-948.1974
 33
0.0000
  0
SOLID
  5
152
  8
DIM
 10
-2400.9031
 20
-58.0630
 30
0.0000
 11
-2428.4315
 21
32.0824
 31
0.0000
 12
-2372.4323
 22
31.7891
 32
0.0000
 13
-2372.4323
 23
31.7891
 33
0.0000
  0
TEXT
  5
153
  8
DIM
 10
-2461.9467
 20
-457.7489
 30
0.0000
 40
117.9000
  1
80
 50
89.7000
  7
STANDARD
 72
1
 73
2
 11
-2461.9467
 21
-457.7489
 31
0.0000
  0
LINE
  5
154
  8
Const_Doors
 10
-1809.0000
 20
2230.0000
 30
0.0000
 11
-1809.0000
 21
3030.0000
 31
0.0000
  0
LINE
  5
155
  8
Const_Doors
 10
-1809.0000
 20
2230.0000
 30
0.0000
 11
-1009.0000
 21
2230.0000
 31
0.0000
  0
ARC
  5
156
  8
Const_Doors
 10
-1809.0000
 20
2230.0000
 30
0.0000
 40
800.0000
 50
0.0000
 51
90.0000
  0
LINE
  5
157
  8
DIM
 10
-1809.0000
 20
2230.0000
 30
0.0000
 11
-1809.0000
 21
2470.0000
 31
0.0000
  0
LINE
  5
158
  8
DIM
 10
-1009.0000
 20
2230.0000
 30
0.0000
 11
-1009.0000
 21
2470.0000
 31
0.0000
  0
LINE
  5
159
  8
DIM
 10
-1809.0000
 20
2410.0000
 30
0.0000
 11
-1009.0000
 21
2410.0000
 31
0.0000
  0
SOLID
  5
15A
  8
DIM
 10
-1809.0000
 20
2410.0000
 30
0.0000
 11
-1899.0000
 21
2438.0000
 31
0.0000
 12
-1899.0000
 22
2382.0000
 32
0.0000
 13
-1899.0000
 23
2382.0000
 33
0.0000
  0
SOLID
  5
15B
  8
DIM
 10
-1009.0000
 20
2410.0000
 30
0.0000
 11
-919.0000
 21
2438.0000
 31
0.0000
 12
-919.0000
 22
2382.0000
 32
0.0000
 13
-919.0000
 23
2382.0000
 33
0.0000
  0
TEXT
  5
15C
  8
DIM
 10
-1409.0000
 20
2468.9500
 30
0.0000
 40
117.9000
  1
80
 50
0.0000
  7
STANDARD
 72
1
 73
2
 11
-1409.0000
 21
2468.9500
 31
0.0000
  0
INSERT
  5
15D
  8
Electrical
  2
SOCKET
 10
1943.0000
 20
1987.0000
 30
0.0000
 41
1.0000
 42
1.0000
 43
1.0000
 50
270.0000
  0
TEXT
  5
15E
  8
Text
 10
2173.0000
 20
1987.0000
 30
0.0000
 40
107.4200
  1
\U+05E9\U+05E7\U+05E2 \U+05D1\U+05D5\U+05D3\U+05D3
 50
0.0000
  7
STANDARD
 72
1
 73
2
 11
2173.0000
 21
1987.0000
 31
0.0000
  0
TEXT
  5
15F
  8
Electrical
 10
2073.0000
 20
1987.0000
 30
0.0000
 40
107.4200
  1
H 30
 50
0.0000
  7
STANDARD
  0
LINE
  5
160
  8
Dim_Power
 10
1943.0230
 20
2229.6040
 30
0.0000
 11
1733.0230
 21
2229.6239
 31
0.0000
  0
LINE
  5
161
  8
Dim_Power
 10
1943.0000
 20
1987.0000
 30
0.0000
 11
1733.0000
 21
1987.0199
 31
0.0000
  0
LINE
  5
162
  8
Dim_Power
 10
1793.0230
 20
2229.6182
 30
0.0000
 11
1793.0000
 21
1987.0142
 31
0.0000
  0
SOLID
  5
163
  8
Dim_Power
 10
1793.0230
 20
2229.6182
 30
0.0000
 11
1765.0315
 21
2319.6209
 31
0.0000
 12
1821.0315
 22
2319.6156
 32
0.0000
 13
1821.0315
 23
2319.6156
 33
0.0000
  0
SOLID
  5
164
  8
Dim_Power
 10
1793.0000
 20
1987.0142
 30
0.0000
 11
1764.9915
 21
1897.0169
 31
0.0000
 12
1820.9915
 22
1897.0116
 32
0.0000
 13
1820.9915
 23
1897.0116
 33
0.0000
  0
TEXT
  5
165
  8
Dim_Power
 10
1737.3365
 20
2108.3215
 30
0.0000
 40
111.3500
  1
24.3
 50
89.9946
  7
STANDARD
 72
1
 73
2
 11
1737.3365
 21
2108.3215
 31
0.0000
  0
INSERT
  5
166
  8
Electrical
  2
SOCKET
 10
1943.0000
 20
1410.0000
 30
0.0000
 41
1.0000
 42
1.0000
 43
1.0000
 50
270.0000
  0
TEXT
  5
167
  8
Text
 10
2173.0000
 20
1410.0000
 30
0.0000
 40
107.4200
  1
\U+05D2\U+05D6
 50
0.0000
  7
STANDARD
 72
1
 73
2
 11
2173.0000
 21
1410.0000
 31
0.0000
  0
TEXT
  5
168
  8
Electrical
 10
2073.0000
 20
1410.0000
 30
0.0000
 40
107.4200
  1
H 50
 50
0.0000
  7
STANDARD
  0
LINE
  5
169
  8
Dim_Power
 10
1943.0230
 20
2229.6040
 30
0.0000
 11
1733.0230
 21
2229.6099
 31
0.0000
  0
LINE
  5
16A
  8
Dim_Power
 10
1943.0000
 20
1410.0000
 30
0.0000
 11
1733.0000
 21
1410.0059
 31
0.0000
  0
LINE
  5
16B
  8
Dim_Power
 10
1793.0230
 20
2229.6082
 30
0.0000
 11
1793.0000
 21
1410.0042
 31
0.0000
  0
SOLID
  5
16C
  8
Dim_Power
 10
1793.0230
 20
2229.6082
 30
0.0000
 11
1765.0255
 21
2319.6090
 31
0.0000
 12
1821.0255
 22
2319.6074
 32
0.0000
 13
1821.0255
 23
2319.6074
 33
0.0000
  0
SOLID
  5
16D
  8
Dim_Power
 10
1793.0000
 20
1410.0042
 30
0.0000
 11
1764.9975
 21
1320.0050
 31
0.0000
 12
1820.9975
 22
1320.0034
 32
0.0000
 13
1820.9975
 23
1320.0034
 33
0.0000
  0
TEXT
  5
16E
  8
Dim_Power
 10
1737.3365
 20
1819.8078
 30
0.0000
 40
111.3500
  1
82
 50
89.9984
  7
STANDARD
 72
1
 73
2
 11
1737.3365
 21
1819.8078
 31
0.0000
  0
INSERT
  5
16F
  8
Electrical
  2
SOCKET
 10
1660.0000
 20
-3479.0000
 30
0.0000
 41
1.0000
 42
1.0000
 43
1.0000
 50
180.1000
  0
TEXT
  5
170
  8
Text
 10
1660.4014
 20
-3708.9996
 30
0.0000
 40
107.4200
  1
\U+05E9\U+05E7\U+05E2 \U+05DE\U+05E8\U+05D5\U+05D1\U+05E2
 50
0.0000
  7
STANDARD
 72
1
 73
2
 11
1660.4014
 21
-3708.9996
 31
0.0000
  0
TEXT
  5
171
  8
Electrical
 10
1730.1047
 20
-3538.9999
 30
0.0000
 40
107.4200
  1
H 30
 50
0.0000
  7
STANDARD
  0
LINE
  5
172
  8
Dim_Power
 10
1939.8780
 20
-3477.9560
 30
0.0000
 11
1939.0947
 21
-3267.9575
 31
0.0000
  0
LINE
  5
173
  8
Dim_Power
 10
1660.0000
 20
-3479.0000
 30
0.0000
 11
1659.2167
 21
-3269.0015
 31
0.0000
  0
LINE
  5
174
  8
Dim_Power
 10
1939.3185
 20
-3327.9570
 30
0.0000
 11
1659.4405
 21
-3329.0010
 31
0.0000
  0
SOLID
  5
175
  8
Dim_Power
 10
1939.3185
 20
-3327.9570
 30
0.0000
 11
2029.2134
 21
-3299.6215
 31
0.0000
 12
2029.4223
 22
-3355.6211
 32
0.0000
 13
2029.4223
 23
-3355.6211
 33
0.0000
  0
SOLID
  5
176
  8
Dim_Power
 10
1659.4405
 20
-3329.0010
 30
0.0000
 11
1569.3367
 21
-3301.3370
 31
0.0000
 12
1569.5455
 22
-3357.3366
 32
0.0000
 13
1569.5455
 23
-3357.3366
 33
0.0000
  0
TEXT
  5
177
  8
Dim_Power
 10
1799.1718
 20
-3272.8044
 30
0.0000
 40
111.3500
  1
28
 50
0.2137
  7
STANDARD
 72
1
 73
2
 11
1799.1718
 21
-3272.8044
 31
0.0000
  0
INSERT
  5
178
  8
Electrical
  2
SOCKET
 10
1412.0000
 20
-3479.0000
 30
0.0000
 41
1.0000
 42
1.0000
 43
1.0000
 50
180.1000
  0
TEXT
  5
179
  8
Text
 10
1412.4014
 20
-3708.9996
 30
0.0000
 40
107.4200
  1
\U+05D4\U+05E0\U+05DE\U+05DB\U+05EA \U+05EA\U+05E7\U+05E8\U+05D4 \U+05E2\U+05DD \U+05DE\U+05D6\U+05D2\U+05DF
 50
0.0000
  7
STANDARD
 72
1
 73
2
 11
1412.4014
 21
-3708.9996
 31
0.0000
  0
TEXT
  5
17A
  8
Electrical
 10
1482.1047
 20
-3538.9999
 30
0.0000
 40
107.4200
  1
H 222.6
 50
0.0000
  7
STANDARD
  0
LINE
  5
17B
  8
Dim_Power
 10
1939.8780
 20
-3477.9560
 30
0.0000
 11
1939.4627
 21
-3267.9564
 31
0.0000
  0
LINE
  5
17C
  8
Dim_Power
 10
1412.0000
 20
-3479.0000
 30
0.0000
 11
1411.5847
 21
-3269.0004
 31
0.0000
  0
LINE
  5
17D
  8
Dim_Power
 10
1939.5813
 20
-3327.9563
 30
0.0000
 11
1411.7033
 21
-3329.0003
 31
0.0000
  0
SOLID
  5
17E
  8
Dim_Power
 10
1939.5813
 20
-3327.9563
 30
0.0000
 11
2029.5258
 21
-3299.7784
 31
0.0000
 12
2029.6365
 22
-3355.7782
 32
0.0000
 13
2029.6365
 23
-3355.7782
 33
0.0000
  0
SOLID
  5
17F
  8
Dim_Power
 10
1411.7033
 20
-3329.0003
 30
0.0000
 11
1321.6481
 21
-3301.1783
 31
0.0000
 12
1321.7589
 22
-3357.1782
 32
0.0000
 13
1321.7589
 23
-3357.1782
 33
0.0000
  0
TEXT
  5
180
  8
Dim_Power
 10
1675.5322
 20
-3272.8034
 30
0.0000
 40
111.3500
  1
52.8
 50
0.1133
  7
STANDARD
 72
1
 73
2
 11
1675.5322
 21
-3272.8034
 31
0.0000
  0
INSERT
  5
181
  8
Electrical
  2
PANEL
 10
-1118.0000
 20
-1288.0000
 30
0.0000
 41
1.0000
 42
1.0000
 43
1.0000
 50
178.5000
  0
TEXT
  5
182
  8
Text
 10
-1124.0207
 20
-1517.9212
 30
0.0000
 40
107.4200
  1
\U+05EA\U+05E9\U+05EA\U+05D9\U+05EA \U+05D7\U+05E9\U+05DE\U+05DC -\U+05E7\U+05D9\U+05E8
 50
0.0000
  7
STANDARD
 72
1
 73
2
 11
-1124.0207
 21
-1517.9212
 31
0.0000
  0
TEXT
  5
183
  8
Electrical
 10
-1049.5706
 20
-1347.9794
 30
0.0000
 40
107.4200
  1
H 30
 50
0.0000
  7
STANDARD
  0
LINE
  5
184
  8
Dim_Power
 10
-893.1690
 20
-1293.9060
 30
0.0000
 11
-887.6545
 21
-1083.9784
 31
0.0000
  0
LINE
  5
185
  8
Dim_Power
 10
-1118.0000
 20
-1288.0000
 30
0.0000
 11
-1112.4855
 21
-1078.0724
 31
0.0000
  0
LINE
  5
186
  8
Dim_Power
 10
-889.2301
 20
-1143.9577
 30
0.0000
 11
-1114.0611
 21
-1138.0517
 31
0.0000
  0
SOLID
  5
187
  8
Dim_Power
 10
-889.2301
 20
-1143.9577
 30
0.0000
 11
-798.5258
 21
-1118.3307
 31
0.0000
 12
-799.9964
 22
-1174.3114
 32
0.0000
 13
-799.9964
 23
-1174.3114
 33
0.0000
  0
SOLID
  5
188
  8
Dim_Power
 10
-1114.0611
 20
-1138.0517
 30
0.0000
 11
-1203.2948
 21
-1107.6980
 31
0.0000
 12
-1204.7653
 22
-1163.6787
 32
0.0000
 13
-1204.7653
 23
-1163.6787
 33
0.0000
  0
TEXT
  5
189
  8
Dim_Power
 10
-1000.1836
 20
-1085.3489
 30
0.0000
 40
111.3500
  1
22.5
 50
358.4953
  7
STANDARD
 72
1
 73
2
 11
-1000.1836
 21
-1085.3489
 31
0.0000
  0
INSERT
  5
18A
  8
Electrical
  2
SOCKET
 10
-2226.0000
 20
-1039.0000
 30
0.0000
 41
1.0000
 42
1.0000
 43
1.0000
 50
89.7000
  0
TEXT
  5
18B
  8
Text
 10
-2455.9968
 20
-1037.7957
 30
0.0000
 40
107.4200
  1
\U+05DE\U+05D9\U+05DD
 50
0.0000
  7
STANDARD
 72
1
 73
2
 11
-2455.9968
 21
-1037.7957
 31
0.0000
  0
TEXT
  5
18C
  8
Electrical
 10
-2215.9992
 20
-1038.6858
 30
0.0000
 40
107.4200
  1
H 30
 50
0.0000
  7
STANDARD
  0
LINE
  5
18D
  8
Dim_Power
 10
-2226.7160
 20
-1258.9190
 30
0.0000
 11
-2016.7171
 21
-1259.6027
 31
0.0000
  0
LINE
  5
18E
  8
Dim_Power
 10
-2226.0000
 20
-1039.0000
 30
0.0000
 11
-2016.0011
 21
-1039.6837
 31
0.0000
  0
LINE
  5
18F
  8
Dim_Power
 10
-2076.7168
 20
-1259.4074
 30
0.0000
 11
-2076.0008
 21
-1039.4884
 31
0.0000
  0
SOLID
  5
190
  8
Dim_Power
 10
-2076.7168
 20
-1259.4074
 30
0.0000
 11
-2049.0100
 21
-1349.4980
 31
0.0000
 12
-2105.0097
 22
-1349.3157
 32
0.0000
 13
-2105.0097
 23
-1349.3157
 33
0.0000
  0
SOLID
  5
191
  8
Dim_Power
 10
-2076.0008
 20
-1039.4884
 30
0.0000
 11
-2047.7079
 21
-949.5800
 31
0.0000
 12
-2103.7076
 22
-949.3977
 32
0.0000
 13
-2103.7076
 23
-949.3977
 33
0.0000
  0
TEXT
  5
192
  8
Dim_Power
 10
-2020.6841
 20
-1149.6291
 30
0.0000
 40
111.3500
  1
22
 50
89.8135
  7
STANDARD
 72
1
 73
2
 11
-2020.6841
 21
-1149.6291
 31
0.0000
  0
INSERT
  5
193
  8
Plumbing
  2
WATER
 10
-2009.0000
 20
2230.0000
 30
0.0000
 41
1.0000
 42
1.0000
 43
1.0000
 50
0.0000
  0
TEXT
  5
194
  8
Text
 10
-2009.0000
 20
2460.0000
 30
0.0000
 40
107.4200
  1
\U+05EA\U+05DE\U+05D94
 50
0.0000
  7
STANDARD
 72
1
 73
2
 11
-2009.0000
 21
2460.0000
 31
0.0000
  0
TEXT
  5
195
  8
Plumbing
 10
-1939.0000
 20
2290.0000
 30
0.0000
 40
107.4200
  1
H 30
 50
0.0000
  7
STANDARD
  0
LINE
  5
196
  8
Dim_Plumbing
 10
-2208.9830
 20
2229.6040
 30
0.0000
 11
-2208.5672
 21
2019.6044
 31
0.0000
  0
LINE
  5
197
  8
Dim_Plumbing
 10
-2009.0000
 20
2230.0000
 30
0.0000
 11
-2008.5842
 21
2020.0004
 31
0.0000
  0
LINE
  5
198
  8
Dim_Plumbing
 10
-2208.6860
 20
2079.6043
 30
0.0000
 11
-2008.7030
 21
2080.0003
 31
0.0000
  0
SOLID
  5
199
  8
Dim_Plumbing
 10
-2208.6860
 20
2079.6043
 30
0.0000
 11
-2298.6304
 21
2051.4261
 31
0.0000
 12
-2298.7412
 22
2107.4260
 32
0.0000
 13
-2298.7412
 23
2107.4260
 33
0.0000
  0
SOLID
  5
19A
  8
Dim_Plumbing
 10
-2008.7030
 20
2080.0003
 30
0.0000
 11
-1918.6477
 21
2052.1786
 31
0.0000
 12
-1918.7586
 22
2108.1785
 32
0.0000
 13
-1918.7586
 23
2108.1785
 33
0.0000
  0
TEXT
  5
19B
  8
Dim_Plumbing
 10
-2108.5842
 20
2024.1274
 30
0.0000
 40
111.3500
  1
20
 50
0.1135
  7
STANDARD
 72
1
 73
2
 11
-2108.5842
 21
2024.1274
 31
0.0000
  0
LINE
  5
19C
  8
Dim_overall
 10
-3023.0000
 20
-4379.0000
 30
0.0000
 11
-3023.0000
 21
-5339.0000
 31
0.0000
  0
LINE
  5
19D
  8
Dim_overall
 10
2412.0000
 20
-4379.0000
 30
0.0000
 11
2412.0000
 21
-5339.0000
 31
0.0000
  0
LINE
  5
19E
  8
Dim_overall
 10
-3023.0000
 20
-5279.0000
 30
0.0000
 11
2412.0000
 21
-5279.0000
 31
0.0000
  0
SOLID
  5
19F
  8
Dim_overall
 10
-3023.0000
 20
-5279.0000
 30
0.0000
 11
-3113.0000
 21
-5307.0000
 31
0.0000
 12
-3113.0000
 22
-5251.0000
 32
0.0000
 13
-3113.0000
 23
-5251.0000
 33
0.0000
  0
SOLID
  5
1A0
  8
Dim_overall
 10
2412.0000
 20
-5279.0000
 30
0.0000
 11
2502.0000
 21
-5307.0000
 31
0.0000
 12
2502.0000
 22
-5251.0000
 32
0.0000
 13
2502.0000
 23
-5251.0000
 33
0.0000
  0
TEXT
  5
1A1
  8
Dim_overall
 10
-305.5000
 20
-5344.5000
 30
0.0000
 40
131.0000
  1
543.5
 50
0.0000
  7
STANDARD
 72
1
 73
2
 11
-305.5000
 21
-5344.5000
 31
0.0000
  0
LINE
  5
1A2
  8
Dim_overall
 10
-3023.0000
 20
-4379.0000
 30
0.0000
 11
-3983.0000
 21
-4379.0000
 31
0.0000
  0
LINE
  5
1A3
  8
Dim_overall
 10
-3023.0000
 20
3030.0000
 30
0.0000
 11
-3983.0000
 21
3030.0000
 31
0.0000
  0
LINE
  5
1A4
  8
Dim_overall
 10
-3923.0000
 20
-4379.0000
 30
0.0000
 11
-3923.0000
 21
3030.0000
 31
0.0000
  0
SOLID
  5
1A5
  8
Dim_overall
 10
-3923.0000
 20
-4379.0000
 30
0.0000
 11
-3951.0000
 21
-4469.0000
 31
0.0000
 12
-3895.0000
 22
-4469.0000
 32
0.0000
 13
-3895.0000
 23
-4469.0000
 33
0.0000
  0
SOLID
  5
1A6
  8
Dim_overall
 10
-3923.0000
 20
3030.0000
 30
0.0000
 11
-3951.0000
 21
3120.0000
 31
0.0000
 12
-3895.0000
 22
3120.0000
 32
0.0000
 13
-3895.0000
 23
3120.0000
 33
0.0000
  0
TEXT
  5
1A7
  8
Dim_overall
 10
-3988.5000
 20
-674.5000
 30
0.0000
 40
131.0000
  1
740.9
 50
90.0000
  7
STANDARD
 72
1
 73
2
 11
-3988.5000
 21
-674.5000
 31
0.0000
  0
TEXT
  5
1A8
  8
Text
 10
-143.6651
 20
-349.5314
 30
0.0000
 40
144.1000
  1
\U+05D7\U+05D3\U+05E8 \U+05D3\U+05DE\U+05D5 \U+2014 \U+05DB\U+05DC \U+05D4\U+05D0\U+05DC\U+05DE\U+05E0\U+05D8\U+05D9\U+05DD
 50
0.0000
  7
STANDARD
 72
1
 73
2
 11
-143.6651
 21
-349.5314
 31
0.0000
  0
TEXT
  5
1A9
  8
PicNumber
 10
-143.6651
 20
-611.5314
 30
0.0000
 40
170.3000
  1
P.1
 50
0.0000
  7
STANDARD
 72
1
 73
2
 11
-143.6651
 21
-611.5314
 31
0.0000
  0
LINE
  5
1AA
  8
Frame
 10
3812.0000
 20
3030.0000
 30
0.0000
 11
6432.0000
 21
3030.0000
 31
0.0000
  0
LINE
  5
1AB
  8
Frame
 10
6432.0000
 20
3030.0000
 30
0.0000
 11
6432.0000
 21
1091.2000
 31
0.0000
  0
LINE
  5
1AC
  8
Frame
 10
6432.0000
 20
1091.2000
 30
0.0000
 11
3812.0000
 21
1091.2000
 31
0.0000
  0
LINE
  5
1AD
  8
Frame
 10
3812.0000
 20
1091.2000
 30
0.0000
 11
3812.0000
 21
3030.0000
 31
0.0000
  0
LINE
  5
1AE
  8
Frame
 10
3812.0000
 20
2689.4000
 30
0.0000
 11
6432.0000
 21
2689.4000
 31
0.0000
  0
TEXT
  5
1AF
  8
Text_Title
 10
6353.4000
 20
2794.2000
 30
0.0000
 40
163.7500
  1
\U+05E1\U+05D5\U+05DC\U+05D9\U+05DF \U+2014 \U+05EA\U+05DB\U+05E0\U+05D9\U+05EA \U+05DE\U+05D3\U+05D9\U+05D3\U+05D4
 50
0.0000
  7
STANDARD
 72
2
 73
2
 11
6353.4000
 21
2794.2000
 31
0.0000
  0
TEXT
  5
1B0
  8
Text_Title
 10
6353.4000
 20
2532.2000
 30
0.0000
 40
131.0000
  1
\U+05E4\U+05E8\U+05D5\U+05D9\U+05E7\U+05D8: measure_export_ALL_elements
 50
0.0000
  7
STANDARD
 72
2
 73
2
 11
6353.4000
 21
2532.2000
 31
0.0000
  0
TEXT
  5
1B1
  8
Text_Title
 10
6353.4000
 20
2270.2000
 30
0.0000
 40
131.0000
  1
\U+05DC\U+05E7\U+05D5\U+05D7: \U+2014
 50
0.0000
  7
STANDARD
 72
2
 73
2
 11
6353.4000
 21
2270.2000
 31
0.0000
  0
TEXT
  5
1B2
  8
Text_Title
 10
6353.4000
 20
2008.2000
 30
0.0000
 40
131.0000
  1
\U+05DB\U+05EA\U+05D5\U+05D1\U+05EA: \U+2014
 50
0.0000
  7
STANDARD
 72
2
 73
2
 11
6353.4000
 21
2008.2000
 31
0.0000
  0
TEXT
  5
1B3
  8
Text_Title
 10
6353.4000
 20
1746.2000
 30
0.0000
 40
131.0000
  1
\U+05DE\U+05D5\U+05D3\U+05D3: \U+2014
 50
0.0000
  7
STANDARD
 72
2
 73
2
 11
6353.4000
 21
1746.2000
 31
0.0000
  0
TEXT
  5
1B4
  8
Text_Title
 10
6353.4000
 20
1484.2000
 30
0.0000
 40
131.0000
  1
\U+05EA\U+05D0\U+05E8\U+05D9\U+05DA: 2026-08-18
 50
0.0000
  7
STANDARD
 72
2
 73
2
 11
6353.4000
 21
1484.2000
 31
0.0000
  0
TEXT
  5
1B5
  8
Text_Title
 10
6353.4000
 20
1222.2000
 30
0.0000
 40
131.0000
  1
\U+05E7\U+05E0"\U+05DE: 1:50   \U+05D9\U+05D7\U+05D9\U+05D3\U+05D5\U+05EA: \U+05DE"\U+05DE
 50
0.0000
  7
STANDARD
 72
2
 73
2
 11
6353.4000
 21
1222.2000
 31
0.0000
  0
LINE
  5
1B6
  8
Frame
 10
3812.0000
 20
763.7000
 30
0.0000
 11
5908.0000
 21
763.7000
 31
0.0000
  0
LINE
  5
1B7
  8
Frame
 10
5908.0000
 20
763.7000
 30
0.0000
 11
5908.0000
 21
-493.9000
 31
0.0000
  0
LINE
  5
1B8
  8
Frame
 10
5908.0000
 20
-493.9000
 30
0.0000
 11
3812.0000
 21
-493.9000
 31
0.0000
  0
LINE
  5
1B9
  8
Frame
 10
3812.0000
 20
-493.9000
 30
0.0000
 11
3812.0000
 21
763.7000
 31
0.0000
  0
TEXT
  5
1BA
  8
Text_Legend
 10
5777.0000
 20
470.2600
 30
0.0000
 40
150.6500
  1
\U+05DE\U+05E7\U+05E8\U+05D0
 50
0.0000
  7
STANDARD
 72
2
 73
2
 11
5777.0000
 21
470.2600
 31
0.0000
  0
LINE
  5
1BB
  8
Electrical
 10
4074.0000
 20
103.4000
 30
0.0000
 11
4074.0000
 21
127.4000
 31
0.0000
  0
ARC
  5
1BC
  8
Electrical
 10
4074.0000
 20
181.4000
 30
0.0000
 40
54.0000
 50
0.0000
 51
360.0000
  0
LINE
  5
1BD
  8
Electrical
 10
4020.0000
 20
181.4000
 30
0.0000
 11
4128.0000
 21
181.4000
 31
0.0000
  0
LINE
  5
1BE
  8
Electrical
 10
4056.0000
 20
165.8000
 30
0.0000
 11
4056.0000
 21
197.0000
 31
0.0000
  0
LINE
  5
1BF
  8
Electrical
 10
4092.0000
 20
165.8000
 30
0.0000
 11
4092.0000
 21
197.0000
 31
0.0000
  0
TEXT
  5
1C0
  8
Text_Legend
 10
5777.0000
 20
134.9000
 30
0.0000
 40
131.0000
  1
\U+05D7\U+05E9\U+05DE\U+05DC
 50
0.0000
  7
STANDARD
 72
2
 73
2
 11
5777.0000
 21
134.9000
 31
0.0000
  0
LINE
  5
1C1
  8
Plumbing
 10
4074.0000
 20
-315.8000
 30
0.0000
 11
4074.0000
 21
-301.4000
 31
0.0000
  0
ARC
  5
1C2
  8
Plumbing
 10
4074.0000
 20
-247.4000
 30
0.0000
 40
54.0000
 50
0.0000
 51
360.0000
  0
LINE
  5
1C3
  8
Plumbing
 10
4032.0000
 20
-247.4000
 30
0.0000
 11
4116.0000
 21
-247.4000
 31
0.0000
  0
LINE
  5
1C4
  8
Plumbing
 10
4074.0000
 20
-289.4000
 30
0.0000
 11
4074.0000
 21
-205.4000
 31
0.0000
  0
TEXT
  5
1C5
  8
Text_Legend
 10
5777.0000
 20
-284.3000
 30
0.0000
 40
131.0000
  1
\U+05D0\U+05D9\U+05E0\U+05E1\U+05D8\U+05DC\U+05E6\U+05D9\U+05D4 / \U+05DE\U+05D9\U+05DD
 50
0.0000
  7
STANDARD
 72
2
 73
2
 11
5777.0000
 21
-284.3000
 31
0.0000
  0
LINE
  5
1C6
  8
Frame
 10
5122.0000
 20
-886.9000
 30
0.0000
 11
5122.0000
 21
-231.9000
 31
0.0000
  0
SOLID
  5
1C7
  8
Frame
 10
5122.0000
 20
-231.9000
 30
0.0000
 11
5056.5000
 21
-362.9000
 31
0.0000
 12
5187.5000
 22
-362.9000
 32
0.0000
 13
5187.5000
 23
-362.9000
 33
0.0000
  0
TEXT
  5
1C8
  8
Frame
 10
5122.0000
 20
-192.6000
 30
0.0000
 40
144.1000
  1
\U+05E6
 50
0.0000
  7
STANDARD
 72
1
 73
3
 11
5122.0000
 21
-192.6000
 31
0.0000
  0
LINE
  5
1C9
  8
Frame
 10
4729.0000
 20
-1083.4000
 30
0.0000
 11
5529.0000
 21
-1083.4000
 31
0.0000
  0
LINE
  5
1CA
  8
Frame
 10
4729.0000
 20
-1083.4000
 30
0.0000
 11
4729.0000
 21
-1148.9000
 31
0.0000
  0
LINE
  5
1CB
  8
Frame
 10
4929.0000
 20
-1083.4000
 30
0.0000
 11
4929.0000
 21
-1148.9000
 31
0.0000
  0
LINE
  5
1CC
  8
Frame
 10
5129.0000
 20
-1083.4000
 30
0.0000
 11
5129.0000
 21
-1148.9000
 31
0.0000
  0
LINE
  5
1CD
  8
Frame
 10
5329.0000
 20
-1083.4000
 30
0.0000
 11
5329.0000
 21
-1148.9000
 31
0.0000
  0
LINE
  5
1CE
  8
Frame
 10
5529.0000
 20
-1083.4000
 30
0.0000
 11
5529.0000
 21
-1148.9000
 31
0.0000
  0
TEXT
  5
1CF
  8
Frame
 10
4729.0000
 20
-1293.0000
 30
0.0000
 40
91.7000
  1
0
 50
0.0000
  7
STANDARD
 72
1
 11
4729.0000
 21
-1293.0000
 31
0.0000
  0
TEXT
  5
1D0
  8
Frame
 10
5529.0000
 20
-1293.0000
 30
0.0000
 40
91.7000
  1
0.8 \U+05DE\U+05F3
 50
0.0000
  7
STANDARD
 72
2
 11
5529.0000
 21
-1293.0000
 31
0.0000
  0
ENDSEC
  0
EOF
