0
SECTION
2
HEADER
9
$INSUNITS
70
4
0
ENDSEC
0
SECTION
2
TABLES
0
TABLE
2
LAYER
70
6
0
LAYER
2
COUNTER
70
0
62
5
6
CONTINUOUS
0
LAYER
2
CUTOUT
70
0
62
1
6
CONTINUOUS
0
LAYER
2
DIM
70
0
62
3
6
CONTINUOUS
0
LAYER
2
TEXT
70
0
62
7
6
CONTINUOUS
0
LAYER
2
SLAB3D
70
0
62
8
6
CONTINUOUS
0
LAYER
2
EDGE3D
70
0
62
5
6
CONTINUOUS
0
ENDTAB
0
ENDSEC
0
SECTION
2
ENTITIES
0
POLYLINE
8
5
66
1
70
1
0
VERTEX
8
5
10
0
20
0
30
0
0
VERTEX
8
5
10
3620
20
0
30
0
0
VERTEX
8
5
10
3620
20
640
30
0
0
VERTEX
8
5
10
0
20
640
30
0
0
SEQEND
8
5
0
TEXT
8
7
10
30
20
580
30
0
40
70
1
MAIN
50
0
0
POLYLINE
8
1
66
1
70
1
0
VERTEX
8
1
10
1350
20
150
30
0
0
VERTEX
8
1
10
1910
20
150
30
0
0
VERTEX
8
1
10
1910
20
550
30
0
0
VERTEX
8
1
10
1350
20
550
30
0
0
SEQEND
8
1
0
TEXT
8
7
10
1358
20
350
30
0
40
55
1
SINK
50
0
0
POLYLINE
8
1
66
1
70
1
0
VERTEX
8
1
10
2500
20
90
30
0
0
VERTEX
8
1
10
3100
20
90
30
0
0
VERTEX
8
1
10
3100
20
610
30
0
0
VERTEX
8
1
10
2500
20
610
30
0
0
SEQEND
8
1
0
TEXT
8
7
10
2508
20
350
30
0
40
55
1
COOKTOP
50
0
0
CIRCLE
8
1
10
1300
20
110
30
0
40
18
0
POLYLINE
8
5
66
1
70
1
0
VERTEX
8
5
10
820
20
1180
30
0
0
VERTEX
8
5
10
2620
20
1180
30
0
0
VERTEX
8
5
10
2620
20
2080
30
0
0
VERTEX
8
5
10
820
20
2080
30
0
0
SEQEND
8
5
0
TEXT
8
7
10
850
20
2020
30
0
40
70
1
ISLAND
50
0
0
POLYLINE
8
1
66
1
70
1
0
VERTEX
8
1
10
1320
20
1480
30
0
0
VERTEX
8
1
10
2020
20
1480
30
0
0
VERTEX
8
1
10
2020
20
1880
30
0
0
VERTEX
8
1
10
1320
20
1880
30
0
0
SEQEND
8
1
0
TEXT
8
7
10
1328
20
1680
30
0
40
55
1
HOB
50
0
0
LINE
8
3
10
0
20
0
30
0
11
0
21
-180
31
0
0
LINE
8
3
10
3620
20
0
30
0
11
3620
21
-180
31
0
0
LINE
8
3
10
0
20
-180
30
0
11
3620
21
-180
31
0
0
LINE
8
3
10
-40
20
-220
30
0
11
40
21
-140
31
0
0
LINE
8
3
10
3580
20
-220
30
0
11
3660
21
-140
31
0
0
TEXT
8
7
10
1722
20
-160
30
0
40
60
1
3620
50
0
0
LINE
8
3
10
3620
20
0
30
0
11
3440
21
0
31
0
0
LINE
8
3
10
3620
20
640
30
0
11
3440
21
640
31
0
0
LINE
8
3
10
3440
20
0
30
0
11
3440
21
640
31
0
0
LINE
8
3
10
3400
20
-40
30
0
11
3480
21
40
31
0
0
LINE
8
3
10
3400
20
600
30
0
11
3480
21
680
31
0
0
TEXT
8
7
10
3374
20
340
30
0
40
60
1
640
50
0
0
LINE
8
3
10
1350
20
550
30
0
11
1350
21
460
31
0
0
LINE
8
3
10
1910
20
550
30
0
11
1910
21
460
31
0
0
LINE
8
3
10
1350
20
460
30
0
11
1910
21
460
31
0
0
LINE
8
3
10
1310
20
420
30
0
11
1390
21
500
31
0
0
LINE
8
3
10
1870
20
420
30
0
11
1950
21
500
31
0
0
TEXT
8
7
10
1564
20
480
30
0
40
60
1
560
50
0
0
ENDSEC
0
EOF
