0
SECTION
2
HEADER
9
$INSUNITS
70
4
0
ENDSEC
0
SECTION
2
TABLES
0
TABLE
2
LAYER
70
6
0
LAYER
2
COUNTER
70
0
62
5
6
CONTINUOUS
0
LAYER
2
CUTOUT
70
0
62
1
6
CONTINUOUS
0
LAYER
2
DIM
70
0
62
3
6
CONTINUOUS
0
LAYER
2
TEXT
70
0
62
7
6
CONTINUOUS
0
LAYER
2
SLAB3D
70
0
62
8
6
CONTINUOUS
0
LAYER
2
EDGE3D
70
0
62
5
6
CONTINUOUS
0
ENDTAB
0
ENDSEC
0
SECTION
2
ENTITIES
0
3DFACE
8
8
10
0
20
0
30
20
11
3620
21
0
31
20
12
3620
22
640
32
20
13
0
23
640
33
20
0
3DFACE
8
8
10
0
20
0
30
0
11
3620
21
0
31
0
12
3620
22
640
32
0
13
0
23
640
33
0
0
3DFACE
8
8
10
0
20
0
30
0
11
3620
21
0
31
0
12
3620
22
0
32
20
13
0
23
0
33
20
0
3DFACE
8
8
10
3620
20
0
30
0
11
3620
21
640
31
0
12
3620
22
640
32
20
13
3620
23
0
33
20
0
3DFACE
8
8
10
3620
20
640
30
0
11
0
21
640
31
0
12
0
22
640
32
20
13
3620
23
640
33
20
0
3DFACE
8
8
10
0
20
640
30
0
11
0
21
0
31
0
12
0
22
0
32
20
13
0
23
640
33
20
0
POLYLINE
8
5
66
1
70
1
0
VERTEX
8
5
10
0
20
0
30
20
0
VERTEX
8
5
10
3620
20
0
30
20
0
VERTEX
8
5
10
3620
20
640
30
20
0
VERTEX
8
5
10
0
20
640
30
20
0
SEQEND
8
5
0
POLYLINE
8
5
66
1
70
1
0
VERTEX
8
5
10
0
20
0
30
0
0
VERTEX
8
5
10
3620
20
0
30
0
0
VERTEX
8
5
10
3620
20
640
30
0
0
VERTEX
8
5
10
0
20
640
30
0
0
SEQEND
8
5
0
POLYLINE
8
1
66
1
70
1
0
VERTEX
8
1
10
1350
20
150
30
20
0
VERTEX
8
1
10
1910
20
150
30
20
0
VERTEX
8
1
10
1910
20
550
30
20
0
VERTEX
8
1
10
1350
20
550
30
20
0
SEQEND
8
1
0
TEXT
8
7
10
1358
20
350
30
0
40
55
1
SINK
50
0
0
POLYLINE
8
1
66
1
70
1
0
VERTEX
8
1
10
2500
20
90
30
20
0
VERTEX
8
1
10
3100
20
90
30
20
0
VERTEX
8
1
10
3100
20
610
30
20
0
VERTEX
8
1
10
2500
20
610
30
20
0
SEQEND
8
1
0
TEXT
8
7
10
2508
20
350
30
0
40
55
1
COOKTOP
50
0
0
CIRCLE
8
1
10
1300
20
110
30
20
40
18
0
3DFACE
8
8
10
820
20
1180
30
20
11
2620
21
1180
31
20
12
2620
22
2080
32
20
13
820
23
2080
33
20
0
3DFACE
8
8
10
820
20
1180
30
0
11
2620
21
1180
31
0
12
2620
22
2080
32
0
13
820
23
2080
33
0
0
3DFACE
8
8
10
820
20
1180
30
0
11
2620
21
1180
31
0
12
2620
22
1180
32
20
13
820
23
1180
33
20
0
3DFACE
8
8
10
2620
20
1180
30
0
11
2620
21
2080
31
0
12
2620
22
2080
32
20
13
2620
23
1180
33
20
0
3DFACE
8
8
10
2620
20
2080
30
0
11
820
21
2080
31
0
12
820
22
2080
32
20
13
2620
23
2080
33
20
0
3DFACE
8
8
10
820
20
2080
30
0
11
820
21
1180
31
0
12
820
22
1180
32
20
13
820
23
2080
33
20
0
POLYLINE
8
5
66
1
70
1
0
VERTEX
8
5
10
820
20
1180
30
20
0
VERTEX
8
5
10
2620
20
1180
30
20
0
VERTEX
8
5
10
2620
20
2080
30
20
0
VERTEX
8
5
10
820
20
2080
30
20
0
SEQEND
8
5
0
POLYLINE
8
5
66
1
70
1
0
VERTEX
8
5
10
820
20
1180
30
0
0
VERTEX
8
5
10
2620
20
1180
30
0
0
VERTEX
8
5
10
2620
20
2080
30
0
0
VERTEX
8
5
10
820
20
2080
30
0
0
SEQEND
8
5
0
POLYLINE
8
1
66
1
70
1
0
VERTEX
8
1
10
1320
20
1480
30
20
0
VERTEX
8
1
10
2020
20
1480
30
20
0
VERTEX
8
1
10
2020
20
1880
30
20
0
VERTEX
8
1
10
1320
20
1880
30
20
0
SEQEND
8
1
0
TEXT
8
7
10
1328
20
1680
30
0
40
55
1
HOB
50
0
0
ENDSEC
0
EOF
