  0
SECTION
  2
HEADER
  9
$ACADVER
  1
AC1009
  9
$INSBASE
 10
0.0000
 20
0.0000
 30
0.0000
  9
$EXTMIN
 10
-2673.0000
 20
-4279.0000
 30
0.0000
  9
$EXTMAX
 10
2212.0000
 20
2680.0000
 30
0.0000
  9
$DWGCODEPAGE
  3
ansi_1255
  9
$INSUNITS
 70
4
  9
$LTSCALE
 40
10.0000
  9
$LIMMIN
 10
0.0000
 20
0.0000
  9
$LIMMAX
 10
2000.0000
 20
200.0000
  0
ENDSEC
  0
SECTION
  2
TABLES
  0
TABLE
  2
VPORT
 70
1
  0
VPORT
  2
*ACTIVE
 70
0
 10
0.0000
 20
0.0000
 11
1.0000
 21
1.0000
 12
-230.5000
 22
-799.5000
 13
0.0000
 23
0.0000
 14
10.0000
 24
10.0000
 15
10.0000
 25
10.0000
 16
0.0000
 26
0.0000
 36
1.0000
 17
0.0000
 27
0.0000
 37
0.0000
 40
7654.9000
 41
1.0000
 42
50.0000
 43
0.0000
 44
0.0000
 50
0.0000
 51
0.0000
 71
0
 72
100
 73
1
 74
1
 75
0
 76
0
 77
0
 78
0
  0
ENDTAB
  0
TABLE
  2
LTYPE
 70
2
  0
LTYPE
  2
CONTINUOUS
 70
0
  3
Solid line
 72
65
 73
0
 40
0.0000
  0
LTYPE
  2
HIDDEN
 70
0
  3
Hidden __ __ __ __ __ __ __ __ __ __ __ __ __ __
 72
65
 73
2
 40
0.3750
 49
0.2500
 49
-0.1250
  0
ENDTAB
  0
TABLE
  2
LAYER
 70
46
  0
LAYER
  2
0
 70
0
 62
7
  6
CONTINUOUS
  0
LAYER
  2
Electrical
 70
0
 62
6
  6
CONTINUOUS
  0
LAYER
  2
Plumbing
 70
0
 62
150
  6
CONTINUOUS
  0
LAYER
  2
Const_Walls
 70
0
 62
253
  6
CONTINUOUS
  0
LAYER
  2
Dim
 70
0
 62
9
  6
CONTINUOUS
  0
LAYER
  2
Text
 70
0
 62
74
  6
CONTINUOUS
  0
LAYER
  2
HVAC
 70
0
 62
4
  6
CONTINUOUS
  0
LAYER
  2
Misc
 70
0
 62
32
  6
HIDDEN
  0
LAYER
  2
Dim_Markers
 70
0
 62
9
  6
CONTINUOUS
  0
LAYER
  2
Dim_Wall
 70
0
 62
9
  6
CONTINUOUS
  0
LAYER
  2
Const_Doors
 70
0
 62
5
  6
CONTINUOUS
  0
LAYER
  2
Const_Windows
 70
0
 62
152
  6
CONTINUOUS
  0
LAYER
  2
Text_Legend
 70
0
 62
74
  6
CONTINUOUS
  0
LAYER
  2
Text_JobInfo
 70
0
 62
74
  6
CONTINUOUS
  0
LAYER
  2
Dim_Overall
 70
0
 62
-9
  6
CONTINUOUS
  0
LAYER
  2
Dim_Embeded
 70
0
 62
-9
  6
CONTINUOUS
  0
LAYER
  2
Dim_Angles_Auto
 70
0
 62
3
  6
CONTINUOUS
  0
LAYER
  2
Text_AreaNo
 70
0
 62
-74
  6
CONTINUOUS
  0
LAYER
  2
Dim_ArcChord
 70
0
 62
9
  6
HIDDEN
  0
LAYER
  2
Const_Walls_Ext
 70
0
 62
253
  6
CONTINUOUS
  0
LAYER
  2
Dim_Verification
 70
0
 62
-9
  6
CONTINUOUS
  0
LAYER
  2
Dim_Radius
 70
0
 62
9
  6
CONTINUOUS
  0
LAYER
  2
Dim_Angles
 70
0
 62
9
  6
CONTINUOUS
  0
LAYER
  2
Z_Other
 70
0
 62
253
  6
CONTINUOUS
  0
LAYER
  2
Const_Stairs
 70
0
 62
253
  6
CONTINUOUS
  0
LAYER
  2
Misc_Cabinets
 70
0
 62
36
  6
CONTINUOUS
  0
LAYER
  2
Z_Scale_Ruler
 70
0
 62
7
  6
CONTINUOUS
  0
LAYER
  2
Const_Fill
 70
0
 62
253
  6
CONTINUOUS
  0
LAYER
  2
Wall_Image
 70
0
 62
7
  6
CONTINUOUS
  0
LAYER
  2
Exterior_walls
 70
0
 62
5
  6
CONTINUOUS
  0
LAYER
  2
HVAC_DIM
 70
0
 62
4
  6
CONTINUOUS
  0
LAYER
  2
HVAC_H
 70
0
 62
4
  6
CONTINUOUS
  0
LAYER
  2
Electrical_DIM
 70
0
 62
6
  6
CONTINUOUS
  0
LAYER
  2
Electrical_H
 70
0
 62
6
  6
CONTINUOUS
  0
LAYER
  2
Plumbing_DIM
 70
0
 62
150
  6
CONTINUOUS
  0
LAYER
  2
Plumbing_H
 70
0
 62
150
  6
CONTINUOUS
  0
LAYER
  2
datum
 70
0
 62
1
  6
CONTINUOUS
  0
LAYER
  2
Elem_Electrical
 70
0
 62
6
  6
CONTINUOUS
  0
LAYER
  2
Elem_Plumbing
 70
0
 62
5
  6
CONTINUOUS
  0
LAYER
  2
Elem_Gas
 70
0
 62
2
  6
CONTINUOUS
  0
LAYER
  2
Elem_HVAC
 70
0
 62
4
  6
CONTINUOUS
  0
LAYER
  2
Elem_Lighting
 70
0
 62
30
  6
CONTINUOUS
  0
LAYER
  2
Elem_Struct
 70
0
 62
8
  6
CONTINUOUS
  0
LAYER
  2
Elem_Opening
 70
0
 62
152
  6
CONTINUOUS
  0
LAYER
  2
Elem_Misc
 70
0
 62
7
  6
CONTINUOUS
  0
LAYER
  2
Elem_Label
 70
0
 62
74
  6
CONTINUOUS
  0
ENDTAB
  0
TABLE
  2
STYLE
 70
1
  0
STYLE
  2
STANDARD
 70
0
 40
0.0000
 41
1.0000
 50
0.0000
 71
0
 42
10.0000
  3
ARIAL.TTF
  4

  0
ENDTAB
  0
ENDSEC
  0
SECTION
  2
BLOCKS
  0
BLOCK
  8
0
  2
CONTROLBOX
 70
0
 10
0.0000
 20
0.0000
 30
0.0000
  0
LINE
  5
1075
  8
0
 10
-90.0000
 20
0.0000
 30
0.0000
 11
90.0000
 21
0.0000
 31
0.0000
  0
LINE
  5
1076
  8
0
 10
90.0000
 20
0.0000
 30
0.0000
 11
90.0000
 21
70.0000
 31
0.0000
  0
LINE
  5
1077
  8
0
 10
90.0000
 20
70.0000
 30
0.0000
 11
-90.0000
 21
70.0000
 31
0.0000
  0
LINE
  5
1078
  8
0
 10
-90.0000
 20
70.0000
 30
0.0000
 11
-90.0000
 21
0.0000
 31
0.0000
  0
LINE
  5
1079
  8
0
 10
-90.0000
 20
0.0000
 30
0.0000
 11
90.0000
 21
70.0000
 31
0.0000
  0
ENDBLK
  5
107A
  8
0
  0
BLOCK
  8
0
  2
WINDOW1
 70
0
 10
0.0000
 20
0.0000
 30
0.0000
  0
LINE
  5
107B
  8
0
 10
-0.5000
 20
-0.5000
 30
0.0000
 11
0.5000
 21
-0.5000
 31
0.0000
  0
LINE
  5
107C
  8
0
 10
0.5000
 20
-0.5000
 30
0.0000
 11
0.5000
 21
0.5000
 31
0.0000
  0
LINE
  5
107D
  8
0
 10
0.5000
 20
0.5000
 30
0.0000
 11
-0.5000
 21
0.5000
 31
0.0000
  0
LINE
  5
107E
  8
0
 10
-0.5000
 20
0.5000
 30
0.0000
 11
-0.5000
 21
-0.5000
 31
0.0000
  0
LINE
  5
107F
  8
0
 10
-0.5000
 20
0.0000
 30
0.0000
 11
0.5000
 21
0.0000
 31
0.0000
  0
ENDBLK
  5
1080
  8
0
  0
BLOCK
  8
0
  2
DOOR1
 70
0
 10
0.0000
 20
0.0000
 30
0.0000
  0
LINE
  5
1081
  8
0
 10
-0.5000
 20
-0.5000
 30
0.0000
 11
-0.5000
 21
0.5000
 31
0.0000
  0
LINE
  5
1082
  8
0
 10
-0.5000
 20
0.5000
 30
0.0000
 11
0.5000
 21
0.5000
 31
0.0000
  0
ARC
  5
1083
  8
0
 10
-0.5000
 20
-0.5000
 30
0.0000
 40
1.0000
 50
0.0000
 51
90.0000
  0
ENDBLK
  5
1084
  8
0
  0
ENDSEC
  0
SECTION
  2
ENTITIES
  0
LINE
  5
1000
  8
Const_Walls_Ext
 10
1993.0230
 20
2229.5764
 30
0.0000
 11
1989.8780
 21
-3477.9836
 31
0.0000
  0
LINE
  5
1001
  8
Const_Walls
 10
1893.0230
 20
2229.6316
 30
0.0000
 11
1889.8780
 21
-3477.9284
 31
0.0000
  0
LINE
  5
1002
  8
Const_Walls
 10
1993.0230
 20
2229.5764
 30
0.0000
 11
1893.0230
 21
2229.6316
 31
0.0000
  0
LINE
  5
1003
  8
Const_Walls
 10
1989.8780
 20
-3477.9836
 30
0.0000
 11
1889.8780
 21
-3477.9284
 31
0.0000
  0
SOLID
  5
1004
  8
Const_Fill
 10
1993.0230
 20
2229.5764
 30
0.0000
 11
1989.8780
 21
-3477.9836
 31
0.0000
 12
1893.0230
 22
2229.6316
 32
0.0000
 13
1889.8780
 23
-3477.9284
 33
0.0000
  0
LINE
  5
1005
  8
Dim_Wall
 10
1943.0230
 20
2229.6040
 30
0.0000
 11
2403.0229
 21
2229.3505
 31
0.0000
  0
LINE
  5
1006
  8
Dim_Wall
 10
1939.8780
 20
-3477.9560
 30
0.0000
 11
2399.8779
 21
-3478.2095
 31
0.0000
  0
LINE
  5
1007
  8
Dim_Wall
 10
2343.0229
 20
2229.3836
 30
0.0000
 11
2339.8779
 21
-3478.1764
 31
0.0000
  0
SOLID
  5
1008
  8
Dim_Wall
 10
2343.0229
 20
2229.3836
 30
0.0000
 11
2373.0725
 21
2319.3670
 31
0.0000
 12
2313.0725
 22
2319.4001
 32
0.0000
 13
2313.0725
 23
2319.4001
 33
0.0000
  0
SOLID
  5
1009
  8
Dim_Wall
 10
2339.8779
 20
-3478.1764
 30
0.0000
 11
2369.8283
 21
-3568.1929
 31
0.0000
 12
2309.8284
 22
-3568.1599
 32
0.0000
 13
2309.8284
 23
-3568.1599
 33
0.0000
  0
TEXT
  5
100A
  8
Dim_Wall
 10
2389.4504
 20
-624.4229
 30
0.0000
 40
120.0000
 50
89.9684
  1
570.8
  7
STANDARD
  0
LINE
  5
100B
  8
Const_Walls_Ext
 10
1939.9870
 20
-3527.9559
 30
0.0000
 11
561.8960
 21
-3530.9609
 31
0.0000
  0
LINE
  5
100C
  8
Const_Walls
 10
1939.7690
 20
-3427.9561
 30
0.0000
 11
561.6780
 21
-3430.9611
 31
0.0000
  0
LINE
  5
100D
  8
Const_Walls
 10
1939.9870
 20
-3527.9559
 30
0.0000
 11
1939.7690
 21
-3427.9561
 31
0.0000
  0
LINE
  5
100E
  8
Const_Walls
 10
561.8960
 20
-3530.9609
 30
0.0000
 11
561.6780
 21
-3430.9611
 31
0.0000
  0
SOLID
  5
100F
  8
Const_Fill
 10
1939.9870
 20
-3527.9559
 30
0.0000
 11
561.8960
 21
-3530.9609
 31
0.0000
 12
1939.7690
 22
-3427.9561
 32
0.0000
 13
561.6780
 23
-3430.9611
 33
0.0000
  0
LINE
  5
1010
  8
Dim_Wall
 10
1939.8780
 20
-3477.9560
 30
0.0000
 11
1940.8811
 21
-3937.9549
 31
0.0000
  0
LINE
  5
1011
  8
Dim_Wall
 10
561.7870
 20
-3480.9610
 30
0.0000
 11
562.7901
 21
-3940.9599
 31
0.0000
  0
LINE
  5
1012
  8
Dim_Wall
 10
1940.7502
 20
-3877.9550
 30
0.0000
 11
562.6592
 21
-3880.9600
 31
0.0000
  0
SOLID
  5
1013
  8
Dim_Wall
 10
1940.7502
 20
-3877.9550
 30
0.0000
 11
2030.8154
 21
-3907.7587
 31
0.0000
 12
2030.6846
 22
-3847.7589
 32
0.0000
 13
2030.6846
 23
-3847.7589
 33
0.0000
  0
SOLID
  5
1014
  8
Dim_Wall
 10
562.6592
 20
-3880.9600
 30
0.0000
 11
472.7248
 21
-3911.1562
 31
0.0000
 12
472.5940
 22
-3851.1564
 32
0.0000
 13
472.5940
 23
-3851.1564
 33
0.0000
  0
TEXT
  5
1015
  8
Dim_Wall
 10
1251.8094
 20
-3927.4574
 30
0.0000
 40
120.0000
 50
0.1249
  1
137.8
  7
STANDARD
  0
LINE
  5
1016
  8
Const_Walls_Ext
 10
-894.5139
 20
-1343.8879
 30
0.0000
 11
-2227.7339
 21
-1308.0139
 31
0.0000
  0
LINE
  5
1017
  8
Const_Walls
 10
-891.8241
 20
-1243.9241
 30
0.0000
 11
-2225.0441
 21
-1208.0501
 31
0.0000
  0
LINE
  5
1018
  8
Const_Walls
 10
-894.5139
 20
-1343.8879
 30
0.0000
 11
-891.8241
 21
-1243.9241
 31
0.0000
  0
LINE
  5
1019
  8
Const_Walls
 10
-2227.7339
 20
-1308.0139
 30
0.0000
 11
-2225.0441
 21
-1208.0501
 31
0.0000
  0
SOLID
  5
101A
  8
Const_Fill
 10
-894.5139
 20
-1343.8879
 30
0.0000
 11
-2227.7339
 21
-1308.0139
 31
0.0000
 12
-891.8241
 22
-1243.9241
 32
0.0000
 13
-2225.0441
 23
-1208.0501
 33
0.0000
  0
LINE
  5
101B
  8
Dim_Wall
 10
-893.1690
 20
-1293.9060
 30
0.0000
 11
-905.5421
 21
-1753.7396
 31
0.0000
  0
LINE
  5
101C
  8
Dim_Wall
 10
-2226.3890
 20
-1258.0320
 30
0.0000
 11
-2238.7621
 21
-1717.8656
 31
0.0000
  0
LINE
  5
101D
  8
Dim_Wall
 10
-903.9282
 20
-1693.7613
 30
0.0000
 11
-2237.1482
 21
-1657.8873
 31
0.0000
  0
SOLID
  5
101E
  8
Dim_Wall
 10
-903.9282
 20
-1693.7613
 30
0.0000
 11
-814.7677
 21
-1726.1712
 31
0.0000
 12
-813.1538
 22
-1666.1930
 32
0.0000
 13
-813.1538
 23
-1666.1930
 33
0.0000
  0
SOLID
  5
101F
  8
Dim_Wall
 10
-2237.1482
 20
-1657.8873
 30
0.0000
 11
-2327.9226
 21
-1685.4556
 31
0.0000
 12
-2326.3087
 22
-1625.4773
 32
0.0000
 13
-2326.3087
 23
-1625.4773
 33
0.0000
  0
TEXT
  5
1020
  8
Dim_Wall
 10
-1571.8293
 20
-1723.8069
 30
0.0000
 40
120.0000
 50
358.4587
  1
133.4
  7
STANDARD
  0
LINE
  5
1021
  8
Const_Walls_Ext
 10
-2276.7154
 20
-1258.6648
 30
0.0000
 11
-2258.9824
 21
2229.8582
 31
0.0000
  0
LINE
  5
1022
  8
Const_Walls
 10
-2176.7166
 20
-1259.1732
 30
0.0000
 11
-2158.9836
 21
2229.3498
 31
0.0000
  0
LINE
  5
1023
  8
Const_Walls
 10
-2276.7154
 20
-1258.6648
 30
0.0000
 11
-2176.7166
 21
-1259.1732
 31
0.0000
  0
LINE
  5
1024
  8
Const_Walls
 10
-2258.9824
 20
2229.8582
 30
0.0000
 11
-2158.9836
 21
2229.3498
 31
0.0000
  0
SOLID
  5
1025
  8
Const_Fill
 10
-2276.7154
 20
-1258.6648
 30
0.0000
 11
-2258.9824
 21
2229.8582
 31
0.0000
 12
-2176.7166
 22
-1259.1732
 32
0.0000
 13
-2158.9836
 23
2229.3498
 33
0.0000
  0
LINE
  5
1026
  8
Dim_Wall
 10
-2226.7160
 20
-1258.9190
 30
0.0000
 11
-2686.7101
 21
-1256.5807
 31
0.0000
  0
LINE
  5
1027
  8
Dim_Wall
 10
-2208.9830
 20
2229.6040
 30
0.0000
 11
-2668.9771
 21
2231.9423
 31
0.0000
  0
LINE
  5
1028
  8
Dim_Wall
 10
-2626.7108
 20
-1256.8857
 30
0.0000
 11
-2608.9778
 21
2231.6373
 31
0.0000
  0
SOLID
  5
1029
  8
Dim_Wall
 10
-2626.7108
 20
-1256.8857
 30
0.0000
 11
-2657.1679
 21
-1346.7321
 31
0.0000
 12
-2597.1687
 22
-1347.0371
 32
0.0000
 13
-2597.1687
 23
-1347.0371
 33
0.0000
  0
SOLID
  5
102A
  8
Dim_Wall
 10
-2608.9778
 20
2231.6373
 30
0.0000
 11
-2638.5200
 21
2321.7886
 31
0.0000
 12
-2578.5207
 22
2321.4836
 32
0.0000
 13
-2578.5207
 23
2321.4836
 33
0.0000
  0
TEXT
  5
102B
  8
Dim_Wall
 10
-2665.8437
 20
487.6198
 30
0.0000
 40
120.0000
 50
89.7088
  1
348.9
  7
STANDARD
  0
LINE
  5
102C
  8
Const_Walls_Ext
 10
-2208.9830
 20
2279.6040
 30
0.0000
 11
1943.0230
 21
2279.6040
 31
0.0000
  0
LINE
  5
102D
  8
Const_Walls
 10
-2208.9830
 20
2179.6040
 30
0.0000
 11
1943.0230
 21
2179.6040
 31
0.0000
  0
LINE
  5
102E
  8
Const_Walls
 10
-2208.9830
 20
2279.6040
 30
0.0000
 11
-2208.9830
 21
2179.6040
 31
0.0000
  0
LINE
  5
102F
  8
Const_Walls
 10
1943.0230
 20
2279.6040
 30
0.0000
 11
1943.0230
 21
2179.6040
 31
0.0000
  0
SOLID
  5
1030
  8
Const_Fill
 10
-2208.9830
 20
2279.6040
 30
0.0000
 11
1943.0230
 21
2279.6040
 31
0.0000
 12
-2208.9830
 22
2179.6040
 32
0.0000
 13
1943.0230
 23
2179.6040
 33
0.0000
  0
LINE
  5
1031
  8
Dim_Wall
 10
-2208.9830
 20
2229.6040
 30
0.0000
 11
-2208.9830
 21
2689.6040
 31
0.0000
  0
LINE
  5
1032
  8
Dim_Wall
 10
1943.0230
 20
2229.6040
 30
0.0000
 11
1943.0230
 21
2689.6040
 31
0.0000
  0
LINE
  5
1033
  8
Dim_Wall
 10
-2208.9830
 20
2629.6040
 30
0.0000
 11
1943.0230
 21
2629.6040
 31
0.0000
  0
SOLID
  5
1034
  8
Dim_Wall
 10
-2208.9830
 20
2629.6040
 30
0.0000
 11
-2298.9830
 21
2659.6040
 31
0.0000
 12
-2298.9830
 22
2599.6040
 32
0.0000
 13
-2298.9830
 23
2599.6040
 33
0.0000
  0
SOLID
  5
1035
  8
Dim_Wall
 10
1943.0230
 20
2629.6040
 30
0.0000
 11
2033.0230
 21
2659.6040
 31
0.0000
 12
2033.0230
 22
2599.6040
 32
0.0000
 13
2033.0230
 23
2599.6040
 33
0.0000
  0
TEXT
  5
1036
  8
Dim_Wall
 10
-132.9800
 20
2677.6040
 30
0.0000
 40
120.0000
 50
0.0000
  1
415.2
  7
STANDARD
  0
INSERT
  5
1037
  8
Const_Windows
  2
WINDOW1
 10
1512.0000
 20
-3479.0000
 30
0.0000
 41
900.0000
 42
100.0000
 43
1.0000
 50
180.1000
  0
INSERT
  5
1038
  8
Const_Doors
  2
DOOR1
 10
-1277.0000
 20
-1284.0000
 30
0.0000
 41
900.0000
 42
100.0000
 43
1.0000
 50
178.5000
  0
INSERT
  5
1039
  8
Const_Doors
  2
DOOR1
 10
-2223.0000
 20
-459.0000
 30
0.0000
 41
800.0000
 42
100.0000
 43
1.0000
 50
89.7000
  0
INSERT
  5
103A
  8
Const_Doors
  2
DOOR1
 10
-1409.0000
 20
2230.0000
 30
0.0000
 41
800.0000
 42
100.0000
 43
1.0000
 50
0.0000
  0
INSERT
  5
103B
  8
Electrical
  2
ControlBox
 10
1943.0000
 20
1987.0000
 30
0.0000
 41
1.0000
 42
1.0000
 43
1.0000
 50
270.0000
  0
TEXT
  5
103C
  8
Electrical_H
 10
2013.0000
 20
2027.0000
 30
0.0000
 40
90.0000
 50
0.0000
  1
H 30
  7
STANDARD
  0
LINE
  5
103D
  8
Electrical_DIM
 10
1943.0230
 20
2229.6040
 30
0.0000
 11
1683.0230
 21
2229.6286
 31
0.0000
  0
LINE
  5
103E
  8
Electrical_DIM
 10
1943.0000
 20
1987.0000
 30
0.0000
 11
1683.0000
 21
1987.0246
 31
0.0000
  0
LINE
  5
103F
  8
Electrical_DIM
 10
1743.0230
 20
2229.6230
 30
0.0000
 11
1743.0000
 21
1987.0190
 31
0.0000
  0
SOLID
  5
1040
  8
Electrical_DIM
 10
1743.0230
 20
2229.6230
 30
0.0000
 11
1713.0315
 21
2319.6258
 31
0.0000
 12
1773.0315
 22
2319.6201
 32
0.0000
 13
1773.0315
 23
2319.6201
 33
0.0000
  0
SOLID
  5
1041
  8
Electrical_DIM
 10
1743.0000
 20
1987.0190
 30
0.0000
 11
1712.9915
 21
1897.0218
 31
0.0000
 12
1772.9915
 22
1897.0161
 32
0.0000
 13
1772.9915
 23
1897.0161
 33
0.0000
  0
TEXT
  5
1042
  8
Electrical_DIM
 10
1707.0115
 20
2108.3244
 30
0.0000
 40
90.0000
 50
89.9946
  1
24.3
  7
STANDARD
  0
INSERT
  5
1043
  8
Electrical
  2
ControlBox
 10
1943.0000
 20
1410.0000
 30
0.0000
 41
1.0000
 42
1.0000
 43
1.0000
 50
270.0000
  0
TEXT
  5
1044
  8
Electrical_H
 10
2013.0000
 20
1450.0000
 30
0.0000
 40
90.0000
 50
0.0000
  1
H 50
  7
STANDARD
  0
LINE
  5
1045
  8
Electrical_DIM
 10
1943.0230
 20
2229.6040
 30
0.0000
 11
1683.0230
 21
2229.6113
 31
0.0000
  0
LINE
  5
1046
  8
Electrical_DIM
 10
1943.0000
 20
1410.0000
 30
0.0000
 11
1683.0000
 21
1410.0073
 31
0.0000
  0
LINE
  5
1047
  8
Electrical_DIM
 10
1743.0230
 20
2229.6096
 30
0.0000
 11
1743.0000
 21
1410.0056
 31
0.0000
  0
SOLID
  5
1048
  8
Electrical_DIM
 10
1743.0230
 20
2229.6096
 30
0.0000
 11
1713.0255
 21
2319.6105
 31
0.0000
 12
1773.0255
 22
2319.6088
 32
0.0000
 13
1773.0255
 23
2319.6088
 33
0.0000
  0
SOLID
  5
1049
  8
Electrical_DIM
 10
1743.0000
 20
1410.0056
 30
0.0000
 11
1712.9975
 21
1320.0065
 31
0.0000
 12
1772.9975
 22
1320.0048
 32
0.0000
 13
1772.9975
 23
1320.0048
 33
0.0000
  0
TEXT
  5
104A
  8
Electrical_DIM
 10
1707.0115
 20
1819.8086
 30
0.0000
 40
90.0000
 50
89.9984
  1
82
  7
STANDARD
  0
INSERT
  5
104B
  8
Electrical
  2
ControlBox
 10
1660.0000
 20
-3479.0000
 30
0.0000
 41
1.0000
 42
1.0000
 43
1.0000
 50
180.1000
  0
TEXT
  5
104C
  8
Electrical_H
 10
1730.0000
 20
-3439.0000
 30
0.0000
 40
90.0000
 50
0.0000
  1
H 30
  7
STANDARD
  0
LINE
  5
104D
  8
Electrical_DIM
 10
1939.8780
 20
-3477.9560
 30
0.0000
 11
1938.9082
 21
-3217.9578
 31
0.0000
  0
LINE
  5
104E
  8
Electrical_DIM
 10
1660.0000
 20
-3479.0000
 30
0.0000
 11
1659.0302
 21
-3219.0018
 31
0.0000
  0
LINE
  5
104F
  8
Electrical_DIM
 10
1939.1320
 20
-3277.9574
 30
0.0000
 11
1659.2540
 21
-3279.0014
 31
0.0000
  0
SOLID
  5
1050
  8
Electrical_DIM
 10
1939.1320
 20
-3277.9574
 30
0.0000
 11
2029.0194
 21
-3247.6219
 31
0.0000
 12
2029.2432
 22
-3307.6215
 32
0.0000
 13
2029.2432
 23
-3307.6215
 33
0.0000
  0
SOLID
  5
1051
  8
Electrical_DIM
 10
1659.2540
 20
-3279.0014
 30
0.0000
 11
1569.1427
 21
-3249.3373
 31
0.0000
 12
1569.3665
 22
-3309.3369
 32
0.0000
 13
1569.3665
 23
-3309.3369
 33
0.0000
  0
TEXT
  5
1052
  8
Electrical_DIM
 10
1799.0587
 20
-3242.4796
 30
0.0000
 40
90.0000
 50
0.2137
  1
28
  7
STANDARD
  0
INSERT
  5
1053
  8
Electrical
  2
ControlBox
 10
1412.0000
 20
-3479.0000
 30
0.0000
 41
1.0000
 42
1.0000
 43
1.0000
 50
180.1000
  0
TEXT
  5
1054
  8
Electrical_H
 10
1482.0000
 20
-3439.0000
 30
0.0000
 40
90.0000
 50
0.0000
  1
H 222.6
  7
STANDARD
  0
LINE
  5
1055
  8
Electrical_DIM
 10
1939.8780
 20
-3477.9560
 30
0.0000
 11
1939.3638
 21
-3217.9565
 31
0.0000
  0
LINE
  5
1056
  8
Electrical_DIM
 10
1412.0000
 20
-3479.0000
 30
0.0000
 11
1411.4858
 21
-3219.0005
 31
0.0000
  0
LINE
  5
1057
  8
Electrical_DIM
 10
1939.4825
 20
-3277.9564
 30
0.0000
 11
1411.6045
 21
-3279.0004
 31
0.0000
  0
SOLID
  5
1058
  8
Electrical_DIM
 10
1939.4825
 20
-3277.9564
 30
0.0000
 11
2029.4229
 21
-3247.7785
 31
0.0000
 12
2029.5416
 22
-3307.7783
 32
0.0000
 13
2029.5416
 23
-3307.7783
 33
0.0000
  0
SOLID
  5
1059
  8
Electrical_DIM
 10
1411.6045
 20
-3279.0004
 30
0.0000
 11
1321.5453
 21
-3249.1784
 31
0.0000
 12
1321.6640
 22
-3309.1783
 32
0.0000
 13
1321.6640
 23
-3309.1783
 33
0.0000
  0
TEXT
  5
105A
  8
Electrical_DIM
 10
1675.4723
 20
-3242.4785
 30
0.0000
 40
90.0000
 50
0.1133
  1
52.8
  7
STANDARD
  0
INSERT
  5
105B
  8
Electrical
  2
ControlBox
 10
-1118.0000
 20
-1288.0000
 30
0.0000
 41
1.0000
 42
1.0000
 43
1.0000
 50
178.5000
  0
TEXT
  5
105C
  8
Electrical_H
 10
-1048.0000
 20
-1248.0000
 30
0.0000
 40
90.0000
 50
0.0000
  1
H 30
  7
STANDARD
  0
LINE
  5
105D
  8
Electrical_DIM
 10
-893.1690
 20
-1293.9060
 30
0.0000
 11
-886.3415
 21
-1033.9957
 31
0.0000
  0
LINE
  5
105E
  8
Electrical_DIM
 10
-1118.0000
 20
-1288.0000
 30
0.0000
 11
-1111.1725
 21
-1028.0897
 31
0.0000
  0
LINE
  5
105F
  8
Electrical_DIM
 10
-887.9171
 20
-1093.9750
 30
0.0000
 11
-1112.7481
 21
-1088.0690
 31
0.0000
  0
SOLID
  5
1060
  8
Electrical_DIM
 10
-887.9171
 20
-1093.9750
 30
0.0000
 11
-797.1603
 21
-1066.3487
 31
0.0000
 12
-798.7359
 22
-1126.3280
 32
0.0000
 13
-798.7359
 23
-1126.3280
 33
0.0000
  0
SOLID
  5
1061
  8
Electrical_DIM
 10
-1112.7481
 20
-1088.0690
 30
0.0000
 11
-1201.9293
 21
-1055.7160
 31
0.0000
 12
-1203.5048
 22
-1115.6953
 32
0.0000
 13
-1203.5048
 23
-1115.6953
 33
0.0000
  0
TEXT
  5
1062
  8
Electrical_DIM
 10
-999.3872
 20
-1055.0344
 30
0.0000
 40
90.0000
 50
358.4953
  1
22.5
  7
STANDARD
  0
INSERT
  5
1063
  8
Electrical
  2
ControlBox
 10
-2226.0000
 20
-1039.0000
 30
0.0000
 41
1.0000
 42
1.0000
 43
1.0000
 50
89.7000
  0
TEXT
  5
1064
  8
Electrical_H
 10
-2156.0000
 20
-999.0000
 30
0.0000
 40
90.0000
 50
0.0000
  1
H 30
  7
STANDARD
  0
LINE
  5
1065
  8
Electrical_DIM
 10
-2226.7160
 20
-1258.9190
 30
0.0000
 11
-1966.7174
 21
-1259.7655
 31
0.0000
  0
LINE
  5
1066
  8
Electrical_DIM
 10
-2226.0000
 20
-1039.0000
 30
0.0000
 11
-1966.0014
 21
-1039.8465
 31
0.0000
  0
LINE
  5
1067
  8
Electrical_DIM
 10
-2026.7171
 20
-1259.5701
 30
0.0000
 11
-2026.0011
 21
-1039.6511
 31
0.0000
  0
SOLID
  5
1068
  8
Electrical_DIM
 10
-2026.7171
 20
-1259.5701
 30
0.0000
 11
-1997.0102
 21
-1349.6673
 31
0.0000
 12
-2057.0099
 22
-1349.4720
 32
0.0000
 13
-2057.0099
 23
-1349.4720
 33
0.0000
  0
SOLID
  5
1069
  8
Electrical_DIM
 10
-2026.0011
 20
-1039.6511
 30
0.0000
 11
-1995.7082
 21
-949.7493
 31
0.0000
 12
-2055.7079
 22
-949.5540
 32
0.0000
 13
-2055.7079
 23
-949.5540
 33
0.0000
  0
TEXT
  5
106A
  8
Electrical_DIM
 10
-1990.3593
 20
-1149.7279
 30
0.0000
 40
90.0000
 50
89.8135
  1
22
  7
STANDARD
  0
INSERT
  5
106B
  8
Electrical
  2
ControlBox
 10
-2009.0000
 20
2230.0000
 30
0.0000
 41
1.0000
 42
1.0000
 43
1.0000
 50
0.0000
  0
TEXT
  5
106C
  8
Electrical_H
 10
-1939.0000
 20
2270.0000
 30
0.0000
 40
90.0000
 50
0.0000
  1
H 30
  7
STANDARD
  0
LINE
  5
106D
  8
Electrical_DIM
 10
-2208.9830
 20
2229.6040
 30
0.0000
 11
-2208.4682
 21
1969.6045
 31
0.0000
  0
LINE
  5
106E
  8
Electrical_DIM
 10
-2009.0000
 20
2230.0000
 30
0.0000
 11
-2008.4852
 21
1970.0005
 31
0.0000
  0
LINE
  5
106F
  8
Electrical_DIM
 10
-2208.5870
 20
2029.6044
 30
0.0000
 11
-2008.6040
 21
2030.0004
 31
0.0000
  0
SOLID
  5
1070
  8
Electrical_DIM
 10
-2208.5870
 20
2029.6044
 30
0.0000
 11
-2298.5274
 21
1999.4262
 31
0.0000
 12
-2298.6462
 22
2059.4261
 32
0.0000
 13
-2298.6462
 23
2059.4261
 33
0.0000
  0
SOLID
  5
1071
  8
Electrical_DIM
 10
-2008.6040
 20
2030.0004
 30
0.0000
 11
-1918.5447
 21
2000.1787
 31
0.0000
 12
-1918.6635
 22
2060.1785
 32
0.0000
 13
-1918.6635
 23
2060.1785
 33
0.0000
  0
TEXT
  5
1072
  8
Electrical_DIM
 10
-2108.5242
 20
1993.8025
 30
0.0000
 40
90.0000
 50
0.1135
  1
20
  7
STANDARD
  0
INSERT
  5
1073
  8
Text_Legend
  2
ControlBox
 10
2812.0000
 20
2680.0000
 30
0.0000
 41
1.0000
 42
1.0000
 43
1.0000
 50
0.0000
  0
TEXT
  5
1074
  8
Text_Legend
 10
3012.0000
 20
2650.0000
 30
0.0000
 40
120.0000
 50
0.0000
  1
\U+05D0\U+05E8\U+05D5\U+05DF \U+05D7\U+05E9\U+05DE\U+05DC
  7
STANDARD
  0
ENDSEC
  0
EOF
