  0
SECTION
  2
HEADER
  9
$ACADVER
  1
AC1009
  9
$INSBASE
 10
0.0000
 20
0.0000
 30
0.0000
  9
$EXTMIN
 10
-5.0000
 20
-5.0000
 30
0.0000
  9
$EXTMAX
 10
425.0000
 20
302.0000
 30
0.0000
  9
$DWGCODEPAGE
  3
ansi_1255
  9
$CLAYER
  8
0
  9
$LTSCALE
 40
10.0000
  9
$LIMMIN
 10
0.0000
 20
0.0000
  9
$LIMMAX
 10
2000.0000
 20
200.0000
  0
ENDSEC
  0
SECTION
  2
TABLES
  0
TABLE
  2
VPORT
 70
1
  0
VPORT
  2
*ACTIVE
 70
0
 10
0.0000
 20
0.0000
 11
1.0000
 21
1.0000
 12
210.0000
 22
148.5000
 13
0.0000
 23
0.0000
 14
10.0000
 24
10.0000
 15
10.0000
 25
10.0000
 16
0.0000
 26
0.0000
 36
1.0000
 17
0.0000
 27
0.0000
 37
0.0000
 40
1000.0000
 41
1.6000
 42
50.0000
 43
0.0000
 44
0.0000
 50
0.0000
 51
0.0000
 71
0
 72
100
 73
1
 74
1
 75
0
 76
0
 77
0
 78
0
  0
ENDTAB
  0
TABLE
  2
LTYPE
 70
3
  0
LTYPE
  2
CONTINUOUS
 70
0
  3
Solid line
 72
65
 73
0
 40
0.0000
  0
LTYPE
  2
HIDDEN
 70
0
  3
Hidden __ __ __ __ __ __
 72
65
 73
2
 40
9.5250
 49
6.3500
 49
-3.1750
  0
LTYPE
  2
CENTER
 70
0
  3
Center ____ _ ____ _ ____
 72
65
 73
4
 40
50.8000
 49
31.7500
 49
-6.3500
 49
6.3500
 49
-6.3500
  0
ENDTAB
  0
TABLE
  2
LAYER
 70
71
  0
LAYER
  2
0
 70
0
 62
7
  6
CONTINUOUS
  0
LAYER
  2
קירות
 70
0
 62
7
  6
CONTINUOUS
  0
LAYER
  2
קירות-מילוי
 70
0
 62
8
  6
CONTINUOUS
  0
LAYER
  2
קירות-מידות
 70
0
 62
7
  6
CONTINUOUS
  0
LAYER
  2
קירות-טקסט
 70
0
 62
7
  6
CONTINUOUS
  0
LAYER
  2
קירות-נסתר
 70
0
 62
7
  6
HIDDEN
  0
LAYER
  2
קירות-ציר
 70
0
 62
7
  6
CENTER
  0
LAYER
  2
מבנה
 70
0
 62
9
  6
CONTINUOUS
  0
LAYER
  2
מבנה-מילוי
 70
0
 62
9
  6
CONTINUOUS
  0
LAYER
  2
מבנה-מידות
 70
0
 62
9
  6
CONTINUOUS
  0
LAYER
  2
מבנה-טקסט
 70
0
 62
9
  6
CONTINUOUS
  0
LAYER
  2
מבנה-נסתר
 70
0
 62
9
  6
HIDDEN
  0
LAYER
  2
מבנה-ציר
 70
0
 62
9
  6
CENTER
  0
LAYER
  2
חשמל
 70
0
 62
6
  6
CONTINUOUS
  0
LAYER
  2
חשמל-מידות
 70
0
 62
6
  6
CONTINUOUS
  0
LAYER
  2
חשמל-טקסט
 70
0
 62
6
  6
CONTINUOUS
  0
LAYER
  2
חשמל-נסתר
 70
0
 62
6
  6
HIDDEN
  0
LAYER
  2
תאורה
 70
0
 62
30
  6
CONTINUOUS
  0
LAYER
  2
תאורה-מידות
 70
0
 62
30
  6
CONTINUOUS
  0
LAYER
  2
תאורה-טקסט
 70
0
 62
30
  6
CONTINUOUS
  0
LAYER
  2
תאורה-נסתר
 70
0
 62
30
  6
HIDDEN
  0
LAYER
  2
מים
 70
0
 62
4
  6
CONTINUOUS
  0
LAYER
  2
מים-מידות
 70
0
 62
4
  6
CONTINUOUS
  0
LAYER
  2
מים-טקסט
 70
0
 62
4
  6
CONTINUOUS
  0
LAYER
  2
מים-נסתר
 70
0
 62
4
  6
HIDDEN
  0
LAYER
  2
מים-ציר
 70
0
 62
4
  6
CENTER
  0
LAYER
  2
ניקוז
 70
0
 62
140
  6
CONTINUOUS
  0
LAYER
  2
ניקוז-מידות
 70
0
 62
140
  6
CONTINUOUS
  0
LAYER
  2
ניקוז-טקסט
 70
0
 62
140
  6
CONTINUOUS
  0
LAYER
  2
ניקוז-נסתר
 70
0
 62
140
  6
HIDDEN
  0
LAYER
  2
ניקוז-ציר
 70
0
 62
140
  6
CENTER
  0
LAYER
  2
גז
 70
0
 62
2
  6
CONTINUOUS
  0
LAYER
  2
גז-מידות
 70
0
 62
2
  6
CONTINUOUS
  0
LAYER
  2
גז-טקסט
 70
0
 62
2
  6
CONTINUOUS
  0
LAYER
  2
גז-נסתר
 70
0
 62
2
  6
HIDDEN
  0
LAYER
  2
גז-ציר
 70
0
 62
2
  6
CENTER
  0
LAYER
  2
מיזוג
 70
0
 62
141
  6
CONTINUOUS
  0
LAYER
  2
מיזוג-מידות
 70
0
 62
141
  6
CONTINUOUS
  0
LAYER
  2
מיזוג-טקסט
 70
0
 62
141
  6
CONTINUOUS
  0
LAYER
  2
מיזוג-נסתר
 70
0
 62
141
  6
HIDDEN
  0
LAYER
  2
אוורור
 70
0
 62
131
  6
CONTINUOUS
  0
LAYER
  2
אוורור-מידות
 70
0
 62
131
  6
CONTINUOUS
  0
LAYER
  2
אוורור-טקסט
 70
0
 62
131
  6
CONTINUOUS
  0
LAYER
  2
אוורור-נסתר
 70
0
 62
131
  6
HIDDEN
  0
LAYER
  2
דלתות
 70
0
 62
5
  6
CONTINUOUS
  0
LAYER
  2
דלתות-מידות
 70
0
 62
5
  6
CONTINUOUS
  0
LAYER
  2
דלתות-טקסט
 70
0
 62
5
  6
CONTINUOUS
  0
LAYER
  2
דלתות-נסתר
 70
0
 62
5
  6
HIDDEN
  0
LAYER
  2
דלתות-מילוי
 70
0
 62
5
  6
CONTINUOUS
  0
LAYER
  2
חלונות
 70
0
 62
151
  6
CONTINUOUS
  0
LAYER
  2
חלונות-מידות
 70
0
 62
151
  6
CONTINUOUS
  0
LAYER
  2
חלונות-טקסט
 70
0
 62
151
  6
CONTINUOUS
  0
LAYER
  2
חלונות-נסתר
 70
0
 62
151
  6
HIDDEN
  0
LAYER
  2
ריהוט
 70
0
 62
42
  6
CONTINUOUS
  0
LAYER
  2
ריהוט-מידות
 70
0
 62
42
  6
CONTINUOUS
  0
LAYER
  2
ריהוט-טקסט
 70
0
 62
42
  6
CONTINUOUS
  0
LAYER
  2
ריהוט-נסתר
 70
0
 62
42
  6
HIDDEN
  0
LAYER
  2
מטבח
 70
0
 62
52
  6
CONTINUOUS
  0
LAYER
  2
מטבח-מידות
 70
0
 62
52
  6
CONTINUOUS
  0
LAYER
  2
מטבח-טקסט
 70
0
 62
52
  6
CONTINUOUS
  0
LAYER
  2
מטבח-נסתר
 70
0
 62
52
  6
HIDDEN
  0
LAYER
  2
ריצוף
 70
0
 62
251
  6
CONTINUOUS
  0
LAYER
  2
ריצוף-מילוי
 70
0
 62
8
  6
CONTINUOUS
  0
LAYER
  2
מידות-פנים
 70
0
 62
3
  6
CONTINUOUS
  0
LAYER
  2
מידות-חוץ
 70
0
 62
1
  6
CONTINUOUS
  0
LAYER
  2
מסגרת
 70
0
 62
250
  6
CONTINUOUS
  0
LAYER
  2
גבול-גיליון
 70
0
 62
255
  6
CONTINUOUS
  0
LAYER
  2
מקרא
 70
0
 62
150
  6
CONTINUOUS
  0
LAYER
  2
רשת-צירים
 70
0
 62
8
  6
CENTER
  0
LAYER
  2
הערות
 70
0
 62
150
  6
CONTINUOUS
  0
LAYER
  2
מהדורות
 70
0
 62
1
  6
CONTINUOUS
  0
ENDTAB
  0
TABLE
  2
STYLE
 70
2
  0
STYLE
  2
SOLINE
 70
0
 40
0.0000
 41
1.0000
 50
0.0000
 71
0
 42
2.5000
  3
arial.ttf
  4

  0
STYLE
  2
Standard
 70
0
 40
0.0000
 41
1.0000
 50
0.0000
 71
0
 42
2.5000
  3
txt
  4

  0
ENDTAB
  0
ENDSEC
  0
SECTION
  2
BLOCKS
  0
BLOCK
  8
0
  2
SS_socket_single_90x90
 70
0
 10
0.0000
 20
0.0000
 30
0.0000
  3
SS_socket_single_90x90
  1

  0
LINE
  5
18F
  8
0
 10
0.0000
 20
0.0000
 30
0.0000
 11
0.0000
 21
41.4000
 31
0.0000
  0
LINE
  5
190
  8
0
 10
-28.8000
 20
41.4000
 30
0.0000
 11
-28.6189
 21
44.6246
 31
0.0000
  0
LINE
  5
191
  8
0
 10
-28.6189
 20
44.6246
 30
0.0000
 11
-28.0779
 21
47.8086
 31
0.0000
  0
LINE
  5
192
  8
0
 10
-28.0779
 20
47.8086
 30
0.0000
 11
-27.1838
 21
50.9120
 31
0.0000
  0
LINE
  5
193
  8
0
 10
-27.1838
 20
50.9120
 30
0.0000
 11
-25.9479
 21
53.8959
 31
0.0000
  0
LINE
  5
194
  8
0
 10
-25.9479
 20
53.8959
 30
0.0000
 11
-24.3857
 21
56.7225
 31
0.0000
  0
LINE
  5
195
  8
0
 10
-24.3857
 20
56.7225
 30
0.0000
 11
-22.5167
 21
59.3565
 31
0.0000
  0
LINE
  5
196
  8
0
 10
-22.5167
 20
59.3565
 30
0.0000
 11
-20.3647
 21
61.7647
 31
0.0000
  0
LINE
  5
197
  8
0
 10
-20.3647
 20
61.7647
 30
0.0000
 11
-17.9565
 21
63.9167
 31
0.0000
  0
LINE
  5
198
  8
0
 10
-17.9565
 20
63.9167
 30
0.0000
 11
-15.3225
 21
65.7857
 31
0.0000
  0
LINE
  5
199
  8
0
 10
-15.3225
 20
65.7857
 30
0.0000
 11
-12.4959
 21
67.3479
 31
0.0000
  0
LINE
  5
19A
  8
0
 10
-12.4959
 20
67.3479
 30
0.0000
 11
-9.5120
 21
68.5838
 31
0.0000
  0
LINE
  5
19B
  8
0
 10
-9.5120
 20
68.5838
 30
0.0000
 11
-6.4086
 21
69.4779
 31
0.0000
  0
LINE
  5
19C
  8
0
 10
-6.4086
 20
69.4779
 30
0.0000
 11
-3.2246
 21
70.0189
 31
0.0000
  0
LINE
  5
19D
  8
0
 10
-3.2246
 20
70.0189
 30
0.0000
 11
0.0000
 21
70.2000
 31
0.0000
  0
LINE
  5
19E
  8
0
 10
0.0000
 20
70.2000
 30
0.0000
 11
3.2246
 21
70.0189
 31
0.0000
  0
LINE
  5
19F
  8
0
 10
3.2246
 20
70.0189
 30
0.0000
 11
6.4086
 21
69.4779
 31
0.0000
  0
LINE
  5
1A0
  8
0
 10
6.4086
 20
69.4779
 30
0.0000
 11
9.5120
 21
68.5838
 31
0.0000
  0
LINE
  5
1A1
  8
0
 10
9.5120
 20
68.5838
 30
0.0000
 11
12.4959
 21
67.3479
 31
0.0000
  0
LINE
  5
1A2
  8
0
 10
12.4959
 20
67.3479
 30
0.0000
 11
15.3225
 21
65.7857
 31
0.0000
  0
LINE
  5
1A3
  8
0
 10
15.3225
 20
65.7857
 30
0.0000
 11
17.9565
 21
63.9167
 31
0.0000
  0
LINE
  5
1A4
  8
0
 10
17.9565
 20
63.9167
 30
0.0000
 11
20.3647
 21
61.7647
 31
0.0000
  0
LINE
  5
1A5
  8
0
 10
20.3647
 20
61.7647
 30
0.0000
 11
22.5167
 21
59.3565
 31
0.0000
  0
LINE
  5
1A6
  8
0
 10
22.5167
 20
59.3565
 30
0.0000
 11
24.3857
 21
56.7225
 31
0.0000
  0
LINE
  5
1A7
  8
0
 10
24.3857
 20
56.7225
 30
0.0000
 11
25.9479
 21
53.8959
 31
0.0000
  0
LINE
  5
1A8
  8
0
 10
25.9479
 20
53.8959
 30
0.0000
 11
27.1838
 21
50.9120
 31
0.0000
  0
LINE
  5
1A9
  8
0
 10
27.1838
 20
50.9120
 30
0.0000
 11
28.0779
 21
47.8086
 31
0.0000
  0
LINE
  5
1AA
  8
0
 10
28.0779
 20
47.8086
 30
0.0000
 11
28.6189
 21
44.6246
 31
0.0000
  0
LINE
  5
1AB
  8
0
 10
28.6189
 20
44.6246
 30
0.0000
 11
28.8000
 21
41.4000
 31
0.0000
  0
LINE
  5
1AC
  8
0
 10
-28.8000
 20
41.4000
 30
0.0000
 11
28.8000
 21
41.4000
 31
0.0000
  0
ENDBLK
  8
0
  0
BLOCK
  8
0
  2
SS_socket_duplex_160x90
 70
0
 10
0.0000
 20
0.0000
 30
0.0000
  3
SS_socket_duplex_160x90
  1

  0
LINE
  5
1AD
  8
0
 10
0.0000
 20
0.0000
 30
0.0000
 11
0.0000
 21
41.4000
 31
0.0000
  0
LINE
  5
1AE
  8
0
 10
-79.1040
 20
41.4000
 30
0.0000
 11
-78.8625
 21
43.8184
 31
0.0000
  0
LINE
  5
1AF
  8
0
 10
-78.8625
 20
43.8184
 30
0.0000
 11
-78.1412
 21
46.2065
 31
0.0000
  0
LINE
  5
1B0
  8
0
 10
-78.1412
 20
46.2065
 30
0.0000
 11
-76.9491
 21
48.5340
 31
0.0000
  0
LINE
  5
1B1
  8
0
 10
-76.9491
 20
48.5340
 30
0.0000
 11
-75.3012
 21
50.7719
 31
0.0000
  0
LINE
  5
1B2
  8
0
 10
-75.3012
 20
50.7719
 30
0.0000
 11
-73.2182
 21
52.8919
 31
0.0000
  0
LINE
  5
1B3
  8
0
 10
-73.2182
 20
52.8919
 30
0.0000
 11
-70.7263
 21
54.8674
 31
0.0000
  0
LINE
  5
1B4
  8
0
 10
-70.7263
 20
54.8674
 30
0.0000
 11
-67.8569
 21
56.6735
 31
0.0000
  0
LINE
  5
1B5
  8
0
 10
-67.8569
 20
56.6735
 30
0.0000
 11
-64.6460
 21
58.2876
 31
0.0000
  0
LINE
  5
1B6
  8
0
 10
-64.6460
 20
58.2876
 30
0.0000
 11
-61.1340
 21
59.6892
 31
0.0000
  0
LINE
  5
1B7
  8
0
 10
-61.1340
 20
59.6892
 30
0.0000
 11
-57.3651
 21
60.8609
 31
0.0000
  0
LINE
  5
1B8
  8
0
 10
-57.3651
 20
60.8609
 30
0.0000
 11
-53.3867
 21
61.7879
 31
0.0000
  0
LINE
  5
1B9
  8
0
 10
-53.3867
 20
61.7879
 30
0.0000
 11
-49.2488
 21
62.4584
 31
0.0000
  0
LINE
  5
1BA
  8
0
 10
-49.2488
 20
62.4584
 30
0.0000
 11
-45.0034
 21
62.8642
 31
0.0000
  0
LINE
  5
1BB
  8
0
 10
-45.0034
 20
62.8642
 30
0.0000
 11
-40.7040
 21
63.0000
 31
0.0000
  0
LINE
  5
1BC
  8
0
 10
-40.7040
 20
63.0000
 30
0.0000
 11
-36.4046
 21
62.8642
 31
0.0000
  0
LINE
  5
1BD
  8
0
 10
-36.4046
 20
62.8642
 30
0.0000
 11
-32.1592
 21
62.4584
 31
0.0000
  0
LINE
  5
1BE
  8
0
 10
-32.1592
 20
62.4584
 30
0.0000
 11
-28.0213
 21
61.7879
 31
0.0000
  0
LINE
  5
1BF
  8
0
 10
-28.0213
 20
61.7879
 30
0.0000
 11
-24.0429
 21
60.8609
 31
0.0000
  0
LINE
  5
1C0
  8
0
 10
-24.0429
 20
60.8609
 30
0.0000
 11
-20.2740
 21
59.6892
 31
0.0000
  0
LINE
  5
1C1
  8
0
 10
-20.2740
 20
59.6892
 30
0.0000
 11
-16.7620
 21
58.2876
 31
0.0000
  0
LINE
  5
1C2
  8
0
 10
-16.7620
 20
58.2876
 30
0.0000
 11
-13.5511
 21
56.6735
 31
0.0000
  0
LINE
  5
1C3
  8
0
 10
-13.5511
 20
56.6735
 30
0.0000
 11
-10.6817
 21
54.8674
 31
0.0000
  0
LINE
  5
1C4
  8
0
 10
-10.6817
 20
54.8674
 30
0.0000
 11
-8.1898
 21
52.8919
 31
0.0000
  0
LINE
  5
1C5
  8
0
 10
-8.1898
 20
52.8919
 30
0.0000
 11
-6.1068
 21
50.7719
 31
0.0000
  0
LINE
  5
1C6
  8
0
 10
-6.1068
 20
50.7719
 30
0.0000
 11
-4.4589
 21
48.5340
 31
0.0000
  0
LINE
  5
1C7
  8
0
 10
-4.4589
 20
48.5340
 30
0.0000
 11
-3.2668
 21
46.2065
 31
0.0000
  0
LINE
  5
1C8
  8
0
 10
-3.2668
 20
46.2065
 30
0.0000
 11
-2.5455
 21
43.8184
 31
0.0000
  0
LINE
  5
1C9
  8
0
 10
-2.5455
 20
43.8184
 30
0.0000
 11
-2.3040
 21
41.4000
 31
0.0000
  0
LINE
  5
1CA
  8
0
 10
-79.1040
 20
41.4000
 30
0.0000
 11
-2.3040
 21
41.4000
 31
0.0000
  0
LINE
  5
1CB
  8
0
 10
2.3040
 20
41.4000
 30
0.0000
 11
2.5455
 21
43.8184
 31
0.0000
  0
LINE
  5
1CC
  8
0
 10
2.5455
 20
43.8184
 30
0.0000
 11
3.2668
 21
46.2065
 31
0.0000
  0
LINE
  5
1CD
  8
0
 10
3.2668
 20
46.2065
 30
0.0000
 11
4.4589
 21
48.5340
 31
0.0000
  0
LINE
  5
1CE
  8
0
 10
4.4589
 20
48.5340
 30
0.0000
 11
6.1068
 21
50.7719
 31
0.0000
  0
LINE
  5
1CF
  8
0
 10
6.1068
 20
50.7719
 30
0.0000
 11
8.1898
 21
52.8919
 31
0.0000
  0
LINE
  5
1D0
  8
0
 10
8.1898
 20
52.8919
 30
0.0000
 11
10.6817
 21
54.8674
 31
0.0000
  0
LINE
  5
1D1
  8
0
 10
10.6817
 20
54.8674
 30
0.0000
 11
13.5511
 21
56.6735
 31
0.0000
  0
LINE
  5
1D2
  8
0
 10
13.5511
 20
56.6735
 30
0.0000
 11
16.7620
 21
58.2876
 31
0.0000
  0
LINE
  5
1D3
  8
0
 10
16.7620
 20
58.2876
 30
0.0000
 11
20.2740
 21
59.6892
 31
0.0000
  0
LINE
  5
1D4
  8
0
 10
20.2740
 20
59.6892
 30
0.0000
 11
24.0429
 21
60.8609
 31
0.0000
  0
LINE
  5
1D5
  8
0
 10
24.0429
 20
60.8609
 30
0.0000
 11
28.0213
 21
61.7879
 31
0.0000
  0
LINE
  5
1D6
  8
0
 10
28.0213
 20
61.7879
 30
0.0000
 11
32.1592
 21
62.4584
 31
0.0000
  0
LINE
  5
1D7
  8
0
 10
32.1592
 20
62.4584
 30
0.0000
 11
36.4046
 21
62.8642
 31
0.0000
  0
LINE
  5
1D8
  8
0
 10
36.4046
 20
62.8642
 30
0.0000
 11
40.7040
 21
63.0000
 31
0.0000
  0
LINE
  5
1D9
  8
0
 10
40.7040
 20
63.0000
 30
0.0000
 11
45.0034
 21
62.8642
 31
0.0000
  0
LINE
  5
1DA
  8
0
 10
45.0034
 20
62.8642
 30
0.0000
 11
49.2488
 21
62.4584
 31
0.0000
  0
LINE
  5
1DB
  8
0
 10
49.2488
 20
62.4584
 30
0.0000
 11
53.3867
 21
61.7879
 31
0.0000
  0
LINE
  5
1DC
  8
0
 10
53.3867
 20
61.7879
 30
0.0000
 11
57.3651
 21
60.8609
 31
0.0000
  0
LINE
  5
1DD
  8
0
 10
57.3651
 20
60.8609
 30
0.0000
 11
61.1340
 21
59.6892
 31
0.0000
  0
LINE
  5
1DE
  8
0
 10
61.1340
 20
59.6892
 30
0.0000
 11
64.6460
 21
58.2876
 31
0.0000
  0
LINE
  5
1DF
  8
0
 10
64.6460
 20
58.2876
 30
0.0000
 11
67.8569
 21
56.6735
 31
0.0000
  0
LINE
  5
1E0
  8
0
 10
67.8569
 20
56.6735
 30
0.0000
 11
70.7263
 21
54.8674
 31
0.0000
  0
LINE
  5
1E1
  8
0
 10
70.7263
 20
54.8674
 30
0.0000
 11
73.2182
 21
52.8919
 31
0.0000
  0
LINE
  5
1E2
  8
0
 10
73.2182
 20
52.8919
 30
0.0000
 11
75.3012
 21
50.7719
 31
0.0000
  0
LINE
  5
1E3
  8
0
 10
75.3012
 20
50.7719
 30
0.0000
 11
76.9491
 21
48.5340
 31
0.0000
  0
LINE
  5
1E4
  8
0
 10
76.9491
 20
48.5340
 30
0.0000
 11
78.1412
 21
46.2065
 31
0.0000
  0
LINE
  5
1E5
  8
0
 10
78.1412
 20
46.2065
 30
0.0000
 11
78.8625
 21
43.8184
 31
0.0000
  0
LINE
  5
1E6
  8
0
 10
78.8625
 20
43.8184
 30
0.0000
 11
79.1040
 21
41.4000
 31
0.0000
  0
LINE
  5
1E7
  8
0
 10
2.3040
 20
41.4000
 30
0.0000
 11
79.1040
 21
41.4000
 31
0.0000
  0
ENDBLK
  8
0
  0
BLOCK
  8
0
  2
SS_switch_single_90x90
 70
0
 10
0.0000
 20
0.0000
 30
0.0000
  3
SS_switch_single_90x90
  1

  0
LINE
  5
1E8
  8
0
 10
0.0000
 20
0.0000
 30
0.0000
 11
0.0000
 21
27.0000
 31
0.0000
  0
ARC
  5
1E9
  8
0
 10
0.0000
 20
27.0000
 30
0.0000
 40
4.5000
 50
0.0000
 51
360.0000
  0
LINE
  5
1EA
  8
0
 10
0.0000
 20
27.0000
 30
0.0000
 11
23.7461
 21
60.9129
 31
0.0000
  0
ENDBLK
  8
0
  0
BLOCK
  8
0
  2
SS_junction_cable_60x60
 70
0
 10
0.0000
 20
0.0000
 30
0.0000
  3
SS_junction_cable_60x60
  1

  0
LINE
  5
1EB
  8
0
 10
0.0000
 20
0.0000
 30
0.0000
 11
0.0000
 21
46.8000
 31
0.0000
  0
ARC
  5
1EC
  8
0
 10
0.0000
 20
28.8000
 30
0.0000
 40
19.2000
 50
0.0000
 51
360.0000
  0
LINE
  5
1ED
  8
0
 10
0.0000
 20
28.8000
 30
0.0000
 11
-13.2000
 21
42.0000
 31
0.0000
  0
LINE
  5
1EE
  8
0
 10
0.0000
 20
28.8000
 30
0.0000
 11
13.2000
 21
42.0000
 31
0.0000
  0
LINE
  5
1EF
  8
0
 10
0.0000
 20
28.8000
 30
0.0000
 11
-13.2000
 21
15.6000
 31
0.0000
  0
LINE
  5
1F0
  8
0
 10
0.0000
 20
28.8000
 30
0.0000
 11
13.2000
 21
15.6000
 31
0.0000
  0
ENDBLK
  8
0
  0
BLOCK
  8
0
  2
SS_junction_cable_120x120
 70
0
 10
0.0000
 20
0.0000
 30
0.0000
  3
SS_junction_cable_120x120
  1

  0
LINE
  5
1F1
  8
0
 10
0.0000
 20
0.0000
 30
0.0000
 11
0.0000
 21
93.6000
 31
0.0000
  0
ARC
  5
1F2
  8
0
 10
0.0000
 20
57.6000
 30
0.0000
 40
38.4000
 50
0.0000
 51
360.0000
  0
LINE
  5
1F3
  8
0
 10
0.0000
 20
57.6000
 30
0.0000
 11
-26.4000
 21
84.0000
 31
0.0000
  0
LINE
  5
1F4
  8
0
 10
0.0000
 20
57.6000
 30
0.0000
 11
26.4000
 21
84.0000
 31
0.0000
  0
LINE
  5
1F5
  8
0
 10
0.0000
 20
57.6000
 30
0.0000
 11
-26.4000
 21
31.2000
 31
0.0000
  0
LINE
  5
1F6
  8
0
 10
0.0000
 20
57.6000
 30
0.0000
 11
26.4000
 21
31.2000
 31
0.0000
  0
ENDBLK
  8
0
  0
BLOCK
  8
0
  2
SS_light_downlight_150x150
 70
0
 10
0.0000
 20
0.0000
 30
0.0000
  3
SS_light_downlight_150x150
  1

  0
ARC
  5
1F7
  8
0
 10
0.0000
 20
75.0000
 30
0.0000
 40
45.0000
 50
0.0000
 51
360.0000
  0
LINE
  5
1F8
  8
0
 10
-31.5000
 20
106.5000
 30
0.0000
 11
31.5000
 21
43.5000
 31
0.0000
  0
LINE
  5
1F9
  8
0
 10
31.5000
 20
106.5000
 30
0.0000
 11
-31.5000
 21
43.5000
 31
0.0000
  0
ENDBLK
  8
0
  0
BLOCK
  8
0
  2
SS_water_point_60x60
 70
0
 10
0.0000
 20
0.0000
 30
0.0000
  3
SS_water_point_60x60
  1

  0
LINE
  5
1FA
  8
0
 10
0.0000
 20
0.0000
 30
0.0000
 11
0.0000
 21
13.8000
 31
0.0000
  0
ARC
  5
1FB
  8
0
 10
0.0000
 20
30.0000
 30
0.0000
 40
16.8000
 50
0.0000
 51
360.0000
  0
LINE
  5
1FC
  8
0
 10
-14.4000
 20
30.0000
 30
0.0000
 11
14.4000
 21
30.0000
 31
0.0000
  0
LINE
  5
1FD
  8
0
 10
0.0000
 20
44.4000
 30
0.0000
 11
0.0000
 21
15.6000
 31
0.0000
  0
ENDBLK
  8
0
  0
BLOCK
  8
0
  2
SS_gas_point_60x60
 70
0
 10
0.0000
 20
0.0000
 30
0.0000
  3
SS_gas_point_60x60
  1

  0
LINE
  5
1FE
  8
0
 10
0.0000
 20
0.0000
 30
0.0000
 11
0.0000
 21
12.0000
 31
0.0000
  0
LINE
  5
1FF
  8
0
 10
0.0000
 20
48.0000
 30
0.0000
 11
15.6000
 21
39.0000
 31
0.0000
  0
LINE
  5
200
  8
0
 10
15.6000
 20
39.0000
 30
0.0000
 11
15.6000
 21
21.0000
 31
0.0000
  0
LINE
  5
201
  8
0
 10
15.6000
 20
21.0000
 30
0.0000
 11
0.0000
 21
12.0000
 31
0.0000
  0
LINE
  5
202
  8
0
 10
0.0000
 20
12.0000
 30
0.0000
 11
-15.6000
 21
21.0000
 31
0.0000
  0
LINE
  5
203
  8
0
 10
-15.6000
 20
21.0000
 30
0.0000
 11
-15.6000
 21
39.0000
 31
0.0000
  0
LINE
  5
204
  8
0
 10
-15.6000
 20
39.0000
 30
0.0000
 11
0.0000
 21
48.0000
 31
0.0000
  0
TEXT
  5
205
  8
0
 10
0.0000
 20
30.0000
 30
0.0000
 40
24.0000
  1
G
 50
0.0000
  7
SOLINE
 72
1
 73
2
 11
0.0000
 21
30.0000
 31
0.0000
  0
ENDBLK
  8
0
  0
BLOCK
  8
0
  2
SS_water_point_50x50
 70
0
 10
0.0000
 20
0.0000
 30
0.0000
  3
SS_water_point_50x50
  1

  0
LINE
  5
206
  8
0
 10
0.0000
 20
0.0000
 30
0.0000
 11
0.0000
 21
11.5000
 31
0.0000
  0
ARC
  5
207
  8
0
 10
0.0000
 20
25.0000
 30
0.0000
 40
14.0000
 50
0.0000
 51
360.0000
  0
LINE
  5
208
  8
0
 10
-12.0000
 20
25.0000
 30
0.0000
 11
12.0000
 21
25.0000
 31
0.0000
  0
LINE
  5
209
  8
0
 10
0.0000
 20
37.0000
 30
0.0000
 11
0.0000
 21
13.0000
 31
0.0000
  0
ENDBLK
  8
0
  0
BLOCK
  8
0
  2
SS_sewage_point_100x100
 70
0
 10
0.0000
 20
0.0000
 30
0.0000
  3
SS_sewage_point_100x100
  1

  0
LINE
  5
20A
  8
0
 10
0.0000
 20
0.0000
 30
0.0000
 11
0.0000
 21
78.0000
 31
0.0000
  0
ARC
  5
20B
  8
0
 10
0.0000
 20
50.0000
 30
0.0000
 40
30.0000
 50
0.0000
 51
360.0000
  0
LINE
  5
20C
  8
0
 10
-18.0000
 20
44.0000
 30
0.0000
 11
-8.0000
 21
56.0000
 31
0.0000
  0
LINE
  5
20D
  8
0
 10
-8.0000
 20
56.0000
 30
0.0000
 11
0.0000
 21
44.0000
 31
0.0000
  0
LINE
  5
20E
  8
0
 10
0.0000
 20
44.0000
 30
0.0000
 11
8.0000
 21
56.0000
 31
0.0000
  0
LINE
  5
20F
  8
0
 10
8.0000
 20
56.0000
 30
0.0000
 11
18.0000
 21
44.0000
 31
0.0000
  0
ENDBLK
  8
0
  0
BLOCK
  8
0
  2
SS_beam_200x2600
 70
0
 10
0.0000
 20
0.0000
 30
0.0000
  3
SS_beam_200x2600
  1

  0
LINE
  5
210
  8
0
 10
-100.0000
 20
1612.0000
 30
0.0000
 11
100.0000
 21
1612.0000
 31
0.0000
  0
LINE
  5
211
  8
0
 10
100.0000
 20
1612.0000
 30
0.0000
 11
100.0000
 21
988.0000
 31
0.0000
  0
LINE
  5
212
  8
0
 10
100.0000
 20
988.0000
 30
0.0000
 11
-100.0000
 21
988.0000
 31
0.0000
  0
LINE
  5
213
  8
0
 10
-100.0000
 20
988.0000
 30
0.0000
 11
-100.0000
 21
1612.0000
 31
0.0000
  0
ENDBLK
  8
0
  0
BLOCK
  8
0
  2
SS_beam_1000x600
 70
0
 10
0.0000
 20
0.0000
 30
0.0000
  3
SS_beam_1000x600
  1

  0
LINE
  5
214
  8
0
 10
-500.0000
 20
372.0000
 30
0.0000
 11
500.0000
 21
372.0000
 31
0.0000
  0
LINE
  5
215
  8
0
 10
500.0000
 20
372.0000
 30
0.0000
 11
500.0000
 21
228.0000
 31
0.0000
  0
LINE
  5
216
  8
0
 10
500.0000
 20
228.0000
 30
0.0000
 11
-500.0000
 21
228.0000
 31
0.0000
  0
LINE
  5
217
  8
0
 10
-500.0000
 20
228.0000
 30
0.0000
 11
-500.0000
 21
372.0000
 31
0.0000
  0
ENDBLK
  8
0
  0
BLOCK
  8
0
  2
SS_concealment_panel_600x50
 70
0
 10
0.0000
 20
0.0000
 30
0.0000
  3
SS_concealment_panel_600x50
  1

  0
LINE
  5
218
  8
0
 10
-216.0000
 20
43.0000
 30
0.0000
 11
216.0000
 21
43.0000
 31
0.0000
  0
LINE
  5
219
  8
0
 10
216.0000
 20
43.0000
 30
0.0000
 11
216.0000
 21
7.0000
 31
0.0000
  0
LINE
  5
21A
  8
0
 10
216.0000
 20
7.0000
 30
0.0000
 11
-216.0000
 21
7.0000
 31
0.0000
  0
LINE
  5
21B
  8
0
 10
-216.0000
 20
7.0000
 30
0.0000
 11
-216.0000
 21
43.0000
 31
0.0000
  0
LINE
  5
21C
  8
0
 10
180.0000
 20
28.0000
 30
0.0000
 11
216.0000
 21
25.0000
 31
0.0000
  0
LINE
  5
21D
  8
0
 10
216.0000
 20
25.0000
 30
0.0000
 11
180.0000
 21
22.0000
 31
0.0000
  0
ENDBLK
  8
0
  0
ENDSEC
  0
SECTION
  2
ENTITIES
  0
LINE
  5
171
  8
גבול-גיליון
 10
0.0000
 20
0.0000
 30
0.0000
 11
420.0000
 21
0.0000
 31
0.0000
  0
LINE
  5
172
  8
גבול-גיליון
 10
420.0000
 20
0.0000
 30
0.0000
 11
420.0000
 21
297.0000
 31
0.0000
  0
LINE
  5
173
  8
גבול-גיליון
 10
420.0000
 20
297.0000
 30
0.0000
 11
0.0000
 21
297.0000
 31
0.0000
  0
LINE
  5
174
  8
גבול-גיליון
 10
0.0000
 20
297.0000
 30
0.0000
 11
0.0000
 21
0.0000
 31
0.0000
  0
LINE
  5
175
  8
מסגרת
 10
10.0000
 20
10.0000
 30
0.0000
 11
410.0000
 21
10.0000
 31
0.0000
  0
LINE
  5
176
  8
מסגרת
 10
410.0000
 20
10.0000
 30
0.0000
 11
410.0000
 21
287.0000
 31
0.0000
  0
LINE
  5
177
  8
מסגרת
 10
410.0000
 20
287.0000
 30
0.0000
 11
10.0000
 21
287.0000
 31
0.0000
  0
LINE
  5
178
  8
מסגרת
 10
10.0000
 20
287.0000
 30
0.0000
 11
10.0000
 21
10.0000
 31
0.0000
  0
LINE
  5
179
  8
גבול-גיליון
 10
10.0000
 20
10.0000
 30
0.0000
 11
410.0000
 21
10.0000
 31
0.0000
  0
LINE
  5
17A
  8
גבול-גיליון
 10
410.0000
 20
10.0000
 30
0.0000
 11
410.0000
 21
44.0000
 31
0.0000
  0
LINE
  5
17B
  8
גבול-גיליון
 10
410.0000
 20
44.0000
 30
0.0000
 11
10.0000
 21
44.0000
 31
0.0000
  0
LINE
  5
17C
  8
גבול-גיליון
 10
10.0000
 20
44.0000
 30
0.0000
 11
10.0000
 21
10.0000
 31
0.0000
  0
LINE
  5
17D
  8
מסגרת
 10
118.8000
 20
10.0000
 30
0.0000
 11
118.8000
 21
44.0000
 31
0.0000
  0
TEXT
  5
17E
  8
מסגרת
 10
64.4000
 20
31.0800
 30
0.0000
 40
5.3200
  1
SOLINE
 50
0.0000
  7
SOLINE
 72
1
 73
2
 11
64.4000
 21
31.0800
 31
0.0000
  0
TEXT
  5
17F
  8
מקרא
 10
64.4000
 20
18.8400
 30
0.0000
 40
2.5200
  1
PLAN
 50
0.0000
  7
SOLINE
 72
1
 73
2
 11
64.4000
 21
18.8400
 31
0.0000
  0
LINE
  5
180
  8
מסגרת
 10
215.8667
 20
10.0000
 30
0.0000
 11
215.8667
 21
44.0000
 31
0.0000
  0
LINE
  5
181
  8
מסגרת
 10
312.9333
 20
10.0000
 30
0.0000
 11
312.9333
 21
44.0000
 31
0.0000
  0
LINE
  5
182
  8
מסגרת
 10
118.8000
 20
27.0000
 30
0.0000
 11
410.0000
 21
27.0000
 31
0.0000
  0
TEXT
  5
183
  8
מקרא
 10
121.0400
 20
38.9000
 30
0.0000
 40
2.0160
  1
PROJECT
 50
0.0000
  7
SOLINE
 73
2
 11
121.0400
 21
38.9000
 31
0.0000
  0
TEXT
  5
184
  8
מסגרת
 10
121.0400
 20
31.4200
 30
0.0000
 40
2.9400
  1
allelem
 50
0.0000
  7
SOLINE
 73
2
 11
121.0400
 21
31.4200
 31
0.0000
  0
TEXT
  5
185
  8
מקרא
 10
218.1067
 20
38.9000
 30
0.0000
 40
2.0160
  1
SCALE
 50
0.0000
  7
SOLINE
 73
2
 11
218.1067
 21
38.9000
 31
0.0000
  0
TEXT
  5
186
  8
מסגרת
 10
218.1067
 20
31.4200
 30
0.0000
 40
2.9400
  1
1:20
 50
0.0000
  7
SOLINE
 73
2
 11
218.1067
 21
31.4200
 31
0.0000
  0
TEXT
  5
187
  8
מקרא
 10
315.1733
 20
38.9000
 30
0.0000
 40
2.0160
  1
PAPER
 50
0.0000
  7
SOLINE
 73
2
 11
315.1733
 21
38.9000
 31
0.0000
  0
TEXT
  5
188
  8
מסגרת
 10
315.1733
 20
31.4200
 30
0.0000
 40
2.9400
  1
A3 landscape
 50
0.0000
  7
SOLINE
 73
2
 11
315.1733
 21
31.4200
 31
0.0000
  0
TEXT
  5
189
  8
מקרא
 10
121.0400
 20
21.9000
 30
0.0000
 40
2.0160
  1
DATE
 50
0.0000
  7
SOLINE
 73
2
 11
121.0400
 21
21.9000
 31
0.0000
  0
TEXT
  5
18A
  8
מסגרת
 10
121.0400
 20
14.4200
 30
0.0000
 40
2.9400
  1
2026-08-24
 50
0.0000
  7
SOLINE
 73
2
 11
121.0400
 21
14.4200
 31
0.0000
  0
TEXT
  5
18B
  8
מקרא
 10
218.1067
 20
21.9000
 30
0.0000
 40
2.0160
  1
DRAWING No
 50
0.0000
  7
SOLINE
 73
2
 11
218.1067
 21
21.9000
 31
0.0000
  0
TEXT
  5
18C
  8
מסגרת
 10
218.1067
 20
14.4200
 30
0.0000
 40
2.9400
  1
M-01
 50
0.0000
  7
SOLINE
 73
2
 11
218.1067
 21
14.4200
 31
0.0000
  0
TEXT
  5
18D
  8
מקרא
 10
315.1733
 20
21.9000
 30
0.0000
 40
2.0160
  1
SHEET
 50
0.0000
  7
SOLINE
 73
2
 11
315.1733
 21
21.9000
 31
0.0000
  0
TEXT
  5
18E
  8
מסגרת
 10
315.1733
 20
14.4200
 30
0.0000
 40
2.9400
  1
PLAN
 50
0.0000
  7
SOLINE
 73
2
 11
315.1733
 21
14.4200
 31
0.0000
  0
SOLID
  5
100
  8
קירות-מילוי
 10
136.8750
 20
281.3750
 30
0.0000
 11
346.8750
 21
281.3750
 31
0.0000
 12
141.8750
 22
276.3750
 32
0.0000
 13
341.8750
 23
276.3750
 33
0.0000
  0
LINE
  5
101
  8
קירות
 10
136.8750
 20
281.3750
 30
0.0000
 11
346.8750
 21
281.3750
 31
0.0000
  0
LINE
  5
102
  8
קירות
 10
141.8750
 20
276.3750
 30
0.0000
 11
341.8750
 21
276.3750
 31
0.0000
  0
SOLID
  5
103
  8
קירות-מילוי
 10
346.8750
 20
281.3750
 30
0.0000
 11
346.8750
 21
121.3750
 31
0.0000
 12
341.8750
 22
276.3750
 32
0.0000
 13
341.8750
 23
126.3750
 33
0.0000
  0
LINE
  5
104
  8
קירות
 10
346.8750
 20
281.3750
 30
0.0000
 11
346.8750
 21
121.3750
 31
0.0000
  0
LINE
  5
105
  8
קירות
 10
341.8750
 20
276.3750
 30
0.0000
 11
341.8750
 21
126.3750
 31
0.0000
  0
SOLID
  5
106
  8
קירות-מילוי
 10
346.8750
 20
121.3750
 30
0.0000
 11
316.8750
 21
121.3750
 31
0.0000
 12
341.8750
 22
126.3750
 32
0.0000
 13
316.8750
 23
126.3750
 33
0.0000
  0
LINE
  5
107
  8
קירות
 10
346.8750
 20
121.3750
 30
0.0000
 11
316.8750
 21
121.3750
 31
0.0000
  0
LINE
  5
108
  8
קירות
 10
341.8750
 20
126.3750
 30
0.0000
 11
316.8750
 21
126.3750
 31
0.0000
  0
SOLID
  5
109
  8
קירות-מילוי
 10
199.3750
 20
121.3750
 30
0.0000
 11
136.8750
 21
121.3750
 31
0.0000
 12
199.3750
 22
126.3750
 32
0.0000
 13
141.8750
 23
126.3750
 33
0.0000
  0
LINE
  5
10A
  8
קירות
 10
199.3750
 20
121.3750
 30
0.0000
 11
136.8750
 21
121.3750
 31
0.0000
  0
LINE
  5
10B
  8
קירות
 10
199.3750
 20
126.3750
 30
0.0000
 11
141.8750
 21
126.3750
 31
0.0000
  0
LINE
  5
10C
  8
קירות
 10
316.8750
 20
126.3750
 30
0.0000
 11
316.8750
 21
121.3750
 31
0.0000
  0
LINE
  5
10D
  8
קירות
 10
199.3750
 20
126.3750
 30
0.0000
 11
199.3750
 21
121.3750
 31
0.0000
  0
SOLID
  5
10E
  8
קירות-מילוי
 10
136.8750
 20
121.3750
 30
0.0000
 11
136.8750
 21
281.3750
 31
0.0000
 12
141.8750
 22
126.3750
 32
0.0000
 13
141.8750
 23
276.3750
 33
0.0000
  0
LINE
  5
10F
  8
קירות
 10
136.8750
 20
121.3750
 30
0.0000
 11
136.8750
 21
281.3750
 31
0.0000
  0
LINE
  5
110
  8
קירות
 10
141.8750
 20
126.3750
 30
0.0000
 11
141.8750
 21
276.3750
 31
0.0000
  0
LINE
  5
111
  8
חלונות
 10
316.8750
 20
128.8750
 30
0.0000
 11
266.8750
 21
128.8750
 31
0.0000
  0
LINE
  5
112
  8
חלונות
 10
266.8750
 20
128.8750
 30
0.0000
 11
266.8750
 21
123.8750
 31
0.0000
  0
LINE
  5
113
  8
חלונות
 10
266.8750
 20
123.8750
 30
0.0000
 11
316.8750
 21
123.8750
 31
0.0000
  0
LINE
  5
114
  8
חלונות
 10
316.8750
 20
123.8750
 30
0.0000
 11
316.8750
 21
128.8750
 31
0.0000
  0
LINE
  5
115
  8
חלונות
 10
314.3750
 20
128.8750
 30
0.0000
 11
314.3750
 21
123.8750
 31
0.0000
  0
LINE
  5
116
  8
חלונות
 10
269.3750
 20
128.8750
 30
0.0000
 11
269.3750
 21
123.8750
 31
0.0000
  0
LINE
  5
117
  8
חלונות
 10
314.3750
 20
126.3750
 30
0.0000
 11
269.3750
 21
126.3750
 31
0.0000
  0
LINE
  5
118
  8
חלונות
 10
314.3750
 20
126.3750
 30
0.0000
 11
269.3750
 21
126.3750
 31
0.0000
  0
LINE
  5
119
  8
חלונות
 10
314.3750
 20
126.3750
 30
0.0000
 11
269.3750
 21
126.3750
 31
0.0000
  0
TEXT
  5
11A
  8
חלונות-טקסט
 10
291.8750
 20
115.1250
 30
0.0000
 40
6.2500
  1
W1
 50
0.0000
  7
SOLINE
 72
1
 73
2
 11
291.8750
 21
115.1250
 31
0.0000
  0
LINE
  5
11B
  8
דלתות
 10
279.3750
 20
128.8750
 30
0.0000
 11
234.3750
 21
128.8750
 31
0.0000
  0
LINE
  5
11C
  8
דלתות
 10
234.3750
 20
128.8750
 30
0.0000
 11
234.3750
 21
123.8750
 31
0.0000
  0
LINE
  5
11D
  8
דלתות
 10
234.3750
 20
123.8750
 30
0.0000
 11
279.3750
 21
123.8750
 31
0.0000
  0
LINE
  5
11E
  8
דלתות
 10
279.3750
 20
123.8750
 30
0.0000
 11
279.3750
 21
128.8750
 31
0.0000
  0
LINE
  5
11F
  8
דלתות
 10
277.3750
 20
128.8750
 30
0.0000
 11
277.3750
 21
123.8750
 31
0.0000
  0
LINE
  5
120
  8
דלתות
 10
236.3750
 20
128.8750
 30
0.0000
 11
236.3750
 21
123.8750
 31
0.0000
  0
LINE
  5
121
  8
דלתות
 10
277.3750
 20
126.3750
 30
0.0000
 11
236.3750
 21
126.3750
 31
0.0000
  0
LINE
  5
122
  8
דלתות
 10
277.3750
 20
126.3750
 30
0.0000
 11
277.3750
 21
167.3750
 31
0.0000
  0
ARC
  5
123
  8
דלתות
 10
277.3750
 20
126.3750
 30
0.0000
 40
41.0000
 50
90.0000
 51
180.0000
  0
TEXT
  5
124
  8
דלתות-טקסט
 10
256.8750
 20
115.1250
 30
0.0000
 40
6.2500
  1
D1
 50
0.0000
  7
SOLINE
 72
1
 73
2
 11
256.8750
 21
115.1250
 31
0.0000
  0
LINE
  5
125
  8
דלתות
 10
244.3750
 20
128.8750
 30
0.0000
 11
199.3750
 21
128.8750
 31
0.0000
  0
LINE
  5
126
  8
דלתות
 10
199.3750
 20
128.8750
 30
0.0000
 11
199.3750
 21
123.8750
 31
0.0000
  0
LINE
  5
127
  8
דלתות
 10
199.3750
 20
123.8750
 30
0.0000
 11
244.3750
 21
123.8750
 31
0.0000
  0
LINE
  5
128
  8
דלתות
 10
244.3750
 20
123.8750
 30
0.0000
 11
244.3750
 21
128.8750
 31
0.0000
  0
LINE
  5
129
  8
דלתות
 10
242.3750
 20
128.8750
 30
0.0000
 11
242.3750
 21
123.8750
 31
0.0000
  0
LINE
  5
12A
  8
דלתות
 10
201.3750
 20
128.8750
 30
0.0000
 11
201.3750
 21
123.8750
 31
0.0000
  0
LINE
  5
12B
  8
דלתות
 10
242.3750
 20
126.3750
 30
0.0000
 11
201.3750
 21
126.3750
 31
0.0000
  0
TEXT
  5
12C
  8
דלתות-טקסט
 10
221.8750
 20
115.1250
 30
0.0000
 40
6.2500
  1
D2
 50
0.0000
  7
SOLINE
 72
1
 73
2
 11
221.8750
 21
115.1250
 31
0.0000
  0
INSERT
  5
12D
  8
חשמל
  2
SS_socket_single_90x90
 10
159.1250
 20
276.3750
 30
0.0000
 41
0.0500
 42
0.0500
 43
1.0000
 50
0.0000
  0
INSERT
  5
12E
  8
חשמל
  2
SS_socket_duplex_160x90
 10
195.8750
 20
276.3750
 30
0.0000
 41
0.0500
 42
0.0500
 43
1.0000
 50
0.0000
  0
INSERT
  5
12F
  8
חשמל
  2
SS_switch_single_90x90
 10
229.1250
 20
276.3750
 30
0.0000
 41
0.0500
 42
0.0500
 43
1.0000
 50
0.0000
  0
INSERT
  5
130
  8
חשמל
  2
SS_junction_cable_60x60
 10
263.3750
 20
276.3750
 30
0.0000
 41
0.0500
 42
0.0500
 43
1.0000
 50
0.0000
  0
INSERT
  5
131
  8
חשמל
  2
SS_junction_cable_60x60
 10
298.3750
 20
276.3750
 30
0.0000
 41
0.0500
 42
0.0500
 43
1.0000
 50
0.0000
  0
INSERT
  5
132
  8
חשמל
  2
SS_junction_cable_120x120
 10
341.8750
 20
258.3750
 30
0.0000
 41
0.0500
 42
0.0500
 43
1.0000
 50
270.0000
  0
INSERT
  5
133
  8
תאורה
  2
SS_light_downlight_150x150
 10
341.8750
 20
222.6250
 30
0.0000
 41
0.0500
 42
0.0500
 43
1.0000
 50
270.0000
  0
INSERT
  5
134
  8
מים
  2
SS_water_point_60x60
 10
341.8750
 20
189.8750
 30
0.0000
 41
0.0500
 42
0.0500
 43
1.0000
 50
270.0000
  0
INSERT
  5
135
  8
גז
  2
SS_gas_point_60x60
 10
341.8750
 20
154.8750
 30
0.0000
 41
0.0500
 42
0.0500
 43
1.0000
 50
270.0000
  0
INSERT
  5
136
  8
מים
  2
SS_water_point_50x50
 10
341.8750
 20
120.1250
 30
0.0000
 41
0.0500
 42
0.0500
 43
1.0000
 50
270.0000
  0
INSERT
  5
137
  8
ניקוז
  2
SS_sewage_point_100x100
 10
324.3750
 20
126.3750
 30
0.0000
 41
0.0500
 42
0.0500
 43
1.0000
 50
180.0000
  0
INSERT
  5
138
  8
מבנה
  2
SS_beam_200x2600
 10
186.8750
 20
126.3750
 30
0.0000
 41
0.0500
 42
0.0500
 43
1.0000
 50
180.0000
  0
INSERT
  5
139
  8
מבנה
  2
SS_beam_1000x600
 10
141.8750
 20
141.3750
 30
0.0000
 41
0.0500
 42
0.0500
 43
1.0000
 50
90.0000
  0
INSERT
  5
13A
  8
מבנה
  2
SS_concealment_panel_600x50
 10
141.8750
 20
191.3750
 30
0.0000
 41
0.0500
 42
0.0500
 43
1.0000
 50
90.0000
  0
LINE
  5
13B
  8
מידות-פנים
 10
341.8750
 20
124.3750
 30
0.0000
 11
341.8750
 21
98.6750
 31
0.0000
  0
LINE
  5
13C
  8
מידות-פנים
 10
316.8750
 20
124.3750
 30
0.0000
 11
316.8750
 21
98.6750
 31
0.0000
  0
LINE
  5
13D
  8
מידות-פנים
 10
341.8750
 20
101.3750
 30
0.0000
 11
316.8750
 21
101.3750
 31
0.0000
  0
SOLID
  5
13E
  8
מידות-פנים
 10
341.8750
 20
101.3750
 30
0.0000
 11
347.0500
 21
99.9350
 31
0.0000
 12
347.0500
 22
102.8150
 32
0.0000
 13
347.0500
 23
102.8150
 33
0.0000
  0
SOLID
  5
13F
  8
מידות-פנים
 10
316.8750
 20
101.3750
 30
0.0000
 11
311.7000
 21
99.9350
 31
0.0000
 12
311.7000
 22
102.8150
 32
0.0000
 13
311.7000
 23
102.8150
 33
0.0000
  0
TEXT
  5
140
  8
מידות-פנים
 10
329.3750
 20
97.1000
 30
0.0000
 40
4.5000
  1
50
 50
360.0000
  7
SOLINE
 72
1
 73
2
 11
329.3750
 21
97.1000
 31
0.0000
  0
LINE
  5
141
  8
מידות-פנים
 10
316.8750
 20
124.3750
 30
0.0000
 11
316.8750
 21
98.6750
 31
0.0000
  0
LINE
  5
142
  8
מידות-פנים
 10
279.3750
 20
124.3750
 30
0.0000
 11
279.3750
 21
98.6750
 31
0.0000
  0
LINE
  5
143
  8
מידות-פנים
 10
316.8750
 20
101.3750
 30
0.0000
 11
279.3750
 21
101.3750
 31
0.0000
  0
SOLID
  5
144
  8
מידות-פנים
 10
316.8750
 20
101.3750
 30
0.0000
 11
322.0500
 21
99.9350
 31
0.0000
 12
322.0500
 22
102.8150
 32
0.0000
 13
322.0500
 23
102.8150
 33
0.0000
  0
SOLID
  5
145
  8
מידות-פנים
 10
279.3750
 20
101.3750
 30
0.0000
 11
274.2000
 21
99.9350
 31
0.0000
 12
274.2000
 22
102.8150
 32
0.0000
 13
274.2000
 23
102.8150
 33
0.0000
  0
TEXT
  5
146
  8
מידות-פנים
 10
298.1250
 20
97.1000
 30
0.0000
 40
4.5000
  1
75
 50
360.0000
  7
SOLINE
 72
1
 73
2
 11
298.1250
 21
97.1000
 31
0.0000
  0
LINE
  5
147
  8
מידות-פנים
 10
279.3750
 20
124.3750
 30
0.0000
 11
279.3750
 21
98.6750
 31
0.0000
  0
LINE
  5
148
  8
מידות-פנים
 10
266.8750
 20
124.3750
 30
0.0000
 11
266.8750
 21
98.6750
 31
0.0000
  0
LINE
  5
149
  8
מידות-פנים
 10
279.3750
 20
101.3750
 30
0.0000
 11
266.8750
 21
101.3750
 31
0.0000
  0
SOLID
  5
14A
  8
מידות-פנים
 10
279.3750
 20
101.3750
 30
0.0000
 11
284.5500
 21
99.9350
 31
0.0000
 12
284.5500
 22
102.8150
 32
0.0000
 13
284.5500
 23
102.8150
 33
0.0000
  0
SOLID
  5
14B
  8
מידות-פנים
 10
266.8750
 20
101.3750
 30
0.0000
 11
261.7000
 21
99.9350
 31
0.0000
 12
261.7000
 22
102.8150
 32
0.0000
 13
261.7000
 23
102.8150
 33
0.0000
  0
TEXT
  5
14C
  8
מידות-פנים
 10
273.1250
 20
97.1000
 30
0.0000
 40
4.5000
  1
25
 50
360.0000
  7
SOLINE
 72
1
 73
2
 11
273.1250
 21
97.1000
 31
0.0000
  0
LINE
  5
14D
  8
מידות-פנים
 10
266.8750
 20
124.3750
 30
0.0000
 11
266.8750
 21
98.6750
 31
0.0000
  0
LINE
  5
14E
  8
מידות-פנים
 10
244.3750
 20
124.3750
 30
0.0000
 11
244.3750
 21
98.6750
 31
0.0000
  0
LINE
  5
14F
  8
מידות-פנים
 10
266.8750
 20
101.3750
 30
0.0000
 11
244.3750
 21
101.3750
 31
0.0000
  0
SOLID
  5
150
  8
מידות-פנים
 10
266.8750
 20
101.3750
 30
0.0000
 11
272.0500
 21
99.9350
 31
0.0000
 12
272.0500
 22
102.8150
 32
0.0000
 13
272.0500
 23
102.8150
 33
0.0000
  0
SOLID
  5
151
  8
מידות-פנים
 10
244.3750
 20
101.3750
 30
0.0000
 11
239.2000
 21
99.9350
 31
0.0000
 12
239.2000
 22
102.8150
 32
0.0000
 13
239.2000
 23
102.8150
 33
0.0000
  0
TEXT
  5
152
  8
מידות-פנים
 10
255.6250
 20
97.1000
 30
0.0000
 40
4.5000
  1
45
 50
360.0000
  7
SOLINE
 72
1
 73
2
 11
255.6250
 21
97.1000
 31
0.0000
  0
LINE
  5
153
  8
מידות-פנים
 10
244.3750
 20
124.3750
 30
0.0000
 11
244.3750
 21
98.6750
 31
0.0000
  0
LINE
  5
154
  8
מידות-פנים
 10
234.3750
 20
124.3750
 30
0.0000
 11
234.3750
 21
98.6750
 31
0.0000
  0
LINE
  5
155
  8
מידות-פנים
 10
244.3750
 20
101.3750
 30
0.0000
 11
234.3750
 21
101.3750
 31
0.0000
  0
SOLID
  5
156
  8
מידות-פנים
 10
244.3750
 20
101.3750
 30
0.0000
 11
249.5500
 21
99.9350
 31
0.0000
 12
249.5500
 22
102.8150
 32
0.0000
 13
249.5500
 23
102.8150
 33
0.0000
  0
SOLID
  5
157
  8
מידות-פנים
 10
234.3750
 20
101.3750
 30
0.0000
 11
229.2000
 21
99.9350
 31
0.0000
 12
229.2000
 22
102.8150
 32
0.0000
 13
229.2000
 23
102.8150
 33
0.0000
  0
TEXT
  5
158
  8
מידות-פנים
 10
239.3750
 20
97.1000
 30
0.0000
 40
4.5000
  1
20
 50
360.0000
  7
SOLINE
 72
1
 73
2
 11
239.3750
 21
97.1000
 31
0.0000
  0
LINE
  5
159
  8
מידות-פנים
 10
234.3750
 20
124.3750
 30
0.0000
 11
234.3750
 21
98.6750
 31
0.0000
  0
LINE
  5
15A
  8
מידות-פנים
 10
199.3750
 20
124.3750
 30
0.0000
 11
199.3750
 21
98.6750
 31
0.0000
  0
LINE
  5
15B
  8
מידות-פנים
 10
234.3750
 20
101.3750
 30
0.0000
 11
199.3750
 21
101.3750
 31
0.0000
  0
SOLID
  5
15C
  8
מידות-פנים
 10
234.3750
 20
101.3750
 30
0.0000
 11
239.5500
 21
99.9350
 31
0.0000
 12
239.5500
 22
102.8150
 32
0.0000
 13
239.5500
 23
102.8150
 33
0.0000
  0
SOLID
  5
15D
  8
מידות-פנים
 10
199.3750
 20
101.3750
 30
0.0000
 11
194.2000
 21
99.9350
 31
0.0000
 12
194.2000
 22
102.8150
 32
0.0000
 13
194.2000
 23
102.8150
 33
0.0000
  0
TEXT
  5
15E
  8
מידות-פנים
 10
216.8750
 20
97.1000
 30
0.0000
 40
4.5000
  1
70
 50
360.0000
  7
SOLINE
 72
1
 73
2
 11
216.8750
 21
97.1000
 31
0.0000
  0
LINE
  5
15F
  8
מידות-פנים
 10
199.3750
 20
124.3750
 30
0.0000
 11
199.3750
 21
98.6750
 31
0.0000
  0
LINE
  5
160
  8
מידות-פנים
 10
141.8750
 20
124.3750
 30
0.0000
 11
141.8750
 21
98.6750
 31
0.0000
  0
LINE
  5
161
  8
מידות-פנים
 10
199.3750
 20
101.3750
 30
0.0000
 11
141.8750
 21
101.3750
 31
0.0000
  0
SOLID
  5
162
  8
מידות-פנים
 10
199.3750
 20
101.3750
 30
0.0000
 11
204.5500
 21
99.9350
 31
0.0000
 12
204.5500
 22
102.8150
 32
0.0000
 13
204.5500
 23
102.8150
 33
0.0000
  0
SOLID
  5
163
  8
מידות-פנים
 10
141.8750
 20
101.3750
 30
0.0000
 11
136.7000
 21
99.9350
 31
0.0000
 12
136.7000
 22
102.8150
 32
0.0000
 13
136.7000
 23
102.8150
 33
0.0000
  0
TEXT
  5
164
  8
מידות-פנים
 10
170.6250
 20
97.1000
 30
0.0000
 40
4.5000
  1
115
 50
360.0000
  7
SOLINE
 72
1
 73
2
 11
170.6250
 21
97.1000
 31
0.0000
  0
LINE
  5
165
  8
מידות-פנים
 10
141.8750
 20
123.8750
 30
0.0000
 11
141.8750
 21
57.6250
 31
0.0000
  0
LINE
  5
166
  8
מידות-פנים
 10
341.8750
 20
123.8750
 30
0.0000
 11
341.8750
 21
57.6250
 31
0.0000
  0
LINE
  5
167
  8
מידות-פנים
 10
141.8750
 20
61.3750
 30
0.0000
 11
341.8750
 21
61.3750
 31
0.0000
  0
SOLID
  5
168
  8
מידות-פנים
 10
141.8750
 20
61.3750
 30
0.0000
 11
134.6875
 21
59.3750
 31
0.0000
 12
134.6875
 22
63.3750
 32
0.0000
 13
134.6875
 23
63.3750
 33
0.0000
  0
SOLID
  5
169
  8
מידות-פנים
 10
341.8750
 20
61.3750
 30
0.0000
 11
349.0625
 21
59.3750
 31
0.0000
 12
349.0625
 22
63.3750
 32
0.0000
 13
349.0625
 23
63.3750
 33
0.0000
  0
TEXT
  5
16A
  8
מידות-פנים
 10
241.8750
 20
55.4375
 30
0.0000
 40
6.2500
  1
400
 50
0.0000
  7
SOLINE
 72
1
 73
2
 11
241.8750
 21
55.4375
 31
0.0000
  0
LINE
  5
16B
  8
מידות-פנים
 10
139.3750
 20
126.3750
 30
0.0000
 11
73.1250
 21
126.3750
 31
0.0000
  0
LINE
  5
16C
  8
מידות-פנים
 10
139.3750
 20
276.3750
 30
0.0000
 11
73.1250
 21
276.3750
 31
0.0000
  0
LINE
  5
16D
  8
מידות-פנים
 10
76.8750
 20
126.3750
 30
0.0000
 11
76.8750
 21
276.3750
 31
0.0000
  0
SOLID
  5
16E
  8
מידות-פנים
 10
76.8750
 20
126.3750
 30
0.0000
 11
74.8750
 21
119.1875
 31
0.0000
 12
78.8750
 22
119.1875
 32
0.0000
 13
78.8750
 23
119.1875
 33
0.0000
  0
SOLID
  5
16F
  8
מידות-פנים
 10
76.8750
 20
276.3750
 30
0.0000
 11
74.8750
 21
283.5625
 31
0.0000
 12
78.8750
 22
283.5625
 32
0.0000
 13
78.8750
 23
283.5625
 33
0.0000
  0
TEXT
  5
170
  8
מידות-פנים
 10
70.9375
 20
201.3750
 30
0.0000
 40
6.2500
  1
300
 50
90.0000
  7
SOLINE
 72
1
 73
2
 11
70.9375
 21
201.3750
 31
0.0000
  0
ENDSEC
  0
EOF
