  0
SECTION
  2
HEADER
  9
$ACADVER
  1
AC1009
  9
$INSBASE
 10
0.0000
 20
0.0000
 30
0.0000
  9
$EXTMIN
 10
-5.0000
 20
-5.0000
 30
0.0000
  9
$EXTMAX
 10
425.0000
 20
302.0000
 30
0.0000
  9
$DWGCODEPAGE
  3
ansi_1255
  9
$CLAYER
  8
0
  9
$LTSCALE
 40
10.0000
  9
$LIMMIN
 10
0.0000
 20
0.0000
  9
$LIMMAX
 10
2000.0000
 20
200.0000
  0
ENDSEC
  0
SECTION
  2
TABLES
  0
TABLE
  2
VPORT
 70
1
  0
VPORT
  2
*ACTIVE
 70
0
 10
0.0000
 20
0.0000
 11
1.0000
 21
1.0000
 12
210.0000
 22
148.5000
 13
0.0000
 23
0.0000
 14
10.0000
 24
10.0000
 15
10.0000
 25
10.0000
 16
0.0000
 26
0.0000
 36
1.0000
 17
0.0000
 27
0.0000
 37
0.0000
 40
1000.0000
 41
1.6000
 42
50.0000
 43
0.0000
 44
0.0000
 50
0.0000
 51
0.0000
 71
0
 72
100
 73
1
 74
1
 75
0
 76
0
 77
0
 78
0
  0
ENDTAB
  0
TABLE
  2
LTYPE
 70
3
  0
LTYPE
  2
CONTINUOUS
 70
0
  3
Solid line
 72
65
 73
0
 40
0.0000
  0
LTYPE
  2
HIDDEN
 70
0
  3
Hidden __ __ __ __ __ __
 72
65
 73
2
 40
9.5250
 49
6.3500
 49
-3.1750
  0
LTYPE
  2
CENTER
 70
0
  3
Center ____ _ ____ _ ____
 72
65
 73
4
 40
50.8000
 49
31.7500
 49
-6.3500
 49
6.3500
 49
-6.3500
  0
ENDTAB
  0
TABLE
  2
LAYER
 70
71
  0
LAYER
  2
0
 70
0
 62
7
  6
CONTINUOUS
  0
LAYER
  2
קירות
 70
0
 62
7
  6
CONTINUOUS
  0
LAYER
  2
קירות-מילוי
 70
0
 62
8
  6
CONTINUOUS
  0
LAYER
  2
קירות-מידות
 70
0
 62
7
  6
CONTINUOUS
  0
LAYER
  2
קירות-טקסט
 70
0
 62
7
  6
CONTINUOUS
  0
LAYER
  2
קירות-נסתר
 70
0
 62
7
  6
HIDDEN
  0
LAYER
  2
קירות-ציר
 70
0
 62
7
  6
CENTER
  0
LAYER
  2
מבנה
 70
0
 62
9
  6
CONTINUOUS
  0
LAYER
  2
מבנה-מילוי
 70
0
 62
9
  6
CONTINUOUS
  0
LAYER
  2
מבנה-מידות
 70
0
 62
9
  6
CONTINUOUS
  0
LAYER
  2
מבנה-טקסט
 70
0
 62
9
  6
CONTINUOUS
  0
LAYER
  2
מבנה-נסתר
 70
0
 62
9
  6
HIDDEN
  0
LAYER
  2
מבנה-ציר
 70
0
 62
9
  6
CENTER
  0
LAYER
  2
חשמל
 70
0
 62
6
  6
CONTINUOUS
  0
LAYER
  2
חשמל-מידות
 70
0
 62
6
  6
CONTINUOUS
  0
LAYER
  2
חשמל-טקסט
 70
0
 62
6
  6
CONTINUOUS
  0
LAYER
  2
חשמל-נסתר
 70
0
 62
6
  6
HIDDEN
  0
LAYER
  2
תאורה
 70
0
 62
30
  6
CONTINUOUS
  0
LAYER
  2
תאורה-מידות
 70
0
 62
30
  6
CONTINUOUS
  0
LAYER
  2
תאורה-טקסט
 70
0
 62
30
  6
CONTINUOUS
  0
LAYER
  2
תאורה-נסתר
 70
0
 62
30
  6
HIDDEN
  0
LAYER
  2
מים
 70
0
 62
4
  6
CONTINUOUS
  0
LAYER
  2
מים-מידות
 70
0
 62
4
  6
CONTINUOUS
  0
LAYER
  2
מים-טקסט
 70
0
 62
4
  6
CONTINUOUS
  0
LAYER
  2
מים-נסתר
 70
0
 62
4
  6
HIDDEN
  0
LAYER
  2
מים-ציר
 70
0
 62
4
  6
CENTER
  0
LAYER
  2
ניקוז
 70
0
 62
140
  6
CONTINUOUS
  0
LAYER
  2
ניקוז-מידות
 70
0
 62
140
  6
CONTINUOUS
  0
LAYER
  2
ניקוז-טקסט
 70
0
 62
140
  6
CONTINUOUS
  0
LAYER
  2
ניקוז-נסתר
 70
0
 62
140
  6
HIDDEN
  0
LAYER
  2
ניקוז-ציר
 70
0
 62
140
  6
CENTER
  0
LAYER
  2
גז
 70
0
 62
2
  6
CONTINUOUS
  0
LAYER
  2
גז-מידות
 70
0
 62
2
  6
CONTINUOUS
  0
LAYER
  2
גז-טקסט
 70
0
 62
2
  6
CONTINUOUS
  0
LAYER
  2
גז-נסתר
 70
0
 62
2
  6
HIDDEN
  0
LAYER
  2
גז-ציר
 70
0
 62
2
  6
CENTER
  0
LAYER
  2
מיזוג
 70
0
 62
141
  6
CONTINUOUS
  0
LAYER
  2
מיזוג-מידות
 70
0
 62
141
  6
CONTINUOUS
  0
LAYER
  2
מיזוג-טקסט
 70
0
 62
141
  6
CONTINUOUS
  0
LAYER
  2
מיזוג-נסתר
 70
0
 62
141
  6
HIDDEN
  0
LAYER
  2
אוורור
 70
0
 62
131
  6
CONTINUOUS
  0
LAYER
  2
אוורור-מידות
 70
0
 62
131
  6
CONTINUOUS
  0
LAYER
  2
אוורור-טקסט
 70
0
 62
131
  6
CONTINUOUS
  0
LAYER
  2
אוורור-נסתר
 70
0
 62
131
  6
HIDDEN
  0
LAYER
  2
דלתות
 70
0
 62
5
  6
CONTINUOUS
  0
LAYER
  2
דלתות-מידות
 70
0
 62
5
  6
CONTINUOUS
  0
LAYER
  2
דלתות-טקסט
 70
0
 62
5
  6
CONTINUOUS
  0
LAYER
  2
דלתות-נסתר
 70
0
 62
5
  6
HIDDEN
  0
LAYER
  2
דלתות-מילוי
 70
0
 62
5
  6
CONTINUOUS
  0
LAYER
  2
חלונות
 70
0
 62
151
  6
CONTINUOUS
  0
LAYER
  2
חלונות-מידות
 70
0
 62
151
  6
CONTINUOUS
  0
LAYER
  2
חלונות-טקסט
 70
0
 62
151
  6
CONTINUOUS
  0
LAYER
  2
חלונות-נסתר
 70
0
 62
151
  6
HIDDEN
  0
LAYER
  2
ריהוט
 70
0
 62
42
  6
CONTINUOUS
  0
LAYER
  2
ריהוט-מידות
 70
0
 62
42
  6
CONTINUOUS
  0
LAYER
  2
ריהוט-טקסט
 70
0
 62
42
  6
CONTINUOUS
  0
LAYER
  2
ריהוט-נסתר
 70
0
 62
42
  6
HIDDEN
  0
LAYER
  2
מטבח
 70
0
 62
52
  6
CONTINUOUS
  0
LAYER
  2
מטבח-מידות
 70
0
 62
52
  6
CONTINUOUS
  0
LAYER
  2
מטבח-טקסט
 70
0
 62
52
  6
CONTINUOUS
  0
LAYER
  2
מטבח-נסתר
 70
0
 62
52
  6
HIDDEN
  0
LAYER
  2
ריצוף
 70
0
 62
251
  6
CONTINUOUS
  0
LAYER
  2
ריצוף-מילוי
 70
0
 62
8
  6
CONTINUOUS
  0
LAYER
  2
מידות-פנים
 70
0
 62
3
  6
CONTINUOUS
  0
LAYER
  2
מידות-חוץ
 70
0
 62
1
  6
CONTINUOUS
  0
LAYER
  2
מסגרת
 70
0
 62
250
  6
CONTINUOUS
  0
LAYER
  2
גבול-גיליון
 70
0
 62
255
  6
CONTINUOUS
  0
LAYER
  2
מקרא
 70
0
 62
150
  6
CONTINUOUS
  0
LAYER
  2
רשת-צירים
 70
0
 62
8
  6
CENTER
  0
LAYER
  2
הערות
 70
0
 62
150
  6
CONTINUOUS
  0
LAYER
  2
מהדורות
 70
0
 62
1
  6
CONTINUOUS
  0
ENDTAB
  0
TABLE
  2
STYLE
 70
2
  0
STYLE
  2
SOLINE
 70
0
 40
0.0000
 41
1.0000
 50
0.0000
 71
0
 42
2.5000
  3
arial.ttf
  4

  0
STYLE
  2
Standard
 70
0
 40
0.0000
 41
1.0000
 50
0.0000
 71
0
 42
2.5000
  3
txt
  4

  0
ENDTAB
  0
ENDSEC
  0
SECTION
  2
BLOCKS
  0
ENDSEC
  0
SECTION
  2
ENTITIES
  0
LINE
  5
1B1
  8
גבול-גיליון
 10
0.0000
 20
0.0000
 30
0.0000
 11
420.0000
 21
0.0000
 31
0.0000
  0
LINE
  5
1B2
  8
גבול-גיליון
 10
420.0000
 20
0.0000
 30
0.0000
 11
420.0000
 21
297.0000
 31
0.0000
  0
LINE
  5
1B3
  8
גבול-גיליון
 10
420.0000
 20
297.0000
 30
0.0000
 11
0.0000
 21
297.0000
 31
0.0000
  0
LINE
  5
1B4
  8
גבול-גיליון
 10
0.0000
 20
297.0000
 30
0.0000
 11
0.0000
 21
0.0000
 31
0.0000
  0
LINE
  5
1B5
  8
מסגרת
 10
10.0000
 20
10.0000
 30
0.0000
 11
410.0000
 21
10.0000
 31
0.0000
  0
LINE
  5
1B6
  8
מסגרת
 10
410.0000
 20
10.0000
 30
0.0000
 11
410.0000
 21
287.0000
 31
0.0000
  0
LINE
  5
1B7
  8
מסגרת
 10
410.0000
 20
287.0000
 30
0.0000
 11
10.0000
 21
287.0000
 31
0.0000
  0
LINE
  5
1B8
  8
מסגרת
 10
10.0000
 20
287.0000
 30
0.0000
 11
10.0000
 21
10.0000
 31
0.0000
  0
LINE
  5
1B9
  8
גבול-גיליון
 10
10.0000
 20
10.0000
 30
0.0000
 11
410.0000
 21
10.0000
 31
0.0000
  0
LINE
  5
1BA
  8
גבול-גיליון
 10
410.0000
 20
10.0000
 30
0.0000
 11
410.0000
 21
44.0000
 31
0.0000
  0
LINE
  5
1BB
  8
גבול-גיליון
 10
410.0000
 20
44.0000
 30
0.0000
 11
10.0000
 21
44.0000
 31
0.0000
  0
LINE
  5
1BC
  8
גבול-גיליון
 10
10.0000
 20
44.0000
 30
0.0000
 11
10.0000
 21
10.0000
 31
0.0000
  0
LINE
  5
1BD
  8
מסגרת
 10
118.8000
 20
10.0000
 30
0.0000
 11
118.8000
 21
44.0000
 31
0.0000
  0
TEXT
  5
1BE
  8
מסגרת
 10
64.4000
 20
31.0800
 30
0.0000
 40
5.3200
  1
SOLINE
 50
0.0000
  7
SOLINE
 72
1
 73
2
 11
64.4000
 21
31.0800
 31
0.0000
  0
TEXT
  5
1BF
  8
מקרא
 10
64.4000
 20
18.8400
 30
0.0000
 40
2.5200
  1
W1
 50
0.0000
  7
SOLINE
 72
1
 73
2
 11
64.4000
 21
18.8400
 31
0.0000
  0
LINE
  5
1C0
  8
מסגרת
 10
215.8667
 20
10.0000
 30
0.0000
 11
215.8667
 21
44.0000
 31
0.0000
  0
LINE
  5
1C1
  8
מסגרת
 10
312.9333
 20
10.0000
 30
0.0000
 11
312.9333
 21
44.0000
 31
0.0000
  0
LINE
  5
1C2
  8
מסגרת
 10
118.8000
 20
27.0000
 30
0.0000
 11
410.0000
 21
27.0000
 31
0.0000
  0
TEXT
  5
1C3
  8
מקרא
 10
121.0400
 20
38.9000
 30
0.0000
 40
2.0160
  1
PROJECT
 50
0.0000
  7
SOLINE
 73
2
 11
121.0400
 21
38.9000
 31
0.0000
  0
TEXT
  5
1C4
  8
מסגרת
 10
121.0400
 20
31.4200
 30
0.0000
 40
2.9400
  1
allelem
 50
0.0000
  7
SOLINE
 73
2
 11
121.0400
 21
31.4200
 31
0.0000
  0
TEXT
  5
1C5
  8
מקרא
 10
218.1067
 20
38.9000
 30
0.0000
 40
2.0160
  1
SCALE
 50
0.0000
  7
SOLINE
 73
2
 11
218.1067
 21
38.9000
 31
0.0000
  0
TEXT
  5
1C6
  8
מסגרת
 10
218.1067
 20
31.4200
 30
0.0000
 40
2.9400
  1
1:20
 50
0.0000
  7
SOLINE
 73
2
 11
218.1067
 21
31.4200
 31
0.0000
  0
TEXT
  5
1C7
  8
מקרא
 10
315.1733
 20
38.9000
 30
0.0000
 40
2.0160
  1
PAPER
 50
0.0000
  7
SOLINE
 73
2
 11
315.1733
 21
38.9000
 31
0.0000
  0
TEXT
  5
1C8
  8
מסגרת
 10
315.1733
 20
31.4200
 30
0.0000
 40
2.9400
  1
A3 landscape
 50
0.0000
  7
SOLINE
 73
2
 11
315.1733
 21
31.4200
 31
0.0000
  0
TEXT
  5
1C9
  8
מקרא
 10
121.0400
 20
21.9000
 30
0.0000
 40
2.0160
  1
DATE
 50
0.0000
  7
SOLINE
 73
2
 11
121.0400
 21
21.9000
 31
0.0000
  0
TEXT
  5
1CA
  8
מסגרת
 10
121.0400
 20
14.4200
 30
0.0000
 40
2.9400
  1
2026-08-24
 50
0.0000
  7
SOLINE
 73
2
 11
121.0400
 21
14.4200
 31
0.0000
  0
TEXT
  5
1CB
  8
מקרא
 10
218.1067
 20
21.9000
 30
0.0000
 40
2.0160
  1
DRAWING No
 50
0.0000
  7
SOLINE
 73
2
 11
218.1067
 21
21.9000
 31
0.0000
  0
TEXT
  5
1CC
  8
מסגרת
 10
218.1067
 20
14.4200
 30
0.0000
 40
2.9400
  1
M-01
 50
0.0000
  7
SOLINE
 73
2
 11
218.1067
 21
14.4200
 31
0.0000
  0
TEXT
  5
1CD
  8
מקרא
 10
315.1733
 20
21.9000
 30
0.0000
 40
2.0160
  1
SHEET
 50
0.0000
  7
SOLINE
 73
2
 11
315.1733
 21
21.9000
 31
0.0000
  0
TEXT
  5
1CE
  8
מסגרת
 10
315.1733
 20
14.4200
 30
0.0000
 40
2.9400
  1
W1
 50
0.0000
  7
SOLINE
 73
2
 11
315.1733
 21
14.4200
 31
0.0000
  0
LINE
  5
100
  8
קירות
 10
119.3750
 20
119.9688
 30
0.0000
 11
319.3750
 21
119.9688
 31
0.0000
  0
LINE
  5
101
  8
קירות
 10
319.3750
 20
119.9688
 30
0.0000
 11
319.3750
 21
249.9688
 31
0.0000
  0
LINE
  5
102
  8
קירות
 10
319.3750
 20
249.9688
 30
0.0000
 11
119.3750
 21
249.9688
 31
0.0000
  0
LINE
  5
103
  8
קירות
 10
119.3750
 20
249.9688
 30
0.0000
 11
119.3750
 21
119.9688
 31
0.0000
  0
TEXT
  5
104
  8
קירות-טקסט
 10
219.3750
 20
264.9688
 30
0.0000
 40
8.7500
  1
W1
 50
0.0000
  7
SOLINE
 72
1
 73
1
 11
219.3750
 21
264.9688
 31
0.0000
  0
LINE
  5
105
  8
חשמל
 10
134.3750
 20
123.2188
 30
0.0000
 11
138.8750
 21
123.2188
 31
0.0000
  0
LINE
  5
106
  8
חשמל
 10
138.8750
 20
123.2188
 30
0.0000
 11
138.8750
 21
127.7188
 31
0.0000
  0
LINE
  5
107
  8
חשמל
 10
138.8750
 20
127.7188
 30
0.0000
 11
134.3750
 21
127.7188
 31
0.0000
  0
LINE
  5
108
  8
חשמל
 10
134.3750
 20
127.7188
 30
0.0000
 11
134.3750
 21
123.2188
 31
0.0000
  0
LINE
  5
109
  8
חשמל
 10
136.6250
 20
123.2188
 30
0.0000
 11
136.6250
 21
125.2888
 31
0.0000
  0
LINE
  5
10A
  8
חשמל
 10
135.1850
 20
125.2888
 30
0.0000
 11
135.1941
 21
125.4500
 31
0.0000
  0
LINE
  5
10B
  8
חשמל
 10
135.1941
 20
125.4500
 30
0.0000
 11
135.2211
 21
125.6092
 31
0.0000
  0
LINE
  5
10C
  8
חשמל
 10
135.2211
 20
125.6092
 30
0.0000
 11
135.2658
 21
125.7644
 31
0.0000
  0
LINE
  5
10D
  8
חשמל
 10
135.2658
 20
125.7644
 30
0.0000
 11
135.3276
 21
125.9135
 31
0.0000
  0
LINE
  5
10E
  8
חשמל
 10
135.3276
 20
125.9135
 30
0.0000
 11
135.4057
 21
126.0549
 31
0.0000
  0
LINE
  5
10F
  8
חשמל
 10
135.4057
 20
126.0549
 30
0.0000
 11
135.4992
 21
126.1866
 31
0.0000
  0
LINE
  5
110
  8
חשמל
 10
135.4992
 20
126.1866
 30
0.0000
 11
135.6068
 21
126.3070
 31
0.0000
  0
LINE
  5
111
  8
חשמל
 10
135.6068
 20
126.3070
 30
0.0000
 11
135.7272
 21
126.4146
 31
0.0000
  0
LINE
  5
112
  8
חשמל
 10
135.7272
 20
126.4146
 30
0.0000
 11
135.8589
 21
126.5080
 31
0.0000
  0
LINE
  5
113
  8
חשמל
 10
135.8589
 20
126.5080
 30
0.0000
 11
136.0002
 21
126.5861
 31
0.0000
  0
LINE
  5
114
  8
חשמל
 10
136.0002
 20
126.5861
 30
0.0000
 11
136.1494
 21
126.6479
 31
0.0000
  0
LINE
  5
115
  8
חשמל
 10
136.1494
 20
126.6479
 30
0.0000
 11
136.3046
 21
126.6926
 31
0.0000
  0
LINE
  5
116
  8
חשמל
 10
136.3046
 20
126.6926
 30
0.0000
 11
136.4638
 21
126.7197
 31
0.0000
  0
LINE
  5
117
  8
חשמל
 10
136.4638
 20
126.7197
 30
0.0000
 11
136.6250
 21
126.7288
 31
0.0000
  0
LINE
  5
118
  8
חשמל
 10
136.6250
 20
126.7288
 30
0.0000
 11
136.7862
 21
126.7197
 31
0.0000
  0
LINE
  5
119
  8
חשמל
 10
136.7862
 20
126.7197
 30
0.0000
 11
136.9454
 21
126.6926
 31
0.0000
  0
LINE
  5
11A
  8
חשמל
 10
136.9454
 20
126.6926
 30
0.0000
 11
137.1006
 21
126.6479
 31
0.0000
  0
LINE
  5
11B
  8
חשמל
 10
137.1006
 20
126.6479
 30
0.0000
 11
137.2498
 21
126.5861
 31
0.0000
  0
LINE
  5
11C
  8
חשמל
 10
137.2498
 20
126.5861
 30
0.0000
 11
137.3911
 21
126.5080
 31
0.0000
  0
LINE
  5
11D
  8
חשמל
 10
137.3911
 20
126.5080
 30
0.0000
 11
137.5228
 21
126.4146
 31
0.0000
  0
LINE
  5
11E
  8
חשמל
 10
137.5228
 20
126.4146
 30
0.0000
 11
137.6432
 21
126.3070
 31
0.0000
  0
LINE
  5
11F
  8
חשמל
 10
137.6432
 20
126.3070
 30
0.0000
 11
137.7508
 21
126.1866
 31
0.0000
  0
LINE
  5
120
  8
חשמל
 10
137.7508
 20
126.1866
 30
0.0000
 11
137.8443
 21
126.0549
 31
0.0000
  0
LINE
  5
121
  8
חשמל
 10
137.8443
 20
126.0549
 30
0.0000
 11
137.9224
 21
125.9135
 31
0.0000
  0
LINE
  5
122
  8
חשמל
 10
137.9224
 20
125.9135
 30
0.0000
 11
137.9842
 21
125.7644
 31
0.0000
  0
LINE
  5
123
  8
חשמל
 10
137.9842
 20
125.7644
 30
0.0000
 11
138.0289
 21
125.6092
 31
0.0000
  0
LINE
  5
124
  8
חשמל
 10
138.0289
 20
125.6092
 30
0.0000
 11
138.0559
 21
125.4500
 31
0.0000
  0
LINE
  5
125
  8
חשמל
 10
138.0559
 20
125.4500
 30
0.0000
 11
138.0650
 21
125.2888
 31
0.0000
  0
LINE
  5
126
  8
חשמל
 10
135.1850
 20
125.2888
 30
0.0000
 11
138.0650
 21
125.2888
 31
0.0000
  0
LINE
  5
127
  8
חשמל
 10
169.3750
 20
123.2188
 30
0.0000
 11
177.3750
 21
123.2188
 31
0.0000
  0
LINE
  5
128
  8
חשמל
 10
177.3750
 20
123.2188
 30
0.0000
 11
177.3750
 21
127.7188
 31
0.0000
  0
LINE
  5
129
  8
חשמל
 10
177.3750
 20
127.7188
 30
0.0000
 11
169.3750
 21
127.7188
 31
0.0000
  0
LINE
  5
12A
  8
חשמל
 10
169.3750
 20
127.7188
 30
0.0000
 11
169.3750
 21
123.2188
 31
0.0000
  0
LINE
  5
12B
  8
חשמל
 10
173.3750
 20
123.2188
 30
0.0000
 11
173.3750
 21
125.2888
 31
0.0000
  0
LINE
  5
12C
  8
חשמל
 10
169.4198
 20
125.2888
 30
0.0000
 11
169.4319
 21
125.4097
 31
0.0000
  0
LINE
  5
12D
  8
חשמל
 10
169.4319
 20
125.4097
 30
0.0000
 11
169.4679
 21
125.5291
 31
0.0000
  0
LINE
  5
12E
  8
חשמל
 10
169.4679
 20
125.5291
 30
0.0000
 11
169.5275
 21
125.6455
 31
0.0000
  0
LINE
  5
12F
  8
חשמל
 10
169.5275
 20
125.6455
 30
0.0000
 11
169.6099
 21
125.7573
 31
0.0000
  0
LINE
  5
130
  8
חשמל
 10
169.6099
 20
125.7573
 30
0.0000
 11
169.7141
 21
125.8633
 31
0.0000
  0
LINE
  5
131
  8
חשמל
 10
169.7141
 20
125.8633
 30
0.0000
 11
169.8387
 21
125.9621
 31
0.0000
  0
LINE
  5
132
  8
חשמל
 10
169.8387
 20
125.9621
 30
0.0000
 11
169.9822
 21
126.0524
 31
0.0000
  0
LINE
  5
133
  8
חשמל
 10
169.9822
 20
126.0524
 30
0.0000
 11
170.1427
 21
126.1331
 31
0.0000
  0
LINE
  5
134
  8
חשמל
 10
170.1427
 20
126.1331
 30
0.0000
 11
170.3183
 21
126.2032
 31
0.0000
  0
LINE
  5
135
  8
חשמל
 10
170.3183
 20
126.2032
 30
0.0000
 11
170.5067
 21
126.2618
 31
0.0000
  0
LINE
  5
136
  8
חשמל
 10
170.5067
 20
126.2618
 30
0.0000
 11
170.7057
 21
126.3081
 31
0.0000
  0
LINE
  5
137
  8
חשמל
 10
170.7057
 20
126.3081
 30
0.0000
 11
170.9126
 21
126.3417
 31
0.0000
  0
LINE
  5
138
  8
חשמל
 10
170.9126
 20
126.3417
 30
0.0000
 11
171.1248
 21
126.3620
 31
0.0000
  0
LINE
  5
139
  8
חשמל
 10
171.1248
 20
126.3620
 30
0.0000
 11
171.3398
 21
126.3688
 31
0.0000
  0
LINE
  5
13A
  8
חשמל
 10
171.3398
 20
126.3688
 30
0.0000
 11
171.5548
 21
126.3620
 31
0.0000
  0
LINE
  5
13B
  8
חשמל
 10
171.5548
 20
126.3620
 30
0.0000
 11
171.7670
 21
126.3417
 31
0.0000
  0
LINE
  5
13C
  8
חשמל
 10
171.7670
 20
126.3417
 30
0.0000
 11
171.9739
 21
126.3081
 31
0.0000
  0
LINE
  5
13D
  8
חשמל
 10
171.9739
 20
126.3081
 30
0.0000
 11
172.1729
 21
126.2618
 31
0.0000
  0
LINE
  5
13E
  8
חשמל
 10
172.1729
 20
126.2618
 30
0.0000
 11
172.3613
 21
126.2032
 31
0.0000
  0
LINE
  5
13F
  8
חשמל
 10
172.3613
 20
126.2032
 30
0.0000
 11
172.5369
 21
126.1331
 31
0.0000
  0
LINE
  5
140
  8
חשמל
 10
172.5369
 20
126.1331
 30
0.0000
 11
172.6974
 21
126.0524
 31
0.0000
  0
LINE
  5
141
  8
חשמל
 10
172.6974
 20
126.0524
 30
0.0000
 11
172.8409
 21
125.9621
 31
0.0000
  0
LINE
  5
142
  8
חשמל
 10
172.8409
 20
125.9621
 30
0.0000
 11
172.9655
 21
125.8633
 31
0.0000
  0
LINE
  5
143
  8
חשמל
 10
172.9655
 20
125.8633
 30
0.0000
 11
173.0697
 21
125.7573
 31
0.0000
  0
LINE
  5
144
  8
חשמל
 10
173.0697
 20
125.7573
 30
0.0000
 11
173.1521
 21
125.6455
 31
0.0000
  0
LINE
  5
145
  8
חשמל
 10
173.1521
 20
125.6455
 30
0.0000
 11
173.2117
 21
125.5291
 31
0.0000
  0
LINE
  5
146
  8
חשמל
 10
173.2117
 20
125.5291
 30
0.0000
 11
173.2477
 21
125.4097
 31
0.0000
  0
LINE
  5
147
  8
חשמל
 10
173.2477
 20
125.4097
 30
0.0000
 11
173.2598
 21
125.2888
 31
0.0000
  0
LINE
  5
148
  8
חשמל
 10
169.4198
 20
125.2888
 30
0.0000
 11
173.2598
 21
125.2888
 31
0.0000
  0
LINE
  5
149
  8
חשמל
 10
173.4902
 20
125.2888
 30
0.0000
 11
173.5023
 21
125.4097
 31
0.0000
  0
LINE
  5
14A
  8
חשמל
 10
173.5023
 20
125.4097
 30
0.0000
 11
173.5383
 21
125.5291
 31
0.0000
  0
LINE
  5
14B
  8
חשמל
 10
173.5383
 20
125.5291
 30
0.0000
 11
173.5979
 21
125.6455
 31
0.0000
  0
LINE
  5
14C
  8
חשמל
 10
173.5979
 20
125.6455
 30
0.0000
 11
173.6803
 21
125.7573
 31
0.0000
  0
LINE
  5
14D
  8
חשמל
 10
173.6803
 20
125.7573
 30
0.0000
 11
173.7845
 21
125.8633
 31
0.0000
  0
LINE
  5
14E
  8
חשמל
 10
173.7845
 20
125.8633
 30
0.0000
 11
173.9091
 21
125.9621
 31
0.0000
  0
LINE
  5
14F
  8
חשמל
 10
173.9091
 20
125.9621
 30
0.0000
 11
174.0526
 21
126.0524
 31
0.0000
  0
LINE
  5
150
  8
חשמל
 10
174.0526
 20
126.0524
 30
0.0000
 11
174.2131
 21
126.1331
 31
0.0000
  0
LINE
  5
151
  8
חשמל
 10
174.2131
 20
126.1331
 30
0.0000
 11
174.3887
 21
126.2032
 31
0.0000
  0
LINE
  5
152
  8
חשמל
 10
174.3887
 20
126.2032
 30
0.0000
 11
174.5771
 21
126.2618
 31
0.0000
  0
LINE
  5
153
  8
חשמל
 10
174.5771
 20
126.2618
 30
0.0000
 11
174.7761
 21
126.3081
 31
0.0000
  0
LINE
  5
154
  8
חשמל
 10
174.7761
 20
126.3081
 30
0.0000
 11
174.9830
 21
126.3417
 31
0.0000
  0
LINE
  5
155
  8
חשמל
 10
174.9830
 20
126.3417
 30
0.0000
 11
175.1952
 21
126.3620
 31
0.0000
  0
LINE
  5
156
  8
חשמל
 10
175.1952
 20
126.3620
 30
0.0000
 11
175.4102
 21
126.3688
 31
0.0000
  0
LINE
  5
157
  8
חשמל
 10
175.4102
 20
126.3688
 30
0.0000
 11
175.6252
 21
126.3620
 31
0.0000
  0
LINE
  5
158
  8
חשמל
 10
175.6252
 20
126.3620
 30
0.0000
 11
175.8374
 21
126.3417
 31
0.0000
  0
LINE
  5
159
  8
חשמל
 10
175.8374
 20
126.3417
 30
0.0000
 11
176.0443
 21
126.3081
 31
0.0000
  0
LINE
  5
15A
  8
חשמל
 10
176.0443
 20
126.3081
 30
0.0000
 11
176.2433
 21
126.2618
 31
0.0000
  0
LINE
  5
15B
  8
חשמל
 10
176.2433
 20
126.2618
 30
0.0000
 11
176.4317
 21
126.2032
 31
0.0000
  0
LINE
  5
15C
  8
חשמל
 10
176.4317
 20
126.2032
 30
0.0000
 11
176.6073
 21
126.1331
 31
0.0000
  0
LINE
  5
15D
  8
חשמל
 10
176.6073
 20
126.1331
 30
0.0000
 11
176.7678
 21
126.0524
 31
0.0000
  0
LINE
  5
15E
  8
חשמל
 10
176.7678
 20
126.0524
 30
0.0000
 11
176.9113
 21
125.9621
 31
0.0000
  0
LINE
  5
15F
  8
חשמל
 10
176.9113
 20
125.9621
 30
0.0000
 11
177.0359
 21
125.8633
 31
0.0000
  0
LINE
  5
160
  8
חשמל
 10
177.0359
 20
125.8633
 30
0.0000
 11
177.1401
 21
125.7573
 31
0.0000
  0
LINE
  5
161
  8
חשמל
 10
177.1401
 20
125.7573
 30
0.0000
 11
177.2225
 21
125.6455
 31
0.0000
  0
LINE
  5
162
  8
חשמל
 10
177.2225
 20
125.6455
 30
0.0000
 11
177.2821
 21
125.5291
 31
0.0000
  0
LINE
  5
163
  8
חשמל
 10
177.2821
 20
125.5291
 30
0.0000
 11
177.3181
 21
125.4097
 31
0.0000
  0
LINE
  5
164
  8
חשמל
 10
177.3181
 20
125.4097
 30
0.0000
 11
177.3302
 21
125.2888
 31
0.0000
  0
LINE
  5
165
  8
חשמל
 10
173.4902
 20
125.2888
 30
0.0000
 11
177.3302
 21
125.2888
 31
0.0000
  0
LINE
  5
166
  8
חשמל
 10
204.3750
 20
124.2188
 30
0.0000
 11
208.8750
 21
124.2188
 31
0.0000
  0
LINE
  5
167
  8
חשמל
 10
208.8750
 20
124.2188
 30
0.0000
 11
208.8750
 21
128.7188
 31
0.0000
  0
LINE
  5
168
  8
חשמל
 10
208.8750
 20
128.7188
 30
0.0000
 11
204.3750
 21
128.7188
 31
0.0000
  0
LINE
  5
169
  8
חשמל
 10
204.3750
 20
128.7188
 30
0.0000
 11
204.3750
 21
124.2188
 31
0.0000
  0
LINE
  5
16A
  8
חשמל
 10
206.6250
 20
124.2188
 30
0.0000
 11
206.6250
 21
125.5688
 31
0.0000
  0
ARC
  5
16B
  8
חשמל
 10
206.6250
 20
125.5688
 30
0.0000
 40
0.2250
 50
0.0000
 51
360.0000
  0
LINE
  5
16C
  8
חשמל
 10
206.6250
 20
125.5688
 30
0.0000
 11
207.8123
 21
127.2644
 31
0.0000
  0
LINE
  5
16D
  8
חשמל
 10
239.3750
 20
125.9688
 30
0.0000
 11
242.3750
 21
125.9688
 31
0.0000
  0
LINE
  5
16E
  8
חשמל
 10
242.3750
 20
125.9688
 30
0.0000
 11
242.3750
 21
128.9688
 31
0.0000
  0
LINE
  5
16F
  8
חשמל
 10
242.3750
 20
128.9688
 30
0.0000
 11
239.3750
 21
128.9688
 31
0.0000
  0
LINE
  5
170
  8
חשמל
 10
239.3750
 20
128.9688
 30
0.0000
 11
239.3750
 21
125.9688
 31
0.0000
  0
LINE
  5
171
  8
חשמל
 10
240.8750
 20
125.9688
 30
0.0000
 11
240.8750
 21
128.3088
 31
0.0000
  0
ARC
  5
172
  8
חשמל
 10
240.8750
 20
127.4088
 30
0.0000
 40
0.9600
 50
0.0000
 51
360.0000
  0
LINE
  5
173
  8
חשמל
 10
240.8750
 20
127.4088
 30
0.0000
 11
240.2150
 21
128.0688
 31
0.0000
  0
LINE
  5
174
  8
חשמל
 10
240.8750
 20
127.4088
 30
0.0000
 11
241.5350
 21
128.0688
 31
0.0000
  0
LINE
  5
175
  8
חשמל
 10
240.8750
 20
127.4088
 30
0.0000
 11
240.2150
 21
126.7488
 31
0.0000
  0
LINE
  5
176
  8
חשמל
 10
240.8750
 20
127.4088
 30
0.0000
 11
241.5350
 21
126.7488
 31
0.0000
  0
LINE
  5
177
  8
חשמל
 10
274.3750
 20
122.9688
 30
0.0000
 11
277.3750
 21
122.9688
 31
0.0000
  0
LINE
  5
178
  8
חשמל
 10
277.3750
 20
122.9688
 30
0.0000
 11
277.3750
 21
125.9688
 31
0.0000
  0
LINE
  5
179
  8
חשמל
 10
277.3750
 20
125.9688
 30
0.0000
 11
274.3750
 21
125.9688
 31
0.0000
  0
LINE
  5
17A
  8
חשמל
 10
274.3750
 20
125.9688
 30
0.0000
 11
274.3750
 21
122.9688
 31
0.0000
  0
LINE
  5
17B
  8
חשמל
 10
275.8750
 20
122.9688
 30
0.0000
 11
275.8750
 21
125.3088
 31
0.0000
  0
ARC
  5
17C
  8
חשמל
 10
275.8750
 20
124.4088
 30
0.0000
 40
0.9600
 50
0.0000
 51
360.0000
  0
LINE
  5
17D
  8
חשמל
 10
275.8750
 20
124.4088
 30
0.0000
 11
275.2150
 21
125.0688
 31
0.0000
  0
LINE
  5
17E
  8
חשמל
 10
275.8750
 20
124.4088
 30
0.0000
 11
276.5350
 21
125.0688
 31
0.0000
  0
LINE
  5
17F
  8
חשמל
 10
275.8750
 20
124.4088
 30
0.0000
 11
275.2150
 21
123.7488
 31
0.0000
  0
LINE
  5
180
  8
חשמל
 10
275.8750
 20
124.4088
 30
0.0000
 11
276.5350
 21
123.7488
 31
0.0000
  0
LINE
  5
181
  8
מידות-פנים
 10
119.3750
 20
117.9688
 30
0.0000
 11
119.3750
 21
97.0438
 31
0.0000
  0
LINE
  5
182
  8
מידות-פנים
 10
136.6250
 20
117.9688
 30
0.0000
 11
136.6250
 21
97.0438
 31
0.0000
  0
LINE
  5
183
  8
מידות-פנים
 10
119.3750
 20
99.9688
 30
0.0000
 11
136.6250
 21
99.9688
 31
0.0000
  0
SOLID
  5
184
  8
מידות-פנים
 10
119.3750
 20
99.9688
 30
0.0000
 11
113.7688
 21
98.4088
 31
0.0000
 12
113.7688
 22
101.5288
 32
0.0000
 13
113.7688
 23
101.5288
 33
0.0000
  0
SOLID
  5
185
  8
מידות-פנים
 10
136.6250
 20
99.9688
 30
0.0000
 11
142.2313
 21
98.4088
 31
0.0000
 12
142.2313
 22
101.5288
 32
0.0000
 13
142.2313
 23
101.5288
 33
0.0000
  0
TEXT
  5
186
  8
מידות-פנים
 10
128.0000
 20
95.3375
 30
0.0000
 40
4.8750
  1
34.5
 50
0.0000
  7
SOLINE
 72
1
 73
2
 11
128.0000
 21
95.3375
 31
0.0000
  0
LINE
  5
187
  8
מידות-פנים
 10
136.6250
 20
117.9688
 30
0.0000
 11
136.6250
 21
97.0438
 31
0.0000
  0
LINE
  5
188
  8
מידות-פנים
 10
173.3750
 20
117.9688
 30
0.0000
 11
173.3750
 21
97.0438
 31
0.0000
  0
LINE
  5
189
  8
מידות-פנים
 10
136.6250
 20
99.9688
 30
0.0000
 11
173.3750
 21
99.9688
 31
0.0000
  0
SOLID
  5
18A
  8
מידות-פנים
 10
136.6250
 20
99.9688
 30
0.0000
 11
131.0188
 21
98.4088
 31
0.0000
 12
131.0188
 22
101.5288
 32
0.0000
 13
131.0188
 23
101.5288
 33
0.0000
  0
SOLID
  5
18B
  8
מידות-פנים
 10
173.3750
 20
99.9688
 30
0.0000
 11
178.9813
 21
98.4088
 31
0.0000
 12
178.9813
 22
101.5288
 32
0.0000
 13
178.9813
 23
101.5288
 33
0.0000
  0
TEXT
  5
18C
  8
מידות-פנים
 10
155.0000
 20
95.3375
 30
0.0000
 40
4.8750
  1
73.5
 50
0.0000
  7
SOLINE
 72
1
 73
2
 11
155.0000
 21
95.3375
 31
0.0000
  0
LINE
  5
18D
  8
מידות-פנים
 10
173.3750
 20
117.9688
 30
0.0000
 11
173.3750
 21
97.0438
 31
0.0000
  0
LINE
  5
18E
  8
מידות-פנים
 10
206.6250
 20
117.9688
 30
0.0000
 11
206.6250
 21
97.0438
 31
0.0000
  0
LINE
  5
18F
  8
מידות-פנים
 10
173.3750
 20
99.9688
 30
0.0000
 11
206.6250
 21
99.9688
 31
0.0000
  0
SOLID
  5
190
  8
מידות-פנים
 10
173.3750
 20
99.9688
 30
0.0000
 11
167.7688
 21
98.4088
 31
0.0000
 12
167.7688
 22
101.5288
 32
0.0000
 13
167.7688
 23
101.5288
 33
0.0000
  0
SOLID
  5
191
  8
מידות-פנים
 10
206.6250
 20
99.9688
 30
0.0000
 11
212.2313
 21
98.4088
 31
0.0000
 12
212.2313
 22
101.5288
 32
0.0000
 13
212.2313
 23
101.5288
 33
0.0000
  0
TEXT
  5
192
  8
מידות-פנים
 10
190.0000
 20
95.3375
 30
0.0000
 40
4.8750
  1
66.5
 50
0.0000
  7
SOLINE
 72
1
 73
2
 11
190.0000
 21
95.3375
 31
0.0000
  0
LINE
  5
193
  8
מידות-פנים
 10
206.6250
 20
117.9688
 30
0.0000
 11
206.6250
 21
97.0438
 31
0.0000
  0
LINE
  5
194
  8
מידות-פנים
 10
240.8750
 20
117.9688
 30
0.0000
 11
240.8750
 21
97.0438
 31
0.0000
  0
LINE
  5
195
  8
מידות-פנים
 10
206.6250
 20
99.9688
 30
0.0000
 11
240.8750
 21
99.9688
 31
0.0000
  0
SOLID
  5
196
  8
מידות-פנים
 10
206.6250
 20
99.9688
 30
0.0000
 11
201.0188
 21
98.4088
 31
0.0000
 12
201.0188
 22
101.5288
 32
0.0000
 13
201.0188
 23
101.5288
 33
0.0000
  0
SOLID
  5
197
  8
מידות-פנים
 10
240.8750
 20
99.9688
 30
0.0000
 11
246.4813
 21
98.4088
 31
0.0000
 12
246.4813
 22
101.5288
 32
0.0000
 13
246.4813
 23
101.5288
 33
0.0000
  0
TEXT
  5
198
  8
מידות-פנים
 10
223.7500
 20
95.3375
 30
0.0000
 40
4.8750
  1
68.5
 50
0.0000
  7
SOLINE
 72
1
 73
2
 11
223.7500
 21
95.3375
 31
0.0000
  0
LINE
  5
199
  8
מידות-פנים
 10
240.8750
 20
117.9688
 30
0.0000
 11
240.8750
 21
97.0438
 31
0.0000
  0
LINE
  5
19A
  8
מידות-פנים
 10
275.8750
 20
117.9688
 30
0.0000
 11
275.8750
 21
97.0438
 31
0.0000
  0
LINE
  5
19B
  8
מידות-פנים
 10
240.8750
 20
99.9688
 30
0.0000
 11
275.8750
 21
99.9688
 31
0.0000
  0
SOLID
  5
19C
  8
מידות-פנים
 10
240.8750
 20
99.9688
 30
0.0000
 11
235.2688
 21
98.4088
 31
0.0000
 12
235.2688
 22
101.5288
 32
0.0000
 13
235.2688
 23
101.5288
 33
0.0000
  0
SOLID
  5
19D
  8
מידות-פנים
 10
275.8750
 20
99.9688
 30
0.0000
 11
281.4813
 21
98.4088
 31
0.0000
 12
281.4813
 22
101.5288
 32
0.0000
 13
281.4813
 23
101.5288
 33
0.0000
  0
TEXT
  5
19E
  8
מידות-פנים
 10
258.3750
 20
95.3375
 30
0.0000
 40
4.8750
  1
70
 50
0.0000
  7
SOLINE
 72
1
 73
2
 11
258.3750
 21
95.3375
 31
0.0000
  0
LINE
  5
19F
  8
מידות-פנים
 10
275.8750
 20
117.9688
 30
0.0000
 11
275.8750
 21
97.0438
 31
0.0000
  0
LINE
  5
1A0
  8
מידות-פנים
 10
319.3750
 20
117.9688
 30
0.0000
 11
319.3750
 21
97.0438
 31
0.0000
  0
LINE
  5
1A1
  8
מידות-פנים
 10
275.8750
 20
99.9688
 30
0.0000
 11
319.3750
 21
99.9688
 31
0.0000
  0
SOLID
  5
1A2
  8
מידות-פנים
 10
275.8750
 20
99.9688
 30
0.0000
 11
270.2688
 21
98.4088
 31
0.0000
 12
270.2688
 22
101.5288
 32
0.0000
 13
270.2688
 23
101.5288
 33
0.0000
  0
SOLID
  5
1A3
  8
מידות-פנים
 10
319.3750
 20
99.9688
 30
0.0000
 11
324.9813
 21
98.4088
 31
0.0000
 12
324.9813
 22
101.5288
 32
0.0000
 13
324.9813
 23
101.5288
 33
0.0000
  0
TEXT
  5
1A4
  8
מידות-פנים
 10
297.6250
 20
95.3375
 30
0.0000
 40
4.8750
  1
87
 50
0.0000
  7
SOLINE
 72
1
 73
2
 11
297.6250
 21
95.3375
 31
0.0000
  0
LINE
  5
1A5
  8
מידות-פנים
 10
119.3750
 20
117.4688
 30
0.0000
 11
119.3750
 21
76.2188
 31
0.0000
  0
LINE
  5
1A6
  8
מידות-פנים
 10
319.3750
 20
117.4688
 30
0.0000
 11
319.3750
 21
76.2188
 31
0.0000
  0
LINE
  5
1A7
  8
מידות-פנים
 10
119.3750
 20
79.9688
 30
0.0000
 11
319.3750
 21
79.9688
 31
0.0000
  0
SOLID
  5
1A8
  8
מידות-פנים
 10
119.3750
 20
79.9688
 30
0.0000
 11
112.1875
 21
77.9688
 31
0.0000
 12
112.1875
 22
81.9688
 32
0.0000
 13
112.1875
 23
81.9688
 33
0.0000
  0
SOLID
  5
1A9
  8
מידות-פנים
 10
319.3750
 20
79.9688
 30
0.0000
 11
326.5625
 21
77.9688
 31
0.0000
 12
326.5625
 22
81.9688
 32
0.0000
 13
326.5625
 23
81.9688
 33
0.0000
  0
TEXT
  5
1AA
  8
מידות-פנים
 10
219.3750
 20
74.0313
 30
0.0000
 40
6.2500
  1
400
 50
0.0000
  7
SOLINE
 72
1
 73
2
 11
219.3750
 21
74.0313
 31
0.0000
  0
LINE
  5
1AB
  8
מידות-פנים
 10
96.8750
 20
119.9688
 30
0.0000
 11
95.6250
 21
119.9688
 31
0.0000
  0
LINE
  5
1AC
  8
מידות-פנים
 10
96.8750
 20
249.9688
 30
0.0000
 11
95.6250
 21
249.9688
 31
0.0000
  0
LINE
  5
1AD
  8
מידות-פנים
 10
99.3750
 20
119.9688
 30
0.0000
 11
99.3750
 21
249.9688
 31
0.0000
  0
SOLID
  5
1AE
  8
מידות-פנים
 10
99.3750
 20
119.9688
 30
0.0000
 11
97.3750
 21
112.7813
 31
0.0000
 12
101.3750
 22
112.7813
 32
0.0000
 13
101.3750
 23
112.7813
 33
0.0000
  0
SOLID
  5
1AF
  8
מידות-פנים
 10
99.3750
 20
249.9688
 30
0.0000
 11
97.3750
 21
257.1563
 31
0.0000
 12
101.3750
 22
257.1563
 32
0.0000
 13
101.3750
 23
257.1563
 33
0.0000
  0
TEXT
  5
1B0
  8
מידות-פנים
 10
93.4375
 20
184.9688
 30
0.0000
 40
6.2500
  1
260
 50
90.0000
  7
SOLINE
 72
1
 73
2
 11
93.4375
 21
184.9688
 31
0.0000
  0
ENDSEC
  0
EOF
