  0
SECTION
  2
HEADER
  9
$ACADVER
  1
AC1009
  9
$INSBASE
 10
0.0000
 20
0.0000
 30
0.0000
  9
$EXTMIN
 10
-5.0000
 20
-5.0000
 30
0.0000
  9
$EXTMAX
 10
302.0000
 20
215.0000
 30
0.0000
  9
$DWGCODEPAGE
  3
ansi_1255
  9
$CLAYER
  8
0
  9
$LTSCALE
 40
10.0000
  9
$LIMMIN
 10
0.0000
 20
0.0000
  9
$LIMMAX
 10
2000.0000
 20
200.0000
  0
ENDSEC
  0
SECTION
  2
TABLES
  0
TABLE
  2
VPORT
 70
1
  0
VPORT
  2
*ACTIVE
 70
0
 10
0.0000
 20
0.0000
 11
1.0000
 21
1.0000
 12
148.5000
 22
105.0000
 13
0.0000
 23
0.0000
 14
10.0000
 24
10.0000
 15
10.0000
 25
10.0000
 16
0.0000
 26
0.0000
 36
1.0000
 17
0.0000
 27
0.0000
 37
0.0000
 40
1000.0000
 41
1.6000
 42
50.0000
 43
0.0000
 44
0.0000
 50
0.0000
 51
0.0000
 71
0
 72
100
 73
1
 74
1
 75
0
 76
0
 77
0
 78
0
  0
ENDTAB
  0
TABLE
  2
LTYPE
 70
3
  0
LTYPE
  2
CONTINUOUS
 70
0
  3
Solid line
 72
65
 73
0
 40
0.0000
  0
LTYPE
  2
HIDDEN
 70
0
  3
Hidden __ __ __ __ __ __
 72
65
 73
2
 40
9.5250
 49
6.3500
 49
-3.1750
  0
LTYPE
  2
CENTER
 70
0
  3
Center ____ _ ____ _ ____
 72
65
 73
4
 40
50.8000
 49
31.7500
 49
-6.3500
 49
6.3500
 49
-6.3500
  0
ENDTAB
  0
TABLE
  2
LAYER
 70
71
  0
LAYER
  2
0
 70
0
 62
7
  6
CONTINUOUS
  0
LAYER
  2
קירות
 70
0
 62
7
  6
CONTINUOUS
  0
LAYER
  2
קירות-מילוי
 70
0
 62
8
  6
CONTINUOUS
  0
LAYER
  2
קירות-מידות
 70
0
 62
7
  6
CONTINUOUS
  0
LAYER
  2
קירות-טקסט
 70
0
 62
7
  6
CONTINUOUS
  0
LAYER
  2
קירות-נסתר
 70
0
 62
7
  6
HIDDEN
  0
LAYER
  2
קירות-ציר
 70
0
 62
7
  6
CENTER
  0
LAYER
  2
מבנה
 70
0
 62
9
  6
CONTINUOUS
  0
LAYER
  2
מבנה-מילוי
 70
0
 62
9
  6
CONTINUOUS
  0
LAYER
  2
מבנה-מידות
 70
0
 62
9
  6
CONTINUOUS
  0
LAYER
  2
מבנה-טקסט
 70
0
 62
9
  6
CONTINUOUS
  0
LAYER
  2
מבנה-נסתר
 70
0
 62
9
  6
HIDDEN
  0
LAYER
  2
מבנה-ציר
 70
0
 62
9
  6
CENTER
  0
LAYER
  2
חשמל
 70
0
 62
6
  6
CONTINUOUS
  0
LAYER
  2
חשמל-מידות
 70
0
 62
6
  6
CONTINUOUS
  0
LAYER
  2
חשמל-טקסט
 70
0
 62
6
  6
CONTINUOUS
  0
LAYER
  2
חשמל-נסתר
 70
0
 62
6
  6
HIDDEN
  0
LAYER
  2
תאורה
 70
0
 62
30
  6
CONTINUOUS
  0
LAYER
  2
תאורה-מידות
 70
0
 62
30
  6
CONTINUOUS
  0
LAYER
  2
תאורה-טקסט
 70
0
 62
30
  6
CONTINUOUS
  0
LAYER
  2
תאורה-נסתר
 70
0
 62
30
  6
HIDDEN
  0
LAYER
  2
מים
 70
0
 62
4
  6
CONTINUOUS
  0
LAYER
  2
מים-מידות
 70
0
 62
4
  6
CONTINUOUS
  0
LAYER
  2
מים-טקסט
 70
0
 62
4
  6
CONTINUOUS
  0
LAYER
  2
מים-נסתר
 70
0
 62
4
  6
HIDDEN
  0
LAYER
  2
מים-ציר
 70
0
 62
4
  6
CENTER
  0
LAYER
  2
ניקוז
 70
0
 62
140
  6
CONTINUOUS
  0
LAYER
  2
ניקוז-מידות
 70
0
 62
140
  6
CONTINUOUS
  0
LAYER
  2
ניקוז-טקסט
 70
0
 62
140
  6
CONTINUOUS
  0
LAYER
  2
ניקוז-נסתר
 70
0
 62
140
  6
HIDDEN
  0
LAYER
  2
ניקוז-ציר
 70
0
 62
140
  6
CENTER
  0
LAYER
  2
גז
 70
0
 62
2
  6
CONTINUOUS
  0
LAYER
  2
גז-מידות
 70
0
 62
2
  6
CONTINUOUS
  0
LAYER
  2
גז-טקסט
 70
0
 62
2
  6
CONTINUOUS
  0
LAYER
  2
גז-נסתר
 70
0
 62
2
  6
HIDDEN
  0
LAYER
  2
גז-ציר
 70
0
 62
2
  6
CENTER
  0
LAYER
  2
מיזוג
 70
0
 62
141
  6
CONTINUOUS
  0
LAYER
  2
מיזוג-מידות
 70
0
 62
141
  6
CONTINUOUS
  0
LAYER
  2
מיזוג-טקסט
 70
0
 62
141
  6
CONTINUOUS
  0
LAYER
  2
מיזוג-נסתר
 70
0
 62
141
  6
HIDDEN
  0
LAYER
  2
אוורור
 70
0
 62
131
  6
CONTINUOUS
  0
LAYER
  2
אוורור-מידות
 70
0
 62
131
  6
CONTINUOUS
  0
LAYER
  2
אוורור-טקסט
 70
0
 62
131
  6
CONTINUOUS
  0
LAYER
  2
אוורור-נסתר
 70
0
 62
131
  6
HIDDEN
  0
LAYER
  2
דלתות
 70
0
 62
5
  6
CONTINUOUS
  0
LAYER
  2
דלתות-מידות
 70
0
 62
5
  6
CONTINUOUS
  0
LAYER
  2
דלתות-טקסט
 70
0
 62
5
  6
CONTINUOUS
  0
LAYER
  2
דלתות-נסתר
 70
0
 62
5
  6
HIDDEN
  0
LAYER
  2
דלתות-מילוי
 70
0
 62
5
  6
CONTINUOUS
  0
LAYER
  2
חלונות
 70
0
 62
151
  6
CONTINUOUS
  0
LAYER
  2
חלונות-מידות
 70
0
 62
151
  6
CONTINUOUS
  0
LAYER
  2
חלונות-טקסט
 70
0
 62
151
  6
CONTINUOUS
  0
LAYER
  2
חלונות-נסתר
 70
0
 62
151
  6
HIDDEN
  0
LAYER
  2
ריהוט
 70
0
 62
42
  6
CONTINUOUS
  0
LAYER
  2
ריהוט-מידות
 70
0
 62
42
  6
CONTINUOUS
  0
LAYER
  2
ריהוט-טקסט
 70
0
 62
42
  6
CONTINUOUS
  0
LAYER
  2
ריהוט-נסתר
 70
0
 62
42
  6
HIDDEN
  0
LAYER
  2
מטבח
 70
0
 62
52
  6
CONTINUOUS
  0
LAYER
  2
מטבח-מידות
 70
0
 62
52
  6
CONTINUOUS
  0
LAYER
  2
מטבח-טקסט
 70
0
 62
52
  6
CONTINUOUS
  0
LAYER
  2
מטבח-נסתר
 70
0
 62
52
  6
HIDDEN
  0
LAYER
  2
ריצוף
 70
0
 62
251
  6
CONTINUOUS
  0
LAYER
  2
ריצוף-מילוי
 70
0
 62
8
  6
CONTINUOUS
  0
LAYER
  2
מידות-פנים
 70
0
 62
3
  6
CONTINUOUS
  0
LAYER
  2
מידות-חוץ
 70
0
 62
1
  6
CONTINUOUS
  0
LAYER
  2
מסגרת
 70
0
 62
250
  6
CONTINUOUS
  0
LAYER
  2
גבול-גיליון
 70
0
 62
255
  6
CONTINUOUS
  0
LAYER
  2
מקרא
 70
0
 62
150
  6
CONTINUOUS
  0
LAYER
  2
רשת-צירים
 70
0
 62
8
  6
CENTER
  0
LAYER
  2
הערות
 70
0
 62
150
  6
CONTINUOUS
  0
LAYER
  2
מהדורות
 70
0
 62
1
  6
CONTINUOUS
  0
ENDTAB
  0
TABLE
  2
STYLE
 70
2
  0
STYLE
  2
SOLINE
 70
0
 40
0.0000
 41
1.0000
 50
0.0000
 71
0
 42
2.5000
  3
arial.ttf
  4

  0
STYLE
  2
Standard
 70
0
 40
0.0000
 41
1.0000
 50
0.0000
 71
0
 42
2.5000
  3
txt
  4

  0
ENDTAB
  0
ENDSEC
  0
SECTION
  2
BLOCKS
  0
ENDSEC
  0
SECTION
  2
ENTITIES
  0
LINE
  5
1B1
  8
גבול-גיליון
 10
0.0000
 20
0.0000
 30
0.0000
 11
297.0000
 21
0.0000
 31
0.0000
  0
LINE
  5
1B2
  8
גבול-גיליון
 10
297.0000
 20
0.0000
 30
0.0000
 11
297.0000
 21
210.0000
 31
0.0000
  0
LINE
  5
1B3
  8
גבול-גיליון
 10
297.0000
 20
210.0000
 30
0.0000
 11
0.0000
 21
210.0000
 31
0.0000
  0
LINE
  5
1B4
  8
גבול-גיליון
 10
0.0000
 20
210.0000
 30
0.0000
 11
0.0000
 21
0.0000
 31
0.0000
  0
LINE
  5
1B5
  8
מסגרת
 10
8.0000
 20
8.0000
 30
0.0000
 11
289.0000
 21
8.0000
 31
0.0000
  0
LINE
  5
1B6
  8
מסגרת
 10
289.0000
 20
8.0000
 30
0.0000
 11
289.0000
 21
202.0000
 31
0.0000
  0
LINE
  5
1B7
  8
מסגרת
 10
289.0000
 20
202.0000
 30
0.0000
 11
8.0000
 21
202.0000
 31
0.0000
  0
LINE
  5
1B8
  8
מסגרת
 10
8.0000
 20
202.0000
 30
0.0000
 11
8.0000
 21
8.0000
 31
0.0000
  0
LINE
  5
1B9
  8
גבול-גיליון
 10
8.0000
 20
8.0000
 30
0.0000
 11
289.0000
 21
8.0000
 31
0.0000
  0
LINE
  5
1BA
  8
גבול-גיליון
 10
289.0000
 20
8.0000
 30
0.0000
 11
289.0000
 21
36.0000
 31
0.0000
  0
LINE
  5
1BB
  8
גבול-גיליון
 10
289.0000
 20
36.0000
 30
0.0000
 11
8.0000
 21
36.0000
 31
0.0000
  0
LINE
  5
1BC
  8
גבול-גיליון
 10
8.0000
 20
36.0000
 30
0.0000
 11
8.0000
 21
8.0000
 31
0.0000
  0
LINE
  5
1BD
  8
מסגרת
 10
86.6800
 20
8.0000
 30
0.0000
 11
86.6800
 21
36.0000
 31
0.0000
  0
TEXT
  5
1BE
  8
מסגרת
 10
47.3400
 20
25.3600
 30
0.0000
 40
4.7500
  1
SOLINE
 50
0.0000
  7
SOLINE
 72
1
 73
2
 11
47.3400
 21
25.3600
 31
0.0000
  0
TEXT
  5
1BF
  8
מקרא
 10
47.3400
 20
15.2800
 30
0.0000
 40
2.2500
  1
W1
 50
0.0000
  7
SOLINE
 72
1
 73
2
 11
47.3400
 21
15.2800
 31
0.0000
  0
LINE
  5
1C0
  8
מסגרת
 10
154.1200
 20
8.0000
 30
0.0000
 11
154.1200
 21
36.0000
 31
0.0000
  0
LINE
  5
1C1
  8
מסגרת
 10
221.5600
 20
8.0000
 30
0.0000
 11
221.5600
 21
36.0000
 31
0.0000
  0
LINE
  5
1C2
  8
מסגרת
 10
86.6800
 20
22.0000
 30
0.0000
 11
289.0000
 21
22.0000
 31
0.0000
  0
TEXT
  5
1C3
  8
מקרא
 10
88.6800
 20
31.8000
 30
0.0000
 40
1.8000
  1
PROJECT
 50
0.0000
  7
SOLINE
 73
2
 11
88.6800
 21
31.8000
 31
0.0000
  0
TEXT
  5
1C4
  8
מסגרת
 10
88.6800
 20
25.6400
 30
0.0000
 40
2.6250
  1
allelem
 50
0.0000
  7
SOLINE
 73
2
 11
88.6800
 21
25.6400
 31
0.0000
  0
TEXT
  5
1C5
  8
מקרא
 10
156.1200
 20
31.8000
 30
0.0000
 40
1.8000
  1
SCALE
 50
0.0000
  7
SOLINE
 73
2
 11
156.1200
 21
31.8000
 31
0.0000
  0
TEXT
  5
1C6
  8
מסגרת
 10
156.1200
 20
25.6400
 30
0.0000
 40
2.6250
  1
1:25
 50
0.0000
  7
SOLINE
 73
2
 11
156.1200
 21
25.6400
 31
0.0000
  0
TEXT
  5
1C7
  8
מקרא
 10
223.5600
 20
31.8000
 30
0.0000
 40
1.8000
  1
PAPER
 50
0.0000
  7
SOLINE
 73
2
 11
223.5600
 21
31.8000
 31
0.0000
  0
TEXT
  5
1C8
  8
מסגרת
 10
223.5600
 20
25.6400
 30
0.0000
 40
2.6250
  1
A4 landscape
 50
0.0000
  7
SOLINE
 73
2
 11
223.5600
 21
25.6400
 31
0.0000
  0
TEXT
  5
1C9
  8
מקרא
 10
88.6800
 20
17.8000
 30
0.0000
 40
1.8000
  1
DATE
 50
0.0000
  7
SOLINE
 73
2
 11
88.6800
 21
17.8000
 31
0.0000
  0
TEXT
  5
1CA
  8
מסגרת
 10
88.6800
 20
11.6400
 30
0.0000
 40
2.6250
  1
2026-08-24
 50
0.0000
  7
SOLINE
 73
2
 11
88.6800
 21
11.6400
 31
0.0000
  0
TEXT
  5
1CB
  8
מקרא
 10
156.1200
 20
17.8000
 30
0.0000
 40
1.8000
  1
DRAWING No
 50
0.0000
  7
SOLINE
 73
2
 11
156.1200
 21
17.8000
 31
0.0000
  0
TEXT
  5
1CC
  8
מסגרת
 10
156.1200
 20
11.6400
 30
0.0000
 40
2.6250
  1
M-01
 50
0.0000
  7
SOLINE
 73
2
 11
156.1200
 21
11.6400
 31
0.0000
  0
TEXT
  5
1CD
  8
מקרא
 10
223.5600
 20
17.8000
 30
0.0000
 40
1.8000
  1
SHEET
 50
0.0000
  7
SOLINE
 73
2
 11
223.5600
 21
17.8000
 31
0.0000
  0
TEXT
  5
1CE
  8
מסגרת
 10
223.5600
 20
11.6400
 30
0.0000
 40
2.6250
  1
W1
 50
0.0000
  7
SOLINE
 73
2
 11
223.5600
 21
11.6400
 31
0.0000
  0
LINE
  5
100
  8
קירות
 10
76.0000
 20
82.3750
 30
0.0000
 11
236.0000
 21
82.3750
 31
0.0000
  0
LINE
  5
101
  8
קירות
 10
236.0000
 20
82.3750
 30
0.0000
 11
236.0000
 21
186.3750
 31
0.0000
  0
LINE
  5
102
  8
קירות
 10
236.0000
 20
186.3750
 30
0.0000
 11
76.0000
 21
186.3750
 31
0.0000
  0
LINE
  5
103
  8
קירות
 10
76.0000
 20
186.3750
 30
0.0000
 11
76.0000
 21
82.3750
 31
0.0000
  0
TEXT
  5
104
  8
קירות-טקסט
 10
156.0000
 20
198.3750
 30
0.0000
 40
7.0000
  1
W1
 50
0.0000
  7
SOLINE
 72
1
 73
1
 11
156.0000
 21
198.3750
 31
0.0000
  0
LINE
  5
105
  8
חשמל
 10
88.0000
 20
84.9750
 30
0.0000
 11
91.6000
 21
84.9750
 31
0.0000
  0
LINE
  5
106
  8
חשמל
 10
91.6000
 20
84.9750
 30
0.0000
 11
91.6000
 21
88.5750
 31
0.0000
  0
LINE
  5
107
  8
חשמל
 10
91.6000
 20
88.5750
 30
0.0000
 11
88.0000
 21
88.5750
 31
0.0000
  0
LINE
  5
108
  8
חשמל
 10
88.0000
 20
88.5750
 30
0.0000
 11
88.0000
 21
84.9750
 31
0.0000
  0
LINE
  5
109
  8
חשמל
 10
89.8000
 20
84.9750
 30
0.0000
 11
89.8000
 21
86.6310
 31
0.0000
  0
LINE
  5
10A
  8
חשמל
 10
88.6480
 20
86.6310
 30
0.0000
 11
88.6552
 21
86.7600
 31
0.0000
  0
LINE
  5
10B
  8
חשמל
 10
88.6552
 20
86.7600
 30
0.0000
 11
88.6769
 21
86.8873
 31
0.0000
  0
LINE
  5
10C
  8
חשמל
 10
88.6769
 20
86.8873
 30
0.0000
 11
88.7126
 21
87.0115
 31
0.0000
  0
LINE
  5
10D
  8
חשמל
 10
88.7126
 20
87.0115
 30
0.0000
 11
88.7621
 21
87.1308
 31
0.0000
  0
LINE
  5
10E
  8
חשמל
 10
88.7621
 20
87.1308
 30
0.0000
 11
88.8246
 21
87.2439
 31
0.0000
  0
LINE
  5
10F
  8
חשמל
 10
88.8246
 20
87.2439
 30
0.0000
 11
88.8993
 21
87.3493
 31
0.0000
  0
LINE
  5
110
  8
חשמל
 10
88.8993
 20
87.3493
 30
0.0000
 11
88.9854
 21
87.4456
 31
0.0000
  0
LINE
  5
111
  8
חשמל
 10
88.9854
 20
87.4456
 30
0.0000
 11
89.0817
 21
87.5317
 31
0.0000
  0
LINE
  5
112
  8
חשמל
 10
89.0817
 20
87.5317
 30
0.0000
 11
89.1871
 21
87.6064
 31
0.0000
  0
LINE
  5
113
  8
חשמל
 10
89.1871
 20
87.6064
 30
0.0000
 11
89.3002
 21
87.6689
 31
0.0000
  0
LINE
  5
114
  8
חשמל
 10
89.3002
 20
87.6689
 30
0.0000
 11
89.4195
 21
87.7184
 31
0.0000
  0
LINE
  5
115
  8
חשמל
 10
89.4195
 20
87.7184
 30
0.0000
 11
89.5437
 21
87.7541
 31
0.0000
  0
LINE
  5
116
  8
חשמל
 10
89.5437
 20
87.7541
 30
0.0000
 11
89.6710
 21
87.7758
 31
0.0000
  0
LINE
  5
117
  8
חשמל
 10
89.6710
 20
87.7758
 30
0.0000
 11
89.8000
 21
87.7830
 31
0.0000
  0
LINE
  5
118
  8
חשמל
 10
89.8000
 20
87.7830
 30
0.0000
 11
89.9290
 21
87.7758
 31
0.0000
  0
LINE
  5
119
  8
חשמל
 10
89.9290
 20
87.7758
 30
0.0000
 11
90.0563
 21
87.7541
 31
0.0000
  0
LINE
  5
11A
  8
חשמל
 10
90.0563
 20
87.7541
 30
0.0000
 11
90.1805
 21
87.7184
 31
0.0000
  0
LINE
  5
11B
  8
חשמל
 10
90.1805
 20
87.7184
 30
0.0000
 11
90.2998
 21
87.6689
 31
0.0000
  0
LINE
  5
11C
  8
חשמל
 10
90.2998
 20
87.6689
 30
0.0000
 11
90.4129
 21
87.6064
 31
0.0000
  0
LINE
  5
11D
  8
חשמל
 10
90.4129
 20
87.6064
 30
0.0000
 11
90.5183
 21
87.5317
 31
0.0000
  0
LINE
  5
11E
  8
חשמל
 10
90.5183
 20
87.5317
 30
0.0000
 11
90.6146
 21
87.4456
 31
0.0000
  0
LINE
  5
11F
  8
חשמל
 10
90.6146
 20
87.4456
 30
0.0000
 11
90.7007
 21
87.3493
 31
0.0000
  0
LINE
  5
120
  8
חשמל
 10
90.7007
 20
87.3493
 30
0.0000
 11
90.7754
 21
87.2439
 31
0.0000
  0
LINE
  5
121
  8
חשמל
 10
90.7754
 20
87.2439
 30
0.0000
 11
90.8379
 21
87.1308
 31
0.0000
  0
LINE
  5
122
  8
חשמל
 10
90.8379
 20
87.1308
 30
0.0000
 11
90.8874
 21
87.0115
 31
0.0000
  0
LINE
  5
123
  8
חשמל
 10
90.8874
 20
87.0115
 30
0.0000
 11
90.9231
 21
86.8873
 31
0.0000
  0
LINE
  5
124
  8
חשמל
 10
90.9231
 20
86.8873
 30
0.0000
 11
90.9448
 21
86.7600
 31
0.0000
  0
LINE
  5
125
  8
חשמל
 10
90.9448
 20
86.7600
 30
0.0000
 11
90.9520
 21
86.6310
 31
0.0000
  0
LINE
  5
126
  8
חשמל
 10
88.6480
 20
86.6310
 30
0.0000
 11
90.9520
 21
86.6310
 31
0.0000
  0
LINE
  5
127
  8
חשמל
 10
116.0000
 20
84.9750
 30
0.0000
 11
122.4000
 21
84.9750
 31
0.0000
  0
LINE
  5
128
  8
חשמל
 10
122.4000
 20
84.9750
 30
0.0000
 11
122.4000
 21
88.5750
 31
0.0000
  0
LINE
  5
129
  8
חשמל
 10
122.4000
 20
88.5750
 30
0.0000
 11
116.0000
 21
88.5750
 31
0.0000
  0
LINE
  5
12A
  8
חשמל
 10
116.0000
 20
88.5750
 30
0.0000
 11
116.0000
 21
84.9750
 31
0.0000
  0
LINE
  5
12B
  8
חשמל
 10
119.2000
 20
84.9750
 30
0.0000
 11
119.2000
 21
86.6310
 31
0.0000
  0
LINE
  5
12C
  8
חשמל
 10
116.0358
 20
86.6310
 30
0.0000
 11
116.0455
 21
86.7277
 31
0.0000
  0
LINE
  5
12D
  8
חשמל
 10
116.0455
 20
86.7277
 30
0.0000
 11
116.0744
 21
86.8233
 31
0.0000
  0
LINE
  5
12E
  8
חשמל
 10
116.0744
 20
86.8233
 30
0.0000
 11
116.1220
 21
86.9164
 31
0.0000
  0
LINE
  5
12F
  8
חשמל
 10
116.1220
 20
86.9164
 30
0.0000
 11
116.1880
 21
87.0059
 31
0.0000
  0
LINE
  5
130
  8
חשמל
 10
116.1880
 20
87.0059
 30
0.0000
 11
116.2713
 21
87.0907
 31
0.0000
  0
LINE
  5
131
  8
חשמל
 10
116.2713
 20
87.0907
 30
0.0000
 11
116.3709
 21
87.1697
 31
0.0000
  0
LINE
  5
132
  8
חשמל
 10
116.3709
 20
87.1697
 30
0.0000
 11
116.4857
 21
87.2419
 31
0.0000
  0
LINE
  5
133
  8
חשמל
 10
116.4857
 20
87.2419
 30
0.0000
 11
116.6142
 21
87.3065
 31
0.0000
  0
LINE
  5
134
  8
חשמל
 10
116.6142
 20
87.3065
 30
0.0000
 11
116.7546
 21
87.3626
 31
0.0000
  0
LINE
  5
135
  8
חשמל
 10
116.7546
 20
87.3626
 30
0.0000
 11
116.9054
 21
87.4094
 31
0.0000
  0
LINE
  5
136
  8
חשמל
 10
116.9054
 20
87.4094
 30
0.0000
 11
117.0645
 21
87.4465
 31
0.0000
  0
LINE
  5
137
  8
חשמל
 10
117.0645
 20
87.4465
 30
0.0000
 11
117.2300
 21
87.4733
 31
0.0000
  0
LINE
  5
138
  8
חשמל
 10
117.2300
 20
87.4733
 30
0.0000
 11
117.3999
 21
87.4896
 31
0.0000
  0
LINE
  5
139
  8
חשמל
 10
117.3999
 20
87.4896
 30
0.0000
 11
117.5718
 21
87.4950
 31
0.0000
  0
LINE
  5
13A
  8
חשמל
 10
117.5718
 20
87.4950
 30
0.0000
 11
117.7438
 21
87.4896
 31
0.0000
  0
LINE
  5
13B
  8
חשמל
 10
117.7438
 20
87.4896
 30
0.0000
 11
117.9136
 21
87.4733
 31
0.0000
  0
LINE
  5
13C
  8
חשמל
 10
117.9136
 20
87.4733
 30
0.0000
 11
118.0791
 21
87.4465
 31
0.0000
  0
LINE
  5
13D
  8
חשמל
 10
118.0791
 20
87.4465
 30
0.0000
 11
118.2383
 21
87.4094
 31
0.0000
  0
LINE
  5
13E
  8
חשמל
 10
118.2383
 20
87.4094
 30
0.0000
 11
118.3890
 21
87.3626
 31
0.0000
  0
LINE
  5
13F
  8
חשמל
 10
118.3890
 20
87.3626
 30
0.0000
 11
118.5295
 21
87.3065
 31
0.0000
  0
LINE
  5
140
  8
חשמל
 10
118.5295
 20
87.3065
 30
0.0000
 11
118.6580
 21
87.2419
 31
0.0000
  0
LINE
  5
141
  8
חשמל
 10
118.6580
 20
87.2419
 30
0.0000
 11
118.7727
 21
87.1697
 31
0.0000
  0
LINE
  5
142
  8
חשמל
 10
118.7727
 20
87.1697
 30
0.0000
 11
118.8724
 21
87.0907
 31
0.0000
  0
LINE
  5
143
  8
חשמל
 10
118.8724
 20
87.0907
 30
0.0000
 11
118.9557
 21
87.0059
 31
0.0000
  0
LINE
  5
144
  8
חשמל
 10
118.9557
 20
87.0059
 30
0.0000
 11
119.0216
 21
86.9164
 31
0.0000
  0
LINE
  5
145
  8
חשמל
 10
119.0216
 20
86.9164
 30
0.0000
 11
119.0693
 21
86.8233
 31
0.0000
  0
LINE
  5
146
  8
חשמל
 10
119.0693
 20
86.8233
 30
0.0000
 11
119.0982
 21
86.7277
 31
0.0000
  0
LINE
  5
147
  8
חשמל
 10
119.0982
 20
86.7277
 30
0.0000
 11
119.1078
 21
86.6310
 31
0.0000
  0
LINE
  5
148
  8
חשמל
 10
116.0358
 20
86.6310
 30
0.0000
 11
119.1078
 21
86.6310
 31
0.0000
  0
LINE
  5
149
  8
חשמל
 10
119.2922
 20
86.6310
 30
0.0000
 11
119.3018
 21
86.7277
 31
0.0000
  0
LINE
  5
14A
  8
חשמל
 10
119.3018
 20
86.7277
 30
0.0000
 11
119.3307
 21
86.8233
 31
0.0000
  0
LINE
  5
14B
  8
חשמל
 10
119.3307
 20
86.8233
 30
0.0000
 11
119.3784
 21
86.9164
 31
0.0000
  0
LINE
  5
14C
  8
חשמל
 10
119.3784
 20
86.9164
 30
0.0000
 11
119.4443
 21
87.0059
 31
0.0000
  0
LINE
  5
14D
  8
חשמל
 10
119.4443
 20
87.0059
 30
0.0000
 11
119.5276
 21
87.0907
 31
0.0000
  0
LINE
  5
14E
  8
חשמל
 10
119.5276
 20
87.0907
 30
0.0000
 11
119.6273
 21
87.1697
 31
0.0000
  0
LINE
  5
14F
  8
חשמל
 10
119.6273
 20
87.1697
 30
0.0000
 11
119.7420
 21
87.2419
 31
0.0000
  0
LINE
  5
150
  8
חשמל
 10
119.7420
 20
87.2419
 30
0.0000
 11
119.8705
 21
87.3065
 31
0.0000
  0
LINE
  5
151
  8
חשמל
 10
119.8705
 20
87.3065
 30
0.0000
 11
120.0110
 21
87.3626
 31
0.0000
  0
LINE
  5
152
  8
חשמל
 10
120.0110
 20
87.3626
 30
0.0000
 11
120.1617
 21
87.4094
 31
0.0000
  0
LINE
  5
153
  8
חשמל
 10
120.1617
 20
87.4094
 30
0.0000
 11
120.3209
 21
87.4465
 31
0.0000
  0
LINE
  5
154
  8
חשמל
 10
120.3209
 20
87.4465
 30
0.0000
 11
120.4864
 21
87.4733
 31
0.0000
  0
LINE
  5
155
  8
חשמל
 10
120.4864
 20
87.4733
 30
0.0000
 11
120.6562
 21
87.4896
 31
0.0000
  0
LINE
  5
156
  8
חשמל
 10
120.6562
 20
87.4896
 30
0.0000
 11
120.8282
 21
87.4950
 31
0.0000
  0
LINE
  5
157
  8
חשמל
 10
120.8282
 20
87.4950
 30
0.0000
 11
121.0001
 21
87.4896
 31
0.0000
  0
LINE
  5
158
  8
חשמל
 10
121.0001
 20
87.4896
 30
0.0000
 11
121.1700
 21
87.4733
 31
0.0000
  0
LINE
  5
159
  8
חשמל
 10
121.1700
 20
87.4733
 30
0.0000
 11
121.3355
 21
87.4465
 31
0.0000
  0
LINE
  5
15A
  8
חשמל
 10
121.3355
 20
87.4465
 30
0.0000
 11
121.4946
 21
87.4094
 31
0.0000
  0
LINE
  5
15B
  8
חשמל
 10
121.4946
 20
87.4094
 30
0.0000
 11
121.6454
 21
87.3626
 31
0.0000
  0
LINE
  5
15C
  8
חשמל
 10
121.6454
 20
87.3626
 30
0.0000
 11
121.7858
 21
87.3065
 31
0.0000
  0
LINE
  5
15D
  8
חשמל
 10
121.7858
 20
87.3065
 30
0.0000
 11
121.9143
 21
87.2419
 31
0.0000
  0
LINE
  5
15E
  8
חשמל
 10
121.9143
 20
87.2419
 30
0.0000
 11
122.0291
 21
87.1697
 31
0.0000
  0
LINE
  5
15F
  8
חשמל
 10
122.0291
 20
87.1697
 30
0.0000
 11
122.1287
 21
87.0907
 31
0.0000
  0
LINE
  5
160
  8
חשמל
 10
122.1287
 20
87.0907
 30
0.0000
 11
122.2120
 21
87.0059
 31
0.0000
  0
LINE
  5
161
  8
חשמל
 10
122.2120
 20
87.0059
 30
0.0000
 11
122.2780
 21
86.9164
 31
0.0000
  0
LINE
  5
162
  8
חשמל
 10
122.2780
 20
86.9164
 30
0.0000
 11
122.3256
 21
86.8233
 31
0.0000
  0
LINE
  5
163
  8
חשמל
 10
122.3256
 20
86.8233
 30
0.0000
 11
122.3545
 21
86.7277
 31
0.0000
  0
LINE
  5
164
  8
חשמל
 10
122.3545
 20
86.7277
 30
0.0000
 11
122.3642
 21
86.6310
 31
0.0000
  0
LINE
  5
165
  8
חשמל
 10
119.2922
 20
86.6310
 30
0.0000
 11
122.3642
 21
86.6310
 31
0.0000
  0
LINE
  5
166
  8
חשמל
 10
144.0000
 20
85.7750
 30
0.0000
 11
147.6000
 21
85.7750
 31
0.0000
  0
LINE
  5
167
  8
חשמל
 10
147.6000
 20
85.7750
 30
0.0000
 11
147.6000
 21
89.3750
 31
0.0000
  0
LINE
  5
168
  8
חשמל
 10
147.6000
 20
89.3750
 30
0.0000
 11
144.0000
 21
89.3750
 31
0.0000
  0
LINE
  5
169
  8
חשמל
 10
144.0000
 20
89.3750
 30
0.0000
 11
144.0000
 21
85.7750
 31
0.0000
  0
LINE
  5
16A
  8
חשמל
 10
145.8000
 20
85.7750
 30
0.0000
 11
145.8000
 21
86.8550
 31
0.0000
  0
ARC
  5
16B
  8
חשמל
 10
145.8000
 20
86.8550
 30
0.0000
 40
0.1800
 50
0.0000
 51
360.0000
  0
LINE
  5
16C
  8
חשמל
 10
145.8000
 20
86.8550
 30
0.0000
 11
146.7498
 21
88.2115
 31
0.0000
  0
LINE
  5
16D
  8
חשמל
 10
172.0000
 20
87.1750
 30
0.0000
 11
174.4000
 21
87.1750
 31
0.0000
  0
LINE
  5
16E
  8
חשמל
 10
174.4000
 20
87.1750
 30
0.0000
 11
174.4000
 21
89.5750
 31
0.0000
  0
LINE
  5
16F
  8
חשמל
 10
174.4000
 20
89.5750
 30
0.0000
 11
172.0000
 21
89.5750
 31
0.0000
  0
LINE
  5
170
  8
חשמל
 10
172.0000
 20
89.5750
 30
0.0000
 11
172.0000
 21
87.1750
 31
0.0000
  0
LINE
  5
171
  8
חשמל
 10
173.2000
 20
87.1750
 30
0.0000
 11
173.2000
 21
89.0470
 31
0.0000
  0
ARC
  5
172
  8
חשמל
 10
173.2000
 20
88.3270
 30
0.0000
 40
0.7680
 50
0.0000
 51
360.0000
  0
LINE
  5
173
  8
חשמל
 10
173.2000
 20
88.3270
 30
0.0000
 11
172.6720
 21
88.8550
 31
0.0000
  0
LINE
  5
174
  8
חשמל
 10
173.2000
 20
88.3270
 30
0.0000
 11
173.7280
 21
88.8550
 31
0.0000
  0
LINE
  5
175
  8
חשמל
 10
173.2000
 20
88.3270
 30
0.0000
 11
172.6720
 21
87.7990
 31
0.0000
  0
LINE
  5
176
  8
חשמל
 10
173.2000
 20
88.3270
 30
0.0000
 11
173.7280
 21
87.7990
 31
0.0000
  0
LINE
  5
177
  8
חשמל
 10
200.0000
 20
84.7750
 30
0.0000
 11
202.4000
 21
84.7750
 31
0.0000
  0
LINE
  5
178
  8
חשמל
 10
202.4000
 20
84.7750
 30
0.0000
 11
202.4000
 21
87.1750
 31
0.0000
  0
LINE
  5
179
  8
חשמל
 10
202.4000
 20
87.1750
 30
0.0000
 11
200.0000
 21
87.1750
 31
0.0000
  0
LINE
  5
17A
  8
חשמל
 10
200.0000
 20
87.1750
 30
0.0000
 11
200.0000
 21
84.7750
 31
0.0000
  0
LINE
  5
17B
  8
חשמל
 10
201.2000
 20
84.7750
 30
0.0000
 11
201.2000
 21
86.6470
 31
0.0000
  0
ARC
  5
17C
  8
חשמל
 10
201.2000
 20
85.9270
 30
0.0000
 40
0.7680
 50
0.0000
 51
360.0000
  0
LINE
  5
17D
  8
חשמל
 10
201.2000
 20
85.9270
 30
0.0000
 11
200.6720
 21
86.4550
 31
0.0000
  0
LINE
  5
17E
  8
חשמל
 10
201.2000
 20
85.9270
 30
0.0000
 11
201.7280
 21
86.4550
 31
0.0000
  0
LINE
  5
17F
  8
חשמל
 10
201.2000
 20
85.9270
 30
0.0000
 11
200.6720
 21
85.3990
 31
0.0000
  0
LINE
  5
180
  8
חשמל
 10
201.2000
 20
85.9270
 30
0.0000
 11
201.7280
 21
85.3990
 31
0.0000
  0
LINE
  5
181
  8
מידות-פנים
 10
76.0000
 20
80.7750
 30
0.0000
 11
76.0000
 21
64.0350
 31
0.0000
  0
LINE
  5
182
  8
מידות-פנים
 10
89.8000
 20
80.7750
 30
0.0000
 11
89.8000
 21
64.0350
 31
0.0000
  0
LINE
  5
183
  8
מידות-פנים
 10
76.0000
 20
66.3750
 30
0.0000
 11
89.8000
 21
66.3750
 31
0.0000
  0
SOLID
  5
184
  8
מידות-פנים
 10
76.0000
 20
66.3750
 30
0.0000
 11
71.5150
 21
65.1270
 31
0.0000
 12
71.5150
 22
67.6230
 32
0.0000
 13
71.5150
 23
67.6230
 33
0.0000
  0
SOLID
  5
185
  8
מידות-פנים
 10
89.8000
 20
66.3750
 30
0.0000
 11
94.2850
 21
65.1270
 31
0.0000
 12
94.2850
 22
67.6230
 32
0.0000
 13
94.2850
 23
67.6230
 33
0.0000
  0
TEXT
  5
186
  8
מידות-פנים
 10
82.9000
 20
62.6700
 30
0.0000
 40
3.9000
  1
34.5
 50
0.0000
  7
SOLINE
 72
1
 73
2
 11
82.9000
 21
62.6700
 31
0.0000
  0
LINE
  5
187
  8
מידות-פנים
 10
89.8000
 20
80.7750
 30
0.0000
 11
89.8000
 21
64.0350
 31
0.0000
  0
LINE
  5
188
  8
מידות-פנים
 10
119.2000
 20
80.7750
 30
0.0000
 11
119.2000
 21
64.0350
 31
0.0000
  0
LINE
  5
189
  8
מידות-פנים
 10
89.8000
 20
66.3750
 30
0.0000
 11
119.2000
 21
66.3750
 31
0.0000
  0
SOLID
  5
18A
  8
מידות-פנים
 10
89.8000
 20
66.3750
 30
0.0000
 11
85.3150
 21
65.1270
 31
0.0000
 12
85.3150
 22
67.6230
 32
0.0000
 13
85.3150
 23
67.6230
 33
0.0000
  0
SOLID
  5
18B
  8
מידות-פנים
 10
119.2000
 20
66.3750
 30
0.0000
 11
123.6850
 21
65.1270
 31
0.0000
 12
123.6850
 22
67.6230
 32
0.0000
 13
123.6850
 23
67.6230
 33
0.0000
  0
TEXT
  5
18C
  8
מידות-פנים
 10
104.5000
 20
62.6700
 30
0.0000
 40
3.9000
  1
73.5
 50
0.0000
  7
SOLINE
 72
1
 73
2
 11
104.5000
 21
62.6700
 31
0.0000
  0
LINE
  5
18D
  8
מידות-פנים
 10
119.2000
 20
80.7750
 30
0.0000
 11
119.2000
 21
64.0350
 31
0.0000
  0
LINE
  5
18E
  8
מידות-פנים
 10
145.8000
 20
80.7750
 30
0.0000
 11
145.8000
 21
64.0350
 31
0.0000
  0
LINE
  5
18F
  8
מידות-פנים
 10
119.2000
 20
66.3750
 30
0.0000
 11
145.8000
 21
66.3750
 31
0.0000
  0
SOLID
  5
190
  8
מידות-פנים
 10
119.2000
 20
66.3750
 30
0.0000
 11
114.7150
 21
65.1270
 31
0.0000
 12
114.7150
 22
67.6230
 32
0.0000
 13
114.7150
 23
67.6230
 33
0.0000
  0
SOLID
  5
191
  8
מידות-פנים
 10
145.8000
 20
66.3750
 30
0.0000
 11
150.2850
 21
65.1270
 31
0.0000
 12
150.2850
 22
67.6230
 32
0.0000
 13
150.2850
 23
67.6230
 33
0.0000
  0
TEXT
  5
192
  8
מידות-פנים
 10
132.5000
 20
62.6700
 30
0.0000
 40
3.9000
  1
66.5
 50
0.0000
  7
SOLINE
 72
1
 73
2
 11
132.5000
 21
62.6700
 31
0.0000
  0
LINE
  5
193
  8
מידות-פנים
 10
145.8000
 20
80.7750
 30
0.0000
 11
145.8000
 21
64.0350
 31
0.0000
  0
LINE
  5
194
  8
מידות-פנים
 10
173.2000
 20
80.7750
 30
0.0000
 11
173.2000
 21
64.0350
 31
0.0000
  0
LINE
  5
195
  8
מידות-פנים
 10
145.8000
 20
66.3750
 30
0.0000
 11
173.2000
 21
66.3750
 31
0.0000
  0
SOLID
  5
196
  8
מידות-פנים
 10
145.8000
 20
66.3750
 30
0.0000
 11
141.3150
 21
65.1270
 31
0.0000
 12
141.3150
 22
67.6230
 32
0.0000
 13
141.3150
 23
67.6230
 33
0.0000
  0
SOLID
  5
197
  8
מידות-פנים
 10
173.2000
 20
66.3750
 30
0.0000
 11
177.6850
 21
65.1270
 31
0.0000
 12
177.6850
 22
67.6230
 32
0.0000
 13
177.6850
 23
67.6230
 33
0.0000
  0
TEXT
  5
198
  8
מידות-פנים
 10
159.5000
 20
62.6700
 30
0.0000
 40
3.9000
  1
68.5
 50
0.0000
  7
SOLINE
 72
1
 73
2
 11
159.5000
 21
62.6700
 31
0.0000
  0
LINE
  5
199
  8
מידות-פנים
 10
173.2000
 20
80.7750
 30
0.0000
 11
173.2000
 21
64.0350
 31
0.0000
  0
LINE
  5
19A
  8
מידות-פנים
 10
201.2000
 20
80.7750
 30
0.0000
 11
201.2000
 21
64.0350
 31
0.0000
  0
LINE
  5
19B
  8
מידות-פנים
 10
173.2000
 20
66.3750
 30
0.0000
 11
201.2000
 21
66.3750
 31
0.0000
  0
SOLID
  5
19C
  8
מידות-פנים
 10
173.2000
 20
66.3750
 30
0.0000
 11
168.7150
 21
65.1270
 31
0.0000
 12
168.7150
 22
67.6230
 32
0.0000
 13
168.7150
 23
67.6230
 33
0.0000
  0
SOLID
  5
19D
  8
מידות-פנים
 10
201.2000
 20
66.3750
 30
0.0000
 11
205.6850
 21
65.1270
 31
0.0000
 12
205.6850
 22
67.6230
 32
0.0000
 13
205.6850
 23
67.6230
 33
0.0000
  0
TEXT
  5
19E
  8
מידות-פנים
 10
187.2000
 20
62.6700
 30
0.0000
 40
3.9000
  1
70
 50
0.0000
  7
SOLINE
 72
1
 73
2
 11
187.2000
 21
62.6700
 31
0.0000
  0
LINE
  5
19F
  8
מידות-פנים
 10
201.2000
 20
80.7750
 30
0.0000
 11
201.2000
 21
64.0350
 31
0.0000
  0
LINE
  5
1A0
  8
מידות-פנים
 10
236.0000
 20
80.7750
 30
0.0000
 11
236.0000
 21
64.0350
 31
0.0000
  0
LINE
  5
1A1
  8
מידות-פנים
 10
201.2000
 20
66.3750
 30
0.0000
 11
236.0000
 21
66.3750
 31
0.0000
  0
SOLID
  5
1A2
  8
מידות-פנים
 10
201.2000
 20
66.3750
 30
0.0000
 11
196.7150
 21
65.1270
 31
0.0000
 12
196.7150
 22
67.6230
 32
0.0000
 13
196.7150
 23
67.6230
 33
0.0000
  0
SOLID
  5
1A3
  8
מידות-פנים
 10
236.0000
 20
66.3750
 30
0.0000
 11
240.4850
 21
65.1270
 31
0.0000
 12
240.4850
 22
67.6230
 32
0.0000
 13
240.4850
 23
67.6230
 33
0.0000
  0
TEXT
  5
1A4
  8
מידות-פנים
 10
218.6000
 20
62.6700
 30
0.0000
 40
3.9000
  1
87
 50
0.0000
  7
SOLINE
 72
1
 73
2
 11
218.6000
 21
62.6700
 31
0.0000
  0
LINE
  5
1A5
  8
מידות-פנים
 10
76.0000
 20
80.3750
 30
0.0000
 11
76.0000
 21
47.3750
 31
0.0000
  0
LINE
  5
1A6
  8
מידות-פנים
 10
236.0000
 20
80.3750
 30
0.0000
 11
236.0000
 21
47.3750
 31
0.0000
  0
LINE
  5
1A7
  8
מידות-פנים
 10
76.0000
 20
50.3750
 30
0.0000
 11
236.0000
 21
50.3750
 31
0.0000
  0
SOLID
  5
1A8
  8
מידות-פנים
 10
76.0000
 20
50.3750
 30
0.0000
 11
70.2500
 21
48.7750
 31
0.0000
 12
70.2500
 22
51.9750
 32
0.0000
 13
70.2500
 23
51.9750
 33
0.0000
  0
SOLID
  5
1A9
  8
מידות-פנים
 10
236.0000
 20
50.3750
 30
0.0000
 11
241.7500
 21
48.7750
 31
0.0000
 12
241.7500
 22
51.9750
 32
0.0000
 13
241.7500
 23
51.9750
 33
0.0000
  0
TEXT
  5
1AA
  8
מידות-פנים
 10
156.0000
 20
45.6250
 30
0.0000
 40
5.0000
  1
400
 50
0.0000
  7
SOLINE
 72
1
 73
2
 11
156.0000
 21
45.6250
 31
0.0000
  0
LINE
  5
1AB
  8
מידות-פנים
 10
58.0000
 20
82.3750
 30
0.0000
 11
57.0000
 21
82.3750
 31
0.0000
  0
LINE
  5
1AC
  8
מידות-פנים
 10
58.0000
 20
186.3750
 30
0.0000
 11
57.0000
 21
186.3750
 31
0.0000
  0
LINE
  5
1AD
  8
מידות-פנים
 10
60.0000
 20
82.3750
 30
0.0000
 11
60.0000
 21
186.3750
 31
0.0000
  0
SOLID
  5
1AE
  8
מידות-פנים
 10
60.0000
 20
82.3750
 30
0.0000
 11
58.4000
 21
76.6250
 31
0.0000
 12
61.6000
 22
76.6250
 32
0.0000
 13
61.6000
 23
76.6250
 33
0.0000
  0
SOLID
  5
1AF
  8
מידות-פנים
 10
60.0000
 20
186.3750
 30
0.0000
 11
58.4000
 21
192.1250
 31
0.0000
 12
61.6000
 22
192.1250
 32
0.0000
 13
61.6000
 23
192.1250
 33
0.0000
  0
TEXT
  5
1B0
  8
מידות-פנים
 10
55.2500
 20
134.3750
 30
0.0000
 40
5.0000
  1
260
 50
90.0000
  7
SOLINE
 72
1
 73
2
 11
55.2500
 21
134.3750
 31
0.0000
  0
ENDSEC
  0
EOF
