  0
SECTION
  2
HEADER
  9
$ACADVER
  1
AC1009
  9
$INSBASE
 10
0.0000
 20
0.0000
 30
0.0000
  9
$EXTMIN
 10
-5.0000
 20
-5.0000
 30
0.0000
  9
$EXTMAX
 10
302.0000
 20
425.0000
 30
0.0000
  9
$DWGCODEPAGE
  3
ansi_1255
  9
$CLAYER
  8
0
  9
$LTSCALE
 40
10.0000
  9
$LIMMIN
 10
0.0000
 20
0.0000
  9
$LIMMAX
 10
2000.0000
 20
200.0000
  0
ENDSEC
  0
SECTION
  2
TABLES
  0
TABLE
  2
VPORT
 70
1
  0
VPORT
  2
*ACTIVE
 70
0
 10
0.0000
 20
0.0000
 11
1.0000
 21
1.0000
 12
148.5000
 22
210.0000
 13
0.0000
 23
0.0000
 14
10.0000
 24
10.0000
 15
10.0000
 25
10.0000
 16
0.0000
 26
0.0000
 36
1.0000
 17
0.0000
 27
0.0000
 37
0.0000
 40
1000.0000
 41
1.6000
 42
50.0000
 43
0.0000
 44
0.0000
 50
0.0000
 51
0.0000
 71
0
 72
100
 73
1
 74
1
 75
0
 76
0
 77
0
 78
0
  0
ENDTAB
  0
TABLE
  2
LTYPE
 70
3
  0
LTYPE
  2
CONTINUOUS
 70
0
  3
Solid line
 72
65
 73
0
 40
0.0000
  0
LTYPE
  2
HIDDEN
 70
0
  3
Hidden __ __ __ __ __ __
 72
65
 73
2
 40
9.5250
 49
6.3500
 49
-3.1750
  0
LTYPE
  2
CENTER
 70
0
  3
Center ____ _ ____ _ ____
 72
65
 73
4
 40
50.8000
 49
31.7500
 49
-6.3500
 49
6.3500
 49
-6.3500
  0
ENDTAB
  0
TABLE
  2
LAYER
 70
71
  0
LAYER
  2
0
 70
0
 62
7
  6
CONTINUOUS
  0
LAYER
  2
קירות
 70
0
 62
7
  6
CONTINUOUS
  0
LAYER
  2
קירות-מילוי
 70
0
 62
8
  6
CONTINUOUS
  0
LAYER
  2
קירות-מידות
 70
0
 62
7
  6
CONTINUOUS
  0
LAYER
  2
קירות-טקסט
 70
0
 62
7
  6
CONTINUOUS
  0
LAYER
  2
קירות-נסתר
 70
0
 62
7
  6
HIDDEN
  0
LAYER
  2
קירות-ציר
 70
0
 62
7
  6
CENTER
  0
LAYER
  2
מבנה
 70
0
 62
9
  6
CONTINUOUS
  0
LAYER
  2
מבנה-מילוי
 70
0
 62
9
  6
CONTINUOUS
  0
LAYER
  2
מבנה-מידות
 70
0
 62
9
  6
CONTINUOUS
  0
LAYER
  2
מבנה-טקסט
 70
0
 62
9
  6
CONTINUOUS
  0
LAYER
  2
מבנה-נסתר
 70
0
 62
9
  6
HIDDEN
  0
LAYER
  2
מבנה-ציר
 70
0
 62
9
  6
CENTER
  0
LAYER
  2
חשמל
 70
0
 62
6
  6
CONTINUOUS
  0
LAYER
  2
חשמל-מידות
 70
0
 62
6
  6
CONTINUOUS
  0
LAYER
  2
חשמל-טקסט
 70
0
 62
6
  6
CONTINUOUS
  0
LAYER
  2
חשמל-נסתר
 70
0
 62
6
  6
HIDDEN
  0
LAYER
  2
תאורה
 70
0
 62
30
  6
CONTINUOUS
  0
LAYER
  2
תאורה-מידות
 70
0
 62
30
  6
CONTINUOUS
  0
LAYER
  2
תאורה-טקסט
 70
0
 62
30
  6
CONTINUOUS
  0
LAYER
  2
תאורה-נסתר
 70
0
 62
30
  6
HIDDEN
  0
LAYER
  2
מים
 70
0
 62
4
  6
CONTINUOUS
  0
LAYER
  2
מים-מידות
 70
0
 62
4
  6
CONTINUOUS
  0
LAYER
  2
מים-טקסט
 70
0
 62
4
  6
CONTINUOUS
  0
LAYER
  2
מים-נסתר
 70
0
 62
4
  6
HIDDEN
  0
LAYER
  2
מים-ציר
 70
0
 62
4
  6
CENTER
  0
LAYER
  2
ניקוז
 70
0
 62
140
  6
CONTINUOUS
  0
LAYER
  2
ניקוז-מידות
 70
0
 62
140
  6
CONTINUOUS
  0
LAYER
  2
ניקוז-טקסט
 70
0
 62
140
  6
CONTINUOUS
  0
LAYER
  2
ניקוז-נסתר
 70
0
 62
140
  6
HIDDEN
  0
LAYER
  2
ניקוז-ציר
 70
0
 62
140
  6
CENTER
  0
LAYER
  2
גז
 70
0
 62
2
  6
CONTINUOUS
  0
LAYER
  2
גז-מידות
 70
0
 62
2
  6
CONTINUOUS
  0
LAYER
  2
גז-טקסט
 70
0
 62
2
  6
CONTINUOUS
  0
LAYER
  2
גז-נסתר
 70
0
 62
2
  6
HIDDEN
  0
LAYER
  2
גז-ציר
 70
0
 62
2
  6
CENTER
  0
LAYER
  2
מיזוג
 70
0
 62
141
  6
CONTINUOUS
  0
LAYER
  2
מיזוג-מידות
 70
0
 62
141
  6
CONTINUOUS
  0
LAYER
  2
מיזוג-טקסט
 70
0
 62
141
  6
CONTINUOUS
  0
LAYER
  2
מיזוג-נסתר
 70
0
 62
141
  6
HIDDEN
  0
LAYER
  2
אוורור
 70
0
 62
131
  6
CONTINUOUS
  0
LAYER
  2
אוורור-מידות
 70
0
 62
131
  6
CONTINUOUS
  0
LAYER
  2
אוורור-טקסט
 70
0
 62
131
  6
CONTINUOUS
  0
LAYER
  2
אוורור-נסתר
 70
0
 62
131
  6
HIDDEN
  0
LAYER
  2
דלתות
 70
0
 62
5
  6
CONTINUOUS
  0
LAYER
  2
דלתות-מידות
 70
0
 62
5
  6
CONTINUOUS
  0
LAYER
  2
דלתות-טקסט
 70
0
 62
5
  6
CONTINUOUS
  0
LAYER
  2
דלתות-נסתר
 70
0
 62
5
  6
HIDDEN
  0
LAYER
  2
דלתות-מילוי
 70
0
 62
5
  6
CONTINUOUS
  0
LAYER
  2
חלונות
 70
0
 62
151
  6
CONTINUOUS
  0
LAYER
  2
חלונות-מידות
 70
0
 62
151
  6
CONTINUOUS
  0
LAYER
  2
חלונות-טקסט
 70
0
 62
151
  6
CONTINUOUS
  0
LAYER
  2
חלונות-נסתר
 70
0
 62
151
  6
HIDDEN
  0
LAYER
  2
ריהוט
 70
0
 62
42
  6
CONTINUOUS
  0
LAYER
  2
ריהוט-מידות
 70
0
 62
42
  6
CONTINUOUS
  0
LAYER
  2
ריהוט-טקסט
 70
0
 62
42
  6
CONTINUOUS
  0
LAYER
  2
ריהוט-נסתר
 70
0
 62
42
  6
HIDDEN
  0
LAYER
  2
מטבח
 70
0
 62
52
  6
CONTINUOUS
  0
LAYER
  2
מטבח-מידות
 70
0
 62
52
  6
CONTINUOUS
  0
LAYER
  2
מטבח-טקסט
 70
0
 62
52
  6
CONTINUOUS
  0
LAYER
  2
מטבח-נסתר
 70
0
 62
52
  6
HIDDEN
  0
LAYER
  2
ריצוף
 70
0
 62
251
  6
CONTINUOUS
  0
LAYER
  2
ריצוף-מילוי
 70
0
 62
8
  6
CONTINUOUS
  0
LAYER
  2
מידות-פנים
 70
0
 62
3
  6
CONTINUOUS
  0
LAYER
  2
מידות-חוץ
 70
0
 62
1
  6
CONTINUOUS
  0
LAYER
  2
מסגרת
 70
0
 62
250
  6
CONTINUOUS
  0
LAYER
  2
גבול-גיליון
 70
0
 62
255
  6
CONTINUOUS
  0
LAYER
  2
מקרא
 70
0
 62
150
  6
CONTINUOUS
  0
LAYER
  2
רשת-צירים
 70
0
 62
8
  6
CENTER
  0
LAYER
  2
הערות
 70
0
 62
150
  6
CONTINUOUS
  0
LAYER
  2
מהדורות
 70
0
 62
1
  6
CONTINUOUS
  0
ENDTAB
  0
TABLE
  2
STYLE
 70
2
  0
STYLE
  2
SOLINE
 70
0
 40
0.0000
 41
1.0000
 50
0.0000
 71
0
 42
2.5000
  3
arial.ttf
  4

  0
STYLE
  2
Standard
 70
0
 40
0.0000
 41
1.0000
 50
0.0000
 71
0
 42
2.5000
  3
txt
  4

  0
ENDTAB
  0
ENDSEC
  0
SECTION
  2
BLOCKS
  0
ENDSEC
  0
SECTION
  2
ENTITIES
  0
LINE
  5
1B1
  8
גבול-גיליון
 10
0.0000
 20
0.0000
 30
0.0000
 11
297.0000
 21
0.0000
 31
0.0000
  0
LINE
  5
1B2
  8
גבול-גיליון
 10
297.0000
 20
0.0000
 30
0.0000
 11
297.0000
 21
420.0000
 31
0.0000
  0
LINE
  5
1B3
  8
גבול-גיליון
 10
297.0000
 20
420.0000
 30
0.0000
 11
0.0000
 21
420.0000
 31
0.0000
  0
LINE
  5
1B4
  8
גבול-גיליון
 10
0.0000
 20
420.0000
 30
0.0000
 11
0.0000
 21
0.0000
 31
0.0000
  0
LINE
  5
1B5
  8
מסגרת
 10
10.0000
 20
10.0000
 30
0.0000
 11
287.0000
 21
10.0000
 31
0.0000
  0
LINE
  5
1B6
  8
מסגרת
 10
287.0000
 20
10.0000
 30
0.0000
 11
287.0000
 21
410.0000
 31
0.0000
  0
LINE
  5
1B7
  8
מסגרת
 10
287.0000
 20
410.0000
 30
0.0000
 11
10.0000
 21
410.0000
 31
0.0000
  0
LINE
  5
1B8
  8
מסגרת
 10
10.0000
 20
410.0000
 30
0.0000
 11
10.0000
 21
10.0000
 31
0.0000
  0
LINE
  5
1B9
  8
גבול-גיליון
 10
10.0000
 20
10.0000
 30
0.0000
 11
287.0000
 21
10.0000
 31
0.0000
  0
LINE
  5
1BA
  8
גבול-גיליון
 10
287.0000
 20
10.0000
 30
0.0000
 11
287.0000
 21
44.0000
 31
0.0000
  0
LINE
  5
1BB
  8
גבול-גיליון
 10
287.0000
 20
44.0000
 30
0.0000
 11
10.0000
 21
44.0000
 31
0.0000
  0
LINE
  5
1BC
  8
גבול-גיליון
 10
10.0000
 20
44.0000
 30
0.0000
 11
10.0000
 21
10.0000
 31
0.0000
  0
LINE
  5
1BD
  8
מסגרת
 10
87.5600
 20
10.0000
 30
0.0000
 11
87.5600
 21
44.0000
 31
0.0000
  0
TEXT
  5
1BE
  8
מסגרת
 10
48.7800
 20
31.0800
 30
0.0000
 40
5.3200
  1
SOLINE
 50
0.0000
  7
SOLINE
 72
1
 73
2
 11
48.7800
 21
31.0800
 31
0.0000
  0
TEXT
  5
1BF
  8
מקרא
 10
48.7800
 20
18.8400
 30
0.0000
 40
2.5200
  1
W1
 50
0.0000
  7
SOLINE
 72
1
 73
2
 11
48.7800
 21
18.8400
 31
0.0000
  0
LINE
  5
1C0
  8
מסגרת
 10
154.0400
 20
10.0000
 30
0.0000
 11
154.0400
 21
44.0000
 31
0.0000
  0
LINE
  5
1C1
  8
מסגרת
 10
220.5200
 20
10.0000
 30
0.0000
 11
220.5200
 21
44.0000
 31
0.0000
  0
LINE
  5
1C2
  8
מסגרת
 10
87.5600
 20
27.0000
 30
0.0000
 11
287.0000
 21
27.0000
 31
0.0000
  0
TEXT
  5
1C3
  8
מקרא
 10
89.8000
 20
38.9000
 30
0.0000
 40
2.0160
  1
PROJECT
 50
0.0000
  7
SOLINE
 73
2
 11
89.8000
 21
38.9000
 31
0.0000
  0
TEXT
  5
1C4
  8
מסגרת
 10
89.8000
 20
31.4200
 30
0.0000
 40
2.9400
  1
allelem
 50
0.0000
  7
SOLINE
 73
2
 11
89.8000
 21
31.4200
 31
0.0000
  0
TEXT
  5
1C5
  8
מקרא
 10
156.2800
 20
38.9000
 30
0.0000
 40
2.0160
  1
SCALE
 50
0.0000
  7
SOLINE
 73
2
 11
156.2800
 21
38.9000
 31
0.0000
  0
TEXT
  5
1C6
  8
מסגרת
 10
156.2800
 20
31.4200
 30
0.0000
 40
2.9400
  1
1:20
 50
0.0000
  7
SOLINE
 73
2
 11
156.2800
 21
31.4200
 31
0.0000
  0
TEXT
  5
1C7
  8
מקרא
 10
222.7600
 20
38.9000
 30
0.0000
 40
2.0160
  1
PAPER
 50
0.0000
  7
SOLINE
 73
2
 11
222.7600
 21
38.9000
 31
0.0000
  0
TEXT
  5
1C8
  8
מסגרת
 10
222.7600
 20
31.4200
 30
0.0000
 40
2.9400
  1
A3 portrait
 50
0.0000
  7
SOLINE
 73
2
 11
222.7600
 21
31.4200
 31
0.0000
  0
TEXT
  5
1C9
  8
מקרא
 10
89.8000
 20
21.9000
 30
0.0000
 40
2.0160
  1
DATE
 50
0.0000
  7
SOLINE
 73
2
 11
89.8000
 21
21.9000
 31
0.0000
  0
TEXT
  5
1CA
  8
מסגרת
 10
89.8000
 20
14.4200
 30
0.0000
 40
2.9400
  1
2026-08-24
 50
0.0000
  7
SOLINE
 73
2
 11
89.8000
 21
14.4200
 31
0.0000
  0
TEXT
  5
1CB
  8
מקרא
 10
156.2800
 20
21.9000
 30
0.0000
 40
2.0160
  1
DRAWING No
 50
0.0000
  7
SOLINE
 73
2
 11
156.2800
 21
21.9000
 31
0.0000
  0
TEXT
  5
1CC
  8
מסגרת
 10
156.2800
 20
14.4200
 30
0.0000
 40
2.9400
  1
M-01
 50
0.0000
  7
SOLINE
 73
2
 11
156.2800
 21
14.4200
 31
0.0000
  0
TEXT
  5
1CD
  8
מקרא
 10
222.7600
 20
21.9000
 30
0.0000
 40
2.0160
  1
SHEET
 50
0.0000
  7
SOLINE
 73
2
 11
222.7600
 21
21.9000
 31
0.0000
  0
TEXT
  5
1CE
  8
מסגרת
 10
222.7600
 20
14.4200
 30
0.0000
 40
2.9400
  1
W1
 50
0.0000
  7
SOLINE
 73
2
 11
222.7600
 21
14.4200
 31
0.0000
  0
LINE
  5
100
  8
קירות
 10
57.8750
 20
181.4688
 30
0.0000
 11
257.8750
 21
181.4688
 31
0.0000
  0
LINE
  5
101
  8
קירות
 10
257.8750
 20
181.4688
 30
0.0000
 11
257.8750
 21
311.4688
 31
0.0000
  0
LINE
  5
102
  8
קירות
 10
257.8750
 20
311.4688
 30
0.0000
 11
57.8750
 21
311.4688
 31
0.0000
  0
LINE
  5
103
  8
קירות
 10
57.8750
 20
311.4688
 30
0.0000
 11
57.8750
 21
181.4688
 31
0.0000
  0
TEXT
  5
104
  8
קירות-טקסט
 10
157.8750
 20
326.4688
 30
0.0000
 40
8.7500
  1
W1
 50
0.0000
  7
SOLINE
 72
1
 73
1
 11
157.8750
 21
326.4688
 31
0.0000
  0
LINE
  5
105
  8
חשמל
 10
72.8750
 20
184.7188
 30
0.0000
 11
77.3750
 21
184.7188
 31
0.0000
  0
LINE
  5
106
  8
חשמל
 10
77.3750
 20
184.7188
 30
0.0000
 11
77.3750
 21
189.2188
 31
0.0000
  0
LINE
  5
107
  8
חשמל
 10
77.3750
 20
189.2188
 30
0.0000
 11
72.8750
 21
189.2188
 31
0.0000
  0
LINE
  5
108
  8
חשמל
 10
72.8750
 20
189.2188
 30
0.0000
 11
72.8750
 21
184.7188
 31
0.0000
  0
LINE
  5
109
  8
חשמל
 10
75.1250
 20
184.7188
 30
0.0000
 11
75.1250
 21
186.7888
 31
0.0000
  0
LINE
  5
10A
  8
חשמל
 10
73.6850
 20
186.7888
 30
0.0000
 11
73.6941
 21
186.9500
 31
0.0000
  0
LINE
  5
10B
  8
חשמל
 10
73.6941
 20
186.9500
 30
0.0000
 11
73.7211
 21
187.1092
 31
0.0000
  0
LINE
  5
10C
  8
חשמל
 10
73.7211
 20
187.1092
 30
0.0000
 11
73.7658
 21
187.2644
 31
0.0000
  0
LINE
  5
10D
  8
חשמל
 10
73.7658
 20
187.2644
 30
0.0000
 11
73.8276
 21
187.4135
 31
0.0000
  0
LINE
  5
10E
  8
חשמל
 10
73.8276
 20
187.4135
 30
0.0000
 11
73.9057
 21
187.5549
 31
0.0000
  0
LINE
  5
10F
  8
חשמל
 10
73.9057
 20
187.5549
 30
0.0000
 11
73.9992
 21
187.6866
 31
0.0000
  0
LINE
  5
110
  8
חשמל
 10
73.9992
 20
187.6866
 30
0.0000
 11
74.1068
 21
187.8070
 31
0.0000
  0
LINE
  5
111
  8
חשמל
 10
74.1068
 20
187.8070
 30
0.0000
 11
74.2272
 21
187.9146
 31
0.0000
  0
LINE
  5
112
  8
חשמל
 10
74.2272
 20
187.9146
 30
0.0000
 11
74.3589
 21
188.0080
 31
0.0000
  0
LINE
  5
113
  8
חשמל
 10
74.3589
 20
188.0080
 30
0.0000
 11
74.5002
 21
188.0861
 31
0.0000
  0
LINE
  5
114
  8
חשמל
 10
74.5002
 20
188.0861
 30
0.0000
 11
74.6494
 21
188.1479
 31
0.0000
  0
LINE
  5
115
  8
חשמל
 10
74.6494
 20
188.1479
 30
0.0000
 11
74.8046
 21
188.1926
 31
0.0000
  0
LINE
  5
116
  8
חשמל
 10
74.8046
 20
188.1926
 30
0.0000
 11
74.9638
 21
188.2197
 31
0.0000
  0
LINE
  5
117
  8
חשמל
 10
74.9638
 20
188.2197
 30
0.0000
 11
75.1250
 21
188.2288
 31
0.0000
  0
LINE
  5
118
  8
חשמל
 10
75.1250
 20
188.2288
 30
0.0000
 11
75.2862
 21
188.2197
 31
0.0000
  0
LINE
  5
119
  8
חשמל
 10
75.2862
 20
188.2197
 30
0.0000
 11
75.4454
 21
188.1926
 31
0.0000
  0
LINE
  5
11A
  8
חשמל
 10
75.4454
 20
188.1926
 30
0.0000
 11
75.6006
 21
188.1479
 31
0.0000
  0
LINE
  5
11B
  8
חשמל
 10
75.6006
 20
188.1479
 30
0.0000
 11
75.7498
 21
188.0861
 31
0.0000
  0
LINE
  5
11C
  8
חשמל
 10
75.7498
 20
188.0861
 30
0.0000
 11
75.8911
 21
188.0080
 31
0.0000
  0
LINE
  5
11D
  8
חשמל
 10
75.8911
 20
188.0080
 30
0.0000
 11
76.0228
 21
187.9146
 31
0.0000
  0
LINE
  5
11E
  8
חשמל
 10
76.0228
 20
187.9146
 30
0.0000
 11
76.1432
 21
187.8070
 31
0.0000
  0
LINE
  5
11F
  8
חשמל
 10
76.1432
 20
187.8070
 30
0.0000
 11
76.2508
 21
187.6866
 31
0.0000
  0
LINE
  5
120
  8
חשמל
 10
76.2508
 20
187.6866
 30
0.0000
 11
76.3443
 21
187.5549
 31
0.0000
  0
LINE
  5
121
  8
חשמל
 10
76.3443
 20
187.5549
 30
0.0000
 11
76.4224
 21
187.4135
 31
0.0000
  0
LINE
  5
122
  8
חשמל
 10
76.4224
 20
187.4135
 30
0.0000
 11
76.4842
 21
187.2644
 31
0.0000
  0
LINE
  5
123
  8
חשמל
 10
76.4842
 20
187.2644
 30
0.0000
 11
76.5289
 21
187.1092
 31
0.0000
  0
LINE
  5
124
  8
חשמל
 10
76.5289
 20
187.1092
 30
0.0000
 11
76.5559
 21
186.9500
 31
0.0000
  0
LINE
  5
125
  8
חשמל
 10
76.5559
 20
186.9500
 30
0.0000
 11
76.5650
 21
186.7888
 31
0.0000
  0
LINE
  5
126
  8
חשמל
 10
73.6850
 20
186.7888
 30
0.0000
 11
76.5650
 21
186.7888
 31
0.0000
  0
LINE
  5
127
  8
חשמל
 10
107.8750
 20
184.7188
 30
0.0000
 11
115.8750
 21
184.7188
 31
0.0000
  0
LINE
  5
128
  8
חשמל
 10
115.8750
 20
184.7188
 30
0.0000
 11
115.8750
 21
189.2188
 31
0.0000
  0
LINE
  5
129
  8
חשמל
 10
115.8750
 20
189.2188
 30
0.0000
 11
107.8750
 21
189.2188
 31
0.0000
  0
LINE
  5
12A
  8
חשמל
 10
107.8750
 20
189.2188
 30
0.0000
 11
107.8750
 21
184.7188
 31
0.0000
  0
LINE
  5
12B
  8
חשמל
 10
111.8750
 20
184.7188
 30
0.0000
 11
111.8750
 21
186.7888
 31
0.0000
  0
LINE
  5
12C
  8
חשמל
 10
107.9198
 20
186.7888
 30
0.0000
 11
107.9319
 21
186.9097
 31
0.0000
  0
LINE
  5
12D
  8
חשמל
 10
107.9319
 20
186.9097
 30
0.0000
 11
107.9679
 21
187.0291
 31
0.0000
  0
LINE
  5
12E
  8
חשמל
 10
107.9679
 20
187.0291
 30
0.0000
 11
108.0275
 21
187.1455
 31
0.0000
  0
LINE
  5
12F
  8
חשמל
 10
108.0275
 20
187.1455
 30
0.0000
 11
108.1099
 21
187.2573
 31
0.0000
  0
LINE
  5
130
  8
חשמל
 10
108.1099
 20
187.2573
 30
0.0000
 11
108.2141
 21
187.3633
 31
0.0000
  0
LINE
  5
131
  8
חשמל
 10
108.2141
 20
187.3633
 30
0.0000
 11
108.3387
 21
187.4621
 31
0.0000
  0
LINE
  5
132
  8
חשמל
 10
108.3387
 20
187.4621
 30
0.0000
 11
108.4822
 21
187.5524
 31
0.0000
  0
LINE
  5
133
  8
חשמל
 10
108.4822
 20
187.5524
 30
0.0000
 11
108.6427
 21
187.6331
 31
0.0000
  0
LINE
  5
134
  8
חשמל
 10
108.6427
 20
187.6331
 30
0.0000
 11
108.8183
 21
187.7032
 31
0.0000
  0
LINE
  5
135
  8
חשמל
 10
108.8183
 20
187.7032
 30
0.0000
 11
109.0067
 21
187.7618
 31
0.0000
  0
LINE
  5
136
  8
חשמל
 10
109.0067
 20
187.7618
 30
0.0000
 11
109.2057
 21
187.8081
 31
0.0000
  0
LINE
  5
137
  8
חשמל
 10
109.2057
 20
187.8081
 30
0.0000
 11
109.4126
 21
187.8417
 31
0.0000
  0
LINE
  5
138
  8
חשמל
 10
109.4126
 20
187.8417
 30
0.0000
 11
109.6248
 21
187.8620
 31
0.0000
  0
LINE
  5
139
  8
חשמל
 10
109.6248
 20
187.8620
 30
0.0000
 11
109.8398
 21
187.8688
 31
0.0000
  0
LINE
  5
13A
  8
חשמל
 10
109.8398
 20
187.8688
 30
0.0000
 11
110.0548
 21
187.8620
 31
0.0000
  0
LINE
  5
13B
  8
חשמל
 10
110.0548
 20
187.8620
 30
0.0000
 11
110.2670
 21
187.8417
 31
0.0000
  0
LINE
  5
13C
  8
חשמל
 10
110.2670
 20
187.8417
 30
0.0000
 11
110.4739
 21
187.8081
 31
0.0000
  0
LINE
  5
13D
  8
חשמל
 10
110.4739
 20
187.8081
 30
0.0000
 11
110.6729
 21
187.7618
 31
0.0000
  0
LINE
  5
13E
  8
חשמל
 10
110.6729
 20
187.7618
 30
0.0000
 11
110.8613
 21
187.7032
 31
0.0000
  0
LINE
  5
13F
  8
חשמל
 10
110.8613
 20
187.7032
 30
0.0000
 11
111.0369
 21
187.6331
 31
0.0000
  0
LINE
  5
140
  8
חשמל
 10
111.0369
 20
187.6331
 30
0.0000
 11
111.1974
 21
187.5524
 31
0.0000
  0
LINE
  5
141
  8
חשמל
 10
111.1974
 20
187.5524
 30
0.0000
 11
111.3409
 21
187.4621
 31
0.0000
  0
LINE
  5
142
  8
חשמל
 10
111.3409
 20
187.4621
 30
0.0000
 11
111.4655
 21
187.3633
 31
0.0000
  0
LINE
  5
143
  8
חשמל
 10
111.4655
 20
187.3633
 30
0.0000
 11
111.5697
 21
187.2573
 31
0.0000
  0
LINE
  5
144
  8
חשמל
 10
111.5697
 20
187.2573
 30
0.0000
 11
111.6521
 21
187.1455
 31
0.0000
  0
LINE
  5
145
  8
חשמל
 10
111.6521
 20
187.1455
 30
0.0000
 11
111.7117
 21
187.0291
 31
0.0000
  0
LINE
  5
146
  8
חשמל
 10
111.7117
 20
187.0291
 30
0.0000
 11
111.7477
 21
186.9097
 31
0.0000
  0
LINE
  5
147
  8
חשמל
 10
111.7477
 20
186.9097
 30
0.0000
 11
111.7598
 21
186.7888
 31
0.0000
  0
LINE
  5
148
  8
חשמל
 10
107.9198
 20
186.7888
 30
0.0000
 11
111.7598
 21
186.7888
 31
0.0000
  0
LINE
  5
149
  8
חשמל
 10
111.9902
 20
186.7888
 30
0.0000
 11
112.0023
 21
186.9097
 31
0.0000
  0
LINE
  5
14A
  8
חשמל
 10
112.0023
 20
186.9097
 30
0.0000
 11
112.0383
 21
187.0291
 31
0.0000
  0
LINE
  5
14B
  8
חשמל
 10
112.0383
 20
187.0291
 30
0.0000
 11
112.0979
 21
187.1455
 31
0.0000
  0
LINE
  5
14C
  8
חשמל
 10
112.0979
 20
187.1455
 30
0.0000
 11
112.1803
 21
187.2573
 31
0.0000
  0
LINE
  5
14D
  8
חשמל
 10
112.1803
 20
187.2573
 30
0.0000
 11
112.2845
 21
187.3633
 31
0.0000
  0
LINE
  5
14E
  8
חשמל
 10
112.2845
 20
187.3633
 30
0.0000
 11
112.4091
 21
187.4621
 31
0.0000
  0
LINE
  5
14F
  8
חשמל
 10
112.4091
 20
187.4621
 30
0.0000
 11
112.5526
 21
187.5524
 31
0.0000
  0
LINE
  5
150
  8
חשמל
 10
112.5526
 20
187.5524
 30
0.0000
 11
112.7131
 21
187.6331
 31
0.0000
  0
LINE
  5
151
  8
חשמל
 10
112.7131
 20
187.6331
 30
0.0000
 11
112.8887
 21
187.7032
 31
0.0000
  0
LINE
  5
152
  8
חשמל
 10
112.8887
 20
187.7032
 30
0.0000
 11
113.0771
 21
187.7618
 31
0.0000
  0
LINE
  5
153
  8
חשמל
 10
113.0771
 20
187.7618
 30
0.0000
 11
113.2761
 21
187.8081
 31
0.0000
  0
LINE
  5
154
  8
חשמל
 10
113.2761
 20
187.8081
 30
0.0000
 11
113.4830
 21
187.8417
 31
0.0000
  0
LINE
  5
155
  8
חשמל
 10
113.4830
 20
187.8417
 30
0.0000
 11
113.6952
 21
187.8620
 31
0.0000
  0
LINE
  5
156
  8
חשמל
 10
113.6952
 20
187.8620
 30
0.0000
 11
113.9102
 21
187.8688
 31
0.0000
  0
LINE
  5
157
  8
חשמל
 10
113.9102
 20
187.8688
 30
0.0000
 11
114.1252
 21
187.8620
 31
0.0000
  0
LINE
  5
158
  8
חשמל
 10
114.1252
 20
187.8620
 30
0.0000
 11
114.3374
 21
187.8417
 31
0.0000
  0
LINE
  5
159
  8
חשמל
 10
114.3374
 20
187.8417
 30
0.0000
 11
114.5443
 21
187.8081
 31
0.0000
  0
LINE
  5
15A
  8
חשמל
 10
114.5443
 20
187.8081
 30
0.0000
 11
114.7433
 21
187.7618
 31
0.0000
  0
LINE
  5
15B
  8
חשמל
 10
114.7433
 20
187.7618
 30
0.0000
 11
114.9317
 21
187.7032
 31
0.0000
  0
LINE
  5
15C
  8
חשמל
 10
114.9317
 20
187.7032
 30
0.0000
 11
115.1073
 21
187.6331
 31
0.0000
  0
LINE
  5
15D
  8
חשמל
 10
115.1073
 20
187.6331
 30
0.0000
 11
115.2678
 21
187.5524
 31
0.0000
  0
LINE
  5
15E
  8
חשמל
 10
115.2678
 20
187.5524
 30
0.0000
 11
115.4113
 21
187.4621
 31
0.0000
  0
LINE
  5
15F
  8
חשמל
 10
115.4113
 20
187.4621
 30
0.0000
 11
115.5359
 21
187.3633
 31
0.0000
  0
LINE
  5
160
  8
חשמל
 10
115.5359
 20
187.3633
 30
0.0000
 11
115.6401
 21
187.2573
 31
0.0000
  0
LINE
  5
161
  8
חשמל
 10
115.6401
 20
187.2573
 30
0.0000
 11
115.7225
 21
187.1455
 31
0.0000
  0
LINE
  5
162
  8
חשמל
 10
115.7225
 20
187.1455
 30
0.0000
 11
115.7821
 21
187.0291
 31
0.0000
  0
LINE
  5
163
  8
חשמל
 10
115.7821
 20
187.0291
 30
0.0000
 11
115.8181
 21
186.9097
 31
0.0000
  0
LINE
  5
164
  8
חשמל
 10
115.8181
 20
186.9097
 30
0.0000
 11
115.8302
 21
186.7888
 31
0.0000
  0
LINE
  5
165
  8
חשמל
 10
111.9902
 20
186.7888
 30
0.0000
 11
115.8302
 21
186.7888
 31
0.0000
  0
LINE
  5
166
  8
חשמל
 10
142.8750
 20
185.7188
 30
0.0000
 11
147.3750
 21
185.7188
 31
0.0000
  0
LINE
  5
167
  8
חשמל
 10
147.3750
 20
185.7188
 30
0.0000
 11
147.3750
 21
190.2188
 31
0.0000
  0
LINE
  5
168
  8
חשמל
 10
147.3750
 20
190.2188
 30
0.0000
 11
142.8750
 21
190.2188
 31
0.0000
  0
LINE
  5
169
  8
חשמל
 10
142.8750
 20
190.2188
 30
0.0000
 11
142.8750
 21
185.7188
 31
0.0000
  0
LINE
  5
16A
  8
חשמל
 10
145.1250
 20
185.7188
 30
0.0000
 11
145.1250
 21
187.0688
 31
0.0000
  0
ARC
  5
16B
  8
חשמל
 10
145.1250
 20
187.0688
 30
0.0000
 40
0.2250
 50
0.0000
 51
360.0000
  0
LINE
  5
16C
  8
חשמל
 10
145.1250
 20
187.0688
 30
0.0000
 11
146.3123
 21
188.7644
 31
0.0000
  0
LINE
  5
16D
  8
חשמל
 10
177.8750
 20
187.4688
 30
0.0000
 11
180.8750
 21
187.4688
 31
0.0000
  0
LINE
  5
16E
  8
חשמל
 10
180.8750
 20
187.4688
 30
0.0000
 11
180.8750
 21
190.4688
 31
0.0000
  0
LINE
  5
16F
  8
חשמל
 10
180.8750
 20
190.4688
 30
0.0000
 11
177.8750
 21
190.4688
 31
0.0000
  0
LINE
  5
170
  8
חשמל
 10
177.8750
 20
190.4688
 30
0.0000
 11
177.8750
 21
187.4688
 31
0.0000
  0
LINE
  5
171
  8
חשמל
 10
179.3750
 20
187.4688
 30
0.0000
 11
179.3750
 21
189.8088
 31
0.0000
  0
ARC
  5
172
  8
חשמל
 10
179.3750
 20
188.9088
 30
0.0000
 40
0.9600
 50
0.0000
 51
360.0000
  0
LINE
  5
173
  8
חשמל
 10
179.3750
 20
188.9088
 30
0.0000
 11
178.7150
 21
189.5688
 31
0.0000
  0
LINE
  5
174
  8
חשמל
 10
179.3750
 20
188.9088
 30
0.0000
 11
180.0350
 21
189.5688
 31
0.0000
  0
LINE
  5
175
  8
חשמל
 10
179.3750
 20
188.9088
 30
0.0000
 11
178.7150
 21
188.2488
 31
0.0000
  0
LINE
  5
176
  8
חשמל
 10
179.3750
 20
188.9088
 30
0.0000
 11
180.0350
 21
188.2488
 31
0.0000
  0
LINE
  5
177
  8
חשמל
 10
212.8750
 20
184.4688
 30
0.0000
 11
215.8750
 21
184.4688
 31
0.0000
  0
LINE
  5
178
  8
חשמל
 10
215.8750
 20
184.4688
 30
0.0000
 11
215.8750
 21
187.4688
 31
0.0000
  0
LINE
  5
179
  8
חשמל
 10
215.8750
 20
187.4688
 30
0.0000
 11
212.8750
 21
187.4688
 31
0.0000
  0
LINE
  5
17A
  8
חשמל
 10
212.8750
 20
187.4688
 30
0.0000
 11
212.8750
 21
184.4688
 31
0.0000
  0
LINE
  5
17B
  8
חשמל
 10
214.3750
 20
184.4688
 30
0.0000
 11
214.3750
 21
186.8088
 31
0.0000
  0
ARC
  5
17C
  8
חשמל
 10
214.3750
 20
185.9088
 30
0.0000
 40
0.9600
 50
0.0000
 51
360.0000
  0
LINE
  5
17D
  8
חשמל
 10
214.3750
 20
185.9088
 30
0.0000
 11
213.7150
 21
186.5688
 31
0.0000
  0
LINE
  5
17E
  8
חשמל
 10
214.3750
 20
185.9088
 30
0.0000
 11
215.0350
 21
186.5688
 31
0.0000
  0
LINE
  5
17F
  8
חשמל
 10
214.3750
 20
185.9088
 30
0.0000
 11
213.7150
 21
185.2488
 31
0.0000
  0
LINE
  5
180
  8
חשמל
 10
214.3750
 20
185.9088
 30
0.0000
 11
215.0350
 21
185.2488
 31
0.0000
  0
LINE
  5
181
  8
מידות-פנים
 10
57.8750
 20
179.4688
 30
0.0000
 11
57.8750
 21
158.5438
 31
0.0000
  0
LINE
  5
182
  8
מידות-פנים
 10
75.1250
 20
179.4688
 30
0.0000
 11
75.1250
 21
158.5438
 31
0.0000
  0
LINE
  5
183
  8
מידות-פנים
 10
57.8750
 20
161.4688
 30
0.0000
 11
75.1250
 21
161.4688
 31
0.0000
  0
SOLID
  5
184
  8
מידות-פנים
 10
57.8750
 20
161.4688
 30
0.0000
 11
52.2688
 21
159.9088
 31
0.0000
 12
52.2688
 22
163.0288
 32
0.0000
 13
52.2688
 23
163.0288
 33
0.0000
  0
SOLID
  5
185
  8
מידות-פנים
 10
75.1250
 20
161.4688
 30
0.0000
 11
80.7313
 21
159.9088
 31
0.0000
 12
80.7313
 22
163.0288
 32
0.0000
 13
80.7313
 23
163.0288
 33
0.0000
  0
TEXT
  5
186
  8
מידות-פנים
 10
66.5000
 20
156.8375
 30
0.0000
 40
4.8750
  1
34.5
 50
0.0000
  7
SOLINE
 72
1
 73
2
 11
66.5000
 21
156.8375
 31
0.0000
  0
LINE
  5
187
  8
מידות-פנים
 10
75.1250
 20
179.4688
 30
0.0000
 11
75.1250
 21
158.5438
 31
0.0000
  0
LINE
  5
188
  8
מידות-פנים
 10
111.8750
 20
179.4688
 30
0.0000
 11
111.8750
 21
158.5438
 31
0.0000
  0
LINE
  5
189
  8
מידות-פנים
 10
75.1250
 20
161.4688
 30
0.0000
 11
111.8750
 21
161.4688
 31
0.0000
  0
SOLID
  5
18A
  8
מידות-פנים
 10
75.1250
 20
161.4688
 30
0.0000
 11
69.5188
 21
159.9088
 31
0.0000
 12
69.5188
 22
163.0288
 32
0.0000
 13
69.5188
 23
163.0288
 33
0.0000
  0
SOLID
  5
18B
  8
מידות-פנים
 10
111.8750
 20
161.4688
 30
0.0000
 11
117.4813
 21
159.9088
 31
0.0000
 12
117.4813
 22
163.0288
 32
0.0000
 13
117.4813
 23
163.0288
 33
0.0000
  0
TEXT
  5
18C
  8
מידות-פנים
 10
93.5000
 20
156.8375
 30
0.0000
 40
4.8750
  1
73.5
 50
0.0000
  7
SOLINE
 72
1
 73
2
 11
93.5000
 21
156.8375
 31
0.0000
  0
LINE
  5
18D
  8
מידות-פנים
 10
111.8750
 20
179.4688
 30
0.0000
 11
111.8750
 21
158.5438
 31
0.0000
  0
LINE
  5
18E
  8
מידות-פנים
 10
145.1250
 20
179.4688
 30
0.0000
 11
145.1250
 21
158.5438
 31
0.0000
  0
LINE
  5
18F
  8
מידות-פנים
 10
111.8750
 20
161.4688
 30
0.0000
 11
145.1250
 21
161.4688
 31
0.0000
  0
SOLID
  5
190
  8
מידות-פנים
 10
111.8750
 20
161.4688
 30
0.0000
 11
106.2688
 21
159.9088
 31
0.0000
 12
106.2688
 22
163.0288
 32
0.0000
 13
106.2688
 23
163.0288
 33
0.0000
  0
SOLID
  5
191
  8
מידות-פנים
 10
145.1250
 20
161.4688
 30
0.0000
 11
150.7313
 21
159.9088
 31
0.0000
 12
150.7313
 22
163.0288
 32
0.0000
 13
150.7313
 23
163.0288
 33
0.0000
  0
TEXT
  5
192
  8
מידות-פנים
 10
128.5000
 20
156.8375
 30
0.0000
 40
4.8750
  1
66.5
 50
0.0000
  7
SOLINE
 72
1
 73
2
 11
128.5000
 21
156.8375
 31
0.0000
  0
LINE
  5
193
  8
מידות-פנים
 10
145.1250
 20
179.4688
 30
0.0000
 11
145.1250
 21
158.5438
 31
0.0000
  0
LINE
  5
194
  8
מידות-פנים
 10
179.3750
 20
179.4688
 30
0.0000
 11
179.3750
 21
158.5438
 31
0.0000
  0
LINE
  5
195
  8
מידות-פנים
 10
145.1250
 20
161.4688
 30
0.0000
 11
179.3750
 21
161.4688
 31
0.0000
  0
SOLID
  5
196
  8
מידות-פנים
 10
145.1250
 20
161.4688
 30
0.0000
 11
139.5188
 21
159.9088
 31
0.0000
 12
139.5188
 22
163.0288
 32
0.0000
 13
139.5188
 23
163.0288
 33
0.0000
  0
SOLID
  5
197
  8
מידות-פנים
 10
179.3750
 20
161.4688
 30
0.0000
 11
184.9813
 21
159.9088
 31
0.0000
 12
184.9813
 22
163.0288
 32
0.0000
 13
184.9813
 23
163.0288
 33
0.0000
  0
TEXT
  5
198
  8
מידות-פנים
 10
162.2500
 20
156.8375
 30
0.0000
 40
4.8750
  1
68.5
 50
0.0000
  7
SOLINE
 72
1
 73
2
 11
162.2500
 21
156.8375
 31
0.0000
  0
LINE
  5
199
  8
מידות-פנים
 10
179.3750
 20
179.4688
 30
0.0000
 11
179.3750
 21
158.5438
 31
0.0000
  0
LINE
  5
19A
  8
מידות-פנים
 10
214.3750
 20
179.4688
 30
0.0000
 11
214.3750
 21
158.5438
 31
0.0000
  0
LINE
  5
19B
  8
מידות-פנים
 10
179.3750
 20
161.4688
 30
0.0000
 11
214.3750
 21
161.4688
 31
0.0000
  0
SOLID
  5
19C
  8
מידות-פנים
 10
179.3750
 20
161.4688
 30
0.0000
 11
173.7688
 21
159.9088
 31
0.0000
 12
173.7688
 22
163.0288
 32
0.0000
 13
173.7688
 23
163.0288
 33
0.0000
  0
SOLID
  5
19D
  8
מידות-פנים
 10
214.3750
 20
161.4688
 30
0.0000
 11
219.9813
 21
159.9088
 31
0.0000
 12
219.9813
 22
163.0288
 32
0.0000
 13
219.9813
 23
163.0288
 33
0.0000
  0
TEXT
  5
19E
  8
מידות-פנים
 10
196.8750
 20
156.8375
 30
0.0000
 40
4.8750
  1
70
 50
0.0000
  7
SOLINE
 72
1
 73
2
 11
196.8750
 21
156.8375
 31
0.0000
  0
LINE
  5
19F
  8
מידות-פנים
 10
214.3750
 20
179.4688
 30
0.0000
 11
214.3750
 21
158.5438
 31
0.0000
  0
LINE
  5
1A0
  8
מידות-פנים
 10
257.8750
 20
179.4688
 30
0.0000
 11
257.8750
 21
158.5438
 31
0.0000
  0
LINE
  5
1A1
  8
מידות-פנים
 10
214.3750
 20
161.4688
 30
0.0000
 11
257.8750
 21
161.4688
 31
0.0000
  0
SOLID
  5
1A2
  8
מידות-פנים
 10
214.3750
 20
161.4688
 30
0.0000
 11
208.7688
 21
159.9088
 31
0.0000
 12
208.7688
 22
163.0288
 32
0.0000
 13
208.7688
 23
163.0288
 33
0.0000
  0
SOLID
  5
1A3
  8
מידות-פנים
 10
257.8750
 20
161.4688
 30
0.0000
 11
263.4813
 21
159.9088
 31
0.0000
 12
263.4813
 22
163.0288
 32
0.0000
 13
263.4813
 23
163.0288
 33
0.0000
  0
TEXT
  5
1A4
  8
מידות-פנים
 10
236.1250
 20
156.8375
 30
0.0000
 40
4.8750
  1
87
 50
0.0000
  7
SOLINE
 72
1
 73
2
 11
236.1250
 21
156.8375
 31
0.0000
  0
LINE
  5
1A5
  8
מידות-פנים
 10
57.8750
 20
178.9688
 30
0.0000
 11
57.8750
 21
137.7188
 31
0.0000
  0
LINE
  5
1A6
  8
מידות-פנים
 10
257.8750
 20
178.9688
 30
0.0000
 11
257.8750
 21
137.7188
 31
0.0000
  0
LINE
  5
1A7
  8
מידות-פנים
 10
57.8750
 20
141.4688
 30
0.0000
 11
257.8750
 21
141.4688
 31
0.0000
  0
SOLID
  5
1A8
  8
מידות-פנים
 10
57.8750
 20
141.4688
 30
0.0000
 11
50.6875
 21
139.4688
 31
0.0000
 12
50.6875
 22
143.4688
 32
0.0000
 13
50.6875
 23
143.4688
 33
0.0000
  0
SOLID
  5
1A9
  8
מידות-פנים
 10
257.8750
 20
141.4688
 30
0.0000
 11
265.0625
 21
139.4688
 31
0.0000
 12
265.0625
 22
143.4688
 32
0.0000
 13
265.0625
 23
143.4688
 33
0.0000
  0
TEXT
  5
1AA
  8
מידות-פנים
 10
157.8750
 20
135.5313
 30
0.0000
 40
6.2500
  1
400
 50
0.0000
  7
SOLINE
 72
1
 73
2
 11
157.8750
 21
135.5313
 31
0.0000
  0
LINE
  5
1AB
  8
מידות-פנים
 10
35.3750
 20
181.4688
 30
0.0000
 11
34.1250
 21
181.4688
 31
0.0000
  0
LINE
  5
1AC
  8
מידות-פנים
 10
35.3750
 20
311.4688
 30
0.0000
 11
34.1250
 21
311.4688
 31
0.0000
  0
LINE
  5
1AD
  8
מידות-פנים
 10
37.8750
 20
181.4688
 30
0.0000
 11
37.8750
 21
311.4688
 31
0.0000
  0
SOLID
  5
1AE
  8
מידות-פנים
 10
37.8750
 20
181.4688
 30
0.0000
 11
35.8750
 21
174.2813
 31
0.0000
 12
39.8750
 22
174.2813
 32
0.0000
 13
39.8750
 23
174.2813
 33
0.0000
  0
SOLID
  5
1AF
  8
מידות-פנים
 10
37.8750
 20
311.4688
 30
0.0000
 11
35.8750
 21
318.6563
 31
0.0000
 12
39.8750
 22
318.6563
 32
0.0000
 13
39.8750
 23
318.6563
 33
0.0000
  0
TEXT
  5
1B0
  8
מידות-פנים
 10
31.9375
 20
246.4688
 30
0.0000
 40
6.2500
  1
260
 50
90.0000
  7
SOLINE
 72
1
 73
2
 11
31.9375
 21
246.4688
 31
0.0000
  0
ENDSEC
  0
EOF
