  0
SECTION
  2
HEADER
  9
$ACADVER
  1
AC1009
  9
$INSBASE
 10
0.0000
 20
0.0000
 30
0.0000
  9
$EXTMIN
 10
-5.0000
 20
-5.0000
 30
0.0000
  9
$EXTMAX
 10
215.0000
 20
302.0000
 30
0.0000
  9
$DWGCODEPAGE
  3
ansi_1255
  9
$CLAYER
  8
0
  9
$LTSCALE
 40
10.0000
  9
$LIMMIN
 10
0.0000
 20
0.0000
  9
$LIMMAX
 10
2000.0000
 20
200.0000
  0
ENDSEC
  0
SECTION
  2
TABLES
  0
TABLE
  2
VPORT
 70
1
  0
VPORT
  2
*ACTIVE
 70
0
 10
0.0000
 20
0.0000
 11
1.0000
 21
1.0000
 12
105.0000
 22
148.5000
 13
0.0000
 23
0.0000
 14
10.0000
 24
10.0000
 15
10.0000
 25
10.0000
 16
0.0000
 26
0.0000
 36
1.0000
 17
0.0000
 27
0.0000
 37
0.0000
 40
1000.0000
 41
1.6000
 42
50.0000
 43
0.0000
 44
0.0000
 50
0.0000
 51
0.0000
 71
0
 72
100
 73
1
 74
1
 75
0
 76
0
 77
0
 78
0
  0
ENDTAB
  0
TABLE
  2
LTYPE
 70
3
  0
LTYPE
  2
CONTINUOUS
 70
0
  3
Solid line
 72
65
 73
0
 40
0.0000
  0
LTYPE
  2
HIDDEN
 70
0
  3
Hidden __ __ __ __ __ __
 72
65
 73
2
 40
9.5250
 49
6.3500
 49
-3.1750
  0
LTYPE
  2
CENTER
 70
0
  3
Center ____ _ ____ _ ____
 72
65
 73
4
 40
50.8000
 49
31.7500
 49
-6.3500
 49
6.3500
 49
-6.3500
  0
ENDTAB
  0
TABLE
  2
LAYER
 70
71
  0
LAYER
  2
0
 70
0
 62
7
  6
CONTINUOUS
  0
LAYER
  2
קירות
 70
0
 62
7
  6
CONTINUOUS
  0
LAYER
  2
קירות-מילוי
 70
0
 62
8
  6
CONTINUOUS
  0
LAYER
  2
קירות-מידות
 70
0
 62
7
  6
CONTINUOUS
  0
LAYER
  2
קירות-טקסט
 70
0
 62
7
  6
CONTINUOUS
  0
LAYER
  2
קירות-נסתר
 70
0
 62
7
  6
HIDDEN
  0
LAYER
  2
קירות-ציר
 70
0
 62
7
  6
CENTER
  0
LAYER
  2
מבנה
 70
0
 62
9
  6
CONTINUOUS
  0
LAYER
  2
מבנה-מילוי
 70
0
 62
9
  6
CONTINUOUS
  0
LAYER
  2
מבנה-מידות
 70
0
 62
9
  6
CONTINUOUS
  0
LAYER
  2
מבנה-טקסט
 70
0
 62
9
  6
CONTINUOUS
  0
LAYER
  2
מבנה-נסתר
 70
0
 62
9
  6
HIDDEN
  0
LAYER
  2
מבנה-ציר
 70
0
 62
9
  6
CENTER
  0
LAYER
  2
חשמל
 70
0
 62
6
  6
CONTINUOUS
  0
LAYER
  2
חשמל-מידות
 70
0
 62
6
  6
CONTINUOUS
  0
LAYER
  2
חשמל-טקסט
 70
0
 62
6
  6
CONTINUOUS
  0
LAYER
  2
חשמל-נסתר
 70
0
 62
6
  6
HIDDEN
  0
LAYER
  2
תאורה
 70
0
 62
30
  6
CONTINUOUS
  0
LAYER
  2
תאורה-מידות
 70
0
 62
30
  6
CONTINUOUS
  0
LAYER
  2
תאורה-טקסט
 70
0
 62
30
  6
CONTINUOUS
  0
LAYER
  2
תאורה-נסתר
 70
0
 62
30
  6
HIDDEN
  0
LAYER
  2
מים
 70
0
 62
4
  6
CONTINUOUS
  0
LAYER
  2
מים-מידות
 70
0
 62
4
  6
CONTINUOUS
  0
LAYER
  2
מים-טקסט
 70
0
 62
4
  6
CONTINUOUS
  0
LAYER
  2
מים-נסתר
 70
0
 62
4
  6
HIDDEN
  0
LAYER
  2
מים-ציר
 70
0
 62
4
  6
CENTER
  0
LAYER
  2
ניקוז
 70
0
 62
140
  6
CONTINUOUS
  0
LAYER
  2
ניקוז-מידות
 70
0
 62
140
  6
CONTINUOUS
  0
LAYER
  2
ניקוז-טקסט
 70
0
 62
140
  6
CONTINUOUS
  0
LAYER
  2
ניקוז-נסתר
 70
0
 62
140
  6
HIDDEN
  0
LAYER
  2
ניקוז-ציר
 70
0
 62
140
  6
CENTER
  0
LAYER
  2
גז
 70
0
 62
2
  6
CONTINUOUS
  0
LAYER
  2
גז-מידות
 70
0
 62
2
  6
CONTINUOUS
  0
LAYER
  2
גז-טקסט
 70
0
 62
2
  6
CONTINUOUS
  0
LAYER
  2
גז-נסתר
 70
0
 62
2
  6
HIDDEN
  0
LAYER
  2
גז-ציר
 70
0
 62
2
  6
CENTER
  0
LAYER
  2
מיזוג
 70
0
 62
141
  6
CONTINUOUS
  0
LAYER
  2
מיזוג-מידות
 70
0
 62
141
  6
CONTINUOUS
  0
LAYER
  2
מיזוג-טקסט
 70
0
 62
141
  6
CONTINUOUS
  0
LAYER
  2
מיזוג-נסתר
 70
0
 62
141
  6
HIDDEN
  0
LAYER
  2
אוורור
 70
0
 62
131
  6
CONTINUOUS
  0
LAYER
  2
אוורור-מידות
 70
0
 62
131
  6
CONTINUOUS
  0
LAYER
  2
אוורור-טקסט
 70
0
 62
131
  6
CONTINUOUS
  0
LAYER
  2
אוורור-נסתר
 70
0
 62
131
  6
HIDDEN
  0
LAYER
  2
דלתות
 70
0
 62
5
  6
CONTINUOUS
  0
LAYER
  2
דלתות-מידות
 70
0
 62
5
  6
CONTINUOUS
  0
LAYER
  2
דלתות-טקסט
 70
0
 62
5
  6
CONTINUOUS
  0
LAYER
  2
דלתות-נסתר
 70
0
 62
5
  6
HIDDEN
  0
LAYER
  2
דלתות-מילוי
 70
0
 62
5
  6
CONTINUOUS
  0
LAYER
  2
חלונות
 70
0
 62
151
  6
CONTINUOUS
  0
LAYER
  2
חלונות-מידות
 70
0
 62
151
  6
CONTINUOUS
  0
LAYER
  2
חלונות-טקסט
 70
0
 62
151
  6
CONTINUOUS
  0
LAYER
  2
חלונות-נסתר
 70
0
 62
151
  6
HIDDEN
  0
LAYER
  2
ריהוט
 70
0
 62
42
  6
CONTINUOUS
  0
LAYER
  2
ריהוט-מידות
 70
0
 62
42
  6
CONTINUOUS
  0
LAYER
  2
ריהוט-טקסט
 70
0
 62
42
  6
CONTINUOUS
  0
LAYER
  2
ריהוט-נסתר
 70
0
 62
42
  6
HIDDEN
  0
LAYER
  2
מטבח
 70
0
 62
52
  6
CONTINUOUS
  0
LAYER
  2
מטבח-מידות
 70
0
 62
52
  6
CONTINUOUS
  0
LAYER
  2
מטבח-טקסט
 70
0
 62
52
  6
CONTINUOUS
  0
LAYER
  2
מטבח-נסתר
 70
0
 62
52
  6
HIDDEN
  0
LAYER
  2
ריצוף
 70
0
 62
251
  6
CONTINUOUS
  0
LAYER
  2
ריצוף-מילוי
 70
0
 62
8
  6
CONTINUOUS
  0
LAYER
  2
מידות-פנים
 70
0
 62
3
  6
CONTINUOUS
  0
LAYER
  2
מידות-חוץ
 70
0
 62
1
  6
CONTINUOUS
  0
LAYER
  2
מסגרת
 70
0
 62
250
  6
CONTINUOUS
  0
LAYER
  2
גבול-גיליון
 70
0
 62
255
  6
CONTINUOUS
  0
LAYER
  2
מקרא
 70
0
 62
150
  6
CONTINUOUS
  0
LAYER
  2
רשת-צירים
 70
0
 62
8
  6
CENTER
  0
LAYER
  2
הערות
 70
0
 62
150
  6
CONTINUOUS
  0
LAYER
  2
מהדורות
 70
0
 62
1
  6
CONTINUOUS
  0
ENDTAB
  0
TABLE
  2
STYLE
 70
2
  0
STYLE
  2
SOLINE
 70
0
 40
0.0000
 41
1.0000
 50
0.0000
 71
0
 42
2.5000
  3
arial.ttf
  4

  0
STYLE
  2
Standard
 70
0
 40
0.0000
 41
1.0000
 50
0.0000
 71
0
 42
2.5000
  3
txt
  4

  0
ENDTAB
  0
ENDSEC
  0
SECTION
  2
BLOCKS
  0
ENDSEC
  0
SECTION
  2
ENTITIES
  0
LINE
  5
1B1
  8
גבול-גיליון
 10
0.0000
 20
0.0000
 30
0.0000
 11
210.0000
 21
0.0000
 31
0.0000
  0
LINE
  5
1B2
  8
גבול-גיליון
 10
210.0000
 20
0.0000
 30
0.0000
 11
210.0000
 21
297.0000
 31
0.0000
  0
LINE
  5
1B3
  8
גבול-גיליון
 10
210.0000
 20
297.0000
 30
0.0000
 11
0.0000
 21
297.0000
 31
0.0000
  0
LINE
  5
1B4
  8
גבול-גיליון
 10
0.0000
 20
297.0000
 30
0.0000
 11
0.0000
 21
0.0000
 31
0.0000
  0
LINE
  5
1B5
  8
מסגרת
 10
8.0000
 20
8.0000
 30
0.0000
 11
202.0000
 21
8.0000
 31
0.0000
  0
LINE
  5
1B6
  8
מסגרת
 10
202.0000
 20
8.0000
 30
0.0000
 11
202.0000
 21
289.0000
 31
0.0000
  0
LINE
  5
1B7
  8
מסגרת
 10
202.0000
 20
289.0000
 30
0.0000
 11
8.0000
 21
289.0000
 31
0.0000
  0
LINE
  5
1B8
  8
מסגרת
 10
8.0000
 20
289.0000
 30
0.0000
 11
8.0000
 21
8.0000
 31
0.0000
  0
LINE
  5
1B9
  8
גבול-גיליון
 10
8.0000
 20
8.0000
 30
0.0000
 11
202.0000
 21
8.0000
 31
0.0000
  0
LINE
  5
1BA
  8
גבול-גיליון
 10
202.0000
 20
8.0000
 30
0.0000
 11
202.0000
 21
36.0000
 31
0.0000
  0
LINE
  5
1BB
  8
גבול-גיליון
 10
202.0000
 20
36.0000
 30
0.0000
 11
8.0000
 21
36.0000
 31
0.0000
  0
LINE
  5
1BC
  8
גבול-גיליון
 10
8.0000
 20
36.0000
 30
0.0000
 11
8.0000
 21
8.0000
 31
0.0000
  0
LINE
  5
1BD
  8
מסגרת
 10
62.3200
 20
8.0000
 30
0.0000
 11
62.3200
 21
36.0000
 31
0.0000
  0
TEXT
  5
1BE
  8
מסגרת
 10
35.1600
 20
25.3600
 30
0.0000
 40
4.7500
  1
SOLINE
 50
0.0000
  7
SOLINE
 72
1
 73
2
 11
35.1600
 21
25.3600
 31
0.0000
  0
TEXT
  5
1BF
  8
מקרא
 10
35.1600
 20
15.2800
 30
0.0000
 40
2.2500
  1
W1
 50
0.0000
  7
SOLINE
 72
1
 73
2
 11
35.1600
 21
15.2800
 31
0.0000
  0
LINE
  5
1C0
  8
מסגרת
 10
108.8800
 20
8.0000
 30
0.0000
 11
108.8800
 21
36.0000
 31
0.0000
  0
LINE
  5
1C1
  8
מסגרת
 10
155.4400
 20
8.0000
 30
0.0000
 11
155.4400
 21
36.0000
 31
0.0000
  0
LINE
  5
1C2
  8
מסגרת
 10
62.3200
 20
22.0000
 30
0.0000
 11
202.0000
 21
22.0000
 31
0.0000
  0
TEXT
  5
1C3
  8
מקרא
 10
64.3200
 20
31.8000
 30
0.0000
 40
1.8000
  1
PROJECT
 50
0.0000
  7
SOLINE
 73
2
 11
64.3200
 21
31.8000
 31
0.0000
  0
TEXT
  5
1C4
  8
מסגרת
 10
64.3200
 20
25.6400
 30
0.0000
 40
2.6250
  1
allelem
 50
0.0000
  7
SOLINE
 73
2
 11
64.3200
 21
25.6400
 31
0.0000
  0
TEXT
  5
1C5
  8
מקרא
 10
110.8800
 20
31.8000
 30
0.0000
 40
1.8000
  1
SCALE
 50
0.0000
  7
SOLINE
 73
2
 11
110.8800
 21
31.8000
 31
0.0000
  0
TEXT
  5
1C6
  8
מסגרת
 10
110.8800
 20
25.6400
 30
0.0000
 40
2.6250
  1
1:25
 50
0.0000
  7
SOLINE
 73
2
 11
110.8800
 21
25.6400
 31
0.0000
  0
TEXT
  5
1C7
  8
מקרא
 10
157.4400
 20
31.8000
 30
0.0000
 40
1.8000
  1
PAPER
 50
0.0000
  7
SOLINE
 73
2
 11
157.4400
 21
31.8000
 31
0.0000
  0
TEXT
  5
1C8
  8
מסגרת
 10
157.4400
 20
25.6400
 30
0.0000
 40
2.6250
  1
A4 portrait
 50
0.0000
  7
SOLINE
 73
2
 11
157.4400
 21
25.6400
 31
0.0000
  0
TEXT
  5
1C9
  8
מקרא
 10
64.3200
 20
17.8000
 30
0.0000
 40
1.8000
  1
DATE
 50
0.0000
  7
SOLINE
 73
2
 11
64.3200
 21
17.8000
 31
0.0000
  0
TEXT
  5
1CA
  8
מסגרת
 10
64.3200
 20
11.6400
 30
0.0000
 40
2.6250
  1
2026-08-24
 50
0.0000
  7
SOLINE
 73
2
 11
64.3200
 21
11.6400
 31
0.0000
  0
TEXT
  5
1CB
  8
מקרא
 10
110.8800
 20
17.8000
 30
0.0000
 40
1.8000
  1
DRAWING No
 50
0.0000
  7
SOLINE
 73
2
 11
110.8800
 21
17.8000
 31
0.0000
  0
TEXT
  5
1CC
  8
מסגרת
 10
110.8800
 20
11.6400
 30
0.0000
 40
2.6250
  1
M-01
 50
0.0000
  7
SOLINE
 73
2
 11
110.8800
 21
11.6400
 31
0.0000
  0
TEXT
  5
1CD
  8
מקרא
 10
157.4400
 20
17.8000
 30
0.0000
 40
1.8000
  1
SHEET
 50
0.0000
  7
SOLINE
 73
2
 11
157.4400
 21
17.8000
 31
0.0000
  0
TEXT
  5
1CE
  8
מסגרת
 10
157.4400
 20
11.6400
 30
0.0000
 40
2.6250
  1
W1
 50
0.0000
  7
SOLINE
 73
2
 11
157.4400
 21
11.6400
 31
0.0000
  0
LINE
  5
100
  8
קירות
 10
32.5000
 20
125.8750
 30
0.0000
 11
192.5000
 21
125.8750
 31
0.0000
  0
LINE
  5
101
  8
קירות
 10
192.5000
 20
125.8750
 30
0.0000
 11
192.5000
 21
229.8750
 31
0.0000
  0
LINE
  5
102
  8
קירות
 10
192.5000
 20
229.8750
 30
0.0000
 11
32.5000
 21
229.8750
 31
0.0000
  0
LINE
  5
103
  8
קירות
 10
32.5000
 20
229.8750
 30
0.0000
 11
32.5000
 21
125.8750
 31
0.0000
  0
TEXT
  5
104
  8
קירות-טקסט
 10
112.5000
 20
241.8750
 30
0.0000
 40
7.0000
  1
W1
 50
0.0000
  7
SOLINE
 72
1
 73
1
 11
112.5000
 21
241.8750
 31
0.0000
  0
LINE
  5
105
  8
חשמל
 10
44.5000
 20
128.4750
 30
0.0000
 11
48.1000
 21
128.4750
 31
0.0000
  0
LINE
  5
106
  8
חשמל
 10
48.1000
 20
128.4750
 30
0.0000
 11
48.1000
 21
132.0750
 31
0.0000
  0
LINE
  5
107
  8
חשמל
 10
48.1000
 20
132.0750
 30
0.0000
 11
44.5000
 21
132.0750
 31
0.0000
  0
LINE
  5
108
  8
חשמל
 10
44.5000
 20
132.0750
 30
0.0000
 11
44.5000
 21
128.4750
 31
0.0000
  0
LINE
  5
109
  8
חשמל
 10
46.3000
 20
128.4750
 30
0.0000
 11
46.3000
 21
130.1310
 31
0.0000
  0
LINE
  5
10A
  8
חשמל
 10
45.1480
 20
130.1310
 30
0.0000
 11
45.1552
 21
130.2600
 31
0.0000
  0
LINE
  5
10B
  8
חשמל
 10
45.1552
 20
130.2600
 30
0.0000
 11
45.1769
 21
130.3873
 31
0.0000
  0
LINE
  5
10C
  8
חשמל
 10
45.1769
 20
130.3873
 30
0.0000
 11
45.2126
 21
130.5115
 31
0.0000
  0
LINE
  5
10D
  8
חשמל
 10
45.2126
 20
130.5115
 30
0.0000
 11
45.2621
 21
130.6308
 31
0.0000
  0
LINE
  5
10E
  8
חשמל
 10
45.2621
 20
130.6308
 30
0.0000
 11
45.3246
 21
130.7439
 31
0.0000
  0
LINE
  5
10F
  8
חשמל
 10
45.3246
 20
130.7439
 30
0.0000
 11
45.3993
 21
130.8493
 31
0.0000
  0
LINE
  5
110
  8
חשמל
 10
45.3993
 20
130.8493
 30
0.0000
 11
45.4854
 21
130.9456
 31
0.0000
  0
LINE
  5
111
  8
חשמל
 10
45.4854
 20
130.9456
 30
0.0000
 11
45.5817
 21
131.0317
 31
0.0000
  0
LINE
  5
112
  8
חשמל
 10
45.5817
 20
131.0317
 30
0.0000
 11
45.6871
 21
131.1064
 31
0.0000
  0
LINE
  5
113
  8
חשמל
 10
45.6871
 20
131.1064
 30
0.0000
 11
45.8002
 21
131.1689
 31
0.0000
  0
LINE
  5
114
  8
חשמל
 10
45.8002
 20
131.1689
 30
0.0000
 11
45.9195
 21
131.2184
 31
0.0000
  0
LINE
  5
115
  8
חשמל
 10
45.9195
 20
131.2184
 30
0.0000
 11
46.0437
 21
131.2541
 31
0.0000
  0
LINE
  5
116
  8
חשמל
 10
46.0437
 20
131.2541
 30
0.0000
 11
46.1710
 21
131.2758
 31
0.0000
  0
LINE
  5
117
  8
חשמל
 10
46.1710
 20
131.2758
 30
0.0000
 11
46.3000
 21
131.2830
 31
0.0000
  0
LINE
  5
118
  8
חשמל
 10
46.3000
 20
131.2830
 30
0.0000
 11
46.4290
 21
131.2758
 31
0.0000
  0
LINE
  5
119
  8
חשמל
 10
46.4290
 20
131.2758
 30
0.0000
 11
46.5563
 21
131.2541
 31
0.0000
  0
LINE
  5
11A
  8
חשמל
 10
46.5563
 20
131.2541
 30
0.0000
 11
46.6805
 21
131.2184
 31
0.0000
  0
LINE
  5
11B
  8
חשמל
 10
46.6805
 20
131.2184
 30
0.0000
 11
46.7998
 21
131.1689
 31
0.0000
  0
LINE
  5
11C
  8
חשמל
 10
46.7998
 20
131.1689
 30
0.0000
 11
46.9129
 21
131.1064
 31
0.0000
  0
LINE
  5
11D
  8
חשמל
 10
46.9129
 20
131.1064
 30
0.0000
 11
47.0183
 21
131.0317
 31
0.0000
  0
LINE
  5
11E
  8
חשמל
 10
47.0183
 20
131.0317
 30
0.0000
 11
47.1146
 21
130.9456
 31
0.0000
  0
LINE
  5
11F
  8
חשמל
 10
47.1146
 20
130.9456
 30
0.0000
 11
47.2007
 21
130.8493
 31
0.0000
  0
LINE
  5
120
  8
חשמל
 10
47.2007
 20
130.8493
 30
0.0000
 11
47.2754
 21
130.7439
 31
0.0000
  0
LINE
  5
121
  8
חשמל
 10
47.2754
 20
130.7439
 30
0.0000
 11
47.3379
 21
130.6308
 31
0.0000
  0
LINE
  5
122
  8
חשמל
 10
47.3379
 20
130.6308
 30
0.0000
 11
47.3874
 21
130.5115
 31
0.0000
  0
LINE
  5
123
  8
חשמל
 10
47.3874
 20
130.5115
 30
0.0000
 11
47.4231
 21
130.3873
 31
0.0000
  0
LINE
  5
124
  8
חשמל
 10
47.4231
 20
130.3873
 30
0.0000
 11
47.4448
 21
130.2600
 31
0.0000
  0
LINE
  5
125
  8
חשמל
 10
47.4448
 20
130.2600
 30
0.0000
 11
47.4520
 21
130.1310
 31
0.0000
  0
LINE
  5
126
  8
חשמל
 10
45.1480
 20
130.1310
 30
0.0000
 11
47.4520
 21
130.1310
 31
0.0000
  0
LINE
  5
127
  8
חשמל
 10
72.5000
 20
128.4750
 30
0.0000
 11
78.9000
 21
128.4750
 31
0.0000
  0
LINE
  5
128
  8
חשמל
 10
78.9000
 20
128.4750
 30
0.0000
 11
78.9000
 21
132.0750
 31
0.0000
  0
LINE
  5
129
  8
חשמל
 10
78.9000
 20
132.0750
 30
0.0000
 11
72.5000
 21
132.0750
 31
0.0000
  0
LINE
  5
12A
  8
חשמל
 10
72.5000
 20
132.0750
 30
0.0000
 11
72.5000
 21
128.4750
 31
0.0000
  0
LINE
  5
12B
  8
חשמל
 10
75.7000
 20
128.4750
 30
0.0000
 11
75.7000
 21
130.1310
 31
0.0000
  0
LINE
  5
12C
  8
חשמל
 10
72.5358
 20
130.1310
 30
0.0000
 11
72.5455
 21
130.2277
 31
0.0000
  0
LINE
  5
12D
  8
חשמל
 10
72.5455
 20
130.2277
 30
0.0000
 11
72.5744
 21
130.3233
 31
0.0000
  0
LINE
  5
12E
  8
חשמל
 10
72.5744
 20
130.3233
 30
0.0000
 11
72.6220
 21
130.4164
 31
0.0000
  0
LINE
  5
12F
  8
חשמל
 10
72.6220
 20
130.4164
 30
0.0000
 11
72.6880
 21
130.5059
 31
0.0000
  0
LINE
  5
130
  8
חשמל
 10
72.6880
 20
130.5059
 30
0.0000
 11
72.7713
 21
130.5907
 31
0.0000
  0
LINE
  5
131
  8
חשמל
 10
72.7713
 20
130.5907
 30
0.0000
 11
72.8709
 21
130.6697
 31
0.0000
  0
LINE
  5
132
  8
חשמל
 10
72.8709
 20
130.6697
 30
0.0000
 11
72.9857
 21
130.7419
 31
0.0000
  0
LINE
  5
133
  8
חשמל
 10
72.9857
 20
130.7419
 30
0.0000
 11
73.1142
 21
130.8065
 31
0.0000
  0
LINE
  5
134
  8
חשמל
 10
73.1142
 20
130.8065
 30
0.0000
 11
73.2546
 21
130.8626
 31
0.0000
  0
LINE
  5
135
  8
חשמל
 10
73.2546
 20
130.8626
 30
0.0000
 11
73.4054
 21
130.9094
 31
0.0000
  0
LINE
  5
136
  8
חשמל
 10
73.4054
 20
130.9094
 30
0.0000
 11
73.5645
 21
130.9465
 31
0.0000
  0
LINE
  5
137
  8
חשמל
 10
73.5645
 20
130.9465
 30
0.0000
 11
73.7300
 21
130.9733
 31
0.0000
  0
LINE
  5
138
  8
חשמל
 10
73.7300
 20
130.9733
 30
0.0000
 11
73.8999
 21
130.9896
 31
0.0000
  0
LINE
  5
139
  8
חשמל
 10
73.8999
 20
130.9896
 30
0.0000
 11
74.0718
 21
130.9950
 31
0.0000
  0
LINE
  5
13A
  8
חשמל
 10
74.0718
 20
130.9950
 30
0.0000
 11
74.2438
 21
130.9896
 31
0.0000
  0
LINE
  5
13B
  8
חשמל
 10
74.2438
 20
130.9896
 30
0.0000
 11
74.4136
 21
130.9733
 31
0.0000
  0
LINE
  5
13C
  8
חשמל
 10
74.4136
 20
130.9733
 30
0.0000
 11
74.5791
 21
130.9465
 31
0.0000
  0
LINE
  5
13D
  8
חשמל
 10
74.5791
 20
130.9465
 30
0.0000
 11
74.7383
 21
130.9094
 31
0.0000
  0
LINE
  5
13E
  8
חשמל
 10
74.7383
 20
130.9094
 30
0.0000
 11
74.8890
 21
130.8626
 31
0.0000
  0
LINE
  5
13F
  8
חשמל
 10
74.8890
 20
130.8626
 30
0.0000
 11
75.0295
 21
130.8065
 31
0.0000
  0
LINE
  5
140
  8
חשמל
 10
75.0295
 20
130.8065
 30
0.0000
 11
75.1580
 21
130.7419
 31
0.0000
  0
LINE
  5
141
  8
חשמל
 10
75.1580
 20
130.7419
 30
0.0000
 11
75.2727
 21
130.6697
 31
0.0000
  0
LINE
  5
142
  8
חשמל
 10
75.2727
 20
130.6697
 30
0.0000
 11
75.3724
 21
130.5907
 31
0.0000
  0
LINE
  5
143
  8
חשמל
 10
75.3724
 20
130.5907
 30
0.0000
 11
75.4557
 21
130.5059
 31
0.0000
  0
LINE
  5
144
  8
חשמל
 10
75.4557
 20
130.5059
 30
0.0000
 11
75.5216
 21
130.4164
 31
0.0000
  0
LINE
  5
145
  8
חשמל
 10
75.5216
 20
130.4164
 30
0.0000
 11
75.5693
 21
130.3233
 31
0.0000
  0
LINE
  5
146
  8
חשמל
 10
75.5693
 20
130.3233
 30
0.0000
 11
75.5982
 21
130.2277
 31
0.0000
  0
LINE
  5
147
  8
חשמל
 10
75.5982
 20
130.2277
 30
0.0000
 11
75.6078
 21
130.1310
 31
0.0000
  0
LINE
  5
148
  8
חשמל
 10
72.5358
 20
130.1310
 30
0.0000
 11
75.6078
 21
130.1310
 31
0.0000
  0
LINE
  5
149
  8
חשמל
 10
75.7922
 20
130.1310
 30
0.0000
 11
75.8018
 21
130.2277
 31
0.0000
  0
LINE
  5
14A
  8
חשמל
 10
75.8018
 20
130.2277
 30
0.0000
 11
75.8307
 21
130.3233
 31
0.0000
  0
LINE
  5
14B
  8
חשמל
 10
75.8307
 20
130.3233
 30
0.0000
 11
75.8784
 21
130.4164
 31
0.0000
  0
LINE
  5
14C
  8
חשמל
 10
75.8784
 20
130.4164
 30
0.0000
 11
75.9443
 21
130.5059
 31
0.0000
  0
LINE
  5
14D
  8
חשמל
 10
75.9443
 20
130.5059
 30
0.0000
 11
76.0276
 21
130.5907
 31
0.0000
  0
LINE
  5
14E
  8
חשמל
 10
76.0276
 20
130.5907
 30
0.0000
 11
76.1273
 21
130.6697
 31
0.0000
  0
LINE
  5
14F
  8
חשמל
 10
76.1273
 20
130.6697
 30
0.0000
 11
76.2420
 21
130.7419
 31
0.0000
  0
LINE
  5
150
  8
חשמל
 10
76.2420
 20
130.7419
 30
0.0000
 11
76.3705
 21
130.8065
 31
0.0000
  0
LINE
  5
151
  8
חשמל
 10
76.3705
 20
130.8065
 30
0.0000
 11
76.5110
 21
130.8626
 31
0.0000
  0
LINE
  5
152
  8
חשמל
 10
76.5110
 20
130.8626
 30
0.0000
 11
76.6617
 21
130.9094
 31
0.0000
  0
LINE
  5
153
  8
חשמל
 10
76.6617
 20
130.9094
 30
0.0000
 11
76.8209
 21
130.9465
 31
0.0000
  0
LINE
  5
154
  8
חשמל
 10
76.8209
 20
130.9465
 30
0.0000
 11
76.9864
 21
130.9733
 31
0.0000
  0
LINE
  5
155
  8
חשמל
 10
76.9864
 20
130.9733
 30
0.0000
 11
77.1562
 21
130.9896
 31
0.0000
  0
LINE
  5
156
  8
חשמל
 10
77.1562
 20
130.9896
 30
0.0000
 11
77.3282
 21
130.9950
 31
0.0000
  0
LINE
  5
157
  8
חשמל
 10
77.3282
 20
130.9950
 30
0.0000
 11
77.5001
 21
130.9896
 31
0.0000
  0
LINE
  5
158
  8
חשמל
 10
77.5001
 20
130.9896
 30
0.0000
 11
77.6700
 21
130.9733
 31
0.0000
  0
LINE
  5
159
  8
חשמל
 10
77.6700
 20
130.9733
 30
0.0000
 11
77.8355
 21
130.9465
 31
0.0000
  0
LINE
  5
15A
  8
חשמל
 10
77.8355
 20
130.9465
 30
0.0000
 11
77.9946
 21
130.9094
 31
0.0000
  0
LINE
  5
15B
  8
חשמל
 10
77.9946
 20
130.9094
 30
0.0000
 11
78.1454
 21
130.8626
 31
0.0000
  0
LINE
  5
15C
  8
חשמל
 10
78.1454
 20
130.8626
 30
0.0000
 11
78.2858
 21
130.8065
 31
0.0000
  0
LINE
  5
15D
  8
חשמל
 10
78.2858
 20
130.8065
 30
0.0000
 11
78.4143
 21
130.7419
 31
0.0000
  0
LINE
  5
15E
  8
חשמל
 10
78.4143
 20
130.7419
 30
0.0000
 11
78.5291
 21
130.6697
 31
0.0000
  0
LINE
  5
15F
  8
חשמל
 10
78.5291
 20
130.6697
 30
0.0000
 11
78.6287
 21
130.5907
 31
0.0000
  0
LINE
  5
160
  8
חשמל
 10
78.6287
 20
130.5907
 30
0.0000
 11
78.7120
 21
130.5059
 31
0.0000
  0
LINE
  5
161
  8
חשמל
 10
78.7120
 20
130.5059
 30
0.0000
 11
78.7780
 21
130.4164
 31
0.0000
  0
LINE
  5
162
  8
חשמל
 10
78.7780
 20
130.4164
 30
0.0000
 11
78.8256
 21
130.3233
 31
0.0000
  0
LINE
  5
163
  8
חשמל
 10
78.8256
 20
130.3233
 30
0.0000
 11
78.8545
 21
130.2277
 31
0.0000
  0
LINE
  5
164
  8
חשמל
 10
78.8545
 20
130.2277
 30
0.0000
 11
78.8642
 21
130.1310
 31
0.0000
  0
LINE
  5
165
  8
חשמל
 10
75.7922
 20
130.1310
 30
0.0000
 11
78.8642
 21
130.1310
 31
0.0000
  0
LINE
  5
166
  8
חשמל
 10
100.5000
 20
129.2750
 30
0.0000
 11
104.1000
 21
129.2750
 31
0.0000
  0
LINE
  5
167
  8
חשמל
 10
104.1000
 20
129.2750
 30
0.0000
 11
104.1000
 21
132.8750
 31
0.0000
  0
LINE
  5
168
  8
חשמל
 10
104.1000
 20
132.8750
 30
0.0000
 11
100.5000
 21
132.8750
 31
0.0000
  0
LINE
  5
169
  8
חשמל
 10
100.5000
 20
132.8750
 30
0.0000
 11
100.5000
 21
129.2750
 31
0.0000
  0
LINE
  5
16A
  8
חשמל
 10
102.3000
 20
129.2750
 30
0.0000
 11
102.3000
 21
130.3550
 31
0.0000
  0
ARC
  5
16B
  8
חשמל
 10
102.3000
 20
130.3550
 30
0.0000
 40
0.1800
 50
0.0000
 51
360.0000
  0
LINE
  5
16C
  8
חשמל
 10
102.3000
 20
130.3550
 30
0.0000
 11
103.2498
 21
131.7115
 31
0.0000
  0
LINE
  5
16D
  8
חשמל
 10
128.5000
 20
130.6750
 30
0.0000
 11
130.9000
 21
130.6750
 31
0.0000
  0
LINE
  5
16E
  8
חשמל
 10
130.9000
 20
130.6750
 30
0.0000
 11
130.9000
 21
133.0750
 31
0.0000
  0
LINE
  5
16F
  8
חשמל
 10
130.9000
 20
133.0750
 30
0.0000
 11
128.5000
 21
133.0750
 31
0.0000
  0
LINE
  5
170
  8
חשמל
 10
128.5000
 20
133.0750
 30
0.0000
 11
128.5000
 21
130.6750
 31
0.0000
  0
LINE
  5
171
  8
חשמל
 10
129.7000
 20
130.6750
 30
0.0000
 11
129.7000
 21
132.5470
 31
0.0000
  0
ARC
  5
172
  8
חשמל
 10
129.7000
 20
131.8270
 30
0.0000
 40
0.7680
 50
0.0000
 51
360.0000
  0
LINE
  5
173
  8
חשמל
 10
129.7000
 20
131.8270
 30
0.0000
 11
129.1720
 21
132.3550
 31
0.0000
  0
LINE
  5
174
  8
חשמל
 10
129.7000
 20
131.8270
 30
0.0000
 11
130.2280
 21
132.3550
 31
0.0000
  0
LINE
  5
175
  8
חשמל
 10
129.7000
 20
131.8270
 30
0.0000
 11
129.1720
 21
131.2990
 31
0.0000
  0
LINE
  5
176
  8
חשמל
 10
129.7000
 20
131.8270
 30
0.0000
 11
130.2280
 21
131.2990
 31
0.0000
  0
LINE
  5
177
  8
חשמל
 10
156.5000
 20
128.2750
 30
0.0000
 11
158.9000
 21
128.2750
 31
0.0000
  0
LINE
  5
178
  8
חשמל
 10
158.9000
 20
128.2750
 30
0.0000
 11
158.9000
 21
130.6750
 31
0.0000
  0
LINE
  5
179
  8
חשמל
 10
158.9000
 20
130.6750
 30
0.0000
 11
156.5000
 21
130.6750
 31
0.0000
  0
LINE
  5
17A
  8
חשמל
 10
156.5000
 20
130.6750
 30
0.0000
 11
156.5000
 21
128.2750
 31
0.0000
  0
LINE
  5
17B
  8
חשמל
 10
157.7000
 20
128.2750
 30
0.0000
 11
157.7000
 21
130.1470
 31
0.0000
  0
ARC
  5
17C
  8
חשמל
 10
157.7000
 20
129.4270
 30
0.0000
 40
0.7680
 50
0.0000
 51
360.0000
  0
LINE
  5
17D
  8
חשמל
 10
157.7000
 20
129.4270
 30
0.0000
 11
157.1720
 21
129.9550
 31
0.0000
  0
LINE
  5
17E
  8
חשמל
 10
157.7000
 20
129.4270
 30
0.0000
 11
158.2280
 21
129.9550
 31
0.0000
  0
LINE
  5
17F
  8
חשמל
 10
157.7000
 20
129.4270
 30
0.0000
 11
157.1720
 21
128.8990
 31
0.0000
  0
LINE
  5
180
  8
חשמל
 10
157.7000
 20
129.4270
 30
0.0000
 11
158.2280
 21
128.8990
 31
0.0000
  0
LINE
  5
181
  8
מידות-פנים
 10
32.5000
 20
124.2750
 30
0.0000
 11
32.5000
 21
107.5350
 31
0.0000
  0
LINE
  5
182
  8
מידות-פנים
 10
46.3000
 20
124.2750
 30
0.0000
 11
46.3000
 21
107.5350
 31
0.0000
  0
LINE
  5
183
  8
מידות-פנים
 10
32.5000
 20
109.8750
 30
0.0000
 11
46.3000
 21
109.8750
 31
0.0000
  0
SOLID
  5
184
  8
מידות-פנים
 10
32.5000
 20
109.8750
 30
0.0000
 11
28.0150
 21
108.6270
 31
0.0000
 12
28.0150
 22
111.1230
 32
0.0000
 13
28.0150
 23
111.1230
 33
0.0000
  0
SOLID
  5
185
  8
מידות-פנים
 10
46.3000
 20
109.8750
 30
0.0000
 11
50.7850
 21
108.6270
 31
0.0000
 12
50.7850
 22
111.1230
 32
0.0000
 13
50.7850
 23
111.1230
 33
0.0000
  0
TEXT
  5
186
  8
מידות-פנים
 10
39.4000
 20
106.1700
 30
0.0000
 40
3.9000
  1
34.5
 50
0.0000
  7
SOLINE
 72
1
 73
2
 11
39.4000
 21
106.1700
 31
0.0000
  0
LINE
  5
187
  8
מידות-פנים
 10
46.3000
 20
124.2750
 30
0.0000
 11
46.3000
 21
107.5350
 31
0.0000
  0
LINE
  5
188
  8
מידות-פנים
 10
75.7000
 20
124.2750
 30
0.0000
 11
75.7000
 21
107.5350
 31
0.0000
  0
LINE
  5
189
  8
מידות-פנים
 10
46.3000
 20
109.8750
 30
0.0000
 11
75.7000
 21
109.8750
 31
0.0000
  0
SOLID
  5
18A
  8
מידות-פנים
 10
46.3000
 20
109.8750
 30
0.0000
 11
41.8150
 21
108.6270
 31
0.0000
 12
41.8150
 22
111.1230
 32
0.0000
 13
41.8150
 23
111.1230
 33
0.0000
  0
SOLID
  5
18B
  8
מידות-פנים
 10
75.7000
 20
109.8750
 30
0.0000
 11
80.1850
 21
108.6270
 31
0.0000
 12
80.1850
 22
111.1230
 32
0.0000
 13
80.1850
 23
111.1230
 33
0.0000
  0
TEXT
  5
18C
  8
מידות-פנים
 10
61.0000
 20
106.1700
 30
0.0000
 40
3.9000
  1
73.5
 50
0.0000
  7
SOLINE
 72
1
 73
2
 11
61.0000
 21
106.1700
 31
0.0000
  0
LINE
  5
18D
  8
מידות-פנים
 10
75.7000
 20
124.2750
 30
0.0000
 11
75.7000
 21
107.5350
 31
0.0000
  0
LINE
  5
18E
  8
מידות-פנים
 10
102.3000
 20
124.2750
 30
0.0000
 11
102.3000
 21
107.5350
 31
0.0000
  0
LINE
  5
18F
  8
מידות-פנים
 10
75.7000
 20
109.8750
 30
0.0000
 11
102.3000
 21
109.8750
 31
0.0000
  0
SOLID
  5
190
  8
מידות-פנים
 10
75.7000
 20
109.8750
 30
0.0000
 11
71.2150
 21
108.6270
 31
0.0000
 12
71.2150
 22
111.1230
 32
0.0000
 13
71.2150
 23
111.1230
 33
0.0000
  0
SOLID
  5
191
  8
מידות-פנים
 10
102.3000
 20
109.8750
 30
0.0000
 11
106.7850
 21
108.6270
 31
0.0000
 12
106.7850
 22
111.1230
 32
0.0000
 13
106.7850
 23
111.1230
 33
0.0000
  0
TEXT
  5
192
  8
מידות-פנים
 10
89.0000
 20
106.1700
 30
0.0000
 40
3.9000
  1
66.5
 50
0.0000
  7
SOLINE
 72
1
 73
2
 11
89.0000
 21
106.1700
 31
0.0000
  0
LINE
  5
193
  8
מידות-פנים
 10
102.3000
 20
124.2750
 30
0.0000
 11
102.3000
 21
107.5350
 31
0.0000
  0
LINE
  5
194
  8
מידות-פנים
 10
129.7000
 20
124.2750
 30
0.0000
 11
129.7000
 21
107.5350
 31
0.0000
  0
LINE
  5
195
  8
מידות-פנים
 10
102.3000
 20
109.8750
 30
0.0000
 11
129.7000
 21
109.8750
 31
0.0000
  0
SOLID
  5
196
  8
מידות-פנים
 10
102.3000
 20
109.8750
 30
0.0000
 11
97.8150
 21
108.6270
 31
0.0000
 12
97.8150
 22
111.1230
 32
0.0000
 13
97.8150
 23
111.1230
 33
0.0000
  0
SOLID
  5
197
  8
מידות-פנים
 10
129.7000
 20
109.8750
 30
0.0000
 11
134.1850
 21
108.6270
 31
0.0000
 12
134.1850
 22
111.1230
 32
0.0000
 13
134.1850
 23
111.1230
 33
0.0000
  0
TEXT
  5
198
  8
מידות-פנים
 10
116.0000
 20
106.1700
 30
0.0000
 40
3.9000
  1
68.5
 50
0.0000
  7
SOLINE
 72
1
 73
2
 11
116.0000
 21
106.1700
 31
0.0000
  0
LINE
  5
199
  8
מידות-פנים
 10
129.7000
 20
124.2750
 30
0.0000
 11
129.7000
 21
107.5350
 31
0.0000
  0
LINE
  5
19A
  8
מידות-פנים
 10
157.7000
 20
124.2750
 30
0.0000
 11
157.7000
 21
107.5350
 31
0.0000
  0
LINE
  5
19B
  8
מידות-פנים
 10
129.7000
 20
109.8750
 30
0.0000
 11
157.7000
 21
109.8750
 31
0.0000
  0
SOLID
  5
19C
  8
מידות-פנים
 10
129.7000
 20
109.8750
 30
0.0000
 11
125.2150
 21
108.6270
 31
0.0000
 12
125.2150
 22
111.1230
 32
0.0000
 13
125.2150
 23
111.1230
 33
0.0000
  0
SOLID
  5
19D
  8
מידות-פנים
 10
157.7000
 20
109.8750
 30
0.0000
 11
162.1850
 21
108.6270
 31
0.0000
 12
162.1850
 22
111.1230
 32
0.0000
 13
162.1850
 23
111.1230
 33
0.0000
  0
TEXT
  5
19E
  8
מידות-פנים
 10
143.7000
 20
106.1700
 30
0.0000
 40
3.9000
  1
70
 50
0.0000
  7
SOLINE
 72
1
 73
2
 11
143.7000
 21
106.1700
 31
0.0000
  0
LINE
  5
19F
  8
מידות-פנים
 10
157.7000
 20
124.2750
 30
0.0000
 11
157.7000
 21
107.5350
 31
0.0000
  0
LINE
  5
1A0
  8
מידות-פנים
 10
192.5000
 20
124.2750
 30
0.0000
 11
192.5000
 21
107.5350
 31
0.0000
  0
LINE
  5
1A1
  8
מידות-פנים
 10
157.7000
 20
109.8750
 30
0.0000
 11
192.5000
 21
109.8750
 31
0.0000
  0
SOLID
  5
1A2
  8
מידות-פנים
 10
157.7000
 20
109.8750
 30
0.0000
 11
153.2150
 21
108.6270
 31
0.0000
 12
153.2150
 22
111.1230
 32
0.0000
 13
153.2150
 23
111.1230
 33
0.0000
  0
SOLID
  5
1A3
  8
מידות-פנים
 10
192.5000
 20
109.8750
 30
0.0000
 11
196.9850
 21
108.6270
 31
0.0000
 12
196.9850
 22
111.1230
 32
0.0000
 13
196.9850
 23
111.1230
 33
0.0000
  0
TEXT
  5
1A4
  8
מידות-פנים
 10
175.1000
 20
106.1700
 30
0.0000
 40
3.9000
  1
87
 50
0.0000
  7
SOLINE
 72
1
 73
2
 11
175.1000
 21
106.1700
 31
0.0000
  0
LINE
  5
1A5
  8
מידות-פנים
 10
32.5000
 20
123.8750
 30
0.0000
 11
32.5000
 21
90.8750
 31
0.0000
  0
LINE
  5
1A6
  8
מידות-פנים
 10
192.5000
 20
123.8750
 30
0.0000
 11
192.5000
 21
90.8750
 31
0.0000
  0
LINE
  5
1A7
  8
מידות-פנים
 10
32.5000
 20
93.8750
 30
0.0000
 11
192.5000
 21
93.8750
 31
0.0000
  0
SOLID
  5
1A8
  8
מידות-פנים
 10
32.5000
 20
93.8750
 30
0.0000
 11
26.7500
 21
92.2750
 31
0.0000
 12
26.7500
 22
95.4750
 32
0.0000
 13
26.7500
 23
95.4750
 33
0.0000
  0
SOLID
  5
1A9
  8
מידות-פנים
 10
192.5000
 20
93.8750
 30
0.0000
 11
198.2500
 21
92.2750
 31
0.0000
 12
198.2500
 22
95.4750
 32
0.0000
 13
198.2500
 23
95.4750
 33
0.0000
  0
TEXT
  5
1AA
  8
מידות-פנים
 10
112.5000
 20
89.1250
 30
0.0000
 40
5.0000
  1
400
 50
0.0000
  7
SOLINE
 72
1
 73
2
 11
112.5000
 21
89.1250
 31
0.0000
  0
LINE
  5
1AB
  8
מידות-פנים
 10
14.5000
 20
125.8750
 30
0.0000
 11
13.5000
 21
125.8750
 31
0.0000
  0
LINE
  5
1AC
  8
מידות-פנים
 10
14.5000
 20
229.8750
 30
0.0000
 11
13.5000
 21
229.8750
 31
0.0000
  0
LINE
  5
1AD
  8
מידות-פנים
 10
16.5000
 20
125.8750
 30
0.0000
 11
16.5000
 21
229.8750
 31
0.0000
  0
SOLID
  5
1AE
  8
מידות-פנים
 10
16.5000
 20
125.8750
 30
0.0000
 11
14.9000
 21
120.1250
 31
0.0000
 12
18.1000
 22
120.1250
 32
0.0000
 13
18.1000
 23
120.1250
 33
0.0000
  0
SOLID
  5
1AF
  8
מידות-פנים
 10
16.5000
 20
229.8750
 30
0.0000
 11
14.9000
 21
235.6250
 31
0.0000
 12
18.1000
 22
235.6250
 32
0.0000
 13
18.1000
 23
235.6250
 33
0.0000
  0
TEXT
  5
1B0
  8
מידות-פנים
 10
11.7500
 20
177.8750
 30
0.0000
 40
5.0000
  1
260
 50
90.0000
  7
SOLINE
 72
1
 73
2
 11
11.7500
 21
177.8750
 31
0.0000
  0
ENDSEC
  0
EOF
