0
SECTION
2
HEADER
9
$ACADVER
1
AC1009
9
$INSUNITS
70
4
0
ENDSEC
0
SECTION
2
TABLES
0
TABLE
2
LAYER
70
9
0
LAYER
2
WALL
70
0
62
7
6
CONTINUOUS
0
LAYER
2
FLOOR
70
0
62
250
6
CONTINUOUS
0
LAYER
2
DIM
70
0
62
7
6
CONTINUOUS
0
LAYER
2
ELEC-FIN
70
0
62
2
6
CONTINUOUS
0
LAYER
2
ELEC-BOX
70
0
62
2
6
CONTINUOUS
0
LAYER
2
PLUMB-POINT
70
0
62
4
6
CONTINUOUS
0
LAYER
2
DOOR
70
0
62
3
6
CONTINUOUS
0
LAYER
2
WINDOW
70
0
62
3
6
CONTINUOUS
0
LAYER
2
LIGHT-SHELL
70
0
62
40
6
CONTINUOUS
0
ENDTAB
0
ENDSEC
0
SECTION
2
ENTITIES
0
POLYLINE
8
WALL
66
1
70
1
0
VERTEX
8
WALL
10
0
20
0
30
0
0
VERTEX
8
WALL
10
3600
20
0
30
0
0
VERTEX
8
WALL
10
3600
20
2743
30
0
0
VERTEX
8
WALL
10
0
20
2743
30
0
0
SEQEND
8
WALL
0
LINE
8
FLOOR
10
0
20
0
30
0
11
3600
21
0
31
0
0
TEXT
8
WALL
10
1800
20
-300
30
0
40
120
1
קיר W1 · 3600×2743
0
CIRCLE
8
ELEC-FIN
10
1500
20
300
30
0
40
70
0
LINE
8
ELEC-FIN
10
1475.5
20
268.5
30
0
11
1475.5
21
331.5
31
0
0
LINE
8
ELEC-FIN
10
1524.5
20
268.5
30
0
11
1524.5
21
331.5
31
0
0
LINE
8
DIM
10
1500
20
0
30
0
11
1500
21
300
31
0
0
TEXT
8
DIM
10
1540
20
150
30
0
40
90
1
300
0
POLYLINE
8
ELEC-BOX
66
1
70
1
0
VERTEX
8
ELEC-BOX
10
330
20
1030
30
0
0
VERTEX
8
ELEC-BOX
10
470
20
1030
30
0
0
VERTEX
8
ELEC-BOX
10
470
20
1170
30
0
0
VERTEX
8
ELEC-BOX
10
330
20
1170
30
0
0
SEQEND
8
ELEC-BOX
0
POLYLINE
8
ELEC-BOX
66
1
70
1
0
VERTEX
8
ELEC-BOX
10
401
20
1030
30
0
0
VERTEX
8
ELEC-BOX
10
541
20
1030
30
0
0
VERTEX
8
ELEC-BOX
10
541
20
1170
30
0
0
VERTEX
8
ELEC-BOX
10
401
20
1170
30
0
0
SEQEND
8
ELEC-BOX
0
POLYLINE
8
ELEC-BOX
66
1
70
1
0
VERTEX
8
ELEC-BOX
10
472
20
1030
30
0
0
VERTEX
8
ELEC-BOX
10
612
20
1030
30
0
0
VERTEX
8
ELEC-BOX
10
612
20
1170
30
0
0
VERTEX
8
ELEC-BOX
10
472
20
1170
30
0
0
SEQEND
8
ELEC-BOX
0
POLYLINE
8
ELEC-BOX
66
1
70
1
0
VERTEX
8
ELEC-BOX
10
543
20
1030
30
0
0
VERTEX
8
ELEC-BOX
10
683
20
1030
30
0
0
VERTEX
8
ELEC-BOX
10
683
20
1170
30
0
0
VERTEX
8
ELEC-BOX
10
543
20
1170
30
0
0
SEQEND
8
ELEC-BOX
0
LINE
8
DIM
10
400
20
0
30
0
11
400
21
1100
31
0
0
TEXT
8
DIM
10
440
20
550
30
0
40
90
1
1100
0
LINE
8
DIM
10
471
20
0
30
0
11
471
21
1100
31
0
0
TEXT
8
DIM
10
511
20
550
30
0
40
90
1
1100
0
LINE
8
DIM
10
542
20
0
30
0
11
542
21
1100
31
0
0
TEXT
8
DIM
10
582
20
550
30
0
40
90
1
1100
0
LINE
8
DIM
10
613
20
0
30
0
11
613
21
1100
31
0
0
TEXT
8
DIM
10
653
20
550
30
0
40
90
1
1100
0
CIRCLE
8
PLUMB-POINT
10
2600
20
550
30
0
40
39.2
0
LINE
8
PLUMB-POINT
10
2560.8
20
550
30
0
11
2639.2
21
550
31
0
0
LINE
8
PLUMB-POINT
10
2600
20
510.8
30
0
11
2600
21
589.2
31
0
0
LINE
8
DIM
10
2600
20
0
30
0
11
2600
21
550
31
0
0
TEXT
8
DIM
10
2640
20
275
30
0
40
90
1
550
0
POLYLINE
8
WALL
66
1
70
1
0
VERTEX
8
WALL
10
4600
20
0
30
0
0
VERTEX
8
WALL
10
7000
20
0
30
0
0
VERTEX
8
WALL
10
7000
20
2743
30
0
0
VERTEX
8
WALL
10
4600
20
2743
30
0
0
SEQEND
8
WALL
0
LINE
8
FLOOR
10
4600
20
0
30
0
11
7000
21
0
31
0
0
TEXT
8
WALL
10
5800
20
-300
30
0
40
120
1
קיר W2 · 2400×2743
0
POLYLINE
8
DOOR
66
1
70
1
0
VERTEX
8
DOOR
10
4900
20
0
30
0
0
VERTEX
8
DOOR
10
5800
20
0
30
0
0
VERTEX
8
DOOR
10
5800
20
2050
30
0
0
VERTEX
8
DOOR
10
4900
20
2050
30
0
0
SEQEND
8
DOOR
0
LINE
8
DIM
10
4900
20
0
30
0
11
4900
21
0
31
0
0
TEXT
8
DIM
10
4940
20
0
30
0
40
90
1
0
0
POLYLINE
8
WALL
66
1
70
1
0
VERTEX
8
WALL
10
8000
20
0
30
0
0
VERTEX
8
WALL
10
11600
20
0
30
0
0
VERTEX
8
WALL
10
11600
20
2743
30
0
0
VERTEX
8
WALL
10
8000
20
2743
30
0
0
SEQEND
8
WALL
0
LINE
8
FLOOR
10
8000
20
0
30
0
11
11600
21
0
31
0
0
TEXT
8
WALL
10
9800
20
-300
30
0
40
120
1
קיר W3 · 3600×2743
0
POLYLINE
8
WINDOW
66
1
70
1
0
VERTEX
8
WINDOW
10
8900
20
900
30
0
0
VERTEX
8
WINDOW
10
10100
20
900
30
0
0
VERTEX
8
WINDOW
10
10100
20
2300
30
0
0
VERTEX
8
WINDOW
10
8900
20
2300
30
0
0
SEQEND
8
WINDOW
0
LINE
8
DIM
10
8900
20
0
30
0
11
8900
21
900
31
0
0
TEXT
8
DIM
10
8940
20
450
30
0
40
90
1
900
0
CIRCLE
8
LIGHT-SHELL
10
8600
20
2743
30
0
40
70
0
CIRCLE
8
LIGHT-SHELL
10
8600
20
2743
30
0
40
11.2
0
CIRCLE
8
LIGHT-SHELL
10
9500
20
2743
30
0
40
70
0
CIRCLE
8
LIGHT-SHELL
10
9500
20
2743
30
0
40
11.2
0
CIRCLE
8
LIGHT-SHELL
10
10400
20
2743
30
0
40
70
0
CIRCLE
8
LIGHT-SHELL
10
10400
20
2743
30
0
40
11.2
0
LINE
8
DIM
10
8600
20
0
30
0
11
8600
21
2743
31
0
0
TEXT
8
DIM
10
8640
20
1371.5
30
0
40
90
1
2743
0
LINE
8
DIM
10
9500
20
0
30
0
11
9500
21
2743
31
0
0
TEXT
8
DIM
10
9540
20
1371.5
30
0
40
90
1
2743
0
LINE
8
DIM
10
10400
20
0
30
0
11
10400
21
2743
31
0
0
TEXT
8
DIM
10
10440
20
1371.5
30
0
40
90
1
2743
0
POLYLINE
8
WALL
66
1
70
1
0
VERTEX
8
WALL
10
12600
20
0
30
0
0
VERTEX
8
WALL
10
15000
20
0
30
0
0
VERTEX
8
WALL
10
15000
20
2743
30
0
0
VERTEX
8
WALL
10
12600
20
2743
30
0
0
SEQEND
8
WALL
0
LINE
8
FLOOR
10
12600
20
0
30
0
11
15000
21
0
31
0
0
TEXT
8
WALL
10
13800
20
-300
30
0
40
120
1
קיר W4 · 2400×2743
0
CIRCLE
8
ELEC-FIN
10
12800
20
1300
30
0
40
49
0
LINE
8
ELEC-FIN
10
12800
20
1300
30
0
11
12883.3
21
1383.3
31
0
0
CIRCLE
8
ELEC-FIN
10
12883.3
20
1383.3
30
0
40
8.4
0
LINE
8
DIM
10
12800
20
0
30
0
11
12800
21
1300
31
0
0
TEXT
8
DIM
10
12840
20
650
30
0
40
90
1
1300
0
ENDSEC
0
EOF
