0
SECTION
2
HEADER
9
$ACADVER
1
AC1009
9
$INSUNITS
70
4
0
ENDSEC
0
SECTION
2
TABLES
0
TABLE
2
LAYER
70
11
0
LAYER
2
WALL
70
0
62
7
6
CONTINUOUS
0
LAYER
2
FLOOR
70
0
62
250
6
CONTINUOUS
0
LAYER
2
CEIL
70
0
62
140
6
CONTINUOUS
0
LAYER
2
ELEC-FIN
70
0
62
2
6
CONTINUOUS
0
LAYER
2
ELEC-BOX
70
0
62
2
6
CONTINUOUS
0
LAYER
2
PLUMB-POINT
70
0
62
4
6
CONTINUOUS
0
LAYER
2
WINDOW
70
0
62
3
6
CONTINUOUS
0
LAYER
2
DOOR
70
0
62
3
6
CONTINUOUS
0
LAYER
2
PLUMB-DRAIN
70
0
62
4
6
CONTINUOUS
0
LAYER
2
LIGHT-FIN
70
0
62
40
6
CONTINUOUS
0
LAYER
2
LIGHT-SHELL
70
0
62
40
6
CONTINUOUS
0
ENDTAB
0
ENDSEC
0
SECTION
2
ENTITIES
0
3DFACE
8
WALL
10
0
20
0
30
0
11
3600
21
0
31
0
12
3600
22
0
32
2743
13
0
23
0
33
2743
0
3DFACE
8
WALL
10
3600
20
0
30
0
11
3600
21
2400
31
0
12
3600
22
2400
32
2743
13
3600
23
0
33
2743
0
3DFACE
8
WALL
10
3600
20
2400
30
0
11
0
21
2400
31
0
12
0
22
2400
32
2743
13
3600
23
2400
33
2743
0
3DFACE
8
WALL
10
0
20
2400
30
0
11
0
21
0
31
0
12
0
22
0
32
2743
13
0
23
2400
33
2743
0
3DFACE
8
FLOOR
10
0
20
0
30
0
11
3600
21
0
31
0
12
3600
22
2400
32
0
13
3600
23
2400
33
0
0
3DFACE
8
CEIL
10
0
20
0
30
2743
11
3600
21
0
31
2743
12
3600
22
2400
32
2743
13
3600
23
2400
33
2743
0
3DFACE
8
FLOOR
10
0
20
0
30
0
11
3600
21
2400
31
0
12
0
22
2400
32
0
13
0
23
2400
33
0
0
3DFACE
8
CEIL
10
0
20
0
30
2743
11
3600
21
2400
31
2743
12
0
22
2400
32
2743
13
0
23
2400
33
2743
0
LINE
8
ELEC-FIN
10
1400
20
0
30
300
11
1600
21
0
31
300
0
LINE
8
ELEC-FIN
10
1500
20
-100
30
300
11
1500
21
100
31
300
0
LINE
8
ELEC-FIN
10
-100
20
2200
30
1300
11
100
21
2200
31
1300
0
LINE
8
ELEC-FIN
10
0
20
2100
30
1300
11
0
21
2300
31
1300
0
LINE
8
ELEC-BOX
10
300
20
0
30
1100
11
500
21
0
31
1100
0
LINE
8
ELEC-BOX
10
400
20
-100
30
1100
11
400
21
100
31
1100
0
LINE
8
ELEC-BOX
10
371
20
0
30
1100
11
571
21
0
31
1100
0
LINE
8
ELEC-BOX
10
471
20
-100
30
1100
11
471
21
100
31
1100
0
LINE
8
ELEC-BOX
10
442
20
0
30
1100
11
642
21
0
31
1100
0
LINE
8
ELEC-BOX
10
542
20
-100
30
1100
11
542
21
100
31
1100
0
LINE
8
ELEC-BOX
10
513
20
0
30
1100
11
713
21
0
31
1100
0
LINE
8
ELEC-BOX
10
613
20
-100
30
1100
11
613
21
100
31
1100
0
LINE
8
PLUMB-POINT
10
2500
20
0
30
550
11
2700
21
0
31
550
0
LINE
8
PLUMB-POINT
10
2600
20
-100
30
550
11
2600
21
100
31
550
0
LINE
8
WINDOW
10
2000
20
2400
30
1600
11
2200
21
2400
31
1600
0
LINE
8
WINDOW
10
2100
20
2300
30
1600
11
2100
21
2500
31
1600
0
LINE
8
DOOR
10
3500
20
750
30
1025
11
3700
21
750
31
1025
0
LINE
8
DOOR
10
3600
20
650
30
1025
11
3600
21
850
31
1025
0
LINE
8
PLUMB-DRAIN
10
1700
20
1200
30
0
11
1900
21
1200
31
0
0
LINE
8
PLUMB-DRAIN
10
1800
20
1100
30
0
11
1800
21
1300
31
0
0
LINE
8
LIGHT-FIN
10
2500
20
1200
30
0
11
2700
21
1200
31
0
0
LINE
8
LIGHT-FIN
10
2600
20
1100
30
0
11
2600
21
1300
31
0
0
LINE
8
LIGHT-SHELL
10
2900
20
2400
30
2743
11
3100
21
2400
31
2743
0
LINE
8
LIGHT-SHELL
10
3000
20
2300
30
2743
11
3000
21
2500
31
2743
0
LINE
8
LIGHT-SHELL
10
2000
20
2400
30
2743
11
2200
21
2400
31
2743
0
LINE
8
LIGHT-SHELL
10
2100
20
2300
30
2743
11
2100
21
2500
31
2743
0
LINE
8
LIGHT-SHELL
10
1100
20
2400
30
2743
11
1300
21
2400
31
2743
0
LINE
8
LIGHT-SHELL
10
1200
20
2300
30
2743
11
1200
21
2500
31
2743
0
ENDSEC
0
EOF
