0
SECTION
2
HEADER
9
$ACADVER
1
AC1009
9
$INSUNITS
70
4
0
ENDSEC
0
SECTION
2
TABLES
0
TABLE
2
LAYER
70
9
0
LAYER
2
WALL
70
0
62
7
6
CONTINUOUS
0
LAYER
2
ELEC-FIN
70
0
62
7
6
CONTINUOUS
0
LAYER
2
ELEC-BOX
70
0
62
2
6
CONTINUOUS
0
LAYER
2
PLUMB-POINT
70
0
62
7
6
CONTINUOUS
0
LAYER
2
WINDOW
70
0
62
3
6
CONTINUOUS
0
LAYER
2
DOOR
70
0
62
3
6
CONTINUOUS
0
LAYER
2
PLUMB-DRAIN
70
0
62
4
6
CONTINUOUS
0
LAYER
2
LIGHT-FIN
70
0
62
7
6
CONTINUOUS
0
LAYER
2
LIGHT-SHELL
70
0
62
7
6
CONTINUOUS
0
ENDTAB
0
ENDSEC
0
SECTION
2
ENTITIES
0
LINE
8
WALL
10
0
20
0
30
0
11
3600
21
0
31
0
0
TEXT
8
WALL
10
1800
20
90
30
0
40
90
1
W1 3600
0
LINE
8
WALL
10
3600
20
0
30
0
11
3600
21
2400
31
0
0
TEXT
8
WALL
10
3510
20
1200
30
0
40
90
1
W2 2400
0
LINE
8
WALL
10
3600
20
2400
30
0
11
0
21
2400
31
0
0
TEXT
8
WALL
10
1800
20
2310
30
0
40
90
1
W3 3600
0
LINE
8
WALL
10
0
20
2400
30
0
11
0
21
0
31
0
0
TEXT
8
WALL
10
90
20
1200
30
0
40
90
1
W4 2400
0
CIRCLE
8
ELEC-FIN
10
1500
20
0
30
0
40
70
0
LINE
8
ELEC-FIN
10
1475.5
20
-31.5
30
0
11
1475.5
21
31.5
31
0
0
LINE
8
ELEC-FIN
10
1524.5
20
-31.5
30
0
11
1524.5
21
31.5
31
0
0
CIRCLE
8
ELEC-FIN
10
0
20
2200
30
0
40
49
0
LINE
8
ELEC-FIN
10
0
20
2200
30
0
11
83.3
21
2283.3
31
0
0
CIRCLE
8
ELEC-FIN
10
83.3
20
2283.3
30
0
40
8.4
0
POLYLINE
8
ELEC-BOX
66
1
70
1
0
VERTEX
8
ELEC-BOX
10
330
20
-70
30
0
0
VERTEX
8
ELEC-BOX
10
470
20
-70
30
0
0
VERTEX
8
ELEC-BOX
10
470
20
70
30
0
0
VERTEX
8
ELEC-BOX
10
330
20
70
30
0
0
SEQEND
8
ELEC-BOX
0
POLYLINE
8
ELEC-BOX
66
1
70
1
0
VERTEX
8
ELEC-BOX
10
401
20
-70
30
0
0
VERTEX
8
ELEC-BOX
10
541
20
-70
30
0
0
VERTEX
8
ELEC-BOX
10
541
20
70
30
0
0
VERTEX
8
ELEC-BOX
10
401
20
70
30
0
0
SEQEND
8
ELEC-BOX
0
POLYLINE
8
ELEC-BOX
66
1
70
1
0
VERTEX
8
ELEC-BOX
10
472
20
-70
30
0
0
VERTEX
8
ELEC-BOX
10
612
20
-70
30
0
0
VERTEX
8
ELEC-BOX
10
612
20
70
30
0
0
VERTEX
8
ELEC-BOX
10
472
20
70
30
0
0
SEQEND
8
ELEC-BOX
0
POLYLINE
8
ELEC-BOX
66
1
70
1
0
VERTEX
8
ELEC-BOX
10
543
20
-70
30
0
0
VERTEX
8
ELEC-BOX
10
683
20
-70
30
0
0
VERTEX
8
ELEC-BOX
10
683
20
70
30
0
0
VERTEX
8
ELEC-BOX
10
543
20
70
30
0
0
SEQEND
8
ELEC-BOX
0
CIRCLE
8
PLUMB-POINT
10
2600
20
0
30
0
40
39.2
0
LINE
8
PLUMB-POINT
10
2560.8
20
0
30
0
11
2639.2
21
0
31
0
0
LINE
8
PLUMB-POINT
10
2600
20
-39.2
30
0
11
2600
21
39.2
31
0
0
LINE
8
WINDOW
10
2700
20
2416.8
30
0
11
1500
21
2416.8
31
0
0
LINE
8
WINDOW
10
2700
20
2400
30
0
11
1500
21
2400
31
0
0
LINE
8
WINDOW
10
2700
20
2383.2
30
0
11
1500
21
2383.2
31
0
0
LINE
8
WINDOW
10
2700
20
2372
30
0
11
2700
21
2428
31
0
0
LINE
8
WINDOW
10
1500
20
2372
30
0
11
1500
21
2428
31
0
0
LINE
8
DOOR
10
3572
20
300
30
0
11
3628
21
300
31
0
0
LINE
8
DOOR
10
3572
20
1200
30
0
11
3628
21
1200
31
0
0
LINE
8
DOOR
10
3600
20
300
30
0
11
2700
21
300
31
0
0
POLYLINE
8
DOOR
66
1
70
0
0
VERTEX
8
DOOR
10
3600
20
1200
30
0
0
VERTEX
8
DOOR
10
3459.209
20
1188.9195
30
0
0
VERTEX
8
DOOR
10
3321.8847
20
1155.9509
30
0
0
VERTEX
8
DOOR
10
3191.4086
20
1101.9059
30
0
0
VERTEX
8
DOOR
10
3070.9933
20
1028.1153
30
0
0
VERTEX
8
DOOR
10
2963.6039
20
936.3961
30
0
0
VERTEX
8
DOOR
10
2871.8847
20
829.0067
30
0
0
VERTEX
8
DOOR
10
2798.0941
20
708.5914
30
0
0
VERTEX
8
DOOR
10
2744.0491
20
578.1153
30
0
0
VERTEX
8
DOOR
10
2711.0805
20
440.791
30
0
0
VERTEX
8
DOOR
10
2700
20
300
30
0
0
SEQEND
8
DOOR
0
CIRCLE
8
PLUMB-DRAIN
10
1800
20
1200
30
0
40
70
0
LINE
8
PLUMB-DRAIN
10
1751
20
1151
30
0
11
1849
21
1249
31
0
0
LINE
8
PLUMB-DRAIN
10
1751
20
1249
30
0
11
1849
21
1151
31
0
0
POLYLINE
8
LIGHT-FIN
66
1
70
1
0
VERTEX
8
LIGHT-FIN
10
2537
20
1116
30
0
0
VERTEX
8
LIGHT-FIN
10
2663
20
1116
30
0
0
VERTEX
8
LIGHT-FIN
10
2663
20
1284
30
0
0
VERTEX
8
LIGHT-FIN
10
2537
20
1284
30
0
0
SEQEND
8
LIGHT-FIN
0
LINE
8
LIGHT-FIN
10
2537
20
1116
30
0
11
2663
21
1284
31
0
0
CIRCLE
8
LIGHT-SHELL
10
3000
20
2400
30
0
40
70
0
CIRCLE
8
LIGHT-SHELL
10
3000
20
2400
30
0
40
11.2
0
CIRCLE
8
LIGHT-SHELL
10
2100
20
2400
30
0
40
70
0
CIRCLE
8
LIGHT-SHELL
10
2100
20
2400
30
0
40
11.2
0
CIRCLE
8
LIGHT-SHELL
10
1200
20
2400
30
0
40
70
0
CIRCLE
8
LIGHT-SHELL
10
1200
20
2400
30
0
40
11.2
0
ENDSEC
0
EOF
