  0
SECTION
  2
HEADER
  9
$ACADVER
  1
AC1015
  9
$HANDSEED
  5
1225
  9
$INSBASE
 10
0.0000
 20
0.0000
 30
0.0000
  9
$EXTMIN
 10
-1000.0000
 20
-3700.0000
 30
0.0000
  9
$EXTMAX
 10
4150.0000
 20
160.0000
 30
0.0000
  9
$DWGCODEPAGE
  3
ansi_1255
  9
$CLAYER
  8
0
  9
$INSUNITS
 70
4
  9
$MEASUREMENT
 70
1
  9
$LWDISPLAY
290
1
  9
$LTSCALE
 40
10.0000
  9
$LIMMIN
 10
0.0000
 20
0.0000
  9
$LIMMAX
 10
2000.0000
 20
200.0000
  0
ENDSEC
  0
SECTION
  2
TABLES
  0
TABLE
  2
VPORT
  5
10EB
330
0
100
AcDbSymbolTable
 70
1
  0
VPORT
  5
10EC
330
10EB
100
AcDbSymbolTableRecord
100
AcDbViewportTableRecord
  2
*ACTIVE
 70
0
 10
0.0000
 20
0.0000
 11
1.0000
 21
1.0000
 12
1575.0000
 22
-1770.0000
 13
0.0000
 23
0.0000
 14
10.0000
 24
10.0000
 15
10.0000
 25
10.0000
 16
0.0000
 26
0.0000
 36
1.0000
 17
0.0000
 27
0.0000
 37
0.0000
 40
4439.0000
 41
1.6000
 42
50.0000
 43
0.0000
 44
0.0000
 50
0.0000
 51
0.0000
 71
0
 72
100
 73
1
 74
1
 75
0
 76
0
 77
0
 78
0
  0
ENDTAB
  0
TABLE
  2
LTYPE
  5
10ED
330
0
100
AcDbSymbolTable
 70
5
  0
LTYPE
  5
10EE
330
10ED
100
AcDbSymbolTableRecord
100
AcDbLinetypeTableRecord
  2
ByBlock
 70
0
  3

 72
65
 73
0
 40
0.0000
  0
LTYPE
  5
10EF
330
10ED
100
AcDbSymbolTableRecord
100
AcDbLinetypeTableRecord
  2
ByLayer
 70
0
  3

 72
65
 73
0
 40
0.0000
  0
LTYPE
  5
10F0
330
10ED
100
AcDbSymbolTableRecord
100
AcDbLinetypeTableRecord
  2
CONTINUOUS
 70
0
  3
Solid line
 72
65
 73
0
 40
0.0000
  0
LTYPE
  5
10F1
330
10ED
100
AcDbSymbolTableRecord
100
AcDbLinetypeTableRecord
  2
HIDDEN
 70
0
  3
Hidden . . . . . .
 72
65
 73
2
 40
9.5250
 49
6.3500
 74
0
 49
-3.1750
 74
0
  0
LTYPE
  5
10F2
330
10ED
100
AcDbSymbolTableRecord
100
AcDbLinetypeTableRecord
  2
CENTER
 70
0
  3
Center ____ _ ____ _ ____
 72
65
 73
4
 40
50.8000
 49
31.7500
 74
0
 49
-6.3500
 74
0
 49
6.3500
 74
0
 49
-6.3500
 74
0
  0
ENDTAB
  0
TABLE
  2
LAYER
  5
10F3
330
0
100
AcDbSymbolTable
 70
71
  0
LAYER
  5
10F4
330
10F3
100
AcDbSymbolTableRecord
100
AcDbLayerTableRecord
  2
0
 70
0
 62
7
  6
CONTINUOUS
370
25
  0
LAYER
  5
10F5
330
10F3
100
AcDbSymbolTableRecord
100
AcDbLayerTableRecord
  2
SOL-KIROT-SYM
 70
0
 62
7
  6
CONTINUOUS
370
50
  0
LAYER
  5
10F6
330
10F3
100
AcDbSymbolTableRecord
100
AcDbLayerTableRecord
  2
SOL-KIROT-HAT
 70
0
 62
8
  6
CONTINUOUS
370
13
  0
LAYER
  5
10F7
330
10F3
100
AcDbSymbolTableRecord
100
AcDbLayerTableRecord
  2
SOL-KIROT-DIM
 70
0
 62
7
  6
CONTINUOUS
370
13
  0
LAYER
  5
10F8
330
10F3
100
AcDbSymbolTableRecord
100
AcDbLayerTableRecord
  2
SOL-KIROT-TXT
 70
0
 62
7
  6
CONTINUOUS
370
18
  0
LAYER
  5
10F9
330
10F3
100
AcDbSymbolTableRecord
100
AcDbLayerTableRecord
  2
SOL-KIROT-HID
 70
0
 62
7
  6
HIDDEN
370
18
  0
LAYER
  5
10FA
330
10F3
100
AcDbSymbolTableRecord
100
AcDbLayerTableRecord
  2
SOL-KIROT-CEN
 70
0
 62
7
  6
CENTER
370
13
  0
LAYER
  5
10FB
330
10F3
100
AcDbSymbolTableRecord
100
AcDbLayerTableRecord
  2
SOL-MIVNE-SYM
 70
0
 62
9
  6
CONTINUOUS
370
35
  0
LAYER
  5
10FC
330
10F3
100
AcDbSymbolTableRecord
100
AcDbLayerTableRecord
  2
SOL-MIVNE-HAT
 70
0
 62
9
  6
CONTINUOUS
370
13
  0
LAYER
  5
10FD
330
10F3
100
AcDbSymbolTableRecord
100
AcDbLayerTableRecord
  2
SOL-MIVNE-DIM
 70
0
 62
9
  6
CONTINUOUS
370
13
  0
LAYER
  5
10FE
330
10F3
100
AcDbSymbolTableRecord
100
AcDbLayerTableRecord
  2
SOL-MIVNE-TXT
 70
0
 62
9
  6
CONTINUOUS
370
18
  0
LAYER
  5
10FF
330
10F3
100
AcDbSymbolTableRecord
100
AcDbLayerTableRecord
  2
SOL-MIVNE-HID
 70
0
 62
9
  6
HIDDEN
370
18
  0
LAYER
  5
1100
330
10F3
100
AcDbSymbolTableRecord
100
AcDbLayerTableRecord
  2
SOL-MIVNE-CEN
 70
0
 62
9
  6
CENTER
370
13
  0
LAYER
  5
1101
330
10F3
100
AcDbSymbolTableRecord
100
AcDbLayerTableRecord
  2
SOL-CHASHMAL-SYM
 70
0
 62
6
  6
CONTINUOUS
370
25
  0
LAYER
  5
1102
330
10F3
100
AcDbSymbolTableRecord
100
AcDbLayerTableRecord
  2
SOL-CHASHMAL-DIM
 70
0
 62
6
  6
CONTINUOUS
370
13
  0
LAYER
  5
1103
330
10F3
100
AcDbSymbolTableRecord
100
AcDbLayerTableRecord
  2
SOL-CHASHMAL-TXT
 70
0
 62
6
  6
CONTINUOUS
370
18
  0
LAYER
  5
1104
330
10F3
100
AcDbSymbolTableRecord
100
AcDbLayerTableRecord
  2
SOL-CHASHMAL-HID
 70
0
 62
6
  6
HIDDEN
370
18
  0
LAYER
  5
1105
330
10F3
100
AcDbSymbolTableRecord
100
AcDbLayerTableRecord
  2
SOL-TEURA-SYM
 70
0
 62
30
  6
CONTINUOUS
370
25
  0
LAYER
  5
1106
330
10F3
100
AcDbSymbolTableRecord
100
AcDbLayerTableRecord
  2
SOL-TEURA-DIM
 70
0
 62
30
  6
CONTINUOUS
370
13
  0
LAYER
  5
1107
330
10F3
100
AcDbSymbolTableRecord
100
AcDbLayerTableRecord
  2
SOL-TEURA-TXT
 70
0
 62
30
  6
CONTINUOUS
370
18
  0
LAYER
  5
1108
330
10F3
100
AcDbSymbolTableRecord
100
AcDbLayerTableRecord
  2
SOL-TEURA-HID
 70
0
 62
30
  6
HIDDEN
370
18
  0
LAYER
  5
1109
330
10F3
100
AcDbSymbolTableRecord
100
AcDbLayerTableRecord
  2
SOL-MAYIM-SYM
 70
0
 62
4
  6
CONTINUOUS
370
25
  0
LAYER
  5
110A
330
10F3
100
AcDbSymbolTableRecord
100
AcDbLayerTableRecord
  2
SOL-MAYIM-DIM
 70
0
 62
4
  6
CONTINUOUS
370
13
  0
LAYER
  5
110B
330
10F3
100
AcDbSymbolTableRecord
100
AcDbLayerTableRecord
  2
SOL-MAYIM-TXT
 70
0
 62
4
  6
CONTINUOUS
370
18
  0
LAYER
  5
110C
330
10F3
100
AcDbSymbolTableRecord
100
AcDbLayerTableRecord
  2
SOL-MAYIM-HID
 70
0
 62
4
  6
HIDDEN
370
18
  0
LAYER
  5
110D
330
10F3
100
AcDbSymbolTableRecord
100
AcDbLayerTableRecord
  2
SOL-MAYIM-CEN
 70
0
 62
4
  6
CENTER
370
13
  0
LAYER
  5
110E
330
10F3
100
AcDbSymbolTableRecord
100
AcDbLayerTableRecord
  2
SOL-NIKUZ-SYM
 70
0
 62
140
  6
CONTINUOUS
370
25
  0
LAYER
  5
110F
330
10F3
100
AcDbSymbolTableRecord
100
AcDbLayerTableRecord
  2
SOL-NIKUZ-DIM
 70
0
 62
140
  6
CONTINUOUS
370
13
  0
LAYER
  5
1110
330
10F3
100
AcDbSymbolTableRecord
100
AcDbLayerTableRecord
  2
SOL-NIKUZ-TXT
 70
0
 62
140
  6
CONTINUOUS
370
18
  0
LAYER
  5
1111
330
10F3
100
AcDbSymbolTableRecord
100
AcDbLayerTableRecord
  2
SOL-NIKUZ-HID
 70
0
 62
140
  6
HIDDEN
370
18
  0
LAYER
  5
1112
330
10F3
100
AcDbSymbolTableRecord
100
AcDbLayerTableRecord
  2
SOL-NIKUZ-CEN
 70
0
 62
140
  6
CENTER
370
13
  0
LAYER
  5
1113
330
10F3
100
AcDbSymbolTableRecord
100
AcDbLayerTableRecord
  2
SOL-GAZ-SYM
 70
0
 62
2
  6
CONTINUOUS
370
25
  0
LAYER
  5
1114
330
10F3
100
AcDbSymbolTableRecord
100
AcDbLayerTableRecord
  2
SOL-GAZ-DIM
 70
0
 62
2
  6
CONTINUOUS
370
13
  0
LAYER
  5
1115
330
10F3
100
AcDbSymbolTableRecord
100
AcDbLayerTableRecord
  2
SOL-GAZ-TXT
 70
0
 62
2
  6
CONTINUOUS
370
18
  0
LAYER
  5
1116
330
10F3
100
AcDbSymbolTableRecord
100
AcDbLayerTableRecord
  2
SOL-GAZ-HID
 70
0
 62
2
  6
HIDDEN
370
18
  0
LAYER
  5
1117
330
10F3
100
AcDbSymbolTableRecord
100
AcDbLayerTableRecord
  2
SOL-GAZ-CEN
 70
0
 62
2
  6
CENTER
370
13
  0
LAYER
  5
1118
330
10F3
100
AcDbSymbolTableRecord
100
AcDbLayerTableRecord
  2
SOL-MIZUG-SYM
 70
0
 62
141
  6
CONTINUOUS
370
25
  0
LAYER
  5
1119
330
10F3
100
AcDbSymbolTableRecord
100
AcDbLayerTableRecord
  2
SOL-MIZUG-DIM
 70
0
 62
141
  6
CONTINUOUS
370
13
  0
LAYER
  5
111A
330
10F3
100
AcDbSymbolTableRecord
100
AcDbLayerTableRecord
  2
SOL-MIZUG-TXT
 70
0
 62
141
  6
CONTINUOUS
370
18
  0
LAYER
  5
111B
330
10F3
100
AcDbSymbolTableRecord
100
AcDbLayerTableRecord
  2
SOL-MIZUG-HID
 70
0
 62
141
  6
HIDDEN
370
18
  0
LAYER
  5
111C
330
10F3
100
AcDbSymbolTableRecord
100
AcDbLayerTableRecord
  2
SOL-IVRUR-SYM
 70
0
 62
131
  6
CONTINUOUS
370
25
  0
LAYER
  5
111D
330
10F3
100
AcDbSymbolTableRecord
100
AcDbLayerTableRecord
  2
SOL-IVRUR-DIM
 70
0
 62
131
  6
CONTINUOUS
370
13
  0
LAYER
  5
111E
330
10F3
100
AcDbSymbolTableRecord
100
AcDbLayerTableRecord
  2
SOL-IVRUR-TXT
 70
0
 62
131
  6
CONTINUOUS
370
18
  0
LAYER
  5
111F
330
10F3
100
AcDbSymbolTableRecord
100
AcDbLayerTableRecord
  2
SOL-IVRUR-HID
 70
0
 62
131
  6
HIDDEN
370
18
  0
LAYER
  5
1120
330
10F3
100
AcDbSymbolTableRecord
100
AcDbLayerTableRecord
  2
SOL-DELET-SYM
 70
0
 62
5
  6
CONTINUOUS
370
25
  0
LAYER
  5
1121
330
10F3
100
AcDbSymbolTableRecord
100
AcDbLayerTableRecord
  2
SOL-DELET-DIM
 70
0
 62
5
  6
CONTINUOUS
370
13
  0
LAYER
  5
1122
330
10F3
100
AcDbSymbolTableRecord
100
AcDbLayerTableRecord
  2
SOL-DELET-TXT
 70
0
 62
5
  6
CONTINUOUS
370
18
  0
LAYER
  5
1123
330
10F3
100
AcDbSymbolTableRecord
100
AcDbLayerTableRecord
  2
SOL-DELET-HID
 70
0
 62
5
  6
HIDDEN
370
18
  0
LAYER
  5
1124
330
10F3
100
AcDbSymbolTableRecord
100
AcDbLayerTableRecord
  2
SOL-DELET-HAT
 70
0
 62
5
  6
CONTINUOUS
370
13
  0
LAYER
  5
1125
330
10F3
100
AcDbSymbolTableRecord
100
AcDbLayerTableRecord
  2
SOL-CHALON-SYM
 70
0
 62
151
  6
CONTINUOUS
370
25
  0
LAYER
  5
1126
330
10F3
100
AcDbSymbolTableRecord
100
AcDbLayerTableRecord
  2
SOL-CHALON-DIM
 70
0
 62
151
  6
CONTINUOUS
370
13
  0
LAYER
  5
1127
330
10F3
100
AcDbSymbolTableRecord
100
AcDbLayerTableRecord
  2
SOL-CHALON-TXT
 70
0
 62
151
  6
CONTINUOUS
370
18
  0
LAYER
  5
1128
330
10F3
100
AcDbSymbolTableRecord
100
AcDbLayerTableRecord
  2
SOL-CHALON-HID
 70
0
 62
151
  6
HIDDEN
370
18
  0
LAYER
  5
1129
330
10F3
100
AcDbSymbolTableRecord
100
AcDbLayerTableRecord
  2
SOL-RIHUT-SYM
 70
0
 62
42
  6
CONTINUOUS
370
25
  0
LAYER
  5
112A
330
10F3
100
AcDbSymbolTableRecord
100
AcDbLayerTableRecord
  2
SOL-RIHUT-DIM
 70
0
 62
42
  6
CONTINUOUS
370
13
  0
LAYER
  5
112B
330
10F3
100
AcDbSymbolTableRecord
100
AcDbLayerTableRecord
  2
SOL-RIHUT-TXT
 70
0
 62
42
  6
CONTINUOUS
370
18
  0
LAYER
  5
112C
330
10F3
100
AcDbSymbolTableRecord
100
AcDbLayerTableRecord
  2
SOL-RIHUT-HID
 70
0
 62
42
  6
HIDDEN
370
18
  0
LAYER
  5
112D
330
10F3
100
AcDbSymbolTableRecord
100
AcDbLayerTableRecord
  2
SOL-MITBACH-SYM
 70
0
 62
52
  6
CONTINUOUS
370
25
  0
LAYER
  5
112E
330
10F3
100
AcDbSymbolTableRecord
100
AcDbLayerTableRecord
  2
SOL-MITBACH-DIM
 70
0
 62
52
  6
CONTINUOUS
370
13
  0
LAYER
  5
112F
330
10F3
100
AcDbSymbolTableRecord
100
AcDbLayerTableRecord
  2
SOL-MITBACH-TXT
 70
0
 62
52
  6
CONTINUOUS
370
18
  0
LAYER
  5
1130
330
10F3
100
AcDbSymbolTableRecord
100
AcDbLayerTableRecord
  2
SOL-MITBACH-HID
 70
0
 62
52
  6
HIDDEN
370
18
  0
LAYER
  5
1131
330
10F3
100
AcDbSymbolTableRecord
100
AcDbLayerTableRecord
  2
SOL-RITZPA-SYM
 70
0
 62
251
  6
CONTINUOUS
370
13
  0
LAYER
  5
1132
330
10F3
100
AcDbSymbolTableRecord
100
AcDbLayerTableRecord
  2
SOL-RITZPA-HAT
 70
0
 62
8
  6
CONTINUOUS
370
13
  0
LAYER
  5
1133
330
10F3
100
AcDbSymbolTableRecord
100
AcDbLayerTableRecord
  2
SOL-MIDOT-PNIM
 70
0
 62
3
  6
CONTINUOUS
370
13
  0
LAYER
  5
1134
330
10F3
100
AcDbSymbolTableRecord
100
AcDbLayerTableRecord
  2
SOL-MIDOT-CHUTS
 70
0
 62
1
  6
CONTINUOUS
370
13
  0
LAYER
  5
1135
330
10F3
100
AcDbSymbolTableRecord
100
AcDbLayerTableRecord
  2
SOL-SHEET-FRAME
 70
0
 62
250
  6
CONTINUOUS
370
18
  0
LAYER
  5
1136
330
10F3
100
AcDbSymbolTableRecord
100
AcDbLayerTableRecord
  2
SOL-SHEET-BORDER
 70
0
 62
255
  6
CONTINUOUS
370
50
  0
LAYER
  5
1137
330
10F3
100
AcDbSymbolTableRecord
100
AcDbLayerTableRecord
  2
SOL-SHEET-LEGEND
 70
0
 62
150
  6
CONTINUOUS
370
18
  0
LAYER
  5
1138
330
10F3
100
AcDbSymbolTableRecord
100
AcDbLayerTableRecord
  2
SOL-SHEET-GRID
 70
0
 62
8
  6
CENTER
370
13
  0
LAYER
  5
1139
330
10F3
100
AcDbSymbolTableRecord
100
AcDbLayerTableRecord
  2
SOL-SHEET-NOTES
 70
0
 62
150
  6
CONTINUOUS
370
18
  0
LAYER
  5
113A
330
10F3
100
AcDbSymbolTableRecord
100
AcDbLayerTableRecord
  2
SOL-SHEET-REV
 70
0
 62
1
  6
CONTINUOUS
370
18
  0
ENDTAB
  0
TABLE
  2
STYLE
  5
113B
330
0
100
AcDbSymbolTable
 70
2
  0
STYLE
  5
113C
330
113B
100
AcDbSymbolTableRecord
100
AcDbTextStyleTableRecord
  2
SOLINE
 70
0
 40
0.0000
 41
1.0000
 50
0.0000
 71
0
 42
2.5000
  3
arial.ttf
  4

  0
STYLE
  5
113D
330
113B
100
AcDbSymbolTableRecord
100
AcDbTextStyleTableRecord
  2
Standard
 70
0
 40
0.0000
 41
1.0000
 50
0.0000
 71
0
 42
2.5000
  3
txt
  4

  0
ENDTAB
  0
TABLE
  2
VIEW
  5
113E
330
0
100
AcDbSymbolTable
 70
0
  0
ENDTAB
  0
TABLE
  2
UCS
  5
113F
330
0
100
AcDbSymbolTable
 70
0
  0
ENDTAB
  0
TABLE
  2
APPID
  5
1140
330
0
100
AcDbSymbolTable
 70
1
  0
APPID
  5
1141
330
1140
100
AcDbSymbolTableRecord
100
AcDbRegAppTableRecord
  2
ACAD
 70
0
  0
ENDTAB
  0
TABLE
  2
DIMSTYLE
  5
1142
330
0
100
AcDbSymbolTable
 70
1
100
AcDbDimStyleTable
  0
DIMSTYLE
105
1143
330
1142
100
AcDbSymbolTableRecord
100
AcDbDimStyleTableRecord
  2
Standard
 70
0
  3

  4

 40
1.0
 41
2.5
 42
0.625
 43
3.75
 44
1.25
 45
0.0
 46
0.0
 47
0.0
 48
0.0
140
2.5
141
2.5
142
0.0
143
0.03937007874
144
1.0
145
0.0
146
1.0
147
0.625
148
0.0
 71
0
 72
0
 73
0
 74
0
 75
0
 76
0
 77
1
 78
8
 79
3
170
0
171
3
172
1
173
0
174
0
175
0
176
0
177
0
178
0
179
2
271
2
272
2
273
2
274
3
275
0
276
0
277
2
278
44
279
0
280
0
281
0
282
0
283
0
284
8
285
0
286
0
288
0
289
3
371
-2
372
-2
  0
ENDTAB
  0
TABLE
  2
BLOCK_RECORD
  5
1144
330
0
100
AcDbSymbolTable
 70
8
  0
BLOCK_RECORD
  5
1145
330
1144
100
AcDbSymbolTableRecord
100
AcDbBlockTableRecord
  2
*Model_Space
 70
0
  0
BLOCK_RECORD
  5
1146
330
1144
100
AcDbSymbolTableRecord
100
AcDbBlockTableRecord
  2
*Paper_Space
 70
0
  0
BLOCK_RECORD
  5
1147
330
1144
100
AcDbSymbolTableRecord
100
AcDbBlockTableRecord
  2
SOCKET
 70
0
  0
BLOCK_RECORD
  5
1148
330
1144
100
AcDbSymbolTableRecord
100
AcDbBlockTableRecord
  2
DUPLEXSWITCH
 70
0
  0
BLOCK_RECORD
  5
1149
330
1144
100
AcDbSymbolTableRecord
100
AcDbBlockTableRecord
  2
CONTROLBOX
 70
0
  0
BLOCK_RECORD
  5
114A
330
1144
100
AcDbSymbolTableRecord
100
AcDbBlockTableRecord
  2
LIGHTING
 70
0
  0
BLOCK_RECORD
  5
114B
330
1144
100
AcDbSymbolTableRecord
100
AcDbBlockTableRecord
  2
FAUCET
 70
0
  0
BLOCK_RECORD
  5
114C
330
1144
100
AcDbSymbolTableRecord
100
AcDbBlockTableRecord
  2
GAS
 70
0
  0
ENDTAB
  0
ENDSEC
  0
SECTION
  2
BLOCKS
  0
BLOCK
  5
114D
330
1145
100
AcDbEntity
  8
0
100
AcDbBlockBegin
  2
*Model_Space
 70
0
 10
0.0000
 20
0.0000
 30
0.0000
  3
*Model_Space
  1

  0
ENDBLK
  5
114E
330
1145
100
AcDbEntity
  8
0
100
AcDbBlockEnd
  0
BLOCK
  5
114F
330
1146
100
AcDbEntity
  8
0
100
AcDbBlockBegin
  2
*Paper_Space
 70
0
 10
0.0000
 20
0.0000
 30
0.0000
  3
*Paper_Space
  1

  0
ENDBLK
  5
1150
330
1146
100
AcDbEntity
  8
0
100
AcDbBlockEnd
  0
BLOCK
  5
1151
330
1147
100
AcDbEntity
  8
0
100
AcDbBlockBegin
  2
SOCKET
 70
0
 10
0.0000
 20
0.0000
 30
0.0000
  3
SOCKET
  1

  0
3DFACE
  5
1152
  8
0
 10
-35.0000
 20
-40.0000
 30
0.0000
 11
35.0000
 21
-40.0000
 31
0.0000
 12
35.0000
 22
0.0000
 32
0.0000
 13
-35.0000
 23
0.0000
 33
0.0000
  0
3DFACE
  5
1153
  8
0
 10
-35.0000
 20
-40.0000
 30
70.0000
 11
35.0000
 21
-40.0000
 31
70.0000
 12
35.0000
 22
0.0000
 32
70.0000
 13
-35.0000
 23
0.0000
 33
70.0000
  0
3DFACE
  5
1154
  8
0
 10
-35.0000
 20
-40.0000
 30
0.0000
 11
35.0000
 21
-40.0000
 31
0.0000
 12
35.0000
 22
-40.0000
 32
70.0000
 13
-35.0000
 23
-40.0000
 33
70.0000
  0
3DFACE
  5
1155
  8
0
 10
-35.0000
 20
0.0000
 30
0.0000
 11
35.0000
 21
0.0000
 31
0.0000
 12
35.0000
 22
0.0000
 32
70.0000
 13
-35.0000
 23
0.0000
 33
70.0000
  0
3DFACE
  5
1156
  8
0
 10
-35.0000
 20
-40.0000
 30
0.0000
 11
-35.0000
 21
0.0000
 31
0.0000
 12
-35.0000
 22
0.0000
 32
70.0000
 13
-35.0000
 23
-40.0000
 33
70.0000
  0
3DFACE
  5
1157
  8
0
 10
35.0000
 20
-40.0000
 30
0.0000
 11
35.0000
 21
0.0000
 31
0.0000
 12
35.0000
 22
0.0000
 32
70.0000
 13
35.0000
 23
-40.0000
 33
70.0000
  0
3DFACE
  5
1158
  8
0
 10
-45.0000
 20
0.0000
 30
-8.0000
 11
45.0000
 21
0.0000
 31
-8.0000
 12
45.0000
 22
8.0000
 32
-8.0000
 13
-45.0000
 23
8.0000
 33
-8.0000
  0
3DFACE
  5
1159
  8
0
 10
-45.0000
 20
0.0000
 30
78.0000
 11
45.0000
 21
0.0000
 31
78.0000
 12
45.0000
 22
8.0000
 32
78.0000
 13
-45.0000
 23
8.0000
 33
78.0000
  0
3DFACE
  5
115A
  8
0
 10
-45.0000
 20
0.0000
 30
-8.0000
 11
45.0000
 21
0.0000
 31
-8.0000
 12
45.0000
 22
0.0000
 32
78.0000
 13
-45.0000
 23
0.0000
 33
78.0000
  0
3DFACE
  5
115B
  8
0
 10
-45.0000
 20
8.0000
 30
-8.0000
 11
45.0000
 21
8.0000
 31
-8.0000
 12
45.0000
 22
8.0000
 32
78.0000
 13
-45.0000
 23
8.0000
 33
78.0000
  0
3DFACE
  5
115C
  8
0
 10
-45.0000
 20
0.0000
 30
-8.0000
 11
-45.0000
 21
8.0000
 31
-8.0000
 12
-45.0000
 22
8.0000
 32
78.0000
 13
-45.0000
 23
0.0000
 33
78.0000
  0
3DFACE
  5
115D
  8
0
 10
45.0000
 20
0.0000
 30
-8.0000
 11
45.0000
 21
8.0000
 31
-8.0000
 12
45.0000
 22
8.0000
 32
78.0000
 13
45.0000
 23
0.0000
 33
78.0000
  0
3DFACE
  5
115E
  8
0
 10
-16.0000
 20
8.0000
 30
20.0000
 11
16.0000
 21
8.0000
 31
20.0000
 12
16.0000
 22
14.0000
 32
20.0000
 13
-16.0000
 23
14.0000
 33
20.0000
  0
3DFACE
  5
115F
  8
0
 10
-16.0000
 20
8.0000
 30
50.0000
 11
16.0000
 21
8.0000
 31
50.0000
 12
16.0000
 22
14.0000
 32
50.0000
 13
-16.0000
 23
14.0000
 33
50.0000
  0
3DFACE
  5
1160
  8
0
 10
-16.0000
 20
8.0000
 30
20.0000
 11
16.0000
 21
8.0000
 31
20.0000
 12
16.0000
 22
8.0000
 32
50.0000
 13
-16.0000
 23
8.0000
 33
50.0000
  0
3DFACE
  5
1161
  8
0
 10
-16.0000
 20
14.0000
 30
20.0000
 11
16.0000
 21
14.0000
 31
20.0000
 12
16.0000
 22
14.0000
 32
50.0000
 13
-16.0000
 23
14.0000
 33
50.0000
  0
3DFACE
  5
1162
  8
0
 10
-16.0000
 20
8.0000
 30
20.0000
 11
-16.0000
 21
14.0000
 31
20.0000
 12
-16.0000
 22
14.0000
 32
50.0000
 13
-16.0000
 23
8.0000
 33
50.0000
  0
3DFACE
  5
1163
  8
0
 10
16.0000
 20
8.0000
 30
20.0000
 11
16.0000
 21
14.0000
 31
20.0000
 12
16.0000
 22
14.0000
 32
50.0000
 13
16.0000
 23
8.0000
 33
50.0000
  0
3DFACE
  5
1164
  8
0
 10
-12.0000
 20
14.0000
 30
30.0000
 11
-4.0000
 21
14.0000
 31
30.0000
 12
-4.0000
 22
18.0000
 32
30.0000
 13
-12.0000
 23
18.0000
 33
30.0000
  0
3DFACE
  5
1165
  8
0
 10
-12.0000
 20
14.0000
 30
44.0000
 11
-4.0000
 21
14.0000
 31
44.0000
 12
-4.0000
 22
18.0000
 32
44.0000
 13
-12.0000
 23
18.0000
 33
44.0000
  0
3DFACE
  5
1166
  8
0
 10
-12.0000
 20
14.0000
 30
30.0000
 11
-4.0000
 21
14.0000
 31
30.0000
 12
-4.0000
 22
14.0000
 32
44.0000
 13
-12.0000
 23
14.0000
 33
44.0000
  0
3DFACE
  5
1167
  8
0
 10
-12.0000
 20
18.0000
 30
30.0000
 11
-4.0000
 21
18.0000
 31
30.0000
 12
-4.0000
 22
18.0000
 32
44.0000
 13
-12.0000
 23
18.0000
 33
44.0000
  0
3DFACE
  5
1168
  8
0
 10
-12.0000
 20
14.0000
 30
30.0000
 11
-12.0000
 21
18.0000
 31
30.0000
 12
-12.0000
 22
18.0000
 32
44.0000
 13
-12.0000
 23
14.0000
 33
44.0000
  0
3DFACE
  5
1169
  8
0
 10
-4.0000
 20
14.0000
 30
30.0000
 11
-4.0000
 21
18.0000
 31
30.0000
 12
-4.0000
 22
18.0000
 32
44.0000
 13
-4.0000
 23
14.0000
 33
44.0000
  0
3DFACE
  5
116A
  8
0
 10
4.0000
 20
14.0000
 30
30.0000
 11
12.0000
 21
14.0000
 31
30.0000
 12
12.0000
 22
18.0000
 32
30.0000
 13
4.0000
 23
18.0000
 33
30.0000
  0
3DFACE
  5
116B
  8
0
 10
4.0000
 20
14.0000
 30
44.0000
 11
12.0000
 21
14.0000
 31
44.0000
 12
12.0000
 22
18.0000
 32
44.0000
 13
4.0000
 23
18.0000
 33
44.0000
  0
3DFACE
  5
116C
  8
0
 10
4.0000
 20
14.0000
 30
30.0000
 11
12.0000
 21
14.0000
 31
30.0000
 12
12.0000
 22
14.0000
 32
44.0000
 13
4.0000
 23
14.0000
 33
44.0000
  0
3DFACE
  5
116D
  8
0
 10
4.0000
 20
18.0000
 30
30.0000
 11
12.0000
 21
18.0000
 31
30.0000
 12
12.0000
 22
18.0000
 32
44.0000
 13
4.0000
 23
18.0000
 33
44.0000
  0
3DFACE
  5
116E
  8
0
 10
4.0000
 20
14.0000
 30
30.0000
 11
4.0000
 21
18.0000
 31
30.0000
 12
4.0000
 22
18.0000
 32
44.0000
 13
4.0000
 23
14.0000
 33
44.0000
  0
3DFACE
  5
116F
  8
0
 10
12.0000
 20
14.0000
 30
30.0000
 11
12.0000
 21
18.0000
 31
30.0000
 12
12.0000
 22
18.0000
 32
44.0000
 13
12.0000
 23
14.0000
 33
44.0000
  0
ENDBLK
  5
1170
330
1147
100
AcDbEntity
  8
0
100
AcDbBlockEnd
  0
BLOCK
  5
1171
330
1148
100
AcDbEntity
  8
0
100
AcDbBlockBegin
  2
DUPLEXSWITCH
 70
0
 10
0.0000
 20
0.0000
 30
0.0000
  3
DUPLEXSWITCH
  1

  0
3DFACE
  5
1172
  8
0
 10
-72.0000
 20
-40.0000
 30
0.0000
 11
-2.0000
 21
-40.0000
 31
0.0000
 12
-2.0000
 22
0.0000
 32
0.0000
 13
-72.0000
 23
0.0000
 33
0.0000
  0
3DFACE
  5
1173
  8
0
 10
-72.0000
 20
-40.0000
 30
70.0000
 11
-2.0000
 21
-40.0000
 31
70.0000
 12
-2.0000
 22
0.0000
 32
70.0000
 13
-72.0000
 23
0.0000
 33
70.0000
  0
3DFACE
  5
1174
  8
0
 10
-72.0000
 20
-40.0000
 30
0.0000
 11
-2.0000
 21
-40.0000
 31
0.0000
 12
-2.0000
 22
-40.0000
 32
70.0000
 13
-72.0000
 23
-40.0000
 33
70.0000
  0
3DFACE
  5
1175
  8
0
 10
-72.0000
 20
0.0000
 30
0.0000
 11
-2.0000
 21
0.0000
 31
0.0000
 12
-2.0000
 22
0.0000
 32
70.0000
 13
-72.0000
 23
0.0000
 33
70.0000
  0
3DFACE
  5
1176
  8
0
 10
-72.0000
 20
-40.0000
 30
0.0000
 11
-72.0000
 21
0.0000
 31
0.0000
 12
-72.0000
 22
0.0000
 32
70.0000
 13
-72.0000
 23
-40.0000
 33
70.0000
  0
3DFACE
  5
1177
  8
0
 10
-2.0000
 20
-40.0000
 30
0.0000
 11
-2.0000
 21
0.0000
 31
0.0000
 12
-2.0000
 22
0.0000
 32
70.0000
 13
-2.0000
 23
-40.0000
 33
70.0000
  0
3DFACE
  5
1178
  8
0
 10
-82.0000
 20
0.0000
 30
-8.0000
 11
8.0000
 21
0.0000
 31
-8.0000
 12
8.0000
 22
8.0000
 32
-8.0000
 13
-82.0000
 23
8.0000
 33
-8.0000
  0
3DFACE
  5
1179
  8
0
 10
-82.0000
 20
0.0000
 30
78.0000
 11
8.0000
 21
0.0000
 31
78.0000
 12
8.0000
 22
8.0000
 32
78.0000
 13
-82.0000
 23
8.0000
 33
78.0000
  0
3DFACE
  5
117A
  8
0
 10
-82.0000
 20
0.0000
 30
-8.0000
 11
8.0000
 21
0.0000
 31
-8.0000
 12
8.0000
 22
0.0000
 32
78.0000
 13
-82.0000
 23
0.0000
 33
78.0000
  0
3DFACE
  5
117B
  8
0
 10
-82.0000
 20
8.0000
 30
-8.0000
 11
8.0000
 21
8.0000
 31
-8.0000
 12
8.0000
 22
8.0000
 32
78.0000
 13
-82.0000
 23
8.0000
 33
78.0000
  0
3DFACE
  5
117C
  8
0
 10
-82.0000
 20
0.0000
 30
-8.0000
 11
-82.0000
 21
8.0000
 31
-8.0000
 12
-82.0000
 22
8.0000
 32
78.0000
 13
-82.0000
 23
0.0000
 33
78.0000
  0
3DFACE
  5
117D
  8
0
 10
8.0000
 20
0.0000
 30
-8.0000
 11
8.0000
 21
8.0000
 31
-8.0000
 12
8.0000
 22
8.0000
 32
78.0000
 13
8.0000
 23
0.0000
 33
78.0000
  0
3DFACE
  5
117E
  8
0
 10
-53.0000
 20
8.0000
 30
20.0000
 11
-21.0000
 21
8.0000
 31
20.0000
 12
-21.0000
 22
14.0000
 32
20.0000
 13
-53.0000
 23
14.0000
 33
20.0000
  0
3DFACE
  5
117F
  8
0
 10
-53.0000
 20
8.0000
 30
50.0000
 11
-21.0000
 21
8.0000
 31
50.0000
 12
-21.0000
 22
14.0000
 32
50.0000
 13
-53.0000
 23
14.0000
 33
50.0000
  0
3DFACE
  5
1180
  8
0
 10
-53.0000
 20
8.0000
 30
20.0000
 11
-21.0000
 21
8.0000
 31
20.0000
 12
-21.0000
 22
8.0000
 32
50.0000
 13
-53.0000
 23
8.0000
 33
50.0000
  0
3DFACE
  5
1181
  8
0
 10
-53.0000
 20
14.0000
 30
20.0000
 11
-21.0000
 21
14.0000
 31
20.0000
 12
-21.0000
 22
14.0000
 32
50.0000
 13
-53.0000
 23
14.0000
 33
50.0000
  0
3DFACE
  5
1182
  8
0
 10
-53.0000
 20
8.0000
 30
20.0000
 11
-53.0000
 21
14.0000
 31
20.0000
 12
-53.0000
 22
14.0000
 32
50.0000
 13
-53.0000
 23
8.0000
 33
50.0000
  0
3DFACE
  5
1183
  8
0
 10
-21.0000
 20
8.0000
 30
20.0000
 11
-21.0000
 21
14.0000
 31
20.0000
 12
-21.0000
 22
14.0000
 32
50.0000
 13
-21.0000
 23
8.0000
 33
50.0000
  0
3DFACE
  5
1184
  8
0
 10
-49.0000
 20
14.0000
 30
30.0000
 11
-41.0000
 21
14.0000
 31
30.0000
 12
-41.0000
 22
18.0000
 32
30.0000
 13
-49.0000
 23
18.0000
 33
30.0000
  0
3DFACE
  5
1185
  8
0
 10
-49.0000
 20
14.0000
 30
44.0000
 11
-41.0000
 21
14.0000
 31
44.0000
 12
-41.0000
 22
18.0000
 32
44.0000
 13
-49.0000
 23
18.0000
 33
44.0000
  0
3DFACE
  5
1186
  8
0
 10
-49.0000
 20
14.0000
 30
30.0000
 11
-41.0000
 21
14.0000
 31
30.0000
 12
-41.0000
 22
14.0000
 32
44.0000
 13
-49.0000
 23
14.0000
 33
44.0000
  0
3DFACE
  5
1187
  8
0
 10
-49.0000
 20
18.0000
 30
30.0000
 11
-41.0000
 21
18.0000
 31
30.0000
 12
-41.0000
 22
18.0000
 32
44.0000
 13
-49.0000
 23
18.0000
 33
44.0000
  0
3DFACE
  5
1188
  8
0
 10
-49.0000
 20
14.0000
 30
30.0000
 11
-49.0000
 21
18.0000
 31
30.0000
 12
-49.0000
 22
18.0000
 32
44.0000
 13
-49.0000
 23
14.0000
 33
44.0000
  0
3DFACE
  5
1189
  8
0
 10
-41.0000
 20
14.0000
 30
30.0000
 11
-41.0000
 21
18.0000
 31
30.0000
 12
-41.0000
 22
18.0000
 32
44.0000
 13
-41.0000
 23
14.0000
 33
44.0000
  0
3DFACE
  5
118A
  8
0
 10
-33.0000
 20
14.0000
 30
30.0000
 11
-25.0000
 21
14.0000
 31
30.0000
 12
-25.0000
 22
18.0000
 32
30.0000
 13
-33.0000
 23
18.0000
 33
30.0000
  0
3DFACE
  5
118B
  8
0
 10
-33.0000
 20
14.0000
 30
44.0000
 11
-25.0000
 21
14.0000
 31
44.0000
 12
-25.0000
 22
18.0000
 32
44.0000
 13
-33.0000
 23
18.0000
 33
44.0000
  0
3DFACE
  5
118C
  8
0
 10
-33.0000
 20
14.0000
 30
30.0000
 11
-25.0000
 21
14.0000
 31
30.0000
 12
-25.0000
 22
14.0000
 32
44.0000
 13
-33.0000
 23
14.0000
 33
44.0000
  0
3DFACE
  5
118D
  8
0
 10
-33.0000
 20
18.0000
 30
30.0000
 11
-25.0000
 21
18.0000
 31
30.0000
 12
-25.0000
 22
18.0000
 32
44.0000
 13
-33.0000
 23
18.0000
 33
44.0000
  0
3DFACE
  5
118E
  8
0
 10
-33.0000
 20
14.0000
 30
30.0000
 11
-33.0000
 21
18.0000
 31
30.0000
 12
-33.0000
 22
18.0000
 32
44.0000
 13
-33.0000
 23
14.0000
 33
44.0000
  0
3DFACE
  5
118F
  8
0
 10
-25.0000
 20
14.0000
 30
30.0000
 11
-25.0000
 21
18.0000
 31
30.0000
 12
-25.0000
 22
18.0000
 32
44.0000
 13
-25.0000
 23
14.0000
 33
44.0000
  0
3DFACE
  5
1190
  8
0
 10
2.0000
 20
-40.0000
 30
0.0000
 11
72.0000
 21
-40.0000
 31
0.0000
 12
72.0000
 22
0.0000
 32
0.0000
 13
2.0000
 23
0.0000
 33
0.0000
  0
3DFACE
  5
1191
  8
0
 10
2.0000
 20
-40.0000
 30
70.0000
 11
72.0000
 21
-40.0000
 31
70.0000
 12
72.0000
 22
0.0000
 32
70.0000
 13
2.0000
 23
0.0000
 33
70.0000
  0
3DFACE
  5
1192
  8
0
 10
2.0000
 20
-40.0000
 30
0.0000
 11
72.0000
 21
-40.0000
 31
0.0000
 12
72.0000
 22
-40.0000
 32
70.0000
 13
2.0000
 23
-40.0000
 33
70.0000
  0
3DFACE
  5
1193
  8
0
 10
2.0000
 20
0.0000
 30
0.0000
 11
72.0000
 21
0.0000
 31
0.0000
 12
72.0000
 22
0.0000
 32
70.0000
 13
2.0000
 23
0.0000
 33
70.0000
  0
3DFACE
  5
1194
  8
0
 10
2.0000
 20
-40.0000
 30
0.0000
 11
2.0000
 21
0.0000
 31
0.0000
 12
2.0000
 22
0.0000
 32
70.0000
 13
2.0000
 23
-40.0000
 33
70.0000
  0
3DFACE
  5
1195
  8
0
 10
72.0000
 20
-40.0000
 30
0.0000
 11
72.0000
 21
0.0000
 31
0.0000
 12
72.0000
 22
0.0000
 32
70.0000
 13
72.0000
 23
-40.0000
 33
70.0000
  0
3DFACE
  5
1196
  8
0
 10
-8.0000
 20
0.0000
 30
-8.0000
 11
82.0000
 21
0.0000
 31
-8.0000
 12
82.0000
 22
8.0000
 32
-8.0000
 13
-8.0000
 23
8.0000
 33
-8.0000
  0
3DFACE
  5
1197
  8
0
 10
-8.0000
 20
0.0000
 30
78.0000
 11
82.0000
 21
0.0000
 31
78.0000
 12
82.0000
 22
8.0000
 32
78.0000
 13
-8.0000
 23
8.0000
 33
78.0000
  0
3DFACE
  5
1198
  8
0
 10
-8.0000
 20
0.0000
 30
-8.0000
 11
82.0000
 21
0.0000
 31
-8.0000
 12
82.0000
 22
0.0000
 32
78.0000
 13
-8.0000
 23
0.0000
 33
78.0000
  0
3DFACE
  5
1199
  8
0
 10
-8.0000
 20
8.0000
 30
-8.0000
 11
82.0000
 21
8.0000
 31
-8.0000
 12
82.0000
 22
8.0000
 32
78.0000
 13
-8.0000
 23
8.0000
 33
78.0000
  0
3DFACE
  5
119A
  8
0
 10
-8.0000
 20
0.0000
 30
-8.0000
 11
-8.0000
 21
8.0000
 31
-8.0000
 12
-8.0000
 22
8.0000
 32
78.0000
 13
-8.0000
 23
0.0000
 33
78.0000
  0
3DFACE
  5
119B
  8
0
 10
82.0000
 20
0.0000
 30
-8.0000
 11
82.0000
 21
8.0000
 31
-8.0000
 12
82.0000
 22
8.0000
 32
78.0000
 13
82.0000
 23
0.0000
 33
78.0000
  0
3DFACE
  5
119C
  8
0
 10
21.0000
 20
8.0000
 30
20.0000
 11
53.0000
 21
8.0000
 31
20.0000
 12
53.0000
 22
14.0000
 32
20.0000
 13
21.0000
 23
14.0000
 33
20.0000
  0
3DFACE
  5
119D
  8
0
 10
21.0000
 20
8.0000
 30
50.0000
 11
53.0000
 21
8.0000
 31
50.0000
 12
53.0000
 22
14.0000
 32
50.0000
 13
21.0000
 23
14.0000
 33
50.0000
  0
3DFACE
  5
119E
  8
0
 10
21.0000
 20
8.0000
 30
20.0000
 11
53.0000
 21
8.0000
 31
20.0000
 12
53.0000
 22
8.0000
 32
50.0000
 13
21.0000
 23
8.0000
 33
50.0000
  0
3DFACE
  5
119F
  8
0
 10
21.0000
 20
14.0000
 30
20.0000
 11
53.0000
 21
14.0000
 31
20.0000
 12
53.0000
 22
14.0000
 32
50.0000
 13
21.0000
 23
14.0000
 33
50.0000
  0
3DFACE
  5
11A0
  8
0
 10
21.0000
 20
8.0000
 30
20.0000
 11
21.0000
 21
14.0000
 31
20.0000
 12
21.0000
 22
14.0000
 32
50.0000
 13
21.0000
 23
8.0000
 33
50.0000
  0
3DFACE
  5
11A1
  8
0
 10
53.0000
 20
8.0000
 30
20.0000
 11
53.0000
 21
14.0000
 31
20.0000
 12
53.0000
 22
14.0000
 32
50.0000
 13
53.0000
 23
8.0000
 33
50.0000
  0
3DFACE
  5
11A2
  8
0
 10
25.0000
 20
14.0000
 30
30.0000
 11
33.0000
 21
14.0000
 31
30.0000
 12
33.0000
 22
18.0000
 32
30.0000
 13
25.0000
 23
18.0000
 33
30.0000
  0
3DFACE
  5
11A3
  8
0
 10
25.0000
 20
14.0000
 30
44.0000
 11
33.0000
 21
14.0000
 31
44.0000
 12
33.0000
 22
18.0000
 32
44.0000
 13
25.0000
 23
18.0000
 33
44.0000
  0
3DFACE
  5
11A4
  8
0
 10
25.0000
 20
14.0000
 30
30.0000
 11
33.0000
 21
14.0000
 31
30.0000
 12
33.0000
 22
14.0000
 32
44.0000
 13
25.0000
 23
14.0000
 33
44.0000
  0
3DFACE
  5
11A5
  8
0
 10
25.0000
 20
18.0000
 30
30.0000
 11
33.0000
 21
18.0000
 31
30.0000
 12
33.0000
 22
18.0000
 32
44.0000
 13
25.0000
 23
18.0000
 33
44.0000
  0
3DFACE
  5
11A6
  8
0
 10
25.0000
 20
14.0000
 30
30.0000
 11
25.0000
 21
18.0000
 31
30.0000
 12
25.0000
 22
18.0000
 32
44.0000
 13
25.0000
 23
14.0000
 33
44.0000
  0
3DFACE
  5
11A7
  8
0
 10
33.0000
 20
14.0000
 30
30.0000
 11
33.0000
 21
18.0000
 31
30.0000
 12
33.0000
 22
18.0000
 32
44.0000
 13
33.0000
 23
14.0000
 33
44.0000
  0
3DFACE
  5
11A8
  8
0
 10
41.0000
 20
14.0000
 30
30.0000
 11
49.0000
 21
14.0000
 31
30.0000
 12
49.0000
 22
18.0000
 32
30.0000
 13
41.0000
 23
18.0000
 33
30.0000
  0
3DFACE
  5
11A9
  8
0
 10
41.0000
 20
14.0000
 30
44.0000
 11
49.0000
 21
14.0000
 31
44.0000
 12
49.0000
 22
18.0000
 32
44.0000
 13
41.0000
 23
18.0000
 33
44.0000
  0
3DFACE
  5
11AA
  8
0
 10
41.0000
 20
14.0000
 30
30.0000
 11
49.0000
 21
14.0000
 31
30.0000
 12
49.0000
 22
14.0000
 32
44.0000
 13
41.0000
 23
14.0000
 33
44.0000
  0
3DFACE
  5
11AB
  8
0
 10
41.0000
 20
18.0000
 30
30.0000
 11
49.0000
 21
18.0000
 31
30.0000
 12
49.0000
 22
18.0000
 32
44.0000
 13
41.0000
 23
18.0000
 33
44.0000
  0
3DFACE
  5
11AC
  8
0
 10
41.0000
 20
14.0000
 30
30.0000
 11
41.0000
 21
18.0000
 31
30.0000
 12
41.0000
 22
18.0000
 32
44.0000
 13
41.0000
 23
14.0000
 33
44.0000
  0
3DFACE
  5
11AD
  8
0
 10
49.0000
 20
14.0000
 30
30.0000
 11
49.0000
 21
18.0000
 31
30.0000
 12
49.0000
 22
18.0000
 32
44.0000
 13
49.0000
 23
14.0000
 33
44.0000
  0
ENDBLK
  5
11AE
330
1148
100
AcDbEntity
  8
0
100
AcDbBlockEnd
  0
BLOCK
  5
11AF
330
1149
100
AcDbEntity
  8
0
100
AcDbBlockBegin
  2
CONTROLBOX
 70
0
 10
0.0000
 20
0.0000
 30
0.0000
  3
CONTROLBOX
  1

  0
3DFACE
  5
11B0
  8
0
 10
-100.0000
 20
-40.0000
 30
-150.0000
 11
100.0000
 21
-40.0000
 31
-150.0000
 12
100.0000
 22
0.0000
 32
-150.0000
 13
-100.0000
 23
0.0000
 33
-150.0000
  0
3DFACE
  5
11B1
  8
0
 10
-100.0000
 20
-40.0000
 30
150.0000
 11
100.0000
 21
-40.0000
 31
150.0000
 12
100.0000
 22
0.0000
 32
150.0000
 13
-100.0000
 23
0.0000
 33
150.0000
  0
3DFACE
  5
11B2
  8
0
 10
-100.0000
 20
-40.0000
 30
-150.0000
 11
100.0000
 21
-40.0000
 31
-150.0000
 12
100.0000
 22
-40.0000
 32
150.0000
 13
-100.0000
 23
-40.0000
 33
150.0000
  0
3DFACE
  5
11B3
  8
0
 10
-100.0000
 20
0.0000
 30
-150.0000
 11
100.0000
 21
0.0000
 31
-150.0000
 12
100.0000
 22
0.0000
 32
150.0000
 13
-100.0000
 23
0.0000
 33
150.0000
  0
3DFACE
  5
11B4
  8
0
 10
-100.0000
 20
-40.0000
 30
-150.0000
 11
-100.0000
 21
0.0000
 31
-150.0000
 12
-100.0000
 22
0.0000
 32
150.0000
 13
-100.0000
 23
-40.0000
 33
150.0000
  0
3DFACE
  5
11B5
  8
0
 10
100.0000
 20
-40.0000
 30
-150.0000
 11
100.0000
 21
0.0000
 31
-150.0000
 12
100.0000
 22
0.0000
 32
150.0000
 13
100.0000
 23
-40.0000
 33
150.0000
  0
3DFACE
  5
11B6
  8
0
 10
-96.0000
 20
0.0000
 30
-146.0000
 11
96.0000
 21
0.0000
 31
-146.0000
 12
96.0000
 22
10.0000
 32
-146.0000
 13
-96.0000
 23
10.0000
 33
-146.0000
  0
3DFACE
  5
11B7
  8
0
 10
-96.0000
 20
0.0000
 30
146.0000
 11
96.0000
 21
0.0000
 31
146.0000
 12
96.0000
 22
10.0000
 32
146.0000
 13
-96.0000
 23
10.0000
 33
146.0000
  0
3DFACE
  5
11B8
  8
0
 10
-96.0000
 20
0.0000
 30
-146.0000
 11
96.0000
 21
0.0000
 31
-146.0000
 12
96.0000
 22
0.0000
 32
146.0000
 13
-96.0000
 23
0.0000
 33
146.0000
  0
3DFACE
  5
11B9
  8
0
 10
-96.0000
 20
10.0000
 30
-146.0000
 11
96.0000
 21
10.0000
 31
-146.0000
 12
96.0000
 22
10.0000
 32
146.0000
 13
-96.0000
 23
10.0000
 33
146.0000
  0
3DFACE
  5
11BA
  8
0
 10
-96.0000
 20
0.0000
 30
-146.0000
 11
-96.0000
 21
10.0000
 31
-146.0000
 12
-96.0000
 22
10.0000
 32
146.0000
 13
-96.0000
 23
0.0000
 33
146.0000
  0
3DFACE
  5
11BB
  8
0
 10
96.0000
 20
0.0000
 30
-146.0000
 11
96.0000
 21
10.0000
 31
-146.0000
 12
96.0000
 22
10.0000
 32
146.0000
 13
96.0000
 23
0.0000
 33
146.0000
  0
ENDBLK
  5
11BC
330
1149
100
AcDbEntity
  8
0
100
AcDbBlockEnd
  0
BLOCK
  5
11BD
330
114A
100
AcDbEntity
  8
0
100
AcDbBlockBegin
  2
LIGHTING
 70
0
 10
0.0000
 20
0.0000
 30
0.0000
  3
LIGHTING
  1

  0
3DFACE
  5
11BE
  8
0
 10
-60.0000
 20
-30.0000
 30
-60.0000
 11
60.0000
 21
-30.0000
 31
-60.0000
 12
60.0000
 22
0.0000
 32
-60.0000
 13
-60.0000
 23
0.0000
 33
-60.0000
  0
3DFACE
  5
11BF
  8
0
 10
-60.0000
 20
-30.0000
 30
60.0000
 11
60.0000
 21
-30.0000
 31
60.0000
 12
60.0000
 22
0.0000
 32
60.0000
 13
-60.0000
 23
0.0000
 33
60.0000
  0
3DFACE
  5
11C0
  8
0
 10
-60.0000
 20
-30.0000
 30
-60.0000
 11
60.0000
 21
-30.0000
 31
-60.0000
 12
60.0000
 22
-30.0000
 32
60.0000
 13
-60.0000
 23
-30.0000
 33
60.0000
  0
3DFACE
  5
11C1
  8
0
 10
-60.0000
 20
0.0000
 30
-60.0000
 11
60.0000
 21
0.0000
 31
-60.0000
 12
60.0000
 22
0.0000
 32
60.0000
 13
-60.0000
 23
0.0000
 33
60.0000
  0
3DFACE
  5
11C2
  8
0
 10
-60.0000
 20
-30.0000
 30
-60.0000
 11
-60.0000
 21
0.0000
 31
-60.0000
 12
-60.0000
 22
0.0000
 32
60.0000
 13
-60.0000
 23
-30.0000
 33
60.0000
  0
3DFACE
  5
11C3
  8
0
 10
60.0000
 20
-30.0000
 30
-60.0000
 11
60.0000
 21
0.0000
 31
-60.0000
 12
60.0000
 22
0.0000
 32
60.0000
 13
60.0000
 23
-30.0000
 33
60.0000
  0
3DFACE
  5
11C4
  8
0
 10
-50.0000
 20
0.0000
 30
-50.0000
 11
50.0000
 21
0.0000
 31
-50.0000
 12
50.0000
 22
6.0000
 32
-50.0000
 13
-50.0000
 23
6.0000
 33
-50.0000
  0
3DFACE
  5
11C5
  8
0
 10
-50.0000
 20
0.0000
 30
50.0000
 11
50.0000
 21
0.0000
 31
50.0000
 12
50.0000
 22
6.0000
 32
50.0000
 13
-50.0000
 23
6.0000
 33
50.0000
  0
3DFACE
  5
11C6
  8
0
 10
-50.0000
 20
0.0000
 30
-50.0000
 11
50.0000
 21
0.0000
 31
-50.0000
 12
50.0000
 22
0.0000
 32
50.0000
 13
-50.0000
 23
0.0000
 33
50.0000
  0
3DFACE
  5
11C7
  8
0
 10
-50.0000
 20
6.0000
 30
-50.0000
 11
50.0000
 21
6.0000
 31
-50.0000
 12
50.0000
 22
6.0000
 32
50.0000
 13
-50.0000
 23
6.0000
 33
50.0000
  0
3DFACE
  5
11C8
  8
0
 10
-50.0000
 20
0.0000
 30
-50.0000
 11
-50.0000
 21
6.0000
 31
-50.0000
 12
-50.0000
 22
6.0000
 32
50.0000
 13
-50.0000
 23
0.0000
 33
50.0000
  0
3DFACE
  5
11C9
  8
0
 10
50.0000
 20
0.0000
 30
-50.0000
 11
50.0000
 21
6.0000
 31
-50.0000
 12
50.0000
 22
6.0000
 32
50.0000
 13
50.0000
 23
0.0000
 33
50.0000
  0
3DFACE
  5
11CA
  8
0
 10
-64.0000
 20
-6.0000
 30
-64.0000
 11
64.0000
 21
-6.0000
 31
-64.0000
 12
64.0000
 22
0.0000
 32
-64.0000
 13
-64.0000
 23
0.0000
 33
-64.0000
  0
3DFACE
  5
11CB
  8
0
 10
-64.0000
 20
-6.0000
 30
64.0000
 11
64.0000
 21
-6.0000
 31
64.0000
 12
64.0000
 22
0.0000
 32
64.0000
 13
-64.0000
 23
0.0000
 33
64.0000
  0
3DFACE
  5
11CC
  8
0
 10
-64.0000
 20
-6.0000
 30
-64.0000
 11
64.0000
 21
-6.0000
 31
-64.0000
 12
64.0000
 22
-6.0000
 32
64.0000
 13
-64.0000
 23
-6.0000
 33
64.0000
  0
3DFACE
  5
11CD
  8
0
 10
-64.0000
 20
0.0000
 30
-64.0000
 11
64.0000
 21
0.0000
 31
-64.0000
 12
64.0000
 22
0.0000
 32
64.0000
 13
-64.0000
 23
0.0000
 33
64.0000
  0
3DFACE
  5
11CE
  8
0
 10
-64.0000
 20
-6.0000
 30
-64.0000
 11
-64.0000
 21
0.0000
 31
-64.0000
 12
-64.0000
 22
0.0000
 32
64.0000
 13
-64.0000
 23
-6.0000
 33
64.0000
  0
3DFACE
  5
11CF
  8
0
 10
64.0000
 20
-6.0000
 30
-64.0000
 11
64.0000
 21
0.0000
 31
-64.0000
 12
64.0000
 22
0.0000
 32
64.0000
 13
64.0000
 23
-6.0000
 33
64.0000
  0
3DFACE
  5
11D0
  8
0
 10
-30.0000
 20
2.0000
 30
-30.0000
 11
30.0000
 21
2.0000
 31
-30.0000
 12
30.0000
 22
8.0000
 32
-30.0000
 13
-30.0000
 23
8.0000
 33
-30.0000
  0
3DFACE
  5
11D1
  8
0
 10
-30.0000
 20
2.0000
 30
30.0000
 11
30.0000
 21
2.0000
 31
30.0000
 12
30.0000
 22
8.0000
 32
30.0000
 13
-30.0000
 23
8.0000
 33
30.0000
  0
3DFACE
  5
11D2
  8
0
 10
-30.0000
 20
2.0000
 30
-30.0000
 11
30.0000
 21
2.0000
 31
-30.0000
 12
30.0000
 22
2.0000
 32
30.0000
 13
-30.0000
 23
2.0000
 33
30.0000
  0
3DFACE
  5
11D3
  8
0
 10
-30.0000
 20
8.0000
 30
-30.0000
 11
30.0000
 21
8.0000
 31
-30.0000
 12
30.0000
 22
8.0000
 32
30.0000
 13
-30.0000
 23
8.0000
 33
30.0000
  0
3DFACE
  5
11D4
  8
0
 10
-30.0000
 20
2.0000
 30
-30.0000
 11
-30.0000
 21
8.0000
 31
-30.0000
 12
-30.0000
 22
8.0000
 32
30.0000
 13
-30.0000
 23
2.0000
 33
30.0000
  0
3DFACE
  5
11D5
  8
0
 10
30.0000
 20
2.0000
 30
-30.0000
 11
30.0000
 21
8.0000
 31
-30.0000
 12
30.0000
 22
8.0000
 32
30.0000
 13
30.0000
 23
2.0000
 33
30.0000
  0
ENDBLK
  5
11D6
330
114A
100
AcDbEntity
  8
0
100
AcDbBlockEnd
  0
BLOCK
  5
11D7
330
114B
100
AcDbEntity
  8
0
100
AcDbBlockBegin
  2
FAUCET
 70
0
 10
0.0000
 20
0.0000
 30
0.0000
  3
FAUCET
  1

  0
3DFACE
  5
11D8
  8
0
 10
-25.0000
 20
0.0000
 30
0.0000
 11
25.0000
 21
0.0000
 31
0.0000
 12
25.0000
 22
25.0000
 32
0.0000
 13
-25.0000
 23
25.0000
 33
0.0000
  0
3DFACE
  5
11D9
  8
0
 10
-25.0000
 20
0.0000
 30
30.0000
 11
25.0000
 21
0.0000
 31
30.0000
 12
25.0000
 22
25.0000
 32
30.0000
 13
-25.0000
 23
25.0000
 33
30.0000
  0
3DFACE
  5
11DA
  8
0
 10
-25.0000
 20
0.0000
 30
0.0000
 11
25.0000
 21
0.0000
 31
0.0000
 12
25.0000
 22
0.0000
 32
30.0000
 13
-25.0000
 23
0.0000
 33
30.0000
  0
3DFACE
  5
11DB
  8
0
 10
-25.0000
 20
25.0000
 30
0.0000
 11
25.0000
 21
25.0000
 31
0.0000
 12
25.0000
 22
25.0000
 32
30.0000
 13
-25.0000
 23
25.0000
 33
30.0000
  0
3DFACE
  5
11DC
  8
0
 10
-25.0000
 20
0.0000
 30
0.0000
 11
-25.0000
 21
25.0000
 31
0.0000
 12
-25.0000
 22
25.0000
 32
30.0000
 13
-25.0000
 23
0.0000
 33
30.0000
  0
3DFACE
  5
11DD
  8
0
 10
25.0000
 20
0.0000
 30
0.0000
 11
25.0000
 21
25.0000
 31
0.0000
 12
25.0000
 22
25.0000
 32
30.0000
 13
25.0000
 23
0.0000
 33
30.0000
  0
3DFACE
  5
11DE
  8
0
 10
-9.0000
 20
0.0000
 30
30.0000
 11
9.0000
 21
0.0000
 31
30.0000
 12
9.0000
 22
18.0000
 32
30.0000
 13
-9.0000
 23
18.0000
 33
30.0000
  0
3DFACE
  5
11DF
  8
0
 10
-9.0000
 20
0.0000
 30
150.0000
 11
9.0000
 21
0.0000
 31
150.0000
 12
9.0000
 22
18.0000
 32
150.0000
 13
-9.0000
 23
18.0000
 33
150.0000
  0
3DFACE
  5
11E0
  8
0
 10
-9.0000
 20
0.0000
 30
30.0000
 11
9.0000
 21
0.0000
 31
30.0000
 12
9.0000
 22
0.0000
 32
150.0000
 13
-9.0000
 23
0.0000
 33
150.0000
  0
3DFACE
  5
11E1
  8
0
 10
-9.0000
 20
18.0000
 30
30.0000
 11
9.0000
 21
18.0000
 31
30.0000
 12
9.0000
 22
18.0000
 32
150.0000
 13
-9.0000
 23
18.0000
 33
150.0000
  0
3DFACE
  5
11E2
  8
0
 10
-9.0000
 20
0.0000
 30
30.0000
 11
-9.0000
 21
18.0000
 31
30.0000
 12
-9.0000
 22
18.0000
 32
150.0000
 13
-9.0000
 23
0.0000
 33
150.0000
  0
3DFACE
  5
11E3
  8
0
 10
9.0000
 20
0.0000
 30
30.0000
 11
9.0000
 21
18.0000
 31
30.0000
 12
9.0000
 22
18.0000
 32
150.0000
 13
9.0000
 23
0.0000
 33
150.0000
  0
3DFACE
  5
11E4
  8
0
 10
-9.0000
 20
0.0000
 30
132.0000
 11
60.0000
 21
0.0000
 31
132.0000
 12
60.0000
 22
18.0000
 32
132.0000
 13
-9.0000
 23
18.0000
 33
132.0000
  0
3DFACE
  5
11E5
  8
0
 10
-9.0000
 20
0.0000
 30
150.0000
 11
60.0000
 21
0.0000
 31
150.0000
 12
60.0000
 22
18.0000
 32
150.0000
 13
-9.0000
 23
18.0000
 33
150.0000
  0
3DFACE
  5
11E6
  8
0
 10
-9.0000
 20
0.0000
 30
132.0000
 11
60.0000
 21
0.0000
 31
132.0000
 12
60.0000
 22
0.0000
 32
150.0000
 13
-9.0000
 23
0.0000
 33
150.0000
  0
3DFACE
  5
11E7
  8
0
 10
-9.0000
 20
18.0000
 30
132.0000
 11
60.0000
 21
18.0000
 31
132.0000
 12
60.0000
 22
18.0000
 32
150.0000
 13
-9.0000
 23
18.0000
 33
150.0000
  0
3DFACE
  5
11E8
  8
0
 10
-9.0000
 20
0.0000
 30
132.0000
 11
-9.0000
 21
18.0000
 31
132.0000
 12
-9.0000
 22
18.0000
 32
150.0000
 13
-9.0000
 23
0.0000
 33
150.0000
  0
3DFACE
  5
11E9
  8
0
 10
60.0000
 20
0.0000
 30
132.0000
 11
60.0000
 21
18.0000
 31
132.0000
 12
60.0000
 22
18.0000
 32
150.0000
 13
60.0000
 23
0.0000
 33
150.0000
  0
3DFACE
  5
11EA
  8
0
 10
52.0000
 20
0.0000
 30
120.0000
 11
68.0000
 21
0.0000
 31
120.0000
 12
68.0000
 22
18.0000
 32
120.0000
 13
52.0000
 23
18.0000
 33
120.0000
  0
3DFACE
  5
11EB
  8
0
 10
52.0000
 20
0.0000
 30
150.0000
 11
68.0000
 21
0.0000
 31
150.0000
 12
68.0000
 22
18.0000
 32
150.0000
 13
52.0000
 23
18.0000
 33
150.0000
  0
3DFACE
  5
11EC
  8
0
 10
52.0000
 20
0.0000
 30
120.0000
 11
68.0000
 21
0.0000
 31
120.0000
 12
68.0000
 22
0.0000
 32
150.0000
 13
52.0000
 23
0.0000
 33
150.0000
  0
3DFACE
  5
11ED
  8
0
 10
52.0000
 20
18.0000
 30
120.0000
 11
68.0000
 21
18.0000
 31
120.0000
 12
68.0000
 22
18.0000
 32
150.0000
 13
52.0000
 23
18.0000
 33
150.0000
  0
3DFACE
  5
11EE
  8
0
 10
52.0000
 20
0.0000
 30
120.0000
 11
52.0000
 21
18.0000
 31
120.0000
 12
52.0000
 22
18.0000
 32
150.0000
 13
52.0000
 23
0.0000
 33
150.0000
  0
3DFACE
  5
11EF
  8
0
 10
68.0000
 20
0.0000
 30
120.0000
 11
68.0000
 21
18.0000
 31
120.0000
 12
68.0000
 22
18.0000
 32
150.0000
 13
68.0000
 23
0.0000
 33
150.0000
  0
3DFACE
  5
11F0
  8
0
 10
52.0000
 20
0.0000
 30
110.0000
 11
68.0000
 21
0.0000
 31
110.0000
 12
68.0000
 22
18.0000
 32
110.0000
 13
52.0000
 23
18.0000
 33
110.0000
  0
3DFACE
  5
11F1
  8
0
 10
52.0000
 20
0.0000
 30
122.0000
 11
68.0000
 21
0.0000
 31
122.0000
 12
68.0000
 22
18.0000
 32
122.0000
 13
52.0000
 23
18.0000
 33
122.0000
  0
3DFACE
  5
11F2
  8
0
 10
52.0000
 20
0.0000
 30
110.0000
 11
68.0000
 21
0.0000
 31
110.0000
 12
68.0000
 22
0.0000
 32
122.0000
 13
52.0000
 23
0.0000
 33
122.0000
  0
3DFACE
  5
11F3
  8
0
 10
52.0000
 20
18.0000
 30
110.0000
 11
68.0000
 21
18.0000
 31
110.0000
 12
68.0000
 22
18.0000
 32
122.0000
 13
52.0000
 23
18.0000
 33
122.0000
  0
3DFACE
  5
11F4
  8
0
 10
52.0000
 20
0.0000
 30
110.0000
 11
52.0000
 21
18.0000
 31
110.0000
 12
52.0000
 22
18.0000
 32
122.0000
 13
52.0000
 23
0.0000
 33
122.0000
  0
3DFACE
  5
11F5
  8
0
 10
68.0000
 20
0.0000
 30
110.0000
 11
68.0000
 21
18.0000
 31
110.0000
 12
68.0000
 22
18.0000
 32
122.0000
 13
68.0000
 23
0.0000
 33
122.0000
  0
3DFACE
  5
11F6
  8
0
 10
-22.0000
 20
0.0000
 30
90.0000
 11
-14.0000
 21
0.0000
 31
90.0000
 12
-14.0000
 22
18.0000
 32
90.0000
 13
-22.0000
 23
18.0000
 33
90.0000
  0
3DFACE
  5
11F7
  8
0
 10
-22.0000
 20
0.0000
 30
120.0000
 11
-14.0000
 21
0.0000
 31
120.0000
 12
-14.0000
 22
18.0000
 32
120.0000
 13
-22.0000
 23
18.0000
 33
120.0000
  0
3DFACE
  5
11F8
  8
0
 10
-22.0000
 20
0.0000
 30
90.0000
 11
-14.0000
 21
0.0000
 31
90.0000
 12
-14.0000
 22
0.0000
 32
120.0000
 13
-22.0000
 23
0.0000
 33
120.0000
  0
3DFACE
  5
11F9
  8
0
 10
-22.0000
 20
18.0000
 30
90.0000
 11
-14.0000
 21
18.0000
 31
90.0000
 12
-14.0000
 22
18.0000
 32
120.0000
 13
-22.0000
 23
18.0000
 33
120.0000
  0
3DFACE
  5
11FA
  8
0
 10
-22.0000
 20
0.0000
 30
90.0000
 11
-22.0000
 21
18.0000
 31
90.0000
 12
-22.0000
 22
18.0000
 32
120.0000
 13
-22.0000
 23
0.0000
 33
120.0000
  0
3DFACE
  5
11FB
  8
0
 10
-14.0000
 20
0.0000
 30
90.0000
 11
-14.0000
 21
18.0000
 31
90.0000
 12
-14.0000
 22
18.0000
 32
120.0000
 13
-14.0000
 23
0.0000
 33
120.0000
  0
3DFACE
  5
11FC
  8
0
 10
14.0000
 20
0.0000
 30
90.0000
 11
22.0000
 21
0.0000
 31
90.0000
 12
22.0000
 22
18.0000
 32
90.0000
 13
14.0000
 23
18.0000
 33
90.0000
  0
3DFACE
  5
11FD
  8
0
 10
14.0000
 20
0.0000
 30
120.0000
 11
22.0000
 21
0.0000
 31
120.0000
 12
22.0000
 22
18.0000
 32
120.0000
 13
14.0000
 23
18.0000
 33
120.0000
  0
3DFACE
  5
11FE
  8
0
 10
14.0000
 20
0.0000
 30
90.0000
 11
22.0000
 21
0.0000
 31
90.0000
 12
22.0000
 22
0.0000
 32
120.0000
 13
14.0000
 23
0.0000
 33
120.0000
  0
3DFACE
  5
11FF
  8
0
 10
14.0000
 20
18.0000
 30
90.0000
 11
22.0000
 21
18.0000
 31
90.0000
 12
22.0000
 22
18.0000
 32
120.0000
 13
14.0000
 23
18.0000
 33
120.0000
  0
3DFACE
  5
1200
  8
0
 10
14.0000
 20
0.0000
 30
90.0000
 11
14.0000
 21
18.0000
 31
90.0000
 12
14.0000
 22
18.0000
 32
120.0000
 13
14.0000
 23
0.0000
 33
120.0000
  0
3DFACE
  5
1201
  8
0
 10
22.0000
 20
0.0000
 30
90.0000
 11
22.0000
 21
18.0000
 31
90.0000
 12
22.0000
 22
18.0000
 32
120.0000
 13
22.0000
 23
0.0000
 33
120.0000
  0
ENDBLK
  5
1202
330
114B
100
AcDbEntity
  8
0
100
AcDbBlockEnd
  0
BLOCK
  5
1203
330
114C
100
AcDbEntity
  8
0
100
AcDbBlockBegin
  2
GAS
 70
0
 10
0.0000
 20
0.0000
 30
0.0000
  3
GAS
  1

  0
3DFACE
  5
1204
  8
0
 10
-30.0000
 20
0.0000
 30
0.0000
 11
30.0000
 21
0.0000
 31
0.0000
 12
30.0000
 22
30.0000
 32
0.0000
 13
-30.0000
 23
30.0000
 33
0.0000
  0
3DFACE
  5
1205
  8
0
 10
-30.0000
 20
0.0000
 30
60.0000
 11
30.0000
 21
0.0000
 31
60.0000
 12
30.0000
 22
30.0000
 32
60.0000
 13
-30.0000
 23
30.0000
 33
60.0000
  0
3DFACE
  5
1206
  8
0
 10
-30.0000
 20
0.0000
 30
0.0000
 11
30.0000
 21
0.0000
 31
0.0000
 12
30.0000
 22
0.0000
 32
60.0000
 13
-30.0000
 23
0.0000
 33
60.0000
  0
3DFACE
  5
1207
  8
0
 10
-30.0000
 20
30.0000
 30
0.0000
 11
30.0000
 21
30.0000
 31
0.0000
 12
30.0000
 22
30.0000
 32
60.0000
 13
-30.0000
 23
30.0000
 33
60.0000
  0
3DFACE
  5
1208
  8
0
 10
-30.0000
 20
0.0000
 30
0.0000
 11
-30.0000
 21
30.0000
 31
0.0000
 12
-30.0000
 22
30.0000
 32
60.0000
 13
-30.0000
 23
0.0000
 33
60.0000
  0
3DFACE
  5
1209
  8
0
 10
30.0000
 20
0.0000
 30
0.0000
 11
30.0000
 21
30.0000
 31
0.0000
 12
30.0000
 22
30.0000
 32
60.0000
 13
30.0000
 23
0.0000
 33
60.0000
  0
3DFACE
  5
120A
  8
0
 10
-6.0000
 20
30.0000
 30
22.0000
 11
6.0000
 21
30.0000
 31
22.0000
 12
6.0000
 22
60.0000
 32
22.0000
 13
-6.0000
 23
60.0000
 33
22.0000
  0
3DFACE
  5
120B
  8
0
 10
-6.0000
 20
30.0000
 30
38.0000
 11
6.0000
 21
30.0000
 31
38.0000
 12
6.0000
 22
60.0000
 32
38.0000
 13
-6.0000
 23
60.0000
 33
38.0000
  0
3DFACE
  5
120C
  8
0
 10
-6.0000
 20
30.0000
 30
22.0000
 11
6.0000
 21
30.0000
 31
22.0000
 12
6.0000
 22
30.0000
 32
38.0000
 13
-6.0000
 23
30.0000
 33
38.0000
  0
3DFACE
  5
120D
  8
0
 10
-6.0000
 20
60.0000
 30
22.0000
 11
6.0000
 21
60.0000
 31
22.0000
 12
6.0000
 22
60.0000
 32
38.0000
 13
-6.0000
 23
60.0000
 33
38.0000
  0
3DFACE
  5
120E
  8
0
 10
-6.0000
 20
30.0000
 30
22.0000
 11
-6.0000
 21
60.0000
 31
22.0000
 12
-6.0000
 22
60.0000
 32
38.0000
 13
-6.0000
 23
30.0000
 33
38.0000
  0
3DFACE
  5
120F
  8
0
 10
6.0000
 20
30.0000
 30
22.0000
 11
6.0000
 21
60.0000
 31
22.0000
 12
6.0000
 22
60.0000
 32
38.0000
 13
6.0000
 23
30.0000
 33
38.0000
  0
3DFACE
  5
1210
  8
0
 10
-6.0000
 20
-25.0000
 30
22.0000
 11
6.0000
 21
-25.0000
 31
22.0000
 12
6.0000
 22
0.0000
 32
22.0000
 13
-6.0000
 23
0.0000
 33
22.0000
  0
3DFACE
  5
1211
  8
0
 10
-6.0000
 20
-25.0000
 30
38.0000
 11
6.0000
 21
-25.0000
 31
38.0000
 12
6.0000
 22
0.0000
 32
38.0000
 13
-6.0000
 23
0.0000
 33
38.0000
  0
3DFACE
  5
1212
  8
0
 10
-6.0000
 20
-25.0000
 30
22.0000
 11
6.0000
 21
-25.0000
 31
22.0000
 12
6.0000
 22
-25.0000
 32
38.0000
 13
-6.0000
 23
-25.0000
 33
38.0000
  0
3DFACE
  5
1213
  8
0
 10
-6.0000
 20
0.0000
 30
22.0000
 11
6.0000
 21
0.0000
 31
22.0000
 12
6.0000
 22
0.0000
 32
38.0000
 13
-6.0000
 23
0.0000
 33
38.0000
  0
3DFACE
  5
1214
  8
0
 10
-6.0000
 20
-25.0000
 30
22.0000
 11
-6.0000
 21
0.0000
 31
22.0000
 12
-6.0000
 22
0.0000
 32
38.0000
 13
-6.0000
 23
-25.0000
 33
38.0000
  0
3DFACE
  5
1215
  8
0
 10
6.0000
 20
-25.0000
 30
22.0000
 11
6.0000
 21
0.0000
 31
22.0000
 12
6.0000
 22
0.0000
 32
38.0000
 13
6.0000
 23
-25.0000
 33
38.0000
  0
3DFACE
  5
1216
  8
0
 10
-3.0000
 20
55.0000
 30
15.0000
 11
3.0000
 21
55.0000
 31
15.0000
 12
3.0000
 22
65.0000
 32
15.0000
 13
-3.0000
 23
65.0000
 33
15.0000
  0
3DFACE
  5
1217
  8
0
 10
-3.0000
 20
55.0000
 30
45.0000
 11
3.0000
 21
55.0000
 31
45.0000
 12
3.0000
 22
65.0000
 32
45.0000
 13
-3.0000
 23
65.0000
 33
45.0000
  0
3DFACE
  5
1218
  8
0
 10
-3.0000
 20
55.0000
 30
15.0000
 11
3.0000
 21
55.0000
 31
15.0000
 12
3.0000
 22
55.0000
 32
45.0000
 13
-3.0000
 23
55.0000
 33
45.0000
  0
3DFACE
  5
1219
  8
0
 10
-3.0000
 20
65.0000
 30
15.0000
 11
3.0000
 21
65.0000
 31
15.0000
 12
3.0000
 22
65.0000
 32
45.0000
 13
-3.0000
 23
65.0000
 33
45.0000
  0
3DFACE
  5
121A
  8
0
 10
-3.0000
 20
55.0000
 30
15.0000
 11
-3.0000
 21
65.0000
 31
15.0000
 12
-3.0000
 22
65.0000
 32
45.0000
 13
-3.0000
 23
55.0000
 33
45.0000
  0
3DFACE
  5
121B
  8
0
 10
3.0000
 20
55.0000
 30
15.0000
 11
3.0000
 21
65.0000
 31
15.0000
 12
3.0000
 22
65.0000
 32
45.0000
 13
3.0000
 23
55.0000
 33
45.0000
  0
3DFACE
  5
121C
  8
0
 10
-14.0000
 20
60.0000
 30
22.0000
 11
14.0000
 21
60.0000
 31
22.0000
 12
14.0000
 22
72.0000
 32
22.0000
 13
-14.0000
 23
72.0000
 33
22.0000
  0
3DFACE
  5
121D
  8
0
 10
-14.0000
 20
60.0000
 30
38.0000
 11
14.0000
 21
60.0000
 31
38.0000
 12
14.0000
 22
72.0000
 32
38.0000
 13
-14.0000
 23
72.0000
 33
38.0000
  0
3DFACE
  5
121E
  8
0
 10
-14.0000
 20
60.0000
 30
22.0000
 11
14.0000
 21
60.0000
 31
22.0000
 12
14.0000
 22
60.0000
 32
38.0000
 13
-14.0000
 23
60.0000
 33
38.0000
  0
3DFACE
  5
121F
  8
0
 10
-14.0000
 20
72.0000
 30
22.0000
 11
14.0000
 21
72.0000
 31
22.0000
 12
14.0000
 22
72.0000
 32
38.0000
 13
-14.0000
 23
72.0000
 33
38.0000
  0
3DFACE
  5
1220
  8
0
 10
-14.0000
 20
60.0000
 30
22.0000
 11
-14.0000
 21
72.0000
 31
22.0000
 12
-14.0000
 22
72.0000
 32
38.0000
 13
-14.0000
 23
60.0000
 33
38.0000
  0
3DFACE
  5
1221
  8
0
 10
14.0000
 20
60.0000
 30
22.0000
 11
14.0000
 21
72.0000
 31
22.0000
 12
14.0000
 22
72.0000
 32
38.0000
 13
14.0000
 23
60.0000
 33
38.0000
  0
ENDBLK
  5
1222
330
114C
100
AcDbEntity
  8
0
100
AcDbBlockEnd
  0
ENDSEC
  0
SECTION
  2
ENTITIES
  0
3DFACE
  5
1000
  8
SOL-RITZPA-SYM
 10
0.0000
 20
0.0000
 30
0.0000
 11
0.0000
 21
-3000.0000
 31
0.0000
 12
4000.0000
 22
-3000.0000
 32
0.0000
 13
4000.0000
 23
-3000.0000
 33
0.0000
 70
15
  0
3DFACE
  5
1001
  8
SOL-RITZPA-SYM
 10
0.0000
 20
0.0000
 30
-40.0000
 11
4000.0000
 21
-3000.0000
 31
-40.0000
 12
0.0000
 22
-3000.0000
 32
-40.0000
 13
0.0000
 23
-3000.0000
 33
-40.0000
 70
15
  0
3DFACE
  5
1002
  8
SOL-RITZPA-SYM
 10
4000.0000
 20
-3000.0000
 30
0.0000
 11
4000.0000
 21
0.0000
 31
0.0000
 12
0.0000
 22
0.0000
 32
0.0000
 13
0.0000
 23
0.0000
 33
0.0000
 70
15
  0
3DFACE
  5
1003
  8
SOL-RITZPA-SYM
 10
4000.0000
 20
-3000.0000
 30
-40.0000
 11
0.0000
 21
0.0000
 31
-40.0000
 12
4000.0000
 22
0.0000
 32
-40.0000
 13
4000.0000
 23
0.0000
 33
-40.0000
 70
15
  0
3DFACE
  5
1004
  8
SOL-RITZPA-SYM
 10
0.0000
 20
0.0000
 30
-40.0000
 11
4000.0000
 21
0.0000
 31
-40.0000
 12
4000.0000
 22
0.0000
 32
0.0000
 13
0.0000
 23
0.0000
 33
0.0000
 70
15
  0
3DFACE
  5
1005
  8
SOL-RITZPA-SYM
 10
4000.0000
 20
0.0000
 30
-40.0000
 11
4000.0000
 21
-3000.0000
 31
-40.0000
 12
4000.0000
 22
-3000.0000
 32
0.0000
 13
4000.0000
 23
0.0000
 33
0.0000
 70
15
  0
3DFACE
  5
1006
  8
SOL-RITZPA-SYM
 10
4000.0000
 20
-3000.0000
 30
-40.0000
 11
0.0000
 21
-3000.0000
 31
-40.0000
 12
0.0000
 22
-3000.0000
 32
0.0000
 13
4000.0000
 23
-3000.0000
 33
0.0000
 70
15
  0
3DFACE
  5
1007
  8
SOL-RITZPA-SYM
 10
0.0000
 20
-3000.0000
 30
-40.0000
 11
0.0000
 21
0.0000
 31
-40.0000
 12
0.0000
 22
0.0000
 32
0.0000
 13
0.0000
 23
-3000.0000
 33
0.0000
 70
15
  0
3DFACE
  5
1008
  8
SOL-KIROT-SYM
 10
-100.0000
 20
0.0000
 30
0.0000
 11
4100.0000
 21
0.0000
 31
0.0000
 12
4100.0000
 22
100.0000
 32
0.0000
 13
-100.0000
 23
100.0000
 33
0.0000
 70
15
  0
3DFACE
  5
1009
  8
SOL-KIROT-SYM
 10
-100.0000
 20
0.0000
 30
2600.0000
 11
4100.0000
 21
0.0000
 31
2600.0000
 12
4100.0000
 22
100.0000
 32
2600.0000
 13
-100.0000
 23
100.0000
 33
2600.0000
 70
15
  0
3DFACE
  5
100A
  8
SOL-KIROT-SYM
 10
-100.0000
 20
0.0000
 30
0.0000
 11
4100.0000
 21
0.0000
 31
0.0000
 12
4100.0000
 22
0.0000
 32
2600.0000
 13
-100.0000
 23
0.0000
 33
2600.0000
 70
15
  0
3DFACE
  5
100B
  8
SOL-KIROT-SYM
 10
-100.0000
 20
100.0000
 30
0.0000
 11
4100.0000
 21
100.0000
 31
0.0000
 12
4100.0000
 22
100.0000
 32
2600.0000
 13
-100.0000
 23
100.0000
 33
2600.0000
 70
15
  0
3DFACE
  5
100C
  8
SOL-KIROT-SYM
 10
-100.0000
 20
0.0000
 30
0.0000
 11
-100.0000
 21
100.0000
 31
0.0000
 12
-100.0000
 22
100.0000
 32
2600.0000
 13
-100.0000
 23
0.0000
 33
2600.0000
 70
15
  0
3DFACE
  5
100D
  8
SOL-KIROT-SYM
 10
4100.0000
 20
0.0000
 30
0.0000
 11
4100.0000
 21
100.0000
 31
0.0000
 12
4100.0000
 22
100.0000
 32
2600.0000
 13
4100.0000
 23
0.0000
 33
2600.0000
 70
15
  0
3DFACE
  5
100E
  8
SOL-KIROT-SYM
 10
4000.0000
 20
100.0000
 30
0.0000
 11
4000.0000
 21
-3100.0000
 31
0.0000
 12
4100.0000
 22
-3100.0000
 32
0.0000
 13
4100.0000
 23
100.0000
 33
0.0000
 70
15
  0
3DFACE
  5
100F
  8
SOL-KIROT-SYM
 10
4000.0000
 20
100.0000
 30
2600.0000
 11
4000.0000
 21
-3100.0000
 31
2600.0000
 12
4100.0000
 22
-3100.0000
 32
2600.0000
 13
4100.0000
 23
100.0000
 33
2600.0000
 70
15
  0
3DFACE
  5
1010
  8
SOL-KIROT-SYM
 10
4000.0000
 20
100.0000
 30
0.0000
 11
4000.0000
 21
-3100.0000
 31
0.0000
 12
4000.0000
 22
-3100.0000
 32
2600.0000
 13
4000.0000
 23
100.0000
 33
2600.0000
 70
15
  0
3DFACE
  5
1011
  8
SOL-KIROT-SYM
 10
4100.0000
 20
100.0000
 30
0.0000
 11
4100.0000
 21
-3100.0000
 31
0.0000
 12
4100.0000
 22
-3100.0000
 32
2600.0000
 13
4100.0000
 23
100.0000
 33
2600.0000
 70
15
  0
3DFACE
  5
1012
  8
SOL-KIROT-SYM
 10
4000.0000
 20
100.0000
 30
0.0000
 11
4100.0000
 21
100.0000
 31
0.0000
 12
4100.0000
 22
100.0000
 32
2600.0000
 13
4000.0000
 23
100.0000
 33
2600.0000
 70
15
  0
3DFACE
  5
1013
  8
SOL-KIROT-SYM
 10
4000.0000
 20
-3100.0000
 30
0.0000
 11
4100.0000
 21
-3100.0000
 31
0.0000
 12
4100.0000
 22
-3100.0000
 32
2600.0000
 13
4000.0000
 23
-3100.0000
 33
2600.0000
 70
15
  0
3DFACE
  5
1014
  8
SOL-KIROT-SYM
 10
4100.0000
 20
-3000.0000
 30
0.0000
 11
3500.0000
 21
-3000.0000
 31
0.0000
 12
3500.0000
 22
-3100.0000
 32
0.0000
 13
4100.0000
 23
-3100.0000
 33
0.0000
 70
15
  0
3DFACE
  5
1015
  8
SOL-KIROT-SYM
 10
4100.0000
 20
-3000.0000
 30
2600.0000
 11
3500.0000
 21
-3000.0000
 31
2600.0000
 12
3500.0000
 22
-3100.0000
 32
2600.0000
 13
4100.0000
 23
-3100.0000
 33
2600.0000
 70
15
  0
3DFACE
  5
1016
  8
SOL-KIROT-SYM
 10
4100.0000
 20
-3000.0000
 30
0.0000
 11
3500.0000
 21
-3000.0000
 31
0.0000
 12
3500.0000
 22
-3000.0000
 32
2600.0000
 13
4100.0000
 23
-3000.0000
 33
2600.0000
 70
15
  0
3DFACE
  5
1017
  8
SOL-KIROT-SYM
 10
4100.0000
 20
-3100.0000
 30
0.0000
 11
3500.0000
 21
-3100.0000
 31
0.0000
 12
3500.0000
 22
-3100.0000
 32
2600.0000
 13
4100.0000
 23
-3100.0000
 33
2600.0000
 70
15
  0
3DFACE
  5
1018
  8
SOL-KIROT-SYM
 10
4100.0000
 20
-3000.0000
 30
0.0000
 11
4100.0000
 21
-3100.0000
 31
0.0000
 12
4100.0000
 22
-3100.0000
 32
2600.0000
 13
4100.0000
 23
-3000.0000
 33
2600.0000
 70
15
  0
3DFACE
  5
1019
  8
SOL-KIROT-SYM
 10
3500.0000
 20
-3000.0000
 30
0.0000
 11
3500.0000
 21
-3100.0000
 31
0.0000
 12
3500.0000
 22
-3100.0000
 32
2600.0000
 13
3500.0000
 23
-3000.0000
 33
2600.0000
 70
15
  0
3DFACE
  5
101A
  8
SOL-KIROT-SYM
 10
3500.0000
 20
-3000.0000
 30
0.0000
 11
2500.0000
 21
-3000.0000
 31
0.0000
 12
2500.0000
 22
-3100.0000
 32
0.0000
 13
3500.0000
 23
-3100.0000
 33
0.0000
 70
15
  0
3DFACE
  5
101B
  8
SOL-KIROT-SYM
 10
3500.0000
 20
-3000.0000
 30
300.0000
 11
2500.0000
 21
-3000.0000
 31
300.0000
 12
2500.0000
 22
-3100.0000
 32
300.0000
 13
3500.0000
 23
-3100.0000
 33
300.0000
 70
15
  0
3DFACE
  5
101C
  8
SOL-KIROT-SYM
 10
3500.0000
 20
-3000.0000
 30
0.0000
 11
2500.0000
 21
-3000.0000
 31
0.0000
 12
2500.0000
 22
-3000.0000
 32
300.0000
 13
3500.0000
 23
-3000.0000
 33
300.0000
 70
15
  0
3DFACE
  5
101D
  8
SOL-KIROT-SYM
 10
3500.0000
 20
-3100.0000
 30
0.0000
 11
2500.0000
 21
-3100.0000
 31
0.0000
 12
2500.0000
 22
-3100.0000
 32
300.0000
 13
3500.0000
 23
-3100.0000
 33
300.0000
 70
15
  0
3DFACE
  5
101E
  8
SOL-KIROT-SYM
 10
3500.0000
 20
-3000.0000
 30
0.0000
 11
3500.0000
 21
-3100.0000
 31
0.0000
 12
3500.0000
 22
-3100.0000
 32
300.0000
 13
3500.0000
 23
-3000.0000
 33
300.0000
 70
15
  0
3DFACE
  5
101F
  8
SOL-KIROT-SYM
 10
2500.0000
 20
-3000.0000
 30
0.0000
 11
2500.0000
 21
-3100.0000
 31
0.0000
 12
2500.0000
 22
-3100.0000
 32
300.0000
 13
2500.0000
 23
-3000.0000
 33
300.0000
 70
15
  0
3DFACE
  5
1020
  8
SOL-KIROT-SYM
 10
3500.0000
 20
-3000.0000
 30
1500.0000
 11
2500.0000
 21
-3000.0000
 31
1500.0000
 12
2500.0000
 22
-3100.0000
 32
1500.0000
 13
3500.0000
 23
-3100.0000
 33
1500.0000
 70
15
  0
3DFACE
  5
1021
  8
SOL-KIROT-SYM
 10
3500.0000
 20
-3000.0000
 30
2600.0000
 11
2500.0000
 21
-3000.0000
 31
2600.0000
 12
2500.0000
 22
-3100.0000
 32
2600.0000
 13
3500.0000
 23
-3100.0000
 33
2600.0000
 70
15
  0
3DFACE
  5
1022
  8
SOL-KIROT-SYM
 10
3500.0000
 20
-3000.0000
 30
1500.0000
 11
2500.0000
 21
-3000.0000
 31
1500.0000
 12
2500.0000
 22
-3000.0000
 32
2600.0000
 13
3500.0000
 23
-3000.0000
 33
2600.0000
 70
15
  0
3DFACE
  5
1023
  8
SOL-KIROT-SYM
 10
3500.0000
 20
-3100.0000
 30
1500.0000
 11
2500.0000
 21
-3100.0000
 31
1500.0000
 12
2500.0000
 22
-3100.0000
 32
2600.0000
 13
3500.0000
 23
-3100.0000
 33
2600.0000
 70
15
  0
3DFACE
  5
1024
  8
SOL-KIROT-SYM
 10
3500.0000
 20
-3000.0000
 30
1500.0000
 11
3500.0000
 21
-3100.0000
 31
1500.0000
 12
3500.0000
 22
-3100.0000
 32
2600.0000
 13
3500.0000
 23
-3000.0000
 33
2600.0000
 70
15
  0
3DFACE
  5
1025
  8
SOL-KIROT-SYM
 10
2500.0000
 20
-3000.0000
 30
1500.0000
 11
2500.0000
 21
-3100.0000
 31
1500.0000
 12
2500.0000
 22
-3100.0000
 32
2600.0000
 13
2500.0000
 23
-3000.0000
 33
2600.0000
 70
15
  0
3DFACE
  5
1026
  8
SOL-KIROT-SYM
 10
2750.0000
 20
-3000.0000
 30
2050.0000
 11
1850.0000
 21
-3000.0000
 31
2050.0000
 12
1850.0000
 22
-3100.0000
 32
2050.0000
 13
2750.0000
 23
-3100.0000
 33
2050.0000
 70
15
  0
3DFACE
  5
1027
  8
SOL-KIROT-SYM
 10
2750.0000
 20
-3000.0000
 30
2600.0000
 11
1850.0000
 21
-3000.0000
 31
2600.0000
 12
1850.0000
 22
-3100.0000
 32
2600.0000
 13
2750.0000
 23
-3100.0000
 33
2600.0000
 70
15
  0
3DFACE
  5
1028
  8
SOL-KIROT-SYM
 10
2750.0000
 20
-3000.0000
 30
2050.0000
 11
1850.0000
 21
-3000.0000
 31
2050.0000
 12
1850.0000
 22
-3000.0000
 32
2600.0000
 13
2750.0000
 23
-3000.0000
 33
2600.0000
 70
15
  0
3DFACE
  5
1029
  8
SOL-KIROT-SYM
 10
2750.0000
 20
-3100.0000
 30
2050.0000
 11
1850.0000
 21
-3100.0000
 31
2050.0000
 12
1850.0000
 22
-3100.0000
 32
2600.0000
 13
2750.0000
 23
-3100.0000
 33
2600.0000
 70
15
  0
3DFACE
  5
102A
  8
SOL-KIROT-SYM
 10
2750.0000
 20
-3000.0000
 30
2050.0000
 11
2750.0000
 21
-3100.0000
 31
2050.0000
 12
2750.0000
 22
-3100.0000
 32
2600.0000
 13
2750.0000
 23
-3000.0000
 33
2600.0000
 70
15
  0
3DFACE
  5
102B
  8
SOL-KIROT-SYM
 10
1850.0000
 20
-3000.0000
 30
2050.0000
 11
1850.0000
 21
-3100.0000
 31
2050.0000
 12
1850.0000
 22
-3100.0000
 32
2600.0000
 13
1850.0000
 23
-3000.0000
 33
2600.0000
 70
15
  0
3DFACE
  5
102C
  8
SOL-KIROT-SYM
 10
2050.0000
 20
-3000.0000
 30
2100.0000
 11
1150.0000
 21
-3000.0000
 31
2100.0000
 12
1150.0000
 22
-3100.0000
 32
2100.0000
 13
2050.0000
 23
-3100.0000
 33
2100.0000
 70
15
  0
3DFACE
  5
102D
  8
SOL-KIROT-SYM
 10
2050.0000
 20
-3000.0000
 30
2600.0000
 11
1150.0000
 21
-3000.0000
 31
2600.0000
 12
1150.0000
 22
-3100.0000
 32
2600.0000
 13
2050.0000
 23
-3100.0000
 33
2600.0000
 70
15
  0
3DFACE
  5
102E
  8
SOL-KIROT-SYM
 10
2050.0000
 20
-3000.0000
 30
2100.0000
 11
1150.0000
 21
-3000.0000
 31
2100.0000
 12
1150.0000
 22
-3000.0000
 32
2600.0000
 13
2050.0000
 23
-3000.0000
 33
2600.0000
 70
15
  0
3DFACE
  5
102F
  8
SOL-KIROT-SYM
 10
2050.0000
 20
-3100.0000
 30
2100.0000
 11
1150.0000
 21
-3100.0000
 31
2100.0000
 12
1150.0000
 22
-3100.0000
 32
2600.0000
 13
2050.0000
 23
-3100.0000
 33
2600.0000
 70
15
  0
3DFACE
  5
1030
  8
SOL-KIROT-SYM
 10
2050.0000
 20
-3000.0000
 30
2100.0000
 11
2050.0000
 21
-3100.0000
 31
2100.0000
 12
2050.0000
 22
-3100.0000
 32
2600.0000
 13
2050.0000
 23
-3000.0000
 33
2600.0000
 70
15
  0
3DFACE
  5
1031
  8
SOL-KIROT-SYM
 10
1150.0000
 20
-3000.0000
 30
2100.0000
 11
1150.0000
 21
-3100.0000
 31
2100.0000
 12
1150.0000
 22
-3100.0000
 32
2600.0000
 13
1150.0000
 23
-3000.0000
 33
2600.0000
 70
15
  0
3DFACE
  5
1032
  8
SOL-KIROT-SYM
 10
1150.0000
 20
-3000.0000
 30
0.0000
 11
-100.0000
 21
-3000.0000
 31
0.0000
 12
-100.0000
 22
-3100.0000
 32
0.0000
 13
1150.0000
 23
-3100.0000
 33
0.0000
 70
15
  0
3DFACE
  5
1033
  8
SOL-KIROT-SYM
 10
1150.0000
 20
-3000.0000
 30
2600.0000
 11
-100.0000
 21
-3000.0000
 31
2600.0000
 12
-100.0000
 22
-3100.0000
 32
2600.0000
 13
1150.0000
 23
-3100.0000
 33
2600.0000
 70
15
  0
3DFACE
  5
1034
  8
SOL-KIROT-SYM
 10
1150.0000
 20
-3000.0000
 30
0.0000
 11
-100.0000
 21
-3000.0000
 31
0.0000
 12
-100.0000
 22
-3000.0000
 32
2600.0000
 13
1150.0000
 23
-3000.0000
 33
2600.0000
 70
15
  0
3DFACE
  5
1035
  8
SOL-KIROT-SYM
 10
1150.0000
 20
-3100.0000
 30
0.0000
 11
-100.0000
 21
-3100.0000
 31
0.0000
 12
-100.0000
 22
-3100.0000
 32
2600.0000
 13
1150.0000
 23
-3100.0000
 33
2600.0000
 70
15
  0
3DFACE
  5
1036
  8
SOL-KIROT-SYM
 10
1150.0000
 20
-3000.0000
 30
0.0000
 11
1150.0000
 21
-3100.0000
 31
0.0000
 12
1150.0000
 22
-3100.0000
 32
2600.0000
 13
1150.0000
 23
-3000.0000
 33
2600.0000
 70
15
  0
3DFACE
  5
1037
  8
SOL-KIROT-SYM
 10
-100.0000
 20
-3000.0000
 30
0.0000
 11
-100.0000
 21
-3100.0000
 31
0.0000
 12
-100.0000
 22
-3100.0000
 32
2600.0000
 13
-100.0000
 23
-3000.0000
 33
2600.0000
 70
15
  0
3DFACE
  5
1038
  8
SOL-KIROT-SYM
 10
0.0000
 20
-3100.0000
 30
0.0000
 11
0.0000
 21
100.0000
 31
0.0000
 12
-100.0000
 22
100.0000
 32
0.0000
 13
-100.0000
 23
-3100.0000
 33
0.0000
 70
15
  0
3DFACE
  5
1039
  8
SOL-KIROT-SYM
 10
0.0000
 20
-3100.0000
 30
2600.0000
 11
0.0000
 21
100.0000
 31
2600.0000
 12
-100.0000
 22
100.0000
 32
2600.0000
 13
-100.0000
 23
-3100.0000
 33
2600.0000
 70
15
  0
3DFACE
  5
103A
  8
SOL-KIROT-SYM
 10
0.0000
 20
-3100.0000
 30
0.0000
 11
0.0000
 21
100.0000
 31
0.0000
 12
0.0000
 22
100.0000
 32
2600.0000
 13
0.0000
 23
-3100.0000
 33
2600.0000
 70
15
  0
3DFACE
  5
103B
  8
SOL-KIROT-SYM
 10
-100.0000
 20
-3100.0000
 30
0.0000
 11
-100.0000
 21
100.0000
 31
0.0000
 12
-100.0000
 22
100.0000
 32
2600.0000
 13
-100.0000
 23
-3100.0000
 33
2600.0000
 70
15
  0
3DFACE
  5
103C
  8
SOL-KIROT-SYM
 10
0.0000
 20
-3100.0000
 30
0.0000
 11
-100.0000
 21
-3100.0000
 31
0.0000
 12
-100.0000
 22
-3100.0000
 32
2600.0000
 13
0.0000
 23
-3100.0000
 33
2600.0000
 70
15
  0
3DFACE
  5
103D
  8
SOL-KIROT-SYM
 10
0.0000
 20
100.0000
 30
0.0000
 11
-100.0000
 21
100.0000
 31
0.0000
 12
-100.0000
 22
100.0000
 32
2600.0000
 13
0.0000
 23
100.0000
 33
2600.0000
 70
15
  0
3DFACE
  5
103E
  8
SOL-CHALON-SYM
 10
3500.0000
 20
-2950.0000
 30
300.0000
 11
3450.0000
 21
-2950.0000
 31
300.0000
 12
3450.0000
 22
-3050.0000
 32
300.0000
 13
3500.0000
 23
-3050.0000
 33
300.0000
 70
15
  0
3DFACE
  5
103F
  8
SOL-CHALON-SYM
 10
3500.0000
 20
-2950.0000
 30
1500.0000
 11
3450.0000
 21
-2950.0000
 31
1500.0000
 12
3450.0000
 22
-3050.0000
 32
1500.0000
 13
3500.0000
 23
-3050.0000
 33
1500.0000
 70
15
  0
3DFACE
  5
1040
  8
SOL-CHALON-SYM
 10
3500.0000
 20
-2950.0000
 30
300.0000
 11
3450.0000
 21
-2950.0000
 31
300.0000
 12
3450.0000
 22
-2950.0000
 32
1500.0000
 13
3500.0000
 23
-2950.0000
 33
1500.0000
 70
15
  0
3DFACE
  5
1041
  8
SOL-CHALON-SYM
 10
3450.0000
 20
-2950.0000
 30
300.0000
 11
3450.0000
 21
-3050.0000
 31
300.0000
 12
3450.0000
 22
-3050.0000
 32
1500.0000
 13
3450.0000
 23
-2950.0000
 33
1500.0000
 70
15
  0
3DFACE
  5
1042
  8
SOL-CHALON-SYM
 10
3450.0000
 20
-3050.0000
 30
300.0000
 11
3500.0000
 21
-3050.0000
 31
300.0000
 12
3500.0000
 22
-3050.0000
 32
1500.0000
 13
3450.0000
 23
-3050.0000
 33
1500.0000
 70
15
  0
3DFACE
  5
1043
  8
SOL-CHALON-SYM
 10
3500.0000
 20
-3050.0000
 30
300.0000
 11
3500.0000
 21
-2950.0000
 31
300.0000
 12
3500.0000
 22
-2950.0000
 32
1500.0000
 13
3500.0000
 23
-3050.0000
 33
1500.0000
 70
15
  0
3DFACE
  5
1044
  8
SOL-CHALON-SYM
 10
2550.0000
 20
-2950.0000
 30
300.0000
 11
2500.0000
 21
-2950.0000
 31
300.0000
 12
2500.0000
 22
-3050.0000
 32
300.0000
 13
2550.0000
 23
-3050.0000
 33
300.0000
 70
15
  0
3DFACE
  5
1045
  8
SOL-CHALON-SYM
 10
2550.0000
 20
-2950.0000
 30
1500.0000
 11
2500.0000
 21
-2950.0000
 31
1500.0000
 12
2500.0000
 22
-3050.0000
 32
1500.0000
 13
2550.0000
 23
-3050.0000
 33
1500.0000
 70
15
  0
3DFACE
  5
1046
  8
SOL-CHALON-SYM
 10
2550.0000
 20
-2950.0000
 30
300.0000
 11
2500.0000
 21
-2950.0000
 31
300.0000
 12
2500.0000
 22
-2950.0000
 32
1500.0000
 13
2550.0000
 23
-2950.0000
 33
1500.0000
 70
15
  0
3DFACE
  5
1047
  8
SOL-CHALON-SYM
 10
2500.0000
 20
-2950.0000
 30
300.0000
 11
2500.0000
 21
-3050.0000
 31
300.0000
 12
2500.0000
 22
-3050.0000
 32
1500.0000
 13
2500.0000
 23
-2950.0000
 33
1500.0000
 70
15
  0
3DFACE
  5
1048
  8
SOL-CHALON-SYM
 10
2500.0000
 20
-3050.0000
 30
300.0000
 11
2550.0000
 21
-3050.0000
 31
300.0000
 12
2550.0000
 22
-3050.0000
 32
1500.0000
 13
2500.0000
 23
-3050.0000
 33
1500.0000
 70
15
  0
3DFACE
  5
1049
  8
SOL-CHALON-SYM
 10
2550.0000
 20
-3050.0000
 30
300.0000
 11
2550.0000
 21
-2950.0000
 31
300.0000
 12
2550.0000
 22
-2950.0000
 32
1500.0000
 13
2550.0000
 23
-3050.0000
 33
1500.0000
 70
15
  0
3DFACE
  5
104A
  8
SOL-CHALON-SYM
 10
3500.0000
 20
-2950.0000
 30
1450.0000
 11
2500.0000
 21
-2950.0000
 31
1450.0000
 12
2500.0000
 22
-3050.0000
 32
1450.0000
 13
3500.0000
 23
-3050.0000
 33
1450.0000
 70
15
  0
3DFACE
  5
104B
  8
SOL-CHALON-SYM
 10
3500.0000
 20
-2950.0000
 30
1500.0000
 11
2500.0000
 21
-2950.0000
 31
1500.0000
 12
2500.0000
 22
-3050.0000
 32
1500.0000
 13
3500.0000
 23
-3050.0000
 33
1500.0000
 70
15
  0
3DFACE
  5
104C
  8
SOL-CHALON-SYM
 10
3500.0000
 20
-2950.0000
 30
1450.0000
 11
2500.0000
 21
-2950.0000
 31
1450.0000
 12
2500.0000
 22
-2950.0000
 32
1500.0000
 13
3500.0000
 23
-2950.0000
 33
1500.0000
 70
15
  0
3DFACE
  5
104D
  8
SOL-CHALON-SYM
 10
2500.0000
 20
-2950.0000
 30
1450.0000
 11
2500.0000
 21
-3050.0000
 31
1450.0000
 12
2500.0000
 22
-3050.0000
 32
1500.0000
 13
2500.0000
 23
-2950.0000
 33
1500.0000
 70
15
  0
3DFACE
  5
104E
  8
SOL-CHALON-SYM
 10
2500.0000
 20
-3050.0000
 30
1450.0000
 11
3500.0000
 21
-3050.0000
 31
1450.0000
 12
3500.0000
 22
-3050.0000
 32
1500.0000
 13
2500.0000
 23
-3050.0000
 33
1500.0000
 70
15
  0
3DFACE
  5
104F
  8
SOL-CHALON-SYM
 10
3500.0000
 20
-3050.0000
 30
1450.0000
 11
3500.0000
 21
-2950.0000
 31
1450.0000
 12
3500.0000
 22
-2950.0000
 32
1500.0000
 13
3500.0000
 23
-3050.0000
 33
1500.0000
 70
15
  0
3DFACE
  5
1050
  8
SOL-CHALON-SYM
 10
3500.0000
 20
-2950.0000
 30
300.0000
 11
2500.0000
 21
-2950.0000
 31
300.0000
 12
2500.0000
 22
-3050.0000
 32
300.0000
 13
3500.0000
 23
-3050.0000
 33
300.0000
 70
15
  0
3DFACE
  5
1051
  8
SOL-CHALON-SYM
 10
3500.0000
 20
-2950.0000
 30
350.0000
 11
2500.0000
 21
-2950.0000
 31
350.0000
 12
2500.0000
 22
-3050.0000
 32
350.0000
 13
3500.0000
 23
-3050.0000
 33
350.0000
 70
15
  0
3DFACE
  5
1052
  8
SOL-CHALON-SYM
 10
3500.0000
 20
-2950.0000
 30
300.0000
 11
2500.0000
 21
-2950.0000
 31
300.0000
 12
2500.0000
 22
-2950.0000
 32
350.0000
 13
3500.0000
 23
-2950.0000
 33
350.0000
 70
15
  0
3DFACE
  5
1053
  8
SOL-CHALON-SYM
 10
2500.0000
 20
-2950.0000
 30
300.0000
 11
2500.0000
 21
-3050.0000
 31
300.0000
 12
2500.0000
 22
-3050.0000
 32
350.0000
 13
2500.0000
 23
-2950.0000
 33
350.0000
 70
15
  0
3DFACE
  5
1054
  8
SOL-CHALON-SYM
 10
2500.0000
 20
-3050.0000
 30
300.0000
 11
3500.0000
 21
-3050.0000
 31
300.0000
 12
3500.0000
 22
-3050.0000
 32
350.0000
 13
2500.0000
 23
-3050.0000
 33
350.0000
 70
15
  0
3DFACE
  5
1055
  8
SOL-CHALON-SYM
 10
3500.0000
 20
-3050.0000
 30
300.0000
 11
3500.0000
 21
-2950.0000
 31
300.0000
 12
3500.0000
 22
-2950.0000
 32
350.0000
 13
3500.0000
 23
-3050.0000
 33
350.0000
 70
15
  0
3DFACE
  5
1056
  8
SOL-CHALON-SYM
 10
3450.0000
 20
-2986.0000
 30
350.0000
 11
2550.0000
 21
-2986.0000
 31
350.0000
 12
2550.0000
 22
-3014.0000
 32
350.0000
 13
3450.0000
 23
-3014.0000
 33
350.0000
 70
15
  0
3DFACE
  5
1057
  8
SOL-CHALON-SYM
 10
3450.0000
 20
-2986.0000
 30
1450.0000
 11
2550.0000
 21
-2986.0000
 31
1450.0000
 12
2550.0000
 22
-3014.0000
 32
1450.0000
 13
3450.0000
 23
-3014.0000
 33
1450.0000
 70
15
  0
3DFACE
  5
1058
  8
SOL-CHALON-SYM
 10
3450.0000
 20
-2986.0000
 30
350.0000
 11
2550.0000
 21
-2986.0000
 31
350.0000
 12
2550.0000
 22
-2986.0000
 32
1450.0000
 13
3450.0000
 23
-2986.0000
 33
1450.0000
 70
15
  0
3DFACE
  5
1059
  8
SOL-CHALON-SYM
 10
2550.0000
 20
-2986.0000
 30
350.0000
 11
2550.0000
 21
-3014.0000
 31
350.0000
 12
2550.0000
 22
-3014.0000
 32
1450.0000
 13
2550.0000
 23
-2986.0000
 33
1450.0000
 70
15
  0
3DFACE
  5
105A
  8
SOL-CHALON-SYM
 10
2550.0000
 20
-3014.0000
 30
350.0000
 11
3450.0000
 21
-3014.0000
 31
350.0000
 12
3450.0000
 22
-3014.0000
 32
1450.0000
 13
2550.0000
 23
-3014.0000
 33
1450.0000
 70
15
  0
3DFACE
  5
105B
  8
SOL-CHALON-SYM
 10
3450.0000
 20
-3014.0000
 30
350.0000
 11
3450.0000
 21
-2986.0000
 31
350.0000
 12
3450.0000
 22
-2986.0000
 32
1450.0000
 13
3450.0000
 23
-3014.0000
 33
1450.0000
 70
15
  0
3DFACE
  5
105C
  8
SOL-DELET-SYM
 10
2750.0000
 20
-2950.0000
 30
0.0000
 11
2710.0000
 21
-2950.0000
 31
0.0000
 12
2710.0000
 22
-3050.0000
 32
0.0000
 13
2750.0000
 23
-3050.0000
 33
0.0000
 70
15
  0
3DFACE
  5
105D
  8
SOL-DELET-SYM
 10
2750.0000
 20
-2950.0000
 30
2050.0000
 11
2710.0000
 21
-2950.0000
 31
2050.0000
 12
2710.0000
 22
-3050.0000
 32
2050.0000
 13
2750.0000
 23
-3050.0000
 33
2050.0000
 70
15
  0
3DFACE
  5
105E
  8
SOL-DELET-SYM
 10
2750.0000
 20
-2950.0000
 30
0.0000
 11
2710.0000
 21
-2950.0000
 31
0.0000
 12
2710.0000
 22
-2950.0000
 32
2050.0000
 13
2750.0000
 23
-2950.0000
 33
2050.0000
 70
15
  0
3DFACE
  5
105F
  8
SOL-DELET-SYM
 10
2710.0000
 20
-2950.0000
 30
0.0000
 11
2710.0000
 21
-3050.0000
 31
0.0000
 12
2710.0000
 22
-3050.0000
 32
2050.0000
 13
2710.0000
 23
-2950.0000
 33
2050.0000
 70
15
  0
3DFACE
  5
1060
  8
SOL-DELET-SYM
 10
2710.0000
 20
-3050.0000
 30
0.0000
 11
2750.0000
 21
-3050.0000
 31
0.0000
 12
2750.0000
 22
-3050.0000
 32
2050.0000
 13
2710.0000
 23
-3050.0000
 33
2050.0000
 70
15
  0
3DFACE
  5
1061
  8
SOL-DELET-SYM
 10
2750.0000
 20
-3050.0000
 30
0.0000
 11
2750.0000
 21
-2950.0000
 31
0.0000
 12
2750.0000
 22
-2950.0000
 32
2050.0000
 13
2750.0000
 23
-3050.0000
 33
2050.0000
 70
15
  0
3DFACE
  5
1062
  8
SOL-DELET-SYM
 10
1890.0000
 20
-2950.0000
 30
0.0000
 11
1850.0000
 21
-2950.0000
 31
0.0000
 12
1850.0000
 22
-3050.0000
 32
0.0000
 13
1890.0000
 23
-3050.0000
 33
0.0000
 70
15
  0
3DFACE
  5
1063
  8
SOL-DELET-SYM
 10
1890.0000
 20
-2950.0000
 30
2050.0000
 11
1850.0000
 21
-2950.0000
 31
2050.0000
 12
1850.0000
 22
-3050.0000
 32
2050.0000
 13
1890.0000
 23
-3050.0000
 33
2050.0000
 70
15
  0
3DFACE
  5
1064
  8
SOL-DELET-SYM
 10
1890.0000
 20
-2950.0000
 30
0.0000
 11
1850.0000
 21
-2950.0000
 31
0.0000
 12
1850.0000
 22
-2950.0000
 32
2050.0000
 13
1890.0000
 23
-2950.0000
 33
2050.0000
 70
15
  0
3DFACE
  5
1065
  8
SOL-DELET-SYM
 10
1850.0000
 20
-2950.0000
 30
0.0000
 11
1850.0000
 21
-3050.0000
 31
0.0000
 12
1850.0000
 22
-3050.0000
 32
2050.0000
 13
1850.0000
 23
-2950.0000
 33
2050.0000
 70
15
  0
3DFACE
  5
1066
  8
SOL-DELET-SYM
 10
1850.0000
 20
-3050.0000
 30
0.0000
 11
1890.0000
 21
-3050.0000
 31
0.0000
 12
1890.0000
 22
-3050.0000
 32
2050.0000
 13
1850.0000
 23
-3050.0000
 33
2050.0000
 70
15
  0
3DFACE
  5
1067
  8
SOL-DELET-SYM
 10
1890.0000
 20
-3050.0000
 30
0.0000
 11
1890.0000
 21
-2950.0000
 31
0.0000
 12
1890.0000
 22
-2950.0000
 32
2050.0000
 13
1890.0000
 23
-3050.0000
 33
2050.0000
 70
15
  0
3DFACE
  5
1068
  8
SOL-DELET-SYM
 10
2750.0000
 20
-2950.0000
 30
2010.0000
 11
1850.0000
 21
-2950.0000
 31
2010.0000
 12
1850.0000
 22
-3050.0000
 32
2010.0000
 13
2750.0000
 23
-3050.0000
 33
2010.0000
 70
15
  0
3DFACE
  5
1069
  8
SOL-DELET-SYM
 10
2750.0000
 20
-2950.0000
 30
2050.0000
 11
1850.0000
 21
-2950.0000
 31
2050.0000
 12
1850.0000
 22
-3050.0000
 32
2050.0000
 13
2750.0000
 23
-3050.0000
 33
2050.0000
 70
15
  0
3DFACE
  5
106A
  8
SOL-DELET-SYM
 10
2750.0000
 20
-2950.0000
 30
2010.0000
 11
1850.0000
 21
-2950.0000
 31
2010.0000
 12
1850.0000
 22
-2950.0000
 32
2050.0000
 13
2750.0000
 23
-2950.0000
 33
2050.0000
 70
15
  0
3DFACE
  5
106B
  8
SOL-DELET-SYM
 10
1850.0000
 20
-2950.0000
 30
2010.0000
 11
1850.0000
 21
-3050.0000
 31
2010.0000
 12
1850.0000
 22
-3050.0000
 32
2050.0000
 13
1850.0000
 23
-2950.0000
 33
2050.0000
 70
15
  0
3DFACE
  5
106C
  8
SOL-DELET-SYM
 10
1850.0000
 20
-3050.0000
 30
2010.0000
 11
2750.0000
 21
-3050.0000
 31
2010.0000
 12
2750.0000
 22
-3050.0000
 32
2050.0000
 13
1850.0000
 23
-3050.0000
 33
2050.0000
 70
15
  0
3DFACE
  5
106D
  8
SOL-DELET-SYM
 10
2750.0000
 20
-3050.0000
 30
2010.0000
 11
2750.0000
 21
-2950.0000
 31
2010.0000
 12
2750.0000
 22
-2950.0000
 32
2050.0000
 13
2750.0000
 23
-3050.0000
 33
2050.0000
 70
15
  0
3DFACE
  5
106E
  8
SOL-DELET-SYM
 10
2750.0000
 20
-2950.0000
 30
0.0000
 11
1850.0000
 21
-2950.0000
 31
0.0000
 12
1850.0000
 22
-3050.0000
 32
0.0000
 13
2750.0000
 23
-3050.0000
 33
0.0000
 70
15
  0
3DFACE
  5
106F
  8
SOL-DELET-SYM
 10
2750.0000
 20
-2950.0000
 30
30.0000
 11
1850.0000
 21
-2950.0000
 31
30.0000
 12
1850.0000
 22
-3050.0000
 32
30.0000
 13
2750.0000
 23
-3050.0000
 33
30.0000
 70
15
  0
3DFACE
  5
1070
  8
SOL-DELET-SYM
 10
2750.0000
 20
-2950.0000
 30
0.0000
 11
1850.0000
 21
-2950.0000
 31
0.0000
 12
1850.0000
 22
-2950.0000
 32
30.0000
 13
2750.0000
 23
-2950.0000
 33
30.0000
 70
15
  0
3DFACE
  5
1071
  8
SOL-DELET-SYM
 10
1850.0000
 20
-2950.0000
 30
0.0000
 11
1850.0000
 21
-3050.0000
 31
0.0000
 12
1850.0000
 22
-3050.0000
 32
30.0000
 13
1850.0000
 23
-2950.0000
 33
30.0000
 70
15
  0
3DFACE
  5
1072
  8
SOL-DELET-SYM
 10
1850.0000
 20
-3050.0000
 30
0.0000
 11
2750.0000
 21
-3050.0000
 31
0.0000
 12
2750.0000
 22
-3050.0000
 32
30.0000
 13
1850.0000
 23
-3050.0000
 33
30.0000
 70
15
  0
3DFACE
  5
1073
  8
SOL-DELET-SYM
 10
2750.0000
 20
-3050.0000
 30
0.0000
 11
2750.0000
 21
-2950.0000
 31
0.0000
 12
2750.0000
 22
-2950.0000
 32
30.0000
 13
2750.0000
 23
-3050.0000
 33
30.0000
 70
15
  0
3DFACE
  5
1074
  8
SOL-DELET-SYM
 10
2050.0000
 20
-2950.0000
 30
0.0000
 11
2010.0000
 21
-2950.0000
 31
0.0000
 12
2010.0000
 22
-3050.0000
 32
0.0000
 13
2050.0000
 23
-3050.0000
 33
0.0000
 70
15
  0
3DFACE
  5
1075
  8
SOL-DELET-SYM
 10
2050.0000
 20
-2950.0000
 30
2100.0000
 11
2010.0000
 21
-2950.0000
 31
2100.0000
 12
2010.0000
 22
-3050.0000
 32
2100.0000
 13
2050.0000
 23
-3050.0000
 33
2100.0000
 70
15
  0
3DFACE
  5
1076
  8
SOL-DELET-SYM
 10
2050.0000
 20
-2950.0000
 30
0.0000
 11
2010.0000
 21
-2950.0000
 31
0.0000
 12
2010.0000
 22
-2950.0000
 32
2100.0000
 13
2050.0000
 23
-2950.0000
 33
2100.0000
 70
15
  0
3DFACE
  5
1077
  8
SOL-DELET-SYM
 10
2010.0000
 20
-2950.0000
 30
0.0000
 11
2010.0000
 21
-3050.0000
 31
0.0000
 12
2010.0000
 22
-3050.0000
 32
2100.0000
 13
2010.0000
 23
-2950.0000
 33
2100.0000
 70
15
  0
3DFACE
  5
1078
  8
SOL-DELET-SYM
 10
2010.0000
 20
-3050.0000
 30
0.0000
 11
2050.0000
 21
-3050.0000
 31
0.0000
 12
2050.0000
 22
-3050.0000
 32
2100.0000
 13
2010.0000
 23
-3050.0000
 33
2100.0000
 70
15
  0
3DFACE
  5
1079
  8
SOL-DELET-SYM
 10
2050.0000
 20
-3050.0000
 30
0.0000
 11
2050.0000
 21
-2950.0000
 31
0.0000
 12
2050.0000
 22
-2950.0000
 32
2100.0000
 13
2050.0000
 23
-3050.0000
 33
2100.0000
 70
15
  0
3DFACE
  5
107A
  8
SOL-DELET-SYM
 10
1190.0000
 20
-2950.0000
 30
0.0000
 11
1150.0000
 21
-2950.0000
 31
0.0000
 12
1150.0000
 22
-3050.0000
 32
0.0000
 13
1190.0000
 23
-3050.0000
 33
0.0000
 70
15
  0
3DFACE
  5
107B
  8
SOL-DELET-SYM
 10
1190.0000
 20
-2950.0000
 30
2100.0000
 11
1150.0000
 21
-2950.0000
 31
2100.0000
 12
1150.0000
 22
-3050.0000
 32
2100.0000
 13
1190.0000
 23
-3050.0000
 33
2100.0000
 70
15
  0
3DFACE
  5
107C
  8
SOL-DELET-SYM
 10
1190.0000
 20
-2950.0000
 30
0.0000
 11
1150.0000
 21
-2950.0000
 31
0.0000
 12
1150.0000
 22
-2950.0000
 32
2100.0000
 13
1190.0000
 23
-2950.0000
 33
2100.0000
 70
15
  0
3DFACE
  5
107D
  8
SOL-DELET-SYM
 10
1150.0000
 20
-2950.0000
 30
0.0000
 11
1150.0000
 21
-3050.0000
 31
0.0000
 12
1150.0000
 22
-3050.0000
 32
2100.0000
 13
1150.0000
 23
-2950.0000
 33
2100.0000
 70
15
  0
3DFACE
  5
107E
  8
SOL-DELET-SYM
 10
1150.0000
 20
-3050.0000
 30
0.0000
 11
1190.0000
 21
-3050.0000
 31
0.0000
 12
1190.0000
 22
-3050.0000
 32
2100.0000
 13
1150.0000
 23
-3050.0000
 33
2100.0000
 70
15
  0
3DFACE
  5
107F
  8
SOL-DELET-SYM
 10
1190.0000
 20
-3050.0000
 30
0.0000
 11
1190.0000
 21
-2950.0000
 31
0.0000
 12
1190.0000
 22
-2950.0000
 32
2100.0000
 13
1190.0000
 23
-3050.0000
 33
2100.0000
 70
15
  0
3DFACE
  5
1080
  8
SOL-DELET-SYM
 10
2050.0000
 20
-2950.0000
 30
2060.0000
 11
1150.0000
 21
-2950.0000
 31
2060.0000
 12
1150.0000
 22
-3050.0000
 32
2060.0000
 13
2050.0000
 23
-3050.0000
 33
2060.0000
 70
15
  0
3DFACE
  5
1081
  8
SOL-DELET-SYM
 10
2050.0000
 20
-2950.0000
 30
2100.0000
 11
1150.0000
 21
-2950.0000
 31
2100.0000
 12
1150.0000
 22
-3050.0000
 32
2100.0000
 13
2050.0000
 23
-3050.0000
 33
2100.0000
 70
15
  0
3DFACE
  5
1082
  8
SOL-DELET-SYM
 10
2050.0000
 20
-2950.0000
 30
2060.0000
 11
1150.0000
 21
-2950.0000
 31
2060.0000
 12
1150.0000
 22
-2950.0000
 32
2100.0000
 13
2050.0000
 23
-2950.0000
 33
2100.0000
 70
15
  0
3DFACE
  5
1083
  8
SOL-DELET-SYM
 10
1150.0000
 20
-2950.0000
 30
2060.0000
 11
1150.0000
 21
-3050.0000
 31
2060.0000
 12
1150.0000
 22
-3050.0000
 32
2100.0000
 13
1150.0000
 23
-2950.0000
 33
2100.0000
 70
15
  0
3DFACE
  5
1084
  8
SOL-DELET-SYM
 10
1150.0000
 20
-3050.0000
 30
2060.0000
 11
2050.0000
 21
-3050.0000
 31
2060.0000
 12
2050.0000
 22
-3050.0000
 32
2100.0000
 13
1150.0000
 23
-3050.0000
 33
2100.0000
 70
15
  0
3DFACE
  5
1085
  8
SOL-DELET-SYM
 10
2050.0000
 20
-3050.0000
 30
2060.0000
 11
2050.0000
 21
-2950.0000
 31
2060.0000
 12
2050.0000
 22
-2950.0000
 32
2100.0000
 13
2050.0000
 23
-3050.0000
 33
2100.0000
 70
15
  0
3DFACE
  5
1086
  8
SOL-DELET-SYM
 10
2050.0000
 20
-2950.0000
 30
0.0000
 11
1150.0000
 21
-2950.0000
 31
0.0000
 12
1150.0000
 22
-3050.0000
 32
0.0000
 13
2050.0000
 23
-3050.0000
 33
0.0000
 70
15
  0
3DFACE
  5
1087
  8
SOL-DELET-SYM
 10
2050.0000
 20
-2950.0000
 30
30.0000
 11
1150.0000
 21
-2950.0000
 31
30.0000
 12
1150.0000
 22
-3050.0000
 32
30.0000
 13
2050.0000
 23
-3050.0000
 33
30.0000
 70
15
  0
3DFACE
  5
1088
  8
SOL-DELET-SYM
 10
2050.0000
 20
-2950.0000
 30
0.0000
 11
1150.0000
 21
-2950.0000
 31
0.0000
 12
1150.0000
 22
-2950.0000
 32
30.0000
 13
2050.0000
 23
-2950.0000
 33
30.0000
 70
15
  0
3DFACE
  5
1089
  8
SOL-DELET-SYM
 10
1150.0000
 20
-2950.0000
 30
0.0000
 11
1150.0000
 21
-3050.0000
 31
0.0000
 12
1150.0000
 22
-3050.0000
 32
30.0000
 13
1150.0000
 23
-2950.0000
 33
30.0000
 70
15
  0
3DFACE
  5
108A
  8
SOL-DELET-SYM
 10
1150.0000
 20
-3050.0000
 30
0.0000
 11
2050.0000
 21
-3050.0000
 31
0.0000
 12
2050.0000
 22
-3050.0000
 32
30.0000
 13
1150.0000
 23
-3050.0000
 33
30.0000
 70
15
  0
3DFACE
  5
108B
  8
SOL-DELET-SYM
 10
2050.0000
 20
-3050.0000
 30
0.0000
 11
2050.0000
 21
-2950.0000
 31
0.0000
 12
2050.0000
 22
-2950.0000
 32
30.0000
 13
2050.0000
 23
-3050.0000
 33
30.0000
 70
15
  0
INSERT
  5
108C
  8
SOL-CHASHMAL-SYM
  2
SOCKET
 10
345.0000
 20
0.0000
 30
110.0000
 41
1.0000
 42
1.0000
 43
1.0000
 50
0.0000
  0
3DFACE
  5
108D
  8
SOL-CHASHMAL-SYM
 10
300.0000
 20
-60.0000
 30
110.0000
 11
390.0000
 21
-60.0000
 31
110.0000
 12
390.0000
 22
-50.0000
 32
110.0000
 13
300.0000
 23
-50.0000
 33
110.0000
 70
15
  0
3DFACE
  5
108E
  8
SOL-CHASHMAL-SYM
 10
300.0000
 20
-60.0000
 30
200.0000
 11
390.0000
 21
-60.0000
 31
200.0000
 12
390.0000
 22
-50.0000
 32
200.0000
 13
300.0000
 23
-50.0000
 33
200.0000
 70
15
  0
3DFACE
  5
108F
  8
SOL-CHASHMAL-SYM
 10
300.0000
 20
-60.0000
 30
110.0000
 11
390.0000
 21
-60.0000
 31
110.0000
 12
390.0000
 22
-60.0000
 32
200.0000
 13
300.0000
 23
-60.0000
 33
200.0000
 70
15
  0
3DFACE
  5
1090
  8
SOL-CHASHMAL-SYM
 10
390.0000
 20
-60.0000
 30
110.0000
 11
390.0000
 21
-50.0000
 31
110.0000
 12
390.0000
 22
-50.0000
 32
200.0000
 13
390.0000
 23
-60.0000
 33
200.0000
 70
15
  0
3DFACE
  5
1091
  8
SOL-CHASHMAL-SYM
 10
390.0000
 20
-50.0000
 30
110.0000
 11
300.0000
 21
-50.0000
 31
110.0000
 12
300.0000
 22
-50.0000
 32
200.0000
 13
390.0000
 23
-50.0000
 33
200.0000
 70
15
  0
3DFACE
  5
1092
  8
SOL-CHASHMAL-SYM
 10
300.0000
 20
-50.0000
 30
110.0000
 11
300.0000
 21
-60.0000
 31
110.0000
 12
300.0000
 22
-60.0000
 32
200.0000
 13
300.0000
 23
-50.0000
 33
200.0000
 70
15
  0
INSERT
  5
1093
  8
SOL-CHASHMAL-SYM
  2
DUPLEXSWITCH
 10
1080.0000
 20
0.0000
 30
110.0000
 41
1.0000
 42
1.0000
 43
1.0000
 50
0.0000
  0
3DFACE
  5
1094
  8
SOL-CHASHMAL-SYM
 10
1000.0000
 20
-60.0000
 30
110.0000
 11
1160.0000
 21
-60.0000
 31
110.0000
 12
1160.0000
 22
-50.0000
 32
110.0000
 13
1000.0000
 23
-50.0000
 33
110.0000
 70
15
  0
3DFACE
  5
1095
  8
SOL-CHASHMAL-SYM
 10
1000.0000
 20
-60.0000
 30
200.0000
 11
1160.0000
 21
-60.0000
 31
200.0000
 12
1160.0000
 22
-50.0000
 32
200.0000
 13
1000.0000
 23
-50.0000
 33
200.0000
 70
15
  0
3DFACE
  5
1096
  8
SOL-CHASHMAL-SYM
 10
1000.0000
 20
-60.0000
 30
110.0000
 11
1160.0000
 21
-60.0000
 31
110.0000
 12
1160.0000
 22
-60.0000
 32
200.0000
 13
1000.0000
 23
-60.0000
 33
200.0000
 70
15
  0
3DFACE
  5
1097
  8
SOL-CHASHMAL-SYM
 10
1160.0000
 20
-60.0000
 30
110.0000
 11
1160.0000
 21
-50.0000
 31
110.0000
 12
1160.0000
 22
-50.0000
 32
200.0000
 13
1160.0000
 23
-60.0000
 33
200.0000
 70
15
  0
3DFACE
  5
1098
  8
SOL-CHASHMAL-SYM
 10
1160.0000
 20
-50.0000
 30
110.0000
 11
1000.0000
 21
-50.0000
 31
110.0000
 12
1000.0000
 22
-50.0000
 32
200.0000
 13
1160.0000
 23
-50.0000
 33
200.0000
 70
15
  0
3DFACE
  5
1099
  8
SOL-CHASHMAL-SYM
 10
1000.0000
 20
-50.0000
 30
110.0000
 11
1000.0000
 21
-60.0000
 31
110.0000
 12
1000.0000
 22
-60.0000
 32
200.0000
 13
1000.0000
 23
-50.0000
 33
200.0000
 70
15
  0
INSERT
  5
109A
  8
SOL-CHASHMAL-SYM
  2
SOCKET
 10
1745.0000
 20
0.0000
 30
130.0000
 41
1.0000
 42
1.0000
 43
1.0000
 50
0.0000
  0
3DFACE
  5
109B
  8
SOL-CHASHMAL-SYM
 10
1700.0000
 20
-60.0000
 30
130.0000
 11
1790.0000
 21
-60.0000
 31
130.0000
 12
1790.0000
 22
-50.0000
 32
130.0000
 13
1700.0000
 23
-50.0000
 33
130.0000
 70
15
  0
3DFACE
  5
109C
  8
SOL-CHASHMAL-SYM
 10
1700.0000
 20
-60.0000
 30
220.0000
 11
1790.0000
 21
-60.0000
 31
220.0000
 12
1790.0000
 22
-50.0000
 32
220.0000
 13
1700.0000
 23
-50.0000
 33
220.0000
 70
15
  0
3DFACE
  5
109D
  8
SOL-CHASHMAL-SYM
 10
1700.0000
 20
-60.0000
 30
130.0000
 11
1790.0000
 21
-60.0000
 31
130.0000
 12
1790.0000
 22
-60.0000
 32
220.0000
 13
1700.0000
 23
-60.0000
 33
220.0000
 70
15
  0
3DFACE
  5
109E
  8
SOL-CHASHMAL-SYM
 10
1790.0000
 20
-60.0000
 30
130.0000
 11
1790.0000
 21
-50.0000
 31
130.0000
 12
1790.0000
 22
-50.0000
 32
220.0000
 13
1790.0000
 23
-60.0000
 33
220.0000
 70
15
  0
3DFACE
  5
109F
  8
SOL-CHASHMAL-SYM
 10
1790.0000
 20
-50.0000
 30
130.0000
 11
1700.0000
 21
-50.0000
 31
130.0000
 12
1700.0000
 22
-50.0000
 32
220.0000
 13
1790.0000
 23
-50.0000
 33
220.0000
 70
15
  0
3DFACE
  5
10A0
  8
SOL-CHASHMAL-SYM
 10
1700.0000
 20
-50.0000
 30
130.0000
 11
1700.0000
 21
-60.0000
 31
130.0000
 12
1700.0000
 22
-60.0000
 32
220.0000
 13
1700.0000
 23
-50.0000
 33
220.0000
 70
15
  0
INSERT
  5
10A1
  8
SOL-CHASHMAL-SYM
  2
CONTROLBOX
 10
2430.0000
 20
0.0000
 30
150.0000
 41
1.0000
 42
1.0000
 43
1.0000
 50
0.0000
  0
3DFACE
  5
10A2
  8
SOL-CHASHMAL-SYM
 10
2400.0000
 20
-60.0000
 30
150.0000
 11
2460.0000
 21
-60.0000
 31
150.0000
 12
2460.0000
 22
-50.0000
 32
150.0000
 13
2400.0000
 23
-50.0000
 33
150.0000
 70
15
  0
3DFACE
  5
10A3
  8
SOL-CHASHMAL-SYM
 10
2400.0000
 20
-60.0000
 30
210.0000
 11
2460.0000
 21
-60.0000
 31
210.0000
 12
2460.0000
 22
-50.0000
 32
210.0000
 13
2400.0000
 23
-50.0000
 33
210.0000
 70
15
  0
3DFACE
  5
10A4
  8
SOL-CHASHMAL-SYM
 10
2400.0000
 20
-60.0000
 30
150.0000
 11
2460.0000
 21
-60.0000
 31
150.0000
 12
2460.0000
 22
-60.0000
 32
210.0000
 13
2400.0000
 23
-60.0000
 33
210.0000
 70
15
  0
3DFACE
  5
10A5
  8
SOL-CHASHMAL-SYM
 10
2460.0000
 20
-60.0000
 30
150.0000
 11
2460.0000
 21
-50.0000
 31
150.0000
 12
2460.0000
 22
-50.0000
 32
210.0000
 13
2460.0000
 23
-60.0000
 33
210.0000
 70
15
  0
3DFACE
  5
10A6
  8
SOL-CHASHMAL-SYM
 10
2460.0000
 20
-50.0000
 30
150.0000
 11
2400.0000
 21
-50.0000
 31
150.0000
 12
2400.0000
 22
-50.0000
 32
210.0000
 13
2460.0000
 23
-50.0000
 33
210.0000
 70
15
  0
3DFACE
  5
10A7
  8
SOL-CHASHMAL-SYM
 10
2400.0000
 20
-50.0000
 30
150.0000
 11
2400.0000
 21
-60.0000
 31
150.0000
 12
2400.0000
 22
-60.0000
 32
210.0000
 13
2400.0000
 23
-50.0000
 33
210.0000
 70
15
  0
3DFACE
  5
10A8
  8
SOL-CHASHMAL-SYM
 10
3100.0000
 20
-60.0000
 30
90.0000
 11
3160.0000
 21
-60.0000
 31
90.0000
 12
3160.0000
 22
-50.0000
 32
90.0000
 13
3100.0000
 23
-50.0000
 33
90.0000
 70
15
  0
3DFACE
  5
10A9
  8
SOL-CHASHMAL-SYM
 10
3100.0000
 20
-60.0000
 30
150.0000
 11
3160.0000
 21
-60.0000
 31
150.0000
 12
3160.0000
 22
-50.0000
 32
150.0000
 13
3100.0000
 23
-50.0000
 33
150.0000
 70
15
  0
3DFACE
  5
10AA
  8
SOL-CHASHMAL-SYM
 10
3100.0000
 20
-60.0000
 30
90.0000
 11
3160.0000
 21
-60.0000
 31
90.0000
 12
3160.0000
 22
-60.0000
 32
150.0000
 13
3100.0000
 23
-60.0000
 33
150.0000
 70
15
  0
3DFACE
  5
10AB
  8
SOL-CHASHMAL-SYM
 10
3160.0000
 20
-60.0000
 30
90.0000
 11
3160.0000
 21
-50.0000
 31
90.0000
 12
3160.0000
 22
-50.0000
 32
150.0000
 13
3160.0000
 23
-60.0000
 33
150.0000
 70
15
  0
3DFACE
  5
10AC
  8
SOL-CHASHMAL-SYM
 10
3160.0000
 20
-50.0000
 30
90.0000
 11
3100.0000
 21
-50.0000
 31
90.0000
 12
3100.0000
 22
-50.0000
 32
150.0000
 13
3160.0000
 23
-50.0000
 33
150.0000
 70
15
  0
3DFACE
  5
10AD
  8
SOL-CHASHMAL-SYM
 10
3100.0000
 20
-50.0000
 30
90.0000
 11
3100.0000
 21
-60.0000
 31
90.0000
 12
3100.0000
 22
-60.0000
 32
150.0000
 13
3100.0000
 23
-50.0000
 33
150.0000
 70
15
  0
INSERT
  5
10AE
  8
SOL-CHASHMAL-SYM
  2
SOCKET
 10
4000.0000
 20
-360.0000
 30
180.0000
 41
1.0000
 42
1.0000
 43
1.0000
 50
270.0000
  0
3DFACE
  5
10AF
  8
SOL-CHASHMAL-SYM
 10
3940.0000
 20
-300.0000
 30
180.0000
 11
3940.0000
 21
-420.0000
 31
180.0000
 12
3950.0000
 22
-420.0000
 32
180.0000
 13
3950.0000
 23
-300.0000
 33
180.0000
 70
15
  0
3DFACE
  5
10B0
  8
SOL-CHASHMAL-SYM
 10
3940.0000
 20
-300.0000
 30
300.0000
 11
3940.0000
 21
-420.0000
 31
300.0000
 12
3950.0000
 22
-420.0000
 32
300.0000
 13
3950.0000
 23
-300.0000
 33
300.0000
 70
15
  0
3DFACE
  5
10B1
  8
SOL-CHASHMAL-SYM
 10
3940.0000
 20
-300.0000
 30
180.0000
 11
3940.0000
 21
-420.0000
 31
180.0000
 12
3940.0000
 22
-420.0000
 32
300.0000
 13
3940.0000
 23
-300.0000
 33
300.0000
 70
15
  0
3DFACE
  5
10B2
  8
SOL-CHASHMAL-SYM
 10
3940.0000
 20
-420.0000
 30
180.0000
 11
3950.0000
 21
-420.0000
 31
180.0000
 12
3950.0000
 22
-420.0000
 32
300.0000
 13
3940.0000
 23
-420.0000
 33
300.0000
 70
15
  0
3DFACE
  5
10B3
  8
SOL-CHASHMAL-SYM
 10
3950.0000
 20
-420.0000
 30
180.0000
 11
3950.0000
 21
-300.0000
 31
180.0000
 12
3950.0000
 22
-300.0000
 32
300.0000
 13
3950.0000
 23
-420.0000
 33
300.0000
 70
15
  0
3DFACE
  5
10B4
  8
SOL-CHASHMAL-SYM
 10
3950.0000
 20
-300.0000
 30
180.0000
 11
3940.0000
 21
-300.0000
 31
180.0000
 12
3940.0000
 22
-300.0000
 32
300.0000
 13
3950.0000
 23
-300.0000
 33
300.0000
 70
15
  0
INSERT
  5
10B5
  8
SOL-TEURA-SYM
  2
LIGHTING
 10
4000.0000
 20
-1075.0000
 30
2600.0000
 41
1.0000
 42
1.0000
 43
1.0000
 50
270.0000
  0
3DFACE
  5
10B6
  8
SOL-TEURA-SYM
 10
3940.0000
 20
-1000.0000
 30
2600.0000
 11
3940.0000
 21
-1150.0000
 31
2600.0000
 12
3950.0000
 22
-1150.0000
 32
2600.0000
 13
3950.0000
 23
-1000.0000
 33
2600.0000
 70
15
  0
3DFACE
  5
10B7
  8
SOL-TEURA-SYM
 10
3940.0000
 20
-1000.0000
 30
2750.0000
 11
3940.0000
 21
-1150.0000
 31
2750.0000
 12
3950.0000
 22
-1150.0000
 32
2750.0000
 13
3950.0000
 23
-1000.0000
 33
2750.0000
 70
15
  0
3DFACE
  5
10B8
  8
SOL-TEURA-SYM
 10
3940.0000
 20
-1000.0000
 30
2600.0000
 11
3940.0000
 21
-1150.0000
 31
2600.0000
 12
3940.0000
 22
-1150.0000
 32
2750.0000
 13
3940.0000
 23
-1000.0000
 33
2750.0000
 70
15
  0
3DFACE
  5
10B9
  8
SOL-TEURA-SYM
 10
3940.0000
 20
-1150.0000
 30
2600.0000
 11
3950.0000
 21
-1150.0000
 31
2600.0000
 12
3950.0000
 22
-1150.0000
 32
2750.0000
 13
3940.0000
 23
-1150.0000
 33
2750.0000
 70
15
  0
3DFACE
  5
10BA
  8
SOL-TEURA-SYM
 10
3950.0000
 20
-1150.0000
 30
2600.0000
 11
3950.0000
 21
-1000.0000
 31
2600.0000
 12
3950.0000
 22
-1000.0000
 32
2750.0000
 13
3950.0000
 23
-1150.0000
 33
2750.0000
 70
15
  0
3DFACE
  5
10BB
  8
SOL-TEURA-SYM
 10
3950.0000
 20
-1000.0000
 30
2600.0000
 11
3940.0000
 21
-1000.0000
 31
2600.0000
 12
3940.0000
 22
-1000.0000
 32
2750.0000
 13
3950.0000
 23
-1000.0000
 33
2750.0000
 70
15
  0
INSERT
  5
10BC
  8
SOL-MAYIM-SYM
  2
FAUCET
 10
4000.0000
 20
-1730.0000
 30
50.0000
 41
1.0000
 42
1.0000
 43
1.0000
 50
270.0000
  0
3DFACE
  5
10BD
  8
SOL-MAYIM-SYM
 10
3920.0000
 20
-1700.0000
 30
50.0000
 11
3920.0000
 21
-1760.0000
 31
50.0000
 12
3950.0000
 22
-1760.0000
 32
50.0000
 13
3950.0000
 23
-1700.0000
 33
50.0000
 70
15
  0
3DFACE
  5
10BE
  8
SOL-MAYIM-SYM
 10
3920.0000
 20
-1700.0000
 30
110.0000
 11
3920.0000
 21
-1760.0000
 31
110.0000
 12
3950.0000
 22
-1760.0000
 32
110.0000
 13
3950.0000
 23
-1700.0000
 33
110.0000
 70
15
  0
3DFACE
  5
10BF
  8
SOL-MAYIM-SYM
 10
3920.0000
 20
-1700.0000
 30
50.0000
 11
3920.0000
 21
-1760.0000
 31
50.0000
 12
3920.0000
 22
-1760.0000
 32
110.0000
 13
3920.0000
 23
-1700.0000
 33
110.0000
 70
15
  0
3DFACE
  5
10C0
  8
SOL-MAYIM-SYM
 10
3920.0000
 20
-1760.0000
 30
50.0000
 11
3950.0000
 21
-1760.0000
 31
50.0000
 12
3950.0000
 22
-1760.0000
 32
110.0000
 13
3920.0000
 23
-1760.0000
 33
110.0000
 70
15
  0
3DFACE
  5
10C1
  8
SOL-MAYIM-SYM
 10
3950.0000
 20
-1760.0000
 30
50.0000
 11
3950.0000
 21
-1700.0000
 31
50.0000
 12
3950.0000
 22
-1700.0000
 32
110.0000
 13
3950.0000
 23
-1760.0000
 33
110.0000
 70
15
  0
3DFACE
  5
10C2
  8
SOL-MAYIM-SYM
 10
3950.0000
 20
-1700.0000
 30
50.0000
 11
3920.0000
 21
-1700.0000
 31
50.0000
 12
3920.0000
 22
-1700.0000
 32
110.0000
 13
3950.0000
 23
-1700.0000
 33
110.0000
 70
15
  0
INSERT
  5
10C3
  8
SOL-GAZ-SYM
  2
GAS
 10
4000.0000
 20
-2430.0000
 30
60.0000
 41
1.0000
 42
1.0000
 43
1.0000
 50
270.0000
  0
3DFACE
  5
10C4
  8
SOL-GAZ-SYM
 10
3920.0000
 20
-2400.0000
 30
60.0000
 11
3920.0000
 21
-2460.0000
 31
60.0000
 12
3950.0000
 22
-2460.0000
 32
60.0000
 13
3950.0000
 23
-2400.0000
 33
60.0000
 70
15
  0
3DFACE
  5
10C5
  8
SOL-GAZ-SYM
 10
3920.0000
 20
-2400.0000
 30
120.0000
 11
3920.0000
 21
-2460.0000
 31
120.0000
 12
3950.0000
 22
-2460.0000
 32
120.0000
 13
3950.0000
 23
-2400.0000
 33
120.0000
 70
15
  0
3DFACE
  5
10C6
  8
SOL-GAZ-SYM
 10
3920.0000
 20
-2400.0000
 30
60.0000
 11
3920.0000
 21
-2460.0000
 31
60.0000
 12
3920.0000
 22
-2460.0000
 32
120.0000
 13
3920.0000
 23
-2400.0000
 33
120.0000
 70
15
  0
3DFACE
  5
10C7
  8
SOL-GAZ-SYM
 10
3920.0000
 20
-2460.0000
 30
60.0000
 11
3950.0000
 21
-2460.0000
 31
60.0000
 12
3950.0000
 22
-2460.0000
 32
120.0000
 13
3920.0000
 23
-2460.0000
 33
120.0000
 70
15
  0
3DFACE
  5
10C8
  8
SOL-GAZ-SYM
 10
3950.0000
 20
-2460.0000
 30
60.0000
 11
3950.0000
 21
-2400.0000
 31
60.0000
 12
3950.0000
 22
-2400.0000
 32
120.0000
 13
3950.0000
 23
-2460.0000
 33
120.0000
 70
15
  0
3DFACE
  5
10C9
  8
SOL-GAZ-SYM
 10
3950.0000
 20
-2400.0000
 30
60.0000
 11
3920.0000
 21
-2400.0000
 31
60.0000
 12
3920.0000
 22
-2400.0000
 32
120.0000
 13
3950.0000
 23
-2400.0000
 33
120.0000
 70
15
  0
INSERT
  5
10CA
  8
SOL-MAYIM-SYM
  2
FAUCET
 10
4000.0000
 20
-3125.0000
 30
40.0000
 41
1.0000
 42
1.0000
 43
1.0000
 50
270.0000
  0
3DFACE
  5
10CB
  8
SOL-MAYIM-SYM
 10
3920.0000
 20
-3100.0000
 30
40.0000
 11
3920.0000
 21
-3150.0000
 31
40.0000
 12
3950.0000
 22
-3150.0000
 32
40.0000
 13
3950.0000
 23
-3100.0000
 33
40.0000
 70
15
  0
3DFACE
  5
10CC
  8
SOL-MAYIM-SYM
 10
3920.0000
 20
-3100.0000
 30
90.0000
 11
3920.0000
 21
-3150.0000
 31
90.0000
 12
3950.0000
 22
-3150.0000
 32
90.0000
 13
3950.0000
 23
-3100.0000
 33
90.0000
 70
15
  0
3DFACE
  5
10CD
  8
SOL-MAYIM-SYM
 10
3920.0000
 20
-3100.0000
 30
40.0000
 11
3920.0000
 21
-3150.0000
 31
40.0000
 12
3920.0000
 22
-3150.0000
 32
90.0000
 13
3920.0000
 23
-3100.0000
 33
90.0000
 70
15
  0
3DFACE
  5
10CE
  8
SOL-MAYIM-SYM
 10
3920.0000
 20
-3150.0000
 30
40.0000
 11
3950.0000
 21
-3150.0000
 31
40.0000
 12
3950.0000
 22
-3150.0000
 32
90.0000
 13
3920.0000
 23
-3150.0000
 33
90.0000
 70
15
  0
3DFACE
  5
10CF
  8
SOL-MAYIM-SYM
 10
3950.0000
 20
-3150.0000
 30
40.0000
 11
3950.0000
 21
-3100.0000
 31
40.0000
 12
3950.0000
 22
-3100.0000
 32
90.0000
 13
3950.0000
 23
-3150.0000
 33
90.0000
 70
15
  0
3DFACE
  5
10D0
  8
SOL-MAYIM-SYM
 10
3950.0000
 20
-3100.0000
 30
40.0000
 11
3920.0000
 21
-3100.0000
 31
40.0000
 12
3920.0000
 22
-3100.0000
 32
90.0000
 13
3950.0000
 23
-3100.0000
 33
90.0000
 70
15
  0
3DFACE
  5
10D1
  8
SOL-NIKUZ-SYM
 10
3700.0000
 20
-2940.0000
 30
0.0000
 11
3600.0000
 21
-2940.0000
 31
0.0000
 12
3600.0000
 22
-2950.0000
 32
0.0000
 13
3700.0000
 23
-2950.0000
 33
0.0000
 70
15
  0
3DFACE
  5
10D2
  8
SOL-NIKUZ-SYM
 10
3700.0000
 20
-2940.0000
 30
100.0000
 11
3600.0000
 21
-2940.0000
 31
100.0000
 12
3600.0000
 22
-2950.0000
 32
100.0000
 13
3700.0000
 23
-2950.0000
 33
100.0000
 70
15
  0
3DFACE
  5
10D3
  8
SOL-NIKUZ-SYM
 10
3700.0000
 20
-2940.0000
 30
0.0000
 11
3600.0000
 21
-2940.0000
 31
0.0000
 12
3600.0000
 22
-2940.0000
 32
100.0000
 13
3700.0000
 23
-2940.0000
 33
100.0000
 70
15
  0
3DFACE
  5
10D4
  8
SOL-NIKUZ-SYM
 10
3600.0000
 20
-2940.0000
 30
0.0000
 11
3600.0000
 21
-2950.0000
 31
0.0000
 12
3600.0000
 22
-2950.0000
 32
100.0000
 13
3600.0000
 23
-2940.0000
 33
100.0000
 70
15
  0
3DFACE
  5
10D5
  8
SOL-NIKUZ-SYM
 10
3600.0000
 20
-2950.0000
 30
0.0000
 11
3700.0000
 21
-2950.0000
 31
0.0000
 12
3700.0000
 22
-2950.0000
 32
100.0000
 13
3600.0000
 23
-2950.0000
 33
100.0000
 70
15
  0
3DFACE
  5
10D6
  8
SOL-NIKUZ-SYM
 10
3700.0000
 20
-2950.0000
 30
0.0000
 11
3700.0000
 21
-2940.0000
 31
0.0000
 12
3700.0000
 22
-2940.0000
 32
100.0000
 13
3700.0000
 23
-2950.0000
 33
100.0000
 70
15
  0
INSERT
  5
10D7
  8
SOL-CHASHMAL-SYM
  2
CONTROLBOX
 10
900.0000
 20
-3000.0000
 30
0.0000
 41
1.0000
 42
1.0000
 43
1.0000
 50
180.0000
  0
3DFACE
  5
10D8
  8
SOL-MIVNE-SYM
 10
1000.0000
 20
-2750.0000
 30
0.0000
 11
800.0000
 21
-2750.0000
 31
0.0000
 12
800.0000
 22
-2950.0000
 32
0.0000
 13
1000.0000
 23
-2950.0000
 33
0.0000
 70
15
  0
3DFACE
  5
10D9
  8
SOL-MIVNE-SYM
 10
1000.0000
 20
-2750.0000
 30
2600.0000
 11
800.0000
 21
-2750.0000
 31
2600.0000
 12
800.0000
 22
-2950.0000
 32
2600.0000
 13
1000.0000
 23
-2950.0000
 33
2600.0000
 70
15
  0
3DFACE
  5
10DA
  8
SOL-MIVNE-SYM
 10
1000.0000
 20
-2750.0000
 30
0.0000
 11
800.0000
 21
-2750.0000
 31
0.0000
 12
800.0000
 22
-2750.0000
 32
2600.0000
 13
1000.0000
 23
-2750.0000
 33
2600.0000
 70
15
  0
3DFACE
  5
10DB
  8
SOL-MIVNE-SYM
 10
800.0000
 20
-2750.0000
 30
0.0000
 11
800.0000
 21
-2950.0000
 31
0.0000
 12
800.0000
 22
-2950.0000
 32
2600.0000
 13
800.0000
 23
-2750.0000
 33
2600.0000
 70
15
  0
3DFACE
  5
10DC
  8
SOL-MIVNE-SYM
 10
800.0000
 20
-2950.0000
 30
0.0000
 11
1000.0000
 21
-2950.0000
 31
0.0000
 12
1000.0000
 22
-2950.0000
 32
2600.0000
 13
800.0000
 23
-2950.0000
 33
2600.0000
 70
15
  0
3DFACE
  5
10DD
  8
SOL-MIVNE-SYM
 10
1000.0000
 20
-2950.0000
 30
0.0000
 11
1000.0000
 21
-2750.0000
 31
0.0000
 12
1000.0000
 22
-2750.0000
 32
2600.0000
 13
1000.0000
 23
-2950.0000
 33
2600.0000
 70
15
  0
INSERT
  5
10DE
  8
SOL-CHASHMAL-SYM
  2
CONTROLBOX
 10
0.0000
 20
-2700.0000
 30
2000.0000
 41
1.0000
 42
1.0000
 43
1.0000
 50
90.0000
  0
3DFACE
  5
10DF
  8
SOL-MIVNE-SYM
 10
700.0000
 20
-3200.0000
 30
2000.0000
 11
700.0000
 21
-2200.0000
 31
2000.0000
 12
50.0000
 22
-2200.0000
 32
2000.0000
 13
50.0000
 23
-3200.0000
 33
2000.0000
 70
15
  0
3DFACE
  5
10E0
  8
SOL-MIVNE-SYM
 10
700.0000
 20
-3200.0000
 30
2600.0000
 11
700.0000
 21
-2200.0000
 31
2600.0000
 12
50.0000
 22
-2200.0000
 32
2600.0000
 13
50.0000
 23
-3200.0000
 33
2600.0000
 70
15
  0
3DFACE
  5
10E1
  8
SOL-MIVNE-SYM
 10
700.0000
 20
-3200.0000
 30
2000.0000
 11
700.0000
 21
-2200.0000
 31
2000.0000
 12
700.0000
 22
-2200.0000
 32
2600.0000
 13
700.0000
 23
-3200.0000
 33
2600.0000
 70
15
  0
3DFACE
  5
10E2
  8
SOL-MIVNE-SYM
 10
700.0000
 20
-2200.0000
 30
2000.0000
 11
50.0000
 21
-2200.0000
 31
2000.0000
 12
50.0000
 22
-2200.0000
 32
2600.0000
 13
700.0000
 23
-2200.0000
 33
2600.0000
 70
15
  0
3DFACE
  5
10E3
  8
SOL-MIVNE-SYM
 10
50.0000
 20
-2200.0000
 30
2000.0000
 11
50.0000
 21
-3200.0000
 31
2000.0000
 12
50.0000
 22
-3200.0000
 32
2600.0000
 13
50.0000
 23
-2200.0000
 33
2600.0000
 70
15
  0
3DFACE
  5
10E4
  8
SOL-MIVNE-SYM
 10
50.0000
 20
-3200.0000
 30
2000.0000
 11
700.0000
 21
-3200.0000
 31
2000.0000
 12
700.0000
 22
-3200.0000
 32
2600.0000
 13
50.0000
 23
-3200.0000
 33
2600.0000
 70
15
  0
3DFACE
  5
10E5
  8
SOL-MIVNE-SYM
 10
66.0000
 20
-2000.0000
 30
0.0000
 11
66.0000
 21
-1400.0000
 31
0.0000
 12
50.0000
 22
-1400.0000
 32
0.0000
 13
50.0000
 23
-2000.0000
 33
0.0000
 70
15
  0
3DFACE
  5
10E6
  8
SOL-MIVNE-SYM
 10
66.0000
 20
-2000.0000
 30
50.0000
 11
66.0000
 21
-1400.0000
 31
50.0000
 12
50.0000
 22
-1400.0000
 32
50.0000
 13
50.0000
 23
-2000.0000
 33
50.0000
 70
15
  0
3DFACE
  5
10E7
  8
SOL-MIVNE-SYM
 10
66.0000
 20
-2000.0000
 30
0.0000
 11
66.0000
 21
-1400.0000
 31
0.0000
 12
66.0000
 22
-1400.0000
 32
50.0000
 13
66.0000
 23
-2000.0000
 33
50.0000
 70
15
  0
3DFACE
  5
10E8
  8
SOL-MIVNE-SYM
 10
66.0000
 20
-1400.0000
 30
0.0000
 11
50.0000
 21
-1400.0000
 31
0.0000
 12
50.0000
 22
-1400.0000
 32
50.0000
 13
66.0000
 23
-1400.0000
 33
50.0000
 70
15
  0
3DFACE
  5
10E9
  8
SOL-MIVNE-SYM
 10
50.0000
 20
-1400.0000
 30
0.0000
 11
50.0000
 21
-2000.0000
 31
0.0000
 12
50.0000
 22
-2000.0000
 32
50.0000
 13
50.0000
 23
-1400.0000
 33
50.0000
 70
15
  0
3DFACE
  5
10EA
  8
SOL-MIVNE-SYM
 10
50.0000
 20
-2000.0000
 30
0.0000
 11
66.0000
 21
-2000.0000
 31
0.0000
 12
66.0000
 22
-2000.0000
 32
50.0000
 13
50.0000
 23
-2000.0000
 33
50.0000
 70
15
  0
ENDSEC
  0
SECTION
  2
OBJECTS
  0
DICTIONARY
  5
1223
330
0
100
AcDbDictionary
281
1
  3
ACAD_GROUP
350
1224
  0
DICTIONARY
  5
1224
330
1223
100
AcDbDictionary
281
1
  0
ENDSEC
  0
EOF
