  0
SECTION
  2
HEADER
  9
$ACADVER
  1
AC1009
  9
$INSBASE
 10
0.0000
 20
0.0000
 30
0.0000
  9
$EXTMIN
 10
-2600.0000
 20
-11207.5000
 30
0.0000
  9
$EXTMAX
 10
19600.0000
 20
1800.0000
 30
0.0000
  9
$DWGCODEPAGE
  3
ansi_1255
  9
$INSUNITS
 70
4
  9
$LTSCALE
 40
10.0000
  9
$LIMMIN
 10
0.0000
 20
0.0000
  9
$LIMMAX
 10
2000.0000
 20
200.0000
  0
ENDSEC
  0
SECTION
  2
TABLES
  0
TABLE
  2
VPORT
 70
1
  0
VPORT
  2
*ACTIVE
 70
0
 10
0.0000
 20
0.0000
 11
1.0000
 21
1.0000
 12
8500.0000
 22
-4703.7500
 13
0.0000
 23
0.0000
 14
10.0000
 24
10.0000
 15
10.0000
 25
10.0000
 16
0.0000
 26
0.0000
 36
1.0000
 17
0.0000
 27
0.0000
 37
0.0000
 40
14958.6250
 41
1.6000
 42
50.0000
 43
0.0000
 44
0.0000
 50
0.0000
 51
0.0000
 71
0
 72
100
 73
1
 74
1
 75
0
 76
0
 77
0
 78
0
  0
ENDTAB
  0
TABLE
  2
LTYPE
 70
2
  0
LTYPE
  2
CONTINUOUS
 70
0
  3
Solid line
 72
65
 73
0
 40
0.0000
  0
LTYPE
  2
HIDDEN
 70
0
  3
Hidden . . . . . .
 72
65
 73
2
 40
9.5250
 49
6.3500
 49
-3.1750
  0
ENDTAB
  0
TABLE
  2
LAYER
 70
16
  0
LAYER
  2
0
 70
0
 62
7
  6
CONTINUOUS
  0
LAYER
  2
SOL-KIROT
 70
0
 62
8
  6
CONTINUOUS
  0
LAYER
  2
SOL-KIROT-MILUY
 70
0
 62
9
  6
CONTINUOUS
  0
LAYER
  2
SOL-MIDOT-PNIM
 70
0
 62
3
  6
CONTINUOUS
  0
LAYER
  2
SOL-MIDOT-CHUTS
 70
0
 62
1
  6
CONTINUOUS
  0
LAYER
  2
SOL-PTACHIM
 70
0
 62
5
  6
CONTINUOUS
  0
LAYER
  2
SOL-CHASHMAL
 70
0
 62
6
  6
CONTINUOUS
  0
LAYER
  2
SOL-INSTALATSIA
 70
0
 62
4
  6
CONTINUOUS
  0
LAYER
  2
SOL-GAZ
 70
0
 62
2
  6
CONTINUOUS
  0
LAYER
  2
SOL-MIZUG
 70
0
 62
141
  6
CONTINUOUS
  0
LAYER
  2
SOL-TEURA
 70
0
 62
30
  6
CONTINUOUS
  0
LAYER
  2
SOL-MIVNE
 70
0
 62
9
  6
CONTINUOUS
  0
LAYER
  2
SOL-RIHUT
 70
0
 62
42
  6
CONTINUOUS
  0
LAYER
  2
SOL-TEKST
 70
0
 62
7
  6
CONTINUOUS
  0
LAYER
  2
SOL-MISGERET
 70
0
 62
250
  6
CONTINUOUS
  0
LAYER
  2
SOL-RITZPA
 70
0
 62
8
  6
CONTINUOUS
  0
ENDTAB
  0
TABLE
  2
STYLE
 70
1
  0
STYLE
  2
SOLINE
 70
0
 40
0.0000
 41
1.0000
 50
0.0000
 71
0
 42
2.5000
  3
arial.ttf
  4

  0
ENDTAB
  0
ENDSEC
  0
SECTION
  2
BLOCKS
  0
BLOCK
  8
0
  2
SS_socket_single_90x90
 70
0
 10
0.0000
 20
0.0000
 30
0.0000
  0
LINE
  5
451
  8
0
 10
0.0000
 20
0.0000
 30
0.0000
 11
0.0000
 21
25.2000
 31
0.0000
  0
LINE
  5
452
  8
0
 10
-27.0000
 20
52.2000
 30
0.0000
 11
-26.8302
 21
55.2230
 31
0.0000
  0
LINE
  5
453
  8
0
 10
-26.8302
 20
55.2230
 30
0.0000
 11
-26.3231
 21
58.2081
 31
0.0000
  0
LINE
  5
454
  8
0
 10
-26.3231
 20
58.2081
 30
0.0000
 11
-25.4848
 21
61.1175
 31
0.0000
  0
LINE
  5
455
  8
0
 10
-25.4848
 20
61.1175
 30
0.0000
 11
-24.3262
 21
63.9149
 31
0.0000
  0
LINE
  5
456
  8
0
 10
-24.3262
 20
63.9149
 30
0.0000
 11
-22.8616
 21
66.5649
 31
0.0000
  0
LINE
  5
457
  8
0
 10
-22.8616
 20
66.5649
 30
0.0000
 11
-21.1095
 21
69.0342
 31
0.0000
  0
LINE
  5
458
  8
0
 10
-21.1095
 20
69.0342
 30
0.0000
 11
-19.0919
 21
71.2919
 31
0.0000
  0
LINE
  5
459
  8
0
 10
-19.0919
 20
71.2919
 30
0.0000
 11
-16.8342
 21
73.3095
 31
0.0000
  0
LINE
  5
45A
  8
0
 10
-16.8342
 20
73.3095
 30
0.0000
 11
-14.3649
 21
75.0616
 31
0.0000
  0
LINE
  5
45B
  8
0
 10
-14.3649
 20
75.0616
 30
0.0000
 11
-11.7149
 21
76.5262
 31
0.0000
  0
LINE
  5
45C
  8
0
 10
-11.7149
 20
76.5262
 30
0.0000
 11
-8.9175
 21
77.6848
 31
0.0000
  0
LINE
  5
45D
  8
0
 10
-8.9175
 20
77.6848
 30
0.0000
 11
-6.0081
 21
78.5231
 31
0.0000
  0
LINE
  5
45E
  8
0
 10
-6.0081
 20
78.5231
 30
0.0000
 11
-3.0230
 21
79.0302
 31
0.0000
  0
LINE
  5
45F
  8
0
 10
-3.0230
 20
79.0302
 30
0.0000
 11
0.0000
 21
79.2000
 31
0.0000
  0
LINE
  5
460
  8
0
 10
0.0000
 20
79.2000
 30
0.0000
 11
3.0230
 21
79.0302
 31
0.0000
  0
LINE
  5
461
  8
0
 10
3.0230
 20
79.0302
 30
0.0000
 11
6.0081
 21
78.5231
 31
0.0000
  0
LINE
  5
462
  8
0
 10
6.0081
 20
78.5231
 30
0.0000
 11
8.9175
 21
77.6848
 31
0.0000
  0
LINE
  5
463
  8
0
 10
8.9175
 20
77.6848
 30
0.0000
 11
11.7149
 21
76.5262
 31
0.0000
  0
LINE
  5
464
  8
0
 10
11.7149
 20
76.5262
 30
0.0000
 11
14.3649
 21
75.0616
 31
0.0000
  0
LINE
  5
465
  8
0
 10
14.3649
 20
75.0616
 30
0.0000
 11
16.8342
 21
73.3095
 31
0.0000
  0
LINE
  5
466
  8
0
 10
16.8342
 20
73.3095
 30
0.0000
 11
19.0919
 21
71.2919
 31
0.0000
  0
LINE
  5
467
  8
0
 10
19.0919
 20
71.2919
 30
0.0000
 11
21.1095
 21
69.0342
 31
0.0000
  0
LINE
  5
468
  8
0
 10
21.1095
 20
69.0342
 30
0.0000
 11
22.8616
 21
66.5649
 31
0.0000
  0
LINE
  5
469
  8
0
 10
22.8616
 20
66.5649
 30
0.0000
 11
24.3262
 21
63.9149
 31
0.0000
  0
LINE
  5
46A
  8
0
 10
24.3262
 20
63.9149
 30
0.0000
 11
25.4848
 21
61.1175
 31
0.0000
  0
LINE
  5
46B
  8
0
 10
25.4848
 20
61.1175
 30
0.0000
 11
26.3231
 21
58.2081
 31
0.0000
  0
LINE
  5
46C
  8
0
 10
26.3231
 20
58.2081
 30
0.0000
 11
26.8302
 21
55.2230
 31
0.0000
  0
LINE
  5
46D
  8
0
 10
26.8302
 20
55.2230
 30
0.0000
 11
27.0000
 21
52.2000
 31
0.0000
  0
LINE
  5
46E
  8
0
 10
-27.0000
 20
52.2000
 30
0.0000
 11
27.0000
 21
52.2000
 31
0.0000
  0
LINE
  5
46F
  8
0
 10
0.0000
 20
52.2000
 30
0.0000
 11
0.0000
 21
33.3000
 31
0.0000
  0
ENDBLK
  5
470
  8
0
  0
BLOCK
  8
0
  2
SS_socket_duplex_160x90
 70
0
 10
0.0000
 20
0.0000
 30
0.0000
  0
LINE
  5
471
  8
0
 10
0.0000
 20
0.0000
 30
0.0000
 11
0.0000
 21
32.4000
 31
0.0000
  0
LINE
  5
472
  8
0
 10
-72.1600
 20
52.2000
 30
0.0000
 11
-71.9387
 21
54.4169
 31
0.0000
  0
LINE
  5
473
  8
0
 10
-71.9387
 20
54.4169
 30
0.0000
 11
-71.2775
 21
56.6059
 31
0.0000
  0
LINE
  5
474
  8
0
 10
-71.2775
 20
56.6059
 30
0.0000
 11
-70.1847
 21
58.7395
 31
0.0000
  0
LINE
  5
475
  8
0
 10
-70.1847
 20
58.7395
 30
0.0000
 11
-68.6741
 21
60.7909
 31
0.0000
  0
LINE
  5
476
  8
0
 10
-68.6741
 20
60.7909
 30
0.0000
 11
-66.7647
 21
62.7342
 31
0.0000
  0
LINE
  5
477
  8
0
 10
-66.7647
 20
62.7342
 30
0.0000
 11
-64.4805
 21
64.5451
 31
0.0000
  0
LINE
  5
478
  8
0
 10
-64.4805
 20
64.5451
 30
0.0000
 11
-61.8502
 21
66.2007
 31
0.0000
  0
LINE
  5
479
  8
0
 10
-61.8502
 20
66.2007
 30
0.0000
 11
-58.9068
 21
67.6803
 31
0.0000
  0
LINE
  5
47A
  8
0
 10
-58.9068
 20
67.6803
 30
0.0000
 11
-55.6875
 21
68.9651
 31
0.0000
  0
LINE
  5
47B
  8
0
 10
-55.6875
 20
68.9651
 30
0.0000
 11
-52.2327
 21
70.0392
 31
0.0000
  0
LINE
  5
47C
  8
0
 10
-52.2327
 20
70.0392
 30
0.0000
 11
-48.5858
 21
70.8889
 31
0.0000
  0
LINE
  5
47D
  8
0
 10
-48.5858
 20
70.8889
 30
0.0000
 11
-44.7927
 21
71.5036
 31
0.0000
  0
LINE
  5
47E
  8
0
 10
-44.7927
 20
71.5036
 30
0.0000
 11
-40.9011
 21
71.8755
 31
0.0000
  0
LINE
  5
47F
  8
0
 10
-40.9011
 20
71.8755
 30
0.0000
 11
-36.9600
 21
72.0000
 31
0.0000
  0
LINE
  5
480
  8
0
 10
-36.9600
 20
72.0000
 30
0.0000
 11
-33.0189
 21
71.8755
 31
0.0000
  0
LINE
  5
481
  8
0
 10
-33.0189
 20
71.8755
 30
0.0000
 11
-29.1273
 21
71.5036
 31
0.0000
  0
LINE
  5
482
  8
0
 10
-29.1273
 20
71.5036
 30
0.0000
 11
-25.3342
 21
70.8889
 31
0.0000
  0
LINE
  5
483
  8
0
 10
-25.3342
 20
70.8889
 30
0.0000
 11
-21.6873
 21
70.0392
 31
0.0000
  0
LINE
  5
484
  8
0
 10
-21.6873
 20
70.0392
 30
0.0000
 11
-18.2325
 21
68.9651
 31
0.0000
  0
LINE
  5
485
  8
0
 10
-18.2325
 20
68.9651
 30
0.0000
 11
-15.0132
 21
67.6803
 31
0.0000
  0
LINE
  5
486
  8
0
 10
-15.0132
 20
67.6803
 30
0.0000
 11
-12.0698
 21
66.2007
 31
0.0000
  0
LINE
  5
487
  8
0
 10
-12.0698
 20
66.2007
 30
0.0000
 11
-9.4395
 21
64.5451
 31
0.0000
  0
LINE
  5
488
  8
0
 10
-9.4395
 20
64.5451
 30
0.0000
 11
-7.1553
 21
62.7342
 31
0.0000
  0
LINE
  5
489
  8
0
 10
-7.1553
 20
62.7342
 30
0.0000
 11
-5.2459
 21
60.7909
 31
0.0000
  0
LINE
  5
48A
  8
0
 10
-5.2459
 20
60.7909
 30
0.0000
 11
-3.7353
 21
58.7395
 31
0.0000
  0
LINE
  5
48B
  8
0
 10
-3.7353
 20
58.7395
 30
0.0000
 11
-2.6425
 21
56.6059
 31
0.0000
  0
LINE
  5
48C
  8
0
 10
-2.6425
 20
56.6059
 30
0.0000
 11
-1.9813
 21
54.4169
 31
0.0000
  0
LINE
  5
48D
  8
0
 10
-1.9813
 20
54.4169
 30
0.0000
 11
-1.7600
 21
52.2000
 31
0.0000
  0
LINE
  5
48E
  8
0
 10
-72.1600
 20
52.2000
 30
0.0000
 11
-1.7600
 21
52.2000
 31
0.0000
  0
LINE
  5
48F
  8
0
 10
-36.9600
 20
52.2000
 30
0.0000
 11
-36.9600
 21
38.3400
 31
0.0000
  0
LINE
  5
490
  8
0
 10
1.7600
 20
52.2000
 30
0.0000
 11
1.9813
 21
54.4169
 31
0.0000
  0
LINE
  5
491
  8
0
 10
1.9813
 20
54.4169
 30
0.0000
 11
2.6425
 21
56.6059
 31
0.0000
  0
LINE
  5
492
  8
0
 10
2.6425
 20
56.6059
 30
0.0000
 11
3.7353
 21
58.7395
 31
0.0000
  0
LINE
  5
493
  8
0
 10
3.7353
 20
58.7395
 30
0.0000
 11
5.2459
 21
60.7909
 31
0.0000
  0
LINE
  5
494
  8
0
 10
5.2459
 20
60.7909
 30
0.0000
 11
7.1553
 21
62.7342
 31
0.0000
  0
LINE
  5
495
  8
0
 10
7.1553
 20
62.7342
 30
0.0000
 11
9.4395
 21
64.5451
 31
0.0000
  0
LINE
  5
496
  8
0
 10
9.4395
 20
64.5451
 30
0.0000
 11
12.0698
 21
66.2007
 31
0.0000
  0
LINE
  5
497
  8
0
 10
12.0698
 20
66.2007
 30
0.0000
 11
15.0132
 21
67.6803
 31
0.0000
  0
LINE
  5
498
  8
0
 10
15.0132
 20
67.6803
 30
0.0000
 11
18.2325
 21
68.9651
 31
0.0000
  0
LINE
  5
499
  8
0
 10
18.2325
 20
68.9651
 30
0.0000
 11
21.6873
 21
70.0392
 31
0.0000
  0
LINE
  5
49A
  8
0
 10
21.6873
 20
70.0392
 30
0.0000
 11
25.3342
 21
70.8889
 31
0.0000
  0
LINE
  5
49B
  8
0
 10
25.3342
 20
70.8889
 30
0.0000
 11
29.1273
 21
71.5036
 31
0.0000
  0
LINE
  5
49C
  8
0
 10
29.1273
 20
71.5036
 30
0.0000
 11
33.0189
 21
71.8755
 31
0.0000
  0
LINE
  5
49D
  8
0
 10
33.0189
 20
71.8755
 30
0.0000
 11
36.9600
 21
72.0000
 31
0.0000
  0
LINE
  5
49E
  8
0
 10
36.9600
 20
72.0000
 30
0.0000
 11
40.9011
 21
71.8755
 31
0.0000
  0
LINE
  5
49F
  8
0
 10
40.9011
 20
71.8755
 30
0.0000
 11
44.7927
 21
71.5036
 31
0.0000
  0
LINE
  5
4A0
  8
0
 10
44.7927
 20
71.5036
 30
0.0000
 11
48.5858
 21
70.8889
 31
0.0000
  0
LINE
  5
4A1
  8
0
 10
48.5858
 20
70.8889
 30
0.0000
 11
52.2327
 21
70.0392
 31
0.0000
  0
LINE
  5
4A2
  8
0
 10
52.2327
 20
70.0392
 30
0.0000
 11
55.6875
 21
68.9651
 31
0.0000
  0
LINE
  5
4A3
  8
0
 10
55.6875
 20
68.9651
 30
0.0000
 11
58.9068
 21
67.6803
 31
0.0000
  0
LINE
  5
4A4
  8
0
 10
58.9068
 20
67.6803
 30
0.0000
 11
61.8502
 21
66.2007
 31
0.0000
  0
LINE
  5
4A5
  8
0
 10
61.8502
 20
66.2007
 30
0.0000
 11
64.4805
 21
64.5451
 31
0.0000
  0
LINE
  5
4A6
  8
0
 10
64.4805
 20
64.5451
 30
0.0000
 11
66.7647
 21
62.7342
 31
0.0000
  0
LINE
  5
4A7
  8
0
 10
66.7647
 20
62.7342
 30
0.0000
 11
68.6741
 21
60.7909
 31
0.0000
  0
LINE
  5
4A8
  8
0
 10
68.6741
 20
60.7909
 30
0.0000
 11
70.1847
 21
58.7395
 31
0.0000
  0
LINE
  5
4A9
  8
0
 10
70.1847
 20
58.7395
 30
0.0000
 11
71.2775
 21
56.6059
 31
0.0000
  0
LINE
  5
4AA
  8
0
 10
71.2775
 20
56.6059
 30
0.0000
 11
71.9387
 21
54.4169
 31
0.0000
  0
LINE
  5
4AB
  8
0
 10
71.9387
 20
54.4169
 30
0.0000
 11
72.1600
 21
52.2000
 31
0.0000
  0
LINE
  5
4AC
  8
0
 10
1.7600
 20
52.2000
 30
0.0000
 11
72.1600
 21
52.2000
 31
0.0000
  0
LINE
  5
4AD
  8
0
 10
36.9600
 20
52.2000
 30
0.0000
 11
36.9600
 21
38.3400
 31
0.0000
  0
ENDBLK
  5
4AE
  8
0
  0
BLOCK
  8
0
  2
SS_switch_single_90x90
 70
0
 10
0.0000
 20
0.0000
 30
0.0000
  0
LINE
  5
4AF
  8
0
 10
0.0000
 20
0.0000
 30
0.0000
 11
0.0000
 21
34.2000
 31
0.0000
  0
ARC
  5
4B0
  8
0
 10
0.0000
 20
45.0000
 30
0.0000
 40
10.8000
 50
0.0000
 51
360.0000
  0
LINE
  5
4B1
  8
0
 10
8.1000
 20
49.3200
 30
0.0000
 11
32.4000
 21
75.6000
 31
0.0000
  0
ENDBLK
  5
4B2
  8
0
  0
BLOCK
  8
0
  2
SS_junction_cable_60x60
 70
0
 10
0.0000
 20
0.0000
 30
0.0000
  0
LINE
  5
4B3
  8
0
 10
0.0000
 20
0.0000
 30
0.0000
 11
0.0000
 21
46.8000
 31
0.0000
  0
ARC
  5
4B4
  8
0
 10
0.0000
 20
28.8000
 30
0.0000
 40
19.2000
 50
0.0000
 51
360.0000
  0
LINE
  5
4B5
  8
0
 10
0.0000
 20
28.8000
 30
0.0000
 11
-13.2000
 21
42.0000
 31
0.0000
  0
LINE
  5
4B6
  8
0
 10
0.0000
 20
28.8000
 30
0.0000
 11
13.2000
 21
42.0000
 31
0.0000
  0
LINE
  5
4B7
  8
0
 10
0.0000
 20
28.8000
 30
0.0000
 11
-13.2000
 21
15.6000
 31
0.0000
  0
LINE
  5
4B8
  8
0
 10
0.0000
 20
28.8000
 30
0.0000
 11
13.2000
 21
15.6000
 31
0.0000
  0
ENDBLK
  5
4B9
  8
0
  0
BLOCK
  8
0
  2
SS_junction_cable_120x120
 70
0
 10
0.0000
 20
0.0000
 30
0.0000
  0
LINE
  5
4BA
  8
0
 10
0.0000
 20
0.0000
 30
0.0000
 11
0.0000
 21
93.6000
 31
0.0000
  0
ARC
  5
4BB
  8
0
 10
0.0000
 20
57.6000
 30
0.0000
 40
38.4000
 50
0.0000
 51
360.0000
  0
LINE
  5
4BC
  8
0
 10
0.0000
 20
57.6000
 30
0.0000
 11
-26.4000
 21
84.0000
 31
0.0000
  0
LINE
  5
4BD
  8
0
 10
0.0000
 20
57.6000
 30
0.0000
 11
26.4000
 21
84.0000
 31
0.0000
  0
LINE
  5
4BE
  8
0
 10
0.0000
 20
57.6000
 30
0.0000
 11
-26.4000
 21
31.2000
 31
0.0000
  0
LINE
  5
4BF
  8
0
 10
0.0000
 20
57.6000
 30
0.0000
 11
26.4000
 21
31.2000
 31
0.0000
  0
ENDBLK
  5
4C0
  8
0
  0
BLOCK
  8
0
  2
SS_light_downlight_150x150
 70
0
 10
0.0000
 20
0.0000
 30
0.0000
  0
ARC
  5
4C1
  8
0
 10
0.0000
 20
75.0000
 30
0.0000
 40
45.0000
 50
0.0000
 51
360.0000
  0
LINE
  5
4C2
  8
0
 10
-31.5000
 20
106.5000
 30
0.0000
 11
31.5000
 21
43.5000
 31
0.0000
  0
LINE
  5
4C3
  8
0
 10
31.5000
 20
106.5000
 30
0.0000
 11
-31.5000
 21
43.5000
 31
0.0000
  0
ENDBLK
  5
4C4
  8
0
  0
BLOCK
  8
0
  2
SS_water_point_60x60
 70
0
 10
0.0000
 20
0.0000
 30
0.0000
  0
LINE
  5
4C5
  8
0
 10
0.0000
 20
0.0000
 30
0.0000
 11
0.0000
 21
42.0000
 31
0.0000
  0
ARC
  5
4C6
  8
0
 10
0.0000
 20
30.0000
 30
0.0000
 40
16.8000
 50
0.0000
 51
360.0000
  0
LINE
  5
4C7
  8
0
 10
-13.2000
 20
30.0000
 30
0.0000
 11
13.2000
 21
30.0000
 31
0.0000
  0
LINE
  5
4C8
  8
0
 10
0.0000
 20
43.2000
 30
0.0000
 11
0.0000
 21
16.8000
 31
0.0000
  0
ENDBLK
  5
4C9
  8
0
  0
BLOCK
  8
0
  2
SS_gas_point_60x60
 70
0
 10
0.0000
 20
0.0000
 30
0.0000
  0
LINE
  5
4CA
  8
0
 10
0.0000
 20
0.0000
 30
0.0000
 11
0.0000
 21
43.2000
 31
0.0000
  0
LINE
  5
4CB
  8
0
 10
0.0000
 20
48.0000
 30
0.0000
 11
15.6000
 21
39.0000
 31
0.0000
  0
LINE
  5
4CC
  8
0
 10
15.6000
 20
39.0000
 30
0.0000
 11
15.6000
 21
21.0000
 31
0.0000
  0
LINE
  5
4CD
  8
0
 10
15.6000
 20
21.0000
 30
0.0000
 11
0.0000
 21
12.0000
 31
0.0000
  0
LINE
  5
4CE
  8
0
 10
0.0000
 20
12.0000
 30
0.0000
 11
-15.6000
 21
21.0000
 31
0.0000
  0
LINE
  5
4CF
  8
0
 10
-15.6000
 20
21.0000
 30
0.0000
 11
-15.6000
 21
39.0000
 31
0.0000
  0
LINE
  5
4D0
  8
0
 10
-15.6000
 20
39.0000
 30
0.0000
 11
0.0000
 21
48.0000
 31
0.0000
  0
TEXT
  5
4D1
  8
0
 10
0.0000
 20
26.4000
 30
0.0000
 40
24.0000
  1
G
 50
0.0000
  7
SOLINE
 72
1
 73
2
 11
0.0000
 21
26.4000
 31
0.0000
  0
ENDBLK
  5
4D2
  8
0
  0
BLOCK
  8
0
  2
SS_water_point_50x50
 70
0
 10
0.0000
 20
0.0000
 30
0.0000
  0
LINE
  5
4D3
  8
0
 10
0.0000
 20
0.0000
 30
0.0000
 11
0.0000
 21
35.0000
 31
0.0000
  0
ARC
  5
4D4
  8
0
 10
0.0000
 20
25.0000
 30
0.0000
 40
14.0000
 50
0.0000
 51
360.0000
  0
LINE
  5
4D5
  8
0
 10
-11.0000
 20
25.0000
 30
0.0000
 11
11.0000
 21
25.0000
 31
0.0000
  0
LINE
  5
4D6
  8
0
 10
0.0000
 20
36.0000
 30
0.0000
 11
0.0000
 21
14.0000
 31
0.0000
  0
ENDBLK
  5
4D7
  8
0
  0
BLOCK
  8
0
  2
SS_sewage_point_100x100
 70
0
 10
0.0000
 20
0.0000
 30
0.0000
  0
LINE
  5
4D8
  8
0
 10
0.0000
 20
0.0000
 30
0.0000
 11
0.0000
 21
72.0000
 31
0.0000
  0
ARC
  5
4D9
  8
0
 10
0.0000
 20
50.0000
 30
0.0000
 40
30.0000
 50
0.0000
 51
360.0000
  0
LINE
  5
4DA
  8
0
 10
-20.0000
 20
50.0000
 30
0.0000
 11
-10.0000
 21
58.0000
 31
0.0000
  0
LINE
  5
4DB
  8
0
 10
-10.0000
 20
58.0000
 30
0.0000
 11
0.0000
 21
50.0000
 31
0.0000
  0
LINE
  5
4DC
  8
0
 10
0.0000
 20
50.0000
 30
0.0000
 11
10.0000
 21
42.0000
 31
0.0000
  0
LINE
  5
4DD
  8
0
 10
10.0000
 20
42.0000
 30
0.0000
 11
20.0000
 21
50.0000
 31
0.0000
  0
ENDBLK
  5
4DE
  8
0
  0
BLOCK
  8
0
  2
SS_beam_200x2600
 70
0
 10
0.0000
 20
0.0000
 30
0.0000
  0
LINE
  5
4DF
  8
0
 10
-100.0000
 20
1612.0000
 30
0.0000
 11
100.0000
 21
1612.0000
 31
0.0000
  0
LINE
  5
4E0
  8
0
 10
100.0000
 20
1612.0000
 30
0.0000
 11
100.0000
 21
988.0000
 31
0.0000
  0
LINE
  5
4E1
  8
0
 10
100.0000
 20
988.0000
 30
0.0000
 11
-100.0000
 21
988.0000
 31
0.0000
  0
LINE
  5
4E2
  8
0
 10
-100.0000
 20
988.0000
 30
0.0000
 11
-100.0000
 21
1612.0000
 31
0.0000
  0
ENDBLK
  5
4E3
  8
0
  0
BLOCK
  8
0
  2
SS_beam_1000x600
 70
0
 10
0.0000
 20
0.0000
 30
0.0000
  0
LINE
  5
4E4
  8
0
 10
-500.0000
 20
372.0000
 30
0.0000
 11
500.0000
 21
372.0000
 31
0.0000
  0
LINE
  5
4E5
  8
0
 10
500.0000
 20
372.0000
 30
0.0000
 11
500.0000
 21
228.0000
 31
0.0000
  0
LINE
  5
4E6
  8
0
 10
500.0000
 20
228.0000
 30
0.0000
 11
-500.0000
 21
228.0000
 31
0.0000
  0
LINE
  5
4E7
  8
0
 10
-500.0000
 20
228.0000
 30
0.0000
 11
-500.0000
 21
372.0000
 31
0.0000
  0
ENDBLK
  5
4E8
  8
0
  0
BLOCK
  8
0
  2
SS_concealment_panel_600x50
 70
0
 10
0.0000
 20
0.0000
 30
0.0000
  0
LINE
  5
4E9
  8
0
 10
-216.0000
 20
43.0000
 30
0.0000
 11
216.0000
 21
43.0000
 31
0.0000
  0
LINE
  5
4EA
  8
0
 10
216.0000
 20
43.0000
 30
0.0000
 11
216.0000
 21
7.0000
 31
0.0000
  0
LINE
  5
4EB
  8
0
 10
216.0000
 20
7.0000
 30
0.0000
 11
-216.0000
 21
7.0000
 31
0.0000
  0
LINE
  5
4EC
  8
0
 10
-216.0000
 20
7.0000
 30
0.0000
 11
-216.0000
 21
43.0000
 31
0.0000
  0
LINE
  5
4ED
  8
0
 10
180.0000
 20
28.0000
 30
0.0000
 11
216.0000
 21
25.0000
 31
0.0000
  0
LINE
  5
4EE
  8
0
 10
216.0000
 20
25.0000
 30
0.0000
 11
180.0000
 21
22.0000
 31
0.0000
  0
ENDBLK
  5
4EF
  8
0
  0
ENDSEC
  0
SECTION
  2
ENTITIES
  0
SOLID
  5
100
  8
SOL-KIROT-MILUY
 10
-100.0000
 20
100.0000
 30
0.0000
 11
4100.0000
 21
100.0000
 31
0.0000
 12
0.0000
 22
0.0000
 32
0.0000
 13
4000.0000
 23
0.0000
 33
0.0000
  0
LINE
  5
101
  8
SOL-KIROT
 10
-100.0000
 20
100.0000
 30
0.0000
 11
4100.0000
 21
100.0000
 31
0.0000
  0
LINE
  5
102
  8
SOL-KIROT
 10
0.0000
 20
0.0000
 30
0.0000
 11
4000.0000
 21
0.0000
 31
0.0000
  0
SOLID
  5
103
  8
SOL-KIROT-MILUY
 10
4100.0000
 20
100.0000
 30
0.0000
 11
4100.0000
 21
-3100.0000
 31
0.0000
 12
4000.0000
 22
0.0000
 32
0.0000
 13
4000.0000
 23
-3000.0000
 33
0.0000
  0
LINE
  5
104
  8
SOL-KIROT
 10
4100.0000
 20
100.0000
 30
0.0000
 11
4100.0000
 21
-3100.0000
 31
0.0000
  0
LINE
  5
105
  8
SOL-KIROT
 10
4000.0000
 20
0.0000
 30
0.0000
 11
4000.0000
 21
-3000.0000
 31
0.0000
  0
SOLID
  5
106
  8
SOL-KIROT-MILUY
 10
4100.0000
 20
-3100.0000
 30
0.0000
 11
-100.0000
 21
-3100.0000
 31
0.0000
 12
4000.0000
 22
-3000.0000
 32
0.0000
 13
0.0000
 23
-3000.0000
 33
0.0000
  0
LINE
  5
107
  8
SOL-KIROT
 10
4100.0000
 20
-3100.0000
 30
0.0000
 11
-100.0000
 21
-3100.0000
 31
0.0000
  0
LINE
  5
108
  8
SOL-KIROT
 10
4000.0000
 20
-3000.0000
 30
0.0000
 11
0.0000
 21
-3000.0000
 31
0.0000
  0
SOLID
  5
109
  8
SOL-KIROT-MILUY
 10
-100.0000
 20
-3100.0000
 30
0.0000
 11
-100.0000
 21
100.0000
 31
0.0000
 12
0.0000
 22
-3000.0000
 32
0.0000
 13
0.0000
 23
0.0000
 33
0.0000
  0
LINE
  5
10A
  8
SOL-KIROT
 10
-100.0000
 20
-3100.0000
 30
0.0000
 11
-100.0000
 21
100.0000
 31
0.0000
  0
LINE
  5
10B
  8
SOL-KIROT
 10
0.0000
 20
-3000.0000
 30
0.0000
 11
0.0000
 21
0.0000
 31
0.0000
  0
LINE
  5
10C
  8
SOL-PTACHIM
 10
3500.0000
 20
-3050.0000
 30
0.0000
 11
2500.0000
 21
-3050.0000
 31
0.0000
  0
LINE
  5
10D
  8
SOL-PTACHIM
 10
3500.0000
 20
-2950.0000
 30
0.0000
 11
2500.0000
 21
-2950.0000
 31
0.0000
  0
LINE
  5
10E
  8
SOL-PTACHIM
 10
3500.0000
 20
-2950.0000
 30
0.0000
 11
3500.0000
 21
-3050.0000
 31
0.0000
  0
LINE
  5
10F
  8
SOL-PTACHIM
 10
2500.0000
 20
-2950.0000
 30
0.0000
 11
2500.0000
 21
-3050.0000
 31
0.0000
  0
LINE
  5
110
  8
SOL-PTACHIM
 10
3500.0000
 20
-3000.0000
 30
0.0000
 11
2500.0000
 21
-3000.0000
 31
0.0000
  0
LINE
  5
111
  8
SOL-MIDOT-PNIM
 10
3500.0000
 20
-3040.0000
 30
0.0000
 11
3500.0000
 21
-3231.3000
 31
0.0000
  0
LINE
  5
112
  8
SOL-MIDOT-PNIM
 10
2500.0000
 20
-3040.0000
 30
0.0000
 11
2500.0000
 21
-3231.3000
 31
0.0000
  0
LINE
  5
113
  8
SOL-MIDOT-PNIM
 10
3500.0000
 20
-3180.0000
 30
0.0000
 11
2500.0000
 21
-3180.0000
 31
0.0000
  0
SOLID
  5
114
  8
SOL-MIDOT-PNIM
 10
3500.0000
 20
-3180.0000
 30
0.0000
 11
3598.3250
 21
-3207.3600
 31
0.0000
 12
3598.3250
 22
-3152.6400
 32
0.0000
 13
3598.3250
 23
-3152.6400
 33
0.0000
  0
SOLID
  5
115
  8
SOL-MIDOT-PNIM
 10
2500.0000
 20
-3180.0000
 30
0.0000
 11
2401.6750
 21
-3207.3600
 31
0.0000
 12
2401.6750
 22
-3152.6400
 32
0.0000
 13
2401.6750
 23
-3152.6400
 33
0.0000
  0
TEXT
  5
116
  8
SOL-MIDOT-PNIM
 10
3000.0000
 20
-3261.2250
 30
0.0000
 40
85.5000
  1
100
 50
360.0000
  7
SOLINE
 72
1
 73
2
 11
3000.0000
 21
-3261.2250
 31
0.0000
  0
LINE
  5
117
  8
SOL-PTACHIM
 10
2750.0000
 20
-3000.0000
 30
0.0000
 11
2750.0000
 21
-3900.0000
 31
0.0000
  0
LINE
  5
118
  8
SOL-PTACHIM
 10
2750.0000
 20
-3000.0000
 30
0.0000
 11
1850.0000
 21
-3000.0000
 31
0.0000
  0
ARC
  5
119
  8
SOL-PTACHIM
 10
2750.0000
 20
-3000.0000
 30
0.0000
 40
900.0000
 50
180.0000
 51
-90.0000
  0
LINE
  5
11A
  8
SOL-MIDOT-PNIM
 10
2750.0000
 20
-3040.0000
 30
0.0000
 11
2750.0000
 21
-3231.3000
 31
0.0000
  0
LINE
  5
11B
  8
SOL-MIDOT-PNIM
 10
1850.0000
 20
-3040.0000
 30
0.0000
 11
1850.0000
 21
-3231.3000
 31
0.0000
  0
LINE
  5
11C
  8
SOL-MIDOT-PNIM
 10
2750.0000
 20
-3180.0000
 30
0.0000
 11
1850.0000
 21
-3180.0000
 31
0.0000
  0
SOLID
  5
11D
  8
SOL-MIDOT-PNIM
 10
2750.0000
 20
-3180.0000
 30
0.0000
 11
2848.3250
 21
-3207.3600
 31
0.0000
 12
2848.3250
 22
-3152.6400
 32
0.0000
 13
2848.3250
 23
-3152.6400
 33
0.0000
  0
SOLID
  5
11E
  8
SOL-MIDOT-PNIM
 10
1850.0000
 20
-3180.0000
 30
0.0000
 11
1751.6750
 21
-3207.3600
 31
0.0000
 12
1751.6750
 22
-3152.6400
 32
0.0000
 13
1751.6750
 23
-3152.6400
 33
0.0000
  0
TEXT
  5
11F
  8
SOL-MIDOT-PNIM
 10
2300.0000
 20
-3261.2250
 30
0.0000
 40
85.5000
  1
90
 50
360.0000
  7
SOLINE
 72
1
 73
2
 11
2300.0000
 21
-3261.2250
 31
0.0000
  0
LINE
  5
120
  8
SOL-PTACHIM
 10
2050.0000
 20
-3000.0000
 30
0.0000
 11
2050.0000
 21
-3900.0000
 31
0.0000
  0
LINE
  5
121
  8
SOL-PTACHIM
 10
2050.0000
 20
-3000.0000
 30
0.0000
 11
1150.0000
 21
-3000.0000
 31
0.0000
  0
ARC
  5
122
  8
SOL-PTACHIM
 10
2050.0000
 20
-3000.0000
 30
0.0000
 40
900.0000
 50
180.0000
 51
-90.0000
  0
LINE
  5
123
  8
SOL-MIDOT-PNIM
 10
2050.0000
 20
-3040.0000
 30
0.0000
 11
2050.0000
 21
-3231.3000
 31
0.0000
  0
LINE
  5
124
  8
SOL-MIDOT-PNIM
 10
1150.0000
 20
-3040.0000
 30
0.0000
 11
1150.0000
 21
-3231.3000
 31
0.0000
  0
LINE
  5
125
  8
SOL-MIDOT-PNIM
 10
2050.0000
 20
-3180.0000
 30
0.0000
 11
1150.0000
 21
-3180.0000
 31
0.0000
  0
SOLID
  5
126
  8
SOL-MIDOT-PNIM
 10
2050.0000
 20
-3180.0000
 30
0.0000
 11
2148.3250
 21
-3207.3600
 31
0.0000
 12
2148.3250
 22
-3152.6400
 32
0.0000
 13
2148.3250
 23
-3152.6400
 33
0.0000
  0
SOLID
  5
127
  8
SOL-MIDOT-PNIM
 10
1150.0000
 20
-3180.0000
 30
0.0000
 11
1051.6750
 21
-3207.3600
 31
0.0000
 12
1051.6750
 22
-3152.6400
 32
0.0000
 13
1051.6750
 23
-3152.6400
 33
0.0000
  0
TEXT
  5
128
  8
SOL-MIDOT-PNIM
 10
1600.0000
 20
-3261.2250
 30
0.0000
 40
85.5000
  1
90
 50
360.0000
  7
SOLINE
 72
1
 73
2
 11
1600.0000
 21
-3261.2250
 31
0.0000
  0
INSERT
  5
129
  8
SOL-CHASHMAL
  2
SS_socket_single_90x90
 10
345.0000
 20
0.0000
 30
0.0000
 41
1.0000
 42
1.0000
 43
1.0000
 50
0.0000
  0
TEXT
  5
12A
  8
SOL-TEKST
 10
345.0000
 20
250.0000
 30
0.0000
 40
77.9000
  1
\U+05E9\U+05E7\U+05E2 \U+05D1\U+05D5\U+05D3\U+05D3
 50
0.0000
  7
SOLINE
 72
1
 73
2
 11
345.0000
 21
250.0000
 31
0.0000
  0
TEXT
  5
12B
  8
SOL-CHASHMAL
 10
435.0000
 20
80.0000
 30
0.0000
 40
66.5000
  1
H 11
 50
0.0000
  7
SOLINE
  0
INSERT
  5
12C
  8
SOL-CHASHMAL
  2
SS_socket_duplex_160x90
 10
1080.0000
 20
0.0000
 30
0.0000
 41
1.0000
 42
1.0000
 43
1.0000
 50
0.0000
  0
TEXT
  5
12D
  8
SOL-TEKST
 10
1080.0000
 20
250.0000
 30
0.0000
 40
77.9000
  1
\U+05E9\U+05E7\U+05E2 \U+05DE\U+05E8\U+05D5\U+05D1\U+05E2
 50
0.0000
  7
SOLINE
 72
1
 73
2
 11
1080.0000
 21
250.0000
 31
0.0000
  0
TEXT
  5
12E
  8
SOL-CHASHMAL
 10
1170.0000
 20
80.0000
 30
0.0000
 40
66.5000
  1
H 11
 50
0.0000
  7
SOLINE
  0
INSERT
  5
12F
  8
SOL-CHASHMAL
  2
SS_switch_single_90x90
 10
1745.0000
 20
0.0000
 30
0.0000
 41
1.0000
 42
1.0000
 43
1.0000
 50
0.0000
  0
TEXT
  5
130
  8
SOL-TEKST
 10
1745.0000
 20
250.0000
 30
0.0000
 40
77.9000
  1
\U+05DE\U+05EA\U+05D2
 50
0.0000
  7
SOLINE
 72
1
 73
2
 11
1745.0000
 21
250.0000
 31
0.0000
  0
TEXT
  5
131
  8
SOL-CHASHMAL
 10
1835.0000
 20
80.0000
 30
0.0000
 40
66.5000
  1
H 13
 50
0.0000
  7
SOLINE
  0
INSERT
  5
132
  8
SOL-CHASHMAL
  2
SS_junction_cable_60x60
 10
2430.0000
 20
0.0000
 30
0.0000
 41
1.0000
 42
1.0000
 43
1.0000
 50
0.0000
  0
TEXT
  5
133
  8
SOL-TEKST
 10
2430.0000
 20
250.0000
 30
0.0000
 40
77.9000
  1
\U+05EA\U+05E9\U+05EA\U+05D9\U+05EA \U+05D7\U+05E9\U+05DE\U+05DC
 50
0.0000
  7
SOLINE
 72
1
 73
2
 11
2430.0000
 21
250.0000
 31
0.0000
  0
TEXT
  5
134
  8
SOL-CHASHMAL
 10
2520.0000
 20
80.0000
 30
0.0000
 40
66.5000
  1
H 15
 50
0.0000
  7
SOLINE
  0
INSERT
  5
135
  8
SOL-CHASHMAL
  2
SS_junction_cable_60x60
 10
3130.0000
 20
0.0000
 30
0.0000
 41
1.0000
 42
1.0000
 43
1.0000
 50
0.0000
  0
TEXT
  5
136
  8
SOL-TEKST
 10
3130.0000
 20
250.0000
 30
0.0000
 40
77.9000
  1
\U+05EA\U+05E9\U+05EA\U+05D9\U+05EA \U+05D7\U+05E9\U+05DE\U+05DC - \U+05E7\U+05D9\U+05E8
 50
0.0000
  7
SOLINE
 72
1
 73
2
 11
3130.0000
 21
250.0000
 31
0.0000
  0
TEXT
  5
137
  8
SOL-CHASHMAL
 10
3220.0000
 20
80.0000
 30
0.0000
 40
66.5000
  1
H 9
 50
0.0000
  7
SOLINE
  0
INSERT
  5
138
  8
SOL-CHASHMAL
  2
SS_junction_cable_120x120
 10
4000.0000
 20
-360.0000
 30
0.0000
 41
1.0000
 42
1.0000
 43
1.0000
 50
270.0000
  0
TEXT
  5
139
  8
SOL-TEKST
 10
4250.0000
 20
-360.0000
 30
0.0000
 40
77.9000
  1
\U+05E0\U+05E7\U+05D5\U+05D3\U+05EA \U+05DE\U+05D5\U+05E6\U+05E8 \U+05D7\U+05E9\U+05DE\U+05DC
 50
0.0000
  7
SOLINE
 72
1
 73
2
 11
4250.0000
 21
-360.0000
 31
0.0000
  0
TEXT
  5
13A
  8
SOL-CHASHMAL
 10
4170.0000
 20
-360.0000
 30
0.0000
 40
66.5000
  1
H 18
 50
0.0000
  7
SOLINE
  0
INSERT
  5
13B
  8
SOL-TEURA
  2
SS_light_downlight_150x150
 10
4000.0000
 20
-1075.0000
 30
0.0000
 41
1.0000
 42
1.0000
 43
1.0000
 50
270.0000
  0
TEXT
  5
13C
  8
SOL-TEKST
 10
4250.0000
 20
-1075.0000
 30
0.0000
 40
77.9000
  1
\U+05DE\U+05E0\U+05D5\U+05E8\U+05EA \U+05EA\U+05E7\U+05E8\U+05D4
 50
0.0000
  7
SOLINE
 72
1
 73
2
 11
4250.0000
 21
-1075.0000
 31
0.0000
  0
TEXT
  5
13D
  8
SOL-TEURA
 10
4170.0000
 20
-1075.0000
 30
0.0000
 40
66.5000
  1
H 260
 50
0.0000
  7
SOLINE
  0
INSERT
  5
13E
  8
SOL-INSTALATSIA
  2
SS_water_point_60x60
 10
4000.0000
 20
-1730.0000
 30
0.0000
 41
1.0000
 42
1.0000
 43
1.0000
 50
270.0000
  0
TEXT
  5
13F
  8
SOL-TEKST
 10
4250.0000
 20
-1730.0000
 30
0.0000
 40
77.9000
  1
\U+05DE\U+05D9\U+05DD
 50
0.0000
  7
SOLINE
 72
1
 73
2
 11
4250.0000
 21
-1730.0000
 31
0.0000
  0
TEXT
  5
140
  8
SOL-INSTALATSIA
 10
4170.0000
 20
-1730.0000
 30
0.0000
 40
66.5000
  1
H 5
 50
0.0000
  7
SOLINE
  0
INSERT
  5
141
  8
SOL-GAZ
  2
SS_gas_point_60x60
 10
4000.0000
 20
-2430.0000
 30
0.0000
 41
1.0000
 42
1.0000
 43
1.0000
 50
270.0000
  0
TEXT
  5
142
  8
SOL-TEKST
 10
4250.0000
 20
-2430.0000
 30
0.0000
 40
77.9000
  1
\U+05D2\U+05D6
 50
0.0000
  7
SOLINE
 72
1
 73
2
 11
4250.0000
 21
-2430.0000
 31
0.0000
  0
TEXT
  5
143
  8
SOL-GAZ
 10
4170.0000
 20
-2430.0000
 30
0.0000
 40
66.5000
  1
H 6
 50
0.0000
  7
SOLINE
  0
INSERT
  5
144
  8
SOL-INSTALATSIA
  2
SS_water_point_50x50
 10
4000.0000
 20
-3125.0000
 30
0.0000
 41
1.0000
 42
1.0000
 43
1.0000
 50
270.0000
  0
TEXT
  5
145
  8
SOL-TEKST
 10
4250.0000
 20
-3125.0000
 30
0.0000
 40
77.9000
  1
\U+05E6\U+05D9\U+05E0\U+05D5\U+05E8 \U+05DE\U+05D9\U+05DD \U+05E2\U+05D2\U+05D5\U+05DC
 50
0.0000
  7
SOLINE
 72
1
 73
2
 11
4250.0000
 21
-3125.0000
 31
0.0000
  0
TEXT
  5
146
  8
SOL-INSTALATSIA
 10
4170.0000
 20
-3125.0000
 30
0.0000
 40
66.5000
  1
H 4
 50
0.0000
  7
SOLINE
  0
INSERT
  5
147
  8
SOL-INSTALATSIA
  2
SS_sewage_point_100x100
 10
3650.0000
 20
-3000.0000
 30
0.0000
 41
1.0000
 42
1.0000
 43
1.0000
 50
180.0000
  0
TEXT
  5
148
  8
SOL-TEKST
 10
3650.0000
 20
-3250.0000
 30
0.0000
 40
77.9000
  1
\U+05E0\U+05D9\U+05E7\U+05D5\U+05D6 \U+05E8\U+05E6\U+05E4\U+05EA\U+05D9
 50
0.0000
  7
SOLINE
 72
1
 73
2
 11
3650.0000
 21
-3250.0000
 31
0.0000
  0
TEXT
  5
149
  8
SOL-INSTALATSIA
 10
3740.0000
 20
-3080.0000
 30
0.0000
 40
66.5000
  1
H 0
 50
0.0000
  7
SOLINE
  0
INSERT
  5
14A
  8
SOL-MIVNE
  2
SS_beam_200x2600
 10
900.0000
 20
-3000.0000
 30
0.0000
 41
1.0000
 42
1.0000
 43
1.0000
 50
180.0000
  0
TEXT
  5
14B
  8
SOL-TEKST
 10
900.0000
 20
-4460.0000
 30
0.0000
 40
77.9000
  1
\U+05E2\U+05DE\U+05D5\U+05D3
 50
0.0000
  7
SOLINE
 72
1
 73
2
 11
900.0000
 21
-4460.0000
 31
0.0000
  0
TEXT
  5
14C
  8
SOL-MIVNE
 10
990.0000
 20
-3080.0000
 30
0.0000
 40
66.5000
  1
H 0
 50
0.0000
  7
SOLINE
  0
INSERT
  5
14D
  8
SOL-MIVNE
  2
SS_beam_1000x600
 10
0.0000
 20
-2700.0000
 30
0.0000
 41
1.0000
 42
1.0000
 43
1.0000
 50
90.0000
  0
TEXT
  5
14E
  8
SOL-TEKST
 10
-460.0000
 20
-2700.0000
 30
0.0000
 40
77.9000
  1
\U+05D4\U+05E0\U+05DE\U+05DB\U+05EA \U+05EA\U+05E7\U+05E8\U+05D4
 50
0.0000
  7
SOLINE
 72
1
 73
2
 11
-460.0000
 21
-2700.0000
 31
0.0000
  0
TEXT
  5
14F
  8
SOL-MIVNE
 10
10.0000
 20
-2700.0000
 30
0.0000
 40
66.5000
  1
H 200
 50
0.0000
  7
SOLINE
  0
INSERT
  5
150
  8
SOL-MIVNE
  2
SS_concealment_panel_600x50
 10
0.0000
 20
-1700.0000
 30
0.0000
 41
1.0000
 42
1.0000
 43
1.0000
 50
90.0000
  0
TEXT
  5
151
  8
SOL-TEKST
 10
-250.0000
 20
-1700.0000
 30
0.0000
 40
77.9000
  1
\U+05E4\U+05D0\U+05E0\U+05DC
 50
0.0000
  7
SOLINE
 72
1
 73
2
 11
-250.0000
 21
-1700.0000
 31
0.0000
  0
TEXT
  5
152
  8
SOL-MIVNE
 10
10.0000
 20
-1700.0000
 30
0.0000
 40
66.5000
  1
H 0
 50
0.0000
  7
SOLINE
  0
LINE
  5
153
  8
SOL-MIDOT-PNIM
 10
0.0000
 20
40.0000
 30
0.0000
 11
0.0000
 21
300.0000
 31
0.0000
  0
LINE
  5
154
  8
SOL-MIDOT-PNIM
 10
345.0000
 20
40.0000
 30
0.0000
 11
345.0000
 21
300.0000
 31
0.0000
  0
LINE
  5
155
  8
SOL-MIDOT-PNIM
 10
0.0000
 20
250.0000
 30
0.0000
 11
345.0000
 21
250.0000
 31
0.0000
  0
SOLID
  5
156
  8
SOL-MIDOT-PNIM
 10
0.0000
 20
250.0000
 30
0.0000
 11
-78.6600
 21
271.8880
 31
0.0000
 12
-78.6600
 22
228.1120
 32
0.0000
 13
-78.6600
 23
228.1120
 33
0.0000
  0
SOLID
  5
157
  8
SOL-MIDOT-PNIM
 10
345.0000
 20
250.0000
 30
0.0000
 11
423.6600
 21
271.8880
 31
0.0000
 12
423.6600
 22
228.1120
 32
0.0000
 13
423.6600
 23
228.1120
 33
0.0000
  0
TEXT
  5
158
  8
SOL-MIDOT-PNIM
 10
172.5000
 20
314.9800
 30
0.0000
 40
68.4000
  1
34.5
 50
0.0000
  7
SOLINE
 72
1
 73
2
 11
172.5000
 21
314.9800
 31
0.0000
  0
LINE
  5
159
  8
SOL-MIDOT-PNIM
 10
345.0000
 20
40.0000
 30
0.0000
 11
345.0000
 21
300.0000
 31
0.0000
  0
LINE
  5
15A
  8
SOL-MIDOT-PNIM
 10
1080.0000
 20
40.0000
 30
0.0000
 11
1080.0000
 21
300.0000
 31
0.0000
  0
LINE
  5
15B
  8
SOL-MIDOT-PNIM
 10
345.0000
 20
250.0000
 30
0.0000
 11
1080.0000
 21
250.0000
 31
0.0000
  0
SOLID
  5
15C
  8
SOL-MIDOT-PNIM
 10
345.0000
 20
250.0000
 30
0.0000
 11
266.3400
 21
271.8880
 31
0.0000
 12
266.3400
 22
228.1120
 32
0.0000
 13
266.3400
 23
228.1120
 33
0.0000
  0
SOLID
  5
15D
  8
SOL-MIDOT-PNIM
 10
1080.0000
 20
250.0000
 30
0.0000
 11
1158.6600
 21
271.8880
 31
0.0000
 12
1158.6600
 22
228.1120
 32
0.0000
 13
1158.6600
 23
228.1120
 33
0.0000
  0
TEXT
  5
15E
  8
SOL-MIDOT-PNIM
 10
712.5000
 20
314.9800
 30
0.0000
 40
68.4000
  1
73.5
 50
0.0000
  7
SOLINE
 72
1
 73
2
 11
712.5000
 21
314.9800
 31
0.0000
  0
LINE
  5
15F
  8
SOL-MIDOT-PNIM
 10
1080.0000
 20
40.0000
 30
0.0000
 11
1080.0000
 21
300.0000
 31
0.0000
  0
LINE
  5
160
  8
SOL-MIDOT-PNIM
 10
1745.0000
 20
40.0000
 30
0.0000
 11
1745.0000
 21
300.0000
 31
0.0000
  0
LINE
  5
161
  8
SOL-MIDOT-PNIM
 10
1080.0000
 20
250.0000
 30
0.0000
 11
1745.0000
 21
250.0000
 31
0.0000
  0
SOLID
  5
162
  8
SOL-MIDOT-PNIM
 10
1080.0000
 20
250.0000
 30
0.0000
 11
1001.3400
 21
271.8880
 31
0.0000
 12
1001.3400
 22
228.1120
 32
0.0000
 13
1001.3400
 23
228.1120
 33
0.0000
  0
SOLID
  5
163
  8
SOL-MIDOT-PNIM
 10
1745.0000
 20
250.0000
 30
0.0000
 11
1823.6600
 21
271.8880
 31
0.0000
 12
1823.6600
 22
228.1120
 32
0.0000
 13
1823.6600
 23
228.1120
 33
0.0000
  0
TEXT
  5
164
  8
SOL-MIDOT-PNIM
 10
1412.5000
 20
314.9800
 30
0.0000
 40
68.4000
  1
66.5
 50
0.0000
  7
SOLINE
 72
1
 73
2
 11
1412.5000
 21
314.9800
 31
0.0000
  0
LINE
  5
165
  8
SOL-MIDOT-PNIM
 10
1745.0000
 20
40.0000
 30
0.0000
 11
1745.0000
 21
300.0000
 31
0.0000
  0
LINE
  5
166
  8
SOL-MIDOT-PNIM
 10
2430.0000
 20
40.0000
 30
0.0000
 11
2430.0000
 21
300.0000
 31
0.0000
  0
LINE
  5
167
  8
SOL-MIDOT-PNIM
 10
1745.0000
 20
250.0000
 30
0.0000
 11
2430.0000
 21
250.0000
 31
0.0000
  0
SOLID
  5
168
  8
SOL-MIDOT-PNIM
 10
1745.0000
 20
250.0000
 30
0.0000
 11
1666.3400
 21
271.8880
 31
0.0000
 12
1666.3400
 22
228.1120
 32
0.0000
 13
1666.3400
 23
228.1120
 33
0.0000
  0
SOLID
  5
169
  8
SOL-MIDOT-PNIM
 10
2430.0000
 20
250.0000
 30
0.0000
 11
2508.6600
 21
271.8880
 31
0.0000
 12
2508.6600
 22
228.1120
 32
0.0000
 13
2508.6600
 23
228.1120
 33
0.0000
  0
TEXT
  5
16A
  8
SOL-MIDOT-PNIM
 10
2087.5000
 20
314.9800
 30
0.0000
 40
68.4000
  1
68.5
 50
0.0000
  7
SOLINE
 72
1
 73
2
 11
2087.5000
 21
314.9800
 31
0.0000
  0
LINE
  5
16B
  8
SOL-MIDOT-PNIM
 10
2430.0000
 20
40.0000
 30
0.0000
 11
2430.0000
 21
300.0000
 31
0.0000
  0
LINE
  5
16C
  8
SOL-MIDOT-PNIM
 10
3130.0000
 20
40.0000
 30
0.0000
 11
3130.0000
 21
300.0000
 31
0.0000
  0
LINE
  5
16D
  8
SOL-MIDOT-PNIM
 10
2430.0000
 20
250.0000
 30
0.0000
 11
3130.0000
 21
250.0000
 31
0.0000
  0
SOLID
  5
16E
  8
SOL-MIDOT-PNIM
 10
2430.0000
 20
250.0000
 30
0.0000
 11
2351.3400
 21
271.8880
 31
0.0000
 12
2351.3400
 22
228.1120
 32
0.0000
 13
2351.3400
 23
228.1120
 33
0.0000
  0
SOLID
  5
16F
  8
SOL-MIDOT-PNIM
 10
3130.0000
 20
250.0000
 30
0.0000
 11
3208.6600
 21
271.8880
 31
0.0000
 12
3208.6600
 22
228.1120
 32
0.0000
 13
3208.6600
 23
228.1120
 33
0.0000
  0
TEXT
  5
170
  8
SOL-MIDOT-PNIM
 10
2780.0000
 20
314.9800
 30
0.0000
 40
68.4000
  1
70
 50
0.0000
  7
SOLINE
 72
1
 73
2
 11
2780.0000
 21
314.9800
 31
0.0000
  0
LINE
  5
171
  8
SOL-MIDOT-PNIM
 10
3130.0000
 20
40.0000
 30
0.0000
 11
3130.0000
 21
300.0000
 31
0.0000
  0
LINE
  5
172
  8
SOL-MIDOT-PNIM
 10
4000.0000
 20
40.0000
 30
0.0000
 11
4000.0000
 21
300.0000
 31
0.0000
  0
LINE
  5
173
  8
SOL-MIDOT-PNIM
 10
3130.0000
 20
250.0000
 30
0.0000
 11
4000.0000
 21
250.0000
 31
0.0000
  0
SOLID
  5
174
  8
SOL-MIDOT-PNIM
 10
3130.0000
 20
250.0000
 30
0.0000
 11
3051.3400
 21
271.8880
 31
0.0000
 12
3051.3400
 22
228.1120
 32
0.0000
 13
3051.3400
 23
228.1120
 33
0.0000
  0
SOLID
  5
175
  8
SOL-MIDOT-PNIM
 10
4000.0000
 20
250.0000
 30
0.0000
 11
4078.6600
 21
271.8880
 31
0.0000
 12
4078.6600
 22
228.1120
 32
0.0000
 13
4078.6600
 23
228.1120
 33
0.0000
  0
TEXT
  5
176
  8
SOL-MIDOT-PNIM
 10
3565.0000
 20
314.9800
 30
0.0000
 40
68.4000
  1
87
 50
0.0000
  7
SOLINE
 72
1
 73
2
 11
3565.0000
 21
314.9800
 31
0.0000
  0
LINE
  5
177
  8
SOL-MIDOT-PNIM
 10
4040.0000
 20
0.0000
 30
0.0000
 11
4300.0000
 21
0.0000
 31
0.0000
  0
LINE
  5
178
  8
SOL-MIDOT-PNIM
 10
4040.0000
 20
-360.0000
 30
0.0000
 11
4300.0000
 21
-360.0000
 31
0.0000
  0
LINE
  5
179
  8
SOL-MIDOT-PNIM
 10
4250.0000
 20
0.0000
 30
0.0000
 11
4250.0000
 21
-360.0000
 31
0.0000
  0
SOLID
  5
17A
  8
SOL-MIDOT-PNIM
 10
4250.0000
 20
0.0000
 30
0.0000
 11
4271.8880
 21
78.6600
 31
0.0000
 12
4228.1120
 22
78.6600
 32
0.0000
 13
4228.1120
 23
78.6600
 33
0.0000
  0
SOLID
  5
17B
  8
SOL-MIDOT-PNIM
 10
4250.0000
 20
-360.0000
 30
0.0000
 11
4271.8880
 21
-438.6600
 31
0.0000
 12
4228.1120
 22
-438.6600
 32
0.0000
 13
4228.1120
 23
-438.6600
 33
0.0000
  0
TEXT
  5
17C
  8
SOL-MIDOT-PNIM
 10
4314.9800
 20
-180.0000
 30
0.0000
 40
68.4000
  1
36
 50
90.0000
  7
SOLINE
 72
1
 73
2
 11
4314.9800
 21
-180.0000
 31
0.0000
  0
LINE
  5
17D
  8
SOL-MIDOT-PNIM
 10
4040.0000
 20
-360.0000
 30
0.0000
 11
4300.0000
 21
-360.0000
 31
0.0000
  0
LINE
  5
17E
  8
SOL-MIDOT-PNIM
 10
4040.0000
 20
-1075.0000
 30
0.0000
 11
4300.0000
 21
-1075.0000
 31
0.0000
  0
LINE
  5
17F
  8
SOL-MIDOT-PNIM
 10
4250.0000
 20
-360.0000
 30
0.0000
 11
4250.0000
 21
-1075.0000
 31
0.0000
  0
SOLID
  5
180
  8
SOL-MIDOT-PNIM
 10
4250.0000
 20
-360.0000
 30
0.0000
 11
4271.8880
 21
-281.3400
 31
0.0000
 12
4228.1120
 22
-281.3400
 32
0.0000
 13
4228.1120
 23
-281.3400
 33
0.0000
  0
SOLID
  5
181
  8
SOL-MIDOT-PNIM
 10
4250.0000
 20
-1075.0000
 30
0.0000
 11
4271.8880
 21
-1153.6600
 31
0.0000
 12
4228.1120
 22
-1153.6600
 32
0.0000
 13
4228.1120
 23
-1153.6600
 33
0.0000
  0
TEXT
  5
182
  8
SOL-MIDOT-PNIM
 10
4314.9800
 20
-717.5000
 30
0.0000
 40
68.4000
  1
71.5
 50
90.0000
  7
SOLINE
 72
1
 73
2
 11
4314.9800
 21
-717.5000
 31
0.0000
  0
LINE
  5
183
  8
SOL-MIDOT-PNIM
 10
4040.0000
 20
-1075.0000
 30
0.0000
 11
4300.0000
 21
-1075.0000
 31
0.0000
  0
LINE
  5
184
  8
SOL-MIDOT-PNIM
 10
4040.0000
 20
-1730.0000
 30
0.0000
 11
4300.0000
 21
-1730.0000
 31
0.0000
  0
LINE
  5
185
  8
SOL-MIDOT-PNIM
 10
4250.0000
 20
-1075.0000
 30
0.0000
 11
4250.0000
 21
-1730.0000
 31
0.0000
  0
SOLID
  5
186
  8
SOL-MIDOT-PNIM
 10
4250.0000
 20
-1075.0000
 30
0.0000
 11
4271.8880
 21
-996.3400
 31
0.0000
 12
4228.1120
 22
-996.3400
 32
0.0000
 13
4228.1120
 23
-996.3400
 33
0.0000
  0
SOLID
  5
187
  8
SOL-MIDOT-PNIM
 10
4250.0000
 20
-1730.0000
 30
0.0000
 11
4271.8880
 21
-1808.6600
 31
0.0000
 12
4228.1120
 22
-1808.6600
 32
0.0000
 13
4228.1120
 23
-1808.6600
 33
0.0000
  0
TEXT
  5
188
  8
SOL-MIDOT-PNIM
 10
4314.9800
 20
-1402.5000
 30
0.0000
 40
68.4000
  1
65.5
 50
90.0000
  7
SOLINE
 72
1
 73
2
 11
4314.9800
 21
-1402.5000
 31
0.0000
  0
LINE
  5
189
  8
SOL-MIDOT-PNIM
 10
4040.0000
 20
-1730.0000
 30
0.0000
 11
4300.0000
 21
-1730.0000
 31
0.0000
  0
LINE
  5
18A
  8
SOL-MIDOT-PNIM
 10
4040.0000
 20
-2430.0000
 30
0.0000
 11
4300.0000
 21
-2430.0000
 31
0.0000
  0
LINE
  5
18B
  8
SOL-MIDOT-PNIM
 10
4250.0000
 20
-1730.0000
 30
0.0000
 11
4250.0000
 21
-2430.0000
 31
0.0000
  0
SOLID
  5
18C
  8
SOL-MIDOT-PNIM
 10
4250.0000
 20
-1730.0000
 30
0.0000
 11
4271.8880
 21
-1651.3400
 31
0.0000
 12
4228.1120
 22
-1651.3400
 32
0.0000
 13
4228.1120
 23
-1651.3400
 33
0.0000
  0
SOLID
  5
18D
  8
SOL-MIDOT-PNIM
 10
4250.0000
 20
-2430.0000
 30
0.0000
 11
4271.8880
 21
-2508.6600
 31
0.0000
 12
4228.1120
 22
-2508.6600
 32
0.0000
 13
4228.1120
 23
-2508.6600
 33
0.0000
  0
TEXT
  5
18E
  8
SOL-MIDOT-PNIM
 10
4314.9800
 20
-2080.0000
 30
0.0000
 40
68.4000
  1
70
 50
90.0000
  7
SOLINE
 72
1
 73
2
 11
4314.9800
 21
-2080.0000
 31
0.0000
  0
LINE
  5
18F
  8
SOL-MIDOT-PNIM
 10
4040.0000
 20
-2430.0000
 30
0.0000
 11
4300.0000
 21
-2430.0000
 31
0.0000
  0
LINE
  5
190
  8
SOL-MIDOT-PNIM
 10
4040.0000
 20
-3000.0000
 30
0.0000
 11
4300.0000
 21
-3000.0000
 31
0.0000
  0
LINE
  5
191
  8
SOL-MIDOT-PNIM
 10
4250.0000
 20
-2430.0000
 30
0.0000
 11
4250.0000
 21
-3000.0000
 31
0.0000
  0
SOLID
  5
192
  8
SOL-MIDOT-PNIM
 10
4250.0000
 20
-2430.0000
 30
0.0000
 11
4271.8880
 21
-2351.3400
 31
0.0000
 12
4228.1120
 22
-2351.3400
 32
0.0000
 13
4228.1120
 23
-2351.3400
 33
0.0000
  0
SOLID
  5
193
  8
SOL-MIDOT-PNIM
 10
4250.0000
 20
-3000.0000
 30
0.0000
 11
4271.8880
 21
-3078.6600
 31
0.0000
 12
4228.1120
 22
-3078.6600
 32
0.0000
 13
4228.1120
 23
-3078.6600
 33
0.0000
  0
TEXT
  5
194
  8
SOL-MIDOT-PNIM
 10
4314.9800
 20
-2715.0000
 30
0.0000
 40
68.4000
  1
57
 50
90.0000
  7
SOLINE
 72
1
 73
2
 11
4314.9800
 21
-2715.0000
 31
0.0000
  0
LINE
  5
195
  8
SOL-MIDOT-PNIM
 10
4000.0000
 20
-3040.0000
 30
0.0000
 11
4000.0000
 21
-3300.0000
 31
0.0000
  0
LINE
  5
196
  8
SOL-MIDOT-PNIM
 10
3650.0000
 20
-3040.0000
 30
0.0000
 11
3650.0000
 21
-3300.0000
 31
0.0000
  0
LINE
  5
197
  8
SOL-MIDOT-PNIM
 10
4000.0000
 20
-3250.0000
 30
0.0000
 11
3650.0000
 21
-3250.0000
 31
0.0000
  0
SOLID
  5
198
  8
SOL-MIDOT-PNIM
 10
4000.0000
 20
-3250.0000
 30
0.0000
 11
4078.6600
 21
-3271.8880
 31
0.0000
 12
4078.6600
 22
-3228.1120
 32
0.0000
 13
4078.6600
 23
-3228.1120
 33
0.0000
  0
SOLID
  5
199
  8
SOL-MIDOT-PNIM
 10
3650.0000
 20
-3250.0000
 30
0.0000
 11
3571.3400
 21
-3271.8880
 31
0.0000
 12
3571.3400
 22
-3228.1120
 32
0.0000
 13
3571.3400
 23
-3228.1120
 33
0.0000
  0
TEXT
  5
19A
  8
SOL-MIDOT-PNIM
 10
3825.0000
 20
-3314.9800
 30
0.0000
 40
68.4000
  1
35
 50
360.0000
  7
SOLINE
 72
1
 73
2
 11
3825.0000
 21
-3314.9800
 31
0.0000
  0
LINE
  5
19B
  8
SOL-MIDOT-PNIM
 10
3650.0000
 20
-3040.0000
 30
0.0000
 11
3650.0000
 21
-3300.0000
 31
0.0000
  0
LINE
  5
19C
  8
SOL-MIDOT-PNIM
 10
900.0000
 20
-3040.0000
 30
0.0000
 11
900.0000
 21
-3300.0000
 31
0.0000
  0
LINE
  5
19D
  8
SOL-MIDOT-PNIM
 10
3650.0000
 20
-3250.0000
 30
0.0000
 11
900.0000
 21
-3250.0000
 31
0.0000
  0
SOLID
  5
19E
  8
SOL-MIDOT-PNIM
 10
3650.0000
 20
-3250.0000
 30
0.0000
 11
3728.6600
 21
-3271.8880
 31
0.0000
 12
3728.6600
 22
-3228.1120
 32
0.0000
 13
3728.6600
 23
-3228.1120
 33
0.0000
  0
SOLID
  5
19F
  8
SOL-MIDOT-PNIM
 10
900.0000
 20
-3250.0000
 30
0.0000
 11
821.3400
 21
-3271.8880
 31
0.0000
 12
821.3400
 22
-3228.1120
 32
0.0000
 13
821.3400
 23
-3228.1120
 33
0.0000
  0
TEXT
  5
1A0
  8
SOL-MIDOT-PNIM
 10
2275.0000
 20
-3314.9800
 30
0.0000
 40
68.4000
  1
275
 50
360.0000
  7
SOLINE
 72
1
 73
2
 11
2275.0000
 21
-3314.9800
 31
0.0000
  0
LINE
  5
1A1
  8
SOL-MIDOT-PNIM
 10
900.0000
 20
-3040.0000
 30
0.0000
 11
900.0000
 21
-3300.0000
 31
0.0000
  0
LINE
  5
1A2
  8
SOL-MIDOT-PNIM
 10
0.0000
 20
-3040.0000
 30
0.0000
 11
0.0000
 21
-3300.0000
 31
0.0000
  0
LINE
  5
1A3
  8
SOL-MIDOT-PNIM
 10
900.0000
 20
-3250.0000
 30
0.0000
 11
0.0000
 21
-3250.0000
 31
0.0000
  0
SOLID
  5
1A4
  8
SOL-MIDOT-PNIM
 10
900.0000
 20
-3250.0000
 30
0.0000
 11
978.6600
 21
-3271.8880
 31
0.0000
 12
978.6600
 22
-3228.1120
 32
0.0000
 13
978.6600
 23
-3228.1120
 33
0.0000
  0
SOLID
  5
1A5
  8
SOL-MIDOT-PNIM
 10
0.0000
 20
-3250.0000
 30
0.0000
 11
-78.6600
 21
-3271.8880
 31
0.0000
 12
-78.6600
 22
-3228.1120
 32
0.0000
 13
-78.6600
 23
-3228.1120
 33
0.0000
  0
TEXT
  5
1A6
  8
SOL-MIDOT-PNIM
 10
450.0000
 20
-3314.9800
 30
0.0000
 40
68.4000
  1
90
 50
360.0000
  7
SOLINE
 72
1
 73
2
 11
450.0000
 21
-3314.9800
 31
0.0000
  0
LINE
  5
1A7
  8
SOL-MIDOT-PNIM
 10
-40.0000
 20
-3000.0000
 30
0.0000
 11
-300.0000
 21
-3000.0000
 31
0.0000
  0
LINE
  5
1A8
  8
SOL-MIDOT-PNIM
 10
-40.0000
 20
-2700.0000
 30
0.0000
 11
-300.0000
 21
-2700.0000
 31
0.0000
  0
LINE
  5
1A9
  8
SOL-MIDOT-PNIM
 10
-250.0000
 20
-3000.0000
 30
0.0000
 11
-250.0000
 21
-2700.0000
 31
0.0000
  0
SOLID
  5
1AA
  8
SOL-MIDOT-PNIM
 10
-250.0000
 20
-3000.0000
 30
0.0000
 11
-271.8880
 21
-3078.6600
 31
0.0000
 12
-228.1120
 22
-3078.6600
 32
0.0000
 13
-228.1120
 23
-3078.6600
 33
0.0000
  0
SOLID
  5
1AB
  8
SOL-MIDOT-PNIM
 10
-250.0000
 20
-2700.0000
 30
0.0000
 11
-271.8880
 21
-2621.3400
 31
0.0000
 12
-228.1120
 22
-2621.3400
 32
0.0000
 13
-228.1120
 23
-2621.3400
 33
0.0000
  0
TEXT
  5
1AC
  8
SOL-MIDOT-PNIM
 10
-314.9800
 20
-2850.0000
 30
0.0000
 40
68.4000
  1
30
 50
90.0000
  7
SOLINE
 72
1
 73
2
 11
-314.9800
 21
-2850.0000
 31
0.0000
  0
LINE
  5
1AD
  8
SOL-MIDOT-PNIM
 10
-40.0000
 20
-2700.0000
 30
0.0000
 11
-300.0000
 21
-2700.0000
 31
0.0000
  0
LINE
  5
1AE
  8
SOL-MIDOT-PNIM
 10
-40.0000
 20
-1700.0000
 30
0.0000
 11
-300.0000
 21
-1700.0000
 31
0.0000
  0
LINE
  5
1AF
  8
SOL-MIDOT-PNIM
 10
-250.0000
 20
-2700.0000
 30
0.0000
 11
-250.0000
 21
-1700.0000
 31
0.0000
  0
SOLID
  5
1B0
  8
SOL-MIDOT-PNIM
 10
-250.0000
 20
-2700.0000
 30
0.0000
 11
-271.8880
 21
-2778.6600
 31
0.0000
 12
-228.1120
 22
-2778.6600
 32
0.0000
 13
-228.1120
 23
-2778.6600
 33
0.0000
  0
SOLID
  5
1B1
  8
SOL-MIDOT-PNIM
 10
-250.0000
 20
-1700.0000
 30
0.0000
 11
-271.8880
 21
-1621.3400
 31
0.0000
 12
-228.1120
 22
-1621.3400
 32
0.0000
 13
-228.1120
 23
-1621.3400
 33
0.0000
  0
TEXT
  5
1B2
  8
SOL-MIDOT-PNIM
 10
-314.9800
 20
-2200.0000
 30
0.0000
 40
68.4000
  1
100
 50
90.0000
  7
SOLINE
 72
1
 73
2
 11
-314.9800
 21
-2200.0000
 31
0.0000
  0
LINE
  5
1B3
  8
SOL-MIDOT-PNIM
 10
-40.0000
 20
-1700.0000
 30
0.0000
 11
-300.0000
 21
-1700.0000
 31
0.0000
  0
LINE
  5
1B4
  8
SOL-MIDOT-PNIM
 10
-40.0000
 20
0.0000
 30
0.0000
 11
-300.0000
 21
0.0000
 31
0.0000
  0
LINE
  5
1B5
  8
SOL-MIDOT-PNIM
 10
-250.0000
 20
-1700.0000
 30
0.0000
 11
-250.0000
 21
0.0000
 31
0.0000
  0
SOLID
  5
1B6
  8
SOL-MIDOT-PNIM
 10
-250.0000
 20
-1700.0000
 30
0.0000
 11
-271.8880
 21
-1778.6600
 31
0.0000
 12
-228.1120
 22
-1778.6600
 32
0.0000
 13
-228.1120
 23
-1778.6600
 33
0.0000
  0
SOLID
  5
1B7
  8
SOL-MIDOT-PNIM
 10
-250.0000
 20
0.0000
 30
0.0000
 11
-271.8880
 21
78.6600
 31
0.0000
 12
-228.1120
 22
78.6600
 32
0.0000
 13
-228.1120
 23
78.6600
 33
0.0000
  0
TEXT
  5
1B8
  8
SOL-MIDOT-PNIM
 10
-314.9800
 20
-850.0000
 30
0.0000
 40
68.4000
  1
170
 50
90.0000
  7
SOLINE
 72
1
 73
2
 11
-314.9800
 21
-850.0000
 31
0.0000
  0
LINE
  5
1B9
  8
SOL-MIDOT-PNIM
 10
0.0000
 20
40.0000
 30
0.0000
 11
0.0000
 21
417.0000
 31
0.0000
  0
LINE
  5
1BA
  8
SOL-MIDOT-PNIM
 10
4000.0000
 20
40.0000
 30
0.0000
 11
4000.0000
 21
417.0000
 31
0.0000
  0
LINE
  5
1BB
  8
SOL-MIDOT-PNIM
 10
0.0000
 20
360.0000
 30
0.0000
 11
4000.0000
 21
360.0000
 31
0.0000
  0
SOLID
  5
1BC
  8
SOL-MIDOT-PNIM
 10
0.0000
 20
360.0000
 30
0.0000
 11
-109.2500
 21
390.4000
 31
0.0000
 12
-109.2500
 22
329.6000
 32
0.0000
 13
-109.2500
 23
329.6000
 33
0.0000
  0
SOLID
  5
1BD
  8
SOL-MIDOT-PNIM
 10
4000.0000
 20
360.0000
 30
0.0000
 11
4109.2500
 21
390.4000
 31
0.0000
 12
4109.2500
 22
329.6000
 32
0.0000
 13
4109.2500
 23
329.6000
 33
0.0000
  0
TEXT
  5
1BE
  8
SOL-MIDOT-PNIM
 10
2000.0000
 20
450.2500
 30
0.0000
 40
95.0000
  1
400
 50
0.0000
  7
SOLINE
 72
1
 73
2
 11
2000.0000
 21
450.2500
 31
0.0000
  0
LINE
  5
1BF
  8
SOL-MIDOT-PNIM
 10
4040.0000
 20
0.0000
 30
0.0000
 11
4417.0000
 21
0.0000
 31
0.0000
  0
LINE
  5
1C0
  8
SOL-MIDOT-PNIM
 10
4040.0000
 20
-3000.0000
 30
0.0000
 11
4417.0000
 21
-3000.0000
 31
0.0000
  0
LINE
  5
1C1
  8
SOL-MIDOT-PNIM
 10
4360.0000
 20
0.0000
 30
0.0000
 11
4360.0000
 21
-3000.0000
 31
0.0000
  0
SOLID
  5
1C2
  8
SOL-MIDOT-PNIM
 10
4360.0000
 20
0.0000
 30
0.0000
 11
4390.4000
 21
109.2500
 31
0.0000
 12
4329.6000
 22
109.2500
 32
0.0000
 13
4329.6000
 23
109.2500
 33
0.0000
  0
SOLID
  5
1C3
  8
SOL-MIDOT-PNIM
 10
4360.0000
 20
-3000.0000
 30
0.0000
 11
4390.4000
 21
-3109.2500
 31
0.0000
 12
4329.6000
 22
-3109.2500
 32
0.0000
 13
4329.6000
 23
-3109.2500
 33
0.0000
  0
TEXT
  5
1C4
  8
SOL-MIDOT-PNIM
 10
4450.2500
 20
-1500.0000
 30
0.0000
 40
95.0000
  1
300
 50
90.0000
  7
SOLINE
 72
1
 73
2
 11
4450.2500
 21
-1500.0000
 31
0.0000
  0
LINE
  5
1C5
  8
SOL-MIDOT-PNIM
 10
4000.0000
 20
-3040.0000
 30
0.0000
 11
4000.0000
 21
-3417.0000
 31
0.0000
  0
LINE
  5
1C6
  8
SOL-MIDOT-PNIM
 10
0.0000
 20
-3040.0000
 30
0.0000
 11
0.0000
 21
-3417.0000
 31
0.0000
  0
LINE
  5
1C7
  8
SOL-MIDOT-PNIM
 10
4000.0000
 20
-3360.0000
 30
0.0000
 11
0.0000
 21
-3360.0000
 31
0.0000
  0
SOLID
  5
1C8
  8
SOL-MIDOT-PNIM
 10
4000.0000
 20
-3360.0000
 30
0.0000
 11
4109.2500
 21
-3390.4000
 31
0.0000
 12
4109.2500
 22
-3329.6000
 32
0.0000
 13
4109.2500
 23
-3329.6000
 33
0.0000
  0
SOLID
  5
1C9
  8
SOL-MIDOT-PNIM
 10
0.0000
 20
-3360.0000
 30
0.0000
 11
-109.2500
 21
-3390.4000
 31
0.0000
 12
-109.2500
 22
-3329.6000
 32
0.0000
 13
-109.2500
 23
-3329.6000
 33
0.0000
  0
TEXT
  5
1CA
  8
SOL-MIDOT-PNIM
 10
2000.0000
 20
-3450.2500
 30
0.0000
 40
95.0000
  1
400
 50
360.0000
  7
SOLINE
 72
1
 73
2
 11
2000.0000
 21
-3450.2500
 31
0.0000
  0
LINE
  5
1CB
  8
SOL-MIDOT-PNIM
 10
-40.0000
 20
-3000.0000
 30
0.0000
 11
-417.0000
 21
-3000.0000
 31
0.0000
  0
LINE
  5
1CC
  8
SOL-MIDOT-PNIM
 10
-40.0000
 20
0.0000
 30
0.0000
 11
-417.0000
 21
0.0000
 31
0.0000
  0
LINE
  5
1CD
  8
SOL-MIDOT-PNIM
 10
-360.0000
 20
-3000.0000
 30
0.0000
 11
-360.0000
 21
0.0000
 31
0.0000
  0
SOLID
  5
1CE
  8
SOL-MIDOT-PNIM
 10
-360.0000
 20
-3000.0000
 30
0.0000
 11
-390.4000
 21
-3109.2500
 31
0.0000
 12
-329.6000
 22
-3109.2500
 32
0.0000
 13
-329.6000
 23
-3109.2500
 33
0.0000
  0
SOLID
  5
1CF
  8
SOL-MIDOT-PNIM
 10
-360.0000
 20
0.0000
 30
0.0000
 11
-390.4000
 21
109.2500
 31
0.0000
 12
-329.6000
 22
109.2500
 32
0.0000
 13
-329.6000
 23
109.2500
 33
0.0000
  0
TEXT
  5
1D0
  8
SOL-MIDOT-PNIM
 10
-450.2500
 20
-1500.0000
 30
0.0000
 40
95.0000
  1
300
 50
90.0000
  7
SOLINE
 72
1
 73
2
 11
-450.2500
 21
-1500.0000
 31
0.0000
  0
LINE
  5
1D1
  8
SOL-MIDOT-PNIM
 10
0.0000
 20
-3040.0000
 30
0.0000
 11
0.0000
 21
-3807.0000
 31
0.0000
  0
LINE
  5
1D2
  8
SOL-MIDOT-PNIM
 10
4000.0000
 20
-3040.0000
 30
0.0000
 11
4000.0000
 21
-3807.0000
 31
0.0000
  0
LINE
  5
1D3
  8
SOL-MIDOT-PNIM
 10
0.0000
 20
-3750.0000
 30
0.0000
 11
4000.0000
 21
-3750.0000
 31
0.0000
  0
SOLID
  5
1D4
  8
SOL-MIDOT-PNIM
 10
0.0000
 20
-3750.0000
 30
0.0000
 11
-109.2500
 21
-3780.4000
 31
0.0000
 12
-109.2500
 22
-3719.6000
 32
0.0000
 13
-109.2500
 23
-3719.6000
 33
0.0000
  0
SOLID
  5
1D5
  8
SOL-MIDOT-PNIM
 10
4000.0000
 20
-3750.0000
 30
0.0000
 11
4109.2500
 21
-3780.4000
 31
0.0000
 12
4109.2500
 22
-3719.6000
 32
0.0000
 13
4109.2500
 23
-3719.6000
 33
0.0000
  0
TEXT
  5
1D6
  8
SOL-MIDOT-PNIM
 10
2000.0000
 20
-3840.2500
 30
0.0000
 40
95.0000
  1
400
 50
0.0000
  7
SOLINE
 72
1
 73
2
 11
2000.0000
 21
-3840.2500
 31
0.0000
  0
LINE
  5
1D7
  8
SOL-MIDOT-PNIM
 10
-40.0000
 20
-3000.0000
 30
0.0000
 11
-807.0000
 21
-3000.0000
 31
0.0000
  0
LINE
  5
1D8
  8
SOL-MIDOT-PNIM
 10
-40.0000
 20
0.0000
 30
0.0000
 11
-807.0000
 21
0.0000
 31
0.0000
  0
LINE
  5
1D9
  8
SOL-MIDOT-PNIM
 10
-750.0000
 20
-3000.0000
 30
0.0000
 11
-750.0000
 21
0.0000
 31
0.0000
  0
SOLID
  5
1DA
  8
SOL-MIDOT-PNIM
 10
-750.0000
 20
-3000.0000
 30
0.0000
 11
-780.4000
 21
-3109.2500
 31
0.0000
 12
-719.6000
 22
-3109.2500
 32
0.0000
 13
-719.6000
 23
-3109.2500
 33
0.0000
  0
SOLID
  5
1DB
  8
SOL-MIDOT-PNIM
 10
-750.0000
 20
0.0000
 30
0.0000
 11
-780.4000
 21
109.2500
 31
0.0000
 12
-719.6000
 22
109.2500
 32
0.0000
 13
-719.6000
 23
109.2500
 33
0.0000
  0
TEXT
  5
1DC
  8
SOL-MIDOT-PNIM
 10
-840.2500
 20
-1500.0000
 30
0.0000
 40
95.0000
  1
300
 50
90.0000
  7
SOLINE
 72
1
 73
2
 11
-840.2500
 21
-1500.0000
 31
0.0000
  0
LINE
  5
1DD
  8
SOL-MIDOT-CHUTS
 10
-100.0000
 20
-3140.0000
 30
0.0000
 11
-100.0000
 21
-4507.0000
 31
0.0000
  0
LINE
  5
1DE
  8
SOL-MIDOT-CHUTS
 10
4100.0000
 20
-3140.0000
 30
0.0000
 11
4100.0000
 21
-4507.0000
 31
0.0000
  0
LINE
  5
1DF
  8
SOL-MIDOT-CHUTS
 10
-100.0000
 20
-4450.0000
 30
0.0000
 11
4100.0000
 21
-4450.0000
 31
0.0000
  0
SOLID
  5
1E0
  8
SOL-MIDOT-CHUTS
 10
-100.0000
 20
-4450.0000
 30
0.0000
 11
-209.2500
 21
-4480.4000
 31
0.0000
 12
-209.2500
 22
-4419.6000
 32
0.0000
 13
-209.2500
 23
-4419.6000
 33
0.0000
  0
SOLID
  5
1E1
  8
SOL-MIDOT-CHUTS
 10
4100.0000
 20
-4450.0000
 30
0.0000
 11
4209.2500
 21
-4480.4000
 31
0.0000
 12
4209.2500
 22
-4419.6000
 32
0.0000
 13
4209.2500
 23
-4419.6000
 33
0.0000
  0
TEXT
  5
1E2
  8
SOL-MIDOT-CHUTS
 10
2000.0000
 20
-4540.2500
 30
0.0000
 40
95.0000
  1
420
 50
0.0000
  7
SOLINE
 72
1
 73
2
 11
2000.0000
 21
-4540.2500
 31
0.0000
  0
LINE
  5
1E3
  8
SOL-MIDOT-CHUTS
 10
-140.0000
 20
-3100.0000
 30
0.0000
 11
-1507.0000
 21
-3100.0000
 31
0.0000
  0
LINE
  5
1E4
  8
SOL-MIDOT-CHUTS
 10
-140.0000
 20
100.0000
 30
0.0000
 11
-1507.0000
 21
100.0000
 31
0.0000
  0
LINE
  5
1E5
  8
SOL-MIDOT-CHUTS
 10
-1450.0000
 20
-3100.0000
 30
0.0000
 11
-1450.0000
 21
100.0000
 31
0.0000
  0
SOLID
  5
1E6
  8
SOL-MIDOT-CHUTS
 10
-1450.0000
 20
-3100.0000
 30
0.0000
 11
-1480.4000
 21
-3209.2500
 31
0.0000
 12
-1419.6000
 22
-3209.2500
 32
0.0000
 13
-1419.6000
 23
-3209.2500
 33
0.0000
  0
SOLID
  5
1E7
  8
SOL-MIDOT-CHUTS
 10
-1450.0000
 20
100.0000
 30
0.0000
 11
-1480.4000
 21
209.2500
 31
0.0000
 12
-1419.6000
 22
209.2500
 32
0.0000
 13
-1419.6000
 23
209.2500
 33
0.0000
  0
TEXT
  5
1E8
  8
SOL-MIDOT-CHUTS
 10
-1540.2500
 20
-1500.0000
 30
0.0000
 40
95.0000
  1
320
 50
90.0000
  7
SOLINE
 72
1
 73
2
 11
-1540.2500
 21
-1500.0000
 31
0.0000
  0
TEXT
  5
1E9
  8
SOL-TEKST
 10
2000.0000
 20
-1367.0000
 30
0.0000
 40
104.5000
  1
\U+05D7\U+05D3\U+05E8 \U+05DE\U+05DC\U+05D0 \U+2014 \U+05DB\U+05DC \U+05D4\U+05D0\U+05DC\U+05DE\U+05E0\U+05D8\U+05D9\U+05DD
 50
0.0000
  7
SOLINE
 72
1
 73
2
 11
2000.0000
 21
-1367.0000
 31
0.0000
  0
TEXT
  5
1EA
  8
SOL-TEKST
 10
2000.0000
 20
-1557.0000
 30
0.0000
 40
123.5000
  1
P.1
 50
0.0000
  7
SOLINE
 72
1
 73
2
 11
2000.0000
 21
-1557.0000
 31
0.0000
  0
LINE
  5
1EB
  8
SOL-MISGERET
 10
5600.0000
 20
200.0000
 30
0.0000
 11
7500.0000
 21
200.0000
 31
0.0000
  0
LINE
  5
1EC
  8
SOL-MISGERET
 10
7500.0000
 20
200.0000
 30
0.0000
 11
7500.0000
 21
-1206.0000
 31
0.0000
  0
LINE
  5
1ED
  8
SOL-MISGERET
 10
7500.0000
 20
-1206.0000
 30
0.0000
 11
5600.0000
 21
-1206.0000
 31
0.0000
  0
LINE
  5
1EE
  8
SOL-MISGERET
 10
5600.0000
 20
-1206.0000
 30
0.0000
 11
5600.0000
 21
200.0000
 31
0.0000
  0
LINE
  5
1EF
  8
SOL-MISGERET
 10
5600.0000
 20
-47.0000
 30
0.0000
 11
7500.0000
 21
-47.0000
 31
0.0000
  0
TEXT
  5
1F0
  8
SOL-TEKST
 10
7443.0000
 20
29.0000
 30
0.0000
 40
118.7500
  1
\U+05E1\U+05D5\U+05DC\U+05D9\U+05DF \U+2014 \U+05EA\U+05DB\U+05E0\U+05D9\U+05EA \U+05DE\U+05D3\U+05D9\U+05D3\U+05D4
 50
0.0000
  7
SOLINE
 72
2
 73
2
 11
7443.0000
 21
29.0000
 31
0.0000
  0
TEXT
  5
1F1
  8
SOL-TEKST
 10
7443.0000
 20
-161.0000
 30
0.0000
 40
95.0000
  1
\U+05E4\U+05E8\U+05D5\U+05D9\U+05E7\U+05D8: allelem
 50
0.0000
  7
SOLINE
 72
2
 73
2
 11
7443.0000
 21
-161.0000
 31
0.0000
  0
TEXT
  5
1F2
  8
SOL-TEKST
 10
7443.0000
 20
-351.0000
 30
0.0000
 40
95.0000
  1
\U+05DC\U+05E7\U+05D5\U+05D7: \U+2014
 50
0.0000
  7
SOLINE
 72
2
 73
2
 11
7443.0000
 21
-351.0000
 31
0.0000
  0
TEXT
  5
1F3
  8
SOL-TEKST
 10
7443.0000
 20
-541.0000
 30
0.0000
 40
95.0000
  1
\U+05DB\U+05EA\U+05D5\U+05D1\U+05EA: \U+2014
 50
0.0000
  7
SOLINE
 72
2
 73
2
 11
7443.0000
 21
-541.0000
 31
0.0000
  0
TEXT
  5
1F4
  8
SOL-TEKST
 10
7443.0000
 20
-731.0000
 30
0.0000
 40
95.0000
  1
\U+05DE\U+05D5\U+05D3\U+05D3: \U+2014
 50
0.0000
  7
SOLINE
 72
2
 73
2
 11
7443.0000
 21
-731.0000
 31
0.0000
  0
TEXT
  5
1F5
  8
SOL-TEKST
 10
7443.0000
 20
-921.0000
 30
0.0000
 40
95.0000
  1
\U+05EA\U+05D0\U+05E8\U+05D9\U+05DA: 2026-08-21
 50
0.0000
  7
SOLINE
 72
2
 73
2
 11
7443.0000
 21
-921.0000
 31
0.0000
  0
TEXT
  5
1F6
  8
SOL-TEKST
 10
7443.0000
 20
-1111.0000
 30
0.0000
 40
95.0000
  1
\U+05E7\U+05E0"\U+05DE: 1:50   \U+05D9\U+05D7\U+05D9\U+05D3\U+05D5\U+05EA: \U+05DE"\U+05DE
 50
0.0000
  7
SOLINE
 72
2
 73
2
 11
7443.0000
 21
-1111.0000
 31
0.0000
  0
LINE
  5
1F7
  8
SOL-MISGERET
 10
5600.0000
 20
-1443.5000
 30
0.0000
 11
7120.0000
 21
-1443.5000
 31
0.0000
  0
LINE
  5
1F8
  8
SOL-MISGERET
 10
7120.0000
 20
-1443.5000
 30
0.0000
 11
7120.0000
 21
-3571.5000
 31
0.0000
  0
LINE
  5
1F9
  8
SOL-MISGERET
 10
7120.0000
 20
-3571.5000
 30
0.0000
 11
5600.0000
 21
-3571.5000
 31
0.0000
  0
LINE
  5
1FA
  8
SOL-MISGERET
 10
5600.0000
 20
-3571.5000
 30
0.0000
 11
5600.0000
 21
-1443.5000
 31
0.0000
  0
TEXT
  5
1FB
  8
SOL-TEKST
 10
7025.0000
 20
-1656.3000
 30
0.0000
 40
109.2500
  1
\U+05DE\U+05E7\U+05E8\U+05D0
 50
0.0000
  7
SOLINE
 72
2
 73
2
 11
7025.0000
 21
-1656.3000
 31
0.0000
  0
LINE
  5
1FC
  8
SOL-CHASHMAL
 10
5790.0000
 20
-1960.3000
 30
0.0000
 11
5790.0000
 21
-1917.7400
 31
0.0000
  0
LINE
  5
1FD
  8
SOL-CHASHMAL
 10
5744.4000
 20
-1872.1400
 30
0.0000
 11
5744.6867
 21
-1867.0344
 31
0.0000
  0
LINE
  5
1FE
  8
SOL-CHASHMAL
 10
5744.6867
 20
-1867.0344
 30
0.0000
 11
5745.5433
 21
-1861.9930
 31
0.0000
  0
LINE
  5
1FF
  8
SOL-CHASHMAL
 10
5745.5433
 20
-1861.9930
 30
0.0000
 11
5746.9589
 21
-1857.0793
 31
0.0000
  0
LINE
  5
200
  8
SOL-CHASHMAL
 10
5746.9589
 20
-1857.0793
 30
0.0000
 11
5748.9158
 21
-1852.3549
 31
0.0000
  0
LINE
  5
201
  8
SOL-CHASHMAL
 10
5748.9158
 20
-1852.3549
 30
0.0000
 11
5751.3894
 21
-1847.8793
 31
0.0000
  0
LINE
  5
202
  8
SOL-CHASHMAL
 10
5751.3894
 20
-1847.8793
 30
0.0000
 11
5754.3485
 21
-1843.7089
 31
0.0000
  0
LINE
  5
203
  8
SOL-CHASHMAL
 10
5754.3485
 20
-1843.7089
 30
0.0000
 11
5757.7559
 21
-1839.8959
 31
0.0000
  0
LINE
  5
204
  8
SOL-CHASHMAL
 10
5757.7559
 20
-1839.8959
 30
0.0000
 11
5761.5689
 21
-1836.4885
 31
0.0000
  0
LINE
  5
205
  8
SOL-CHASHMAL
 10
5761.5689
 20
-1836.4885
 30
0.0000
 11
5765.7393
 21
-1833.5294
 31
0.0000
  0
LINE
  5
206
  8
SOL-CHASHMAL
 10
5765.7393
 20
-1833.5294
 30
0.0000
 11
5770.2149
 21
-1831.0558
 31
0.0000
  0
LINE
  5
207
  8
SOL-CHASHMAL
 10
5770.2149
 20
-1831.0558
 30
0.0000
 11
5774.9393
 21
-1829.0989
 31
0.0000
  0
LINE
  5
208
  8
SOL-CHASHMAL
 10
5774.9393
 20
-1829.0989
 30
0.0000
 11
5779.8530
 21
-1827.6833
 31
0.0000
  0
LINE
  5
209
  8
SOL-CHASHMAL
 10
5779.8530
 20
-1827.6833
 30
0.0000
 11
5784.8944
 21
-1826.8267
 31
0.0000
  0
LINE
  5
20A
  8
SOL-CHASHMAL
 10
5784.8944
 20
-1826.8267
 30
0.0000
 11
5790.0000
 21
-1826.5400
 31
0.0000
  0
LINE
  5
20B
  8
SOL-CHASHMAL
 10
5790.0000
 20
-1826.5400
 30
0.0000
 11
5795.1056
 21
-1826.8267
 31
0.0000
  0
LINE
  5
20C
  8
SOL-CHASHMAL
 10
5795.1056
 20
-1826.8267
 30
0.0000
 11
5800.1470
 21
-1827.6833
 31
0.0000
  0
LINE
  5
20D
  8
SOL-CHASHMAL
 10
5800.1470
 20
-1827.6833
 30
0.0000
 11
5805.0607
 21
-1829.0989
 31
0.0000
  0
LINE
  5
20E
  8
SOL-CHASHMAL
 10
5805.0607
 20
-1829.0989
 30
0.0000
 11
5809.7851
 21
-1831.0558
 31
0.0000
  0
LINE
  5
20F
  8
SOL-CHASHMAL
 10
5809.7851
 20
-1831.0558
 30
0.0000
 11
5814.2607
 21
-1833.5294
 31
0.0000
  0
LINE
  5
210
  8
SOL-CHASHMAL
 10
5814.2607
 20
-1833.5294
 30
0.0000
 11
5818.4311
 21
-1836.4885
 31
0.0000
  0
LINE
  5
211
  8
SOL-CHASHMAL
 10
5818.4311
 20
-1836.4885
 30
0.0000
 11
5822.2441
 21
-1839.8959
 31
0.0000
  0
LINE
  5
212
  8
SOL-CHASHMAL
 10
5822.2441
 20
-1839.8959
 30
0.0000
 11
5825.6515
 21
-1843.7089
 31
0.0000
  0
LINE
  5
213
  8
SOL-CHASHMAL
 10
5825.6515
 20
-1843.7089
 30
0.0000
 11
5828.6106
 21
-1847.8793
 31
0.0000
  0
LINE
  5
214
  8
SOL-CHASHMAL
 10
5828.6106
 20
-1847.8793
 30
0.0000
 11
5831.0842
 21
-1852.3549
 31
0.0000
  0
LINE
  5
215
  8
SOL-CHASHMAL
 10
5831.0842
 20
-1852.3549
 30
0.0000
 11
5833.0411
 21
-1857.0793
 31
0.0000
  0
LINE
  5
216
  8
SOL-CHASHMAL
 10
5833.0411
 20
-1857.0793
 30
0.0000
 11
5834.4567
 21
-1861.9930
 31
0.0000
  0
LINE
  5
217
  8
SOL-CHASHMAL
 10
5834.4567
 20
-1861.9930
 30
0.0000
 11
5835.3133
 21
-1867.0344
 31
0.0000
  0
LINE
  5
218
  8
SOL-CHASHMAL
 10
5835.3133
 20
-1867.0344
 30
0.0000
 11
5835.6000
 21
-1872.1400
 31
0.0000
  0
LINE
  5
219
  8
SOL-CHASHMAL
 10
5744.4000
 20
-1872.1400
 30
0.0000
 11
5835.6000
 21
-1872.1400
 31
0.0000
  0
LINE
  5
21A
  8
SOL-CHASHMAL
 10
5790.0000
 20
-1872.1400
 30
0.0000
 11
5790.0000
 21
-1904.0600
 31
0.0000
  0
TEXT
  5
21B
  8
SOL-TEKST
 10
7025.0000
 20
-1899.5000
 30
0.0000
 40
95.0000
  1
\U+05D7\U+05E9\U+05DE\U+05DC
 50
0.0000
  7
SOLINE
 72
2
 73
2
 11
7025.0000
 21
-1899.5000
 31
0.0000
  0
ARC
  5
21C
  8
SOL-TEURA
 10
5790.0000
 20
-2188.3000
 30
0.0000
 40
45.6000
 50
0.0000
 51
360.0000
  0
LINE
  5
21D
  8
SOL-TEURA
 10
5758.0800
 20
-2156.3800
 30
0.0000
 11
5821.9200
 21
-2220.2200
 31
0.0000
  0
LINE
  5
21E
  8
SOL-TEURA
 10
5821.9200
 20
-2156.3800
 30
0.0000
 11
5758.0800
 21
-2220.2200
 31
0.0000
  0
TEXT
  5
21F
  8
SOL-TEKST
 10
7025.0000
 20
-2203.5000
 30
0.0000
 40
95.0000
  1
\U+05EA\U+05D0\U+05D5\U+05E8\U+05D4
 50
0.0000
  7
SOLINE
 72
2
 73
2
 11
7025.0000
 21
-2203.5000
 31
0.0000
  0
LINE
  5
220
  8
SOL-INSTALATSIA
 10
5790.0000
 20
-2568.3000
 30
0.0000
 11
5790.0000
 21
-2461.9000
 31
0.0000
  0
ARC
  5
221
  8
SOL-INSTALATSIA
 10
5790.0000
 20
-2492.3000
 30
0.0000
 40
42.5600
 50
0.0000
 51
360.0000
  0
LINE
  5
222
  8
SOL-INSTALATSIA
 10
5756.5600
 20
-2492.3000
 30
0.0000
 11
5823.4400
 21
-2492.3000
 31
0.0000
  0
LINE
  5
223
  8
SOL-INSTALATSIA
 10
5790.0000
 20
-2458.8600
 30
0.0000
 11
5790.0000
 21
-2525.7400
 31
0.0000
  0
TEXT
  5
224
  8
SOL-TEKST
 10
7025.0000
 20
-2507.5000
 30
0.0000
 40
95.0000
  1
\U+05DE\U+05D9\U+05DD
 50
0.0000
  7
SOLINE
 72
2
 73
2
 11
7025.0000
 21
-2507.5000
 31
0.0000
  0
LINE
  5
225
  8
SOL-GAZ
 10
5790.0000
 20
-2872.3000
 30
0.0000
 11
5790.0000
 21
-2762.8600
 31
0.0000
  0
LINE
  5
226
  8
SOL-GAZ
 10
5790.0000
 20
-2750.7000
 30
0.0000
 11
5829.5200
 21
-2773.5000
 31
0.0000
  0
LINE
  5
227
  8
SOL-GAZ
 10
5829.5200
 20
-2773.5000
 30
0.0000
 11
5829.5200
 21
-2819.1000
 31
0.0000
  0
LINE
  5
228
  8
SOL-GAZ
 10
5829.5200
 20
-2819.1000
 30
0.0000
 11
5790.0000
 21
-2841.9000
 31
0.0000
  0
LINE
  5
229
  8
SOL-GAZ
 10
5790.0000
 20
-2841.9000
 30
0.0000
 11
5750.4800
 21
-2819.1000
 31
0.0000
  0
LINE
  5
22A
  8
SOL-GAZ
 10
5750.4800
 20
-2819.1000
 30
0.0000
 11
5750.4800
 21
-2773.5000
 31
0.0000
  0
LINE
  5
22B
  8
SOL-GAZ
 10
5750.4800
 20
-2773.5000
 30
0.0000
 11
5790.0000
 21
-2750.7000
 31
0.0000
  0
TEXT
  5
22C
  8
SOL-GAZ
 10
5790.0000
 20
-2805.4200
 30
0.0000
 40
39.5200
  1
G
 50
0.0000
  7
SOLINE
 72
1
 73
2
 11
5790.0000
 21
-2805.4200
 31
0.0000
  0
TEXT
  5
22D
  8
SOL-TEKST
 10
7025.0000
 20
-2811.5000
 30
0.0000
 40
95.0000
  1
\U+05D2\U+05D6
 50
0.0000
  7
SOLINE
 72
2
 73
2
 11
7025.0000
 21
-2811.5000
 31
0.0000
  0
LINE
  5
22E
  8
SOL-INSTALATSIA
 10
5790.0000
 20
-3176.3000
 30
0.0000
 11
5790.0000
 21
-3066.8600
 31
0.0000
  0
ARC
  5
22F
  8
SOL-INSTALATSIA
 10
5790.0000
 20
-3100.3000
 30
0.0000
 40
45.6000
 50
0.0000
 51
360.0000
  0
LINE
  5
230
  8
SOL-INSTALATSIA
 10
5759.6000
 20
-3100.3000
 30
0.0000
 11
5774.8000
 21
-3088.1400
 31
0.0000
  0
LINE
  5
231
  8
SOL-INSTALATSIA
 10
5774.8000
 20
-3088.1400
 30
0.0000
 11
5790.0000
 21
-3100.3000
 31
0.0000
  0
LINE
  5
232
  8
SOL-INSTALATSIA
 10
5790.0000
 20
-3100.3000
 30
0.0000
 11
5805.2000
 21
-3112.4600
 31
0.0000
  0
LINE
  5
233
  8
SOL-INSTALATSIA
 10
5805.2000
 20
-3112.4600
 30
0.0000
 11
5820.4000
 21
-3100.3000
 31
0.0000
  0
TEXT
  5
234
  8
SOL-TEKST
 10
7025.0000
 20
-3115.5000
 30
0.0000
 40
95.0000
  1
\U+05E0\U+05D9\U+05E7\U+05D5\U+05D6
 50
0.0000
  7
SOLINE
 72
2
 73
2
 11
7025.0000
 21
-3115.5000
 31
0.0000
  0
LINE
  5
235
  8
SOL-MIVNE
 10
5714.0000
 20
-3386.0600
 30
0.0000
 11
5866.0000
 21
-3386.0600
 31
0.0000
  0
LINE
  5
236
  8
SOL-MIVNE
 10
5866.0000
 20
-3386.0600
 30
0.0000
 11
5866.0000
 21
-3422.5400
 31
0.0000
  0
LINE
  5
237
  8
SOL-MIVNE
 10
5866.0000
 20
-3422.5400
 30
0.0000
 11
5714.0000
 21
-3422.5400
 31
0.0000
  0
LINE
  5
238
  8
SOL-MIVNE
 10
5714.0000
 20
-3422.5400
 30
0.0000
 11
5714.0000
 21
-3386.0600
 31
0.0000
  0
TEXT
  5
239
  8
SOL-TEKST
 10
7025.0000
 20
-3419.5000
 30
0.0000
 40
95.0000
  1
\U+05DE\U+05D1\U+05E0\U+05D4
 50
0.0000
  7
SOLINE
 72
2
 73
2
 11
7025.0000
 21
-3419.5000
 31
0.0000
  0
LINE
  5
23A
  8
SOL-MISGERET
 10
6550.0000
 20
-3856.5000
 30
0.0000
 11
6550.0000
 21
-3381.5000
 31
0.0000
  0
SOLID
  5
23B
  8
SOL-MISGERET
 10
6550.0000
 20
-3381.5000
 30
0.0000
 11
6502.5000
 21
-3476.5000
 31
0.0000
 12
6597.5000
 22
-3476.5000
 32
0.0000
 13
6597.5000
 23
-3476.5000
 33
0.0000
  0
TEXT
  5
23C
  8
SOL-MISGERET
 10
6550.0000
 20
-3353.0000
 30
0.0000
 40
104.5000
  1
\U+05E6
 50
0.0000
  7
SOLINE
 72
1
 73
3
 11
6550.0000
 21
-3353.0000
 31
0.0000
  0
LINE
  5
23D
  8
SOL-MISGERET
 10
6265.0000
 20
-3999.0000
 30
0.0000
 11
7065.0000
 21
-3999.0000
 31
0.0000
  0
LINE
  5
23E
  8
SOL-MISGERET
 10
6265.0000
 20
-3999.0000
 30
0.0000
 11
6265.0000
 21
-4046.5000
 31
0.0000
  0
LINE
  5
23F
  8
SOL-MISGERET
 10
6465.0000
 20
-3999.0000
 30
0.0000
 11
6465.0000
 21
-4046.5000
 31
0.0000
  0
LINE
  5
240
  8
SOL-MISGERET
 10
6665.0000
 20
-3999.0000
 30
0.0000
 11
6665.0000
 21
-4046.5000
 31
0.0000
  0
LINE
  5
241
  8
SOL-MISGERET
 10
6865.0000
 20
-3999.0000
 30
0.0000
 11
6865.0000
 21
-4046.5000
 31
0.0000
  0
LINE
  5
242
  8
SOL-MISGERET
 10
7065.0000
 20
-3999.0000
 30
0.0000
 11
7065.0000
 21
-4046.5000
 31
0.0000
  0
TEXT
  5
243
  8
SOL-MISGERET
 10
6265.0000
 20
-4151.0000
 30
0.0000
 40
66.5000
  1
0
 50
0.0000
  7
SOLINE
 72
1
 11
6265.0000
 21
-4151.0000
 31
0.0000
  0
TEXT
  5
244
  8
SOL-MISGERET
 10
7065.0000
 20
-4151.0000
 30
0.0000
 40
66.5000
  1
0.8 \U+05DE\U+05F3
 50
0.0000
  7
SOLINE
 72
2
 11
7065.0000
 21
-4151.0000
 31
0.0000
  0
LINE
  5
245
  8
SOL-KIROT
 10
-1000.0000
 20
-9600.0000
 30
0.0000
 11
3000.0000
 21
-9600.0000
 31
0.0000
  0
LINE
  5
246
  8
SOL-KIROT
 10
3000.0000
 20
-9600.0000
 30
0.0000
 11
3000.0000
 21
-7000.0000
 31
0.0000
  0
LINE
  5
247
  8
SOL-KIROT
 10
3000.0000
 20
-7000.0000
 30
0.0000
 11
-1000.0000
 21
-7000.0000
 31
0.0000
  0
LINE
  5
248
  8
SOL-KIROT
 10
-1000.0000
 20
-7000.0000
 30
0.0000
 11
-1000.0000
 21
-9600.0000
 31
0.0000
  0
LINE
  5
249
  8
SOL-CHASHMAL
 10
-700.0000
 20
-9490.0000
 30
0.0000
 11
-610.0000
 21
-9490.0000
 31
0.0000
  0
LINE
  5
24A
  8
SOL-CHASHMAL
 10
-610.0000
 20
-9490.0000
 30
0.0000
 11
-610.0000
 21
-9400.0000
 31
0.0000
  0
LINE
  5
24B
  8
SOL-CHASHMAL
 10
-610.0000
 20
-9400.0000
 30
0.0000
 11
-700.0000
 21
-9400.0000
 31
0.0000
  0
LINE
  5
24C
  8
SOL-CHASHMAL
 10
-700.0000
 20
-9400.0000
 30
0.0000
 11
-700.0000
 21
-9490.0000
 31
0.0000
  0
LINE
  5
24D
  8
SOL-CHASHMAL
 10
-655.0000
 20
-9490.0000
 30
0.0000
 11
-655.0000
 21
-9464.8000
 31
0.0000
  0
LINE
  5
24E
  8
SOL-CHASHMAL
 10
-682.0000
 20
-9437.8000
 30
0.0000
 11
-681.8302
 21
-9434.7770
 31
0.0000
  0
LINE
  5
24F
  8
SOL-CHASHMAL
 10
-681.8302
 20
-9434.7770
 30
0.0000
 11
-681.3231
 21
-9431.7919
 31
0.0000
  0
LINE
  5
250
  8
SOL-CHASHMAL
 10
-681.3231
 20
-9431.7919
 30
0.0000
 11
-680.4848
 21
-9428.8825
 31
0.0000
  0
LINE
  5
251
  8
SOL-CHASHMAL
 10
-680.4848
 20
-9428.8825
 30
0.0000
 11
-679.3262
 21
-9426.0851
 31
0.0000
  0
LINE
  5
252
  8
SOL-CHASHMAL
 10
-679.3262
 20
-9426.0851
 30
0.0000
 11
-677.8616
 21
-9423.4351
 31
0.0000
  0
LINE
  5
253
  8
SOL-CHASHMAL
 10
-677.8616
 20
-9423.4351
 30
0.0000
 11
-676.1095
 21
-9420.9658
 31
0.0000
  0
LINE
  5
254
  8
SOL-CHASHMAL
 10
-676.1095
 20
-9420.9658
 30
0.0000
 11
-674.0919
 21
-9418.7081
 31
0.0000
  0
LINE
  5
255
  8
SOL-CHASHMAL
 10
-674.0919
 20
-9418.7081
 30
0.0000
 11
-671.8342
 21
-9416.6905
 31
0.0000
  0
LINE
  5
256
  8
SOL-CHASHMAL
 10
-671.8342
 20
-9416.6905
 30
0.0000
 11
-669.3649
 21
-9414.9384
 31
0.0000
  0
LINE
  5
257
  8
SOL-CHASHMAL
 10
-669.3649
 20
-9414.9384
 30
0.0000
 11
-666.7149
 21
-9413.4738
 31
0.0000
  0
LINE
  5
258
  8
SOL-CHASHMAL
 10
-666.7149
 20
-9413.4738
 30
0.0000
 11
-663.9175
 21
-9412.3152
 31
0.0000
  0
LINE
  5
259
  8
SOL-CHASHMAL
 10
-663.9175
 20
-9412.3152
 30
0.0000
 11
-661.0081
 21
-9411.4769
 31
0.0000
  0
LINE
  5
25A
  8
SOL-CHASHMAL
 10
-661.0081
 20
-9411.4769
 30
0.0000
 11
-658.0230
 21
-9410.9698
 31
0.0000
  0
LINE
  5
25B
  8
SOL-CHASHMAL
 10
-658.0230
 20
-9410.9698
 30
0.0000
 11
-655.0000
 21
-9410.8000
 31
0.0000
  0
LINE
  5
25C
  8
SOL-CHASHMAL
 10
-655.0000
 20
-9410.8000
 30
0.0000
 11
-651.9770
 21
-9410.9698
 31
0.0000
  0
LINE
  5
25D
  8
SOL-CHASHMAL
 10
-651.9770
 20
-9410.9698
 30
0.0000
 11
-648.9919
 21
-9411.4769
 31
0.0000
  0
LINE
  5
25E
  8
SOL-CHASHMAL
 10
-648.9919
 20
-9411.4769
 30
0.0000
 11
-646.0825
 21
-9412.3152
 31
0.0000
  0
LINE
  5
25F
  8
SOL-CHASHMAL
 10
-646.0825
 20
-9412.3152
 30
0.0000
 11
-643.2851
 21
-9413.4738
 31
0.0000
  0
LINE
  5
260
  8
SOL-CHASHMAL
 10
-643.2851
 20
-9413.4738
 30
0.0000
 11
-640.6351
 21
-9414.9384
 31
0.0000
  0
LINE
  5
261
  8
SOL-CHASHMAL
 10
-640.6351
 20
-9414.9384
 30
0.0000
 11
-638.1658
 21
-9416.6905
 31
0.0000
  0
LINE
  5
262
  8
SOL-CHASHMAL
 10
-638.1658
 20
-9416.6905
 30
0.0000
 11
-635.9081
 21
-9418.7081
 31
0.0000
  0
LINE
  5
263
  8
SOL-CHASHMAL
 10
-635.9081
 20
-9418.7081
 30
0.0000
 11
-633.8905
 21
-9420.9658
 31
0.0000
  0
LINE
  5
264
  8
SOL-CHASHMAL
 10
-633.8905
 20
-9420.9658
 30
0.0000
 11
-632.1384
 21
-9423.4351
 31
0.0000
  0
LINE
  5
265
  8
SOL-CHASHMAL
 10
-632.1384
 20
-9423.4351
 30
0.0000
 11
-630.6738
 21
-9426.0851
 31
0.0000
  0
LINE
  5
266
  8
SOL-CHASHMAL
 10
-630.6738
 20
-9426.0851
 30
0.0000
 11
-629.5152
 21
-9428.8825
 31
0.0000
  0
LINE
  5
267
  8
SOL-CHASHMAL
 10
-629.5152
 20
-9428.8825
 30
0.0000
 11
-628.6769
 21
-9431.7919
 31
0.0000
  0
LINE
  5
268
  8
SOL-CHASHMAL
 10
-628.6769
 20
-9431.7919
 30
0.0000
 11
-628.1698
 21
-9434.7770
 31
0.0000
  0
LINE
  5
269
  8
SOL-CHASHMAL
 10
-628.1698
 20
-9434.7770
 30
0.0000
 11
-628.0000
 21
-9437.8000
 31
0.0000
  0
LINE
  5
26A
  8
SOL-CHASHMAL
 10
-682.0000
 20
-9437.8000
 30
0.0000
 11
-628.0000
 21
-9437.8000
 31
0.0000
  0
LINE
  5
26B
  8
SOL-CHASHMAL
 10
-655.0000
 20
-9437.8000
 30
0.0000
 11
-655.0000
 21
-9456.7000
 31
0.0000
  0
TEXT
  5
26C
  8
SOL-TEKST
 10
-655.0000
 20
-9352.5000
 30
0.0000
 40
58.9000
  1
\U+05E9\U+05E7\U+05E2 \U+05D1\U+05D5\U+05D3\U+05D3
 50
0.0000
  7
SOLINE
 72
1
 73
2
 11
-655.0000
 21
-9352.5000
 31
0.0000
  0
LINE
  5
26D
  8
SOL-CHASHMAL
 10
0.0000
 20
-9490.0000
 30
0.0000
 11
160.0000
 21
-9490.0000
 31
0.0000
  0
LINE
  5
26E
  8
SOL-CHASHMAL
 10
160.0000
 20
-9490.0000
 30
0.0000
 11
160.0000
 21
-9400.0000
 31
0.0000
  0
LINE
  5
26F
  8
SOL-CHASHMAL
 10
160.0000
 20
-9400.0000
 30
0.0000
 11
0.0000
 21
-9400.0000
 31
0.0000
  0
LINE
  5
270
  8
SOL-CHASHMAL
 10
0.0000
 20
-9400.0000
 30
0.0000
 11
0.0000
 21
-9490.0000
 31
0.0000
  0
LINE
  5
271
  8
SOL-CHASHMAL
 10
80.0000
 20
-9490.0000
 30
0.0000
 11
80.0000
 21
-9457.6000
 31
0.0000
  0
LINE
  5
272
  8
SOL-CHASHMAL
 10
7.8400
 20
-9437.8000
 30
0.0000
 11
8.0613
 21
-9435.5831
 31
0.0000
  0
LINE
  5
273
  8
SOL-CHASHMAL
 10
8.0613
 20
-9435.5831
 30
0.0000
 11
8.7225
 21
-9433.3941
 31
0.0000
  0
LINE
  5
274
  8
SOL-CHASHMAL
 10
8.7225
 20
-9433.3941
 30
0.0000
 11
9.8153
 21
-9431.2605
 31
0.0000
  0
LINE
  5
275
  8
SOL-CHASHMAL
 10
9.8153
 20
-9431.2605
 30
0.0000
 11
11.3259
 21
-9429.2091
 31
0.0000
  0
LINE
  5
276
  8
SOL-CHASHMAL
 10
11.3259
 20
-9429.2091
 30
0.0000
 11
13.2353
 21
-9427.2658
 31
0.0000
  0
LINE
  5
277
  8
SOL-CHASHMAL
 10
13.2353
 20
-9427.2658
 30
0.0000
 11
15.5195
 21
-9425.4549
 31
0.0000
  0
LINE
  5
278
  8
SOL-CHASHMAL
 10
15.5195
 20
-9425.4549
 30
0.0000
 11
18.1498
 21
-9423.7993
 31
0.0000
  0
LINE
  5
279
  8
SOL-CHASHMAL
 10
18.1498
 20
-9423.7993
 30
0.0000
 11
21.0932
 21
-9422.3197
 31
0.0000
  0
LINE
  5
27A
  8
SOL-CHASHMAL
 10
21.0932
 20
-9422.3197
 30
0.0000
 11
24.3125
 21
-9421.0349
 31
0.0000
  0
LINE
  5
27B
  8
SOL-CHASHMAL
 10
24.3125
 20
-9421.0349
 30
0.0000
 11
27.7673
 21
-9419.9608
 31
0.0000
  0
LINE
  5
27C
  8
SOL-CHASHMAL
 10
27.7673
 20
-9419.9608
 30
0.0000
 11
31.4142
 21
-9419.1111
 31
0.0000
  0
LINE
  5
27D
  8
SOL-CHASHMAL
 10
31.4142
 20
-9419.1111
 30
0.0000
 11
35.2073
 21
-9418.4964
 31
0.0000
  0
LINE
  5
27E
  8
SOL-CHASHMAL
 10
35.2073
 20
-9418.4964
 30
0.0000
 11
39.0989
 21
-9418.1245
 31
0.0000
  0
LINE
  5
27F
  8
SOL-CHASHMAL
 10
39.0989
 20
-9418.1245
 30
0.0000
 11
43.0400
 21
-9418.0000
 31
0.0000
  0
LINE
  5
280
  8
SOL-CHASHMAL
 10
43.0400
 20
-9418.0000
 30
0.0000
 11
46.9811
 21
-9418.1245
 31
0.0000
  0
LINE
  5
281
  8
SOL-CHASHMAL
 10
46.9811
 20
-9418.1245
 30
0.0000
 11
50.8727
 21
-9418.4964
 31
0.0000
  0
LINE
  5
282
  8
SOL-CHASHMAL
 10
50.8727
 20
-9418.4964
 30
0.0000
 11
54.6658
 21
-9419.1111
 31
0.0000
  0
LINE
  5
283
  8
SOL-CHASHMAL
 10
54.6658
 20
-9419.1111
 30
0.0000
 11
58.3127
 21
-9419.9608
 31
0.0000
  0
LINE
  5
284
  8
SOL-CHASHMAL
 10
58.3127
 20
-9419.9608
 30
0.0000
 11
61.7675
 21
-9421.0349
 31
0.0000
  0
LINE
  5
285
  8
SOL-CHASHMAL
 10
61.7675
 20
-9421.0349
 30
0.0000
 11
64.9868
 21
-9422.3197
 31
0.0000
  0
LINE
  5
286
  8
SOL-CHASHMAL
 10
64.9868
 20
-9422.3197
 30
0.0000
 11
67.9302
 21
-9423.7993
 31
0.0000
  0
LINE
  5
287
  8
SOL-CHASHMAL
 10
67.9302
 20
-9423.7993
 30
0.0000
 11
70.5605
 21
-9425.4549
 31
0.0000
  0
LINE
  5
288
  8
SOL-CHASHMAL
 10
70.5605
 20
-9425.4549
 30
0.0000
 11
72.8447
 21
-9427.2658
 31
0.0000
  0
LINE
  5
289
  8
SOL-CHASHMAL
 10
72.8447
 20
-9427.2658
 30
0.0000
 11
74.7541
 21
-9429.2091
 31
0.0000
  0
LINE
  5
28A
  8
SOL-CHASHMAL
 10
74.7541
 20
-9429.2091
 30
0.0000
 11
76.2647
 21
-9431.2605
 31
0.0000
  0
LINE
  5
28B
  8
SOL-CHASHMAL
 10
76.2647
 20
-9431.2605
 30
0.0000
 11
77.3575
 21
-9433.3941
 31
0.0000
  0
LINE
  5
28C
  8
SOL-CHASHMAL
 10
77.3575
 20
-9433.3941
 30
0.0000
 11
78.0187
 21
-9435.5831
 31
0.0000
  0
LINE
  5
28D
  8
SOL-CHASHMAL
 10
78.0187
 20
-9435.5831
 30
0.0000
 11
78.2400
 21
-9437.8000
 31
0.0000
  0
LINE
  5
28E
  8
SOL-CHASHMAL
 10
7.8400
 20
-9437.8000
 30
0.0000
 11
78.2400
 21
-9437.8000
 31
0.0000
  0
LINE
  5
28F
  8
SOL-CHASHMAL
 10
43.0400
 20
-9437.8000
 30
0.0000
 11
43.0400
 21
-9451.6600
 31
0.0000
  0
LINE
  5
290
  8
SOL-CHASHMAL
 10
81.7600
 20
-9437.8000
 30
0.0000
 11
81.9813
 21
-9435.5831
 31
0.0000
  0
LINE
  5
291
  8
SOL-CHASHMAL
 10
81.9813
 20
-9435.5831
 30
0.0000
 11
82.6425
 21
-9433.3941
 31
0.0000
  0
LINE
  5
292
  8
SOL-CHASHMAL
 10
82.6425
 20
-9433.3941
 30
0.0000
 11
83.7353
 21
-9431.2605
 31
0.0000
  0
LINE
  5
293
  8
SOL-CHASHMAL
 10
83.7353
 20
-9431.2605
 30
0.0000
 11
85.2459
 21
-9429.2091
 31
0.0000
  0
LINE
  5
294
  8
SOL-CHASHMAL
 10
85.2459
 20
-9429.2091
 30
0.0000
 11
87.1553
 21
-9427.2658
 31
0.0000
  0
LINE
  5
295
  8
SOL-CHASHMAL
 10
87.1553
 20
-9427.2658
 30
0.0000
 11
89.4395
 21
-9425.4549
 31
0.0000
  0
LINE
  5
296
  8
SOL-CHASHMAL
 10
89.4395
 20
-9425.4549
 30
0.0000
 11
92.0698
 21
-9423.7993
 31
0.0000
  0
LINE
  5
297
  8
SOL-CHASHMAL
 10
92.0698
 20
-9423.7993
 30
0.0000
 11
95.0132
 21
-9422.3197
 31
0.0000
  0
LINE
  5
298
  8
SOL-CHASHMAL
 10
95.0132
 20
-9422.3197
 30
0.0000
 11
98.2325
 21
-9421.0349
 31
0.0000
  0
LINE
  5
299
  8
SOL-CHASHMAL
 10
98.2325
 20
-9421.0349
 30
0.0000
 11
101.6873
 21
-9419.9608
 31
0.0000
  0
LINE
  5
29A
  8
SOL-CHASHMAL
 10
101.6873
 20
-9419.9608
 30
0.0000
 11
105.3342
 21
-9419.1111
 31
0.0000
  0
LINE
  5
29B
  8
SOL-CHASHMAL
 10
105.3342
 20
-9419.1111
 30
0.0000
 11
109.1273
 21
-9418.4964
 31
0.0000
  0
LINE
  5
29C
  8
SOL-CHASHMAL
 10
109.1273
 20
-9418.4964
 30
0.0000
 11
113.0189
 21
-9418.1245
 31
0.0000
  0
LINE
  5
29D
  8
SOL-CHASHMAL
 10
113.0189
 20
-9418.1245
 30
0.0000
 11
116.9600
 21
-9418.0000
 31
0.0000
  0
LINE
  5
29E
  8
SOL-CHASHMAL
 10
116.9600
 20
-9418.0000
 30
0.0000
 11
120.9011
 21
-9418.1245
 31
0.0000
  0
LINE
  5
29F
  8
SOL-CHASHMAL
 10
120.9011
 20
-9418.1245
 30
0.0000
 11
124.7927
 21
-9418.4964
 31
0.0000
  0
LINE
  5
2A0
  8
SOL-CHASHMAL
 10
124.7927
 20
-9418.4964
 30
0.0000
 11
128.5858
 21
-9419.1111
 31
0.0000
  0
LINE
  5
2A1
  8
SOL-CHASHMAL
 10
128.5858
 20
-9419.1111
 30
0.0000
 11
132.2327
 21
-9419.9608
 31
0.0000
  0
LINE
  5
2A2
  8
SOL-CHASHMAL
 10
132.2327
 20
-9419.9608
 30
0.0000
 11
135.6875
 21
-9421.0349
 31
0.0000
  0
LINE
  5
2A3
  8
SOL-CHASHMAL
 10
135.6875
 20
-9421.0349
 30
0.0000
 11
138.9068
 21
-9422.3197
 31
0.0000
  0
LINE
  5
2A4
  8
SOL-CHASHMAL
 10
138.9068
 20
-9422.3197
 30
0.0000
 11
141.8502
 21
-9423.7993
 31
0.0000
  0
LINE
  5
2A5
  8
SOL-CHASHMAL
 10
141.8502
 20
-9423.7993
 30
0.0000
 11
144.4805
 21
-9425.4549
 31
0.0000
  0
LINE
  5
2A6
  8
SOL-CHASHMAL
 10
144.4805
 20
-9425.4549
 30
0.0000
 11
146.7647
 21
-9427.2658
 31
0.0000
  0
LINE
  5
2A7
  8
SOL-CHASHMAL
 10
146.7647
 20
-9427.2658
 30
0.0000
 11
148.6741
 21
-9429.2091
 31
0.0000
  0
LINE
  5
2A8
  8
SOL-CHASHMAL
 10
148.6741
 20
-9429.2091
 30
0.0000
 11
150.1847
 21
-9431.2605
 31
0.0000
  0
LINE
  5
2A9
  8
SOL-CHASHMAL
 10
150.1847
 20
-9431.2605
 30
0.0000
 11
151.2775
 21
-9433.3941
 31
0.0000
  0
LINE
  5
2AA
  8
SOL-CHASHMAL
 10
151.2775
 20
-9433.3941
 30
0.0000
 11
151.9387
 21
-9435.5831
 31
0.0000
  0
LINE
  5
2AB
  8
SOL-CHASHMAL
 10
151.9387
 20
-9435.5831
 30
0.0000
 11
152.1600
 21
-9437.8000
 31
0.0000
  0
LINE
  5
2AC
  8
SOL-CHASHMAL
 10
81.7600
 20
-9437.8000
 30
0.0000
 11
152.1600
 21
-9437.8000
 31
0.0000
  0
LINE
  5
2AD
  8
SOL-CHASHMAL
 10
116.9600
 20
-9437.8000
 30
0.0000
 11
116.9600
 21
-9451.6600
 31
0.0000
  0
TEXT
  5
2AE
  8
SOL-TEKST
 10
80.0000
 20
-9352.5000
 30
0.0000
 40
58.9000
  1
\U+05E9\U+05E7\U+05E2 \U+05DE\U+05E8\U+05D5\U+05D1\U+05E2
 50
0.0000
  7
SOLINE
 72
1
 73
2
 11
80.0000
 21
-9352.5000
 31
0.0000
  0
LINE
  5
2AF
  8
SOL-CHASHMAL
 10
700.0000
 20
-9470.0000
 30
0.0000
 11
790.0000
 21
-9470.0000
 31
0.0000
  0
LINE
  5
2B0
  8
SOL-CHASHMAL
 10
790.0000
 20
-9470.0000
 30
0.0000
 11
790.0000
 21
-9380.0000
 31
0.0000
  0
LINE
  5
2B1
  8
SOL-CHASHMAL
 10
790.0000
 20
-9380.0000
 30
0.0000
 11
700.0000
 21
-9380.0000
 31
0.0000
  0
LINE
  5
2B2
  8
SOL-CHASHMAL
 10
700.0000
 20
-9380.0000
 30
0.0000
 11
700.0000
 21
-9470.0000
 31
0.0000
  0
LINE
  5
2B3
  8
SOL-CHASHMAL
 10
745.0000
 20
-9470.0000
 30
0.0000
 11
745.0000
 21
-9435.8000
 31
0.0000
  0
ARC
  5
2B4
  8
SOL-CHASHMAL
 10
745.0000
 20
-9425.0000
 30
0.0000
 40
10.8000
 50
0.0000
 51
360.0000
  0
LINE
  5
2B5
  8
SOL-CHASHMAL
 10
753.1000
 20
-9420.6800
 30
0.0000
 11
777.4000
 21
-9394.4000
 31
0.0000
  0
TEXT
  5
2B6
  8
SOL-TEKST
 10
745.0000
 20
-9332.5000
 30
0.0000
 40
58.9000
  1
\U+05DE\U+05EA\U+05D2
 50
0.0000
  7
SOLINE
 72
1
 73
2
 11
745.0000
 21
-9332.5000
 31
0.0000
  0
LINE
  5
2B7
  8
SOL-CHASHMAL
 10
1400.0000
 20
-9450.0000
 30
0.0000
 11
1460.0000
 21
-9450.0000
 31
0.0000
  0
LINE
  5
2B8
  8
SOL-CHASHMAL
 10
1460.0000
 20
-9450.0000
 30
0.0000
 11
1460.0000
 21
-9390.0000
 31
0.0000
  0
LINE
  5
2B9
  8
SOL-CHASHMAL
 10
1460.0000
 20
-9390.0000
 30
0.0000
 11
1400.0000
 21
-9390.0000
 31
0.0000
  0
LINE
  5
2BA
  8
SOL-CHASHMAL
 10
1400.0000
 20
-9390.0000
 30
0.0000
 11
1400.0000
 21
-9450.0000
 31
0.0000
  0
LINE
  5
2BB
  8
SOL-CHASHMAL
 10
1430.0000
 20
-9450.0000
 30
0.0000
 11
1430.0000
 21
-9403.2000
 31
0.0000
  0
ARC
  5
2BC
  8
SOL-CHASHMAL
 10
1430.0000
 20
-9421.2000
 30
0.0000
 40
19.2000
 50
0.0000
 51
360.0000
  0
LINE
  5
2BD
  8
SOL-CHASHMAL
 10
1430.0000
 20
-9421.2000
 30
0.0000
 11
1416.8000
 21
-9408.0000
 31
0.0000
  0
LINE
  5
2BE
  8
SOL-CHASHMAL
 10
1430.0000
 20
-9421.2000
 30
0.0000
 11
1443.2000
 21
-9408.0000
 31
0.0000
  0
LINE
  5
2BF
  8
SOL-CHASHMAL
 10
1430.0000
 20
-9421.2000
 30
0.0000
 11
1416.8000
 21
-9434.4000
 31
0.0000
  0
LINE
  5
2C0
  8
SOL-CHASHMAL
 10
1430.0000
 20
-9421.2000
 30
0.0000
 11
1443.2000
 21
-9434.4000
 31
0.0000
  0
TEXT
  5
2C1
  8
SOL-TEKST
 10
1430.0000
 20
-9342.5000
 30
0.0000
 40
58.9000
  1
\U+05EA\U+05E9\U+05EA\U+05D9\U+05EA \U+05D7\U+05E9\U+05DE\U+05DC
 50
0.0000
  7
SOLINE
 72
1
 73
2
 11
1430.0000
 21
-9342.5000
 31
0.0000
  0
LINE
  5
2C2
  8
SOL-CHASHMAL
 10
2100.0000
 20
-9510.0000
 30
0.0000
 11
2160.0000
 21
-9510.0000
 31
0.0000
  0
LINE
  5
2C3
  8
SOL-CHASHMAL
 10
2160.0000
 20
-9510.0000
 30
0.0000
 11
2160.0000
 21
-9450.0000
 31
0.0000
  0
LINE
  5
2C4
  8
SOL-CHASHMAL
 10
2160.0000
 20
-9450.0000
 30
0.0000
 11
2100.0000
 21
-9450.0000
 31
0.0000
  0
LINE
  5
2C5
  8
SOL-CHASHMAL
 10
2100.0000
 20
-9450.0000
 30
0.0000
 11
2100.0000
 21
-9510.0000
 31
0.0000
  0
LINE
  5
2C6
  8
SOL-CHASHMAL
 10
2130.0000
 20
-9510.0000
 30
0.0000
 11
2130.0000
 21
-9463.2000
 31
0.0000
  0
ARC
  5
2C7
  8
SOL-CHASHMAL
 10
2130.0000
 20
-9481.2000
 30
0.0000
 40
19.2000
 50
0.0000
 51
360.0000
  0
LINE
  5
2C8
  8
SOL-CHASHMAL
 10
2130.0000
 20
-9481.2000
 30
0.0000
 11
2116.8000
 21
-9468.0000
 31
0.0000
  0
LINE
  5
2C9
  8
SOL-CHASHMAL
 10
2130.0000
 20
-9481.2000
 30
0.0000
 11
2143.2000
 21
-9468.0000
 31
0.0000
  0
LINE
  5
2CA
  8
SOL-CHASHMAL
 10
2130.0000
 20
-9481.2000
 30
0.0000
 11
2116.8000
 21
-9494.4000
 31
0.0000
  0
LINE
  5
2CB
  8
SOL-CHASHMAL
 10
2130.0000
 20
-9481.2000
 30
0.0000
 11
2143.2000
 21
-9494.4000
 31
0.0000
  0
TEXT
  5
2CC
  8
SOL-TEKST
 10
2130.0000
 20
-9402.5000
 30
0.0000
 40
58.9000
  1
\U+05EA\U+05E9\U+05EA\U+05D9\U+05EA \U+05D7\U+05E9\U+05DE\U+05DC - \U+05E7\U+05D9\U+05E8
 50
0.0000
  7
SOLINE
 72
1
 73
2
 11
2130.0000
 21
-9402.5000
 31
0.0000
  0
LINE
  5
2CD
  8
SOL-MIDOT-PNIM
 10
-1000.0000
 20
-9640.0000
 30
0.0000
 11
-1000.0000
 21
-9935.0000
 31
0.0000
  0
LINE
  5
2CE
  8
SOL-MIDOT-PNIM
 10
-655.0000
 20
-9640.0000
 30
0.0000
 11
-655.0000
 21
-9935.0000
 31
0.0000
  0
LINE
  5
2CF
  8
SOL-MIDOT-PNIM
 10
-1000.0000
 20
-9885.0000
 30
0.0000
 11
-655.0000
 21
-9885.0000
 31
0.0000
  0
SOLID
  5
2D0
  8
SOL-MIDOT-PNIM
 10
-1000.0000
 20
-9885.0000
 30
0.0000
 11
-1085.2150
 21
-9908.7120
 31
0.0000
 12
-1085.2150
 22
-9861.2880
 32
0.0000
 13
-1085.2150
 23
-9861.2880
 33
0.0000
  0
SOLID
  5
2D1
  8
SOL-MIDOT-PNIM
 10
-655.0000
 20
-9885.0000
 30
0.0000
 11
-569.7850
 21
-9908.7120
 31
0.0000
 12
-569.7850
 22
-9861.2880
 32
0.0000
 13
-569.7850
 23
-9861.2880
 33
0.0000
  0
TEXT
  5
2D2
  8
SOL-MIDOT-PNIM
 10
-827.5000
 20
-9955.3950
 30
0.0000
 40
74.1000
  1
34.5
 50
0.0000
  7
SOLINE
 72
1
 73
2
 11
-827.5000
 21
-9955.3950
 31
0.0000
  0
LINE
  5
2D3
  8
SOL-MIDOT-PNIM
 10
-655.0000
 20
-9640.0000
 30
0.0000
 11
-655.0000
 21
-9935.0000
 31
0.0000
  0
LINE
  5
2D4
  8
SOL-MIDOT-PNIM
 10
80.0000
 20
-9640.0000
 30
0.0000
 11
80.0000
 21
-9935.0000
 31
0.0000
  0
LINE
  5
2D5
  8
SOL-MIDOT-PNIM
 10
-655.0000
 20
-9885.0000
 30
0.0000
 11
80.0000
 21
-9885.0000
 31
0.0000
  0
SOLID
  5
2D6
  8
SOL-MIDOT-PNIM
 10
-655.0000
 20
-9885.0000
 30
0.0000
 11
-740.2150
 21
-9908.7120
 31
0.0000
 12
-740.2150
 22
-9861.2880
 32
0.0000
 13
-740.2150
 23
-9861.2880
 33
0.0000
  0
SOLID
  5
2D7
  8
SOL-MIDOT-PNIM
 10
80.0000
 20
-9885.0000
 30
0.0000
 11
165.2150
 21
-9908.7120
 31
0.0000
 12
165.2150
 22
-9861.2880
 32
0.0000
 13
165.2150
 23
-9861.2880
 33
0.0000
  0
TEXT
  5
2D8
  8
SOL-MIDOT-PNIM
 10
-287.5000
 20
-9955.3950
 30
0.0000
 40
74.1000
  1
73.5
 50
0.0000
  7
SOLINE
 72
1
 73
2
 11
-287.5000
 21
-9955.3950
 31
0.0000
  0
LINE
  5
2D9
  8
SOL-MIDOT-PNIM
 10
80.0000
 20
-9640.0000
 30
0.0000
 11
80.0000
 21
-9935.0000
 31
0.0000
  0
LINE
  5
2DA
  8
SOL-MIDOT-PNIM
 10
745.0000
 20
-9640.0000
 30
0.0000
 11
745.0000
 21
-9935.0000
 31
0.0000
  0
LINE
  5
2DB
  8
SOL-MIDOT-PNIM
 10
80.0000
 20
-9885.0000
 30
0.0000
 11
745.0000
 21
-9885.0000
 31
0.0000
  0
SOLID
  5
2DC
  8
SOL-MIDOT-PNIM
 10
80.0000
 20
-9885.0000
 30
0.0000
 11
-5.2150
 21
-9908.7120
 31
0.0000
 12
-5.2150
 22
-9861.2880
 32
0.0000
 13
-5.2150
 23
-9861.2880
 33
0.0000
  0
SOLID
  5
2DD
  8
SOL-MIDOT-PNIM
 10
745.0000
 20
-9885.0000
 30
0.0000
 11
830.2150
 21
-9908.7120
 31
0.0000
 12
830.2150
 22
-9861.2880
 32
0.0000
 13
830.2150
 23
-9861.2880
 33
0.0000
  0
TEXT
  5
2DE
  8
SOL-MIDOT-PNIM
 10
412.5000
 20
-9955.3950
 30
0.0000
 40
74.1000
  1
66.5
 50
0.0000
  7
SOLINE
 72
1
 73
2
 11
412.5000
 21
-9955.3950
 31
0.0000
  0
LINE
  5
2DF
  8
SOL-MIDOT-PNIM
 10
745.0000
 20
-9640.0000
 30
0.0000
 11
745.0000
 21
-9935.0000
 31
0.0000
  0
LINE
  5
2E0
  8
SOL-MIDOT-PNIM
 10
1430.0000
 20
-9640.0000
 30
0.0000
 11
1430.0000
 21
-9935.0000
 31
0.0000
  0
LINE
  5
2E1
  8
SOL-MIDOT-PNIM
 10
745.0000
 20
-9885.0000
 30
0.0000
 11
1430.0000
 21
-9885.0000
 31
0.0000
  0
SOLID
  5
2E2
  8
SOL-MIDOT-PNIM
 10
745.0000
 20
-9885.0000
 30
0.0000
 11
659.7850
 21
-9908.7120
 31
0.0000
 12
659.7850
 22
-9861.2880
 32
0.0000
 13
659.7850
 23
-9861.2880
 33
0.0000
  0
SOLID
  5
2E3
  8
SOL-MIDOT-PNIM
 10
1430.0000
 20
-9885.0000
 30
0.0000
 11
1515.2150
 21
-9908.7120
 31
0.0000
 12
1515.2150
 22
-9861.2880
 32
0.0000
 13
1515.2150
 23
-9861.2880
 33
0.0000
  0
TEXT
  5
2E4
  8
SOL-MIDOT-PNIM
 10
1087.5000
 20
-9955.3950
 30
0.0000
 40
74.1000
  1
68.5
 50
0.0000
  7
SOLINE
 72
1
 73
2
 11
1087.5000
 21
-9955.3950
 31
0.0000
  0
LINE
  5
2E5
  8
SOL-MIDOT-PNIM
 10
1430.0000
 20
-9640.0000
 30
0.0000
 11
1430.0000
 21
-9935.0000
 31
0.0000
  0
LINE
  5
2E6
  8
SOL-MIDOT-PNIM
 10
2130.0000
 20
-9640.0000
 30
0.0000
 11
2130.0000
 21
-9935.0000
 31
0.0000
  0
LINE
  5
2E7
  8
SOL-MIDOT-PNIM
 10
1430.0000
 20
-9885.0000
 30
0.0000
 11
2130.0000
 21
-9885.0000
 31
0.0000
  0
SOLID
  5
2E8
  8
SOL-MIDOT-PNIM
 10
1430.0000
 20
-9885.0000
 30
0.0000
 11
1344.7850
 21
-9908.7120
 31
0.0000
 12
1344.7850
 22
-9861.2880
 32
0.0000
 13
1344.7850
 23
-9861.2880
 33
0.0000
  0
SOLID
  5
2E9
  8
SOL-MIDOT-PNIM
 10
2130.0000
 20
-9885.0000
 30
0.0000
 11
2215.2150
 21
-9908.7120
 31
0.0000
 12
2215.2150
 22
-9861.2880
 32
0.0000
 13
2215.2150
 23
-9861.2880
 33
0.0000
  0
TEXT
  5
2EA
  8
SOL-MIDOT-PNIM
 10
1780.0000
 20
-9955.3950
 30
0.0000
 40
74.1000
  1
70
 50
0.0000
  7
SOLINE
 72
1
 73
2
 11
1780.0000
 21
-9955.3950
 31
0.0000
  0
LINE
  5
2EB
  8
SOL-MIDOT-PNIM
 10
2130.0000
 20
-9640.0000
 30
0.0000
 11
2130.0000
 21
-9935.0000
 31
0.0000
  0
LINE
  5
2EC
  8
SOL-MIDOT-PNIM
 10
3000.0000
 20
-9640.0000
 30
0.0000
 11
3000.0000
 21
-9935.0000
 31
0.0000
  0
LINE
  5
2ED
  8
SOL-MIDOT-PNIM
 10
2130.0000
 20
-9885.0000
 30
0.0000
 11
3000.0000
 21
-9885.0000
 31
0.0000
  0
SOLID
  5
2EE
  8
SOL-MIDOT-PNIM
 10
2130.0000
 20
-9885.0000
 30
0.0000
 11
2044.7850
 21
-9908.7120
 31
0.0000
 12
2044.7850
 22
-9861.2880
 32
0.0000
 13
2044.7850
 23
-9861.2880
 33
0.0000
  0
SOLID
  5
2EF
  8
SOL-MIDOT-PNIM
 10
3000.0000
 20
-9885.0000
 30
0.0000
 11
3085.2150
 21
-9908.7120
 31
0.0000
 12
3085.2150
 22
-9861.2880
 32
0.0000
 13
3085.2150
 23
-9861.2880
 33
0.0000
  0
TEXT
  5
2F0
  8
SOL-MIDOT-PNIM
 10
2565.0000
 20
-9955.3950
 30
0.0000
 40
74.1000
  1
87
 50
0.0000
  7
SOLINE
 72
1
 73
2
 11
2565.0000
 21
-9955.3950
 31
0.0000
  0
LINE
  5
2F1
  8
SOL-MIDOT-CHUTS
 10
-1000.0000
 20
-9640.0000
 30
0.0000
 11
-1000.0000
 21
-10322.0000
 31
0.0000
  0
LINE
  5
2F2
  8
SOL-MIDOT-CHUTS
 10
3000.0000
 20
-9640.0000
 30
0.0000
 11
3000.0000
 21
-10322.0000
 31
0.0000
  0
LINE
  5
2F3
  8
SOL-MIDOT-CHUTS
 10
-1000.0000
 20
-10265.0000
 30
0.0000
 11
3000.0000
 21
-10265.0000
 31
0.0000
  0
SOLID
  5
2F4
  8
SOL-MIDOT-CHUTS
 10
-1000.0000
 20
-10265.0000
 30
0.0000
 11
-1109.2500
 21
-10295.4000
 31
0.0000
 12
-1109.2500
 22
-10234.6000
 32
0.0000
 13
-1109.2500
 23
-10234.6000
 33
0.0000
  0
SOLID
  5
2F5
  8
SOL-MIDOT-CHUTS
 10
3000.0000
 20
-10265.0000
 30
0.0000
 11
3109.2500
 21
-10295.4000
 31
0.0000
 12
3109.2500
 22
-10234.6000
 32
0.0000
 13
3109.2500
 23
-10234.6000
 33
0.0000
  0
TEXT
  5
2F6
  8
SOL-MIDOT-CHUTS
 10
1000.0000
 20
-10355.2500
 30
0.0000
 40
95.0000
  1
400
 50
0.0000
  7
SOLINE
 72
1
 73
2
 11
1000.0000
 21
-10355.2500
 31
0.0000
  0
LINE
  5
2F7
  8
SOL-MIDOT-CHUTS
 10
-1040.0000
 20
-9600.0000
 30
0.0000
 11
-1627.0000
 21
-9600.0000
 31
0.0000
  0
LINE
  5
2F8
  8
SOL-MIDOT-CHUTS
 10
-1040.0000
 20
-7000.0000
 30
0.0000
 11
-1627.0000
 21
-7000.0000
 31
0.0000
  0
LINE
  5
2F9
  8
SOL-MIDOT-CHUTS
 10
-1570.0000
 20
-9600.0000
 30
0.0000
 11
-1570.0000
 21
-7000.0000
 31
0.0000
  0
SOLID
  5
2FA
  8
SOL-MIDOT-CHUTS
 10
-1570.0000
 20
-9600.0000
 30
0.0000
 11
-1600.4000
 21
-9709.2500
 31
0.0000
 12
-1539.6000
 22
-9709.2500
 32
0.0000
 13
-1539.6000
 23
-9709.2500
 33
0.0000
  0
SOLID
  5
2FB
  8
SOL-MIDOT-CHUTS
 10
-1570.0000
 20
-7000.0000
 30
0.0000
 11
-1600.4000
 21
-6890.7500
 31
0.0000
 12
-1539.6000
 22
-6890.7500
 32
0.0000
 13
-1539.6000
 23
-6890.7500
 33
0.0000
  0
TEXT
  5
2FC
  8
SOL-MIDOT-CHUTS
 10
-1660.2500
 20
-8300.0000
 30
0.0000
 40
95.0000
  1
260
 50
90.0000
  7
SOLINE
 72
1
 73
2
 11
-1660.2500
 21
-8300.0000
 31
0.0000
  0
LINE
  5
2FD
  8
SOL-MIDOT-PNIM
 10
-1040.0000
 20
-9600.0000
 30
0.0000
 11
-1297.0000
 21
-9600.0000
 31
0.0000
  0
LINE
  5
2FE
  8
SOL-MIDOT-PNIM
 10
-1040.0000
 20
-9510.0000
 30
0.0000
 11
-1297.0000
 21
-9510.0000
 31
0.0000
  0
LINE
  5
2FF
  8
SOL-MIDOT-PNIM
 10
-1247.0000
 20
-9600.0000
 30
0.0000
 11
-1247.0000
 21
-9510.0000
 31
0.0000
  0
SOLID
  5
300
  8
SOL-MIDOT-PNIM
 10
-1247.0000
 20
-9600.0000
 30
0.0000
 11
-1270.7120
 21
-9685.2150
 31
0.0000
 12
-1223.2880
 22
-9685.2150
 32
0.0000
 13
-1223.2880
 23
-9685.2150
 33
0.0000
  0
SOLID
  5
301
  8
SOL-MIDOT-PNIM
 10
-1247.0000
 20
-9510.0000
 30
0.0000
 11
-1270.7120
 21
-9424.7850
 31
0.0000
 12
-1223.2880
 22
-9424.7850
 32
0.0000
 13
-1223.2880
 23
-9424.7850
 33
0.0000
  0
TEXT
  5
302
  8
SOL-MIDOT-PNIM
 10
-1317.3950
 20
-9555.0000
 30
0.0000
 40
74.1000
  1
9
 50
90.0000
  7
SOLINE
 72
1
 73
2
 11
-1317.3950
 21
-9555.0000
 31
0.0000
  0
TEXT
  5
303
  8
SOL-TEKST
 10
1000.0000
 20
-10217.5000
 30
0.0000
 40
123.5000
  1
\U+05E7\U+05D9\U+05E8 1
 50
0.0000
  7
SOLINE
 72
1
 73
2
 11
1000.0000
 21
-10217.5000
 31
0.0000
  0
LINE
  5
304
  8
SOL-KIROT
 10
4800.0000
 20
-9600.0000
 30
0.0000
 11
7800.0000
 21
-9600.0000
 31
0.0000
  0
LINE
  5
305
  8
SOL-KIROT
 10
7800.0000
 20
-9600.0000
 30
0.0000
 11
7800.0000
 21
-7000.0000
 31
0.0000
  0
LINE
  5
306
  8
SOL-KIROT
 10
7800.0000
 20
-7000.0000
 30
0.0000
 11
4800.0000
 21
-7000.0000
 31
0.0000
  0
LINE
  5
307
  8
SOL-KIROT
 10
4800.0000
 20
-7000.0000
 30
0.0000
 11
4800.0000
 21
-9600.0000
 31
0.0000
  0
LINE
  5
308
  8
SOL-CHASHMAL
 10
5100.0000
 20
-9420.0000
 30
0.0000
 11
5220.0000
 21
-9420.0000
 31
0.0000
  0
LINE
  5
309
  8
SOL-CHASHMAL
 10
5220.0000
 20
-9420.0000
 30
0.0000
 11
5220.0000
 21
-9300.0000
 31
0.0000
  0
LINE
  5
30A
  8
SOL-CHASHMAL
 10
5220.0000
 20
-9300.0000
 30
0.0000
 11
5100.0000
 21
-9300.0000
 31
0.0000
  0
LINE
  5
30B
  8
SOL-CHASHMAL
 10
5100.0000
 20
-9300.0000
 30
0.0000
 11
5100.0000
 21
-9420.0000
 31
0.0000
  0
LINE
  5
30C
  8
SOL-CHASHMAL
 10
5160.0000
 20
-9420.0000
 30
0.0000
 11
5160.0000
 21
-9326.4000
 31
0.0000
  0
ARC
  5
30D
  8
SOL-CHASHMAL
 10
5160.0000
 20
-9362.4000
 30
0.0000
 40
38.4000
 50
0.0000
 51
360.0000
  0
LINE
  5
30E
  8
SOL-CHASHMAL
 10
5160.0000
 20
-9362.4000
 30
0.0000
 11
5133.6000
 21
-9336.0000
 31
0.0000
  0
LINE
  5
30F
  8
SOL-CHASHMAL
 10
5160.0000
 20
-9362.4000
 30
0.0000
 11
5186.4000
 21
-9336.0000
 31
0.0000
  0
LINE
  5
310
  8
SOL-CHASHMAL
 10
5160.0000
 20
-9362.4000
 30
0.0000
 11
5133.6000
 21
-9388.8000
 31
0.0000
  0
LINE
  5
311
  8
SOL-CHASHMAL
 10
5160.0000
 20
-9362.4000
 30
0.0000
 11
5186.4000
 21
-9388.8000
 31
0.0000
  0
TEXT
  5
312
  8
SOL-TEKST
 10
5160.0000
 20
-9252.5000
 30
0.0000
 40
58.9000
  1
\U+05E0\U+05E7\U+05D5\U+05D3\U+05EA \U+05DE\U+05D5\U+05E6\U+05E8 \U+05D7\U+05E9\U+05DE\U+05DC
 50
0.0000
  7
SOLINE
 72
1
 73
2
 11
5160.0000
 21
-9252.5000
 31
0.0000
  0
LINE
  5
313
  8
SOL-TEURA
 10
5800.0000
 20
-7000.0000
 30
0.0000
 11
5950.0000
 21
-7000.0000
 31
0.0000
  0
LINE
  5
314
  8
SOL-TEURA
 10
5950.0000
 20
-7000.0000
 30
0.0000
 11
5950.0000
 21
-6850.0000
 31
0.0000
  0
LINE
  5
315
  8
SOL-TEURA
 10
5950.0000
 20
-6850.0000
 30
0.0000
 11
5800.0000
 21
-6850.0000
 31
0.0000
  0
LINE
  5
316
  8
SOL-TEURA
 10
5800.0000
 20
-6850.0000
 30
0.0000
 11
5800.0000
 21
-7000.0000
 31
0.0000
  0
ARC
  5
317
  8
SOL-TEURA
 10
5875.0000
 20
-6925.0000
 30
0.0000
 40
45.0000
 50
0.0000
 51
360.0000
  0
LINE
  5
318
  8
SOL-TEURA
 10
5843.5000
 20
-6893.5000
 30
0.0000
 11
5906.5000
 21
-6956.5000
 31
0.0000
  0
LINE
  5
319
  8
SOL-TEURA
 10
5906.5000
 20
-6893.5000
 30
0.0000
 11
5843.5000
 21
-6956.5000
 31
0.0000
  0
TEXT
  5
31A
  8
SOL-TEKST
 10
5875.0000
 20
-6802.5000
 30
0.0000
 40
58.9000
  1
\U+05DE\U+05E0\U+05D5\U+05E8\U+05EA \U+05EA\U+05E7\U+05E8\U+05D4
 50
0.0000
  7
SOLINE
 72
1
 73
2
 11
5875.0000
 21
-6802.5000
 31
0.0000
  0
LINE
  5
31B
  8
SOL-INSTALATSIA
 10
6500.0000
 20
-9550.0000
 30
0.0000
 11
6560.0000
 21
-9550.0000
 31
0.0000
  0
LINE
  5
31C
  8
SOL-INSTALATSIA
 10
6560.0000
 20
-9550.0000
 30
0.0000
 11
6560.0000
 21
-9490.0000
 31
0.0000
  0
LINE
  5
31D
  8
SOL-INSTALATSIA
 10
6560.0000
 20
-9490.0000
 30
0.0000
 11
6500.0000
 21
-9490.0000
 31
0.0000
  0
LINE
  5
31E
  8
SOL-INSTALATSIA
 10
6500.0000
 20
-9490.0000
 30
0.0000
 11
6500.0000
 21
-9550.0000
 31
0.0000
  0
LINE
  5
31F
  8
SOL-INSTALATSIA
 10
6530.0000
 20
-9550.0000
 30
0.0000
 11
6530.0000
 21
-9508.0000
 31
0.0000
  0
ARC
  5
320
  8
SOL-INSTALATSIA
 10
6530.0000
 20
-9520.0000
 30
0.0000
 40
16.8000
 50
0.0000
 51
360.0000
  0
LINE
  5
321
  8
SOL-INSTALATSIA
 10
6516.8000
 20
-9520.0000
 30
0.0000
 11
6543.2000
 21
-9520.0000
 31
0.0000
  0
LINE
  5
322
  8
SOL-INSTALATSIA
 10
6530.0000
 20
-9506.8000
 30
0.0000
 11
6530.0000
 21
-9533.2000
 31
0.0000
  0
TEXT
  5
323
  8
SOL-TEKST
 10
6530.0000
 20
-9442.5000
 30
0.0000
 40
58.9000
  1
\U+05DE\U+05D9\U+05DD
 50
0.0000
  7
SOLINE
 72
1
 73
2
 11
6530.0000
 21
-9442.5000
 31
0.0000
  0
LINE
  5
324
  8
SOL-GAZ
 10
7200.0000
 20
-9540.0000
 30
0.0000
 11
7260.0000
 21
-9540.0000
 31
0.0000
  0
LINE
  5
325
  8
SOL-GAZ
 10
7260.0000
 20
-9540.0000
 30
0.0000
 11
7260.0000
 21
-9480.0000
 31
0.0000
  0
LINE
  5
326
  8
SOL-GAZ
 10
7260.0000
 20
-9480.0000
 30
0.0000
 11
7200.0000
 21
-9480.0000
 31
0.0000
  0
LINE
  5
327
  8
SOL-GAZ
 10
7200.0000
 20
-9480.0000
 30
0.0000
 11
7200.0000
 21
-9540.0000
 31
0.0000
  0
LINE
  5
328
  8
SOL-GAZ
 10
7230.0000
 20
-9540.0000
 30
0.0000
 11
7230.0000
 21
-9496.8000
 31
0.0000
  0
LINE
  5
329
  8
SOL-GAZ
 10
7230.0000
 20
-9492.0000
 30
0.0000
 11
7245.6000
 21
-9501.0000
 31
0.0000
  0
LINE
  5
32A
  8
SOL-GAZ
 10
7245.6000
 20
-9501.0000
 30
0.0000
 11
7245.6000
 21
-9519.0000
 31
0.0000
  0
LINE
  5
32B
  8
SOL-GAZ
 10
7245.6000
 20
-9519.0000
 30
0.0000
 11
7230.0000
 21
-9528.0000
 31
0.0000
  0
LINE
  5
32C
  8
SOL-GAZ
 10
7230.0000
 20
-9528.0000
 30
0.0000
 11
7214.4000
 21
-9519.0000
 31
0.0000
  0
LINE
  5
32D
  8
SOL-GAZ
 10
7214.4000
 20
-9519.0000
 30
0.0000
 11
7214.4000
 21
-9501.0000
 31
0.0000
  0
LINE
  5
32E
  8
SOL-GAZ
 10
7214.4000
 20
-9501.0000
 30
0.0000
 11
7230.0000
 21
-9492.0000
 31
0.0000
  0
TEXT
  5
32F
  8
SOL-GAZ
 10
7230.0000
 20
-9513.6000
 30
0.0000
 40
24.0000
  1
G
 50
0.0000
  7
SOLINE
 72
1
 73
2
 11
7230.0000
 21
-9513.6000
 31
0.0000
  0
TEXT
  5
330
  8
SOL-TEKST
 10
7230.0000
 20
-9432.5000
 30
0.0000
 40
58.9000
  1
\U+05D2\U+05D6
 50
0.0000
  7
SOLINE
 72
1
 73
2
 11
7230.0000
 21
-9432.5000
 31
0.0000
  0
LINE
  5
331
  8
SOL-INSTALATSIA
 10
7775.0000
 20
-9560.0000
 30
0.0000
 11
7825.0000
 21
-9560.0000
 31
0.0000
  0
LINE
  5
332
  8
SOL-INSTALATSIA
 10
7825.0000
 20
-9560.0000
 30
0.0000
 11
7825.0000
 21
-9510.0000
 31
0.0000
  0
LINE
  5
333
  8
SOL-INSTALATSIA
 10
7825.0000
 20
-9510.0000
 30
0.0000
 11
7775.0000
 21
-9510.0000
 31
0.0000
  0
LINE
  5
334
  8
SOL-INSTALATSIA
 10
7775.0000
 20
-9510.0000
 30
0.0000
 11
7775.0000
 21
-9560.0000
 31
0.0000
  0
LINE
  5
335
  8
SOL-INSTALATSIA
 10
7800.0000
 20
-9560.0000
 30
0.0000
 11
7800.0000
 21
-9525.0000
 31
0.0000
  0
ARC
  5
336
  8
SOL-INSTALATSIA
 10
7800.0000
 20
-9535.0000
 30
0.0000
 40
14.0000
 50
0.0000
 51
360.0000
  0
LINE
  5
337
  8
SOL-INSTALATSIA
 10
7789.0000
 20
-9535.0000
 30
0.0000
 11
7811.0000
 21
-9535.0000
 31
0.0000
  0
LINE
  5
338
  8
SOL-INSTALATSIA
 10
7800.0000
 20
-9524.0000
 30
0.0000
 11
7800.0000
 21
-9546.0000
 31
0.0000
  0
TEXT
  5
339
  8
SOL-TEKST
 10
7800.0000
 20
-9462.5000
 30
0.0000
 40
58.9000
  1
\U+05E6\U+05D9\U+05E0\U+05D5\U+05E8 \U+05DE\U+05D9\U+05DD \U+05E2\U+05D2\U+05D5\U+05DC
 50
0.0000
  7
SOLINE
 72
1
 73
2
 11
7800.0000
 21
-9462.5000
 31
0.0000
  0
LINE
  5
33A
  8
SOL-MIDOT-PNIM
 10
4800.0000
 20
-9640.0000
 30
0.0000
 11
4800.0000
 21
-9935.0000
 31
0.0000
  0
LINE
  5
33B
  8
SOL-MIDOT-PNIM
 10
5160.0000
 20
-9640.0000
 30
0.0000
 11
5160.0000
 21
-9935.0000
 31
0.0000
  0
LINE
  5
33C
  8
SOL-MIDOT-PNIM
 10
4800.0000
 20
-9885.0000
 30
0.0000
 11
5160.0000
 21
-9885.0000
 31
0.0000
  0
SOLID
  5
33D
  8
SOL-MIDOT-PNIM
 10
4800.0000
 20
-9885.0000
 30
0.0000
 11
4714.7850
 21
-9908.7120
 31
0.0000
 12
4714.7850
 22
-9861.2880
 32
0.0000
 13
4714.7850
 23
-9861.2880
 33
0.0000
  0
SOLID
  5
33E
  8
SOL-MIDOT-PNIM
 10
5160.0000
 20
-9885.0000
 30
0.0000
 11
5245.2150
 21
-9908.7120
 31
0.0000
 12
5245.2150
 22
-9861.2880
 32
0.0000
 13
5245.2150
 23
-9861.2880
 33
0.0000
  0
TEXT
  5
33F
  8
SOL-MIDOT-PNIM
 10
4980.0000
 20
-9955.3950
 30
0.0000
 40
74.1000
  1
36
 50
0.0000
  7
SOLINE
 72
1
 73
2
 11
4980.0000
 21
-9955.3950
 31
0.0000
  0
LINE
  5
340
  8
SOL-MIDOT-PNIM
 10
5160.0000
 20
-9640.0000
 30
0.0000
 11
5160.0000
 21
-9935.0000
 31
0.0000
  0
LINE
  5
341
  8
SOL-MIDOT-PNIM
 10
5875.0000
 20
-9640.0000
 30
0.0000
 11
5875.0000
 21
-9935.0000
 31
0.0000
  0
LINE
  5
342
  8
SOL-MIDOT-PNIM
 10
5160.0000
 20
-9885.0000
 30
0.0000
 11
5875.0000
 21
-9885.0000
 31
0.0000
  0
SOLID
  5
343
  8
SOL-MIDOT-PNIM
 10
5160.0000
 20
-9885.0000
 30
0.0000
 11
5074.7850
 21
-9908.7120
 31
0.0000
 12
5074.7850
 22
-9861.2880
 32
0.0000
 13
5074.7850
 23
-9861.2880
 33
0.0000
  0
SOLID
  5
344
  8
SOL-MIDOT-PNIM
 10
5875.0000
 20
-9885.0000
 30
0.0000
 11
5960.2150
 21
-9908.7120
 31
0.0000
 12
5960.2150
 22
-9861.2880
 32
0.0000
 13
5960.2150
 23
-9861.2880
 33
0.0000
  0
TEXT
  5
345
  8
SOL-MIDOT-PNIM
 10
5517.5000
 20
-9955.3950
 30
0.0000
 40
74.1000
  1
71.5
 50
0.0000
  7
SOLINE
 72
1
 73
2
 11
5517.5000
 21
-9955.3950
 31
0.0000
  0
LINE
  5
346
  8
SOL-MIDOT-PNIM
 10
5875.0000
 20
-9640.0000
 30
0.0000
 11
5875.0000
 21
-9935.0000
 31
0.0000
  0
LINE
  5
347
  8
SOL-MIDOT-PNIM
 10
6530.0000
 20
-9640.0000
 30
0.0000
 11
6530.0000
 21
-9935.0000
 31
0.0000
  0
LINE
  5
348
  8
SOL-MIDOT-PNIM
 10
5875.0000
 20
-9885.0000
 30
0.0000
 11
6530.0000
 21
-9885.0000
 31
0.0000
  0
SOLID
  5
349
  8
SOL-MIDOT-PNIM
 10
5875.0000
 20
-9885.0000
 30
0.0000
 11
5789.7850
 21
-9908.7120
 31
0.0000
 12
5789.7850
 22
-9861.2880
 32
0.0000
 13
5789.7850
 23
-9861.2880
 33
0.0000
  0
SOLID
  5
34A
  8
SOL-MIDOT-PNIM
 10
6530.0000
 20
-9885.0000
 30
0.0000
 11
6615.2150
 21
-9908.7120
 31
0.0000
 12
6615.2150
 22
-9861.2880
 32
0.0000
 13
6615.2150
 23
-9861.2880
 33
0.0000
  0
TEXT
  5
34B
  8
SOL-MIDOT-PNIM
 10
6202.5000
 20
-9955.3950
 30
0.0000
 40
74.1000
  1
65.5
 50
0.0000
  7
SOLINE
 72
1
 73
2
 11
6202.5000
 21
-9955.3950
 31
0.0000
  0
LINE
  5
34C
  8
SOL-MIDOT-PNIM
 10
6530.0000
 20
-9640.0000
 30
0.0000
 11
6530.0000
 21
-9935.0000
 31
0.0000
  0
LINE
  5
34D
  8
SOL-MIDOT-PNIM
 10
7230.0000
 20
-9640.0000
 30
0.0000
 11
7230.0000
 21
-9935.0000
 31
0.0000
  0
LINE
  5
34E
  8
SOL-MIDOT-PNIM
 10
6530.0000
 20
-9885.0000
 30
0.0000
 11
7230.0000
 21
-9885.0000
 31
0.0000
  0
SOLID
  5
34F
  8
SOL-MIDOT-PNIM
 10
6530.0000
 20
-9885.0000
 30
0.0000
 11
6444.7850
 21
-9908.7120
 31
0.0000
 12
6444.7850
 22
-9861.2880
 32
0.0000
 13
6444.7850
 23
-9861.2880
 33
0.0000
  0
SOLID
  5
350
  8
SOL-MIDOT-PNIM
 10
7230.0000
 20
-9885.0000
 30
0.0000
 11
7315.2150
 21
-9908.7120
 31
0.0000
 12
7315.2150
 22
-9861.2880
 32
0.0000
 13
7315.2150
 23
-9861.2880
 33
0.0000
  0
TEXT
  5
351
  8
SOL-MIDOT-PNIM
 10
6880.0000
 20
-9955.3950
 30
0.0000
 40
74.1000
  1
70
 50
0.0000
  7
SOLINE
 72
1
 73
2
 11
6880.0000
 21
-9955.3950
 31
0.0000
  0
LINE
  5
352
  8
SOL-MIDOT-PNIM
 10
7230.0000
 20
-9640.0000
 30
0.0000
 11
7230.0000
 21
-9935.0000
 31
0.0000
  0
LINE
  5
353
  8
SOL-MIDOT-PNIM
 10
7800.0000
 20
-9640.0000
 30
0.0000
 11
7800.0000
 21
-9935.0000
 31
0.0000
  0
LINE
  5
354
  8
SOL-MIDOT-PNIM
 10
7230.0000
 20
-9885.0000
 30
0.0000
 11
7800.0000
 21
-9885.0000
 31
0.0000
  0
SOLID
  5
355
  8
SOL-MIDOT-PNIM
 10
7230.0000
 20
-9885.0000
 30
0.0000
 11
7144.7850
 21
-9908.7120
 31
0.0000
 12
7144.7850
 22
-9861.2880
 32
0.0000
 13
7144.7850
 23
-9861.2880
 33
0.0000
  0
SOLID
  5
356
  8
SOL-MIDOT-PNIM
 10
7800.0000
 20
-9885.0000
 30
0.0000
 11
7885.2150
 21
-9908.7120
 31
0.0000
 12
7885.2150
 22
-9861.2880
 32
0.0000
 13
7885.2150
 23
-9861.2880
 33
0.0000
  0
TEXT
  5
357
  8
SOL-MIDOT-PNIM
 10
7515.0000
 20
-9955.3950
 30
0.0000
 40
74.1000
  1
57
 50
0.0000
  7
SOLINE
 72
1
 73
2
 11
7515.0000
 21
-9955.3950
 31
0.0000
  0
LINE
  5
358
  8
SOL-MIDOT-CHUTS
 10
4800.0000
 20
-9640.0000
 30
0.0000
 11
4800.0000
 21
-10322.0000
 31
0.0000
  0
LINE
  5
359
  8
SOL-MIDOT-CHUTS
 10
7800.0000
 20
-9640.0000
 30
0.0000
 11
7800.0000
 21
-10322.0000
 31
0.0000
  0
LINE
  5
35A
  8
SOL-MIDOT-CHUTS
 10
4800.0000
 20
-10265.0000
 30
0.0000
 11
7800.0000
 21
-10265.0000
 31
0.0000
  0
SOLID
  5
35B
  8
SOL-MIDOT-CHUTS
 10
4800.0000
 20
-10265.0000
 30
0.0000
 11
4690.7500
 21
-10295.4000
 31
0.0000
 12
4690.7500
 22
-10234.6000
 32
0.0000
 13
4690.7500
 23
-10234.6000
 33
0.0000
  0
SOLID
  5
35C
  8
SOL-MIDOT-CHUTS
 10
7800.0000
 20
-10265.0000
 30
0.0000
 11
7909.2500
 21
-10295.4000
 31
0.0000
 12
7909.2500
 22
-10234.6000
 32
0.0000
 13
7909.2500
 23
-10234.6000
 33
0.0000
  0
TEXT
  5
35D
  8
SOL-MIDOT-CHUTS
 10
6300.0000
 20
-10355.2500
 30
0.0000
 40
95.0000
  1
300
 50
0.0000
  7
SOLINE
 72
1
 73
2
 11
6300.0000
 21
-10355.2500
 31
0.0000
  0
LINE
  5
35E
  8
SOL-MIDOT-CHUTS
 10
4760.0000
 20
-9600.0000
 30
0.0000
 11
4173.0000
 21
-9600.0000
 31
0.0000
  0
LINE
  5
35F
  8
SOL-MIDOT-CHUTS
 10
4760.0000
 20
-7000.0000
 30
0.0000
 11
4173.0000
 21
-7000.0000
 31
0.0000
  0
LINE
  5
360
  8
SOL-MIDOT-CHUTS
 10
4230.0000
 20
-9600.0000
 30
0.0000
 11
4230.0000
 21
-7000.0000
 31
0.0000
  0
SOLID
  5
361
  8
SOL-MIDOT-CHUTS
 10
4230.0000
 20
-9600.0000
 30
0.0000
 11
4199.6000
 21
-9709.2500
 31
0.0000
 12
4260.4000
 22
-9709.2500
 32
0.0000
 13
4260.4000
 23
-9709.2500
 33
0.0000
  0
SOLID
  5
362
  8
SOL-MIDOT-CHUTS
 10
4230.0000
 20
-7000.0000
 30
0.0000
 11
4199.6000
 21
-6890.7500
 31
0.0000
 12
4260.4000
 22
-6890.7500
 32
0.0000
 13
4260.4000
 23
-6890.7500
 33
0.0000
  0
TEXT
  5
363
  8
SOL-MIDOT-CHUTS
 10
4139.7500
 20
-8300.0000
 30
0.0000
 40
95.0000
  1
260
 50
90.0000
  7
SOLINE
 72
1
 73
2
 11
4139.7500
 21
-8300.0000
 31
0.0000
  0
LINE
  5
364
  8
SOL-MIDOT-PNIM
 10
4760.0000
 20
-9600.0000
 30
0.0000
 11
4503.0000
 21
-9600.0000
 31
0.0000
  0
LINE
  5
365
  8
SOL-MIDOT-PNIM
 10
4760.0000
 20
-9560.0000
 30
0.0000
 11
4503.0000
 21
-9560.0000
 31
0.0000
  0
LINE
  5
366
  8
SOL-MIDOT-PNIM
 10
4553.0000
 20
-9600.0000
 30
0.0000
 11
4553.0000
 21
-9560.0000
 31
0.0000
  0
SOLID
  5
367
  8
SOL-MIDOT-PNIM
 10
4553.0000
 20
-9600.0000
 30
0.0000
 11
4529.2880
 21
-9685.2150
 31
0.0000
 12
4576.7120
 22
-9685.2150
 32
0.0000
 13
4576.7120
 23
-9685.2150
 33
0.0000
  0
SOLID
  5
368
  8
SOL-MIDOT-PNIM
 10
4553.0000
 20
-9560.0000
 30
0.0000
 11
4529.2880
 21
-9474.7850
 31
0.0000
 12
4576.7120
 22
-9474.7850
 32
0.0000
 13
4576.7120
 23
-9474.7850
 33
0.0000
  0
TEXT
  5
369
  8
SOL-MIDOT-PNIM
 10
4482.6050
 20
-9580.0000
 30
0.0000
 40
74.1000
  1
4
 50
90.0000
  7
SOLINE
 72
1
 73
2
 11
4482.6050
 21
-9580.0000
 31
0.0000
  0
LINE
  5
36A
  8
SOL-MIDOT-PNIM
 10
4760.0000
 20
-9600.0000
 30
0.0000
 11
4275.0000
 21
-9600.0000
 31
0.0000
  0
LINE
  5
36B
  8
SOL-MIDOT-PNIM
 10
4760.0000
 20
-9420.0000
 30
0.0000
 11
4275.0000
 21
-9420.0000
 31
0.0000
  0
LINE
  5
36C
  8
SOL-MIDOT-PNIM
 10
4325.0000
 20
-9600.0000
 30
0.0000
 11
4325.0000
 21
-9420.0000
 31
0.0000
  0
SOLID
  5
36D
  8
SOL-MIDOT-PNIM
 10
4325.0000
 20
-9600.0000
 30
0.0000
 11
4301.2880
 21
-9685.2150
 31
0.0000
 12
4348.7120
 22
-9685.2150
 32
0.0000
 13
4348.7120
 23
-9685.2150
 33
0.0000
  0
SOLID
  5
36E
  8
SOL-MIDOT-PNIM
 10
4325.0000
 20
-9420.0000
 30
0.0000
 11
4301.2880
 21
-9334.7850
 31
0.0000
 12
4348.7120
 22
-9334.7850
 32
0.0000
 13
4348.7120
 23
-9334.7850
 33
0.0000
  0
TEXT
  5
36F
  8
SOL-MIDOT-PNIM
 10
4254.6050
 20
-9510.0000
 30
0.0000
 40
74.1000
  1
18
 50
90.0000
  7
SOLINE
 72
1
 73
2
 11
4254.6050
 21
-9510.0000
 31
0.0000
  0
LINE
  5
370
  8
SOL-MIDOT-PNIM
 10
4760.0000
 20
-9600.0000
 30
0.0000
 11
4047.0000
 21
-9600.0000
 31
0.0000
  0
LINE
  5
371
  8
SOL-MIDOT-PNIM
 10
4760.0000
 20
-7000.0000
 30
0.0000
 11
4047.0000
 21
-7000.0000
 31
0.0000
  0
LINE
  5
372
  8
SOL-MIDOT-PNIM
 10
4097.0000
 20
-9600.0000
 30
0.0000
 11
4097.0000
 21
-7000.0000
 31
0.0000
  0
SOLID
  5
373
  8
SOL-MIDOT-PNIM
 10
4097.0000
 20
-9600.0000
 30
0.0000
 11
4073.2880
 21
-9685.2150
 31
0.0000
 12
4120.7120
 22
-9685.2150
 32
0.0000
 13
4120.7120
 23
-9685.2150
 33
0.0000
  0
SOLID
  5
374
  8
SOL-MIDOT-PNIM
 10
4097.0000
 20
-7000.0000
 30
0.0000
 11
4073.2880
 21
-6914.7850
 31
0.0000
 12
4120.7120
 22
-6914.7850
 32
0.0000
 13
4120.7120
 23
-6914.7850
 33
0.0000
  0
TEXT
  5
375
  8
SOL-MIDOT-PNIM
 10
4026.6050
 20
-8300.0000
 30
0.0000
 40
74.1000
  1
260
 50
90.0000
  7
SOLINE
 72
1
 73
2
 11
4026.6050
 21
-8300.0000
 31
0.0000
  0
TEXT
  5
376
  8
SOL-TEKST
 10
6300.0000
 20
-10217.5000
 30
0.0000
 40
123.5000
  1
\U+05E7\U+05D9\U+05E8 2
 50
0.0000
  7
SOLINE
 72
1
 73
2
 11
6300.0000
 21
-10217.5000
 31
0.0000
  0
LINE
  5
377
  8
SOL-KIROT
 10
9600.0000
 20
-9600.0000
 30
0.0000
 11
13600.0000
 21
-9600.0000
 31
0.0000
  0
LINE
  5
378
  8
SOL-KIROT
 10
13600.0000
 20
-9600.0000
 30
0.0000
 11
13600.0000
 21
-7000.0000
 31
0.0000
  0
LINE
  5
379
  8
SOL-KIROT
 10
13600.0000
 20
-7000.0000
 30
0.0000
 11
9600.0000
 21
-7000.0000
 31
0.0000
  0
LINE
  5
37A
  8
SOL-KIROT
 10
9600.0000
 20
-7000.0000
 30
0.0000
 11
9600.0000
 21
-9600.0000
 31
0.0000
  0
LINE
  5
37B
  8
SOL-INSTALATSIA
 10
9900.0000
 20
-9600.0000
 30
0.0000
 11
10000.0000
 21
-9600.0000
 31
0.0000
  0
LINE
  5
37C
  8
SOL-INSTALATSIA
 10
10000.0000
 20
-9600.0000
 30
0.0000
 11
10000.0000
 21
-9500.0000
 31
0.0000
  0
LINE
  5
37D
  8
SOL-INSTALATSIA
 10
10000.0000
 20
-9500.0000
 30
0.0000
 11
9900.0000
 21
-9500.0000
 31
0.0000
  0
LINE
  5
37E
  8
SOL-INSTALATSIA
 10
9900.0000
 20
-9500.0000
 30
0.0000
 11
9900.0000
 21
-9600.0000
 31
0.0000
  0
LINE
  5
37F
  8
SOL-INSTALATSIA
 10
9950.0000
 20
-9600.0000
 30
0.0000
 11
9950.0000
 21
-9528.0000
 31
0.0000
  0
ARC
  5
380
  8
SOL-INSTALATSIA
 10
9950.0000
 20
-9550.0000
 30
0.0000
 40
30.0000
 50
0.0000
 51
360.0000
  0
LINE
  5
381
  8
SOL-INSTALATSIA
 10
9930.0000
 20
-9550.0000
 30
0.0000
 11
9940.0000
 21
-9542.0000
 31
0.0000
  0
LINE
  5
382
  8
SOL-INSTALATSIA
 10
9940.0000
 20
-9542.0000
 30
0.0000
 11
9950.0000
 21
-9550.0000
 31
0.0000
  0
LINE
  5
383
  8
SOL-INSTALATSIA
 10
9950.0000
 20
-9550.0000
 30
0.0000
 11
9960.0000
 21
-9558.0000
 31
0.0000
  0
LINE
  5
384
  8
SOL-INSTALATSIA
 10
9960.0000
 20
-9558.0000
 30
0.0000
 11
9970.0000
 21
-9550.0000
 31
0.0000
  0
TEXT
  5
385
  8
SOL-TEKST
 10
9950.0000
 20
-9452.5000
 30
0.0000
 40
58.9000
  1
\U+05E0\U+05D9\U+05E7\U+05D5\U+05D6 \U+05E8\U+05E6\U+05E4\U+05EA\U+05D9
 50
0.0000
  7
SOLINE
 72
1
 73
2
 11
9950.0000
 21
-9452.5000
 31
0.0000
  0
LINE
  5
386
  8
SOL-MIVNE
 10
12600.0000
 20
-9600.0000
 30
0.0000
 11
12800.0000
 21
-9600.0000
 31
0.0000
  0
LINE
  5
387
  8
SOL-MIVNE
 10
12800.0000
 20
-9600.0000
 30
0.0000
 11
12800.0000
 21
-7000.0000
 31
0.0000
  0
LINE
  5
388
  8
SOL-MIVNE
 10
12800.0000
 20
-7000.0000
 30
0.0000
 11
12600.0000
 21
-7000.0000
 31
0.0000
  0
LINE
  5
389
  8
SOL-MIVNE
 10
12600.0000
 20
-7000.0000
 30
0.0000
 11
12600.0000
 21
-9600.0000
 31
0.0000
  0
LINE
  5
38A
  8
SOL-MIVNE
 10
12600.0000
 20
-7988.0000
 30
0.0000
 11
12800.0000
 21
-7988.0000
 31
0.0000
  0
LINE
  5
38B
  8
SOL-MIVNE
 10
12800.0000
 20
-7988.0000
 30
0.0000
 11
12800.0000
 21
-8612.0000
 31
0.0000
  0
LINE
  5
38C
  8
SOL-MIVNE
 10
12800.0000
 20
-8612.0000
 30
0.0000
 11
12600.0000
 21
-8612.0000
 31
0.0000
  0
LINE
  5
38D
  8
SOL-MIVNE
 10
12600.0000
 20
-8612.0000
 30
0.0000
 11
12600.0000
 21
-7988.0000
 31
0.0000
  0
TEXT
  5
38E
  8
SOL-TEKST
 10
12700.0000
 20
-6952.5000
 30
0.0000
 40
58.9000
  1
\U+05E2\U+05DE\U+05D5\U+05D3
 50
0.0000
  7
SOLINE
 72
1
 73
2
 11
12700.0000
 21
-6952.5000
 31
0.0000
  0
LINE
  5
38F
  8
SOL-PTACHIM
 10
10100.0000
 20
-8700.0000
 30
0.0000
 11
11100.0000
 21
-8700.0000
 31
0.0000
  0
LINE
  5
390
  8
SOL-PTACHIM
 10
11100.0000
 20
-8700.0000
 30
0.0000
 11
11100.0000
 21
-7500.0000
 31
0.0000
  0
LINE
  5
391
  8
SOL-PTACHIM
 10
11100.0000
 20
-7500.0000
 30
0.0000
 11
10100.0000
 21
-7500.0000
 31
0.0000
  0
LINE
  5
392
  8
SOL-PTACHIM
 10
10100.0000
 20
-7500.0000
 30
0.0000
 11
10100.0000
 21
-8700.0000
 31
0.0000
  0
LINE
  5
393
  8
SOL-PTACHIM
 10
10100.0000
 20
-7932.0000
 30
0.0000
 11
11100.0000
 21
-7932.0000
 31
0.0000
  0
LINE
  5
394
  8
SOL-PTACHIM
 10
11100.0000
 20
-7932.0000
 30
0.0000
 11
11100.0000
 21
-8268.0000
 31
0.0000
  0
LINE
  5
395
  8
SOL-PTACHIM
 10
11100.0000
 20
-8268.0000
 30
0.0000
 11
10100.0000
 21
-8268.0000
 31
0.0000
  0
LINE
  5
396
  8
SOL-PTACHIM
 10
10100.0000
 20
-8268.0000
 30
0.0000
 11
10100.0000
 21
-7932.0000
 31
0.0000
  0
LINE
  5
397
  8
SOL-PTACHIM
 10
10100.0000
 20
-8100.0000
 30
0.0000
 11
11100.0000
 21
-8100.0000
 31
0.0000
  0
TEXT
  5
398
  8
SOL-TEKST
 10
10600.0000
 20
-7452.5000
 30
0.0000
 40
58.9000
  1
\U+05D7\U+05DC\U+05D5\U+05DF
 50
0.0000
  7
SOLINE
 72
1
 73
2
 11
10600.0000
 21
-7452.5000
 31
0.0000
  0
LINE
  5
399
  8
SOL-PTACHIM
 10
10850.0000
 20
-9600.0000
 30
0.0000
 11
11750.0000
 21
-9600.0000
 31
0.0000
  0
LINE
  5
39A
  8
SOL-PTACHIM
 10
11750.0000
 20
-9600.0000
 30
0.0000
 11
11750.0000
 21
-7550.0000
 31
0.0000
  0
LINE
  5
39B
  8
SOL-PTACHIM
 10
11750.0000
 20
-7550.0000
 30
0.0000
 11
10850.0000
 21
-7550.0000
 31
0.0000
  0
LINE
  5
39C
  8
SOL-PTACHIM
 10
10850.0000
 20
-7550.0000
 30
0.0000
 11
10850.0000
 21
-9600.0000
 31
0.0000
  0
LINE
  5
39D
  8
SOL-PTACHIM
 10
10886.0000
 20
-9600.0000
 30
0.0000
 11
10886.0000
 21
-7714.0000
 31
0.0000
  0
LINE
  5
39E
  8
SOL-PTACHIM
 10
11318.0000
 20
-7714.0000
 30
0.0000
 11
11342.2224
 21
-7716.9670
 31
0.0000
  0
LINE
  5
39F
  8
SOL-PTACHIM
 10
11342.2224
 20
-7716.9670
 30
0.0000
 11
11366.3687
 21
-7725.8588
 31
0.0000
  0
LINE
  5
3A0
  8
SOL-PTACHIM
 10
11366.3687
 20
-7725.8588
 30
0.0000
 11
11390.3627
 21
-7740.6473
 31
0.0000
  0
LINE
  5
3A1
  8
SOL-PTACHIM
 10
11390.3627
 20
-7740.6473
 30
0.0000
 11
11414.1290
 21
-7761.2860
 31
0.0000
  0
LINE
  5
3A2
  8
SOL-PTACHIM
 10
11414.1290
 20
-7761.2860
 30
0.0000
 11
11437.5929
 21
-7787.7099
 31
0.0000
  0
LINE
  5
3A3
  8
SOL-PTACHIM
 10
11437.5929
 20
-7787.7099
 30
0.0000
 11
11460.6806
 21
-7819.8360
 31
0.0000
  0
LINE
  5
3A4
  8
SOL-PTACHIM
 10
11460.6806
 20
-7819.8360
 30
0.0000
 11
11483.3192
 21
-7857.5632
 31
0.0000
  0
LINE
  5
3A5
  8
SOL-PTACHIM
 10
11483.3192
 20
-7857.5632
 30
0.0000
 11
11505.4378
 21
-7900.7727
 31
0.0000
  0
LINE
  5
3A6
  8
SOL-PTACHIM
 10
11505.4378
 20
-7900.7727
 30
0.0000
 11
11526.9666
 21
-7949.3286
 31
0.0000
  0
LINE
  5
3A7
  8
SOL-PTACHIM
 10
11526.9666
 20
-7949.3286
 30
0.0000
 11
11547.8379
 21
-8003.0782
 31
0.0000
  0
LINE
  5
3A8
  8
SOL-PTACHIM
 10
11547.8379
 20
-8003.0782
 30
0.0000
 11
11567.9860
 21
-8061.8522
 31
0.0000
  0
LINE
  5
3A9
  8
SOL-PTACHIM
 10
11567.9860
 20
-8061.8522
 30
0.0000
 11
11587.3476
 21
-8125.4658
 31
0.0000
  0
LINE
  5
3AA
  8
SOL-PTACHIM
 10
11587.3476
 20
-8125.4658
 30
0.0000
 11
11605.8617
 21
-8193.7189
 31
0.0000
  0
LINE
  5
3AB
  8
SOL-PTACHIM
 10
11605.8617
 20
-8193.7189
 30
0.0000
 11
11623.4701
 21
-8266.3966
 31
0.0000
  0
LINE
  5
3AC
  8
SOL-PTACHIM
 10
11623.4701
 20
-8266.3966
 30
0.0000
 11
11640.1174
 21
-8343.2704
 31
0.0000
  0
LINE
  5
3AD
  8
SOL-PTACHIM
 10
11640.1174
 20
-8343.2704
 30
0.0000
 11
11655.7512
 21
-8424.0982
 31
0.0000
  0
LINE
  5
3AE
  8
SOL-PTACHIM
 10
11655.7512
 20
-8424.0982
 30
0.0000
 11
11670.3223
 21
-8508.6259
 31
0.0000
  0
LINE
  5
3AF
  8
SOL-PTACHIM
 10
11670.3223
 20
-8508.6259
 30
0.0000
 11
11683.7849
 21
-8596.5875
 31
0.0000
  0
LINE
  5
3B0
  8
SOL-PTACHIM
 10
11683.7849
 20
-8596.5875
 30
0.0000
 11
11696.0965
 21
-8687.7062
 31
0.0000
  0
LINE
  5
3B1
  8
SOL-PTACHIM
 10
11696.0965
 20
-8687.7062
 30
0.0000
 11
11707.2186
 21
-8781.6953
 31
0.0000
  0
LINE
  5
3B2
  8
SOL-PTACHIM
 10
11707.2186
 20
-8781.6953
 30
0.0000
 11
11717.1160
 21
-8878.2590
 31
0.0000
  0
LINE
  5
3B3
  8
SOL-PTACHIM
 10
11717.1160
 20
-8878.2590
 30
0.0000
 11
11725.7576
 21
-8977.0937
 31
0.0000
  0
LINE
  5
3B4
  8
SOL-PTACHIM
 10
11725.7576
 20
-8977.0937
 30
0.0000
 11
11733.1163
 21
-9077.8882
 31
0.0000
  0
LINE
  5
3B5
  8
SOL-PTACHIM
 10
11733.1163
 20
-9077.8882
 30
0.0000
 11
11739.1689
 21
-9180.3255
 31
0.0000
  0
LINE
  5
3B6
  8
SOL-PTACHIM
 10
11739.1689
 20
-9180.3255
 30
0.0000
 11
11743.8963
 21
-9284.0833
 31
0.0000
  0
LINE
  5
3B7
  8
SOL-PTACHIM
 10
11743.8963
 20
-9284.0833
 30
0.0000
 11
11747.2837
 21
-9388.8350
 31
0.0000
  0
LINE
  5
3B8
  8
SOL-PTACHIM
 10
11747.2837
 20
-9388.8350
 30
0.0000
 11
11749.3204
 21
-9494.2511
 31
0.0000
  0
LINE
  5
3B9
  8
SOL-PTACHIM
 10
11749.3204
 20
-9494.2511
 30
0.0000
 11
11750.0000
 21
-9600.0000
 31
0.0000
  0
TEXT
  5
3BA
  8
SOL-TEKST
 10
11300.0000
 20
-7502.5000
 30
0.0000
 40
58.9000
  1
\U+05D3\U+05DC\U+05EA
 50
0.0000
  7
SOLINE
 72
1
 73
2
 11
11300.0000
 21
-7502.5000
 31
0.0000
  0
LINE
  5
3BB
  8
SOL-PTACHIM
 10
11550.0000
 20
-9600.0000
 30
0.0000
 11
12450.0000
 21
-9600.0000
 31
0.0000
  0
LINE
  5
3BC
  8
SOL-PTACHIM
 10
12450.0000
 20
-9600.0000
 30
0.0000
 11
12450.0000
 21
-7500.0000
 31
0.0000
  0
LINE
  5
3BD
  8
SOL-PTACHIM
 10
12450.0000
 20
-7500.0000
 30
0.0000
 11
11550.0000
 21
-7500.0000
 31
0.0000
  0
LINE
  5
3BE
  8
SOL-PTACHIM
 10
11550.0000
 20
-7500.0000
 30
0.0000
 11
11550.0000
 21
-9600.0000
 31
0.0000
  0
LINE
  5
3BF
  8
SOL-PTACHIM
 10
11586.0000
 20
-9600.0000
 30
0.0000
 11
11586.0000
 21
-7668.0000
 31
0.0000
  0
LINE
  5
3C0
  8
SOL-PTACHIM
 10
12018.0000
 20
-7668.0000
 30
0.0000
 11
12042.2224
 21
-7671.0394
 31
0.0000
  0
LINE
  5
3C1
  8
SOL-PTACHIM
 10
12042.2224
 20
-7671.0394
 30
0.0000
 11
12066.3687
 21
-7680.1480
 31
0.0000
  0
LINE
  5
3C2
  8
SOL-PTACHIM
 10
12066.3687
 20
-7680.1480
 30
0.0000
 11
12090.3627
 21
-7695.2972
 31
0.0000
  0
LINE
  5
3C3
  8
SOL-PTACHIM
 10
12090.3627
 20
-7695.2972
 30
0.0000
 11
12114.1290
 21
-7716.4393
 31
0.0000
  0
LINE
  5
3C4
  8
SOL-PTACHIM
 10
12114.1290
 20
-7716.4393
 30
0.0000
 11
12137.5929
 21
-7743.5077
 31
0.0000
  0
LINE
  5
3C5
  8
SOL-PTACHIM
 10
12137.5929
 20
-7743.5077
 30
0.0000
 11
12160.6806
 21
-7776.4174
 31
0.0000
  0
LINE
  5
3C6
  8
SOL-PTACHIM
 10
12160.6806
 20
-7776.4174
 30
0.0000
 11
12183.3192
 21
-7815.0647
 31
0.0000
  0
LINE
  5
3C7
  8
SOL-PTACHIM
 10
12183.3192
 20
-7815.0647
 30
0.0000
 11
12205.4378
 21
-7859.3281
 31
0.0000
  0
LINE
  5
3C8
  8
SOL-PTACHIM
 10
12205.4378
 20
-7859.3281
 30
0.0000
 11
12226.9666
 21
-7909.0683
 31
0.0000
  0
LINE
  5
3C9
  8
SOL-PTACHIM
 10
12226.9666
 20
-7909.0683
 30
0.0000
 11
12247.8379
 21
-7964.1288
 31
0.0000
  0
LINE
  5
3CA
  8
SOL-PTACHIM
 10
12247.8379
 20
-7964.1288
 30
0.0000
 11
12267.9860
 21
-8024.3364
 31
0.0000
  0
LINE
  5
3CB
  8
SOL-PTACHIM
 10
12267.9860
 20
-8024.3364
 30
0.0000
 11
12287.3476
 21
-8089.5016
 31
0.0000
  0
LINE
  5
3CC
  8
SOL-PTACHIM
 10
12287.3476
 20
-8089.5016
 30
0.0000
 11
12305.8617
 21
-8159.4193
 31
0.0000
  0
LINE
  5
3CD
  8
SOL-PTACHIM
 10
12305.8617
 20
-8159.4193
 30
0.0000
 11
12323.4701
 21
-8233.8697
 31
0.0000
  0
LINE
  5
3CE
  8
SOL-PTACHIM
 10
12323.4701
 20
-8233.8697
 30
0.0000
 11
12340.1174
 21
-8312.6184
 31
0.0000
  0
LINE
  5
3CF
  8
SOL-PTACHIM
 10
12340.1174
 20
-8312.6184
 30
0.0000
 11
12355.7512
 21
-8395.4177
 31
0.0000
  0
LINE
  5
3D0
  8
SOL-PTACHIM
 10
12355.7512
 20
-8395.4177
 30
0.0000
 11
12370.3223
 21
-8482.0071
 31
0.0000
  0
LINE
  5
3D1
  8
SOL-PTACHIM
 10
12370.3223
 20
-8482.0071
 30
0.0000
 11
12383.7849
 21
-8572.1140
 31
0.0000
  0
LINE
  5
3D2
  8
SOL-PTACHIM
 10
12383.7849
 20
-8572.1140
 30
0.0000
 11
12396.0965
 21
-8665.4551
 31
0.0000
  0
LINE
  5
3D3
  8
SOL-PTACHIM
 10
12396.0965
 20
-8665.4551
 30
0.0000
 11
12407.2186
 21
-8761.7366
 31
0.0000
  0
LINE
  5
3D4
  8
SOL-PTACHIM
 10
12407.2186
 20
-8761.7366
 30
0.0000
 11
12417.1160
 21
-8860.6556
 31
0.0000
  0
LINE
  5
3D5
  8
SOL-PTACHIM
 10
12417.1160
 20
-8860.6556
 30
0.0000
 11
12425.7576
 21
-8961.9009
 31
0.0000
  0
LINE
  5
3D6
  8
SOL-PTACHIM
 10
12425.7576
 20
-8961.9009
 30
0.0000
 11
12433.1163
 21
-9065.1538
 31
0.0000
  0
LINE
  5
3D7
  8
SOL-PTACHIM
 10
12433.1163
 20
-9065.1538
 30
0.0000
 11
12439.1689
 21
-9170.0896
 31
0.0000
  0
LINE
  5
3D8
  8
SOL-PTACHIM
 10
12439.1689
 20
-9170.0896
 30
0.0000
 11
12443.8963
 21
-9276.3780
 31
0.0000
  0
LINE
  5
3D9
  8
SOL-PTACHIM
 10
12443.8963
 20
-9276.3780
 30
0.0000
 11
12447.2837
 21
-9383.6846
 31
0.0000
  0
LINE
  5
3DA
  8
SOL-PTACHIM
 10
12447.2837
 20
-9383.6846
 30
0.0000
 11
12449.3204
 21
-9491.6719
 31
0.0000
  0
LINE
  5
3DB
  8
SOL-PTACHIM
 10
12449.3204
 20
-9491.6719
 30
0.0000
 11
12450.0000
 21
-9600.0000
 31
0.0000
  0
TEXT
  5
3DC
  8
SOL-TEKST
 10
12000.0000
 20
-7452.5000
 30
0.0000
 40
58.9000
  1
\U+05DE\U+05E4\U+05EA\U+05D7 \U+05E2\U+05DD \U+05DE\U+05E9\U+05E7\U+05D5\U+05E3
 50
0.0000
  7
SOLINE
 72
1
 73
2
 11
12000.0000
 21
-7452.5000
 31
0.0000
  0
LINE
  5
3DD
  8
SOL-MIDOT-PNIM
 10
9600.0000
 20
-9640.0000
 30
0.0000
 11
9600.0000
 21
-9935.0000
 31
0.0000
  0
LINE
  5
3DE
  8
SOL-MIDOT-PNIM
 10
9950.0000
 20
-9640.0000
 30
0.0000
 11
9950.0000
 21
-9935.0000
 31
0.0000
  0
LINE
  5
3DF
  8
SOL-MIDOT-PNIM
 10
9600.0000
 20
-9885.0000
 30
0.0000
 11
9950.0000
 21
-9885.0000
 31
0.0000
  0
SOLID
  5
3E0
  8
SOL-MIDOT-PNIM
 10
9600.0000
 20
-9885.0000
 30
0.0000
 11
9514.7850
 21
-9908.7120
 31
0.0000
 12
9514.7850
 22
-9861.2880
 32
0.0000
 13
9514.7850
 23
-9861.2880
 33
0.0000
  0
SOLID
  5
3E1
  8
SOL-MIDOT-PNIM
 10
9950.0000
 20
-9885.0000
 30
0.0000
 11
10035.2150
 21
-9908.7120
 31
0.0000
 12
10035.2150
 22
-9861.2880
 32
0.0000
 13
10035.2150
 23
-9861.2880
 33
0.0000
  0
TEXT
  5
3E2
  8
SOL-MIDOT-PNIM
 10
9775.0000
 20
-9955.3950
 30
0.0000
 40
74.1000
  1
35
 50
0.0000
  7
SOLINE
 72
1
 73
2
 11
9775.0000
 21
-9955.3950
 31
0.0000
  0
LINE
  5
3E3
  8
SOL-MIDOT-PNIM
 10
9950.0000
 20
-9640.0000
 30
0.0000
 11
9950.0000
 21
-9935.0000
 31
0.0000
  0
LINE
  5
3E4
  8
SOL-MIDOT-PNIM
 10
10600.0000
 20
-9640.0000
 30
0.0000
 11
10600.0000
 21
-9935.0000
 31
0.0000
  0
LINE
  5
3E5
  8
SOL-MIDOT-PNIM
 10
9950.0000
 20
-9885.0000
 30
0.0000
 11
10600.0000
 21
-9885.0000
 31
0.0000
  0
SOLID
  5
3E6
  8
SOL-MIDOT-PNIM
 10
9950.0000
 20
-9885.0000
 30
0.0000
 11
9864.7850
 21
-9908.7120
 31
0.0000
 12
9864.7850
 22
-9861.2880
 32
0.0000
 13
9864.7850
 23
-9861.2880
 33
0.0000
  0
SOLID
  5
3E7
  8
SOL-MIDOT-PNIM
 10
10600.0000
 20
-9885.0000
 30
0.0000
 11
10685.2150
 21
-9908.7120
 31
0.0000
 12
10685.2150
 22
-9861.2880
 32
0.0000
 13
10685.2150
 23
-9861.2880
 33
0.0000
  0
TEXT
  5
3E8
  8
SOL-MIDOT-PNIM
 10
10275.0000
 20
-9955.3950
 30
0.0000
 40
74.1000
  1
65
 50
0.0000
  7
SOLINE
 72
1
 73
2
 11
10275.0000
 21
-9955.3950
 31
0.0000
  0
LINE
  5
3E9
  8
SOL-MIDOT-PNIM
 10
10600.0000
 20
-9640.0000
 30
0.0000
 11
10600.0000
 21
-9935.0000
 31
0.0000
  0
LINE
  5
3EA
  8
SOL-MIDOT-PNIM
 10
11300.0000
 20
-9640.0000
 30
0.0000
 11
11300.0000
 21
-9935.0000
 31
0.0000
  0
LINE
  5
3EB
  8
SOL-MIDOT-PNIM
 10
10600.0000
 20
-9885.0000
 30
0.0000
 11
11300.0000
 21
-9885.0000
 31
0.0000
  0
SOLID
  5
3EC
  8
SOL-MIDOT-PNIM
 10
10600.0000
 20
-9885.0000
 30
0.0000
 11
10514.7850
 21
-9908.7120
 31
0.0000
 12
10514.7850
 22
-9861.2880
 32
0.0000
 13
10514.7850
 23
-9861.2880
 33
0.0000
  0
SOLID
  5
3ED
  8
SOL-MIDOT-PNIM
 10
11300.0000
 20
-9885.0000
 30
0.0000
 11
11385.2150
 21
-9908.7120
 31
0.0000
 12
11385.2150
 22
-9861.2880
 32
0.0000
 13
11385.2150
 23
-9861.2880
 33
0.0000
  0
TEXT
  5
3EE
  8
SOL-MIDOT-PNIM
 10
10950.0000
 20
-9955.3950
 30
0.0000
 40
74.1000
  1
70
 50
0.0000
  7
SOLINE
 72
1
 73
2
 11
10950.0000
 21
-9955.3950
 31
0.0000
  0
LINE
  5
3EF
  8
SOL-MIDOT-PNIM
 10
11300.0000
 20
-9640.0000
 30
0.0000
 11
11300.0000
 21
-9935.0000
 31
0.0000
  0
LINE
  5
3F0
  8
SOL-MIDOT-PNIM
 10
12000.0000
 20
-9640.0000
 30
0.0000
 11
12000.0000
 21
-9935.0000
 31
0.0000
  0
LINE
  5
3F1
  8
SOL-MIDOT-PNIM
 10
11300.0000
 20
-9885.0000
 30
0.0000
 11
12000.0000
 21
-9885.0000
 31
0.0000
  0
SOLID
  5
3F2
  8
SOL-MIDOT-PNIM
 10
11300.0000
 20
-9885.0000
 30
0.0000
 11
11214.7850
 21
-9908.7120
 31
0.0000
 12
11214.7850
 22
-9861.2880
 32
0.0000
 13
11214.7850
 23
-9861.2880
 33
0.0000
  0
SOLID
  5
3F3
  8
SOL-MIDOT-PNIM
 10
12000.0000
 20
-9885.0000
 30
0.0000
 11
12085.2150
 21
-9908.7120
 31
0.0000
 12
12085.2150
 22
-9861.2880
 32
0.0000
 13
12085.2150
 23
-9861.2880
 33
0.0000
  0
TEXT
  5
3F4
  8
SOL-MIDOT-PNIM
 10
11650.0000
 20
-9955.3950
 30
0.0000
 40
74.1000
  1
70
 50
0.0000
  7
SOLINE
 72
1
 73
2
 11
11650.0000
 21
-9955.3950
 31
0.0000
  0
LINE
  5
3F5
  8
SOL-MIDOT-PNIM
 10
12000.0000
 20
-9640.0000
 30
0.0000
 11
12000.0000
 21
-9935.0000
 31
0.0000
  0
LINE
  5
3F6
  8
SOL-MIDOT-PNIM
 10
12700.0000
 20
-9640.0000
 30
0.0000
 11
12700.0000
 21
-9935.0000
 31
0.0000
  0
LINE
  5
3F7
  8
SOL-MIDOT-PNIM
 10
12000.0000
 20
-9885.0000
 30
0.0000
 11
12700.0000
 21
-9885.0000
 31
0.0000
  0
SOLID
  5
3F8
  8
SOL-MIDOT-PNIM
 10
12000.0000
 20
-9885.0000
 30
0.0000
 11
11914.7850
 21
-9908.7120
 31
0.0000
 12
11914.7850
 22
-9861.2880
 32
0.0000
 13
11914.7850
 23
-9861.2880
 33
0.0000
  0
SOLID
  5
3F9
  8
SOL-MIDOT-PNIM
 10
12700.0000
 20
-9885.0000
 30
0.0000
 11
12785.2150
 21
-9908.7120
 31
0.0000
 12
12785.2150
 22
-9861.2880
 32
0.0000
 13
12785.2150
 23
-9861.2880
 33
0.0000
  0
TEXT
  5
3FA
  8
SOL-MIDOT-PNIM
 10
12350.0000
 20
-9955.3950
 30
0.0000
 40
74.1000
  1
70
 50
0.0000
  7
SOLINE
 72
1
 73
2
 11
12350.0000
 21
-9955.3950
 31
0.0000
  0
LINE
  5
3FB
  8
SOL-MIDOT-PNIM
 10
12700.0000
 20
-9640.0000
 30
0.0000
 11
12700.0000
 21
-9935.0000
 31
0.0000
  0
LINE
  5
3FC
  8
SOL-MIDOT-PNIM
 10
13600.0000
 20
-9640.0000
 30
0.0000
 11
13600.0000
 21
-9935.0000
 31
0.0000
  0
LINE
  5
3FD
  8
SOL-MIDOT-PNIM
 10
12700.0000
 20
-9885.0000
 30
0.0000
 11
13600.0000
 21
-9885.0000
 31
0.0000
  0
SOLID
  5
3FE
  8
SOL-MIDOT-PNIM
 10
12700.0000
 20
-9885.0000
 30
0.0000
 11
12614.7850
 21
-9908.7120
 31
0.0000
 12
12614.7850
 22
-9861.2880
 32
0.0000
 13
12614.7850
 23
-9861.2880
 33
0.0000
  0
SOLID
  5
3FF
  8
SOL-MIDOT-PNIM
 10
13600.0000
 20
-9885.0000
 30
0.0000
 11
13685.2150
 21
-9908.7120
 31
0.0000
 12
13685.2150
 22
-9861.2880
 32
0.0000
 13
13685.2150
 23
-9861.2880
 33
0.0000
  0
TEXT
  5
400
  8
SOL-MIDOT-PNIM
 10
13150.0000
 20
-9955.3950
 30
0.0000
 40
74.1000
  1
90
 50
0.0000
  7
SOLINE
 72
1
 73
2
 11
13150.0000
 21
-9955.3950
 31
0.0000
  0
LINE
  5
401
  8
SOL-MIDOT-CHUTS
 10
9600.0000
 20
-9640.0000
 30
0.0000
 11
9600.0000
 21
-10322.0000
 31
0.0000
  0
LINE
  5
402
  8
SOL-MIDOT-CHUTS
 10
13600.0000
 20
-9640.0000
 30
0.0000
 11
13600.0000
 21
-10322.0000
 31
0.0000
  0
LINE
  5
403
  8
SOL-MIDOT-CHUTS
 10
9600.0000
 20
-10265.0000
 30
0.0000
 11
13600.0000
 21
-10265.0000
 31
0.0000
  0
SOLID
  5
404
  8
SOL-MIDOT-CHUTS
 10
9600.0000
 20
-10265.0000
 30
0.0000
 11
9490.7500
 21
-10295.4000
 31
0.0000
 12
9490.7500
 22
-10234.6000
 32
0.0000
 13
9490.7500
 23
-10234.6000
 33
0.0000
  0
SOLID
  5
405
  8
SOL-MIDOT-CHUTS
 10
13600.0000
 20
-10265.0000
 30
0.0000
 11
13709.2500
 21
-10295.4000
 31
0.0000
 12
13709.2500
 22
-10234.6000
 32
0.0000
 13
13709.2500
 23
-10234.6000
 33
0.0000
  0
TEXT
  5
406
  8
SOL-MIDOT-CHUTS
 10
11600.0000
 20
-10355.2500
 30
0.0000
 40
95.0000
  1
400
 50
0.0000
  7
SOLINE
 72
1
 73
2
 11
11600.0000
 21
-10355.2500
 31
0.0000
  0
LINE
  5
407
  8
SOL-MIDOT-CHUTS
 10
9560.0000
 20
-9600.0000
 30
0.0000
 11
8973.0000
 21
-9600.0000
 31
0.0000
  0
LINE
  5
408
  8
SOL-MIDOT-CHUTS
 10
9560.0000
 20
-7000.0000
 30
0.0000
 11
8973.0000
 21
-7000.0000
 31
0.0000
  0
LINE
  5
409
  8
SOL-MIDOT-CHUTS
 10
9030.0000
 20
-9600.0000
 30
0.0000
 11
9030.0000
 21
-7000.0000
 31
0.0000
  0
SOLID
  5
40A
  8
SOL-MIDOT-CHUTS
 10
9030.0000
 20
-9600.0000
 30
0.0000
 11
8999.6000
 21
-9709.2500
 31
0.0000
 12
9060.4000
 22
-9709.2500
 32
0.0000
 13
9060.4000
 23
-9709.2500
 33
0.0000
  0
SOLID
  5
40B
  8
SOL-MIDOT-CHUTS
 10
9030.0000
 20
-7000.0000
 30
0.0000
 11
8999.6000
 21
-6890.7500
 31
0.0000
 12
9060.4000
 22
-6890.7500
 32
0.0000
 13
9060.4000
 23
-6890.7500
 33
0.0000
  0
TEXT
  5
40C
  8
SOL-MIDOT-CHUTS
 10
8939.7500
 20
-8300.0000
 30
0.0000
 40
95.0000
  1
260
 50
90.0000
  7
SOLINE
 72
1
 73
2
 11
8939.7500
 21
-8300.0000
 31
0.0000
  0
LINE
  5
40D
  8
SOL-MIDOT-PNIM
 10
9560.0000
 20
-9600.0000
 30
0.0000
 11
9303.0000
 21
-9600.0000
 31
0.0000
  0
LINE
  5
40E
  8
SOL-MIDOT-PNIM
 10
9560.0000
 20
-8700.0000
 30
0.0000
 11
9303.0000
 21
-8700.0000
 31
0.0000
  0
LINE
  5
40F
  8
SOL-MIDOT-PNIM
 10
9353.0000
 20
-9600.0000
 30
0.0000
 11
9353.0000
 21
-8700.0000
 31
0.0000
  0
SOLID
  5
410
  8
SOL-MIDOT-PNIM
 10
9353.0000
 20
-9600.0000
 30
0.0000
 11
9329.2880
 21
-9685.2150
 31
0.0000
 12
9376.7120
 22
-9685.2150
 32
0.0000
 13
9376.7120
 23
-9685.2150
 33
0.0000
  0
SOLID
  5
411
  8
SOL-MIDOT-PNIM
 10
9353.0000
 20
-8700.0000
 30
0.0000
 11
9329.2880
 21
-8614.7850
 31
0.0000
 12
9376.7120
 22
-8614.7850
 32
0.0000
 13
9376.7120
 23
-8614.7850
 33
0.0000
  0
TEXT
  5
412
  8
SOL-MIDOT-PNIM
 10
9282.6050
 20
-9150.0000
 30
0.0000
 40
74.1000
  1
90
 50
90.0000
  7
SOLINE
 72
1
 73
2
 11
9282.6050
 21
-9150.0000
 31
0.0000
  0
TEXT
  5
413
  8
SOL-TEKST
 10
11600.0000
 20
-10217.5000
 30
0.0000
 40
123.5000
  1
\U+05E7\U+05D9\U+05E8 3
 50
0.0000
  7
SOLINE
 72
1
 73
2
 11
11600.0000
 21
-10217.5000
 31
0.0000
  0
LINE
  5
414
  8
SOL-KIROT
 10
15400.0000
 20
-9600.0000
 30
0.0000
 11
18400.0000
 21
-9600.0000
 31
0.0000
  0
LINE
  5
415
  8
SOL-KIROT
 10
18400.0000
 20
-9600.0000
 30
0.0000
 11
18400.0000
 21
-7000.0000
 31
0.0000
  0
LINE
  5
416
  8
SOL-KIROT
 10
18400.0000
 20
-7000.0000
 30
0.0000
 11
15400.0000
 21
-7000.0000
 31
0.0000
  0
LINE
  5
417
  8
SOL-KIROT
 10
15400.0000
 20
-7000.0000
 30
0.0000
 11
15400.0000
 21
-9600.0000
 31
0.0000
  0
LINE
  5
418
  8
SOL-MIVNE
 10
15200.0000
 20
-7600.0000
 30
0.0000
 11
16200.0000
 21
-7600.0000
 31
0.0000
  0
LINE
  5
419
  8
SOL-MIVNE
 10
16200.0000
 20
-7600.0000
 30
0.0000
 11
16200.0000
 21
-7000.0000
 31
0.0000
  0
LINE
  5
41A
  8
SOL-MIVNE
 10
16200.0000
 20
-7000.0000
 30
0.0000
 11
15200.0000
 21
-7000.0000
 31
0.0000
  0
LINE
  5
41B
  8
SOL-MIVNE
 10
15200.0000
 20
-7000.0000
 30
0.0000
 11
15200.0000
 21
-7600.0000
 31
0.0000
  0
LINE
  5
41C
  8
SOL-MIVNE
 10
15200.0000
 20
-7228.0000
 30
0.0000
 11
16200.0000
 21
-7228.0000
 31
0.0000
  0
LINE
  5
41D
  8
SOL-MIVNE
 10
16200.0000
 20
-7228.0000
 30
0.0000
 11
16200.0000
 21
-7372.0000
 31
0.0000
  0
LINE
  5
41E
  8
SOL-MIVNE
 10
16200.0000
 20
-7372.0000
 30
0.0000
 11
15200.0000
 21
-7372.0000
 31
0.0000
  0
LINE
  5
41F
  8
SOL-MIVNE
 10
15200.0000
 20
-7372.0000
 30
0.0000
 11
15200.0000
 21
-7228.0000
 31
0.0000
  0
TEXT
  5
420
  8
SOL-TEKST
 10
15700.0000
 20
-6952.5000
 30
0.0000
 40
58.9000
  1
\U+05D4\U+05E0\U+05DE\U+05DB\U+05EA \U+05EA\U+05E7\U+05E8\U+05D4
 50
0.0000
  7
SOLINE
 72
1
 73
2
 11
15700.0000
 21
-6952.5000
 31
0.0000
  0
LINE
  5
421
  8
SOL-MIVNE
 10
16400.0000
 20
-9600.0000
 30
0.0000
 11
17000.0000
 21
-9600.0000
 31
0.0000
  0
LINE
  5
422
  8
SOL-MIVNE
 10
17000.0000
 20
-9600.0000
 30
0.0000
 11
17000.0000
 21
-9550.0000
 31
0.0000
  0
LINE
  5
423
  8
SOL-MIVNE
 10
17000.0000
 20
-9550.0000
 30
0.0000
 11
16400.0000
 21
-9550.0000
 31
0.0000
  0
LINE
  5
424
  8
SOL-MIVNE
 10
16400.0000
 20
-9550.0000
 30
0.0000
 11
16400.0000
 21
-9600.0000
 31
0.0000
  0
LINE
  5
425
  8
SOL-MIVNE
 10
16484.0000
 20
-9557.0000
 30
0.0000
 11
16916.0000
 21
-9557.0000
 31
0.0000
  0
LINE
  5
426
  8
SOL-MIVNE
 10
16916.0000
 20
-9557.0000
 30
0.0000
 11
16916.0000
 21
-9593.0000
 31
0.0000
  0
LINE
  5
427
  8
SOL-MIVNE
 10
16916.0000
 20
-9593.0000
 30
0.0000
 11
16484.0000
 21
-9593.0000
 31
0.0000
  0
LINE
  5
428
  8
SOL-MIVNE
 10
16484.0000
 20
-9593.0000
 30
0.0000
 11
16484.0000
 21
-9557.0000
 31
0.0000
  0
LINE
  5
429
  8
SOL-MIVNE
 10
16880.0000
 20
-9572.0000
 30
0.0000
 11
16916.0000
 21
-9575.0000
 31
0.0000
  0
LINE
  5
42A
  8
SOL-MIVNE
 10
16916.0000
 20
-9575.0000
 30
0.0000
 11
16880.0000
 21
-9578.0000
 31
0.0000
  0
TEXT
  5
42B
  8
SOL-TEKST
 10
16700.0000
 20
-9502.5000
 30
0.0000
 40
58.9000
  1
\U+05E4\U+05D0\U+05E0\U+05DC
 50
0.0000
  7
SOLINE
 72
1
 73
2
 11
16700.0000
 21
-9502.5000
 31
0.0000
  0
LINE
  5
42C
  8
SOL-MIDOT-PNIM
 10
15400.0000
 20
-9640.0000
 30
0.0000
 11
15400.0000
 21
-9935.0000
 31
0.0000
  0
LINE
  5
42D
  8
SOL-MIDOT-PNIM
 10
15700.0000
 20
-9640.0000
 30
0.0000
 11
15700.0000
 21
-9935.0000
 31
0.0000
  0
LINE
  5
42E
  8
SOL-MIDOT-PNIM
 10
15400.0000
 20
-9885.0000
 30
0.0000
 11
15700.0000
 21
-9885.0000
 31
0.0000
  0
SOLID
  5
42F
  8
SOL-MIDOT-PNIM
 10
15400.0000
 20
-9885.0000
 30
0.0000
 11
15314.7850
 21
-9908.7120
 31
0.0000
 12
15314.7850
 22
-9861.2880
 32
0.0000
 13
15314.7850
 23
-9861.2880
 33
0.0000
  0
SOLID
  5
430
  8
SOL-MIDOT-PNIM
 10
15700.0000
 20
-9885.0000
 30
0.0000
 11
15785.2150
 21
-9908.7120
 31
0.0000
 12
15785.2150
 22
-9861.2880
 32
0.0000
 13
15785.2150
 23
-9861.2880
 33
0.0000
  0
TEXT
  5
431
  8
SOL-MIDOT-PNIM
 10
15550.0000
 20
-9955.3950
 30
0.0000
 40
74.1000
  1
30
 50
0.0000
  7
SOLINE
 72
1
 73
2
 11
15550.0000
 21
-9955.3950
 31
0.0000
  0
LINE
  5
432
  8
SOL-MIDOT-PNIM
 10
15700.0000
 20
-9640.0000
 30
0.0000
 11
15700.0000
 21
-9935.0000
 31
0.0000
  0
LINE
  5
433
  8
SOL-MIDOT-PNIM
 10
16700.0000
 20
-9640.0000
 30
0.0000
 11
16700.0000
 21
-9935.0000
 31
0.0000
  0
LINE
  5
434
  8
SOL-MIDOT-PNIM
 10
15700.0000
 20
-9885.0000
 30
0.0000
 11
16700.0000
 21
-9885.0000
 31
0.0000
  0
SOLID
  5
435
  8
SOL-MIDOT-PNIM
 10
15700.0000
 20
-9885.0000
 30
0.0000
 11
15614.7850
 21
-9908.7120
 31
0.0000
 12
15614.7850
 22
-9861.2880
 32
0.0000
 13
15614.7850
 23
-9861.2880
 33
0.0000
  0
SOLID
  5
436
  8
SOL-MIDOT-PNIM
 10
16700.0000
 20
-9885.0000
 30
0.0000
 11
16785.2150
 21
-9908.7120
 31
0.0000
 12
16785.2150
 22
-9861.2880
 32
0.0000
 13
16785.2150
 23
-9861.2880
 33
0.0000
  0
TEXT
  5
437
  8
SOL-MIDOT-PNIM
 10
16200.0000
 20
-9955.3950
 30
0.0000
 40
74.1000
  1
100
 50
0.0000
  7
SOLINE
 72
1
 73
2
 11
16200.0000
 21
-9955.3950
 31
0.0000
  0
LINE
  5
438
  8
SOL-MIDOT-PNIM
 10
16700.0000
 20
-9640.0000
 30
0.0000
 11
16700.0000
 21
-9935.0000
 31
0.0000
  0
LINE
  5
439
  8
SOL-MIDOT-PNIM
 10
18400.0000
 20
-9640.0000
 30
0.0000
 11
18400.0000
 21
-9935.0000
 31
0.0000
  0
LINE
  5
43A
  8
SOL-MIDOT-PNIM
 10
16700.0000
 20
-9885.0000
 30
0.0000
 11
18400.0000
 21
-9885.0000
 31
0.0000
  0
SOLID
  5
43B
  8
SOL-MIDOT-PNIM
 10
16700.0000
 20
-9885.0000
 30
0.0000
 11
16614.7850
 21
-9908.7120
 31
0.0000
 12
16614.7850
 22
-9861.2880
 32
0.0000
 13
16614.7850
 23
-9861.2880
 33
0.0000
  0
SOLID
  5
43C
  8
SOL-MIDOT-PNIM
 10
18400.0000
 20
-9885.0000
 30
0.0000
 11
18485.2150
 21
-9908.7120
 31
0.0000
 12
18485.2150
 22
-9861.2880
 32
0.0000
 13
18485.2150
 23
-9861.2880
 33
0.0000
  0
TEXT
  5
43D
  8
SOL-MIDOT-PNIM
 10
17550.0000
 20
-9955.3950
 30
0.0000
 40
74.1000
  1
170
 50
0.0000
  7
SOLINE
 72
1
 73
2
 11
17550.0000
 21
-9955.3950
 31
0.0000
  0
LINE
  5
43E
  8
SOL-MIDOT-CHUTS
 10
15400.0000
 20
-9640.0000
 30
0.0000
 11
15400.0000
 21
-10322.0000
 31
0.0000
  0
LINE
  5
43F
  8
SOL-MIDOT-CHUTS
 10
18400.0000
 20
-9640.0000
 30
0.0000
 11
18400.0000
 21
-10322.0000
 31
0.0000
  0
LINE
  5
440
  8
SOL-MIDOT-CHUTS
 10
15400.0000
 20
-10265.0000
 30
0.0000
 11
18400.0000
 21
-10265.0000
 31
0.0000
  0
SOLID
  5
441
  8
SOL-MIDOT-CHUTS
 10
15400.0000
 20
-10265.0000
 30
0.0000
 11
15290.7500
 21
-10295.4000
 31
0.0000
 12
15290.7500
 22
-10234.6000
 32
0.0000
 13
15290.7500
 23
-10234.6000
 33
0.0000
  0
SOLID
  5
442
  8
SOL-MIDOT-CHUTS
 10
18400.0000
 20
-10265.0000
 30
0.0000
 11
18509.2500
 21
-10295.4000
 31
0.0000
 12
18509.2500
 22
-10234.6000
 32
0.0000
 13
18509.2500
 23
-10234.6000
 33
0.0000
  0
TEXT
  5
443
  8
SOL-MIDOT-CHUTS
 10
16900.0000
 20
-10355.2500
 30
0.0000
 40
95.0000
  1
300
 50
0.0000
  7
SOLINE
 72
1
 73
2
 11
16900.0000
 21
-10355.2500
 31
0.0000
  0
LINE
  5
444
  8
SOL-MIDOT-CHUTS
 10
15360.0000
 20
-9600.0000
 30
0.0000
 11
14773.0000
 21
-9600.0000
 31
0.0000
  0
LINE
  5
445
  8
SOL-MIDOT-CHUTS
 10
15360.0000
 20
-7000.0000
 30
0.0000
 11
14773.0000
 21
-7000.0000
 31
0.0000
  0
LINE
  5
446
  8
SOL-MIDOT-CHUTS
 10
14830.0000
 20
-9600.0000
 30
0.0000
 11
14830.0000
 21
-7000.0000
 31
0.0000
  0
SOLID
  5
447
  8
SOL-MIDOT-CHUTS
 10
14830.0000
 20
-9600.0000
 30
0.0000
 11
14799.6000
 21
-9709.2500
 31
0.0000
 12
14860.4000
 22
-9709.2500
 32
0.0000
 13
14860.4000
 23
-9709.2500
 33
0.0000
  0
SOLID
  5
448
  8
SOL-MIDOT-CHUTS
 10
14830.0000
 20
-7000.0000
 30
0.0000
 11
14799.6000
 21
-6890.7500
 31
0.0000
 12
14860.4000
 22
-6890.7500
 32
0.0000
 13
14860.4000
 23
-6890.7500
 33
0.0000
  0
TEXT
  5
449
  8
SOL-MIDOT-CHUTS
 10
14739.7500
 20
-8300.0000
 30
0.0000
 40
95.0000
  1
260
 50
90.0000
  7
SOLINE
 72
1
 73
2
 11
14739.7500
 21
-8300.0000
 31
0.0000
  0
LINE
  5
44A
  8
SOL-MIDOT-PNIM
 10
15360.0000
 20
-9600.0000
 30
0.0000
 11
15103.0000
 21
-9600.0000
 31
0.0000
  0
LINE
  5
44B
  8
SOL-MIDOT-PNIM
 10
15360.0000
 20
-7600.0000
 30
0.0000
 11
15103.0000
 21
-7600.0000
 31
0.0000
  0
LINE
  5
44C
  8
SOL-MIDOT-PNIM
 10
15153.0000
 20
-9600.0000
 30
0.0000
 11
15153.0000
 21
-7600.0000
 31
0.0000
  0
SOLID
  5
44D
  8
SOL-MIDOT-PNIM
 10
15153.0000
 20
-9600.0000
 30
0.0000
 11
15129.2880
 21
-9685.2150
 31
0.0000
 12
15176.7120
 22
-9685.2150
 32
0.0000
 13
15176.7120
 23
-9685.2150
 33
0.0000
  0
SOLID
  5
44E
  8
SOL-MIDOT-PNIM
 10
15153.0000
 20
-7600.0000
 30
0.0000
 11
15129.2880
 21
-7514.7850
 31
0.0000
 12
15176.7120
 22
-7514.7850
 32
0.0000
 13
15176.7120
 23
-7514.7850
 33
0.0000
  0
TEXT
  5
44F
  8
SOL-MIDOT-PNIM
 10
15082.6050
 20
-8600.0000
 30
0.0000
 40
74.1000
  1
200
 50
90.0000
  7
SOLINE
 72
1
 73
2
 11
15082.6050
 21
-8600.0000
 31
0.0000
  0
TEXT
  5
450
  8
SOL-TEKST
 10
16900.0000
 20
-10217.5000
 30
0.0000
 40
123.5000
  1
\U+05E7\U+05D9\U+05E8 4
 50
0.0000
  7
SOLINE
 72
1
 73
2
 11
16900.0000
 21
-10217.5000
 31
0.0000
  0
ENDSEC
  0
EOF
