0
SECTION
2
TABLES
0
TABLE
2
STYLE
70
1
0
STYLE
2
HEB
70
0
40
0
41
1
50
0
71
0
42
2.5
3
Arial.ttf
4

0
ENDTAB
0
ENDSEC
0
SECTION
2
ENTITIES
0
LINE
8
KIROT
10
3070.00
20
3319.00
30
0
11
3070.00
21
2540.00
31
0
0
LINE
8
KIROT
10
3070.00
20
2540.00
30
0
11
7555.00
21
2540.00
31
0
0
LINE
8
GVUL
10
7095.00
20
2540.00
30
0
11
7255.00
21
2540.00
31
0
0
LINE
8
GVUL
10
7255.00
20
2540.00
30
0
11
7255.00
21
2620.00
31
0
0
LINE
8
GVUL
10
7255.00
20
2620.00
30
0
11
7095.00
21
2620.00
31
0
0
LINE
8
GVUL
10
7095.00
20
2620.00
30
0
11
7095.00
21
2540.00
31
0
0
LINE
8
ITEM
10
7116.12
20
2569.12
30
0
11
7233.88
21
2569.12
31
0
0
LINE
8
ITEM
10
7168.60
20
2569.12
30
0
11
7167.48
21
2572.48
31
0
0
LINE
8
ITEM
10
7167.48
20
2572.48
30
0
11
7164.44
21
2575.52
31
0
0
LINE
8
ITEM
10
7164.44
20
2575.52
30
0
11
7159.64
21
2577.92
31
0
0
LINE
8
ITEM
10
7159.64
20
2577.92
30
0
11
7153.56
21
2579.44
31
0
0
LINE
8
ITEM
10
7153.56
20
2579.44
30
0
11
7146.84
21
2580.00
31
0
0
LINE
8
ITEM
10
7146.84
20
2580.00
30
0
11
7140.12
21
2579.44
31
0
0
LINE
8
ITEM
10
7140.12
20
2579.44
30
0
11
7134.04
21
2577.92
31
0
0
LINE
8
ITEM
10
7134.04
20
2577.92
30
0
11
7129.24
21
2575.52
31
0
0
LINE
8
ITEM
10
7129.24
20
2575.52
30
0
11
7126.20
21
2572.48
31
0
0
LINE
8
ITEM
10
7126.20
20
2572.48
30
0
11
7125.08
21
2569.12
31
0
0
LINE
8
ITEM
10
7125.08
20
2569.12
30
0
11
7168.60
21
2569.12
31
0
0
LINE
8
ITEM
10
7146.84
20
2569.12
30
0
11
7146.84
21
2580.00
31
0
0
LINE
8
ITEM
10
7224.92
20
2569.12
30
0
11
7223.80
21
2572.48
31
0
0
LINE
8
ITEM
10
7223.80
20
2572.48
30
0
11
7220.76
21
2575.52
31
0
0
LINE
8
ITEM
10
7220.76
20
2575.52
30
0
11
7215.96
21
2577.92
31
0
0
LINE
8
ITEM
10
7215.96
20
2577.92
30
0
11
7209.88
21
2579.44
31
0
0
LINE
8
ITEM
10
7209.88
20
2579.44
30
0
11
7203.16
21
2580.00
31
0
0
LINE
8
ITEM
10
7203.16
20
2580.00
30
0
11
7196.44
21
2579.44
31
0
0
LINE
8
ITEM
10
7196.44
20
2579.44
30
0
11
7190.36
21
2577.92
31
0
0
LINE
8
ITEM
10
7190.36
20
2577.92
30
0
11
7185.56
21
2575.52
31
0
0
LINE
8
ITEM
10
7185.56
20
2575.52
30
0
11
7182.52
21
2572.48
31
0
0
LINE
8
ITEM
10
7182.52
20
2572.48
30
0
11
7181.40
21
2569.12
31
0
0
LINE
8
ITEM
10
7181.40
20
2569.12
30
0
11
7224.92
21
2569.12
31
0
0
LINE
8
ITEM
10
7203.16
20
2569.12
30
0
11
7203.16
21
2580.00
31
0
0
TEXT
8
LABELS
7
HEB
10
7095.00
20
2650.00
30
0
40
40.0
1
Duplex Socket
0
LINE
8
GVUL
10
6801.00
20
2540.00
30
0
11
6881.00
21
2540.00
31
0
0
LINE
8
GVUL
10
6881.00
20
2540.00
30
0
11
6881.00
21
2620.00
31
0
0
LINE
8
GVUL
10
6881.00
20
2620.00
30
0
11
6801.00
21
2620.00
31
0
0
LINE
8
GVUL
10
6801.00
20
2620.00
30
0
11
6801.00
21
2540.00
31
0
0
LINE
8
ITEM
10
6820.52
20
2559.52
30
0
11
6861.48
21
2559.52
31
0
0
LINE
8
ITEM
10
6861.48
20
2559.52
30
0
11
6861.48
21
2600.48
31
0
0
LINE
8
ITEM
10
6861.48
20
2600.48
30
0
11
6820.52
21
2600.48
31
0
0
LINE
8
ITEM
10
6820.52
20
2600.48
30
0
11
6820.52
21
2559.52
31
0
0
LINE
8
ITEM
10
6820.52
20
2559.52
30
0
11
6861.48
21
2600.48
31
0
0
LINE
8
ITEM
10
6820.52
20
2600.48
30
0
11
6861.48
21
2559.52
31
0
0
TEXT
8
LABELS
7
HEB
10
6801.00
20
2650.00
30
0
40
40.0
1
Junction Box
0
LINE
8
GVUL
10
5775.00
20
2540.00
30
0
11
5855.00
21
2540.00
31
0
0
LINE
8
GVUL
10
5855.00
20
2540.00
30
0
11
5855.00
21
2620.00
31
0
0
LINE
8
GVUL
10
5855.00
20
2620.00
30
0
11
5775.00
21
2620.00
31
0
0
LINE
8
GVUL
10
5775.00
20
2620.00
30
0
11
5775.00
21
2540.00
31
0
0
LINE
8
ITEM
10
5786.20
20
2558.24
30
0
11
5843.80
21
2558.24
31
0
0
LINE
8
ITEM
10
5836.76
20
2558.24
30
0
11
5835.72
21
2564.96
31
0
0
LINE
8
ITEM
10
5835.72
20
2564.96
30
0
11
5832.60
21
2571.04
31
0
0
LINE
8
ITEM
10
5832.60
20
2571.04
30
0
11
5827.80
21
2575.84
31
0
0
LINE
8
ITEM
10
5827.80
20
2575.84
30
0
11
5821.72
21
2578.96
31
0
0
LINE
8
ITEM
10
5821.72
20
2578.96
30
0
11
5815.00
21
2580.00
31
0
0
LINE
8
ITEM
10
5815.00
20
2580.00
30
0
11
5808.28
21
2578.96
31
0
0
LINE
8
ITEM
10
5808.28
20
2578.96
30
0
11
5802.20
21
2575.84
31
0
0
LINE
8
ITEM
10
5802.20
20
2575.84
30
0
11
5797.40
21
2571.04
31
0
0
LINE
8
ITEM
10
5797.40
20
2571.04
30
0
11
5794.28
21
2564.96
31
0
0
LINE
8
ITEM
10
5794.28
20
2564.96
30
0
11
5793.24
21
2558.24
31
0
0
LINE
8
ITEM
10
5793.24
20
2558.24
30
0
11
5836.76
21
2558.24
31
0
0
LINE
8
ITEM
10
5815.00
20
2558.24
30
0
11
5815.00
21
2580.00
31
0
0
TEXT
8
LABELS
7
HEB
10
5775.00
20
2650.00
30
0
40
40.0
1
Socket
0
LINE
8
GVUL
10
5625.00
20
2540.00
30
0
11
5705.00
21
2540.00
31
0
0
LINE
8
GVUL
10
5705.00
20
2540.00
30
0
11
5705.00
21
2620.00
31
0
0
LINE
8
GVUL
10
5705.00
20
2620.00
30
0
11
5625.00
21
2620.00
31
0
0
LINE
8
GVUL
10
5625.00
20
2620.00
30
0
11
5625.00
21
2540.00
31
0
0
LINE
8
ITEM
10
5636.20
20
2558.24
30
0
11
5693.80
21
2558.24
31
0
0
LINE
8
ITEM
10
5686.76
20
2558.24
30
0
11
5685.72
21
2564.96
31
0
0
LINE
8
ITEM
10
5685.72
20
2564.96
30
0
11
5682.60
21
2571.04
31
0
0
LINE
8
ITEM
10
5682.60
20
2571.04
30
0
11
5677.80
21
2575.84
31
0
0
LINE
8
ITEM
10
5677.80
20
2575.84
30
0
11
5671.72
21
2578.96
31
0
0
LINE
8
ITEM
10
5671.72
20
2578.96
30
0
11
5665.00
21
2580.00
31
0
0
LINE
8
ITEM
10
5665.00
20
2580.00
30
0
11
5658.28
21
2578.96
31
0
0
LINE
8
ITEM
10
5658.28
20
2578.96
30
0
11
5652.20
21
2575.84
31
0
0
LINE
8
ITEM
10
5652.20
20
2575.84
30
0
11
5647.40
21
2571.04
31
0
0
LINE
8
ITEM
10
5647.40
20
2571.04
30
0
11
5644.28
21
2564.96
31
0
0
LINE
8
ITEM
10
5644.28
20
2564.96
30
0
11
5643.24
21
2558.24
31
0
0
LINE
8
ITEM
10
5643.24
20
2558.24
30
0
11
5686.76
21
2558.24
31
0
0
LINE
8
ITEM
10
5665.00
20
2558.24
30
0
11
5665.00
21
2580.00
31
0
0
TEXT
8
LABELS
7
HEB
10
5625.00
20
2650.00
30
0
40
40.0
1
Socket
0
LINE
8
GVUL
10
5691.00
20
2540.00
30
0
11
5711.00
21
2540.00
31
0
0
LINE
8
GVUL
10
5711.00
20
2540.00
30
0
11
5711.00
21
2560.00
31
0
0
LINE
8
GVUL
10
5711.00
20
2560.00
30
0
11
5691.00
21
2560.00
31
0
0
LINE
8
GVUL
10
5691.00
20
2560.00
30
0
11
5691.00
21
2540.00
31
0
0
LINE
8
ITEM
10
5706.82
20
2553.36
30
0
11
5701.00
21
2556.72
31
0
0
LINE
8
ITEM
10
5701.00
20
2556.72
30
0
11
5695.18
21
2553.36
31
0
0
LINE
8
ITEM
10
5695.18
20
2553.36
30
0
11
5695.18
21
2546.64
31
0
0
LINE
8
ITEM
10
5695.18
20
2546.64
30
0
11
5701.00
21
2543.28
31
0
0
LINE
8
ITEM
10
5701.00
20
2543.28
30
0
11
5706.82
21
2546.64
31
0
0
LINE
8
ITEM
10
5706.82
20
2546.64
30
0
11
5706.82
21
2553.36
31
0
0
LINE
8
ITEM
10
5701.00
20
2553.92
30
0
11
5702.34
21
2551.02
31
0
0
LINE
8
ITEM
10
5702.34
20
2551.02
30
0
11
5702.70
21
2548.84
31
0
0
LINE
8
ITEM
10
5702.70
20
2548.84
30
0
11
5701.84
21
2547.16
31
0
0
LINE
8
ITEM
10
5701.84
20
2547.16
30
0
11
5700.16
21
2547.16
31
0
0
LINE
8
ITEM
10
5700.16
20
2547.16
30
0
11
5699.30
21
2548.84
31
0
0
LINE
8
ITEM
10
5699.30
20
2548.84
30
0
11
5699.66
21
2551.02
31
0
0
LINE
8
ITEM
10
5699.66
20
2551.02
30
0
11
5701.00
21
2553.92
31
0
0
TEXT
8
LABELS
7
HEB
10
5691.00
20
2590.00
30
0
40
40.0
1
Gas
0
LINE
8
GVUL
10
3491.00
20
2540.00
30
0
11
3571.00
21
2540.00
31
0
0
LINE
8
GVUL
10
3571.00
20
2540.00
30
0
11
3571.00
21
2620.00
31
0
0
LINE
8
GVUL
10
3571.00
20
2620.00
30
0
11
3491.00
21
2620.00
31
0
0
LINE
8
GVUL
10
3491.00
20
2620.00
30
0
11
3491.00
21
2540.00
31
0
0
LINE
8
ITEM
10
3502.20
20
2558.24
30
0
11
3559.80
21
2558.24
31
0
0
LINE
8
ITEM
10
3552.76
20
2558.24
30
0
11
3551.72
21
2564.96
31
0
0
LINE
8
ITEM
10
3551.72
20
2564.96
30
0
11
3548.60
21
2571.04
31
0
0
LINE
8
ITEM
10
3548.60
20
2571.04
30
0
11
3543.80
21
2575.84
31
0
0
LINE
8
ITEM
10
3543.80
20
2575.84
30
0
11
3537.72
21
2578.96
31
0
0
LINE
8
ITEM
10
3537.72
20
2578.96
30
0
11
3531.00
21
2580.00
31
0
0
LINE
8
ITEM
10
3531.00
20
2580.00
30
0
11
3524.28
21
2578.96
31
0
0
LINE
8
ITEM
10
3524.28
20
2578.96
30
0
11
3518.20
21
2575.84
31
0
0
LINE
8
ITEM
10
3518.20
20
2575.84
30
0
11
3513.40
21
2571.04
31
0
0
LINE
8
ITEM
10
3513.40
20
2571.04
30
0
11
3510.28
21
2564.96
31
0
0
LINE
8
ITEM
10
3510.28
20
2564.96
30
0
11
3509.24
21
2558.24
31
0
0
LINE
8
ITEM
10
3509.24
20
2558.24
30
0
11
3552.76
21
2558.24
31
0
0
LINE
8
ITEM
10
3531.00
20
2558.24
30
0
11
3531.00
21
2580.00
31
0
0
TEXT
8
LABELS
7
HEB
10
3491.00
20
2650.00
30
0
40
40.0
1
Socket
0
LINE
8
GVUL
10
4158.00
20
2540.00
30
0
11
4238.00
21
2540.00
31
0
0
LINE
8
GVUL
10
4238.00
20
2540.00
30
0
11
4238.00
21
2620.00
31
0
0
LINE
8
GVUL
10
4238.00
20
2620.00
30
0
11
4158.00
21
2620.00
31
0
0
LINE
8
GVUL
10
4158.00
20
2620.00
30
0
11
4158.00
21
2540.00
31
0
0
LINE
8
ITEM
10
4169.20
20
2558.24
30
0
11
4226.80
21
2558.24
31
0
0
LINE
8
ITEM
10
4219.76
20
2558.24
30
0
11
4218.72
21
2564.96
31
0
0
LINE
8
ITEM
10
4218.72
20
2564.96
30
0
11
4215.60
21
2571.04
31
0
0
LINE
8
ITEM
10
4215.60
20
2571.04
30
0
11
4210.80
21
2575.84
31
0
0
LINE
8
ITEM
10
4210.80
20
2575.84
30
0
11
4204.72
21
2578.96
31
0
0
LINE
8
ITEM
10
4204.72
20
2578.96
30
0
11
4198.00
21
2580.00
31
0
0
LINE
8
ITEM
10
4198.00
20
2580.00
30
0
11
4191.28
21
2578.96
31
0
0
LINE
8
ITEM
10
4191.28
20
2578.96
30
0
11
4185.20
21
2575.84
31
0
0
LINE
8
ITEM
10
4185.20
20
2575.84
30
0
11
4180.40
21
2571.04
31
0
0
LINE
8
ITEM
10
4180.40
20
2571.04
30
0
11
4177.28
21
2564.96
31
0
0
LINE
8
ITEM
10
4177.28
20
2564.96
30
0
11
4176.24
21
2558.24
31
0
0
LINE
8
ITEM
10
4176.24
20
2558.24
30
0
11
4219.76
21
2558.24
31
0
0
LINE
8
ITEM
10
4198.00
20
2558.24
30
0
11
4198.00
21
2580.00
31
0
0
TEXT
8
LABELS
7
HEB
10
4158.00
20
2650.00
30
0
40
40.0
1
Socket
0
LINE
8
GVUL
10
4311.00
20
2540.00
30
0
11
4391.00
21
2540.00
31
0
0
LINE
8
GVUL
10
4391.00
20
2540.00
30
0
11
4391.00
21
2620.00
31
0
0
LINE
8
GVUL
10
4391.00
20
2620.00
30
0
11
4311.00
21
2620.00
31
0
0
LINE
8
GVUL
10
4311.00
20
2620.00
30
0
11
4311.00
21
2540.00
31
0
0
LINE
8
ITEM
10
4322.20
20
2558.24
30
0
11
4379.80
21
2558.24
31
0
0
LINE
8
ITEM
10
4372.76
20
2558.24
30
0
11
4371.72
21
2564.96
31
0
0
LINE
8
ITEM
10
4371.72
20
2564.96
30
0
11
4368.60
21
2571.04
31
0
0
LINE
8
ITEM
10
4368.60
20
2571.04
30
0
11
4363.80
21
2575.84
31
0
0
LINE
8
ITEM
10
4363.80
20
2575.84
30
0
11
4357.72
21
2578.96
31
0
0
LINE
8
ITEM
10
4357.72
20
2578.96
30
0
11
4351.00
21
2580.00
31
0
0
LINE
8
ITEM
10
4351.00
20
2580.00
30
0
11
4344.28
21
2578.96
31
0
0
LINE
8
ITEM
10
4344.28
20
2578.96
30
0
11
4338.20
21
2575.84
31
0
0
LINE
8
ITEM
10
4338.20
20
2575.84
30
0
11
4333.40
21
2571.04
31
0
0
LINE
8
ITEM
10
4333.40
20
2571.04
30
0
11
4330.28
21
2564.96
31
0
0
LINE
8
ITEM
10
4330.28
20
2564.96
30
0
11
4329.24
21
2558.24
31
0
0
LINE
8
ITEM
10
4329.24
20
2558.24
30
0
11
4372.76
21
2558.24
31
0
0
LINE
8
ITEM
10
4351.00
20
2558.24
30
0
11
4351.00
21
2580.00
31
0
0
TEXT
8
LABELS
7
HEB
10
4311.00
20
2650.00
30
0
40
40.0
1
Socket
0
LINE
8
GVUL
10
4790.00
20
2540.00
30
0
11
4950.00
21
2540.00
31
0
0
LINE
8
GVUL
10
4950.00
20
2540.00
30
0
11
4950.00
21
2620.00
31
0
0
LINE
8
GVUL
10
4950.00
20
2620.00
30
0
11
4790.00
21
2620.00
31
0
0
LINE
8
GVUL
10
4790.00
20
2620.00
30
0
11
4790.00
21
2540.00
31
0
0
LINE
8
ITEM
10
4811.12
20
2569.12
30
0
11
4928.88
21
2569.12
31
0
0
LINE
8
ITEM
10
4863.60
20
2569.12
30
0
11
4862.48
21
2572.48
31
0
0
LINE
8
ITEM
10
4862.48
20
2572.48
30
0
11
4859.44
21
2575.52
31
0
0
LINE
8
ITEM
10
4859.44
20
2575.52
30
0
11
4854.64
21
2577.92
31
0
0
LINE
8
ITEM
10
4854.64
20
2577.92
30
0
11
4848.56
21
2579.44
31
0
0
LINE
8
ITEM
10
4848.56
20
2579.44
30
0
11
4841.84
21
2580.00
31
0
0
LINE
8
ITEM
10
4841.84
20
2580.00
30
0
11
4835.12
21
2579.44
31
0
0
LINE
8
ITEM
10
4835.12
20
2579.44
30
0
11
4829.04
21
2577.92
31
0
0
LINE
8
ITEM
10
4829.04
20
2577.92
30
0
11
4824.24
21
2575.52
31
0
0
LINE
8
ITEM
10
4824.24
20
2575.52
30
0
11
4821.20
21
2572.48
31
0
0
LINE
8
ITEM
10
4821.20
20
2572.48
30
0
11
4820.08
21
2569.12
31
0
0
LINE
8
ITEM
10
4820.08
20
2569.12
30
0
11
4863.60
21
2569.12
31
0
0
LINE
8
ITEM
10
4841.84
20
2569.12
30
0
11
4841.84
21
2580.00
31
0
0
LINE
8
ITEM
10
4919.92
20
2569.12
30
0
11
4918.80
21
2572.48
31
0
0
LINE
8
ITEM
10
4918.80
20
2572.48
30
0
11
4915.76
21
2575.52
31
0
0
LINE
8
ITEM
10
4915.76
20
2575.52
30
0
11
4910.96
21
2577.92
31
0
0
LINE
8
ITEM
10
4910.96
20
2577.92
30
0
11
4904.88
21
2579.44
31
0
0
LINE
8
ITEM
10
4904.88
20
2579.44
30
0
11
4898.16
21
2580.00
31
0
0
LINE
8
ITEM
10
4898.16
20
2580.00
30
0
11
4891.44
21
2579.44
31
0
0
LINE
8
ITEM
10
4891.44
20
2579.44
30
0
11
4885.36
21
2577.92
31
0
0
LINE
8
ITEM
10
4885.36
20
2577.92
30
0
11
4880.56
21
2575.52
31
0
0
LINE
8
ITEM
10
4880.56
20
2575.52
30
0
11
4877.52
21
2572.48
31
0
0
LINE
8
ITEM
10
4877.52
20
2572.48
30
0
11
4876.40
21
2569.12
31
0
0
LINE
8
ITEM
10
4876.40
20
2569.12
30
0
11
4919.92
21
2569.12
31
0
0
LINE
8
ITEM
10
4898.16
20
2569.12
30
0
11
4898.16
21
2580.00
31
0
0
TEXT
8
LABELS
7
HEB
10
4790.00
20
2650.00
30
0
40
40.0
1
Duplex Socket
0
LINE
8
GVUL
10
4386.00
20
2540.00
30
0
11
4466.00
21
2540.00
31
0
0
LINE
8
GVUL
10
4466.00
20
2540.00
30
0
11
4466.00
21
2620.00
31
0
0
LINE
8
GVUL
10
4466.00
20
2620.00
30
0
11
4386.00
21
2620.00
31
0
0
LINE
8
GVUL
10
4386.00
20
2620.00
30
0
11
4386.00
21
2540.00
31
0
0
LINE
8
ITEM
10
4405.52
20
2559.52
30
0
11
4446.48
21
2559.52
31
0
0
LINE
8
ITEM
10
4446.48
20
2559.52
30
0
11
4446.48
21
2600.48
31
0
0
LINE
8
ITEM
10
4446.48
20
2600.48
30
0
11
4405.52
21
2600.48
31
0
0
LINE
8
ITEM
10
4405.52
20
2600.48
30
0
11
4405.52
21
2559.52
31
0
0
LINE
8
ITEM
10
4405.52
20
2559.52
30
0
11
4446.48
21
2600.48
31
0
0
LINE
8
ITEM
10
4405.52
20
2600.48
30
0
11
4446.48
21
2559.52
31
0
0
TEXT
8
LABELS
7
HEB
10
4386.00
20
2650.00
30
0
40
40.0
1
Junction Box
0
LINE
8
GVUL
10
4534.00
20
2540.00
30
0
11
4634.00
21
2540.00
31
0
0
LINE
8
GVUL
10
4634.00
20
2540.00
30
0
11
4634.00
21
2570.00
31
0
0
LINE
8
GVUL
10
4634.00
20
2570.00
30
0
11
4534.00
21
2570.00
31
0
0
LINE
8
GVUL
10
4534.00
20
2570.00
30
0
11
4534.00
21
2540.00
31
0
0
LINE
8
ITEM
10
4593.60
20
2555.00
30
0
11
4592.90
21
2556.11
31
0
0
LINE
8
ITEM
10
4592.90
20
2556.11
30
0
11
4590.80
21
2557.04
31
0
0
LINE
8
ITEM
10
4590.80
20
2557.04
30
0
11
4587.70
21
2557.67
31
0
0
LINE
8
ITEM
10
4587.70
20
2557.67
30
0
11
4584.00
21
2557.88
31
0
0
LINE
8
ITEM
10
4584.00
20
2557.88
30
0
11
4580.30
21
2557.67
31
0
0
LINE
8
ITEM
10
4580.30
20
2557.67
30
0
11
4577.20
21
2557.04
31
0
0
LINE
8
ITEM
10
4577.20
20
2557.04
30
0
11
4575.10
21
2556.11
31
0
0
LINE
8
ITEM
10
4575.10
20
2556.11
30
0
11
4574.40
21
2555.00
31
0
0
LINE
8
ITEM
10
4574.40
20
2555.00
30
0
11
4575.10
21
2553.89
31
0
0
LINE
8
ITEM
10
4575.10
20
2553.89
30
0
11
4577.20
21
2552.96
31
0
0
LINE
8
ITEM
10
4577.20
20
2552.96
30
0
11
4580.30
21
2552.33
31
0
0
LINE
8
ITEM
10
4580.30
20
2552.33
30
0
11
4584.00
21
2552.12
31
0
0
LINE
8
ITEM
10
4584.00
20
2552.12
30
0
11
4587.70
21
2552.33
31
0
0
LINE
8
ITEM
10
4587.70
20
2552.33
30
0
11
4590.80
21
2552.96
31
0
0
LINE
8
ITEM
10
4590.80
20
2552.96
30
0
11
4592.90
21
2553.89
31
0
0
LINE
8
ITEM
10
4592.90
20
2553.89
30
0
11
4593.60
21
2555.00
31
0
0
LINE
8
ITEM
10
4577.20
20
2552.96
30
0
11
4590.80
21
2557.04
31
0
0
LINE
8
ITEM
10
4577.20
20
2557.04
30
0
11
4590.80
21
2552.96
31
0
0
TEXT
8
LABELS
7
HEB
10
4534.00
20
2600.00
30
0
40
40.0
1
Can Light
0
LINE
8
GVUL
10
5973.00
20
2540.00
30
0
11
6073.00
21
2540.00
31
0
0
LINE
8
GVUL
10
6073.00
20
2540.00
30
0
11
6073.00
21
2570.00
31
0
0
LINE
8
GVUL
10
6073.00
20
2570.00
30
0
11
5973.00
21
2570.00
31
0
0
LINE
8
GVUL
10
5973.00
20
2570.00
30
0
11
5973.00
21
2540.00
31
0
0
LINE
8
ITEM
10
6032.60
20
2555.00
30
0
11
6031.90
21
2556.11
31
0
0
LINE
8
ITEM
10
6031.90
20
2556.11
30
0
11
6029.80
21
2557.04
31
0
0
LINE
8
ITEM
10
6029.80
20
2557.04
30
0
11
6026.70
21
2557.67
31
0
0
LINE
8
ITEM
10
6026.70
20
2557.67
30
0
11
6023.00
21
2557.88
31
0
0
LINE
8
ITEM
10
6023.00
20
2557.88
30
0
11
6019.30
21
2557.67
31
0
0
LINE
8
ITEM
10
6019.30
20
2557.67
30
0
11
6016.20
21
2557.04
31
0
0
LINE
8
ITEM
10
6016.20
20
2557.04
30
0
11
6014.10
21
2556.11
31
0
0
LINE
8
ITEM
10
6014.10
20
2556.11
30
0
11
6013.40
21
2555.00
31
0
0
LINE
8
ITEM
10
6013.40
20
2555.00
30
0
11
6014.10
21
2553.89
31
0
0
LINE
8
ITEM
10
6014.10
20
2553.89
30
0
11
6016.20
21
2552.96
31
0
0
LINE
8
ITEM
10
6016.20
20
2552.96
30
0
11
6019.30
21
2552.33
31
0
0
LINE
8
ITEM
10
6019.30
20
2552.33
30
0
11
6023.00
21
2552.12
31
0
0
LINE
8
ITEM
10
6023.00
20
2552.12
30
0
11
6026.70
21
2552.33
31
0
0
LINE
8
ITEM
10
6026.70
20
2552.33
30
0
11
6029.80
21
2552.96
31
0
0
LINE
8
ITEM
10
6029.80
20
2552.96
30
0
11
6031.90
21
2553.89
31
0
0
LINE
8
ITEM
10
6031.90
20
2553.89
30
0
11
6032.60
21
2555.00
31
0
0
LINE
8
ITEM
10
6016.20
20
2552.96
30
0
11
6029.80
21
2557.04
31
0
0
LINE
8
ITEM
10
6016.20
20
2557.04
30
0
11
6029.80
21
2552.96
31
0
0
TEXT
8
LABELS
7
HEB
10
5973.00
20
2600.00
30
0
40
40.0
1
Can Light
0
LINE
8
KIROT
10
7555.00
20
2540.00
30
0
11
7544.50
21
4544.97
31
0
0
LINE
8
GVUL
10
7556.58
20
2239.00
30
0
11
7548.86
21
3712.98
31
0
0
LINE
8
GVUL
10
7548.86
20
3712.98
30
0
11
6228.88
21
3706.07
31
0
0
LINE
8
GVUL
10
6228.88
20
3706.07
30
0
11
6236.59
21
2232.09
31
0
0
LINE
8
GVUL
10
6236.59
20
2232.09
30
0
11
7556.58
21
2239.00
31
0
0
LINE
8
ITEM
10
7000.89
20
2482.26
30
0
11
6995.75
21
3463.93
31
0
0
LINE
8
ITEM
10
6995.75
20
3463.93
30
0
11
6784.56
21
3462.82
31
0
0
LINE
8
ITEM
10
6784.56
20
3462.82
30
0
11
6789.70
21
2481.15
31
0
0
LINE
8
ITEM
10
6789.70
20
2481.15
30
0
11
7000.89
21
2482.26
31
0
0
LINE
8
ITEM
10
6895.30
20
2481.70
30
0
11
6890.16
21
3463.37
31
0
0
TEXT
8
LABELS
7
HEB
10
6206.59
20
2231.94
30
0
40
40.0
1
Window
0
LINE
8
GVUL
10
7548.37
20
3805.98
30
0
11
7547.95
21
3885.98
31
0
0
LINE
8
GVUL
10
7547.95
20
3885.98
30
0
11
7467.95
21
3885.56
31
0
0
LINE
8
GVUL
10
7467.95
20
3885.56
30
0
11
7468.37
21
3805.56
31
0
0
LINE
8
GVUL
10
7468.37
20
3805.56
30
0
11
7548.37
21
3805.98
31
0
0
LINE
8
ITEM
10
7530.07
20
3817.09
30
0
11
7529.77
21
3874.69
31
0
0
LINE
8
ITEM
10
7529.81
20
3867.65
30
0
11
7523.09
21
3866.57
31
0
0
LINE
8
ITEM
10
7523.09
20
3866.57
30
0
11
7517.03
21
3863.42
31
0
0
LINE
8
ITEM
10
7517.03
20
3863.42
30
0
11
7512.26
21
3858.59
31
0
0
LINE
8
ITEM
10
7512.26
20
3858.59
30
0
11
7509.17
21
3852.50
31
0
0
LINE
8
ITEM
10
7509.17
20
3852.50
30
0
11
7508.16
21
3845.77
31
0
0
LINE
8
ITEM
10
7508.16
20
3845.77
30
0
11
7509.24
21
3839.06
31
0
0
LINE
8
ITEM
10
7509.24
20
3839.06
30
0
11
7512.39
21
3832.99
31
0
0
LINE
8
ITEM
10
7512.39
20
3832.99
30
0
11
7517.21
21
3828.22
31
0
0
LINE
8
ITEM
10
7517.21
20
3828.22
30
0
11
7523.31
21
3825.13
31
0
0
LINE
8
ITEM
10
7523.31
20
3825.13
30
0
11
7530.04
21
3824.13
31
0
0
LINE
8
ITEM
10
7530.04
20
3824.13
30
0
11
7529.81
21
3867.65
31
0
0
LINE
8
ITEM
10
7529.92
20
3845.89
30
0
11
7508.16
21
3845.77
31
0
0
TEXT
8
LABELS
7
HEB
10
7438.37
20
3805.41
30
0
40
40.0
1
Socket
0
LINE
8
GVUL
10
7549.08
20
3669.98
30
0
11
7548.98
21
3689.98
31
0
0
LINE
8
GVUL
10
7548.98
20
3689.98
30
0
11
7528.98
21
3689.88
31
0
0
LINE
8
GVUL
10
7528.98
20
3689.88
30
0
11
7529.08
21
3669.88
31
0
0
LINE
8
GVUL
10
7529.08
20
3669.88
30
0
11
7549.08
21
3669.98
31
0
0
LINE
8
ITEM
10
7543.85
20
3676.76
30
0
11
7535.85
21
3676.72
31
0
0
LINE
8
ITEM
10
7535.85
20
3676.72
30
0
11
7535.82
21
3682.32
31
0
0
LINE
8
ITEM
10
7535.82
20
3682.32
30
0
11
7539.02
21
3682.33
31
0
0
LINE
8
ITEM
10
7535.86
20
3675.12
30
0
11
7535.84
21
3678.32
31
0
0
LINE
8
ITEM
10
7539.38
20
3682.33
30
0
11
7540.60
21
3682.94
31
0
0
LINE
8
ITEM
10
7540.60
20
3682.94
30
0
11
7540.91
21
3683.40
31
0
0
LINE
8
ITEM
10
7540.91
20
3683.40
30
0
11
7541.39
21
3683.68
31
0
0
LINE
8
ITEM
10
7541.39
20
3683.68
30
0
11
7541.93
21
3683.79
31
0
0
LINE
8
ITEM
10
7541.93
20
3683.79
30
0
11
7542.47
21
3683.67
31
0
0
LINE
8
ITEM
10
7542.47
20
3683.67
30
0
11
7542.93
21
3683.35
31
0
0
LINE
8
ITEM
10
7542.93
20
3683.35
30
0
11
7543.24
21
3682.89
31
0
0
LINE
8
ITEM
10
7543.24
20
3682.89
30
0
11
7543.34
21
3682.35
31
0
0
LINE
8
ITEM
10
7543.34
20
3682.35
30
0
11
7543.24
21
3681.81
31
0
0
LINE
8
ITEM
10
7543.24
20
3681.81
30
0
11
7542.94
21
3681.35
31
0
0
LINE
8
ITEM
10
7542.94
20
3681.35
30
0
11
7542.49
21
3681.03
31
0
0
LINE
8
ITEM
10
7542.49
20
3681.03
30
0
11
7541.95
21
3680.91
31
0
0
LINE
8
ITEM
10
7541.95
20
3680.91
30
0
11
7541.41
21
3681.00
31
0
0
LINE
8
ITEM
10
7541.41
20
3681.00
30
0
11
7540.92
21
3681.28
31
0
0
LINE
8
ITEM
10
7540.92
20
3681.28
30
0
11
7540.60
21
3681.74
31
0
0
LINE
8
ITEM
10
7540.60
20
3681.74
30
0
11
7539.38
21
3682.33
31
0
0
TEXT
8
LABELS
7
HEB
10
7499.08
20
3669.72
30
0
40
40.0
1
Faucet
0
LINE
8
GVUL
10
7549.87
20
3518.99
30
0
11
7549.77
21
3538.99
31
0
0
LINE
8
GVUL
10
7549.77
20
3538.99
30
0
11
7529.77
21
3538.88
31
0
0
LINE
8
GVUL
10
7529.77
20
3538.88
30
0
11
7529.87
21
3518.88
31
0
0
LINE
8
GVUL
10
7529.87
20
3518.88
30
0
11
7549.87
21
3518.99
31
0
0
LINE
8
ITEM
10
7544.64
20
3525.76
30
0
11
7536.64
21
3525.72
31
0
0
LINE
8
ITEM
10
7536.64
20
3525.72
30
0
11
7536.61
21
3531.32
31
0
0
LINE
8
ITEM
10
7536.61
20
3531.32
30
0
11
7539.81
21
3531.33
31
0
0
LINE
8
ITEM
10
7536.65
20
3524.12
30
0
11
7536.63
21
3527.32
31
0
0
LINE
8
ITEM
10
7540.17
20
3531.34
30
0
11
7541.39
21
3531.94
31
0
0
LINE
8
ITEM
10
7541.39
20
3531.94
30
0
11
7541.70
21
3532.40
31
0
0
LINE
8
ITEM
10
7541.70
20
3532.40
30
0
11
7542.18
21
3532.69
31
0
0
LINE
8
ITEM
10
7542.18
20
3532.69
30
0
11
7542.72
21
3532.79
31
0
0
LINE
8
ITEM
10
7542.72
20
3532.79
30
0
11
7543.26
21
3532.67
31
0
0
LINE
8
ITEM
10
7543.26
20
3532.67
30
0
11
7543.72
21
3532.35
31
0
0
LINE
8
ITEM
10
7543.72
20
3532.35
30
0
11
7544.03
21
3531.90
31
0
0
LINE
8
ITEM
10
7544.03
20
3531.90
30
0
11
7544.13
21
3531.36
31
0
0
LINE
8
ITEM
10
7544.13
20
3531.36
30
0
11
7544.03
21
3530.82
31
0
0
LINE
8
ITEM
10
7544.03
20
3530.82
30
0
11
7543.73
21
3530.35
31
0
0
LINE
8
ITEM
10
7543.73
20
3530.35
30
0
11
7543.28
21
3530.03
31
0
0
LINE
8
ITEM
10
7543.28
20
3530.03
30
0
11
7542.74
21
3529.91
31
0
0
LINE
8
ITEM
10
7542.74
20
3529.91
30
0
11
7542.20
21
3530.01
31
0
0
LINE
8
ITEM
10
7542.20
20
3530.01
30
0
11
7541.71
21
3530.28
31
0
0
LINE
8
ITEM
10
7541.71
20
3530.28
30
0
11
7541.39
21
3530.74
31
0
0
LINE
8
ITEM
10
7541.39
20
3530.74
30
0
11
7540.17
21
3531.34
31
0
0
TEXT
8
LABELS
7
HEB
10
7499.87
20
3518.72
30
0
40
40.0
1
Faucet
0
LINE
8
GVUL
10
7550.58
20
3384.99
30
0
11
7550.47
21
3404.99
31
0
0
LINE
8
GVUL
10
7550.47
20
3404.99
30
0
11
7530.47
21
3404.88
31
0
0
LINE
8
GVUL
10
7530.47
20
3404.88
30
0
11
7530.58
21
3384.88
31
0
0
LINE
8
GVUL
10
7530.58
20
3384.88
30
0
11
7550.58
21
3384.99
31
0
0
LINE
8
ITEM
10
7545.34
20
3391.76
30
0
11
7537.34
21
3391.72
31
0
0
LINE
8
ITEM
10
7537.34
20
3391.72
30
0
11
7537.31
21
3397.32
31
0
0
LINE
8
ITEM
10
7537.31
20
3397.32
30
0
11
7540.51
21
3397.34
31
0
0
LINE
8
ITEM
10
7537.35
20
3390.12
30
0
11
7537.33
21
3393.32
31
0
0
LINE
8
ITEM
10
7540.87
20
3397.34
30
0
11
7542.09
21
3397.94
31
0
0
LINE
8
ITEM
10
7542.09
20
3397.94
30
0
11
7542.41
21
3398.41
31
0
0
LINE
8
ITEM
10
7542.41
20
3398.41
30
0
11
7542.88
21
3398.69
31
0
0
LINE
8
ITEM
10
7542.88
20
3398.69
30
0
11
7543.42
21
3398.79
31
0
0
LINE
8
ITEM
10
7543.42
20
3398.79
30
0
11
7543.96
21
3398.67
31
0
0
LINE
8
ITEM
10
7543.96
20
3398.67
30
0
11
7544.43
21
3398.36
31
0
0
LINE
8
ITEM
10
7544.43
20
3398.36
30
0
11
7544.73
21
3397.90
31
0
0
LINE
8
ITEM
10
7544.73
20
3397.90
30
0
11
7544.83
21
3397.36
31
0
0
LINE
8
ITEM
10
7544.83
20
3397.36
30
0
11
7544.73
21
3396.82
31
0
0
LINE
8
ITEM
10
7544.73
20
3396.82
30
0
11
7544.44
21
3396.36
31
0
0
LINE
8
ITEM
10
7544.44
20
3396.36
30
0
11
7543.98
21
3396.03
31
0
0
LINE
8
ITEM
10
7543.98
20
3396.03
30
0
11
7543.44
21
3395.91
31
0
0
LINE
8
ITEM
10
7543.44
20
3395.91
30
0
11
7542.90
21
3396.01
31
0
0
LINE
8
ITEM
10
7542.90
20
3396.01
30
0
11
7542.42
21
3396.29
31
0
0
LINE
8
ITEM
10
7542.42
20
3396.29
30
0
11
7542.09
21
3396.74
31
0
0
LINE
8
ITEM
10
7542.09
20
3396.74
30
0
11
7540.87
21
3397.34
31
0
0
TEXT
8
LABELS
7
HEB
10
7500.58
20
3384.73
30
0
40
40.0
1
Faucet
0
LINE
8
GVUL
10
7549.74
20
3543.99
30
0
11
7549.48
21
3593.99
31
0
0
LINE
8
GVUL
10
7549.48
20
3593.99
30
0
11
7499.48
21
3593.72
31
0
0
LINE
8
GVUL
10
7499.48
20
3593.72
30
0
11
7499.74
21
3543.72
31
0
0
LINE
8
GVUL
10
7499.74
20
3543.72
30
0
11
7549.74
21
3543.99
31
0
0
LINE
8
ITEM
10
7524.53
20
3584.85
30
0
11
7518.44
21
3583.62
31
0
0
LINE
8
ITEM
10
7518.44
20
3583.62
30
0
11
7513.25
21
3580.10
31
0
0
LINE
8
ITEM
10
7513.25
20
3580.10
30
0
11
7509.78
21
3574.88
31
0
0
LINE
8
ITEM
10
7509.78
20
3574.88
30
0
11
7508.61
21
3568.77
31
0
0
LINE
8
ITEM
10
7508.61
20
3568.77
30
0
11
7509.84
21
3562.68
31
0
0
LINE
8
ITEM
10
7509.84
20
3562.68
30
0
11
7513.37
21
3557.50
31
0
0
LINE
8
ITEM
10
7513.37
20
3557.50
30
0
11
7518.59
21
3554.02
31
0
0
LINE
8
ITEM
10
7518.59
20
3554.02
30
0
11
7524.70
21
3552.86
31
0
0
LINE
8
ITEM
10
7524.70
20
3552.86
30
0
11
7530.79
21
3554.09
31
0
0
LINE
8
ITEM
10
7530.79
20
3554.09
30
0
11
7535.97
21
3557.61
31
0
0
LINE
8
ITEM
10
7535.97
20
3557.61
30
0
11
7539.44
21
3562.83
31
0
0
LINE
8
ITEM
10
7539.44
20
3562.83
30
0
11
7540.61
21
3568.94
31
0
0
LINE
8
ITEM
10
7540.61
20
3568.94
30
0
11
7539.38
21
3575.03
31
0
0
LINE
8
ITEM
10
7539.38
20
3575.03
30
0
11
7535.85
21
3580.21
31
0
0
LINE
8
ITEM
10
7535.85
20
3580.21
30
0
11
7530.63
21
3583.69
31
0
0
LINE
8
ITEM
10
7530.63
20
3583.69
30
0
11
7524.53
21
3584.85
31
0
0
LINE
8
ITEM
10
7524.66
20
3559.26
30
0
11
7521.45
21
3560.84
31
0
0
LINE
8
ITEM
10
7521.45
20
3560.84
30
0
11
7519.10
21
3562.43
31
0
0
LINE
8
ITEM
10
7519.10
20
3562.43
30
0
11
7518.24
21
3564.02
31
0
0
LINE
8
ITEM
10
7518.24
20
3564.02
30
0
11
7519.08
21
3565.63
31
0
0
LINE
8
ITEM
10
7519.08
20
3565.63
30
0
11
7521.42
21
3567.24
31
0
0
LINE
8
ITEM
10
7521.42
20
3567.24
30
0
11
7524.61
21
3568.85
31
0
0
LINE
8
ITEM
10
7524.61
20
3568.85
30
0
11
7527.80
21
3570.47
31
0
0
LINE
8
ITEM
10
7527.80
20
3570.47
30
0
11
7530.15
21
3572.08
31
0
0
LINE
8
ITEM
10
7530.15
20
3572.08
30
0
11
7530.99
21
3573.69
31
0
0
LINE
8
ITEM
10
7530.99
20
3573.69
30
0
11
7530.13
21
3575.28
31
0
0
LINE
8
ITEM
10
7530.13
20
3575.28
30
0
11
7527.77
21
3576.87
31
0
0
LINE
8
ITEM
10
7527.77
20
3576.87
30
0
11
7524.56
21
3578.45
31
0
0
TEXT
8
LABELS
7
HEB
10
7469.74
20
3543.57
30
0
40
40.0
1
Sewage
0
LINE
8
GVUL
10
7553.87
20
2756.00
30
0
11
7553.45
21
2836.00
31
0
0
LINE
8
GVUL
10
7553.45
20
2836.00
30
0
11
7473.45
21
2835.58
31
0
0
LINE
8
GVUL
10
7473.45
20
2835.58
30
0
11
7473.87
21
2755.58
31
0
0
LINE
8
GVUL
10
7473.87
20
2755.58
30
0
11
7553.87
21
2756.00
31
0
0
LINE
8
ITEM
10
7535.57
20
2767.10
30
0
11
7535.27
21
2824.70
31
0
0
LINE
8
ITEM
10
7535.31
20
2817.66
30
0
11
7528.59
21
2816.59
31
0
0
LINE
8
ITEM
10
7528.59
20
2816.59
30
0
11
7522.53
21
2813.43
31
0
0
LINE
8
ITEM
10
7522.53
20
2813.43
30
0
11
7517.75
21
2808.61
31
0
0
LINE
8
ITEM
10
7517.75
20
2808.61
30
0
11
7514.66
21
2802.51
31
0
0
LINE
8
ITEM
10
7514.66
20
2802.51
30
0
11
7513.66
21
2795.79
31
0
0
LINE
8
ITEM
10
7513.66
20
2795.79
30
0
11
7514.74
21
2789.07
31
0
0
LINE
8
ITEM
10
7514.74
20
2789.07
30
0
11
7517.89
21
2783.01
31
0
0
LINE
8
ITEM
10
7517.89
20
2783.01
30
0
11
7522.71
21
2778.23
31
0
0
LINE
8
ITEM
10
7522.71
20
2778.23
30
0
11
7528.81
21
2775.15
31
0
0
LINE
8
ITEM
10
7528.81
20
2775.15
30
0
11
7535.53
21
2774.14
31
0
0
LINE
8
ITEM
10
7535.53
20
2774.14
30
0
11
7535.31
21
2817.66
31
0
0
LINE
8
ITEM
10
7535.42
20
2795.90
30
0
11
7513.66
21
2795.79
31
0
0
TEXT
8
LABELS
7
HEB
10
7443.87
20
2755.42
30
0
40
40.0
1
Socket
0
LINE
8
GVUL
10
7553.65
20
2798.00
30
0
11
7553.23
21
2878.00
31
0
0
LINE
8
GVUL
10
7553.23
20
2878.00
30
0
11
7473.23
21
2877.58
31
0
0
LINE
8
GVUL
10
7473.23
20
2877.58
30
0
11
7473.65
21
2797.58
31
0
0
LINE
8
GVUL
10
7473.65
20
2797.58
30
0
11
7553.65
21
2798.00
31
0
0
LINE
8
ITEM
10
7534.03
20
2817.41
30
0
11
7533.81
21
2858.37
31
0
0
LINE
8
ITEM
10
7533.81
20
2858.37
30
0
11
7492.85
21
2858.16
31
0
0
LINE
8
ITEM
10
7492.85
20
2858.16
30
0
11
7493.07
21
2817.20
31
0
0
LINE
8
ITEM
10
7493.07
20
2817.20
30
0
11
7534.03
21
2817.41
31
0
0
LINE
8
ITEM
10
7534.03
20
2817.41
30
0
11
7492.85
21
2858.16
31
0
0
LINE
8
ITEM
10
7493.07
20
2817.20
30
0
11
7533.81
21
2858.37
31
0
0
TEXT
8
LABELS
7
HEB
10
7443.65
20
2797.42
30
0
40
40.0
1
Junction Box
0
LINE
8
KIROT
10
7544.50
20
4544.97
30
0
11
6459.52
21
4539.29
31
0
0
LINE
8
GVUL
10
7464.50
20
4544.55
30
0
11
7304.51
21
4543.72
31
0
0
LINE
8
GVUL
10
7304.51
20
4543.72
30
0
11
7304.92
21
4463.72
31
0
0
LINE
8
GVUL
10
7304.92
20
4463.72
30
0
11
7464.92
21
4464.55
31
0
0
LINE
8
GVUL
10
7464.92
20
4464.55
30
0
11
7464.50
21
4544.55
31
0
0
LINE
8
ITEM
10
7443.54
20
4515.32
30
0
11
7325.78
21
4514.71
31
0
0
LINE
8
ITEM
10
7391.06
20
4515.05
30
0
11
7392.19
21
4511.69
31
0
0
LINE
8
ITEM
10
7392.19
20
4511.69
30
0
11
7395.25
21
4508.67
31
0
0
LINE
8
ITEM
10
7395.25
20
4508.67
30
0
11
7400.06
21
4506.30
31
0
0
LINE
8
ITEM
10
7400.06
20
4506.30
30
0
11
7406.15
21
4504.81
31
0
0
LINE
8
ITEM
10
7406.15
20
4504.81
30
0
11
7412.87
21
4504.28
31
0
0
LINE
8
ITEM
10
7412.87
20
4504.28
30
0
11
7419.59
21
4504.88
31
0
0
LINE
8
ITEM
10
7419.59
20
4504.88
30
0
11
7425.66
21
4506.43
31
0
0
LINE
8
ITEM
10
7425.66
20
4506.43
30
0
11
7430.45
21
4508.85
31
0
0
LINE
8
ITEM
10
7430.45
20
4508.85
30
0
11
7433.47
21
4511.91
31
0
0
LINE
8
ITEM
10
7433.47
20
4511.91
30
0
11
7434.58
21
4515.28
31
0
0
LINE
8
ITEM
10
7434.58
20
4515.28
30
0
11
7391.06
21
4515.05
31
0
0
LINE
8
ITEM
10
7412.82
20
4515.16
30
0
11
7412.87
21
4504.28
31
0
0
LINE
8
ITEM
10
7334.74
20
4514.75
30
0
11
7335.87
21
4511.40
31
0
0
LINE
8
ITEM
10
7335.87
20
4511.40
30
0
11
7338.93
21
4508.38
31
0
0
LINE
8
ITEM
10
7338.93
20
4508.38
30
0
11
7343.74
21
4506.00
31
0
0
LINE
8
ITEM
10
7343.74
20
4506.00
30
0
11
7349.83
21
4504.51
31
0
0
LINE
8
ITEM
10
7349.83
20
4504.51
30
0
11
7356.55
21
4503.99
31
0
0
LINE
8
ITEM
10
7356.55
20
4503.99
30
0
11
7363.27
21
4504.58
31
0
0
LINE
8
ITEM
10
7363.27
20
4504.58
30
0
11
7369.34
21
4506.13
31
0
0
LINE
8
ITEM
10
7369.34
20
4506.13
30
0
11
7374.13
21
4508.56
31
0
0
LINE
8
ITEM
10
7374.13
20
4508.56
30
0
11
7377.15
21
4511.62
31
0
0
LINE
8
ITEM
10
7377.15
20
4511.62
30
0
11
7378.26
21
4514.98
31
0
0
LINE
8
ITEM
10
7378.26
20
4514.98
30
0
11
7334.74
21
4514.75
31
0
0
LINE
8
ITEM
10
7356.50
20
4514.87
30
0
11
7356.55
21
4503.99
31
0
0
TEXT
8
LABELS
7
HEB
10
7465.08
20
4434.56
30
0
40
40.0
1
Duplex Socket
0
LINE
8
GVUL
10
7356.50
20
4543.99
30
0
11
7276.51
21
4543.57
31
0
0
LINE
8
GVUL
10
7276.51
20
4543.57
30
0
11
7276.92
21
4463.57
31
0
0
LINE
8
GVUL
10
7276.92
20
4463.57
30
0
11
7356.92
21
4463.99
31
0
0
LINE
8
GVUL
10
7356.92
20
4463.99
30
0
11
7356.50
21
4543.99
31
0
0
LINE
8
ITEM
10
7337.09
20
4524.37
30
0
11
7296.13
21
4524.15
31
0
0
LINE
8
ITEM
10
7296.13
20
4524.15
30
0
11
7296.34
21
4483.19
31
0
0
LINE
8
ITEM
10
7296.34
20
4483.19
30
0
11
7337.30
21
4483.41
31
0
0
LINE
8
ITEM
10
7337.30
20
4483.41
30
0
11
7337.09
21
4524.37
31
0
0
LINE
8
ITEM
10
7337.09
20
4524.37
30
0
11
7296.34
21
4483.19
31
0
0
LINE
8
ITEM
10
7337.30
20
4483.41
30
0
11
7296.13
21
4524.15
31
0
0
TEXT
8
LABELS
7
HEB
10
7357.08
20
4433.99
30
0
40
40.0
1
Junction Box
0
LINE
8
KIROT
10
6459.52
20
4539.29
30
0
11
6429.03
21
10361.21
31
0
0
LINE
8
GVUL
10
6457.92
20
4844.29
30
0
11
6457.50
21
4924.29
31
0
0
LINE
8
GVUL
10
6457.50
20
4924.29
30
0
11
6377.50
21
4923.87
31
0
0
LINE
8
GVUL
10
6377.50
20
4923.87
30
0
11
6377.92
21
4843.87
31
0
0
LINE
8
GVUL
10
6377.92
20
4843.87
30
0
11
6457.92
21
4844.29
31
0
0
LINE
8
ITEM
10
6439.62
20
4855.39
30
0
11
6439.32
21
4912.99
31
0
0
LINE
8
ITEM
10
6439.36
20
4905.95
30
0
11
6432.64
21
4904.88
31
0
0
LINE
8
ITEM
10
6432.64
20
4904.88
30
0
11
6426.58
21
4901.72
31
0
0
LINE
8
ITEM
10
6426.58
20
4901.72
30
0
11
6421.80
21
4896.90
31
0
0
LINE
8
ITEM
10
6421.80
20
4896.90
30
0
11
6418.72
21
4890.80
31
0
0
LINE
8
ITEM
10
6418.72
20
4890.80
30
0
11
6417.71
21
4884.08
31
0
0
LINE
8
ITEM
10
6417.71
20
4884.08
30
0
11
6418.79
21
4877.36
31
0
0
LINE
8
ITEM
10
6418.79
20
4877.36
30
0
11
6421.94
21
4871.30
31
0
0
LINE
8
ITEM
10
6421.94
20
4871.30
30
0
11
6426.76
21
4866.52
31
0
0
LINE
8
ITEM
10
6426.76
20
4866.52
30
0
11
6432.86
21
4863.44
31
0
0
LINE
8
ITEM
10
6432.86
20
4863.44
30
0
11
6439.58
21
4862.43
31
0
0
LINE
8
ITEM
10
6439.58
20
4862.43
30
0
11
6439.36
21
4905.95
31
0
0
LINE
8
ITEM
10
6439.47
20
4884.19
30
0
11
6417.71
21
4884.08
31
0
0
TEXT
8
LABELS
7
HEB
10
6347.92
20
4843.71
30
0
40
40.0
1
Socket
0
LINE
8
GVUL
10
6450.17
20
6324.27
30
0
11
6449.75
21
6404.27
31
0
0
LINE
8
GVUL
10
6449.75
20
6404.27
30
0
11
6369.75
21
6403.85
31
0
0
LINE
8
GVUL
10
6369.75
20
6403.85
30
0
11
6370.17
21
6323.85
31
0
0
LINE
8
GVUL
10
6370.17
20
6323.85
30
0
11
6450.17
21
6324.27
31
0
0
LINE
8
ITEM
10
6431.87
20
6335.37
30
0
11
6431.57
21
6392.97
31
0
0
LINE
8
ITEM
10
6431.61
20
6385.93
30
0
11
6424.89
21
6384.86
31
0
0
LINE
8
ITEM
10
6424.89
20
6384.86
30
0
11
6418.83
21
6381.70
31
0
0
LINE
8
ITEM
10
6418.83
20
6381.70
30
0
11
6414.05
21
6376.88
31
0
0
LINE
8
ITEM
10
6414.05
20
6376.88
30
0
11
6410.97
21
6370.78
31
0
0
LINE
8
ITEM
10
6410.97
20
6370.78
30
0
11
6409.96
21
6364.06
31
0
0
LINE
8
ITEM
10
6409.96
20
6364.06
30
0
11
6411.04
21
6357.34
31
0
0
LINE
8
ITEM
10
6411.04
20
6357.34
30
0
11
6414.19
21
6351.28
31
0
0
LINE
8
ITEM
10
6414.19
20
6351.28
30
0
11
6419.01
21
6346.50
31
0
0
LINE
8
ITEM
10
6419.01
20
6346.50
30
0
11
6425.11
21
6343.42
31
0
0
LINE
8
ITEM
10
6425.11
20
6343.42
30
0
11
6431.84
21
6342.41
31
0
0
LINE
8
ITEM
10
6431.84
20
6342.41
30
0
11
6431.61
21
6385.93
31
0
0
LINE
8
ITEM
10
6431.72
20
6364.17
30
0
11
6409.96
21
6364.06
31
0
0
TEXT
8
LABELS
7
HEB
10
6340.17
20
6323.69
30
0
40
40.0
1
Socket
0
LINE
8
GVUL
10
6454.83
20
5434.78
30
0
11
6441.89
21
7905.75
31
0
0
LINE
8
GVUL
10
6441.89
20
7905.75
30
0
11
4045.92
21
7893.20
31
0
0
LINE
8
GVUL
10
4045.92
20
7893.20
30
0
11
4058.86
21
5422.23
31
0
0
LINE
8
GVUL
10
4058.86
20
5422.23
30
0
11
6454.83
21
5434.78
31
0
0
LINE
8
ITEM
10
5446.36
20
5842.16
30
0
11
5437.74
21
7487.82
31
0
0
LINE
8
ITEM
10
5437.74
20
7487.82
30
0
11
5054.39
21
7485.82
31
0
0
LINE
8
ITEM
10
5054.39
20
7485.82
30
0
11
5063.01
21
5840.15
31
0
0
LINE
8
ITEM
10
5063.01
20
5840.15
30
0
11
5446.36
21
5842.16
31
0
0
LINE
8
ITEM
10
5254.68
20
5841.16
30
0
11
5246.07
21
7486.82
31
0
0
TEXT
8
LABELS
7
HEB
10
4028.86
20
5422.08
30
0
40
40.0
1
Window
0
ENDSEC
0
EOF
