0
SECTION
2
ENTITIES
0
LINE
8
SYMBOL
10
6.40
20
12.80
30
0.0
11
153.60
21
12.80
31
0.0
0
LINE
8
SYMBOL
10
72.00
20
12.80
30
0.0
11
70.67
21
21.21
31
0.0
0
LINE
8
SYMBOL
10
70.67
20
21.21
30
0.0
11
66.81
21
28.79
31
0.0
0
LINE
8
SYMBOL
10
66.81
20
28.79
30
0.0
11
60.79
21
34.81
31
0.0
0
LINE
8
SYMBOL
10
60.79
20
34.81
30
0.0
11
53.21
21
38.67
31
0.0
0
LINE
8
SYMBOL
10
53.21
20
38.67
30
0.0
11
44.80
21
40.00
31
0.0
0
LINE
8
SYMBOL
10
44.80
20
40.00
30
0.0
11
36.39
21
38.67
31
0.0
0
LINE
8
SYMBOL
10
36.39
20
38.67
30
0.0
11
28.81
21
34.81
31
0.0
0
LINE
8
SYMBOL
10
28.81
20
34.81
30
0.0
11
22.79
21
28.79
31
0.0
0
LINE
8
SYMBOL
10
22.79
20
28.79
30
0.0
11
18.93
21
21.21
31
0.0
0
LINE
8
SYMBOL
10
18.93
20
21.21
30
0.0
11
17.60
21
12.80
31
0.0
0
LINE
8
SYMBOL
10
17.60
20
12.80
30
0.0
11
72.00
21
12.80
31
0.0
0
LINE
8
SYMBOL
10
44.80
20
12.80
30
0.0
11
44.80
21
40.00
31
0.0
0
LINE
8
SYMBOL
10
142.40
20
12.80
30
0.0
11
141.07
21
21.21
31
0.0
0
LINE
8
SYMBOL
10
141.07
20
21.21
30
0.0
11
137.21
21
28.79
31
0.0
0
LINE
8
SYMBOL
10
137.21
20
28.79
30
0.0
11
131.19
21
34.81
31
0.0
0
LINE
8
SYMBOL
10
131.19
20
34.81
30
0.0
11
123.61
21
38.67
31
0.0
0
LINE
8
SYMBOL
10
123.61
20
38.67
30
0.0
11
115.20
21
40.00
31
0.0
0
LINE
8
SYMBOL
10
115.20
20
40.00
30
0.0
11
106.79
21
38.67
31
0.0
0
LINE
8
SYMBOL
10
106.79
20
38.67
30
0.0
11
99.21
21
34.81
31
0.0
0
LINE
8
SYMBOL
10
99.21
20
34.81
30
0.0
11
93.19
21
28.79
31
0.0
0
LINE
8
SYMBOL
10
93.19
20
28.79
30
0.0
11
89.33
21
21.21
31
0.0
0
LINE
8
SYMBOL
10
89.33
20
21.21
30
0.0
11
88.00
21
12.80
31
0.0
0
LINE
8
SYMBOL
10
88.00
20
12.80
30
0.0
11
142.40
21
12.80
31
0.0
0
LINE
8
SYMBOL
10
115.20
20
12.80
30
0.0
11
115.20
21
40.00
31
0.0
0
ENDSEC
0
EOF
