0
SECTION
2
HEADER
9
$ACADVER
1
AC1009
0
ENDSEC
0
SECTION
2
TABLES
0
TABLE
2
STYLE
70
1
0
STYLE
2
HEB
70
0
40
0.0
41
1.0
50
0.0
71
0
42
60.00
3
Arial.ttf
4

0
ENDTAB
0
TABLE
2
LAYER
70
16
0
LAYER
2
LABELS
70
0
62
104
6
CONTINUOUS
0
LAYER
2
CHSHML_SHQAYM
70
0
62
96
6
CONTINUOUS
0
LAYER
2
CHSHML_MPSQYM
70
0
62
154
6
CONTINUOUS
0
LAYER
2
CHSHML_YTSYAVT_MKSHYRYM
70
0
62
160
6
CONTINUOUS
0
LAYER
2
CHSHML_LVCHVT_VHGNH
70
0
62
78
6
CONTINUOUS
0
LAYER
2
TAVRH
70
0
62
190
6
CONTINUOUS
0
LAYER
2
TQSHVRT_VMVLTYMDYH
70
0
62
158
6
CONTINUOUS
0
LAYER
2
BYT_CHKM_VBQRH
70
0
62
2
6
CONTINUOUS
0
LAYER
2
BTYCHVT_VABTCHH
70
0
62
46
6
CONTINUOUS
0
LAYER
2
AYNSTLTSYH_MYM
70
0
62
62
6
CONTINUOUS
0
LAYER
2
AYNSTLTSYH_NYQVZ
70
0
62
209
6
CONTINUOUS
0
LAYER
2
GZ
70
0
62
6
6
CONTINUOUS
0
LAYER
2
MYZVG_VAVVRVR
70
0
62
108
6
CONTINUOUS
0
LAYER
2
CHYMVM_VMARKVT_TRMYVT
70
0
62
184
6
CONTINUOUS
0
LAYER
2
ANRGYH_MTCHDSHT_VAGYRH
70
0
62
196
6
CONTINUOUS
0
LAYER
2
ADRYKLY_PTCHYM_VMBNH
70
0
62
227
6
CONTINUOUS
0
ENDTAB
0
ENDSEC
0
SECTION
2
ENTITIES
0
3DFACE
8
CHSHML_SHQAYM
10
-40.00
20
0.00
30
350.00
11
40.00
21
0.00
31
350.00
12
40.00
22
15.00
32
350.00
13
-40.00
23
15.00
33
350.00
0
3DFACE
8
CHSHML_SHQAYM
10
-40.00
20
0.00
30
430.00
11
40.00
21
0.00
31
430.00
12
40.00
22
15.00
32
430.00
13
-40.00
23
15.00
33
430.00
0
3DFACE
8
CHSHML_SHQAYM
10
-40.00
20
0.00
30
350.00
11
40.00
21
0.00
31
350.00
12
40.00
22
0.00
32
430.00
13
-40.00
23
0.00
33
430.00
0
3DFACE
8
CHSHML_SHQAYM
10
-40.00
20
15.00
30
350.00
11
40.00
21
15.00
31
350.00
12
40.00
22
15.00
32
430.00
13
-40.00
23
15.00
33
430.00
0
3DFACE
8
CHSHML_SHQAYM
10
-40.00
20
0.00
30
350.00
11
-40.00
21
15.00
31
350.00
12
-40.00
22
15.00
32
430.00
13
-40.00
23
0.00
33
430.00
0
3DFACE
8
CHSHML_SHQAYM
10
40.00
20
0.00
30
350.00
11
40.00
21
15.00
31
350.00
12
40.00
22
15.00
32
430.00
13
40.00
23
0.00
33
430.00
0
TEXT
8
LABELS
10
-40.00
20
-80.00
30
350.00
40
60.00
1
\U+05E9\U+05E7\U+05E2 \U+05D9\U+05D7\U+05D9\U+05D3
7
HEB
0
3DFACE
8
CHSHML_SHQAYM
10
620.00
20
0.00
30
350.00
11
780.00
21
0.00
31
350.00
12
780.00
22
15.00
32
350.00
13
620.00
23
15.00
33
350.00
0
3DFACE
8
CHSHML_SHQAYM
10
620.00
20
0.00
30
430.00
11
780.00
21
0.00
31
430.00
12
780.00
22
15.00
32
430.00
13
620.00
23
15.00
33
430.00
0
3DFACE
8
CHSHML_SHQAYM
10
620.00
20
0.00
30
350.00
11
780.00
21
0.00
31
350.00
12
780.00
22
0.00
32
430.00
13
620.00
23
0.00
33
430.00
0
3DFACE
8
CHSHML_SHQAYM
10
620.00
20
15.00
30
350.00
11
780.00
21
15.00
31
350.00
12
780.00
22
15.00
32
430.00
13
620.00
23
15.00
33
430.00
0
3DFACE
8
CHSHML_SHQAYM
10
620.00
20
0.00
30
350.00
11
620.00
21
15.00
31
350.00
12
620.00
22
15.00
32
430.00
13
620.00
23
0.00
33
430.00
0
3DFACE
8
CHSHML_SHQAYM
10
780.00
20
0.00
30
350.00
11
780.00
21
15.00
31
350.00
12
780.00
22
15.00
32
430.00
13
780.00
23
0.00
33
430.00
0
TEXT
8
LABELS
10
620.00
20
-80.00
30
350.00
40
60.00
1
\U+05E9\U+05E7\U+05E2 \U+05DB\U+05E4\U+05D5\U+05DC
7
HEB
0
3DFACE
8
CHSHML_SHQAYM
10
1280.00
20
0.00
30
350.00
11
1520.00
21
0.00
31
350.00
12
1520.00
22
15.00
32
350.00
13
1280.00
23
15.00
33
350.00
0
3DFACE
8
CHSHML_SHQAYM
10
1280.00
20
0.00
30
430.00
11
1520.00
21
0.00
31
430.00
12
1520.00
22
15.00
32
430.00
13
1280.00
23
15.00
33
430.00
0
3DFACE
8
CHSHML_SHQAYM
10
1280.00
20
0.00
30
350.00
11
1520.00
21
0.00
31
350.00
12
1520.00
22
0.00
32
430.00
13
1280.00
23
0.00
33
430.00
0
3DFACE
8
CHSHML_SHQAYM
10
1280.00
20
15.00
30
350.00
11
1520.00
21
15.00
31
350.00
12
1520.00
22
15.00
32
430.00
13
1280.00
23
15.00
33
430.00
0
3DFACE
8
CHSHML_SHQAYM
10
1280.00
20
0.00
30
350.00
11
1280.00
21
15.00
31
350.00
12
1280.00
22
15.00
32
430.00
13
1280.00
23
0.00
33
430.00
0
3DFACE
8
CHSHML_SHQAYM
10
1520.00
20
0.00
30
350.00
11
1520.00
21
15.00
31
350.00
12
1520.00
22
15.00
32
430.00
13
1520.00
23
0.00
33
430.00
0
TEXT
8
LABELS
10
1280.00
20
-80.00
30
350.00
40
60.00
1
\U+05E9\U+05E7\U+05E2 \U+05DE\U+05E9\U+05D5\U+05DC\U+05E9
7
HEB
0
3DFACE
8
CHSHML_SHQAYM
10
2020.00
20
0.00
30
1150.00
11
2180.00
21
0.00
31
1150.00
12
2180.00
22
15.00
32
1150.00
13
2020.00
23
15.00
33
1150.00
0
3DFACE
8
CHSHML_SHQAYM
10
2020.00
20
0.00
30
1230.00
11
2180.00
21
0.00
31
1230.00
12
2180.00
22
15.00
32
1230.00
13
2020.00
23
15.00
33
1230.00
0
3DFACE
8
CHSHML_SHQAYM
10
2020.00
20
0.00
30
1150.00
11
2180.00
21
0.00
31
1150.00
12
2180.00
22
0.00
32
1230.00
13
2020.00
23
0.00
33
1230.00
0
3DFACE
8
CHSHML_SHQAYM
10
2020.00
20
15.00
30
1150.00
11
2180.00
21
15.00
31
1150.00
12
2180.00
22
15.00
32
1230.00
13
2020.00
23
15.00
33
1230.00
0
3DFACE
8
CHSHML_SHQAYM
10
2020.00
20
0.00
30
1150.00
11
2020.00
21
15.00
31
1150.00
12
2020.00
22
15.00
32
1230.00
13
2020.00
23
0.00
33
1230.00
0
3DFACE
8
CHSHML_SHQAYM
10
2180.00
20
0.00
30
1150.00
11
2180.00
21
15.00
31
1150.00
12
2180.00
22
15.00
32
1230.00
13
2180.00
23
0.00
33
1230.00
0
TEXT
8
LABELS
10
2020.00
20
-80.00
30
1150.00
40
60.00
1
\U+05E9\U+05E7\U+05E2 \U+05DE\U+05E2\U+05DC \U+05E9\U+05D9\U+05E9 (\U+05DE\U+05D8\U+05D1\U+05D7)
7
HEB
0
3DFACE
8
CHSHML_SHQAYM
10
2720.00
20
0.00
30
1100.00
11
2880.00
21
0.00
31
1100.00
12
2880.00
22
15.00
32
1100.00
13
2720.00
23
15.00
33
1100.00
0
3DFACE
8
CHSHML_SHQAYM
10
2720.00
20
0.00
30
1180.00
11
2880.00
21
0.00
31
1180.00
12
2880.00
22
15.00
32
1180.00
13
2720.00
23
15.00
33
1180.00
0
3DFACE
8
CHSHML_SHQAYM
10
2720.00
20
0.00
30
1100.00
11
2880.00
21
0.00
31
1100.00
12
2880.00
22
0.00
32
1180.00
13
2720.00
23
0.00
33
1180.00
0
3DFACE
8
CHSHML_SHQAYM
10
2720.00
20
15.00
30
1100.00
11
2880.00
21
15.00
31
1100.00
12
2880.00
22
15.00
32
1180.00
13
2720.00
23
15.00
33
1180.00
0
3DFACE
8
CHSHML_SHQAYM
10
2720.00
20
0.00
30
1100.00
11
2720.00
21
15.00
31
1100.00
12
2720.00
22
15.00
32
1180.00
13
2720.00
23
0.00
33
1180.00
0
3DFACE
8
CHSHML_SHQAYM
10
2880.00
20
0.00
30
1100.00
11
2880.00
21
15.00
31
1100.00
12
2880.00
22
15.00
32
1180.00
13
2880.00
23
0.00
33
1180.00
0
TEXT
8
LABELS
10
2720.00
20
-80.00
30
1100.00
40
60.00
1
\U+05E9\U+05E7\U+05E2 \U+05E9\U+05D9\U+05E8\U+05D5\U+05EA
7
HEB
0
3DFACE
8
CHSHML_SHQAYM
10
3450.00
20
0.00
30
900.00
11
3550.00
21
0.00
31
900.00
12
3550.00
22
120.00
32
900.00
13
3450.00
23
120.00
33
900.00
0
3DFACE
8
CHSHML_SHQAYM
10
3450.00
20
0.00
30
1000.00
11
3550.00
21
0.00
31
1000.00
12
3550.00
22
120.00
32
1000.00
13
3450.00
23
120.00
33
1000.00
0
3DFACE
8
CHSHML_SHQAYM
10
3450.00
20
0.00
30
900.00
11
3550.00
21
0.00
31
900.00
12
3550.00
22
0.00
32
1000.00
13
3450.00
23
0.00
33
1000.00
0
3DFACE
8
CHSHML_SHQAYM
10
3450.00
20
120.00
30
900.00
11
3550.00
21
120.00
31
900.00
12
3550.00
22
120.00
32
1000.00
13
3450.00
23
120.00
33
1000.00
0
3DFACE
8
CHSHML_SHQAYM
10
3450.00
20
0.00
30
900.00
11
3450.00
21
120.00
31
900.00
12
3450.00
22
120.00
32
1000.00
13
3450.00
23
0.00
33
1000.00
0
3DFACE
8
CHSHML_SHQAYM
10
3550.00
20
0.00
30
900.00
11
3550.00
21
120.00
31
900.00
12
3550.00
22
120.00
32
1000.00
13
3550.00
23
0.00
33
1000.00
0
TEXT
8
LABELS
10
3450.00
20
-80.00
30
900.00
40
60.00
1
\U+05E9\U+05E7\U+05E2 \U+05E4\U+05D5\U+05E4\U+05D0\U+05E4 (\U+05E0\U+05E9\U+05DC\U+05E3 \U+05DE\U+05E9\U+05D9\U+05E9)
7
HEB
0
3DFACE
8
CHSHML_SHQAYM
10
4112.50
20
0.00
30
350.00
11
4287.50
21
0.00
31
350.00
12
4287.50
22
70.00
32
350.00
13
4112.50
23
70.00
33
350.00
0
3DFACE
8
CHSHML_SHQAYM
10
4112.50
20
0.00
30
420.00
11
4287.50
21
0.00
31
420.00
12
4287.50
22
70.00
32
420.00
13
4112.50
23
70.00
33
420.00
0
3DFACE
8
CHSHML_SHQAYM
10
4112.50
20
0.00
30
350.00
11
4287.50
21
0.00
31
350.00
12
4287.50
22
0.00
32
420.00
13
4112.50
23
0.00
33
420.00
0
3DFACE
8
CHSHML_SHQAYM
10
4112.50
20
70.00
30
350.00
11
4287.50
21
70.00
31
350.00
12
4287.50
22
70.00
32
420.00
13
4112.50
23
70.00
33
420.00
0
3DFACE
8
CHSHML_SHQAYM
10
4112.50
20
0.00
30
350.00
11
4112.50
21
70.00
31
350.00
12
4112.50
22
70.00
32
420.00
13
4112.50
23
0.00
33
420.00
0
3DFACE
8
CHSHML_SHQAYM
10
4287.50
20
0.00
30
350.00
11
4287.50
21
70.00
31
350.00
12
4287.50
22
70.00
32
420.00
13
4287.50
23
0.00
33
420.00
0
TEXT
8
LABELS
10
4112.50
20
-80.00
30
350.00
40
60.00
1
\U+05E9\U+05E7\U+05E2 \U+05DE\U+05D5\U+05D2\U+05DF \U+05DE\U+05D9\U+05DD IP44
7
HEB
0
3DFACE
8
CHSHML_SHQAYM
10
4850.00
20
0.00
30
900.00
11
4950.00
21
0.00
31
900.00
12
4950.00
22
60.00
32
900.00
13
4850.00
23
60.00
33
900.00
0
3DFACE
8
CHSHML_SHQAYM
10
4850.00
20
0.00
30
1000.00
11
4950.00
21
0.00
31
1000.00
12
4950.00
22
60.00
32
1000.00
13
4850.00
23
60.00
33
1000.00
0
3DFACE
8
CHSHML_SHQAYM
10
4850.00
20
0.00
30
900.00
11
4950.00
21
0.00
31
900.00
12
4950.00
22
0.00
32
1000.00
13
4850.00
23
0.00
33
1000.00
0
3DFACE
8
CHSHML_SHQAYM
10
4850.00
20
60.00
30
900.00
11
4950.00
21
60.00
31
900.00
12
4950.00
22
60.00
32
1000.00
13
4850.00
23
60.00
33
1000.00
0
3DFACE
8
CHSHML_SHQAYM
10
4850.00
20
0.00
30
900.00
11
4850.00
21
60.00
31
900.00
12
4850.00
22
60.00
32
1000.00
13
4850.00
23
0.00
33
1000.00
0
3DFACE
8
CHSHML_SHQAYM
10
4950.00
20
0.00
30
900.00
11
4950.00
21
60.00
31
900.00
12
4950.00
22
60.00
32
1000.00
13
4950.00
23
0.00
33
1000.00
0
TEXT
8
LABELS
10
4850.00
20
-80.00
30
900.00
40
60.00
1
\U+05E9\U+05E7\U+05E2 \U+05DB\U+05D5\U+05D7 \U+05EA\U+05DC\U+05EA-\U+05E4\U+05D0\U+05D6\U+05D9
7
HEB
0
3DFACE
8
CHSHML_SHQAYM
10
5560.00
20
0.00
30
1150.00
11
5640.00
21
0.00
31
1150.00
12
5640.00
22
40.00
32
1150.00
13
5560.00
23
40.00
33
1150.00
0
3DFACE
8
CHSHML_SHQAYM
10
5560.00
20
0.00
30
1230.00
11
5640.00
21
0.00
31
1230.00
12
5640.00
22
40.00
32
1230.00
13
5560.00
23
40.00
33
1230.00
0
3DFACE
8
CHSHML_SHQAYM
10
5560.00
20
0.00
30
1150.00
11
5640.00
21
0.00
31
1150.00
12
5640.00
22
0.00
32
1230.00
13
5560.00
23
0.00
33
1230.00
0
3DFACE
8
CHSHML_SHQAYM
10
5560.00
20
40.00
30
1150.00
11
5640.00
21
40.00
31
1150.00
12
5640.00
22
40.00
32
1230.00
13
5560.00
23
40.00
33
1230.00
0
3DFACE
8
CHSHML_SHQAYM
10
5560.00
20
0.00
30
1150.00
11
5560.00
21
40.00
31
1150.00
12
5560.00
22
40.00
32
1230.00
13
5560.00
23
0.00
33
1230.00
0
3DFACE
8
CHSHML_SHQAYM
10
5640.00
20
0.00
30
1150.00
11
5640.00
21
40.00
31
1150.00
12
5640.00
22
40.00
32
1230.00
13
5640.00
23
0.00
33
1230.00
0
TEXT
8
LABELS
10
5560.00
20
-80.00
30
1150.00
40
60.00
1
\U+05E9\U+05E7\U+05E2 USB / USB-C \U+05DE\U+05E9\U+05D5\U+05DC\U+05D1
7
HEB
0
3DFACE
8
CHSHML_SHQAYM
10
6240.00
20
0.00
30
0.00
11
6360.00
21
0.00
31
0.00
12
6360.00
22
0.00
32
0.00
13
6240.00
23
0.00
33
0.00
0
3DFACE
8
CHSHML_SHQAYM
10
6240.00
20
0.00
30
120.00
11
6360.00
21
0.00
31
120.00
12
6360.00
22
0.00
32
120.00
13
6240.00
23
0.00
33
120.00
0
3DFACE
8
CHSHML_SHQAYM
10
6240.00
20
0.00
30
0.00
11
6360.00
21
0.00
31
0.00
12
6360.00
22
0.00
32
120.00
13
6240.00
23
0.00
33
120.00
0
3DFACE
8
CHSHML_SHQAYM
10
6240.00
20
0.00
30
0.00
11
6360.00
21
0.00
31
0.00
12
6360.00
22
0.00
32
120.00
13
6240.00
23
0.00
33
120.00
0
3DFACE
8
CHSHML_SHQAYM
10
6240.00
20
0.00
30
0.00
11
6240.00
21
0.00
31
0.00
12
6240.00
22
0.00
32
120.00
13
6240.00
23
0.00
33
120.00
0
3DFACE
8
CHSHML_SHQAYM
10
6360.00
20
0.00
30
0.00
11
6360.00
21
0.00
31
0.00
12
6360.00
22
0.00
32
120.00
13
6360.00
23
0.00
33
120.00
0
TEXT
8
LABELS
10
6240.00
20
-80.00
30
0.00
40
60.00
1
\U+05E9\U+05E7\U+05E2 \U+05E8\U+05E6\U+05E4\U+05D4 (\U+05E7\U+05D5\U+05E4\U+05E1\U+05EA \U+05E8\U+05E6\U+05E4\U+05D4)
7
HEB
0
3DFACE
8
CHSHML_MPSQYM
10
6960.00
20
0.00
30
1150.00
11
7040.00
21
0.00
31
1150.00
12
7040.00
22
15.00
32
1150.00
13
6960.00
23
15.00
33
1150.00
0
3DFACE
8
CHSHML_MPSQYM
10
6960.00
20
0.00
30
1230.00
11
7040.00
21
0.00
31
1230.00
12
7040.00
22
15.00
32
1230.00
13
6960.00
23
15.00
33
1230.00
0
3DFACE
8
CHSHML_MPSQYM
10
6960.00
20
0.00
30
1150.00
11
7040.00
21
0.00
31
1150.00
12
7040.00
22
0.00
32
1230.00
13
6960.00
23
0.00
33
1230.00
0
3DFACE
8
CHSHML_MPSQYM
10
6960.00
20
15.00
30
1150.00
11
7040.00
21
15.00
31
1150.00
12
7040.00
22
15.00
32
1230.00
13
6960.00
23
15.00
33
1230.00
0
3DFACE
8
CHSHML_MPSQYM
10
6960.00
20
0.00
30
1150.00
11
6960.00
21
15.00
31
1150.00
12
6960.00
22
15.00
32
1230.00
13
6960.00
23
0.00
33
1230.00
0
3DFACE
8
CHSHML_MPSQYM
10
7040.00
20
0.00
30
1150.00
11
7040.00
21
15.00
31
1150.00
12
7040.00
22
15.00
32
1230.00
13
7040.00
23
0.00
33
1230.00
0
TEXT
8
LABELS
10
6960.00
20
-80.00
30
1150.00
40
60.00
1
\U+05DE\U+05E4\U+05E1\U+05E7 \U+05D7\U+05D3-\U+05E7\U+05D5\U+05D8\U+05D1\U+05D9
7
HEB
0
3DFACE
8
CHSHML_MPSQYM
10
7660.00
20
0.00
30
1150.00
11
7740.00
21
0.00
31
1150.00
12
7740.00
22
15.00
32
1150.00
13
7660.00
23
15.00
33
1150.00
0
3DFACE
8
CHSHML_MPSQYM
10
7660.00
20
0.00
30
1230.00
11
7740.00
21
0.00
31
1230.00
12
7740.00
22
15.00
32
1230.00
13
7660.00
23
15.00
33
1230.00
0
3DFACE
8
CHSHML_MPSQYM
10
7660.00
20
0.00
30
1150.00
11
7740.00
21
0.00
31
1150.00
12
7740.00
22
0.00
32
1230.00
13
7660.00
23
0.00
33
1230.00
0
3DFACE
8
CHSHML_MPSQYM
10
7660.00
20
15.00
30
1150.00
11
7740.00
21
15.00
31
1150.00
12
7740.00
22
15.00
32
1230.00
13
7660.00
23
15.00
33
1230.00
0
3DFACE
8
CHSHML_MPSQYM
10
7660.00
20
0.00
30
1150.00
11
7660.00
21
15.00
31
1150.00
12
7660.00
22
15.00
32
1230.00
13
7660.00
23
0.00
33
1230.00
0
3DFACE
8
CHSHML_MPSQYM
10
7740.00
20
0.00
30
1150.00
11
7740.00
21
15.00
31
1150.00
12
7740.00
22
15.00
32
1230.00
13
7740.00
23
0.00
33
1230.00
0
TEXT
8
LABELS
10
7660.00
20
-80.00
30
1150.00
40
60.00
1
\U+05DE\U+05E4\U+05E1\U+05E7 \U+05D3\U+05D5-\U+05E7\U+05D5\U+05D8\U+05D1\U+05D9 / \U+05DB\U+05E4\U+05D5\U+05DC
7
HEB
0
3DFACE
8
CHSHML_MPSQYM
10
-40.00
20
-700.00
30
1150.00
11
40.00
21
-700.00
31
1150.00
12
40.00
22
-685.00
32
1150.00
13
-40.00
23
-685.00
33
1150.00
0
3DFACE
8
CHSHML_MPSQYM
10
-40.00
20
-700.00
30
1230.00
11
40.00
21
-700.00
31
1230.00
12
40.00
22
-685.00
32
1230.00
13
-40.00
23
-685.00
33
1230.00
0
3DFACE
8
CHSHML_MPSQYM
10
-40.00
20
-700.00
30
1150.00
11
40.00
21
-700.00
31
1150.00
12
40.00
22
-700.00
32
1230.00
13
-40.00
23
-700.00
33
1230.00
0
3DFACE
8
CHSHML_MPSQYM
10
-40.00
20
-685.00
30
1150.00
11
40.00
21
-685.00
31
1150.00
12
40.00
22
-685.00
32
1230.00
13
-40.00
23
-685.00
33
1230.00
0
3DFACE
8
CHSHML_MPSQYM
10
-40.00
20
-700.00
30
1150.00
11
-40.00
21
-685.00
31
1150.00
12
-40.00
22
-685.00
32
1230.00
13
-40.00
23
-700.00
33
1230.00
0
3DFACE
8
CHSHML_MPSQYM
10
40.00
20
-700.00
30
1150.00
11
40.00
21
-685.00
31
1150.00
12
40.00
22
-685.00
32
1230.00
13
40.00
23
-700.00
33
1230.00
0
TEXT
8
LABELS
10
-40.00
20
-780.00
30
1150.00
40
60.00
1
\U+05DE\U+05E4\U+05E1\U+05E7 \U+05EA\U+05DC\U+05EA-\U+05E7\U+05D5\U+05D8\U+05D1\U+05D9
7
HEB
0
3DFACE
8
CHSHML_MPSQYM
10
660.00
20
-700.00
30
1150.00
11
740.00
21
-700.00
31
1150.00
12
740.00
22
-685.00
32
1150.00
13
660.00
23
-685.00
33
1150.00
0
3DFACE
8
CHSHML_MPSQYM
10
660.00
20
-700.00
30
1230.00
11
740.00
21
-700.00
31
1230.00
12
740.00
22
-685.00
32
1230.00
13
660.00
23
-685.00
33
1230.00
0
3DFACE
8
CHSHML_MPSQYM
10
660.00
20
-700.00
30
1150.00
11
740.00
21
-700.00
31
1150.00
12
740.00
22
-700.00
32
1230.00
13
660.00
23
-700.00
33
1230.00
0
3DFACE
8
CHSHML_MPSQYM
10
660.00
20
-685.00
30
1150.00
11
740.00
21
-685.00
31
1150.00
12
740.00
22
-685.00
32
1230.00
13
660.00
23
-685.00
33
1230.00
0
3DFACE
8
CHSHML_MPSQYM
10
660.00
20
-700.00
30
1150.00
11
660.00
21
-685.00
31
1150.00
12
660.00
22
-685.00
32
1230.00
13
660.00
23
-700.00
33
1230.00
0
3DFACE
8
CHSHML_MPSQYM
10
740.00
20
-700.00
30
1150.00
11
740.00
21
-685.00
31
1150.00
12
740.00
22
-685.00
32
1230.00
13
740.00
23
-700.00
33
1230.00
0
TEXT
8
LABELS
10
660.00
20
-780.00
30
1150.00
40
60.00
1
\U+05DE\U+05E4\U+05E1\U+05E7 \U+05DE\U+05D7\U+05DC\U+05D9\U+05E3 (\U+05D7\U+05D9\U+05DC\U+05D5\U+05E3)
7
HEB
0
3DFACE
8
CHSHML_MPSQYM
10
1360.00
20
-700.00
30
1150.00
11
1440.00
21
-700.00
31
1150.00
12
1440.00
22
-685.00
32
1150.00
13
1360.00
23
-685.00
33
1150.00
0
3DFACE
8
CHSHML_MPSQYM
10
1360.00
20
-700.00
30
1230.00
11
1440.00
21
-700.00
31
1230.00
12
1440.00
22
-685.00
32
1230.00
13
1360.00
23
-685.00
33
1230.00
0
3DFACE
8
CHSHML_MPSQYM
10
1360.00
20
-700.00
30
1150.00
11
1440.00
21
-700.00
31
1150.00
12
1440.00
22
-700.00
32
1230.00
13
1360.00
23
-700.00
33
1230.00
0
3DFACE
8
CHSHML_MPSQYM
10
1360.00
20
-685.00
30
1150.00
11
1440.00
21
-685.00
31
1150.00
12
1440.00
22
-685.00
32
1230.00
13
1360.00
23
-685.00
33
1230.00
0
3DFACE
8
CHSHML_MPSQYM
10
1360.00
20
-700.00
30
1150.00
11
1360.00
21
-685.00
31
1150.00
12
1360.00
22
-685.00
32
1230.00
13
1360.00
23
-700.00
33
1230.00
0
3DFACE
8
CHSHML_MPSQYM
10
1440.00
20
-700.00
30
1150.00
11
1440.00
21
-685.00
31
1150.00
12
1440.00
22
-685.00
32
1230.00
13
1440.00
23
-700.00
33
1230.00
0
TEXT
8
LABELS
10
1360.00
20
-780.00
30
1150.00
40
60.00
1
\U+05DE\U+05E4\U+05E1\U+05E7 \U+05E6\U+05DC\U+05D1
7
HEB
0
3DFACE
8
CHSHML_MPSQYM
10
2060.00
20
-700.00
30
1150.00
11
2140.00
21
-700.00
31
1150.00
12
2140.00
22
-685.00
32
1150.00
13
2060.00
23
-685.00
33
1150.00
0
3DFACE
8
CHSHML_MPSQYM
10
2060.00
20
-700.00
30
1230.00
11
2140.00
21
-700.00
31
1230.00
12
2140.00
22
-685.00
32
1230.00
13
2060.00
23
-685.00
33
1230.00
0
3DFACE
8
CHSHML_MPSQYM
10
2060.00
20
-700.00
30
1150.00
11
2140.00
21
-700.00
31
1150.00
12
2140.00
22
-700.00
32
1230.00
13
2060.00
23
-700.00
33
1230.00
0
3DFACE
8
CHSHML_MPSQYM
10
2060.00
20
-685.00
30
1150.00
11
2140.00
21
-685.00
31
1150.00
12
2140.00
22
-685.00
32
1230.00
13
2060.00
23
-685.00
33
1230.00
0
3DFACE
8
CHSHML_MPSQYM
10
2060.00
20
-700.00
30
1150.00
11
2060.00
21
-685.00
31
1150.00
12
2060.00
22
-685.00
32
1230.00
13
2060.00
23
-700.00
33
1230.00
0
3DFACE
8
CHSHML_MPSQYM
10
2140.00
20
-700.00
30
1150.00
11
2140.00
21
-685.00
31
1150.00
12
2140.00
22
-685.00
32
1230.00
13
2140.00
23
-700.00
33
1230.00
0
TEXT
8
LABELS
10
2060.00
20
-780.00
30
1150.00
40
60.00
1
\U+05D3\U+05D9\U+05DE\U+05E8 (\U+05E2\U+05DE\U+05E2\U+05DD)
7
HEB
0
3DFACE
8
CHSHML_MPSQYM
10
2760.00
20
-700.00
30
1150.00
11
2840.00
21
-700.00
31
1150.00
12
2840.00
22
-685.00
32
1150.00
13
2760.00
23
-685.00
33
1150.00
0
3DFACE
8
CHSHML_MPSQYM
10
2760.00
20
-700.00
30
1230.00
11
2840.00
21
-700.00
31
1230.00
12
2840.00
22
-685.00
32
1230.00
13
2760.00
23
-685.00
33
1230.00
0
3DFACE
8
CHSHML_MPSQYM
10
2760.00
20
-700.00
30
1150.00
11
2840.00
21
-700.00
31
1150.00
12
2840.00
22
-700.00
32
1230.00
13
2760.00
23
-700.00
33
1230.00
0
3DFACE
8
CHSHML_MPSQYM
10
2760.00
20
-685.00
30
1150.00
11
2840.00
21
-685.00
31
1150.00
12
2840.00
22
-685.00
32
1230.00
13
2760.00
23
-685.00
33
1230.00
0
3DFACE
8
CHSHML_MPSQYM
10
2760.00
20
-700.00
30
1150.00
11
2760.00
21
-685.00
31
1150.00
12
2760.00
22
-685.00
32
1230.00
13
2760.00
23
-700.00
33
1230.00
0
3DFACE
8
CHSHML_MPSQYM
10
2840.00
20
-700.00
30
1150.00
11
2840.00
21
-685.00
31
1150.00
12
2840.00
22
-685.00
32
1230.00
13
2840.00
23
-700.00
33
1230.00
0
TEXT
8
LABELS
10
2760.00
20
-780.00
30
1150.00
40
60.00
1
\U+05DC\U+05D7\U+05E6\U+05DF (\U+05DE\U+05D9\U+05D9\U+05D3\U+05D9)
7
HEB
0
3DFACE
8
CHSHML_MPSQYM
10
3460.00
20
-700.00
30
2200.00
11
3540.00
21
-700.00
31
2200.00
12
3540.00
22
-670.00
32
2200.00
13
3460.00
23
-670.00
33
2200.00
0
3DFACE
8
CHSHML_MPSQYM
10
3460.00
20
-700.00
30
2280.00
11
3540.00
21
-700.00
31
2280.00
12
3540.00
22
-670.00
32
2280.00
13
3460.00
23
-670.00
33
2280.00
0
3DFACE
8
CHSHML_MPSQYM
10
3460.00
20
-700.00
30
2200.00
11
3540.00
21
-700.00
31
2200.00
12
3540.00
22
-700.00
32
2280.00
13
3460.00
23
-700.00
33
2280.00
0
3DFACE
8
CHSHML_MPSQYM
10
3460.00
20
-670.00
30
2200.00
11
3540.00
21
-670.00
31
2200.00
12
3540.00
22
-670.00
32
2280.00
13
3460.00
23
-670.00
33
2280.00
0
3DFACE
8
CHSHML_MPSQYM
10
3460.00
20
-700.00
30
2200.00
11
3460.00
21
-670.00
31
2200.00
12
3460.00
22
-670.00
32
2280.00
13
3460.00
23
-700.00
33
2280.00
0
3DFACE
8
CHSHML_MPSQYM
10
3540.00
20
-700.00
30
2200.00
11
3540.00
21
-670.00
31
2200.00
12
3540.00
22
-670.00
32
2280.00
13
3540.00
23
-700.00
33
2280.00
0
TEXT
8
LABELS
10
3460.00
20
-780.00
30
2200.00
40
60.00
1
\U+05DE\U+05E4\U+05E1\U+05E7 \U+05D7\U+05D1\U+05DC \U+05DE\U+05E9\U+05D9\U+05DB\U+05D4
7
HEB
0
3DFACE
8
CHSHML_YTSYAVT_MKSHYRYM
10
4150.00
20
-700.00
30
300.00
11
4250.00
21
-700.00
31
300.00
12
4250.00
22
-640.00
32
300.00
13
4150.00
23
-640.00
33
300.00
0
3DFACE
8
CHSHML_YTSYAVT_MKSHYRYM
10
4150.00
20
-700.00
30
400.00
11
4250.00
21
-700.00
31
400.00
12
4250.00
22
-640.00
32
400.00
13
4150.00
23
-640.00
33
400.00
0
3DFACE
8
CHSHML_YTSYAVT_MKSHYRYM
10
4150.00
20
-700.00
30
300.00
11
4250.00
21
-700.00
31
300.00
12
4250.00
22
-700.00
32
400.00
13
4150.00
23
-700.00
33
400.00
0
3DFACE
8
CHSHML_YTSYAVT_MKSHYRYM
10
4150.00
20
-640.00
30
300.00
11
4250.00
21
-640.00
31
300.00
12
4250.00
22
-640.00
32
400.00
13
4150.00
23
-640.00
33
400.00
0
3DFACE
8
CHSHML_YTSYAVT_MKSHYRYM
10
4150.00
20
-700.00
30
300.00
11
4150.00
21
-640.00
31
300.00
12
4150.00
22
-640.00
32
400.00
13
4150.00
23
-700.00
33
400.00
0
3DFACE
8
CHSHML_YTSYAVT_MKSHYRYM
10
4250.00
20
-700.00
30
300.00
11
4250.00
21
-640.00
31
300.00
12
4250.00
22
-640.00
32
400.00
13
4250.00
23
-700.00
33
400.00
0
TEXT
8
LABELS
10
4150.00
20
-780.00
30
300.00
40
60.00
1
\U+05D9\U+05E6\U+05D9\U+05D0\U+05EA \U+05D7\U+05E9\U+05DE\U+05DC \U+05DC\U+05EA\U+05E0\U+05D5\U+05E8 \U+05D0\U+05E4\U+05D9\U+05D9\U+05D4
7
HEB
0
3DFACE
8
CHSHML_YTSYAVT_MKSHYRYM
10
4850.00
20
-700.00
30
300.00
11
4950.00
21
-700.00
31
300.00
12
4950.00
22
-640.00
32
300.00
13
4850.00
23
-640.00
33
300.00
0
3DFACE
8
CHSHML_YTSYAVT_MKSHYRYM
10
4850.00
20
-700.00
30
400.00
11
4950.00
21
-700.00
31
400.00
12
4950.00
22
-640.00
32
400.00
13
4850.00
23
-640.00
33
400.00
0
3DFACE
8
CHSHML_YTSYAVT_MKSHYRYM
10
4850.00
20
-700.00
30
300.00
11
4950.00
21
-700.00
31
300.00
12
4950.00
22
-700.00
32
400.00
13
4850.00
23
-700.00
33
400.00
0
3DFACE
8
CHSHML_YTSYAVT_MKSHYRYM
10
4850.00
20
-640.00
30
300.00
11
4950.00
21
-640.00
31
300.00
12
4950.00
22
-640.00
32
400.00
13
4850.00
23
-640.00
33
400.00
0
3DFACE
8
CHSHML_YTSYAVT_MKSHYRYM
10
4850.00
20
-700.00
30
300.00
11
4850.00
21
-640.00
31
300.00
12
4850.00
22
-640.00
32
400.00
13
4850.00
23
-700.00
33
400.00
0
3DFACE
8
CHSHML_YTSYAVT_MKSHYRYM
10
4950.00
20
-700.00
30
300.00
11
4950.00
21
-640.00
31
300.00
12
4950.00
22
-640.00
32
400.00
13
4950.00
23
-700.00
33
400.00
0
TEXT
8
LABELS
10
4850.00
20
-780.00
30
300.00
40
60.00
1
\U+05D9\U+05E6\U+05D9\U+05D0\U+05EA \U+05D7\U+05E9\U+05DE\U+05DC \U+05DC\U+05DB\U+05D9\U+05E8\U+05D9\U+05D9\U+05DD
7
HEB
0
3DFACE
8
CHSHML_YTSYAVT_MKSHYRYM
10
5560.00
20
-700.00
30
300.00
11
5640.00
21
-700.00
31
300.00
12
5640.00
22
-685.00
32
300.00
13
5560.00
23
-685.00
33
300.00
0
3DFACE
8
CHSHML_YTSYAVT_MKSHYRYM
10
5560.00
20
-700.00
30
380.00
11
5640.00
21
-700.00
31
380.00
12
5640.00
22
-685.00
32
380.00
13
5560.00
23
-685.00
33
380.00
0
3DFACE
8
CHSHML_YTSYAVT_MKSHYRYM
10
5560.00
20
-700.00
30
300.00
11
5640.00
21
-700.00
31
300.00
12
5640.00
22
-700.00
32
380.00
13
5560.00
23
-700.00
33
380.00
0
3DFACE
8
CHSHML_YTSYAVT_MKSHYRYM
10
5560.00
20
-685.00
30
300.00
11
5640.00
21
-685.00
31
300.00
12
5640.00
22
-685.00
32
380.00
13
5560.00
23
-685.00
33
380.00
0
3DFACE
8
CHSHML_YTSYAVT_MKSHYRYM
10
5560.00
20
-700.00
30
300.00
11
5560.00
21
-685.00
31
300.00
12
5560.00
22
-685.00
32
380.00
13
5560.00
23
-700.00
33
380.00
0
3DFACE
8
CHSHML_YTSYAVT_MKSHYRYM
10
5640.00
20
-700.00
30
300.00
11
5640.00
21
-685.00
31
300.00
12
5640.00
22
-685.00
32
380.00
13
5640.00
23
-700.00
33
380.00
0
TEXT
8
LABELS
10
5560.00
20
-780.00
30
300.00
40
60.00
1
\U+05D9\U+05E6\U+05D9\U+05D0\U+05EA \U+05D7\U+05E9\U+05DE\U+05DC \U+05DC\U+05DE\U+05D3\U+05D9\U+05D7 \U+05DB\U+05DC\U+05D9\U+05DD
7
HEB
0
3DFACE
8
CHSHML_YTSYAVT_MKSHYRYM
10
6260.00
20
-700.00
30
1500.00
11
6340.00
21
-700.00
31
1500.00
12
6340.00
22
-685.00
32
1500.00
13
6260.00
23
-685.00
33
1500.00
0
3DFACE
8
CHSHML_YTSYAVT_MKSHYRYM
10
6260.00
20
-700.00
30
1580.00
11
6340.00
21
-700.00
31
1580.00
12
6340.00
22
-685.00
32
1580.00
13
6260.00
23
-685.00
33
1580.00
0
3DFACE
8
CHSHML_YTSYAVT_MKSHYRYM
10
6260.00
20
-700.00
30
1500.00
11
6340.00
21
-700.00
31
1500.00
12
6340.00
22
-700.00
32
1580.00
13
6260.00
23
-700.00
33
1580.00
0
3DFACE
8
CHSHML_YTSYAVT_MKSHYRYM
10
6260.00
20
-685.00
30
1500.00
11
6340.00
21
-685.00
31
1500.00
12
6340.00
22
-685.00
32
1580.00
13
6260.00
23
-685.00
33
1580.00
0
3DFACE
8
CHSHML_YTSYAVT_MKSHYRYM
10
6260.00
20
-700.00
30
1500.00
11
6260.00
21
-685.00
31
1500.00
12
6260.00
22
-685.00
32
1580.00
13
6260.00
23
-700.00
33
1580.00
0
3DFACE
8
CHSHML_YTSYAVT_MKSHYRYM
10
6340.00
20
-700.00
30
1500.00
11
6340.00
21
-685.00
31
1500.00
12
6340.00
22
-685.00
32
1580.00
13
6340.00
23
-700.00
33
1580.00
0
TEXT
8
LABELS
10
6260.00
20
-780.00
30
1500.00
40
60.00
1
\U+05D9\U+05E6\U+05D9\U+05D0\U+05EA \U+05D7\U+05E9\U+05DE\U+05DC \U+05DC\U+05DE\U+05E7\U+05E8\U+05E8
7
HEB
0
3DFACE
8
CHSHML_YTSYAVT_MKSHYRYM
10
6960.00
20
-700.00
30
1500.00
11
7040.00
21
-700.00
31
1500.00
12
7040.00
22
-685.00
32
1500.00
13
6960.00
23
-685.00
33
1500.00
0
3DFACE
8
CHSHML_YTSYAVT_MKSHYRYM
10
6960.00
20
-700.00
30
1580.00
11
7040.00
21
-700.00
31
1580.00
12
7040.00
22
-685.00
32
1580.00
13
6960.00
23
-685.00
33
1580.00
0
3DFACE
8
CHSHML_YTSYAVT_MKSHYRYM
10
6960.00
20
-700.00
30
1500.00
11
7040.00
21
-700.00
31
1500.00
12
7040.00
22
-700.00
32
1580.00
13
6960.00
23
-700.00
33
1580.00
0
3DFACE
8
CHSHML_YTSYAVT_MKSHYRYM
10
6960.00
20
-685.00
30
1500.00
11
7040.00
21
-685.00
31
1500.00
12
7040.00
22
-685.00
32
1580.00
13
6960.00
23
-685.00
33
1580.00
0
3DFACE
8
CHSHML_YTSYAVT_MKSHYRYM
10
6960.00
20
-700.00
30
1500.00
11
6960.00
21
-685.00
31
1500.00
12
6960.00
22
-685.00
32
1580.00
13
6960.00
23
-700.00
33
1580.00
0
3DFACE
8
CHSHML_YTSYAVT_MKSHYRYM
10
7040.00
20
-700.00
30
1500.00
11
7040.00
21
-685.00
31
1500.00
12
7040.00
22
-685.00
32
1580.00
13
7040.00
23
-700.00
33
1580.00
0
TEXT
8
LABELS
10
6960.00
20
-780.00
30
1500.00
40
60.00
1
\U+05D9\U+05E6\U+05D9\U+05D0\U+05EA \U+05D7\U+05E9\U+05DE\U+05DC \U+05DC\U+05DE\U+05D9\U+05E7\U+05E8\U+05D5\U+05D2\U+05DC
7
HEB
0
3DFACE
8
CHSHML_YTSYAVT_MKSHYRYM
10
7660.00
20
-700.00
30
2100.00
11
7740.00
21
-700.00
31
2100.00
12
7740.00
22
-685.00
32
2100.00
13
7660.00
23
-685.00
33
2100.00
0
3DFACE
8
CHSHML_YTSYAVT_MKSHYRYM
10
7660.00
20
-700.00
30
2180.00
11
7740.00
21
-700.00
31
2180.00
12
7740.00
22
-685.00
32
2180.00
13
7660.00
23
-685.00
33
2180.00
0
3DFACE
8
CHSHML_YTSYAVT_MKSHYRYM
10
7660.00
20
-700.00
30
2100.00
11
7740.00
21
-700.00
31
2100.00
12
7740.00
22
-700.00
32
2180.00
13
7660.00
23
-700.00
33
2180.00
0
3DFACE
8
CHSHML_YTSYAVT_MKSHYRYM
10
7660.00
20
-685.00
30
2100.00
11
7740.00
21
-685.00
31
2100.00
12
7740.00
22
-685.00
32
2180.00
13
7660.00
23
-685.00
33
2180.00
0
3DFACE
8
CHSHML_YTSYAVT_MKSHYRYM
10
7660.00
20
-700.00
30
2100.00
11
7660.00
21
-685.00
31
2100.00
12
7660.00
22
-685.00
32
2180.00
13
7660.00
23
-700.00
33
2180.00
0
3DFACE
8
CHSHML_YTSYAVT_MKSHYRYM
10
7740.00
20
-700.00
30
2100.00
11
7740.00
21
-685.00
31
2100.00
12
7740.00
22
-685.00
32
2180.00
13
7740.00
23
-700.00
33
2180.00
0
TEXT
8
LABELS
10
7660.00
20
-780.00
30
2100.00
40
60.00
1
\U+05D9\U+05E6\U+05D9\U+05D0\U+05EA \U+05D7\U+05E9\U+05DE\U+05DC \U+05DC\U+05E7\U+05D5\U+05DC\U+05D8 \U+05D0\U+05D3\U+05D9\U+05DD (\U+05D5\U+05E0\U+05D8\U+05D4)
7
HEB
0
3DFACE
8
CHSHML_YTSYAVT_MKSHYRYM
10
-40.00
20
-1400.00
30
1100.00
11
40.00
21
-1400.00
31
1100.00
12
40.00
22
-1340.00
32
1100.00
13
-40.00
23
-1340.00
33
1100.00
0
3DFACE
8
CHSHML_YTSYAVT_MKSHYRYM
10
-40.00
20
-1400.00
30
1180.00
11
40.00
21
-1400.00
31
1180.00
12
40.00
22
-1340.00
32
1180.00
13
-40.00
23
-1340.00
33
1180.00
0
3DFACE
8
CHSHML_YTSYAVT_MKSHYRYM
10
-40.00
20
-1400.00
30
1100.00
11
40.00
21
-1400.00
31
1100.00
12
40.00
22
-1400.00
32
1180.00
13
-40.00
23
-1400.00
33
1180.00
0
3DFACE
8
CHSHML_YTSYAVT_MKSHYRYM
10
-40.00
20
-1340.00
30
1100.00
11
40.00
21
-1340.00
31
1100.00
12
40.00
22
-1340.00
32
1180.00
13
-40.00
23
-1340.00
33
1180.00
0
3DFACE
8
CHSHML_YTSYAVT_MKSHYRYM
10
-40.00
20
-1400.00
30
1100.00
11
-40.00
21
-1340.00
31
1100.00
12
-40.00
22
-1340.00
32
1180.00
13
-40.00
23
-1400.00
33
1180.00
0
3DFACE
8
CHSHML_YTSYAVT_MKSHYRYM
10
40.00
20
-1400.00
30
1100.00
11
40.00
21
-1340.00
31
1100.00
12
40.00
22
-1340.00
32
1180.00
13
40.00
23
-1400.00
33
1180.00
0
TEXT
8
LABELS
10
-40.00
20
-1480.00
30
1100.00
40
60.00
1
\U+05D9\U+05E6\U+05D9\U+05D0\U+05EA \U+05D7\U+05E9\U+05DE\U+05DC \U+05DC\U+05DE\U+05DB\U+05D5\U+05E0\U+05EA \U+05DB\U+05D1\U+05D9\U+05E1\U+05D4
7
HEB
0
3DFACE
8
CHSHML_YTSYAVT_MKSHYRYM
10
660.00
20
-1400.00
30
1100.00
11
740.00
21
-1400.00
31
1100.00
12
740.00
22
-1340.00
32
1100.00
13
660.00
23
-1340.00
33
1100.00
0
3DFACE
8
CHSHML_YTSYAVT_MKSHYRYM
10
660.00
20
-1400.00
30
1180.00
11
740.00
21
-1400.00
31
1180.00
12
740.00
22
-1340.00
32
1180.00
13
660.00
23
-1340.00
33
1180.00
0
3DFACE
8
CHSHML_YTSYAVT_MKSHYRYM
10
660.00
20
-1400.00
30
1100.00
11
740.00
21
-1400.00
31
1100.00
12
740.00
22
-1400.00
32
1180.00
13
660.00
23
-1400.00
33
1180.00
0
3DFACE
8
CHSHML_YTSYAVT_MKSHYRYM
10
660.00
20
-1340.00
30
1100.00
11
740.00
21
-1340.00
31
1100.00
12
740.00
22
-1340.00
32
1180.00
13
660.00
23
-1340.00
33
1180.00
0
3DFACE
8
CHSHML_YTSYAVT_MKSHYRYM
10
660.00
20
-1400.00
30
1100.00
11
660.00
21
-1340.00
31
1100.00
12
660.00
22
-1340.00
32
1180.00
13
660.00
23
-1400.00
33
1180.00
0
3DFACE
8
CHSHML_YTSYAVT_MKSHYRYM
10
740.00
20
-1400.00
30
1100.00
11
740.00
21
-1340.00
31
1100.00
12
740.00
22
-1340.00
32
1180.00
13
740.00
23
-1400.00
33
1180.00
0
TEXT
8
LABELS
10
660.00
20
-1480.00
30
1100.00
40
60.00
1
\U+05D9\U+05E6\U+05D9\U+05D0\U+05EA \U+05D7\U+05E9\U+05DE\U+05DC \U+05DC\U+05DE\U+05D9\U+05D9\U+05D1\U+05E9 \U+05DB\U+05D1\U+05D9\U+05E1\U+05D4
7
HEB
0
3DFACE
8
CHSHML_YTSYAVT_MKSHYRYM
10
1350.00
20
-1400.00
30
1800.00
11
1450.00
21
-1400.00
31
1800.00
12
1450.00
22
-1340.00
32
1800.00
13
1350.00
23
-1340.00
33
1800.00
0
3DFACE
8
CHSHML_YTSYAVT_MKSHYRYM
10
1350.00
20
-1400.00
30
1900.00
11
1450.00
21
-1400.00
31
1900.00
12
1450.00
22
-1340.00
32
1900.00
13
1350.00
23
-1340.00
33
1900.00
0
3DFACE
8
CHSHML_YTSYAVT_MKSHYRYM
10
1350.00
20
-1400.00
30
1800.00
11
1450.00
21
-1400.00
31
1800.00
12
1450.00
22
-1400.00
32
1900.00
13
1350.00
23
-1400.00
33
1900.00
0
3DFACE
8
CHSHML_YTSYAVT_MKSHYRYM
10
1350.00
20
-1340.00
30
1800.00
11
1450.00
21
-1340.00
31
1800.00
12
1450.00
22
-1340.00
32
1900.00
13
1350.00
23
-1340.00
33
1900.00
0
3DFACE
8
CHSHML_YTSYAVT_MKSHYRYM
10
1350.00
20
-1400.00
30
1800.00
11
1350.00
21
-1340.00
31
1800.00
12
1350.00
22
-1340.00
32
1900.00
13
1350.00
23
-1400.00
33
1900.00
0
3DFACE
8
CHSHML_YTSYAVT_MKSHYRYM
10
1450.00
20
-1400.00
30
1800.00
11
1450.00
21
-1340.00
31
1800.00
12
1450.00
22
-1340.00
32
1900.00
13
1450.00
23
-1400.00
33
1900.00
0
TEXT
8
LABELS
10
1350.00
20
-1480.00
30
1800.00
40
60.00
1
\U+05D9\U+05E6\U+05D9\U+05D0\U+05EA \U+05D7\U+05E9\U+05DE\U+05DC \U+05DC\U+05D3\U+05D5\U+05D3 \U+05D7\U+05E9\U+05DE\U+05DC
7
HEB
0
3DFACE
8
CHSHML_YTSYAVT_MKSHYRYM
10
2060.00
20
-1400.00
30
2300.00
11
2140.00
21
-1400.00
31
2300.00
12
2140.00
22
-1385.00
32
2300.00
13
2060.00
23
-1385.00
33
2300.00
0
3DFACE
8
CHSHML_YTSYAVT_MKSHYRYM
10
2060.00
20
-1400.00
30
2380.00
11
2140.00
21
-1400.00
31
2380.00
12
2140.00
22
-1385.00
32
2380.00
13
2060.00
23
-1385.00
33
2380.00
0
3DFACE
8
CHSHML_YTSYAVT_MKSHYRYM
10
2060.00
20
-1400.00
30
2300.00
11
2140.00
21
-1400.00
31
2300.00
12
2140.00
22
-1400.00
32
2380.00
13
2060.00
23
-1400.00
33
2380.00
0
3DFACE
8
CHSHML_YTSYAVT_MKSHYRYM
10
2060.00
20
-1385.00
30
2300.00
11
2140.00
21
-1385.00
31
2300.00
12
2140.00
22
-1385.00
32
2380.00
13
2060.00
23
-1385.00
33
2380.00
0
3DFACE
8
CHSHML_YTSYAVT_MKSHYRYM
10
2060.00
20
-1400.00
30
2300.00
11
2060.00
21
-1385.00
31
2300.00
12
2060.00
22
-1385.00
32
2380.00
13
2060.00
23
-1400.00
33
2380.00
0
3DFACE
8
CHSHML_YTSYAVT_MKSHYRYM
10
2140.00
20
-1400.00
30
2300.00
11
2140.00
21
-1385.00
31
2300.00
12
2140.00
22
-1385.00
32
2380.00
13
2140.00
23
-1400.00
33
2380.00
0
TEXT
8
LABELS
10
2060.00
20
-1480.00
30
2300.00
40
60.00
1
\U+05D9\U+05E6\U+05D9\U+05D0\U+05EA \U+05D7\U+05E9\U+05DE\U+05DC \U+05DC\U+05DE\U+05D6\U+05D2\U+05DF (\U+05D9\U+05D7\U+05F3 \U+05E4\U+05E0\U+05D9\U+05DE\U+05D9\U+05EA)
7
HEB
0
3DFACE
8
CHSHML_YTSYAVT_MKSHYRYM
10
2750.00
20
-1400.00
30
1500.00
11
2850.00
21
-1400.00
31
1500.00
12
2850.00
22
-1340.00
32
1500.00
13
2750.00
23
-1340.00
33
1500.00
0
3DFACE
8
CHSHML_YTSYAVT_MKSHYRYM
10
2750.00
20
-1400.00
30
1600.00
11
2850.00
21
-1400.00
31
1600.00
12
2850.00
22
-1340.00
32
1600.00
13
2750.00
23
-1340.00
33
1600.00
0
3DFACE
8
CHSHML_YTSYAVT_MKSHYRYM
10
2750.00
20
-1400.00
30
1500.00
11
2850.00
21
-1400.00
31
1500.00
12
2850.00
22
-1400.00
32
1600.00
13
2750.00
23
-1400.00
33
1600.00
0
3DFACE
8
CHSHML_YTSYAVT_MKSHYRYM
10
2750.00
20
-1340.00
30
1500.00
11
2850.00
21
-1340.00
31
1500.00
12
2850.00
22
-1340.00
32
1600.00
13
2750.00
23
-1340.00
33
1600.00
0
3DFACE
8
CHSHML_YTSYAVT_MKSHYRYM
10
2750.00
20
-1400.00
30
1500.00
11
2750.00
21
-1340.00
31
1500.00
12
2750.00
22
-1340.00
32
1600.00
13
2750.00
23
-1400.00
33
1600.00
0
3DFACE
8
CHSHML_YTSYAVT_MKSHYRYM
10
2850.00
20
-1400.00
30
1500.00
11
2850.00
21
-1340.00
31
1500.00
12
2850.00
22
-1340.00
32
1600.00
13
2850.00
23
-1400.00
33
1600.00
0
TEXT
8
LABELS
10
2750.00
20
-1480.00
30
1500.00
40
60.00
1
\U+05D9\U+05E6\U+05D9\U+05D0\U+05EA \U+05DB\U+05D5\U+05D7 \U+05DC\U+05DE\U+05E2\U+05D1\U+05D4 \U+05DE\U+05D6\U+05D2\U+05DF
7
HEB
0
3DFACE
8
CHSHML_YTSYAVT_MKSHYRYM
10
3450.00
20
-1400.00
30
2500.00
11
3550.00
21
-1400.00
31
2500.00
12
3550.00
22
-1370.00
32
2500.00
13
3450.00
23
-1370.00
33
2500.00
0
3DFACE
8
CHSHML_YTSYAVT_MKSHYRYM
10
3450.00
20
-1400.00
30
2600.00
11
3550.00
21
-1400.00
31
2600.00
12
3550.00
22
-1370.00
32
2600.00
13
3450.00
23
-1370.00
33
2600.00
0
3DFACE
8
CHSHML_YTSYAVT_MKSHYRYM
10
3450.00
20
-1400.00
30
2500.00
11
3550.00
21
-1400.00
31
2500.00
12
3550.00
22
-1400.00
32
2600.00
13
3450.00
23
-1400.00
33
2600.00
0
3DFACE
8
CHSHML_YTSYAVT_MKSHYRYM
10
3450.00
20
-1370.00
30
2500.00
11
3550.00
21
-1370.00
31
2500.00
12
3550.00
22
-1370.00
32
2600.00
13
3450.00
23
-1370.00
33
2600.00
0
3DFACE
8
CHSHML_YTSYAVT_MKSHYRYM
10
3450.00
20
-1400.00
30
2500.00
11
3450.00
21
-1370.00
31
2500.00
12
3450.00
22
-1370.00
32
2600.00
13
3450.00
23
-1400.00
33
2600.00
0
3DFACE
8
CHSHML_YTSYAVT_MKSHYRYM
10
3550.00
20
-1400.00
30
2500.00
11
3550.00
21
-1370.00
31
2500.00
12
3550.00
22
-1370.00
32
2600.00
13
3550.00
23
-1400.00
33
2600.00
0
TEXT
8
LABELS
10
3450.00
20
-1480.00
30
2500.00
40
60.00
1
\U+05E0\U+05E7\U+05D5\U+05D3\U+05EA \U+05D7\U+05E9\U+05DE\U+05DC \U+05DC\U+05DE\U+05D0\U+05D5\U+05D5\U+05E8\U+05E8 \U+05EA\U+05E7\U+05E8\U+05D4
7
HEB
0
3DFACE
8
CHSHML_YTSYAVT_MKSHYRYM
10
4140.00
20
-1400.00
30
300.00
11
4260.00
21
-1400.00
31
300.00
12
4260.00
22
-1340.00
32
300.00
13
4140.00
23
-1340.00
33
300.00
0
3DFACE
8
CHSHML_YTSYAVT_MKSHYRYM
10
4140.00
20
-1400.00
30
420.00
11
4260.00
21
-1400.00
31
420.00
12
4260.00
22
-1340.00
32
420.00
13
4140.00
23
-1340.00
33
420.00
0
3DFACE
8
CHSHML_YTSYAVT_MKSHYRYM
10
4140.00
20
-1400.00
30
300.00
11
4260.00
21
-1400.00
31
300.00
12
4260.00
22
-1400.00
32
420.00
13
4140.00
23
-1400.00
33
420.00
0
3DFACE
8
CHSHML_YTSYAVT_MKSHYRYM
10
4140.00
20
-1340.00
30
300.00
11
4260.00
21
-1340.00
31
300.00
12
4260.00
22
-1340.00
32
420.00
13
4140.00
23
-1340.00
33
420.00
0
3DFACE
8
CHSHML_YTSYAVT_MKSHYRYM
10
4140.00
20
-1400.00
30
300.00
11
4140.00
21
-1340.00
31
300.00
12
4140.00
22
-1340.00
32
420.00
13
4140.00
23
-1400.00
33
420.00
0
3DFACE
8
CHSHML_YTSYAVT_MKSHYRYM
10
4260.00
20
-1400.00
30
300.00
11
4260.00
21
-1340.00
31
300.00
12
4260.00
22
-1340.00
32
420.00
13
4260.00
23
-1400.00
33
420.00
0
TEXT
8
LABELS
10
4140.00
20
-1480.00
30
300.00
40
60.00
1
\U+05E0\U+05E7\U+05D5\U+05D3\U+05EA \U+05DE\U+05DB\U+05D5\U+05E0\U+05EA \U+05E7\U+05E8\U+05D7 (\U+05D0\U+05D9\U+05D9\U+05E1\U+05DE\U+05D9\U+05D9\U+05E7\U+05E8)
7
HEB
0
3DFACE
8
CHSHML_YTSYAVT_MKSHYRYM
10
4840.00
20
-1400.00
30
300.00
11
4960.00
21
-1400.00
31
300.00
12
4960.00
22
-1340.00
32
300.00
13
4840.00
23
-1340.00
33
300.00
0
3DFACE
8
CHSHML_YTSYAVT_MKSHYRYM
10
4840.00
20
-1400.00
30
420.00
11
4960.00
21
-1400.00
31
420.00
12
4960.00
22
-1340.00
32
420.00
13
4840.00
23
-1340.00
33
420.00
0
3DFACE
8
CHSHML_YTSYAVT_MKSHYRYM
10
4840.00
20
-1400.00
30
300.00
11
4960.00
21
-1400.00
31
300.00
12
4960.00
22
-1400.00
32
420.00
13
4840.00
23
-1400.00
33
420.00
0
3DFACE
8
CHSHML_YTSYAVT_MKSHYRYM
10
4840.00
20
-1340.00
30
300.00
11
4960.00
21
-1340.00
31
300.00
12
4960.00
22
-1340.00
32
420.00
13
4840.00
23
-1340.00
33
420.00
0
3DFACE
8
CHSHML_YTSYAVT_MKSHYRYM
10
4840.00
20
-1400.00
30
300.00
11
4840.00
21
-1340.00
31
300.00
12
4840.00
22
-1340.00
32
420.00
13
4840.00
23
-1400.00
33
420.00
0
3DFACE
8
CHSHML_YTSYAVT_MKSHYRYM
10
4960.00
20
-1400.00
30
300.00
11
4960.00
21
-1340.00
31
300.00
12
4960.00
22
-1340.00
32
420.00
13
4960.00
23
-1400.00
33
420.00
0
TEXT
8
LABELS
10
4840.00
20
-1480.00
30
300.00
40
60.00
1
\U+05E6\U+05D5\U+05DE\U+05EA / \U+05E6\U+05DE\U+05EA \U+05D7\U+05E9\U+05DE\U+05DC (\U+05E8\U+05D9\U+05DB\U+05D5\U+05D6 \U+05DB\U+05D1\U+05DC\U+05D9\U+05DD)
7
HEB
0
3DFACE
8
CHSHML_YTSYAVT_MKSHYRYM
10
5425.00
20
-1400.00
30
1200.00
11
5775.00
21
-1400.00
31
1200.00
12
5775.00
22
-1250.00
32
1200.00
13
5425.00
23
-1250.00
33
1200.00
0
3DFACE
8
CHSHML_YTSYAVT_MKSHYRYM
10
5425.00
20
-1400.00
30
1650.00
11
5775.00
21
-1400.00
31
1650.00
12
5775.00
22
-1250.00
32
1650.00
13
5425.00
23
-1250.00
33
1650.00
0
3DFACE
8
CHSHML_YTSYAVT_MKSHYRYM
10
5425.00
20
-1400.00
30
1200.00
11
5775.00
21
-1400.00
31
1200.00
12
5775.00
22
-1400.00
32
1650.00
13
5425.00
23
-1400.00
33
1650.00
0
3DFACE
8
CHSHML_YTSYAVT_MKSHYRYM
10
5425.00
20
-1250.00
30
1200.00
11
5775.00
21
-1250.00
31
1200.00
12
5775.00
22
-1250.00
32
1650.00
13
5425.00
23
-1250.00
33
1650.00
0
3DFACE
8
CHSHML_YTSYAVT_MKSHYRYM
10
5425.00
20
-1400.00
30
1200.00
11
5425.00
21
-1250.00
31
1200.00
12
5425.00
22
-1250.00
32
1650.00
13
5425.00
23
-1400.00
33
1650.00
0
3DFACE
8
CHSHML_YTSYAVT_MKSHYRYM
10
5775.00
20
-1400.00
30
1200.00
11
5775.00
21
-1250.00
31
1200.00
12
5775.00
22
-1250.00
32
1650.00
13
5775.00
23
-1400.00
33
1650.00
0
TEXT
8
LABELS
10
5425.00
20
-1480.00
30
1200.00
40
60.00
1
\U+05E2\U+05DE\U+05D3\U+05EA \U+05D8\U+05E2\U+05D9\U+05E0\U+05EA \U+05E8\U+05DB\U+05D1 \U+05D7\U+05E9\U+05DE\U+05DC\U+05D9 (EV Wallbox)
7
HEB
0
3DFACE
8
CHSHML_LVCHVT_VHGNH
10
6260.00
20
-1400.00
30
0.00
11
6340.00
21
-1400.00
31
0.00
12
6340.00
22
-1385.00
32
0.00
13
6260.00
23
-1385.00
33
0.00
0
3DFACE
8
CHSHML_LVCHVT_VHGNH
10
6260.00
20
-1400.00
30
80.00
11
6340.00
21
-1400.00
31
80.00
12
6340.00
22
-1385.00
32
80.00
13
6260.00
23
-1385.00
33
80.00
0
3DFACE
8
CHSHML_LVCHVT_VHGNH
10
6260.00
20
-1400.00
30
0.00
11
6340.00
21
-1400.00
31
0.00
12
6340.00
22
-1400.00
32
80.00
13
6260.00
23
-1400.00
33
80.00
0
3DFACE
8
CHSHML_LVCHVT_VHGNH
10
6260.00
20
-1385.00
30
0.00
11
6340.00
21
-1385.00
31
0.00
12
6340.00
22
-1385.00
32
80.00
13
6260.00
23
-1385.00
33
80.00
0
3DFACE
8
CHSHML_LVCHVT_VHGNH
10
6260.00
20
-1400.00
30
0.00
11
6260.00
21
-1385.00
31
0.00
12
6260.00
22
-1385.00
32
80.00
13
6260.00
23
-1400.00
33
80.00
0
3DFACE
8
CHSHML_LVCHVT_VHGNH
10
6340.00
20
-1400.00
30
0.00
11
6340.00
21
-1385.00
31
0.00
12
6340.00
22
-1385.00
32
80.00
13
6340.00
23
-1400.00
33
80.00
0
TEXT
8
LABELS
10
6260.00
20
-1480.00
30
0.00
40
60.00
1
\U+05E7\U+05D5\U+05E4\U+05E1\U+05EA \U+05D7\U+05D9\U+05D1\U+05D5\U+05E8\U+05D9\U+05DD (\U+05D2\U+05F3\U+05D0\U+05E0\U+05E7\U+05E9\U+05DF)
7
HEB
0
3DFACE
8
CHSHML_LVCHVT_VHGNH
10
6800.00
20
-1400.00
30
1700.00
11
7200.00
21
-1400.00
31
1700.00
12
7200.00
22
-1300.00
32
1700.00
13
6800.00
23
-1300.00
33
1700.00
0
3DFACE
8
CHSHML_LVCHVT_VHGNH
10
6800.00
20
-1400.00
30
2300.00
11
7200.00
21
-1400.00
31
2300.00
12
7200.00
22
-1300.00
32
2300.00
13
6800.00
23
-1300.00
33
2300.00
0
3DFACE
8
CHSHML_LVCHVT_VHGNH
10
6800.00
20
-1400.00
30
1700.00
11
7200.00
21
-1400.00
31
1700.00
12
7200.00
22
-1400.00
32
2300.00
13
6800.00
23
-1400.00
33
2300.00
0
3DFACE
8
CHSHML_LVCHVT_VHGNH
10
6800.00
20
-1300.00
30
1700.00
11
7200.00
21
-1300.00
31
1700.00
12
7200.00
22
-1300.00
32
2300.00
13
6800.00
23
-1300.00
33
2300.00
0
3DFACE
8
CHSHML_LVCHVT_VHGNH
10
6800.00
20
-1400.00
30
1700.00
11
6800.00
21
-1300.00
31
1700.00
12
6800.00
22
-1300.00
32
2300.00
13
6800.00
23
-1400.00
33
2300.00
0
3DFACE
8
CHSHML_LVCHVT_VHGNH
10
7200.00
20
-1400.00
30
1700.00
11
7200.00
21
-1300.00
31
1700.00
12
7200.00
22
-1300.00
32
2300.00
13
7200.00
23
-1400.00
33
2300.00
0
TEXT
8
LABELS
10
6800.00
20
-1480.00
30
1700.00
40
60.00
1
\U+05DC\U+05D5\U+05D7 \U+05D7\U+05E9\U+05DE\U+05DC \U+05D3\U+05D9\U+05E8\U+05EA\U+05D9
7
HEB
0
3DFACE
8
CHSHML_LVCHVT_VHGNH
10
7665.00
20
-1400.00
30
1700.00
11
7735.00
21
-1400.00
31
1700.00
12
7735.00
22
-1340.00
32
1700.00
13
7665.00
23
-1340.00
33
1700.00
0
3DFACE
8
CHSHML_LVCHVT_VHGNH
10
7665.00
20
-1400.00
30
1820.00
11
7735.00
21
-1400.00
31
1820.00
12
7735.00
22
-1340.00
32
1820.00
13
7665.00
23
-1340.00
33
1820.00
0
3DFACE
8
CHSHML_LVCHVT_VHGNH
10
7665.00
20
-1400.00
30
1700.00
11
7735.00
21
-1400.00
31
1700.00
12
7735.00
22
-1400.00
32
1820.00
13
7665.00
23
-1400.00
33
1820.00
0
3DFACE
8
CHSHML_LVCHVT_VHGNH
10
7665.00
20
-1340.00
30
1700.00
11
7735.00
21
-1340.00
31
1700.00
12
7735.00
22
-1340.00
32
1820.00
13
7665.00
23
-1340.00
33
1820.00
0
3DFACE
8
CHSHML_LVCHVT_VHGNH
10
7665.00
20
-1400.00
30
1700.00
11
7665.00
21
-1340.00
31
1700.00
12
7665.00
22
-1340.00
32
1820.00
13
7665.00
23
-1400.00
33
1820.00
0
3DFACE
8
CHSHML_LVCHVT_VHGNH
10
7735.00
20
-1400.00
30
1700.00
11
7735.00
21
-1340.00
31
1700.00
12
7735.00
22
-1340.00
32
1820.00
13
7735.00
23
-1400.00
33
1820.00
0
TEXT
8
LABELS
10
7665.00
20
-1480.00
30
1700.00
40
60.00
1
\U+05DE\U+05E4\U+05E1\U+05E7 \U+05E4\U+05D7\U+05EA (\U+05DE\U+05DE\U+05E1\U+05E8)
7
HEB
0
3DFACE
8
CHSHML_LVCHVT_VHGNH
10
-60.00
20
-2100.00
30
300.00
11
60.00
21
-2100.00
31
300.00
12
60.00
22
-2060.00
32
300.00
13
-60.00
23
-2060.00
33
300.00
0
3DFACE
8
CHSHML_LVCHVT_VHGNH
10
-60.00
20
-2100.00
30
360.00
11
60.00
21
-2100.00
31
360.00
12
60.00
22
-2060.00
32
360.00
13
-60.00
23
-2060.00
33
360.00
0
3DFACE
8
CHSHML_LVCHVT_VHGNH
10
-60.00
20
-2100.00
30
300.00
11
60.00
21
-2100.00
31
300.00
12
60.00
22
-2100.00
32
360.00
13
-60.00
23
-2100.00
33
360.00
0
3DFACE
8
CHSHML_LVCHVT_VHGNH
10
-60.00
20
-2060.00
30
300.00
11
60.00
21
-2060.00
31
300.00
12
60.00
22
-2060.00
32
360.00
13
-60.00
23
-2060.00
33
360.00
0
3DFACE
8
CHSHML_LVCHVT_VHGNH
10
-60.00
20
-2100.00
30
300.00
11
-60.00
21
-2060.00
31
300.00
12
-60.00
22
-2060.00
32
360.00
13
-60.00
23
-2100.00
33
360.00
0
3DFACE
8
CHSHML_LVCHVT_VHGNH
10
60.00
20
-2100.00
30
300.00
11
60.00
21
-2060.00
31
300.00
12
60.00
22
-2060.00
32
360.00
13
60.00
23
-2100.00
33
360.00
0
TEXT
8
LABELS
10
-60.00
20
-2180.00
30
300.00
40
60.00
1
\U+05E4\U+05E1 \U+05D4\U+05E9\U+05D5\U+05D5\U+05D0\U+05EA \U+05E4\U+05D5\U+05D8\U+05E0\U+05E6\U+05D9\U+05D0\U+05DC\U+05D9\U+05DD
7
HEB
0
3DFACE
8
CHSHML_LVCHVT_VHGNH
10
680.00
20
-2100.00
30
300.00
11
720.00
21
-2100.00
31
300.00
12
720.00
22
-2080.00
32
300.00
13
680.00
23
-2080.00
33
300.00
0
3DFACE
8
CHSHML_LVCHVT_VHGNH
10
680.00
20
-2100.00
30
340.00
11
720.00
21
-2100.00
31
340.00
12
720.00
22
-2080.00
32
340.00
13
680.00
23
-2080.00
33
340.00
0
3DFACE
8
CHSHML_LVCHVT_VHGNH
10
680.00
20
-2100.00
30
300.00
11
720.00
21
-2100.00
31
300.00
12
720.00
22
-2100.00
32
340.00
13
680.00
23
-2100.00
33
340.00
0
3DFACE
8
CHSHML_LVCHVT_VHGNH
10
680.00
20
-2080.00
30
300.00
11
720.00
21
-2080.00
31
300.00
12
720.00
22
-2080.00
32
340.00
13
680.00
23
-2080.00
33
340.00
0
3DFACE
8
CHSHML_LVCHVT_VHGNH
10
680.00
20
-2100.00
30
300.00
11
680.00
21
-2080.00
31
300.00
12
680.00
22
-2080.00
32
340.00
13
680.00
23
-2100.00
33
340.00
0
3DFACE
8
CHSHML_LVCHVT_VHGNH
10
720.00
20
-2100.00
30
300.00
11
720.00
21
-2080.00
31
300.00
12
720.00
22
-2080.00
32
340.00
13
720.00
23
-2100.00
33
340.00
0
TEXT
8
LABELS
10
680.00
20
-2180.00
30
300.00
40
60.00
1
\U+05E0\U+05E7\U+05D5\U+05D3\U+05EA \U+05D4\U+05D0\U+05E8\U+05E7\U+05D4
7
HEB
0
3DFACE
8
TAVRH
10
1350.00
20
-2100.00
30
2500.00
11
1450.00
21
-2100.00
31
2500.00
12
1450.00
22
-2000.00
32
2500.00
13
1350.00
23
-2000.00
33
2500.00
0
3DFACE
8
TAVRH
10
1350.00
20
-2100.00
30
2530.00
11
1450.00
21
-2100.00
31
2530.00
12
1450.00
22
-2000.00
32
2530.00
13
1350.00
23
-2000.00
33
2530.00
0
3DFACE
8
TAVRH
10
1350.00
20
-2100.00
30
2500.00
11
1450.00
21
-2100.00
31
2500.00
12
1450.00
22
-2100.00
32
2530.00
13
1350.00
23
-2100.00
33
2530.00
0
3DFACE
8
TAVRH
10
1350.00
20
-2000.00
30
2500.00
11
1450.00
21
-2000.00
31
2500.00
12
1450.00
22
-2000.00
32
2530.00
13
1350.00
23
-2000.00
33
2530.00
0
3DFACE
8
TAVRH
10
1350.00
20
-2100.00
30
2500.00
11
1350.00
21
-2000.00
31
2500.00
12
1350.00
22
-2000.00
32
2530.00
13
1350.00
23
-2100.00
33
2530.00
0
3DFACE
8
TAVRH
10
1450.00
20
-2100.00
30
2500.00
11
1450.00
21
-2000.00
31
2500.00
12
1450.00
22
-2000.00
32
2530.00
13
1450.00
23
-2100.00
33
2530.00
0
TEXT
8
LABELS
10
1350.00
20
-2180.00
30
2500.00
40
60.00
1
\U+05E1\U+05E4\U+05D5\U+05D8 \U+05E9\U+05E7\U+05D5\U+05E2 (\U+05D2\U+05D5\U+05E3 \U+05EA\U+05D0\U+05D5\U+05E8\U+05D4 \U+05E9\U+05E7\U+05D5\U+05E2)
7
HEB
0
3DFACE
8
TAVRH
10
1950.00
20
-2100.00
30
2500.00
11
2250.00
21
-2100.00
31
2500.00
12
2250.00
22
-1980.00
32
2500.00
13
1950.00
23
-1980.00
33
2500.00
0
3DFACE
8
TAVRH
10
1950.00
20
-2100.00
30
2800.00
11
2250.00
21
-2100.00
31
2800.00
12
2250.00
22
-1980.00
32
2800.00
13
1950.00
23
-1980.00
33
2800.00
0
3DFACE
8
TAVRH
10
1950.00
20
-2100.00
30
2500.00
11
2250.00
21
-2100.00
31
2500.00
12
2250.00
22
-2100.00
32
2800.00
13
1950.00
23
-2100.00
33
2800.00
0
3DFACE
8
TAVRH
10
1950.00
20
-1980.00
30
2500.00
11
2250.00
21
-1980.00
31
2500.00
12
2250.00
22
-1980.00
32
2800.00
13
1950.00
23
-1980.00
33
2800.00
0
3DFACE
8
TAVRH
10
1950.00
20
-2100.00
30
2500.00
11
1950.00
21
-1980.00
31
2500.00
12
1950.00
22
-1980.00
32
2800.00
13
1950.00
23
-2100.00
33
2800.00
0
3DFACE
8
TAVRH
10
2250.00
20
-2100.00
30
2500.00
11
2250.00
21
-1980.00
31
2500.00
12
2250.00
22
-1980.00
32
2800.00
13
2250.00
23
-2100.00
33
2800.00
0
TEXT
8
LABELS
10
1950.00
20
-2180.00
30
2500.00
40
60.00
1
\U+05D2\U+05D5\U+05E3 \U+05EA\U+05D0\U+05D5\U+05E8\U+05D4 \U+05E6\U+05DE\U+05D5\U+05D3 \U+05EA\U+05E7\U+05E8\U+05D4
7
HEB
0
3DFACE
8
TAVRH
10
2675.00
20
-2100.00
30
2500.00
11
2925.00
21
-2100.00
31
2500.00
12
2925.00
22
-1850.00
32
2500.00
13
2675.00
23
-1850.00
33
2500.00
0
3DFACE
8
TAVRH
10
2675.00
20
-2100.00
30
2800.00
11
2925.00
21
-2100.00
31
2800.00
12
2925.00
22
-1850.00
32
2800.00
13
2675.00
23
-1850.00
33
2800.00
0
3DFACE
8
TAVRH
10
2675.00
20
-2100.00
30
2500.00
11
2925.00
21
-2100.00
31
2500.00
12
2925.00
22
-2100.00
32
2800.00
13
2675.00
23
-2100.00
33
2800.00
0
3DFACE
8
TAVRH
10
2675.00
20
-1850.00
30
2500.00
11
2925.00
21
-1850.00
31
2500.00
12
2925.00
22
-1850.00
32
2800.00
13
2675.00
23
-1850.00
33
2800.00
0
3DFACE
8
TAVRH
10
2675.00
20
-2100.00
30
2500.00
11
2675.00
21
-1850.00
31
2500.00
12
2675.00
22
-1850.00
32
2800.00
13
2675.00
23
-2100.00
33
2800.00
0
3DFACE
8
TAVRH
10
2925.00
20
-2100.00
30
2500.00
11
2925.00
21
-1850.00
31
2500.00
12
2925.00
22
-1850.00
32
2800.00
13
2925.00
23
-2100.00
33
2800.00
0
TEXT
8
LABELS
10
2675.00
20
-2180.00
30
2500.00
40
60.00
1
\U+05DE\U+05E0\U+05D5\U+05E8\U+05D4 \U+05EA\U+05DC\U+05D5\U+05D9\U+05D4 (\U+05E4\U+05E0\U+05D3\U+05E0\U+05D8)
7
HEB
0
3DFACE
8
TAVRH
10
3460.00
20
-2100.00
30
2500.00
11
3540.00
21
-2100.00
31
2500.00
12
3540.00
22
-1980.00
32
2500.00
13
3460.00
23
-1980.00
33
2500.00
0
3DFACE
8
TAVRH
10
3460.00
20
-2100.00
30
2580.00
11
3540.00
21
-2100.00
31
2580.00
12
3540.00
22
-1980.00
32
2580.00
13
3460.00
23
-1980.00
33
2580.00
0
3DFACE
8
TAVRH
10
3460.00
20
-2100.00
30
2500.00
11
3540.00
21
-2100.00
31
2500.00
12
3540.00
22
-2100.00
32
2580.00
13
3460.00
23
-2100.00
33
2580.00
0
3DFACE
8
TAVRH
10
3460.00
20
-1980.00
30
2500.00
11
3540.00
21
-1980.00
31
2500.00
12
3540.00
22
-1980.00
32
2580.00
13
3460.00
23
-1980.00
33
2580.00
0
3DFACE
8
TAVRH
10
3460.00
20
-2100.00
30
2500.00
11
3460.00
21
-1980.00
31
2500.00
12
3460.00
22
-1980.00
32
2580.00
13
3460.00
23
-2100.00
33
2580.00
0
3DFACE
8
TAVRH
10
3540.00
20
-2100.00
30
2500.00
11
3540.00
21
-1980.00
31
2500.00
12
3540.00
22
-1980.00
32
2580.00
13
3540.00
23
-2100.00
33
2580.00
0
TEXT
8
LABELS
10
3460.00
20
-2180.00
30
2500.00
40
60.00
1
\U+05D6\U+05E8\U+05E7\U+05D5\U+05E8 / \U+05E1\U+05E4\U+05D5\U+05D8 \U+05E6\U+05DE\U+05D5\U+05D3
7
HEB
0
3DFACE
8
TAVRH
10
4140.00
20
-2100.00
30
1900.00
11
4260.00
21
-2100.00
31
1900.00
12
4260.00
22
-1980.00
32
1900.00
13
4140.00
23
-1980.00
33
1900.00
0
3DFACE
8
TAVRH
10
4140.00
20
-2100.00
30
2100.00
11
4260.00
21
-2100.00
31
2100.00
12
4260.00
22
-1980.00
32
2100.00
13
4140.00
23
-1980.00
33
2100.00
0
3DFACE
8
TAVRH
10
4140.00
20
-2100.00
30
1900.00
11
4260.00
21
-2100.00
31
1900.00
12
4260.00
22
-2100.00
32
2100.00
13
4140.00
23
-2100.00
33
2100.00
0
3DFACE
8
TAVRH
10
4140.00
20
-1980.00
30
1900.00
11
4260.00
21
-1980.00
31
1900.00
12
4260.00
22
-1980.00
32
2100.00
13
4140.00
23
-1980.00
33
2100.00
0
3DFACE
8
TAVRH
10
4140.00
20
-2100.00
30
1900.00
11
4140.00
21
-1980.00
31
1900.00
12
4140.00
22
-1980.00
32
2100.00
13
4140.00
23
-2100.00
33
2100.00
0
3DFACE
8
TAVRH
10
4260.00
20
-2100.00
30
1900.00
11
4260.00
21
-1980.00
31
1900.00
12
4260.00
22
-1980.00
32
2100.00
13
4260.00
23
-2100.00
33
2100.00
0
TEXT
8
LABELS
10
4140.00
20
-2180.00
30
1900.00
40
60.00
1
\U+05EA\U+05D0\U+05D5\U+05E8\U+05EA \U+05E7\U+05D9\U+05E8 (\U+05D0\U+05E4\U+05DC\U+05D9\U+05E7)
7
HEB
0
3DFACE
8
TAVRH
10
4400.00
20
-2100.00
30
0.00
11
5400.00
21
-2100.00
31
0.00
12
5400.00
22
-2085.00
32
0.00
13
4400.00
23
-2085.00
33
0.00
0
3DFACE
8
TAVRH
10
4400.00
20
-2100.00
30
10.00
11
5400.00
21
-2100.00
31
10.00
12
5400.00
22
-2085.00
32
10.00
13
4400.00
23
-2085.00
33
10.00
0
3DFACE
8
TAVRH
10
4400.00
20
-2100.00
30
0.00
11
5400.00
21
-2100.00
31
0.00
12
5400.00
22
-2100.00
32
10.00
13
4400.00
23
-2100.00
33
10.00
0
3DFACE
8
TAVRH
10
4400.00
20
-2085.00
30
0.00
11
5400.00
21
-2085.00
31
0.00
12
5400.00
22
-2085.00
32
10.00
13
4400.00
23
-2085.00
33
10.00
0
3DFACE
8
TAVRH
10
4400.00
20
-2100.00
30
0.00
11
4400.00
21
-2085.00
31
0.00
12
4400.00
22
-2085.00
32
10.00
13
4400.00
23
-2100.00
33
10.00
0
3DFACE
8
TAVRH
10
5400.00
20
-2100.00
30
0.00
11
5400.00
21
-2085.00
31
0.00
12
5400.00
22
-2085.00
32
10.00
13
5400.00
23
-2100.00
33
10.00
0
TEXT
8
LABELS
10
4400.00
20
-2180.00
30
0.00
40
60.00
1
\U+05E4\U+05E1 \U+05EA\U+05D0\U+05D5\U+05E8\U+05D4 LED
7
HEB
0
3DFACE
8
TAVRH
10
5100.00
20
-2100.00
30
1500.00
11
6100.00
21
-2100.00
31
1500.00
12
6100.00
22
-2085.00
32
1500.00
13
5100.00
23
-2085.00
33
1500.00
0
3DFACE
8
TAVRH
10
5100.00
20
-2100.00
30
1515.00
11
6100.00
21
-2100.00
31
1515.00
12
6100.00
22
-2085.00
32
1515.00
13
5100.00
23
-2085.00
33
1515.00
0
3DFACE
8
TAVRH
10
5100.00
20
-2100.00
30
1500.00
11
6100.00
21
-2100.00
31
1500.00
12
6100.00
22
-2100.00
32
1515.00
13
5100.00
23
-2100.00
33
1515.00
0
3DFACE
8
TAVRH
10
5100.00
20
-2085.00
30
1500.00
11
6100.00
21
-2085.00
31
1500.00
12
6100.00
22
-2085.00
32
1515.00
13
5100.00
23
-2085.00
33
1515.00
0
3DFACE
8
TAVRH
10
5100.00
20
-2100.00
30
1500.00
11
5100.00
21
-2085.00
31
1500.00
12
5100.00
22
-2085.00
32
1515.00
13
5100.00
23
-2100.00
33
1515.00
0
3DFACE
8
TAVRH
10
6100.00
20
-2100.00
30
1500.00
11
6100.00
21
-2085.00
31
1500.00
12
6100.00
22
-2085.00
32
1515.00
13
6100.00
23
-2100.00
33
1515.00
0
TEXT
8
LABELS
10
5100.00
20
-2180.00
30
1500.00
40
60.00
1
\U+05EA\U+05D0\U+05D5\U+05E8\U+05EA \U+05D0\U+05E8\U+05D5\U+05DF \U+05E2\U+05DC\U+05D9\U+05D5\U+05DF (\U+05EA\U+05D7\U+05EA\U+05D9\U+05EA \U+05D0\U+05E8\U+05D5\U+05DF)
7
HEB
0
3DFACE
8
TAVRH
10
5800.00
20
-2100.00
30
100.00
11
6800.00
21
-2100.00
31
100.00
12
6800.00
22
-2090.00
32
100.00
13
5800.00
23
-2090.00
33
100.00
0
3DFACE
8
TAVRH
10
5800.00
20
-2100.00
30
110.00
11
6800.00
21
-2100.00
31
110.00
12
6800.00
22
-2090.00
32
110.00
13
5800.00
23
-2090.00
33
110.00
0
3DFACE
8
TAVRH
10
5800.00
20
-2100.00
30
100.00
11
6800.00
21
-2100.00
31
100.00
12
6800.00
22
-2100.00
32
110.00
13
5800.00
23
-2100.00
33
110.00
0
3DFACE
8
TAVRH
10
5800.00
20
-2090.00
30
100.00
11
6800.00
21
-2090.00
31
100.00
12
6800.00
22
-2090.00
32
110.00
13
5800.00
23
-2090.00
33
110.00
0
3DFACE
8
TAVRH
10
5800.00
20
-2100.00
30
100.00
11
5800.00
21
-2090.00
31
100.00
12
5800.00
22
-2090.00
32
110.00
13
5800.00
23
-2100.00
33
110.00
0
3DFACE
8
TAVRH
10
6800.00
20
-2100.00
30
100.00
11
6800.00
21
-2090.00
31
100.00
12
6800.00
22
-2090.00
32
110.00
13
6800.00
23
-2100.00
33
110.00
0
TEXT
8
LABELS
10
5800.00
20
-2180.00
30
100.00
40
60.00
1
\U+05EA\U+05D0\U+05D5\U+05E8\U+05EA \U+05D0\U+05E8\U+05D5\U+05DF \U+05EA\U+05D7\U+05EA\U+05D5\U+05DF / \U+05E7\U+05D5\U+05E8\U+05E0\U+05D9\U+05E5
7
HEB
0
3DFACE
8
TAVRH
10
6900.00
20
-2100.00
30
0.00
11
7100.00
21
-2100.00
31
0.00
12
7100.00
22
-2060.00
32
0.00
13
6900.00
23
-2060.00
33
0.00
0
3DFACE
8
TAVRH
10
6900.00
20
-2100.00
30
60.00
11
7100.00
21
-2100.00
31
60.00
12
7100.00
22
-2060.00
32
60.00
13
6900.00
23
-2060.00
33
60.00
0
3DFACE
8
TAVRH
10
6900.00
20
-2100.00
30
0.00
11
7100.00
21
-2100.00
31
0.00
12
7100.00
22
-2100.00
32
60.00
13
6900.00
23
-2100.00
33
60.00
0
3DFACE
8
TAVRH
10
6900.00
20
-2060.00
30
0.00
11
7100.00
21
-2060.00
31
0.00
12
7100.00
22
-2060.00
32
60.00
13
6900.00
23
-2060.00
33
60.00
0
3DFACE
8
TAVRH
10
6900.00
20
-2100.00
30
0.00
11
6900.00
21
-2060.00
31
0.00
12
6900.00
22
-2060.00
32
60.00
13
6900.00
23
-2100.00
33
60.00
0
3DFACE
8
TAVRH
10
7100.00
20
-2100.00
30
0.00
11
7100.00
21
-2060.00
31
0.00
12
7100.00
22
-2060.00
32
60.00
13
7100.00
23
-2100.00
33
60.00
0
TEXT
8
LABELS
10
6900.00
20
-2180.00
30
0.00
40
60.00
1
\U+05E9\U+05E0\U+05D0\U+05D9 / \U+05D3\U+05E8\U+05D9\U+05D9\U+05D1\U+05E8 LED
7
HEB
0
3DFACE
8
TAVRH
10
7625.00
20
-2100.00
30
2200.00
11
7775.00
21
-2100.00
31
2200.00
12
7775.00
22
-1950.00
32
2200.00
13
7625.00
23
-1950.00
33
2200.00
0
3DFACE
8
TAVRH
10
7625.00
20
-2100.00
30
2400.00
11
7775.00
21
-2100.00
31
2400.00
12
7775.00
22
-1950.00
32
2400.00
13
7625.00
23
-1950.00
33
2400.00
0
3DFACE
8
TAVRH
10
7625.00
20
-2100.00
30
2200.00
11
7775.00
21
-2100.00
31
2200.00
12
7775.00
22
-2100.00
32
2400.00
13
7625.00
23
-2100.00
33
2400.00
0
3DFACE
8
TAVRH
10
7625.00
20
-1950.00
30
2200.00
11
7775.00
21
-1950.00
31
2200.00
12
7775.00
22
-1950.00
32
2400.00
13
7625.00
23
-1950.00
33
2400.00
0
3DFACE
8
TAVRH
10
7625.00
20
-2100.00
30
2200.00
11
7625.00
21
-1950.00
31
2200.00
12
7625.00
22
-1950.00
32
2400.00
13
7625.00
23
-2100.00
33
2400.00
0
3DFACE
8
TAVRH
10
7775.00
20
-2100.00
30
2200.00
11
7775.00
21
-1950.00
31
2200.00
12
7775.00
22
-1950.00
32
2400.00
13
7775.00
23
-2100.00
33
2400.00
0
TEXT
8
LABELS
10
7625.00
20
-2180.00
30
2200.00
40
60.00
1
\U+05E4\U+05E0\U+05E1/\U+05EA\U+05D0\U+05D5\U+05E8\U+05EA \U+05D7\U+05D5\U+05E5
7
HEB
0
3DFACE
8
TAVRH
10
-125.00
20
-2800.00
30
2200.00
11
125.00
21
-2800.00
31
2200.00
12
125.00
22
-2720.00
32
2200.00
13
-125.00
23
-2720.00
33
2200.00
0
3DFACE
8
TAVRH
10
-125.00
20
-2800.00
30
2320.00
11
125.00
21
-2800.00
31
2320.00
12
125.00
22
-2720.00
32
2320.00
13
-125.00
23
-2720.00
33
2320.00
0
3DFACE
8
TAVRH
10
-125.00
20
-2800.00
30
2200.00
11
125.00
21
-2800.00
31
2200.00
12
125.00
22
-2800.00
32
2320.00
13
-125.00
23
-2800.00
33
2320.00
0
3DFACE
8
TAVRH
10
-125.00
20
-2720.00
30
2200.00
11
125.00
21
-2720.00
31
2200.00
12
125.00
22
-2720.00
32
2320.00
13
-125.00
23
-2720.00
33
2320.00
0
3DFACE
8
TAVRH
10
-125.00
20
-2800.00
30
2200.00
11
-125.00
21
-2720.00
31
2200.00
12
-125.00
22
-2720.00
32
2320.00
13
-125.00
23
-2800.00
33
2320.00
0
3DFACE
8
TAVRH
10
125.00
20
-2800.00
30
2200.00
11
125.00
21
-2720.00
31
2200.00
12
125.00
22
-2720.00
32
2320.00
13
125.00
23
-2800.00
33
2320.00
0
TEXT
8
LABELS
10
-125.00
20
-2880.00
30
2200.00
40
60.00
1
\U+05D2\U+05D5\U+05E3 \U+05EA\U+05D0\U+05D5\U+05E8\U+05EA \U+05D7\U+05D9\U+05E8\U+05D5\U+05DD
7
HEB
0
3DFACE
8
TQSHVRT_VMVLTYMDYH
10
660.00
20
-2800.00
30
350.00
11
740.00
21
-2800.00
31
350.00
12
740.00
22
-2785.00
32
350.00
13
660.00
23
-2785.00
33
350.00
0
3DFACE
8
TQSHVRT_VMVLTYMDYH
10
660.00
20
-2800.00
30
430.00
11
740.00
21
-2800.00
31
430.00
12
740.00
22
-2785.00
32
430.00
13
660.00
23
-2785.00
33
430.00
0
3DFACE
8
TQSHVRT_VMVLTYMDYH
10
660.00
20
-2800.00
30
350.00
11
740.00
21
-2800.00
31
350.00
12
740.00
22
-2800.00
32
430.00
13
660.00
23
-2800.00
33
430.00
0
3DFACE
8
TQSHVRT_VMVLTYMDYH
10
660.00
20
-2785.00
30
350.00
11
740.00
21
-2785.00
31
350.00
12
740.00
22
-2785.00
32
430.00
13
660.00
23
-2785.00
33
430.00
0
3DFACE
8
TQSHVRT_VMVLTYMDYH
10
660.00
20
-2800.00
30
350.00
11
660.00
21
-2785.00
31
350.00
12
660.00
22
-2785.00
32
430.00
13
660.00
23
-2800.00
33
430.00
0
3DFACE
8
TQSHVRT_VMVLTYMDYH
10
740.00
20
-2800.00
30
350.00
11
740.00
21
-2785.00
31
350.00
12
740.00
22
-2785.00
32
430.00
13
740.00
23
-2800.00
33
430.00
0
TEXT
8
LABELS
10
660.00
20
-2880.00
30
350.00
40
60.00
1
\U+05E9\U+05E7\U+05E2 \U+05EA\U+05E7\U+05E9\U+05D5\U+05E8\U+05EA \U+05E8\U+05E9\U+05EA (RJ45)
7
HEB
0
3DFACE
8
TQSHVRT_VMVLTYMDYH
10
1360.00
20
-2800.00
30
350.00
11
1440.00
21
-2800.00
31
350.00
12
1440.00
22
-2760.00
32
350.00
13
1360.00
23
-2760.00
33
350.00
0
3DFACE
8
TQSHVRT_VMVLTYMDYH
10
1360.00
20
-2800.00
30
430.00
11
1440.00
21
-2800.00
31
430.00
12
1440.00
22
-2760.00
32
430.00
13
1360.00
23
-2760.00
33
430.00
0
3DFACE
8
TQSHVRT_VMVLTYMDYH
10
1360.00
20
-2800.00
30
350.00
11
1440.00
21
-2800.00
31
350.00
12
1440.00
22
-2800.00
32
430.00
13
1360.00
23
-2800.00
33
430.00
0
3DFACE
8
TQSHVRT_VMVLTYMDYH
10
1360.00
20
-2760.00
30
350.00
11
1440.00
21
-2760.00
31
350.00
12
1440.00
22
-2760.00
32
430.00
13
1360.00
23
-2760.00
33
430.00
0
3DFACE
8
TQSHVRT_VMVLTYMDYH
10
1360.00
20
-2800.00
30
350.00
11
1360.00
21
-2760.00
31
350.00
12
1360.00
22
-2760.00
32
430.00
13
1360.00
23
-2800.00
33
430.00
0
3DFACE
8
TQSHVRT_VMVLTYMDYH
10
1440.00
20
-2800.00
30
350.00
11
1440.00
21
-2760.00
31
350.00
12
1440.00
22
-2760.00
32
430.00
13
1440.00
23
-2800.00
33
430.00
0
TEXT
8
LABELS
10
1360.00
20
-2880.00
30
350.00
40
60.00
1
\U+05E0\U+05E7\U+05D5\U+05D3\U+05EA \U+05E8\U+05E9\U+05EA Cat6A / Cat7
7
HEB
0
3DFACE
8
TQSHVRT_VMVLTYMDYH
10
2060.00
20
-2800.00
30
350.00
11
2140.00
21
-2800.00
31
350.00
12
2140.00
22
-2760.00
32
350.00
13
2060.00
23
-2760.00
33
350.00
0
3DFACE
8
TQSHVRT_VMVLTYMDYH
10
2060.00
20
-2800.00
30
430.00
11
2140.00
21
-2800.00
31
430.00
12
2140.00
22
-2760.00
32
430.00
13
2060.00
23
-2760.00
33
430.00
0
3DFACE
8
TQSHVRT_VMVLTYMDYH
10
2060.00
20
-2800.00
30
350.00
11
2140.00
21
-2800.00
31
350.00
12
2140.00
22
-2800.00
32
430.00
13
2060.00
23
-2800.00
33
430.00
0
3DFACE
8
TQSHVRT_VMVLTYMDYH
10
2060.00
20
-2760.00
30
350.00
11
2140.00
21
-2760.00
31
350.00
12
2140.00
22
-2760.00
32
430.00
13
2060.00
23
-2760.00
33
430.00
0
3DFACE
8
TQSHVRT_VMVLTYMDYH
10
2060.00
20
-2800.00
30
350.00
11
2060.00
21
-2760.00
31
350.00
12
2060.00
22
-2760.00
32
430.00
13
2060.00
23
-2800.00
33
430.00
0
3DFACE
8
TQSHVRT_VMVLTYMDYH
10
2140.00
20
-2800.00
30
350.00
11
2140.00
21
-2760.00
31
350.00
12
2140.00
22
-2760.00
32
430.00
13
2140.00
23
-2800.00
33
430.00
0
TEXT
8
LABELS
10
2060.00
20
-2880.00
30
350.00
40
60.00
1
\U+05E0\U+05E7\U+05D5\U+05D3\U+05EA \U+05E1\U+05D9\U+05D1 \U+05D0\U+05D5\U+05E4\U+05D8\U+05D9 (FTTH)
7
HEB
0
3DFACE
8
TQSHVRT_VMVLTYMDYH
10
2760.00
20
-2800.00
30
350.00
11
2840.00
21
-2800.00
31
350.00
12
2840.00
22
-2785.00
32
350.00
13
2760.00
23
-2785.00
33
350.00
0
3DFACE
8
TQSHVRT_VMVLTYMDYH
10
2760.00
20
-2800.00
30
430.00
11
2840.00
21
-2800.00
31
430.00
12
2840.00
22
-2785.00
32
430.00
13
2760.00
23
-2785.00
33
430.00
0
3DFACE
8
TQSHVRT_VMVLTYMDYH
10
2760.00
20
-2800.00
30
350.00
11
2840.00
21
-2800.00
31
350.00
12
2840.00
22
-2800.00
32
430.00
13
2760.00
23
-2800.00
33
430.00
0
3DFACE
8
TQSHVRT_VMVLTYMDYH
10
2760.00
20
-2785.00
30
350.00
11
2840.00
21
-2785.00
31
350.00
12
2840.00
22
-2785.00
32
430.00
13
2760.00
23
-2785.00
33
430.00
0
3DFACE
8
TQSHVRT_VMVLTYMDYH
10
2760.00
20
-2800.00
30
350.00
11
2760.00
21
-2785.00
31
350.00
12
2760.00
22
-2785.00
32
430.00
13
2760.00
23
-2800.00
33
430.00
0
3DFACE
8
TQSHVRT_VMVLTYMDYH
10
2840.00
20
-2800.00
30
350.00
11
2840.00
21
-2785.00
31
350.00
12
2840.00
22
-2785.00
32
430.00
13
2840.00
23
-2800.00
33
430.00
0
TEXT
8
LABELS
10
2760.00
20
-2880.00
30
350.00
40
60.00
1
\U+05E9\U+05E7\U+05E2 \U+05D8\U+05DC\U+05E4\U+05D5\U+05DF (RJ11)
7
HEB
0
3DFACE
8
TQSHVRT_VMVLTYMDYH
10
3460.00
20
-2800.00
30
350.00
11
3540.00
21
-2800.00
31
350.00
12
3540.00
22
-2785.00
32
350.00
13
3460.00
23
-2785.00
33
350.00
0
3DFACE
8
TQSHVRT_VMVLTYMDYH
10
3460.00
20
-2800.00
30
430.00
11
3540.00
21
-2800.00
31
430.00
12
3540.00
22
-2785.00
32
430.00
13
3460.00
23
-2785.00
33
430.00
0
3DFACE
8
TQSHVRT_VMVLTYMDYH
10
3460.00
20
-2800.00
30
350.00
11
3540.00
21
-2800.00
31
350.00
12
3540.00
22
-2800.00
32
430.00
13
3460.00
23
-2800.00
33
430.00
0
3DFACE
8
TQSHVRT_VMVLTYMDYH
10
3460.00
20
-2785.00
30
350.00
11
3540.00
21
-2785.00
31
350.00
12
3540.00
22
-2785.00
32
430.00
13
3460.00
23
-2785.00
33
430.00
0
3DFACE
8
TQSHVRT_VMVLTYMDYH
10
3460.00
20
-2800.00
30
350.00
11
3460.00
21
-2785.00
31
350.00
12
3460.00
22
-2785.00
32
430.00
13
3460.00
23
-2800.00
33
430.00
0
3DFACE
8
TQSHVRT_VMVLTYMDYH
10
3540.00
20
-2800.00
30
350.00
11
3540.00
21
-2785.00
31
350.00
12
3540.00
22
-2785.00
32
430.00
13
3540.00
23
-2800.00
33
430.00
0
TEXT
8
LABELS
10
3460.00
20
-2880.00
30
350.00
40
60.00
1
\U+05E9\U+05E7\U+05E2 \U+05D8\U+05DC\U+05D5\U+05D5\U+05D9\U+05D6\U+05D9\U+05D4 / \U+05DB\U+05D1\U+05DC\U+05D9\U+05DD (\U+05E7\U+05D5\U+05D0\U+05E7\U+05E1)
7
HEB
0
3DFACE
8
TQSHVRT_VMVLTYMDYH
10
4160.00
20
-2800.00
30
1400.00
11
4240.00
21
-2800.00
31
1400.00
12
4240.00
22
-2785.00
32
1400.00
13
4160.00
23
-2785.00
33
1400.00
0
3DFACE
8
TQSHVRT_VMVLTYMDYH
10
4160.00
20
-2800.00
30
1480.00
11
4240.00
21
-2800.00
31
1480.00
12
4240.00
22
-2785.00
32
1480.00
13
4160.00
23
-2785.00
33
1480.00
0
3DFACE
8
TQSHVRT_VMVLTYMDYH
10
4160.00
20
-2800.00
30
1400.00
11
4240.00
21
-2800.00
31
1400.00
12
4240.00
22
-2800.00
32
1480.00
13
4160.00
23
-2800.00
33
1480.00
0
3DFACE
8
TQSHVRT_VMVLTYMDYH
10
4160.00
20
-2785.00
30
1400.00
11
4240.00
21
-2785.00
31
1400.00
12
4240.00
22
-2785.00
32
1480.00
13
4160.00
23
-2785.00
33
1480.00
0
3DFACE
8
TQSHVRT_VMVLTYMDYH
10
4160.00
20
-2800.00
30
1400.00
11
4160.00
21
-2785.00
31
1400.00
12
4160.00
22
-2785.00
32
1480.00
13
4160.00
23
-2800.00
33
1480.00
0
3DFACE
8
TQSHVRT_VMVLTYMDYH
10
4240.00
20
-2800.00
30
1400.00
11
4240.00
21
-2785.00
31
1400.00
12
4240.00
22
-2785.00
32
1480.00
13
4240.00
23
-2800.00
33
1480.00
0
TEXT
8
LABELS
10
4160.00
20
-2880.00
30
1400.00
40
60.00
1
\U+05E9\U+05E7\U+05E2 HDMI / \U+05DE\U+05D5\U+05DC\U+05D8\U+05D9\U+05DE\U+05D3\U+05D9\U+05D4
7
HEB
0
3DFACE
8
TQSHVRT_VMVLTYMDYH
10
4810.00
20
-2800.00
30
2500.00
11
4990.00
21
-2800.00
31
2500.00
12
4990.00
22
-2680.00
32
2500.00
13
4810.00
23
-2680.00
33
2500.00
0
3DFACE
8
TQSHVRT_VMVLTYMDYH
10
4810.00
20
-2800.00
30
2680.00
11
4990.00
21
-2800.00
31
2680.00
12
4990.00
22
-2680.00
32
2680.00
13
4810.00
23
-2680.00
33
2680.00
0
3DFACE
8
TQSHVRT_VMVLTYMDYH
10
4810.00
20
-2800.00
30
2500.00
11
4990.00
21
-2800.00
31
2500.00
12
4990.00
22
-2800.00
32
2680.00
13
4810.00
23
-2800.00
33
2680.00
0
3DFACE
8
TQSHVRT_VMVLTYMDYH
10
4810.00
20
-2680.00
30
2500.00
11
4990.00
21
-2680.00
31
2500.00
12
4990.00
22
-2680.00
32
2680.00
13
4810.00
23
-2680.00
33
2680.00
0
3DFACE
8
TQSHVRT_VMVLTYMDYH
10
4810.00
20
-2800.00
30
2500.00
11
4810.00
21
-2680.00
31
2500.00
12
4810.00
22
-2680.00
32
2680.00
13
4810.00
23
-2800.00
33
2680.00
0
3DFACE
8
TQSHVRT_VMVLTYMDYH
10
4990.00
20
-2800.00
30
2500.00
11
4990.00
21
-2680.00
31
2500.00
12
4990.00
22
-2680.00
32
2680.00
13
4990.00
23
-2800.00
33
2680.00
0
TEXT
8
LABELS
10
4810.00
20
-2880.00
30
2500.00
40
60.00
1
\U+05E0\U+05E7\U+05D5\U+05D3\U+05EA \U+05E8\U+05DE\U+05E7\U+05D5\U+05DC \U+05E9\U+05E7\U+05D5\U+05E2
7
HEB
0
3DFACE
8
TQSHVRT_VMVLTYMDYH
10
5540.00
20
-2800.00
30
1500.00
11
5660.00
21
-2800.00
31
1500.00
12
5660.00
22
-2770.00
32
1500.00
13
5540.00
23
-2770.00
33
1500.00
0
3DFACE
8
TQSHVRT_VMVLTYMDYH
10
5540.00
20
-2800.00
30
1680.00
11
5660.00
21
-2800.00
31
1680.00
12
5660.00
22
-2770.00
32
1680.00
13
5540.00
23
-2770.00
33
1680.00
0
3DFACE
8
TQSHVRT_VMVLTYMDYH
10
5540.00
20
-2800.00
30
1500.00
11
5660.00
21
-2800.00
31
1500.00
12
5660.00
22
-2800.00
32
1680.00
13
5540.00
23
-2800.00
33
1680.00
0
3DFACE
8
TQSHVRT_VMVLTYMDYH
10
5540.00
20
-2770.00
30
1500.00
11
5660.00
21
-2770.00
31
1500.00
12
5660.00
22
-2770.00
32
1680.00
13
5540.00
23
-2770.00
33
1680.00
0
3DFACE
8
TQSHVRT_VMVLTYMDYH
10
5540.00
20
-2800.00
30
1500.00
11
5540.00
21
-2770.00
31
1500.00
12
5540.00
22
-2770.00
32
1680.00
13
5540.00
23
-2800.00
33
1680.00
0
3DFACE
8
TQSHVRT_VMVLTYMDYH
10
5660.00
20
-2800.00
30
1500.00
11
5660.00
21
-2770.00
31
1500.00
12
5660.00
22
-2770.00
32
1680.00
13
5660.00
23
-2800.00
33
1680.00
0
TEXT
8
LABELS
10
5540.00
20
-2880.00
30
1500.00
40
60.00
1
\U+05E0\U+05E7\U+05D5\U+05D3\U+05EA \U+05D0\U+05D9\U+05E0\U+05D8\U+05E8\U+05E7\U+05D5\U+05DD / \U+05D3\U+05DC\U+05EA\U+05D5\U+05DF (\U+05E7\U+05D5\U+05DC)
7
HEB
0
3DFACE
8
TQSHVRT_VMVLTYMDYH
10
6225.00
20
-2800.00
30
1500.00
11
6375.00
21
-2800.00
31
1500.00
12
6375.00
22
-2770.00
32
1500.00
13
6225.00
23
-2770.00
33
1500.00
0
3DFACE
8
TQSHVRT_VMVLTYMDYH
10
6225.00
20
-2800.00
30
1700.00
11
6375.00
21
-2800.00
31
1700.00
12
6375.00
22
-2770.00
32
1700.00
13
6225.00
23
-2770.00
33
1700.00
0
3DFACE
8
TQSHVRT_VMVLTYMDYH
10
6225.00
20
-2800.00
30
1500.00
11
6375.00
21
-2800.00
31
1500.00
12
6375.00
22
-2800.00
32
1700.00
13
6225.00
23
-2800.00
33
1700.00
0
3DFACE
8
TQSHVRT_VMVLTYMDYH
10
6225.00
20
-2770.00
30
1500.00
11
6375.00
21
-2770.00
31
1500.00
12
6375.00
22
-2770.00
32
1700.00
13
6225.00
23
-2770.00
33
1700.00
0
3DFACE
8
TQSHVRT_VMVLTYMDYH
10
6225.00
20
-2800.00
30
1500.00
11
6225.00
21
-2770.00
31
1500.00
12
6225.00
22
-2770.00
32
1700.00
13
6225.00
23
-2800.00
33
1700.00
0
3DFACE
8
TQSHVRT_VMVLTYMDYH
10
6375.00
20
-2800.00
30
1500.00
11
6375.00
21
-2770.00
31
1500.00
12
6375.00
22
-2770.00
32
1700.00
13
6375.00
23
-2800.00
33
1700.00
0
TEXT
8
LABELS
10
6225.00
20
-2880.00
30
1500.00
40
60.00
1
\U+05D0\U+05D9\U+05E0\U+05D8\U+05E8\U+05E7\U+05D5\U+05DD \U+05D5\U+05D9\U+05D3\U+05D0\U+05D5
7
HEB
0
3DFACE
8
TQSHVRT_VMVLTYMDYH
10
6920.00
20
-2800.00
30
1500.00
11
7080.00
21
-2800.00
31
1500.00
12
7080.00
22
-2740.00
32
1500.00
13
6920.00
23
-2740.00
33
1500.00
0
3DFACE
8
TQSHVRT_VMVLTYMDYH
10
6920.00
20
-2800.00
30
1620.00
11
7080.00
21
-2800.00
31
1620.00
12
7080.00
22
-2740.00
32
1620.00
13
6920.00
23
-2740.00
33
1620.00
0
3DFACE
8
TQSHVRT_VMVLTYMDYH
10
6920.00
20
-2800.00
30
1500.00
11
7080.00
21
-2800.00
31
1500.00
12
7080.00
22
-2800.00
32
1620.00
13
6920.00
23
-2800.00
33
1620.00
0
3DFACE
8
TQSHVRT_VMVLTYMDYH
10
6920.00
20
-2740.00
30
1500.00
11
7080.00
21
-2740.00
31
1500.00
12
7080.00
22
-2740.00
32
1620.00
13
6920.00
23
-2740.00
33
1620.00
0
3DFACE
8
TQSHVRT_VMVLTYMDYH
10
6920.00
20
-2800.00
30
1500.00
11
6920.00
21
-2740.00
31
1500.00
12
6920.00
22
-2740.00
32
1620.00
13
6920.00
23
-2800.00
33
1620.00
0
3DFACE
8
TQSHVRT_VMVLTYMDYH
10
7080.00
20
-2800.00
30
1500.00
11
7080.00
21
-2740.00
31
1500.00
12
7080.00
22
-2740.00
32
1620.00
13
7080.00
23
-2800.00
33
1620.00
0
TEXT
8
LABELS
10
6920.00
20
-2880.00
30
1500.00
40
60.00
1
\U+05E0\U+05E7\U+05D5\U+05D3\U+05EA \U+05E8\U+05D0\U+05D5\U+05D8\U+05E8 / \U+05EA\U+05E7\U+05E9\U+05D5\U+05E8\U+05EA \U+05DE\U+05E8\U+05DB\U+05D6\U+05D9\U+05EA
7
HEB
0
3DFACE
8
BYT_CHKM_VBQRH
10
7640.00
20
-2800.00
30
1400.00
11
7760.00
21
-2800.00
31
1400.00
12
7760.00
22
-2770.00
32
1400.00
13
7640.00
23
-2770.00
33
1400.00
0
3DFACE
8
BYT_CHKM_VBQRH
10
7640.00
20
-2800.00
30
1520.00
11
7760.00
21
-2800.00
31
1520.00
12
7760.00
22
-2770.00
32
1520.00
13
7640.00
23
-2770.00
33
1520.00
0
3DFACE
8
BYT_CHKM_VBQRH
10
7640.00
20
-2800.00
30
1400.00
11
7760.00
21
-2800.00
31
1400.00
12
7760.00
22
-2800.00
32
1520.00
13
7640.00
23
-2800.00
33
1520.00
0
3DFACE
8
BYT_CHKM_VBQRH
10
7640.00
20
-2770.00
30
1400.00
11
7760.00
21
-2770.00
31
1400.00
12
7760.00
22
-2770.00
32
1520.00
13
7640.00
23
-2770.00
33
1520.00
0
3DFACE
8
BYT_CHKM_VBQRH
10
7640.00
20
-2800.00
30
1400.00
11
7640.00
21
-2770.00
31
1400.00
12
7640.00
22
-2770.00
32
1520.00
13
7640.00
23
-2800.00
33
1520.00
0
3DFACE
8
BYT_CHKM_VBQRH
10
7760.00
20
-2800.00
30
1400.00
11
7760.00
21
-2770.00
31
1400.00
12
7760.00
22
-2770.00
32
1520.00
13
7760.00
23
-2800.00
33
1520.00
0
TEXT
8
LABELS
10
7640.00
20
-2880.00
30
1400.00
40
60.00
1
\U+05D1\U+05E7\U+05E8 \U+05D1\U+05D9\U+05EA \U+05D7\U+05DB\U+05DD / \U+05E4\U+05D0\U+05E0\U+05DC
7
HEB
0
3DFACE
8
BYT_CHKM_VBQRH
10
-45.00
20
-3500.00
30
1500.00
11
45.00
21
-3500.00
31
1500.00
12
45.00
22
-3475.00
32
1500.00
13
-45.00
23
-3475.00
33
1500.00
0
3DFACE
8
BYT_CHKM_VBQRH
10
-45.00
20
-3500.00
30
1590.00
11
45.00
21
-3500.00
31
1590.00
12
45.00
22
-3475.00
32
1590.00
13
-45.00
23
-3475.00
33
1590.00
0
3DFACE
8
BYT_CHKM_VBQRH
10
-45.00
20
-3500.00
30
1500.00
11
45.00
21
-3500.00
31
1500.00
12
45.00
22
-3500.00
32
1590.00
13
-45.00
23
-3500.00
33
1590.00
0
3DFACE
8
BYT_CHKM_VBQRH
10
-45.00
20
-3475.00
30
1500.00
11
45.00
21
-3475.00
31
1500.00
12
45.00
22
-3475.00
32
1590.00
13
-45.00
23
-3475.00
33
1590.00
0
3DFACE
8
BYT_CHKM_VBQRH
10
-45.00
20
-3500.00
30
1500.00
11
-45.00
21
-3475.00
31
1500.00
12
-45.00
22
-3475.00
32
1590.00
13
-45.00
23
-3500.00
33
1590.00
0
3DFACE
8
BYT_CHKM_VBQRH
10
45.00
20
-3500.00
30
1500.00
11
45.00
21
-3475.00
31
1500.00
12
45.00
22
-3475.00
32
1590.00
13
45.00
23
-3500.00
33
1590.00
0
TEXT
8
LABELS
10
-45.00
20
-3580.00
30
1500.00
40
60.00
1
\U+05EA\U+05E8\U+05DE\U+05D5\U+05E1\U+05D8\U+05D8
7
HEB
0
3DFACE
8
BYT_CHKM_VBQRH
10
660.00
20
-3500.00
30
2500.00
11
740.00
21
-3500.00
31
2500.00
12
740.00
22
-3460.00
32
2500.00
13
660.00
23
-3460.00
33
2500.00
0
3DFACE
8
BYT_CHKM_VBQRH
10
660.00
20
-3500.00
30
2580.00
11
740.00
21
-3500.00
31
2580.00
12
740.00
22
-3460.00
32
2580.00
13
660.00
23
-3460.00
33
2580.00
0
3DFACE
8
BYT_CHKM_VBQRH
10
660.00
20
-3500.00
30
2500.00
11
740.00
21
-3500.00
31
2500.00
12
740.00
22
-3500.00
32
2580.00
13
660.00
23
-3500.00
33
2580.00
0
3DFACE
8
BYT_CHKM_VBQRH
10
660.00
20
-3460.00
30
2500.00
11
740.00
21
-3460.00
31
2500.00
12
740.00
22
-3460.00
32
2580.00
13
660.00
23
-3460.00
33
2580.00
0
3DFACE
8
BYT_CHKM_VBQRH
10
660.00
20
-3500.00
30
2500.00
11
660.00
21
-3460.00
31
2500.00
12
660.00
22
-3460.00
32
2580.00
13
660.00
23
-3500.00
33
2580.00
0
3DFACE
8
BYT_CHKM_VBQRH
10
740.00
20
-3500.00
30
2500.00
11
740.00
21
-3460.00
31
2500.00
12
740.00
22
-3460.00
32
2580.00
13
740.00
23
-3500.00
33
2580.00
0
TEXT
8
LABELS
10
660.00
20
-3580.00
30
2500.00
40
60.00
1
\U+05D2\U+05DC\U+05D0\U+05D9 \U+05E0\U+05D5\U+05DB\U+05D7\U+05D5\U+05EA / \U+05EA\U+05E0\U+05D5\U+05E2\U+05D4
7
HEB
0
3DFACE
8
BYT_CHKM_VBQRH
10
1370.00
20
-3500.00
30
0.00
11
1430.00
21
-3500.00
31
0.00
12
1430.00
22
-3485.00
32
0.00
13
1370.00
23
-3485.00
33
0.00
0
3DFACE
8
BYT_CHKM_VBQRH
10
1370.00
20
-3500.00
30
20.00
11
1430.00
21
-3500.00
31
20.00
12
1430.00
22
-3485.00
32
20.00
13
1370.00
23
-3485.00
33
20.00
0
3DFACE
8
BYT_CHKM_VBQRH
10
1370.00
20
-3500.00
30
0.00
11
1430.00
21
-3500.00
31
0.00
12
1430.00
22
-3500.00
32
20.00
13
1370.00
23
-3500.00
33
20.00
0
3DFACE
8
BYT_CHKM_VBQRH
10
1370.00
20
-3485.00
30
0.00
11
1430.00
21
-3485.00
31
0.00
12
1430.00
22
-3485.00
32
20.00
13
1370.00
23
-3485.00
33
20.00
0
3DFACE
8
BYT_CHKM_VBQRH
10
1370.00
20
-3500.00
30
0.00
11
1370.00
21
-3485.00
31
0.00
12
1370.00
22
-3485.00
32
20.00
13
1370.00
23
-3500.00
33
20.00
0
3DFACE
8
BYT_CHKM_VBQRH
10
1430.00
20
-3500.00
30
0.00
11
1430.00
21
-3485.00
31
0.00
12
1430.00
22
-3485.00
32
20.00
13
1430.00
23
-3500.00
33
20.00
0
TEXT
8
LABELS
10
1370.00
20
-3580.00
30
0.00
40
60.00
1
\U+05D7\U+05D9\U+05D9\U+05E9\U+05DF \U+05D7\U+05DC\U+05D5\U+05DF/\U+05D3\U+05DC\U+05EA (\U+05DE\U+05D2\U+05E0\U+05D8\U+05D9)
7
HEB
0
3DFACE
8
BYT_CHKM_VBQRH
10
2070.00
20
-3500.00
30
2450.00
11
2130.00
21
-3500.00
31
2450.00
12
2130.00
22
-3460.00
32
2450.00
13
2070.00
23
-3460.00
33
2450.00
0
3DFACE
8
BYT_CHKM_VBQRH
10
2070.00
20
-3500.00
30
2510.00
11
2130.00
21
-3500.00
31
2510.00
12
2130.00
22
-3460.00
32
2510.00
13
2070.00
23
-3460.00
33
2510.00
0
3DFACE
8
BYT_CHKM_VBQRH
10
2070.00
20
-3500.00
30
2450.00
11
2130.00
21
-3500.00
31
2450.00
12
2130.00
22
-3500.00
32
2510.00
13
2070.00
23
-3500.00
33
2510.00
0
3DFACE
8
BYT_CHKM_VBQRH
10
2070.00
20
-3460.00
30
2450.00
11
2130.00
21
-3460.00
31
2450.00
12
2130.00
22
-3460.00
32
2510.00
13
2070.00
23
-3460.00
33
2510.00
0
3DFACE
8
BYT_CHKM_VBQRH
10
2070.00
20
-3500.00
30
2450.00
11
2070.00
21
-3460.00
31
2450.00
12
2070.00
22
-3460.00
32
2510.00
13
2070.00
23
-3500.00
33
2510.00
0
3DFACE
8
BYT_CHKM_VBQRH
10
2130.00
20
-3500.00
30
2450.00
11
2130.00
21
-3460.00
31
2450.00
12
2130.00
22
-3460.00
32
2510.00
13
2130.00
23
-3500.00
33
2510.00
0
TEXT
8
LABELS
10
2070.00
20
-3580.00
30
2450.00
40
60.00
1
\U+05DE\U+05E0\U+05D5\U+05E2 \U+05EA\U+05E8\U+05D9\U+05E1 \U+05D7\U+05E9\U+05DE\U+05DC\U+05D9 (\U+05D2\U+05DC\U+05D9\U+05DC\U+05D4)
7
HEB
0
3DFACE
8
BYT_CHKM_VBQRH
10
2760.00
20
-3500.00
30
1150.00
11
2840.00
21
-3500.00
31
1150.00
12
2840.00
22
-3485.00
32
1150.00
13
2760.00
23
-3485.00
33
1150.00
0
3DFACE
8
BYT_CHKM_VBQRH
10
2760.00
20
-3500.00
30
1230.00
11
2840.00
21
-3500.00
31
1230.00
12
2840.00
22
-3485.00
32
1230.00
13
2760.00
23
-3485.00
33
1230.00
0
3DFACE
8
BYT_CHKM_VBQRH
10
2760.00
20
-3500.00
30
1150.00
11
2840.00
21
-3500.00
31
1150.00
12
2840.00
22
-3500.00
32
1230.00
13
2760.00
23
-3500.00
33
1230.00
0
3DFACE
8
BYT_CHKM_VBQRH
10
2760.00
20
-3485.00
30
1150.00
11
2840.00
21
-3485.00
31
1150.00
12
2840.00
22
-3485.00
32
1230.00
13
2760.00
23
-3485.00
33
1230.00
0
3DFACE
8
BYT_CHKM_VBQRH
10
2760.00
20
-3500.00
30
1150.00
11
2760.00
21
-3485.00
31
1150.00
12
2760.00
22
-3485.00
32
1230.00
13
2760.00
23
-3500.00
33
1230.00
0
3DFACE
8
BYT_CHKM_VBQRH
10
2840.00
20
-3500.00
30
1150.00
11
2840.00
21
-3485.00
31
1150.00
12
2840.00
22
-3485.00
32
1230.00
13
2840.00
23
-3500.00
33
1230.00
0
TEXT
8
LABELS
10
2760.00
20
-3580.00
30
1150.00
40
60.00
1
\U+05DE\U+05E4\U+05E1\U+05E7 / \U+05D1\U+05E7\U+05E8 \U+05EA\U+05E8\U+05D9\U+05E1 \U+05D7\U+05E9\U+05DE\U+05DC\U+05D9
7
HEB
0
3DFACE
8
BYT_CHKM_VBQRH
10
3470.00
20
-3500.00
30
2500.00
11
3530.00
21
-3500.00
31
2500.00
12
3530.00
22
-3440.00
32
2500.00
13
3470.00
23
-3440.00
33
2500.00
0
3DFACE
8
BYT_CHKM_VBQRH
10
3470.00
20
-3500.00
30
2560.00
11
3530.00
21
-3500.00
31
2560.00
12
3530.00
22
-3440.00
32
2560.00
13
3470.00
23
-3440.00
33
2560.00
0
3DFACE
8
BYT_CHKM_VBQRH
10
3470.00
20
-3500.00
30
2500.00
11
3530.00
21
-3500.00
31
2500.00
12
3530.00
22
-3500.00
32
2560.00
13
3470.00
23
-3500.00
33
2560.00
0
3DFACE
8
BYT_CHKM_VBQRH
10
3470.00
20
-3440.00
30
2500.00
11
3530.00
21
-3440.00
31
2500.00
12
3530.00
22
-3440.00
32
2560.00
13
3470.00
23
-3440.00
33
2560.00
0
3DFACE
8
BYT_CHKM_VBQRH
10
3470.00
20
-3500.00
30
2500.00
11
3470.00
21
-3440.00
31
2500.00
12
3470.00
22
-3440.00
32
2560.00
13
3470.00
23
-3500.00
33
2560.00
0
3DFACE
8
BYT_CHKM_VBQRH
10
3530.00
20
-3500.00
30
2500.00
11
3530.00
21
-3440.00
31
2500.00
12
3530.00
22
-3440.00
32
2560.00
13
3530.00
23
-3500.00
33
2560.00
0
TEXT
8
LABELS
10
3470.00
20
-3580.00
30
2500.00
40
60.00
1
\U+05DE\U+05E0\U+05D5\U+05E2 \U+05D5\U+05D9\U+05DC\U+05D5\U+05DF \U+05D7\U+05E9\U+05DE\U+05DC\U+05D9
7
HEB
0
3DFACE
8
BTYCHVT_VABTCHH
10
4140.00
20
-3500.00
30
2500.00
11
4260.00
21
-3500.00
31
2500.00
12
4260.00
22
-3450.00
32
2500.00
13
4140.00
23
-3450.00
33
2500.00
0
3DFACE
8
BTYCHVT_VABTCHH
10
4140.00
20
-3500.00
30
2620.00
11
4260.00
21
-3500.00
31
2620.00
12
4260.00
22
-3450.00
32
2620.00
13
4140.00
23
-3450.00
33
2620.00
0
3DFACE
8
BTYCHVT_VABTCHH
10
4140.00
20
-3500.00
30
2500.00
11
4260.00
21
-3500.00
31
2500.00
12
4260.00
22
-3500.00
32
2620.00
13
4140.00
23
-3500.00
33
2620.00
0
3DFACE
8
BTYCHVT_VABTCHH
10
4140.00
20
-3450.00
30
2500.00
11
4260.00
21
-3450.00
31
2500.00
12
4260.00
22
-3450.00
32
2620.00
13
4140.00
23
-3450.00
33
2620.00
0
3DFACE
8
BTYCHVT_VABTCHH
10
4140.00
20
-3500.00
30
2500.00
11
4140.00
21
-3450.00
31
2500.00
12
4140.00
22
-3450.00
32
2620.00
13
4140.00
23
-3500.00
33
2620.00
0
3DFACE
8
BTYCHVT_VABTCHH
10
4260.00
20
-3500.00
30
2500.00
11
4260.00
21
-3450.00
31
2500.00
12
4260.00
22
-3450.00
32
2620.00
13
4260.00
23
-3500.00
33
2620.00
0
TEXT
8
LABELS
10
4140.00
20
-3580.00
30
2500.00
40
60.00
1
\U+05D2\U+05DC\U+05D0\U+05D9 \U+05E2\U+05E9\U+05DF
7
HEB
0
3DFACE
8
BTYCHVT_VABTCHH
10
4850.00
20
-3500.00
30
300.00
11
4950.00
21
-3500.00
31
300.00
12
4950.00
22
-3460.00
32
300.00
13
4850.00
23
-3460.00
33
300.00
0
3DFACE
8
BTYCHVT_VABTCHH
10
4850.00
20
-3500.00
30
400.00
11
4950.00
21
-3500.00
31
400.00
12
4950.00
22
-3460.00
32
400.00
13
4850.00
23
-3460.00
33
400.00
0
3DFACE
8
BTYCHVT_VABTCHH
10
4850.00
20
-3500.00
30
300.00
11
4950.00
21
-3500.00
31
300.00
12
4950.00
22
-3500.00
32
400.00
13
4850.00
23
-3500.00
33
400.00
0
3DFACE
8
BTYCHVT_VABTCHH
10
4850.00
20
-3460.00
30
300.00
11
4950.00
21
-3460.00
31
300.00
12
4950.00
22
-3460.00
32
400.00
13
4850.00
23
-3460.00
33
400.00
0
3DFACE
8
BTYCHVT_VABTCHH
10
4850.00
20
-3500.00
30
300.00
11
4850.00
21
-3460.00
31
300.00
12
4850.00
22
-3460.00
32
400.00
13
4850.00
23
-3500.00
33
400.00
0
3DFACE
8
BTYCHVT_VABTCHH
10
4950.00
20
-3500.00
30
300.00
11
4950.00
21
-3460.00
31
300.00
12
4950.00
22
-3460.00
32
400.00
13
4950.00
23
-3500.00
33
400.00
0
TEXT
8
LABELS
10
4850.00
20
-3580.00
30
300.00
40
60.00
1
\U+05D2\U+05DC\U+05D0\U+05D9 \U+05D2\U+05D6
7
HEB
0
3DFACE
8
BTYCHVT_VABTCHH
10
5550.00
20
-3500.00
30
1500.00
11
5650.00
21
-3500.00
31
1500.00
12
5650.00
22
-3460.00
32
1500.00
13
5550.00
23
-3460.00
33
1500.00
0
3DFACE
8
BTYCHVT_VABTCHH
10
5550.00
20
-3500.00
30
1600.00
11
5650.00
21
-3500.00
31
1600.00
12
5650.00
22
-3460.00
32
1600.00
13
5550.00
23
-3460.00
33
1600.00
0
3DFACE
8
BTYCHVT_VABTCHH
10
5550.00
20
-3500.00
30
1500.00
11
5650.00
21
-3500.00
31
1500.00
12
5650.00
22
-3500.00
32
1600.00
13
5550.00
23
-3500.00
33
1600.00
0
3DFACE
8
BTYCHVT_VABTCHH
10
5550.00
20
-3460.00
30
1500.00
11
5650.00
21
-3460.00
31
1500.00
12
5650.00
22
-3460.00
32
1600.00
13
5550.00
23
-3460.00
33
1600.00
0
3DFACE
8
BTYCHVT_VABTCHH
10
5550.00
20
-3500.00
30
1500.00
11
5550.00
21
-3460.00
31
1500.00
12
5550.00
22
-3460.00
32
1600.00
13
5550.00
23
-3500.00
33
1600.00
0
3DFACE
8
BTYCHVT_VABTCHH
10
5650.00
20
-3500.00
30
1500.00
11
5650.00
21
-3460.00
31
1500.00
12
5650.00
22
-3460.00
32
1600.00
13
5650.00
23
-3500.00
33
1600.00
0
TEXT
8
LABELS
10
5550.00
20
-3580.00
30
1500.00
40
60.00
1
\U+05D2\U+05DC\U+05D0\U+05D9 \U+05E4\U+05D7\U+05DE\U+05DF \U+05D7\U+05D3-\U+05D7\U+05DE\U+05E6\U+05E0\U+05D9 (CO)
7
HEB
0
3DFACE
8
BTYCHVT_VABTCHH
10
6270.00
20
-3500.00
30
0.00
11
6330.00
21
-3500.00
31
0.00
12
6330.00
22
-3480.00
32
0.00
13
6270.00
23
-3480.00
33
0.00
0
3DFACE
8
BTYCHVT_VABTCHH
10
6270.00
20
-3500.00
30
40.00
11
6330.00
21
-3500.00
31
40.00
12
6330.00
22
-3480.00
32
40.00
13
6270.00
23
-3480.00
33
40.00
0
3DFACE
8
BTYCHVT_VABTCHH
10
6270.00
20
-3500.00
30
0.00
11
6330.00
21
-3500.00
31
0.00
12
6330.00
22
-3500.00
32
40.00
13
6270.00
23
-3500.00
33
40.00
0
3DFACE
8
BTYCHVT_VABTCHH
10
6270.00
20
-3480.00
30
0.00
11
6330.00
21
-3480.00
31
0.00
12
6330.00
22
-3480.00
32
40.00
13
6270.00
23
-3480.00
33
40.00
0
3DFACE
8
BTYCHVT_VABTCHH
10
6270.00
20
-3500.00
30
0.00
11
6270.00
21
-3480.00
31
0.00
12
6270.00
22
-3480.00
32
40.00
13
6270.00
23
-3500.00
33
40.00
0
3DFACE
8
BTYCHVT_VABTCHH
10
6330.00
20
-3500.00
30
0.00
11
6330.00
21
-3480.00
31
0.00
12
6330.00
22
-3480.00
32
40.00
13
6330.00
23
-3500.00
33
40.00
0
TEXT
8
LABELS
10
6270.00
20
-3580.00
30
0.00
40
60.00
1
\U+05D2\U+05DC\U+05D0\U+05D9 \U+05D4\U+05E6\U+05E4\U+05D4 (\U+05DE\U+05D9\U+05DD)
7
HEB
0
3DFACE
8
BTYCHVT_VABTCHH
10
6970.00
20
-3500.00
30
1300.00
11
7030.00
21
-3500.00
31
1300.00
12
7030.00
22
-3480.00
32
1300.00
13
6970.00
23
-3480.00
33
1300.00
0
3DFACE
8
BTYCHVT_VABTCHH
10
6970.00
20
-3500.00
30
1360.00
11
7030.00
21
-3500.00
31
1360.00
12
7030.00
22
-3480.00
32
1360.00
13
6970.00
23
-3480.00
33
1360.00
0
3DFACE
8
BTYCHVT_VABTCHH
10
6970.00
20
-3500.00
30
1300.00
11
7030.00
21
-3500.00
31
1300.00
12
7030.00
22
-3500.00
32
1360.00
13
6970.00
23
-3500.00
33
1360.00
0
3DFACE
8
BTYCHVT_VABTCHH
10
6970.00
20
-3480.00
30
1300.00
11
7030.00
21
-3480.00
31
1300.00
12
7030.00
22
-3480.00
32
1360.00
13
6970.00
23
-3480.00
33
1360.00
0
3DFACE
8
BTYCHVT_VABTCHH
10
6970.00
20
-3500.00
30
1300.00
11
6970.00
21
-3480.00
31
1300.00
12
6970.00
22
-3480.00
32
1360.00
13
6970.00
23
-3500.00
33
1360.00
0
3DFACE
8
BTYCHVT_VABTCHH
10
7030.00
20
-3500.00
30
1300.00
11
7030.00
21
-3480.00
31
1300.00
12
7030.00
22
-3480.00
32
1360.00
13
7030.00
23
-3500.00
33
1360.00
0
TEXT
8
LABELS
10
6970.00
20
-3580.00
30
1300.00
40
60.00
1
\U+05E4\U+05E2\U+05DE\U+05D5\U+05DF \U+05D3\U+05DC\U+05EA (\U+05DC\U+05D7\U+05E6\U+05DF)
7
HEB
0
3DFACE
8
BTYCHVT_VABTCHH
10
7640.00
20
-3500.00
30
2000.00
11
7760.00
21
-3500.00
31
2000.00
12
7760.00
22
-3460.00
32
2000.00
13
7640.00
23
-3460.00
33
2000.00
0
3DFACE
8
BTYCHVT_VABTCHH
10
7640.00
20
-3500.00
30
2080.00
11
7760.00
21
-3500.00
31
2080.00
12
7760.00
22
-3460.00
32
2080.00
13
7640.00
23
-3460.00
33
2080.00
0
3DFACE
8
BTYCHVT_VABTCHH
10
7640.00
20
-3500.00
30
2000.00
11
7760.00
21
-3500.00
31
2000.00
12
7760.00
22
-3500.00
32
2080.00
13
7640.00
23
-3500.00
33
2080.00
0
3DFACE
8
BTYCHVT_VABTCHH
10
7640.00
20
-3460.00
30
2000.00
11
7760.00
21
-3460.00
31
2000.00
12
7760.00
22
-3460.00
32
2080.00
13
7640.00
23
-3460.00
33
2080.00
0
3DFACE
8
BTYCHVT_VABTCHH
10
7640.00
20
-3500.00
30
2000.00
11
7640.00
21
-3460.00
31
2000.00
12
7640.00
22
-3460.00
32
2080.00
13
7640.00
23
-3500.00
33
2080.00
0
3DFACE
8
BTYCHVT_VABTCHH
10
7760.00
20
-3500.00
30
2000.00
11
7760.00
21
-3460.00
31
2000.00
12
7760.00
22
-3460.00
32
2080.00
13
7760.00
23
-3500.00
33
2080.00
0
TEXT
8
LABELS
10
7640.00
20
-3580.00
30
2000.00
40
60.00
1
\U+05D2\U+05D5\U+05E0\U+05D2 / \U+05D6\U+05DE\U+05D6\U+05DD \U+05E4\U+05E2\U+05DE\U+05D5\U+05DF
7
HEB
0
3DFACE
8
BTYCHVT_VABTCHH
10
-50.00
20
-4200.00
30
2500.00
11
50.00
21
-4200.00
31
2500.00
12
50.00
22
-4120.00
32
2500.00
13
-50.00
23
-4120.00
33
2500.00
0
3DFACE
8
BTYCHVT_VABTCHH
10
-50.00
20
-4200.00
30
2600.00
11
50.00
21
-4200.00
31
2600.00
12
50.00
22
-4120.00
32
2600.00
13
-50.00
23
-4120.00
33
2600.00
0
3DFACE
8
BTYCHVT_VABTCHH
10
-50.00
20
-4200.00
30
2500.00
11
50.00
21
-4200.00
31
2500.00
12
50.00
22
-4200.00
32
2600.00
13
-50.00
23
-4200.00
33
2600.00
0
3DFACE
8
BTYCHVT_VABTCHH
10
-50.00
20
-4120.00
30
2500.00
11
50.00
21
-4120.00
31
2500.00
12
50.00
22
-4120.00
32
2600.00
13
-50.00
23
-4120.00
33
2600.00
0
3DFACE
8
BTYCHVT_VABTCHH
10
-50.00
20
-4200.00
30
2500.00
11
-50.00
21
-4120.00
31
2500.00
12
-50.00
22
-4120.00
32
2600.00
13
-50.00
23
-4200.00
33
2600.00
0
3DFACE
8
BTYCHVT_VABTCHH
10
50.00
20
-4200.00
30
2500.00
11
50.00
21
-4120.00
31
2500.00
12
50.00
22
-4120.00
32
2600.00
13
50.00
23
-4200.00
33
2600.00
0
TEXT
8
LABELS
10
-50.00
20
-4280.00
30
2500.00
40
60.00
1
\U+05DE\U+05E6\U+05DC\U+05DE\U+05EA \U+05D0\U+05D1\U+05D8\U+05D7\U+05D4 / \U+05D4\U+05DB\U+05E0\U+05D4 \U+05DC\U+05DE\U+05E6\U+05DC\U+05DE\U+05D4
7
HEB
0
3DFACE
8
BTYCHVT_VABTCHH
10
575.00
20
-4200.00
30
1500.00
11
825.00
21
-4200.00
31
1500.00
12
825.00
22
-4120.00
32
1500.00
13
575.00
23
-4120.00
33
1500.00
0
3DFACE
8
BTYCHVT_VABTCHH
10
575.00
20
-4200.00
30
1700.00
11
825.00
21
-4200.00
31
1700.00
12
825.00
22
-4120.00
32
1700.00
13
575.00
23
-4120.00
33
1700.00
0
3DFACE
8
BTYCHVT_VABTCHH
10
575.00
20
-4200.00
30
1500.00
11
825.00
21
-4200.00
31
1500.00
12
825.00
22
-4200.00
32
1700.00
13
575.00
23
-4200.00
33
1700.00
0
3DFACE
8
BTYCHVT_VABTCHH
10
575.00
20
-4120.00
30
1500.00
11
825.00
21
-4120.00
31
1500.00
12
825.00
22
-4120.00
32
1700.00
13
575.00
23
-4120.00
33
1700.00
0
3DFACE
8
BTYCHVT_VABTCHH
10
575.00
20
-4200.00
30
1500.00
11
575.00
21
-4120.00
31
1500.00
12
575.00
22
-4120.00
32
1700.00
13
575.00
23
-4200.00
33
1700.00
0
3DFACE
8
BTYCHVT_VABTCHH
10
825.00
20
-4200.00
30
1500.00
11
825.00
21
-4120.00
31
1500.00
12
825.00
22
-4120.00
32
1700.00
13
825.00
23
-4200.00
33
1700.00
0
TEXT
8
LABELS
10
575.00
20
-4280.00
30
1500.00
40
60.00
1
\U+05DC\U+05D5\U+05D7 \U+05D1\U+05E7\U+05E8\U+05EA \U+05D0\U+05D6\U+05E2\U+05E7\U+05D4
7
HEB
0
3DFACE
8
BTYCHVT_VABTCHH
10
1300.00
20
-4200.00
30
2500.00
11
1500.00
21
-4200.00
31
2500.00
12
1500.00
22
-4120.00
32
2500.00
13
1300.00
23
-4120.00
33
2500.00
0
3DFACE
8
BTYCHVT_VABTCHH
10
1300.00
20
-4200.00
30
2750.00
11
1500.00
21
-4200.00
31
2750.00
12
1500.00
22
-4120.00
32
2750.00
13
1300.00
23
-4120.00
33
2750.00
0
3DFACE
8
BTYCHVT_VABTCHH
10
1300.00
20
-4200.00
30
2500.00
11
1500.00
21
-4200.00
31
2500.00
12
1500.00
22
-4200.00
32
2750.00
13
1300.00
23
-4200.00
33
2750.00
0
3DFACE
8
BTYCHVT_VABTCHH
10
1300.00
20
-4120.00
30
2500.00
11
1500.00
21
-4120.00
31
2500.00
12
1500.00
22
-4120.00
32
2750.00
13
1300.00
23
-4120.00
33
2750.00
0
3DFACE
8
BTYCHVT_VABTCHH
10
1300.00
20
-4200.00
30
2500.00
11
1300.00
21
-4120.00
31
2500.00
12
1300.00
22
-4120.00
32
2750.00
13
1300.00
23
-4200.00
33
2750.00
0
3DFACE
8
BTYCHVT_VABTCHH
10
1500.00
20
-4200.00
30
2500.00
11
1500.00
21
-4120.00
31
2500.00
12
1500.00
22
-4120.00
32
2750.00
13
1500.00
23
-4200.00
33
2750.00
0
TEXT
8
LABELS
10
1300.00
20
-4280.00
30
2500.00
40
60.00
1
\U+05E1\U+05D9\U+05E8\U+05E0\U+05D4 \U+05D0\U+05D6\U+05E2\U+05E7\U+05D4
7
HEB
0
3DFACE
8
BTYCHVT_VABTCHH
10
2060.00
20
-4200.00
30
2500.00
11
2140.00
21
-4200.00
31
2500.00
12
2140.00
22
-4120.00
32
2500.00
13
2060.00
23
-4120.00
33
2500.00
0
3DFACE
8
BTYCHVT_VABTCHH
10
2060.00
20
-4200.00
30
2580.00
11
2140.00
21
-4200.00
31
2580.00
12
2140.00
22
-4120.00
32
2580.00
13
2060.00
23
-4120.00
33
2580.00
0
3DFACE
8
BTYCHVT_VABTCHH
10
2060.00
20
-4200.00
30
2500.00
11
2140.00
21
-4200.00
31
2500.00
12
2140.00
22
-4200.00
32
2580.00
13
2060.00
23
-4200.00
33
2580.00
0
3DFACE
8
BTYCHVT_VABTCHH
10
2060.00
20
-4120.00
30
2500.00
11
2140.00
21
-4120.00
31
2500.00
12
2140.00
22
-4120.00
32
2580.00
13
2060.00
23
-4120.00
33
2580.00
0
3DFACE
8
BTYCHVT_VABTCHH
10
2060.00
20
-4200.00
30
2500.00
11
2060.00
21
-4120.00
31
2500.00
12
2060.00
22
-4120.00
32
2580.00
13
2060.00
23
-4200.00
33
2580.00
0
3DFACE
8
BTYCHVT_VABTCHH
10
2140.00
20
-4200.00
30
2500.00
11
2140.00
21
-4120.00
31
2500.00
12
2140.00
22
-4120.00
32
2580.00
13
2140.00
23
-4200.00
33
2580.00
0
TEXT
8
LABELS
10
2060.00
20
-4280.00
30
2500.00
40
60.00
1
\U+05E1\U+05E4\U+05E8\U+05D9\U+05E0\U+05E7\U+05DC\U+05E8 / \U+05DE\U+05EA\U+05D6 \U+05DB\U+05D9\U+05D1\U+05D5\U+05D9
7
HEB
0
3DFACE
8
AYNSTLTSYH_MYM
10
2790.00
20
-4200.00
30
550.00
11
2810.00
21
-4200.00
31
550.00
12
2810.00
22
-4180.00
32
550.00
13
2790.00
23
-4180.00
33
550.00
0
3DFACE
8
AYNSTLTSYH_MYM
10
2790.00
20
-4200.00
30
570.00
11
2810.00
21
-4200.00
31
570.00
12
2810.00
22
-4180.00
32
570.00
13
2790.00
23
-4180.00
33
570.00
0
3DFACE
8
AYNSTLTSYH_MYM
10
2790.00
20
-4200.00
30
550.00
11
2810.00
21
-4200.00
31
550.00
12
2810.00
22
-4200.00
32
570.00
13
2790.00
23
-4200.00
33
570.00
0
3DFACE
8
AYNSTLTSYH_MYM
10
2790.00
20
-4180.00
30
550.00
11
2810.00
21
-4180.00
31
550.00
12
2810.00
22
-4180.00
32
570.00
13
2790.00
23
-4180.00
33
570.00
0
3DFACE
8
AYNSTLTSYH_MYM
10
2790.00
20
-4200.00
30
550.00
11
2790.00
21
-4180.00
31
550.00
12
2790.00
22
-4180.00
32
570.00
13
2790.00
23
-4200.00
33
570.00
0
3DFACE
8
AYNSTLTSYH_MYM
10
2810.00
20
-4200.00
30
550.00
11
2810.00
21
-4180.00
31
550.00
12
2810.00
22
-4180.00
32
570.00
13
2810.00
23
-4200.00
33
570.00
0
TEXT
8
LABELS
10
2790.00
20
-4280.00
30
550.00
40
60.00
1
\U+05E0\U+05E7\U+05D5\U+05D3\U+05EA \U+05DE\U+05D9\U+05DD \U+05E7\U+05E8\U+05D9\U+05DD
7
HEB
0
3DFACE
8
AYNSTLTSYH_MYM
10
3490.00
20
-4200.00
30
550.00
11
3510.00
21
-4200.00
31
550.00
12
3510.00
22
-4180.00
32
550.00
13
3490.00
23
-4180.00
33
550.00
0
3DFACE
8
AYNSTLTSYH_MYM
10
3490.00
20
-4200.00
30
570.00
11
3510.00
21
-4200.00
31
570.00
12
3510.00
22
-4180.00
32
570.00
13
3490.00
23
-4180.00
33
570.00
0
3DFACE
8
AYNSTLTSYH_MYM
10
3490.00
20
-4200.00
30
550.00
11
3510.00
21
-4200.00
31
550.00
12
3510.00
22
-4200.00
32
570.00
13
3490.00
23
-4200.00
33
570.00
0
3DFACE
8
AYNSTLTSYH_MYM
10
3490.00
20
-4180.00
30
550.00
11
3510.00
21
-4180.00
31
550.00
12
3510.00
22
-4180.00
32
570.00
13
3490.00
23
-4180.00
33
570.00
0
3DFACE
8
AYNSTLTSYH_MYM
10
3490.00
20
-4200.00
30
550.00
11
3490.00
21
-4180.00
31
550.00
12
3490.00
22
-4180.00
32
570.00
13
3490.00
23
-4200.00
33
570.00
0
3DFACE
8
AYNSTLTSYH_MYM
10
3510.00
20
-4200.00
30
550.00
11
3510.00
21
-4180.00
31
550.00
12
3510.00
22
-4180.00
32
570.00
13
3510.00
23
-4200.00
33
570.00
0
TEXT
8
LABELS
10
3490.00
20
-4280.00
30
550.00
40
60.00
1
\U+05E0\U+05E7\U+05D5\U+05D3\U+05EA \U+05DE\U+05D9\U+05DD \U+05D7\U+05DE\U+05D9\U+05DD
7
HEB
0
3DFACE
8
AYNSTLTSYH_MYM
10
4190.00
20
-4200.00
30
550.00
11
4210.00
21
-4200.00
31
550.00
12
4210.00
22
-4180.00
32
550.00
13
4190.00
23
-4180.00
33
550.00
0
3DFACE
8
AYNSTLTSYH_MYM
10
4190.00
20
-4200.00
30
570.00
11
4210.00
21
-4200.00
31
570.00
12
4210.00
22
-4180.00
32
570.00
13
4190.00
23
-4180.00
33
570.00
0
3DFACE
8
AYNSTLTSYH_MYM
10
4190.00
20
-4200.00
30
550.00
11
4210.00
21
-4200.00
31
550.00
12
4210.00
22
-4200.00
32
570.00
13
4190.00
23
-4200.00
33
570.00
0
3DFACE
8
AYNSTLTSYH_MYM
10
4190.00
20
-4180.00
30
550.00
11
4210.00
21
-4180.00
31
550.00
12
4210.00
22
-4180.00
32
570.00
13
4190.00
23
-4180.00
33
570.00
0
3DFACE
8
AYNSTLTSYH_MYM
10
4190.00
20
-4200.00
30
550.00
11
4190.00
21
-4180.00
31
550.00
12
4190.00
22
-4180.00
32
570.00
13
4190.00
23
-4200.00
33
570.00
0
3DFACE
8
AYNSTLTSYH_MYM
10
4210.00
20
-4200.00
30
550.00
11
4210.00
21
-4180.00
31
550.00
12
4210.00
22
-4180.00
32
570.00
13
4210.00
23
-4200.00
33
570.00
0
TEXT
8
LABELS
10
4190.00
20
-4280.00
30
550.00
40
60.00
1
\U+05D1\U+05E8\U+05D6 / \U+05E0\U+05E7\U+05D5\U+05D3\U+05EA \U+05D1\U+05E8\U+05D6
7
HEB
0
3DFACE
8
AYNSTLTSYH_MYM
10
4890.00
20
-4200.00
30
300.00
11
4910.00
21
-4200.00
31
300.00
12
4910.00
22
-4180.00
32
300.00
13
4890.00
23
-4180.00
33
300.00
0
3DFACE
8
AYNSTLTSYH_MYM
10
4890.00
20
-4200.00
30
320.00
11
4910.00
21
-4200.00
31
320.00
12
4910.00
22
-4180.00
32
320.00
13
4890.00
23
-4180.00
33
320.00
0
3DFACE
8
AYNSTLTSYH_MYM
10
4890.00
20
-4200.00
30
300.00
11
4910.00
21
-4200.00
31
300.00
12
4910.00
22
-4200.00
32
320.00
13
4890.00
23
-4200.00
33
320.00
0
3DFACE
8
AYNSTLTSYH_MYM
10
4890.00
20
-4180.00
30
300.00
11
4910.00
21
-4180.00
31
300.00
12
4910.00
22
-4180.00
32
320.00
13
4890.00
23
-4180.00
33
320.00
0
3DFACE
8
AYNSTLTSYH_MYM
10
4890.00
20
-4200.00
30
300.00
11
4890.00
21
-4180.00
31
300.00
12
4890.00
22
-4180.00
32
320.00
13
4890.00
23
-4200.00
33
320.00
0
3DFACE
8
AYNSTLTSYH_MYM
10
4910.00
20
-4200.00
30
300.00
11
4910.00
21
-4180.00
31
300.00
12
4910.00
22
-4180.00
32
320.00
13
4910.00
23
-4200.00
33
320.00
0
TEXT
8
LABELS
10
4890.00
20
-4280.00
30
300.00
40
60.00
1
\U+05E0\U+05E7\U+05D5\U+05D3\U+05EA \U+05DE\U+05D9\U+05DD \U+05DC\U+05DE\U+05D3\U+05D9\U+05D7 \U+05DB\U+05DC\U+05D9\U+05DD
7
HEB
0
3DFACE
8
AYNSTLTSYH_MYM
10
5590.00
20
-4200.00
30
1000.00
11
5610.00
21
-4200.00
31
1000.00
12
5610.00
22
-4180.00
32
1000.00
13
5590.00
23
-4180.00
33
1000.00
0
3DFACE
8
AYNSTLTSYH_MYM
10
5590.00
20
-4200.00
30
1020.00
11
5610.00
21
-4200.00
31
1020.00
12
5610.00
22
-4180.00
32
1020.00
13
5590.00
23
-4180.00
33
1020.00
0
3DFACE
8
AYNSTLTSYH_MYM
10
5590.00
20
-4200.00
30
1000.00
11
5610.00
21
-4200.00
31
1000.00
12
5610.00
22
-4200.00
32
1020.00
13
5590.00
23
-4200.00
33
1020.00
0
3DFACE
8
AYNSTLTSYH_MYM
10
5590.00
20
-4180.00
30
1000.00
11
5610.00
21
-4180.00
31
1000.00
12
5610.00
22
-4180.00
32
1020.00
13
5590.00
23
-4180.00
33
1020.00
0
3DFACE
8
AYNSTLTSYH_MYM
10
5590.00
20
-4200.00
30
1000.00
11
5590.00
21
-4180.00
31
1000.00
12
5590.00
22
-4180.00
32
1020.00
13
5590.00
23
-4200.00
33
1020.00
0
3DFACE
8
AYNSTLTSYH_MYM
10
5610.00
20
-4200.00
30
1000.00
11
5610.00
21
-4180.00
31
1000.00
12
5610.00
22
-4180.00
32
1020.00
13
5610.00
23
-4200.00
33
1020.00
0
TEXT
8
LABELS
10
5590.00
20
-4280.00
30
1000.00
40
60.00
1
\U+05E0\U+05E7\U+05D5\U+05D3\U+05EA \U+05DE\U+05D9\U+05DD \U+05DC\U+05DE\U+05DB\U+05D5\U+05E0\U+05EA \U+05DB\U+05D1\U+05D9\U+05E1\U+05D4
7
HEB
0
3DFACE
8
AYNSTLTSYH_MYM
10
6290.00
20
-4200.00
30
300.00
11
6310.00
21
-4200.00
31
300.00
12
6310.00
22
-4180.00
32
300.00
13
6290.00
23
-4180.00
33
300.00
0
3DFACE
8
AYNSTLTSYH_MYM
10
6290.00
20
-4200.00
30
320.00
11
6310.00
21
-4200.00
31
320.00
12
6310.00
22
-4180.00
32
320.00
13
6290.00
23
-4180.00
33
320.00
0
3DFACE
8
AYNSTLTSYH_MYM
10
6290.00
20
-4200.00
30
300.00
11
6310.00
21
-4200.00
31
300.00
12
6310.00
22
-4200.00
32
320.00
13
6290.00
23
-4200.00
33
320.00
0
3DFACE
8
AYNSTLTSYH_MYM
10
6290.00
20
-4180.00
30
300.00
11
6310.00
21
-4180.00
31
300.00
12
6310.00
22
-4180.00
32
320.00
13
6290.00
23
-4180.00
33
320.00
0
3DFACE
8
AYNSTLTSYH_MYM
10
6290.00
20
-4200.00
30
300.00
11
6290.00
21
-4180.00
31
300.00
12
6290.00
22
-4180.00
32
320.00
13
6290.00
23
-4200.00
33
320.00
0
3DFACE
8
AYNSTLTSYH_MYM
10
6310.00
20
-4200.00
30
300.00
11
6310.00
21
-4180.00
31
300.00
12
6310.00
22
-4180.00
32
320.00
13
6310.00
23
-4200.00
33
320.00
0
TEXT
8
LABELS
10
6290.00
20
-4280.00
30
300.00
40
60.00
1
\U+05E0\U+05E7\U+05D5\U+05D3\U+05EA \U+05DE\U+05D9\U+05DD \U+05DC\U+05DE\U+05E7\U+05E8\U+05E8 (\U+05E7\U+05E8\U+05D7/\U+05DE\U+05D9\U+05DD)
7
HEB
0
3DFACE
8
AYNSTLTSYH_MYM
10
6980.00
20
-4200.00
30
400.00
11
7020.00
21
-4200.00
31
400.00
12
7020.00
22
-4160.00
32
400.00
13
6980.00
23
-4160.00
33
400.00
0
3DFACE
8
AYNSTLTSYH_MYM
10
6980.00
20
-4200.00
30
440.00
11
7020.00
21
-4200.00
31
440.00
12
7020.00
22
-4160.00
32
440.00
13
6980.00
23
-4160.00
33
440.00
0
3DFACE
8
AYNSTLTSYH_MYM
10
6980.00
20
-4200.00
30
400.00
11
7020.00
21
-4200.00
31
400.00
12
7020.00
22
-4200.00
32
440.00
13
6980.00
23
-4200.00
33
440.00
0
3DFACE
8
AYNSTLTSYH_MYM
10
6980.00
20
-4160.00
30
400.00
11
7020.00
21
-4160.00
31
400.00
12
7020.00
22
-4160.00
32
440.00
13
6980.00
23
-4160.00
33
440.00
0
3DFACE
8
AYNSTLTSYH_MYM
10
6980.00
20
-4200.00
30
400.00
11
6980.00
21
-4160.00
31
400.00
12
6980.00
22
-4160.00
32
440.00
13
6980.00
23
-4200.00
33
440.00
0
3DFACE
8
AYNSTLTSYH_MYM
10
7020.00
20
-4200.00
30
400.00
11
7020.00
21
-4160.00
31
400.00
12
7020.00
22
-4160.00
32
440.00
13
7020.00
23
-4200.00
33
440.00
0
TEXT
8
LABELS
10
6980.00
20
-4280.00
30
400.00
40
60.00
1
\U+05D1\U+05E8\U+05D6 \U+05D2\U+05D9\U+05E0\U+05D4
7
HEB
0
3DFACE
8
AYNSTLTSYH_MYM
10
7690.00
20
-4200.00
30
300.00
11
7710.00
21
-4200.00
31
300.00
12
7710.00
22
-4180.00
32
300.00
13
7690.00
23
-4180.00
33
300.00
0
3DFACE
8
AYNSTLTSYH_MYM
10
7690.00
20
-4200.00
30
320.00
11
7710.00
21
-4200.00
31
320.00
12
7710.00
22
-4180.00
32
320.00
13
7690.00
23
-4180.00
33
320.00
0
3DFACE
8
AYNSTLTSYH_MYM
10
7690.00
20
-4200.00
30
300.00
11
7710.00
21
-4200.00
31
300.00
12
7710.00
22
-4200.00
32
320.00
13
7690.00
23
-4200.00
33
320.00
0
3DFACE
8
AYNSTLTSYH_MYM
10
7690.00
20
-4180.00
30
300.00
11
7710.00
21
-4180.00
31
300.00
12
7710.00
22
-4180.00
32
320.00
13
7690.00
23
-4180.00
33
320.00
0
3DFACE
8
AYNSTLTSYH_MYM
10
7690.00
20
-4200.00
30
300.00
11
7690.00
21
-4180.00
31
300.00
12
7690.00
22
-4180.00
32
320.00
13
7690.00
23
-4200.00
33
320.00
0
3DFACE
8
AYNSTLTSYH_MYM
10
7710.00
20
-4200.00
30
300.00
11
7710.00
21
-4180.00
31
300.00
12
7710.00
22
-4180.00
32
320.00
13
7710.00
23
-4200.00
33
320.00
0
TEXT
8
LABELS
10
7690.00
20
-4280.00
30
300.00
40
60.00
1
\U+05E0\U+05E7\U+05D5\U+05D3\U+05EA \U+05DE\U+05D9\U+05DD \U+05DE\U+05E1\U+05D5\U+05E0\U+05E0\U+05D9\U+05DD (\U+05EA\U+05DE\U+05D9 4)
7
HEB
0
3DFACE
8
AYNSTLTSYH_MYM
10
-75.00
20
-4900.00
30
1200.00
11
75.00
21
-4900.00
31
1200.00
12
75.00
22
-4840.00
32
1200.00
13
-75.00
23
-4840.00
33
1200.00
0
3DFACE
8
AYNSTLTSYH_MYM
10
-75.00
20
-4900.00
30
1400.00
11
75.00
21
-4900.00
31
1400.00
12
75.00
22
-4840.00
32
1400.00
13
-75.00
23
-4840.00
33
1400.00
0
3DFACE
8
AYNSTLTSYH_MYM
10
-75.00
20
-4900.00
30
1200.00
11
75.00
21
-4900.00
31
1200.00
12
75.00
22
-4900.00
32
1400.00
13
-75.00
23
-4900.00
33
1400.00
0
3DFACE
8
AYNSTLTSYH_MYM
10
-75.00
20
-4840.00
30
1200.00
11
75.00
21
-4840.00
31
1200.00
12
75.00
22
-4840.00
32
1400.00
13
-75.00
23
-4840.00
33
1400.00
0
3DFACE
8
AYNSTLTSYH_MYM
10
-75.00
20
-4900.00
30
1200.00
11
-75.00
21
-4840.00
31
1200.00
12
-75.00
22
-4840.00
32
1400.00
13
-75.00
23
-4900.00
33
1400.00
0
3DFACE
8
AYNSTLTSYH_MYM
10
75.00
20
-4900.00
30
1200.00
11
75.00
21
-4840.00
31
1200.00
12
75.00
22
-4840.00
32
1400.00
13
75.00
23
-4900.00
33
1400.00
0
TEXT
8
LABELS
10
-75.00
20
-4980.00
30
1200.00
40
60.00
1
\U+05DE\U+05D7\U+05E9\U+05D1 / \U+05D1\U+05E7\U+05E8 \U+05D4\U+05E9\U+05E7\U+05D9\U+05D4
7
HEB
0
3DFACE
8
AYNSTLTSYH_MYM
10
400.00
20
-4900.00
30
1800.00
11
1000.00
21
-4900.00
31
1800.00
12
1000.00
22
-4300.00
32
1800.00
13
400.00
23
-4300.00
33
1800.00
0
3DFACE
8
AYNSTLTSYH_MYM
10
400.00
20
-4900.00
30
3000.00
11
1000.00
21
-4900.00
31
3000.00
12
1000.00
22
-4300.00
32
3000.00
13
400.00
23
-4300.00
33
3000.00
0
3DFACE
8
AYNSTLTSYH_MYM
10
400.00
20
-4900.00
30
1800.00
11
1000.00
21
-4900.00
31
1800.00
12
1000.00
22
-4900.00
32
3000.00
13
400.00
23
-4900.00
33
3000.00
0
3DFACE
8
AYNSTLTSYH_MYM
10
400.00
20
-4300.00
30
1800.00
11
1000.00
21
-4300.00
31
1800.00
12
1000.00
22
-4300.00
32
3000.00
13
400.00
23
-4300.00
33
3000.00
0
3DFACE
8
AYNSTLTSYH_MYM
10
400.00
20
-4900.00
30
1800.00
11
400.00
21
-4300.00
31
1800.00
12
400.00
22
-4300.00
32
3000.00
13
400.00
23
-4900.00
33
3000.00
0
3DFACE
8
AYNSTLTSYH_MYM
10
1000.00
20
-4900.00
30
1800.00
11
1000.00
21
-4300.00
31
1800.00
12
1000.00
22
-4300.00
32
3000.00
13
1000.00
23
-4900.00
33
3000.00
0
TEXT
8
LABELS
10
400.00
20
-4980.00
30
1800.00
40
60.00
1
\U+05D3\U+05D5\U+05D3 \U+05DE\U+05D9\U+05DD (\U+05D7\U+05E9\U+05DE\U+05DC/\U+05E1\U+05D5\U+05DC\U+05E8\U+05D9)
7
HEB
0
3DFACE
8
AYNSTLTSYH_MYM
10
1390.00
20
-4900.00
30
0.00
11
1410.00
21
-4900.00
31
0.00
12
1410.00
22
-4880.00
32
0.00
13
1390.00
23
-4880.00
33
0.00
0
3DFACE
8
AYNSTLTSYH_MYM
10
1390.00
20
-4900.00
30
20.00
11
1410.00
21
-4900.00
31
20.00
12
1410.00
22
-4880.00
32
20.00
13
1390.00
23
-4880.00
33
20.00
0
3DFACE
8
AYNSTLTSYH_MYM
10
1390.00
20
-4900.00
30
0.00
11
1410.00
21
-4900.00
31
0.00
12
1410.00
22
-4900.00
32
20.00
13
1390.00
23
-4900.00
33
20.00
0
3DFACE
8
AYNSTLTSYH_MYM
10
1390.00
20
-4880.00
30
0.00
11
1410.00
21
-4880.00
31
0.00
12
1410.00
22
-4880.00
32
20.00
13
1390.00
23
-4880.00
33
20.00
0
3DFACE
8
AYNSTLTSYH_MYM
10
1390.00
20
-4900.00
30
0.00
11
1390.00
21
-4880.00
31
0.00
12
1390.00
22
-4880.00
32
20.00
13
1390.00
23
-4900.00
33
20.00
0
3DFACE
8
AYNSTLTSYH_MYM
10
1410.00
20
-4900.00
30
0.00
11
1410.00
21
-4880.00
31
0.00
12
1410.00
22
-4880.00
32
20.00
13
1410.00
23
-4900.00
33
20.00
0
TEXT
8
LABELS
10
1390.00
20
-4980.00
30
0.00
40
60.00
1
\U+05E7\U+05D5\U+05DC\U+05D8\U+05DF \U+05E9\U+05DE\U+05E9 (\U+05E1\U+05D5\U+05DC\U+05D0\U+05E8\U+05D9)
7
HEB
0
3DFACE
8
AYNSTLTSYH_NYQVZ
10
2075.00
20
-4900.00
30
250.00
11
2125.00
21
-4900.00
31
250.00
12
2125.00
22
-4850.00
32
250.00
13
2075.00
23
-4850.00
33
250.00
0
3DFACE
8
AYNSTLTSYH_NYQVZ
10
2075.00
20
-4900.00
30
300.00
11
2125.00
21
-4900.00
31
300.00
12
2125.00
22
-4850.00
32
300.00
13
2075.00
23
-4850.00
33
300.00
0
3DFACE
8
AYNSTLTSYH_NYQVZ
10
2075.00
20
-4900.00
30
250.00
11
2125.00
21
-4900.00
31
250.00
12
2125.00
22
-4900.00
32
300.00
13
2075.00
23
-4900.00
33
300.00
0
3DFACE
8
AYNSTLTSYH_NYQVZ
10
2075.00
20
-4850.00
30
250.00
11
2125.00
21
-4850.00
31
250.00
12
2125.00
22
-4850.00
32
300.00
13
2075.00
23
-4850.00
33
300.00
0
3DFACE
8
AYNSTLTSYH_NYQVZ
10
2075.00
20
-4900.00
30
250.00
11
2075.00
21
-4850.00
31
250.00
12
2075.00
22
-4850.00
32
300.00
13
2075.00
23
-4900.00
33
300.00
0
3DFACE
8
AYNSTLTSYH_NYQVZ
10
2125.00
20
-4900.00
30
250.00
11
2125.00
21
-4850.00
31
250.00
12
2125.00
22
-4850.00
32
300.00
13
2125.00
23
-4900.00
33
300.00
0
TEXT
8
LABELS
10
2075.00
20
-4980.00
30
250.00
40
60.00
1
\U+05E0\U+05E7\U+05D5\U+05D3\U+05EA \U+05E0\U+05D9\U+05E7\U+05D5\U+05D6 / \U+05D1\U+05D9\U+05D5\U+05D1
7
HEB
0
3DFACE
8
AYNSTLTSYH_NYQVZ
10
2740.00
20
-4900.00
30
0.00
11
2860.00
21
-4900.00
31
0.00
12
2860.00
22
-4900.00
32
0.00
13
2740.00
23
-4900.00
33
0.00
0
3DFACE
8
AYNSTLTSYH_NYQVZ
10
2740.00
20
-4900.00
30
120.00
11
2860.00
21
-4900.00
31
120.00
12
2860.00
22
-4900.00
32
120.00
13
2740.00
23
-4900.00
33
120.00
0
3DFACE
8
AYNSTLTSYH_NYQVZ
10
2740.00
20
-4900.00
30
0.00
11
2860.00
21
-4900.00
31
0.00
12
2860.00
22
-4900.00
32
120.00
13
2740.00
23
-4900.00
33
120.00
0
3DFACE
8
AYNSTLTSYH_NYQVZ
10
2740.00
20
-4900.00
30
0.00
11
2860.00
21
-4900.00
31
0.00
12
2860.00
22
-4900.00
32
120.00
13
2740.00
23
-4900.00
33
120.00
0
3DFACE
8
AYNSTLTSYH_NYQVZ
10
2740.00
20
-4900.00
30
0.00
11
2740.00
21
-4900.00
31
0.00
12
2740.00
22
-4900.00
32
120.00
13
2740.00
23
-4900.00
33
120.00
0
3DFACE
8
AYNSTLTSYH_NYQVZ
10
2860.00
20
-4900.00
30
0.00
11
2860.00
21
-4900.00
31
0.00
12
2860.00
22
-4900.00
32
120.00
13
2860.00
23
-4900.00
33
120.00
0
TEXT
8
LABELS
10
2740.00
20
-4980.00
30
0.00
40
60.00
1
\U+05E0\U+05D9\U+05E7\U+05D5\U+05D6 \U+05E8\U+05E6\U+05E4\U+05D4 (\U+05DE\U+05D7\U+05E1\U+05D5\U+05DD \U+05E8\U+05E6\U+05E4\U+05D4)
7
HEB
0
3DFACE
8
AYNSTLTSYH_NYQVZ
10
3445.00
20
-4900.00
30
0.00
11
3555.00
21
-4900.00
31
0.00
12
3555.00
22
-4900.00
32
0.00
13
3445.00
23
-4900.00
33
0.00
0
3DFACE
8
AYNSTLTSYH_NYQVZ
10
3445.00
20
-4900.00
30
110.00
11
3555.00
21
-4900.00
31
110.00
12
3555.00
22
-4900.00
32
110.00
13
3445.00
23
-4900.00
33
110.00
0
3DFACE
8
AYNSTLTSYH_NYQVZ
10
3445.00
20
-4900.00
30
0.00
11
3555.00
21
-4900.00
31
0.00
12
3555.00
22
-4900.00
32
110.00
13
3445.00
23
-4900.00
33
110.00
0
3DFACE
8
AYNSTLTSYH_NYQVZ
10
3445.00
20
-4900.00
30
0.00
11
3555.00
21
-4900.00
31
0.00
12
3555.00
22
-4900.00
32
110.00
13
3445.00
23
-4900.00
33
110.00
0
3DFACE
8
AYNSTLTSYH_NYQVZ
10
3445.00
20
-4900.00
30
0.00
11
3445.00
21
-4900.00
31
0.00
12
3445.00
22
-4900.00
32
110.00
13
3445.00
23
-4900.00
33
110.00
0
3DFACE
8
AYNSTLTSYH_NYQVZ
10
3555.00
20
-4900.00
30
0.00
11
3555.00
21
-4900.00
31
0.00
12
3555.00
22
-4900.00
32
110.00
13
3555.00
23
-4900.00
33
110.00
0
TEXT
8
LABELS
10
3445.00
20
-4980.00
30
0.00
40
60.00
1
\U+05E0\U+05E7\U+05D5\U+05D3\U+05EA \U+05D9\U+05E6\U+05D9\U+05D0\U+05EA \U+05D0\U+05E1\U+05DC\U+05D4
7
HEB
0
3DFACE
8
AYNSTLTSYH_NYQVZ
10
3950.00
20
-4900.00
30
1000.00
11
4450.00
21
-4900.00
31
1000.00
12
4450.00
22
-4750.00
32
1000.00
13
3950.00
23
-4750.00
33
1000.00
0
3DFACE
8
AYNSTLTSYH_NYQVZ
10
3950.00
20
-4900.00
30
2120.00
11
4450.00
21
-4900.00
31
2120.00
12
4450.00
22
-4750.00
32
2120.00
13
3950.00
23
-4750.00
33
2120.00
0
3DFACE
8
AYNSTLTSYH_NYQVZ
10
3950.00
20
-4900.00
30
1000.00
11
4450.00
21
-4900.00
31
1000.00
12
4450.00
22
-4900.00
32
2120.00
13
3950.00
23
-4900.00
33
2120.00
0
3DFACE
8
AYNSTLTSYH_NYQVZ
10
3950.00
20
-4750.00
30
1000.00
11
4450.00
21
-4750.00
31
1000.00
12
4450.00
22
-4750.00
32
2120.00
13
3950.00
23
-4750.00
33
2120.00
0
3DFACE
8
AYNSTLTSYH_NYQVZ
10
3950.00
20
-4900.00
30
1000.00
11
3950.00
21
-4750.00
31
1000.00
12
3950.00
22
-4750.00
32
2120.00
13
3950.00
23
-4900.00
33
2120.00
0
3DFACE
8
AYNSTLTSYH_NYQVZ
10
4450.00
20
-4900.00
30
1000.00
11
4450.00
21
-4750.00
31
1000.00
12
4450.00
22
-4750.00
32
2120.00
13
4450.00
23
-4900.00
33
2120.00
0
TEXT
8
LABELS
10
3950.00
20
-4980.00
30
1000.00
40
60.00
1
\U+05DE\U+05D9\U+05DB\U+05DC \U+05D4\U+05D3\U+05D7\U+05D4 \U+05E1\U+05DE\U+05D5\U+05D9 (\U+05E0\U+05D9\U+05D0\U+05D2\U+05E8\U+05D4 \U+05E1\U+05DE\U+05D5\U+05D9\U+05D4)
7
HEB
0
3DFACE
8
AYNSTLTSYH_NYQVZ
10
4890.00
20
-4900.00
30
2300.00
11
4910.00
21
-4900.00
31
2300.00
12
4910.00
22
-4880.00
32
2300.00
13
4890.00
23
-4880.00
33
2300.00
0
3DFACE
8
AYNSTLTSYH_NYQVZ
10
4890.00
20
-4900.00
30
2320.00
11
4910.00
21
-4900.00
31
2320.00
12
4910.00
22
-4880.00
32
2320.00
13
4890.00
23
-4880.00
33
2320.00
0
3DFACE
8
AYNSTLTSYH_NYQVZ
10
4890.00
20
-4900.00
30
2300.00
11
4910.00
21
-4900.00
31
2300.00
12
4910.00
22
-4900.00
32
2320.00
13
4890.00
23
-4900.00
33
2320.00
0
3DFACE
8
AYNSTLTSYH_NYQVZ
10
4890.00
20
-4880.00
30
2300.00
11
4910.00
21
-4880.00
31
2300.00
12
4910.00
22
-4880.00
32
2320.00
13
4890.00
23
-4880.00
33
2320.00
0
3DFACE
8
AYNSTLTSYH_NYQVZ
10
4890.00
20
-4900.00
30
2300.00
11
4890.00
21
-4880.00
31
2300.00
12
4890.00
22
-4880.00
32
2320.00
13
4890.00
23
-4900.00
33
2320.00
0
3DFACE
8
AYNSTLTSYH_NYQVZ
10
4910.00
20
-4900.00
30
2300.00
11
4910.00
21
-4880.00
31
2300.00
12
4910.00
22
-4880.00
32
2320.00
13
4910.00
23
-4900.00
33
2320.00
0
TEXT
8
LABELS
10
4890.00
20
-4980.00
30
2300.00
40
60.00
1
\U+05E0\U+05E7\U+05D5\U+05D3\U+05EA \U+05E0\U+05D9\U+05E7\U+05D5\U+05D6 \U+05DE\U+05D6\U+05D2\U+05DF (\U+05E7\U+05D5\U+05E0\U+05D3\U+05E0\U+05E1\U+05D8)
7
HEB
0
3DFACE
8
GZ
10
5590.00
20
-4900.00
30
600.00
11
5610.00
21
-4900.00
31
600.00
12
5610.00
22
-4880.00
32
600.00
13
5590.00
23
-4880.00
33
600.00
0
3DFACE
8
GZ
10
5590.00
20
-4900.00
30
620.00
11
5610.00
21
-4900.00
31
620.00
12
5610.00
22
-4880.00
32
620.00
13
5590.00
23
-4880.00
33
620.00
0
3DFACE
8
GZ
10
5590.00
20
-4900.00
30
600.00
11
5610.00
21
-4900.00
31
600.00
12
5610.00
22
-4900.00
32
620.00
13
5590.00
23
-4900.00
33
620.00
0
3DFACE
8
GZ
10
5590.00
20
-4880.00
30
600.00
11
5610.00
21
-4880.00
31
600.00
12
5610.00
22
-4880.00
32
620.00
13
5590.00
23
-4880.00
33
620.00
0
3DFACE
8
GZ
10
5590.00
20
-4900.00
30
600.00
11
5590.00
21
-4880.00
31
600.00
12
5590.00
22
-4880.00
32
620.00
13
5590.00
23
-4900.00
33
620.00
0
3DFACE
8
GZ
10
5610.00
20
-4900.00
30
600.00
11
5610.00
21
-4880.00
31
600.00
12
5610.00
22
-4880.00
32
620.00
13
5610.00
23
-4900.00
33
620.00
0
TEXT
8
LABELS
10
5590.00
20
-4980.00
30
600.00
40
60.00
1
\U+05E0\U+05E7\U+05D5\U+05D3\U+05EA \U+05D2\U+05D6 (\U+05DB\U+05D9\U+05E8\U+05D9\U+05D9\U+05DD)
7
HEB
0
3DFACE
8
GZ
10
6280.00
20
-4900.00
30
400.00
11
6320.00
21
-4900.00
31
400.00
12
6320.00
22
-4860.00
32
400.00
13
6280.00
23
-4860.00
33
400.00
0
3DFACE
8
GZ
10
6280.00
20
-4900.00
30
440.00
11
6320.00
21
-4900.00
31
440.00
12
6320.00
22
-4860.00
32
440.00
13
6280.00
23
-4860.00
33
440.00
0
3DFACE
8
GZ
10
6280.00
20
-4900.00
30
400.00
11
6320.00
21
-4900.00
31
400.00
12
6320.00
22
-4900.00
32
440.00
13
6280.00
23
-4900.00
33
440.00
0
3DFACE
8
GZ
10
6280.00
20
-4860.00
30
400.00
11
6320.00
21
-4860.00
31
400.00
12
6320.00
22
-4860.00
32
440.00
13
6280.00
23
-4860.00
33
440.00
0
3DFACE
8
GZ
10
6280.00
20
-4900.00
30
400.00
11
6280.00
21
-4860.00
31
400.00
12
6280.00
22
-4860.00
32
440.00
13
6280.00
23
-4900.00
33
440.00
0
3DFACE
8
GZ
10
6320.00
20
-4900.00
30
400.00
11
6320.00
21
-4860.00
31
400.00
12
6320.00
22
-4860.00
32
440.00
13
6320.00
23
-4900.00
33
440.00
0
TEXT
8
LABELS
10
6280.00
20
-4980.00
30
400.00
40
60.00
1
\U+05D4\U+05DB\U+05E0\U+05EA \U+05D2\U+05D6 2 \U+05D9\U+05E6\U+05D9\U+05D0\U+05D5\U+05EA
7
HEB
0
3DFACE
8
GZ
10
6900.00
20
-4900.00
30
500.00
11
7100.00
21
-4900.00
31
500.00
12
7100.00
22
-4840.00
32
500.00
13
6900.00
23
-4840.00
33
500.00
0
3DFACE
8
GZ
10
6900.00
20
-4900.00
30
580.00
11
7100.00
21
-4900.00
31
580.00
12
7100.00
22
-4840.00
32
580.00
13
6900.00
23
-4840.00
33
580.00
0
3DFACE
8
GZ
10
6900.00
20
-4900.00
30
500.00
11
7100.00
21
-4900.00
31
500.00
12
7100.00
22
-4900.00
32
580.00
13
6900.00
23
-4900.00
33
580.00
0
3DFACE
8
GZ
10
6900.00
20
-4840.00
30
500.00
11
7100.00
21
-4840.00
31
500.00
12
7100.00
22
-4840.00
32
580.00
13
6900.00
23
-4840.00
33
580.00
0
3DFACE
8
GZ
10
6900.00
20
-4900.00
30
500.00
11
6900.00
21
-4840.00
31
500.00
12
6900.00
22
-4840.00
32
580.00
13
6900.00
23
-4900.00
33
580.00
0
3DFACE
8
GZ
10
7100.00
20
-4900.00
30
500.00
11
7100.00
21
-4840.00
31
500.00
12
7100.00
22
-4840.00
32
580.00
13
7100.00
23
-4900.00
33
580.00
0
TEXT
8
LABELS
10
6900.00
20
-4980.00
30
500.00
40
60.00
1
\U+05D7\U+05E0\U+05D5\U+05DB\U+05D9\U+05D9\U+05EA \U+05D2\U+05D6 / \U+05DE\U+05E4\U+05E6\U+05DC (N \U+05D9\U+05E6\U+05D9\U+05D0\U+05D5\U+05EA)
7
HEB
0
3DFACE
8
GZ
10
7550.00
20
-4900.00
30
1400.00
11
7850.00
21
-4900.00
31
1400.00
12
7850.00
22
-4700.00
32
1400.00
13
7550.00
23
-4700.00
33
1400.00
0
3DFACE
8
GZ
10
7550.00
20
-4900.00
30
1800.00
11
7850.00
21
-4900.00
31
1800.00
12
7850.00
22
-4700.00
32
1800.00
13
7550.00
23
-4700.00
33
1800.00
0
3DFACE
8
GZ
10
7550.00
20
-4900.00
30
1400.00
11
7850.00
21
-4900.00
31
1400.00
12
7850.00
22
-4900.00
32
1800.00
13
7550.00
23
-4900.00
33
1800.00
0
3DFACE
8
GZ
10
7550.00
20
-4700.00
30
1400.00
11
7850.00
21
-4700.00
31
1400.00
12
7850.00
22
-4700.00
32
1800.00
13
7550.00
23
-4700.00
33
1800.00
0
3DFACE
8
GZ
10
7550.00
20
-4900.00
30
1400.00
11
7550.00
21
-4700.00
31
1400.00
12
7550.00
22
-4700.00
32
1800.00
13
7550.00
23
-4900.00
33
1800.00
0
3DFACE
8
GZ
10
7850.00
20
-4900.00
30
1400.00
11
7850.00
21
-4700.00
31
1400.00
12
7850.00
22
-4700.00
32
1800.00
13
7850.00
23
-4900.00
33
1800.00
0
TEXT
8
LABELS
10
7550.00
20
-4980.00
30
1400.00
40
60.00
1
\U+05DE\U+05E8\U+05DB\U+05D6\U+05D9\U+05D9\U+05EA \U+05D2\U+05D6 / \U+05D5\U+05E1\U+05EA \U+05DE\U+05E8\U+05DB\U+05D6\U+05D9
7
HEB
0
3DFACE
8
GZ
10
-150.00
20
-5600.00
30
0.00
11
150.00
21
-5600.00
31
0.00
12
150.00
22
-5300.00
32
0.00
13
-150.00
23
-5300.00
33
0.00
0
3DFACE
8
GZ
10
-150.00
20
-5600.00
30
600.00
11
150.00
21
-5600.00
31
600.00
12
150.00
22
-5300.00
32
600.00
13
-150.00
23
-5300.00
33
600.00
0
3DFACE
8
GZ
10
-150.00
20
-5600.00
30
0.00
11
150.00
21
-5600.00
31
0.00
12
150.00
22
-5600.00
32
600.00
13
-150.00
23
-5600.00
33
600.00
0
3DFACE
8
GZ
10
-150.00
20
-5300.00
30
0.00
11
150.00
21
-5300.00
31
0.00
12
150.00
22
-5300.00
32
600.00
13
-150.00
23
-5300.00
33
600.00
0
3DFACE
8
GZ
10
-150.00
20
-5600.00
30
0.00
11
-150.00
21
-5300.00
31
0.00
12
-150.00
22
-5300.00
32
600.00
13
-150.00
23
-5600.00
33
600.00
0
3DFACE
8
GZ
10
150.00
20
-5600.00
30
0.00
11
150.00
21
-5300.00
31
0.00
12
150.00
22
-5300.00
32
600.00
13
150.00
23
-5600.00
33
600.00
0
TEXT
8
LABELS
10
-150.00
20
-5680.00
30
0.00
40
60.00
1
\U+05D1\U+05DC\U+05D5\U+05DF \U+05D2\U+05D6 (\U+05D2\U+05E4\U+05F4\U+05DE)
7
HEB
0
3DFACE
8
GZ
10
680.00
20
-5600.00
30
600.00
11
720.00
21
-5600.00
31
600.00
12
720.00
22
-5560.00
32
600.00
13
680.00
23
-5560.00
33
600.00
0
3DFACE
8
GZ
10
680.00
20
-5600.00
30
640.00
11
720.00
21
-5600.00
31
640.00
12
720.00
22
-5560.00
32
640.00
13
680.00
23
-5560.00
33
640.00
0
3DFACE
8
GZ
10
680.00
20
-5600.00
30
600.00
11
720.00
21
-5600.00
31
600.00
12
720.00
22
-5600.00
32
640.00
13
680.00
23
-5600.00
33
640.00
0
3DFACE
8
GZ
10
680.00
20
-5560.00
30
600.00
11
720.00
21
-5560.00
31
600.00
12
720.00
22
-5560.00
32
640.00
13
680.00
23
-5560.00
33
640.00
0
3DFACE
8
GZ
10
680.00
20
-5600.00
30
600.00
11
680.00
21
-5560.00
31
600.00
12
680.00
22
-5560.00
32
640.00
13
680.00
23
-5600.00
33
640.00
0
3DFACE
8
GZ
10
720.00
20
-5600.00
30
600.00
11
720.00
21
-5560.00
31
600.00
12
720.00
22
-5560.00
32
640.00
13
720.00
23
-5600.00
33
640.00
0
TEXT
8
LABELS
10
680.00
20
-5680.00
30
600.00
40
60.00
1
\U+05D1\U+05E8\U+05D6 \U+05D2\U+05D6 \U+05DC\U+05D8\U+05D0\U+05D1\U+05D5\U+05DF (\U+05D7\U+05D9\U+05E6\U+05D5\U+05E0\U+05D9)
7
HEB
0
3DFACE
8
GZ
10
1275.00
20
-5600.00
30
1400.00
11
1525.00
21
-5600.00
31
1400.00
12
1525.00
22
-5450.00
32
1400.00
13
1275.00
23
-5450.00
33
1400.00
0
3DFACE
8
GZ
10
1275.00
20
-5600.00
30
1700.00
11
1525.00
21
-5600.00
31
1700.00
12
1525.00
22
-5450.00
32
1700.00
13
1275.00
23
-5450.00
33
1700.00
0
3DFACE
8
GZ
10
1275.00
20
-5600.00
30
1400.00
11
1525.00
21
-5600.00
31
1400.00
12
1525.00
22
-5600.00
32
1700.00
13
1275.00
23
-5600.00
33
1700.00
0
3DFACE
8
GZ
10
1275.00
20
-5450.00
30
1400.00
11
1525.00
21
-5450.00
31
1400.00
12
1525.00
22
-5450.00
32
1700.00
13
1275.00
23
-5450.00
33
1700.00
0
3DFACE
8
GZ
10
1275.00
20
-5600.00
30
1400.00
11
1275.00
21
-5450.00
31
1400.00
12
1275.00
22
-5450.00
32
1700.00
13
1275.00
23
-5600.00
33
1700.00
0
3DFACE
8
GZ
10
1525.00
20
-5600.00
30
1400.00
11
1525.00
21
-5450.00
31
1400.00
12
1525.00
22
-5450.00
32
1700.00
13
1525.00
23
-5600.00
33
1700.00
0
TEXT
8
LABELS
10
1275.00
20
-5680.00
30
1400.00
40
60.00
1
\U+05DE\U+05D5\U+05E0\U+05D4 \U+05D2\U+05D6
7
HEB
0
3DFACE
8
GZ
10
2080.00
20
-5600.00
30
1200.00
11
2120.00
21
-5600.00
31
1200.00
12
2120.00
22
-5560.00
32
1200.00
13
2080.00
23
-5560.00
33
1200.00
0
3DFACE
8
GZ
10
2080.00
20
-5600.00
30
1240.00
11
2120.00
21
-5600.00
31
1240.00
12
2120.00
22
-5560.00
32
1240.00
13
2080.00
23
-5560.00
33
1240.00
0
3DFACE
8
GZ
10
2080.00
20
-5600.00
30
1200.00
11
2120.00
21
-5600.00
31
1200.00
12
2120.00
22
-5600.00
32
1240.00
13
2080.00
23
-5600.00
33
1240.00
0
3DFACE
8
GZ
10
2080.00
20
-5560.00
30
1200.00
11
2120.00
21
-5560.00
31
1200.00
12
2120.00
22
-5560.00
32
1240.00
13
2080.00
23
-5560.00
33
1240.00
0
3DFACE
8
GZ
10
2080.00
20
-5600.00
30
1200.00
11
2080.00
21
-5560.00
31
1200.00
12
2080.00
22
-5560.00
32
1240.00
13
2080.00
23
-5600.00
33
1240.00
0
3DFACE
8
GZ
10
2120.00
20
-5600.00
30
1200.00
11
2120.00
21
-5560.00
31
1200.00
12
2120.00
22
-5560.00
32
1240.00
13
2120.00
23
-5600.00
33
1240.00
0
TEXT
8
LABELS
10
2080.00
20
-5680.00
30
1200.00
40
60.00
1
\U+05D1\U+05E8\U+05D6 \U+05E0\U+05D9\U+05EA\U+05D5\U+05E7 \U+05D2\U+05D6 \U+05E8\U+05D0\U+05E9\U+05D9
7
HEB
0
3DFACE
8
MYZVG_VAVVRVR
10
2350.00
20
-5600.00
30
2300.00
11
3250.00
21
-5600.00
31
2300.00
12
3250.00
22
-5400.00
32
2300.00
13
2350.00
23
-5400.00
33
2300.00
0
3DFACE
8
MYZVG_VAVVRVR
10
2350.00
20
-5600.00
30
2600.00
11
3250.00
21
-5600.00
31
2600.00
12
3250.00
22
-5400.00
32
2600.00
13
2350.00
23
-5400.00
33
2600.00
0
3DFACE
8
MYZVG_VAVVRVR
10
2350.00
20
-5600.00
30
2300.00
11
3250.00
21
-5600.00
31
2300.00
12
3250.00
22
-5600.00
32
2600.00
13
2350.00
23
-5600.00
33
2600.00
0
3DFACE
8
MYZVG_VAVVRVR
10
2350.00
20
-5400.00
30
2300.00
11
3250.00
21
-5400.00
31
2300.00
12
3250.00
22
-5400.00
32
2600.00
13
2350.00
23
-5400.00
33
2600.00
0
3DFACE
8
MYZVG_VAVVRVR
10
2350.00
20
-5600.00
30
2300.00
11
2350.00
21
-5400.00
31
2300.00
12
2350.00
22
-5400.00
32
2600.00
13
2350.00
23
-5600.00
33
2600.00
0
3DFACE
8
MYZVG_VAVVRVR
10
3250.00
20
-5600.00
30
2300.00
11
3250.00
21
-5400.00
31
2300.00
12
3250.00
22
-5400.00
32
2600.00
13
3250.00
23
-5600.00
33
2600.00
0
TEXT
8
LABELS
10
2350.00
20
-5680.00
30
2300.00
40
60.00
1
\U+05DE\U+05D6\U+05D2\U+05DF \U+05E2\U+05D9\U+05DC\U+05D9 \U+2014 \U+05D9\U+05D7\U+05D9\U+05D3\U+05D4 \U+05E4\U+05E0\U+05D9\U+05DE\U+05D9\U+05EA
7
HEB
0
3DFACE
8
MYZVG_VAVVRVR
10
3100.00
20
-5600.00
30
0.00
11
3900.00
21
-5600.00
31
0.00
12
3900.00
22
-5300.00
32
0.00
13
3100.00
23
-5300.00
33
0.00
0
3DFACE
8
MYZVG_VAVVRVR
10
3100.00
20
-5600.00
30
550.00
11
3900.00
21
-5600.00
31
550.00
12
3900.00
22
-5300.00
32
550.00
13
3100.00
23
-5300.00
33
550.00
0
3DFACE
8
MYZVG_VAVVRVR
10
3100.00
20
-5600.00
30
0.00
11
3900.00
21
-5600.00
31
0.00
12
3900.00
22
-5600.00
32
550.00
13
3100.00
23
-5600.00
33
550.00
0
3DFACE
8
MYZVG_VAVVRVR
10
3100.00
20
-5300.00
30
0.00
11
3900.00
21
-5300.00
31
0.00
12
3900.00
22
-5300.00
32
550.00
13
3100.00
23
-5300.00
33
550.00
0
3DFACE
8
MYZVG_VAVVRVR
10
3100.00
20
-5600.00
30
0.00
11
3100.00
21
-5300.00
31
0.00
12
3100.00
22
-5300.00
32
550.00
13
3100.00
23
-5600.00
33
550.00
0
3DFACE
8
MYZVG_VAVVRVR
10
3900.00
20
-5600.00
30
0.00
11
3900.00
21
-5300.00
31
0.00
12
3900.00
22
-5300.00
32
550.00
13
3900.00
23
-5600.00
33
550.00
0
TEXT
8
LABELS
10
3100.00
20
-5680.00
30
0.00
40
60.00
1
\U+05DE\U+05E2\U+05D1\U+05D4 \U+2014 \U+05D9\U+05D7\U+05D9\U+05D3\U+05D4 \U+05D7\U+05D9\U+05E6\U+05D5\U+05E0\U+05D9\U+05EA
7
HEB
0
3DFACE
8
MYZVG_VAVVRVR
10
3900.00
20
-5600.00
30
2500.00
11
4500.00
21
-5600.00
31
2500.00
12
4500.00
22
-5600.00
32
2500.00
13
3900.00
23
-5600.00
33
2500.00
0
3DFACE
8
MYZVG_VAVVRVR
10
3900.00
20
-5600.00
30
3100.00
11
4500.00
21
-5600.00
31
3100.00
12
4500.00
22
-5600.00
32
3100.00
13
3900.00
23
-5600.00
33
3100.00
0
3DFACE
8
MYZVG_VAVVRVR
10
3900.00
20
-5600.00
30
2500.00
11
4500.00
21
-5600.00
31
2500.00
12
4500.00
22
-5600.00
32
3100.00
13
3900.00
23
-5600.00
33
3100.00
0
3DFACE
8
MYZVG_VAVVRVR
10
3900.00
20
-5600.00
30
2500.00
11
4500.00
21
-5600.00
31
2500.00
12
4500.00
22
-5600.00
32
3100.00
13
3900.00
23
-5600.00
33
3100.00
0
3DFACE
8
MYZVG_VAVVRVR
10
3900.00
20
-5600.00
30
2500.00
11
3900.00
21
-5600.00
31
2500.00
12
3900.00
22
-5600.00
32
3100.00
13
3900.00
23
-5600.00
33
3100.00
0
3DFACE
8
MYZVG_VAVVRVR
10
4500.00
20
-5600.00
30
2500.00
11
4500.00
21
-5600.00
31
2500.00
12
4500.00
22
-5600.00
32
3100.00
13
4500.00
23
-5600.00
33
3100.00
0
TEXT
8
LABELS
10
3900.00
20
-5680.00
30
2500.00
40
60.00
1
\U+05E0\U+05E7\U+05D5\U+05D3\U+05EA \U+05DE\U+05D6\U+05D2\U+05DF \U+05DE\U+05D9\U+05E0\U+05D9-\U+05DE\U+05E8\U+05DB\U+05D6\U+05D9 (\U+05DE\U+05E4\U+05D5\U+05D7)
7
HEB
0
3DFACE
8
MYZVG_VAVVRVR
10
4800.00
20
-5600.00
30
0.00
11
5000.00
21
-5600.00
31
0.00
12
5000.00
22
-5600.00
32
0.00
13
4800.00
23
-5600.00
33
0.00
0
3DFACE
8
MYZVG_VAVVRVR
10
4800.00
20
-5600.00
30
200.00
11
5000.00
21
-5600.00
31
200.00
12
5000.00
22
-5600.00
32
200.00
13
4800.00
23
-5600.00
33
200.00
0
3DFACE
8
MYZVG_VAVVRVR
10
4800.00
20
-5600.00
30
0.00
11
5000.00
21
-5600.00
31
0.00
12
5000.00
22
-5600.00
32
200.00
13
4800.00
23
-5600.00
33
200.00
0
3DFACE
8
MYZVG_VAVVRVR
10
4800.00
20
-5600.00
30
0.00
11
5000.00
21
-5600.00
31
0.00
12
5000.00
22
-5600.00
32
200.00
13
4800.00
23
-5600.00
33
200.00
0
3DFACE
8
MYZVG_VAVVRVR
10
4800.00
20
-5600.00
30
0.00
11
4800.00
21
-5600.00
31
0.00
12
4800.00
22
-5600.00
32
200.00
13
4800.00
23
-5600.00
33
200.00
0
3DFACE
8
MYZVG_VAVVRVR
10
5000.00
20
-5600.00
30
0.00
11
5000.00
21
-5600.00
31
0.00
12
5000.00
22
-5600.00
32
200.00
13
5000.00
23
-5600.00
33
200.00
0
TEXT
8
LABELS
10
4800.00
20
-5680.00
30
0.00
40
60.00
1
\U+05E4\U+05EA\U+05D7 \U+05D0\U+05D5\U+05D5\U+05E8\U+05D5\U+05E8 / \U+05E9\U+05D1\U+05DB\U+05D4
7
HEB
0
3DFACE
8
MYZVG_VAVVRVR
10
5475.00
20
-5600.00
30
0.00
11
5725.00
21
-5600.00
31
0.00
12
5725.00
22
-5450.00
32
0.00
13
5475.00
23
-5450.00
33
0.00
0
3DFACE
8
MYZVG_VAVVRVR
10
5475.00
20
-5600.00
30
250.00
11
5725.00
21
-5600.00
31
250.00
12
5725.00
22
-5450.00
32
250.00
13
5475.00
23
-5450.00
33
250.00
0
3DFACE
8
MYZVG_VAVVRVR
10
5475.00
20
-5600.00
30
0.00
11
5725.00
21
-5600.00
31
0.00
12
5725.00
22
-5600.00
32
250.00
13
5475.00
23
-5600.00
33
250.00
0
3DFACE
8
MYZVG_VAVVRVR
10
5475.00
20
-5450.00
30
0.00
11
5725.00
21
-5450.00
31
0.00
12
5725.00
22
-5450.00
32
250.00
13
5475.00
23
-5450.00
33
250.00
0
3DFACE
8
MYZVG_VAVVRVR
10
5475.00
20
-5600.00
30
0.00
11
5475.00
21
-5450.00
31
0.00
12
5475.00
22
-5450.00
32
250.00
13
5475.00
23
-5600.00
33
250.00
0
3DFACE
8
MYZVG_VAVVRVR
10
5725.00
20
-5600.00
30
0.00
11
5725.00
21
-5450.00
31
0.00
12
5725.00
22
-5450.00
32
250.00
13
5725.00
23
-5600.00
33
250.00
0
TEXT
8
LABELS
10
5475.00
20
-5680.00
30
0.00
40
60.00
1
\U+05DE\U+05D0\U+05D5\U+05D5\U+05E8\U+05E8 \U+05D9\U+05E0\U+05D9\U+05E7\U+05D4 (\U+05D5\U+05E0\U+05D8\U+05D4 \U+05D7\U+05E9\U+05DE\U+05DC\U+05D9)
7
HEB
0
3DFACE
8
MYZVG_VAVVRVR
10
5850.00
20
-5600.00
30
1500.00
11
6750.00
21
-5600.00
31
1500.00
12
6750.00
22
-5100.00
32
1500.00
13
5850.00
23
-5100.00
33
1500.00
0
3DFACE
8
MYZVG_VAVVRVR
10
5850.00
20
-5600.00
30
2100.00
11
6750.00
21
-5600.00
31
2100.00
12
6750.00
22
-5100.00
32
2100.00
13
5850.00
23
-5100.00
33
2100.00
0
3DFACE
8
MYZVG_VAVVRVR
10
5850.00
20
-5600.00
30
1500.00
11
6750.00
21
-5600.00
31
1500.00
12
6750.00
22
-5600.00
32
2100.00
13
5850.00
23
-5600.00
33
2100.00
0
3DFACE
8
MYZVG_VAVVRVR
10
5850.00
20
-5100.00
30
1500.00
11
6750.00
21
-5100.00
31
1500.00
12
6750.00
22
-5100.00
32
2100.00
13
5850.00
23
-5100.00
33
2100.00
0
3DFACE
8
MYZVG_VAVVRVR
10
5850.00
20
-5600.00
30
1500.00
11
5850.00
21
-5100.00
31
1500.00
12
5850.00
22
-5100.00
32
2100.00
13
5850.00
23
-5600.00
33
2100.00
0
3DFACE
8
MYZVG_VAVVRVR
10
6750.00
20
-5600.00
30
1500.00
11
6750.00
21
-5100.00
31
1500.00
12
6750.00
22
-5100.00
32
2100.00
13
6750.00
23
-5600.00
33
2100.00
0
TEXT
8
LABELS
10
5850.00
20
-5680.00
30
1500.00
40
60.00
1
\U+05DE\U+05E0\U+05D3\U+05E3 (\U+05E7\U+05D5\U+05DC\U+05D8 \U+05D0\U+05D3\U+05D9\U+05DD \U+05DE\U+05E2\U+05DC \U+05D2\U+05E8\U+05D9\U+05DC)
7
HEB
0
3DFACE
8
MYZVG_VAVVRVR
10
6925.00
20
-5600.00
30
2100.00
11
7075.00
21
-5600.00
31
2100.00
12
7075.00
22
-5600.00
32
2100.00
13
6925.00
23
-5600.00
33
2100.00
0
3DFACE
8
MYZVG_VAVVRVR
10
6925.00
20
-5600.00
30
2250.00
11
7075.00
21
-5600.00
31
2250.00
12
7075.00
22
-5600.00
32
2250.00
13
6925.00
23
-5600.00
33
2250.00
0
3DFACE
8
MYZVG_VAVVRVR
10
6925.00
20
-5600.00
30
2100.00
11
7075.00
21
-5600.00
31
2100.00
12
7075.00
22
-5600.00
32
2250.00
13
6925.00
23
-5600.00
33
2250.00
0
3DFACE
8
MYZVG_VAVVRVR
10
6925.00
20
-5600.00
30
2100.00
11
7075.00
21
-5600.00
31
2100.00
12
7075.00
22
-5600.00
32
2250.00
13
6925.00
23
-5600.00
33
2250.00
0
3DFACE
8
MYZVG_VAVVRVR
10
6925.00
20
-5600.00
30
2100.00
11
6925.00
21
-5600.00
31
2100.00
12
6925.00
22
-5600.00
32
2250.00
13
6925.00
23
-5600.00
33
2250.00
0
3DFACE
8
MYZVG_VAVVRVR
10
7075.00
20
-5600.00
30
2100.00
11
7075.00
21
-5600.00
31
2100.00
12
7075.00
22
-5600.00
32
2250.00
13
7075.00
23
-5600.00
33
2250.00
0
TEXT
8
LABELS
10
6925.00
20
-5680.00
30
2100.00
40
60.00
1
\U+05D9\U+05E6\U+05D9\U+05D0\U+05EA \U+05E7\U+05D5\U+05DC\U+05D8 \U+05D0\U+05D3\U+05D9\U+05DD \U+05DC\U+05D7\U+05D5\U+05E5
7
HEB
0
3DFACE
8
MYZVG_VAVVRVR
10
7450.00
20
-5600.00
30
2500.00
11
7950.00
21
-5600.00
31
2500.00
12
7950.00
22
-5600.00
32
2500.00
13
7450.00
23
-5600.00
33
2500.00
0
3DFACE
8
MYZVG_VAVVRVR
10
7450.00
20
-5600.00
30
3000.00
11
7950.00
21
-5600.00
31
3000.00
12
7950.00
22
-5600.00
32
3000.00
13
7450.00
23
-5600.00
33
3000.00
0
3DFACE
8
MYZVG_VAVVRVR
10
7450.00
20
-5600.00
30
2500.00
11
7950.00
21
-5600.00
31
2500.00
12
7950.00
22
-5600.00
32
3000.00
13
7450.00
23
-5600.00
33
3000.00
0
3DFACE
8
MYZVG_VAVVRVR
10
7450.00
20
-5600.00
30
2500.00
11
7950.00
21
-5600.00
31
2500.00
12
7950.00
22
-5600.00
32
3000.00
13
7450.00
23
-5600.00
33
3000.00
0
3DFACE
8
MYZVG_VAVVRVR
10
7450.00
20
-5600.00
30
2500.00
11
7450.00
21
-5600.00
31
2500.00
12
7450.00
22
-5600.00
32
3000.00
13
7450.00
23
-5600.00
33
3000.00
0
3DFACE
8
MYZVG_VAVVRVR
10
7950.00
20
-5600.00
30
2500.00
11
7950.00
21
-5600.00
31
2500.00
12
7950.00
22
-5600.00
32
3000.00
13
7950.00
23
-5600.00
33
3000.00
0
TEXT
8
LABELS
10
7450.00
20
-5680.00
30
2500.00
40
60.00
1
\U+05E4\U+05EA\U+05D7 \U+05E9\U+05D9\U+05E8\U+05D5\U+05EA \U+05DC\U+05DE\U+05D9\U+05D6\U+05D5\U+05D2 / \U+05EA\U+05E7\U+05E8\U+05D4 \U+05E4\U+05E8\U+05D9\U+05E7\U+05D4
7
HEB
0
3DFACE
8
MYZVG_VAVVRVR
10
-350.00
20
-6300.00
30
2500.00
11
350.00
21
-6300.00
31
2500.00
12
350.00
22
-5900.00
32
2500.00
13
-350.00
23
-5900.00
33
2500.00
0
3DFACE
8
MYZVG_VAVVRVR
10
-350.00
20
-6300.00
30
2900.00
11
350.00
21
-6300.00
31
2900.00
12
350.00
22
-5900.00
32
2900.00
13
-350.00
23
-5900.00
33
2900.00
0
3DFACE
8
MYZVG_VAVVRVR
10
-350.00
20
-6300.00
30
2500.00
11
350.00
21
-6300.00
31
2500.00
12
350.00
22
-6300.00
32
2900.00
13
-350.00
23
-6300.00
33
2900.00
0
3DFACE
8
MYZVG_VAVVRVR
10
-350.00
20
-5900.00
30
2500.00
11
350.00
21
-5900.00
31
2500.00
12
350.00
22
-5900.00
32
2900.00
13
-350.00
23
-5900.00
33
2900.00
0
3DFACE
8
MYZVG_VAVVRVR
10
-350.00
20
-6300.00
30
2500.00
11
-350.00
21
-5900.00
31
2500.00
12
-350.00
22
-5900.00
32
2900.00
13
-350.00
23
-6300.00
33
2900.00
0
3DFACE
8
MYZVG_VAVVRVR
10
350.00
20
-6300.00
30
2500.00
11
350.00
21
-5900.00
31
2500.00
12
350.00
22
-5900.00
32
2900.00
13
350.00
23
-6300.00
33
2900.00
0
TEXT
8
LABELS
10
-350.00
20
-6380.00
30
2500.00
40
60.00
1
\U+05DE\U+05E2\U+05E8\U+05DB\U+05EA \U+05D0\U+05D5\U+05D5\U+05E8\U+05D5\U+05E8 \U+05DE\U+05D1\U+05D5\U+05E7\U+05E8 / HRV
7
HEB
0
3DFACE
8
CHYMVM_VMARKVT_TRMYVT
10
200.00
20
-6300.00
30
0.00
11
1200.00
21
-6300.00
31
0.00
12
1200.00
22
-5900.00
32
0.00
13
200.00
23
-5900.00
33
0.00
0
3DFACE
8
CHYMVM_VMARKVT_TRMYVT
10
200.00
20
-6300.00
30
700.00
11
1200.00
21
-6300.00
31
700.00
12
1200.00
22
-5900.00
32
700.00
13
200.00
23
-5900.00
33
700.00
0
3DFACE
8
CHYMVM_VMARKVT_TRMYVT
10
200.00
20
-6300.00
30
0.00
11
1200.00
21
-6300.00
31
0.00
12
1200.00
22
-6300.00
32
700.00
13
200.00
23
-6300.00
33
700.00
0
3DFACE
8
CHYMVM_VMARKVT_TRMYVT
10
200.00
20
-5900.00
30
0.00
11
1200.00
21
-5900.00
31
0.00
12
1200.00
22
-5900.00
32
700.00
13
200.00
23
-5900.00
33
700.00
0
3DFACE
8
CHYMVM_VMARKVT_TRMYVT
10
200.00
20
-6300.00
30
0.00
11
200.00
21
-5900.00
31
0.00
12
200.00
22
-5900.00
32
700.00
13
200.00
23
-6300.00
33
700.00
0
3DFACE
8
CHYMVM_VMARKVT_TRMYVT
10
1200.00
20
-6300.00
30
0.00
11
1200.00
21
-5900.00
31
0.00
12
1200.00
22
-5900.00
32
700.00
13
1200.00
23
-6300.00
33
700.00
0
TEXT
8
LABELS
10
200.00
20
-6380.00
30
0.00
40
60.00
1
\U+05DE\U+05E9\U+05D0\U+05D1\U+05EA \U+05D7\U+05D5\U+05DD
7
HEB
0
3DFACE
8
CHYMVM_VMARKVT_TRMYVT
10
1100.00
20
-6300.00
30
400.00
11
1700.00
21
-6300.00
31
400.00
12
1700.00
22
-6180.00
32
400.00
13
1100.00
23
-6180.00
33
400.00
0
3DFACE
8
CHYMVM_VMARKVT_TRMYVT
10
1100.00
20
-6300.00
30
900.00
11
1700.00
21
-6300.00
31
900.00
12
1700.00
22
-6180.00
32
900.00
13
1100.00
23
-6180.00
33
900.00
0
3DFACE
8
CHYMVM_VMARKVT_TRMYVT
10
1100.00
20
-6300.00
30
400.00
11
1700.00
21
-6300.00
31
400.00
12
1700.00
22
-6300.00
32
900.00
13
1100.00
23
-6300.00
33
900.00
0
3DFACE
8
CHYMVM_VMARKVT_TRMYVT
10
1100.00
20
-6180.00
30
400.00
11
1700.00
21
-6180.00
31
400.00
12
1700.00
22
-6180.00
32
900.00
13
1100.00
23
-6180.00
33
900.00
0
3DFACE
8
CHYMVM_VMARKVT_TRMYVT
10
1100.00
20
-6300.00
30
400.00
11
1100.00
21
-6180.00
31
400.00
12
1100.00
22
-6180.00
32
900.00
13
1100.00
23
-6300.00
33
900.00
0
3DFACE
8
CHYMVM_VMARKVT_TRMYVT
10
1700.00
20
-6300.00
30
400.00
11
1700.00
21
-6180.00
31
400.00
12
1700.00
22
-6180.00
32
900.00
13
1700.00
23
-6300.00
33
900.00
0
TEXT
8
LABELS
10
1100.00
20
-6380.00
30
400.00
40
60.00
1
\U+05D7\U+05D9\U+05DE\U+05D5\U+05DD \U+05EA\U+05EA-\U+05E8\U+05E6\U+05E4\U+05EA\U+05D9 \U+2014 \U+05E7\U+05D5\U+05DC\U+05E7\U+05D8\U+05D5\U+05E8
7
HEB
0
3DFACE
8
CHYMVM_VMARKVT_TRMYVT
10
2055.00
20
-6300.00
30
1300.00
11
2145.00
21
-6300.00
31
1300.00
12
2145.00
22
-6275.00
32
1300.00
13
2055.00
23
-6275.00
33
1300.00
0
3DFACE
8
CHYMVM_VMARKVT_TRMYVT
10
2055.00
20
-6300.00
30
1390.00
11
2145.00
21
-6300.00
31
1390.00
12
2145.00
22
-6275.00
32
1390.00
13
2055.00
23
-6275.00
33
1390.00
0
3DFACE
8
CHYMVM_VMARKVT_TRMYVT
10
2055.00
20
-6300.00
30
1300.00
11
2145.00
21
-6300.00
31
1300.00
12
2145.00
22
-6300.00
32
1390.00
13
2055.00
23
-6300.00
33
1390.00
0
3DFACE
8
CHYMVM_VMARKVT_TRMYVT
10
2055.00
20
-6275.00
30
1300.00
11
2145.00
21
-6275.00
31
1300.00
12
2145.00
22
-6275.00
32
1390.00
13
2055.00
23
-6275.00
33
1390.00
0
3DFACE
8
CHYMVM_VMARKVT_TRMYVT
10
2055.00
20
-6300.00
30
1300.00
11
2055.00
21
-6275.00
31
1300.00
12
2055.00
22
-6275.00
32
1390.00
13
2055.00
23
-6300.00
33
1390.00
0
3DFACE
8
CHYMVM_VMARKVT_TRMYVT
10
2145.00
20
-6300.00
30
1300.00
11
2145.00
21
-6275.00
31
1300.00
12
2145.00
22
-6275.00
32
1390.00
13
2145.00
23
-6300.00
33
1390.00
0
TEXT
8
LABELS
10
2055.00
20
-6380.00
30
1300.00
40
60.00
1
\U+05EA\U+05E8\U+05DE\U+05D5\U+05E1\U+05D8\U+05D8 \U+05E8\U+05E6\U+05E4\U+05D4 \U+05D7\U+05DE\U+05D4
7
HEB
0
3DFACE
8
ANRGYH_MTCHDSHT_VAGYRH
10
2235.00
20
-6300.00
30
0.00
11
3365.00
21
-6300.00
31
0.00
12
3365.00
22
-6260.00
32
0.00
13
2235.00
23
-6260.00
33
0.00
0
3DFACE
8
ANRGYH_MTCHDSHT_VAGYRH
10
2235.00
20
-6300.00
30
1760.00
11
3365.00
21
-6300.00
31
1760.00
12
3365.00
22
-6260.00
32
1760.00
13
2235.00
23
-6260.00
33
1760.00
0
3DFACE
8
ANRGYH_MTCHDSHT_VAGYRH
10
2235.00
20
-6300.00
30
0.00
11
3365.00
21
-6300.00
31
0.00
12
3365.00
22
-6300.00
32
1760.00
13
2235.00
23
-6300.00
33
1760.00
0
3DFACE
8
ANRGYH_MTCHDSHT_VAGYRH
10
2235.00
20
-6260.00
30
0.00
11
3365.00
21
-6260.00
31
0.00
12
3365.00
22
-6260.00
32
1760.00
13
2235.00
23
-6260.00
33
1760.00
0
3DFACE
8
ANRGYH_MTCHDSHT_VAGYRH
10
2235.00
20
-6300.00
30
0.00
11
2235.00
21
-6260.00
31
0.00
12
2235.00
22
-6260.00
32
1760.00
13
2235.00
23
-6300.00
33
1760.00
0
3DFACE
8
ANRGYH_MTCHDSHT_VAGYRH
10
3365.00
20
-6300.00
30
0.00
11
3365.00
21
-6260.00
31
0.00
12
3365.00
22
-6260.00
32
1760.00
13
3365.00
23
-6300.00
33
1760.00
0
TEXT
8
LABELS
10
2235.00
20
-6380.00
30
0.00
40
60.00
1
\U+05E4\U+05D0\U+05E0\U+05DC \U+05E1\U+05D5\U+05DC\U+05D0\U+05E8\U+05D9 / \U+05DE\U+05E2\U+05E8\U+05DA PV
7
HEB
0
3DFACE
8
ANRGYH_MTCHDSHT_VAGYRH
10
3275.00
20
-6300.00
30
1500.00
11
3725.00
21
-6300.00
31
1500.00
12
3725.00
22
-6100.00
32
1500.00
13
3275.00
23
-6100.00
33
1500.00
0
3DFACE
8
ANRGYH_MTCHDSHT_VAGYRH
10
3275.00
20
-6300.00
30
2150.00
11
3725.00
21
-6300.00
31
2150.00
12
3725.00
22
-6100.00
32
2150.00
13
3275.00
23
-6100.00
33
2150.00
0
3DFACE
8
ANRGYH_MTCHDSHT_VAGYRH
10
3275.00
20
-6300.00
30
1500.00
11
3725.00
21
-6300.00
31
1500.00
12
3725.00
22
-6300.00
32
2150.00
13
3275.00
23
-6300.00
33
2150.00
0
3DFACE
8
ANRGYH_MTCHDSHT_VAGYRH
10
3275.00
20
-6100.00
30
1500.00
11
3725.00
21
-6100.00
31
1500.00
12
3725.00
22
-6100.00
32
2150.00
13
3275.00
23
-6100.00
33
2150.00
0
3DFACE
8
ANRGYH_MTCHDSHT_VAGYRH
10
3275.00
20
-6300.00
30
1500.00
11
3275.00
21
-6100.00
31
1500.00
12
3275.00
22
-6100.00
32
2150.00
13
3275.00
23
-6300.00
33
2150.00
0
3DFACE
8
ANRGYH_MTCHDSHT_VAGYRH
10
3725.00
20
-6300.00
30
1500.00
11
3725.00
21
-6100.00
31
1500.00
12
3725.00
22
-6100.00
32
2150.00
13
3725.00
23
-6300.00
33
2150.00
0
TEXT
8
LABELS
10
3275.00
20
-6380.00
30
1500.00
40
60.00
1
\U+05DE\U+05DE\U+05D9\U+05E8 / \U+05D0\U+05D9\U+05E0\U+05D5\U+05D1\U+05E8\U+05D8\U+05E8 PV
7
HEB
0
3DFACE
8
ANRGYH_MTCHDSHT_VAGYRH
10
4160.00
20
-6300.00
30
0.00
11
4240.00
21
-6300.00
31
0.00
12
4240.00
22
-6260.00
32
0.00
13
4160.00
23
-6260.00
33
0.00
0
3DFACE
8
ANRGYH_MTCHDSHT_VAGYRH
10
4160.00
20
-6300.00
30
80.00
11
4240.00
21
-6300.00
31
80.00
12
4240.00
22
-6260.00
32
80.00
13
4160.00
23
-6260.00
33
80.00
0
3DFACE
8
ANRGYH_MTCHDSHT_VAGYRH
10
4160.00
20
-6300.00
30
0.00
11
4240.00
21
-6300.00
31
0.00
12
4240.00
22
-6300.00
32
80.00
13
4160.00
23
-6300.00
33
80.00
0
3DFACE
8
ANRGYH_MTCHDSHT_VAGYRH
10
4160.00
20
-6260.00
30
0.00
11
4240.00
21
-6260.00
31
0.00
12
4240.00
22
-6260.00
32
80.00
13
4160.00
23
-6260.00
33
80.00
0
3DFACE
8
ANRGYH_MTCHDSHT_VAGYRH
10
4160.00
20
-6300.00
30
0.00
11
4160.00
21
-6260.00
31
0.00
12
4160.00
22
-6260.00
32
80.00
13
4160.00
23
-6300.00
33
80.00
0
3DFACE
8
ANRGYH_MTCHDSHT_VAGYRH
10
4240.00
20
-6300.00
30
0.00
11
4240.00
21
-6260.00
31
0.00
12
4240.00
22
-6260.00
32
80.00
13
4240.00
23
-6300.00
33
80.00
0
TEXT
8
LABELS
10
4160.00
20
-6380.00
30
0.00
40
60.00
1
\U+05E0\U+05E7\U+05D5\U+05D3\U+05EA \U+05D7\U+05D9\U+05D1\U+05D5\U+05E8 PV (DC)
7
HEB
0
3DFACE
8
ANRGYH_MTCHDSHT_VAGYRH
10
4600.00
20
-6300.00
30
0.00
11
5200.00
21
-6300.00
31
0.00
12
5200.00
22
-6050.00
32
0.00
13
4600.00
23
-6050.00
33
0.00
0
3DFACE
8
ANRGYH_MTCHDSHT_VAGYRH
10
4600.00
20
-6300.00
30
900.00
11
5200.00
21
-6300.00
31
900.00
12
5200.00
22
-6050.00
32
900.00
13
4600.00
23
-6050.00
33
900.00
0
3DFACE
8
ANRGYH_MTCHDSHT_VAGYRH
10
4600.00
20
-6300.00
30
0.00
11
5200.00
21
-6300.00
31
0.00
12
5200.00
22
-6300.00
32
900.00
13
4600.00
23
-6300.00
33
900.00
0
3DFACE
8
ANRGYH_MTCHDSHT_VAGYRH
10
4600.00
20
-6050.00
30
0.00
11
5200.00
21
-6050.00
31
0.00
12
5200.00
22
-6050.00
32
900.00
13
4600.00
23
-6050.00
33
900.00
0
3DFACE
8
ANRGYH_MTCHDSHT_VAGYRH
10
4600.00
20
-6300.00
30
0.00
11
4600.00
21
-6050.00
31
0.00
12
4600.00
22
-6050.00
32
900.00
13
4600.00
23
-6300.00
33
900.00
0
3DFACE
8
ANRGYH_MTCHDSHT_VAGYRH
10
5200.00
20
-6300.00
30
0.00
11
5200.00
21
-6050.00
31
0.00
12
5200.00
22
-6050.00
32
900.00
13
5200.00
23
-6300.00
33
900.00
0
TEXT
8
LABELS
10
4600.00
20
-6380.00
30
0.00
40
60.00
1
\U+05E1\U+05D5\U+05DC\U+05DC\U+05EA \U+05D0\U+05D2\U+05D9\U+05E8\U+05D4 \U+05D1\U+05D9\U+05EA\U+05D9\U+05EA
7
HEB
0
3DFACE
8
ANRGYH_MTCHDSHT_VAGYRH
10
5500.00
20
-6300.00
30
1600.00
11
5700.00
21
-6300.00
31
1600.00
12
5700.00
22
-6180.00
32
1600.00
13
5500.00
23
-6180.00
33
1600.00
0
3DFACE
8
ANRGYH_MTCHDSHT_VAGYRH
10
5500.00
20
-6300.00
30
1900.00
11
5700.00
21
-6300.00
31
1900.00
12
5700.00
22
-6180.00
32
1900.00
13
5500.00
23
-6180.00
33
1900.00
0
3DFACE
8
ANRGYH_MTCHDSHT_VAGYRH
10
5500.00
20
-6300.00
30
1600.00
11
5700.00
21
-6300.00
31
1600.00
12
5700.00
22
-6300.00
32
1900.00
13
5500.00
23
-6300.00
33
1900.00
0
3DFACE
8
ANRGYH_MTCHDSHT_VAGYRH
10
5500.00
20
-6180.00
30
1600.00
11
5700.00
21
-6180.00
31
1600.00
12
5700.00
22
-6180.00
32
1900.00
13
5500.00
23
-6180.00
33
1900.00
0
3DFACE
8
ANRGYH_MTCHDSHT_VAGYRH
10
5500.00
20
-6300.00
30
1600.00
11
5500.00
21
-6180.00
31
1600.00
12
5500.00
22
-6180.00
32
1900.00
13
5500.00
23
-6300.00
33
1900.00
0
3DFACE
8
ANRGYH_MTCHDSHT_VAGYRH
10
5700.00
20
-6300.00
30
1600.00
11
5700.00
21
-6180.00
31
1600.00
12
5700.00
22
-6180.00
32
1900.00
13
5700.00
23
-6300.00
33
1900.00
0
TEXT
8
LABELS
10
5500.00
20
-6380.00
30
1600.00
40
60.00
1
\U+05DE\U+05D5\U+05E0\U+05D4 \U+05D3\U+05D5-\U+05DB\U+05D9\U+05D5\U+05D5\U+05E0\U+05D9 (\U+05E0\U+05D8\U+05D5)
7
HEB
0
3DFACE
8
ADRYKLY_PTCHYM_VMBNH
10
5700.00
20
-6300.00
30
1049.00
11
6900.00
21
-6300.00
31
1049.00
12
6900.00
22
-6200.00
32
1049.00
13
5700.00
23
-6200.00
33
1049.00
0
3DFACE
8
ADRYKLY_PTCHYM_VMBNH
10
5700.00
20
-6300.00
30
2489.00
11
6900.00
21
-6300.00
31
2489.00
12
6900.00
22
-6200.00
32
2489.00
13
5700.00
23
-6200.00
33
2489.00
0
3DFACE
8
ADRYKLY_PTCHYM_VMBNH
10
5700.00
20
-6300.00
30
1049.00
11
6900.00
21
-6300.00
31
1049.00
12
6900.00
22
-6300.00
32
2489.00
13
5700.00
23
-6300.00
33
2489.00
0
3DFACE
8
ADRYKLY_PTCHYM_VMBNH
10
5700.00
20
-6200.00
30
1049.00
11
6900.00
21
-6200.00
31
1049.00
12
6900.00
22
-6200.00
32
2489.00
13
5700.00
23
-6200.00
33
2489.00
0
3DFACE
8
ADRYKLY_PTCHYM_VMBNH
10
5700.00
20
-6300.00
30
1049.00
11
5700.00
21
-6200.00
31
1049.00
12
5700.00
22
-6200.00
32
2489.00
13
5700.00
23
-6300.00
33
2489.00
0
3DFACE
8
ADRYKLY_PTCHYM_VMBNH
10
6900.00
20
-6300.00
30
1049.00
11
6900.00
21
-6200.00
31
1049.00
12
6900.00
22
-6200.00
32
2489.00
13
6900.00
23
-6300.00
33
2489.00
0
TEXT
8
LABELS
10
5700.00
20
-6380.00
30
1049.00
40
60.00
1
\U+05D7\U+05DC\U+05D5\U+05DF
7
HEB
0
3DFACE
8
ADRYKLY_PTCHYM_VMBNH
10
6400.00
20
-6300.00
30
1049.00
11
7600.00
21
-6300.00
31
1049.00
12
7600.00
22
-6050.00
32
1049.00
13
6400.00
23
-6050.00
33
1049.00
0
3DFACE
8
ADRYKLY_PTCHYM_VMBNH
10
6400.00
20
-6300.00
30
1089.00
11
7600.00
21
-6300.00
31
1089.00
12
7600.00
22
-6050.00
32
1089.00
13
6400.00
23
-6050.00
33
1089.00
0
3DFACE
8
ADRYKLY_PTCHYM_VMBNH
10
6400.00
20
-6300.00
30
1049.00
11
7600.00
21
-6300.00
31
1049.00
12
7600.00
22
-6300.00
32
1089.00
13
6400.00
23
-6300.00
33
1089.00
0
3DFACE
8
ADRYKLY_PTCHYM_VMBNH
10
6400.00
20
-6050.00
30
1049.00
11
7600.00
21
-6050.00
31
1049.00
12
7600.00
22
-6050.00
32
1089.00
13
6400.00
23
-6050.00
33
1089.00
0
3DFACE
8
ADRYKLY_PTCHYM_VMBNH
10
6400.00
20
-6300.00
30
1049.00
11
6400.00
21
-6050.00
31
1049.00
12
6400.00
22
-6050.00
32
1089.00
13
6400.00
23
-6300.00
33
1089.00
0
3DFACE
8
ADRYKLY_PTCHYM_VMBNH
10
7600.00
20
-6300.00
30
1049.00
11
7600.00
21
-6050.00
31
1049.00
12
7600.00
22
-6050.00
32
1089.00
13
7600.00
23
-6300.00
33
1089.00
0
TEXT
8
LABELS
10
6400.00
20
-6380.00
30
1049.00
40
60.00
1
\U+05D0\U+05D3\U+05DF \U+05D7\U+05DC\U+05D5\U+05DF
7
HEB
0
3DFACE
8
ADRYKLY_PTCHYM_VMBNH
10
6542.00
20
-6300.00
30
2450.00
11
8858.00
21
-6300.00
31
2450.00
12
8858.00
22
-6300.00
32
2450.00
13
6542.00
23
-6300.00
33
2450.00
0
3DFACE
8
ADRYKLY_PTCHYM_VMBNH
10
6542.00
20
-6300.00
30
2695.00
11
8858.00
21
-6300.00
31
2695.00
12
8858.00
22
-6300.00
32
2695.00
13
6542.00
23
-6300.00
33
2695.00
0
3DFACE
8
ADRYKLY_PTCHYM_VMBNH
10
6542.00
20
-6300.00
30
2450.00
11
8858.00
21
-6300.00
31
2450.00
12
8858.00
22
-6300.00
32
2695.00
13
6542.00
23
-6300.00
33
2695.00
0
3DFACE
8
ADRYKLY_PTCHYM_VMBNH
10
6542.00
20
-6300.00
30
2450.00
11
8858.00
21
-6300.00
31
2450.00
12
8858.00
22
-6300.00
32
2695.00
13
6542.00
23
-6300.00
33
2695.00
0
3DFACE
8
ADRYKLY_PTCHYM_VMBNH
10
6542.00
20
-6300.00
30
2450.00
11
6542.00
21
-6300.00
31
2450.00
12
6542.00
22
-6300.00
32
2695.00
13
6542.00
23
-6300.00
33
2695.00
0
3DFACE
8
ADRYKLY_PTCHYM_VMBNH
10
8858.00
20
-6300.00
30
2450.00
11
8858.00
21
-6300.00
31
2450.00
12
8858.00
22
-6300.00
32
2695.00
13
8858.00
23
-6300.00
33
2695.00
0
TEXT
8
LABELS
10
6542.00
20
-6380.00
30
2450.00
40
60.00
1
\U+05D0\U+05E8\U+05D2\U+05D6 \U+05EA\U+05E8\U+05D9\U+05E1
7
HEB
0
3DFACE
8
ADRYKLY_PTCHYM_VMBNH
10
-400.00
20
-7000.00
30
0.00
11
400.00
21
-7000.00
31
0.00
12
400.00
22
-7000.00
32
0.00
13
-400.00
23
-7000.00
33
0.00
0
3DFACE
8
ADRYKLY_PTCHYM_VMBNH
10
-400.00
20
-7000.00
30
2100.00
11
400.00
21
-7000.00
31
2100.00
12
400.00
22
-7000.00
32
2100.00
13
-400.00
23
-7000.00
33
2100.00
0
3DFACE
8
ADRYKLY_PTCHYM_VMBNH
10
-400.00
20
-7000.00
30
0.00
11
400.00
21
-7000.00
31
0.00
12
400.00
22
-7000.00
32
2100.00
13
-400.00
23
-7000.00
33
2100.00
0
3DFACE
8
ADRYKLY_PTCHYM_VMBNH
10
-400.00
20
-7000.00
30
0.00
11
400.00
21
-7000.00
31
0.00
12
400.00
22
-7000.00
32
2100.00
13
-400.00
23
-7000.00
33
2100.00
0
3DFACE
8
ADRYKLY_PTCHYM_VMBNH
10
-400.00
20
-7000.00
30
0.00
11
-400.00
21
-7000.00
31
0.00
12
-400.00
22
-7000.00
32
2100.00
13
-400.00
23
-7000.00
33
2100.00
0
3DFACE
8
ADRYKLY_PTCHYM_VMBNH
10
400.00
20
-7000.00
30
0.00
11
400.00
21
-7000.00
31
0.00
12
400.00
22
-7000.00
32
2100.00
13
400.00
23
-7000.00
33
2100.00
0
TEXT
8
LABELS
10
-400.00
20
-7080.00
30
0.00
40
60.00
1
\U+05E4\U+05EA\U+05D7 \U+05D3\U+05DC\U+05EA (\U+05DC\U+05DC\U+05D0 \U+05DE\U+05E9\U+05E7\U+05D5\U+05E3)
7
HEB
0
3DFACE
8
ADRYKLY_PTCHYM_VMBNH
10
250.00
20
-7000.00
30
0.00
11
1150.00
21
-7000.00
31
0.00
12
1150.00
22
-7000.00
32
0.00
13
250.00
23
-7000.00
33
0.00
0
3DFACE
8
ADRYKLY_PTCHYM_VMBNH
10
250.00
20
-7000.00
30
2100.00
11
1150.00
21
-7000.00
31
2100.00
12
1150.00
22
-7000.00
32
2100.00
13
250.00
23
-7000.00
33
2100.00
0
3DFACE
8
ADRYKLY_PTCHYM_VMBNH
10
250.00
20
-7000.00
30
0.00
11
1150.00
21
-7000.00
31
0.00
12
1150.00
22
-7000.00
32
2100.00
13
250.00
23
-7000.00
33
2100.00
0
3DFACE
8
ADRYKLY_PTCHYM_VMBNH
10
250.00
20
-7000.00
30
0.00
11
1150.00
21
-7000.00
31
0.00
12
1150.00
22
-7000.00
32
2100.00
13
250.00
23
-7000.00
33
2100.00
0
3DFACE
8
ADRYKLY_PTCHYM_VMBNH
10
250.00
20
-7000.00
30
0.00
11
250.00
21
-7000.00
31
0.00
12
250.00
22
-7000.00
32
2100.00
13
250.00
23
-7000.00
33
2100.00
0
3DFACE
8
ADRYKLY_PTCHYM_VMBNH
10
1150.00
20
-7000.00
30
0.00
11
1150.00
21
-7000.00
31
0.00
12
1150.00
22
-7000.00
32
2100.00
13
1150.00
23
-7000.00
33
2100.00
0
TEXT
8
LABELS
10
250.00
20
-7080.00
30
0.00
40
60.00
1
\U+05E4\U+05EA\U+05D7 \U+05D3\U+05DC\U+05EA (\U+05E2\U+05DD \U+05DE\U+05E9\U+05E7\U+05D5\U+05E3)
7
HEB
0
3DFACE
8
ADRYKLY_PTCHYM_VMBNH
10
1250.00
20
-7000.00
30
150.00
11
1550.00
21
-7000.00
31
150.00
12
1550.00
22
-7000.00
32
150.00
13
1250.00
23
-7000.00
33
150.00
0
3DFACE
8
ADRYKLY_PTCHYM_VMBNH
10
1250.00
20
-7000.00
30
450.00
11
1550.00
21
-7000.00
31
450.00
12
1550.00
22
-7000.00
32
450.00
13
1250.00
23
-7000.00
33
450.00
0
3DFACE
8
ADRYKLY_PTCHYM_VMBNH
10
1250.00
20
-7000.00
30
150.00
11
1550.00
21
-7000.00
31
150.00
12
1550.00
22
-7000.00
32
450.00
13
1250.00
23
-7000.00
33
450.00
0
3DFACE
8
ADRYKLY_PTCHYM_VMBNH
10
1250.00
20
-7000.00
30
150.00
11
1550.00
21
-7000.00
31
150.00
12
1550.00
22
-7000.00
32
450.00
13
1250.00
23
-7000.00
33
450.00
0
3DFACE
8
ADRYKLY_PTCHYM_VMBNH
10
1250.00
20
-7000.00
30
150.00
11
1250.00
21
-7000.00
31
150.00
12
1250.00
22
-7000.00
32
450.00
13
1250.00
23
-7000.00
33
450.00
0
3DFACE
8
ADRYKLY_PTCHYM_VMBNH
10
1550.00
20
-7000.00
30
150.00
11
1550.00
21
-7000.00
31
150.00
12
1550.00
22
-7000.00
32
450.00
13
1550.00
23
-7000.00
33
450.00
0
TEXT
8
LABELS
10
1250.00
20
-7080.00
30
150.00
40
60.00
1
\U+05E4\U+05EA\U+05D7 / \U+05E7\U+05D5\U+05E4\U+05E1\U+05EA \U+05D1\U+05D9\U+05E7\U+05D5\U+05E8\U+05EA (\U+05E7.\U+05D1\U+05E7\U+05D5\U+05E8\U+05EA)
7
HEB
0
3DFACE
8
ADRYKLY_PTCHYM_VMBNH
10
1600.00
20
-7000.00
30
0.00
11
2600.00
21
-7000.00
31
0.00
12
2600.00
22
-6720.00
32
0.00
13
1600.00
23
-6720.00
33
0.00
0
3DFACE
8
ADRYKLY_PTCHYM_VMBNH
10
1600.00
20
-7000.00
30
175.00
11
2600.00
21
-7000.00
31
175.00
12
2600.00
22
-6720.00
32
175.00
13
1600.00
23
-6720.00
33
175.00
0
3DFACE
8
ADRYKLY_PTCHYM_VMBNH
10
1600.00
20
-7000.00
30
0.00
11
2600.00
21
-7000.00
31
0.00
12
2600.00
22
-7000.00
32
175.00
13
1600.00
23
-7000.00
33
175.00
0
3DFACE
8
ADRYKLY_PTCHYM_VMBNH
10
1600.00
20
-6720.00
30
0.00
11
2600.00
21
-6720.00
31
0.00
12
2600.00
22
-6720.00
32
175.00
13
1600.00
23
-6720.00
33
175.00
0
3DFACE
8
ADRYKLY_PTCHYM_VMBNH
10
1600.00
20
-7000.00
30
0.00
11
1600.00
21
-6720.00
31
0.00
12
1600.00
22
-6720.00
32
175.00
13
1600.00
23
-7000.00
33
175.00
0
3DFACE
8
ADRYKLY_PTCHYM_VMBNH
10
2600.00
20
-7000.00
30
0.00
11
2600.00
21
-6720.00
31
0.00
12
2600.00
22
-6720.00
32
175.00
13
2600.00
23
-7000.00
33
175.00
0
TEXT
8
LABELS
10
1600.00
20
-7080.00
30
0.00
40
60.00
1
\U+05DE\U+05D3\U+05E8\U+05D2\U+05D4 (\U+05E8\U+05D5\U+05DD / \U+05E9\U+05DC\U+05D7)
7
HEB
0
3DFACE
8
ADRYKLY_PTCHYM_VMBNH
10
2300.00
20
-7000.00
30
0.00
11
3300.00
21
-7000.00
31
0.00
12
3300.00
22
-6000.00
32
0.00
13
2300.00
23
-6000.00
33
0.00
0
3DFACE
8
ADRYKLY_PTCHYM_VMBNH
10
2300.00
20
-7000.00
30
200.00
11
3300.00
21
-7000.00
31
200.00
12
3300.00
22
-6000.00
32
200.00
13
2300.00
23
-6000.00
33
200.00
0
3DFACE
8
ADRYKLY_PTCHYM_VMBNH
10
2300.00
20
-7000.00
30
0.00
11
3300.00
21
-7000.00
31
0.00
12
3300.00
22
-7000.00
32
200.00
13
2300.00
23
-7000.00
33
200.00
0
3DFACE
8
ADRYKLY_PTCHYM_VMBNH
10
2300.00
20
-6000.00
30
0.00
11
3300.00
21
-6000.00
31
0.00
12
3300.00
22
-6000.00
32
200.00
13
2300.00
23
-6000.00
33
200.00
0
3DFACE
8
ADRYKLY_PTCHYM_VMBNH
10
2300.00
20
-7000.00
30
0.00
11
2300.00
21
-6000.00
31
0.00
12
2300.00
22
-6000.00
32
200.00
13
2300.00
23
-7000.00
33
200.00
0
3DFACE
8
ADRYKLY_PTCHYM_VMBNH
10
3300.00
20
-7000.00
30
0.00
11
3300.00
21
-6000.00
31
0.00
12
3300.00
22
-6000.00
32
200.00
13
3300.00
23
-7000.00
33
200.00
0
TEXT
8
LABELS
10
2300.00
20
-7080.00
30
0.00
40
60.00
1
\U+05E4\U+05D5\U+05D3\U+05E1\U+05D8 (\U+05DE\U+05D9\U+05E9\U+05D5\U+05E8\U+05EA \U+05D1\U+05D9\U+05E0\U+05D9\U+05D9\U+05DD)
7
HEB
0
3DFACE
8
ADRYKLY_PTCHYM_VMBNH
10
2900.00
20
-7000.00
30
0.00
11
4100.00
21
-7000.00
31
0.00
12
4100.00
22
-7000.00
32
0.00
13
2900.00
23
-7000.00
33
0.00
0
3DFACE
8
ADRYKLY_PTCHYM_VMBNH
10
2900.00
20
-7000.00
30
200.00
11
4100.00
21
-7000.00
31
200.00
12
4100.00
22
-7000.00
32
200.00
13
2900.00
23
-7000.00
33
200.00
0
3DFACE
8
ADRYKLY_PTCHYM_VMBNH
10
2900.00
20
-7000.00
30
0.00
11
4100.00
21
-7000.00
31
0.00
12
4100.00
22
-7000.00
32
200.00
13
2900.00
23
-7000.00
33
200.00
0
3DFACE
8
ADRYKLY_PTCHYM_VMBNH
10
2900.00
20
-7000.00
30
0.00
11
4100.00
21
-7000.00
31
0.00
12
4100.00
22
-7000.00
32
200.00
13
2900.00
23
-7000.00
33
200.00
0
3DFACE
8
ADRYKLY_PTCHYM_VMBNH
10
2900.00
20
-7000.00
30
0.00
11
2900.00
21
-7000.00
31
0.00
12
2900.00
22
-7000.00
32
200.00
13
2900.00
23
-7000.00
33
200.00
0
3DFACE
8
ADRYKLY_PTCHYM_VMBNH
10
4100.00
20
-7000.00
30
0.00
11
4100.00
21
-7000.00
31
0.00
12
4100.00
22
-7000.00
32
200.00
13
4100.00
23
-7000.00
33
200.00
0
TEXT
8
LABELS
10
2900.00
20
-7080.00
30
0.00
40
60.00
1
\U+05E8\U+05DE\U+05E4\U+05D4
7
HEB
0
3DFACE
8
ADRYKLY_PTCHYM_VMBNH
10
4100.00
20
-7000.00
30
0.00
11
4300.00
21
-7000.00
31
0.00
12
4300.00
22
-7000.00
32
0.00
13
4100.00
23
-7000.00
33
0.00
0
3DFACE
8
ADRYKLY_PTCHYM_VMBNH
10
4100.00
20
-7000.00
30
400.00
11
4300.00
21
-7000.00
31
400.00
12
4300.00
22
-7000.00
32
400.00
13
4100.00
23
-7000.00
33
400.00
0
3DFACE
8
ADRYKLY_PTCHYM_VMBNH
10
4100.00
20
-7000.00
30
0.00
11
4300.00
21
-7000.00
31
0.00
12
4300.00
22
-7000.00
32
400.00
13
4100.00
23
-7000.00
33
400.00
0
3DFACE
8
ADRYKLY_PTCHYM_VMBNH
10
4100.00
20
-7000.00
30
0.00
11
4300.00
21
-7000.00
31
0.00
12
4300.00
22
-7000.00
32
400.00
13
4100.00
23
-7000.00
33
400.00
0
3DFACE
8
ADRYKLY_PTCHYM_VMBNH
10
4100.00
20
-7000.00
30
0.00
11
4100.00
21
-7000.00
31
0.00
12
4100.00
22
-7000.00
32
400.00
13
4100.00
23
-7000.00
33
400.00
0
3DFACE
8
ADRYKLY_PTCHYM_VMBNH
10
4300.00
20
-7000.00
30
0.00
11
4300.00
21
-7000.00
31
0.00
12
4300.00
22
-7000.00
32
400.00
13
4300.00
23
-7000.00
33
400.00
0
TEXT
8
LABELS
10
4100.00
20
-7080.00
30
0.00
40
60.00
1
\U+05E7\U+05D5\U+05E8\U+05D4 (\U+05D1\U+05D8\U+05D5\U+05DF/\U+05D2\U+05D1\U+05E1)
7
HEB
0
3DFACE
8
ADRYKLY_PTCHYM_VMBNH
10
4750.00
20
-7000.00
30
0.00
11
5050.00
21
-7000.00
31
0.00
12
5050.00
22
-6700.00
32
0.00
13
4750.00
23
-6700.00
33
0.00
0
3DFACE
8
ADRYKLY_PTCHYM_VMBNH
10
4750.00
20
-7000.00
30
200.00
11
5050.00
21
-7000.00
31
200.00
12
5050.00
22
-6700.00
32
200.00
13
4750.00
23
-6700.00
33
200.00
0
3DFACE
8
ADRYKLY_PTCHYM_VMBNH
10
4750.00
20
-7000.00
30
0.00
11
5050.00
21
-7000.00
31
0.00
12
5050.00
22
-7000.00
32
200.00
13
4750.00
23
-7000.00
33
200.00
0
3DFACE
8
ADRYKLY_PTCHYM_VMBNH
10
4750.00
20
-6700.00
30
0.00
11
5050.00
21
-6700.00
31
0.00
12
5050.00
22
-6700.00
32
200.00
13
4750.00
23
-6700.00
33
200.00
0
3DFACE
8
ADRYKLY_PTCHYM_VMBNH
10
4750.00
20
-7000.00
30
0.00
11
4750.00
21
-6700.00
31
0.00
12
4750.00
22
-6700.00
32
200.00
13
4750.00
23
-7000.00
33
200.00
0
3DFACE
8
ADRYKLY_PTCHYM_VMBNH
10
5050.00
20
-7000.00
30
0.00
11
5050.00
21
-6700.00
31
0.00
12
5050.00
22
-6700.00
32
200.00
13
5050.00
23
-7000.00
33
200.00
0
TEXT
8
LABELS
10
4750.00
20
-7080.00
30
0.00
40
60.00
1
\U+05E2\U+05DE\U+05D5\U+05D3 \U+05E7\U+05D5\U+05E0\U+05E1\U+05D8\U+05E8\U+05D5\U+05E7\U+05D8\U+05D9\U+05D1\U+05D9
7
HEB
0
3DFACE
8
ADRYKLY_PTCHYM_VMBNH
10
5100.00
20
-7000.00
30
0.00
11
6100.00
21
-7000.00
31
0.00
12
6100.00
22
-6900.00
32
0.00
13
5100.00
23
-6900.00
33
0.00
0
3DFACE
8
ADRYKLY_PTCHYM_VMBNH
10
5100.00
20
-7000.00
30
200.00
11
6100.00
21
-7000.00
31
200.00
12
6100.00
22
-6900.00
32
200.00
13
5100.00
23
-6900.00
33
200.00
0
3DFACE
8
ADRYKLY_PTCHYM_VMBNH
10
5100.00
20
-7000.00
30
0.00
11
6100.00
21
-7000.00
31
0.00
12
6100.00
22
-7000.00
32
200.00
13
5100.00
23
-7000.00
33
200.00
0
3DFACE
8
ADRYKLY_PTCHYM_VMBNH
10
5100.00
20
-6900.00
30
0.00
11
6100.00
21
-6900.00
31
0.00
12
6100.00
22
-6900.00
32
200.00
13
5100.00
23
-6900.00
33
200.00
0
3DFACE
8
ADRYKLY_PTCHYM_VMBNH
10
5100.00
20
-7000.00
30
0.00
11
5100.00
21
-6900.00
31
0.00
12
5100.00
22
-6900.00
32
200.00
13
5100.00
23
-7000.00
33
200.00
0
3DFACE
8
ADRYKLY_PTCHYM_VMBNH
10
6100.00
20
-7000.00
30
0.00
11
6100.00
21
-6900.00
31
0.00
12
6100.00
22
-6900.00
32
200.00
13
6100.00
23
-7000.00
33
200.00
0
TEXT
8
LABELS
10
5100.00
20
-7080.00
30
0.00
40
60.00
1
\U+05E7\U+05D9\U+05E8 \U+05D2\U+05D1\U+05E1 / \U+05E7\U+05D5\U+05E0\U+05E1\U+05D8\U+05E8\U+05D5\U+05E7\U+05E6\U+05D9\U+05D9\U+05EA \U+05D2\U+05D1\U+05E1
7
HEB
0
3DFACE
8
ADRYKLY_PTCHYM_VMBNH
10
5800.00
20
-7000.00
30
2500.00
11
6800.00
21
-7000.00
31
2500.00
12
6800.00
22
-6950.00
32
2500.00
13
5800.00
23
-6950.00
33
2500.00
0
3DFACE
8
ADRYKLY_PTCHYM_VMBNH
10
5800.00
20
-7000.00
30
2750.00
11
6800.00
21
-7000.00
31
2750.00
12
6800.00
22
-6950.00
32
2750.00
13
5800.00
23
-6950.00
33
2750.00
0
3DFACE
8
ADRYKLY_PTCHYM_VMBNH
10
5800.00
20
-7000.00
30
2500.00
11
6800.00
21
-7000.00
31
2500.00
12
6800.00
22
-7000.00
32
2750.00
13
5800.00
23
-7000.00
33
2750.00
0
3DFACE
8
ADRYKLY_PTCHYM_VMBNH
10
5800.00
20
-6950.00
30
2500.00
11
6800.00
21
-6950.00
31
2500.00
12
6800.00
22
-6950.00
32
2750.00
13
5800.00
23
-6950.00
33
2750.00
0
3DFACE
8
ADRYKLY_PTCHYM_VMBNH
10
5800.00
20
-7000.00
30
2500.00
11
5800.00
21
-6950.00
31
2500.00
12
5800.00
22
-6950.00
32
2750.00
13
5800.00
23
-7000.00
33
2750.00
0
3DFACE
8
ADRYKLY_PTCHYM_VMBNH
10
6800.00
20
-7000.00
30
2500.00
11
6800.00
21
-6950.00
31
2500.00
12
6800.00
22
-6950.00
32
2750.00
13
6800.00
23
-7000.00
33
2750.00
0
TEXT
8
LABELS
10
5800.00
20
-7080.00
30
2500.00
40
60.00
1
\U+05D4\U+05E0\U+05DE\U+05DB\U+05EA \U+05EA\U+05E7\U+05E8\U+05D4 (\U+05D2\U+05D1\U+05E1)
7
HEB
0
3DFACE
8
ADRYKLY_PTCHYM_VMBNH
10
6700.00
20
-7000.00
30
0.00
11
7300.00
21
-7000.00
31
0.00
12
7300.00
22
-6950.00
32
0.00
13
6700.00
23
-6950.00
33
0.00
0
3DFACE
8
ADRYKLY_PTCHYM_VMBNH
10
6700.00
20
-7000.00
30
700.00
11
7300.00
21
-7000.00
31
700.00
12
7300.00
22
-6950.00
32
700.00
13
6700.00
23
-6950.00
33
700.00
0
3DFACE
8
ADRYKLY_PTCHYM_VMBNH
10
6700.00
20
-7000.00
30
0.00
11
7300.00
21
-7000.00
31
0.00
12
7300.00
22
-7000.00
32
700.00
13
6700.00
23
-7000.00
33
700.00
0
3DFACE
8
ADRYKLY_PTCHYM_VMBNH
10
6700.00
20
-6950.00
30
0.00
11
7300.00
21
-6950.00
31
0.00
12
7300.00
22
-6950.00
32
700.00
13
6700.00
23
-6950.00
33
700.00
0
3DFACE
8
ADRYKLY_PTCHYM_VMBNH
10
6700.00
20
-7000.00
30
0.00
11
6700.00
21
-6950.00
31
0.00
12
6700.00
22
-6950.00
32
700.00
13
6700.00
23
-7000.00
33
700.00
0
3DFACE
8
ADRYKLY_PTCHYM_VMBNH
10
7300.00
20
-7000.00
30
0.00
11
7300.00
21
-6950.00
31
0.00
12
7300.00
22
-6950.00
32
700.00
13
7300.00
23
-7000.00
33
700.00
0
TEXT
8
LABELS
10
6700.00
20
-7080.00
30
0.00
40
60.00
1
\U+05DE\U+05E1\U+05EA\U+05D5\U+05E8 (\U+05E4\U+05D0\U+05E0\U+05DC \U+05D4\U+05E1\U+05EA\U+05E8\U+05D4 \U+05E4\U+05E8\U+05D9\U+05E7)
7
HEB
0
ENDSEC
0
EOF
