  0
SECTION
  2
HEADER
  9
$ACADVER
  1
AC1009
  9
$INSBASE
 10
0.0000
 20
0.0000
 30
0.0000
  9
$EXTMIN
 10
3020.0000
 20
-10411.2117
 30
0.0000
  9
$EXTMAX
 10
8340.0000
 20
-2189.0000
 30
0.0000
  9
$DWGCODEPAGE
  3
ansi_1255
  9
$INSUNITS
 70
4
  9
$LTSCALE
 40
10.0000
  9
$LIMMIN
 10
0.0000
 20
0.0000
  9
$LIMMAX
 10
2000.0000
 20
200.0000
  0
ENDSEC
  0
SECTION
  2
TABLES
  0
TABLE
  2
VPORT
 70
1
  0
VPORT
  2
*ACTIVE
 70
0
 10
0.0000
 20
0.0000
 11
1.0000
 21
1.0000
 12
5680.0000
 22
-6300.1058
 13
0.0000
 23
0.0000
 14
10.0000
 24
10.0000
 15
10.0000
 25
10.0000
 16
0.0000
 26
0.0000
 36
1.0000
 17
0.0000
 27
0.0000
 37
0.0000
 40
9044.4329
 41
1.0000
 42
50.0000
 43
0.0000
 44
0.0000
 50
0.0000
 51
0.0000
 71
0
 72
100
 73
1
 74
1
 75
0
 76
0
 77
0
 78
0
  0
ENDTAB
  0
TABLE
  2
LTYPE
 70
2
  0
LTYPE
  2
CONTINUOUS
 70
0
  3
Solid line
 72
65
 73
0
 40
0.0000
  0
LTYPE
  2
HIDDEN
 70
0
  3
Hidden __ __ __ __ __ __ __ __ __ __ __ __ __ __
 72
65
 73
2
 40
0.3750
 49
0.2500
 49
-0.1250
  0
ENDTAB
  0
TABLE
  2
LAYER
 70
37
  0
LAYER
  2
0
 70
0
 62
7
  6
CONTINUOUS
  0
LAYER
  2
Electrical
 70
0
 62
6
  6
CONTINUOUS
  0
LAYER
  2
Plumbing
 70
0
 62
150
  6
CONTINUOUS
  0
LAYER
  2
Const_Walls
 70
0
 62
253
  6
CONTINUOUS
  0
LAYER
  2
Dim
 70
0
 62
9
  6
CONTINUOUS
  0
LAYER
  2
Text
 70
0
 62
74
  6
CONTINUOUS
  0
LAYER
  2
HVAC
 70
0
 62
4
  6
CONTINUOUS
  0
LAYER
  2
Misc
 70
0
 62
32
  6
HIDDEN
  0
LAYER
  2
Dim_Markers
 70
0
 62
9
  6
CONTINUOUS
  0
LAYER
  2
Dim_Wall
 70
0
 62
9
  6
CONTINUOUS
  0
LAYER
  2
Const_Doors
 70
0
 62
5
  6
CONTINUOUS
  0
LAYER
  2
Const_Windows
 70
0
 62
152
  6
CONTINUOUS
  0
LAYER
  2
Text_Legend
 70
0
 62
74
  6
CONTINUOUS
  0
LAYER
  2
Text_JobInfo
 70
0
 62
74
  6
CONTINUOUS
  0
LAYER
  2
Dim_Overall
 70
0
 62
-9
  6
CONTINUOUS
  0
LAYER
  2
Dim_Embeded
 70
0
 62
-9
  6
CONTINUOUS
  0
LAYER
  2
Dim_Angles_Auto
 70
0
 62
3
  6
CONTINUOUS
  0
LAYER
  2
Text_AreaNo
 70
0
 62
-74
  6
CONTINUOUS
  0
LAYER
  2
Dim_ArcChord
 70
0
 62
9
  6
HIDDEN
  0
LAYER
  2
Const_Walls_Ext
 70
0
 62
253
  6
CONTINUOUS
  0
LAYER
  2
Dim_Verification
 70
0
 62
-9
  6
CONTINUOUS
  0
LAYER
  2
Dim_Radius
 70
0
 62
9
  6
CONTINUOUS
  0
LAYER
  2
Dim_Angles
 70
0
 62
9
  6
CONTINUOUS
  0
LAYER
  2
Z_Other
 70
0
 62
253
  6
CONTINUOUS
  0
LAYER
  2
Const_Stairs
 70
0
 62
253
  6
CONTINUOUS
  0
LAYER
  2
Misc_Cabinets
 70
0
 62
36
  6
CONTINUOUS
  0
LAYER
  2
Z_Scale_Ruler
 70
0
 62
7
  6
CONTINUOUS
  0
LAYER
  2
Const_Fill
 70
0
 62
253
  6
CONTINUOUS
  0
LAYER
  2
Wall_Image
 70
0
 62
7
  6
CONTINUOUS
  0
LAYER
  2
Exterior_walls
 70
0
 62
5
  6
CONTINUOUS
  0
LAYER
  2
HVAC_DIM
 70
0
 62
4
  6
CONTINUOUS
  0
LAYER
  2
HVAC_H
 70
0
 62
4
  6
CONTINUOUS
  0
LAYER
  2
Electrical_DIM
 70
0
 62
6
  6
CONTINUOUS
  0
LAYER
  2
Electrical_H
 70
0
 62
6
  6
CONTINUOUS
  0
LAYER
  2
Plumbing_DIM
 70
0
 62
150
  6
CONTINUOUS
  0
LAYER
  2
Plumbing_H
 70
0
 62
150
  6
CONTINUOUS
  0
LAYER
  2
datum
 70
0
 62
1
  6
CONTINUOUS
  0
ENDTAB
  0
TABLE
  2
STYLE
 70
1
  0
STYLE
  2
STANDARD
 70
0
 40
0.0000
 41
1.0000
 50
0.0000
 71
0
 42
10.0000
  3
ARIAL.TTF
  4

  0
ENDTAB
  0
ENDSEC
  0
SECTION
  2
BLOCKS
  0
BLOCK
  8
0
  2
DUPLEXSWITCH
 70
0
 10
0.0000
 20
0.0000
 30
0.0000
  0
LINE
  5
10FF
  8
0
 10
0.0000
 20
0.0000
 30
0.0000
 11
0.0000
 21
20.0000
 31
0.0000
  0
ARC
  5
1100
  8
0
 10
-45.0000
 20
70.0000
 30
0.0000
 40
38.0000
 50
0.0000
 51
360.0000
  0
ARC
  5
1101
  8
0
 10
45.0000
 20
70.0000
 30
0.0000
 40
38.0000
 50
0.0000
 51
360.0000
  0
LINE
  5
1102
  8
0
 10
-45.0000
 20
55.0000
 30
0.0000
 11
-45.0000
 21
85.0000
 31
0.0000
  0
LINE
  5
1103
  8
0
 10
45.0000
 20
55.0000
 30
0.0000
 11
45.0000
 21
85.0000
 31
0.0000
  0
ENDBLK
  5
1104
  8
0
  0
BLOCK
  8
0
  2
CONTROLBOX
 70
0
 10
0.0000
 20
0.0000
 30
0.0000
  0
LINE
  5
1105
  8
0
 10
-90.0000
 20
0.0000
 30
0.0000
 11
90.0000
 21
0.0000
 31
0.0000
  0
LINE
  5
1106
  8
0
 10
90.0000
 20
0.0000
 30
0.0000
 11
90.0000
 21
70.0000
 31
0.0000
  0
LINE
  5
1107
  8
0
 10
90.0000
 20
70.0000
 30
0.0000
 11
-90.0000
 21
70.0000
 31
0.0000
  0
LINE
  5
1108
  8
0
 10
-90.0000
 20
70.0000
 30
0.0000
 11
-90.0000
 21
0.0000
 31
0.0000
  0
LINE
  5
1109
  8
0
 10
-90.0000
 20
0.0000
 30
0.0000
 11
90.0000
 21
70.0000
 31
0.0000
  0
ENDBLK
  5
110A
  8
0
  0
BLOCK
  8
0
  2
SOCKET
 70
0
 10
0.0000
 20
0.0000
 30
0.0000
  0
LINE
  5
110B
  8
0
 10
0.0000
 20
0.0000
 30
0.0000
 11
0.0000
 21
20.0000
 31
0.0000
  0
ARC
  5
110C
  8
0
 10
0.0000
 20
70.0000
 30
0.0000
 40
50.0000
 50
0.0000
 51
360.0000
  0
LINE
  5
110D
  8
0
 10
-50.0000
 20
70.0000
 30
0.0000
 11
50.0000
 21
70.0000
 31
0.0000
  0
LINE
  5
110E
  8
0
 10
-18.0000
 20
55.0000
 30
0.0000
 11
-18.0000
 21
85.0000
 31
0.0000
  0
LINE
  5
110F
  8
0
 10
18.0000
 20
55.0000
 30
0.0000
 11
18.0000
 21
85.0000
 31
0.0000
  0
ENDBLK
  5
1110
  8
0
  0
BLOCK
  8
0
  2
GAS
 70
0
 10
0.0000
 20
0.0000
 30
0.0000
  0
LINE
  5
1111
  8
0
 10
0.0000
 20
0.0000
 30
0.0000
 11
0.0000
 21
18.0000
 31
0.0000
  0
ARC
  5
1112
  8
0
 10
0.0000
 20
62.0000
 30
0.0000
 40
44.0000
 50
0.0000
 51
360.0000
  0
LINE
  5
1113
  8
0
 10
-16.0000
 20
52.0000
 30
0.0000
 11
0.0000
 21
78.0000
 31
0.0000
  0
LINE
  5
1114
  8
0
 10
0.0000
 20
78.0000
 30
0.0000
 11
16.0000
 21
52.0000
 31
0.0000
  0
LINE
  5
1115
  8
0
 10
0.0000
 20
45.0000
 30
0.0000
 11
0.0000
 21
70.0000
 31
0.0000
  0
ENDBLK
  5
1116
  8
0
  0
BLOCK
  8
0
  2
LIGHTING
 70
0
 10
0.0000
 20
0.0000
 30
0.0000
  0
ARC
  5
1117
  8
0
 10
0.0000
 20
0.0000
 30
0.0000
 40
55.0000
 50
0.0000
 51
360.0000
  0
LINE
  5
1118
  8
0
 10
-38.0000
 20
-38.0000
 30
0.0000
 11
38.0000
 21
38.0000
 31
0.0000
  0
LINE
  5
1119
  8
0
 10
-38.0000
 20
38.0000
 30
0.0000
 11
38.0000
 21
-38.0000
 31
0.0000
  0
ENDBLK
  5
111A
  8
0
  0
BLOCK
  8
0
  2
FAUCET
 70
0
 10
0.0000
 20
0.0000
 30
0.0000
  0
LINE
  5
111B
  8
0
 10
0.0000
 20
0.0000
 30
0.0000
 11
0.0000
 21
12.0000
 31
0.0000
  0
ARC
  5
111C
  8
0
 10
0.0000
 20
57.0000
 30
0.0000
 40
45.0000
 50
0.0000
 51
360.0000
  0
LINE
  5
111D
  8
0
 10
-32.0000
 20
57.0000
 30
0.0000
 11
32.0000
 21
57.0000
 31
0.0000
  0
LINE
  5
111E
  8
0
 10
0.0000
 20
25.0000
 30
0.0000
 11
0.0000
 21
89.0000
 31
0.0000
  0
ENDBLK
  5
111F
  8
0
  0
BLOCK
  8
0
  2
SEWAGE
 70
0
 10
0.0000
 20
0.0000
 30
0.0000
  0
LINE
  5
1120
  8
0
 10
0.0000
 20
0.0000
 30
0.0000
 11
0.0000
 21
10.0000
 31
0.0000
  0
ARC
  5
1121
  8
0
 10
0.0000
 20
50.0000
 30
0.0000
 40
45.0000
 50
0.0000
 51
360.0000
  0
LINE
  5
1122
  8
0
 10
-30.0000
 20
20.0000
 30
0.0000
 11
30.0000
 21
80.0000
 31
0.0000
  0
LINE
  5
1123
  8
0
 10
-30.0000
 20
80.0000
 30
0.0000
 11
30.0000
 21
20.0000
 31
0.0000
  0
ENDBLK
  5
1124
  8
0
  0
BLOCK
  8
0
  2
WINDOW1
 70
0
 10
0.0000
 20
0.0000
 30
0.0000
  0
LINE
  5
1125
  8
0
 10
-0.5000
 20
-0.5000
 30
0.0000
 11
0.5000
 21
-0.5000
 31
0.0000
  0
LINE
  5
1126
  8
0
 10
0.5000
 20
-0.5000
 30
0.0000
 11
0.5000
 21
0.5000
 31
0.0000
  0
LINE
  5
1127
  8
0
 10
0.5000
 20
0.5000
 30
0.0000
 11
-0.5000
 21
0.5000
 31
0.0000
  0
LINE
  5
1128
  8
0
 10
-0.5000
 20
0.5000
 30
0.0000
 11
-0.5000
 21
-0.5000
 31
0.0000
  0
LINE
  5
1129
  8
0
 10
-0.5000
 20
0.0000
 30
0.0000
 11
0.5000
 21
0.0000
 31
0.0000
  0
ENDBLK
  5
112A
  8
0
  0
ENDSEC
  0
SECTION
  2
ENTITIES
  0
LINE
  5
1000
  8
Const_Walls_Ext
 10
3020.0000
 20
-3319.0000
 30
0.0000
 11
3020.0000
 21
-2540.0000
 31
0.0000
  0
LINE
  5
1001
  8
Const_Walls
 10
3120.0000
 20
-3319.0000
 30
0.0000
 11
3120.0000
 21
-2540.0000
 31
0.0000
  0
LINE
  5
1002
  8
Const_Walls
 10
3020.0000
 20
-3319.0000
 30
0.0000
 11
3120.0000
 21
-3319.0000
 31
0.0000
  0
LINE
  5
1003
  8
Const_Walls
 10
3020.0000
 20
-2540.0000
 30
0.0000
 11
3120.0000
 21
-2540.0000
 31
0.0000
  0
SOLID
  5
1004
  8
Const_Fill
 10
3020.0000
 20
-3319.0000
 30
0.0000
 11
3020.0000
 21
-2540.0000
 31
0.0000
 12
3120.0000
 22
-3319.0000
 32
0.0000
 13
3120.0000
 23
-2540.0000
 33
0.0000
  0
LINE
  5
1005
  8
Dim_Wall
 10
3070.0000
 20
-3319.0000
 30
0.0000
 11
2610.0000
 21
-3319.0000
 31
0.0000
  0
LINE
  5
1006
  8
Dim_Wall
 10
3070.0000
 20
-2540.0000
 30
0.0000
 11
2610.0000
 21
-2540.0000
 31
0.0000
  0
LINE
  5
1007
  8
Dim_Wall
 10
2670.0000
 20
-3319.0000
 30
0.0000
 11
2670.0000
 21
-2540.0000
 31
0.0000
  0
SOLID
  5
1008
  8
Dim_Wall
 10
2670.0000
 20
-3319.0000
 30
0.0000
 11
2640.0000
 21
-3409.0000
 31
0.0000
 12
2700.0000
 22
-3409.0000
 32
0.0000
 13
2700.0000
 23
-3409.0000
 33
0.0000
  0
SOLID
  5
1009
  8
Dim_Wall
 10
2670.0000
 20
-2540.0000
 30
0.0000
 11
2640.0000
 21
-2450.0000
 31
0.0000
 12
2700.0000
 22
-2450.0000
 32
0.0000
 13
2700.0000
 23
-2450.0000
 33
0.0000
  0
TEXT
  5
100A
  8
Dim_Wall
 10
2622.0000
 20
-2929.5000
 30
0.0000
 40
120.0000
 50
90.0000
  1
77.9
  7
STANDARD
  0
LINE
  5
100B
  8
Const_Walls_Ext
 10
3070.0000
 20
-2490.0000
 30
0.0000
 11
7555.0000
 21
-2490.0000
 31
0.0000
  0
LINE
  5
100C
  8
Const_Walls
 10
3070.0000
 20
-2590.0000
 30
0.0000
 11
7555.0000
 21
-2590.0000
 31
0.0000
  0
LINE
  5
100D
  8
Const_Walls
 10
3070.0000
 20
-2490.0000
 30
0.0000
 11
3070.0000
 21
-2590.0000
 31
0.0000
  0
LINE
  5
100E
  8
Const_Walls
 10
7555.0000
 20
-2490.0000
 30
0.0000
 11
7555.0000
 21
-2590.0000
 31
0.0000
  0
SOLID
  5
100F
  8
Const_Fill
 10
3070.0000
 20
-2490.0000
 30
0.0000
 11
7555.0000
 21
-2490.0000
 31
0.0000
 12
3070.0000
 22
-2590.0000
 32
0.0000
 13
7555.0000
 23
-2590.0000
 33
0.0000
  0
LINE
  5
1010
  8
Dim_Wall
 10
3070.0000
 20
-2540.0000
 30
0.0000
 11
3070.0000
 21
-2080.0000
 31
0.0000
  0
LINE
  5
1011
  8
Dim_Wall
 10
7555.0000
 20
-2540.0000
 30
0.0000
 11
7555.0000
 21
-2080.0000
 31
0.0000
  0
LINE
  5
1012
  8
Dim_Wall
 10
3070.0000
 20
-2140.0000
 30
0.0000
 11
7555.0000
 21
-2140.0000
 31
0.0000
  0
SOLID
  5
1013
  8
Dim_Wall
 10
3070.0000
 20
-2140.0000
 30
0.0000
 11
2980.0000
 21
-2110.0000
 31
0.0000
 12
2980.0000
 22
-2170.0000
 32
0.0000
 13
2980.0000
 23
-2170.0000
 33
0.0000
  0
SOLID
  5
1014
  8
Dim_Wall
 10
7555.0000
 20
-2140.0000
 30
0.0000
 11
7645.0000
 21
-2110.0000
 31
0.0000
 12
7645.0000
 22
-2170.0000
 32
0.0000
 13
7645.0000
 23
-2170.0000
 33
0.0000
  0
TEXT
  5
1015
  8
Dim_Wall
 10
5312.5000
 20
-2092.0000
 30
0.0000
 40
120.0000
 50
0.0000
  1
448.5
  7
STANDARD
  0
LINE
  5
1016
  8
Const_Walls_Ext
 10
7604.9993
 20
-2540.2618
 30
0.0000
 11
7594.5012
 21
-4545.2343
 31
0.0000
  0
LINE
  5
1017
  8
Const_Walls
 10
7505.0007
 20
-2539.7382
 30
0.0000
 11
7494.5026
 21
-4544.7107
 31
0.0000
  0
LINE
  5
1018
  8
Const_Walls
 10
7604.9993
 20
-2540.2618
 30
0.0000
 11
7505.0007
 21
-2539.7382
 31
0.0000
  0
LINE
  5
1019
  8
Const_Walls
 10
7594.5012
 20
-4545.2343
 30
0.0000
 11
7494.5026
 21
-4544.7107
 31
0.0000
  0
SOLID
  5
101A
  8
Const_Fill
 10
7604.9993
 20
-2540.2618
 30
0.0000
 11
7594.5012
 21
-4545.2343
 31
0.0000
 12
7505.0007
 22
-2539.7382
 32
0.0000
 13
7494.5026
 23
-4544.7107
 33
0.0000
  0
LINE
  5
101B
  8
Dim_Wall
 10
7555.0000
 20
-2540.0000
 30
0.0000
 11
8014.9937
 21
-2542.4085
 31
0.0000
  0
LINE
  5
101C
  8
Dim_Wall
 10
7544.5019
 20
-4544.9725
 30
0.0000
 11
8004.4956
 21
-4547.3811
 31
0.0000
  0
LINE
  5
101D
  8
Dim_Wall
 10
7954.9945
 20
-2542.0944
 30
0.0000
 11
7944.4964
 21
-4547.0669
 31
0.0000
  0
SOLID
  5
101E
  8
Dim_Wall
 10
7954.9945
 20
-2542.0944
 30
0.0000
 11
7985.4653
 21
-2452.2527
 31
0.0000
 12
7925.4662
 22
-2451.9385
 32
0.0000
 13
7925.4662
 23
-2451.9385
 33
0.0000
  0
SOLID
  5
101F
  8
Dim_Wall
 10
7944.4964
 20
-4547.0669
 30
0.0000
 11
7974.0248
 21
-4637.2227
 31
0.0000
 12
7914.0256
 22
-4636.9086
 32
0.0000
 13
7914.0256
 23
-4636.9086
 33
0.0000
  0
TEXT
  5
1020
  8
Dim_Wall
 10
7997.7448
 20
-3544.8320
 30
0.0000
 40
120.0000
 50
89.7000
  1
200.5
  7
STANDARD
  0
LINE
  5
1021
  8
Const_Walls_Ext
 10
7544.2401
 20
-4594.9718
 30
0.0000
 11
6459.2550
 21
-4589.2908
 31
0.0000
  0
LINE
  5
1022
  8
Const_Walls
 10
7544.7637
 20
-4494.9732
 30
0.0000
 11
6459.7786
 21
-4489.2922
 31
0.0000
  0
LINE
  5
1023
  8
Const_Walls
 10
7544.2401
 20
-4594.9718
 30
0.0000
 11
7544.7637
 21
-4494.9732
 31
0.0000
  0
LINE
  5
1024
  8
Const_Walls
 10
6459.2550
 20
-4589.2908
 30
0.0000
 11
6459.7786
 21
-4489.2922
 31
0.0000
  0
SOLID
  5
1025
  8
Const_Fill
 10
7544.2401
 20
-4594.9718
 30
0.0000
 11
6459.2550
 21
-4589.2908
 31
0.0000
 12
7544.7637
 22
-4494.9732
 32
0.0000
 13
6459.7786
 23
-4489.2922
 33
0.0000
  0
LINE
  5
1026
  8
Dim_Wall
 10
7544.5019
 20
-4544.9725
 30
0.0000
 11
7542.0933
 21
-5004.9662
 31
0.0000
  0
LINE
  5
1027
  8
Dim_Wall
 10
6459.5168
 20
-4539.2915
 30
0.0000
 11
6457.1082
 21
-4999.2852
 31
0.0000
  0
LINE
  5
1028
  8
Dim_Wall
 10
7542.4075
 20
-4944.9670
 30
0.0000
 11
6457.4224
 21
-4939.2860
 31
0.0000
  0
SOLID
  5
1029
  8
Dim_Wall
 10
7542.4075
 20
-4944.9670
 30
0.0000
 11
7632.2492
 21
-4975.4379
 31
0.0000
 12
7632.5634
 22
-4915.4387
 32
0.0000
 13
7632.5634
 23
-4915.4387
 33
0.0000
  0
SOLID
  5
102A
  8
Dim_Wall
 10
6457.4224
 20
-4939.2860
 30
0.0000
 11
6367.2665
 21
-4968.8144
 31
0.0000
 12
6367.5807
 22
-4908.8152
 32
0.0000
 13
6367.5807
 23
-4908.8152
 33
0.0000
  0
TEXT
  5
102B
  8
Dim_Wall
 10
6999.6636
 20
-4990.1259
 30
0.0000
 40
120.0000
 50
359.7000
  1
108.5
  7
STANDARD
  0
LINE
  5
102C
  8
Const_Walls_Ext
 10
6509.5161
 20
-4539.5533
 30
0.0000
 11
6479.0323
 21
-10361.4735
 31
0.0000
  0
LINE
  5
102D
  8
Const_Walls
 10
6409.5175
 20
-4539.0297
 30
0.0000
 11
6379.0337
 21
-10360.9499
 31
0.0000
  0
LINE
  5
102E
  8
Const_Walls
 10
6509.5161
 20
-4539.5533
 30
0.0000
 11
6409.5175
 21
-4539.0297
 31
0.0000
  0
LINE
  5
102F
  8
Const_Walls
 10
6479.0323
 20
-10361.4735
 30
0.0000
 11
6379.0337
 21
-10360.9499
 31
0.0000
  0
SOLID
  5
1030
  8
Const_Fill
 10
6509.5161
 20
-4539.5533
 30
0.0000
 11
6479.0323
 21
-10361.4735
 31
0.0000
 12
6409.5175
 22
-4539.0297
 32
0.0000
 13
6379.0337
 23
-10360.9499
 33
0.0000
  0
LINE
  5
1031
  8
Dim_Wall
 10
6459.5168
 20
-4539.2915
 30
0.0000
 11
6919.5105
 21
-4541.7000
 31
0.0000
  0
LINE
  5
1032
  8
Dim_Wall
 10
6429.0330
 20
-10361.2117
 30
0.0000
 11
6889.0267
 21
-10363.6202
 31
0.0000
  0
LINE
  5
1033
  8
Dim_Wall
 10
6859.5113
 20
-4541.3859
 30
0.0000
 11
6829.0275
 21
-10363.3061
 31
0.0000
  0
SOLID
  5
1034
  8
Dim_Wall
 10
6859.5113
 20
-4541.3859
 30
0.0000
 11
6889.9821
 21
-4451.5442
 31
0.0000
 12
6829.9829
 22
-4451.2300
 32
0.0000
 13
6829.9829
 23
-4451.2300
 33
0.0000
  0
SOLID
  5
1035
  8
Dim_Wall
 10
6829.0275
 20
-10363.3061
 30
0.0000
 11
6858.5559
 21
-10453.4619
 31
0.0000
 12
6798.5567
 22
-10453.1478
 32
0.0000
 13
6798.5567
 23
-10453.1478
 33
0.0000
  0
TEXT
  5
1036
  8
Dim_Wall
 10
6892.2687
 20
-7452.5973
 30
0.0000
 40
120.0000
 50
89.7000
  1
582.2
  7
STANDARD
  0
INSERT
  5
1037
  8
Const_Windows
  2
WINDOW1
 10
7553.0000
 20
-2976.0000
 30
0.0000
 41
1474.0000
 42
100.0000
 43
1.0000
 50
269.7000
  0
INSERT
  5
1038
  8
Const_Windows
  2
WINDOW1
 10
6448.0000
 20
-6670.0000
 30
0.0000
 41
2471.0000
 42
100.0000
 43
1.0000
 50
269.7000
  0
INSERT
  5
1039
  8
Electrical
  2
DuplexSwitch
 10
7175.0000
 20
-2540.0000
 30
0.0000
 41
1.0000
 42
1.0000
 43
1.0000
 50
0.0000
  0
TEXT
  5
103A
  8
Electrical_H
 10
7245.0000
 20
-2500.0000
 30
0.0000
 40
90.0000
 50
0.0000
  1
H 108.5
  7
STANDARD
  0
LINE
  5
103B
  8
Electrical_DIM
 10
3070.0000
 20
-2540.0000
 30
0.0000
 11
3070.0000
 21
-2800.0000
 31
0.0000
  0
LINE
  5
103C
  8
Electrical_DIM
 10
7175.0000
 20
-2540.0000
 30
0.0000
 11
7175.0000
 21
-2800.0000
 31
0.0000
  0
LINE
  5
103D
  8
Electrical_DIM
 10
3070.0000
 20
-2740.0000
 30
0.0000
 11
7175.0000
 21
-2740.0000
 31
0.0000
  0
SOLID
  5
103E
  8
Electrical_DIM
 10
3070.0000
 20
-2740.0000
 30
0.0000
 11
2980.0000
 21
-2770.0000
 31
0.0000
 12
2980.0000
 22
-2710.0000
 32
0.0000
 13
2980.0000
 23
-2710.0000
 33
0.0000
  0
SOLID
  5
103F
  8
Electrical_DIM
 10
7175.0000
 20
-2740.0000
 30
0.0000
 11
7265.0000
 21
-2770.0000
 31
0.0000
 12
7265.0000
 22
-2710.0000
 32
0.0000
 13
7265.0000
 23
-2710.0000
 33
0.0000
  0
TEXT
  5
1040
  8
Electrical_DIM
 10
5122.5000
 20
-2776.0000
 30
0.0000
 40
90.0000
 50
0.0000
  1
410.5
  7
STANDARD
  0
INSERT
  5
1041
  8
Electrical
  2
ControlBox
 10
6841.0000
 20
-2540.0000
 30
0.0000
 41
1.0000
 42
1.0000
 43
1.0000
 50
0.0000
  0
TEXT
  5
1042
  8
Electrical_H
 10
6911.0000
 20
-2500.0000
 30
0.0000
 40
90.0000
 50
0.0000
  1
H 225.3
  7
STANDARD
  0
LINE
  5
1043
  8
Electrical_DIM
 10
3070.0000
 20
-2540.0000
 30
0.0000
 11
3070.0000
 21
-2800.0000
 31
0.0000
  0
LINE
  5
1044
  8
Electrical_DIM
 10
6841.0000
 20
-2540.0000
 30
0.0000
 11
6841.0000
 21
-2800.0000
 31
0.0000
  0
LINE
  5
1045
  8
Electrical_DIM
 10
3070.0000
 20
-2740.0000
 30
0.0000
 11
6841.0000
 21
-2740.0000
 31
0.0000
  0
SOLID
  5
1046
  8
Electrical_DIM
 10
3070.0000
 20
-2740.0000
 30
0.0000
 11
2980.0000
 21
-2770.0000
 31
0.0000
 12
2980.0000
 22
-2710.0000
 32
0.0000
 13
2980.0000
 23
-2710.0000
 33
0.0000
  0
SOLID
  5
1047
  8
Electrical_DIM
 10
6841.0000
 20
-2740.0000
 30
0.0000
 11
6931.0000
 21
-2770.0000
 31
0.0000
 12
6931.0000
 22
-2710.0000
 32
0.0000
 13
6931.0000
 23
-2710.0000
 33
0.0000
  0
TEXT
  5
1048
  8
Electrical_DIM
 10
4955.5000
 20
-2776.0000
 30
0.0000
 40
90.0000
 50
0.0000
  1
377.1
  7
STANDARD
  0
INSERT
  5
1049
  8
Electrical
  2
Socket
 10
5815.0000
 20
-2540.0000
 30
0.0000
 41
1.0000
 42
1.0000
 43
1.0000
 50
0.0000
  0
TEXT
  5
104A
  8
Electrical_H
 10
5885.0000
 20
-2500.0000
 30
0.0000
 40
90.0000
 50
0.0000
  1
H 68.4
  7
STANDARD
  0
LINE
  5
104B
  8
Electrical_DIM
 10
3070.0000
 20
-2540.0000
 30
0.0000
 11
3070.0000
 21
-2800.0000
 31
0.0000
  0
LINE
  5
104C
  8
Electrical_DIM
 10
5815.0000
 20
-2540.0000
 30
0.0000
 11
5815.0000
 21
-2800.0000
 31
0.0000
  0
LINE
  5
104D
  8
Electrical_DIM
 10
3070.0000
 20
-2740.0000
 30
0.0000
 11
5815.0000
 21
-2740.0000
 31
0.0000
  0
SOLID
  5
104E
  8
Electrical_DIM
 10
3070.0000
 20
-2740.0000
 30
0.0000
 11
2980.0000
 21
-2770.0000
 31
0.0000
 12
2980.0000
 22
-2710.0000
 32
0.0000
 13
2980.0000
 23
-2710.0000
 33
0.0000
  0
SOLID
  5
104F
  8
Electrical_DIM
 10
5815.0000
 20
-2740.0000
 30
0.0000
 11
5905.0000
 21
-2770.0000
 31
0.0000
 12
5905.0000
 22
-2710.0000
 32
0.0000
 13
5905.0000
 23
-2710.0000
 33
0.0000
  0
TEXT
  5
1050
  8
Electrical_DIM
 10
4442.5000
 20
-2776.0000
 30
0.0000
 40
90.0000
 50
0.0000
  1
274.5
  7
STANDARD
  0
INSERT
  5
1051
  8
Electrical
  2
Socket
 10
5665.0000
 20
-2540.0000
 30
0.0000
 41
1.0000
 42
1.0000
 43
1.0000
 50
0.0000
  0
TEXT
  5
1052
  8
Electrical_H
 10
5735.0000
 20
-2500.0000
 30
0.0000
 40
90.0000
 50
0.0000
  1
H 67.8
  7
STANDARD
  0
LINE
  5
1053
  8
Electrical_DIM
 10
3070.0000
 20
-2540.0000
 30
0.0000
 11
3070.0000
 21
-2800.0000
 31
0.0000
  0
LINE
  5
1054
  8
Electrical_DIM
 10
5665.0000
 20
-2540.0000
 30
0.0000
 11
5665.0000
 21
-2800.0000
 31
0.0000
  0
LINE
  5
1055
  8
Electrical_DIM
 10
3070.0000
 20
-2740.0000
 30
0.0000
 11
5665.0000
 21
-2740.0000
 31
0.0000
  0
SOLID
  5
1056
  8
Electrical_DIM
 10
3070.0000
 20
-2740.0000
 30
0.0000
 11
2980.0000
 21
-2770.0000
 31
0.0000
 12
2980.0000
 22
-2710.0000
 32
0.0000
 13
2980.0000
 23
-2710.0000
 33
0.0000
  0
SOLID
  5
1057
  8
Electrical_DIM
 10
5665.0000
 20
-2740.0000
 30
0.0000
 11
5755.0000
 21
-2770.0000
 31
0.0000
 12
5755.0000
 22
-2710.0000
 32
0.0000
 13
5755.0000
 23
-2710.0000
 33
0.0000
  0
TEXT
  5
1058
  8
Electrical_DIM
 10
4367.5000
 20
-2776.0000
 30
0.0000
 40
90.0000
 50
0.0000
  1
259.5
  7
STANDARD
  0
INSERT
  5
1059
  8
Plumbing
  2
Gas
 10
5701.0000
 20
-2540.0000
 30
0.0000
 41
1.0000
 42
1.0000
 43
1.0000
 50
0.0000
  0
TEXT
  5
105A
  8
Plumbing_H
 10
5771.0000
 20
-2500.0000
 30
0.0000
 40
90.0000
 50
0.0000
  1
H -1.2
  7
STANDARD
  0
LINE
  5
105B
  8
Plumbing_DIM
 10
3070.0000
 20
-2540.0000
 30
0.0000
 11
3070.0000
 21
-2800.0000
 31
0.0000
  0
LINE
  5
105C
  8
Plumbing_DIM
 10
5701.0000
 20
-2540.0000
 30
0.0000
 11
5701.0000
 21
-2800.0000
 31
0.0000
  0
LINE
  5
105D
  8
Plumbing_DIM
 10
3070.0000
 20
-2740.0000
 30
0.0000
 11
5701.0000
 21
-2740.0000
 31
0.0000
  0
SOLID
  5
105E
  8
Plumbing_DIM
 10
3070.0000
 20
-2740.0000
 30
0.0000
 11
2980.0000
 21
-2770.0000
 31
0.0000
 12
2980.0000
 22
-2710.0000
 32
0.0000
 13
2980.0000
 23
-2710.0000
 33
0.0000
  0
SOLID
  5
105F
  8
Plumbing_DIM
 10
5701.0000
 20
-2740.0000
 30
0.0000
 11
5791.0000
 21
-2770.0000
 31
0.0000
 12
5791.0000
 22
-2710.0000
 32
0.0000
 13
5791.0000
 23
-2710.0000
 33
0.0000
  0
TEXT
  5
1060
  8
Plumbing_DIM
 10
4385.5000
 20
-2776.0000
 30
0.0000
 40
90.0000
 50
0.0000
  1
263.1
  7
STANDARD
  0
INSERT
  5
1061
  8
Electrical
  2
Socket
 10
3531.0000
 20
-2540.0000
 30
0.0000
 41
1.0000
 42
1.0000
 43
1.0000
 50
0.0000
  0
TEXT
  5
1062
  8
Electrical_H
 10
3601.0000
 20
-2500.0000
 30
0.0000
 40
90.0000
 50
0.0000
  1
H 172.4
  7
STANDARD
  0
LINE
  5
1063
  8
Electrical_DIM
 10
3070.0000
 20
-2540.0000
 30
0.0000
 11
3070.0000
 21
-2800.0000
 31
0.0000
  0
LINE
  5
1064
  8
Electrical_DIM
 10
3531.0000
 20
-2540.0000
 30
0.0000
 11
3531.0000
 21
-2800.0000
 31
0.0000
  0
LINE
  5
1065
  8
Electrical_DIM
 10
3070.0000
 20
-2740.0000
 30
0.0000
 11
3531.0000
 21
-2740.0000
 31
0.0000
  0
SOLID
  5
1066
  8
Electrical_DIM
 10
3070.0000
 20
-2740.0000
 30
0.0000
 11
2980.0000
 21
-2770.0000
 31
0.0000
 12
2980.0000
 22
-2710.0000
 32
0.0000
 13
2980.0000
 23
-2710.0000
 33
0.0000
  0
SOLID
  5
1067
  8
Electrical_DIM
 10
3531.0000
 20
-2740.0000
 30
0.0000
 11
3621.0000
 21
-2770.0000
 31
0.0000
 12
3621.0000
 22
-2710.0000
 32
0.0000
 13
3621.0000
 23
-2710.0000
 33
0.0000
  0
TEXT
  5
1068
  8
Electrical_DIM
 10
3300.5000
 20
-2776.0000
 30
0.0000
 40
90.0000
 50
0.0000
  1
46.1
  7
STANDARD
  0
INSERT
  5
1069
  8
Electrical
  2
Socket
 10
4198.0000
 20
-2540.0000
 30
0.0000
 41
1.0000
 42
1.0000
 43
1.0000
 50
0.0000
  0
TEXT
  5
106A
  8
Electrical_H
 10
4268.0000
 20
-2500.0000
 30
0.0000
 40
90.0000
 50
0.0000
  1
H 156.7
  7
STANDARD
  0
LINE
  5
106B
  8
Electrical_DIM
 10
3070.0000
 20
-2540.0000
 30
0.0000
 11
3070.0000
 21
-2800.0000
 31
0.0000
  0
LINE
  5
106C
  8
Electrical_DIM
 10
4198.0000
 20
-2540.0000
 30
0.0000
 11
4198.0000
 21
-2800.0000
 31
0.0000
  0
LINE
  5
106D
  8
Electrical_DIM
 10
3070.0000
 20
-2740.0000
 30
0.0000
 11
4198.0000
 21
-2740.0000
 31
0.0000
  0
SOLID
  5
106E
  8
Electrical_DIM
 10
3070.0000
 20
-2740.0000
 30
0.0000
 11
2980.0000
 21
-2770.0000
 31
0.0000
 12
2980.0000
 22
-2710.0000
 32
0.0000
 13
2980.0000
 23
-2710.0000
 33
0.0000
  0
SOLID
  5
106F
  8
Electrical_DIM
 10
4198.0000
 20
-2740.0000
 30
0.0000
 11
4288.0000
 21
-2770.0000
 31
0.0000
 12
4288.0000
 22
-2710.0000
 32
0.0000
 13
4288.0000
 23
-2710.0000
 33
0.0000
  0
TEXT
  5
1070
  8
Electrical_DIM
 10
3634.0000
 20
-2776.0000
 30
0.0000
 40
90.0000
 50
0.0000
  1
112.8
  7
STANDARD
  0
INSERT
  5
1071
  8
Electrical
  2
Socket
 10
4351.0000
 20
-2540.0000
 30
0.0000
 41
1.0000
 42
1.0000
 43
1.0000
 50
0.0000
  0
TEXT
  5
1072
  8
Electrical_H
 10
4421.0000
 20
-2500.0000
 30
0.0000
 40
90.0000
 50
0.0000
  1
H 156.6
  7
STANDARD
  0
LINE
  5
1073
  8
Electrical_DIM
 10
3070.0000
 20
-2540.0000
 30
0.0000
 11
3070.0000
 21
-2800.0000
 31
0.0000
  0
LINE
  5
1074
  8
Electrical_DIM
 10
4351.0000
 20
-2540.0000
 30
0.0000
 11
4351.0000
 21
-2800.0000
 31
0.0000
  0
LINE
  5
1075
  8
Electrical_DIM
 10
3070.0000
 20
-2740.0000
 30
0.0000
 11
4351.0000
 21
-2740.0000
 31
0.0000
  0
SOLID
  5
1076
  8
Electrical_DIM
 10
3070.0000
 20
-2740.0000
 30
0.0000
 11
2980.0000
 21
-2770.0000
 31
0.0000
 12
2980.0000
 22
-2710.0000
 32
0.0000
 13
2980.0000
 23
-2710.0000
 33
0.0000
  0
SOLID
  5
1077
  8
Electrical_DIM
 10
4351.0000
 20
-2740.0000
 30
0.0000
 11
4441.0000
 21
-2770.0000
 31
0.0000
 12
4441.0000
 22
-2710.0000
 32
0.0000
 13
4441.0000
 23
-2710.0000
 33
0.0000
  0
TEXT
  5
1078
  8
Electrical_DIM
 10
3710.5000
 20
-2776.0000
 30
0.0000
 40
90.0000
 50
0.0000
  1
128.1
  7
STANDARD
  0
INSERT
  5
1079
  8
Electrical
  2
DuplexSwitch
 10
4870.0000
 20
-2540.0000
 30
0.0000
 41
1.0000
 42
1.0000
 43
1.0000
 50
0.0000
  0
TEXT
  5
107A
  8
Electrical_H
 10
4940.0000
 20
-2500.0000
 30
0.0000
 40
90.0000
 50
0.0000
  1
H 111.3
  7
STANDARD
  0
LINE
  5
107B
  8
Electrical_DIM
 10
3070.0000
 20
-2540.0000
 30
0.0000
 11
3070.0000
 21
-2800.0000
 31
0.0000
  0
LINE
  5
107C
  8
Electrical_DIM
 10
4870.0000
 20
-2540.0000
 30
0.0000
 11
4870.0000
 21
-2800.0000
 31
0.0000
  0
LINE
  5
107D
  8
Electrical_DIM
 10
3070.0000
 20
-2740.0000
 30
0.0000
 11
4870.0000
 21
-2740.0000
 31
0.0000
  0
SOLID
  5
107E
  8
Electrical_DIM
 10
3070.0000
 20
-2740.0000
 30
0.0000
 11
2980.0000
 21
-2770.0000
 31
0.0000
 12
2980.0000
 22
-2710.0000
 32
0.0000
 13
2980.0000
 23
-2710.0000
 33
0.0000
  0
SOLID
  5
107F
  8
Electrical_DIM
 10
4870.0000
 20
-2740.0000
 30
0.0000
 11
4960.0000
 21
-2770.0000
 31
0.0000
 12
4960.0000
 22
-2710.0000
 32
0.0000
 13
4960.0000
 23
-2710.0000
 33
0.0000
  0
TEXT
  5
1080
  8
Electrical_DIM
 10
3970.0000
 20
-2776.0000
 30
0.0000
 40
90.0000
 50
0.0000
  1
180
  7
STANDARD
  0
INSERT
  5
1081
  8
Electrical
  2
ControlBox
 10
4426.0000
 20
-2540.0000
 30
0.0000
 41
1.0000
 42
1.0000
 43
1.0000
 50
0.0000
  0
TEXT
  5
1082
  8
Electrical_H
 10
4496.0000
 20
-2500.0000
 30
0.0000
 40
90.0000
 50
0.0000
  1
H 223.8
  7
STANDARD
  0
LINE
  5
1083
  8
Electrical_DIM
 10
3070.0000
 20
-2540.0000
 30
0.0000
 11
3070.0000
 21
-2800.0000
 31
0.0000
  0
LINE
  5
1084
  8
Electrical_DIM
 10
4426.0000
 20
-2540.0000
 30
0.0000
 11
4426.0000
 21
-2800.0000
 31
0.0000
  0
LINE
  5
1085
  8
Electrical_DIM
 10
3070.0000
 20
-2740.0000
 30
0.0000
 11
4426.0000
 21
-2740.0000
 31
0.0000
  0
SOLID
  5
1086
  8
Electrical_DIM
 10
3070.0000
 20
-2740.0000
 30
0.0000
 11
2980.0000
 21
-2770.0000
 31
0.0000
 12
2980.0000
 22
-2710.0000
 32
0.0000
 13
2980.0000
 23
-2710.0000
 33
0.0000
  0
SOLID
  5
1087
  8
Electrical_DIM
 10
4426.0000
 20
-2740.0000
 30
0.0000
 11
4516.0000
 21
-2770.0000
 31
0.0000
 12
4516.0000
 22
-2710.0000
 32
0.0000
 13
4516.0000
 23
-2710.0000
 33
0.0000
  0
TEXT
  5
1088
  8
Electrical_DIM
 10
3748.0000
 20
-2776.0000
 30
0.0000
 40
90.0000
 50
0.0000
  1
135.6
  7
STANDARD
  0
INSERT
  5
1089
  8
Electrical
  2
Lighting
 10
4584.0000
 20
-2540.0000
 30
0.0000
 41
1.0000
 42
1.0000
 43
1.0000
 50
0.0000
  0
TEXT
  5
108A
  8
Electrical_H
 10
4654.0000
 20
-2500.0000
 30
0.0000
 40
90.0000
 50
0.0000
  1
H 276
  7
STANDARD
  0
LINE
  5
108B
  8
Electrical_DIM
 10
3070.0000
 20
-2540.0000
 30
0.0000
 11
3070.0000
 21
-2800.0000
 31
0.0000
  0
LINE
  5
108C
  8
Electrical_DIM
 10
4584.0000
 20
-2540.0000
 30
0.0000
 11
4584.0000
 21
-2800.0000
 31
0.0000
  0
LINE
  5
108D
  8
Electrical_DIM
 10
3070.0000
 20
-2740.0000
 30
0.0000
 11
4584.0000
 21
-2740.0000
 31
0.0000
  0
SOLID
  5
108E
  8
Electrical_DIM
 10
3070.0000
 20
-2740.0000
 30
0.0000
 11
2980.0000
 21
-2770.0000
 31
0.0000
 12
2980.0000
 22
-2710.0000
 32
0.0000
 13
2980.0000
 23
-2710.0000
 33
0.0000
  0
SOLID
  5
108F
  8
Electrical_DIM
 10
4584.0000
 20
-2740.0000
 30
0.0000
 11
4674.0000
 21
-2770.0000
 31
0.0000
 12
4674.0000
 22
-2710.0000
 32
0.0000
 13
4674.0000
 23
-2710.0000
 33
0.0000
  0
TEXT
  5
1090
  8
Electrical_DIM
 10
3827.0000
 20
-2776.0000
 30
0.0000
 40
90.0000
 50
0.0000
  1
151.4
  7
STANDARD
  0
INSERT
  5
1091
  8
Electrical
  2
Lighting
 10
6023.0000
 20
-2540.0000
 30
0.0000
 41
1.0000
 42
1.0000
 43
1.0000
 50
0.0000
  0
TEXT
  5
1092
  8
Electrical_H
 10
6093.0000
 20
-2500.0000
 30
0.0000
 40
90.0000
 50
0.0000
  1
H 276
  7
STANDARD
  0
LINE
  5
1093
  8
Electrical_DIM
 10
3070.0000
 20
-2540.0000
 30
0.0000
 11
3070.0000
 21
-2800.0000
 31
0.0000
  0
LINE
  5
1094
  8
Electrical_DIM
 10
6023.0000
 20
-2540.0000
 30
0.0000
 11
6023.0000
 21
-2800.0000
 31
0.0000
  0
LINE
  5
1095
  8
Electrical_DIM
 10
3070.0000
 20
-2740.0000
 30
0.0000
 11
6023.0000
 21
-2740.0000
 31
0.0000
  0
SOLID
  5
1096
  8
Electrical_DIM
 10
3070.0000
 20
-2740.0000
 30
0.0000
 11
2980.0000
 21
-2770.0000
 31
0.0000
 12
2980.0000
 22
-2710.0000
 32
0.0000
 13
2980.0000
 23
-2710.0000
 33
0.0000
  0
SOLID
  5
1097
  8
Electrical_DIM
 10
6023.0000
 20
-2740.0000
 30
0.0000
 11
6113.0000
 21
-2770.0000
 31
0.0000
 12
6113.0000
 22
-2710.0000
 32
0.0000
 13
6113.0000
 23
-2710.0000
 33
0.0000
  0
TEXT
  5
1098
  8
Electrical_DIM
 10
4546.5000
 20
-2776.0000
 30
0.0000
 40
90.0000
 50
0.0000
  1
295.3
  7
STANDARD
  0
INSERT
  5
1099
  8
Electrical
  2
Socket
 10
7548.0000
 20
-3846.0000
 30
0.0000
 41
1.0000
 42
1.0000
 43
1.0000
 50
269.7000
  0
TEXT
  5
109A
  8
Electrical_H
 10
7618.0000
 20
-3806.0000
 30
0.0000
 40
90.0000
 50
0.0000
  1
H 48.1
  7
STANDARD
  0
LINE
  5
109B
  8
Electrical_DIM
 10
7555.0000
 20
-2540.0000
 30
0.0000
 11
7295.0037
 21
-2538.6065
 31
0.0000
  0
LINE
  5
109C
  8
Electrical_DIM
 10
7548.0000
 20
-3846.0000
 30
0.0000
 11
7288.0037
 21
-3844.6065
 31
0.0000
  0
LINE
  5
109D
  8
Electrical_DIM
 10
7355.0029
 20
-2538.9280
 30
0.0000
 11
7348.0029
 21
-3844.9280
 31
0.0000
  0
SOLID
  5
109E
  8
Electrical_DIM
 10
7355.0029
 20
-2538.9280
 30
0.0000
 11
7325.4857
 21
-2448.7685
 31
0.0000
 12
7385.4848
 22
-2449.0901
 32
0.0000
 13
7385.4848
 23
-2449.0901
 33
0.0000
  0
SOLID
  5
109F
  8
Electrical_DIM
 10
7348.0029
 20
-3844.9280
 30
0.0000
 11
7317.5209
 21
-3934.7660
 31
0.0000
 12
7377.5201
 22
-3935.0875
 32
0.0000
 13
7377.5201
 23
-3935.0875
 33
0.0000
  0
TEXT
  5
10A0
  8
Electrical_DIM
 10
7315.5034
 20
-3191.7351
 30
0.0000
 40
90.0000
 50
89.6929
  1
130.6
  7
STANDARD
  0
INSERT
  5
10A1
  8
Plumbing
  2
Faucet
 10
7549.0000
 20
-3680.0000
 30
0.0000
 41
1.0000
 42
1.0000
 43
1.0000
 50
269.7000
  0
TEXT
  5
10A2
  8
Plumbing_H
 10
7619.0000
 20
-3640.0000
 30
0.0000
 40
90.0000
 50
0.0000
  1
H 51.9
  7
STANDARD
  0
LINE
  5
10A3
  8
Plumbing_DIM
 10
7555.0000
 20
-2540.0000
 30
0.0000
 11
7295.0036
 21
-2538.6316
 31
0.0000
  0
LINE
  5
10A4
  8
Plumbing_DIM
 10
7549.0000
 20
-3680.0000
 30
0.0000
 11
7289.0036
 21
-3678.6316
 31
0.0000
  0
LINE
  5
10A5
  8
Plumbing_DIM
 10
7355.0028
 20
-2538.9474
 30
0.0000
 11
7349.0028
 21
-3678.9474
 31
0.0000
  0
SOLID
  5
10A6
  8
Plumbing_DIM
 10
7355.0028
 20
-2538.9474
 30
0.0000
 11
7325.4769
 21
-2448.7907
 31
0.0000
 12
7385.4760
 22
-2449.1065
 32
0.0000
 13
7385.4760
 23
-2449.1065
 33
0.0000
  0
SOLID
  5
10A7
  8
Plumbing_DIM
 10
7349.0028
 20
-3678.9474
 30
0.0000
 11
7318.5295
 21
-3768.7882
 31
0.0000
 12
7378.5287
 22
-3769.1040
 32
0.0000
 13
7378.5287
 23
-3769.1040
 33
0.0000
  0
TEXT
  5
10A8
  8
Plumbing_DIM
 10
7316.0033
 20
-3108.7579
 30
0.0000
 40
90.0000
 50
89.6984
  1
114
  7
STANDARD
  0
INSERT
  5
10A9
  8
Plumbing
  2
Faucet
 10
7550.0000
 20
-3529.0000
 30
0.0000
 41
1.0000
 42
1.0000
 43
1.0000
 50
269.7000
  0
TEXT
  5
10AA
  8
Plumbing_H
 10
7620.0000
 20
-3489.0000
 30
0.0000
 40
90.0000
 50
0.0000
  1
H 53.2
  7
STANDARD
  0
LINE
  5
10AB
  8
Plumbing_DIM
 10
7555.0000
 20
-2540.0000
 30
0.0000
 11
7295.0033
 21
-2538.6856
 31
0.0000
  0
LINE
  5
10AC
  8
Plumbing_DIM
 10
7550.0000
 20
-3529.0000
 30
0.0000
 11
7290.0033
 21
-3527.6856
 31
0.0000
  0
LINE
  5
10AD
  8
Plumbing_DIM
 10
7355.0026
 20
-2538.9889
 30
0.0000
 11
7350.0026
 21
-3527.9889
 31
0.0000
  0
SOLID
  5
10AE
  8
Plumbing_DIM
 10
7355.0026
 20
-2538.9889
 30
0.0000
 11
7325.4579
 21
-2448.8384
 31
0.0000
 12
7385.4572
 22
-2449.1417
 32
0.0000
 13
7385.4572
 23
-2449.1417
 33
0.0000
  0
SOLID
  5
10AF
  8
Plumbing_DIM
 10
7350.0026
 20
-3527.9889
 30
0.0000
 11
7319.5479
 21
-3617.8361
 31
0.0000
 12
7379.5472
 22
-3618.1394
 32
0.0000
 13
7379.5472
 23
-3618.1394
 33
0.0000
  0
TEXT
  5
10B0
  8
Plumbing_DIM
 10
7316.5030
 20
-3033.3069
 30
0.0000
 40
90.0000
 50
89.7103
  1
98.9
  7
STANDARD
  0
INSERT
  5
10B1
  8
Plumbing
  2
Faucet
 10
7551.0000
 20
-3395.0000
 30
0.0000
 41
1.0000
 42
1.0000
 43
1.0000
 50
269.7000
  0
TEXT
  5
10B2
  8
Plumbing_H
 10
7621.0000
 20
-3355.0000
 30
0.0000
 40
90.0000
 50
0.0000
  1
H 50.5
  7
STANDARD
  0
LINE
  5
10B3
  8
Plumbing_DIM
 10
7555.0000
 20
-2540.0000
 30
0.0000
 11
7295.0028
 21
-2538.7836
 31
0.0000
  0
LINE
  5
10B4
  8
Plumbing_DIM
 10
7551.0000
 20
-3395.0000
 30
0.0000
 11
7291.0028
 21
-3393.7836
 31
0.0000
  0
LINE
  5
10B5
  8
Plumbing_DIM
 10
7355.0022
 20
-2539.0643
 30
0.0000
 11
7351.0022
 21
-3394.0643
 31
0.0000
  0
SOLID
  5
10B6
  8
Plumbing_DIM
 10
7355.0022
 20
-2539.0643
 30
0.0000
 11
7325.4236
 21
-2448.9250
 31
0.0000
 12
7385.4229
 22
-2449.2057
 32
0.0000
 13
7385.4229
 23
-2449.2057
 33
0.0000
  0
SOLID
  5
10B7
  8
Plumbing_DIM
 10
7351.0022
 20
-3394.0643
 30
0.0000
 11
7320.5815
 21
-3483.9230
 31
0.0000
 12
7380.5808
 22
-3484.2037
 32
0.0000
 13
7380.5808
 23
-3484.2037
 33
0.0000
  0
TEXT
  5
10B8
  8
Plumbing_DIM
 10
7317.0026
 20
-2966.3959
 30
0.0000
 40
90.0000
 50
89.7320
  1
85.5
  7
STANDARD
  0
INSERT
  5
10B9
  8
Plumbing
  2
Sewage
 10
7550.0000
 20
-3569.0000
 30
0.0000
 41
1.0000
 42
1.0000
 43
1.0000
 50
269.7000
  0
TEXT
  5
10BA
  8
Plumbing_H
 10
7620.0000
 20
-3529.0000
 30
0.0000
 40
90.0000
 50
0.0000
  1
H -2.7
  7
STANDARD
  0
LINE
  5
10BB
  8
Plumbing_DIM
 10
7555.0000
 20
-2540.0000
 30
0.0000
 11
7295.0031
 21
-2538.7367
 31
0.0000
  0
LINE
  5
10BC
  8
Plumbing_DIM
 10
7550.0000
 20
-3569.0000
 30
0.0000
 11
7290.0031
 21
-3567.7367
 31
0.0000
  0
LINE
  5
10BD
  8
Plumbing_DIM
 10
7355.0024
 20
-2539.0282
 30
0.0000
 11
7350.0024
 21
-3568.0282
 31
0.0000
  0
SOLID
  5
10BE
  8
Plumbing_DIM
 10
7355.0024
 20
-2539.0282
 30
0.0000
 11
7325.4400
 21
-2448.8835
 31
0.0000
 12
7385.4393
 22
-2449.1750
 32
0.0000
 13
7385.4393
 23
-2449.1750
 33
0.0000
  0
SOLID
  5
10BF
  8
Plumbing_DIM
 10
7350.0024
 20
-3568.0282
 30
0.0000
 11
7319.5654
 21
-3657.8814
 31
0.0000
 12
7379.5647
 22
-3658.1729
 32
0.0000
 13
7379.5647
 23
-3658.1729
 33
0.0000
  0
TEXT
  5
10C0
  8
Plumbing_DIM
 10
7316.5028
 20
-3053.3533
 30
0.0000
 40
90.0000
 50
89.7216
  1
102.9
  7
STANDARD
  0
INSERT
  5
10C1
  8
Electrical
  2
Socket
 10
7554.0000
 20
-2796.0000
 30
0.0000
 41
1.0000
 42
1.0000
 43
1.0000
 50
269.7000
  0
TEXT
  5
10C2
  8
Electrical_H
 10
7624.0000
 20
-2756.0000
 30
0.0000
 40
90.0000
 50
0.0000
  1
H 110
  7
STANDARD
  0
LINE
  5
10C3
  8
Electrical_DIM
 10
7555.0000
 20
-2540.0000
 30
0.0000
 11
7295.0020
 21
-2538.9844
 31
0.0000
  0
LINE
  5
10C4
  8
Electrical_DIM
 10
7554.0000
 20
-2796.0000
 30
0.0000
 11
7294.0020
 21
-2794.9844
 31
0.0000
  0
LINE
  5
10C5
  8
Electrical_DIM
 10
7355.0015
 20
-2539.2188
 30
0.0000
 11
7354.0015
 21
-2795.2188
 31
0.0000
  0
SOLID
  5
10C6
  8
Electrical_DIM
 10
7355.0015
 20
-2539.2188
 30
0.0000
 11
7325.3533
 21
-2449.1023
 31
0.0000
 12
7385.3529
 22
-2449.3366
 32
0.0000
 13
7385.3529
 23
-2449.3366
 33
0.0000
  0
SOLID
  5
10C7
  8
Electrical_DIM
 10
7354.0015
 20
-2795.2188
 30
0.0000
 11
7323.6502
 21
-2885.1009
 31
0.0000
 12
7383.6497
 22
-2885.3353
 32
0.0000
 13
7383.6497
 23
-2885.3353
 33
0.0000
  0
TEXT
  5
10C8
  8
Electrical_DIM
 10
7318.5018
 20
-2667.0781
 30
0.0000
 40
90.0000
 50
89.7762
  1
25.6
  7
STANDARD
  0
INSERT
  5
10C9
  8
Electrical
  2
ControlBox
 10
7553.0000
 20
-2838.0000
 30
0.0000
 41
1.0000
 42
1.0000
 43
1.0000
 50
269.7000
  0
TEXT
  5
10CA
  8
Electrical_H
 10
7623.0000
 20
-2798.0000
 30
0.0000
 40
90.0000
 50
0.0000
  1
H 217.3
  7
STANDARD
  0
LINE
  5
10CB
  8
Electrical_DIM
 10
7555.0000
 20
-2540.0000
 30
0.0000
 11
7295.0059
 21
-2538.2551
 31
0.0000
  0
LINE
  5
10CC
  8
Electrical_DIM
 10
7553.0000
 20
-2838.0000
 30
0.0000
 11
7293.0059
 21
-2836.2551
 31
0.0000
  0
LINE
  5
10CD
  8
Electrical_DIM
 10
7355.0045
 20
-2538.6577
 30
0.0000
 11
7353.0045
 21
-2836.6577
 31
0.0000
  0
SOLID
  5
10CE
  8
Electrical_DIM
 10
7355.0045
 20
-2538.6577
 30
0.0000
 11
7325.6092
 21
-2448.4584
 31
0.0000
 12
7385.6078
 22
-2448.8611
 32
0.0000
 13
7385.6078
 23
-2448.8611
 33
0.0000
  0
SOLID
  5
10CF
  8
Electrical_DIM
 10
7353.0045
 20
-2836.6577
 30
0.0000
 11
7322.4012
 21
-2926.4544
 31
0.0000
 12
7382.3998
 22
-2926.8571
 32
0.0000
 13
7382.3998
 23
-2926.8571
 33
0.0000
  0
TEXT
  5
10D0
  8
Electrical_DIM
 10
7318.0053
 20
-2687.4161
 30
0.0000
 40
90.0000
 50
89.6155
  1
29.8
  7
STANDARD
  0
INSERT
  5
10D1
  8
Electrical
  2
DuplexSwitch
 10
7385.0000
 20
-4544.0000
 30
0.0000
 41
1.0000
 42
1.0000
 43
1.0000
 50
179.7000
  0
TEXT
  5
10D2
  8
Electrical_H
 10
7455.0000
 20
-4504.0000
 30
0.0000
 40
90.0000
 50
0.0000
  1
H 111.1
  7
STANDARD
  0
LINE
  5
10D3
  8
Electrical_DIM
 10
7544.5019
 20
-4544.9725
 30
0.0000
 11
7546.0871
 21
-4284.9773
 31
0.0000
  0
LINE
  5
10D4
  8
Electrical_DIM
 10
7385.0000
 20
-4544.0000
 30
0.0000
 11
7386.5852
 21
-4284.0048
 31
0.0000
  0
LINE
  5
10D5
  8
Electrical_DIM
 10
7545.7213
 20
-4344.9762
 30
0.0000
 11
7386.2194
 21
-4344.0037
 31
0.0000
  0
SOLID
  5
10D6
  8
Electrical_DIM
 10
7545.7213
 20
-4344.9762
 30
0.0000
 11
7635.9026
 21
-4315.5255
 31
0.0000
 12
7635.5367
 22
-4375.5244
 32
0.0000
 13
7635.5367
 23
-4375.5244
 33
0.0000
  0
SOLID
  5
10D7
  8
Electrical_DIM
 10
7386.2194
 20
-4344.0037
 30
0.0000
 11
7296.4040
 21
-4313.4555
 31
0.0000
 12
7296.0382
 22
-4373.4544
 32
0.0000
 13
7296.0382
 23
-4373.4544
 33
0.0000
  0
TEXT
  5
10D8
  8
Electrical_DIM
 10
7466.1899
 20
-4308.4906
 30
0.0000
 40
90.0000
 50
359.6507
  1
16
  7
STANDARD
  0
INSERT
  5
10D9
  8
Electrical
  2
ControlBox
 10
7317.0000
 20
-4544.0000
 30
0.0000
 41
1.0000
 42
1.0000
 43
1.0000
 50
179.7000
  0
TEXT
  5
10DA
  8
Electrical_H
 10
7387.0000
 20
-4504.0000
 30
0.0000
 40
90.0000
 50
0.0000
  1
H 215.4
  7
STANDARD
  0
LINE
  5
10DB
  8
Electrical_DIM
 10
7544.5019
 20
-4544.9725
 30
0.0000
 11
7545.6133
 21
-4284.9749
 31
0.0000
  0
LINE
  5
10DC
  8
Electrical_DIM
 10
7317.0000
 20
-4544.0000
 30
0.0000
 11
7318.1114
 21
-4284.0024
 31
0.0000
  0
LINE
  5
10DD
  8
Electrical_DIM
 10
7545.3568
 20
-4344.9743
 30
0.0000
 11
7317.8549
 21
-4344.0018
 31
0.0000
  0
SOLID
  5
10DE
  8
Electrical_DIM
 10
7545.3568
 20
-4344.9743
 30
0.0000
 11
7635.4843
 21
-4315.3593
 31
0.0000
 12
7635.2278
 22
-4375.3588
 32
0.0000
 13
7635.2278
 23
-4375.3588
 33
0.0000
  0
SOLID
  5
10DF
  8
Electrical_DIM
 10
7317.8549
 20
-4344.0018
 30
0.0000
 11
7227.9840
 21
-4313.6174
 31
0.0000
 12
7227.7275
 22
-4373.6168
 32
0.0000
 13
7227.7275
 23
-4373.6168
 33
0.0000
  0
TEXT
  5
10E0
  8
Electrical_DIM
 10
7431.7598
 20
-4308.4884
 30
0.0000
 40
90.0000
 50
359.7551
  1
22.8
  7
STANDARD
  0
INSERT
  5
10E1
  8
Electrical
  2
Socket
 10
6458.0000
 20
-4884.0000
 30
0.0000
 41
1.0000
 42
1.0000
 43
1.0000
 50
269.7000
  0
TEXT
  5
10E2
  8
Electrical_H
 10
6528.0000
 20
-4844.0000
 30
0.0000
 40
90.0000
 50
0.0000
  1
H 111
  7
STANDARD
  0
LINE
  5
10E3
  8
Electrical_DIM
 10
6459.5168
 20
-4539.2915
 30
0.0000
 11
6199.5193
 21
-4538.1475
 31
0.0000
  0
LINE
  5
10E4
  8
Electrical_DIM
 10
6458.0000
 20
-4884.0000
 30
0.0000
 11
6198.0025
 21
-4882.8560
 31
0.0000
  0
LINE
  5
10E5
  8
Electrical_DIM
 10
6259.5187
 20
-4538.4115
 30
0.0000
 11
6258.0019
 21
-4883.1200
 31
0.0000
  0
SOLID
  5
10E6
  8
Electrical_DIM
 10
6259.5187
 20
-4538.4115
 30
0.0000
 11
6229.9150
 21
-4448.2803
 31
0.0000
 12
6289.9144
 22
-4448.5444
 32
0.0000
 13
6289.9144
 23
-4448.5444
 33
0.0000
  0
SOLID
  5
10E7
  8
Electrical_DIM
 10
6258.0019
 20
-4883.1200
 30
0.0000
 11
6227.6062
 21
-4972.9871
 31
0.0000
 12
6287.6056
 22
-4973.2511
 32
0.0000
 13
6287.6056
 23
-4973.2511
 33
0.0000
  0
TEXT
  5
10E8
  8
Electrical_DIM
 10
6222.7607
 20
-4710.6073
 30
0.0000
 40
90.0000
 50
89.7479
  1
34.5
  7
STANDARD
  0
INSERT
  5
10E9
  8
Electrical
  2
Socket
 10
6450.0000
 20
-6364.0000
 30
0.0000
 41
1.0000
 42
1.0000
 43
1.0000
 50
269.7000
  0
TEXT
  5
10EA
  8
Electrical_H
 10
6520.0000
 20
-6324.0000
 30
0.0000
 40
90.0000
 50
0.0000
  1
H 122.5
  7
STANDARD
  0
LINE
  5
10EB
  8
Electrical_DIM
 10
6459.5168
 20
-4539.2915
 30
0.0000
 11
6199.5203
 21
-4537.9355
 31
0.0000
  0
LINE
  5
10EC
  8
Electrical_DIM
 10
6450.0000
 20
-6364.0000
 30
0.0000
 11
6190.0035
 21
-6362.6440
 31
0.0000
  0
LINE
  5
10ED
  8
Electrical_DIM
 10
6259.5195
 20
-4538.2484
 30
0.0000
 11
6250.0027
 21
-6362.9569
 31
0.0000
  0
SOLID
  5
10EE
  8
Electrical_DIM
 10
6259.5195
 20
-4538.2484
 30
0.0000
 11
6229.9893
 21
-4448.0932
 31
0.0000
 12
6289.9885
 22
-4448.4061
 32
0.0000
 13
6289.9885
 23
-4448.4061
 33
0.0000
  0
SOLID
  5
10EF
  8
Electrical_DIM
 10
6250.0027
 20
-6362.9569
 30
0.0000
 11
6219.5337
 21
-6452.7992
 31
0.0000
 12
6279.5329
 22
-6453.1122
 32
0.0000
 13
6279.5329
 23
-6453.1122
 33
0.0000
  0
TEXT
  5
10F0
  8
Electrical_DIM
 10
6218.7616
 20
-5450.4149
 30
0.0000
 40
90.0000
 50
89.7012
  1
182.5
  7
STANDARD
  0
INSERT
  5
10F1
  8
Text_Legend
  2
DuplexSwitch
 10
8940.0000
 20
-2189.0000
 30
0.0000
 41
1.0000
 42
1.0000
 43
1.0000
 50
0.0000
  0
TEXT
  5
10F2
  8
Text_Legend
 10
9140.0000
 20
-2219.0000
 30
0.0000
 40
120.0000
 50
0.0000
  1
\U+05E9\U+05E7\U+05E2 \U+05DB\U+05E4\U+05D5\U+05DC
  7
STANDARD
  0
INSERT
  5
10F3
  8
Text_Legend
  2
ControlBox
 10
8940.0000
 20
-2539.0000
 30
0.0000
 41
1.0000
 42
1.0000
 43
1.0000
 50
0.0000
  0
TEXT
  5
10F4
  8
Text_Legend
 10
9140.0000
 20
-2569.0000
 30
0.0000
 40
120.0000
 50
0.0000
  1
\U+05D0\U+05E8\U+05D5\U+05DF \U+05D7\U+05E9\U+05DE\U+05DC
  7
STANDARD
  0
INSERT
  5
10F5
  8
Text_Legend
  2
Socket
 10
8940.0000
 20
-2889.0000
 30
0.0000
 41
1.0000
 42
1.0000
 43
1.0000
 50
0.0000
  0
TEXT
  5
10F6
  8
Text_Legend
 10
9140.0000
 20
-2919.0000
 30
0.0000
 40
120.0000
 50
0.0000
  1
\U+05E9\U+05E7\U+05E2
  7
STANDARD
  0
INSERT
  5
10F7
  8
Text_Legend
  2
Gas
 10
8940.0000
 20
-3239.0000
 30
0.0000
 41
1.0000
 42
1.0000
 43
1.0000
 50
0.0000
  0
TEXT
  5
10F8
  8
Text_Legend
 10
9140.0000
 20
-3269.0000
 30
0.0000
 40
120.0000
 50
0.0000
  1
\U+05D2\U+05D6
  7
STANDARD
  0
INSERT
  5
10F9
  8
Text_Legend
  2
Lighting
 10
8940.0000
 20
-3589.0000
 30
0.0000
 41
1.0000
 42
1.0000
 43
1.0000
 50
0.0000
  0
TEXT
  5
10FA
  8
Text_Legend
 10
9140.0000
 20
-3619.0000
 30
0.0000
 40
120.0000
 50
0.0000
  1
\U+05EA\U+05D0\U+05D5\U+05E8\U+05D4
  7
STANDARD
  0
INSERT
  5
10FB
  8
Text_Legend
  2
Faucet
 10
8940.0000
 20
-3939.0000
 30
0.0000
 41
1.0000
 42
1.0000
 43
1.0000
 50
0.0000
  0
TEXT
  5
10FC
  8
Text_Legend
 10
9140.0000
 20
-3969.0000
 30
0.0000
 40
120.0000
 50
0.0000
  1
\U+05D1\U+05E8\U+05D6
  7
STANDARD
  0
INSERT
  5
10FD
  8
Text_Legend
  2
Sewage
 10
8940.0000
 20
-4289.0000
 30
0.0000
 41
1.0000
 42
1.0000
 43
1.0000
 50
0.0000
  0
TEXT
  5
10FE
  8
Text_Legend
 10
9140.0000
 20
-4319.0000
 30
0.0000
 40
120.0000
 50
0.0000
  1
\U+05D1\U+05D9\U+05D5\U+05D1
  7
STANDARD
  0
ENDSEC
  0
EOF
